<svg width="341" height="180" fill="none" xmlns="http://www.w3.org/2000/svg">
  <path d="M168 29l10.5 10.5M178.5 29L168 39.5" stroke="#000"/>
  <circle cx="156.4" cy="66.4" r="1.4" fill="#31D67B"/>
  <circle cx="162.1" cy="66.4" r="1.4" fill="#31D67B"/>
  <circle cx="167.9" cy="66.4" r="1.4" fill="#31D67B"/>
  <circle cx="173.6" cy="66.4" r="1.4" fill="#31D67B"/>
  <circle cx="179.4" cy="66.4" r="1.4" fill="#31D67B"/>
  <circle cx="185.1" cy="66.4" r="1.4" fill="#31D67B"/>
  <circle cx="190.9" cy="66.4" r="1.4" fill="#31D67B"/>
  <circle cx="196.6" cy="66.4" r="1.4" fill="#31D67B"/>
  <circle cx="202.4" cy="66.4" r="1.4" fill="#31D67B"/>
  <circle cx="156.4" cy="72.1" r="1.4" fill="#31D67B"/>
  <circle cx="162.1" cy="72.1" r="1.4" fill="#31D67B"/>
  <circle cx="156.4" cy="77.9" r="1.4" fill="#31D67B"/>
  <circle cx="162.1" cy="77.9" r="1.4" fill="#31D67B"/>
  <circle cx="167.9" cy="77.9" r="1.4" fill="#31D67B"/>
  <circle cx="173.6" cy="77.9" r="1.4" fill="#31D67B"/>
  <circle cx="179.4" cy="77.9" r="1.4" fill="#31D67B"/>
  <circle cx="185.1" cy="77.9" r="1.4" fill="#31D67B"/>
  <circle cx="190.9" cy="77.9" r="1.4" fill="#31D67B"/>
  <circle cx="196.6" cy="77.9" r="1.4" fill="#31D67B"/>
  <circle cx="202.4" cy="77.9" r="1.4" fill="#31D67B"/>
  <circle cx="167.9" cy="72.1" r="1.4" fill="#31D67B"/>
  <circle cx="173.6" cy="72.1" r="1.4" fill="#31D67B"/>
  <circle cx="179.4" cy="72.1" r="1.4" fill="#31D67B"/>
  <circle cx="185.1" cy="72.1" r="1.4" fill="#31D67B"/>
  <circle cx="190.9" cy="72.1" r="1.4" fill="#31D67B"/>
  <circle cx="196.6" cy="72.1" r="1.4" fill="#31D67B"/>
  <circle cx="202.4" cy="72.1" r="1.4" fill="#31D67B"/>
  <circle cx="42.4" cy="104.4" r="1.4" fill="#D4D4D4"/>
  <circle cx="48.1" cy="104.4" r="1.4" fill="#D4D4D4"/>
  <circle cx="53.9" cy="104.4" r="1.4" fill="#D4D4D4"/>
  <circle cx="59.6" cy="104.4" r="1.4" fill="#D4D4D4"/>
  <circle cx="65.4" cy="104.4" r="1.4" fill="#D4D4D4"/>
  <circle cx="71.1" cy="104.4" r="1.4" fill="#D4D4D4"/>
  <circle cx="76.9" cy="104.4" r="1.4" fill="#D4D4D4"/>
  <circle cx="82.6" cy="104.4" r="1.4" fill="#D4D4D4"/>
  <circle cx="88.4" cy="104.4" r="1.4" fill="#D4D4D4"/>
  <circle cx="42.4" cy="110.1" r="1.4" fill="#D4D4D4"/>
  <circle cx="48.1" cy="110.1" r="1.4" fill="#D4D4D4"/>
  <circle cx="42.4" cy="115.9" r="1.4" fill="#D4D4D4"/>
  <circle cx="48.1" cy="115.9" r="1.4" fill="#D4D4D4"/>
  <circle cx="53.9" cy="115.9" r="1.4" fill="#D4D4D4"/>
  <circle cx="59.6" cy="115.9" r="1.4" fill="#D4D4D4"/>
  <circle cx="65.4" cy="115.9" r="1.4" fill="#D4D4D4"/>
  <circle cx="71.1" cy="115.9" r="1.4" fill="#D4D4D4"/>
  <circle cx="76.9" cy="115.9" r="1.4" fill="#D4D4D4"/>
  <circle cx="82.6" cy="115.9" r="1.4" fill="#D4D4D4"/>
  <circle cx="88.4" cy="115.9" r="1.4" fill="#D4D4D4"/>
  <circle cx="53.9" cy="110.1" r="1.4" fill="#D4D4D4"/>
  <circle cx="59.6" cy="110.1" r="1.4" fill="#D4D4D4"/>
  <circle cx="65.4" cy="110.1" r="1.4" fill="#D4D4D4"/>
  <circle cx="71.1" cy="110.1" r="1.4" fill="#D4D4D4"/>
  <circle cx="76.9" cy="110.1" r="1.4" fill="#D4D4D4"/>
  <circle cx="82.6" cy="110.1" r="1.4" fill="#D4D4D4"/>
  <circle cx="88.4" cy="110.1" r="1.4" fill="#D4D4D4"/>
  <path fill="#A57CFE" d="M76 42h84v84H76z"/>
  <path d="M86 62v5M83.5 60.5h68v8h-68zM83.5 79.5h68v8h-68zM83.5 98.5h68v8h-68z" stroke="#000"/>
  <path fill="#31D67B" d="M76 134h224v16H76z"/>
  <path d="M239 138.5l9.5-9.5M245.5 139l9.5-9.5M252 139l9.5-9.5M258.5 139l9.5-9.5M265 139l9.5-9.5M271.5 139l9.5-9.5M278 139l9.5-9.5" stroke="#000"/>
  <path fill="#D4D4D4" d="M219 86h79v33h-79z"/>
  <path d="M226 95h65M226.5 103h65M226.5 111h65" stroke="#000"/>
</svg>
