<svg width="341" height="181" fill="none" xmlns="http://www.w3.org/2000/svg">
  <path d="M240.72 35.9l58.2 90.6h-116.4l58.2-90.6z" fill="#A57CFE"/>
  <path d="M264.94 126.15v-73m0 0l-.96 2m.96-2l.97 2M280.98 126.15v-102m0 0l-1 2.8m1-2.8l1 2.8M248.98 126.15v-46m0 0l-1 1.26m1-1.26l1 1.26M296.98 126.15v-33m0 0l-1 .9m1-.9l1 .9" stroke="#000"/>
  <path d="M107.01 82.7V75.9c0-2.16.77-3.96 2.31-5.4a8.25 8.25 0 015.82-2.16c2.32 0 4.25.72 5.8 2.16a7.04 7.04 0 012.33 5.4v6.78c0 2.16-.78 3.96-2.34 5.4a8.15 8.15 0 01-5.79 2.16 8.25 8.25 0 01-5.82-2.16 7.09 7.09 0 01-2.3-5.4zm3.9-6.85v6.9c0 1.06.4 1.96 1.2 2.7a4.43 4.43 0 003.03 1.08c1.2 0 2.21-.36 3.03-1.08a3.56 3.56 0 001.23-2.7v-6.9c0-1.06-.4-1.95-1.23-2.67a4.29 4.29 0 00-3.03-1.1c-1.22 0-2.23.36-3.03 1.1-.8.72-1.2 1.61-1.2 2.67zm26.22-2.28l-3.63 1.8-1.62-3.42 6.36-3.15h2.8v21h-3.9V73.57zm25 1.35c0-.78-.35-1.45-1.03-2a3.47 3.47 0 00-2.37-.85c-.9 0-1.7.28-2.43.84a4.97 4.97 0 00-1.59 2.22l-3.6-1.7a8.28 8.28 0 017.62-5.08c2.1 0 3.85.63 5.25 1.9a5.85 5.85 0 012.16 4.55c0 1.08-.36 2.21-1.08 3.4a21.89 21.89 0 01-3.42 3.98l-4.1 3.9h8.78v3.72h-14.79v-2.9l7.71-7.36c1.92-1.86 2.88-3.4 2.88-4.62zm23.37-.27c0-.72-.34-1.33-1.02-1.83a4.3 4.3 0 00-2.61-.75c-.86 0-1.62.18-2.28.54a3.3 3.3 0 00-1.41 1.35l-3.54-1.68a6.72 6.72 0 012.88-2.85 8.89 8.89 0 014.38-1.08c2.18 0 4 .6 5.46 1.77a5.43 5.43 0 012.16 4.41c0 1.74-.75 3.2-2.25 4.38a5.56 5.56 0 012.79 4.9c0 1.85-.76 3.4-2.28 4.61a8.77 8.77 0 01-5.67 1.83 9.15 9.15 0 01-4.9-1.29 6.64 6.64 0 01-2.84-3.42l3.75-1.32c.22.68.69 1.24 1.4 1.68.73.42 1.58.63 2.56.63 1.12 0 2.06-.27 2.82-.8a2.52 2.52 0 001.14-2.1c0-.8-.38-1.47-1.14-1.99a4.5 4.5 0 00-2.73-.8h-1.6v-3.52h1.09c1.08 0 1.99-.25 2.73-.75s1.1-1.14 1.1-1.92zm23.63 15.15v-4.02h-10.89v-3.72l11.07-13.26h3.7v13.26h2.66v3.72H213v4.02h-3.87zm0-15.2l-6.24 7.46h6.24V74.6zm30.32 8.51c0 2.02-.77 3.72-2.31 5.1a8.34 8.34 0 01-5.73 2.04 8.06 8.06 0 01-7.86-5.37l3.87-1.05a4.22 4.22 0 004.02 2.7c1.14 0 2.08-.33 2.82-.99a3.16 3.16 0 00-.12-5.01 4.77 4.77 0 00-3.15-1.02h-5.85l1.08-10.7h11.43v3.56h-8.22l-.33 3.6h2.1c2.34 0 4.3.68 5.88 2.04a6.4 6.4 0 012.37 5.1z" fill="#31D67B"/>
  <path d="M109.32 70.51l-.67-.73.67.73zm11.61 0l-.68.73.68-.73zm0 17.58l-.68-.73.68.73zm-11.6 0l-.69.73.68-.73zm2.78-2.64l-.67.74.01.01.66-.75zm6.06 0l.66.75h.01l.01-.01-.68-.74zm0-12.27l-.67.74.01.01.66-.75zm-6.06 0l.67.75.01-.01-.68-.74zm-4.1 9.51v-6.78h-2v6.78h2zm0-6.78c0-1.89.66-3.42 2-4.67l-1.37-1.46a8.08 8.08 0 00-2.63 6.13h2zm2-4.66a7.26 7.26 0 015.13-1.9v-2c-2.54 0-4.73.8-6.5 2.43l1.36 1.47zm5.13-1.9c2.1 0 3.78.64 5.11 1.9l1.37-1.47a9.15 9.15 0 00-6.48-2.43v2zm5.11 1.9a6.05 6.05 0 012.02 4.66h2c0-2.43-.89-4.5-2.66-6.13l-1.36 1.47zm2.02 4.66v6.78h2v-6.78h-2zm0 6.78c0 1.89-.66 3.42-2.02 4.67l1.36 1.47a8.04 8.04 0 002.66-6.14h-2zm-2.02 4.67a7.15 7.15 0 01-5.1 1.9v2c2.54 0 4.72-.8 6.47-2.44l-1.37-1.46zm-5.1 1.9c-2.1 0-3.8-.65-5.15-1.9l-1.36 1.47a9.25 9.25 0 006.5 2.42v-2zm-5.14-1.9a6.09 6.09 0 01-2-4.67h-2c0 2.43.88 4.5 2.63 6.13l1.37-1.46zm-.1-11.5v6.9h2v-6.9h-2zm0 6.9c0 1.34.53 2.5 1.53 3.43l1.35-1.47c-.6-.56-.88-1.2-.88-1.97h-2zm1.54 3.44a5.43 5.43 0 003.7 1.33v-2c-.99 0-1.76-.29-2.38-.83l-1.32 1.5zm3.7 1.33c1.41 0 2.66-.43 3.68-1.33l-1.32-1.5c-.62.54-1.38.83-2.37.83v2zm3.7-1.34c1.01-.94 1.55-2.1 1.55-3.44h-2c0 .74-.27 1.38-.9 1.97l1.35 1.47zm1.55-3.44v-6.9h-2v6.9h2zm0-6.9c0-1.35-.54-2.52-1.57-3.42l-1.32 1.5c.61.54.9 1.16.9 1.92h2zm-1.55-3.4a5.29 5.29 0 00-3.7-1.38v2c1 0 1.75.3 2.34.85l1.36-1.47zm-3.7-1.38c-1.45 0-2.7.45-3.72 1.38l1.36 1.47a3.3 3.3 0 012.35-.85v-2zm-3.7 1.37c-1.01.9-1.54 2.06-1.54 3.41h2c0-.77.28-1.39.87-1.92l-1.34-1.5zm25.68 1.13h1v-1.6l-1.44.7.44.9zm-3.63 1.8l-.9.43.43.92.92-.45-.45-.9zm-1.62-3.42l-.44-.9-.88.44.42.9.9-.44zm6.36-3.15v-1h-.23l-.21.1.44.9zm2.8 0h1v-1h-1v1zm0 21v1h1v-1h-1zm-3.9 0h-1v1h1v-1zm-.45-17.12l-3.63 1.8.89 1.79 3.63-1.8-.9-1.8zm-2.28 2.26l-1.63-3.42-1.8.86 1.62 3.42 1.8-.86zm-2.09-2.1l6.37-3.14-.9-1.8-6.35 3.16.88 1.79zm5.92-3.04h2.8v-2h-2.8v2zm1.8-1v21h2v-21h-2zm1 20h-3.9v2h3.9v-2zm-2.9 1V73.57h-2V89.8h2zm22.96-16.89l-.66.76h.02v.01l.64-.77zm-4.8 0l.61.8-.6-.8zm-1.59 2.22l-.43.9.98.47.39-1.01-.94-.36zm-3.6-1.7l-.91-.4-.39.88.87.42.43-.9zm3.06-3.7l.56.84-.56-.84zm9.81.51l-.67.75h.01l.66-.75zm1.08 7.95l.85.53-.85-.53zm-3.42 4l.7.72-.7-.73zm-4.1 3.9l-.7-.73-1.81 1.72h2.5v-1zm8.78 0h1v-1h-1v1zm0 3.71v1h1v-1h-1zm-14.79 0h-1v1h1v-1zm0-2.9l-.69-.73-.3.3v.42h1zm7.71-7.36l.7.73-.7-.73zm3.88-4.62c0-1.12-.5-2.06-1.38-2.78l-1.27 1.54c.48.4.65.8.65 1.24h2zm-1.36-2.76a4.47 4.47 0 00-3.03-1.09v2c.73 0 1.28.21 1.72.6l1.31-1.51zm-3.03-1.09c-1.12 0-2.15.36-3.04 1.05l1.23 1.58a2.86 2.86 0 011.81-.63v-2zm-3.04 1.05a5.98 5.98 0 00-1.91 2.66l1.87.71c.3-.8.73-1.37 1.26-1.79l-1.22-1.58zm-.55 2.1l-3.6-1.7-.86 1.8 3.6 1.72.86-1.81zm-3.11-.4c.6-1.39 1.5-2.46 2.7-3.25l-1.1-1.67a9.29 9.29 0 00-3.43 4.12l1.83.8zm2.7-3.26c1.2-.8 2.52-1.2 4-1.2v-2c-1.87 0-3.59.51-5.12 1.54l1.12 1.66zm4-1.2c1.89 0 3.39.55 4.58 1.63l1.34-1.5a8.55 8.55 0 00-5.92-2.14v2zm4.6 1.64a4.86 4.86 0 011.81 3.8h2c0-2.09-.86-3.88-2.5-5.31l-1.31 1.5zm1.81 3.8c0 .85-.28 1.8-.93 2.87l1.7 1.04a7.52 7.52 0 001.23-3.9h-2zm-.93 2.87a20.96 20.96 0 01-3.26 3.8l1.39 1.43a22.84 22.84 0 003.57-4.18l-1.7-1.05zm-3.25 3.79l-4.12 3.9 1.38 1.45 4.11-3.9-1.38-1.45zm-3.43 5.62h8.8v-2h-8.8v2zm7.8-1v3.72h2v-3.72h-2zm1 2.72h-14.8v2h14.8v-2zm-13.8 1v-2.9h-2v2.9h2zm-.3-2.18l7.7-7.35-1.38-1.45-7.7 7.35 1.37 1.45zm7.7-7.36c1-.96 1.78-1.88 2.32-2.74a5 5 0 00.87-2.6h-2c0 .36-.14.86-.56 1.54a13.1 13.1 0 01-2.01 2.36l1.39 1.44zm24.55-7.44l.59-.8-.6.8zm-4.9-.2l.47.88h.01l-.47-.89zm-1.4 1.34l-.43.9.86.41.45-.83-.88-.48zm-3.54-1.68l-.9-.46-.47.92.94.45.43-.9zm2.88-2.85l.47.88h.01l-.48-.88zm9.84.7l-.63.77.63-.78zm-.1 8.78l-.61-.78-1.1.86 1.17.76.55-.84zm.52 9.51l-.63-.78.63.78zm-10.56.54l-.54.85h.01l.53-.85zm-2.85-3.42l-.34-.94-.94.33.33.95.95-.34zm3.75-1.32l.95-.3-.32-.98-.97.34.34.94zm1.4 1.68l-.52.86h.02l.5-.86zm5.38-.18l.57.82h.01v-.01l-.58-.8zm0-4.08l-.6.81.02.01h.01l.57-.82zm-4.32-.8h-1v1h1v-1zm0-3.52v-1h-1v1h1zm5.92-2.67a3.2 3.2 0 00-1.43-2.63l-1.19 1.6c.48.36.62.69.62 1.03h2zm-1.43-2.63a5.28 5.28 0 00-3.2-.95v2c.9 0 1.54.21 2.01.56l1.19-1.61zm-3.2-.95c-1 0-1.94.21-2.76.66l.95 1.76c.5-.27 1.09-.42 1.8-.42v-2zm-2.75.66a4.3 4.3 0 00-1.83 1.76l1.77.95c.2-.37.5-.68 1-.94l-.94-1.77zm-.52 1.33l-3.54-1.68-.85 1.8 3.54 1.69.85-1.81zm-3.08-.32c.52-1 1.33-1.81 2.47-2.43l-.95-1.76a7.71 7.71 0 00-3.3 3.27l1.78.92zm2.48-2.43a7.89 7.89 0 013.9-.96v-2c-1.78 0-3.4.4-4.87 1.2l.97 1.76zm3.9-.96c1.98 0 3.57.54 4.83 1.55l1.25-1.56a9.4 9.4 0 00-6.08-1.99v2zm4.83 1.55a4.43 4.43 0 011.79 3.63h2c0-2.1-.87-3.84-2.54-5.19l-1.25 1.56zm1.79 3.63c0 1.4-.59 2.59-1.87 3.6l1.23 1.57a6.37 6.37 0 002.64-5.17h-2zm-1.8 5.22c1.6 1.04 2.34 2.36 2.34 4.05h2a6.55 6.55 0 00-3.25-5.73l-1.09 1.68zm2.34 4.05c0 1.54-.61 2.8-1.91 3.84l1.25 1.56a6.68 6.68 0 002.66-5.4h-2zm-1.91 3.84a7.78 7.78 0 01-5.04 1.61v2c2.44 0 4.57-.66 6.3-2.05l-1.26-1.56zm-5.04 1.61c-1.7 0-3.15-.39-4.37-1.14l-1.05 1.7c1.58.97 3.4 1.44 5.42 1.44v-2zm-4.36-1.13a5.64 5.64 0 01-2.44-2.91l-1.89.67a7.63 7.63 0 003.26 3.93l1.07-1.7zm-3.05-1.63l3.75-1.32-.67-1.9-3.75 1.33.67 1.89zm2.46-1.96c.31.95.96 1.69 1.84 2.23l1.05-1.71a2.09 2.09 0 01-.98-1.14l-1.9.62zm1.86 2.24c.9.52 1.93.76 3.06.76v-2c-.84 0-1.5-.17-2.05-.5l-1 1.74zm3.06.76c1.28 0 2.43-.3 3.4-1l-1.16-1.62c-.56.4-1.29.62-2.24.62v2zm3.4-1a3.52 3.52 0 001.56-2.9h-2c0 .47-.2.89-.74 1.29l1.19 1.6zm1.56-2.9c0-1.2-.6-2.14-1.58-2.81l-1.13 1.65c.54.36.7.74.7 1.15h2zm-1.55-2.8a5.5 5.5 0 00-3.32-1v2c.9 0 1.6.23 2.14.62l1.18-1.62zm-3.32-1h-1.6v2h1.6v-2zm-.6 1v-3.5h-2v3.5h2zm-1-2.5h1.09v-2h-1.08v2zm1.09 0c1.23 0 2.35-.3 3.28-.93l-1.11-1.66c-.55.37-1.25.58-2.17.58v2zm3.28-.93a3.24 3.24 0 001.56-2.75h-2c0 .4-.16.75-.67 1.1l1.11 1.65zm24.2 12.4h-1v1h1v-1zm0-4.02h1v-1h-1v1zm-10.9 0h-1v1h1v-1zm0-3.72l-.76-.64-.24.28v.36h1zm11.07-13.26v-1h-.46l-.3.36.76.64zm3.7 0h1v-1h-1v1zm0 13.26h-1v1h1v-1zm2.66 0h1v-1h-1v1zm0 3.72v1h1v-1h-1zm-2.67 0v-1h-1v1h1zm0 4.02v1h1v-1h-1zm-3.87-15.2h1v-2.76l-1.76 2.11.76.64zm-6.24 7.46l-.76-.64-1.38 1.64h2.14v-1zm6.24 0v1h1v-1h-1zm1 7.74v-4.02h-2v4.02h2zm-1-5.02h-10.89v2h10.9v-2zm-9.89 1v-3.72h-2v3.72h2zm-.23-3.08l11.07-13.26-1.53-1.28-11.07 13.26L199 82.7zm10.3-12.9h3.7v-2h-3.7v2zm2.7-1v13.26h2V68.8h-2zm1 14.26h2.66v-2H213v2zm1.66-1v3.72h2v-3.72h-2zm1 2.72H213v2h2.67v-2zm-3.67 1v4.02h2v-4.02h-2zm1 3.02h-3.87v2H213v-2zm-4.63-14.85l-6.24 7.47 1.53 1.28 6.24-7.47-1.53-1.28zm-5.48 9.11h6.24v-2h-6.24v2zm7.24-1V74.6h-2v7.47h2zm27.01 6.15l.66.75-.66-.75zm-10.59.6l-.57.82.57-.82zm-3-3.93l-.26-.96-1.05.28.37 1.03.94-.35zm3.87-1.05l.93-.37-.34-.82-.85.23.26.96zm1.59 1.98l-.55.83.55-.83zm5.25-.27l-.65-.76-.02.02.67.74zm-.12-5l-.64.76.01.01h.01l.62-.78zm-9-1.03l-1-.1-.1 1.1h1.1v-1zm1.08-10.7v-1h-.9l-.1.9 1 .1zm11.43 0h1v-1h-1v1zm0 3.56v1h1v-1h-1zm-8.22 0v-1h-.91l-.09.91 1 .1zm-.33 3.6l-1-.09-.1 1.1h1.1v-1zm7.98 2.04l-.65.76.65-.76zm1.37 5.1c0 1.73-.64 3.16-1.98 4.36l1.34 1.49a7.58 7.58 0 002.64-5.85h-2zm-1.97 4.35a7.34 7.34 0 01-5.07 1.8v2c2.5 0 4.65-.76 6.4-2.3l-1.33-1.5zm-5.07 1.8a7.38 7.38 0 01-4.3-1.27l-1.13 1.65a9.38 9.38 0 005.43 1.61v-2zm-4.29-1.27c-1.22-.86-2.1-2-2.63-3.45l-1.88.69a9.06 9.06 0 003.37 4.4l1.14-1.64zm-3.3-2.14l3.86-1.05-.52-1.93-3.87 1.05.52 1.93zm2.67-1.64a5.22 5.22 0 001.97 2.43l1.1-1.66a3.22 3.22 0 01-1.21-1.52l-1.86.75zm1.97 2.43c.89.6 1.9.9 2.98.9v-2c-.71 0-1.33-.2-1.88-.56l-1.1 1.66zm2.98.9c1.35 0 2.53-.4 3.49-1.25l-1.34-1.5c-.53.48-1.22.74-2.15.74v2zm3.47-1.23a4.06 4.06 0 001.52-3.2h-2c0 .65-.24 1.19-.82 1.67l1.3 1.53zm1.52-3.2c0-1.36-.59-2.5-1.67-3.36l-1.24 1.57c.63.5.91 1.08.91 1.8h2zm-1.65-3.35a5.77 5.77 0 00-3.79-1.25v2c1.1 0 1.9.29 2.51.8l1.28-1.55zm-3.79-1.25h-5.85v2h5.85v-2zm-4.86 1.1l1.09-10.7-2-.2-1.07 10.7 1.98.2zm.09-9.8h11.43v-2h-11.43v2zm10.43-1v3.56h2V68.8h-2zm1 2.56h-8.22v2h8.22v-2zm-9.22.91l-.33 3.6 2 .18.33-3.6-2-.18zm.67 4.7h2.1v-2h-2.1v2zm2.1 0a7.7 7.7 0 015.23 1.8l1.3-1.53a9.7 9.7 0 00-6.53-2.28v2zm5.23 1.8a5.4 5.4 0 012.02 4.33h2a7.4 7.4 0 00-2.72-5.86l-1.3 1.53z" fill="#000"/>
  <circle cx="49.25" cy="43.12" r="2.82" fill="#31D67B"/>
  <circle cx="60.53" cy="43.12" r="2.82" fill="#31D67B"/>
  <circle cx="71.81" cy="43.12" r="2.82" fill="#31D67B"/>
  <circle cx="83.1" cy="43.12" r="2.82" fill="#31D67B"/>
  <circle cx="49.25" cy="54.4" r="2.82" fill="#31D67B"/>
  <circle cx="60.53" cy="54.4" r="2.82" fill="#31D67B"/>
  <circle cx="71.81" cy="54.4" r="2.82" fill="#31D67B"/>
  <circle cx="83.1" cy="54.4" r="2.82" fill="#31D67B"/>
  <circle cx="83.1" cy="65.69" r="2.82" fill="#31D67B"/>
  <circle cx="71.81" cy="65.69" r="2.82" fill="#31D67B"/>
  <circle cx="60.53" cy="65.69" r="2.82" fill="#31D67B"/>
  <circle cx="49.25" cy="65.69" r="2.82" fill="#31D67B"/>
  <circle cx="49.25" cy="65.33" r="2.82" fill="#31D67B"/>
  <circle cx="60.53" cy="65.33" r="2.82" fill="#31D67B"/>
  <circle cx="71.81" cy="65.33" r="2.82" fill="#31D67B"/>
  <circle cx="83.1" cy="65.33" r="2.82" fill="#31D67B"/>
  <circle cx="49.25" cy="76.61" r="2.82" fill="#31D67B"/>
  <circle cx="60.53" cy="76.61" r="2.82" fill="#31D67B"/>
  <circle cx="71.81" cy="76.61" r="2.82" fill="#31D67B"/>
  <circle cx="83.1" cy="76.61" r="2.82" fill="#31D67B"/>
  <circle cx="83.1" cy="87.9" r="2.82" fill="#31D67B"/>
  <circle cx="71.81" cy="87.9" r="2.82" fill="#31D67B"/>
  <circle cx="60.53" cy="87.9" r="2.82" fill="#31D67B"/>
  <circle cx="49.25" cy="87.9" r="2.82" fill="#31D67B"/>
  <circle cx="49.25" cy="87.54" r="2.82" fill="#31D67B"/>
  <circle cx="60.53" cy="87.54" r="2.82" fill="#31D67B"/>
  <circle cx="71.81" cy="87.54" r="2.82" fill="#31D67B"/>
  <circle cx="83.1" cy="87.54" r="2.82" fill="#31D67B"/>
  <circle cx="49.25" cy="98.82" r="2.82" fill="#31D67B"/>
  <circle cx="60.53" cy="98.82" r="2.82" fill="#31D67B"/>
  <circle cx="71.81" cy="98.82" r="2.82" fill="#31D67B"/>
  <circle cx="83.1" cy="98.82" r="2.82" fill="#31D67B"/>
  <circle cx="83.1" cy="110.11" r="2.82" fill="#31D67B"/>
  <circle cx="71.81" cy="110.11" r="2.82" fill="#31D67B"/>
  <circle cx="60.53" cy="110.11" r="2.82" fill="#31D67B"/>
  <circle cx="49.25" cy="110.11" r="2.82" fill="#31D67B"/>
  <circle cx="49.25" cy="109.75" r="2.82" fill="#31D67B"/>
  <circle cx="60.53" cy="109.75" r="2.82" fill="#31D67B"/>
  <circle cx="71.81" cy="109.75" r="2.82" fill="#31D67B"/>
  <circle cx="83.1" cy="109.75" r="2.82" fill="#31D67B"/>
  <circle cx="49.25" cy="121.03" r="2.82" fill="#31D67B"/>
  <circle cx="60.53" cy="121.03" r="2.82" fill="#31D67B"/>
  <circle cx="71.81" cy="121.03" r="2.82" fill="#31D67B"/>
  <circle cx="83.1" cy="121.03" r="2.82" fill="#31D67B"/>
  <circle cx="83.1" cy="132.31" r="2.82" fill="#31D67B"/>
  <circle cx="71.81" cy="132.31" r="2.82" fill="#31D67B"/>
  <circle cx="60.53" cy="132.31" r="2.82" fill="#31D67B"/>
  <circle cx="49.25" cy="132.31" r="2.82" fill="#31D67B"/>
  <path d="M198.93 135.14a11.84 11.84 0 1023.68 0h-23.68z" fill="#D4D4D4"/>
  <path d="M216.4 135.14c0 2.09.8 4.1 2.23 5.58a7.48 7.48 0 005.39 2.3c2.02 0 3.95-.82 5.38-2.3a8.04 8.04 0 002.23-5.58H216.4zM182.58 135.14c0 2.09 1.16 4.1 3.22 5.58a13.48 13.48 0 007.77 2.3c2.92 0 5.71-.82 7.78-2.3 2.06-1.48 3.22-3.5 3.22-5.58h-22z" fill="#D4D4D4"/>
  <path stroke="#000" d="M70.57 49.08h-37v72h37z"/>
</svg>
