<svg width="341" height="181" fill="none" xmlns="http://www.w3.org/2000/svg">
  <path d="M148 79l-60.4 68.1h172.8l56.2-68H148z" fill="#AB85FF"/>
  <mask id="a" maskUnits="userSpaceOnUse" x="87" y="79" width="230" height="69">
    <path d="M148 79l-60.4 68.1h172.8l56.2-68H148z" fill="#AB85FF"/>
  </mask>
  <g mask="url(#a)" stroke="#C9AEFF">
    <path d="M457.8 81.4c-110.2-43.7-189-43.7-236.2 0-47.3 43.8-126 43.8-236.2 0"/>
    <path d="M444 165.2C359.5 99.4 284.8 82 220 113.1 155.2 144 80.5 126.8-4 61"/>
    <path d="M453.1 136.3C338.3 98.7 259.8 103 217.7 149.2 175.5 195.4 97 199.7-17.8 162"/>
  </g>
  <path d="M189.2 147.1v-68m0 0l-.9 1.8m1-1.8l.8 1.8M204.2 147.1V52m0 0l-1 2.6m1-2.6l.9 2.6M174.3 147.1v-42.9m0 0l-1 1.2m1-1.2l1 1.2M219 147.1v-30.7m0 0l-.8.8m.9-.8l1 .8" stroke="#000"/>
  <path d="M142.8 94.4a11.8 11.8 0 10-23.7 0H142.8z" fill="#D4D4D4"/>
  <path d="M125.3 94.4a8 8 0 00-2.2-5.6 7.5 7.5 0 00-10.8 0 8 8 0 00-2.2 5.6h15.2zM159.1 94.4c0-2.1-1.1-4.1-3.2-5.6-2-1.5-4.8-2.3-7.8-2.3-2.9 0-5.7.8-7.7 2.3-2.1 1.5-3.3 3.5-3.3 5.6h22z" fill="#D4D4D4"/>
  <path d="M98 72.4a26.7 26.7 0 10-53.3 0H98z" fill="#31D67B"/>
  <path d="M58.7 72.4c0-4.7-1.8-9.2-5-12.6a16.8 16.8 0 00-24.3 0c-3.2 3.4-5 7.9-5 12.6h34.3zM134.8 72.4c0-4.7-2.6-9.2-7.2-12.6-4.7-3.3-11-5.2-17.5-5.2-6.6 0-12.9 1.9-17.5 5.2-4.7 3.4-7.3 7.9-7.3 12.6h49.5z" fill="#31D67B"/>
  <path d="M133.6 48.5a15.3 15.3 0 00-30.6 0h30.6z" fill="#4AE991"/>
  <path d="M111 48.5c0-2.7-1-5.3-2.8-7.2a9.6 9.6 0 00-14 0c-1.8 2-2.8 4.5-2.8 7.2H111zM154.6 48.5c0-2.7-1.5-5.3-4.1-7.2-2.7-1.9-6.3-3-10-3-3.8 0-7.4 1.1-10 3-2.7 2-4.2 4.5-4.2 7.2H154.6z" fill="#4AE991"/>
  <path d="M220.7 40.9l-.3-.4.3.4zm8.3 0l-.4.4.4-.4zm0 12.5l-.4-.4.4.4zm-8.3 0l-.3.4.3-.4zm2-1.9l-.4.4.4-.4zm4.3 0l.4.4-.4-.4zm0-8.7l-.3.4.3-.4zm-4.3 0l.4.4-.4-.4zm-3 6.8v-4.9h-1.2v4.9h1.1zm0-4.9c0-1.4.4-2.5 1.4-3.4l-.7-.8a5.6 5.6 0 00-1.9 4.2h1.1zm1.4-3.4c1-1 2.2-1.4 3.8-1.4v-1c-1.8 0-3.3.5-4.5 1.6l.7.8zm3.8-1.4c1.5 0 2.7.5 3.7 1.4l.8-.8a6.3 6.3 0 00-4.5-1.7v1zm3.7 1.4c1 1 1.5 2 1.5 3.4h1c0-1.6-.5-3-1.8-4.2l-.7.8zm1.5 3.4v4.9h1v-4.9h-1zm0 4.9c0 1.4-.5 2.5-1.5 3.4l.7.8a5.5 5.5 0 001.9-4.2h-1zm-1.5 3.4c-1 1-2.2 1.4-3.7 1.4v1c1.7 0 3.2-.5 4.4-1.6l-.7-.8zm-3.7 1.4c-1.6 0-2.8-.5-3.8-1.4l-.7.8a6.4 6.4 0 004.5 1.7v-1zM221 53c-1-.9-1.5-2-1.5-3.4h-1c0 1.6.6 3 1.8 4.2l.7-.8zm.2-8.3v5h1v-5h-1zm0 5a3 3 0 001 2.2l.8-.8a2 2 0 01-.7-1.5h-1zm1 2.2c.7.6 1.6 1 2.6 1v-1.1c-.8 0-1.4-.3-1.8-.7l-.7.8zm2.6 1c1 0 1.8-.4 2.5-1l-.7-.8c-.5.4-1.1.7-1.8.7v1zm2.5-1a3 3 0 001-2.3h-1c0 .6-.3 1-.7 1.5l.7.8zm1-2.3v-4.9h-1v5h1zm0-4.9a3 3 0 00-1-2.3l-.7.8c.4.4.7.9.7 1.5h1zm-1-2.3c-.7-.6-1.6-1-2.5-1v1.1c.7 0 1.3.3 1.8.7l.7-.8zm-2.5-1c-1 0-1.9.4-2.6 1l.8.8c.4-.4 1-.7 1.8-.7v-1zm-2.5 1a3 3 0 00-1 2.3h1c0-.6.2-1 .7-1.5l-.7-.8zm19.3.7h.6v-.9l-.8.4.2.5zm-2.5 1.3l-.5.2.2.5.5-.3-.2-.4zm-1.2-2.5l-.2-.5-.5.3.2.5.5-.3zm4.5-2.2V39l-.2.1.2.5zm2 0h.6V39h-.6v.6zm0 15v.5h.6v-.6h-.6zm-2.8 0h-.5v.5h.5v-.6zm-.2-12.1l-2.6 1.3.5 1 2.6-1.3-.5-1zm-1.9 1.5l-1.1-2.4-1 .5 1.2 2.4 1-.5zm-1.4-1.7l4.6-2.2-.5-1-4.5 2.2.4 1zm4.3-2.2h2v-1h-2v1zm1.5-.5v15h1v-15h-1zm.5 14.4h-2.8v1h2.8v-1zm-2.2.5V43.1h-1v11.5h1zM254.9 41l-.4-.4.4.4zm8.2 0l-.3.4.3-.4zm0 12.5l-.3-.4.3.4zm-8.2 0l-.4.4.4-.4zm2-1.9l-.4.4.4-.4zm4.3 0l.3.4-.3-.4zm0-8.7l-.4.4.4-.4zm-4.3 0l.3.4-.3-.4zm-3.1 6.8v-4.9h-1.1v4.9h1zm0-4.9c0-1.4.5-2.5 1.4-3.4l-.7-.8a5.6 5.6 0 00-1.8 4.2h1zm1.4-3.4c1-1 2.3-1.4 3.8-1.4v-1c-1.8 0-3.3.5-4.5 1.6l.7.8zm3.8-1.4c1.5 0 2.8.5 3.8 1.4l.7-.8a6.3 6.3 0 00-4.5-1.7v1zm3.8 1.4c1 1 1.5 2 1.5 3.4h1c0-1.6-.6-3-1.8-4.2l-.7.8zm1.5 3.4v4.9h1v-4.9h-1zm0 4.9c0 1.4-.5 2.5-1.5 3.4l.7.8a5.5 5.5 0 001.8-4.2h-1zm-1.5 3.4c-1 1-2.3 1.4-3.8 1.4v1c1.8 0 3.3-.5 4.5-1.6l-.7-.8zm-3.8 1.4c-1.5 0-2.8-.5-3.8-1.4l-.7.8a6.4 6.4 0 004.5 1.7v-1zm-3.8-1.4c-1-.9-1.4-2-1.4-3.4h-1.1c0 1.6.6 3 1.8 4.2l.7-.8zm.3-8.3v5h1v-5h-1zm0 5a3 3 0 001 2.2l.7-.8a2 2 0 01-.7-1.5h-1zm1 2.2c.7.6 1.5 1 2.5 1v-1.1c-.7 0-1.3-.3-1.8-.7l-.7.8zm2.5 1c1 0 1.8-.4 2.5-1l-.7-.8c-.5.4-1 .7-1.8.7v1zm2.5-1a3 3 0 001-2.3h-1c0 .6-.2 1-.7 1.5l.7.8zm1-2.3v-4.9h-1v5h1zm0-4.9a3 3 0 00-1-2.3l-.7.8c.5.4.7.9.7 1.5h1zm-1-2.3c-.6-.6-1.5-1-2.5-1v1.1c.8 0 1.3.3 1.8.7l.7-.8zm-2.5-1c-1 0-1.8.4-2.5 1l.7.8c.5-.4 1-.7 1.8-.7v-1zm-2.5 1a3 3 0 00-1 2.3h1c0-.6.3-1 .7-1.5l-.7-.8zm19.4.7h.5v-.9l-.7.4.2.5zm-2.6 1.3l-.5.2.3.5.4-.3-.2-.4zm-1.1-2.5l-.3-.5-.4.3.2.5.5-.3zm4.5-2.2V39h-.1l-.2.1.3.5zm2 0h.5V39h-.5v.6zm0 15v.5h.5v-.6h-.5zm-2.8 0h-.5v.5h.5v-.6zm-.2-12.1l-2.6 1.3.4 1 2.6-1.3-.4-1zm-2 1.5l-1-2.4-1 .5 1.1 2.4 1-.5zm-1.3-1.7l4.5-2.2-.5-1-4.5 2.2.5 1zm4.3-2.2h2v-1h-2v1zm1.4-.5v15h1.1v-15h-1zm.6 14.4h-2.8v1h2.8v-1zm-2.3.5V43.1h-1v11.5h1zM289 41l-.3-.4.3.4zm8.3 0l-.4.4.4-.4zm0 12.5l-.4-.4.4.4zm-8.3 0l-.3.4.3-.4zm2-1.9l-.4.4.4-.4zm4.3 0l.4.4-.4-.4zm0-8.7l-.3.4.3-.4zm-4.3 0l.4.4-.4-.4zm-3 6.8v-4.9h-1.2v4.9h1.1zm0-4.9c0-1.4.4-2.5 1.4-3.4l-.7-.8a5.6 5.6 0 00-1.9 4.2h1.1zm1.4-3.4c1-1 2.2-1.4 3.8-1.4v-1c-1.8 0-3.3.5-4.5 1.6l.7.8zm3.8-1.4c1.5 0 2.7.5 3.7 1.4l.7-.8a6.3 6.3 0 00-4.4-1.7v1zm3.7 1.4c1 1 1.5 2 1.5 3.4h1c0-1.6-.5-3-1.8-4.2l-.7.8zm1.5 3.4v4.9h1v-4.9h-1zm0 4.9c0 1.4-.5 2.5-1.5 3.4l.7.8a5.5 5.5 0 001.9-4.2h-1zM297 53c-1 1-2.2 1.4-3.7 1.4v1c1.7 0 3.2-.5 4.4-1.6l-.7-.8zm-3.7 1.4c-1.6 0-2.8-.5-3.8-1.4l-.7.8a6.4 6.4 0 004.5 1.7v-1zm-3.8-1.4c-1-.9-1.5-2-1.5-3.4h-1c0 1.6.6 3 1.8 4.2l.7-.8zm.2-8.3v5h1v-5h-1zm0 5a3 3 0 001 2.2l.8-.8a2 2 0 01-.7-1.5h-1zm1 2.2c.7.6 1.6 1 2.6 1v-1.1c-.8 0-1.4-.3-1.8-.7l-.7.8zm2.6 1c1 0 1.8-.4 2.5-1l-.7-.8c-.5.4-1.1.7-1.8.7v1zm2.5-1a3 3 0 001-2.3h-1c0 .6-.3 1-.7 1.5l.7.8zm1-2.3v-4.9h-1v5h1zm0-4.9a3 3 0 00-1-2.3l-.7.8c.4.4.7.9.7 1.5h1zm-1-2.3c-.7-.6-1.6-1-2.5-1v1.1c.7 0 1.3.3 1.8.7l.7-.8zm-2.5-1c-1 0-1.9.4-2.6 1l.8.8c.4-.4 1-.7 1.8-.7v-1zm-2.6 1a3 3 0 00-1 2.3h1c0-.6.3-1 .8-1.5l-.8-.8zm-69.9 30.5l-.3-.4.3.4zm8.3 0l-.4.4.4-.4zm0 12.5l-.4-.4.4.4zm-8.3 0l-.3.4.3-.4zm2-1.9l-.4.4.4-.4zm4.3 0l.4.4-.4-.4zm0-8.7l-.3.4.3-.4zm-4.3 0l.4.4-.4-.4zm-3 6.8v-4.9h-1.2v4.9h1.1zm0-4.9c0-1.4.4-2.5 1.4-3.4l-.7-.8a5.6 5.6 0 00-1.9 4.2h1.1zm1.4-3.4c1-1 2.2-1.4 3.8-1.4v-1c-1.8 0-3.3.5-4.5 1.6l.7.8zm3.8-1.4c1.5 0 2.7.5 3.7 1.4l.8-.8a6.3 6.3 0 00-4.5-1.7v1zm3.7 1.4c1 1 1.5 2 1.5 3.4h1c0-1.6-.5-3-1.8-4.2l-.7.8zm1.5 3.4v4.9h1v-4.9h-1zm0 4.9c0 1.4-.5 2.5-1.5 3.4l.7.8a5.5 5.5 0 001.9-4.2h-1zm-1.5 3.4c-1 1-2.2 1.4-3.7 1.4v1c1.7 0 3.2-.5 4.4-1.6l-.7-.8zm-3.7 1.4c-1.6 0-2.8-.5-3.8-1.4l-.7.8a6.4 6.4 0 004.5 1.7v-1zM221 85c-1-.9-1.5-2-1.5-3.4h-1c0 1.6.6 3 1.8 4.2l.7-.8zm.2-8.3v5h1v-5h-1zm0 5a3 3 0 001 2.2l.8-.8a2 2 0 01-.7-1.5h-1zm1 2.2c.7.6 1.6 1 2.6 1v-1.1c-.8 0-1.4-.3-1.8-.7l-.7.8zm2.6 1c1 0 1.8-.4 2.5-1l-.7-.8c-.5.4-1.1.7-1.8.7v1zm2.5-1a3 3 0 001-2.3h-1c0 .6-.3 1-.7 1.5l.7.8zm1-2.3v-4.9h-1v5h1zm0-4.9a3 3 0 00-1-2.3l-.7.8c.4.4.7.9.7 1.5h1zm-1-2.3c-.7-.6-1.6-1-2.5-1v1.1c.7 0 1.3.3 1.8.7l.7-.8zm-2.5-1c-1 0-1.9.4-2.6 1l.8.8c.4-.4 1-.7 1.8-.7v-1zm-2.5 1a3 3 0 00-1 2.3h1c0-.6.2-1 .7-1.5l-.7-.8zm19.3.7h.6v-.9l-.8.4.2.5zm-2.5 1.3l-.5.2.2.5.5-.3-.2-.4zm-1.2-2.5l-.2-.5-.5.3.2.5.5-.3zm4.5-2.2V71l-.2.1.2.5zm2 0h.6V71h-.6v.6zm0 15v.5h.6v-.6h-.6zm-2.8 0h-.5v.5h.5v-.6zm-.2-12.1l-2.6 1.3.5 1 2.6-1.3-.5-1zm-1.9 1.5l-1.1-2.4-1 .5 1.2 2.4 1-.5zm-1.4-1.7l4.6-2.2-.5-1-4.5 2.2.4 1zm4.3-2.2h2v-1h-2v1zm1.5-.5v15h1v-15h-1zm.5 14.4h-2.8v1h2.8v-1zm-2.2.5V75.1h-1v11.5h1zM254.9 73l-.4-.4.4.4zm8.2 0l-.3.4.3-.4zm0 12.5l-.3-.4.3.4zm-8.2 0l-.4.4.4-.4zm2-1.9l-.4.4.4-.4zm4.3 0l.3.4-.3-.4zm0-8.7l-.4.4.4-.4zm-4.3 0l.3.4-.3-.4zm-3.1 6.8v-4.9h-1.1v4.9h1zm0-4.9c0-1.4.5-2.5 1.4-3.4l-.7-.8a5.6 5.6 0 00-1.8 4.2h1zm1.4-3.4c1-1 2.3-1.4 3.8-1.4v-1c-1.8 0-3.3.5-4.5 1.6l.7.8zm3.8-1.4c1.5 0 2.8.5 3.8 1.4l.7-.8a6.3 6.3 0 00-4.5-1.7v1zm3.8 1.4c1 1 1.5 2 1.5 3.4h1c0-1.6-.6-3-1.8-4.2l-.7.8zm1.5 3.4v4.9h1v-4.9h-1zm0 4.9c0 1.4-.5 2.5-1.5 3.4l.7.8a5.5 5.5 0 001.8-4.2h-1zm-1.5 3.4c-1 1-2.3 1.4-3.8 1.4v1c1.8 0 3.3-.5 4.5-1.6l-.7-.8zm-3.8 1.4c-1.5 0-2.8-.5-3.8-1.4l-.7.8a6.4 6.4 0 004.5 1.7v-1zm-3.8-1.4c-1-.9-1.4-2-1.4-3.4h-1.1c0 1.6.6 3 1.8 4.2l.7-.8zm.3-8.3v5h1v-5h-1zm0 5a3 3 0 001 2.2l.7-.8a2 2 0 01-.7-1.5h-1zm1 2.2c.7.6 1.5 1 2.5 1v-1.1c-.7 0-1.3-.3-1.8-.7l-.7.8zm2.5 1c1 0 1.8-.4 2.5-1l-.7-.8c-.5.4-1 .7-1.8.7v1zm2.5-1a3 3 0 001-2.3h-1c0 .6-.2 1-.7 1.5l.7.8zm1-2.3v-4.9h-1v5h1zm0-4.9a3 3 0 00-1-2.3l-.7.8c.5.4.7.9.7 1.5h1zm-1-2.3c-.6-.6-1.5-1-2.5-1v1.1c.8 0 1.3.3 1.8.7l.7-.8zm-2.5-1c-1 0-1.8.4-2.5 1l.7.8c.5-.4 1-.7 1.8-.7v-1zm-2.5 1a3 3 0 00-1 2.3h1c0-.6.3-1 .7-1.5l-.7-.8zm19.4.7h.5v-.9l-.7.4.2.5zm-2.6 1.3l-.5.2.3.5.4-.3-.2-.4zm-1.1-2.5l-.3-.5-.4.3.2.5.5-.3zm4.5-2.2V71h-.1l-.2.1.3.5zm2 0h.5V71h-.5v.6zm0 15v.5h.5v-.6h-.5zm-2.8 0h-.5v.5h.5v-.6zm-.2-12.1l-2.6 1.3.4 1 2.6-1.3-.4-1zm-2 1.5l-1-2.4-1 .5 1.1 2.4 1-.5zm-1.3-1.7l4.5-2.2-.5-1-4.5 2.2.5 1zm4.3-2.2h2v-1h-2v1zm1.4-.5v15h1.1v-15h-1zm.6 14.4h-2.8v1h2.8v-1zm-2.3.5V75.1h-1v11.5h1zM289 73l-.3-.4.3.4zm8.3 0l-.4.4.4-.4zm0 12.5l-.4-.4.4.4zm-8.3 0l-.3.4.3-.4zm2-1.9l-.4.4.4-.4zm4.3 0l.4.4-.4-.4zm0-8.7l-.3.4.3-.4zm-4.3 0l.4.4-.4-.4zm-3 6.8v-4.9h-1.2v4.9h1.1zm0-4.9c0-1.4.4-2.5 1.4-3.4l-.7-.8a5.6 5.6 0 00-1.9 4.2h1.1zm1.4-3.4c1-1 2.2-1.4 3.8-1.4v-1c-1.8 0-3.3.5-4.5 1.6l.7.8zm3.8-1.4c1.5 0 2.7.5 3.7 1.4l.7-.8a6.3 6.3 0 00-4.4-1.7v1zm3.7 1.4c1 1 1.5 2 1.5 3.4h1c0-1.6-.5-3-1.8-4.2l-.7.8zm1.5 3.4v4.9h1v-4.9h-1zm0 4.9c0 1.4-.5 2.5-1.5 3.4l.7.8a5.5 5.5 0 001.9-4.2h-1zM297 85c-1 1-2.2 1.4-3.7 1.4v1c1.7 0 3.2-.5 4.4-1.6l-.7-.8zm-3.7 1.4c-1.6 0-2.8-.5-3.8-1.4l-.7.8a6.4 6.4 0 004.5 1.7v-1zm-3.8-1.4c-1-.9-1.5-2-1.5-3.4h-1c0 1.6.6 3 1.8 4.2l.7-.8zm.2-8.3v5h1v-5h-1zm0 5a3 3 0 001 2.2l.8-.8a2 2 0 01-.7-1.5h-1zm1 2.2c.7.6 1.6 1 2.6 1v-1.1c-.8 0-1.4-.3-1.8-.7l-.7.8zm2.6 1c1 0 1.8-.4 2.5-1l-.7-.8c-.5.4-1.1.7-1.8.7v1zm2.5-1a3 3 0 001-2.3h-1c0 .6-.3 1-.7 1.5l.7.8zm1-2.3v-4.9h-1v5h1zm0-4.9a3 3 0 00-1-2.3l-.7.8c.4.4.7.9.7 1.5h1zm-1-2.3c-.7-.6-1.6-1-2.5-1v1.1c.7 0 1.3.3 1.8.7l.7-.8zm-2.5-1c-1 0-1.9.4-2.6 1l.8.8c.4-.4 1-.7 1.8-.7v-1zm-2.6 1a3 3 0 00-1 2.3h1c0-.6.3-1 .8-1.5l-.8-.8z" fill="#000"/>
</svg>
