<svg width="341" height="180" fill="none" xmlns="http://www.w3.org/2000/svg">
  <path d="M238 25.5H62v12h176v-12z" stroke="#A57CFE"/>
  <path d="M207.4 51h-114v13h114V51zM207.4 102h-114v13h114v-13z" fill="#A57CFE"/>
  <path d="M238 76.5H62v12h176v-12zM238 127.5H62v12h176v-12z" stroke="#A57CFE"/>
  <path d="M207.4 102h-68v13h68v-13zM207.4 51h-68v13h68V51zM238.4 76h-100v13h100V76zM238.4 127h-100v13h100v-13z" fill="#31D67B"/>
  <path d="M249 44.5H139v110h110v-110z" stroke="#000"/>
  <path d="M159.9 101.4v-6.8c0-2.1.7-4 2.3-5.4a8.3 8.3 0 015.8-2.1c2.3 0 4.3.7 5.8 2.1a7 7 0 012.3 5.4v6.8a7 7 0 01-2.3 5.4 8.1 8.1 0 01-5.8 2.2c-2.3 0-4.3-.8-5.8-2.2a7 7 0 01-2.3-5.4zm3.9-6.8v6.9c0 1 .4 2 1.2 2.7.8.7 1.8 1 3 1s2.2-.3 3-1c.9-.8 1.3-1.7 1.3-2.7v-7c0-1-.4-1.9-1.3-2.6a4.3 4.3 0 00-3-1.1c-1.2 0-2.2.3-3 1-.8.8-1.2 1.7-1.2 2.8zm26.2-2.3l-3.6 1.8-1.7-3.4 6.4-3.2h2.8v21H190V92.3zm25 1.3c0-.8-.4-1.4-1-2-.7-.5-1.5-.8-2.4-.8-.9 0-1.7.3-2.4.8a5 5 0 00-1.6 2.2l-3.6-1.7a8.3 8.3 0 017.6-5c2.1 0 3.8.6 5.2 1.8a5.9 5.9 0 011.1 8c-.7 1.2-1.8 2.5-3.4 4l-4.1 3.9h8.8v3.7h-14.8v-3l7.7-7.3c2-1.8 2.9-3.4 2.9-4.6zm23.4-.2c0-.8-.4-1.4-1-1.9-.7-.5-1.6-.7-2.7-.7-.8 0-1.6.2-2.3.5-.6.4-1 .8-1.4 1.4l-3.5-1.7a6.7 6.7 0 012.9-2.9c1.3-.7 2.7-1 4.4-1 2.1 0 4 .5 5.4 1.7a5.4 5.4 0 012.2 4.4c0 1.8-.8 3.2-2.3 4.4a5.6 5.6 0 012.8 4.9c0 1.9-.7 3.4-2.3 4.6a8.8 8.8 0 01-5.6 1.9c-1.9 0-3.5-.5-5-1.3-1.3-1-2.3-2-2.8-3.5l3.8-1.3a3 3 0 001.4 1.7 5 5 0 002.5.6c1.2 0 2.1-.2 2.9-.8.7-.5 1.1-1.2 1.1-2 0-.9-.4-1.5-1.1-2-.8-.6-1.7-.9-2.8-.9h-1.6V96h1.1c1.1 0 2-.2 2.8-.7.7-.5 1-1.2 1-2zm23.6 15.1v-4h-10.9v-3.7l11-13.3h3.8v13.3h2.6v3.7H266v4H262zm0-15.2l-6.2 7.5h6.2v-7.5zm30.3 8.5c0 2-.8 3.7-2.3 5.1a8.3 8.3 0 01-5.7 2c-1.9 0-3.5-.4-4.9-1.4a8 8 0 01-3-4l3.9-1a4.2 4.2 0 004 2.7 4 4 0 002.8-1 3.2 3.2 0 00-.1-5c-.8-.6-1.9-1-3.1-1H278l1-10.7h11.5v3.6h-8.2l-.3 3.6h2c2.4 0 4.4.7 6 2 1.5 1.4 2.3 3 2.3 5.1z" fill="#A57CFE"/>
  <path d="M162.2 89.2l-.7-.7.7.7zm11.6 0l-.7.7.7-.7zm0 17.6l-.7-.7.7.7zm-11.6 0l-.7.7.7-.7zm2.8-2.6l-.7.7.7-.7zm6 0l.7.7-.7-.7zm0-12.3l-.6.7.6-.7zm-6 0l.6.7-.6-.7zm-4.1 9.5v-6.8h-2v6.8h2zm0-6.8a6 6 0 012-4.7l-1.4-1.4a8 8 0 00-2.6 6.1h2zm2-4.7c1.3-1.2 3-1.8 5.1-1.8v-2c-2.5 0-4.7.7-6.5 2.4l1.4 1.4zm5.1-1.8c2.1 0 3.8.6 5.1 1.8l1.4-1.4A9.1 9.1 0 00168 86v2zm5.1 1.8a6 6 0 012 4.7h2a8 8 0 00-2.6-6.1l-1.4 1.4zm2 4.7v6.8h2v-6.8h-2zm0 6.8a6 6 0 01-2 4.7l1.4 1.4a8 8 0 002.6-6.1h-2zm-2 4.7a7.2 7.2 0 01-5 1.9v2c2.5 0 4.6-.8 6.4-2.5l-1.4-1.4zm-5 1.9c-2.2 0-3.9-.7-5.2-2l-1.4 1.5c1.8 1.7 4 2.5 6.5 2.5v-2zm-5.2-2a6 6 0 01-2-4.6h-2a8 8 0 002.6 6.1l1.4-1.4zm-.1-11.4v6.9h2v-7h-2zm0 6.9c0 1.3.5 2.5 1.5 3.4l1.4-1.5c-.6-.5-1-1.2-1-2h-2zm1.5 3.4c1 .9 2.3 1.3 3.7 1.3v-2c-1 0-1.7-.3-2.4-.8l-1.3 1.5zm3.7 1.3c1.4 0 2.7-.4 3.7-1.3l-1.3-1.5c-.6.5-1.4.8-2.4.8v2zm3.7-1.3c1-1 1.6-2.1 1.6-3.4h-2c0 .7-.3 1.3-1 2l1.4 1.4zm1.6-3.4v-7h-2v7h2zm0-7c0-1.3-.6-2.5-1.6-3.4l-1.3 1.5c.6.6.9 1.2.9 2h2zm-1.6-3.4c-1-.9-2.3-1.3-3.7-1.3v2c1 0 1.8.3 2.4.8l1.3-1.5zm-3.7-1.3c-1.4 0-2.7.4-3.7 1.3l1.4 1.5c.6-.5 1.3-.8 2.3-.8v-2zm-3.7 1.3c-1 1-1.5 2.1-1.5 3.5h2c0-.8.3-1.4.8-2l-1.3-1.5zm25.7 1.2h1v-1.6l-1.4.7.4.9zm-3.6 1.8l-1 .4.5 1 1-.5-.5-1zm-1.7-3.4l-.4-1-.9.5.4.9 1-.4zm6.4-3.2v-1h-.2l-.2.1.4.9zm2.8 0h1v-1h-1v1zm0 21v1h1v-1h-1zm-3.9 0h-1v1h1v-1zm-.4-17.1l-3.7 1.8 1 1.8 3.5-1.8-.8-1.8zm-2.3 2.2l-1.7-3.4-1.8.9 1.7 3.4 1.8-.9zm-2.1-2l6.4-3.2-1-1.8-6.3 3.2.9 1.7zm6-3.1h2.7v-2h-2.8v2zm1.7-1v21h2v-21h-2zm1 20H190v2h3.9v-2zm-2.9 1V92.3h-2v16.2h2zm23-16.9l-.7.8.7-.8zm-4.8 0l.6.8-.6-.8zm-1.6 2.2l-.5 1 1 .4.4-1-1-.4zm-3.6-1.7l-1-.4-.3 1 .8.3.5-.9zm3-3.7l.6.9-.6-.9zm9.8.5l-.6.8.6-.8zm1.1 8l.9.5-.9-.5zm-3.4 4l.7.7-.7-.7zm-4.1 3.9l-.7-.7-1.8 1.7h2.5v-1zm8.8 0h1v-1h-1v1zm0 3.7v1h1v-1h-1zm-14.8 0h-1v1h1v-1zm0-3l-.7-.6-.3.3v.4h1zm7.7-7.3l.7.8-.7-.8zm3.9-4.6c0-1.1-.5-2-1.4-2.8l-1.3 1.6c.5.4.7.8.7 1.2h2zm-1.4-2.7c-.8-.8-1.8-1.1-3-1.1v2c.7 0 1.3.2 1.7.6l1.3-1.5zm-3-1.1c-1.1 0-2.2.3-3 1l1.2 1.6c.5-.4 1.1-.6 1.8-.6v-2zm-3 1a6 6 0 00-2 2.7l2 .7a4 4 0 011.2-1.8l-1.2-1.6zM208 93l-3.6-1.7-.9 1.8 3.6 1.7 1-1.8zm-3.1-.4a7.3 7.3 0 012.7-3.2l-1.1-1.7a9.3 9.3 0 00-3.4 4.1l1.8.8zm2.7-3.2a7 7 0 014-1.2v-2a9 9 0 00-5.1 1.5l1.1 1.7zm4-1.2c1.9 0 3.4.5 4.6 1.6l1.3-1.5a8.6 8.6 0 00-5.9-2.1v2zm4.6 1.6c1.2 1 1.8 2.3 1.8 3.8h2c0-2-.9-3.9-2.5-5.3l-1.3 1.5zm1.8 3.8c0 .9-.3 1.8-1 2.9l1.8 1a7.5 7.5 0 001.2-3.9h-2zm-1 2.9a21 21 0 01-3.2 3.8l1.4 1.4c1.6-1.5 2.8-3 3.6-4.2l-1.7-1zm-3.2 3.8l-4 3.9 1.3 1.4 4.1-3.9-1.4-1.4zm-3.4 5.6h8.8v-2h-8.8v2zm7.8-1v3.7h2v-3.7h-2zm1 2.7h-14.8v2h14.8v-2zm-13.8 1v-3h-2v3h2zm-.3-2.2l7.7-7.3-1.4-1.5-7.7 7.4 1.4 1.4zm7.7-7.3c1-1 1.8-2 2.3-2.8a5 5 0 00.9-2.6h-2c0 .4-.2.9-.6 1.6-.4.6-1 1.4-2 2.3l1.4 1.5zm24.5-7.5l.6-.8-.6.8zm-4.9-.2l.5.9-.5-.9zm-1.4 1.4l-.4.9.9.4.4-.9-.9-.4zm-3.5-1.7l-.9-.5-.5 1 1 .4.4-1zm2.9-2.9l.5 1-.5-1zm9.8.7l-.6.8.6-.8zm0 8.8l-.7-.8-1 .9 1 .8.6-.9zm.4 9.5l-.6-.8.6.8zm-10.5.6l-.6.8.6-.8zm-2.9-3.5l-.3-.9-1 .3.4 1 1-.4zm3.8-1.3l1-.3-.4-1-1 .4.4 1zm1.4 1.7l-.5.9.5-.9zm5.4-.2l.5.8-.5-.8zm0-4l-.6.7.6-.8zm-4.4-.9h-1v1h1v-1zm0-3.5v-1h-1v1h1zm6-2.6c0-1.1-.6-2-1.5-2.7l-1.2 1.6c.5.4.7.7.7 1h2zm-1.5-2.7c-.9-.6-2-1-3.2-1v2c1 0 1.6.3 2 .6l1.2-1.6zm-3.2-1c-1 0-1.9.3-2.7.7l1 1.8c.4-.3 1-.4 1.7-.4v-2zm-2.7.7c-.8.4-1.4 1-1.8 1.8l1.7 1c.2-.4.5-.7 1-1l-1-1.8zm-.5 1.4l-3.6-1.7-.8 1.8 3.5 1.7.9-1.8zm-3.1-.4c.5-1 1.3-1.8 2.5-2.4l-1-1.7a7.7 7.7 0 00-3.3 3.2l1.8 1zm2.5-2.4c1.1-.6 2.4-1 3.9-1v-2c-1.8 0-3.4.4-5 1.3l1 1.7zm3.9-1c2 0 3.5.6 4.8 1.6l1.2-1.6a9.4 9.4 0 00-6-2v2zm4.8 1.6c1.2 1 1.8 2.2 1.8 3.6h2c0-2-.9-3.8-2.6-5.2l-1.2 1.6zm1.8 3.6c0 1.4-.6 2.6-1.9 3.6l1.2 1.6c1.8-1.4 2.7-3 2.7-5.2h-2zm-1.8 5.3c1.6 1 2.3 2.3 2.3 4h2c0-2.4-1.1-4.4-3.2-5.7l-1.1 1.7zm2.3 4c0 1.5-.6 2.8-1.9 3.8l1.3 1.6a6.7 6.7 0 002.6-5.4h-2zm-1.9 3.8c-1.3 1.1-3 1.7-5 1.7v2c2.4 0 4.5-.7 6.3-2.1l-1.3-1.6zm-5 1.7c-1.7 0-3.2-.4-4.4-1.2l-1 1.7c1.5 1 3.3 1.5 5.4 1.5v-2zm-4.4-1.2c-1.2-.8-2-1.7-2.4-2.9l-2 .7c.7 1.6 1.8 3 3.3 4l1.1-1.8zm-3-1.6l3.7-1.3-.7-2-3.7 1.4.7 1.9zm2.4-2a4 4 0 001.9 2.3l1-1.8a2 2 0 01-1-1l-1.9.5zm1.9 2.3c.9.5 2 .7 3 .7v-2a4 4 0 01-2-.5l-1 1.8zm3 .7c1.3 0 2.5-.3 3.4-1l-1.1-1.6c-.6.4-1.3.6-2.3.6v2zm3.5-1c1-.7 1.5-1.7 1.5-2.9h-2c0 .5-.2 1-.7 1.3l1.2 1.6zm1.5-2.9c0-1.2-.6-2.1-1.6-2.8l-1.1 1.7c.5.3.7.7.7 1.1h2zm-1.6-2.8c-.9-.7-2-1-3.3-1v2c1 0 1.6.3 2.2.6l1.1-1.6zm-3.3-1h-1.6v2h1.6v-2zm-.6 1V96h-2v3.5h2zm-1-2.5h1.1v-2h-1v2zm1.1 0c1.3 0 2.4-.3 3.3-.9l-1.1-1.7c-.6.4-1.3.6-2.2.6v2zm3.3-.9c1-.7 1.6-1.6 1.6-2.7h-2c0 .3-.2.7-.7 1l1.1 1.7zm24.2 12.4h-1v1h1v-1zm0-4h1v-1h-1v1zm-10.9 0h-1v1h1v-1zm0-3.7l-.8-.7-.2.3v.4h1zm11-13.3v-1h-.4l-.3.4.8.6zm3.8 0h1v-1h-1v1zm0 13.3h-1v1h1v-1zm2.6 0h1v-1h-1v1zm0 3.7v1h1v-1h-1zm-2.6 0v-1h-1v1h1zm0 4v1h1v-1h-1zM262 93.3h1v-2.8l-1.8 2.1.8.7zm-6.2 7.5l-.8-.7-1.4 1.7h2.2v-1zm6.2 0v1h1v-1h-1zm1 7.7v-4h-2v4h2zm-1-5h-10.9v2H262v-2zm-9.9 1v-3.7h-2v3.7h2zm-.2-3.1l11-13.3-1.5-1.2-11 13.2 1.5 1.3zm10.3-12.9h3.7v-2h-3.7v2zm2.7-1v13.3h2V87.5h-2zm1 14.3h2.6v-2H266v2zm1.6-1v3.7h2v-3.7h-2zm1 2.7H266v2h2.6v-2zm-3.6 1v4h2v-4h-2zm1 3H262v2h3.9v-2zm-4.7-14.9l-6.2 7.5 1.5 1.3 6.3-7.5-1.6-1.3zm-5.4 9.2h6.2v-2h-6.2v2zm7.2-1v-7.5h-2v7.5h2zm27 6.1l.7.8-.7-.8zm-10.6.6l-.6.8.6-.8zm-3-4l-.2-.9-1.1.3.4 1 1-.3zm3.9-1l1-.3-.4-.9-.9.3.3 1zm1.6 2l-.6.8.6-.8zm5.2-.3l-.6-.7.6.7zm-.1-5l-.6.8.6-.8zm-9-1h-1l-.1 1h1.1v-1zm1-10.7v-1h-.8l-.1.9 1 .1zm11.5 0h1v-1h-1v1zm0 3.6v1h1v-1h-1zm-8.2 0v-1h-1v.9h1zm-.3 3.6l-1-.1-.1 1h1v-1zm8 2l-.7.8.6-.8zm1.3 5.1c0 1.7-.6 3.2-2 4.4l1.4 1.5a7.6 7.6 0 002.6-5.9h-2zm-2 4.4a7.3 7.3 0 01-5 1.8v2c2.5 0 4.6-.8 6.4-2.3l-1.4-1.5zm-5 1.8c-1.7 0-3.1-.5-4.3-1.3l-1.2 1.6c1.6 1.1 3.4 1.7 5.5 1.7v-2zm-4.3-1.3a7 7 0 01-2.6-3.5l-2 .7a9 9 0 003.4 4.4l1.2-1.6zm-3.3-2.2l3.8-1-.5-2-3.8 1.1.5 2zm2.7-1.6c.4 1 1 1.8 2 2.4l1-1.6c-.5-.4-1-.9-1.2-1.5l-1.8.7zm2 2.4c.8.6 1.8 1 3 1v-2c-.8 0-1.4-.3-2-.6l-1 1.6zm3 1a5 5 0 003.4-1.3l-1.3-1.5a3 3 0 01-2.2.7v2zm3.4-1.3a4 4 0 001.5-3.2h-2a2 2 0 01-.8 1.7l1.3 1.5zm1.5-3.2c0-1.4-.6-2.5-1.7-3.4l-1.2 1.6c.6.5.9 1 .9 1.8h2zm-1.7-3.3c-1-.9-2.3-1.3-3.7-1.3v2c1 0 1.9.3 2.5.8l1.2-1.5zm-3.7-1.3H278v2h5.9v-2zm-4.9 1.1l1-10.7-2-.2-1 10.7 2 .2zm0-9.8h11.5v-2h-11.4v2zm10.5-1v3.6h2v-3.6h-2zm1 2.6h-8.2v2h8.2v-2zm-9.2.9l-.3 3.6 2 .2.3-3.6-2-.2zm.7 4.7h2v-2h-2v2zm2 0c2.2 0 4 .6 5.3 1.8l1.3-1.5a9.7 9.7 0 00-6.5-2.3v2zm5.3 1.8c1.4 1.1 2 2.5 2 4.3h2c0-2.3-1-4.3-2.7-5.9l-1.3 1.6z" fill="#000"/>
  <path d="M47.4 106.5l1.3-1m44.7 1h-46 46zm-46 0l1.3 1-1.3-1zM60.4 58.5l1-1m32 1h-33 33zm-33 0l1 1-1-1z" stroke="#000"/>
</svg>
