<svg width="341" height="180" viewBox="0 0 341 180" fill="none" xmlns="http://www.w3.org/2000/svg">
<path d="M87.0782 36.5625C73.5782 37.5625 47.7782 48.2625 46.5782 77.0625C46.5782 113.062 74.0782 122.562 87.5782 122.562C107.078 122.562 188.078 122.562 234.078 122.562" stroke="black"/>
<path d="M86.8746 36.5625H114.604" stroke="black"/>
<path d="M90.1902 122.562L90.1902 71.7488M90.1902 71.7488L89.5919 73.1409M90.1902 71.7488L90.7885 73.1409" stroke="black"/>
<path d="M100.172 122.562L100.172 83.5625M100.172 83.5625L99.6718 84.631M100.172 83.5625L100.672 84.631" stroke="black"/>
<path d="M80.2918 122.562V90.5429M80.2918 90.5429L79.6718 91.4201M80.2918 90.5429L80.9118 91.4201" stroke="black"/>
<path d="M110.052 122.562V99.5919M110.052 99.5919L109.432 100.221M110.052 99.5919L110.672 100.221" stroke="black"/>
<rect width="52" height="27" transform="translate(100.672 23.0625)" fill="#31D67B"/>
<rect width="29" height="27" transform="translate(156.672 23.0625)" fill="#31D67B"/>
<rect width="19" height="27" transform="translate(189.672 23.0625)" fill="#31D67B"/>
<rect width="10" height="27" transform="translate(212.672 23.0625)" fill="#31D67B"/>
<rect width="10" height="27" transform="translate(226.672 23.0625)" fill="#31D67B"/>
<rect width="10" height="27" transform="translate(240.672 23.0625)" fill="#31D67B"/>
<rect width="4" height="27" transform="translate(254.672 23.0625)" fill="#31D67B"/>
<rect width="4" height="27" transform="translate(262.672 23.0625)" fill="#31D67B"/>
<rect width="4" height="27" transform="translate(270.672 23.0625)" fill="#31D67B"/>
<path d="M217.672 156.938C223.265 156.938 228.804 155.836 233.972 153.695C239.14 151.555 243.836 148.417 247.791 144.462C251.746 140.507 254.884 135.811 257.024 130.643C259.165 125.475 260.267 119.937 260.267 114.343C260.267 108.749 259.165 103.21 257.024 98.0426C254.884 92.8747 251.746 88.1791 247.791 84.2238C243.836 80.2685 239.14 77.131 233.972 74.9904C228.804 72.8498 223.265 71.748 217.672 71.748L217.672 114.343V156.938Z" fill="#AB85FF"/>
<circle cx="241.297" cy="109.469" r="1.375" fill="#D4D4D4"/>
<circle cx="247.047" cy="109.469" r="1.375" fill="#D4D4D4"/>
<circle cx="252.797" cy="109.469" r="1.375" fill="#D4D4D4"/>
<circle cx="258.297" cy="109.469" r="1.375" fill="#D4D4D4"/>
<circle cx="264.297" cy="109.469" r="1.375" fill="#D4D4D4"/>
<circle cx="270.047" cy="109.469" r="1.375" fill="#D4D4D4"/>
<circle cx="275.797" cy="109.469" r="1.375" fill="#D4D4D4"/>
<circle cx="281.547" cy="109.469" r="1.375" fill="#D4D4D4"/>
<circle cx="287.297" cy="109.469" r="1.375" fill="#D4D4D4"/>
<circle cx="241.297" cy="115.219" r="1.375" fill="#D4D4D4"/>
<circle cx="247.047" cy="115.219" r="1.375" fill="#D4D4D4"/>
<circle cx="241.297" cy="120.969" r="1.375" fill="#D4D4D4"/>
<circle cx="247.047" cy="120.969" r="1.375" fill="#D4D4D4"/>
<circle cx="252.797" cy="120.969" r="1.375" fill="#D4D4D4"/>
<circle cx="258.547" cy="120.969" r="1.375" fill="#D4D4D4"/>
<circle cx="264.297" cy="120.969" r="1.375" fill="#D4D4D4"/>
<circle cx="270.047" cy="120.969" r="1.375" fill="#D4D4D4"/>
<circle cx="275.797" cy="120.969" r="1.375" fill="#D4D4D4"/>
<circle cx="281.547" cy="120.969" r="1.375" fill="#D4D4D4"/>
<circle cx="287.297" cy="120.969" r="1.375" fill="#D4D4D4"/>
<circle cx="252.797" cy="115.219" r="1.375" fill="#D4D4D4"/>
<circle cx="258.297" cy="115.219" r="1.375" fill="#D4D4D4"/>
<circle cx="264.297" cy="115.219" r="1.375" fill="#D4D4D4"/>
<circle cx="270.047" cy="115.219" r="1.375" fill="#D4D4D4"/>
<circle cx="275.797" cy="115.219" r="1.375" fill="#D4D4D4"/>
<circle cx="281.547" cy="115.219" r="1.375" fill="#D4D4D4"/>
<circle cx="287.297" cy="115.219" r="1.375" fill="#D4D4D4"/>
<path d="M234.922 109.594V103.094L241.422 103.094" stroke="#31D67B"/>
<path d="M294.422 119.094V125.594L287.922 125.594" stroke="#31D67B"/>
</svg>
