<svg width="341" height="181" viewBox="0 0 341 181" fill="none" xmlns="http://www.w3.org/2000/svg">
<path d="M68.6227 47.998C55.1227 48.998 29.3227 59.698 28.1227 88.498C28.1227 124.498 55.6227 133.998 69.1227 133.998C88.6227 133.998 169.623 133.998 215.623 133.998" stroke="black"/>
<path d="M68.4191 47.998H96.148" stroke="black"/>
<path d="M71.7347 133.998L71.7347 83.1843M71.7347 83.1843L71.1364 84.5765M71.7347 83.1843L72.333 84.5765" stroke="black"/>
<path d="M81.7163 133.998L81.7163 94.998M81.7163 94.998L81.2163 96.0665M81.7163 94.998L82.2163 96.0665" stroke="black"/>
<path d="M61.8363 133.998L61.8363 101.978M61.8363 101.978L61.2163 102.856M61.8363 101.978L62.4563 102.856" stroke="black"/>
<path d="M91.5963 133.998V111.027M91.5963 111.027L90.9763 111.657M91.5963 111.027L92.2163 111.657" stroke="black"/>
<circle cx="104.309" cy="55.5493" r="22.1685" fill="#31D67B"/>
<mask id="mask0" mask-type="alpha" maskUnits="userSpaceOnUse" x="82" y="33" width="45" height="45">
<circle cx="104.309" cy="55.5493" r="22.1685" fill="#4AE991"/>
</mask>
<g mask="url(#mask0)">
<path d="M124.923 30.2363V83.005M124.923 30.2363V83.005" stroke="#4AE991"/>
<path d="M121.614 30.2363V83.005M121.614 30.2363V83.005" stroke="#4AE991"/>
<path d="M118.305 30.2363V83.005M118.305 30.2363V83.005" stroke="#4AE991"/>
<path d="M114.996 30.2363V83.005M114.996 30.2363V83.005" stroke="#4AE991"/>
<path d="M111.687 30.2363V83.005M111.687 30.2363V83.005" stroke="#4AE991"/>
<path d="M108.378 30.2363V83.005M108.378 30.2363V83.005" stroke="#4AE991"/>
<path d="M104.972 30.8418V82.9968M104.972 30.8418V82.9968" stroke="#4AE991"/>
<path d="M101.994 30.5352V83.3038M101.994 30.5352V83.3038" stroke="#4AE991"/>
<path d="M98.685 30.5352V83.3038M98.685 30.5352V83.3038" stroke="#4AE991"/>
<path d="M95.3761 30.5352V83.3038M95.3761 30.5352V83.3038" stroke="#4AE991"/>
<path d="M92.0673 30.5352V83.3038M92.0673 30.5352V83.3038" stroke="#4AE991"/>
<path d="M88.7584 30.5352V83.3038M88.7584 30.5352V83.3038" stroke="#4AE991"/>
<path d="M85.4496 30.5352V83.3038M85.4496 30.5352V83.3038" stroke="#4AE991"/>
<path d="M82.1407 30.5352V83.3038M82.1407 30.5352V83.3038" stroke="#4AE991"/>
</g>
<path d="M92.2163 43.6505C92.2163 45.2131 91.9086 46.7603 91.3106 48.2039C90.7126 49.6475 89.8362 50.9592 88.7313 52.0641C87.6264 53.169 86.3147 54.0455 84.8711 54.6434C83.4275 55.2414 81.8803 55.5491 80.3177 55.5491C78.7552 55.5491 77.2079 55.2414 75.7643 54.6434C74.3207 54.0455 73.009 53.169 71.9041 52.0641C70.7993 50.9592 69.9228 49.6475 69.3249 48.2039C68.7269 46.7603 68.4191 45.2131 68.4191 43.6505L80.3177 43.6505H92.2163Z" fill="#8052E4"/>
<path d="M141.493 71.1611C141.493 68.9539 141.058 66.7683 140.213 64.7291C139.368 62.6899 138.13 60.837 136.57 59.2763C135.009 57.7156 133.156 56.4775 131.117 55.6329C129.078 54.7882 126.892 54.3534 124.685 54.3534C122.478 54.3534 120.292 54.7882 118.253 55.6329C116.214 56.4775 114.361 57.7156 112.8 59.2763C111.239 60.837 110.001 62.6899 109.157 64.7291C108.312 66.7683 107.877 68.9539 107.877 71.1611L124.685 71.1611H141.493Z" fill="#8052E4"/>
<path d="M161.937 87.9707L107.877 148.971H262.564L312.877 87.9707H161.937Z" fill="#A57CFE"/>
<mask id="mask1" mask-type="alpha" maskUnits="userSpaceOnUse" x="107" y="87" width="206" height="62">
<path d="M161.937 87.9707L107.877 148.971H262.564L312.877 87.9707H161.937Z" fill="#A57CFE"/>
</mask>
<g mask="url(#mask1)">
<path d="M439.293 90.1489C340.605 50.9868 270.113 50.9868 227.818 90.1489C185.523 129.311 115.031 129.311 16.3424 90.1489" stroke="#4AE991" stroke-width="2"/>
<path d="M426.93 165.148C351.275 106.24 284.436 90.6855 226.414 118.486C168.392 146.286 101.554 130.731 25.8979 71.8228" stroke="#4AE991" stroke-width="2"/>
<path d="M435.121 139.255C332.307 105.599 262.033 109.446 224.299 150.794C186.566 192.143 116.292 195.989 13.4776 162.333" stroke="#4AE991" stroke-width="2"/>
</g>
<circle cx="241.469" cy="83.1836" r="21.8066" fill="#4AE991"/>
<circle cx="271.21" cy="61.3775" r="7.93418" fill="#8052E4"/>
<circle cx="279.952" cy="84.7114" r="9.78567" stroke="black"/>
</svg>
