<svg width="341" height="180" viewBox="0 0 341 180" fill="none" xmlns="http://www.w3.org/2000/svg">
<path d="M85.7383 37.125C72.2383 38.125 46.4383 48.825 45.2383 77.625C45.2383 113.625 72.7383 123.125 86.2383 123.125C105.738 123.125 186.738 123.125 232.738 123.125" stroke="black"/>
<path d="M85.5352 37.125H113.264" stroke="black"/>
<path d="M239.963 155.986L191.64 80.5988H288.286L239.963 155.986Z" fill="#31D67B"/>
<path d="M88.8509 123.125L88.8509 72.3113M88.8509 72.3113L88.2526 73.7034M88.8509 72.3113L89.4492 73.7034" stroke="black"/>
<path d="M98.832 123.125L98.832 84.125M98.832 84.125L98.332 85.1935M98.832 84.125L99.332 85.1935" stroke="black"/>
<path d="M78.9523 123.125V91.1054M78.9523 91.1054L78.3323 91.9826M78.9523 91.1054L79.5723 91.9826" stroke="black"/>
<path d="M108.712 123.125V100.154M108.712 100.154L108.092 100.784M108.712 100.154L109.332 100.784" stroke="black"/>
<circle cx="121.424" cy="44.6763" r="22.1685" fill="#A57CFE"/>
<mask id="mask0" mask-type="alpha" maskUnits="userSpaceOnUse" x="99" y="22" width="45" height="45">
<circle cx="121.424" cy="44.6763" r="22.1685" fill="#A57CFE"/>
</mask>
<g mask="url(#mask0)">
<path d="M142.037 19.3633V72.1319M142.037 19.3633V72.1319" stroke="#B491FF"/>
<path d="M138.729 19.3633V72.1319M138.729 19.3633V72.1319" stroke="#B491FF"/>
<path d="M135.42 19.3633V72.1319M135.42 19.3633V72.1319" stroke="#B491FF"/>
<path d="M132.111 19.3633V72.1319M132.111 19.3633V72.1319" stroke="#B491FF"/>
<path d="M128.803 19.3633V72.1319M128.803 19.3633V72.1319" stroke="#B491FF"/>
<path d="M125.492 19.3633V72.1319M125.492 19.3633V72.1319" stroke="#B491FF"/>
<path d="M122.088 19.9688V72.1238M122.088 19.9688V72.1238" stroke="#B491FF"/>
<path d="M119.109 19.6621V72.4307M119.109 19.6621V72.4307" stroke="#B491FF"/>
<path d="M115.801 19.6621V72.4307M115.801 19.6621V72.4307" stroke="#B491FF"/>
<path d="M112.492 19.6621V72.4307M112.492 19.6621V72.4307" stroke="#B491FF"/>
<path d="M109.184 19.6621V72.4307M109.184 19.6621V72.4307" stroke="#B491FF"/>
<path d="M105.875 19.6621V72.4307M105.875 19.6621V72.4307" stroke="#B491FF"/>
<path d="M102.566 19.6621V72.4307M102.566 19.6621V72.4307" stroke="#B491FF"/>
<path d="M99.2559 19.6621V72.4307M99.2559 19.6621V72.4307" stroke="#B491FF"/>
</g>
<path d="M109.332 32.7775C109.332 34.34 109.025 35.8873 108.427 37.3309C107.829 38.7745 106.952 40.0862 105.847 41.1911C104.742 42.296 103.431 43.1724 101.987 43.7704C100.544 44.3683 98.9963 44.6761 97.4338 44.6761C95.8712 44.6761 94.324 44.3683 92.8804 43.7704C91.4368 43.1724 90.1251 42.296 89.0202 41.1911C87.9153 40.0862 87.0388 38.7745 86.4409 37.3309C85.8429 35.8873 85.5352 34.34 85.5352 32.7775L97.4338 32.7775H109.332Z" fill="#8052E4"/>
<path d="M158.609 60.288C158.609 58.0808 158.175 55.8952 157.33 53.856C156.485 51.8168 155.247 49.964 153.687 48.4032C152.126 46.8425 150.273 45.6045 148.234 44.7598C146.195 43.9151 144.009 43.4804 141.802 43.4804C139.595 43.4804 137.409 43.9151 135.37 44.7598C133.331 45.6045 131.478 46.8425 129.917 48.4032C128.356 49.964 127.118 51.8168 126.274 53.856C125.429 55.8952 124.994 58.0808 124.994 60.2881L141.802 60.288H158.609Z" fill="#8052E4"/>
<mask id="mask1" mask-type="alpha" maskUnits="userSpaceOnUse" x="225" y="105" width="66" height="56">
<path d="M242.203 106.727L250.203 160.727" stroke="black"/>
<path d="M246.703 106.727L254.703 160.727" stroke="black"/>
<path d="M251.703 106.727L259.703 160.727" stroke="black"/>
<path d="M256.703 106.727L264.703 160.727" stroke="black"/>
<path d="M261.703 105.727L269.703 159.727" stroke="black"/>
<path d="M266.703 105.727L274.703 159.727" stroke="black"/>
<path d="M271.703 105.727L279.703 159.727" stroke="black"/>
<path d="M276.703 105.727L284.703 159.727" stroke="black"/>
<path d="M281.703 105.727L289.703 159.727" stroke="black"/>
<path d="M236.703 106.727L244.703 160.727" stroke="black"/>
<path d="M230.703 106.727L238.703 160.727" stroke="black"/>
<path d="M225.703 106.727L233.703 160.727" stroke="black"/>
</mask>
<g mask="url(#mask1)">
<path d="M255.203 160.727L225.325 108.977H285.081L255.203 160.727Z" fill="black"/>
</g>
</svg>
