<svg width="341" height="180" fill="none" xmlns="http://www.w3.org/2000/svg">
  <path d="M215.8 29l-72.7 113.3h145.5L215.8 29z" fill="#31D67B"/>
  <path fill="#A57CFE" d="M174.5 134V75h-3.7v59zM163 134V75h-6.4v59zM149.2 134V75h-10v59zM130.8 134V75h-3.7v59zM119.2 134V75H113v59zM105.5 134V75h-10v59zM87.2 134V75h-3.7v59zM75.5 134V75h-6.3v59zM61.8 134V75h-10v59z"/>
  <path d="M174.5 112.5h73m0 0l-2 1m2-1l-2-1M174.5 96.5h102m0 0l-2.8 1m2.8-1l-2.8-1M174.5 128.5h46m0 0l-1.2 1m1.2-1l-1.2-1M174.5 80.5h33m0 0l-.9 1m1-1l-1-1" stroke="#000"/>
  <circle r="19" transform="matrix(-1 0 0 1 80.8 38.2)" fill="#B491FF"/>
  <circle r="7.5" transform="matrix(-1 0 0 1 97.5 37)" stroke="#000"/>
</svg>
