<svg width="341" height="180" fill="none" xmlns="http://www.w3.org/2000/svg">
  <path fill="#31D67B" d="M39.3 28.4h52v27h-52zM95.3 28.4h29v27h-29zM128.3 28.4h19v27h-19zM151.3 28.4h10v27h-10zM165.3 28.4h10v27h-10zM179.3 28.4h10v27h-10zM193.3 28.4h4v27h-4zM201.3 28.4h4v27h-4zM209.3 28.4h4v27h-4z"/>
  <path d="M234.3 157.5a67.5 67.5 0 000-135v135z" fill="#AB85FF"/>
  <circle cx="203.8" cy="113.6" r="1.4" fill="#D4D4D4"/>
  <circle cx="209.5" cy="113.6" r="1.4" fill="#D4D4D4"/>
  <circle cx="215.3" cy="113.6" r="1.4" fill="#D4D4D4"/>
  <circle cx="220.8" cy="113.6" r="1.4" fill="#D4D4D4"/>
  <circle cx="226.8" cy="113.6" r="1.4" fill="#D4D4D4"/>
  <circle cx="232.5" cy="113.6" r="1.4" fill="#D4D4D4"/>
  <circle cx="238.3" cy="113.6" r="1.4" fill="#D4D4D4"/>
  <circle cx="244" cy="113.6" r="1.4" fill="#D4D4D4"/>
  <circle cx="249.8" cy="113.6" r="1.4" fill="#D4D4D4"/>
  <circle cx="203.8" cy="119.4" r="1.4" fill="#D4D4D4"/>
  <circle cx="209.5" cy="119.4" r="1.4" fill="#D4D4D4"/>
  <circle cx="203.8" cy="125.1" r="1.4" fill="#D4D4D4"/>
  <circle cx="209.5" cy="125.1" r="1.4" fill="#D4D4D4"/>
  <circle cx="215.3" cy="125.1" r="1.4" fill="#D4D4D4"/>
  <circle cx="221" cy="125.1" r="1.4" fill="#D4D4D4"/>
  <circle cx="226.8" cy="125.1" r="1.4" fill="#D4D4D4"/>
  <circle cx="232.5" cy="125.1" r="1.4" fill="#D4D4D4"/>
  <circle cx="238.3" cy="125.1" r="1.4" fill="#D4D4D4"/>
  <circle cx="244" cy="125.1" r="1.4" fill="#D4D4D4"/>
  <circle cx="249.8" cy="125.1" r="1.4" fill="#D4D4D4"/>
  <circle cx="215.3" cy="119.4" r="1.4" fill="#D4D4D4"/>
  <circle cx="220.8" cy="119.4" r="1.4" fill="#D4D4D4"/>
  <circle cx="226.8" cy="119.4" r="1.4" fill="#D4D4D4"/>
  <circle cx="232.5" cy="119.4" r="1.4" fill="#D4D4D4"/>
  <circle cx="238.3" cy="119.4" r="1.4" fill="#D4D4D4"/>
  <circle cx="244" cy="119.4" r="1.4" fill="#D4D4D4"/>
  <circle cx="249.8" cy="119.4" r="1.4" fill="#D4D4D4"/>
  <path d="M197.4 113.7v-6.5h6.5M256.9 123.2v6.5h-6.5" stroke="#31D67B"/>
  <circle cx="280.8" cy="42.5" r="16" transform="rotate(-90 280.8 42.5)" fill="#8052E4"/>
  <path d="M80.6 58.6H124m0 0l-1.2-.7m1.2.7l-1.2.6M80.6 69.3h60.7m0 0l-1.7-.7m1.7.7l-1.7.7M80.6 48h27.3m0 0l-.7-.7m.7.6l-.7.7M80.6 80h19.6m0 0l-.5-.7m.5.7l-.5.7" stroke="#000" stroke-width="2"/>
  <circle cx="73" cy="64" r="21.1" transform="rotate(90 73 64)" fill="#F5F5F5" stroke="#000" stroke-width="2"/>
  <path d="M40.5 122.6v-6.8c0-2.1.8-4 2.4-5.4a8.3 8.3 0 015.8-2.1c2.3 0 4.2.7 5.8 2.1a7 7 0 012.3 5.4v6.8a7 7 0 01-2.3 5.4 8.1 8.1 0 01-5.8 2.2c-2.4 0-4.3-.7-5.9-2.2a7 7 0 01-2.3-5.4zm4-6.8v6.9c0 1 .3 2 1.1 2.7.9.7 1.9 1 3 1 1.3 0 2.3-.3 3.1-1 .8-.8 1.2-1.7 1.2-2.7v-7c0-1-.4-1.9-1.2-2.6a4.3 4.3 0 00-3-1.1c-1.3 0-2.3.4-3 1.1-.9.7-1.3 1.6-1.3 2.7zm26.2-2.3l-3.7 1.8-1.6-3.4 6.4-3.2h2.8v21h-4v-16.2zm25 1.4c0-.8-.4-1.5-1-2-.7-.6-1.5-.9-2.4-.9-1 0-1.8.3-2.5.8a5 5 0 00-1.6 2.3l-3.6-1.7a8.3 8.3 0 017.7-5.1c2 0 3.8.6 5.2 1.9a5.9 5.9 0 011 8c-.6 1-1.8 2.4-3.3 4L91 126h8.7v3.7H85.1v-2.9l7.7-7.3c1.9-1.9 2.8-3.4 2.8-4.6zm23.3-.3c0-.7-.3-1.3-1-1.8s-1.5-.8-2.6-.8c-.9 0-1.6.2-2.3.5-.6.4-1.1.8-1.4 1.4l-3.5-1.7a6.7 6.7 0 012.8-2.8c1.3-.8 2.8-1.1 4.4-1.1 2.2 0 4 .6 5.5 1.8a5.4 5.4 0 012.1 4.4c0 1.7-.7 3.2-2.2 4.3a5.6 5.6 0 012.8 5c0 1.8-.8 3.3-2.3 4.6a8.8 8.8 0 01-5.7 1.8c-1.8 0-3.5-.4-4.9-1.3-1.4-.9-2.3-2-2.8-3.4l3.7-1.3a3 3 0 001.5 1.6 5 5 0 002.5.7c1.1 0 2-.3 2.8-.8.8-.6 1.2-1.3 1.2-2.1s-.4-1.5-1.2-2c-.7-.6-1.6-.8-2.7-.8H114v-3.5h1c1.2 0 2-.3 2.8-.8.8-.5 1.1-1.1 1.1-2zm23.7 15.1v-4h-11V122l11.1-13.3h3.7V122h2.7v3.7h-2.7v4h-3.8zm0-15.2l-6.3 7.5h6.3v-7.5zM173 123c0 2-.8 3.8-2.3 5.1a8.3 8.3 0 01-5.8 2 8 8 0 01-7.9-5.4l4-1a4.2 4.2 0 004 2.8 4 4 0 002.8-1 3.2 3.2 0 00-.1-5c-.9-.7-1.9-1-3.2-1h-5.8l1-10.8h11.5v3.6H163l-.4 3.6h2.1c2.4 0 4.3.7 6 2 1.5 1.4 2.3 3 2.3 5.1z" fill="#AB85FF"/>
  <path d="M42.9 110.4l-.7-.7.6.7zm11.6 0l-.7.8.7-.8zm0 17.6l-.7-.7.7.7zm-11.6 0l-.7.8.6-.8zm2.7-2.6l-.6.7.6-.7zm6.1 0l.7.7-.7-.7zm0-12.3l-.7.7.7-.7zm-6 0l.6.8-.7-.8zm-4.2 9.5v-6.8h-2v6.8h2zm0-6.8a6 6 0 012-4.6l-1.3-1.5a8 8 0 00-2.7 6.1h2zm2-4.6c1.4-1.3 3-2 5.2-2v-2c-2.6 0-4.8.9-6.5 2.5l1.3 1.5zm5.2-2c2 0 3.7.7 5 2l1.4-1.5a9.1 9.1 0 00-6.4-2.4v2zm5 2a6 6 0 012.1 4.6h2a8 8 0 00-2.7-6l-1.3 1.4zm2.1 4.6v6.8h2v-6.8h-2zm0 6.8a6 6 0 01-2 4.7l1.3 1.5a8 8 0 002.7-6.2h-2zm-2 4.7a7.1 7.1 0 01-5.1 1.9v2c2.5 0 4.7-.8 6.4-2.4l-1.3-1.5zm-5.1 1.9c-2.1 0-3.8-.7-5.2-2l-1.3 1.6c1.7 1.6 4 2.4 6.5 2.4v-2zm-5.2-2a6 6 0 01-2-4.6h-2a8 8 0 002.7 6.2l1.3-1.5zm0-11.4v6.9h2v-7h-2zm0 6.9c0 1.3.5 2.5 1.5 3.4l1.3-1.5c-.6-.5-.9-1.1-.9-2h-2zM45 126c1 1 2.3 1.4 3.7 1.4v-2c-1 0-1.8-.3-2.4-.9l-1.3 1.5zm3.7 1.4c1.4 0 2.6-.5 3.7-1.4l-1.4-1.5c-.6.6-1.3.9-2.3.9v2zm3.7-1.4c1-1 1.5-2 1.5-3.4h-2c0 .7-.2 1.4-.9 2l1.4 1.4zm1.5-3.4v-7h-2v7h2zm0-7c0-1.3-.5-2.4-1.5-3.3l-1.4 1.5c.7.5 1 1.1 1 1.9h2zm-1.5-3.3c-1-1-2.3-1.4-3.7-1.4v2c1 0 1.7.3 2.3.8l1.4-1.4zm-3.7-1.4c-1.5 0-2.7.4-3.7 1.4l1.3 1.4c.6-.5 1.4-.8 2.4-.8v-2zm-3.7 1.4c-1 .9-1.6 2-1.6 3.4h2c0-.8.3-1.4 1-2l-1.4-1.4zm25.7 1.1h1v-1.6l-1.5.7.5.9zm-3.7 1.8l-.9.4.5 1 .9-.5-.5-.9zm-1.6-3.4l-.4-1-1 .5.5 1 1-.5zm6.4-3.2v-1h-.3l-.2.1.5 1zm2.8 0h1v-1h-1v1zm0 21v1h1v-1h-1zm-4 0h-1v1h1v-1zm-.4-17l-3.6 1.7.9 1.8 3.6-1.8-.9-1.8zm-2.3 2.2l-1.6-3.4-1.8.8 1.6 3.4 1.8-.8zm-2-2.1l6.3-3.2-.9-1.8L65 111l.9 1.8zm5.9-3h2.8v-2h-2.8v2zm1.8-1v21h2v-21h-2zm1 20h-4v2h4v-2zm-3 1v-16.3h-2v16.2h2zm23-17l-.6.8.6-.8zm-4.8 0l.6.8-.6-.8zm-1.6 2.3l-.4.9 1 .4.4-1-1-.3zm-3.6-1.7l-.9-.4-.4.8 1 .5.3-1zm3.1-3.7l.6.8-.6-.8zm9.8.5l-.7.7.7-.7zm1 8l1 .5-1-.6zm-3.3 4l.7.6-.7-.7zM91 126l-.7-.7-1.8 1.7H91v-1zm8.7 0h1v-1h-1v1zm0 3.7v1h1v-1h-1zm-14.7 0h-1v1h1v-1zm0-2.9l-.7-.7-.3.3v.4h1zm7.7-7.3l.7.7-.7-.7zm3.8-4.6c0-1.2-.5-2.1-1.3-2.8l-1.3 1.5c.5.4.6.8.6 1.3h2zm-1.3-2.8c-.9-.7-1.9-1.1-3-1.1v2c.7 0 1.2.2 1.7.6l1.3-1.5zm-3-1.1c-1.2 0-2.2.4-3 1l1.1 1.6c.6-.4 1.2-.6 1.9-.6v-2zm-3 1a6 6 0 00-2 2.7l1.9.7a4 4 0 011.2-1.8l-1.2-1.5zm-.6 2.2l-3.6-1.8-.9 1.9 3.6 1.7.9-1.8zm-3.1-.4a7.3 7.3 0 012.7-3.3l-1.2-1.7a9.3 9.3 0 00-3.4 4.2l1.9.8zm2.7-3.3a7 7 0 014-1.2v-2a9 9 0 00-5.2 1.5l1.2 1.7zm4-1.2c1.8 0 3.3.5 4.5 1.6l1.4-1.5a8.6 8.6 0 00-6-2.1v2zm4.6 1.6c1.2 1.1 1.8 2.4 1.8 3.8h2c0-2-.9-3.8-2.5-5.3l-1.3 1.5zm1.8 3.8c0 .9-.3 1.8-1 2.9l1.7 1a7.5 7.5 0 001.3-3.9h-2zm-1 2.9a21 21 0 01-3.2 3.8l1.4 1.4c1.6-1.5 2.8-2.9 3.5-4.1l-1.7-1.1zm-3.2 3.8l-4.1 3.9 1.3 1.4 4.2-3.9-1.4-1.4zM91 127h8.7v-2h-8.7v2zm7.7-1v3.7h2V126h-2zm1 2.7H85.1v2h14.7v-2zm-13.7 1v-2.9h-2v3h2zm-.4-2.2l7.8-7.3-1.4-1.5-7.7 7.4 1.3 1.4zm7.8-7.3c1-1 1.7-1.9 2.3-2.7a5 5 0 00.8-2.6h-2c0 .3 0 .8-.5 1.5-.4.7-1.1 1.5-2 2.4l1.4 1.4zm24.5-7.4l.6-.9-.6.9zm-4.9-.3l.5 1-.5-1zm-1.4 1.4l-.4.9.8.4.5-.8-.9-.5zm-3.5-1.7l-1-.4-.4.9 1 .4.4-.9zm2.8-2.8l.5.8-.5-.8zm9.9.7l-.6.7.6-.7zm-.1 8.7l-.6-.7-1.1.8 1.2.8.5-.9zm.5 9.6l-.6-.8.6.8zm-10.6.5l-.5.8.5-.8zm-2.8-3.4l-.3-1-1 .4.4 1 .9-.4zm3.7-1.3l1-.4-.3-1-1 .4.3 1zm1.5 1.6l-.6.9.6-.9zm5.3-.1l.6.8-.6-.8zm0-4.1l-.6.8.6-.8zm-4.3-.8h-1v1h1v-1zm0-3.5v-1h-1v1h1zm6-2.7c0-1.1-.6-2-1.5-2.7l-1.2 1.7c.5.3.6.6.6 1h2zm-1.5-2.7c-.9-.6-2-.9-3.2-.9v2c.9 0 1.5.2 2 .6l1.2-1.7zm-3.2-.9c-1 0-2 .2-2.8.7l1 1.7c.5-.2 1-.4 1.8-.4v-2zm-2.8.7c-.7.4-1.4 1-1.8 1.7l1.8 1c.2-.4.5-.7 1-1l-1-1.7zm-.5 1.3l-3.5-1.7-.9 1.8 3.6 1.7.8-1.8zm-3-.3c.5-1 1.3-1.8 2.4-2.5l-1-1.7a7.7 7.7 0 00-3.2 3.3l1.8.9zm2.4-2.5c1.2-.6 2.5-1 4-1v-2c-1.9 0-3.5.5-5 1.3l1 1.7zm4-1c2 0 3.5.6 4.8 1.6l1.2-1.5a9.4 9.4 0 00-6-2v2zm4.8 1.6c1.2 1 1.7 2.2 1.7 3.7h2c0-2.1-.8-3.9-2.5-5.2l-1.2 1.5zm1.7 3.7c0 1.4-.5 2.5-1.8 3.6l1.2 1.5c1.7-1.3 2.6-3 2.6-5.1h-2zm-1.8 5.2c1.6 1 2.4 2.3 2.4 4h2c0-2.4-1.1-4.3-3.3-5.7l-1 1.7zm2.4 4c0 1.6-.6 2.8-2 3.9l1.3 1.5a6.7 6.7 0 002.7-5.4h-2zm-2 3.9c-1.2 1-2.9 1.6-5 1.6v2c2.5 0 4.6-.7 6.3-2l-1.2-1.6zm-5 1.6c-1.7 0-3.1-.4-4.3-1.2l-1 1.7c1.5 1 3.3 1.5 5.3 1.5v-2zm-4.3-1.2c-1.3-.7-2-1.7-2.5-2.9l-1.8.7c.5 1.6 1.6 3 3.2 4l1-1.8zm-3-1.6l3.7-1.3-.7-1.9-3.7 1.3.6 2zm2.4-2a4 4 0 001.8 2.3l1-1.7a2 2 0 01-1-1.2l-1.8.7zm1.8 2.3c1 .5 2 .8 3.1.8v-2a4 4 0 01-2-.5l-1 1.7zm3.1.8c1.3 0 2.4-.3 3.4-1l-1.2-1.7c-.5.4-1.2.7-2.2.7v2zm3.4-1c1-.8 1.6-1.7 1.6-3h-2c0 .5-.2 1-.8 1.3l1.2 1.7zm1.6-3c0-1.1-.6-2-1.6-2.8l-1.1 1.7c.5.4.7.7.7 1.2h2zm-1.6-2.7c-1-.7-2-1-3.3-1v2c.9 0 1.6.2 2.1.6l1.2-1.6zm-3.3-1H114v2h1.6v-2zm-.6 1v-3.5h-2v3.5h2zm-1-2.5h1v-2h-1v2zm1 0c1.3 0 2.4-.3 3.4-1l-1.1-1.6c-.6.3-1.3.6-2.2.6v2zm3.4-1c1-.6 1.5-1.6 1.5-2.7h-2c0 .4-.1.7-.6 1l1 1.7zm24.2 12.4h-1v1h1v-1zm0-4h1v-1h-1v1zm-11 0h-1v1h1v-1zm0-3.7l-.7-.6-.2.2v.4h1zm11.1-13.3v-1h-.4l-.3.4.7.6zm3.7 0h1v-1h-1v1zm0 13.3h-1v1h1v-1zm2.7 0h1v-1h-1v1zm0 3.7v1h1v-1h-1zm-2.7 0v-1h-1v1h1zm0 4v1h1v-1h-1zm-3.8-15.2h1v-2.7l-1.8 2 .8.7zm-6.3 7.5l-.7-.6-1.4 1.6h2.1v-1zm6.3 0v1h1v-1h-1zm1 7.7v-4h-2v4h2zm-1-5h-11v2h11v-2zm-10 1V122h-2v3.7h2zm-.2-3l11.1-13.3-1.5-1.3-11.1 13.3 1.5 1.2zm10.3-13h3.7v-2h-3.7v2zm2.7-1V122h2v-13.3h-2zm1 14.3h2.7v-2h-2.7v2zm1.7-1v3.7h2V122h-2zm1 2.7h-2.7v2h2.7v-2zm-3.7 1v4h2v-4h-2zm1 3h-3.8v2h3.8v-2zM142 114l-6.2 7.5 1.5 1.2 6.2-7.4-1.5-1.3zm-5.5 9h6.3v-2h-6.3v2zm7.3-1v-7.4h-2v7.5h2zm27 6.2l.6.8-.6-.8zm-10.6.6l-.6.9.6-.9zm-3-3.9l-.3-1-1 .3.3 1 1-.3zm3.8-1l1-.4-.4-.8-.8.2.2 1zm1.6 2l-.5.8.5-.9zm5.3-.3l-.7-.8.7.8zm-.1-5l-.7.7.7-.7zm-9-1l-1-.2-.1 1.1h1v-1zm1-10.8v-1h-.9v1h1zm11.5 0h1v-1h-1v1zm0 3.6v1h1v-1h-1zm-8.2 0v-1h-1v1h1zm-.4 3.6h-1v1h1v-1zm8 2l-.6.8.6-.8zm1.4 5.1c0 1.8-.7 3.2-2 4.4l1.3 1.5a7.6 7.6 0 002.7-5.9h-2zm-2 4.4a7.3 7.3 0 01-5 1.8v2c2.4 0 4.6-.8 6.3-2.3l-1.3-1.5zm-5 1.8c-1.7 0-3.1-.4-4.4-1.3l-1 1.7c1.5 1 3.3 1.6 5.3 1.6v-2zm-4.3-1.3a7 7 0 01-2.7-3.4l-1.9.7a9 9 0 003.4 4.4l1.2-1.7zm-3.4-2.1l4-1-.6-2-3.9 1 .5 2zm2.7-1.7c.4 1 1 1.9 2 2.5l1-1.7c-.5-.4-.9-.9-1.1-1.5l-1.9.7zm2 2.5c.9.6 1.9.9 3 .9v-2c-.7 0-1.4-.2-2-.6l-1 1.7zm3 .9a5 5 0 003.5-1.3l-1.4-1.5a3 3 0 01-2.1.8v2zm3.4-1.3a4 4 0 001.6-3.2h-2a2 2 0 01-.9 1.7l1.3 1.5zm1.6-3.2c0-1.3-.6-2.5-1.7-3.3l-1.3 1.5c.7.5 1 1.1 1 1.8h2zm-1.7-3.3c-1-.9-2.3-1.3-3.8-1.3v2c1.1 0 2 .3 2.5.8l1.3-1.5zm-3.8-1.3h-5.8v2h5.8v-2zm-4.8 1.1l1-10.7-2-.2-1 10.7 2 .2zm0-9.8h11.5v-2h-11.5v2zm10.5-1v3.6h2v-3.6h-2zm1 2.6H163v2h8.2v-2zm-9.2 1l-.4 3.5 2 .2.4-3.6-2-.2zm.6 4.6h2.1v-2h-2v2zm2.1 0c2.2 0 3.9.6 5.3 1.8l1.3-1.5a9.7 9.7 0 00-6.6-2.3v2zm5.3 1.8c1.3 1.2 2 2.6 2 4.3h2c0-2.3-1-4.3-2.7-5.8l-1.3 1.5z" fill="#000"/>
</svg>
