<svg width="341" height="180" viewBox="0 0 341 180" fill="none" xmlns="http://www.w3.org/2000/svg">
<path d="M273.482 115.477C276.622 115.477 279.634 114.23 281.854 112.009C284.075 109.789 285.322 106.777 285.322 103.637C285.322 100.497 284.075 97.4852 281.854 95.2647C279.634 93.0443 276.622 91.7969 273.482 91.7969L273.482 103.637V115.477Z" fill="#D4D4D4"/>
<path d="M273.483 97.9983C275.576 97.9983 277.584 97.1964 279.064 95.769C280.544 94.3415 281.376 92.4055 281.376 90.3869C281.376 88.3682 280.544 86.4322 279.064 85.0047C277.584 83.5773 275.576 82.7754 273.483 82.7754L273.483 90.3869V97.9983Z" fill="#D4D4D4"/>
<path d="M273.483 131.827C275.576 131.827 277.584 130.668 279.064 128.606C280.544 126.545 281.376 123.748 281.376 120.832C281.376 117.916 280.544 115.12 279.064 113.058C277.584 110.996 275.576 109.838 273.483 109.838L273.483 120.832V131.827Z" fill="#D4D4D4"/>
<path d="M206.921 105.703C213.99 105.703 220.77 102.895 225.768 97.8964C230.767 92.8978 233.575 86.1181 233.575 79.0489C233.575 71.9797 230.767 65.2001 225.768 60.2014C220.77 55.2028 213.99 52.3945 206.921 52.3945L206.921 79.0489V105.703Z" fill="#31D67B"/>
<path d="M206.921 66.3559C211.634 66.3559 216.153 64.5506 219.486 61.3372C222.818 58.1237 224.69 53.7654 224.69 49.2209C224.69 44.6764 222.818 40.3181 219.486 37.1047C216.153 33.8912 211.634 32.0859 206.921 32.0859L206.921 49.2209V66.3559Z" fill="#31D67B"/>
<path d="M206.921 142.511C211.634 142.511 216.153 139.903 219.486 135.262C222.818 130.62 224.69 124.325 224.69 117.76C224.69 111.196 222.818 104.901 219.486 100.259C216.153 95.6174 211.634 93.0098 206.921 93.0098L206.921 117.76V142.511Z" fill="#31D67B"/>
<path d="M250.328 73.9683C254.376 73.9683 258.257 72.3605 261.119 69.4986C263.981 66.6367 265.589 62.7551 265.589 58.7078C265.589 54.6604 263.981 50.7789 261.119 47.917C258.257 45.0551 254.376 43.4473 250.328 43.4473L250.328 58.7078V73.9683Z" fill="#4AE991"/>
<path d="M250.328 51.441C253.027 51.441 255.614 50.4074 257.522 48.5676C259.43 46.7278 260.502 44.2325 260.502 41.6306C260.502 39.0288 259.43 36.5335 257.522 34.6937C255.614 32.8539 253.027 31.8203 250.328 31.8203L250.328 41.6306V51.441Z" fill="#4AE991"/>
<path d="M250.328 95.0421C253.027 95.0421 255.614 93.5492 257.522 90.8917C259.43 88.2342 260.502 84.6299 260.502 80.8716C260.502 77.1134 259.43 73.5091 257.522 70.8516C255.614 68.1941 253.027 66.7012 250.328 66.7012L250.328 80.8716V95.0421Z" fill="#4AE991"/>
<path d="M139.322 81.828L229.896 81.828M229.896 81.828L227.414 80.6307M229.896 81.828L227.414 83.0254" stroke="black"/>
<path d="M139.322 101.724L265.877 101.724M265.877 101.724L262.41 100.483M265.877 101.724L262.41 102.965" stroke="black"/>
<path d="M139.322 62.021L196.396 62.021M196.396 62.021L194.832 60.7803M196.396 62.021L194.832 63.2617" stroke="black"/>
<path d="M139.322 121.576H180.266M180.266 121.576L179.145 120.335M180.266 121.576L179.145 122.816" stroke="black"/>
<rect width="57" height="113" transform="matrix(-1 0 0 1 129.678 36.5)" fill="#A57CFE"/>
<rect x="-0.5" y="0.5" width="56" height="110" transform="matrix(-1 0 0 1 138.678 30.5)" stroke="black"/>
<circle r="3.10184" transform="matrix(-1 0 0 1 96.0017 77.8596)" fill="#31D67B"/>
<circle r="3.10184" transform="matrix(-1 0 0 1 83.5945 77.8596)" fill="#31D67B"/>
<circle r="3.10184" transform="matrix(-1 0 0 1 71.1872 77.8596)" fill="#31D67B"/>
<circle r="3.10184" transform="matrix(-1 0 0 1 58.78 77.8596)" fill="#31D67B"/>
<circle r="3.10184" transform="matrix(-1 0 0 1 96.0017 90.2679)" fill="#31D67B"/>
<circle r="3.10184" transform="matrix(-1 0 0 1 83.5945 90.2679)" fill="#31D67B"/>
<circle r="3.10184" transform="matrix(-1 0 0 1 71.1872 90.2679)" fill="#31D67B"/>
<circle r="3.10184" transform="matrix(-1 0 0 1 58.78 90.2679)" fill="#31D67B"/>
<circle r="3.10184" transform="matrix(-1 0 0 1 58.78 102.674)" fill="#31D67B"/>
<circle r="3.10184" transform="matrix(-1 0 0 1 71.1872 102.674)" fill="#31D67B"/>
<circle r="3.10184" transform="matrix(-1 0 0 1 83.5945 102.674)" fill="#31D67B"/>
<circle r="3.10184" transform="matrix(-1 0 0 1 96.0017 102.674)" fill="#31D67B"/>
</svg>
