<svg width="341" height="181" viewBox="0 0 341 181" fill="none" xmlns="http://www.w3.org/2000/svg">
<circle r="1.375" transform="matrix(-1 0 0 1 291.876 124.818)" fill="#D4D4D4"/>
<circle r="1.375" transform="matrix(-1 0 0 1 286.126 124.818)" fill="#D4D4D4"/>
<circle r="1.375" transform="matrix(-1 0 0 1 280.376 124.818)" fill="#D4D4D4"/>
<circle r="1.375" transform="matrix(-1 0 0 1 274.626 124.818)" fill="#D4D4D4"/>
<circle r="1.375" transform="matrix(-1 0 0 1 268.876 124.818)" fill="#D4D4D4"/>
<circle r="1.375" transform="matrix(-1 0 0 1 263.126 124.818)" fill="#D4D4D4"/>
<circle r="1.375" transform="matrix(-1 0 0 1 257.376 124.818)" fill="#D4D4D4"/>
<circle r="1.375" transform="matrix(-1 0 0 1 251.626 124.818)" fill="#D4D4D4"/>
<circle r="1.375" transform="matrix(-1 0 0 1 245.876 124.818)" fill="#D4D4D4"/>
<circle r="1.375" transform="matrix(-1 0 0 1 291.876 130.568)" fill="#D4D4D4"/>
<circle r="1.375" transform="matrix(-1 0 0 1 286.126 130.568)" fill="#D4D4D4"/>
<circle r="1.375" transform="matrix(-1 0 0 1 291.876 136.318)" fill="#D4D4D4"/>
<circle r="1.375" transform="matrix(-1 0 0 1 286.126 136.318)" fill="#D4D4D4"/>
<circle r="1.375" transform="matrix(-1 0 0 1 280.376 136.318)" fill="#D4D4D4"/>
<circle r="1.375" transform="matrix(-1 0 0 1 274.626 136.318)" fill="#D4D4D4"/>
<circle r="1.375" transform="matrix(-1 0 0 1 268.876 136.318)" fill="#D4D4D4"/>
<circle r="1.375" transform="matrix(-1 0 0 1 263.126 136.318)" fill="#D4D4D4"/>
<circle r="1.375" transform="matrix(-1 0 0 1 257.376 136.318)" fill="#D4D4D4"/>
<circle r="1.375" transform="matrix(-1 0 0 1 251.626 136.318)" fill="#D4D4D4"/>
<circle r="1.375" transform="matrix(-1 0 0 1 245.876 136.318)" fill="#D4D4D4"/>
<circle r="1.375" transform="matrix(-1 0 0 1 280.376 130.568)" fill="#D4D4D4"/>
<circle r="1.375" transform="matrix(-1 0 0 1 274.626 130.568)" fill="#D4D4D4"/>
<circle r="1.375" transform="matrix(-1 0 0 1 268.876 130.568)" fill="#D4D4D4"/>
<circle r="1.375" transform="matrix(-1 0 0 1 263.126 130.568)" fill="#D4D4D4"/>
<circle r="1.375" transform="matrix(-1 0 0 1 257.376 130.568)" fill="#D4D4D4"/>
<circle r="1.375" transform="matrix(-1 0 0 1 251.626 130.568)" fill="#D4D4D4"/>
<circle r="1.375" transform="matrix(-1 0 0 1 245.876 130.568)" fill="#D4D4D4"/>
<rect width="9" height="49" transform="matrix(-1 0 0 1 249.251 98.9434)" fill="#31D67B"/>
<rect width="9" height="87" transform="matrix(-1 0 0 1 232.251 60.9434)" fill="#31D67B"/>
<rect width="9" height="117" transform="matrix(-1 0 0 1 215.251 30.9434)" fill="#31D67B"/>
<rect x="77" y="38" width="73" height="14" fill="#A57CFE"/>
<rect x="77" y="65" width="106" height="14" fill="#A57CFE"/>
<rect x="77" y="93" width="73" height="14" fill="#A57CFE"/>
<rect x="77" y="119" width="106" height="14" fill="#A57CFE"/>
<rect x="76.9708" y="31.4765" width="117.302" height="117.302" stroke="black" stroke-width="1.06638"/>
<mask id="mask0" mask-type="alpha" maskUnits="userSpaceOnUse" x="245" y="32" width="58" height="49">
<path d="M260.272 33.4023L267.252 80.5169" stroke="black" stroke-width="1.25441"/>
<path d="M264.199 33.4023L271.179 80.5169" stroke="black" stroke-width="1.25441"/>
<path d="M268.561 33.4023L275.541 80.5169" stroke="black" stroke-width="1.25441"/>
<path d="M272.924 33.4023L279.903 80.5169" stroke="black" stroke-width="1.25441"/>
<path d="M277.286 32.5293L284.266 79.6439" stroke="black" stroke-width="1.25441"/>
<path d="M281.648 32.5293L288.628 79.6439" stroke="black" stroke-width="1.25441"/>
<path d="M286.011 32.5293L292.991 79.6439" stroke="black" stroke-width="1.25441"/>
<path d="M290.373 32.5293L297.353 79.6439" stroke="black" stroke-width="1.25441"/>
<path d="M294.736 32.5293L301.716 79.6439" stroke="black" stroke-width="1.25441"/>
<path d="M255.474 33.4023L262.454 80.5169" stroke="black" stroke-width="1.25441"/>
<path d="M250.239 33.4023L257.219 80.5169" stroke="black" stroke-width="1.25441"/>
<path d="M245.876 33.4023L252.856 80.5169" stroke="black" stroke-width="1.25441"/>
</mask>
<g mask="url(#mask0)">
<path d="M271.615 80.5156L245.547 35.3641H297.683L271.615 80.5156Z" fill="black"/>
</g>
<path d="M56.0194 102.246L56.0194 58.786M56.0194 58.786L55.3749 59.9766M56.0194 58.786L56.6639 59.9766" stroke="black" stroke-width="1.97979"/>
<path d="M66.7283 102.246L66.7283 41.521M66.7283 41.521L66.0605 43.1847M66.7283 41.521L67.3962 43.1847" stroke="black" stroke-width="1.97979"/>
<path d="M45.3571 102.246L45.3571 74.8603M45.3571 74.8603L44.6893 75.6106M45.3571 74.8603L46.0249 75.6106" stroke="black" stroke-width="1.97979"/>
<circle cx="61.3859" cy="109.842" r="21.1119" fill="#F5F5F5" stroke="black" stroke-width="1.97979"/>
</svg>
