<svg width="261" height="115" fill="none" xmlns="http://www.w3.org/2000/svg">
  <path stroke="url(#paint0_linear)" d="M29.8 13.5h184v77h-184z"/>
  <path fill="#fff" d="M58.3 22.5h63v79h-63z"/>
  <path stroke="url(#paint1_linear)" d="M65.3 40.5h50v7h-50z"/>
  <path stroke="url(#paint2_linear)" d="M65.3 58.5h50v7h-50z"/>
  <path stroke="url(#paint3_linear)" d="M65.3 76.5h50v7h-50z"/>
  <path stroke="url(#paint4_linear)" d="M58.3 22.5h63v79h-63z"/>
  <path stroke="url(#paint5_linear)" d="M148.5 49.5h52v2h-52z"/>
  <path stroke="url(#paint6_linear)" d="M148.5 60.5h52v2h-52z"/>
  <path stroke="url(#paint7_linear)" d="M148.5 71.5h52v2h-52z"/>
  <path d="M200.4 74a1 1 0 01-1-1.2l1.5-7.4.2-.5 22.1-22.1a5.2 5.2 0 017.4 7.3l-22 22.1a1 1 0 01-.6.3l-7.4 1.5h-.2zm2.4-7.9l-1 5.5 5.5-1 21.8-22a3.1 3.1 0 000-4.4 3.1 3.1 0 00-4.4 0l-21.9 22zm5 5.4z" fill="url(#paint8_linear)"/>
  <path d="M227 53.4a1 1 0 01-.8-.3l-5.9-6a1 1 0 011.5-1.4l5.9 5.9a1 1 0 01-.8 1.8z" fill="url(#paint9_linear)"/>
  <path stroke="url(#paint10_linear)" d="M148.7 38.5h52v2h-52z"/>
  <defs>
    <linearGradient id="paint0_linear" x1="-.8" y1="98.8" x2="53.9" y2="-69.1" gradientUnits="userSpaceOnUse">
      <stop stop-color="#AB85FF"/>
      <stop offset=".5" stop-color="#EBA3E3"/>
      <stop offset="1" stop-color="#FFDBE4"/>
    </linearGradient>
    <linearGradient id="paint1_linear" x1="56.5" y1="48.8" x2="58.7" y2="30" gradientUnits="userSpaceOnUse">
      <stop stop-color="#AB85FF"/>
      <stop offset=".5" stop-color="#EBA3E3"/>
      <stop offset="1" stop-color="#FFDBE4"/>
    </linearGradient>
    <linearGradient id="paint2_linear" x1="56.5" y1="66.8" x2="58.7" y2="48" gradientUnits="userSpaceOnUse">
      <stop stop-color="#AB85FF"/>
      <stop offset=".5" stop-color="#EBA3E3"/>
      <stop offset="1" stop-color="#FFDBE4"/>
    </linearGradient>
    <linearGradient id="paint3_linear" x1="56.5" y1="84.8" x2="58.7" y2="66" gradientUnits="userSpaceOnUse">
      <stop stop-color="#AB85FF"/>
      <stop offset=".5" stop-color="#EBA3E3"/>
      <stop offset="1" stop-color="#FFDBE4"/>
    </linearGradient>
    <linearGradient id="paint4_linear" x1="47.3" y1="110" x2="142.6" y2="11.5" gradientUnits="userSpaceOnUse">
      <stop stop-color="#AB85FF"/>
      <stop offset=".5" stop-color="#EBA3E3"/>
      <stop offset="1" stop-color="#FFDBE4"/>
    </linearGradient>
    <linearGradient id="paint5_linear" x1="139.4" y1="52.3" x2="139.7" y2="45.2" gradientUnits="userSpaceOnUse">
      <stop stop-color="#AB85FF"/>
      <stop offset=".5" stop-color="#EBA3E3"/>
      <stop offset="1" stop-color="#FFDBE4"/>
    </linearGradient>
    <linearGradient id="paint6_linear" x1="139.4" y1="63.3" x2="139.7" y2="56.2" gradientUnits="userSpaceOnUse">
      <stop stop-color="#AB85FF"/>
      <stop offset=".5" stop-color="#EBA3E3"/>
      <stop offset="1" stop-color="#FFDBE4"/>
    </linearGradient>
    <linearGradient id="paint7_linear" x1="139.4" y1="74.3" x2="139.7" y2="67.2" gradientUnits="userSpaceOnUse">
      <stop stop-color="#AB85FF"/>
      <stop offset=".5" stop-color="#EBA3E3"/>
      <stop offset="1" stop-color="#FFDBE4"/>
    </linearGradient>
    <linearGradient id="paint8_linear" x1="194" y1="77.3" x2="231.8" y2="28.5" gradientUnits="userSpaceOnUse">
      <stop stop-color="#AB85FF"/>
      <stop offset=".5" stop-color="#EBA3E3"/>
      <stop offset="1" stop-color="#FFDBE4"/>
    </linearGradient>
    <linearGradient id="paint9_linear" x1="218.7" y1="54.2" x2="227.9" y2="42.3" gradientUnits="userSpaceOnUse">
      <stop stop-color="#AB85FF"/>
      <stop offset=".5" stop-color="#EBA3E3"/>
      <stop offset="1" stop-color="#FFDBE4"/>
    </linearGradient>
    <linearGradient id="paint10_linear" x1="139.6" y1="41.3" x2="139.9" y2="34.2" gradientUnits="userSpaceOnUse">
      <stop stop-color="#AB85FF"/>
      <stop offset=".5" stop-color="#EBA3E3"/>
      <stop offset="1" stop-color="#FFDBE4"/>
    </linearGradient>
  </defs>
</svg>
