<svg width="260" height="115" fill="none" xmlns="http://www.w3.org/2000/svg">
  <path d="M113.5 63.4c0 2.5-1.3 5-3.9 7.3a35.2 35.2 0 01-11 6.2c-9.2 3.5-22.1 5.7-36.4 5.7-14.2 0-27.1-2.2-36.4-5.7a35.2 35.2 0 01-11-6.2C12.3 68.4 11 66 11 63.4s1.4-5 4-7.3c2.5-2.3 6.2-4.4 10.9-6.2 9.3-3.5 22.2-5.7 36.4-5.7 14.3 0 27.2 2.2 36.5 5.7 4.6 1.8 8.3 3.9 11 6.2 2.5 2.3 3.8 4.8 3.8 7.3z" stroke="url(#paint0_linear)"/>
  <path d="M249 68c0 1.7-.9 3.5-2.7 5.2a25.8 25.8 0 01-8 4.5 78 78 0 01-26.9 4.3 78 78 0 01-26.8-4.3 25.8 25.8 0 01-8-4.5c-1.9-1.7-2.8-3.5-2.8-5.3 0-1.8 1-3.6 2.8-5.3 1.9-1.6 4.6-3.2 8-4.5a78 78 0 0126.8-4.2 78 78 0 0126.8 4.2c3.5 1.3 6.2 2.9 8 4.5 2 1.7 2.9 3.5 2.9 5.3z" stroke="url(#paint1_linear)"/>
  <path d="M165.2 35.2c0 1-.5 2-1.5 3-1 .9-2.6 1.8-4.6 2.5a45 45 0 01-15.5 2.5c-6 0-11.5-1-15.4-2.5-2-.7-3.5-1.6-4.6-2.6-1-1-1.5-1.9-1.5-2.9s.5-2 1.5-2.9c1-1 2.6-1.8 4.6-2.6a45 45 0 0115.4-2.4c6.1 0 11.6 1 15.5 2.4 2 .8 3.5 1.7 4.6 2.6 1 1 1.5 2 1.5 3z" stroke="url(#paint2_linear)"/>
  <path d="M157.4 85.5c0-4.6-1.5-8.8-4-11.9a12.6 12.6 0 00-19.4 0c-2.6 3-4 7.2-4.1 11.8 1.4.8 7.4 3.6 13.7 3.6 6.9 0 12.5-2.8 13.8-3.5z" fill="url(#paint3_linear)"/>
  <path d="M143.6 67.7a6.9 6.9 0 100-13.7 6.9 6.9 0 000 13.7z" fill="url(#paint4_linear)"/>
  <path d="M42.1 58h.8L46 44.5l4.2 15.4-3.7 13.7H36.3L25.8 38.7H37L42.1 58zm16.2-19.3l9 34.9H56.7l-9.6-34.9h11.2zm6.3 14.4l3.6-14.4h10.1l-9.2 32L64.6 53z" stroke="url(#paint5_linear)" stroke-width=".8"/>
  <path d="M84.4 59.7h-8.8L77 52h9.3v-.3l2.3-12.9h10l-6.1 34.9H71l2.8-8.4H84V65l1-4.8v-.4h-.5z" stroke="url(#paint6_linear)" stroke-width=".8"/>
  <path d="M198.6 61.2h.7l2-8 2.5 9.1-2.3 8.5h-6.3l-6.6-21.7h6.7l3.3 12zM209 49l5.6 21.7H208l-6-21.7h6.8zm4.2 9l2.2-9h6.1l-5.6 19.5L213 58z" stroke="url(#paint7_linear)" stroke-width=".8"/>
  <path d="M225.5 62H220l.8-4.6h5.8l.1-.3 1.4-8h6l-3.8 21.7h-13.2l1.7-5h6.4v-.3l.5-3 .1-.4h-.4z" stroke="url(#paint8_linear)" stroke-width=".8"/>
  <path d="M135.1 31.8h.7L137 27l1.5 5.5-1.5 5.4h-4L129 24h4l2.2 7.9zm6.8-7.9l3.6 14h-4l-3.8-14h4.2zm3 5.8l1.4-5.8h3.7l-3.5 12.2-1.6-6.4z" stroke="url(#paint9_linear)" stroke-width=".8"/>
  <path d="M152.9 32.2h-3.4l.5-2.8h3.8v-.3l1-5.2h3.7L156 38h-8.4l1-3h4.2v-.3l.4-2 .1-.4h-.4z" stroke="url(#paint10_linear)" stroke-width=".8"/>
  <defs>
    <linearGradient id="paint0_linear" x1="-6.4" y1="87.1" x2="19.1" y2=".6" gradientUnits="userSpaceOnUse">
      <stop stop-color="#AB85FF"/>
      <stop offset=".5" stop-color="#EBA3E3"/>
      <stop offset="1" stop-color="#FFDBE4"/>
    </linearGradient>
    <linearGradient id="paint1_linear" x1="160.9" y1="85.4" x2="179.7" y2="21.6" gradientUnits="userSpaceOnUse">
      <stop stop-color="#AB85FF"/>
      <stop offset=".5" stop-color="#EBA3E3"/>
      <stop offset="1" stop-color="#FFDBE4"/>
    </linearGradient>
    <linearGradient id="paint2_linear" x1="114.4" y1="45.3" x2="125.2" y2="8.4" gradientUnits="userSpaceOnUse">
      <stop stop-color="#AB85FF"/>
      <stop offset=".5" stop-color="#EBA3E3"/>
      <stop offset="1" stop-color="#FFDBE4"/>
    </linearGradient>
    <linearGradient id="paint3_linear" x1="125.4" y1="90.9" x2="145.8" y2="54.8" gradientUnits="userSpaceOnUse">
      <stop stop-color="#AB85FF"/>
      <stop offset=".5" stop-color="#EBA3E3"/>
      <stop offset="1" stop-color="#FFDBE4"/>
    </linearGradient>
    <linearGradient id="paint4_linear" x1="134.5" y1="69.1" x2="150.4" y2="48.6" gradientUnits="userSpaceOnUse">
      <stop stop-color="#AB85FF"/>
      <stop offset=".5" stop-color="#EBA3E3"/>
      <stop offset="1" stop-color="#FFDBE4"/>
    </linearGradient>
    <linearGradient id="paint5_linear" x1="16.6" y1="77.5" x2="51.2" y2="10.5" gradientUnits="userSpaceOnUse">
      <stop stop-color="#AB85FF"/>
      <stop offset=".5" stop-color="#EBA3E3"/>
      <stop offset="1" stop-color="#FFDBE4"/>
    </linearGradient>
    <linearGradient id="paint6_linear" x1="65.9" y1="77.5" x2="108.3" y2="33.5" gradientUnits="userSpaceOnUse">
      <stop stop-color="#AB85FF"/>
      <stop offset=".5" stop-color="#EBA3E3"/>
      <stop offset="1" stop-color="#FFDBE4"/>
    </linearGradient>
    <linearGradient id="paint7_linear" x1="182.6" y1="73.5" x2="204.5" y2="31.1" gradientUnits="userSpaceOnUse">
      <stop stop-color="#AB85FF"/>
      <stop offset=".5" stop-color="#EBA3E3"/>
      <stop offset="1" stop-color="#FFDBE4"/>
    </linearGradient>
    <linearGradient id="paint8_linear" x1="213.7" y1="73.5" x2="240.5" y2="45.7" gradientUnits="userSpaceOnUse">
      <stop stop-color="#AB85FF"/>
      <stop offset=".5" stop-color="#EBA3E3"/>
      <stop offset="1" stop-color="#FFDBE4"/>
    </linearGradient>
    <linearGradient id="paint9_linear" x1="124.8" y1="39.8" x2="139.1" y2="12" gradientUnits="userSpaceOnUse">
      <stop stop-color="#AB85FF"/>
      <stop offset=".5" stop-color="#EBA3E3"/>
      <stop offset="1" stop-color="#FFDBE4"/>
    </linearGradient>
    <linearGradient id="paint10_linear" x1="145.2" y1="39.8" x2="162.7" y2="21.6" gradientUnits="userSpaceOnUse">
      <stop stop-color="#AB85FF"/>
      <stop offset=".5" stop-color="#EBA3E3"/>
      <stop offset="1" stop-color="#FFDBE4"/>
    </linearGradient>
  </defs>
</svg>
