<svg width="261" height="117" fill="none" xmlns="http://www.w3.org/2000/svg">
  <path d="M166.2 48.9c-2.7-.9-5.5-1.7-7.8-3.3h0c-2.9-2-4.4-5-4.4-8.6 0-5.2 3.6-9 9.5-10.4h.3v-5.8h5.8v5.4h.5c3 .4 6 1.3 8.3 2.7l-3.1 5c-2-1.1-4.8-1.9-7.3-1.9-1.8 0-3.8.3-5.4 1-1.6.8-2.8 2-2.8 4 0 .8.1 1.4.4 2 .3.7.8 1.2 1.4 1.7 1.3.9 3.3 1.6 6.3 2.5 3 .9 5.8 1.8 8.2 3.5 3 2.2 4.6 5.3 4.5 9.3v0c0 2.7-1 5-2.8 6.8-1.8 1.8-4.5 3-7.8 3.5h-.4v5.5h-5.8v-5.5l-.4-.1c-3.6-.7-7-2.5-9.4-4.9l4.2-4a13.2 13.2 0 0014 2.4c1.5-.7 2.7-2 2.7-3.8 0-3.6-2.8-5.2-8.7-7zm0 0h0" stroke="url(#paint0_linear)"/>
  <path d="M217.2 48.9c-2.7-.9-5.5-1.7-7.8-3.3h0c-2.9-2-4.4-5-4.4-8.6 0-5.2 3.6-9 9.5-10.4h.3v-5.8h5.8v5.4h.5c3 .4 6 1.3 8.3 2.7l-3.1 5c-2-1.1-4.8-1.9-7.3-1.9-1.8 0-3.8.3-5.4 1-1.6.8-2.8 2-2.8 4 0 .8.1 1.4.4 2 .3.7.8 1.2 1.4 1.7 1.3.9 3.3 1.6 6.3 2.5 3 .9 5.8 1.8 8.2 3.5 3 2.2 4.6 5.3 4.5 9.3v0c0 2.7-1 5-2.8 6.8-1.8 1.8-4.5 3-7.8 3.5h-.4v5.5h-5.8v-5.5l-.4-.1c-3.6-.7-7-2.5-9.4-4.9l4.2-4a13.2 13.2 0 0014 2.4c1.5-.7 2.7-2 2.7-3.8 0-3.6-2.8-5.2-8.7-7zm0 0h0" stroke="url(#paint1_linear)"/>
  <path d="M115.7 46.8H17.8v48.3h97.9V46.8z" stroke="url(#paint2_linear)"/>
  <path d="M80.2 64h-52v2h52v-2z" stroke="url(#paint3_linear)"/>
  <path d="M80.2 54.8h-52v2h52v-2z" stroke="url(#paint4_linear)"/>
  <path d="M80.2 75h-52v2h52v-2z" stroke="url(#paint5_linear)"/>
  <path d="M80.2 86h-52v2h52v-2z" stroke="url(#paint6_linear)"/>
  <path d="M129.6 56v0c0-4-1.5-7-4.5-9.3a27.7 27.7 0 00-8.2-3.5v0c-3-1-5-1.6-6.3-2.5-.6-.5-1-1-1.4-1.6-.3-.7-.4-1.3-.4-2.1 0-2 1.2-3.2 2.8-4a15.5 15.5 0 0112.7.8l3.1-4.9a20.6 20.6 0 00-8.3-2.6h-.5v-5.5h-5.8v5.7l-.3.1C106.6 28 103 31.8 103 37a10 10 0 004.4 8.6h0a27.7 27.7 0 007.8 3.3l-.1.4c5.9 1.9 8.3 3 8.3 6.6h6.2zm0 0c0 2.7-1 5-2.8 6.8-1.8 1.8-4.5 3-7.8 3.5h-.4v5.5h-5.8v-5.5l-.4-.1c-3.6-.7-7-2.5-9.4-4.9l4.2-4a13.2 13.2 0 0014 2.4c1.5-.7 2.7-2 2.7-3.7 0 0 0 0 0 0v0s0 0 0 0h5.7z" fill="url(#paint7_linear)" stroke="url(#paint8_linear)"/>
  <defs>
    <linearGradient id="paint0_linear" x1="148.7" y1="77.5" x2="206.7" y2="37.4" gradientUnits="userSpaceOnUse">
      <stop stop-color="#AB85FF"/>
      <stop offset=".5" stop-color="#EBA3E3"/>
      <stop offset="1" stop-color="#FFDBE4"/>
    </linearGradient>
    <linearGradient id="paint1_linear" x1="199.7" y1="77.5" x2="257.7" y2="37.4" gradientUnits="userSpaceOnUse">
      <stop stop-color="#AB85FF"/>
      <stop offset=".5" stop-color="#EBA3E3"/>
      <stop offset="1" stop-color="#FFDBE4"/>
    </linearGradient>
    <linearGradient id="paint2_linear" x1="1.2" y1="100.5" x2="40.5" y2="-1.6" gradientUnits="userSpaceOnUse">
      <stop stop-color="#AB85FF"/>
      <stop offset=".5" stop-color="#EBA3E3"/>
      <stop offset="1" stop-color="#FFDBE4"/>
    </linearGradient>
    <linearGradient id="paint3_linear" x1="19.1" y1="66.9" x2="19.4" y2="59.7" gradientUnits="userSpaceOnUse">
      <stop stop-color="#AB85FF"/>
      <stop offset=".5" stop-color="#EBA3E3"/>
      <stop offset="1" stop-color="#FFDBE4"/>
    </linearGradient>
    <linearGradient id="paint4_linear" x1="19.1" y1="57.6" x2="19.4" y2="50.5" gradientUnits="userSpaceOnUse">
      <stop stop-color="#AB85FF"/>
      <stop offset=".5" stop-color="#EBA3E3"/>
      <stop offset="1" stop-color="#FFDBE4"/>
    </linearGradient>
    <linearGradient id="paint5_linear" x1="19.1" y1="77.9" x2="19.4" y2="70.7" gradientUnits="userSpaceOnUse">
      <stop stop-color="#AB85FF"/>
      <stop offset=".5" stop-color="#EBA3E3"/>
      <stop offset="1" stop-color="#FFDBE4"/>
    </linearGradient>
    <linearGradient id="paint6_linear" x1="19.1" y1="88.9" x2="19.4" y2="81.7" gradientUnits="userSpaceOnUse">
      <stop stop-color="#AB85FF"/>
      <stop offset=".5" stop-color="#EBA3E3"/>
      <stop offset="1" stop-color="#FFDBE4"/>
    </linearGradient>
    <linearGradient id="paint7_linear" x1="97.7" y1="77.5" x2="155.7" y2="37.4" gradientUnits="userSpaceOnUse">
      <stop stop-color="#AB85FF"/>
      <stop offset=".5" stop-color="#EBA3E3"/>
      <stop offset="1" stop-color="#FFDBE4"/>
    </linearGradient>
    <linearGradient id="paint8_linear" x1="97.7" y1="77.5" x2="155.7" y2="37.4" gradientUnits="userSpaceOnUse">
      <stop stop-color="#AB85FF"/>
      <stop offset=".5" stop-color="#EBA3E3"/>
      <stop offset="1" stop-color="#FFDBE4"/>
    </linearGradient>
  </defs>
</svg>
