<svg width="261" height="115" fill="none" xmlns="http://www.w3.org/2000/svg">
  <path d="M80 35.3l6.2 19 .1.4h20.4L90.6 66.5l-.3.2.2.4 6.2 19-16.3-11.7-.3-.2-.3.2-16.2 11.8L69.7 67l.1-.4-.3-.2-16.2-11.8h20.4l.1-.3L80 35.3z" stroke="url(#paint0_linear)"/>
  <path d="M131.1 63.6c0 2.6-1.3 5-4 7.4a35.2 35.2 0 01-10.9 6.1C107 80.7 94.1 83 79.8 83c-14.3 0-27.1-2.2-36.5-5.8A35.2 35.2 0 0132.4 71c-2.6-2.3-3.9-4.8-3.9-7.4 0-2.5 1.3-5 4-7.3C35 54 38.6 52 43.2 50.2c9.4-3.6 22.2-5.8 36.5-5.8s27.1 2.2 36.4 5.8c4.7 1.7 8.4 3.8 11 6.1 2.6 2.3 3.9 4.8 3.9 7.3z" stroke="url(#paint1_linear)"/>
  <path d="M193.7 39.9l4.5 13.7v.3H213l-11.6 8.5-.3.2.1.3 4.4 13.7L194 68l-.3-.2-.3.2-11.6 8.5 4.4-13.7.2-.3-.3-.2-11.7-8.5h14.8v-.3l4.5-13.7z" stroke="url(#paint2_linear)"/>
  <path d="M231.2 60.4c0 1.8-1 3.6-2.8 5.2a25.8 25.8 0 01-8 4.6 78 78 0 01-26.8 4.2 78 78 0 01-26.8-4.2 25.8 25.8 0 01-8-4.6c-2-1.6-2.9-3.4-2.9-5.2 0-1.9 1-3.7 2.8-5.3 1.9-1.7 4.6-3.3 8-4.6a78 78 0 0126.9-4.2 78 78 0 0126.8 4.2c3.4 1.3 6.1 2.9 8 4.6 1.8 1.6 2.8 3.4 2.8 5.3z" stroke="url(#paint3_linear)"/>
  <path d="M145.3 22.6l2.3 7.3.1.4h8.1l-6.2 4.5-.3.2v.3l2.5 7.3-6.3-4.5-.2-.2-.3.2-6.3 4.5 2.4-7.3.1-.3-.3-.2-6.2-4.5h8.1v-.4l2.5-7.3z" stroke="url(#paint4_linear)"/>
  <path d="M166.7 33.8c0 1-.5 2-1.5 2.9-1 1-2.6 1.8-4.6 2.6a45 45 0 01-15.4 2.4c-6.1 0-11.6-1-15.5-2.4-2-.8-3.5-1.7-4.6-2.6-1-1-1.5-2-1.5-3 0-.9.5-1.9 1.5-2.8 1-1 2.6-1.9 4.6-2.6a45 45 0 0115.5-2.4c6 0 11.5.9 15.4 2.4 2 .7 3.5 1.6 4.6 2.6 1 1 1.5 2 1.5 2.9z" stroke="url(#paint5_linear)"/>
  <defs>
    <linearGradient id="paint0_linear" x1="40.6" y1="99.1" x2="109.2" y2="10.5" gradientUnits="userSpaceOnUse">
      <stop stop-color="#AB85FF"/>
      <stop offset=".5" stop-color="#EBA3E3"/>
      <stop offset="1" stop-color="#FFDBE4"/>
    </linearGradient>
    <linearGradient id="paint1_linear" x1="11.1" y1="87.3" x2="36.7" y2=".8" gradientUnits="userSpaceOnUse">
      <stop stop-color="#AB85FF"/>
      <stop offset=".5" stop-color="#EBA3E3"/>
      <stop offset="1" stop-color="#FFDBE4"/>
    </linearGradient>
    <linearGradient id="paint2_linear" x1="164.7" y1="86.5" x2="215.2" y2="21.2" gradientUnits="userSpaceOnUse">
      <stop stop-color="#AB85FF"/>
      <stop offset=".5" stop-color="#EBA3E3"/>
      <stop offset="1" stop-color="#FFDBE4"/>
    </linearGradient>
    <linearGradient id="paint3_linear" x1="143" y1="77.8" x2="161.8" y2="14.1" gradientUnits="userSpaceOnUse">
      <stop stop-color="#AB85FF"/>
      <stop offset=".5" stop-color="#EBA3E3"/>
      <stop offset="1" stop-color="#FFDBE4"/>
    </linearGradient>
    <linearGradient id="paint4_linear" x1="128.4" y1="48.9" x2="157.7" y2="11.1" gradientUnits="userSpaceOnUse">
      <stop stop-color="#AB85FF"/>
      <stop offset=".5" stop-color="#EBA3E3"/>
      <stop offset="1" stop-color="#FFDBE4"/>
    </linearGradient>
    <linearGradient id="paint5_linear" x1="115.9" y1="43.9" x2="126.8" y2="7" gradientUnits="userSpaceOnUse">
      <stop stop-color="#AB85FF"/>
      <stop offset=".5" stop-color="#EBA3E3"/>
      <stop offset="1" stop-color="#FFDBE4"/>
    </linearGradient>
  </defs>
</svg>
