<svg width="261" height="116" fill="none" xmlns="http://www.w3.org/2000/svg">
  <g clip-path="url(#clip0)">
    <path d="M219.7 83.7c0 3.7-2 7.3-6 10.6a54.5 54.5 0 01-16.6 8.8c-14 5-33.6 8.1-55.2 8.1-21.5 0-41-3-55.1-8.1-7-2.6-12.8-5.5-16.7-8.8-3.9-3.3-6-6.9-6-10.6 0-3.6 2.1-7.2 6-10.5 4-3.3 9.6-6.3 16.7-8.8 14-5 33.6-8.2 55.1-8.2 21.6 0 41.1 3.2 55.2 8.2 7 2.5 12.7 5.5 16.6 8.8 4 3.3 6 6.9 6 10.5z" stroke="url(#paint0_linear)"/>
    <path d="M121.4 77.4l8.9 6.3" stroke="url(#paint1_linear)"/>
    <path d="M131 77.4l-10.2 6.3" stroke="url(#paint2_linear)"/>
    <path d="M49.5 45.2A55.3 55.3 0 01122 71.3m0 0V58.6v12.7zm0 0c-3.4-2.3-10.5-7.1-12-7.6" stroke="url(#paint3_linear)"/>
    <path d="M214.5 18.5a55.3 55.3 0 00-72.6 26m0 0V32v12.7zm0 0c3.4-2.2 10.6-7 12.1-7.5" stroke="url(#paint4_linear)"/>
    <path d="M254 38.6c-.1-4.6-1.5-8.8-4.1-11.8-2.5-3-6-4.7-9.7-4.7-3.7 0-7.1 1.7-9.7 4.7-2.5 3-4 7.2-4 11.8 1.4.7 7.4 3.5 13.7 3.5 6.9 0 12.4-2.8 13.8-3.5z" fill="url(#paint5_linear)"/>
    <path d="M240.2 20.8a6.9 6.9 0 100-13.7 6.9 6.9 0 000 13.7z" fill="url(#paint6_linear)"/>
    <path d="M34.7 65.3c0-4.6-1.5-8.8-4-11.8-2.6-3-6-4.7-9.8-4.7-3.7 0-7.1 1.7-9.6 4.7-2.6 3-4 7.2-4.1 11.8 1.4.7 7.4 3.5 13.7 3.5 6.9 0 12.5-2.7 13.8-3.5z" fill="url(#paint7_linear)"/>
    <path d="M21 47.6a6.9 6.9 0 100-13.8 6.9 6.9 0 000 13.8z" fill="url(#paint8_linear)"/>
  </g>
  <defs>
    <linearGradient id="paint0_linear" x1="38.2" y1="117.3" x2="72.5" y2="-6.5" gradientUnits="userSpaceOnUse">
      <stop stop-color="#AB85FF"/>
      <stop offset=".5" stop-color="#EBA3E3"/>
      <stop offset="1" stop-color="#FFDBE4"/>
    </linearGradient>
    <linearGradient id="paint1_linear" x1="119.9" y1="84.4" x2="126.4" y2="72.8" gradientUnits="userSpaceOnUse">
      <stop stop-color="#AB85FF"/>
      <stop offset=".5" stop-color="#EBA3E3"/>
      <stop offset="1" stop-color="#FFDBE4"/>
    </linearGradient>
    <linearGradient id="paint2_linear" x1="132.6" y1="84.4" x2="126.7" y2="72.1" gradientUnits="userSpaceOnUse">
      <stop stop-color="#AB85FF"/>
      <stop offset=".5" stop-color="#EBA3E3"/>
      <stop offset="1" stop-color="#FFDBE4"/>
    </linearGradient>
    <linearGradient id="paint3_linear" x1="37.7" y1="74.4" x2="59.5" y2="8.1" gradientUnits="userSpaceOnUse">
      <stop stop-color="#AB85FF"/>
      <stop offset=".5" stop-color="#EBA3E3"/>
      <stop offset="1" stop-color="#FFDBE4"/>
    </linearGradient>
    <linearGradient id="paint4_linear" x1="226.3" y1="47.7" x2="204.5" y2="-18.6" gradientUnits="userSpaceOnUse">
      <stop stop-color="#AB85FF"/>
      <stop offset=".5" stop-color="#EBA3E3"/>
      <stop offset="1" stop-color="#FFDBE4"/>
    </linearGradient>
    <linearGradient id="paint5_linear" x1="222" y1="44.1" x2="242.4" y2="7.9" gradientUnits="userSpaceOnUse">
      <stop stop-color="#AB85FF"/>
      <stop offset=".5" stop-color="#EBA3E3"/>
      <stop offset="1" stop-color="#FFDBE4"/>
    </linearGradient>
    <linearGradient id="paint6_linear" x1="231.1" y1="22.2" x2="247" y2="1.7" gradientUnits="userSpaceOnUse">
      <stop stop-color="#AB85FF"/>
      <stop offset=".5" stop-color="#EBA3E3"/>
      <stop offset="1" stop-color="#FFDBE4"/>
    </linearGradient>
    <linearGradient id="paint7_linear" x1="2.7" y1="70.8" x2="23.1" y2="34.6" gradientUnits="userSpaceOnUse">
      <stop stop-color="#AB85FF"/>
      <stop offset=".5" stop-color="#EBA3E3"/>
      <stop offset="1" stop-color="#FFDBE4"/>
    </linearGradient>
    <linearGradient id="paint8_linear" x1="11.8" y1="48.9" x2="27.7" y2="28.5" gradientUnits="userSpaceOnUse">
      <stop stop-color="#AB85FF"/>
      <stop offset=".5" stop-color="#EBA3E3"/>
      <stop offset="1" stop-color="#FFDBE4"/>
    </linearGradient>
    <clipPath id="clip0">
      <path fill="#fff" transform="translate(1 .3)" d="M0 0h260v115H0z"/>
    </clipPath>
  </defs>
</svg>
