<svg width="342" height="180" fill="none" xmlns="http://www.w3.org/2000/svg">
  <circle cx="208" cy="113.5" r="41.5" fill="#A57CFE"/>
  <path fill="#31D67B" d="M48.5 136h245v24h-245z"/>
  <path d="M214.5 39v96.5M218.5 39v96.5M222.5 39v96.5M226.5 39v96.5M230.5 39v96.5M234.5 39v96.5M238.5 39v96.5M242.5 39v96.5M210.5 39v96.5M96 125c-13.5-1-39.3-11.7-40.5-40.5 0-36 27.5-45.5 41-45.5H243M95.8 125H168" stroke="#000"/>
  <path d="M140.5 36c0-4.2-1.6-8.3-4.5-11.3a15.3 15.3 0 00-22 0c-2.9 3-4.5 7-4.5 11.3h31z" fill="#8052E4"/>
  <path d="M158.5 36c0-3-1.4-5.7-3.8-7.8-2.4-2-5.8-3.2-9.2-3.2-3.4 0-6.8 1.2-9.2 3.2-2.4 2-3.8 4.9-3.8 7.8h26zM117.5 36c0-1.9-1-3.6-2.6-5-1.7-1.3-4-2-6.4-2-2.4 0-4.7.7-6.4 2a6.3 6.3 0 00-2.6 5h18z" fill="#8052E4"/>
</svg>
