<svg width="342" height="180" fill="none" xmlns="http://www.w3.org/2000/svg">
  <circle cx="208.5" cy="71" r="42.5" fill="#31D67B" stroke="#31D67B"/>
  <circle cx="57.9" cy="91.4" r="1.4" fill="#D4D4D4"/>
  <circle cx="63.6" cy="91.4" r="1.4" fill="#D4D4D4"/>
  <circle cx="69.4" cy="91.4" r="1.4" fill="#D4D4D4"/>
  <circle cx="75.1" cy="91.4" r="1.4" fill="#D4D4D4"/>
  <circle cx="80.9" cy="91.4" r="1.4" fill="#D4D4D4"/>
  <circle cx="86.6" cy="91.4" r="1.4" fill="#D4D4D4"/>
  <circle cx="92.4" cy="91.4" r="1.4" fill="#D4D4D4"/>
  <circle cx="98.1" cy="91.4" r="1.4" fill="#D4D4D4"/>
  <circle cx="103.9" cy="91.4" r="1.4" fill="#D4D4D4"/>
  <circle cx="57.9" cy="97.1" r="1.4" fill="#D4D4D4"/>
  <circle cx="63.6" cy="97.1" r="1.4" fill="#D4D4D4"/>
  <circle cx="57.9" cy="102.9" r="1.4" fill="#D4D4D4"/>
  <circle cx="63.6" cy="102.9" r="1.4" fill="#D4D4D4"/>
  <circle cx="69.4" cy="102.9" r="1.4" fill="#D4D4D4"/>
  <circle cx="75.1" cy="102.9" r="1.4" fill="#D4D4D4"/>
  <circle cx="80.9" cy="102.9" r="1.4" fill="#D4D4D4"/>
  <circle cx="86.6" cy="102.9" r="1.4" fill="#D4D4D4"/>
  <circle cx="92.4" cy="102.9" r="1.4" fill="#D4D4D4"/>
  <circle cx="98.1" cy="102.9" r="1.4" fill="#D4D4D4"/>
  <circle cx="103.9" cy="102.9" r="1.4" fill="#D4D4D4"/>
  <circle cx="69.4" cy="97.1" r="1.4" fill="#D4D4D4"/>
  <circle cx="75.1" cy="97.1" r="1.4" fill="#D4D4D4"/>
  <circle cx="80.9" cy="97.1" r="1.4" fill="#D4D4D4"/>
  <circle cx="86.6" cy="97.1" r="1.4" fill="#D4D4D4"/>
  <circle cx="92.4" cy="97.1" r="1.4" fill="#D4D4D4"/>
  <circle cx="98.1" cy="97.1" r="1.4" fill="#D4D4D4"/>
  <circle cx="103.9" cy="97.1" r="1.4" fill="#D4D4D4"/>
  <circle cx="148.5" cy="94" r="58" fill="#AB85FF"/>
  <path d="M96.1 119l66.5-30.1m0 0h-2.2m2.2 0l-1.4 1.7M100.9 127.1l122-55.2m0 0l-3.7.6m3.8-.6l-3 2.4M104.9 132l90.6-41.1m0 0l-2.9.2m3-.2l-2.2 2" stroke="#000"/>
  <circle cx="241.9" cy="67.4" r="1.4" fill="#D4D4D4"/>
  <circle cx="247.6" cy="67.4" r="1.4" fill="#D4D4D4"/>
  <circle cx="253.4" cy="67.4" r="1.4" fill="#D4D4D4"/>
  <circle cx="259.1" cy="67.4" r="1.4" fill="#D4D4D4"/>
  <circle cx="264.9" cy="67.4" r="1.4" fill="#D4D4D4"/>
  <circle cx="270.6" cy="67.4" r="1.4" fill="#D4D4D4"/>
  <circle cx="276.4" cy="67.4" r="1.4" fill="#D4D4D4"/>
  <circle cx="282.1" cy="67.4" r="1.4" fill="#D4D4D4"/>
  <circle cx="287.9" cy="67.4" r="1.4" fill="#D4D4D4"/>
  <circle cx="241.9" cy="73.1" r="1.4" fill="#D4D4D4"/>
  <circle cx="247.6" cy="73.1" r="1.4" fill="#D4D4D4"/>
  <circle cx="241.9" cy="78.9" r="1.4" fill="#D4D4D4"/>
  <circle cx="247.6" cy="78.9" r="1.4" fill="#D4D4D4"/>
  <circle cx="253.4" cy="78.9" r="1.4" fill="#D4D4D4"/>
  <circle cx="259.1" cy="78.9" r="1.4" fill="#D4D4D4"/>
  <circle cx="264.9" cy="78.9" r="1.4" fill="#D4D4D4"/>
  <circle cx="270.6" cy="78.9" r="1.4" fill="#D4D4D4"/>
  <circle cx="276.4" cy="78.9" r="1.4" fill="#D4D4D4"/>
  <circle cx="282.1" cy="78.9" r="1.4" fill="#D4D4D4"/>
  <circle cx="287.9" cy="78.9" r="1.4" fill="#D4D4D4"/>
  <circle cx="253.4" cy="73.1" r="1.4" fill="#D4D4D4"/>
  <circle cx="259.1" cy="73.1" r="1.4" fill="#D4D4D4"/>
  <circle cx="264.9" cy="73.1" r="1.4" fill="#D4D4D4"/>
  <circle cx="270.6" cy="73.1" r="1.4" fill="#D4D4D4"/>
  <circle cx="276.4" cy="73.1" r="1.4" fill="#D4D4D4"/>
  <circle cx="282.1" cy="73.1" r="1.4" fill="#D4D4D4"/>
  <circle cx="287.9" cy="73.1" r="1.4" fill="#D4D4D4"/>
</svg>
