<svg width="342" height="180" fill="none" xmlns="http://www.w3.org/2000/svg">
  <path d="M91.5 71H258M76.5 83h162M106.5 97h160M95.5 109.5h160" stroke="#000"/>
  <path d="M171.5 129a49 49 0 110-98v98z" fill="#A57CFE"/>
  <path d="M171.5 150a49 49 0 100-98v98z" fill="#31D67B"/>
  <circle cx="115.9" cy="137.4" r="1.4" fill="#D4D4D4"/>
  <circle cx="121.6" cy="137.4" r="1.4" fill="#D4D4D4"/>
  <circle cx="127.4" cy="137.4" r="1.4" fill="#D4D4D4"/>
  <circle cx="133.1" cy="137.4" r="1.4" fill="#D4D4D4"/>
  <circle cx="138.9" cy="137.4" r="1.4" fill="#D4D4D4"/>
  <circle cx="144.6" cy="137.4" r="1.4" fill="#D4D4D4"/>
  <circle cx="150.4" cy="137.4" r="1.4" fill="#D4D4D4"/>
  <circle cx="156.1" cy="137.4" r="1.4" fill="#D4D4D4"/>
  <circle cx="161.9" cy="137.4" r="1.4" fill="#D4D4D4"/>
  <circle cx="115.9" cy="143.1" r="1.4" fill="#D4D4D4"/>
  <circle cx="121.6" cy="143.1" r="1.4" fill="#D4D4D4"/>
  <circle cx="115.9" cy="148.9" r="1.4" fill="#D4D4D4"/>
  <circle cx="121.6" cy="148.9" r="1.4" fill="#D4D4D4"/>
  <circle cx="127.4" cy="148.9" r="1.4" fill="#D4D4D4"/>
  <circle cx="133.1" cy="148.9" r="1.4" fill="#D4D4D4"/>
  <circle cx="138.9" cy="148.9" r="1.4" fill="#D4D4D4"/>
  <circle cx="144.6" cy="148.9" r="1.4" fill="#D4D4D4"/>
  <circle cx="150.4" cy="148.9" r="1.4" fill="#D4D4D4"/>
  <circle cx="156.1" cy="148.9" r="1.4" fill="#D4D4D4"/>
  <circle cx="161.9" cy="148.9" r="1.4" fill="#D4D4D4"/>
  <circle cx="127.4" cy="143.1" r="1.4" fill="#D4D4D4"/>
  <circle cx="133.1" cy="143.1" r="1.4" fill="#D4D4D4"/>
  <circle cx="138.9" cy="143.1" r="1.4" fill="#D4D4D4"/>
  <circle cx="144.6" cy="143.1" r="1.4" fill="#D4D4D4"/>
  <circle cx="150.4" cy="143.1" r="1.4" fill="#D4D4D4"/>
  <circle cx="156.1" cy="143.1" r="1.4" fill="#D4D4D4"/>
  <circle cx="161.9" cy="143.1" r="1.4" fill="#D4D4D4"/>
  <circle cx="115.9" cy="137.4" r="1.4" fill="#D4D4D4"/>
  <circle cx="121.6" cy="137.4" r="1.4" fill="#D4D4D4"/>
  <circle cx="127.4" cy="137.4" r="1.4" fill="#D4D4D4"/>
  <circle cx="133.1" cy="137.4" r="1.4" fill="#D4D4D4"/>
  <circle cx="138.9" cy="137.4" r="1.4" fill="#D4D4D4"/>
  <circle cx="144.6" cy="137.4" r="1.4" fill="#D4D4D4"/>
  <circle cx="150.4" cy="137.4" r="1.4" fill="#D4D4D4"/>
  <circle cx="156.1" cy="137.4" r="1.4" fill="#D4D4D4"/>
  <circle cx="161.9" cy="137.4" r="1.4" fill="#D4D4D4"/>
  <circle cx="115.9" cy="143.1" r="1.4" fill="#D4D4D4"/>
  <circle cx="121.6" cy="143.1" r="1.4" fill="#D4D4D4"/>
  <circle cx="115.9" cy="148.9" r="1.4" fill="#D4D4D4"/>
  <circle cx="121.6" cy="148.9" r="1.4" fill="#D4D4D4"/>
  <circle cx="127.4" cy="148.9" r="1.4" fill="#D4D4D4"/>
  <circle cx="133.1" cy="148.9" r="1.4" fill="#D4D4D4"/>
  <circle cx="138.9" cy="148.9" r="1.4" fill="#D4D4D4"/>
  <circle cx="144.6" cy="148.9" r="1.4" fill="#D4D4D4"/>
  <circle cx="150.4" cy="148.9" r="1.4" fill="#D4D4D4"/>
  <circle cx="156.1" cy="148.9" r="1.4" fill="#D4D4D4"/>
  <circle cx="161.9" cy="148.9" r="1.4" fill="#D4D4D4"/>
  <circle cx="127.4" cy="143.1" r="1.4" fill="#D4D4D4"/>
  <circle cx="133.1" cy="143.1" r="1.4" fill="#D4D4D4"/>
  <circle cx="138.9" cy="143.1" r="1.4" fill="#D4D4D4"/>
  <circle cx="144.6" cy="143.1" r="1.4" fill="#D4D4D4"/>
  <circle cx="150.4" cy="143.1" r="1.4" fill="#D4D4D4"/>
  <circle cx="156.1" cy="143.1" r="1.4" fill="#D4D4D4"/>
  <circle cx="161.9" cy="143.1" r="1.4" fill="#D4D4D4"/>
  <circle cx="205" cy="41.5" r="7.5" fill="#8052E4"/>
</svg>
