<svg width="260" height="115" fill="none" xmlns="http://www.w3.org/2000/svg">
  <path d="M71.2 52.7l-1.7-1v2.9l.7 5.6 2.7 8.2.9 2.2v1.5l.5 2.3-.5 2.4.5 2.8-.5 2-3.6 1-2.6 1.6-2.8 2.8-1 2.4 2 2.5 2.5 1.5c.5.5 1.6 1.6 1.6 1.9l.3 1.6-.6 1.6-.6 2.2-.3 1.2-1.1 1.1v4.1l2.3 1.5c.2.1.6-.3.8-.6l-.5-1.9 1-1.2 2 1.6h2.7l1.5-1.6 1.6-1.4 1.3-2.3 3.2-.5h1.7l2.6-.5h1.5l1-.4 1.2-1h2l.8 1h5l4.9 1h3.3l3 1.8h3l2.5.9 1.6-.5h2.4v1.9l.8.3v1.3h4.1l.5-.4h1l.5 1.9.7 1.2.9-.9 1.4-2.2.7.8h2l1.8-2 1.6 2.7.8.4 1.4-1.5 1.9.4.8 2.3 1 .9.7-.4v-1l.4-1.1.9-1.1H145.7l.8-.4 1-1.2 1 1.6v1.5l1 1.7 1 1.5.8-.7h2v-1.3l.6-.4 1.6-1.2.4 1.2 1.4.4h1l.6-.9 1.2-.7h2.7l1.2.7 2 3.3 2.3.6 1-1v-2l-.5-1.6-1-2.7-.7-1.4.6-1 1.1-1 .9-2.3.8-1.5 2.3-1.2v-1.3l.4-1.3 1-1 2 1.2 1.4-.2.6-1 1-.5h5.4v-1.8l-.8-.9-.8-1-1.1-1.5-.4-2.8.4-1v-1.7l-.8-1.1-1.4-1c-.3-.2.5-.6.9-.8l.5-1.6-1.4-.8.3-1.1-1.3-1.1-1.4-1.7-.9-1 1-.9.2-1.8v-1.2l1 .6 1.4-.6h1.9l2.7 2h2.5l2.9-.8.8-1.2.8-.8.6-1.5v-1h1.4l1-.7 1.6-.9v-1.4l-.6-1.5h-1l-2.4-1.5-.6-1V55.4l-.8-1h-1.3l-1.5-1.1-2.2-.5-2.8.5h-1.5l.4-.5.6-1.6.5-1.6v-1.2l-.5-1.2-1.4-.5-1-.5-2-.5-2.2-1.3-1.1-.4v-2.2l-.6-1.5-1-1.5-1.4-.2V38l.7-1 .3-.7V35l-.3-.8h-2.2l-.4-.4-2.4-1.3-.6-1 .6-1v-1.2l1-.7 1-1.7.4-1.8-.3-1.6-2.7-2.8 1-1.2.6-1.3v-3.7l-1-1.6-1.7.4h-.4l-1.3-.8-.5-1.6-3.3-1.7-.5-.4-1.8-.4h-1l-.5.4-1.9-.4-1.2.4-.7 1.2h-2l-1 .9-.5 1h-.8l-.5-1V9.2l.5-1.5-.5-1-2.6-1.1-2.9-.7c-.3.3-1.1.7-1.4.7-.3 0-1 .7-1.3 1l-1-.5-.4-1.5-.5-.8h-4l-.6.8-1.2-1.8h-1.3l-2 1-2.1 1.1.3 1.8h-1.7l-.7 1v2.6l-.8.6h-3.4l-1.5-1h-1.6l-3.4 3.4-.8-.4h-1l-.8 1 .8 1-2 2.5.6 2.7-1.8 1.4v.7l2.4.3 1.8-.3.8.8-1.3 1.1-.5 1.6h-.6l-1.4.3h-2.9l-.8 1v1.6l-.8.9-3 1-2.6 2.5v5.6l-1.4 2.1-1.1 3.1-.4 1.4h-2.6l-2 .9-.9 1.5-1.2 1.1-1.5-.7-1.2.7-1.4.7 1.4 1.7-1.4 1.2v-1.2h-.9l-4.2 3-1.2-1.4-1.3-.4-.6.4h-1.7l-1-.4-1 .4-.5.8-.6-.8h-2z" stroke="url(#paint0_linear)"/>
  <defs>
    <linearGradient id="paint0_linear" x1="42.3" y1="123.2" x2="160.7" y2="-61.8" gradientUnits="userSpaceOnUse">
      <stop stop-color="#AB85FF"/>
      <stop offset=".5" stop-color="#EBA3E3"/>
      <stop offset="1" stop-color="#FFDBE4"/>
    </linearGradient>
  </defs>
</svg>
