<svg width="260" height="115" fill="none" xmlns="http://www.w3.org/2000/svg">
  <g clip-path="url(#clip0)">
    <path d="M130 6.8l12.3 38 .1.4h40.4l-32.4 23.4-.3.3.1.3 12.4 38-32.4-23.5-.3-.2-.2.2-32.4 23.5 12.4-38v-.3l-.2-.3-32.3-23.4h40.3l.1-.4 12.3-38z" stroke="url(#paint0_linear)"/>
    <path d="M228.5 62.7c0 5-2.7 10-7.7 14.4-5 4.5-12.2 8.6-21.1 12-18 6.8-42.8 11-70.2 11-27.4 0-52.2-4.2-70.2-11-9-3.4-16.2-7.5-21.1-12-5-4.4-7.7-9.3-7.7-14.4 0-5 2.7-9.9 7.7-14.3 5-4.5 12.2-8.6 21.1-12 18-6.8 42.8-11 70.2-11 27.4 0 52.2 4.2 70.2 11 9 3.4 16.2 7.5 21.1 12 5 4.4 7.7 9.3 7.7 14.3z" stroke="url(#paint1_linear)"/>
  </g>
  <defs>
    <linearGradient id="paint0_linear" x1="54.3" y1="130.8" x2="185.9" y2="-39.4" gradientUnits="userSpaceOnUse">
      <stop stop-color="#AB85FF"/>
      <stop offset=".5" stop-color="#EBA3E3"/>
      <stop offset="1" stop-color="#FFDBE4"/>
    </linearGradient>
    <linearGradient id="paint1_linear" x1="-2.4" y1="108.3" x2="46.6" y2="-57.9" gradientUnits="userSpaceOnUse">
      <stop stop-color="#AB85FF"/>
      <stop offset=".5" stop-color="#EBA3E3"/>
      <stop offset="1" stop-color="#FFDBE4"/>
    </linearGradient>
    <clipPath id="clip0">
      <path fill="#fff" d="M0 0h260v115H0z"/>
    </clipPath>
  </defs>
</svg>
