<svg width="342" height="180" viewBox="0 0 342 180" fill="none" xmlns="http://www.w3.org/2000/svg">
<rect width="341" height="180" transform="translate(0.363281)" fill="#F5F5F5"/>
<path d="M226.949 128.174L281.446 156.758V74.9697L226.949 48.3674L226.949 128.174Z" fill="#4AE991"/>
<mask id="mask0" mask-type="alpha" maskUnits="userSpaceOnUse" x="226" y="48" width="56" height="109">
<path d="M226.949 128.174L281.446 156.758V74.9697L226.949 48.3674L226.949 128.174Z" fill="#AB85FF"/>
</mask>
<g mask="url(#mask0)">
<path d="M228.896 -18.4727C193.91 33.7073 193.91 70.9787 228.896 93.3415C263.883 115.704 263.883 152.976 228.896 205.156" stroke="#31D67B"/>
<path d="M295.9 -11.9374C243.272 28.0644 229.376 63.4043 254.212 94.0823C279.048 124.76 265.152 160.1 212.524 200.102" stroke="#31D67B"/>
<path d="M272.764 -16.2688C242.697 38.0926 246.133 75.2488 283.073 95.1997C320.013 115.151 323.45 152.307 293.382 206.668" stroke="#31D67B"/>
</g>
<path d="M97.7461 57.1428L165.84 57.1428M165.84 57.1428L163.974 56.2426M165.84 57.1428L163.974 58.043" stroke="black"/>
<path d="M97.7461 72.0985L192.891 72.0985M192.891 72.0985L190.284 71.1657M192.891 72.0985L190.284 73.0313" stroke="black"/>
<path d="M97.7461 42.2508L140.654 42.2508M140.654 42.2508L139.479 41.318M140.654 42.2508L139.479 43.1836" stroke="black"/>
<path d="M97.7461 87.0242H128.528M128.528 87.0242L127.685 86.0914M128.528 87.0242L127.685 87.957" stroke="black"/>
<path d="M105.609 118.54L40.5345 152.672L40.5345 55.0075L105.609 23.2412L105.609 118.54Z" fill="#AB85FF"/>
<mask id="mask1" mask-type="alpha" maskUnits="userSpaceOnUse" x="40" y="23" width="66" height="130">
<path d="M105.609 118.54L40.5345 152.672L40.5345 55.0075L105.609 23.2412L105.609 118.54Z" fill="#AB85FF"/>
</mask>
<g mask="url(#mask1)">
<path d="M103.284 -56.5742C145.062 5.73467 145.062 50.241 103.284 76.9448C61.5054 103.649 61.5054 148.155 103.284 210.464" stroke="#8052E4"/>
<path d="M23.2745 -48.769C86.1183 -1.00232 102.712 41.1976 73.0544 77.8307C43.3972 114.464 59.9905 156.664 122.834 204.43" stroke="#8052E4"/>
<path d="M50.8999 -53.938C86.8044 10.9758 82.7012 55.3446 38.5902 79.1683C-5.5208 102.992 -9.62406 147.361 26.2804 212.275" stroke="#8052E4"/>
</g>
<circle cx="264.52" cy="44.0865" r="2.82092" fill="#31D67B"/>
<circle cx="275.805" cy="44.0865" r="2.82092" fill="#31D67B"/>
<circle cx="287.087" cy="44.0865" r="2.82092" fill="#31D67B"/>
<circle cx="298.372" cy="44.0865" r="2.82092" fill="#31D67B"/>
<circle cx="264.52" cy="55.3717" r="2.82092" fill="#31D67B"/>
<circle cx="275.805" cy="55.3717" r="2.82092" fill="#31D67B"/>
<circle cx="287.087" cy="55.3717" r="2.82092" fill="#31D67B"/>
<circle cx="298.372" cy="55.3717" r="2.82092" fill="#31D67B"/>
<circle cx="298.372" cy="66.653" r="2.82092" fill="#31D67B"/>
<circle cx="287.087" cy="66.653" r="2.82092" fill="#31D67B"/>
<circle cx="275.805" cy="66.653" r="2.82092" fill="#31D67B"/>
<circle cx="264.52" cy="66.653" r="2.82092" fill="#31D67B"/>
<circle cx="264.52" cy="66.653" r="2.82092" fill="#31D67B"/>
<circle cx="275.805" cy="66.653" r="2.82092" fill="#31D67B"/>
<circle cx="287.087" cy="66.653" r="2.82092" fill="#31D67B"/>
<circle cx="298.372" cy="66.653" r="2.82092" fill="#31D67B"/>
<circle cx="264.52" cy="77.9381" r="2.82092" fill="#31D67B"/>
<circle cx="275.805" cy="77.9381" r="2.82092" fill="#31D67B"/>
<circle cx="287.087" cy="77.9381" r="2.82092" fill="#31D67B"/>
<circle cx="298.372" cy="77.9381" r="2.82092" fill="#31D67B"/>
<circle cx="298.372" cy="89.2194" r="2.82092" fill="#31D67B"/>
<circle cx="287.087" cy="89.2194" r="2.82092" fill="#31D67B"/>
<circle cx="275.805" cy="89.2194" r="2.82092" fill="#31D67B"/>
<circle cx="264.52" cy="89.2194" r="2.82092" fill="#31D67B"/>
<path d="M164.749 95.902L164.387 95.5099L164.385 95.5122L164.749 95.902ZM173.011 95.902L172.646 96.2919L172.649 96.2942L173.011 95.902ZM173.011 108.412L172.649 108.02L172.646 108.022L173.011 108.412ZM164.749 108.412L164.385 108.802L164.387 108.804L164.749 108.412ZM166.735 106.533L166.372 106.925L166.383 106.934L166.735 106.533ZM171.047 106.533L171.399 106.934L171.405 106.93L171.41 106.925L171.047 106.533ZM171.047 97.802L170.684 98.194L170.695 98.2031L171.047 97.802ZM166.735 97.802L167.092 98.1988L167.097 98.1938L166.735 97.802ZM163.639 104.569V99.7447H162.572V104.569H163.639ZM163.639 99.7447C163.639 98.3513 164.129 97.2129 165.114 96.2919L164.385 95.5122C163.178 96.6406 162.572 98.064 162.572 99.7447H163.639ZM165.111 96.2942C166.113 95.3693 167.361 94.8987 168.891 94.8987V93.8313C167.119 93.8313 165.605 94.3854 164.387 95.5099L165.111 96.2942ZM168.891 94.8987C170.421 94.8987 171.66 95.3692 172.646 96.2919L173.376 95.5122C172.171 94.3854 170.662 93.8313 168.891 93.8313V94.8987ZM172.649 96.2942C173.648 97.2159 174.142 98.3537 174.142 99.7447H175.21C175.21 98.0616 174.595 96.6376 173.373 95.5099L172.649 96.2942ZM174.142 99.7447V104.569H175.21V99.7447H174.142ZM174.142 104.569C174.142 105.96 173.648 107.098 172.649 108.02L173.373 108.804C174.595 107.677 175.21 106.252 175.21 104.569H174.142ZM172.646 108.022C171.66 108.945 170.421 109.415 168.891 109.415V110.483C170.662 110.483 172.171 109.929 173.376 108.802L172.646 108.022ZM168.891 109.415C167.361 109.415 166.113 108.945 165.111 108.02L164.387 108.804C165.605 109.929 167.119 110.483 168.891 110.483V109.415ZM165.114 108.022C164.129 107.101 163.639 105.963 163.639 104.569H162.572C162.572 106.25 163.178 107.673 164.385 108.802L165.114 108.022ZM165.347 99.702V104.612H166.414V99.702H165.347ZM165.347 104.612C165.347 105.52 165.697 106.301 166.372 106.925L167.097 106.142C166.634 105.713 166.414 105.213 166.414 104.612H165.347ZM166.383 106.934C167.073 107.541 167.921 107.836 168.891 107.836V106.768C168.153 106.768 167.563 106.55 167.087 106.132L166.383 106.934ZM168.891 107.836C169.86 107.836 170.708 107.541 171.399 106.934L170.695 106.132C170.219 106.55 169.629 106.768 168.891 106.768V107.836ZM171.41 106.925C172.093 106.292 172.456 105.513 172.456 104.612H171.389C171.389 105.192 171.168 105.694 170.684 106.142L171.41 106.925ZM172.456 104.612V99.702H171.389V104.612H172.456ZM172.456 99.702C172.456 98.789 172.094 98.0113 171.399 97.401L170.695 98.2031C171.167 98.6175 171.389 99.1064 171.389 99.702H172.456ZM171.409 97.4102C170.729 96.7813 169.876 96.4784 168.891 96.4784V97.5459C169.642 97.5459 170.226 97.7696 170.685 98.1938L171.409 97.4102ZM168.891 96.4784C167.906 96.4784 167.052 96.7813 166.372 97.4102L167.097 98.1938C167.556 97.7696 168.14 97.5459 168.891 97.5459V96.4784ZM166.378 97.4053C165.698 98.0171 165.347 98.7938 165.347 99.702H166.414C166.414 99.1017 166.633 98.6117 167.092 98.1987L166.378 97.4053ZM185.772 98.0796H186.305V97.2192L185.535 97.6014L185.772 98.0796ZM183.189 99.3604L182.706 99.5889L182.939 100.08L183.426 99.8386L183.189 99.3604ZM182.036 96.9268L181.799 96.4485L181.329 96.6813L181.553 97.1552L182.036 96.9268ZM186.562 94.6852V94.1515H186.437L186.325 94.2069L186.562 94.6852ZM188.547 94.6852H189.081V94.1515H188.547V94.6852ZM188.547 109.629V110.163H189.081V109.629H188.547ZM185.772 109.629H185.238V110.163H185.772V109.629ZM185.535 97.6014L182.951 98.8823L183.426 99.8386L186.009 98.5577L185.535 97.6014ZM183.671 99.132L182.518 96.6983L181.553 97.1552L182.706 99.5889L183.671 99.132ZM182.273 97.405L186.798 95.1635L186.325 94.2069L181.799 96.4485L182.273 97.405ZM186.562 95.2189H188.547V94.1515H186.562V95.2189ZM188.013 94.6852V109.629H189.081V94.6852H188.013ZM188.547 109.095H185.772V110.163H188.547V109.095ZM186.305 109.629V98.0796H185.238V109.629H186.305ZM198.898 95.902L198.536 95.5099L198.533 95.5122L198.898 95.902ZM207.16 95.902L206.795 96.2919L206.798 96.2942L207.16 95.902ZM207.16 108.412L206.798 108.02L206.795 108.022L207.16 108.412ZM198.898 108.412L198.533 108.802L198.536 108.804L198.898 108.412ZM200.883 106.533L200.521 106.925L200.531 106.934L200.883 106.533ZM205.196 106.533L205.548 106.934L205.553 106.93L205.558 106.925L205.196 106.533ZM205.196 97.802L204.833 98.194L204.844 98.2031L205.196 97.802ZM200.883 97.802L201.24 98.1988L201.246 98.1938L200.883 97.802ZM197.788 104.569V99.7447H196.72V104.569H197.788ZM197.788 99.7447C197.788 98.3513 198.278 97.2129 199.262 96.2919L198.533 95.5122C197.327 96.6406 196.72 98.064 196.72 99.7447H197.788ZM199.26 96.2942C200.262 95.3693 201.509 94.8987 203.04 94.8987V93.8313C201.268 93.8313 199.754 94.3854 198.536 95.5099L199.26 96.2942ZM203.04 94.8987C204.57 94.8987 205.808 95.3692 206.795 96.2919L207.524 95.5122C206.319 94.3854 204.811 93.8313 203.04 93.8313V94.8987ZM206.798 96.2942C207.796 97.2159 208.291 98.3537 208.291 99.7447H209.359C209.359 98.0616 208.743 96.6376 207.522 95.5099L206.798 96.2942ZM208.291 99.7447V104.569H209.359V99.7447H208.291ZM208.291 104.569C208.291 105.96 207.796 107.098 206.798 108.02L207.522 108.804C208.743 107.677 209.359 106.252 209.359 104.569H208.291ZM206.795 108.022C205.808 108.945 204.57 109.415 203.04 109.415V110.483C204.811 110.483 206.319 109.929 207.524 108.802L206.795 108.022ZM203.04 109.415C201.509 109.415 200.262 108.945 199.26 108.02L198.536 108.804C199.754 109.929 201.268 110.483 203.04 110.483V109.415ZM199.262 108.022C198.278 107.101 197.788 105.963 197.788 104.569H196.72C196.72 106.25 197.327 107.673 198.533 108.802L199.262 108.022ZM199.496 99.702V104.612H200.563V99.702H199.496ZM199.496 104.612C199.496 105.52 199.846 106.301 200.521 106.925L201.246 106.142C200.782 105.713 200.563 105.213 200.563 104.612H199.496ZM200.531 106.934C201.222 107.541 202.07 107.836 203.04 107.836V106.768C202.301 106.768 201.712 106.55 201.235 106.132L200.531 106.934ZM203.04 107.836C204.009 107.836 204.857 107.541 205.548 106.934L204.844 106.132C204.367 106.55 203.778 106.768 203.04 106.768V107.836ZM205.558 106.925C206.242 106.292 206.605 105.513 206.605 104.612H205.537C205.537 105.192 205.317 105.694 204.833 106.142L205.558 106.925ZM206.605 104.612V99.702H205.537V104.612H206.605ZM206.605 99.702C206.605 98.789 206.243 98.0113 205.548 97.401L204.844 98.2031C205.316 98.6175 205.537 99.1064 205.537 99.702H206.605ZM205.558 97.4102C204.878 96.7813 204.025 96.4784 203.04 96.4784V97.5459C203.791 97.5459 204.375 97.7696 204.833 98.1938L205.558 97.4102ZM203.04 96.4784C202.054 96.4784 201.201 96.7813 200.521 97.4102L201.246 98.1938C201.704 97.7696 202.288 97.5459 203.04 97.5459V96.4784ZM200.526 97.4053C199.847 98.0171 199.496 98.7938 199.496 99.702H200.563C200.563 99.1017 200.782 98.6117 201.24 98.1987L200.526 97.4053ZM219.92 98.0796H220.454V97.2192L219.683 97.6014L219.92 98.0796ZM217.337 99.3604L216.855 99.5889L217.088 100.08L217.574 99.8386L217.337 99.3604ZM216.184 96.9268L215.948 96.4485L215.478 96.6813L215.702 97.1552L216.184 96.9268ZM220.71 94.6852V94.1515H220.585L220.473 94.2069L220.71 94.6852ZM222.696 94.6852H223.229V94.1515H222.696V94.6852ZM222.696 109.629V110.163H223.229V109.629H222.696ZM219.92 109.629H219.387V110.163H219.92V109.629ZM219.683 97.6014L217.1 98.8823L217.574 99.8386L220.157 98.5577L219.683 97.6014ZM217.82 99.132L216.667 96.6983L215.702 97.1552L216.855 99.5889L217.82 99.132ZM216.421 97.405L220.947 95.1635L220.473 94.2069L215.948 96.4485L216.421 97.405ZM220.71 95.2189H222.696V94.1515H220.71V95.2189ZM222.162 94.6852V109.629H223.229V94.6852H222.162ZM222.696 109.095H219.92V110.163H222.696V109.095ZM220.454 109.629V98.0796H219.387V109.629H220.454ZM233.047 95.902L232.685 95.5099L232.682 95.5122L233.047 95.902ZM241.308 95.902L240.944 96.2919L240.946 96.2942L241.308 95.902ZM241.308 108.412L240.946 108.02L240.944 108.022L241.308 108.412ZM233.047 108.412L232.682 108.802L232.685 108.804L233.047 108.412ZM235.032 106.533L234.67 106.925L234.68 106.934L235.032 106.533ZM239.344 106.533L239.697 106.934L239.702 106.93L239.707 106.925L239.344 106.533ZM239.344 97.802L238.982 98.194L238.992 98.2031L239.344 97.802ZM235.032 97.802L235.389 98.1988L235.394 98.1938L235.032 97.802ZM231.937 104.569V99.7447H230.869V104.569H231.937ZM231.937 99.7447C231.937 98.3513 232.426 97.2129 233.411 96.2919L232.682 95.5122C231.475 96.6406 230.869 98.064 230.869 99.7447H231.937ZM233.409 96.2942C234.411 95.3693 235.658 94.8987 237.188 94.8987V93.8313C235.417 93.8313 233.903 94.3854 232.685 95.5099L233.409 96.2942ZM237.188 94.8987C238.719 94.8987 239.957 95.3692 240.944 96.2919L241.673 95.5122C240.468 94.3854 238.96 93.8313 237.188 93.8313V94.8987ZM240.946 96.2942C241.945 97.2159 242.44 98.3537 242.44 99.7447H243.507C243.507 98.0616 242.892 96.6376 241.67 95.5099L240.946 96.2942ZM242.44 99.7447V104.569H243.507V99.7447H242.44ZM242.44 104.569C242.44 105.96 241.945 107.098 240.946 108.02L241.67 108.804C242.892 107.677 243.507 106.252 243.507 104.569H242.44ZM240.944 108.022C239.957 108.945 238.719 109.415 237.188 109.415V110.483C238.96 110.483 240.468 109.929 241.673 108.802L240.944 108.022ZM237.188 109.415C235.658 109.415 234.411 108.945 233.409 108.02L232.685 108.804C233.903 109.929 235.417 110.483 237.188 110.483V109.415ZM233.411 108.022C232.426 107.101 231.937 105.963 231.937 104.569H230.869C230.869 106.25 231.475 107.673 232.682 108.802L233.411 108.022ZM233.644 99.702V104.612H234.712V99.702H233.644ZM233.644 104.612C233.644 105.52 233.995 106.301 234.67 106.925L235.394 106.142C234.931 105.713 234.712 105.213 234.712 104.612H233.644ZM234.68 106.934C235.371 107.541 236.219 107.836 237.188 107.836V106.768C236.45 106.768 235.86 106.55 235.384 106.132L234.68 106.934ZM237.188 107.836C238.158 107.836 239.006 107.541 239.697 106.934L238.992 106.132C238.516 106.55 237.926 106.768 237.188 106.768V107.836ZM239.707 106.925C240.39 106.292 240.753 105.513 240.753 104.612H239.686C239.686 105.192 239.465 105.694 238.982 106.142L239.707 106.925ZM240.753 104.612V99.702H239.686V104.612H240.753ZM240.753 99.702C240.753 98.789 240.392 98.0113 239.697 97.401L238.992 98.2031C239.464 98.6175 239.686 99.1064 239.686 99.702H240.753ZM239.707 97.4102C239.027 96.7813 238.173 96.4784 237.188 96.4784V97.5459C237.939 97.5459 238.523 97.7696 238.982 98.1938L239.707 97.4102ZM237.188 96.4784C236.203 96.4784 235.35 96.7813 234.67 97.4102L235.394 98.1938C235.853 97.7696 236.437 97.5459 237.188 97.5459V96.4784ZM234.675 97.4053C233.995 98.0171 233.644 98.7938 233.644 99.702H234.712C234.712 99.1017 234.93 98.6117 235.389 98.1987L234.675 97.4053ZM164.749 127.902L164.387 127.51L164.385 127.512L164.749 127.902ZM173.011 127.902L172.646 128.292L172.649 128.294L173.011 127.902ZM173.011 140.412L172.649 140.02L172.646 140.022L173.011 140.412ZM164.749 140.412L164.385 140.802L164.387 140.804L164.749 140.412ZM166.735 138.533L166.372 138.925L166.383 138.934L166.735 138.533ZM171.047 138.533L171.399 138.934L171.405 138.93L171.41 138.925L171.047 138.533ZM171.047 129.802L170.684 130.194L170.695 130.203L171.047 129.802ZM166.735 129.802L167.092 130.199L167.097 130.194L166.735 129.802ZM163.639 136.569V131.745H162.572V136.569H163.639ZM163.639 131.745C163.639 130.351 164.129 129.213 165.114 128.292L164.385 127.512C163.178 128.641 162.572 130.064 162.572 131.745H163.639ZM165.111 128.294C166.113 127.369 167.361 126.899 168.891 126.899V125.831C167.119 125.831 165.605 126.385 164.387 127.51L165.111 128.294ZM168.891 126.899C170.421 126.899 171.66 127.369 172.646 128.292L173.376 127.512C172.171 126.385 170.662 125.831 168.891 125.831V126.899ZM172.649 128.294C173.648 129.216 174.142 130.354 174.142 131.745H175.21C175.21 130.062 174.595 128.638 173.373 127.51L172.649 128.294ZM174.142 131.745V136.569H175.21V131.745H174.142ZM174.142 136.569C174.142 137.96 173.648 139.098 172.649 140.02L173.373 140.804C174.595 139.677 175.21 138.252 175.21 136.569H174.142ZM172.646 140.022C171.66 140.945 170.421 141.415 168.891 141.415V142.483C170.662 142.483 172.171 141.929 173.376 140.802L172.646 140.022ZM168.891 141.415C167.361 141.415 166.113 140.945 165.111 140.02L164.387 140.804C165.605 141.929 167.119 142.483 168.891 142.483V141.415ZM165.114 140.022C164.129 139.101 163.639 137.963 163.639 136.569H162.572C162.572 138.25 163.178 139.673 164.385 140.802L165.114 140.022ZM165.347 131.702V136.612H166.414V131.702H165.347ZM165.347 136.612C165.347 137.52 165.697 138.301 166.372 138.925L167.097 138.142C166.634 137.713 166.414 137.213 166.414 136.612H165.347ZM166.383 138.934C167.073 139.541 167.921 139.836 168.891 139.836V138.768C168.153 138.768 167.563 138.55 167.087 138.132L166.383 138.934ZM168.891 139.836C169.86 139.836 170.708 139.541 171.399 138.934L170.695 138.132C170.219 138.55 169.629 138.768 168.891 138.768V139.836ZM171.41 138.925C172.093 138.292 172.456 137.513 172.456 136.612H171.389C171.389 137.192 171.168 137.694 170.684 138.142L171.41 138.925ZM172.456 136.612V131.702H171.389V136.612H172.456ZM172.456 131.702C172.456 130.789 172.094 130.011 171.399 129.401L170.695 130.203C171.167 130.618 171.389 131.106 171.389 131.702H172.456ZM171.409 129.41C170.729 128.781 169.876 128.478 168.891 128.478V129.546C169.642 129.546 170.226 129.77 170.685 130.194L171.409 129.41ZM168.891 128.478C167.906 128.478 167.052 128.781 166.372 129.41L167.097 130.194C167.556 129.77 168.14 129.546 168.891 129.546V128.478ZM166.378 129.405C165.698 130.017 165.347 130.794 165.347 131.702H166.414C166.414 131.102 166.633 130.612 167.092 130.199L166.378 129.405ZM185.772 130.08H186.305V129.219L185.535 129.601L185.772 130.08ZM183.189 131.36L182.706 131.589L182.939 132.08L183.426 131.839L183.189 131.36ZM182.036 128.927L181.799 128.449L181.329 128.681L181.553 129.155L182.036 128.927ZM186.562 126.685V126.152H186.437L186.325 126.207L186.562 126.685ZM188.547 126.685H189.081V126.152H188.547V126.685ZM188.547 141.629V142.163H189.081V141.629H188.547ZM185.772 141.629H185.238V142.163H185.772V141.629ZM185.535 129.601L182.951 130.882L183.426 131.839L186.009 130.558L185.535 129.601ZM183.671 131.132L182.518 128.698L181.553 129.155L182.706 131.589L183.671 131.132ZM182.273 129.405L186.798 127.163L186.325 126.207L181.799 128.449L182.273 129.405ZM186.562 127.219H188.547V126.152H186.562V127.219ZM188.013 126.685V141.629H189.081V126.685H188.013ZM188.547 141.095H185.772V142.163H188.547V141.095ZM186.305 141.629V130.08H185.238V141.629H186.305ZM198.898 127.902L198.536 127.51L198.533 127.512L198.898 127.902ZM207.16 127.902L206.795 128.292L206.798 128.294L207.16 127.902ZM207.16 140.412L206.798 140.02L206.795 140.022L207.16 140.412ZM198.898 140.412L198.533 140.802L198.536 140.804L198.898 140.412ZM200.883 138.533L200.521 138.925L200.531 138.934L200.883 138.533ZM205.196 138.533L205.548 138.934L205.553 138.93L205.558 138.925L205.196 138.533ZM205.196 129.802L204.833 130.194L204.844 130.203L205.196 129.802ZM200.883 129.802L201.24 130.199L201.246 130.194L200.883 129.802ZM197.788 136.569V131.745H196.72V136.569H197.788ZM197.788 131.745C197.788 130.351 198.278 129.213 199.262 128.292L198.533 127.512C197.327 128.641 196.72 130.064 196.72 131.745H197.788ZM199.26 128.294C200.262 127.369 201.509 126.899 203.04 126.899V125.831C201.268 125.831 199.754 126.385 198.536 127.51L199.26 128.294ZM203.04 126.899C204.57 126.899 205.808 127.369 206.795 128.292L207.524 127.512C206.319 126.385 204.811 125.831 203.04 125.831V126.899ZM206.798 128.294C207.796 129.216 208.291 130.354 208.291 131.745H209.359C209.359 130.062 208.743 128.638 207.522 127.51L206.798 128.294ZM208.291 131.745V136.569H209.359V131.745H208.291ZM208.291 136.569C208.291 137.96 207.796 139.098 206.798 140.02L207.522 140.804C208.743 139.677 209.359 138.252 209.359 136.569H208.291ZM206.795 140.022C205.808 140.945 204.57 141.415 203.04 141.415V142.483C204.811 142.483 206.319 141.929 207.524 140.802L206.795 140.022ZM203.04 141.415C201.509 141.415 200.262 140.945 199.26 140.02L198.536 140.804C199.754 141.929 201.268 142.483 203.04 142.483V141.415ZM199.262 140.022C198.278 139.101 197.788 137.963 197.788 136.569H196.72C196.72 138.25 197.327 139.673 198.533 140.802L199.262 140.022ZM199.496 131.702V136.612H200.563V131.702H199.496ZM199.496 136.612C199.496 137.52 199.846 138.301 200.521 138.925L201.246 138.142C200.782 137.713 200.563 137.213 200.563 136.612H199.496ZM200.531 138.934C201.222 139.541 202.07 139.836 203.04 139.836V138.768C202.301 138.768 201.712 138.55 201.235 138.132L200.531 138.934ZM203.04 139.836C204.009 139.836 204.857 139.541 205.548 138.934L204.844 138.132C204.367 138.55 203.778 138.768 203.04 138.768V139.836ZM205.558 138.925C206.242 138.292 206.605 137.513 206.605 136.612H205.537C205.537 137.192 205.317 137.694 204.833 138.142L205.558 138.925ZM206.605 136.612V131.702H205.537V136.612H206.605ZM206.605 131.702C206.605 130.789 206.243 130.011 205.548 129.401L204.844 130.203C205.316 130.618 205.537 131.106 205.537 131.702H206.605ZM205.558 129.41C204.878 128.781 204.025 128.478 203.04 128.478V129.546C203.791 129.546 204.375 129.77 204.833 130.194L205.558 129.41ZM203.04 128.478C202.054 128.478 201.201 128.781 200.521 129.41L201.246 130.194C201.704 129.77 202.288 129.546 203.04 129.546V128.478ZM200.526 129.405C199.847 130.017 199.496 130.794 199.496 131.702H200.563C200.563 131.102 200.782 130.612 201.24 130.199L200.526 129.405ZM219.92 130.08H220.454V129.219L219.683 129.601L219.92 130.08ZM217.337 131.36L216.855 131.589L217.088 132.08L217.574 131.839L217.337 131.36ZM216.184 128.927L215.948 128.449L215.478 128.681L215.702 129.155L216.184 128.927ZM220.71 126.685V126.152H220.585L220.473 126.207L220.71 126.685ZM222.696 126.685H223.229V126.152H222.696V126.685ZM222.696 141.629V142.163H223.229V141.629H222.696ZM219.92 141.629H219.387V142.163H219.92V141.629ZM219.683 129.601L217.1 130.882L217.574 131.839L220.157 130.558L219.683 129.601ZM217.82 131.132L216.667 128.698L215.702 129.155L216.855 131.589L217.82 131.132ZM216.421 129.405L220.947 127.163L220.473 126.207L215.948 128.449L216.421 129.405ZM220.71 127.219H222.696V126.152H220.71V127.219ZM222.162 126.685V141.629H223.229V126.685H222.162ZM222.696 141.095H219.92V142.163H222.696V141.095ZM220.454 141.629V130.08H219.387V141.629H220.454ZM233.047 127.902L232.685 127.51L232.682 127.512L233.047 127.902ZM241.308 127.902L240.944 128.292L240.946 128.294L241.308 127.902ZM241.308 140.412L240.946 140.02L240.944 140.022L241.308 140.412ZM233.047 140.412L232.682 140.802L232.685 140.804L233.047 140.412ZM235.032 138.533L234.67 138.925L234.68 138.934L235.032 138.533ZM239.344 138.533L239.697 138.934L239.702 138.93L239.707 138.925L239.344 138.533ZM239.344 129.802L238.982 130.194L238.992 130.203L239.344 129.802ZM235.032 129.802L235.389 130.199L235.394 130.194L235.032 129.802ZM231.937 136.569V131.745H230.869V136.569H231.937ZM231.937 131.745C231.937 130.351 232.426 129.213 233.411 128.292L232.682 127.512C231.475 128.641 230.869 130.064 230.869 131.745H231.937ZM233.409 128.294C234.411 127.369 235.658 126.899 237.188 126.899V125.831C235.417 125.831 233.903 126.385 232.685 127.51L233.409 128.294ZM237.188 126.899C238.719 126.899 239.957 127.369 240.944 128.292L241.673 127.512C240.468 126.385 238.96 125.831 237.188 125.831V126.899ZM240.946 128.294C241.945 129.216 242.44 130.354 242.44 131.745H243.507C243.507 130.062 242.892 128.638 241.67 127.51L240.946 128.294ZM242.44 131.745V136.569H243.507V131.745H242.44ZM242.44 136.569C242.44 137.96 241.945 139.098 240.946 140.02L241.67 140.804C242.892 139.677 243.507 138.252 243.507 136.569H242.44ZM240.944 140.022C239.957 140.945 238.719 141.415 237.188 141.415V142.483C238.96 142.483 240.468 141.929 241.673 140.802L240.944 140.022ZM237.188 141.415C235.658 141.415 234.411 140.945 233.409 140.02L232.685 140.804C233.903 141.929 235.417 142.483 237.188 142.483V141.415ZM233.411 140.022C232.426 139.101 231.937 137.963 231.937 136.569H230.869C230.869 138.25 231.475 139.673 232.682 140.802L233.411 140.022ZM233.644 131.702V136.612H234.712V131.702H233.644ZM233.644 136.612C233.644 137.52 233.995 138.301 234.67 138.925L235.394 138.142C234.931 137.713 234.712 137.213 234.712 136.612H233.644ZM234.68 138.934C235.371 139.541 236.219 139.836 237.188 139.836V138.768C236.45 138.768 235.86 138.55 235.384 138.132L234.68 138.934ZM237.188 139.836C238.158 139.836 239.006 139.541 239.697 138.934L238.992 138.132C238.516 138.55 237.926 138.768 237.188 138.768V139.836ZM239.707 138.925C240.39 138.292 240.753 137.513 240.753 136.612H239.686C239.686 137.192 239.465 137.694 238.982 138.142L239.707 138.925ZM240.753 136.612V131.702H239.686V136.612H240.753ZM240.753 131.702C240.753 130.789 240.392 130.011 239.697 129.401L238.992 130.203C239.464 130.618 239.686 131.106 239.686 131.702H240.753ZM239.707 129.41C239.027 128.781 238.173 128.478 237.188 128.478V129.546C237.939 129.546 238.523 129.77 238.982 130.194L239.707 129.41ZM237.188 128.478C236.203 128.478 235.35 128.781 234.67 129.41L235.394 130.194C235.853 129.77 236.437 129.546 237.188 129.546V128.478ZM234.675 129.405C233.995 130.017 233.644 130.794 233.644 131.702H234.712C234.712 131.102 234.93 130.612 235.389 130.199L234.675 129.405Z" fill="black"/>
</svg>
