<svg width="342" height="180" viewBox="0 0 342 180" fill="none" xmlns="http://www.w3.org/2000/svg">
<rect width="341" height="180" transform="translate(0.363281)" fill="#F5F5F5"/>
<ellipse cx="240.386" cy="111.554" rx="64.6151" ry="25.0044" transform="rotate(-45 240.386 111.554)" fill="#6A41C4"/>
<ellipse cx="228.429" cy="99.6707" rx="64.6151" ry="25.0044" transform="rotate(-45 228.429 99.6707)" fill="#8052E4"/>
<path d="M204.86 92.3826L156.71 44.2331M156.71 44.2331L157.393 46.1887M156.71 44.2331L158.666 44.9157" stroke="black"/>
<path d="M215.434 81.808L148.157 14.5306M148.157 14.5306L149.34 17.0334M148.157 14.5306L150.66 15.7142" stroke="black"/>
<path d="M194.329 102.913L163.988 72.5727M163.988 72.5727L164.16 74.0635M163.988 72.5727L165.479 72.7443" stroke="black"/>
<path d="M225.989 71.2533L204.223 49.4871M204.223 49.4871L204.159 50.743M204.223 49.4871L205.479 49.4238" stroke="black"/>
<ellipse cx="215.843" cy="90.2606" rx="64.6151" ry="25.0044" transform="rotate(-45 215.843 90.2606)" fill="#AB85FF"/>
<path d="M89.2752 28.5703L137.598 103.958H40.9522L89.2752 28.5703Z" fill="#31D67B"/>
<path d="M94.2585 91.4492L94.2585 142.263M94.2585 142.263L94.8568 140.871M94.2585 142.263L93.6602 140.871" stroke="black"/>
<path d="M84.2773 91.4492L84.2773 130.449M84.2773 130.449L84.7773 129.381M84.2773 130.449L83.7773 129.381" stroke="black"/>
<path d="M104.159 91.4492V123.469M104.159 123.469L104.779 122.592M104.159 123.469L103.539 122.592" stroke="black"/>
<path d="M74.3973 91.4492V114.42M74.3973 114.42L75.0173 113.79M74.3973 114.42L73.7773 113.79" stroke="black"/>
</svg>
