<svg width="342" height="180" viewBox="0 0 342 180" fill="none" xmlns="http://www.w3.org/2000/svg">
<rect width="341" height="180" transform="translate(0.90625)" fill="#F5F5F5"/>
<circle cx="115.822" cy="98.0439" r="58" fill="#A57CFE"/>
<path d="M63.4242 123.032L129.926 92.9227M129.926 92.9227L127.706 92.8685M129.926 92.9227L128.502 94.6267" stroke="black"/>
<path d="M68.2192 131.192L190.29 75.923M190.29 75.923L186.548 76.5581M190.29 75.923L187.344 78.3163" stroke="black"/>
<path d="M72.2192 135.957L162.848 94.9236M162.848 94.9236L159.967 95.1686M162.848 94.9236L160.763 96.9269" stroke="black"/>
<circle cx="235.607" cy="52.4698" r="28.0137" fill="#31D67B" stroke="#31D67B"/>
<mask id="mask0" mask-type="alpha" maskUnits="userSpaceOnUse" x="228" y="49" width="58" height="50">
<path d="M243.547 50.9297L250.527 98.0443" stroke="black" stroke-width="1.25441"/>
<path d="M247.473 50.9297L254.453 98.0443" stroke="black" stroke-width="1.25441"/>
<path d="M251.836 50.9297L258.816 98.0443" stroke="black" stroke-width="1.25441"/>
<path d="M256.197 50.9297L263.177 98.0443" stroke="black" stroke-width="1.25441"/>
<path d="M260.561 50.0566L267.54 97.1712" stroke="black" stroke-width="1.25441"/>
<path d="M264.922 50.0566L271.902 97.1712" stroke="black" stroke-width="1.25441"/>
<path d="M269.285 50.0566L276.265 97.1712" stroke="black" stroke-width="1.25441"/>
<path d="M273.648 50.0566L280.628 97.1712" stroke="black" stroke-width="1.25441"/>
<path d="M278.01 50.0566L284.99 97.1712" stroke="black" stroke-width="1.25441"/>
<path d="M238.748 50.9297L245.728 98.0443" stroke="black" stroke-width="1.25441"/>
<path d="M233.514 50.9297L240.494 98.0443" stroke="black" stroke-width="1.25441"/>
<path d="M229.15 50.9297L236.13 98.0443" stroke="black" stroke-width="1.25441"/>
</mask>
<g mask="url(#mask0)">
<path d="M254.889 98.0439L228.821 52.8925H280.957L254.889 98.0439Z" fill="black"/>
</g>
</svg>
