<svg width="342" height="180" viewBox="0 0 342 180" fill="none" xmlns="http://www.w3.org/2000/svg">
<rect width="341" height="180" transform="translate(0.907227)" fill="#F5F5F5"/>
<path d="M69.9419 42.447C55.0124 43.5529 26.4804 55.3859 25.1533 87.2356C25.1533 127.048 55.5653 137.554 70.4949 137.554C92.0598 137.554 181.637 137.554 232.508 137.554" stroke="black"/>
<path d="M69.7168 42.4463H149.566" stroke="black"/>
<path d="M272.873 137.553C287.803 136.447 316.335 124.614 317.662 92.7644C317.662 52.9523 287.25 42.4463 272.321 42.4463C250.756 42.4463 161.178 42.4463 110.307 42.4463" stroke="black"/>
<path d="M273.1 137.553H193.25" stroke="black"/>
<path d="M218.939 137.553L247.887 120.84V154.266L218.939 137.553Z" fill="#31D67B"/>
<path d="M237.252 137.553L266.2 120.84V154.266L237.252 137.553Z" fill="#31D67B"/>
<path d="M256.551 137.553L285.499 120.84V154.266L256.551 137.553Z" fill="#31D67B"/>
<path d="M128.83 42.4461L99.8821 59.1592V25.733L128.83 42.4461Z" fill="#AB85FF"/>
<path d="M110.232 42.4461L81.2845 59.1592V25.733L110.232 42.4461Z" fill="#AB85FF"/>
<path d="M91.6357 42.4471L62.6878 59.1602V25.734L91.6357 42.4471Z" fill="#AB85FF"/>
<path d="M188.656 42.999V136.999M188.656 42.999V136.999" stroke="black"/>
<path d="M184.156 42.4463V137.553M184.156 42.4463V137.553" stroke="black"/>
<path d="M179.156 42.4463V137.553M179.156 42.4463V137.553" stroke="black"/>
<path d="M174.156 42.4463V137.553M174.156 42.4463V137.553" stroke="black"/>
<path d="M169.156 42.4463V137.553M169.156 42.4463V137.553" stroke="black"/>
<path d="M164.156 42.4463V137.553M164.156 42.4463V137.553" stroke="black"/>
<path d="M159.156 42.4463V137.553M159.156 42.4463V137.553" stroke="black"/>
<path d="M154.156 42.4463V137.553M154.156 42.4463V137.553" stroke="black"/>
<circle cx="154.988" cy="95.8176" r="16.3527" fill="#4AE991"/>
<circle cx="192.083" cy="79.9253" r="12.0952" fill="#8052E4"/>
</svg>
