<svg width="342" height="180" viewBox="0 0 342 180" fill="none" xmlns="http://www.w3.org/2000/svg">
<rect width="341" height="180" transform="translate(0.90625)" fill="#F5F5F5"/>
<path d="M129.377 64.2794C130.737 56.9406 141.252 56.9406 142.613 64.2794C143.586 69.529 149.991 71.6101 153.864 67.9351C159.278 62.7976 167.785 68.9784 164.572 75.7152C162.274 80.5342 166.233 85.9827 171.526 85.286C178.926 84.3121 182.175 94.3129 175.616 97.8745C170.924 100.422 170.924 107.157 175.616 109.705C182.175 113.266 178.926 123.267 171.526 122.293C166.233 121.596 162.274 127.045 164.572 131.864C167.785 138.601 159.278 144.782 153.864 139.644C149.991 135.969 143.586 138.05 142.613 143.3C141.252 150.639 130.737 150.639 129.377 143.3C128.403 138.05 121.998 135.969 118.125 139.644C112.711 144.782 104.204 138.601 107.417 131.864C109.715 127.045 105.757 121.596 100.463 122.293C93.0634 123.267 89.8139 113.266 96.3731 109.705C101.065 107.157 101.065 100.422 96.3731 97.8745C89.8139 94.3129 93.0634 84.3121 100.463 85.286C105.757 85.9827 109.715 80.5342 107.417 75.7152C104.204 68.9784 112.711 62.7976 118.125 67.9351C121.998 71.6101 128.403 69.529 129.377 64.2794Z" fill="#31D67B"/>
<path d="M227.242 71.6436L152.263 111.511" stroke="black"/>
<path d="M222.125 69.4922L147.146 109.359" stroke="black"/>
<path d="M216.438 67.1006L141.458 106.968" stroke="black"/>
<path d="M210.752 64.71L135.773 104.577" stroke="black"/>
<path d="M205.066 62.3193L130.087 102.186" stroke="black"/>
<path d="M199.379 59.9287L124.4 99.7958" stroke="black"/>
<path d="M212.043 37.5013C212.947 32.627 219.931 32.627 220.834 37.5013C221.481 40.988 225.735 42.3702 228.307 39.9293C231.903 36.5171 237.554 40.6223 235.42 45.0968C233.893 48.2975 236.522 51.9163 240.038 51.4536C244.953 50.8067 247.111 57.449 242.755 59.8146C239.638 61.5068 239.638 65.9799 242.755 67.6721C247.111 70.0376 244.953 76.68 240.038 76.0331C236.522 75.5704 233.893 79.1892 235.42 82.3899C237.554 86.8644 231.903 90.9696 228.307 87.5573C225.735 85.1164 221.481 86.4987 220.834 89.9854C219.931 94.8597 212.947 94.8597 212.043 89.9854C211.397 86.4987 207.142 85.1164 204.57 87.5573C200.974 90.9696 195.324 86.8644 197.458 82.3899C198.984 79.1892 196.355 75.5704 192.839 76.0331C187.924 76.68 185.766 70.0376 190.123 67.6721C193.239 65.9799 193.239 61.5068 190.123 59.8146C185.766 57.449 187.924 50.8067 192.839 51.4536C196.355 51.9163 198.984 48.2975 197.458 45.0968C195.324 40.6223 200.974 36.5171 204.57 39.9293C207.142 42.3702 211.397 40.988 212.043 37.5013Z" fill="#A57CFE"/>
<circle cx="266.393" cy="42.4462" r="7.89538" stroke="black"/>
<circle cx="286.074" cy="50.8417" r="4.16197" stroke="black"/>
<circle cx="295.399" cy="41.4579" r="1.83091" stroke="black"/>
<path d="M87.5332 109.787L71.3196 119.148V100.426L87.5332 109.787Z" fill="#D4D4D4"/>
<path d="M66.7012 109.787L50.4876 119.148V100.426L66.7012 109.787Z" fill="#D4D4D4"/>
<path d="M77.1172 109.787L60.9036 119.148V100.426L77.1172 109.787Z" fill="#D4D4D4"/>
</svg>
