<svg width="342" height="180" viewBox="0 0 342 180" fill="none" xmlns="http://www.w3.org/2000/svg">
<rect width="341" height="180" transform="translate(0.907227)" fill="#F5F5F5"/>
<path d="M258.486 124.228C275.716 123.228 308.644 112.528 310.176 83.7276C310.176 47.7276 275.078 38.2276 257.848 38.2276C232.96 38.2276 129.581 38.2275 70.8717 38.2275" stroke="black"/>
<path d="M258.746 124.228H166.593" stroke="black"/>
<path d="M182.454 81.2275L236.111 141.773H82.5766L32.638 81.2275H182.454Z" fill="#31D67B"/>
<mask id="mask0" mask-type="alpha" maskUnits="userSpaceOnUse" x="32" y="81" width="205" height="61">
<path d="M182.454 81.2275L236.111 141.773H82.5766L32.638 81.2275H182.454Z" fill="#31D67B"/>
</mask>
<g mask="url(#mask0)">
<path d="M-92.8369 83.3902C5.11667 44.5197 75.0835 44.5197 117.064 83.3902C159.044 122.261 229.011 122.261 326.964 83.3902" stroke="#4AE991" stroke-width="2"/>
<path d="M-80.5655 157.831C-5.47316 99.3607 60.8678 83.9223 118.457 111.515C176.047 139.108 242.388 123.67 317.48 65.2001" stroke="#4AE991" stroke-width="2"/>
<path d="M-88.695 132.13C13.3537 98.7245 83.1043 102.542 120.557 143.583C158.009 184.624 227.76 188.442 329.808 155.036" stroke="#4AE991" stroke-width="2"/>
</g>
<path d="M138.872 38.2275L95.3721 86.7275" stroke="black"/>
<path d="M134.372 38.2275L90.8721 86.7275" stroke="black"/>
<path d="M129.372 38.2275L85.8721 86.7275" stroke="black"/>
<path d="M124.372 38.2275L80.8721 86.7275" stroke="black"/>
<path d="M119.372 38.2275L75.8721 86.7275" stroke="black"/>
<path d="M114.372 38.2275L70.8721 86.7275" stroke="black"/>
<path d="M155.86 87.388V80.608C155.86 78.448 156.63 76.648 158.17 75.208C159.73 73.768 161.67 73.048 163.99 73.048C166.31 73.048 168.24 73.768 169.78 75.208C171.34 76.648 172.12 78.448 172.12 80.608V87.388C172.12 89.548 171.34 91.348 169.78 92.788C168.24 94.228 166.31 94.948 163.99 94.948C161.67 94.948 159.73 94.228 158.17 92.788C156.63 91.348 155.86 89.548 155.86 87.388ZM159.76 80.548V87.448C159.76 88.508 160.16 89.408 160.96 90.148C161.78 90.868 162.79 91.228 163.99 91.228C165.19 91.228 166.2 90.868 167.02 90.148C167.84 89.388 168.25 88.488 168.25 87.448V80.548C168.25 79.488 167.84 78.598 167.02 77.878C166.22 77.138 165.21 76.768 163.99 76.768C162.77 76.768 161.76 77.138 160.96 77.878C160.16 78.598 159.76 79.488 159.76 80.548ZM185.978 78.268L182.348 80.068L180.728 76.648L187.088 73.498H189.878V94.498H185.978V78.268ZM210.97 79.618C210.97 78.838 210.63 78.168 209.95 77.608C209.31 77.048 208.52 76.768 207.58 76.768C206.68 76.768 205.87 77.048 205.15 77.608C204.45 78.148 203.92 78.888 203.56 79.828L199.96 78.118C200.64 76.558 201.66 75.328 203.02 74.428C204.38 73.508 205.9 73.048 207.58 73.048C209.68 73.048 211.43 73.678 212.83 74.938C214.27 76.198 214.99 77.718 214.99 79.498C214.99 80.578 214.63 81.708 213.91 82.888C213.19 84.048 212.05 85.378 210.49 86.878L206.38 90.778H215.17V94.498H200.38V91.588L208.09 84.238C210.01 82.378 210.97 80.838 210.97 79.618ZM234.342 79.348C234.342 78.628 234.002 78.018 233.322 77.518C232.642 77.018 231.772 76.768 230.712 76.768C229.852 76.768 229.092 76.948 228.432 77.308C227.792 77.648 227.322 78.098 227.022 78.658L223.482 76.978C224.102 75.778 225.062 74.828 226.362 74.128C227.662 73.408 229.122 73.048 230.742 73.048C232.922 73.048 234.742 73.638 236.202 74.818C237.642 75.978 238.362 77.448 238.362 79.228C238.362 80.968 237.612 82.428 236.112 83.608C237.972 84.808 238.902 86.438 238.902 88.498C238.902 90.358 238.142 91.898 236.622 93.118C235.102 94.338 233.212 94.948 230.952 94.948C229.092 94.948 227.462 94.518 226.062 93.658C224.662 92.778 223.712 91.638 223.212 90.238L226.962 88.918C227.182 89.598 227.652 90.158 228.372 90.598C229.092 91.018 229.942 91.228 230.922 91.228C232.042 91.228 232.982 90.958 233.742 90.418C234.502 89.858 234.882 89.158 234.882 88.318C234.882 87.518 234.502 86.858 233.742 86.338C233.002 85.798 232.092 85.528 231.012 85.528H229.422V82.018H230.502C231.582 82.018 232.492 81.768 233.232 81.268C233.972 80.768 234.342 80.128 234.342 79.348ZM257.98 94.498V90.478H247.09V86.758L258.16 73.498H261.85V86.758H264.52V90.478H261.85V94.498H257.98ZM257.98 79.288L251.74 86.758H257.98V79.288ZM288.297 87.808C288.297 89.828 287.527 91.528 285.987 92.908C284.447 94.268 282.537 94.948 280.257 94.948C278.417 94.948 276.797 94.468 275.397 93.508C273.997 92.528 272.997 91.218 272.397 89.578L276.267 88.528C276.607 89.368 277.137 90.028 277.857 90.508C278.577 90.988 279.387 91.228 280.287 91.228C281.427 91.228 282.367 90.898 283.107 90.238C283.887 89.578 284.277 88.768 284.277 87.808C284.277 86.768 283.847 85.908 282.987 85.228C282.167 84.548 281.117 84.208 279.837 84.208H273.987L275.067 73.498H286.497V77.068H278.277L277.947 80.668H280.047C282.387 80.668 284.347 81.348 285.927 82.708C287.507 84.048 288.297 85.748 288.297 87.808Z" fill="#AB85FF"/>
<path d="M158.17 75.208L157.492 74.4732L157.487 74.4776L158.17 75.208ZM169.78 75.208L169.097 75.9385L169.102 75.9429L169.78 75.208ZM169.78 92.788L169.102 92.0532L169.097 92.0576L169.78 92.788ZM158.17 92.788L157.487 93.5185L157.492 93.5229L158.17 92.788ZM160.96 90.148L160.281 90.8821L160.291 90.8909L160.301 90.8995L160.96 90.148ZM167.02 90.148L167.68 90.8995L167.69 90.8906L167.7 90.8815L167.02 90.148ZM167.02 77.878L166.341 78.6121L166.351 78.6209L166.361 78.6295L167.02 77.878ZM160.96 77.878L161.629 78.6214L161.639 78.6121L160.96 77.878ZM156.86 87.388V80.608H154.86V87.388H156.86ZM156.86 80.608C156.86 78.7172 157.521 77.1842 158.853 75.9385L157.487 74.4776C155.74 76.1119 154.86 78.1789 154.86 80.608H156.86ZM158.849 75.9429C160.206 74.6898 161.896 74.048 163.99 74.048V72.048C161.444 72.048 159.255 72.8463 157.492 74.4732L158.849 75.9429ZM163.99 74.048C166.084 74.048 167.762 74.6897 169.097 75.9385L170.463 74.4776C168.719 72.8464 166.536 72.048 163.99 72.048V74.048ZM169.102 75.9429C170.453 77.1898 171.12 78.7216 171.12 80.608H173.12C173.12 78.1745 172.228 76.1063 170.459 74.4732L169.102 75.9429ZM171.12 80.608V87.388H173.12V80.608H171.12ZM171.12 87.388C171.12 89.2745 170.453 90.8063 169.102 92.0532L170.459 93.5229C172.228 91.8898 173.12 89.8216 173.12 87.388H171.12ZM169.097 92.0576C167.762 93.3064 166.084 93.948 163.99 93.948V95.948C166.536 95.948 168.719 95.1497 170.463 93.5185L169.097 92.0576ZM163.99 93.948C161.896 93.948 160.206 93.3063 158.849 92.0532L157.492 93.5229C159.255 95.1498 161.444 95.948 163.99 95.948V93.948ZM158.853 92.0576C157.521 90.8119 156.86 89.2789 156.86 87.388H154.86C154.86 89.8172 155.74 91.8842 157.487 93.5185L158.853 92.0576ZM158.76 80.548V87.448H160.76V80.548H158.76ZM158.76 87.448C158.76 88.7955 159.283 89.9589 160.281 90.8821L161.639 89.4139C161.037 88.8572 160.76 88.2206 160.76 87.448H158.76ZM160.301 90.8995C161.322 91.7961 162.574 92.228 163.99 92.228V90.228C163.007 90.228 162.239 89.94 161.62 89.3966L160.301 90.8995ZM163.99 92.228C165.407 92.228 166.659 91.7961 167.68 90.8995L166.361 89.3966C165.742 89.94 164.974 90.228 163.99 90.228V92.228ZM167.7 90.8815C168.707 89.9481 169.25 88.789 169.25 87.448H167.25C167.25 88.1871 166.974 88.828 166.341 89.4146L167.7 90.8815ZM169.25 87.448V80.548H167.25V87.448H169.25ZM169.25 80.548C169.25 79.1907 168.709 78.0301 167.68 77.1266L166.361 78.6295C166.972 79.166 167.25 79.7854 167.25 80.548H169.25ZM167.699 77.1439C166.692 76.2121 165.43 75.768 163.99 75.768V77.768C164.991 77.768 165.749 78.064 166.341 78.6121L167.699 77.1439ZM163.99 75.768C162.551 75.768 161.289 76.2121 160.281 77.1439L161.639 78.6121C162.232 78.064 162.99 77.768 163.99 77.768V75.768ZM160.291 77.1348C159.284 78.0411 158.76 79.1996 158.76 80.548H160.76C160.76 79.7765 161.036 79.155 161.629 78.6213L160.291 77.1348ZM185.978 78.268H186.978V76.656L185.534 77.3721L185.978 78.268ZM182.348 80.068L181.444 80.4961L181.88 81.4163L182.792 80.9639L182.348 80.068ZM180.728 76.648L180.284 75.7519L179.404 76.1881L179.824 77.0761L180.728 76.648ZM187.088 73.498V72.498H186.854L186.644 72.6019L187.088 73.498ZM189.878 73.498H190.878V72.498H189.878V73.498ZM189.878 94.498V95.498H190.878V94.498H189.878ZM185.978 94.498H184.978V95.498H185.978V94.498ZM185.534 77.3721L181.904 79.1721L182.792 80.9639L186.422 79.1639L185.534 77.3721ZM183.252 79.64L181.632 76.22L179.824 77.0761L181.444 80.4961L183.252 79.64ZM181.172 77.5442L187.532 74.3942L186.644 72.6019L180.284 75.7519L181.172 77.5442ZM187.088 74.498H189.878V72.498H187.088V74.498ZM188.878 73.498V94.498H190.878V73.498H188.878ZM189.878 93.498H185.978V95.498H189.878V93.498ZM186.978 94.498V78.268H184.978V94.498H186.978ZM209.95 77.608L209.291 78.3606L209.303 78.3705L209.314 78.38L209.95 77.608ZM205.15 77.608L205.761 78.3998L205.764 78.3974L205.15 77.608ZM203.56 79.828L203.131 80.7313L204.107 81.1951L204.494 80.1857L203.56 79.828ZM199.96 78.118L199.043 77.7185L198.656 78.6059L199.531 79.0213L199.96 78.118ZM203.02 74.428L203.572 75.262L203.58 75.2563L203.02 74.428ZM212.83 74.938L212.161 75.6814L212.171 75.6906L212.83 74.938ZM213.91 82.888L214.76 83.4154L214.763 83.4089L213.91 82.888ZM210.49 86.878L211.178 87.6035L211.183 87.5989L210.49 86.878ZM206.38 90.778L205.692 90.0527L203.873 91.778H206.38V90.778ZM215.17 90.778H216.17V89.778H215.17V90.778ZM215.17 94.498V95.498H216.17V94.498H215.17ZM200.38 94.498H199.38V95.498H200.38V94.498ZM200.38 91.588L199.69 90.8642L199.38 91.1598V91.588H200.38ZM208.09 84.238L208.78 84.9619L208.786 84.9563L208.09 84.238ZM211.97 79.618C211.97 78.4983 211.463 77.5584 210.586 76.8361L209.314 78.38C209.797 78.7777 209.97 79.1778 209.97 79.618H211.97ZM210.608 76.8555C209.766 76.1188 208.735 75.768 207.58 75.768V77.768C208.305 77.768 208.853 77.9773 209.291 78.3606L210.608 76.8555ZM207.58 75.768C206.454 75.768 205.429 76.1242 204.536 76.8187L205.764 78.3974C206.311 77.9719 206.905 77.768 207.58 77.768V75.768ZM204.539 76.8163C203.674 77.4834 203.042 78.3831 202.626 79.4704L204.494 80.1857C204.797 79.393 205.226 78.8127 205.761 78.3998L204.539 76.8163ZM203.989 78.9248L200.389 77.2148L199.531 79.0213L203.131 80.7313L203.989 78.9248ZM200.877 78.5176C201.483 77.1265 202.38 76.0507 203.572 75.262L202.468 73.5941C200.94 74.6054 199.797 75.9896 199.043 77.7185L200.877 78.5176ZM203.58 75.2563C204.771 74.451 206.095 74.048 207.58 74.048V72.048C205.705 72.048 203.989 72.5651 202.46 73.5998L203.58 75.2563ZM207.58 74.048C209.463 74.048 210.966 74.606 212.161 75.6813L213.499 74.1948C211.894 72.7501 209.896 72.048 207.58 72.048V74.048ZM212.171 75.6906C213.413 76.7768 213.99 78.03 213.99 79.498H215.99C215.99 77.4061 215.127 75.6193 213.488 74.1855L212.171 75.6906ZM213.99 79.498C213.99 80.3495 213.707 81.3008 213.056 82.3672L214.763 83.4089C215.553 82.1153 215.99 80.8066 215.99 79.498H213.99ZM213.06 82.3607C212.402 83.4212 211.327 84.6855 209.797 86.1572L211.183 87.5989C212.772 86.0706 213.978 84.6749 214.759 83.4154L213.06 82.3607ZM209.802 86.1527L205.692 90.0527L207.068 91.5034L211.178 87.6034L209.802 86.1527ZM206.38 91.778H215.17V89.778H206.38V91.778ZM214.17 90.778V94.498H216.17V90.778H214.17ZM215.17 93.498H200.38V95.498H215.17V93.498ZM201.38 94.498V91.588H199.38V94.498H201.38ZM201.07 92.3118L208.78 84.9618L207.4 83.5142L199.69 90.8642L201.07 92.3118ZM208.786 84.9563C209.779 83.9937 210.56 83.0803 211.098 82.2171C211.632 81.3607 211.97 80.4851 211.97 79.618H209.97C209.97 79.971 209.827 80.4754 209.401 81.159C208.979 81.8358 208.32 82.6224 207.394 83.5198L208.786 84.9563ZM233.322 77.518L233.915 76.7124V76.7124L233.322 77.518ZM228.432 77.308L228.901 78.1912L228.911 78.1859L228.432 77.308ZM227.022 78.658L226.593 79.5615L227.454 79.9698L227.904 79.1303L227.022 78.658ZM223.482 76.978L222.594 76.519L222.119 77.438L223.053 77.8815L223.482 76.978ZM226.362 74.128L226.836 75.0086L226.847 75.0028L226.362 74.128ZM236.202 74.818L235.574 75.5958L235.575 75.5968L236.202 74.818ZM236.112 83.608L235.494 82.8221L234.392 83.6886L235.57 84.4483L236.112 83.608ZM236.622 93.118L235.996 92.3382L236.622 93.118ZM226.062 93.658L225.53 94.5047L225.539 94.5101L226.062 93.658ZM223.212 90.238L222.88 89.2948L221.933 89.6283L222.27 90.5744L223.212 90.238ZM226.962 88.918L227.914 88.6102L227.598 87.6342L226.63 87.9748L226.962 88.918ZM228.372 90.598L227.851 91.4513L227.859 91.4567L227.868 91.4618L228.372 90.598ZM233.742 90.418L234.321 91.2332L234.328 91.2282L234.335 91.2231L233.742 90.418ZM233.742 86.338L233.153 87.1458L233.165 87.1548L233.178 87.1634L233.742 86.338ZM229.422 85.528H228.422V86.528H229.422V85.528ZM229.422 82.018V81.018H228.422V82.018H229.422ZM235.342 79.348C235.342 78.2524 234.801 77.3639 233.915 76.7124L232.73 78.3237C233.204 78.6722 233.342 79.0037 233.342 79.348H235.342ZM233.915 76.7124C233.023 76.057 231.93 75.768 230.712 75.768V77.768C231.614 77.768 232.261 77.9791 232.73 78.3237L233.915 76.7124ZM230.712 75.768C229.709 75.768 228.78 75.9791 227.953 76.4302L228.911 78.1859C229.404 77.917 229.995 77.768 230.712 77.768V75.768ZM227.963 76.4249C227.173 76.8445 226.547 77.4272 226.141 78.1858L227.904 79.1303C228.097 78.7688 228.411 78.4516 228.901 78.1912L227.963 76.4249ZM227.451 77.7546L223.911 76.0746L223.053 77.8815L226.593 79.5615L227.451 77.7546ZM224.371 77.4371C224.89 76.4328 225.696 75.6223 226.836 75.0085L225.888 73.2476C224.428 74.0338 223.315 75.1233 222.594 76.519L224.371 77.4371ZM226.847 75.0028C227.985 74.3722 229.276 74.048 230.742 74.048V72.048C228.968 72.048 227.339 72.4439 225.878 73.2533L226.847 75.0028ZM230.742 74.048C232.732 74.048 234.319 74.5822 235.574 75.5958L236.831 74.0403C235.165 72.6939 233.112 72.048 230.742 72.048V74.048ZM235.575 75.5968C236.79 76.5755 237.362 77.764 237.362 79.228H239.362C239.362 77.1321 238.495 75.3806 236.83 74.0393L235.575 75.5968ZM237.362 79.228C237.362 80.6289 236.78 81.8107 235.494 82.8221L236.73 84.394C238.445 83.0454 239.362 81.3072 239.362 79.228H237.362ZM235.57 84.4483C237.17 85.4806 237.902 86.8069 237.902 88.498H239.902C239.902 86.0692 238.774 84.1355 236.654 82.7677L235.57 84.4483ZM237.902 88.498C237.902 90.0384 237.293 91.2975 235.996 92.3382L237.248 93.8979C238.992 92.4986 239.902 90.6777 239.902 88.498H237.902ZM235.996 92.3382C234.681 93.3936 233.023 93.948 230.952 93.948V95.948C233.402 95.948 235.523 95.2825 237.248 93.8979L235.996 92.3382ZM230.952 93.948C229.252 93.948 227.808 93.5569 226.586 92.806L225.539 94.5101C227.116 95.4791 228.932 95.948 230.952 95.948V93.948ZM226.594 92.8114C225.362 92.0366 224.57 91.0667 224.154 89.9017L222.27 90.5744C222.854 92.2094 223.963 93.5195 225.53 94.5047L226.594 92.8114ZM223.544 91.1813L227.294 89.8613L226.63 87.9748L222.88 89.2948L223.544 91.1813ZM226.011 89.2259C226.317 90.173 226.966 90.9104 227.851 91.4513L228.894 89.7448C228.339 89.4057 228.047 89.0231 227.914 88.6102L226.011 89.2259ZM227.868 91.4618C228.766 91.9856 229.797 92.228 230.922 92.228V90.228C230.088 90.228 229.418 90.0505 228.876 89.7343L227.868 91.4618ZM230.922 92.228C232.207 92.228 233.36 91.916 234.321 91.2332L233.163 89.6029C232.604 90.0001 231.877 90.228 230.922 90.228V92.228ZM234.335 91.2231C235.315 90.5015 235.882 89.5185 235.882 88.318H233.882C233.882 88.7976 233.69 89.2146 233.149 89.613L234.335 91.2231ZM235.882 88.318C235.882 87.1341 235.292 86.1865 234.307 85.5127L233.178 87.1634C233.713 87.5296 233.882 87.902 233.882 88.318H235.882ZM234.332 85.5303C233.391 84.8441 232.265 84.528 231.012 84.528V86.528C231.919 86.528 232.613 86.752 233.153 87.1458L234.332 85.5303ZM231.012 84.528H229.422V86.528H231.012V84.528ZM230.422 85.528V82.018H228.422V85.528H230.422ZM229.422 83.018H230.502V81.018H229.422V83.018ZM230.502 83.018C231.739 83.018 232.855 82.7299 233.792 82.0966L232.672 80.4395C232.13 80.8062 231.425 81.018 230.502 81.018V83.018ZM233.792 82.0966C234.761 81.442 235.342 80.5125 235.342 79.348H233.342C233.342 79.7436 233.184 80.0941 232.672 80.4395L233.792 82.0966ZM257.98 94.498H256.98V95.498H257.98V94.498ZM257.98 90.478H258.98V89.478H257.98V90.478ZM247.09 90.478H246.09V91.478H247.09V90.478ZM247.09 86.758L246.323 86.1172L246.09 86.3955V86.758H247.09ZM258.16 73.498V72.498H257.692L257.393 72.8572L258.16 73.498ZM261.85 73.498H262.85V72.498H261.85V73.498ZM261.85 86.758H260.85V87.758H261.85V86.758ZM264.52 86.758H265.52V85.758H264.52V86.758ZM264.52 90.478V91.478H265.52V90.478H264.52ZM261.85 90.478V89.478H260.85V90.478H261.85ZM261.85 94.498V95.498H262.85V94.498H261.85ZM257.98 79.288H258.98V76.5311L257.213 78.647L257.98 79.288ZM251.74 86.758L250.973 86.117L249.602 87.758H251.74V86.758ZM257.98 86.758V87.758H258.98V86.758H257.98ZM258.98 94.498V90.478H256.98V94.498H258.98ZM257.98 89.478H247.09V91.478H257.98V89.478ZM248.09 90.478V86.758H246.09V90.478H248.09ZM247.858 87.3989L258.928 74.1389L257.393 72.8572L246.323 86.1172L247.858 87.3989ZM258.16 74.498H261.85V72.498H258.16V74.498ZM260.85 73.498V86.758H262.85V73.498H260.85ZM261.85 87.758H264.52V85.758H261.85V87.758ZM263.52 86.758V90.478H265.52V86.758H263.52ZM264.52 89.478H261.85V91.478H264.52V89.478ZM260.85 90.478V94.498H262.85V90.478H260.85ZM261.85 93.498H257.98V95.498H261.85V93.498ZM257.213 78.647L250.973 86.117L252.508 87.3991L258.748 79.9291L257.213 78.647ZM251.74 87.758H257.98V85.758H251.74V87.758ZM258.98 86.758V79.288H256.98V86.758H258.98ZM285.987 92.908L286.649 93.6576L286.654 93.6528L285.987 92.908ZM275.397 93.508L274.823 94.3273L274.831 94.3328L275.397 93.508ZM272.397 89.578L272.135 88.6129L271.083 88.8983L271.458 89.9216L272.397 89.578ZM276.267 88.528L277.194 88.1529L276.861 87.3307L276.005 87.5629L276.267 88.528ZM277.857 90.508L277.302 91.3401L277.857 90.508ZM283.107 90.238L282.461 89.4747L282.451 89.4831L282.441 89.4918L283.107 90.238ZM282.987 85.228L282.349 85.9978L282.358 86.0052L282.367 86.0125L282.987 85.228ZM273.987 84.208L272.992 84.1077L272.881 85.208H273.987V84.208ZM275.067 73.498V72.498H274.163L274.072 73.3977L275.067 73.498ZM286.497 73.498H287.497V72.498H286.497V73.498ZM286.497 77.068V78.068H287.497V77.068H286.497ZM278.277 77.068V76.068H277.364L277.281 76.9768L278.277 77.068ZM277.947 80.668L276.951 80.5768L276.851 81.668H277.947V80.668ZM285.927 82.708L285.275 83.466L285.28 83.4707L285.927 82.708ZM287.297 87.808C287.297 89.5362 286.654 90.9679 285.32 92.1633L286.654 93.6528C288.4 92.0882 289.297 90.1199 289.297 87.808H287.297ZM285.325 92.1585C283.988 93.339 282.322 93.948 280.257 93.948V95.948C282.752 95.948 284.906 95.1971 286.649 93.6576L285.325 92.1585ZM280.257 93.948C278.601 93.948 277.182 93.5195 275.962 92.6833L274.831 94.3328C276.412 95.4166 278.233 95.948 280.257 95.948V93.948ZM275.97 92.6888C274.742 91.8289 273.867 90.6867 273.336 89.2345L271.458 89.9216C272.127 91.7494 273.252 93.2272 274.823 94.3273L275.97 92.6888ZM272.659 90.5432L276.529 89.4932L276.005 87.5629L272.135 88.6129L272.659 90.5432ZM275.34 88.9032C275.752 89.9202 276.407 90.7432 277.302 91.3401L278.412 89.676C277.867 89.3129 277.462 88.8159 277.194 88.1529L275.34 88.9032ZM277.302 91.3401C278.193 91.9342 279.198 92.228 280.287 92.228V90.228C279.576 90.228 278.961 90.0419 278.412 89.676L277.302 91.3401ZM280.287 92.228C281.633 92.228 282.822 91.8321 283.773 90.9843L282.441 89.4918C281.912 89.964 281.221 90.228 280.287 90.228V92.228ZM283.753 91.0014C284.741 90.1654 285.277 89.0831 285.277 87.808H283.277C283.277 88.453 283.033 88.9907 282.461 89.4747L283.753 91.0014ZM285.277 87.808C285.277 86.4436 284.692 85.3014 283.607 84.4436L282.367 86.0125C283.002 86.5147 283.277 87.0925 283.277 87.808H285.277ZM283.625 84.4583C282.591 83.601 281.301 83.208 279.837 83.208V85.208C280.933 85.208 281.742 85.4951 282.349 85.9978L283.625 84.4583ZM279.837 83.208H273.987V85.208H279.837V83.208ZM274.982 84.3084L276.062 73.5984L274.072 73.3977L272.992 84.1077L274.982 84.3084ZM275.067 74.498H286.497V72.498H275.067V74.498ZM285.497 73.498V77.068H287.497V73.498H285.497ZM286.497 76.068H278.277V78.068H286.497V76.068ZM277.281 76.9768L276.951 80.5768L278.943 80.7593L279.273 77.1593L277.281 76.9768ZM277.947 81.668H280.047V79.668H277.947V81.668ZM280.047 81.668C282.179 81.668 283.898 82.2814 285.275 83.4659L286.579 81.9501C284.795 80.4147 282.595 79.668 280.047 79.668V81.668ZM285.28 83.4707C286.638 84.6219 287.297 86.0437 287.297 87.808H289.297C289.297 85.4524 288.376 83.4741 286.574 81.9454L285.28 83.4707Z" fill="black"/>
</svg>
