<svg width="341" height="181" fill="none" xmlns="http://www.w3.org/2000/svg">
  <path d="M162.7 100.3l-44 49.7h126l41-49.7h-123z" fill="#A57CFE"/>
  <path d="M220.4 60l-24.8 28h71l23.2-28h-69.4z" fill="#8052E4"/>
  <g clip-path="url(#clip0)">
    <rect x="51.2" y="150.5" width="119" height="118" rx="59" transform="rotate(-90 51.2 150.5)" fill="#31D67B"/>
    <path d="M110.2 160l1-.2 1-.3 1-.2 1-.2.9-.2 1-.2 1-.3.9-.2 1-.2.9-.2.9-.2 1-.3.8-.2 1-.2.8-.2 1-.2.8-.3.8-.2.9-.2.8-.2.8-.2.8-.3.7-.2.8-.2.7-.2.7-.2.7-.3.7-.2.6-.2.6-.2.6-.2.6-.3.6-.2.5-.2.5-.2.5-.2.4-.3.4-.2.4-.2.4-.2.3-.2.4-.3.2-.2.3-.2.2-.2.2-.2.2-.3.1-.2.2-.2v-.2l.1-.2V147.9l-.2-.2v-.2l-.2-.3-.2-.2-.2-.2-.3-.2-.2-.2-.3-.3-.4-.2-.3-.2-.4-.2-.4-.2-.4-.3-.5-.2-.5-.2-.5-.2-.5-.2-.6-.3-.5-.2-.6-.2-.7-.2-.6-.2-.7-.3-.7-.2-.7-.2-.7-.2-.8-.2-.8-.3-.7-.2-.9-.2-.8-.2-.8-.2-.9-.3-.8-.2-1-.2-.8-.2-1-.2-.8-.3-1-.2-.9-.2-1-.2-.9-.2-1-.3-1-.2-.9-.2-1-.2-1-.2-1-.3-.9-.2-1-.2-1-.2-1-.2-1-.3-.9-.2-1-.2-1-.2-.9-.2-1-.3-1-.2-.8-.2-1-.2-.9-.2-1-.3-.8-.2-.9-.2-.9-.2-.8-.2-.9-.3-.8-.2-.8-.2-.8-.2-.8-.2-.8-.3-.7-.2-.7-.2-.7-.2-.7-.2-.7-.3-.6-.2-.6-.2-.6-.2-.6-.2-.5-.3-.5-.2-.5-.2-.5-.2-.5-.2-.4-.2-.4-.3-.3-.2-.4-.2-.3-.2-.2-.2-.3-.3-.2-.2-.2-.2-.2-.2-.1-.2-.1-.3v-.2l-.1-.2V124.8l.2-.2.1-.2.2-.2.2-.3.2-.2.2-.2.3-.2.3-.2.3-.3.4-.2.4-.2.4-.2.4-.2.5-.3.5-.2.5-.2.5-.2.6-.2.6-.3.6-.2.6-.2.7-.2.7-.2.7-.3.7-.2.7-.2.8-.2.8-.2.8-.3.8-.2.8-.2.8-.2.9-.2.9-.3.8-.2 1-.2.9-.2.9-.2.9-.3 1-.2.9-.2 1-.2.9-.2 1-.3 1-.2 1-.2.9-.2 1-.2 1-.3 1-.2 1-.2.9-.2 1-.2 1-.3 1-.2.9-.2 1-.2.9-.2 1-.3.9-.2 1-.2.8-.2 1-.2.8-.3 1-.2.8-.2.8-.2.9-.2.8-.3.8-.2.8-.2.8-.2.7-.2.8-.2.7-.3.7-.2.7-.2.6-.2.7-.2.6-.3.6-.2.5-.2.6-.2.5-.2.5-.3.4-.2.5-.2.4-.2.3-.2.4-.3.3-.2.3-.2.3-.2.2-.2.2-.3.2-.2.2-.2.1-.2.1-.2v-.3l.1-.2V102l-.1-.3-.1-.2-.2-.2-.1-.2-.2-.2-.3-.3-.2-.2-.3-.2-.3-.2-.3-.2-.4-.3-.4-.2-.4-.2-.5-.2-.4-.2-.5-.3-.6-.2-.5-.2-.6-.2-.6-.2-.6-.3-.6-.2-.7-.2-.7-.2-.7-.2-.7-.3-.8-.2-.7-.2-.8-.2-.8-.2-.8-.3-.8-.2-.9-.2-.9-.2-.8-.2-1-.3-.8-.2-1-.2-.9-.2-.9-.2-1-.3-.9-.2-1-.2-.9-.2-1-.2-1-.3-1-.2-.9-.2-1-.2-1-.2-1-.3-1-.2-.9-.2-1-.2-1-.2-1-.2-.9-.3-1-.2-.9-.2-1-.2-.9-.2-.9-.3-1-.2-.8-.2-1-.2-.8-.2-.9-.3-.8-.2-.8-.2-.9-.2-.8-.2-.8-.3-.7-.2-.8-.2-.7-.2-.7-.2-.7-.3-.7-.2-.6-.2-.7-.2-.6-.2-.5-.3-.6-.2-.5-.2-.5-.2-.5-.2-.5-.3-.4-.2-.4-.2-.4-.2-.3-.2-.3-.3-.3-.2-.3-.2-.2-.2-.2-.2-.2-.3-.1-.2-.2-.2V80l-.1-.2V78.9l.1-.2.1-.3.2-.2.2-.2.2-.2.2-.2.3-.3.3-.2.3-.2.3-.2.4-.2.4-.3.4-.2.5-.2.5-.2.5-.2.5-.3.5-.2.6-.2.6-.2.6-.2.7-.3.7-.2.7-.2.7-.2.7-.2.7-.3.8-.2.8-.2.8-.2.8-.2.9-.3.8-.2.9-.2.9-.2.8-.2 1-.3.9-.2.9-.2 1-.2.9-.2 1-.2.9-.3 1-.2 1-.2.9-.2 1-.2 1-.3 1-.2 1-.2.9-.2 1-.2 1-.3 1-.2.9-.2 1-.2 1-.2.9-.3 1-.2.9-.2 1-.2.8-.2 1-.3.8-.2 1-.2.8-.2.9-.2.8-.3.9-.2.8-.2.8-.2.8-.2.7-.3.8-.2.7-.2.7-.2.7-.2.6-.3.7-.2.6-.2.6-.2.6-.2.5-.3.5-.2.5-.2.5-.2.5-.2.4-.3.4-.2.3-.2.4-.2.3-.2.3-.3.2-.2.3-.2.2-.2.1-.2.2-.3v-.2l.2-.2V55.8l-.2-.2-.1-.2-.2-.3-.1-.2-.3-.2-.2-.2-.3-.2-.3-.3-.3-.2-.3-.2-.4-.2-.4-.2-.5-.3-.4-.2-.5-.2-.5-.2-.6-.2-.5-.3-.6-.2-.6-.2-.6-.2-.7-.2-.7-.2-.7-.3-.7-.2-.7-.2-.8-.2-.8-.2-.7-.3-.9-.2-.8-.2-.8-.2-.9-.2-.8-.3-1-.2-.8-.2-1-.2-.8-.2-1-.3-1-.2-.9-.2-1-.2-.9-.2-1-.3-1-.2-.9-.2-1-.2-1-.2-1-.3-1-.2-.9-.2-1-.2-1-.2-1-.3-.9-.2-1-.2-1-.2-.9-.2-1-.3-.9-.2-.9-.2-1-.2-.8-.2-1-.3-.8-.2-.9-.2-.8-.2-.9-.2-.8-.3-.8-.2-.8-.2-.8-.2-.8-.2-.7-.3-.7-.2-.7-.2-.7-.2-.6-.2-.7-.3-.6-.2-.6-.2-.6-.2-.5-.2-.5-.3-.5-.2-.5-.2-.4-.2-.4-.2-.4-.3-.4-.2-.3-.2-.3-.2-.3-.2-.2-.3-.2-.2-.2-.2-.2-.2-.1-.2-.1-.3v-.2l-.1-.2V32.7l.2-.2.1-.2.2-.2.2-.3.2-.2.3-.2.2-.2.3-.2.4-.2.3-.3.4-.2.4-.2.5-.2.4-.2.5-.3.6-.2.5-.2.6-.2.6-.2.6-.3.6-.2.7-.2.6-.2.7-.2.8-.3.7-.2.8-.2.8-.2.7-.2.9-.3.8-.2.8-.2.9-.2.9-.2.9-.3.9-.2.9-.2.9-.2 1-.2.9-.3.9-.2 1-.2 1-.2.9-.2 1-.3 1-.2 1-.2.9-.2 1-.2.3 138z" stroke="#000"/>
  </g>
  <circle cx="243.7" cy="119.4" r="1.4" fill="#D4D4D4"/>
  <circle cx="249.4" cy="119.4" r="1.4" fill="#D4D4D4"/>
  <circle cx="255.2" cy="119.4" r="1.4" fill="#D4D4D4"/>
  <circle cx="260.7" cy="119.4" r="1.4" fill="#D4D4D4"/>
  <circle cx="266.7" cy="119.4" r="1.4" fill="#D4D4D4"/>
  <circle cx="272.4" cy="119.4" r="1.4" fill="#D4D4D4"/>
  <circle cx="278.2" cy="119.4" r="1.4" fill="#D4D4D4"/>
  <circle cx="283.9" cy="119.4" r="1.4" fill="#D4D4D4"/>
  <circle cx="289.7" cy="119.4" r="1.4" fill="#D4D4D4"/>
  <circle cx="243.7" cy="125.1" r="1.4" fill="#D4D4D4"/>
  <circle cx="249.4" cy="125.1" r="1.4" fill="#D4D4D4"/>
  <circle cx="243.7" cy="130.9" r="1.4" fill="#D4D4D4"/>
  <circle cx="249.4" cy="130.9" r="1.4" fill="#D4D4D4"/>
  <circle cx="255.2" cy="130.9" r="1.4" fill="#D4D4D4"/>
  <circle cx="260.9" cy="130.9" r="1.4" fill="#D4D4D4"/>
  <circle cx="266.7" cy="130.9" r="1.4" fill="#D4D4D4"/>
  <circle cx="272.4" cy="130.9" r="1.4" fill="#D4D4D4"/>
  <circle cx="278.2" cy="130.9" r="1.4" fill="#D4D4D4"/>
  <circle cx="283.9" cy="130.9" r="1.4" fill="#D4D4D4"/>
  <circle cx="289.7" cy="130.9" r="1.4" fill="#D4D4D4"/>
  <circle cx="255.2" cy="125.1" r="1.4" fill="#D4D4D4"/>
  <circle cx="260.7" cy="125.1" r="1.4" fill="#D4D4D4"/>
  <circle cx="266.7" cy="125.1" r="1.4" fill="#D4D4D4"/>
  <circle cx="272.4" cy="125.1" r="1.4" fill="#D4D4D4"/>
  <circle cx="278.2" cy="125.1" r="1.4" fill="#D4D4D4"/>
  <circle cx="283.9" cy="125.1" r="1.4" fill="#D4D4D4"/>
  <circle cx="289.7" cy="125.1" r="1.4" fill="#D4D4D4"/>
  <path d="M234.6 100.3V51m0 0l-1 1.4m1-1.4l1 1.4M250.7 100.3V31.5m0 0l-1 1.9m1-2l1 2M218.7 100.3v-31m0 0l-1 .8m1-.9l1 .9M266.7 100.3V78m0 0l-1 .6m1-.6l1 .6" stroke="#000"/>
  <defs>
    <clipPath id="clip0">
      <rect x="51.2" y="150.5" width="119" height="118" rx="59" transform="rotate(-90 51.2 150.5)" fill="#fff"/>
    </clipPath>
  </defs>
</svg>
