<svg width="260" height="116" fill="none" xmlns="http://www.w3.org/2000/svg">
  <path stroke="url(#paint0_linear)" d="M138.7 33.6h97.9v48.2h-97.9z"/>
  <path stroke="url(#paint1_linear)" d="M149.1 50.8h52v2h-52z"/>
  <path stroke="url(#paint2_linear)" d="M149.1 39.8h52v2h-52z"/>
  <path stroke="url(#paint3_linear)" d="M149.1 61.8h52v2h-52z"/>
  <path stroke="url(#paint4_linear)" d="M149.1 72.8h52v2h-52z"/>
  <path d="M201 75.3a1 1 0 01-1-1.3l1.5-7.3c0-.2.1-.4.3-.5l22-22.1a5.2 5.2 0 017.5 7.3l-22.1 22.1a1 1 0 01-.6.3l-7.3 1.5h-.2zm2.5-7.9l-1.1 5.5 5.5-1 21.9-22a3.1 3.1 0 000-4.4 3.1 3.1 0 00-4.4 0l-22 21.9zm5 5.4z" fill="url(#paint5_linear)"/>
  <path d="M227.6 54.7a1 1 0 01-.8-.3l-5.9-6a1 1 0 011.5-1.4l6 5.9a1 1 0 01-.8 1.8z" fill="url(#paint6_linear)"/>
  <path stroke="url(#paint7_linear)" d="M149.4 39.8h52v2h-52z"/>
  <path stroke="url(#paint8_linear)" d="M22.8 33.6h97.9v48.2H22.8z"/>
  <path stroke="url(#paint9_linear)" d="M33.3 50.8h52v2h-52z"/>
  <path stroke="url(#paint10_linear)" d="M33.3 41.5h52v2h-52z"/>
  <path stroke="url(#paint11_linear)" d="M33.3 61.8h52v2h-52z"/>
  <path stroke="url(#paint12_linear)" d="M33.3 72.8h52v2h-52z"/>
  <defs>
    <linearGradient id="paint0_linear" x1="122.1" y1="87.2" x2="161.5" y2="-14.9" gradientUnits="userSpaceOnUse">
      <stop stop-color="#AB85FF"/>
      <stop offset=".5" stop-color="#EBA3E3"/>
      <stop offset="1" stop-color="#FFDBE4"/>
    </linearGradient>
    <linearGradient id="paint1_linear" x1="140" y1="53.6" x2="140.3" y2="46.5" gradientUnits="userSpaceOnUse">
      <stop stop-color="#AB85FF"/>
      <stop offset=".5" stop-color="#EBA3E3"/>
      <stop offset="1" stop-color="#FFDBE4"/>
    </linearGradient>
    <linearGradient id="paint2_linear" x1="140" y1="42.6" x2="140.3" y2="35.5" gradientUnits="userSpaceOnUse">
      <stop stop-color="#AB85FF"/>
      <stop offset=".5" stop-color="#EBA3E3"/>
      <stop offset="1" stop-color="#FFDBE4"/>
    </linearGradient>
    <linearGradient id="paint3_linear" x1="140" y1="64.6" x2="140.3" y2="57.5" gradientUnits="userSpaceOnUse">
      <stop stop-color="#AB85FF"/>
      <stop offset=".5" stop-color="#EBA3E3"/>
      <stop offset="1" stop-color="#FFDBE4"/>
    </linearGradient>
    <linearGradient id="paint4_linear" x1="140" y1="75.6" x2="140.3" y2="68.5" gradientUnits="userSpaceOnUse">
      <stop stop-color="#AB85FF"/>
      <stop offset=".5" stop-color="#EBA3E3"/>
      <stop offset="1" stop-color="#FFDBE4"/>
    </linearGradient>
    <linearGradient id="paint5_linear" x1="194.7" y1="78.6" x2="232.4" y2="29.7" gradientUnits="userSpaceOnUse">
      <stop stop-color="#AB85FF"/>
      <stop offset=".5" stop-color="#EBA3E3"/>
      <stop offset="1" stop-color="#FFDBE4"/>
    </linearGradient>
    <linearGradient id="paint6_linear" x1="219.3" y1="55.5" x2="228.5" y2="43.6" gradientUnits="userSpaceOnUse">
      <stop stop-color="#AB85FF"/>
      <stop offset=".5" stop-color="#EBA3E3"/>
      <stop offset="1" stop-color="#FFDBE4"/>
    </linearGradient>
    <linearGradient id="paint7_linear" x1="140.3" y1="42.6" x2="140.6" y2="35.5" gradientUnits="userSpaceOnUse">
      <stop stop-color="#AB85FF"/>
      <stop offset=".5" stop-color="#EBA3E3"/>
      <stop offset="1" stop-color="#FFDBE4"/>
    </linearGradient>
    <linearGradient id="paint8_linear" x1="6.3" y1="87.2" x2="45.6" y2="-14.9" gradientUnits="userSpaceOnUse">
      <stop stop-color="#AB85FF"/>
      <stop offset=".5" stop-color="#EBA3E3"/>
      <stop offset="1" stop-color="#FFDBE4"/>
    </linearGradient>
    <linearGradient id="paint9_linear" x1="24.1" y1="53.6" x2="24.5" y2="46.5" gradientUnits="userSpaceOnUse">
      <stop stop-color="#AB85FF"/>
      <stop offset=".5" stop-color="#EBA3E3"/>
      <stop offset="1" stop-color="#FFDBE4"/>
    </linearGradient>
    <linearGradient id="paint10_linear" x1="24.1" y1="44.3" x2="24.5" y2="37.2" gradientUnits="userSpaceOnUse">
      <stop stop-color="#AB85FF"/>
      <stop offset=".5" stop-color="#EBA3E3"/>
      <stop offset="1" stop-color="#FFDBE4"/>
    </linearGradient>
    <linearGradient id="paint11_linear" x1="24.1" y1="64.6" x2="24.5" y2="57.5" gradientUnits="userSpaceOnUse">
      <stop stop-color="#AB85FF"/>
      <stop offset=".5" stop-color="#EBA3E3"/>
      <stop offset="1" stop-color="#FFDBE4"/>
    </linearGradient>
    <linearGradient id="paint12_linear" x1="24.1" y1="75.6" x2="24.5" y2="68.5" gradientUnits="userSpaceOnUse">
      <stop stop-color="#AB85FF"/>
      <stop offset=".5" stop-color="#EBA3E3"/>
      <stop offset="1" stop-color="#FFDBE4"/>
    </linearGradient>
  </defs>
</svg>
