<svg width="341" height="181" fill="none" xmlns="http://www.w3.org/2000/svg">
  <path d="M245.3 143.8c13.5-1 39.3-11.7 40.5-40.5 0-36-27.5-45.5-41-45.5H98.3M245.5 143.8h-72.2" stroke="#000"/>
  <path d="M224 120.4a18.3 18.3 0 10-36.8 0H224z" fill="#8052E4"/>
  <path d="M196.8 120.4c0-3.3-1.2-6.4-3.4-8.7a11.6 11.6 0 00-16.7 0 12.5 12.5 0 00-3.4 8.7h23.5zM249.3 120.4c0-3.3-1.8-6.4-5-8.7a20.9 20.9 0 00-12-3.5c-4.6 0-9 1.2-12.1 3.5-3.2 2.3-5 5.4-5 8.7h34z" fill="#8052E4"/>
  <path d="M91 25l48.4 75.4H42.7L91 25z" fill="#31D67B"/>
  <path d="M96 87.9v50.8m0 0l.6-1.4m-.6 1.4l-.6-1.4M86 87.9v39m0 0l.5-1.1m-.5 1l-.5-1M106 87.9v32m0 0l.5-.9m-.6.9l-.6-.9M76.2 87.9v23m0 0l.6-.7m-.6.6l-.7-.6" stroke="#000"/>
  <circle cx="186.4" cy="127.8" r="1.4" fill="#D4D4D4"/>
  <circle cx="192.1" cy="127.8" r="1.4" fill="#D4D4D4"/>
  <circle cx="197.9" cy="127.8" r="1.4" fill="#D4D4D4"/>
  <circle cx="203.4" cy="127.8" r="1.4" fill="#D4D4D4"/>
  <circle cx="209.4" cy="127.8" r="1.4" fill="#D4D4D4"/>
  <circle cx="215.1" cy="127.8" r="1.4" fill="#D4D4D4"/>
  <circle cx="220.9" cy="127.8" r="1.4" fill="#D4D4D4"/>
  <circle cx="226.6" cy="127.8" r="1.4" fill="#D4D4D4"/>
  <circle cx="232.4" cy="127.8" r="1.4" fill="#D4D4D4"/>
  <circle cx="186.4" cy="133.6" r="1.4" fill="#D4D4D4"/>
  <circle cx="192.1" cy="133.6" r="1.4" fill="#D4D4D4"/>
  <circle cx="186.4" cy="139.3" r="1.4" fill="#D4D4D4"/>
  <circle cx="192.1" cy="139.3" r="1.4" fill="#D4D4D4"/>
  <circle cx="197.9" cy="139.3" r="1.4" fill="#D4D4D4"/>
  <circle cx="203.6" cy="139.3" r="1.4" fill="#D4D4D4"/>
  <circle cx="209.4" cy="139.3" r="1.4" fill="#D4D4D4"/>
  <circle cx="215.1" cy="139.3" r="1.4" fill="#D4D4D4"/>
  <circle cx="220.9" cy="139.3" r="1.4" fill="#D4D4D4"/>
  <circle cx="226.6" cy="139.3" r="1.4" fill="#D4D4D4"/>
  <circle cx="232.4" cy="139.3" r="1.4" fill="#D4D4D4"/>
  <circle cx="197.9" cy="133.6" r="1.4" fill="#D4D4D4"/>
  <circle cx="203.4" cy="133.6" r="1.4" fill="#D4D4D4"/>
  <circle cx="209.4" cy="133.6" r="1.4" fill="#D4D4D4"/>
  <circle cx="215.1" cy="133.6" r="1.4" fill="#D4D4D4"/>
  <circle cx="220.9" cy="133.6" r="1.4" fill="#D4D4D4"/>
  <circle cx="226.6" cy="133.6" r="1.4" fill="#D4D4D4"/>
  <circle cx="232.4" cy="133.6" r="1.4" fill="#D4D4D4"/>
  <circle cx="186.4" cy="144.1" r="1.4" fill="#D4D4D4"/>
  <circle cx="192.1" cy="144.1" r="1.4" fill="#D4D4D4"/>
  <circle cx="197.9" cy="144.1" r="1.4" fill="#D4D4D4"/>
  <circle cx="203.4" cy="144.1" r="1.4" fill="#D4D4D4"/>
  <circle cx="209.4" cy="144.1" r="1.4" fill="#D4D4D4"/>
  <circle cx="215.1" cy="144.1" r="1.4" fill="#D4D4D4"/>
  <circle cx="220.9" cy="144.1" r="1.4" fill="#D4D4D4"/>
  <circle cx="226.6" cy="144.1" r="1.4" fill="#D4D4D4"/>
  <circle cx="232.4" cy="144.1" r="1.4" fill="#D4D4D4"/>
  <circle cx="186.4" cy="149.8" r="1.4" fill="#D4D4D4"/>
  <circle cx="192.1" cy="149.8" r="1.4" fill="#D4D4D4"/>
  <circle cx="186.4" cy="155.6" r="1.4" fill="#D4D4D4"/>
  <circle cx="192.1" cy="155.6" r="1.4" fill="#D4D4D4"/>
  <circle cx="197.9" cy="155.6" r="1.4" fill="#D4D4D4"/>
  <circle cx="203.6" cy="155.6" r="1.4" fill="#D4D4D4"/>
  <circle cx="209.4" cy="155.6" r="1.4" fill="#D4D4D4"/>
  <circle cx="215.1" cy="155.6" r="1.4" fill="#D4D4D4"/>
  <circle cx="220.9" cy="155.6" r="1.4" fill="#D4D4D4"/>
  <circle cx="226.6" cy="155.6" r="1.4" fill="#D4D4D4"/>
  <circle cx="232.4" cy="155.6" r="1.4" fill="#D4D4D4"/>
  <circle cx="197.9" cy="149.8" r="1.4" fill="#D4D4D4"/>
  <circle cx="203.4" cy="149.8" r="1.4" fill="#D4D4D4"/>
  <circle cx="209.4" cy="149.8" r="1.4" fill="#D4D4D4"/>
  <circle cx="215.1" cy="149.8" r="1.4" fill="#D4D4D4"/>
  <circle cx="220.9" cy="149.8" r="1.4" fill="#D4D4D4"/>
  <circle cx="226.6" cy="149.8" r="1.4" fill="#D4D4D4"/>
  <circle cx="232.4" cy="149.8" r="1.4" fill="#D4D4D4"/>
</svg>
