<svg width="341" height="180" fill="none" xmlns="http://www.w3.org/2000/svg">
  <path d="M143.5 76.5l-54 61H244l50.3-61H143.5z" fill="#A57CFE"/>
  <mask id="a" maskUnits="userSpaceOnUse" x="89" y="76" width="206" height="62">
    <path d="M143.5 76.5l-54 61H244l50.3-61H143.5z" fill="#A57CFE"/>
  </mask>
  <g mask="url(#a)" stroke="#4AE991" stroke-width="2">
    <path d="M420.9 78.7c-98.7-39.2-169.2-39.2-211.5 0C167 118 96.6 118-2.1 78.7"/>
    <path d="M408.5 153.7C332.8 94.8 266 79.2 208 107 150 134.8 83 119.3 7.5 60.4"/>
    <path d="M416.7 127.8C313.9 94.2 243.6 98 205.9 139.4 168 180.7 97.9 184.6-5 150.9"/>
  </g>
  <path d="M91.8 42.5L46.3 93.8h130l42.4-51.3h-127z" fill="#4AE991"/>
  <mask id="b" maskUnits="userSpaceOnUse" x="46" y="42" width="173" height="52">
    <path d="M91.8 42.5L46.3 93.8h130l42.4-51.3h-127z" fill="#4AE991"/>
  </mask>
  <g mask="url(#b)" stroke="#000">
    <path d="M325 44.3c-83-33-142.3-33-177.8 0-35.6 33-94.9 33-177.9 0"/>
    <path d="M314.6 107.4C251 57.8 194.8 44.8 146 68 97.2 91.5 41 78.4-22.7 29"/>
    <path d="M321.5 85.6c-86.4-28.3-145.6-25-177.3 9.7-31.7 34.8-90.8 38-177.3 9.7"/>
  </g>
  <path d="M269.4 68.1a18.3 18.3 0 00-36.7 0h36.7z" fill="#8052E4"/>
  <path d="M242.3 68.1c0-3.2-1.2-6.3-3.5-8.6a11.6 11.6 0 00-16.6 0 12.5 12.5 0 00-3.5 8.6h23.6zM294.7 68.1c0-3.2-1.8-6.3-5-8.6a20.9 20.9 0 00-12-3.6c-4.5 0-8.9 1.3-12 3.6-3.3 2.3-5 5.4-5 8.6h34z" fill="#8052E4"/>
  <circle cx="47.7" cy="103.3" r="1.4" fill="#D4D4D4"/>
  <circle cx="53.4" cy="103.3" r="1.4" fill="#D4D4D4"/>
  <circle cx="59.2" cy="103.3" r="1.4" fill="#D4D4D4"/>
  <circle cx="64.7" cy="103.3" r="1.4" fill="#D4D4D4"/>
  <circle cx="70.7" cy="103.3" r="1.4" fill="#D4D4D4"/>
  <circle cx="76.4" cy="103.3" r="1.4" fill="#D4D4D4"/>
  <circle cx="82.2" cy="103.3" r="1.4" fill="#D4D4D4"/>
  <circle cx="87.9" cy="103.3" r="1.4" fill="#D4D4D4"/>
  <circle cx="93.7" cy="103.3" r="1.4" fill="#D4D4D4"/>
  <circle cx="47.7" cy="109" r="1.4" fill="#D4D4D4"/>
  <circle cx="53.4" cy="109" r="1.4" fill="#D4D4D4"/>
  <circle cx="47.7" cy="114.8" r="1.4" fill="#D4D4D4"/>
  <circle cx="53.4" cy="114.8" r="1.4" fill="#D4D4D4"/>
  <circle cx="59.2" cy="114.8" r="1.4" fill="#D4D4D4"/>
  <circle cx="64.9" cy="114.8" r="1.4" fill="#D4D4D4"/>
  <circle cx="70.7" cy="114.8" r="1.4" fill="#D4D4D4"/>
  <circle cx="76.4" cy="114.8" r="1.4" fill="#D4D4D4"/>
  <circle cx="82.2" cy="114.8" r="1.4" fill="#D4D4D4"/>
  <circle cx="87.9" cy="114.8" r="1.4" fill="#D4D4D4"/>
  <circle cx="93.7" cy="114.8" r="1.4" fill="#D4D4D4"/>
  <circle cx="59.2" cy="109" r="1.4" fill="#D4D4D4"/>
  <circle cx="64.7" cy="109" r="1.4" fill="#D4D4D4"/>
  <circle cx="70.7" cy="109" r="1.4" fill="#D4D4D4"/>
  <circle cx="76.4" cy="109" r="1.4" fill="#D4D4D4"/>
  <circle cx="82.2" cy="109" r="1.4" fill="#D4D4D4"/>
  <circle cx="87.9" cy="109" r="1.4" fill="#D4D4D4"/>
  <circle cx="93.7" cy="109" r="1.4" fill="#D4D4D4"/>
</svg>
