<svg width="341" height="180" fill="none" xmlns="http://www.w3.org/2000/svg">
  <path fill="#AB85FF" d="M42.6 38.6h169v27h-169z"/>
  <g clip-path="url(#clip0)" fill="#000">
    <path d="M71.4 56.6c.1 0 .3 0 .4.2L81 66c.2.2.2.5 0 .7l-8.6 8.6 9 9c.2.2.2.5 0 .7l-8.6 8.6 9 9c.2.2.2.5 0 .7l-8.6 8.6 9 9c.2.1.2.4 0 .6l-8.8 8.9a.5.5 0 11-.8-.7l8.5-8.5-9-9a.5.5 0 010-.7h.1v-.1l8.5-8.5-9-9a.5.5 0 010-.4l.1-.4 8.5-8.5-9-9a.5.5 0 010-.6l.1-.1 8.5-8.5-9-9a.5.5 0 010-.7l.4-.2zM85.3 56.6c.1 0 .3 0 .4.2L95 66c.2.2.2.5 0 .7l-8.6 8.6 9 9c.2.2.2.5 0 .7l-8.6 8.6 9 9c.2.2.2.5 0 .7l-8.6 8.6 9 9c.2.1.2.4 0 .6l-8.9 8.9a.5.5 0 11-.7-.7l8.5-8.5-9-9a.5.5 0 010-.7l.1-.1 8.5-8.5-9-9a.5.5 0 010-.4v-.4l8.6-8.5-9-9a.5.5 0 010-.6l.1-.1 8.5-8.5-9-9a.5.5 0 010-.7l.4-.2zM99.2 56.6c.1 0 .3 0 .4.2l9.3 9.3c.2.2.2.5 0 .7l-8.6 8.6 9 9c.2.2.2.5 0 .7l-8.6 8.6 9 9c.2.2.2.5 0 .7l-8.6 8.6 9 9c.2.1.2.4 0 .6l-8.9 8.9a.5.5 0 11-.7-.7l8.5-8.5-9-9a.5.5 0 010-.7l.1-.1 8.5-8.5-9-9a.5.5 0 010-.4v-.4l8.6-8.5-9-9a.5.5 0 010-.6l.1-.1 8.5-8.5-9-9a.5.5 0 010-.7l.4-.2z"/>
  </g>
  <path d="M249.6 65.6l42.3 65.8h-84.5l42.2-65.8z" fill="#8052E4"/>
  <path fill="#31D67B" d="M159.3 80.8h65.1V85h-65zM167.4 93.6h65.1v7h-65zM177.3 108.7h65.1v11h-65z"/>
  <defs>
    <clipPath id="clip0">
      <path fill="#fff" transform="matrix(1 0 0 -1 53.6 130.6)" d="M0 0h74v74H0z"/>
    </clipPath>
  </defs>
</svg>
