<svg width="341" height="180" fill="none" xmlns="http://www.w3.org/2000/svg">
  <circle cx="233.9" cy="50.6" r="2.8" fill="#31D67B"/>
  <circle cx="245.2" cy="50.6" r="2.8" fill="#31D67B"/>
  <circle cx="256.4" cy="50.6" r="2.8" fill="#31D67B"/>
  <circle cx="267.7" cy="50.6" r="2.8" fill="#31D67B"/>
  <circle cx="233.9" cy="61.9" r="2.8" fill="#31D67B"/>
  <circle cx="245.2" cy="61.9" r="2.8" fill="#31D67B"/>
  <circle cx="256.4" cy="61.9" r="2.8" fill="#31D67B"/>
  <circle cx="267.7" cy="61.9" r="2.8" fill="#31D67B"/>
  <circle cx="267.7" cy="73.1" r="2.8" fill="#31D67B"/>
  <circle cx="256.4" cy="73.1" r="2.8" fill="#31D67B"/>
  <circle cx="245.2" cy="73.1" r="2.8" fill="#31D67B"/>
  <circle cx="233.9" cy="73.1" r="2.8" fill="#31D67B"/>
  <circle cx="233.9" cy="73.1" r="2.8" fill="#31D67B"/>
  <circle cx="245.2" cy="73.1" r="2.8" fill="#31D67B"/>
  <circle cx="256.4" cy="73.1" r="2.8" fill="#31D67B"/>
  <circle cx="267.7" cy="73.1" r="2.8" fill="#31D67B"/>
  <circle cx="233.9" cy="84.4" r="2.8" fill="#31D67B"/>
  <circle cx="245.2" cy="84.4" r="2.8" fill="#31D67B"/>
  <circle cx="256.4" cy="84.4" r="2.8" fill="#31D67B"/>
  <circle cx="267.7" cy="84.4" r="2.8" fill="#31D67B"/>
  <circle cx="267.7" cy="95.7" r="2.8" fill="#31D67B"/>
  <circle cx="256.4" cy="95.7" r="2.8" fill="#31D67B"/>
  <circle cx="245.2" cy="95.7" r="2.8" fill="#31D67B"/>
  <circle cx="233.9" cy="95.7" r="2.8" fill="#31D67B"/>
  <path d="M263.8 50a23.7 23.7 0 10-47.4 0h47.4z" fill="#8052E4"/>
  <path d="M228.8 50c0-4.2-1.6-8.2-4.5-11.2a15 15 0 00-21.5 0c-2.9 3-4.5 7-4.5 11.2h30.5zM296.5 50c0-4.2-2.3-8.2-6.4-11.2a27 27 0 00-15.6-4.6 27 27 0 00-15.6 4.6c-4 3-6.4 7-6.4 11.2h44z" fill="#8052E4"/>
  <path fill="#4AE991" d="M297 130.2H44v18h253z"/>
  <path d="M114.4 153.1l-10.8-10.7M107 153.7L96.3 143M99.7 153.7L89 143M92.4 153.7L81.6 143M85 153.7L74.3 143M77.7 153.7L67 143M70.4 153.7L59.6 143" stroke="#000"/>
  <path d="M89.3 87.4h41.8v37.1H89.3l-7.7-2.8v-32l7.7-2.3z" fill="#A57CFE"/>
  <path d="M89.3 87.4v37.1l-7.7-2.8v-32l7.7-2.3z" fill="#8052E4"/>
  <path d="M142.2 95.7h32.5v28.8h-32.5l-6-2.2V97.5l6-1.8z" fill="#A57CFE"/>
  <path d="M142.2 95.7v28.8l-6-2.2V97.5l6-1.8z" fill="#8052E4"/>
  <path d="M193 70.8a10.8 10.8 0 10-21.4 0H193z" fill="#D4D4D4"/>
  <path d="M177.2 70.8c0-1.9-.7-3.7-2-5a6.8 6.8 0 00-9.8 0 7.3 7.3 0 00-2 5h13.8zM208 70.8c0-1.9-1-3.7-3-5a12.3 12.3 0 00-7-2.1c-2.7 0-5.2.7-7.1 2-1.9 1.4-3 3.2-3 5.1h20z" fill="#D4D4D4"/>
</svg>
