<svg width="341" height="180" fill="none" xmlns="http://www.w3.org/2000/svg">
  <path d="M165.3 91.1h48m0 0l-1.3-.7m1.3.7l-1.3.7M165.3 103h67m0 0l-1.8-.8m1.9.8l-1.9.7M165.3 79.3h30.2m0 0l-.8-.7m.8.7l-.8.8M165.3 114.8H187m0 0l-.6-.8m.6.8l-.6.7" stroke="#000"/>
  <circle cx="122.1" cy="97" r="58" fill="#AB85FF"/>
  <mask id="a" maskUnits="userSpaceOnUse" x="64" y="39" width="117" height="117">
    <circle cx="122.1" cy="97" r="58" fill="#A57CFE"/>
  </mask>
  <g mask="url(#a)" stroke="#B491FF" stroke-width="2">
    <path d="M41.6 92c35-31.4 64.3-31.7 88.2-1 23.8 30.6 53.2 30.3 88-1"/>
    <path d="M44.6 118c29.9-36.1 58.9-40.8 87-14 28.1 26.8 57.1 22.2 87-14"/>
    <path d="M43.6 125c33.5-32.7 62.9-34.3 88-4.6 25.1 29.6 54.4 28 88-4.8"/>
    <path d="M42.9 132c37.2-28.6 66.5-26.7 88 5.7 21.3 32.5 50.6 34.4 87.8 5.8M69.8 57.9c32.2-21 56-17.7 71.6 10.2 15.5 27.8 39.3 31.2 71.5 10.2"/>
  </g>
  <path d="M248.6 123l32.7 29V69l-32.7-27V123z" fill="#4AE991"/>
  <mask id="b" maskUnits="userSpaceOnUse" x="248" y="42" width="34" height="110">
    <path d="M248.6 123l32.7 29V69l-32.7-27V123z" fill="#4AE991"/>
  </mask>
  <g mask="url(#b)" stroke="#000">
    <path d="M249.8-25.5c-21 52.8-21 90.6 0 113.2 21 22.7 21 60.4 0 113.2"/>
    <path d="M290-18.9c-31.6 40.5-40 76.3-25 107.4 14.8 31 6.5 66.8-25 107.3"/>
    <path d="M276-23.3c-18 55-15.9 92.7 6.3 112.9 22 20.2 24.1 57.8 6.1 112.9"/>
  </g>
  <circle cx="41.1" cy="126.1" r="1.4" fill="#D4D4D4"/>
  <circle cx="46.8" cy="126.1" r="1.4" fill="#D4D4D4"/>
  <circle cx="52.6" cy="126.1" r="1.4" fill="#D4D4D4"/>
  <circle cx="58.1" cy="126.1" r="1.4" fill="#D4D4D4"/>
  <circle cx="64.1" cy="126.1" r="1.4" fill="#D4D4D4"/>
  <circle cx="69.8" cy="126.1" r="1.4" fill="#D4D4D4"/>
  <circle cx="75.6" cy="126.1" r="1.4" fill="#D4D4D4"/>
  <circle cx="81.3" cy="126.1" r="1.4" fill="#D4D4D4"/>
  <circle cx="87.1" cy="126.1" r="1.4" fill="#D4D4D4"/>
  <circle cx="41.1" cy="131.8" r="1.4" fill="#D4D4D4"/>
  <circle cx="46.8" cy="131.8" r="1.4" fill="#D4D4D4"/>
  <circle cx="41.1" cy="137.6" r="1.4" fill="#D4D4D4"/>
  <circle cx="46.8" cy="137.6" r="1.4" fill="#D4D4D4"/>
  <circle cx="52.6" cy="137.6" r="1.4" fill="#D4D4D4"/>
  <circle cx="58.3" cy="137.6" r="1.4" fill="#D4D4D4"/>
  <circle cx="64.1" cy="137.6" r="1.4" fill="#D4D4D4"/>
  <circle cx="69.8" cy="137.6" r="1.4" fill="#D4D4D4"/>
  <circle cx="75.6" cy="137.6" r="1.4" fill="#D4D4D4"/>
  <circle cx="81.3" cy="137.6" r="1.4" fill="#D4D4D4"/>
  <circle cx="87.1" cy="137.6" r="1.4" fill="#D4D4D4"/>
  <circle cx="52.6" cy="131.8" r="1.4" fill="#D4D4D4"/>
  <circle cx="58.1" cy="131.8" r="1.4" fill="#D4D4D4"/>
  <circle cx="64.1" cy="131.8" r="1.4" fill="#D4D4D4"/>
  <circle cx="69.8" cy="131.8" r="1.4" fill="#D4D4D4"/>
  <circle cx="75.6" cy="131.8" r="1.4" fill="#D4D4D4"/>
  <circle cx="81.3" cy="131.8" r="1.4" fill="#D4D4D4"/>
  <circle cx="87.1" cy="131.8" r="1.4" fill="#D4D4D4"/>
  <circle cx="193.1" cy="36.1" r="11.2" fill="#8052E4"/>
  <circle cx="201.1" cy="45.1" r="7.5" stroke="#000"/>
</svg>
