<svg width="260" height="115" viewBox="0 0 260 115" fill="none" xmlns="http://www.w3.org/2000/svg">
<path d="M53.5706 102.174L52.4941 88.1794L86.9412 72.75V70.5971H95.553L101.294 73.4676H105.241V82.7971H107.035V74.9029H111.7V73.4676V72.75H117.8V49.7853L119.594 47.9912V34.3559C120.79 31.8441 125.407 26.8206 134.306 26.8206C134.88 17.0606 135.024 12.7069 135.024 11.75L137.176 26.8206H141.841C144.114 28.0167 149.592 32.4182 153.324 40.4559C153.324 48.4935 153.324 51.699 153.324 52.2971L155.835 54.45V73.4676L161.576 76.3382V81.7206H164.088L170.906 98.9441V94.6382L173.059 93.9206V81.7206L174.494 81.0029V77.0559V74.9029H175.571V70.5971L178.441 68.0853L181.671 70.5971V74.9029H183.465V78.85L184.9 80.2853V94.6382H187.053V98.9441V103.25L191 98.9441V92.1265H194.229L196.741 85.3088L199.253 92.1265H202.841V97.15L207.506 102.532" stroke="url(#paint0_linear)"/>
<path d="M82.8454 77.7734L85.0778 68.4049L87.9896 79.008L85.5873 87.8438H78.8173L72.1201 65.5H79.5453L82.8454 77.7734ZM98.6663 87.8438H91.5566L85.4175 65.5H92.9397L98.6663 87.8438ZM98.7391 65.5H105.533L99.4671 86.6819L96.4339 74.7716L98.7391 65.5Z" fill="url(#paint1_linear)"/>
<path d="M104.248 73.7549H110.024L111.455 65.5H118.225L114.294 87.747H100.39L102.283 82.0582H108.568L109.077 79.0806H103.302L104.248 73.7549Z" fill="url(#paint2_linear)"/>
<defs>
<linearGradient id="paint0_linear" x1="27.2789" y1="112.388" x2="109.618" y2="-67.9286" gradientUnits="userSpaceOnUse">
<stop stop-color="#AB85FF"/>
<stop offset="0.526042" stop-color="#EBA3E3"/>
<stop offset="1" stop-color="#FFDBE4"/>
</linearGradient>
<linearGradient id="paint1_linear" x1="64.6204" y1="90.0753" x2="82.112" y2="43.4191" gradientUnits="userSpaceOnUse">
<stop stop-color="#AB85FF"/>
<stop offset="0.526042" stop-color="#EBA3E3"/>
<stop offset="1" stop-color="#FFDBE4"/>
</linearGradient>
<linearGradient id="paint2_linear" x1="64.6204" y1="90.0753" x2="82.112" y2="43.4191" gradientUnits="userSpaceOnUse">
<stop stop-color="#AB85FF"/>
<stop offset="0.526042" stop-color="#EBA3E3"/>
<stop offset="1" stop-color="#FFDBE4"/>
</linearGradient>
</defs>
</svg>
