<svg width="101" height="101" viewBox="0 0 101 101" fill="none" xmlns="http://www.w3.org/2000/svg">
<circle cx="50.2441" cy="50.5127" r="49" stroke="url(#paint0_linear)" stroke-width="2"/>
<g clip-path="url(#clip0)">
<path d="M65.9821 32.2518C67.9017 30.1125 69.021 27.8726 69.4135 25.5734C63.9854 21.0281 57.003 18.1597 49.3858 18.1597C45.4528 18.1597 41.7021 18.9208 38.2324 20.2526C44.0425 26.0737 48.9014 32.9661 52.7018 40.4061C58.3017 38.3812 62.9691 35.6109 65.9821 32.2518Z" fill="url(#paint1_linear)"/>
<path d="M68.7174 34.7076C65.3449 38.4664 60.3319 41.5235 54.3428 43.7451C55.0872 45.3775 55.7712 47.0439 56.4151 48.7318C59.4908 48.0703 62.6785 47.694 65.9294 47.694C71.0473 47.694 76.0191 48.5624 80.6037 50.1584C80.608 49.9482 80.6353 49.7438 80.6353 49.5322C80.6353 41.4397 77.517 34.0796 72.4523 28.5237C71.705 30.6769 70.4647 32.7607 68.7174 34.7076Z" fill="url(#paint2_linear)"/>
<path d="M18.6074 42.9285C22.5151 43.6193 26.8445 44.0176 31.0035 44.0176C37.4508 44.0176 43.6438 43.1023 49.1633 41.5302C45.36 34.2227 40.4705 27.4974 34.6345 21.873C26.6923 26.1446 20.5644 33.8738 18.6074 42.9285Z" fill="url(#paint3_linear)"/>
<path d="M80.2865 53.9434C75.8518 52.2742 70.9709 51.3704 65.9292 51.3704C63.1029 51.3704 60.3273 51.6667 57.6504 52.2076C60.368 60.3576 61.9406 69.1668 62.2091 78.121C71.7699 73.7959 78.7585 64.6856 80.2865 53.9434Z" fill="url(#paint4_linear)"/>
<path d="M17.8906 49.5321C17.8906 59.2001 22.5508 67.9772 29.4682 73.7136C30.2011 68.8379 32.3993 64.0413 35.9795 60.0268C40.2381 55.2522 46.1477 51.6768 52.8401 49.636C52.2173 48.0295 51.537 46.4545 50.819 44.9016C44.839 46.6752 38.1036 47.6939 31.0034 47.6939C26.6596 47.6939 22.1392 47.2789 18.0414 46.5589C17.9485 47.5388 17.8906 48.5288 17.8906 49.5321V49.5321Z" fill="url(#paint5_linear)"/>
<path d="M38.7248 62.4736C35.1081 66.5292 33.1488 71.2856 32.8975 76.1517C37.6908 79.145 43.3304 80.9047 49.386 80.9047C52.5699 80.9047 55.6418 80.4203 58.5384 79.5313C58.3977 70.3785 56.8611 61.3788 54.0673 53.0952C47.9518 54.9291 42.5726 58.159 38.7248 62.4736Z" fill="url(#paint6_linear)"/>
</g>
<defs>
<linearGradient id="paint0_linear" x1="-16.0225" y1="110.5" x2="99.2384" y2="-38.4942" gradientUnits="userSpaceOnUse">
<stop stop-color="#AB85FF"/>
<stop offset="0.526042" stop-color="#EBA3E3"/>
<stop offset="1" stop-color="#FFDBE4"/>
</linearGradient>
<linearGradient id="paint1_linear" x1="33.1603" y1="42.6279" x2="55.5747" y2="2.01701" gradientUnits="userSpaceOnUse">
<stop stop-color="#AB85FF"/>
<stop offset="0.526042" stop-color="#EBA3E3"/>
<stop offset="1" stop-color="#FFDBE4"/>
</linearGradient>
<linearGradient id="paint2_linear" x1="50.0659" y1="52.319" x2="73.4065" y2="15.6515" gradientUnits="userSpaceOnUse">
<stop stop-color="#AB85FF"/>
<stop offset="0.526042" stop-color="#EBA3E3"/>
<stop offset="1" stop-color="#FFDBE4"/>
</linearGradient>
<linearGradient id="paint3_linear" x1="13.637" y1="46.2291" x2="36.1337" y2="6.10248" gradientUnits="userSpaceOnUse">
<stop stop-color="#AB85FF"/>
<stop offset="0.526042" stop-color="#EBA3E3"/>
<stop offset="1" stop-color="#FFDBE4"/>
</linearGradient>
<linearGradient id="paint4_linear" x1="53.9682" y1="80.7926" x2="85.6951" y2="46.0884" gradientUnits="userSpaceOnUse">
<stop stop-color="#AB85FF"/>
<stop offset="0.526042" stop-color="#EBA3E3"/>
<stop offset="1" stop-color="#FFDBE4"/>
</linearGradient>
<linearGradient id="paint5_linear" x1="12.2055" y1="76.591" x2="43.314" y2="27.812" gradientUnits="userSpaceOnUse">
<stop stop-color="#AB85FF"/>
<stop offset="0.526042" stop-color="#EBA3E3"/>
<stop offset="1" stop-color="#FFDBE4"/>
</linearGradient>
<linearGradient id="paint6_linear" x1="28.7265" y1="83.6821" x2="61.3384" y2="44.8131" gradientUnits="userSpaceOnUse">
<stop stop-color="#AB85FF"/>
<stop offset="0.526042" stop-color="#EBA3E3"/>
<stop offset="1" stop-color="#FFDBE4"/>
</linearGradient>
<clipPath id="clip0">
<rect width="62.7451" height="62.7451" fill="white" transform="translate(17.8906 18.1597)"/>
</clipPath>
</defs>
</svg>
