<svg width="100" height="100" viewBox="0 0 100 100" fill="none" xmlns="http://www.w3.org/2000/svg">
<circle cx="50" cy="49.999" r="49" stroke="black" stroke-width="2"/>
<g clip-path="url(#clip0)">
<path d="M65.738 31.7382C67.6576 29.5988 68.7768 27.359 69.1693 25.0597C63.7413 20.5144 56.7589 17.646 49.1417 17.646C45.2086 17.646 41.458 18.4071 37.9883 19.7389C43.7983 25.56 48.6572 32.4524 52.4577 39.8925C58.0576 37.8675 62.725 35.0973 65.738 31.7382Z" fill="black"/>
<path d="M68.4733 34.1939C65.1008 37.9528 60.0877 41.0098 54.0986 43.2315C54.843 44.8639 55.5271 46.5302 56.171 48.2182C59.2467 47.5566 62.4344 47.1803 65.6853 47.1803C70.8031 47.1803 75.775 48.0487 80.3596 49.6447C80.3639 49.4345 80.3911 49.2301 80.3911 49.0186C80.3911 40.926 77.2728 33.5659 72.2081 28.01C71.4609 30.1632 70.2205 32.247 68.4733 34.1939Z" fill="black"/>
<path d="M18.3633 42.4148C22.271 43.1056 26.6004 43.5039 30.7594 43.5039C37.2066 43.5039 43.3997 42.5886 48.9192 41.0165C45.1158 33.7091 40.2263 26.9837 34.3904 21.3594C26.4482 25.6309 20.3202 33.3601 18.3633 42.4148Z" fill="black"/>
<path d="M80.0424 53.4297C75.6077 51.7605 70.7268 50.8567 65.685 50.8567C62.8587 50.8567 60.0832 51.153 57.4062 51.6939C60.1239 59.8439 61.6964 68.6531 61.965 77.6073C71.5257 73.2822 78.5144 64.1719 80.0424 53.4297Z" fill="black"/>
<path d="M17.6465 49.0185C17.6465 58.6864 22.3067 67.4635 29.224 73.1999C29.9569 68.3243 32.1551 63.5276 35.7354 59.5132C39.994 54.7385 45.9036 51.1631 52.5959 49.1224C51.9731 47.5158 51.2929 45.9409 50.5748 44.3879C44.5948 46.1615 37.8594 47.1802 30.7592 47.1802C26.4154 47.1802 21.895 46.7652 17.7973 46.0452C17.7044 47.0251 17.6465 48.0151 17.6465 49.0185V49.0185Z" fill="black"/>
<path d="M38.4806 61.9599C34.864 66.0155 32.9046 70.7719 32.6533 75.638C37.4466 78.6313 43.0863 80.3911 49.1419 80.3911C52.3258 80.3911 55.3977 79.9066 58.2943 79.0177C58.1536 69.8648 56.6169 60.8651 53.8232 52.5815C47.7077 54.4155 42.3285 57.6453 38.4806 61.9599Z" fill="black"/>
</g>
<defs>
<clipPath id="clip0">
<rect width="62.7451" height="62.7451" fill="white" transform="translate(17.6465 17.646)"/>
</clipPath>
</defs>
</svg>
