<svg width="36" height="22" fill="none" xmlns="http://www.w3.org/2000/svg">
  <path d="M14.65 9.89a5.25 5.25 0 001.65-1.21c.67-.8 1-1.85 1-3.15 0-1.26-.33-2.35-.99-3.25C15.21.8 13.34.04 10.71 0H.24v21.34H10c1.1 0 2.11-.1 3.05-.29a6.01 6.01 0 003.98-2.75c.64-1 .96-2.14.96-3.4a5.6 5.6 0 00-.84-3.13 4.86 4.86 0 00-2.5-1.88zM4.56 3.7h4.71a8.3 8.3 0 012.56.33c.77.32 1.16.97 1.16 1.97 0 .9-.3 1.52-.88 1.87-.59.36-1.35.53-2.29.53H4.56v-4.7zm7.45 13.55c-.52.25-1.26.37-2.2.37H4.56v-5.69H9.9c.92.01 1.65.13 2.16.36.92.42 1.38 1.18 1.38 2.3 0 1.3-.47 2.19-1.42 2.66zM31.89 1h-9.27v2.65h9.27V1zM35.1 11.48a7.61 7.61 0 00-1.27-3.27 6.44 6.44 0 00-2.76-2.33 9.14 9.14 0 00-3.77-.74c-2.34 0-4.24.73-5.71 2.19-1.47 1.46-2.2 3.56-2.2 6.29 0 2.92.8 5.02 2.44 6.32a8.78 8.78 0 005.63 1.94c2.58 0 4.59-.77 6.02-2.3a5.18 5.18 0 001.55-2.86h-4.27c-.25.47-.54.83-.87 1.09-.59.48-1.36.72-2.31.72-.9 0-1.67-.2-2.31-.6-1.06-.63-1.6-1.74-1.68-3.32h11.66c.01-1.36-.03-2.41-.14-3.13zm-11.4.4a4.28 4.28 0 011.11-2.44c.6-.6 1.43-.9 2.5-.9.99 0 1.81.28 2.48.85.66.57 1.04 1.4 1.12 2.5H23.7z" fill="#000"/>
</svg>
