<svg width="100" height="100" viewBox="0 0 100 100" fill="none" xmlns="http://www.w3.org/2000/svg">
<circle cx="50" cy="50" r="49.15" stroke="black" stroke-width="1.7"/>
<g clip-path="url(#clip0)">
<path d="M45.5073 49.1114C46.7939 48.4642 47.7667 47.7434 48.4332 46.9645C49.6191 45.5616 50.2042 43.7015 50.2042 41.3956C50.2042 39.1518 49.6191 37.2336 48.4487 35.6253C46.4956 33.0056 43.1899 31.6647 38.5163 31.595H20V69.3909H37.2645C39.21 69.3909 41.012 69.2243 42.6784 68.8833C44.3447 68.5384 45.7864 67.9067 47.0071 66.9844C48.0922 66.1822 48.999 65.1862 49.7198 64.012C50.8592 62.2371 51.4288 60.2258 51.4288 57.9859C51.4288 55.8157 50.9289 53.9672 49.9368 52.4481C48.9331 50.9289 47.4605 49.8167 45.5073 49.1114ZM27.6383 38.1598H35.9779C37.811 38.1598 39.3223 38.3574 40.5082 38.7488C41.88 39.3185 42.566 40.4772 42.566 42.2443C42.566 43.8293 42.0428 44.9377 41.0081 45.5616C39.9656 46.1855 38.6132 46.4994 36.9545 46.4994H27.6383V38.1598ZM40.826 62.1674C39.9036 62.613 38.6054 62.8339 36.9429 62.8339H27.6383V52.7542H37.0708C38.7139 52.7658 39.9928 52.9828 40.9073 53.3898C42.535 54.1261 43.3449 55.4747 43.3449 57.4472C43.3449 59.7724 42.5078 61.338 40.826 62.1674Z" fill="black"/>
<path d="M76.0408 33.3582H59.6211V38.0628H76.0408V33.3582Z" fill="black"/>
<path d="M81.7454 51.9248C81.4044 49.7353 80.6526 47.8093 79.4823 46.1467C78.1995 44.2633 76.5719 42.8837 74.5916 42.0118C72.6191 41.136 70.3985 40.6981 67.9261 40.7019C63.7756 40.7019 60.4041 42.0002 57.796 44.5772C55.1957 47.1621 53.8936 50.8785 53.8936 55.7227C53.8936 60.8885 55.3313 64.6204 58.2223 66.9107C61.1016 69.2049 64.4267 70.3481 68.2012 70.3481C72.7702 70.3481 76.3239 68.9879 78.8622 66.2751C80.486 64.5623 81.4044 62.8765 81.6059 61.2217H74.0413C73.6034 62.0394 73.0957 62.6788 72.5144 63.1439C71.4604 63.9965 70.0885 64.4227 68.4066 64.4227C66.8061 64.4227 65.4497 64.0701 64.3182 63.3687C62.4502 62.2448 61.4737 60.2762 61.3497 57.4743H81.9935C82.0245 55.06 81.947 53.2037 81.7454 51.9248ZM61.5357 52.6495C61.8069 50.832 62.4658 49.3904 63.5121 48.3247C64.5584 47.2628 66.0388 46.728 67.9338 46.7242C69.6816 46.7242 71.1426 47.2241 72.3323 48.2278C73.5065 49.2393 74.1692 50.708 74.3048 52.6495H61.5357Z" fill="black"/>
</g>
<defs>
<clipPath id="clip0">
<rect width="62" height="62" fill="white" transform="translate(20 19.9717)"/>
</clipPath>
</defs>
</svg>
