<svg width="101" height="101" viewBox="0 0 101 101" fill="none" xmlns="http://www.w3.org/2000/svg">
<circle cx="50.2441" cy="50.5137" r="49.15" stroke="url(#paint0_linear)" stroke-width="1.7"/>
<g clip-path="url(#clip0)">
<path d="M45.7515 49.6251C47.0381 48.9779 48.0108 48.2571 48.6773 47.4782C49.8632 46.0753 50.4484 44.2151 50.4484 41.9093C50.4484 39.6655 49.8632 37.7472 48.6929 36.139C46.7397 33.5193 43.434 32.1784 38.7604 32.1086H20.2441V69.9046H37.5087C39.4541 69.9046 41.2561 69.738 42.9225 69.3969C44.5889 69.052 46.0305 68.4204 47.2512 67.498C48.3363 66.6959 49.2431 65.6999 49.964 64.5257C51.1033 62.7508 51.673 60.7395 51.673 58.4996C51.673 56.3294 51.1731 54.4809 50.181 52.9617C49.1773 51.4426 47.7046 50.3304 45.7515 49.6251ZM27.8824 38.6734H36.2221C38.0551 38.6734 39.5665 38.8711 40.7523 39.2625C42.1242 39.8322 42.8101 40.9909 42.8101 42.758C42.8101 44.343 42.2869 45.4514 41.2522 46.0753C40.2098 46.6992 38.8573 47.0131 37.1987 47.0131H27.8824V38.6734ZM41.0701 62.681C40.1478 63.1267 38.8495 63.3476 37.187 63.3476H27.8824V53.2679H37.3149C38.9581 53.2795 40.2369 53.4965 41.1515 53.9034C42.7791 54.6397 43.5891 55.9883 43.5891 57.9609C43.5891 60.2861 42.752 61.8517 41.0701 62.681Z" fill="url(#paint1_linear)"/>
<path d="M76.285 33.8718H59.8652V38.5765H76.285V33.8718Z" fill="url(#paint2_linear)"/>
<path d="M81.9896 52.4385C81.6486 50.249 80.8967 48.3229 79.7264 46.6604C78.4437 44.777 76.816 43.3974 74.8358 42.5255C72.8632 41.6496 70.6427 41.2117 68.1702 41.2156C64.0197 41.2156 60.6482 42.5138 58.0401 45.0909C55.4398 47.6758 54.1377 51.3922 54.1377 56.2363C54.1377 61.4021 55.5754 65.1341 58.4664 67.4244C61.3458 69.7186 64.6708 70.8618 68.4454 70.8618C73.0144 70.8618 76.568 69.5015 79.1064 66.7888C80.7301 65.0759 81.6486 63.3902 81.8501 61.7354H74.2855C73.8475 62.5531 73.3399 63.1925 72.7586 63.6576C71.7045 64.5101 70.3326 64.9364 68.6508 64.9364C67.0502 64.9364 65.6939 64.5838 64.5623 63.8823C62.6944 62.7585 61.7178 60.7898 61.5938 57.988H82.2376C82.2686 55.5736 82.1911 53.7174 81.9896 52.4385ZM61.7798 53.1632C62.0511 51.3457 62.7099 49.9041 63.7562 48.8383C64.8026 47.7765 66.2829 47.2417 68.178 47.2378C69.9257 47.2378 71.3867 47.7378 72.5764 48.7415C73.7507 49.7529 74.4133 51.2217 74.549 53.1632H61.7798Z" fill="url(#paint3_linear)"/>
</g>
<defs>
<linearGradient id="paint0_linear" x1="-16.0225" y1="110.501" x2="99.2384" y2="-38.4933" gradientUnits="userSpaceOnUse">
<stop stop-color="#AB85FF"/>
<stop offset="0.526042" stop-color="#EBA3E3"/>
<stop offset="1" stop-color="#FFDBE4"/>
</linearGradient>
<linearGradient id="paint1_linear" x1="15.1317" y1="73.6793" x2="60.0219" y2="25.4268" gradientUnits="userSpaceOnUse">
<stop stop-color="#AB85FF"/>
<stop offset="0.526042" stop-color="#EBA3E3"/>
<stop offset="1" stop-color="#FFDBE4"/>
</linearGradient>
<linearGradient id="paint2_linear" x1="57.1943" y1="39.0463" x2="59.5615" y2="28.3665" gradientUnits="userSpaceOnUse">
<stop stop-color="#AB85FF"/>
<stop offset="0.526042" stop-color="#EBA3E3"/>
<stop offset="1" stop-color="#FFDBE4"/>
</linearGradient>
<linearGradient id="paint3_linear" x1="49.5657" y1="73.8225" x2="84.1506" y2="31.4377" gradientUnits="userSpaceOnUse">
<stop stop-color="#AB85FF"/>
<stop offset="0.526042" stop-color="#EBA3E3"/>
<stop offset="1" stop-color="#FFDBE4"/>
</linearGradient>
<clipPath id="clip0">
<rect width="62" height="62" fill="white" transform="translate(20.2441 20.4854)"/>
</clipPath>
</defs>
</svg>
