<svg width="20" height="21" viewBox="0 0 20 21" fill="none" xmlns="http://www.w3.org/2000/svg">
<g clip-path="url(#clip0)">
<path d="M16.9452 4.35935L13.1787 0.795986C12.7781 0.416963 12.2537 0.208252 11.7022 0.208252H4.53125C3.3466 0.208252 2.38281 1.17204 2.38281 2.35669V18.0598C2.38281 19.2445 3.3466 20.2083 4.53125 20.2083H15.4688C16.6534 20.2083 17.6172 19.2445 17.6172 18.0598V5.92005C17.6172 5.3322 17.3723 4.76333 16.9452 4.35935ZM15.8071 4.89575H12.8906C12.7829 4.89575 12.6953 4.80813 12.6953 4.70044V1.95185L15.8071 4.89575ZM15.4688 19.0364H4.53125C3.99277 19.0364 3.55469 18.5983 3.55469 18.0598V2.35669C3.55469 1.81821 3.99277 1.38013 4.53125 1.38013H11.5234V4.70044C11.5234 5.45431 12.1368 6.06763 12.8906 6.06763H16.4453V18.0598C16.4453 18.5983 16.0072 19.0364 15.4688 19.0364Z" fill="black"/>
<path d="M14.1797 8.02075H5.58594C5.26234 8.02075 5 8.2831 5 8.60669C5 8.93028 5.26234 9.19263 5.58594 9.19263H14.1797C14.5033 9.19263 14.7656 8.93028 14.7656 8.60669C14.7656 8.2831 14.5033 8.02075 14.1797 8.02075Z" fill="black"/>
<path d="M14.1797 11.1458H5.58594C5.26234 11.1458 5 11.4081 5 11.7317C5 12.0553 5.26234 12.3176 5.58594 12.3176H14.1797C14.5033 12.3176 14.7656 12.0553 14.7656 11.7317C14.7656 11.4081 14.5033 11.1458 14.1797 11.1458Z" fill="black"/>
<path d="M8.42656 14.2708H5.58594C5.26234 14.2708 5 14.5331 5 14.8567C5 15.1803 5.26234 15.4426 5.58594 15.4426H8.42656C8.75016 15.4426 9.0125 15.1803 9.0125 14.8567C9.0125 14.5331 8.75016 14.2708 8.42656 14.2708Z" fill="black"/>
</g>
<defs>
<clipPath id="clip0">
<rect width="20" height="20" fill="white" transform="translate(0 0.208252)"/>
</clipPath>
</defs>
</svg>
