<svg width="20" height="21" fill="none" xmlns="http://www.w3.org/2000/svg">
  <g clip-path="url(#clip0)">
    <path d="M17 4.8l-3.8-3.5c-.4-.4-1-.6-1.5-.6H4.5c-1.2 0-2.1 1-2.1 2.1v15.7c0 1.2 1 2.2 2.1 2.2h11c1.2 0 2.1-1 2.1-2.2V6.4c0-.6-.2-1.2-.7-1.6zm-1.2.6h-3l-.1-.2V2.4l3.1 3zm-.3 14.1h-11a1 1 0 01-1-1V2.8c0-.5.5-1 1-1h7v3.4c0 .7.6 1.3 1.4 1.3h3.5v12c0 .6-.4 1-1 1z" fill="url(#paint0_linear)"/>
    <path d="M14.2 8.5H5.6a.6.6 0 000 1.2h8.6a.6.6 0 000-1.2z" fill="url(#paint1_linear)"/>
    <path d="M14.2 11.6H5.6a.6.6 0 100 1.2h8.6a.6.6 0 000-1.2z" fill="url(#paint2_linear)"/>
    <path d="M8.4 14.7H5.6a.6.6 0 100 1.2h2.8a.6.6 0 000-1.2z" fill="url(#paint3_linear)"/>
  </g>
  <defs>
    <linearGradient id="paint0_linear" x1="-.1" y1="22.7" x2="23.7" y2="-.8" gradientUnits="userSpaceOnUse">
      <stop stop-color="#AB85FF"/>
      <stop offset=".5" stop-color="#EBA3E3"/>
      <stop offset="1" stop-color="#FFDBE4"/>
    </linearGradient>
    <linearGradient id="paint1_linear" x1="3.4" y1="9.8" x2="3.7" y2="7" gradientUnits="userSpaceOnUse">
      <stop stop-color="#AB85FF"/>
      <stop offset=".5" stop-color="#EBA3E3"/>
      <stop offset="1" stop-color="#FFDBE4"/>
    </linearGradient>
    <linearGradient id="paint2_linear" x1="3.4" y1="12.9" x2="3.7" y2="10.1" gradientUnits="userSpaceOnUse">
      <stop stop-color="#AB85FF"/>
      <stop offset=".5" stop-color="#EBA3E3"/>
      <stop offset="1" stop-color="#FFDBE4"/>
    </linearGradient>
    <linearGradient id="paint3_linear" x1="4.3" y1="16" x2="4.9" y2="13.4" gradientUnits="userSpaceOnUse">
      <stop stop-color="#AB85FF"/>
      <stop offset=".5" stop-color="#EBA3E3"/>
      <stop offset="1" stop-color="#FFDBE4"/>
    </linearGradient>
    <clipPath id="clip0">
      <path fill="#fff" transform="translate(0 .7)" d="M0 0h20v20H0z"/>
    </clipPath>
  </defs>
</svg>
