<svg width="33" height="32" fill="none" xmlns="http://www.w3.org/2000/svg">
  <g clip-path="url(#clip0)" fill="#000">
    <path d="M25 7.2C26 6 26.6 5 26.8 3.8a16 16 0 00-16-2.7c3 3 5.5 6.5 7.5 10.2 2.8-1 5.2-2.4 6.7-4.1zM26.4 8.4c-1.7 2-4.3 3.5-7.3 4.6l1 2.6a23 23 0 0112.4.7V16c0-4.1-1.6-7.9-4.2-10.7-.4 1-1 2.1-1.9 3.1zM.9 12.6a37.1 37.1 0 0015.6-.7C14.5 8.2 12 4.8 9 2 5 4 2 8 1 12.6zM32.3 18.2a20.8 20.8 0 00-11.5-.8C22.2 21.5 23 26 23 30.6a16 16 0 009.2-12.4zM.5 16c0 5 2.4 9.4 5.9 12.3.4-2.5 1.5-4.9 3.3-7 2.2-2.4 5.2-4.2 8.6-5.2l-1-2.5a35.7 35.7 0 01-16.7.9L.5 16z"/>
    <path d="M11.1 22.6c-1.8 2-2.8 4.5-3 7a15.8 15.8 0 0013.1 1.7c0-4.7-.8-9.3-2.3-13.5a17 17 0 00-7.8 4.8z"/>
  </g>
  <defs>
    <clipPath id="clip0">
      <path fill="#fff" transform="translate(.5)" d="M0 0h32v32H0z"/>
    </clipPath>
  </defs>
</svg>
