<svg width="20" height="20" fill="none" xmlns="http://www.w3.org/2000/svg"><path d="M5.5 18.2c-1-1-1.8-2.1-2.4-3.4-.6-1.4-.8-3-.5-4.5.3-1.5 1-3 2-4.1a4 4 0 001 2.9A7 7 0 017 3.3 12 12 0 0112.2 0c-1 1-1 2.6-.7 4 .4 1.3 1.2 2.4 1.9 3.6a8.3 8.3 0 011.4 3.9c.4-.7.8-1.4 1-2.2.3-.8.4-1.7.2-2.5.8 1 1.2 1.9 1.4 3 .2 1.2.2 2.4 0 3.6a8.9 8.9 0 01-1.2 3.7 7 7 0 01-3.6 2.7c-2.6.5-5.1.1-7.1-1.6z" fill="#F3705A"/><path d="M8.7 19.7c3.4 1.4 6.8-2.7 4.9-5.8.1 1.6-.3 2.9-1.1 3.6.4-1 .1-2.2-.4-3.2s-1.2-1.8-1.7-2.7c-.6-1-1-2-.7-3.2A5.5 5.5 0 008 15.2c-.6-.5-1.1-1.2-1.1-2-.7.8-1.1 1.8-1 2.9 0 1.6 1.2 3 2.7 3.6z" fill="#FFD15C"/></svg>