<svg width="167" height="52" fill="none" xmlns="http://www.w3.org/2000/svg">
  <path d="M102.53 0h-.79v51.58h.8V0zM65.5 19.85h11.78L80.2 2.9H94l-8.02 45.67H57.64l3.86-11.68h12.8l1.05-6.11H63.57l1.93-10.93zM161.46 48.55c-.45 0-.84-.05-1.19-.1-.4-.05-.7-.15-.99-.25-.3-.1-.54-.2-.74-.34-.2-.1-.35-.2-.4-.3-.1-.1-.14-.2-.14-.3-.06-.15-.06-.3-.06-.5v-.34c0-.1.06-.2.06-.25.04-.05.04-.1.1-.15.04-.05.1-.05.14-.05.1 0 .25.05.4.15l.64.4c.25.14.6.24 1 .4.39.1.78.2 1.33.2.4 0 .74-.06 1.03-.16.3-.1.6-.25.8-.45.24-.2.4-.4.5-.7.09-.24.19-.59.19-.89 0-.34-.1-.7-.25-.94-.15-.25-.4-.5-.64-.7-.3-.2-.6-.4-.94-.54-.35-.15-.7-.35-1.09-.5-.35-.15-.74-.35-1.09-.55-.34-.2-.64-.44-.94-.74-.3-.3-.5-.6-.69-1a3.87 3.87 0 01.05-2.83c.2-.44.5-.8.84-1.1.35-.29.8-.49 1.24-.64.5-.15.99-.25 1.58-.25.3 0 .6.05.89.1a5.16 5.16 0 011.53.5c.2.1.35.2.4.25l.15.15c0 .05.05.1.05.15 0 .05 0 .15.05.2v.64c0 .1-.05.15-.05.25 0 .05-.05.1-.1.15-.05.05-.1.05-.15.05a.86.86 0 01-.35-.15c-.14-.1-.34-.2-.59-.3-.25-.1-.5-.25-.8-.35a3.28 3.28 0 00-1.97 0c-.25.1-.5.25-.64.4-.2.15-.3.35-.4.6-.1.2-.15.45-.15.7 0 .34.1.69.25.94s.4.5.7.7c.29.2.59.4.93.54.35.15.7.35 1.1.5.39.15.73.35 1.08.54.35.2.7.45.94.75.3.3.5.6.7 1 .14.4.24.84.24 1.34 0 .6-.1 1.14-.35 1.64-.24.5-.54.89-.94 1.19-.4.35-.89.6-1.38.74-.7.1-1.29.2-1.88.2zM155.42 43.53c0 .8-.1 1.5-.34 2.14a4.32 4.32 0 01-1 1.59 4.3 4.3 0 01-1.58 1 6.73 6.73 0 01-4.05.04c-.6-.2-1.1-.5-1.54-.94-.44-.4-.74-.9-.99-1.54a5.7 5.7 0 01-.34-2.14v-8.15c0-.05 0-.1.05-.15.05-.05.05-.05.15-.1.04 0 .14-.05.24-.05.1 0 .25-.05.45-.05.15 0 .3 0 .4.05.1 0 .2.05.24.05.05 0 .1.05.15.1.05.05.05.1.05.15v7.9c0 .6.05 1.15.2 1.6a2.86 2.86 0 001.63 1.83c.4.15.84.25 1.34.25.5 0 .94-.05 1.33-.2.4-.15.74-.35 1-.64.24-.3.49-.65.63-1.1.15-.45.2-.94.2-1.54v-8.1c0-.05 0-.1.05-.15.05-.05.05-.05.15-.1.05 0 .15-.05.25-.05s.25-.05.4-.05c.14 0 .29 0 .39.05.1 0 .2.05.25.05.05 0 .1.05.15.1.04.05.04.1.04.15v8h.1zM143.35 46.51v.3c0 .1 0 .15-.05.2 0 .05-.05.1-.05.15-.05.05-.05.1-.15.15-.05.05-.2.15-.44.3-.2.15-.5.25-.8.4-.3.14-.69.24-1.08.34-.4.1-.84.15-1.34.15-.84 0-1.58-.15-2.28-.45a4.83 4.83 0 01-2.81-3.28 10.15 10.15 0 010-5.67c.3-.84.69-1.58 1.18-2.13.5-.6 1.1-1.04 1.78-1.34a5.89 5.89 0 013.42-.35c.34.05.69.15.99.25.3.1.59.25.79.4.25.15.4.25.5.35l.2.2c.04.05.04.1.04.14 0 .05.05.15.05.25V37.52c0 .1-.05.15-.05.25-.05.05-.05.1-.1.15-.05.05-.1.05-.15.05-.1 0-.25-.05-.4-.2-.14-.15-.39-.3-.64-.45-.24-.15-.59-.3-.99-.45-.4-.15-.84-.2-1.38-.2a3.37 3.37 0 00-2.82 1.4c-.35.44-.6.99-.8 1.64a9.53 9.53 0 00-.05 4.42c.2.64.45 1.2.8 1.59.35.45.74.74 1.24 1a4.35 4.35 0 002.97.14c.4-.15.74-.25.98-.45.3-.14.5-.3.7-.44.2-.15.3-.2.4-.2.04 0 .1 0 .1.05.04 0 .04.05.1.1 0 .05.04.15.04.25.1.05.1.2.1.34zM131.97 41.7c0 1.04-.15 1.98-.4 2.88a5.14 5.14 0 01-2.92 3.58c-.74.3-1.63.5-2.62.5-.99 0-1.83-.16-2.52-.46-.7-.3-1.29-.7-1.78-1.29a5.88 5.88 0 01-1.04-2.09c-.25-.84-.35-1.78-.35-2.88 0-1.04.15-1.99.4-2.78.25-.85.64-1.54 1.14-2.14.5-.6 1.14-1.04 1.88-1.34.74-.3 1.63-.5 2.62-.5.94 0 1.78.15 2.52.45.7.3 1.29.7 1.78 1.3.5.54.84 1.24 1.04 2.03.1.7.25 1.64.25 2.73zm-1.83.1c0-.75-.05-1.45-.2-2.1a4.94 4.94 0 00-.64-1.63c-.3-.45-.7-.85-1.24-1.1-.5-.25-1.14-.4-1.88-.4a3.63 3.63 0 00-3.12 1.6c-.3.44-.54 1.04-.69 1.64-.15.64-.2 1.29-.2 1.98 0 .75.05 1.5.2 2.14.15.65.35 1.2.64 1.69.3.5.7.84 1.2 1.1.49.24 1.13.39 1.87.39.75 0 1.39-.15 1.93-.45.5-.3.94-.64 1.24-1.14.3-.5.54-1.04.7-1.69.09-.65.19-1.34.19-2.04zM118.61 36.03v.35c0 .1-.05.15-.05.24-.05.05-.05.1-.1.15-.04.05-.1.05-.14.05h-4.75v4.43h4.5c.05 0 .1 0 .15.05.05 0 .1.05.1.1.05.05.05.14.05.2v.69c0 .1-.05.15-.05.2-.05.05-.05.1-.1.15-.05.05-.1.05-.15.05h-4.5v5.46c0 .05 0 .1-.05.15-.05.05-.05.1-.15.1-.05 0-.15.05-.25.05s-.25.05-.44.05c-.15 0-.3 0-.4-.05-.1 0-.2-.05-.25-.05-.05 0-.1-.05-.14-.1-.05-.05-.05-.1-.05-.15V35.98c0-.25.05-.45.2-.55a.8.8 0 01.44-.15h5.84c.05 0 .1 0 .15.05.05.05.1.05.1.15.04.05.04.15.04.25v.3zM148.75 19.78c0 .4-.06.8-.15 1.14a3.3 3.3 0 01-1.14 1.7 3.9 3.9 0 01-1.98.84c-.4.05-.8.1-1.29.1h-3.41a.8.8 0 01-.44-.15c-.15-.1-.2-.3-.2-.55V11.18c0-.25.05-.45.2-.54a.8.8 0 01.44-.15h2.97c.79 0 1.43.05 1.93.2.5.14.89.34 1.23.64.35.3.6.65.75 1.04.15.4.24.9.24 1.4 0 .3-.05.6-.1.9-.04.29-.2.54-.34.79-.15.24-.35.44-.55.64-.2.2-.44.35-.74.45.35.05.7.2 1 .35.29.2.59.4.78.7.25.3.4.59.55.99.15.34.25.74.25 1.19zm-2.63-5.82c0-.3-.05-.6-.15-.84-.1-.25-.24-.5-.4-.65-.14-.15-.44-.3-.73-.4-.3-.1-.7-.14-1.2-.14h-1.77v4.22h1.98c.44 0 .79-.05 1.09-.2.3-.1.49-.3.69-.5.2-.2.3-.44.4-.69.04-.25.1-.55.1-.8zm.8 5.92c0-.4-.05-.75-.2-1.04-.15-.3-.3-.55-.55-.75a2.5 2.5 0 00-.89-.45c-.34-.1-.79-.15-1.33-.15h-2.08v4.62h2.52c.4 0 .74-.04 1.04-.14.3-.1.54-.25.8-.4.24-.2.39-.4.54-.7.05-.3.14-.6.14-1zM137.31 22.81v.3c0 .1-.05.15-.05.25-.05.05-.05.1-.1.15-.04.05-.1.05-.14.05h-6.29a.8.8 0 01-.44-.15c-.15-.1-.2-.3-.2-.55V11.18c0-.25.05-.45.2-.54a.8.8 0 01.44-.15h6.19c.05 0 .1 0 .15.05.05.05.1.05.1.15.04.04.04.14.04.24 0 .1.05.2.05.35 0 .1 0 .25-.05.3 0 .1-.05.15-.05.2-.04.05-.04.1-.1.15-.04.05-.1.05-.14.05h-5.1V16h4.36c.04 0 .1 0 .14.05.05.05.1.05.1.15.05.05.05.15.05.2V17.05c0 .1-.05.14-.05.2-.05.04-.05.1-.1.1s-.1.04-.14.04h-4.36v4.68h5.15c.05 0 .1 0 .15.04.04.05.1.05.1.15.04.05.04.15.04.2.05.1.05.25.05.35zM124.25 23.16l-.1.25c-.04.05-.14.1-.2.14-.1.05-.19.05-.34.05h-1.04c-.15 0-.24-.05-.34-.05-.1-.04-.15-.04-.2-.14a.38.38 0 01-.1-.25l-2.72-9.9-2.52 9.9c0 .1-.05.15-.1.25-.05.05-.1.1-.2.14-.1.05-.2.05-.35.05h-1.09c-.14 0-.24-.05-.34-.05-.1-.04-.15-.04-.2-.14a.38.38 0 01-.1-.25l-3.41-12.08c-.05-.15-.05-.3-.05-.35 0-.1 0-.15.1-.2.05-.04.14-.1.3-.1h.99c.1 0 .2.06.29.06.05.04.1.04.15.1 0 .04.05.1.05.2l2.92 10.93 2.77-10.94c0-.05.05-.15.1-.2.05-.05.1-.1.14-.1.05-.04.15-.04.3-.04h.94c.1 0 .2.05.25.05.05.04.1.04.15.1.05.04.05.1.1.2l2.96 10.93 2.87-10.94c0-.05.05-.15.05-.2 0-.05.05-.1.15-.1.05-.04.15-.04.25-.04h.44c.2 0 .35 0 .5.05.1 0 .2.04.25.1.05.04.1.1.1.2s0 .2-.05.34l-3.67 12.03zM21.87 28.1l4.55-19.24 5.94 21.77-4.9 18.14h-13.8L0 2.9h15.14l6.73 25.2zm32.25 20.67h-14.5L27.13 2.9h15.33l11.67 45.87zm.15-45.87h13.85L55.76 46.38l-6.19-24.45 4.7-19.03z" fill="#fff"/>
</svg>
