<svg width="341" height="180" fill="none" xmlns="http://www.w3.org/2000/svg"><path fill="#F5F5F5" d="M0 0h341v180H0z"/><path d="M92.65 58.03a18.35 18.35 0 0136.69 0H92.65z" fill="#8052E4"/><path d="M119.73 58.03c0-3.24 1.24-6.35 3.45-8.65a11.58 11.58 0 018.34-3.58c3.13 0 6.13 1.29 8.34 3.58 2.21 2.3 3.45 5.4 3.45 8.65h-23.59zM67.31 58.03c0-3.24 1.8-6.35 5-8.65 3.19-2.3 7.52-3.58 12.04-3.58s8.85 1.29 12.04 3.58c3.2 2.3 5 5.4 5 8.65H67.3z" fill="#8052E4"/><circle cx="206.08" cy="84.69" r="62.77" fill="#A57CFE"/><mask id="a" maskUnits="userSpaceOnUse" x="143" y="21" width="126" height="127"><circle cx="206.08" cy="84.69" r="62.77" fill="#A57CFE"/></mask><g mask="url(#a)" stroke="#B491FF"><path d="M264.44 13.02v149.4m0-149.4v149.4M255.07 13.02v149.4m0-149.4v149.4M245.7 13.02v149.4m0-149.4v149.4M236.34 13.02v149.4m0-149.4v149.4M226.97 13.02v149.4m0-149.4v149.4M217.6 13.02v149.4m0-149.4v149.4M207.96 14.73V162.4m0-147.67V162.4M199.53 13.86v149.4m0-149.4v149.4M190.16 13.86v149.4m0-149.4v149.4M180.79 13.86v149.4m0-149.4v149.4M171.42 13.86v149.4m0-149.4v149.4M162.05 13.86v149.4m0-149.4v149.4M152.68 13.86v149.4m0-149.4v149.4M143.31 13.86v149.4m0-149.4v149.4"/></g><path d="M311.36 124.5a47.57 47.57 0 00-91.56-18.2 47.57 47.57 0 00-3.62 18.2h95.18z" fill="#8052E4"/><path fill="#31D67B" d="M172.64 69.38h-112v7h112zM158.64 91.38h-112v12h112z"/><path d="M80.66 123.69V72.87m0 0l-.6 1.4m.6-1.4l.6 1.4M90.64 123.69v-39m0 0l-.5 1.07m.5-1.07l.5 1.07M70.76 123.69V91.67m0 0l-.62.88m.62-.88l.62.88M100.52 123.69v-22.97m0 0l-.62.63m.62-.63l.62.63" stroke="#000"/><path fill="#31D67B" d="M141.64 117.38h-112v19h112z"/></svg>