<svg width="341" height="180" fill="none" xmlns="http://www.w3.org/2000/svg"><path fill="#F5F5F5" d="M0 0h341v180H0z"/><path fill="#F5F5F5" d="M0 0h341v180H0z"/><path d="M99.57 86.13h43.46m0 0l-1.2-.64m1.2.64l-1.2.65M99.57 96.84h60.72m0 0l-1.66-.67m1.66.67l-1.66.67M99.57 75.47h27.38m0 0l-.75-.67m.75.67l-.75.67M99.57 107.53h19.64m0 0l-.54-.67m.54.67l-.54.67" stroke="#000" stroke-width="1.98"/><circle cx="91.97" cy="91.5" r="21.11" transform="rotate(90 91.97 91.5)" fill="#F5F5F5" stroke="#000" stroke-width="1.98"/><path fill="#31D67B" d="M190.81 69h84v84h-84z"/><path d="M200.8 89v5M198.31 87.5h68v8h-68zM198.31 106.5h68v8h-68zM198.31 125.5h68v8h-68z" stroke="#000"/><path d="M246.8 48a21 21 0 10-42 0h42z" fill="#8052E4"/><path d="M215.8 48c0-3.71-1.41-7.27-3.95-9.9a13.26 13.26 0 00-9.54-4.1c-3.58 0-7.02 1.48-9.55 4.1a14.27 14.27 0 00-3.95 9.9h27zM275.8 48c0-3.71-2.05-7.27-5.7-9.9-3.66-2.63-8.62-4.1-13.8-4.1-5.16 0-10.12 1.48-13.78 4.1-3.66 2.63-5.71 6.19-5.71 9.9h39z" fill="#8052E4"/><circle cx="63.95" cy="90.5" r="20" fill="#B491FF"/></svg>