<svg width="341" height="180" fill="none" xmlns="http://www.w3.org/2000/svg"><path fill="#F5F5F5" d="M0 0h341v180H0z"/><path fill="#A57CFE" d="M60.81 100.81h38.86v52.84H60.81zM102.67 100.81h21.67v52.84h-21.67zM127.33 100.81h14.2v52.84h-14.2zM144.51 100.81h7.47v52.84h-7.47zM154.98 100.81h7.47v52.84h-7.47zM165.44 100.81h7.47v52.84h-7.47zM175.9 100.81h3v52.84h-3zM181.88 100.81h3v52.84h-3zM187.86 100.81h2.99v52.84h-2.99z"/><path fill="#31D67B" d="M68.69 74.86h24v-48h-24z"/><path stroke="#000" d="M68.69 74.86h24v-48h-24z"/><circle r="2.5" transform="matrix(1 0 0 -1 82.69 54.86)" fill="#D4D4D4"/><circle r="2.5" transform="matrix(1 0 0 -1 92.69 54.86)" fill="#D4D4D4"/><circle r="2.5" transform="matrix(1 0 0 -1 102.69 54.86)" fill="#D4D4D4"/><circle r="2.5" transform="matrix(1 0 0 -1 112.69 54.86)" fill="#D4D4D4"/><circle r="2.5" transform="matrix(1 0 0 -1 82.69 44.86)" fill="#D4D4D4"/><circle r="2.5" transform="matrix(1 0 0 -1 92.69 44.86)" fill="#D4D4D4"/><circle r="2.5" transform="matrix(1 0 0 -1 102.69 44.86)" fill="#D4D4D4"/><circle r="2.5" transform="matrix(1 0 0 -1 112.69 44.86)" fill="#D4D4D4"/><circle r="2.5" transform="matrix(1 0 0 -1 112.69 34.86)" fill="#D4D4D4"/><circle r="2.5" transform="matrix(1 0 0 -1 102.69 34.86)" fill="#D4D4D4"/><circle r="2.5" transform="matrix(1 0 0 -1 92.69 34.86)" fill="#D4D4D4"/><circle r="2.5" transform="matrix(1 0 0 -1 82.69 34.86)" fill="#D4D4D4"/><path d="M239.69 153.65c13.5-1 39.3-11.7 40.5-40.5 0-36-27.5-45.5-41-45.5H92.69M239.89 153.65h-72.2M224.15 153.65v-46.32m0 0l.61 1.27m-.61-1.27l-.61 1.27M213.97 153.65V88.93m0 0l.64 1.77m-.64-1.77l-.63 1.77M234.28 153.65v-29.19m0 0l.63.8m-.63-.8l-.63.8M203.82 153.65v-20.94m0 0l.64.58m-.64-.58l-.63.58M236.36 66.86l-9.5-9.5M229.86 67.36l-9.5-9.5M223.36 67.36l-9.5-9.5M216.86 67.36l-9.5-9.5M210.36 67.36l-9.5-9.5M203.86 67.36l-9.5-9.5M197.36 67.36l-9.5-9.5" stroke="#000"/></svg>