<svg width="101" height="101" viewBox="0 0 101 101" fill="none" xmlns="http://www.w3.org/2000/svg">
<circle cx="50.2441" cy="50.5127" r="49" stroke="url(#paint0_linear)" stroke-width="2"/>
<g clip-path="url(#clip0)">
<path d="M68.6722 23.8708H29.8548C25.4206 23.8708 21.8125 27.4866 21.8125 31.93V70.8291C21.8125 75.2725 25.4206 78.8882 29.8548 78.8882H68.6722C73.1063 78.8882 76.7145 75.2725 76.7145 70.8291V31.93C76.7145 27.4866 73.1063 23.8708 68.6722 23.8708ZM49.3707 65.7786C41.3883 65.7786 34.8946 59.2713 34.8946 51.2721C34.8946 43.2729 41.3883 36.7656 49.3707 36.7656C57.3531 36.7656 63.8468 43.2729 63.8468 51.2721C63.8468 59.2713 57.3531 65.7786 49.3707 65.7786ZM65.4553 39.9892C62.7946 39.9892 60.6299 37.82 60.6299 35.1537C60.6299 32.4875 62.7946 30.3182 65.4553 30.3182C68.1159 30.3182 70.2806 32.4875 70.2806 35.1537C70.2806 37.82 68.1159 39.9892 65.4553 39.9892Z" fill="url(#paint1_linear)"/>
<path d="M65.4551 33.5417C64.5676 33.5417 63.8467 34.2641 63.8467 35.1536C63.8467 36.043 64.5676 36.7654 65.4551 36.7654C66.3427 36.7654 67.0636 36.043 67.0636 35.1536C67.0636 34.2641 66.3427 33.5417 65.4551 33.5417Z" fill="url(#paint2_linear)"/>
<path d="M49.3705 39.9893C43.1629 39.9893 38.1113 45.0514 38.1113 51.2721C38.1113 57.4928 43.1629 62.555 49.3705 62.555C55.5782 62.555 60.6297 57.4928 60.6297 51.2721C60.6297 45.0514 55.5782 39.9893 49.3705 39.9893Z" fill="url(#paint3_linear)"/>
</g>
<defs>
<linearGradient id="paint0_linear" x1="-16.0225" y1="110.5" x2="99.2384" y2="-38.4942" gradientUnits="userSpaceOnUse">
<stop stop-color="#AB85FF"/>
<stop offset="0.526042" stop-color="#EBA3E3"/>
<stop offset="1" stop-color="#FFDBE4"/>
</linearGradient>
<linearGradient id="paint1_linear" x1="12.8818" y1="84.3828" x2="76.3287" y2="2.53924" gradientUnits="userSpaceOnUse">
<stop stop-color="#AB85FF"/>
<stop offset="0.526042" stop-color="#EBA3E3"/>
<stop offset="1" stop-color="#FFDBE4"/>
</linearGradient>
<linearGradient id="paint2_linear" x1="63.3234" y1="37.0874" x2="67.041" y2="32.2918" gradientUnits="userSpaceOnUse">
<stop stop-color="#AB85FF"/>
<stop offset="0.526042" stop-color="#EBA3E3"/>
<stop offset="1" stop-color="#FFDBE4"/>
</linearGradient>
<linearGradient id="paint3_linear" x1="34.4483" y1="64.8086" x2="60.4715" y2="31.24" gradientUnits="userSpaceOnUse">
<stop stop-color="#AB85FF"/>
<stop offset="0.526042" stop-color="#EBA3E3"/>
<stop offset="1" stop-color="#FFDBE4"/>
</linearGradient>
<clipPath id="clip0">
<rect width="54.902" height="55.0174" fill="white" transform="translate(21.8125 23.8708)"/>
</clipPath>
</defs>
</svg>
