<svg width="17" height="17" viewBox="0 0 17 17" fill="none" xmlns="http://www.w3.org/2000/svg">
<g clip-path="url(#clip0)">
<path d="M14.5267 0.472656H2.88143C1.55119 0.472656 0.46875 1.5551 0.46875 2.88534V14.5306C0.46875 15.8608 1.55119 16.9432 2.88143 16.9432H14.5267C15.8569 16.9432 16.9393 15.8608 16.9393 14.5306V2.88534C16.9393 1.5551 15.8569 0.472656 14.5267 0.472656ZM8.73621 13.0186C6.3415 13.0186 4.39338 11.0705 4.39338 8.67578C4.39338 6.28107 6.3415 4.33295 8.73621 4.33295C11.1309 4.33295 13.079 6.28107 13.079 8.67578C13.079 11.0705 11.1309 13.0186 8.73621 13.0186ZM13.5616 5.29802C12.7634 5.29802 12.114 4.64861 12.114 3.85041C12.114 3.05222 12.7634 2.4028 13.5616 2.4028C14.3598 2.4028 15.0092 3.05222 15.0092 3.85041C15.0092 4.64861 14.3598 5.29802 13.5616 5.29802Z" fill="white"/>
<path d="M13.5607 3.36719C13.2944 3.36719 13.0781 3.58345 13.0781 3.84972C13.0781 4.116 13.2944 4.33226 13.5607 4.33226C13.8269 4.33226 14.0432 4.116 14.0432 3.84972C14.0432 3.58345 13.8269 3.36719 13.5607 3.36719Z" fill="white"/>
<path d="M8.73713 5.29688C6.87484 5.29688 5.35938 6.81234 5.35938 8.67463C5.35938 10.5369 6.87484 12.0524 8.73713 12.0524C10.5994 12.0524 12.1149 10.5369 12.1149 8.67463C12.1149 6.81234 10.5994 5.29688 8.73713 5.29688Z" fill="white"/>
</g>
<defs>
<clipPath id="clip0">
<rect width="16.4706" height="16.4706" fill="white" transform="translate(0.46875 0.472656)"/>
</clipPath>
</defs>
</svg>
