<svg width="28" height="29" fill="none" xmlns="http://www.w3.org/2000/svg">
  <g clip-path="url(#clip0)" fill="#000">
    <path d="M23.898 0H4.102A4.11 4.11 0 000 4.11V23.95a4.11 4.11 0 004.102 4.11h19.796A4.11 4.11 0 0028 23.949V4.11A4.11 4.11 0 0023.898 0zm-9.843 21.373c-4.071 0-7.383-3.319-7.383-7.398 0-4.08 3.312-7.399 7.383-7.399 4.07 0 7.383 3.32 7.383 7.399 0 4.08-3.312 7.398-7.383 7.398zM22.258 8.22a2.466 2.466 0 010-4.932 2.466 2.466 0 010 4.932z"/>
    <path d="M22.258 4.932a.822.822 0 000 1.644.822.822 0 000-1.644zM14.055 8.22c-3.166 0-5.742 2.582-5.742 5.755s2.576 5.754 5.742 5.754 5.742-2.581 5.742-5.754c0-3.173-2.576-5.754-5.742-5.754z"/>
  </g>
  <defs>
    <clipPath id="clip0">
      <path fill="#fff" d="M0 0h28v28.059H0z"/>
    </clipPath>
  </defs>
</svg>
