<svg width="100" height="100" viewBox="0 0 100 100" fill="none" xmlns="http://www.w3.org/2000/svg">
<circle cx="50" cy="49.999" r="49" stroke="black" stroke-width="2"/>
<g clip-path="url(#clip0)">
<path d="M68.428 23.3572H29.6106C25.1765 23.3572 21.5684 26.9729 21.5684 31.4164V70.3154C21.5684 74.7588 25.1765 78.3746 29.6106 78.3746H68.428C72.8622 78.3746 76.4703 74.7588 76.4703 70.3154V31.4164C76.4703 26.9729 72.8622 23.3572 68.428 23.3572ZM49.1266 65.265C41.1442 65.265 34.6505 58.7576 34.6505 50.7584C34.6505 42.7593 41.1442 36.2519 49.1266 36.2519C57.109 36.2519 63.6027 42.7593 63.6027 50.7584C63.6027 58.7576 57.109 65.265 49.1266 65.265ZM65.2111 39.4756C62.5505 39.4756 60.3858 37.3063 60.3858 34.64C60.3858 31.9738 62.5505 29.8045 65.2111 29.8045C67.8718 29.8045 70.0365 31.9738 70.0365 34.64C70.0365 37.3063 67.8718 39.4756 65.2111 39.4756Z" fill="black"/>
<path d="M65.211 33.0281C64.3234 33.0281 63.6025 33.7505 63.6025 34.6399C63.6025 35.5294 64.3234 36.2518 65.211 36.2518C66.0986 36.2518 66.8195 35.5294 66.8195 34.6399C66.8195 33.7505 66.0986 33.0281 65.211 33.0281Z" fill="black"/>
<path d="M49.1264 39.4756C42.9187 39.4756 37.8672 44.5378 37.8672 50.7584C37.8672 56.9791 42.9187 62.0413 49.1264 62.0413C55.334 62.0413 60.3856 56.9791 60.3856 50.7584C60.3856 44.5378 55.334 39.4756 49.1264 39.4756Z" fill="black"/>
</g>
<defs>
<clipPath id="clip0">
<rect width="54.902" height="55.0174" fill="white" transform="translate(21.5684 23.3572)"/>
</clipPath>
</defs>
</svg>
