<svg width="20" height="21" viewBox="0 0 20 21" fill="none" xmlns="http://www.w3.org/2000/svg">
<g clip-path="url(#clip0)">
<path d="M10 0.208496C6.12297 0.208496 2.96875 3.36271 2.96875 7.23975C2.96875 8.54967 3.3316 9.82803 4.01832 10.9371L9.59977 19.9315C9.70668 20.1038 9.89504 20.2085 10.0976 20.2085C10.0992 20.2085 10.1007 20.2085 10.1023 20.2085C10.3066 20.2069 10.4954 20.099 10.6003 19.9237L16.0395 10.8421C16.6883 9.75646 17.0312 8.5108 17.0312 7.23975C17.0312 3.36271 13.877 0.208496 10 0.208496ZM15.0338 10.2404L10.0887 18.497L5.01434 10.3197C4.44273 9.39654 4.13281 8.33154 4.13281 7.23975C4.13281 4.00889 6.76914 1.37256 10 1.37256C13.2309 1.37256 15.8633 4.00889 15.8633 7.23975C15.8633 8.29916 15.5738 9.33693 15.0338 10.2404Z" fill="black"/>
<path d="M10 3.72412C8.06148 3.72412 6.48438 5.30123 6.48438 7.23975C6.48438 9.16588 8.03582 10.7554 10 10.7554C11.9884 10.7554 13.5156 9.14471 13.5156 7.23975C13.5156 5.30123 11.9385 3.72412 10 3.72412ZM10 9.59131C8.7009 9.59131 7.64844 8.53533 7.64844 7.23975C7.64844 5.9474 8.70766 4.88818 10 4.88818C11.2923 4.88818 12.3477 5.9474 12.3477 7.23975C12.3477 8.51643 11.3197 9.59131 10 9.59131Z" fill="black"/>
</g>
<defs>
<clipPath id="clip0">
<rect width="20" height="20" fill="white" transform="translate(0 0.208496)"/>
</clipPath>
</defs>
</svg>
