<svg width="66" height="53" viewBox="0 0 66 53" fill="none" xmlns="http://www.w3.org/2000/svg">
<path d="M0.805298 0H0V52.1224H0.805298V0Z" fill="#484848"/>
<path d="M60.7534 49.0578C60.3004 49.0578 59.8977 49.0076 59.5454 48.9574C59.1427 48.9072 58.8407 48.8068 58.5387 48.7063C58.2367 48.6059 57.985 48.5055 57.7837 48.3548C57.5824 48.2544 57.4314 48.154 57.381 48.0536C57.2804 47.9531 57.23 47.8527 57.23 47.7523C57.1797 47.6016 57.1797 47.451 57.1797 47.2501C57.1797 47.0995 57.1797 46.9991 57.1797 46.8986C57.1797 46.7982 57.23 46.6978 57.23 46.6476C57.2804 46.5973 57.2803 46.5471 57.3307 46.4969C57.381 46.4467 57.4314 46.4467 57.4817 46.4467C57.5824 46.4467 57.7334 46.4969 57.8844 46.5973C58.0354 46.6978 58.287 46.8484 58.5387 46.9991C58.7904 47.1497 59.1427 47.2501 59.5454 47.4008C59.948 47.5012 60.3507 47.6016 60.9044 47.6016C61.307 47.6016 61.6594 47.5514 61.9614 47.451C62.2634 47.3506 62.5654 47.1999 62.7667 46.9991C63.0184 46.7982 63.1694 46.5973 63.27 46.2961C63.3707 46.045 63.4714 45.6935 63.4714 45.3922C63.4714 45.0407 63.3707 44.6892 63.2197 44.4381C63.0687 44.1871 62.817 43.936 62.5654 43.7351C62.2634 43.5343 61.9614 43.3334 61.609 43.1828C61.2567 43.0321 60.9044 42.8313 60.5017 42.6806C60.1494 42.53 59.7467 42.3291 59.3944 42.1283C59.042 41.9274 58.74 41.6764 58.438 41.3751C58.136 41.0738 57.9347 40.7725 57.7334 40.3708C57.5824 39.9691 57.4817 39.5171 57.4817 38.9648C57.4817 38.4124 57.5824 37.9103 57.7837 37.5086C57.985 37.0566 58.287 36.7051 58.6394 36.4039C58.9917 36.1026 59.4447 35.9017 59.8977 35.7511C60.401 35.6004 60.9044 35.5 61.5084 35.5C61.8104 35.5 62.1124 35.5502 62.4144 35.6004C62.7164 35.6506 62.968 35.7009 63.27 35.8013C63.5217 35.9017 63.7734 36.0021 63.9747 36.1026C64.176 36.203 64.327 36.3034 64.3774 36.3536C64.4277 36.4039 64.478 36.4541 64.5284 36.5043C64.5284 36.5545 64.5787 36.6047 64.5787 36.6549C64.5787 36.7051 64.5787 36.8056 64.629 36.8558V37.1571V37.5086C64.629 37.609 64.5787 37.6592 64.5787 37.7596C64.5787 37.8099 64.5284 37.8601 64.478 37.9103C64.4277 37.9605 64.3774 37.9605 64.327 37.9605C64.2767 37.9605 64.1257 37.9103 63.9747 37.8099C63.8237 37.7094 63.6224 37.609 63.3707 37.5086C63.119 37.4081 62.8674 37.2575 62.5654 37.1571C62.2634 37.0566 61.911 37.0064 61.5084 37.0064C61.156 37.0064 60.8037 37.0566 60.552 37.1571C60.3004 37.2575 60.0487 37.4081 59.8977 37.5588C59.6964 37.7094 59.5957 37.9103 59.495 38.1614C59.3944 38.3622 59.344 38.6133 59.344 38.8644C59.344 39.2159 59.4447 39.5674 59.5957 39.8184C59.7467 40.0695 59.9984 40.3206 60.3004 40.5214C60.6024 40.7223 60.9044 40.9231 61.2567 41.0738C61.609 41.2244 61.9614 41.4253 62.364 41.5759C62.7667 41.7266 63.119 41.9274 63.4714 42.1283C63.8237 42.3291 64.176 42.5802 64.4277 42.8815C64.7297 43.1828 64.931 43.4841 65.1324 43.8858C65.2834 44.2875 65.384 44.7394 65.384 45.2416C65.384 45.8441 65.2834 46.3965 65.0317 46.8986C64.78 47.4008 64.478 47.8025 64.0754 48.1038C63.6727 48.4553 63.1694 48.7063 62.666 48.857C61.9614 48.9574 61.3574 49.0578 60.7534 49.0578Z" fill="#484848"/>
<path d="M54.6101 43.9868C54.6101 44.7902 54.5094 45.4932 54.2578 46.146C54.0061 46.7988 53.7041 47.3009 53.2511 47.7528C52.7981 48.2048 52.2948 48.5061 51.6404 48.7571C51.0364 48.958 50.2814 49.1086 49.5264 49.1086C48.7714 49.1086 48.1171 49.0082 47.5131 48.8073C46.9091 48.6065 46.4058 48.3052 45.9528 47.8533C45.4998 47.4516 45.1978 46.9494 44.9461 46.2966C44.6944 45.6941 44.5938 44.9408 44.5938 44.1374V35.9023C44.5938 35.8521 44.5938 35.8019 44.6441 35.7516C44.6944 35.7014 44.6944 35.7014 44.7951 35.6512C44.8454 35.6512 44.9461 35.601 45.0467 35.601C45.1474 35.601 45.2984 35.5508 45.4997 35.5508C45.6507 35.5508 45.8018 35.5508 45.9024 35.601C46.0031 35.601 46.1038 35.6512 46.1541 35.6512C46.2044 35.6512 46.2547 35.7014 46.3051 35.7516C46.3554 35.8019 46.3554 35.8521 46.3554 35.9023V43.8863C46.3554 44.4889 46.4057 45.0413 46.5567 45.4932C46.7077 45.9451 46.9091 46.3468 47.2111 46.6481C47.5131 46.9494 47.8151 47.2005 48.2178 47.3511C48.6204 47.5018 49.0734 47.6022 49.5768 47.6022C50.0801 47.6022 50.5331 47.552 50.9358 47.4013C51.3384 47.2507 51.6908 47.0498 51.9424 46.7486C52.1941 46.4473 52.4458 46.0958 52.5968 45.6438C52.7478 45.1919 52.7981 44.6898 52.7981 44.0872V35.9023C52.7981 35.8521 52.7981 35.8019 52.8484 35.7516C52.8988 35.7014 52.8988 35.7014 52.9994 35.6512C53.0498 35.6512 53.1504 35.601 53.2511 35.601C53.3518 35.601 53.5028 35.5508 53.6538 35.5508C53.8048 35.5508 53.9558 35.5508 54.0564 35.601C54.1571 35.601 54.2578 35.6512 54.3081 35.6512C54.3584 35.6512 54.4088 35.7014 54.4591 35.7516C54.5094 35.8019 54.5094 35.8521 54.5094 35.9023V43.9868H54.6101Z" fill="#484848"/>
<path d="M42.3289 46.9996V47.3009C42.3289 47.4014 42.3289 47.4516 42.2786 47.5018C42.2786 47.552 42.2283 47.6022 42.2283 47.6524C42.1779 47.7026 42.1779 47.7529 42.0773 47.8031C42.0269 47.8533 41.8759 47.9537 41.6243 48.1044C41.4229 48.255 41.1209 48.3554 40.8189 48.5061C40.5169 48.6567 40.1143 48.7571 39.7116 48.8576C39.3089 48.958 38.8559 49.0082 38.3526 49.0082C37.4969 49.0082 36.7419 48.8576 36.0373 48.5563C35.3326 48.255 34.779 47.8533 34.2756 47.3009C33.7723 46.7486 33.42 46.0456 33.1683 45.2421C32.9166 44.4387 32.7656 43.4846 32.7656 42.4301C32.7656 41.3254 32.9166 40.3714 33.1683 39.5177C33.4703 38.6641 33.873 37.9109 34.3763 37.3585C34.8796 36.7559 35.4836 36.304 36.1883 36.0027C36.8929 35.7014 37.6983 35.5508 38.5539 35.5508C38.9566 35.5508 39.3089 35.601 39.6613 35.6512C40.0136 35.7014 40.3659 35.8019 40.6679 35.9023C40.9699 36.0027 41.2719 36.1534 41.4733 36.304C41.7249 36.4546 41.8759 36.5551 41.9766 36.6555C42.0773 36.7559 42.1276 36.8061 42.1779 36.8564C42.2283 36.9066 42.2283 36.9568 42.2283 37.007C42.2283 37.0572 42.2786 37.1576 42.2786 37.2581V37.5594V37.9109C42.2786 38.0113 42.2283 38.0615 42.2283 38.1619C42.1779 38.2121 42.1779 38.2624 42.1276 38.3126C42.0773 38.3628 42.0269 38.3628 41.9766 38.3628C41.8759 38.3628 41.7249 38.3126 41.5739 38.1619C41.4229 38.0113 41.1713 37.8606 40.9196 37.71C40.6679 37.5594 40.3156 37.4087 39.9129 37.2581C39.5103 37.1074 39.0573 37.0572 38.5036 37.0572C37.8996 37.0572 37.3963 37.1576 36.893 37.4087C36.3896 37.6598 35.987 38.0113 35.6346 38.4632C35.2823 38.9151 35.0306 39.4675 34.8293 40.1203C34.628 40.7731 34.5273 41.5263 34.5273 42.3799C34.5273 43.2336 34.628 43.9366 34.779 44.5894C34.9803 45.2421 35.232 45.7945 35.5843 46.1962C35.9366 46.6481 36.3393 46.9494 36.8426 47.2005C37.3459 47.4014 37.8996 47.552 38.5036 47.552C39.0069 47.552 39.5103 47.5018 39.8626 47.3511C40.2653 47.2005 40.6176 47.1001 40.8693 46.8992C41.1713 46.7486 41.3726 46.5979 41.5739 46.4473C41.7753 46.2966 41.8759 46.2464 41.9766 46.2464C42.0269 46.2464 42.0773 46.2464 42.0773 46.2966C42.1276 46.2966 42.1276 46.3469 42.1779 46.3971C42.1779 46.4473 42.2283 46.5477 42.2283 46.6481C42.3289 46.6984 42.3289 46.849 42.3289 46.9996Z" fill="#484848"/>
<path d="M30.7542 42.1288C30.7542 43.1833 30.6032 44.1374 30.3515 45.0413C30.0998 45.8949 29.7475 46.6481 29.2441 47.2507C28.7408 47.8533 28.1368 48.3052 27.3818 48.6567C26.6268 48.958 25.7208 49.1588 24.7141 49.1588C23.7075 49.1588 22.8518 49.0082 22.1471 48.7069C21.4425 48.4056 20.8384 48.0039 20.3351 47.4013C19.8821 46.849 19.5298 46.146 19.2781 45.2923C19.0265 44.4387 18.9258 43.4846 18.9258 42.3799C18.9258 41.3254 19.0768 40.3713 19.3284 39.5679C19.5801 38.7143 19.9828 38.0113 20.4861 37.4087C20.9895 36.8061 21.6438 36.3542 22.3988 36.0529C23.1538 35.7516 24.0598 35.5508 25.0665 35.5508C26.0228 35.5508 26.8785 35.7014 27.6335 36.0027C28.3381 36.304 28.9421 36.7057 29.4455 37.3083C29.9488 37.8606 30.3011 38.5636 30.5025 39.3671C30.6032 40.0701 30.7542 41.0241 30.7542 42.1288ZM28.8918 42.2293C28.8918 41.4761 28.8415 40.7731 28.6905 40.1203C28.5395 39.4675 28.3381 38.9151 28.0361 38.4632C27.7341 38.0113 27.3315 37.6096 26.7778 37.3585C26.2745 37.1074 25.6201 36.9568 24.8651 36.9568C24.1101 36.9568 23.4558 37.1074 22.9525 37.4087C22.4491 37.71 21.9961 38.0615 21.6941 38.5636C21.3921 39.0156 21.1405 39.6181 20.9895 40.2207C20.8385 40.8735 20.7881 41.5263 20.7881 42.2293C20.7881 42.9825 20.8385 43.7357 20.9895 44.3885C21.1405 45.0413 21.3418 45.5936 21.6438 46.0958C21.9458 46.5979 22.3485 46.9494 22.8518 47.2005C23.3551 47.4516 24.0095 47.6022 24.7645 47.6022C25.5195 47.6022 26.1738 47.4516 26.7275 47.1503C27.2308 46.849 27.6838 46.4975 27.9858 45.9953C28.2878 45.4932 28.5395 44.9408 28.6905 44.2881C28.7911 43.6353 28.8918 42.9323 28.8918 42.2293Z" fill="#484848"/>
<path d="M17.1613 36.4056V36.7571C17.1613 36.8575 17.111 36.9077 17.111 37.0081C17.0607 37.0583 17.0607 37.1086 17.0103 37.1588C16.96 37.209 16.9097 37.209 16.8593 37.209H12.0273V41.6781H16.6077C16.658 41.6781 16.7083 41.6781 16.7587 41.7283C16.809 41.7283 16.8593 41.7785 16.8593 41.8287C16.9097 41.8789 16.9097 41.9793 16.9097 42.0296V42.3811V42.7326C16.9097 42.833 16.8593 42.8832 16.8593 42.9334C16.809 42.9836 16.809 43.0338 16.7587 43.0841C16.7083 43.1343 16.658 43.1343 16.6077 43.1343H12.0273V48.6578C12.0273 48.7081 12.0273 48.7583 11.977 48.8085C11.9266 48.8587 11.9266 48.9089 11.826 48.9089C11.7756 48.9089 11.675 48.9591 11.5743 48.9591C11.4736 48.9591 11.3226 49.0093 11.1213 49.0093C10.9703 49.0093 10.8193 49.0093 10.7186 48.9591C10.618 48.9591 10.5173 48.9089 10.467 48.9089C10.4166 48.9089 10.3663 48.8587 10.316 48.8085C10.2656 48.7583 10.2656 48.7081 10.2656 48.6578V36.3553C10.2656 36.1043 10.316 35.9034 10.467 35.803C10.618 35.7026 10.769 35.6523 10.92 35.6523H16.8593C16.9097 35.6523 16.96 35.6523 17.0103 35.7026C17.0607 35.7528 17.111 35.7528 17.111 35.8532C17.1613 35.9034 17.1613 36.0038 17.1613 36.1043C17.1613 36.2047 17.1613 36.3051 17.1613 36.4056Z" fill="#484848"/>
<path d="M47.8166 19.9877C47.8166 20.3894 47.7662 20.7911 47.6656 21.1426C47.5649 21.4941 47.4139 21.7954 47.2126 22.0967C47.0112 22.398 46.8099 22.5989 46.5079 22.8499C46.2562 23.0508 45.9542 23.2516 45.6019 23.4023C45.2496 23.5529 44.8972 23.6534 44.4946 23.7036C44.0919 23.7538 43.6892 23.804 43.1859 23.804H39.7129C39.5619 23.804 39.4109 23.7538 39.2599 23.6534C39.1089 23.5529 39.0586 23.3521 39.0586 23.101V11.3007C39.0586 11.0496 39.1089 10.8487 39.2599 10.7483C39.4109 10.6479 39.5619 10.5977 39.7129 10.5977H42.7329C43.5382 10.5977 44.1926 10.6479 44.6959 10.7985C45.1992 10.9492 45.6019 11.15 45.9542 11.4513C46.3066 11.7526 46.5582 12.1041 46.7092 12.5058C46.8602 12.9075 46.9609 13.4097 46.9609 13.9118C46.9609 14.2131 46.9106 14.5144 46.8602 14.8157C46.8099 15.1169 46.6589 15.368 46.5079 15.6191C46.3569 15.8702 46.1556 16.071 45.9542 16.2719C45.7529 16.4727 45.5012 16.6234 45.1992 16.7238C45.5516 16.774 45.9039 16.9246 46.2059 17.0753C46.5079 17.2761 46.8099 17.477 47.0112 17.7783C47.2629 18.0796 47.4139 18.3809 47.5649 18.7826C47.7159 19.1341 47.8166 19.5358 47.8166 19.9877ZM45.1489 14.1127C45.1489 13.8114 45.0986 13.5101 44.9979 13.259C44.8972 13.0079 44.7462 12.7569 44.5952 12.6062C44.4442 12.4556 44.1422 12.3049 43.8402 12.2045C43.5382 12.1041 43.1356 12.0539 42.6323 12.0539H40.8203V16.3221H42.8336C43.2866 16.3221 43.6389 16.2719 43.9409 16.1212C44.2429 16.0208 44.4442 15.8199 44.6456 15.6191C44.8469 15.4182 44.9476 15.1672 45.0482 14.9161C45.0986 14.665 45.1489 14.3637 45.1489 14.1127ZM45.9542 20.0881C45.9542 19.6864 45.9039 19.3349 45.7529 19.0336C45.6019 18.7324 45.4509 18.4813 45.1992 18.2804C44.9476 18.0796 44.6456 17.9289 44.2932 17.8285C43.9409 17.7281 43.4879 17.6779 42.9343 17.6779H40.8203V22.3478H43.3872C43.7899 22.3478 44.1422 22.2976 44.4442 22.1971C44.7462 22.0967 44.9979 21.9461 45.2496 21.7954C45.5012 21.5946 45.6522 21.3937 45.8032 21.0924C45.8536 20.7911 45.9542 20.4899 45.9542 20.0881Z" fill="#484848"/>
<path d="M36.1886 23.0508V23.3521C36.1886 23.4525 36.1382 23.5027 36.1382 23.6031C36.0879 23.6534 36.0879 23.7036 36.0376 23.7538C35.9872 23.804 35.9369 23.804 35.8866 23.804H29.4942C29.3432 23.804 29.1922 23.7538 29.0412 23.6534C28.8902 23.5529 28.8398 23.3521 28.8398 23.101V11.3007C28.8398 11.0496 28.8902 10.8487 29.0412 10.7483C29.1922 10.6479 29.3432 10.5977 29.4942 10.5977H35.7859C35.8362 10.5977 35.8866 10.5977 35.9369 10.6479C35.9872 10.6981 36.0376 10.6981 36.0376 10.7985C36.0879 10.8487 36.0879 10.9492 36.0879 11.0496C36.0879 11.15 36.1382 11.2504 36.1382 11.4011C36.1382 11.5015 36.1382 11.6522 36.0879 11.7024C36.0879 11.8028 36.0376 11.853 36.0376 11.9032C35.9872 11.9534 35.9872 12.0037 35.9369 12.0539C35.8866 12.1041 35.8362 12.1041 35.7859 12.1041H30.6015V16.1714H35.0309C35.0812 16.1714 35.1316 16.1714 35.1819 16.2216C35.2322 16.2719 35.2826 16.2719 35.2826 16.3723C35.3329 16.4225 35.3329 16.5229 35.3329 16.5731V16.9246V17.2259C35.3329 17.3264 35.2826 17.3766 35.2826 17.4268C35.2322 17.477 35.2322 17.5272 35.1819 17.5272C35.1316 17.5272 35.0812 17.5774 35.0309 17.5774H30.6015V22.2976H35.8362C35.8866 22.2976 35.9369 22.2976 35.9872 22.3478C36.0376 22.398 36.0879 22.398 36.0879 22.4984C36.1382 22.5486 36.1382 22.6491 36.1382 22.6993C36.1886 22.7997 36.1886 22.9504 36.1886 23.0508Z" fill="#484848"/>
<path d="M22.9021 23.4017C22.8518 23.5022 22.8518 23.5524 22.8015 23.6528C22.7512 23.703 22.6505 23.7532 22.6001 23.8034C22.4995 23.8536 22.3988 23.8537 22.2478 23.8537C22.0968 23.8537 21.9458 23.8537 21.7445 23.8537C21.5431 23.8537 21.3418 23.8537 21.1908 23.8537C21.0398 23.8537 20.9391 23.8034 20.8385 23.8034C20.7378 23.7532 20.6875 23.7532 20.6371 23.6528C20.5868 23.6026 20.5365 23.5022 20.5365 23.4017L17.7681 13.4091L15.2011 23.4017C15.2011 23.5022 15.1508 23.5524 15.1004 23.6528C15.0501 23.703 14.9998 23.7532 14.8991 23.8034C14.7984 23.8536 14.6978 23.8537 14.5468 23.8537C14.3958 23.8537 14.2448 23.8537 13.9931 23.8537C13.7918 23.8537 13.5904 23.8537 13.4394 23.8537C13.2884 23.8537 13.1877 23.8034 13.0871 23.8034C12.9864 23.7532 12.9361 23.7532 12.8857 23.6528C12.8354 23.6026 12.7851 23.5022 12.7851 23.4017L9.31206 11.1997C9.26172 11.049 9.26172 10.8984 9.26172 10.8482C9.26172 10.7477 9.26172 10.6975 9.36239 10.6473C9.41273 10.5971 9.5134 10.5469 9.6644 10.5469H10.1677H10.6711C10.7717 10.5469 10.8724 10.5971 10.9731 10.5971C11.0234 10.6473 11.0737 10.6473 11.1241 10.6975C11.1241 10.7477 11.1744 10.7979 11.1744 10.8984L14.1441 21.9455L16.9628 10.8984C16.9628 10.8482 17.0131 10.7477 17.0634 10.6975C17.1138 10.6473 17.1641 10.5971 17.2144 10.5971C17.2648 10.5469 17.3655 10.5469 17.5165 10.5469H18.0198H18.4728C18.5735 10.5469 18.6741 10.5971 18.7245 10.5971C18.7748 10.6473 18.8251 10.6473 18.8755 10.6975C18.9258 10.7477 18.9258 10.7979 18.9761 10.8984L21.9961 21.9455L24.9155 10.8984C24.9155 10.8482 24.9658 10.7477 24.9658 10.6975C24.9658 10.6473 25.0162 10.5971 25.1168 10.5971C25.1672 10.5469 25.2678 10.5469 25.3685 10.5469H25.8215C26.0228 10.5469 26.1738 10.5469 26.3248 10.5971C26.4255 10.5971 26.5262 10.6473 26.5765 10.6975C26.6268 10.7477 26.6772 10.7979 26.6772 10.8984C26.6772 10.9988 26.6772 11.0992 26.6268 11.2499L22.9021 23.4017Z" fill="#484848"/>
</svg>
