<svg width="25" height="26" viewBox="0 0 25 26" fill="none" xmlns="http://www.w3.org/2000/svg">
<g clip-path="url(#clip0)">
<path d="M24.6945 23.7219L17.5852 16.6126C18.9623 14.9116 19.7915 12.7501 19.7915 10.396C19.7915 4.9398 15.3519 0.500244 9.8957 0.500244C4.43951 0.500244 0 4.93975 0 10.3959C0 15.8521 4.43956 20.2917 9.89575 20.2917C12.2499 20.2917 14.4113 19.4626 16.1123 18.0855L23.2216 25.1948C23.4248 25.3979 23.6914 25.5 23.9581 25.5C24.2248 25.5 24.4915 25.3979 24.6946 25.1948C25.1019 24.7875 25.1019 24.1292 24.6945 23.7219ZM9.89575 18.2084C5.58745 18.2084 2.08333 14.7043 2.08333 10.3959C2.08333 6.08764 5.58745 2.58352 9.89575 2.58352C14.2041 2.58352 17.7082 6.08764 17.7082 10.3959C17.7082 14.7043 14.204 18.2084 9.89575 18.2084Z" fill="black"/>
</g>
<defs>
<clipPath id="clip0">
<rect width="25" height="25" fill="white" transform="translate(0 0.5)"/>
</clipPath>
</defs>
</svg>
