<svg width="20" height="16" viewBox="0 0 20 16" fill="none" xmlns="http://www.w3.org/2000/svg">
<path d="M18.125 0.208496H1.87501C0.841067 0.208496 0 1.04956 0 2.08351V13.3335C0 14.3674 0.841067 15.2085 1.87501 15.2085H18.125C19.1589 15.2085 20 14.3674 20 13.3335V2.08351C20 1.04956 19.1589 0.208496 18.125 0.208496ZM18.125 1.45849C18.2099 1.45849 18.2907 1.47611 18.3645 1.50688L10 8.75648L1.63542 1.50688C1.70927 1.47615 1.79005 1.45849 1.87497 1.45849H18.125ZM18.125 13.9585H1.87501C1.53017 13.9585 1.24999 13.6783 1.24999 13.3335V2.82751L9.59045 10.0559C9.70826 10.1578 9.85413 10.2085 10 10.2085C10.1459 10.2085 10.2917 10.1579 10.4096 10.0559L18.75 2.82751V13.3335C18.75 13.6783 18.4698 13.9585 18.125 13.9585Z" fill="black"/>
</svg>
