<svg width="106" height="106" fill="none" xmlns="http://www.w3.org/2000/svg">
  <mask id="a" fill="#fff">
    <path d="M99.09 41.48h-8.63a39 39 0 00-2.82-6.82l6.1-6.1a6.87 6.87 0 002.02-4.89c0-1.84-.72-3.58-2.03-4.89l-6.52-6.52a7.09 7.09 0 00-9.78 0l-6.1 6.1a39.11 39.11 0 00-6.8-2.82V6.9c0-3.8-3.11-6.91-6.92-6.91h-9.22a6.92 6.92 0 00-6.91 6.91v8.63a39.18 39.18 0 00-6.82 2.82l-6.1-6.1a6.92 6.92 0 00-9.77 0l-6.53 6.53a6.93 6.93 0 000 9.78l6.1 6.1a39.11 39.11 0 00-2.82 6.81H6.9A6.92 6.92 0 000 48.4v9.22c0 3.81 3.1 6.91 6.91 6.91h8.63a39.18 39.18 0 002.82 6.82l-6.1 6.1a6.92 6.92 0 000 9.78l6.53 6.52a6.93 6.93 0 009.78 0l6.1-6.1a39.11 39.11 0 006.81 2.82v8.63c0 3.8 3.1 6.91 6.91 6.91h9.22c3.81 0 6.91-3.1 6.91-6.91v-8.63a39.11 39.11 0 006.82-2.82l6.1 6.1a7.09 7.09 0 009.78 0l6.52-6.52a6.87 6.87 0 002.02-4.9c0-1.85-.72-3.58-2.02-4.88l-6.1-6.1a39.11 39.11 0 002.82-6.82h8.63c3.8 0 6.91-3.1 6.91-6.91v-9.22c0-3.81-3.1-6.91-6.91-6.91zm2.3 16.13a2.3 2.3 0 01-2.3 2.3H88.72a2.3 2.3 0 00-2.23 1.73 34.64 34.64 0 01-3.7 8.92 2.3 2.3 0 00.36 2.8l7.32 7.33c.44.44.68 1.02.68 1.64 0 .61-.24 1.2-.68 1.63l-6.52 6.52c-.86.86-2.4.86-3.26 0l-7.33-7.33a2.3 2.3 0 00-2.8-.35 34.51 34.51 0 01-8.92 3.69 2.3 2.3 0 00-1.73 2.23v10.37a2.3 2.3 0 01-2.3 2.3h-9.22a2.3 2.3 0 01-2.3-2.3V88.72a2.3 2.3 0 00-1.73-2.23 34.55 34.55 0 01-8.92-3.7 2.3 2.3 0 00-2.8.35l-7.33 7.34c-.9.9-2.37.9-3.27 0l-6.52-6.53a2.3 2.3 0 010-3.26l7.33-7.33c.74-.74.89-1.9.35-2.8a34.6 34.6 0 01-3.69-8.92 2.3 2.3 0 00-2.23-1.73H6.91a2.3 2.3 0 01-2.3-2.3v-9.22a2.3 2.3 0 012.3-2.3h10.37a2.3 2.3 0 002.23-1.73 34.55 34.55 0 013.7-8.92 2.3 2.3 0 00-.36-2.8l-7.33-7.33c-.9-.9-.9-2.36 0-3.26l6.53-6.53c.9-.9 2.36-.9 3.26 0l7.33 7.33c.74.75 1.9.9 2.8.36a34.6 34.6 0 018.92-3.7 2.3 2.3 0 001.73-2.23V6.91a2.3 2.3 0 012.3-2.3h9.22a2.3 2.3 0 012.3 2.3v10.37a2.3 2.3 0 001.73 2.23c3.15.82 6.15 2.06 8.92 3.7.9.53 2.06.39 2.8-.36l7.33-7.33c.87-.87 2.4-.86 3.26 0l6.53 6.53c.43.43.67 1.01.67 1.63 0 .61-.24 1.2-.67 1.63l-7.33 7.33a2.3 2.3 0 00-.36 2.8 34.6 34.6 0 013.7 8.92 2.3 2.3 0 002.23 1.73h10.37a2.3 2.3 0 012.3 2.3v9.22z"/>
  </mask>
  <path d="M99.09 41.48h-8.63a39 39 0 00-2.82-6.82l6.1-6.1a6.87 6.87 0 002.02-4.89c0-1.84-.72-3.58-2.03-4.89l-6.52-6.52a7.09 7.09 0 00-9.78 0l-6.1 6.1a39.11 39.11 0 00-6.8-2.82V6.9c0-3.8-3.11-6.91-6.92-6.91h-9.22a6.92 6.92 0 00-6.91 6.91v8.63a39.18 39.18 0 00-6.82 2.82l-6.1-6.1a6.92 6.92 0 00-9.77 0l-6.53 6.53a6.93 6.93 0 000 9.78l6.1 6.1a39.11 39.11 0 00-2.82 6.81H6.9A6.92 6.92 0 000 48.4v9.22c0 3.81 3.1 6.91 6.91 6.91h8.63a39.18 39.18 0 002.82 6.82l-6.1 6.1a6.92 6.92 0 000 9.78l6.53 6.52a6.93 6.93 0 009.78 0l6.1-6.1a39.11 39.11 0 006.81 2.82v8.63c0 3.8 3.1 6.91 6.91 6.91h9.22c3.81 0 6.91-3.1 6.91-6.91v-8.63a39.11 39.11 0 006.82-2.82l6.1 6.1a7.09 7.09 0 009.78 0l6.52-6.52a6.87 6.87 0 002.02-4.9c0-1.85-.72-3.58-2.02-4.88l-6.1-6.1a39.11 39.11 0 002.82-6.82h8.63c3.8 0 6.91-3.1 6.91-6.91v-9.22c0-3.81-3.1-6.91-6.91-6.91zm2.3 16.13a2.3 2.3 0 01-2.3 2.3H88.72a2.3 2.3 0 00-2.23 1.73 34.64 34.64 0 01-3.7 8.92 2.3 2.3 0 00.36 2.8l7.32 7.33c.44.44.68 1.02.68 1.64 0 .61-.24 1.2-.68 1.63l-6.52 6.52c-.86.86-2.4.86-3.26 0l-7.33-7.33a2.3 2.3 0 00-2.8-.35 34.51 34.51 0 01-8.92 3.69 2.3 2.3 0 00-1.73 2.23v10.37a2.3 2.3 0 01-2.3 2.3h-9.22a2.3 2.3 0 01-2.3-2.3V88.72a2.3 2.3 0 00-1.73-2.23 34.55 34.55 0 01-8.92-3.7 2.3 2.3 0 00-2.8.35l-7.33 7.34c-.9.9-2.37.9-3.27 0l-6.52-6.53a2.3 2.3 0 010-3.26l7.33-7.33c.74-.74.89-1.9.35-2.8a34.6 34.6 0 01-3.69-8.92 2.3 2.3 0 00-2.23-1.73H6.91a2.3 2.3 0 01-2.3-2.3v-9.22a2.3 2.3 0 012.3-2.3h10.37a2.3 2.3 0 002.23-1.73 34.55 34.55 0 013.7-8.92 2.3 2.3 0 00-.36-2.8l-7.33-7.33c-.9-.9-.9-2.36 0-3.26l6.53-6.53c.9-.9 2.36-.9 3.26 0l7.33 7.33c.74.75 1.9.9 2.8.36a34.6 34.6 0 018.92-3.7 2.3 2.3 0 001.73-2.23V6.91a2.3 2.3 0 012.3-2.3h9.22a2.3 2.3 0 012.3 2.3v10.37a2.3 2.3 0 001.73 2.23c3.15.82 6.15 2.06 8.92 3.7.9.53 2.06.39 2.8-.36l7.33-7.33c.87-.87 2.4-.86 3.26 0l6.53 6.53c.43.43.67 1.01.67 1.63 0 .61-.24 1.2-.67 1.63l-7.33 7.33a2.3 2.3 0 00-.36 2.8 34.6 34.6 0 013.7 8.92 2.3 2.3 0 002.23 1.73h10.37a2.3 2.3 0 012.3 2.3v9.22z" fill="#000" stroke="#F5F5F5" stroke-width="4" mask="url(#a)"/>
  <path d="M33.26 53A19.76 19.76 0 0153 33.26 19.76 19.76 0 0172.74 53 19.76 19.76 0 0153 72.74 19.76 19.76 0 0133.26 53zm2.61 0c0 9.45 7.68 17.13 17.13 17.13S70.13 62.45 70.13 53 62.45 35.87 53 35.87A17.15 17.15 0 0035.87 53z" fill="#000" stroke="#F5F5F5" stroke-width="2"/>
</svg>
