<svg width="191" height="191" fill="none" xmlns="http://www.w3.org/2000/svg">
  <mask id="b" maskUnits="userSpaceOnUse" x="0" y="0" width="191" height="191">
    <mask id="a" fill="#fff">
      <path d="M178.54 74.74H163a70.29 70.29 0 00-5.09-12.28l10.99-10.99a12.38 12.38 0 003.64-8.81c0-3.33-1.3-6.46-3.64-8.81L157.15 22.1c-4.7-4.7-12.92-4.71-17.62 0l-10.99 10.98A70.44 70.44 0 00116.26 28V12.46C116.26 5.59 110.67 0 103.8 0H87.2a12.47 12.47 0 00-12.46 12.46V28a70.6 70.6 0 00-12.28 5.08L51.47 22.1a12.48 12.48 0 00-17.62 0L22.09 33.85a12.48 12.48 0 000 17.62l10.99 11a70.46 70.46 0 00-5.09 12.27H12.46A12.47 12.47 0 000 87.2v16.6c0 6.87 5.59 12.46 12.46 12.46H28a70.57 70.57 0 005.08 12.28L22.1 139.53a12.47 12.47 0 000 17.62l11.75 11.76a12.48 12.48 0 0017.62 0l11-10.99a70.46 70.46 0 0012.27 5.09v15.53c0 6.87 5.6 12.46 12.46 12.46h16.6c6.88 0 12.47-5.59 12.47-12.46V163a70.45 70.45 0 0012.28-5.09l10.98 11c4.7 4.7 12.93 4.69 17.62 0l11.75-11.76a12.38 12.38 0 003.65-8.8c0-3.34-1.3-6.47-3.65-8.82l-10.98-10.99a70.44 70.44 0 005.08-12.28h15.54c6.87 0 12.46-5.59 12.46-12.46V87.2c0-6.87-5.59-12.46-12.46-12.46zm4.16 29.06a4.16 4.16 0 01-4.16 4.16h-18.68a4.15 4.15 0 00-4.02 3.11 62.36 62.36 0 01-6.66 16.08c-.96 1.63-.7 3.7.64 5.04l13.2 13.21a4.13 4.13 0 011.22 2.94c0 1.12-.44 2.16-1.22 2.94l-11.75 11.75a4.28 4.28 0 01-5.88 0l-13.2-13.2a4.16 4.16 0 00-5.05-.64c-5 2.95-10.4 5.19-16.07 6.65a4.15 4.15 0 00-3.11 4.02v18.68a4.16 4.16 0 01-4.16 4.16H87.2a4.16 4.16 0 01-4.16-4.16v-18.68c0-1.9-1.28-3.55-3.11-4.02a62.2 62.2 0 01-16.08-6.66 4.15 4.15 0 00-5.05.64l-13.2 13.2a4.17 4.17 0 01-5.88 0l-11.75-11.74a4.16 4.16 0 010-5.88l13.2-13.2a4.15 4.15 0 00.64-5.05c-2.95-5-5.19-10.4-6.65-16.08a4.15 4.15 0 00-4.02-3.11H12.46a4.16 4.16 0 01-4.16-4.16V87.2a4.16 4.16 0 014.16-4.16h18.68c1.9 0 3.55-1.28 4.02-3.11a62.25 62.25 0 016.66-16.08c.96-1.63.7-3.7-.64-5.04l-13.2-13.2a4.16 4.16 0 010-5.89l11.74-11.75a4.16 4.16 0 015.88 0l13.2 13.2a4.14 4.14 0 005.05.65c5-2.95 10.4-5.2 16.08-6.66a4.15 4.15 0 003.11-4.02V12.46A4.16 4.16 0 0187.2 8.3h16.6c2.3 0 4.16 1.87 4.16 4.16v18.68c0 1.9 1.28 3.55 3.11 4.02a62.2 62.2 0 0116.07 6.66c1.64.96 3.72.7 5.05-.64l13.2-13.2a4.26 4.26 0 015.89 0l11.75 11.74a4.13 4.13 0 011.2 2.94c0 1.12-.42 2.16-1.2 2.94l-13.2 13.2a4.15 4.15 0 00-.65 5.05c2.96 5 5.2 10.4 6.66 16.08a4.14 4.14 0 004.02 3.11h18.68c2.3 0 4.16 1.87 4.16 4.16v16.6z"/>
    </mask>
    <path d="M178.54 74.74H163a70.29 70.29 0 00-5.09-12.28l10.99-10.99a12.38 12.38 0 003.64-8.81c0-3.33-1.3-6.46-3.64-8.81L157.15 22.1c-4.7-4.7-12.92-4.71-17.62 0l-10.99 10.98A70.44 70.44 0 00116.26 28V12.46C116.26 5.59 110.67 0 103.8 0H87.2a12.47 12.47 0 00-12.46 12.46V28a70.6 70.6 0 00-12.28 5.08L51.47 22.1a12.48 12.48 0 00-17.62 0L22.09 33.85a12.48 12.48 0 000 17.62l10.99 11a70.46 70.46 0 00-5.09 12.27H12.46A12.47 12.47 0 000 87.2v16.6c0 6.87 5.59 12.46 12.46 12.46H28a70.57 70.57 0 005.08 12.28L22.1 139.53a12.47 12.47 0 000 17.62l11.75 11.76a12.48 12.48 0 0017.62 0l11-10.99a70.46 70.46 0 0012.27 5.09v15.53c0 6.87 5.6 12.46 12.46 12.46h16.6c6.88 0 12.47-5.59 12.47-12.46V163a70.45 70.45 0 0012.28-5.09l10.98 11c4.7 4.7 12.93 4.69 17.62 0l11.75-11.76a12.38 12.38 0 003.65-8.8c0-3.34-1.3-6.47-3.65-8.82l-10.98-10.99a70.44 70.44 0 005.08-12.28h15.54c6.87 0 12.46-5.59 12.46-12.46V87.2c0-6.87-5.59-12.46-12.46-12.46zm4.16 29.06a4.16 4.16 0 01-4.16 4.16h-18.68a4.15 4.15 0 00-4.02 3.11 62.36 62.36 0 01-6.66 16.08c-.96 1.63-.7 3.7.64 5.04l13.2 13.21a4.13 4.13 0 011.22 2.94c0 1.12-.44 2.16-1.22 2.94l-11.75 11.75a4.28 4.28 0 01-5.88 0l-13.2-13.2a4.16 4.16 0 00-5.05-.64c-5 2.95-10.4 5.19-16.07 6.65a4.15 4.15 0 00-3.11 4.02v18.68a4.16 4.16 0 01-4.16 4.16H87.2a4.16 4.16 0 01-4.16-4.16v-18.68c0-1.9-1.28-3.55-3.11-4.02a62.2 62.2 0 01-16.08-6.66 4.15 4.15 0 00-5.05.64l-13.2 13.2a4.17 4.17 0 01-5.88 0l-11.75-11.74a4.16 4.16 0 010-5.88l13.2-13.2a4.15 4.15 0 00.64-5.05c-2.95-5-5.19-10.4-6.65-16.08a4.15 4.15 0 00-4.02-3.11H12.46a4.16 4.16 0 01-4.16-4.16V87.2a4.16 4.16 0 014.16-4.16h18.68c1.9 0 3.55-1.28 4.02-3.11a62.25 62.25 0 016.66-16.08c.96-1.63.7-3.7-.64-5.04l-13.2-13.2a4.16 4.16 0 010-5.89l11.74-11.75a4.16 4.16 0 015.88 0l13.2 13.2a4.14 4.14 0 005.05.65c5-2.95 10.4-5.2 16.08-6.66a4.15 4.15 0 003.11-4.02V12.46A4.16 4.16 0 0187.2 8.3h16.6c2.3 0 4.16 1.87 4.16 4.16v18.68c0 1.9 1.28 3.55 3.11 4.02a62.2 62.2 0 0116.07 6.66c1.64.96 3.72.7 5.05-.64l13.2-13.2a4.26 4.26 0 015.89 0l11.75 11.74a4.13 4.13 0 011.2 2.94c0 1.12-.42 2.16-1.2 2.94l-13.2 13.2a4.15 4.15 0 00-.65 5.05c2.96 5 5.2 10.4 6.66 16.08a4.14 4.14 0 004.02 3.11h18.68c2.3 0 4.16 1.87 4.16 4.16v16.6z" fill="#000" stroke="#F5F5F5" stroke-width="10" mask="url(#a)"/>
    <path d="M60.63 95.5A34.92 34.92 0 0195.5 60.63a34.91 34.91 0 0134.87 34.87 34.91 34.91 0 01-34.87 34.87A34.92 34.92 0 0160.63 95.5zm3.3 0a31.6 31.6 0 0031.57 31.57 31.6 31.6 0 0031.56-31.57A31.6 31.6 0 0095.5 63.94 31.6 31.6 0 0063.93 95.5z" fill="#000" stroke="#F5F5F5" stroke-width="5"/>
  </mask>
  <g mask="url(#b)">
    <circle cx="95.83" cy="95.83" fill="#A57CFE" r="121.61"/>
  </g>
  <mask id="d" maskUnits="userSpaceOnUse" x="0" y="0" width="191" height="191">
    <mask id="c" fill="#fff">
      <path d="M178.54 74.74H163a70.29 70.29 0 00-5.09-12.28l10.99-10.99a12.38 12.38 0 003.64-8.81c0-3.33-1.3-6.46-3.64-8.81L157.15 22.1c-4.7-4.7-12.92-4.71-17.62 0l-10.99 10.98A70.44 70.44 0 00116.26 28V12.46C116.26 5.59 110.67 0 103.8 0H87.2a12.47 12.47 0 00-12.46 12.46V28a70.6 70.6 0 00-12.28 5.08L51.47 22.1a12.48 12.48 0 00-17.62 0L22.09 33.85a12.48 12.48 0 000 17.62l10.99 11a70.46 70.46 0 00-5.09 12.27H12.46A12.47 12.47 0 000 87.2v16.6c0 6.87 5.59 12.46 12.46 12.46H28a70.57 70.57 0 005.08 12.28L22.1 139.53a12.47 12.47 0 000 17.62l11.75 11.76a12.48 12.48 0 0017.62 0l11-10.99a70.46 70.46 0 0012.27 5.09v15.53c0 6.87 5.6 12.46 12.46 12.46h16.6c6.88 0 12.47-5.59 12.47-12.46V163a70.45 70.45 0 0012.28-5.09l10.98 11c4.7 4.7 12.93 4.69 17.62 0l11.75-11.76a12.38 12.38 0 003.65-8.8c0-3.34-1.3-6.47-3.65-8.82l-10.98-10.99a70.44 70.44 0 005.08-12.28h15.54c6.87 0 12.46-5.59 12.46-12.46V87.2c0-6.87-5.59-12.46-12.46-12.46zm4.16 29.06a4.16 4.16 0 01-4.16 4.16h-18.68a4.15 4.15 0 00-4.02 3.11 62.36 62.36 0 01-6.66 16.08c-.96 1.63-.7 3.7.64 5.04l13.2 13.21a4.13 4.13 0 011.22 2.94c0 1.12-.44 2.16-1.22 2.94l-11.75 11.75a4.28 4.28 0 01-5.88 0l-13.2-13.2a4.16 4.16 0 00-5.05-.64c-5 2.95-10.4 5.19-16.07 6.65a4.15 4.15 0 00-3.11 4.02v18.68a4.16 4.16 0 01-4.16 4.16H87.2a4.16 4.16 0 01-4.16-4.16v-18.68c0-1.9-1.28-3.55-3.11-4.02a62.2 62.2 0 01-16.08-6.66 4.15 4.15 0 00-5.05.64l-13.2 13.2a4.17 4.17 0 01-5.88 0l-11.75-11.74a4.16 4.16 0 010-5.88l13.2-13.2a4.15 4.15 0 00.64-5.05c-2.95-5-5.19-10.4-6.65-16.08a4.15 4.15 0 00-4.02-3.11H12.46a4.16 4.16 0 01-4.16-4.16V87.2a4.16 4.16 0 014.16-4.16h18.68c1.9 0 3.55-1.28 4.02-3.11a62.25 62.25 0 016.66-16.08c.96-1.63.7-3.7-.64-5.04l-13.2-13.2a4.16 4.16 0 010-5.89l11.74-11.75a4.16 4.16 0 015.88 0l13.2 13.2a4.14 4.14 0 005.05.65c5-2.95 10.4-5.2 16.08-6.66a4.15 4.15 0 003.11-4.02V12.46A4.16 4.16 0 0187.2 8.3h16.6c2.3 0 4.16 1.87 4.16 4.16v18.68c0 1.9 1.28 3.55 3.11 4.02a62.2 62.2 0 0116.07 6.66c1.64.96 3.72.7 5.05-.64l13.2-13.2a4.26 4.26 0 015.89 0l11.75 11.74a4.13 4.13 0 011.2 2.94c0 1.12-.42 2.16-1.2 2.94l-13.2 13.2a4.15 4.15 0 00-.65 5.05c2.96 5 5.2 10.4 6.66 16.08a4.14 4.14 0 004.02 3.11h18.68c2.3 0 4.16 1.87 4.16 4.16v16.6z"/>
    </mask>
    <path d="M178.54 74.74H163a70.29 70.29 0 00-5.09-12.28l10.99-10.99a12.38 12.38 0 003.64-8.81c0-3.33-1.3-6.46-3.64-8.81L157.15 22.1c-4.7-4.7-12.92-4.71-17.62 0l-10.99 10.98A70.44 70.44 0 00116.26 28V12.46C116.26 5.59 110.67 0 103.8 0H87.2a12.47 12.47 0 00-12.46 12.46V28a70.6 70.6 0 00-12.28 5.08L51.47 22.1a12.48 12.48 0 00-17.62 0L22.09 33.85a12.48 12.48 0 000 17.62l10.99 11a70.46 70.46 0 00-5.09 12.27H12.46A12.47 12.47 0 000 87.2v16.6c0 6.87 5.59 12.46 12.46 12.46H28a70.57 70.57 0 005.08 12.28L22.1 139.53a12.47 12.47 0 000 17.62l11.75 11.76a12.48 12.48 0 0017.62 0l11-10.99a70.46 70.46 0 0012.27 5.09v15.53c0 6.87 5.6 12.46 12.46 12.46h16.6c6.88 0 12.47-5.59 12.47-12.46V163a70.45 70.45 0 0012.28-5.09l10.98 11c4.7 4.7 12.93 4.69 17.62 0l11.75-11.76a12.38 12.38 0 003.65-8.8c0-3.34-1.3-6.47-3.65-8.82l-10.98-10.99a70.44 70.44 0 005.08-12.28h15.54c6.87 0 12.46-5.59 12.46-12.46V87.2c0-6.87-5.59-12.46-12.46-12.46zm4.16 29.06a4.16 4.16 0 01-4.16 4.16h-18.68a4.15 4.15 0 00-4.02 3.11 62.36 62.36 0 01-6.66 16.08c-.96 1.63-.7 3.7.64 5.04l13.2 13.21a4.13 4.13 0 011.22 2.94c0 1.12-.44 2.16-1.22 2.94l-11.75 11.75a4.28 4.28 0 01-5.88 0l-13.2-13.2a4.16 4.16 0 00-5.05-.64c-5 2.95-10.4 5.19-16.07 6.65a4.15 4.15 0 00-3.11 4.02v18.68a4.16 4.16 0 01-4.16 4.16H87.2a4.16 4.16 0 01-4.16-4.16v-18.68c0-1.9-1.28-3.55-3.11-4.02a62.2 62.2 0 01-16.08-6.66 4.15 4.15 0 00-5.05.64l-13.2 13.2a4.17 4.17 0 01-5.88 0l-11.75-11.74a4.16 4.16 0 010-5.88l13.2-13.2a4.15 4.15 0 00.64-5.05c-2.95-5-5.19-10.4-6.65-16.08a4.15 4.15 0 00-4.02-3.11H12.46a4.16 4.16 0 01-4.16-4.16V87.2a4.16 4.16 0 014.16-4.16h18.68c1.9 0 3.55-1.28 4.02-3.11a62.25 62.25 0 016.66-16.08c.96-1.63.7-3.7-.64-5.04l-13.2-13.2a4.16 4.16 0 010-5.89l11.74-11.75a4.16 4.16 0 015.88 0l13.2 13.2a4.14 4.14 0 005.05.65c5-2.95 10.4-5.2 16.08-6.66a4.15 4.15 0 003.11-4.02V12.46A4.16 4.16 0 0187.2 8.3h16.6c2.3 0 4.16 1.87 4.16 4.16v18.68c0 1.9 1.28 3.55 3.11 4.02a62.2 62.2 0 0116.07 6.66c1.64.96 3.72.7 5.05-.64l13.2-13.2a4.26 4.26 0 015.89 0l11.75 11.74a4.13 4.13 0 011.2 2.94c0 1.12-.42 2.16-1.2 2.94l-13.2 13.2a4.15 4.15 0 00-.65 5.05c2.96 5 5.2 10.4 6.66 16.08a4.14 4.14 0 004.02 3.11h18.68c2.3 0 4.16 1.87 4.16 4.16v16.6z" fill="#000" stroke="#F5F5F5" stroke-width="10" mask="url(#c)"/>
    <path d="M60.63 95.5A34.92 34.92 0 0195.5 60.63a34.91 34.91 0 0134.87 34.87 34.91 34.91 0 01-34.87 34.87A34.92 34.92 0 0160.63 95.5zm3.3 0a31.6 31.6 0 0031.57 31.57 31.6 31.6 0 0031.56-31.57A31.6 31.6 0 0095.5 63.94 31.6 31.6 0 0063.93 95.5z" fill="#000" stroke="#F5F5F5" stroke-width="5"/>
  </mask>
  <g mask="url(#d)">
    <circle cx="95.83" cy="95.83" fill="#A57CFE" r="121.61"/>
  </g>
</svg>
