<svg width="283" height="283" fill="none" xmlns="http://www.w3.org/2000/svg">
  <mask id="a" fill="#fff">
    <path d="M264.543 110.739H241.51a104.132 104.132 0 00-7.531-18.198l16.273-16.272c3.482-3.483 5.402-8.121 5.402-13.062 0-4.934-1.92-9.572-5.402-13.054l-17.411-17.411c-6.958-6.958-19.139-6.977-26.109 0l-16.273 16.272a104.377 104.377 0 00-18.198-7.53V18.456C172.261 8.281 163.98 0 153.804 0h-24.608c-10.176 0-18.457 8.28-18.457 18.456V41.49a104.593 104.593 0 00-18.198 7.53L76.262 32.748c-7.198-7.198-18.911-7.198-26.11 0l-17.416 17.41c-7.192 7.199-7.192 18.912 0 26.11l16.272 16.28a104.392 104.392 0 00-7.53 18.197H18.456C8.281 110.745 0 119.026 0 129.202v24.609c0 10.169 8.28 18.45 18.456 18.45H41.49a104.576 104.576 0 007.53 18.198l-16.272 16.279c-7.198 7.198-7.198 18.911 0 26.109l17.41 17.417c7.199 7.192 18.912 7.192 26.11 0l16.28-16.272a104.39 104.39 0 0018.197 7.53v23.021c0 10.176 8.281 18.457 18.457 18.457h24.609c10.175 0 18.456-8.281 18.456-18.457V241.51a104.387 104.387 0 0018.198-7.531l16.273 16.279c6.976 6.971 19.158 6.958 26.109 0l17.411-17.411a18.342 18.342 0 005.402-13.054c0-4.941-1.92-9.573-5.402-13.055l-16.272-16.279a104.383 104.383 0 007.53-18.198h23.027c10.176 0 18.457-8.281 18.457-18.457v-24.608c0-10.176-8.281-18.457-18.457-18.457zm6.153 43.065a6.16 6.16 0 01-6.153 6.153h-27.684a6.155 6.155 0 00-5.956 4.614 92.421 92.421 0 01-9.868 23.821 6.16 6.16 0 00.948 7.475l19.564 19.57a6.114 6.114 0 011.796 4.356c0 1.655-.64 3.199-1.796 4.355l-17.411 17.411c-2.313 2.313-6.392 2.313-8.711 0l-19.564-19.564a6.158 6.158 0 00-7.481-.947 92.167 92.167 0 01-23.816 9.862 6.142 6.142 0 00-4.607 5.949v27.684a6.16 6.16 0 01-6.153 6.153h-24.608a6.164 6.164 0 01-6.153-6.153v-27.684a6.155 6.155 0 00-4.614-5.956 92.193 92.193 0 01-23.82-9.862 6.09 6.09 0 00-3.126-.855 6.15 6.15 0 00-4.356 1.803l-19.564 19.564a6.172 6.172 0 01-8.711 0L41.44 224.142c-2.406-2.405-2.406-6.312 0-8.711l19.564-19.564a6.145 6.145 0 00.947-7.475 92.36 92.36 0 01-9.861-23.821 6.142 6.142 0 00-5.95-4.614H18.457a6.163 6.163 0 01-6.153-6.153v-24.608a6.163 6.163 0 016.152-6.153h27.685a6.154 6.154 0 005.956-4.614 92.249 92.249 0 019.861-23.82 6.143 6.143 0 00-.947-7.476L41.447 67.57c-2.4-2.399-2.4-6.306 0-8.711l17.41-17.41c2.406-2.406 6.307-2.4 8.712 0L87.133 61.01a6.135 6.135 0 007.475.947 92.361 92.361 0 0123.821-9.861 6.154 6.154 0 004.614-5.956V18.457a6.163 6.163 0 016.153-6.153h24.608a6.16 6.16 0 016.153 6.152v27.685a6.154 6.154 0 004.614 5.956 92.15 92.15 0 0123.815 9.861 6.142 6.142 0 007.481-.947l19.564-19.564c2.319-2.325 6.398-2.32 8.711 0l17.411 17.41a6.125 6.125 0 011.796 4.357c0 1.648-.64 3.199-1.796 4.355l-19.564 19.564a6.154 6.154 0 00-.948 7.475 92.355 92.355 0 019.869 23.821 6.14 6.14 0 005.949 4.614h27.684a6.16 6.16 0 016.153 6.153v24.608z"/>
  </mask>
  <path d="M264.543 110.739H241.51a104.132 104.132 0 00-7.531-18.198l16.273-16.272c3.482-3.483 5.402-8.121 5.402-13.062 0-4.934-1.92-9.572-5.402-13.054l-17.411-17.411c-6.958-6.958-19.139-6.977-26.109 0l-16.273 16.272a104.377 104.377 0 00-18.198-7.53V18.456C172.261 8.281 163.98 0 153.804 0h-24.608c-10.176 0-18.457 8.28-18.457 18.456V41.49a104.593 104.593 0 00-18.198 7.53L76.262 32.748c-7.198-7.198-18.911-7.198-26.11 0l-17.416 17.41c-7.192 7.199-7.192 18.912 0 26.11l16.272 16.28a104.392 104.392 0 00-7.53 18.197H18.456C8.281 110.745 0 119.026 0 129.202v24.609c0 10.169 8.28 18.45 18.456 18.45H41.49a104.576 104.576 0 007.53 18.198l-16.272 16.279c-7.198 7.198-7.198 18.911 0 26.109l17.41 17.417c7.199 7.192 18.912 7.192 26.11 0l16.28-16.272a104.39 104.39 0 0018.197 7.53v23.021c0 10.176 8.281 18.457 18.457 18.457h24.609c10.175 0 18.456-8.281 18.456-18.457V241.51a104.387 104.387 0 0018.198-7.531l16.273 16.279c6.976 6.971 19.158 6.958 26.109 0l17.411-17.411a18.342 18.342 0 005.402-13.054c0-4.941-1.92-9.573-5.402-13.055l-16.272-16.279a104.383 104.383 0 007.53-18.198h23.027c10.176 0 18.457-8.281 18.457-18.457v-24.608c0-10.176-8.281-18.457-18.457-18.457zm6.153 43.065a6.16 6.16 0 01-6.153 6.153h-27.684a6.155 6.155 0 00-5.956 4.614 92.421 92.421 0 01-9.868 23.821 6.16 6.16 0 00.948 7.475l19.564 19.57a6.114 6.114 0 011.796 4.356c0 1.655-.64 3.199-1.796 4.355l-17.411 17.411c-2.313 2.313-6.392 2.313-8.711 0l-19.564-19.564a6.158 6.158 0 00-7.481-.947 92.167 92.167 0 01-23.816 9.862 6.142 6.142 0 00-4.607 5.949v27.684a6.16 6.16 0 01-6.153 6.153h-24.608a6.164 6.164 0 01-6.153-6.153v-27.684a6.155 6.155 0 00-4.614-5.956 92.193 92.193 0 01-23.82-9.862 6.09 6.09 0 00-3.126-.855 6.15 6.15 0 00-4.356 1.803l-19.564 19.564a6.172 6.172 0 01-8.711 0L41.44 224.142c-2.406-2.405-2.406-6.312 0-8.711l19.564-19.564a6.145 6.145 0 00.947-7.475 92.36 92.36 0 01-9.861-23.821 6.142 6.142 0 00-5.95-4.614H18.457a6.163 6.163 0 01-6.153-6.153v-24.608a6.163 6.163 0 016.152-6.153h27.685a6.154 6.154 0 005.956-4.614 92.249 92.249 0 019.861-23.82 6.143 6.143 0 00-.947-7.476L41.447 67.57c-2.4-2.399-2.4-6.306 0-8.711l17.41-17.41c2.406-2.406 6.307-2.4 8.712 0L87.133 61.01a6.135 6.135 0 007.475.947 92.361 92.361 0 0123.821-9.861 6.154 6.154 0 004.614-5.956V18.457a6.163 6.163 0 016.153-6.153h24.608a6.16 6.16 0 016.153 6.152v27.685a6.154 6.154 0 004.614 5.956 92.15 92.15 0 0123.815 9.861 6.142 6.142 0 007.481-.947l19.564-19.564c2.319-2.325 6.398-2.32 8.711 0l17.411 17.41a6.125 6.125 0 011.796 4.357c0 1.648-.64 3.199-1.796 4.355l-19.564 19.564a6.154 6.154 0 00-.948 7.475 92.355 92.355 0 019.869 23.821 6.14 6.14 0 005.949 4.614h27.684a6.16 6.16 0 016.153 6.153v24.608z" fill="#000" stroke="#F5F5F5" stroke-width="10" mask="url(#a)"/>
  <path d="M88.629 141.5c0-29.146 23.723-52.87 52.869-52.87 29.153 0 52.87 23.724 52.87 52.87 0 29.147-23.717 52.87-52.87 52.87-29.146 0-52.87-23.723-52.87-52.87zm7.304 0c0 25.129 20.437 45.566 45.565 45.566 25.122 0 45.566-20.437 45.566-45.566 0-25.128-20.444-45.565-45.566-45.565-25.128 0-45.565 20.437-45.565 45.565z" fill="#000" stroke="#F5F5F5" stroke-width="5"/>
</svg>
