<svg width="31" height="31" fill="none" xmlns="http://www.w3.org/2000/svg">
  <path d="M29.8 18.3a14.2 14.2 0 00-16.4-17C7.9-2 .6 1.8.6 8.3c0 1.5.5 2.9 1.2 4-2 9.9 6.6 18.6 16.6 16.8 7.1 3.7 15-3.7 11.4-10.8zM20.2 24c-2.6 1.1-7 1.1-9.6-.2-3.7-2-4.4-6.5-1.1-6.5 2.4 0 1.6 2.8 4 4a6 6 0 005-.4c1.4-1 1.3-2.4.5-3.1-2-1.9-7.7-1.1-10.3-4.4a4.7 4.7 0 010-5.6c2.5-3.2 9.6-3.4 12.7-1 2.9 2.2 2 5.1-.2 5.1-2.8 0-1.3-3.6-5.8-3.6-3.2 0-4.5 2.3-2.2 3.4 3 1.6 11 1 11 7 0 2.5-1.6 4.4-4 5.3z" fill="#000"/>
</svg>
