<svg width="100" height="101" viewBox="0 0 100 101" fill="none" xmlns="http://www.w3.org/2000/svg">
<path d="M99 50.822C99 77.944 77.06 99.9272 50 99.9272C22.94 99.9272 1 77.944 1 50.822C1 23.7 22.94 1.7168 50 1.7168C77.06 1.7168 99 23.7 99 50.822Z" stroke="black" stroke-width="2"/>
<g clip-path="url(#clip0)">
<path d="M77.2497 57.4018C77.6992 55.3829 77.9317 53.2904 77.9317 51.1436C77.9317 35.043 64.6947 21.9881 48.3616 21.9881C46.6411 21.9881 44.9516 22.1354 43.3047 22.4144C40.662 20.7753 37.5349 19.822 34.183 19.822C24.7086 19.822 17.0322 27.3899 17.0322 36.7325C17.0322 39.8519 17.8925 42.7698 19.3882 45.2846C18.9969 47.1756 18.7876 49.1364 18.7876 51.1436C18.7876 67.2481 32.0285 80.303 48.3577 80.303C50.21 80.303 52.0196 80.1325 53.775 79.8148C56.193 81.0935 58.952 81.822 61.8853 81.822C71.3559 81.822 79.0322 74.2503 79.0322 64.9154C79.0322 62.2145 78.389 59.6686 77.2497 57.4018ZM63.5284 65.0781C62.1605 66.9885 60.1416 68.4998 57.5182 69.5693C54.9258 70.6349 51.822 71.1774 48.2802 71.1774C44.0332 71.1774 40.4721 70.4411 37.6899 68.9841C35.702 67.9263 34.0667 66.4964 32.8229 64.7216C31.5635 62.9391 30.9319 61.1683 30.9319 59.4555C30.9319 58.3899 31.3465 57.4638 32.1641 56.7081C32.974 55.9525 34.0125 55.5766 35.2525 55.5766C36.2677 55.5766 37.1435 55.875 37.8565 56.4679C38.5346 57.0375 39.1197 57.8823 39.5886 58.9634C40.1117 60.1491 40.6814 61.1489 41.282 61.9278C41.8671 62.6911 42.7002 63.3266 43.7659 63.8265C44.8392 64.3225 46.2846 64.5821 48.0594 64.5821C50.5045 64.5821 52.5117 64.0668 54.0152 63.0515C55.4916 62.0634 56.2046 60.8699 56.2046 59.4129C56.2046 58.2659 55.8287 57.3591 55.0653 56.65C54.2593 55.906 53.1976 55.3286 51.9111 54.9295C50.5665 54.5188 48.7414 54.0693 46.4861 53.6043C43.4132 52.9571 40.8054 52.1899 38.7361 51.318C36.6165 50.4268 34.9037 49.1945 33.656 47.6523C32.385 46.0829 31.7417 44.1183 31.7417 41.8088C31.7417 39.6078 32.416 37.6238 33.749 35.911C35.0704 34.2099 37.0001 32.8808 39.4917 31.9779C41.9446 31.0828 44.8625 30.6294 48.1679 30.6294C50.8067 30.6294 53.1279 30.9316 55.0692 31.5284C57.0184 32.1251 58.6614 32.9311 59.9517 33.927C61.2537 34.9345 62.2225 36.0001 62.827 37.1161C63.4392 38.2399 63.7531 39.3598 63.7531 40.4409C63.7531 41.4833 63.3462 42.4326 62.5402 43.2541C61.7265 44.0873 60.7035 44.5058 59.5022 44.5058C58.4095 44.5058 57.5492 44.2384 56.9564 43.723C56.4022 43.2386 55.8249 42.483 55.1894 41.4058C54.4531 40.0263 53.558 38.9374 52.535 38.1663C51.5391 37.4184 49.8806 37.0464 47.5944 37.0464C45.4786 37.0464 43.7504 37.4649 42.4716 38.2941C41.2394 39.0885 40.6387 40.003 40.6387 41.088C40.6387 41.7506 40.8325 42.3048 41.2316 42.7814C41.6501 43.2929 42.243 43.7308 42.9947 44.1028C43.7697 44.4864 44.5719 44.7964 45.374 45.0134C46.1955 45.2381 47.5711 45.5753 49.466 46.0054C51.8607 46.5091 54.0579 47.0788 56.0031 47.6949C57.9755 48.311 59.6727 49.0744 61.0677 49.9695C62.4821 50.8801 63.602 52.0426 64.4002 53.4376C65.1985 54.8443 65.6015 56.5686 65.6015 58.5759C65.5976 60.9745 64.9001 63.1639 63.5284 65.0781Z" fill="black"/>
</g>
<defs>
<clipPath id="clip0">
<rect width="62" height="62" fill="white" transform="translate(17.0322 19.822)"/>
</clipPath>
</defs>
</svg>
