<svg width="101" height="101" viewBox="0 0 101 101" fill="none" xmlns="http://www.w3.org/2000/svg">
<path d="M99.2441 50.3357C99.2441 77.4577 77.3041 99.4409 50.2441 99.4409C23.1842 99.4409 1.24414 77.4577 1.24414 50.3357C1.24414 23.2136 23.1842 1.23047 50.2441 1.23047C77.3041 1.23047 99.2441 23.2136 99.2441 50.3357Z" stroke="url(#paint0_linear)" stroke-width="2"/>
<g clip-path="url(#clip0)">
<path d="M77.4939 56.9154C77.9434 54.8966 78.1759 52.8041 78.1759 50.6573C78.1759 34.5567 64.9389 21.5018 48.6057 21.5018C46.8852 21.5018 45.1957 21.6491 43.5489 21.9281C40.9061 20.2889 37.779 19.3357 34.4271 19.3357C24.9527 19.3357 17.2764 26.9036 17.2764 36.2462C17.2764 39.3656 18.1366 42.2834 19.6324 44.7983C19.241 46.6893 19.0317 48.6501 19.0317 50.6573C19.0317 66.7618 32.2726 79.8167 48.6019 79.8167C50.4541 79.8167 52.2637 79.6462 54.0191 79.3284C56.4371 80.6072 59.1961 81.3357 62.1295 81.3357C71.6 81.3357 79.2764 73.7639 79.2764 64.4291C79.2764 61.7282 78.6331 59.1823 77.4939 56.9154ZM63.7725 64.5918C62.4046 66.5022 60.3857 68.0134 57.7624 69.0829C55.17 70.1486 52.0661 70.6911 48.5244 70.6911C44.2774 70.6911 40.7162 69.9548 37.934 68.4978C35.9461 67.4399 34.3109 66.0101 33.067 64.2353C31.8076 62.4528 31.176 60.6819 31.176 58.9692C31.176 57.9036 31.5906 56.9774 32.4082 56.2218C33.2181 55.4662 34.2566 55.0903 35.4966 55.0903C36.5119 55.0903 37.3876 55.3887 38.1006 55.9816C38.7787 56.5512 39.3639 57.3959 39.8327 58.4771C40.3559 59.6628 40.9255 60.6626 41.5261 61.4414C42.1112 62.2048 42.9444 62.8403 44.01 63.3402C45.0834 63.8362 46.5287 64.0958 48.3035 64.0958C50.7486 64.0958 52.7559 63.5804 54.2594 62.5652C55.7357 61.5771 56.4487 60.3836 56.4487 58.9266C56.4487 57.7796 56.0729 56.8728 55.3095 56.1637C54.5035 55.4197 53.4417 54.8423 52.1552 54.4432C50.8106 54.0324 48.9855 53.5829 46.7302 53.1179C43.6574 52.4708 41.0495 51.7036 38.9802 50.8317C36.8606 49.9404 35.1479 48.7082 33.9001 47.1659C32.6291 45.5966 31.9859 43.6319 31.9859 41.3224C31.9859 39.1214 32.6601 37.1374 33.9931 35.4247C35.3145 33.7236 37.2442 32.3944 39.7359 31.4916C42.1887 30.5964 45.1066 30.1431 48.412 30.1431C51.0509 30.1431 53.372 30.4453 55.3134 31.0421C57.2625 31.6388 58.9055 32.4448 60.1959 33.4407C61.4979 34.4482 62.4666 35.5138 63.0711 36.6298C63.6834 37.7536 63.9972 38.8734 63.9972 39.9546C63.9972 40.9969 63.5904 41.9463 62.7844 42.7678C61.9706 43.6009 60.9476 44.0194 59.7464 44.0194C58.6536 44.0194 57.7934 43.7521 57.2005 43.2367C56.6464 42.7523 56.069 41.9967 55.4335 40.9194C54.6972 39.5399 53.8021 38.4511 52.7791 37.6799C51.7832 36.9321 50.1247 36.5601 47.8385 36.5601C45.7227 36.5601 43.9945 36.9786 42.7157 37.8078C41.4835 38.6022 40.8829 39.5167 40.8829 40.6017C40.8829 41.2643 41.0766 41.8184 41.4757 42.2951C41.8942 42.8066 42.4871 43.2444 43.2389 43.6164C44.0139 44.0001 44.816 44.3101 45.6181 44.5271C46.4396 44.7518 47.8152 45.0889 49.7101 45.5191C52.1049 46.0228 54.302 46.5924 56.2472 47.2086C58.2196 47.8247 59.9169 48.5881 61.3119 49.4832C62.7262 50.3938 63.8461 51.5563 64.6444 52.9513C65.4426 54.3579 65.8456 56.0823 65.8456 58.0896C65.8417 60.4882 65.1442 62.6776 63.7725 64.5918Z" fill="url(#paint1_linear)"/>
</g>
<defs>
<linearGradient id="paint0_linear" x1="-16.0225" y1="110.449" x2="99.5417" y2="-38.6234" gradientUnits="userSpaceOnUse">
<stop stop-color="#AB85FF"/>
<stop offset="0.526042" stop-color="#EBA3E3"/>
<stop offset="1" stop-color="#FFDBE4"/>
</linearGradient>
<linearGradient id="paint1_linear" x1="7.19103" y1="87.5276" x2="78.6528" y2="-4.8486" gradientUnits="userSpaceOnUse">
<stop stop-color="#AB85FF"/>
<stop offset="0.526042" stop-color="#EBA3E3"/>
<stop offset="1" stop-color="#FFDBE4"/>
</linearGradient>
<clipPath id="clip0">
<rect width="62" height="62" fill="white" transform="translate(17.2764 19.3357)"/>
</clipPath>
</defs>
</svg>
