<svg width="19" height="19" viewBox="0 0 19 19" fill="none" xmlns="http://www.w3.org/2000/svg">
<path d="M17.8099 11.5526C19.1134 5.69512 13.9819 0.37387 7.95563 1.39537C4.68413 -0.63488 0.328125 1.65937 0.328125 5.55187C0.328125 6.45712 0.577875 7.30462 1.01213 8.03512C-0.199125 13.9061 4.97438 19.1509 10.9954 18.0596C15.2516 20.3104 19.9549 15.8216 17.8099 11.5526ZM12.0814 15.0851C10.5004 15.7354 7.89863 15.7391 6.32438 14.9149C4.07963 13.7179 3.68063 11.0231 5.61713 11.0231C7.07663 11.0231 6.61463 12.7249 8.08838 13.4186C8.76488 13.7314 10.2191 13.7636 11.0644 13.1936C11.8991 12.6349 11.8226 11.7559 11.3689 11.3359C10.1666 10.2259 6.72638 10.6669 5.15363 8.72362C4.47038 7.88062 4.34138 6.39337 5.18138 5.31487C6.64538 3.43087 10.9414 3.31612 12.7886 4.73887C14.4941 6.05887 14.0336 7.81087 12.6574 7.81087C11.0021 7.81087 11.8721 5.64487 9.19988 5.64487C7.26263 5.64487 6.50063 7.02262 7.86488 7.69312C9.71438 8.61187 14.4274 8.30512 14.4274 11.8954C14.4236 13.3894 13.5079 14.5031 12.0814 15.0851Z" fill="white"/>
</svg>
