<svg width="20" height="21" viewBox="0 0 20 21" fill="none" xmlns="http://www.w3.org/2000/svg">
<path d="M14.3739 20.2085C13.7283 20.2085 13.0882 20.0944 12.4622 19.8669C9.70462 18.8652 7.14496 17.2336 5.05989 15.1486C2.97482 13.0636 1.34325 10.5039 0.341531 7.74623C0.0196306 6.86002 -0.0753656 5.94521 0.0592774 5.02713C0.185405 4.16716 0.518516 3.33231 1.02264 2.61281C1.52898 1.89015 2.20403 1.28908 2.97478 0.874602C3.7967 0.432628 4.69381 0.208496 5.64127 0.208496C5.93595 0.208496 6.19063 0.414386 6.25238 0.702499L7.23336 5.2804C7.27777 5.48769 7.21406 5.70339 7.06419 5.8533L5.38797 7.52949C6.96923 10.6733 9.53506 13.2392 12.6789 14.8204L14.3551 13.1442C14.505 12.9943 14.7207 12.9307 14.928 12.975L19.5059 13.956C19.7941 14.0178 19.9999 14.2725 19.9999 14.5671C19.9999 15.5146 19.7758 16.4117 19.3338 17.2337C18.9193 18.0044 18.3182 18.6795 17.5956 19.1858C16.8761 19.6899 16.0412 20.023 15.1812 20.1492C14.9118 20.1887 14.6423 20.2085 14.3739 20.2085ZM5.14192 1.48579C3.89217 1.62375 2.78292 2.2788 2.04631 3.33013C1.21798 4.5123 1.02482 5.96635 1.51637 7.31949C3.44222 12.6211 7.58741 16.7663 12.889 18.6921C14.2421 19.1837 15.6961 18.9905 16.8784 18.1622C17.9297 17.4256 18.5847 16.3163 18.7227 15.0666L14.9986 14.2685L13.248 16.0191C13.0618 16.2054 12.7787 16.2549 12.5404 16.1428C8.82216 14.396 5.81244 11.3863 4.06564 7.66811C3.95365 7.42972 4.0031 7.14669 4.18938 6.96045L5.93993 5.20989L5.14192 1.48579Z" fill="black"/>
</svg>
