<svg width="101" height="101" viewBox="0 0 101 101" fill="none" xmlns="http://www.w3.org/2000/svg">
<circle cx="50.2441" cy="50.2305" r="49.15" stroke="url(#paint0_linear)" stroke-width="1.7"/>
<g clip-path="url(#clip0)">
<path d="M42.4791 59.4074L41.5418 72.5919C42.8829 72.5919 43.4637 72.0158 44.1603 71.324L50.4479 65.3149L63.4765 74.8562C65.8659 76.1878 67.5494 75.4866 68.194 72.658L76.7459 32.5852L76.7483 32.5828C77.5062 29.0506 75.4709 27.6694 73.1429 28.5359L22.8748 47.7813C19.4441 49.113 19.4961 51.0255 22.2916 51.892L35.1432 55.8894L64.9947 37.2106C66.3996 36.2803 67.6769 36.7951 66.6262 37.7253L42.4791 59.4074Z" fill="url(#paint1_linear)"/>
</g>
<defs>
<linearGradient id="paint0_linear" x1="-16.0225" y1="110.217" x2="99.2384" y2="-38.7765" gradientUnits="userSpaceOnUse">
<stop stop-color="#AB85FF"/>
<stop offset="0.526042" stop-color="#EBA3E3"/>
<stop offset="1" stop-color="#FFDBE4"/>
</linearGradient>
<linearGradient id="paint1_linear" x1="11.0266" y1="80.2232" x2="62.2438" y2="0.777383" gradientUnits="userSpaceOnUse">
<stop stop-color="#AB85FF"/>
<stop offset="0.526042" stop-color="#EBA3E3"/>
<stop offset="1" stop-color="#FFDBE4"/>
</linearGradient>
<clipPath id="clip0">
<rect width="56.6667" height="56.6667" fill="white" transform="translate(20.2441 23.564)"/>
</clipPath>
</defs>
</svg>
