<svg width="20" height="21" viewBox="0 0 20 21" fill="none" xmlns="http://www.w3.org/2000/svg">
<g clip-path="url(#clip0)">
<path d="M9.99844 11.4736C3.98918 11.4736 0.679688 14.3164 0.679688 19.4785C0.679688 19.8817 1.00645 20.2084 1.40961 20.2084H18.5872C18.9904 20.2084 19.3171 19.8817 19.3171 19.4785C19.3172 14.3167 16.0077 11.4736 9.99844 11.4736ZM2.16609 18.7486C2.4532 14.889 5.08457 12.9335 9.99844 12.9335C14.9123 12.9335 17.5437 14.889 17.8311 18.7486H2.16609Z" fill="black"/>
<path d="M9.99809 0.208252C7.23774 0.208252 5.15625 2.33161 5.15625 5.1472C5.15625 8.04524 7.32828 10.4027 9.99809 10.4027C12.6679 10.4027 14.8399 8.04524 14.8399 5.14743C14.8399 2.33161 12.7584 0.208252 9.99809 0.208252ZM9.99809 8.94306C8.13313 8.94306 6.6161 7.24036 6.6161 5.14743C6.6161 3.13138 8.03848 1.6681 9.99809 1.6681C11.9263 1.6681 13.3801 3.16372 13.3801 5.14743C13.3801 7.24036 11.8631 8.94306 9.99809 8.94306Z" fill="black"/>
</g>
<defs>
<clipPath id="clip0">
<rect width="20" height="20" fill="white" transform="translate(0 0.208252)"/>
</clipPath>
</defs>
</svg>
