<svg width="101" height="101" viewBox="0 0 101 101" fill="none" xmlns="http://www.w3.org/2000/svg">
<circle cx="50.2441" cy="50.9414" r="49" stroke="url(#paint0_linear)" stroke-width="2"/>
<g clip-path="url(#clip0)">
<path d="M51.2617 55.7442C50.589 56.4174 49.498 56.4174 48.8248 55.7442L40.9934 47.9128C40.6703 47.5897 40.4885 47.1512 40.4885 46.6944C40.4885 46.2371 40.6703 45.799 40.9934 45.4755L42.3856 44.0838L38.2967 39.9949L34.9469 43.3446C33.8196 44.472 33.82 46.3062 34.9469 47.4335L49.3041 61.7916C49.8467 62.3342 50.5728 62.6326 51.3488 62.6326C52.1247 62.6326 52.8509 62.3337 53.3934 61.7912L56.7432 58.4419L52.6543 54.3525L51.2617 55.7442Z" fill="url(#paint1_linear)"/>
<path d="M76.2029 43.2718C76.2029 37.7468 74.038 32.5391 70.1057 28.6072C66.1739 24.6754 60.9661 22.51 55.4416 22.51H43.1398C43.1398 22.51 43.1398 22.51 43.1394 22.51C37.6153 22.51 32.4075 24.6754 28.4761 28.6068C24.5443 32.5386 22.3789 37.7468 22.3789 43.2714V52.941C22.3789 57.2193 23.684 61.3351 26.1532 64.8433C28.3316 67.9381 31.2613 70.3553 34.677 71.8883V77.4425C34.677 80.3143 36.285 81.3331 37.6619 81.3335C38.6457 81.3335 39.6299 80.8479 40.5876 79.8907L46.775 73.7023H55.442C60.9666 73.7023 66.1743 71.5369 70.1062 67.6051C74.038 63.6733 76.2034 58.4655 76.2034 52.941L76.2029 43.2718ZM60.4002 59.6602L55.8316 64.2284C54.6378 65.4222 53.0464 66.0788 51.35 66.0788C49.6535 66.0788 48.0621 65.4218 46.8684 64.2284L32.5107 49.8704C30.0402 47.3989 30.0402 43.3782 32.5107 40.9072L37.0794 36.339C37.4025 36.0154 37.8405 35.8341 38.2979 35.8341C38.7547 35.8341 39.1932 36.0154 39.5163 36.339L46.0426 42.8652C46.3657 43.1884 46.547 43.6268 46.547 44.0837C46.547 44.5406 46.3657 44.979 46.0421 45.3022L44.6505 46.6938L50.0449 52.0883L51.437 50.6961C52.1102 50.0234 53.2012 50.0234 53.8739 50.6966L60.4002 57.2229C60.7238 57.546 60.9051 57.9845 60.9051 58.4413C60.9051 58.8986 60.7238 59.3371 60.4002 59.6602ZM47.9858 39.2404C47.9858 38.2889 48.7573 37.517 49.7092 37.517C55.6803 37.517 60.5384 42.3747 60.5384 48.3454C60.5384 49.2973 59.767 50.0687 58.8151 50.0687C57.8637 50.0687 57.0918 49.2973 57.0918 48.3454C57.0918 44.2753 53.7801 40.9637 49.7092 40.9637C48.7573 40.9637 47.9858 40.1923 47.9858 39.2404ZM66.1981 50.0696C65.2462 50.0696 64.4748 49.2977 64.4748 48.3463C64.4752 44.4019 62.939 40.694 60.1502 37.9048C57.361 35.116 53.6531 33.5798 49.7087 33.5798C48.7573 33.5798 47.9854 32.8083 47.9854 31.8565C47.9854 30.905 48.7573 30.1331 49.7087 30.1331C54.5736 30.1331 59.1472 32.0279 62.5872 35.4679C66.0276 38.9078 67.9219 43.4814 67.9215 48.3463C67.9215 49.2977 67.15 50.0696 66.1981 50.0696Z" fill="url(#paint2_linear)"/>
</g>
<defs>
<linearGradient id="paint0_linear" x1="-16.0225" y1="110.928" x2="99.2384" y2="-38.0655" gradientUnits="userSpaceOnUse">
<stop stop-color="#AB85FF"/>
<stop offset="0.526042" stop-color="#EBA3E3"/>
<stop offset="1" stop-color="#FFDBE4"/>
</linearGradient>
<linearGradient id="paint1_linear" x1="30.4185" y1="64.8935" x2="56.5099" y2="31.1603" gradientUnits="userSpaceOnUse">
<stop stop-color="#AB85FF"/>
<stop offset="0.526042" stop-color="#EBA3E3"/>
<stop offset="1" stop-color="#FFDBE4"/>
</linearGradient>
<linearGradient id="paint2_linear" x1="13.6235" y1="87.2082" x2="82.6945" y2="5.51029" gradientUnits="userSpaceOnUse">
<stop stop-color="#AB85FF"/>
<stop offset="0.526042" stop-color="#EBA3E3"/>
<stop offset="1" stop-color="#FFDBE4"/>
</linearGradient>
<clipPath id="clip0">
<rect width="58.8235" height="58.8235" fill="white" transform="translate(19.8516 22.51)"/>
</clipPath>
</defs>
</svg>
