<svg width="31" height="31" fill="none" xmlns="http://www.w3.org/2000/svg">
  <g clip-path="url(#clip0)" fill="#000">
    <path d="M16.8 16.96a.88.88 0 01-1.24 0l-4-4a.88.88 0 010-1.24l.72-.7-2.09-2.09-1.7 1.7a1.48 1.48 0 000 2.1l7.32 7.32c.27.27.64.42 1.04.42s.77-.15 1.04-.42l1.71-1.71-2.08-2.09-.71.71z"/>
    <path d="M29.52 10.6c0-2.82-1.1-5.47-3.1-7.48-2.01-2-4.67-3.1-7.48-3.1h-6.28c-2.82 0-5.47 1.1-7.48 3.1-2 2-3.1 4.66-3.1 7.48v4.93a10.63 10.63 0 006.27 9.66v2.84c0 1.46.82 1.98 1.52 1.98.5 0 1-.25 1.5-.73l3.15-3.16h4.42c2.81 0 5.47-1.1 7.48-3.11 2-2 3.1-4.66 3.1-7.48V10.6zm-8.05 8.36l-2.33 2.33c-.61.6-1.43.94-2.3.94-.86 0-1.67-.33-2.28-.94l-7.32-7.32a3.24 3.24 0 010-4.58l2.33-2.33a.88.88 0 011.24 0l3.33 3.33a.88.88 0 010 1.25l-.7.7 2.74 2.76.71-.71a.88.88 0 011.25 0l3.33 3.33a.88.88 0 010 1.24zM15.13 8.54c0-.48.4-.87.88-.87a5.53 5.53 0 015.53 5.52.88.88 0 01-1.76 0A3.77 3.77 0 0016 9.42a.88.88 0 01-.88-.88zm9.3 5.53a.88.88 0 01-.89-.88 7.48 7.48 0 00-7.53-7.53.88.88 0 010-1.76c2.48 0 4.82.97 6.57 2.72a9.23 9.23 0 012.72 6.57c0 .48-.4.88-.88.88z"/>
  </g>
  <defs>
    <clipPath id="clip0">
      <path fill="#fff" transform="translate(.79 .01)" d="M0 0h30v30H0z"/>
    </clipPath>
  </defs>
</svg>
