<svg width="19" height="19" viewBox="0 0 19 19" fill="none" xmlns="http://www.w3.org/2000/svg">
<g clip-path="url(#clip0)">
<path d="M10.3043 10.4435C10.1025 10.6455 9.77517 10.6455 9.57322 10.4435L7.22381 8.09414C7.12687 7.9972 7.07234 7.86566 7.07234 7.7286C7.07234 7.59141 7.12687 7.46 7.22381 7.36293L7.64145 6.94542L6.41478 5.71875L5.40985 6.72368C5.07165 7.06188 5.07178 7.61214 5.40985 7.95035L9.71701 12.2578C9.87978 12.4205 10.0976 12.5101 10.3304 12.5101C10.5632 12.5101 10.781 12.4204 10.9438 12.2576L11.9487 11.2528L10.7221 10.026L10.3043 10.4435Z" fill="white"/>
<path d="M17.7878 6.7012C17.7878 5.0437 17.1383 3.48138 15.9587 2.30183C14.7791 1.12228 13.2168 0.472656 11.5594 0.472656H7.8689C7.8689 0.472656 7.8689 0.472656 7.86877 0.472656C6.21153 0.472656 4.64921 1.12228 3.46979 2.30169C2.29025 3.48124 1.64062 5.0437 1.64062 6.70107V9.60194C1.64062 10.8854 2.03215 12.1202 2.77292 13.1726C3.42644 14.1011 4.30535 14.8262 5.33007 15.2862V16.9524C5.33007 17.814 5.81247 18.1196 6.22553 18.1197C6.52065 18.1197 6.81591 17.974 7.10323 17.6869L8.95946 15.8304H11.5596C13.2169 15.8304 14.7792 15.1807 15.9588 14.0012C17.1383 12.8216 17.788 11.2593 17.788 9.60194L17.7878 6.7012ZM13.047 11.6177L11.6764 12.9882C11.3183 13.3463 10.8409 13.5433 10.3319 13.5433C9.82302 13.5433 9.34559 13.3462 8.98746 12.9882L4.68018 8.68076C3.939 7.93932 3.939 6.73311 4.68018 5.99181L6.05077 4.62134C6.14771 4.52427 6.27912 4.46988 6.41631 4.46988C6.55337 4.46988 6.68491 4.52427 6.78185 4.62134L8.73973 6.57922C8.83667 6.67616 8.89106 6.8077 8.89106 6.94476C8.89106 7.08182 8.83667 7.21336 8.7396 7.3103L8.32209 7.72781L9.94042 9.34614L10.3581 8.92849C10.56 8.72667 10.8873 8.72667 11.0891 8.92863L13.047 10.8865C13.1441 10.9834 13.1985 11.115 13.1985 11.252C13.1985 11.3892 13.1441 11.5208 13.047 11.6177ZM9.32271 5.49177C9.32271 5.20634 9.55415 4.97476 9.83971 4.97476C11.631 4.97476 13.0885 6.43207 13.0885 8.22327C13.0885 8.50883 12.857 8.74027 12.5715 8.74027C12.2861 8.74027 12.0545 8.50883 12.0545 8.22327C12.0545 7.00225 11.061 6.00877 9.83971 6.00877C9.55415 6.00877 9.32271 5.77733 9.32271 5.49177ZM14.7864 8.74054C14.5008 8.74054 14.2694 8.50897 14.2694 8.22354C14.2695 7.04022 13.8087 5.92785 12.972 5.09109C12.1353 4.25446 11.0229 3.7936 9.83957 3.7936C9.55415 3.7936 9.32257 3.56216 9.32257 3.27659C9.32257 2.99116 9.55415 2.75959 9.83957 2.75959C11.299 2.75959 12.6711 3.32802 13.7031 4.36001C14.7352 5.392 15.3035 6.76408 15.3034 8.22354C15.3034 8.50897 15.0719 8.74054 14.7864 8.74054Z" fill="white"/>
</g>
<defs>
<clipPath id="clip0">
<rect width="17.6471" height="17.6471" fill="white" transform="translate(0.882812 0.472656)"/>
</clipPath>
</defs>
</svg>
