<svg width="100" height="101" viewBox="0 0 100 101" fill="none" xmlns="http://www.w3.org/2000/svg">
<circle cx="50" cy="50.4277" r="49" stroke="black" stroke-width="2"/>
<g clip-path="url(#clip0)">
<path d="M51.0176 55.2305C50.3448 55.9037 49.2538 55.9037 48.5806 55.2305L40.7493 47.3992C40.4262 47.076 40.2444 46.6376 40.2444 46.1807C40.2444 45.7234 40.4262 45.2854 40.7493 44.9618L42.1414 43.5701L38.0525 39.4812L34.7028 42.831C33.5754 43.9583 33.5759 45.7925 34.7028 46.9199L49.0599 61.2779C49.6025 61.8205 50.3287 62.119 51.1046 62.119C51.8806 62.119 52.6067 61.8201 53.1493 61.2775L56.4991 57.9282L52.4101 53.8388L51.0176 55.2305Z" fill="black"/>
<path d="M75.9588 42.7582C75.9588 37.2331 73.7938 32.0254 69.8616 28.0936C65.9297 24.1617 60.722 21.9963 55.1974 21.9963H42.8957C42.8957 21.9963 42.8957 21.9963 42.8952 21.9963C37.3711 21.9963 32.1634 24.1617 28.232 28.0931C24.3002 32.025 22.1348 37.2331 22.1348 42.7577V52.4273C22.1348 56.7056 23.4398 60.8214 25.9091 64.3296C28.0875 67.4244 31.0172 69.8416 34.4329 71.3747V76.9289C34.4329 79.8007 36.0409 80.8194 37.4178 80.8199C38.4015 80.8199 39.3857 80.3343 40.3434 79.377L46.5309 73.1887H55.1979C60.7225 73.1887 65.9302 71.0233 69.862 67.0914C73.7938 63.1596 75.9592 57.9519 75.9592 52.4273L75.9588 42.7582ZM60.1561 59.1466L55.5874 63.7148C54.3936 64.9085 52.8022 65.5651 51.1058 65.5651C49.4094 65.5651 47.818 64.9081 46.6242 63.7148L32.2666 49.3567C29.796 46.8852 29.796 42.8645 32.2666 40.3935L36.8353 35.8253C37.1584 35.5017 37.5964 35.3204 38.0537 35.3204C38.5106 35.3204 38.9491 35.5017 39.2722 35.8253L45.7985 42.3516C46.1216 42.6747 46.3029 43.1132 46.3029 43.57C46.3029 44.0269 46.1216 44.4654 45.798 44.7885L44.4063 46.1802L49.8007 51.5746L51.1929 50.1825C51.8661 49.5097 52.9571 49.5097 53.6298 50.1829L60.1561 56.7092C60.4797 57.0323 60.661 57.4708 60.661 57.9276C60.661 58.385 60.4797 58.8234 60.1561 59.1466ZM47.7417 38.7267C47.7417 37.7753 48.5132 37.0034 49.4651 37.0034C55.4362 37.0034 60.2943 41.861 60.2943 47.8317C60.2943 48.7836 59.5228 49.5551 58.571 49.5551C57.6195 49.5551 56.8476 48.7836 56.8476 47.8317C56.8476 43.7617 53.536 40.45 49.4651 40.45C48.5132 40.45 47.7417 39.6786 47.7417 38.7267ZM65.954 49.556C65.0021 49.556 64.2306 48.784 64.2306 47.8326C64.2311 43.8882 62.6949 40.1803 59.9061 37.3911C57.1169 34.6023 53.409 33.0661 49.4646 33.0661C48.5132 33.0661 47.7413 32.2947 47.7413 31.3428C47.7413 30.3914 48.5132 29.6194 49.4646 29.6194C54.3295 29.6194 58.9031 31.5142 62.343 34.9542C65.7834 38.3941 67.6778 42.9677 67.6773 47.8326C67.6773 48.784 66.9058 49.556 65.954 49.556Z" fill="black"/>
</g>
<defs>
<clipPath id="clip0">
<rect width="58.8235" height="58.8235" fill="white" transform="translate(19.6074 21.9963)"/>
</clipPath>
</defs>
</svg>
