<svg width="35" height="21" fill="none" xmlns="http://www.w3.org/2000/svg">
  <path fill-rule="evenodd" clip-rule="evenodd" d="M30.12 13.19c1.16 1.13 2.39 2.2 3.43 3.45.46.55.9 1.12 1.23 1.77.47.91.04 1.92-.78 1.97h-5.1a3.94 3.94 0 01-3.24-1.32c-.7-.72-1.36-1.48-2.04-2.23-.28-.3-.57-.59-.92-.81-.7-.45-1.3-.31-1.7.41-.4.74-.5 1.56-.53 2.38-.06 1.2-.42 1.52-1.63 1.57-2.57.12-5.02-.27-7.3-1.57-2-1.14-3.55-2.76-4.9-4.6A61.88 61.88 0 01.18 2.7c-.41-.9-.11-1.4.89-1.41 1.66-.04 3.33-.03 5 0 .67 0 1.11.4 1.38 1.03.9 2.21 2 4.32 3.38 6.27.37.52.74 1.04 1.28 1.4.59.41 1.04.28 1.32-.38.17-.42.25-.87.29-1.32.13-1.54.15-3.07-.08-4.6-.14-.96-.68-1.58-1.64-1.76-.49-.1-.41-.28-.18-.56.41-.48.8-.77 1.57-.77h5.76c.9.17 1.1.58 1.23 1.5v6.4c0 .35.18 1.4.82 1.63.51.17.85-.24 1.15-.56a19.85 19.85 0 003.25-4.99c.39-.79.72-1.6 1.05-2.42.24-.6.62-.9 1.3-.9l5.55.01c.16 0 .33 0 .49.03.93.16 1.19.56.9 1.47-.46 1.44-1.34 2.63-2.2 3.83-.93 1.28-1.92 2.51-2.84 3.8-.84 1.18-.77 1.77.27 2.79z" fill="#000"/>
</svg>
