<svg width="100" height="100" viewBox="0 0 100 100" fill="none" xmlns="http://www.w3.org/2000/svg">
<circle cx="50" cy="49.999" r="49.15" stroke="black" stroke-width="1.7"/>
<g clip-path="url(#clip0)">
<path d="M79.4348 65.8291C79.2646 65.5441 78.2116 63.256 73.1446 58.5532C67.84 53.6286 68.5526 54.4283 74.9418 45.9133C78.8331 40.7275 80.3889 37.5606 79.902 36.2067C79.4388 34.9162 76.5767 35.2567 76.5767 35.2567L67.0602 35.3121C67.0602 35.3121 66.3555 35.2171 65.829 35.5298C65.3184 35.8386 64.9898 36.5511 64.9898 36.5511C64.9898 36.5511 63.4816 40.5652 61.4706 43.9775C57.2309 51.1783 55.5327 51.5583 54.8399 51.111C53.2287 50.0698 53.6325 46.9227 53.6325 44.6901C53.6325 37.711 54.6895 34.8014 51.5701 34.0493C50.5329 33.7999 49.7729 33.6336 47.1245 33.6059C43.728 33.5703 40.8501 33.6178 39.2231 34.4135C38.1385 34.9439 37.3032 36.1276 37.8139 36.1949C38.4433 36.278 39.8684 36.5788 40.6245 37.6081C41.6023 38.9342 41.5666 41.919 41.5666 41.919C41.5666 41.919 42.1288 50.1332 40.2563 51.1545C38.9698 51.8552 37.2082 50.4261 33.4277 43.8904C31.4919 40.5454 30.0273 36.8441 30.0273 36.8441C30.0273 36.8441 29.7462 36.1553 29.2434 35.7871C28.6338 35.3398 27.7788 35.1973 27.7788 35.1973L18.7293 35.2527C18.7293 35.2527 17.3715 35.2923 16.8727 35.8821C16.4294 36.4086 16.8371 37.4933 16.8371 37.4933C16.8371 37.4933 23.9231 54.0681 31.9432 62.4247C39.3023 70.0847 47.655 69.5819 47.655 69.5819H51.4394C51.4394 69.5819 52.5835 69.4552 53.1654 68.8258C53.7038 68.2479 53.684 67.1632 53.684 67.1632C53.684 67.1632 53.6088 62.0843 55.9681 61.3361C58.2918 60.5998 61.2766 66.2448 64.4396 68.4181C66.8306 70.0609 68.6476 69.7007 68.6476 69.7007L77.1072 69.5819C77.1072 69.5819 81.5329 69.3088 79.4348 65.8291Z" fill="black"/>
</g>
<defs>
<clipPath id="clip0">
<rect width="63.3333" height="63.3333" fill="white" transform="translate(16.666 19.999)"/>
</clipPath>
</defs>
</svg>
