<svg width="101" height="101" viewBox="0 0 101 101" fill="none" xmlns="http://www.w3.org/2000/svg">
<circle cx="50.2441" cy="50.5127" r="49.15" stroke="url(#paint0_linear)" stroke-width="1.7"/>
<g clip-path="url(#clip0)">
<path d="M79.679 66.3428C79.5088 66.0578 78.4558 63.7697 73.3887 59.0669C68.0842 54.1423 68.7967 54.942 75.1859 46.427C79.0773 41.2412 80.633 38.0743 80.1461 36.7204C79.6829 35.4299 76.8209 35.7703 76.8209 35.7703L67.3043 35.8257C67.3043 35.8257 66.5997 35.7307 66.0732 36.0435C65.5625 36.3522 65.234 37.0648 65.234 37.0648C65.234 37.0648 63.7257 41.0788 61.7147 44.4912C57.4751 51.6919 55.7768 52.072 55.084 51.6246C53.4729 50.5835 53.8767 47.4364 53.8767 45.2037C53.8767 38.2247 54.9336 35.3151 51.8142 34.5629C50.7771 34.3136 50.017 34.1473 47.3687 34.1196C43.9722 34.084 41.0943 34.1315 39.4673 34.9271C38.3826 35.4576 37.5473 36.6412 38.058 36.7085C38.6874 36.7917 40.1125 37.0925 40.8686 38.1218C41.8464 39.4479 41.8108 42.4327 41.8108 42.4327C41.8108 42.4327 42.3729 50.6469 40.5005 51.6682C39.2139 52.3689 37.4523 50.9398 33.6719 44.4041C31.7361 41.0591 30.2714 37.3577 30.2714 37.3577C30.2714 37.3577 29.9903 36.6689 29.4876 36.3008C28.878 35.8535 28.0229 35.7109 28.0229 35.7109L18.9735 35.7664C18.9735 35.7664 17.6157 35.806 17.1169 36.3958C16.6735 36.9223 17.0813 38.007 17.0813 38.007C17.0813 38.007 24.1672 54.5817 32.1874 62.9384C39.5464 70.5983 47.8991 70.0956 47.8991 70.0956H51.6836C51.6836 70.0956 52.8276 69.9689 53.4095 69.3395C53.9479 68.7615 53.9281 67.6769 53.9281 67.6769C53.9281 67.6769 53.8529 62.5979 56.2123 61.8498C58.536 61.1135 61.5208 66.7585 64.6837 68.9318C67.0747 70.5746 68.8917 70.2144 68.8917 70.2144L77.3513 70.0956C77.3513 70.0956 81.777 69.8224 79.679 66.3428Z" fill="url(#paint1_linear)"/>
</g>
<defs>
<linearGradient id="paint0_linear" x1="-16.0225" y1="110.5" x2="99.2384" y2="-38.4942" gradientUnits="userSpaceOnUse">
<stop stop-color="#AB85FF"/>
<stop offset="0.526042" stop-color="#EBA3E3"/>
<stop offset="1" stop-color="#FFDBE4"/>
</linearGradient>
<linearGradient id="paint1_linear" x1="6.60793" y1="73.8568" x2="38.4012" y2="1.82775" gradientUnits="userSpaceOnUse">
<stop stop-color="#AB85FF"/>
<stop offset="0.526042" stop-color="#EBA3E3"/>
<stop offset="1" stop-color="#FFDBE4"/>
</linearGradient>
<clipPath id="clip0">
<rect width="63.3333" height="63.3333" fill="white" transform="translate(16.9102 20.5127)"/>
</clipPath>
</defs>
</svg>
