<svg width="101" height="101" viewBox="0 0 101 101" fill="none" xmlns="http://www.w3.org/2000/svg">
<path d="M99.2441 50.1252C99.2441 77.2472 77.3041 99.2304 50.2441 99.2304C23.1842 99.2304 1.24414 77.2472 1.24414 50.1252C1.24414 23.0032 23.1842 1.02002 50.2441 1.02002C77.3041 1.02002 99.2441 23.0032 99.2441 50.1252Z" stroke="url(#paint0_linear)" stroke-width="2"/>
<path d="M49.2703 21.634H49.2566C34.1208 21.634 21.8125 33.9717 21.8125 49.1427C21.8125 55.1602 23.7478 60.7376 27.0385 65.2662L23.6174 75.4857L34.1689 72.1056C38.5096 74.9871 43.6875 76.6514 49.2703 76.6514C64.4061 76.6514 76.7145 64.3103 76.7145 49.1427C76.7145 33.9751 64.4061 21.634 49.2703 21.634ZM65.2434 60.4797C64.5811 62.3537 61.9527 63.908 59.8561 64.3619C58.4218 64.6679 56.5483 64.912 50.2414 62.2918C42.1743 58.9427 36.9792 50.7279 36.5743 50.1949C36.1865 49.6619 33.3145 45.8451 33.3145 41.8976C33.3145 37.9501 35.315 36.0279 36.1213 35.2027C36.7836 34.5253 37.8782 34.2158 38.9282 34.2158C39.2679 34.2158 39.5733 34.233 39.8478 34.2468C40.6542 34.2811 41.0591 34.3293 41.5909 35.605C42.2532 37.2039 43.8659 41.1514 44.0581 41.5572C44.2537 41.9629 44.4493 42.5131 44.1748 43.0461C43.9174 43.5963 43.6909 43.8404 43.286 44.3081C42.8811 44.7757 42.4968 45.1333 42.0919 45.6353C41.7213 46.072 41.3027 46.5397 41.7694 47.3478C42.236 48.1386 43.8488 50.776 46.2233 52.8942C49.2875 55.6279 51.7718 56.5013 52.6605 56.8726C53.3228 57.1477 54.112 57.0824 54.5958 56.5666C55.21 55.903 55.9684 54.8026 56.7404 53.7195C57.2895 52.9423 57.9826 52.8461 58.7101 53.1211C59.4512 53.379 63.3733 55.3218 64.1797 55.7241C64.986 56.1299 65.5179 56.3225 65.7135 56.6629C65.9056 57.0033 65.9056 58.6022 65.2434 60.4797Z" fill="url(#paint1_linear)"/>
<defs>
<linearGradient id="paint0_linear" x1="-16.0225" y1="110.238" x2="99.5417" y2="-38.8339" gradientUnits="userSpaceOnUse">
<stop stop-color="#AB85FF"/>
<stop offset="0.526042" stop-color="#EBA3E3"/>
<stop offset="1" stop-color="#FFDBE4"/>
</linearGradient>
<linearGradient id="paint1_linear" x1="12.8818" y1="82.1459" x2="76.3286" y2="0.302376" gradientUnits="userSpaceOnUse">
<stop stop-color="#AB85FF"/>
<stop offset="0.526042" stop-color="#EBA3E3"/>
<stop offset="1" stop-color="#FFDBE4"/>
</linearGradient>
</defs>
</svg>
