<svg width="100" height="101" viewBox="0 0 100 101" fill="none" xmlns="http://www.w3.org/2000/svg">
<path d="M99 50.6115C99 77.7336 77.06 99.7167 50 99.7167C22.94 99.7167 1 77.7336 1 50.6115C1 23.4895 22.94 1.50635 50 1.50635C77.06 1.50635 99 23.4895 99 50.6115Z" stroke="black" stroke-width="2"/>
<path d="M49.0262 22.1204H49.0125C33.8767 22.1204 21.5684 34.458 21.5684 49.629C21.5684 55.6465 23.5037 61.2239 26.7943 65.7525L23.3733 75.972L33.9247 72.5919C38.2654 75.4734 43.4434 77.1377 49.0262 77.1377C64.162 77.1377 76.4703 64.7966 76.4703 49.629C76.4703 34.4614 64.162 22.1204 49.0262 22.1204ZM64.9992 60.966C64.337 62.8401 61.7086 64.3943 59.612 64.8482C58.1777 65.1542 56.3041 65.3984 49.9973 62.7782C41.9301 59.429 36.735 51.2142 36.3301 50.6812C35.9424 50.1483 33.0703 46.3314 33.0703 42.3839C33.0703 38.4364 35.0708 36.5143 35.8772 35.689C36.5394 35.0116 37.634 34.7021 38.684 34.7021C39.0238 34.7021 39.3291 34.7193 39.6037 34.7331C40.41 34.7675 40.8149 34.8156 41.3468 36.0913C42.009 37.6903 43.6218 41.6378 43.8139 42.0435C44.0095 42.4493 44.2051 42.9994 43.9306 43.5324C43.6733 44.0826 43.4468 44.3267 43.0419 44.7944C42.637 45.262 42.2527 45.6196 41.8478 46.1217C41.4772 46.5584 41.0586 47.026 41.5252 47.8341C41.9919 48.625 43.6046 51.2624 45.9791 53.3805C49.0434 56.1142 51.5277 56.9876 52.4164 57.359C53.0787 57.634 53.8679 57.5687 54.3517 57.0529C54.9659 56.3893 55.7242 55.2889 56.4963 54.2058C57.0453 53.4287 57.7385 53.3324 58.4659 53.6075C59.2071 53.8654 63.1291 55.8082 63.9355 56.2105C64.7419 56.6162 65.2738 56.8088 65.4693 57.1492C65.6615 57.4896 65.6615 59.0886 64.9992 60.966Z" fill="black"/>
</svg>
