<svg width="29" height="29" fill="none" xmlns="http://www.w3.org/2000/svg">
  <path d="M14.93.01A14.03 14.03 0 003.58 22.26l-1.74 5.22 5.38-1.73a13.86 13.86 0 007.7 2.32 14.03 14.03 0 000-28.06zm8.15 19.81c-.34.96-1.68 1.75-2.75 1.98-.73.16-1.69.28-4.9-1.05-4.12-1.71-6.77-5.9-6.98-6.17-.2-.27-1.66-2.22-1.66-4.23 0-2.02 1.02-3 1.43-3.42.34-.34.9-.5 1.43-.5l.47.01c.42.02.62.05.9.7.33.81 1.15 2.83 1.25 3.03.1.21.2.49.06.76-.13.28-.25.4-.45.65-.2.23-.4.42-.61.67-.2.23-.4.46-.17.88.24.4 1.06 1.74 2.28 2.82 1.56 1.4 2.82 1.84 3.28 2.03.34.14.74.11.99-.15.3-.34.7-.9 1.09-1.45.28-.4.63-.45 1-.31.38.13 2.38 1.12 2.8 1.33.4.2.68.3.78.48.1.17.1.99-.24 1.94z" fill="#000"/>
</svg>
