<svg width="17" height="17" viewBox="0 0 17 17" fill="none" xmlns="http://www.w3.org/2000/svg">
<path d="M8.71001 0.472656H8.70589C4.16516 0.472656 0.472656 4.16619 0.472656 8.70795C0.472656 10.5094 1.05324 12.1791 2.04045 13.5349L1.01413 16.5943L4.17957 15.5824C5.48177 16.445 7.03516 16.9432 8.71001 16.9432C13.2507 16.9432 16.9432 13.2487 16.9432 8.70795C16.9432 4.16722 13.2507 0.472656 8.71001 0.472656ZM13.5019 12.1019C13.3032 12.663 12.5147 13.1282 11.8857 13.2641C11.4555 13.3557 10.8934 13.4288 9.00133 12.6444C6.58119 11.6418 5.02266 9.18251 4.90119 9.02295C4.78486 8.86339 3.92324 7.72074 3.92324 6.53898C3.92324 5.35722 4.52339 4.78177 4.7653 4.53472C4.96398 4.33192 5.29236 4.23927 5.60736 4.23927C5.70927 4.23927 5.80089 4.24442 5.88324 4.24854C6.12516 4.25883 6.24663 4.27324 6.40619 4.65516C6.60486 5.13383 7.08869 6.3156 7.14633 6.43707C7.20501 6.55854 7.26369 6.72324 7.18133 6.8828C7.10413 7.04751 7.03619 7.1206 6.91472 7.2606C6.79324 7.4006 6.67795 7.50766 6.55648 7.65795C6.4453 7.78869 6.31972 7.92869 6.45972 8.1706C6.59972 8.40736 7.08354 9.19692 7.79589 9.83104C8.71516 10.6494 9.46045 10.9109 9.72707 11.0221C9.92574 11.1044 10.1625 11.0849 10.3077 10.9305C10.4919 10.7318 10.7194 10.4024 10.951 10.0781C11.1157 9.84545 11.3237 9.81663 11.5419 9.89898C11.7643 9.97619 12.9409 10.5578 13.1828 10.6782C13.4247 10.7997 13.5843 10.8574 13.643 10.9593C13.7006 11.0612 13.7006 11.5399 13.5019 12.1019Z" fill="white"/>
</svg>
