<svg width="53" height="53" viewBox="0 0 53 53" fill="none" xmlns="http://www.w3.org/2000/svg">
<g clip-path="url(#clip0)">
<path d="M23.23 31.1316L31.5945 26.3141L23.23 21.4966V31.1316Z" fill="black"/>
<path d="M26.433 0.599609C12.2336 0.599609 0.71875 12.1145 0.71875 26.3139C0.71875 40.5133 12.2336 52.0282 26.433 52.0282C40.6325 52.0282 52.1473 40.5133 52.1473 26.3139C52.1473 12.1145 40.6325 0.599609 26.433 0.599609ZM42.5005 26.3402C42.5005 26.3402 42.5005 31.5552 41.839 34.0699C41.4682 35.4463 40.3829 36.5316 39.0065 36.902C36.4918 37.5639 26.433 37.5639 26.433 37.5639C26.433 37.5639 16.4006 37.5639 13.8596 36.8757C12.4831 36.5053 11.3979 35.4196 11.0271 34.0432C10.3651 31.5552 10.3651 26.3139 10.3651 26.3139C10.3651 26.3139 10.3651 21.0993 11.0271 18.5846C11.3975 17.2082 12.5094 16.0962 13.8596 15.7258C16.3743 15.0639 26.433 15.0639 26.433 15.0639C26.433 15.0639 36.4918 15.0639 39.0065 15.7521C40.3829 16.1225 41.4682 17.2082 41.839 18.5846C42.5272 21.0993 42.5005 26.3402 42.5005 26.3402Z" fill="black"/>
</g>
<defs>
<clipPath id="clip0">
<rect width="51.4286" height="51.4286" fill="white" transform="translate(0.71875 0.599609)"/>
</clipPath>
</defs>
</svg>
