<svg width="101" height="101" viewBox="0 0 101 101" fill="none" xmlns="http://www.w3.org/2000/svg">
<path d="M99.2441 50.4074C99.2441 77.5295 77.3041 99.5126 50.2441 99.5126C23.1842 99.5126 1.24414 77.5295 1.24414 50.4074C1.24414 23.2854 23.1842 1.30225 50.2441 1.30225C77.3041 1.30225 99.2441 23.2854 99.2441 50.4074Z" stroke="url(#paint0_linear)" stroke-width="2"/>
<path d="M78.0787 34.505C77.4089 32.0149 75.4456 30.052 72.9558 29.3815C68.4074 28.137 50.2132 28.137 50.2132 28.137C50.2132 28.137 32.0196 28.137 27.4712 29.3343C25.0293 30.0041 23.0182 32.0153 22.3484 34.505C21.1514 39.0531 21.1514 48.4853 21.1514 48.4853C21.1514 48.4853 21.1514 57.965 22.3484 62.4656C23.0189 64.9554 24.9814 66.9183 27.4715 67.5888C32.0675 68.8337 50.2139 68.8337 50.2139 68.8337C50.2139 68.8337 68.4074 68.8337 72.9558 67.6363C75.4459 66.9662 77.4089 65.0033 78.0794 62.5135C79.276 57.965 79.276 48.5332 79.276 48.5332C79.276 48.5332 79.3239 39.0531 78.0787 34.505ZM44.4205 57.1991V39.7715L59.5499 48.4853L44.4205 57.1991Z" fill="url(#paint1_linear)"/>
<defs>
<linearGradient id="paint0_linear" x1="-16.0225" y1="110.521" x2="99.5417" y2="-38.5517" gradientUnits="userSpaceOnUse">
<stop stop-color="#AB85FF"/>
<stop offset="0.526042" stop-color="#EBA3E3"/>
<stop offset="1" stop-color="#FFDBE4"/>
</linearGradient>
<linearGradient id="paint1_linear" x1="11.6964" y1="72.898" x2="52.2859" y2="-2.04003" gradientUnits="userSpaceOnUse">
<stop stop-color="#AB85FF"/>
<stop offset="0.526042" stop-color="#EBA3E3"/>
<stop offset="1" stop-color="#FFDBE4"/>
</linearGradient>
</defs>
</svg>
