<svg width="100" height="101" viewBox="0 0 100 101" fill="none" xmlns="http://www.w3.org/2000/svg">
<path d="M99 50.8938C99 78.0158 77.06 99.999 50 99.999C22.94 99.999 1 78.0158 1 50.8938C1 23.7717 22.94 1.78857 50 1.78857C77.06 1.78857 99 23.7717 99 50.8938Z" stroke="black" stroke-width="2"/>
<path d="M77.8345 34.9914C77.1647 32.5012 75.2014 30.5383 72.7117 29.8678C68.1632 28.6233 49.969 28.6233 49.969 28.6233C49.969 28.6233 31.7755 28.6233 27.227 29.8206C24.7852 30.4904 22.774 32.5016 22.1042 34.9914C20.9072 39.5395 20.9072 48.9717 20.9072 48.9717C20.9072 48.9717 20.9072 58.4514 22.1042 62.9519C22.7747 65.4417 24.7373 67.4046 27.2274 68.0751C31.8234 69.32 49.9697 69.32 49.9697 69.32C49.9697 69.32 68.1632 69.32 72.7117 68.1227C75.2018 67.4525 77.1647 65.4896 77.8352 62.9998C79.0319 58.4514 79.0319 49.0195 79.0319 49.0195C79.0319 49.0195 79.0798 39.5395 77.8345 34.9914ZM44.1764 57.6854V40.2579L59.3058 48.9717L44.1764 57.6854Z" fill="black"/>
</svg>
