<svg width="342" height="180" viewBox="0 0 342 180" fill="none" xmlns="http://www.w3.org/2000/svg">
<rect width="341" height="180" transform="translate(0.357422)" fill="#F5F5F5"/>
<path d="M68.8574 133C55.3574 132 29.5574 121.3 28.3574 92.5C28.3574 56.5 55.8574 47 69.3574 47C88.8574 47 169.857 47 215.857 47" stroke="black"/>
<path d="M68.6543 133H140.858" stroke="black"/>
<path d="M157.857 47L201.357 95.5" stroke="black"/>
<path d="M162.357 47L205.857 95.5" stroke="black"/>
<path d="M167.357 47L210.857 95.5" stroke="black"/>
<path d="M172.357 47L215.857 95.5" stroke="black"/>
<path d="M177.357 47L220.857 95.5" stroke="black"/>
<path d="M182.357 47L225.857 95.5" stroke="black"/>
<circle cx="77.3574" cy="90" r="38" fill="#AB85FF"/>
<circle cx="127.857" cy="115.5" r="9.5" fill="#8052E4"/>
<g clip-path="url(#clip0)">
<rect width="142" height="39" transform="translate(171.357 94)" fill="#31D67B"/>
<path d="M116.191 82.5447C192.694 38.8289 247.339 38.8289 280.126 82.5447C312.913 126.261 367.558 126.261 444.06 82.5447" stroke="#4AE991" stroke-width="2"/>
<path d="M111.955 159.209C170.603 93.4505 222.416 76.0876 267.394 107.12C312.372 138.153 364.185 120.79 422.833 55.0316" stroke="#4AE991" stroke-width="2"/>
<path d="M119.426 137.361C199.127 99.7916 253.603 104.085 282.853 150.242C312.104 196.399 366.58 200.692 446.281 163.123" stroke="#4AE991" stroke-width="2"/>
</g>
<circle cx="89.7324" cy="84.375" r="1.375" fill="#D4D4D4"/>
<circle cx="95.4824" cy="84.375" r="1.375" fill="#D4D4D4"/>
<circle cx="101.232" cy="84.375" r="1.375" fill="#D4D4D4"/>
<circle cx="106.982" cy="84.375" r="1.375" fill="#D4D4D4"/>
<circle cx="112.732" cy="84.375" r="1.375" fill="#D4D4D4"/>
<circle cx="118.482" cy="84.375" r="1.375" fill="#D4D4D4"/>
<circle cx="124.232" cy="84.375" r="1.375" fill="#D4D4D4"/>
<circle cx="129.982" cy="84.375" r="1.375" fill="#D4D4D4"/>
<circle cx="135.732" cy="84.375" r="1.375" fill="#D4D4D4"/>
<circle cx="89.7324" cy="90.125" r="1.375" fill="#D4D4D4"/>
<circle cx="95.4824" cy="90.125" r="1.375" fill="#D4D4D4"/>
<circle cx="89.7324" cy="95.875" r="1.375" fill="#D4D4D4"/>
<circle cx="95.4824" cy="95.875" r="1.375" fill="#D4D4D4"/>
<circle cx="101.232" cy="95.875" r="1.375" fill="#D4D4D4"/>
<circle cx="106.982" cy="95.875" r="1.375" fill="#D4D4D4"/>
<circle cx="112.732" cy="95.875" r="1.375" fill="#D4D4D4"/>
<circle cx="118.482" cy="95.875" r="1.375" fill="#D4D4D4"/>
<circle cx="124.232" cy="95.875" r="1.375" fill="#D4D4D4"/>
<circle cx="129.982" cy="95.875" r="1.375" fill="#D4D4D4"/>
<circle cx="135.732" cy="95.875" r="1.375" fill="#D4D4D4"/>
<circle cx="101.232" cy="90.125" r="1.375" fill="#D4D4D4"/>
<circle cx="106.982" cy="90.125" r="1.375" fill="#D4D4D4"/>
<circle cx="112.732" cy="90.125" r="1.375" fill="#D4D4D4"/>
<circle cx="118.482" cy="90.125" r="1.375" fill="#D4D4D4"/>
<circle cx="124.232" cy="90.125" r="1.375" fill="#D4D4D4"/>
<circle cx="129.982" cy="90.125" r="1.375" fill="#D4D4D4"/>
<circle cx="135.732" cy="90.125" r="1.375" fill="#D4D4D4"/>
<path d="M288.024 86.3448C288.024 81.4795 286.091 76.8134 282.651 73.3731C279.21 69.9328 274.544 68 269.679 68C264.813 68 260.147 69.9328 256.707 73.3731C253.267 76.8134 251.334 81.4795 251.334 86.3448L269.679 86.3448H288.024Z" fill="#D4D4D4"/>
<path d="M260.944 86.3432C260.944 83.0996 259.701 79.9889 257.49 77.6953C255.278 75.4018 252.278 74.1133 249.151 74.1133C246.023 74.1133 243.023 75.4018 240.812 77.6953C238.6 79.9889 237.357 83.0996 237.357 86.3432L249.151 86.3432H260.944Z" fill="#D4D4D4"/>
<path d="M313.358 86.3432C313.358 83.0996 311.563 79.9889 308.369 77.6953C305.174 75.4018 300.841 74.1133 296.324 74.1133C291.806 74.1133 287.473 75.4018 284.278 77.6953C281.084 79.9889 279.289 83.0996 279.289 86.3432L296.324 86.3432H313.358Z" fill="#D4D4D4"/>
<defs>
<clipPath id="clip0">
<rect width="142" height="39" fill="white" transform="translate(171.357 94)"/>
</clipPath>
</defs>
</svg>
