<svg width="342" height="180" viewBox="0 0 342 180" fill="none" xmlns="http://www.w3.org/2000/svg">
<rect width="341" height="180" transform="translate(0.357422)" fill="#F5F5F5"/>
<path d="M257.937 124.227C275.167 123.227 308.095 112.527 309.627 83.7266C309.627 47.7266 274.529 38.2266 257.299 38.2266C232.412 38.2266 129.032 38.2266 70.3229 38.2266" stroke="black"/>
<path d="M258.197 124.227H166.045" stroke="black"/>
<path d="M181.905 81.2266L235.562 141.772H82.0278L32.0892 81.2266H181.905Z" fill="#31D67B"/>
<mask id="mask0" mask-type="alpha" maskUnits="userSpaceOnUse" x="32" y="81" width="204" height="61">
<path d="M181.905 81.2266L235.562 141.772H82.0278L32.0892 81.2266H181.905Z" fill="#31D67B"/>
</mask>
<g mask="url(#mask0)">
<path d="M-93.3848 83.3872C4.56881 44.5168 74.5357 44.5168 116.516 83.3872C158.496 122.258 228.463 122.258 326.416 83.3872" stroke="#4AE991" stroke-width="2"/>
<path d="M-81.1143 157.83C-6.02199 99.3597 60.319 83.9213 117.909 111.514C175.498 139.107 241.839 123.669 316.932 65.1991" stroke="#4AE991" stroke-width="2"/>
<path d="M-89.2438 132.129C12.8049 98.7236 82.5554 102.541 120.008 143.582C157.46 184.623 227.211 188.441 329.259 155.035" stroke="#4AE991" stroke-width="2"/>
</g>
<path d="M138.322 38.2266L94.8223 86.7266" stroke="black"/>
<path d="M133.822 38.2266L90.3223 86.7266" stroke="black"/>
<path d="M128.822 38.2266L85.3223 86.7266" stroke="black"/>
<path d="M123.822 38.2266L80.3223 86.7266" stroke="black"/>
<path d="M118.822 38.2266L75.3223 86.7266" stroke="black"/>
<path d="M113.822 38.2266L70.3223 86.7266" stroke="black"/>
<path d="M155.311 87.3861V80.6061C155.311 78.4461 156.081 76.6461 157.621 75.2061C159.181 73.7661 161.121 73.0461 163.441 73.0461C165.761 73.0461 167.691 73.7661 169.231 75.2061C170.791 76.6461 171.571 78.4461 171.571 80.6061V87.3861C171.571 89.5461 170.791 91.3461 169.231 92.7861C167.691 94.2261 165.761 94.9461 163.441 94.9461C161.121 94.9461 159.181 94.2261 157.621 92.7861C156.081 91.3461 155.311 89.5461 155.311 87.3861ZM159.211 80.5461V87.4461C159.211 88.5061 159.611 89.4061 160.411 90.1461C161.231 90.8661 162.241 91.2261 163.441 91.2261C164.641 91.2261 165.651 90.8661 166.471 90.1461C167.291 89.3861 167.701 88.4861 167.701 87.4461V80.5461C167.701 79.4861 167.291 78.5961 166.471 77.8761C165.671 77.1361 164.661 76.7661 163.441 76.7661C162.221 76.7661 161.211 77.1361 160.411 77.8761C159.611 78.5961 159.211 79.4861 159.211 80.5461ZM185.429 78.2661L181.799 80.0661L180.179 76.6461L186.539 73.4961H189.329V94.4961H185.429V78.2661ZM210.421 79.6161C210.421 78.8361 210.081 78.1661 209.401 77.6061C208.761 77.0461 207.971 76.7661 207.031 76.7661C206.131 76.7661 205.321 77.0461 204.601 77.6061C203.901 78.1461 203.371 78.8861 203.011 79.8261L199.411 78.1161C200.091 76.5561 201.111 75.3261 202.471 74.4261C203.831 73.5061 205.351 73.0461 207.031 73.0461C209.131 73.0461 210.881 73.6761 212.281 74.9361C213.721 76.1961 214.441 77.7161 214.441 79.4961C214.441 80.5761 214.081 81.7061 213.361 82.8861C212.641 84.0461 211.501 85.3761 209.941 86.8761L205.831 90.7761H214.621V94.4961H199.831V91.5861L207.541 84.2361C209.461 82.3761 210.421 80.8361 210.421 79.6161ZM233.793 79.3461C233.793 78.6261 233.453 78.0161 232.773 77.5161C232.093 77.0161 231.223 76.7661 230.163 76.7661C229.303 76.7661 228.543 76.9461 227.883 77.3061C227.243 77.6461 226.773 78.0961 226.473 78.6561L222.933 76.9761C223.553 75.7761 224.513 74.8261 225.813 74.1261C227.113 73.4061 228.573 73.0461 230.193 73.0461C232.373 73.0461 234.193 73.6361 235.653 74.8161C237.093 75.9761 237.813 77.4461 237.813 79.2261C237.813 80.9661 237.063 82.4261 235.563 83.6061C237.423 84.8061 238.353 86.4361 238.353 88.4961C238.353 90.3561 237.593 91.8961 236.073 93.1161C234.553 94.3361 232.663 94.9461 230.403 94.9461C228.543 94.9461 226.913 94.5161 225.513 93.6561C224.113 92.7761 223.163 91.6361 222.663 90.2361L226.413 88.9161C226.633 89.5961 227.103 90.1561 227.823 90.5961C228.543 91.0161 229.393 91.2261 230.373 91.2261C231.493 91.2261 232.433 90.9561 233.193 90.4161C233.953 89.8561 234.333 89.1561 234.333 88.3161C234.333 87.5161 233.953 86.8561 233.193 86.3361C232.453 85.7961 231.543 85.5261 230.463 85.5261H228.873V82.0161H229.953C231.033 82.0161 231.943 81.7661 232.683 81.2661C233.423 80.7661 233.793 80.1261 233.793 79.3461ZM257.431 94.4961V90.4761H246.541V86.7561L257.611 73.4961H261.301V86.7561H263.971V90.4761H261.301V94.4961H257.431ZM257.431 79.2861L251.191 86.7561H257.431V79.2861ZM287.748 87.8061C287.748 89.8261 286.978 91.5261 285.438 92.9061C283.898 94.2661 281.988 94.9461 279.708 94.9461C277.868 94.9461 276.248 94.4661 274.848 93.5061C273.448 92.5261 272.448 91.2161 271.848 89.5761L275.718 88.5261C276.058 89.3661 276.588 90.0261 277.308 90.5061C278.028 90.9861 278.838 91.2261 279.738 91.2261C280.878 91.2261 281.818 90.8961 282.558 90.2361C283.338 89.5761 283.728 88.7661 283.728 87.8061C283.728 86.7661 283.298 85.9061 282.438 85.2261C281.618 84.5461 280.568 84.2061 279.288 84.2061H273.438L274.518 73.4961H285.948V77.0661H277.728L277.398 80.6661H279.498C281.838 80.6661 283.798 81.3461 285.378 82.7061C286.958 84.0461 287.748 85.7461 287.748 87.8061Z" fill="#AB85FF"/>
<path d="M157.621 75.2061L156.943 74.4713L156.938 74.4757L157.621 75.2061ZM169.231 75.2061L168.548 75.9365L168.553 75.9409L169.231 75.2061ZM169.231 92.7861L168.553 92.0513L168.548 92.0557L169.231 92.7861ZM157.621 92.7861L156.938 93.5165L156.943 93.5209L157.621 92.7861ZM160.411 90.1461L159.732 90.8802L159.742 90.889L159.752 90.8975L160.411 90.1461ZM166.471 90.1461L167.131 90.8975L167.141 90.8887L167.151 90.8795L166.471 90.1461ZM166.471 77.8761L165.792 78.6102L165.802 78.619L165.812 78.6275L166.471 77.8761ZM160.411 77.8761L161.081 78.6195L161.091 78.6102L160.411 77.8761ZM156.311 87.3861V80.6061H154.311V87.3861H156.311ZM156.311 80.6061C156.311 78.7153 156.972 77.1822 158.304 75.9365L156.938 74.4757C155.191 76.1099 154.311 78.1769 154.311 80.6061H156.311ZM158.3 75.9409C159.657 74.6879 161.348 74.0461 163.441 74.0461V72.0461C160.895 72.0461 158.706 72.8443 156.943 74.4713L158.3 75.9409ZM163.441 74.0461C165.536 74.0461 167.213 74.6878 168.548 75.9365L169.914 74.4757C168.17 72.8444 165.987 72.0461 163.441 72.0461V74.0461ZM168.553 75.9409C169.904 77.1879 170.571 78.7197 170.571 80.6061H172.571C172.571 78.1725 171.679 76.1043 169.91 74.4713L168.553 75.9409ZM170.571 80.6061V87.3861H172.571V80.6061H170.571ZM170.571 87.3861C170.571 89.2725 169.904 90.8043 168.553 92.0513L169.91 93.5209C171.679 91.8879 172.571 89.8197 172.571 87.3861H170.571ZM168.548 92.0557C167.213 93.3044 165.536 93.9461 163.441 93.9461V95.9461C165.987 95.9461 168.17 95.1478 169.914 93.5165L168.548 92.0557ZM163.441 93.9461C161.348 93.9461 159.657 93.3043 158.3 92.0513L156.943 93.5209C158.706 95.1479 160.895 95.9461 163.441 95.9461V93.9461ZM158.304 92.0557C156.972 90.8099 156.311 89.2769 156.311 87.3861H154.311C154.311 89.8153 155.191 91.8822 156.938 93.5165L158.304 92.0557ZM158.211 80.5461V87.4461H160.211V80.5461H158.211ZM158.211 87.4461C158.211 88.7936 158.734 89.9569 159.732 90.8802L161.091 89.412C160.489 88.8552 160.211 88.2186 160.211 87.4461H158.211ZM159.752 90.8975C160.773 91.7942 162.025 92.2261 163.441 92.2261V90.2261C162.458 90.2261 161.69 89.938 161.071 89.3947L159.752 90.8975ZM163.441 92.2261C164.858 92.2261 166.11 91.7942 167.131 90.8975L165.812 89.3947C165.193 89.938 164.425 90.2261 163.441 90.2261V92.2261ZM167.151 90.8795C168.158 89.9462 168.701 88.787 168.701 87.4461H166.701C166.701 88.1851 166.425 88.826 165.792 89.4127L167.151 90.8795ZM168.701 87.4461V80.5461H166.701V87.4461H168.701ZM168.701 80.5461C168.701 79.1888 168.16 78.0281 167.131 77.1247L165.812 78.6275C166.423 79.1641 166.701 79.7834 166.701 80.5461H168.701ZM167.151 77.142C166.143 76.2102 164.881 75.7661 163.441 75.7661V77.7661C164.442 77.7661 165.2 78.062 165.792 78.6102L167.151 77.142ZM163.441 75.7661C162.002 75.7661 160.74 76.2102 159.732 77.142L161.091 78.6102C161.683 78.062 162.441 77.7661 163.441 77.7661V75.7661ZM159.743 77.1328C158.736 78.0391 158.211 79.1977 158.211 80.5461H160.211C160.211 79.7745 160.487 79.1531 161.08 78.6194L159.743 77.1328ZM185.429 78.2661H186.429V76.654L184.985 77.3702L185.429 78.2661ZM181.799 80.0661L180.896 80.4942L181.331 81.4143L182.244 80.962L181.799 80.0661ZM180.179 76.6461L179.736 75.75L178.855 76.1861L179.276 77.0742L180.179 76.6461ZM186.539 73.4961V72.4961H186.305L186.096 72.6L186.539 73.4961ZM189.329 73.4961H190.329V72.4961H189.329V73.4961ZM189.329 94.4961V95.4961H190.329V94.4961H189.329ZM185.429 94.4961H184.429V95.4961H185.429V94.4961ZM184.985 77.3702L181.355 79.1702L182.244 80.962L185.874 79.162L184.985 77.3702ZM182.703 79.638L181.083 76.218L179.276 77.0742L180.896 80.4942L182.703 79.638ZM180.623 77.5422L186.983 74.3922L186.096 72.6L179.736 75.75L180.623 77.5422ZM186.539 74.4961H189.329V72.4961H186.539V74.4961ZM188.329 73.4961V94.4961H190.329V73.4961H188.329ZM189.329 93.4961H185.429V95.4961H189.329V93.4961ZM186.429 94.4961V78.2661H184.429V94.4961H186.429ZM209.401 77.6061L208.743 78.3587L208.754 78.3685L208.765 78.378L209.401 77.6061ZM204.601 77.6061L205.212 78.3979L205.215 78.3954L204.601 77.6061ZM203.011 79.8261L202.582 80.7294L203.558 81.1931L203.945 80.1837L203.011 79.8261ZM199.411 78.1161L198.494 77.7165L198.107 78.604L198.982 79.0194L199.411 78.1161ZM202.471 74.4261L203.023 75.2601L203.031 75.2544L202.471 74.4261ZM212.281 74.9361L211.612 75.6795L211.623 75.6887L212.281 74.9361ZM213.361 82.8861L214.211 83.4135L214.215 83.407L213.361 82.8861ZM209.941 86.8761L210.629 87.6015L210.634 87.5969L209.941 86.8761ZM205.831 90.7761L205.143 90.0507L203.324 91.7761H205.831V90.7761ZM214.621 90.7761H215.621V89.7761H214.621V90.7761ZM214.621 94.4961V95.4961H215.621V94.4961H214.621ZM199.831 94.4961H198.831V95.4961H199.831V94.4961ZM199.831 91.5861L199.141 90.8623L198.831 91.1578V91.5861H199.831ZM207.541 84.2361L208.231 84.9599L208.237 84.9543L207.541 84.2361ZM211.421 79.6161C211.421 78.4963 210.914 77.5564 210.037 76.8342L208.765 78.378C209.248 78.7757 209.421 79.1759 209.421 79.6161H211.421ZM210.06 76.8535C209.218 76.1168 208.186 75.7661 207.031 75.7661V77.7661C207.756 77.7661 208.304 77.9754 208.743 78.3587L210.06 76.8535ZM207.031 75.7661C205.905 75.7661 204.88 76.1222 203.987 76.8167L205.215 78.3954C205.762 77.97 206.357 77.7661 207.031 77.7661V75.7661ZM203.99 76.8143C203.125 77.4815 202.494 78.3811 202.077 79.4684L203.945 80.1837C204.248 79.3911 204.677 78.8107 205.212 78.3979L203.99 76.8143ZM203.44 78.9228L199.84 77.2128L198.982 79.0194L202.582 80.7294L203.44 78.9228ZM200.328 78.5157C200.934 77.1245 201.831 76.0487 203.023 75.26L201.919 73.5922C200.391 74.6035 199.248 75.9877 198.494 77.7165L200.328 78.5157ZM203.031 75.2544C204.222 74.449 205.546 74.0461 207.031 74.0461V72.0461C205.156 72.0461 203.44 72.5632 201.911 73.5978L203.031 75.2544ZM207.031 74.0461C208.915 74.0461 210.417 74.604 211.612 75.6794L212.95 74.1928C211.345 72.7482 209.347 72.0461 207.031 72.0461V74.0461ZM211.623 75.6887C212.864 76.7749 213.441 78.028 213.441 79.4961H215.441C215.441 77.4042 214.578 75.6173 212.94 74.1835L211.623 75.6887ZM213.441 79.4961C213.441 80.3475 213.158 81.2988 212.507 82.3652L214.215 83.407C215.004 82.1133 215.441 80.8047 215.441 79.4961H213.441ZM212.511 82.3587C211.853 83.4192 210.778 84.6836 209.248 86.1553L210.634 87.5969C212.224 86.0686 213.429 84.6729 214.211 83.4135L212.511 82.3587ZM209.253 86.1507L205.143 90.0507L206.519 91.5015L210.629 87.6015L209.253 86.1507ZM205.831 91.7761H214.621V89.7761H205.831V91.7761ZM213.621 90.7761V94.4961H215.621V90.7761H213.621ZM214.621 93.4961H199.831V95.4961H214.621V93.4961ZM200.831 94.4961V91.5861H198.831V94.4961H200.831ZM200.521 92.3099L208.231 84.9599L206.851 83.5123L199.141 90.8623L200.521 92.3099ZM208.237 84.9543C209.23 83.9917 210.012 83.0783 210.55 82.2151C211.083 81.3587 211.421 80.4832 211.421 79.6161H209.421C209.421 79.969 209.279 80.4734 208.852 81.1571C208.431 81.8339 207.772 82.6205 206.845 83.5179L208.237 84.9543ZM232.773 77.5161L233.366 76.7104V76.7104L232.773 77.5161ZM227.883 77.3061L228.353 78.1893L228.362 78.184L227.883 77.3061ZM226.473 78.6561L226.045 79.5595L226.905 79.9679L227.355 79.1283L226.473 78.6561ZM222.933 76.9761L222.045 76.5171L221.57 77.436L222.505 77.8795L222.933 76.9761ZM225.813 74.1261L226.287 75.0066L226.298 75.0009L225.813 74.1261ZM235.653 74.8161L235.025 75.5938L235.026 75.5948L235.653 74.8161ZM235.563 83.6061L234.945 82.8201L233.844 83.6866L235.021 84.4464L235.563 83.6061ZM236.073 93.1161L235.447 92.3362L236.073 93.1161ZM225.513 93.6561L224.981 94.5028L224.99 94.5082L225.513 93.6561ZM222.663 90.2361L222.331 89.2928L221.384 89.6264L221.722 90.5724L222.663 90.2361ZM226.413 88.9161L227.365 88.6083L227.049 87.6322L226.081 87.9728L226.413 88.9161ZM227.823 90.5961L227.302 91.4494L227.311 91.4547L227.319 91.4599L227.823 90.5961ZM233.193 90.4161L233.773 91.2313L233.78 91.2263L233.787 91.2211L233.193 90.4161ZM233.193 86.3361L232.604 87.1439L232.616 87.1528L232.629 87.1614L233.193 86.3361ZM228.873 85.5261H227.873V86.5261H228.873V85.5261ZM228.873 82.0161V81.0161H227.873V82.0161H228.873ZM234.793 79.3461C234.793 78.2505 234.252 77.362 233.366 76.7104L232.181 78.3217C232.655 78.6702 232.793 79.0017 232.793 79.3461H234.793ZM233.366 76.7104C232.474 76.055 231.381 75.7661 230.163 75.7661V77.7661C231.065 77.7661 231.712 77.9772 232.181 78.3217L233.366 76.7104ZM230.163 75.7661C229.16 75.7661 228.231 75.9772 227.405 76.4282L228.362 78.184C228.855 77.915 229.446 77.7661 230.163 77.7661V75.7661ZM227.414 76.423C226.624 76.8425 225.998 77.4253 225.592 78.1839L227.355 79.1283C227.548 78.7669 227.862 78.4497 228.353 78.1892L227.414 76.423ZM226.902 77.7527L223.362 76.0727L222.505 77.8795L226.045 79.5595L226.902 77.7527ZM223.822 77.4351C224.341 76.4308 225.148 75.6203 226.287 75.0066L225.339 73.2456C223.879 74.0318 222.766 75.1214 222.045 76.5171L223.822 77.4351ZM226.298 75.0009C227.436 74.3703 228.727 74.0461 230.193 74.0461V72.0461C228.42 72.0461 226.79 72.4419 225.329 73.2513L226.298 75.0009ZM230.193 74.0461C232.183 74.0461 233.771 74.5802 235.025 75.5938L236.282 74.0384C234.616 72.692 232.563 72.0461 230.193 72.0461V74.0461ZM235.026 75.5948C236.241 76.5735 236.813 77.762 236.813 79.2261H238.813C238.813 77.1302 237.946 75.3786 236.281 74.0373L235.026 75.5948ZM236.813 79.2261C236.813 80.627 236.231 81.8087 234.945 82.8201L236.182 84.392C237.896 83.0435 238.813 81.3052 238.813 79.2261H236.813ZM235.021 84.4464C236.621 85.4786 237.353 86.805 237.353 88.4961H239.353C239.353 86.0672 238.226 84.1336 236.105 82.7658L235.021 84.4464ZM237.353 88.4961C237.353 90.0365 236.744 91.2955 235.447 92.3362L236.699 93.896C238.443 92.4967 239.353 90.6757 239.353 88.4961H237.353ZM235.447 92.3362C234.132 93.3916 232.474 93.9461 230.403 93.9461V95.9461C232.853 95.9461 234.974 95.2806 236.699 93.896L235.447 92.3362ZM230.403 93.9461C228.703 93.9461 227.259 93.555 226.037 92.804L224.99 94.5082C226.567 95.4772 228.384 95.9461 230.403 95.9461V93.9461ZM226.046 92.8095C224.813 92.0346 224.021 91.0647 223.605 89.8998L221.722 90.5724C222.306 92.2075 223.414 93.5176 224.981 94.5027L226.046 92.8095ZM222.995 91.1794L226.745 89.8594L226.081 87.9728L222.331 89.2928L222.995 91.1794ZM225.462 89.2239C225.768 90.171 226.417 90.9084 227.302 91.4494L228.345 89.7428C227.79 89.4037 227.498 89.0212 227.365 88.6083L225.462 89.2239ZM227.319 91.4599C228.217 91.9837 229.248 92.2261 230.373 92.2261V90.2261C229.539 90.2261 228.869 90.0485 228.327 89.7323L227.319 91.4599ZM230.373 92.2261C231.658 92.2261 232.812 91.9141 233.773 91.2313L232.614 89.6009C232.055 89.9981 231.328 90.2261 230.373 90.2261V92.2261ZM233.787 91.2211C234.766 90.4995 235.333 89.5166 235.333 88.3161H233.333C233.333 88.7956 233.141 89.2127 232.6 89.611L233.787 91.2211ZM235.333 88.3161C235.333 87.1322 234.743 86.1846 233.758 85.5108L232.629 87.1614C233.164 87.5276 233.333 87.9 233.333 88.3161H235.333ZM233.783 85.5283C232.843 84.8422 231.716 84.5261 230.463 84.5261V86.5261C231.371 86.5261 232.064 86.75 232.604 87.1439L233.783 85.5283ZM230.463 84.5261H228.873V86.5261H230.463V84.5261ZM229.873 85.5261V82.0161H227.873V85.5261H229.873ZM228.873 83.0161H229.953V81.0161H228.873V83.0161ZM229.953 83.0161C231.191 83.0161 232.306 82.728 233.243 82.0947L232.124 80.4375C231.581 80.8042 230.876 81.0161 229.953 81.0161V83.0161ZM233.243 82.0947C234.212 81.4401 234.793 80.5106 234.793 79.3461H232.793C232.793 79.7416 232.635 80.0921 232.124 80.4375L233.243 82.0947ZM257.431 94.4961H256.431V95.4961H257.431V94.4961ZM257.431 90.4761H258.431V89.4761H257.431V90.4761ZM246.541 90.4761H245.541V91.4761H246.541V90.4761ZM246.541 86.7561L245.774 86.1152L245.541 86.3935V86.7561H246.541ZM257.611 73.4961V72.4961H257.144L256.844 72.8552L257.611 73.4961ZM261.301 73.4961H262.301V72.4961H261.301V73.4961ZM261.301 86.7561H260.301V87.7561H261.301V86.7561ZM263.971 86.7561H264.971V85.7561H263.971V86.7561ZM263.971 90.4761V91.4761H264.971V90.4761H263.971ZM261.301 90.4761V89.4761H260.301V90.4761H261.301ZM261.301 94.4961V95.4961H262.301V94.4961H261.301ZM257.431 79.2861H258.431V76.5291L256.664 78.645L257.431 79.2861ZM251.191 86.7561L250.424 86.115L249.053 87.7561H251.191V86.7561ZM257.431 86.7561V87.7561H258.431V86.7561H257.431ZM258.431 94.4961V90.4761H256.431V94.4961H258.431ZM257.431 89.4761H246.541V91.4761H257.431V89.4761ZM247.541 90.4761V86.7561H245.541V90.4761H247.541ZM247.309 87.397L258.379 74.137L256.844 72.8552L245.774 86.1152L247.309 87.397ZM257.611 74.4961H261.301V72.4961H257.611V74.4961ZM260.301 73.4961V86.7561H262.301V73.4961H260.301ZM261.301 87.7561H263.971V85.7561H261.301V87.7561ZM262.971 86.7561V90.4761H264.971V86.7561H262.971ZM263.971 89.4761H261.301V91.4761H263.971V89.4761ZM260.301 90.4761V94.4961H262.301V90.4761H260.301ZM261.301 93.4961H257.431V95.4961H261.301V93.4961ZM256.664 78.645L250.424 86.115L251.959 87.3972L258.199 79.9272L256.664 78.645ZM251.191 87.7561H257.431V85.7561H251.191V87.7561ZM258.431 86.7561V79.2861H256.431V86.7561H258.431ZM285.438 92.9061L286.1 93.6557L286.105 93.6508L285.438 92.9061ZM274.848 93.5061L274.275 94.3254L274.283 94.3308L274.848 93.5061ZM271.848 89.5761L271.586 88.611L270.535 88.8963L270.909 89.9197L271.848 89.5761ZM275.718 88.5261L276.645 88.1509L276.312 87.3287L275.456 87.561L275.718 88.5261ZM277.308 90.5061L276.753 91.3381L277.308 90.5061ZM282.558 90.2361L281.912 89.4727L281.902 89.4811L281.893 89.4898L282.558 90.2361ZM282.438 85.2261L281.8 85.9959L281.809 86.0033L281.818 86.0105L282.438 85.2261ZM273.438 84.2061L272.443 84.1058L272.332 85.2061H273.438V84.2061ZM274.518 73.4961V72.4961H273.614L273.523 73.3958L274.518 73.4961ZM285.948 73.4961H286.948V72.4961H285.948V73.4961ZM285.948 77.0661V78.0661H286.948V77.0661H285.948ZM277.728 77.0661V76.0661H276.816L276.732 76.9748L277.728 77.0661ZM277.398 80.6661L276.402 80.5748L276.302 81.6661H277.398V80.6661ZM285.378 82.7061L284.726 83.464L284.731 83.4687L285.378 82.7061ZM286.748 87.8061C286.748 89.5343 286.105 90.9659 284.771 92.1614L286.105 93.6508C287.851 92.0863 288.748 90.1179 288.748 87.8061H286.748ZM284.776 92.1565C283.439 93.3371 281.773 93.9461 279.708 93.9461V95.9461C282.203 95.9461 284.357 95.1951 286.1 93.6556L284.776 92.1565ZM279.708 93.9461C278.052 93.9461 276.633 93.5175 275.414 92.6814L274.283 94.3308C275.863 95.4146 277.684 95.9461 279.708 95.9461V93.9461ZM275.422 92.6869C274.193 91.827 273.319 90.6848 272.787 89.2325L270.909 89.9197C271.578 91.7474 272.703 93.2252 274.275 94.3253L275.422 92.6869ZM272.11 90.5412L275.98 89.4912L275.456 87.561L271.586 88.611L272.11 90.5412ZM274.791 88.9013C275.203 89.9182 275.858 90.7413 276.753 91.3381L277.863 89.674C277.318 89.3109 276.913 88.814 276.645 88.1509L274.791 88.9013ZM276.753 91.3381C277.645 91.9322 278.649 92.2261 279.738 92.2261V90.2261C279.027 90.2261 278.412 90.04 277.863 89.674L276.753 91.3381ZM279.738 92.2261C281.084 92.2261 282.273 91.8301 283.224 90.9824L281.893 89.4898C281.363 89.9621 280.672 90.2261 279.738 90.2261V92.2261ZM283.204 90.9995C284.192 90.1634 284.728 89.0812 284.728 87.8061H282.728C282.728 88.451 282.484 88.9888 281.912 89.4727L283.204 90.9995ZM284.728 87.8061C284.728 86.4416 284.143 85.2994 283.058 84.4417L281.818 86.0105C282.453 86.5127 282.728 87.0905 282.728 87.8061H284.728ZM283.076 84.4563C282.043 83.599 280.752 83.2061 279.288 83.2061V85.2061C280.384 85.2061 281.194 85.4932 281.8 85.9959L283.076 84.4563ZM279.288 83.2061H273.438V85.2061H279.288V83.2061ZM274.433 84.3064L275.513 73.5964L273.523 73.3958L272.443 84.1058L274.433 84.3064ZM274.518 74.4961H285.948V72.4961H274.518V74.4961ZM284.948 73.4961V77.0661H286.948V73.4961H284.948ZM285.948 76.0661H277.728V78.0661H285.948V76.0661ZM276.732 76.9748L276.402 80.5748L278.394 80.7574L278.724 77.1574L276.732 76.9748ZM277.398 81.6661H279.498V79.6661H277.398V81.6661ZM279.498 81.6661C281.63 81.6661 283.35 82.2795 284.726 83.464L286.031 81.9482C284.247 80.4127 282.046 79.6661 279.498 79.6661V81.6661ZM284.731 83.4687C286.089 84.62 286.748 86.0418 286.748 87.8061H288.748C288.748 85.4504 287.827 83.4722 286.025 81.9434L284.731 83.4687Z" fill="black"/>
</svg>
