<svg width="342" height="180" viewBox="0 0 342 180" fill="none" xmlns="http://www.w3.org/2000/svg">
<g clip-path="url(#clip0)">
<rect width="341" height="180" transform="translate(0.357422)" fill="#F5F5F5"/>
<ellipse cx="70.8105" cy="85.2502" rx="64.6151" ry="25.0044" transform="rotate(90.9501 70.8105 85.2502)" fill="#2CB66A"/>
<ellipse cx="87.4218" cy="85.2502" rx="64.6151" ry="25.0044" transform="rotate(90.9501 87.4218 85.2502)" fill="#31D67B"/>
<path d="M109.427 75.9808L177.511 77.1099M177.511 77.1099L175.661 76.1789M177.511 77.1099L175.631 77.979" stroke="black"/>
<path d="M109.178 90.9365L204.309 92.5141M204.309 92.5141L201.718 91.5382M204.309 92.5141L201.687 93.4035" stroke="black"/>
<path d="M109.674 61.0908L152.576 61.8023M152.576 61.8023L151.416 60.8501M152.576 61.8023L151.385 62.7154" stroke="black"/>
<path d="M108.931 105.858L139.709 106.369M139.709 106.369L138.882 105.422M139.709 106.369L138.851 107.287" stroke="black"/>
<ellipse cx="103.008" cy="86.0783" rx="64.6151" ry="25.0044" transform="rotate(90.9501 103.008 86.0783)" fill="#4AE991"/>
<path d="M196.668 104.926L165.582 140.003H254.532L283.463 104.926H196.668Z" fill="#AB85FF"/>
<mask id="mask0" mask-type="alpha" maskUnits="userSpaceOnUse" x="165" y="104" width="119" height="37">
<path d="M196.668 104.926L165.582 140.003H254.532L283.463 104.926H196.668Z" fill="#AB85FF"/>
</mask>
<g mask="url(#mask0)">
<path d="M356.156 106.179C299.407 83.6592 258.872 83.6592 234.551 106.179C210.231 128.698 169.696 128.698 112.947 106.179" stroke="#8052E4"/>
<path d="M349.048 149.305C305.543 115.431 267.109 106.487 233.745 122.473C200.38 138.459 161.946 129.515 118.442 95.6403" stroke="#8052E4"/>
<path d="M353.757 134.415C294.635 115.062 254.226 117.274 232.528 141.051C210.83 164.828 170.42 167.039 111.299 147.686" stroke="#8052E4"/>
</g>
<path d="M232.384 72.8613L210.426 97.6387H273.257L293.694 72.8613H232.384Z" fill="#AB85FF"/>
<mask id="mask1" mask-type="alpha" maskUnits="userSpaceOnUse" x="210" y="72" width="84" height="26">
<path d="M232.384 72.8613L210.426 97.6387H273.257L293.694 72.8613H232.384Z" fill="#AB85FF"/>
</mask>
<g mask="url(#mask1)">
<path d="M345.043 73.7467C304.957 57.8396 276.324 57.8396 259.145 73.7467C241.965 89.6538 213.332 89.6538 173.246 73.7467" stroke="#8052E4"/>
<path d="M340.02 104.211C309.29 80.2827 282.141 73.9647 258.573 85.2567C235.005 96.5488 207.856 90.2308 177.126 66.303" stroke="#8052E4"/>
<path d="M343.348 93.6923C301.586 80.0216 273.042 81.5839 257.715 98.3792C242.388 115.175 213.844 116.737 172.082 103.066" stroke="#8052E4"/>
</g>
<path d="M262.163 49.2539L247.701 65.5721H289.082L302.541 49.2539H262.163Z" fill="#AB85FF"/>
<mask id="mask2" mask-type="alpha" maskUnits="userSpaceOnUse" x="247" y="49" width="56" height="17">
<path d="M262.163 49.2539L247.701 65.5721H289.082L302.541 49.2539H262.163Z" fill="#AB85FF"/>
</mask>
<g mask="url(#mask2)">
<path d="M336.359 49.8377C309.959 39.3614 291.102 39.3614 279.787 49.8377C268.473 60.314 249.616 60.314 223.215 49.8377" stroke="#8052E4"/>
<path d="M333.051 69.8993C312.813 54.1406 294.933 49.9796 279.411 57.4165C263.89 64.8533 246.01 60.6924 225.771 44.9337" stroke="#8052E4"/>
<path d="M335.243 62.9735C307.739 53.9702 288.94 54.9991 278.845 66.0603C268.751 77.1216 249.952 78.1505 222.448 69.1471" stroke="#8052E4"/>
</g>
</g>
<defs>
<clipPath id="clip0">
<rect width="341" height="180" fill="white" transform="translate(0.357422)"/>
</clipPath>
</defs>
</svg>
