<svg width="342" height="180" viewBox="0 0 342 180" fill="none" xmlns="http://www.w3.org/2000/svg">
<rect width="341" height="180" transform="translate(0.357422)" fill="#F5F5F5"/>
<path d="M93.0057 58.0284C93.0057 53.1631 94.9384 48.497 98.3787 45.0567C101.819 41.6163 106.485 39.6836 111.35 39.6836C116.216 39.6836 120.882 41.6163 124.322 45.0567C127.763 48.497 129.695 53.1631 129.695 58.0284L111.35 58.0284H93.0057Z" fill="#8052E4"/>
<path d="M120.086 58.0268C120.086 54.7832 121.328 51.6725 123.54 49.3789C125.751 47.0854 128.751 45.7969 131.879 45.7969C135.006 45.7969 138.006 47.0854 140.218 49.3789C142.429 51.6725 143.672 54.7832 143.672 58.0268L131.879 58.0268H120.086Z" fill="#8052E4"/>
<path d="M67.6713 58.0268C67.6713 54.7832 69.466 51.6725 72.6606 49.3789C75.8551 47.0854 80.1879 45.7969 84.7057 45.7969C89.2236 45.7969 93.5564 47.0854 96.7509 49.3789C99.9455 51.6725 101.74 54.7832 101.74 58.0268L84.7058 58.0268H67.6713Z" fill="#8052E4"/>
<circle cx="206.437" cy="84.687" r="62.7651" fill="#A57CFE"/>
<mask id="mask0" mask-type="alpha" maskUnits="userSpaceOnUse" x="143" y="21" width="127" height="127">
<circle cx="206.437" cy="84.687" r="62.7651" fill="#A57CFE"/>
</mask>
<g mask="url(#mask0)">
<path d="M264.799 13.0195V162.422M264.799 13.0195V162.422" stroke="#B491FF"/>
<path d="M255.432 13.0195V162.422M255.432 13.0195V162.422" stroke="#B491FF"/>
<path d="M246.062 13.0195V162.422M246.062 13.0195V162.422" stroke="#B491FF"/>
<path d="M236.695 13.0195V162.422M236.695 13.0195V162.422" stroke="#B491FF"/>
<path d="M227.326 13.0195V162.422M227.326 13.0195V162.422" stroke="#B491FF"/>
<path d="M217.959 13.0195V162.422M217.959 13.0195V162.422" stroke="#B491FF"/>
<path d="M208.312 14.7305V162.396M208.312 14.7305V162.396" stroke="#B491FF"/>
<path d="M199.881 13.8633V163.266M199.881 13.8633V163.266" stroke="#B491FF"/>
<path d="M190.512 13.8633V163.266M190.512 13.8633V163.266" stroke="#B491FF"/>
<path d="M181.145 13.8633V163.266M181.145 13.8633V163.266" stroke="#B491FF"/>
<path d="M171.775 13.8633V163.266M171.775 13.8633V163.266" stroke="#B491FF"/>
<path d="M162.408 13.8633V163.266M162.408 13.8633V163.266" stroke="#B491FF"/>
<path d="M153.039 13.8633V163.266M153.039 13.8633V163.266" stroke="#B491FF"/>
<path d="M143.672 13.8633V163.266M143.672 13.8633V163.266" stroke="#B491FF"/>
</g>
<path d="M311.713 124.503C311.713 118.253 310.482 112.065 308.091 106.292C305.699 100.518 302.194 95.2724 297.775 90.8535C293.356 86.4347 288.111 82.9294 282.337 80.5379C276.563 78.1465 270.375 76.9156 264.126 76.9156C257.877 76.9156 251.689 78.1465 245.915 80.5379C240.142 82.9294 234.896 86.4347 230.477 90.8535C226.058 95.2724 222.553 100.518 220.161 106.292C217.77 112.065 216.539 118.253 216.539 124.503L264.126 124.503H311.713Z" fill="#8052E4"/>
<rect width="112" height="7" transform="matrix(-1 0 0 1 173 69.375)" fill="#31D67B"/>
<rect width="112" height="12" transform="matrix(-1 0 0 1 159 91.375)" fill="#31D67B"/>
<path d="M81.0189 123.688L81.0189 72.8738M81.0189 72.8738L80.4205 74.2659M81.0189 72.8738L81.6172 74.2659" stroke="black"/>
<path d="M91 123.688L91 84.6875M91 84.6875L90.5 85.756M91 84.6875L91.5 85.756" stroke="black"/>
<path d="M71.1202 123.688V91.6679M71.1202 91.6679L70.5002 92.5451M71.1202 91.6679L71.7402 92.5451" stroke="black"/>
<path d="M100.88 123.688V100.717M100.88 100.717L100.26 101.346M100.88 100.717L101.5 101.346" stroke="black"/>
<rect width="112" height="19" transform="matrix(-1 0 0 1 142 117.375)" fill="#31D67B"/>
</svg>
