<svg width="16" height="17" viewBox="0 0 16 17" fill="none" xmlns="http://www.w3.org/2000/svg">
<path d="M15.8983 8.22056C15.7554 8.02503 12.3496 3.43286 7.99992 3.43286C3.65019 3.43286 0.244313 8.02503 0.101531 8.22037C-0.0338438 8.40587 -0.0338438 8.65747 0.101531 8.84297C0.244313 9.0385 3.65019 13.6307 7.99992 13.6307C12.3496 13.6307 15.7554 9.03847 15.8983 8.84312C16.0339 8.65765 16.0339 8.40587 15.8983 8.22056ZM7.99992 12.5757C4.79588 12.5757 2.02085 9.52781 1.19938 8.5314C2.01979 7.53412 4.78901 4.4878 7.99992 4.4878C11.2038 4.4878 13.9787 7.53518 14.8005 8.53212C13.9801 9.52937 11.2108 12.5757 7.99992 12.5757Z" fill="url(#paint0_linear)"/>
<path d="M7.99993 5.36694C6.25486 5.36694 4.83508 6.78673 4.83508 8.53179C4.83508 10.2769 6.25486 11.6966 7.99993 11.6966C9.74499 11.6966 11.1648 10.2769 11.1648 8.53179C11.1648 6.78673 9.74499 5.36694 7.99993 5.36694ZM7.99993 10.6417C6.83649 10.6417 5.89005 9.6952 5.89005 8.53179C5.89005 7.36838 6.83652 6.42191 7.99993 6.42191C9.16333 6.42191 10.1098 7.36838 10.1098 8.53179C10.1098 9.6952 9.16336 10.6417 7.99993 10.6417Z" fill="url(#paint1_linear)"/>
<defs>
<linearGradient id="paint0_linear" x1="-2.60267" y1="14.6491" x2="7.03042" y2="-4.88819" gradientUnits="userSpaceOnUse">
<stop stop-color="#AB85FF"/>
<stop offset="0.526042" stop-color="#EBA3E3"/>
<stop offset="1" stop-color="#FFDBE4"/>
</linearGradient>
<linearGradient id="paint1_linear" x1="3.80545" y1="12.3288" x2="11.1011" y2="2.89793" gradientUnits="userSpaceOnUse">
<stop stop-color="#AB85FF"/>
<stop offset="0.526042" stop-color="#EBA3E3"/>
<stop offset="1" stop-color="#FFDBE4"/>
</linearGradient>
</defs>
</svg>
