<svg width="342" height="180" viewBox="0 0 342 180" fill="none" xmlns="http://www.w3.org/2000/svg">
<rect width="341" height="180" transform="translate(0.0234375)" fill="#F5F5F5"/>
<path d="M191.777 73.1697L274.776 73.1697M274.776 73.1697L272.502 72.2047M274.776 73.1697L272.502 74.1348" stroke="black"/>
<path d="M191.777 89.2051L307.748 89.2051M307.748 89.2051L304.57 88.2051M307.748 89.2051L304.57 90.2051" stroke="black"/>
<path d="M191.777 57.2051L244.078 57.2051M244.078 57.2051L242.645 56.2051M244.078 57.2051L242.645 58.2051" stroke="black"/>
<path d="M191.777 105.205L270.433 105.205M270.433 105.205L268.278 104.205M270.433 105.205L268.278 106.205" stroke="black"/>
<path d="M90.5688 32.4053L145.946 118.797H35.1918L90.5688 32.4053Z" fill="#C9AEFF"/>
<path d="M134.291 32.4053L189.668 118.797H78.9145L134.291 32.4053Z" fill="#AB85FF"/>
<path d="M178.831 32.4053L234.207 118.797H123.454L178.831 32.4053Z" fill="#8052E4"/>
<path d="M72.1639 126.728C72.1639 133.798 74.9721 140.577 79.9708 145.576C84.9694 150.575 91.7491 153.383 98.8183 153.383C105.887 153.383 112.667 150.575 117.666 145.576C122.664 140.577 125.473 133.798 125.473 126.728L98.8183 126.728H72.1639Z" fill="#31D67B"/>
<path d="M111.511 126.728C111.511 131.441 113.317 135.961 116.53 139.293C119.743 142.626 124.102 144.498 128.646 144.498C133.191 144.498 137.549 142.626 140.763 139.293C143.976 135.961 145.781 131.441 145.781 126.728L128.646 126.728H111.511Z" fill="#31D67B"/>
<path d="M35.3545 126.728C35.3545 131.441 37.9621 135.961 42.6037 139.293C47.2453 142.626 53.5407 144.498 60.105 144.498C66.6692 144.498 72.9646 142.626 77.6062 139.293C82.2478 135.961 84.8555 131.441 84.8555 126.728L60.105 126.728H35.3545Z" fill="#31D67B"/>
</svg>
