<svg width="342" height="180" viewBox="0 0 342 180" fill="none" xmlns="http://www.w3.org/2000/svg">
<rect width="341" height="180" transform="translate(0.0234375)" fill="#F5F5F5"/>
<path d="M148.018 78.8027L87.6328 146.94H260.418L316.618 78.8027H148.018Z" fill="#4AE991"/>
<mask id="mask0" mask-type="alpha" maskUnits="userSpaceOnUse" x="87" y="78" width="230" height="69">
<path d="M148.018 78.8027L87.6328 146.94H260.418L316.618 78.8027H148.018Z" fill="#4AE991"/>
</mask>
<g mask="url(#mask0)">
<path d="M457.824 81.2368C347.589 37.4927 268.85 37.4927 221.606 81.2368C174.362 124.981 95.6229 124.981 -14.6123 81.2368" stroke="#31D67B"/>
<path d="M444.016 165.01C359.509 99.2093 284.85 81.8352 220.039 112.888C155.229 143.941 80.57 126.567 -3.93754 60.7656" stroke="#31D67B"/>
<path d="M453.165 136.088C338.321 98.4935 259.825 102.79 217.677 148.977C175.529 195.163 97.033 199.46 -17.8107 161.866" stroke="#31D67B"/>
</g>
<path d="M202.435 146.94L202.435 83.6417M202.435 83.6417L200.784 85.3759M202.435 83.6417L204.086 85.3759" stroke="black"/>
<path d="M229.867 146.94L229.867 58.4956M229.867 58.4956L228.157 60.9188M229.867 58.4956L231.578 60.9188" stroke="black"/>
<path d="M175.121 146.94L175.121 107.054M175.121 107.054L173.41 108.146M175.121 107.054L176.832 108.146" stroke="black"/>
<path d="M257.238 146.94V118.326M257.238 118.326L255.528 119.11M257.238 118.326L258.949 119.11" stroke="black"/>
<path d="M142.805 94.1731C142.805 91.0329 141.558 88.0213 139.337 85.8009C137.117 83.5804 134.105 82.333 130.965 82.333C127.825 82.333 124.813 83.5804 122.593 85.8009C120.372 88.0213 119.125 91.0329 119.125 94.1731L130.965 94.1731H142.805Z" fill="#D4D4D4"/>
<path d="M125.328 94.1727C125.328 92.0792 124.526 90.0715 123.099 88.5912C121.672 87.1109 119.736 86.2793 117.717 86.2793C115.698 86.2793 113.762 87.1109 112.335 88.5912C110.907 90.0715 110.105 92.0792 110.105 94.1727L117.717 94.1727H125.328Z" fill="#D4D4D4"/>
<path d="M159.157 94.1727C159.157 92.0792 157.998 90.0715 155.936 88.5912C153.875 87.1109 151.078 86.2793 148.162 86.2793C145.246 86.2793 142.45 87.1109 140.388 88.5912C138.326 90.0715 137.168 92.0792 137.168 94.1727L148.162 94.1727H159.157Z" fill="#D4D4D4"/>
<path d="M98.0471 72.1876C98.0471 65.1184 95.2388 58.3388 90.2402 53.3401C85.2415 48.3414 78.4619 45.5332 71.3927 45.5332C64.3235 45.5332 57.5438 48.3414 52.5452 53.3401C47.5465 58.3388 44.7383 65.1184 44.7383 72.1876L71.3927 72.1876H98.0471Z" fill="#AB85FF"/>
<path d="M58.6996 72.1876C58.6996 67.4748 56.8943 62.955 53.6809 59.6226C50.4675 56.2901 46.1091 54.418 41.5647 54.418C37.0202 54.418 32.6618 56.2901 29.4484 59.6226C26.235 62.955 24.4297 67.4748 24.4297 72.1876L41.5647 72.1876H58.6996Z" fill="#AB85FF"/>
<path d="M134.856 72.1876C134.856 67.4748 132.249 62.955 127.607 59.6226C122.966 56.2901 116.67 54.418 110.106 54.418C103.542 54.418 97.2463 56.2901 92.6047 59.6226C87.9631 62.955 85.3555 67.4748 85.3555 72.1876L110.106 72.1876H134.856Z" fill="#AB85FF"/>
<path d="M133.587 48.3211C133.587 44.2737 131.98 40.3921 129.118 37.5302C126.256 34.6683 122.374 33.0605 118.327 33.0605C114.28 33.0605 110.398 34.6683 107.536 37.5302C104.674 40.3921 103.066 44.2737 103.066 48.3211L118.327 48.3211H133.587Z" fill="#8052E4"/>
<path d="M111.058 48.3211C111.058 45.6229 110.025 43.0352 108.185 41.1273C106.345 39.2193 103.85 38.1475 101.248 38.1475C98.646 38.1475 96.1507 39.2193 94.3109 41.1273C92.4711 43.0352 91.4375 45.6229 91.4375 48.3211L101.248 48.3211H111.058Z" fill="#8052E4"/>
<path d="M154.661 48.3211C154.661 45.6229 153.168 43.0352 150.511 41.1273C147.853 39.2193 144.249 38.1475 140.491 38.1475C136.733 38.1475 133.128 39.2193 130.471 41.1273C127.813 43.0352 126.32 45.6229 126.32 48.3211L140.491 48.3211H154.661Z" fill="#8052E4"/>
<path d="M228.777 32.2713C230.537 32.2713 232.117 32.8313 233.517 33.9513V32.7213H237.237V48.3213H233.517V47.0913C232.117 48.2113 230.537 48.7713 228.777 48.7713C226.637 48.7713 224.827 47.9913 223.347 46.4313C221.907 44.8513 221.187 42.8813 221.187 40.5213C221.187 38.1613 221.907 36.2013 223.347 34.6413C224.807 33.0613 226.617 32.2713 228.777 32.2713ZM232.227 37.3113C231.427 36.4513 230.437 36.0213 229.257 36.0213C228.057 36.0213 227.057 36.4513 226.257 37.3113C225.457 38.1713 225.057 39.2413 225.057 40.5213C225.057 41.8013 225.457 42.8713 226.257 43.7313C227.057 44.5913 228.057 45.0213 229.257 45.0213C230.437 45.0213 231.427 44.5913 232.227 43.7313C233.047 42.8513 233.457 41.7813 233.457 40.5213C233.457 39.2613 233.047 38.1913 232.227 37.3113Z" fill="#31D67B"/>
<path d="M233.517 33.9513L232.892 34.7322L234.517 36.0319V33.9513H233.517ZM233.517 32.7213V31.7213H232.517V32.7213H233.517ZM237.237 32.7213H238.237V31.7213H237.237V32.7213ZM237.237 48.3213V49.3213H238.237V48.3213H237.237ZM233.517 48.3213H232.517V49.3213H233.517V48.3213ZM233.517 47.0913H234.517V45.0107L232.892 46.3104L233.517 47.0913ZM223.347 46.4313L222.607 47.1049L222.614 47.1123L222.621 47.1195L223.347 46.4313ZM223.347 34.6413L222.612 33.9626L222.612 33.963L223.347 34.6413ZM232.227 37.3113L231.494 37.9924L231.495 37.993L232.227 37.3113ZM226.257 43.7313L226.989 43.0502L226.257 43.7313ZM232.227 43.7313L231.495 43.0496L231.494 43.0502L232.227 43.7313ZM228.777 33.2713C230.305 33.2713 231.666 33.7511 232.892 34.7322L234.141 33.1704C232.568 31.9114 230.768 31.2713 228.777 31.2713V33.2713ZM234.517 33.9513V32.7213H232.517V33.9513H234.517ZM233.517 33.7213H237.237V31.7213H233.517V33.7213ZM236.237 32.7213V48.3213H238.237V32.7213H236.237ZM237.237 47.3213H233.517V49.3213H237.237V47.3213ZM234.517 48.3213V47.0913H232.517V48.3213H234.517ZM232.892 46.3104C231.666 47.2914 230.305 47.7713 228.777 47.7713V49.7713C230.768 49.7713 232.568 49.1311 234.141 47.8722L232.892 46.3104ZM228.777 47.7713C226.912 47.7713 225.364 47.1051 224.072 45.743L222.621 47.1195C224.289 48.8775 226.361 49.7713 228.777 49.7713V47.7713ZM224.086 45.7577C222.831 44.3816 222.187 42.6601 222.187 40.5213H220.187C220.187 43.1025 220.982 45.321 222.607 47.1049L224.086 45.7577ZM222.187 40.5213C222.187 38.3823 222.831 36.6737 224.081 35.3196L222.612 33.963C220.982 35.7289 220.187 37.9403 220.187 40.5213H222.187ZM224.081 35.32C225.351 33.9457 226.894 33.2713 228.777 33.2713V31.2713C226.339 31.2713 224.262 32.1768 222.612 33.9626L224.081 35.32ZM232.959 36.6302C231.969 35.5657 230.713 35.0213 229.257 35.0213V37.0213C230.16 37.0213 230.885 37.3368 231.494 37.9924L232.959 36.6302ZM229.257 35.0213C227.786 35.0213 226.518 35.5619 225.524 36.6302L226.989 37.9924C227.595 37.3407 228.327 37.0213 229.257 37.0213V35.0213ZM225.524 36.6302C224.536 37.6926 224.057 39.0133 224.057 40.5213H226.057C226.057 39.4693 226.377 38.65 226.989 37.9924L225.524 36.6302ZM224.057 40.5213C224.057 42.0293 224.536 43.35 225.524 44.4124L226.989 43.0502C226.377 42.3926 226.057 41.5733 226.057 40.5213H224.057ZM225.524 44.4124C226.518 45.4807 227.786 46.0213 229.257 46.0213V44.0213C228.327 44.0213 227.595 43.7019 226.989 43.0502L225.524 44.4124ZM229.257 46.0213C230.713 46.0213 231.969 45.4768 232.959 44.4124L231.494 43.0502C230.885 43.7057 230.16 44.0213 229.257 44.0213V46.0213ZM232.958 44.413C233.959 43.3384 234.457 42.0211 234.457 40.5213H232.457C232.457 41.5415 232.134 42.3641 231.495 43.0496L232.958 44.413ZM234.457 40.5213C234.457 39.0215 233.959 37.7041 232.958 36.6296L231.495 37.993C232.134 38.6784 232.457 39.5011 232.457 40.5213H234.457Z" fill="black"/>
<path d="M192.675 71.3213V48.8213H196.425V56.9513C197.825 55.8313 199.395 55.2713 201.135 55.2713C203.295 55.2713 205.105 56.0613 206.565 57.6413C208.025 59.1813 208.755 61.1413 208.755 63.5213C208.755 65.8813 208.025 67.8513 206.565 69.4313C205.085 70.9913 203.275 71.7713 201.135 71.7713C199.395 71.7713 197.825 71.2113 196.425 70.0913V71.3213H192.675ZM203.625 60.3113C202.825 59.4513 201.835 59.0213 200.655 59.0213C199.475 59.0213 198.485 59.4513 197.685 60.3113C196.885 61.1713 196.485 62.2413 196.485 63.5213C196.485 64.8013 196.885 65.8713 197.685 66.7313C198.485 67.5913 199.475 68.0213 200.655 68.0213C201.835 68.0213 202.825 67.5913 203.625 66.7313C204.445 65.8513 204.855 64.7813 204.855 63.5213C204.855 62.2613 204.445 61.1913 203.625 60.3113Z" fill="#AB85FF"/>
<path d="M192.675 71.3213H191.675V72.3213H192.675V71.3213ZM192.675 48.8213V47.8213H191.675V48.8213H192.675ZM196.425 48.8213H197.425V47.8213H196.425V48.8213ZM196.425 56.9513H195.425V59.0319L197.049 57.7322L196.425 56.9513ZM206.565 57.6413L205.83 58.32L205.839 58.3293L206.565 57.6413ZM206.565 69.4313L207.29 70.1196L207.299 70.11L206.565 69.4313ZM196.425 70.0913L197.049 69.3104L195.425 68.0107V70.0913H196.425ZM196.425 71.3213V72.3213H197.425V71.3213H196.425ZM203.625 60.3113L202.892 60.9924L202.893 60.993L203.625 60.3113ZM197.685 66.7313L198.417 66.0502L197.685 66.7313ZM203.625 66.7313L202.893 66.0496L202.892 66.0502L203.625 66.7313ZM193.675 71.3213V48.8213H191.675V71.3213H193.675ZM192.675 49.8213H196.425V47.8213H192.675V49.8213ZM195.425 48.8213V56.9513H197.425V48.8213H195.425ZM197.049 57.7322C198.278 56.7493 199.629 56.2713 201.135 56.2713V54.2713C199.16 54.2713 197.371 54.9132 195.8 56.1704L197.049 57.7322ZM201.135 56.2713C203.017 56.2713 204.56 56.9457 205.83 58.32L207.299 56.9626C205.649 55.1768 203.572 54.2713 201.135 54.2713V56.2713ZM205.839 58.3293C207.101 59.6604 207.755 61.3636 207.755 63.5213H209.755C209.755 60.919 208.948 58.7022 207.29 56.9533L205.839 58.3293ZM207.755 63.5213C207.755 65.6562 207.102 67.376 205.83 68.7526L207.299 70.11C208.947 68.3266 209.755 66.1063 209.755 63.5213H207.755ZM205.839 68.743C204.547 70.1051 202.999 70.7713 201.135 70.7713V72.7713C203.55 72.7713 205.622 71.8775 207.29 70.1195L205.839 68.743ZM201.135 70.7713C199.629 70.7713 198.278 70.2932 197.049 69.3104L195.8 70.8722C197.371 72.1293 199.16 72.7713 201.135 72.7713V70.7713ZM195.425 70.0913V71.3213H197.425V70.0913H195.425ZM196.425 70.3213H192.675V72.3213H196.425V70.3213ZM204.357 59.6302C203.367 58.5657 202.111 58.0213 200.655 58.0213V60.0213C201.558 60.0213 202.282 60.3368 202.892 60.9924L204.357 59.6302ZM200.655 58.0213C199.198 58.0213 197.942 58.5657 196.952 59.6302L198.417 60.9924C199.027 60.3368 199.751 60.0213 200.655 60.0213V58.0213ZM196.952 59.6302C195.964 60.6926 195.485 62.0133 195.485 63.5213H197.485C197.485 62.4693 197.805 61.65 198.417 60.9924L196.952 59.6302ZM195.485 63.5213C195.485 65.0293 195.964 66.35 196.952 67.4124L198.417 66.0502C197.805 65.3926 197.485 64.5733 197.485 63.5213H195.485ZM196.952 67.4124C197.942 68.4768 199.198 69.0213 200.655 69.0213V67.0213C199.751 67.0213 199.027 66.7057 198.417 66.0502L196.952 67.4124ZM200.655 69.0213C202.111 69.0213 203.367 68.4768 204.357 67.4124L202.892 66.0502C202.282 66.7057 201.558 67.0213 200.655 67.0213V69.0213ZM204.356 67.413C205.357 66.3384 205.855 65.0211 205.855 63.5213H203.855C203.855 64.5415 203.532 65.3641 202.893 66.0496L204.356 67.413ZM205.855 63.5213C205.855 62.0215 205.357 60.7041 204.356 59.6296L202.893 60.993C203.532 61.6784 203.855 62.5011 203.855 63.5213H205.855Z" fill="black"/>
<path d="M267.195 97.4L267.479 98.3589L268.513 98.0529L268.13 97.045L267.195 97.4ZM263.445 98.51L262.529 98.9096L262.882 99.7197L263.729 99.4689L263.445 98.51ZM261.855 96.68L261.306 97.5157L261.32 97.5248L261.334 97.5333L261.855 96.68ZM256.365 97.28L257.081 97.9788H257.081L256.365 97.28ZM256.365 103.7L257.081 103.001L256.365 103.7ZM261.855 104.33L262.388 105.177L262.394 105.173L261.855 104.33ZM263.445 102.47L263.729 101.511L262.882 101.26L262.529 102.07L263.445 102.47ZM267.195 103.58L268.13 103.935L268.513 102.927L267.479 102.621L267.195 103.58ZM264.225 107.36L264.78 108.192L264.788 108.187L264.225 107.36ZM253.575 106.4L252.864 107.103L252.87 107.109L252.877 107.116L253.575 106.4ZM253.575 94.61L252.868 93.9029L253.575 94.61ZM264.225 93.65L263.662 94.4766L263.671 94.4821L264.225 93.65ZM266.912 96.4412L263.162 97.5512L263.729 99.4689L267.479 98.3589L266.912 96.4412ZM264.362 98.1105C263.941 97.1439 263.274 96.3748 262.377 95.8268L261.334 97.5333C261.877 97.8653 262.27 98.3162 262.529 98.9096L264.362 98.1105ZM262.405 95.8443C261.533 95.2716 260.55 94.99 259.485 94.99V96.99C260.181 96.99 260.778 97.1685 261.306 97.5157L262.405 95.8443ZM259.485 94.99C257.986 94.99 256.685 95.522 255.65 96.5813L257.081 97.9788C257.726 97.3181 258.505 96.99 259.485 96.99V94.99ZM255.65 96.5813C254.615 97.6411 254.105 98.9676 254.105 100.49H256.105C256.105 99.4525 256.436 98.639 257.081 97.9788L255.65 96.5813ZM254.105 100.49C254.105 102.013 254.615 103.339 255.65 104.399L257.081 103.001C256.436 102.341 256.105 101.528 256.105 100.49H254.105ZM255.65 104.399C256.685 105.458 257.986 105.99 259.485 105.99V103.99C258.505 103.99 257.726 103.662 257.081 103.001L255.65 104.399ZM259.485 105.99C260.541 105.99 261.518 105.723 262.388 105.177L261.323 103.483C260.793 103.817 260.19 103.99 259.485 103.99V105.99ZM262.394 105.173C263.28 104.606 263.942 103.832 264.362 102.87L262.529 102.07C262.268 102.668 261.87 103.134 261.317 103.487L262.394 105.173ZM263.162 103.429L266.912 104.539L267.479 102.621L263.729 101.511L263.162 103.429ZM266.261 103.225C265.732 104.616 264.871 105.71 263.662 106.534L264.788 108.187C266.34 107.13 267.458 105.704 268.13 103.935L266.261 103.225ZM263.671 106.528C262.467 107.33 261.083 107.74 259.485 107.74V109.74C261.448 109.74 263.224 109.23 264.78 108.192L263.671 106.528ZM259.485 107.74C257.393 107.74 255.677 107.053 254.273 105.684L252.877 107.116C254.674 108.867 256.898 109.74 259.485 109.74V107.74ZM254.287 105.697C252.924 104.317 252.235 102.605 252.235 100.49H250.235C250.235 103.095 251.107 105.323 252.864 107.103L254.287 105.697ZM252.235 100.49C252.235 98.3748 252.924 96.6756 254.282 95.3171L252.868 93.9029C251.107 95.6645 250.235 97.8853 250.235 100.49H252.235ZM254.282 95.3171C255.664 93.9361 257.374 93.24 259.485 93.24V91.24C256.877 91.24 254.647 92.124 252.868 93.9029L254.282 95.3171ZM259.485 93.24C261.079 93.24 262.46 93.6572 263.662 94.4765L264.788 92.8236C263.231 91.7629 261.452 91.24 259.485 91.24V93.24ZM263.671 94.4821C264.874 95.2842 265.733 96.3658 266.261 97.755L268.13 97.045C267.458 95.2743 266.337 93.8559 264.78 92.818L263.671 94.4821Z" fill="black"/>
</svg>
