<svg width="342" height="180" viewBox="0 0 342 180" fill="none" xmlns="http://www.w3.org/2000/svg">
<rect width="341" height="180" transform="translate(0.0234375)" fill="#F5F5F5"/>
<path d="M197.023 90C197.023 99.3239 195.187 108.556 191.619 117.171C188.051 125.785 182.821 133.612 176.228 140.205C169.635 146.798 161.808 152.027 153.194 155.595C144.58 159.164 135.347 161 126.023 161C116.7 161 107.467 159.164 98.8529 155.595C90.2388 152.027 82.4118 146.798 75.8189 140.205C69.2259 133.612 63.9961 125.785 60.428 117.171C56.8599 108.556 55.0234 99.3238 55.0234 90L126.023 90H197.023Z" fill="#AB85FF"/>
<mask id="mask0" mask-type="alpha" maskUnits="userSpaceOnUse" x="55" y="90" width="143" height="71">
<path d="M197.023 90C197.023 99.3239 195.187 108.556 191.619 117.171C188.051 125.785 182.821 133.612 176.228 140.205C169.635 146.798 161.808 152.027 153.194 155.595C144.58 159.164 135.347 161 126.023 161C116.7 161 107.467 159.164 98.8529 155.595C90.2388 152.027 82.4118 146.798 75.8189 140.205C69.2259 133.612 63.9961 125.785 60.428 117.171C56.8599 108.556 55.0234 99.3238 55.0234 90L126.023 90H197.023Z" fill="#AB85FF"/>
</mask>
<g mask="url(#mask0)">
<path d="M-15.1406 107.546C61.3621 63.8298 116.007 63.8298 148.794 107.546C181.581 151.262 236.226 151.262 312.728 107.546" stroke="#B491FF" stroke-width="2"/>
<path d="M-5.55883 191.266C53.089 125.507 104.902 108.144 149.88 139.177C194.858 170.21 246.671 152.847 305.319 87.0882" stroke="#B491FF" stroke-width="2"/>
<path d="M-11.9082 162.361C67.7929 124.792 122.269 129.085 151.519 175.242C180.77 221.399 235.246 225.692 314.947 188.123" stroke="#B491FF" stroke-width="2"/>
</g>
<path d="M160.023 77C160.023 69.9086 161.42 62.8867 164.134 56.3351C166.848 49.7835 170.825 43.8306 175.84 38.8162C180.854 33.8019 186.807 29.8243 193.359 27.1105C199.91 24.3968 206.932 23 214.023 23C221.115 23 228.137 24.3968 234.688 27.1105C241.24 29.8243 247.193 33.8019 252.207 38.8162C257.222 43.8306 261.199 49.7835 263.913 56.3351C266.627 62.8867 268.023 69.9086 268.023 77L214.023 77H160.023Z" fill="#31D67B"/>
<mask id="path-7-inside-1" fill="white">
<path d="M147.023 72C147.023 64.9086 148.42 57.8867 151.134 51.3351C153.848 44.7835 157.825 38.8306 162.84 33.8162C167.854 28.8019 173.807 24.8243 180.359 22.1105C186.91 19.3968 193.932 18 201.023 18C208.115 18 215.137 19.3968 221.688 22.1105C228.24 24.8243 234.193 28.8019 239.207 33.8162C244.222 38.8306 248.199 44.7835 250.913 51.3351C253.627 57.8867 255.023 64.9086 255.023 72L201.023 72H147.023Z"/>
</mask>
<path d="M147.023 72C147.023 64.9086 148.42 57.8867 151.134 51.3351C153.848 44.7835 157.825 38.8306 162.84 33.8162C167.854 28.8019 173.807 24.8243 180.359 22.1105C186.91 19.3968 193.932 18 201.023 18C208.115 18 215.137 19.3968 221.688 22.1105C228.24 24.8243 234.193 28.8019 239.207 33.8162C244.222 38.8306 248.199 44.7835 250.913 51.3351C253.627 57.8867 255.023 64.9086 255.023 72L201.023 72H147.023Z" stroke="black" stroke-width="2" mask="url(#path-7-inside-1)"/>
<path d="M98.8066 90L98.8066 48.463M98.8066 48.463L98.0115 49.601M98.8066 48.463L99.6016 49.601" stroke="black"/>
<path d="M112.016 90L112.016 31.9621M112.016 31.9621L111.192 33.5521M112.016 31.9621L112.84 33.5521" stroke="black"/>
<path d="M85.6567 90L85.6567 63.826M85.6567 63.826L84.8328 64.5431M85.6567 63.826L86.4805 64.5431" stroke="black"/>
<path d="M125.2 90V71.223M125.2 71.223L124.376 71.7375M125.2 71.223L126.023 71.7375" stroke="black"/>
<path d="M114.134 131.39V124.61C114.134 122.45 114.904 120.65 116.444 119.21C118.004 117.77 119.944 117.05 122.264 117.05C124.584 117.05 126.514 117.77 128.054 119.21C129.614 120.65 130.394 122.45 130.394 124.61V131.39C130.394 133.55 129.614 135.35 128.054 136.79C126.514 138.23 124.584 138.95 122.264 138.95C119.944 138.95 118.004 138.23 116.444 136.79C114.904 135.35 114.134 133.55 114.134 131.39ZM118.034 124.55V131.45C118.034 132.51 118.434 133.41 119.234 134.15C120.054 134.87 121.064 135.23 122.264 135.23C123.464 135.23 124.474 134.87 125.294 134.15C126.114 133.39 126.524 132.49 126.524 131.45V124.55C126.524 123.49 126.114 122.6 125.294 121.88C124.494 121.14 123.484 120.77 122.264 120.77C121.044 120.77 120.034 121.14 119.234 121.88C118.434 122.6 118.034 123.49 118.034 124.55ZM144.252 122.27L140.622 124.07L139.002 120.65L145.362 117.5H148.152V138.5H144.252V122.27ZM169.243 123.62C169.243 122.84 168.903 122.17 168.223 121.61C167.583 121.05 166.793 120.77 165.853 120.77C164.953 120.77 164.143 121.05 163.423 121.61C162.723 122.15 162.193 122.89 161.833 123.83L158.233 122.12C158.913 120.56 159.933 119.33 161.293 118.43C162.653 117.51 164.173 117.05 165.853 117.05C167.953 117.05 169.703 117.68 171.103 118.94C172.543 120.2 173.263 121.72 173.263 123.5C173.263 124.58 172.903 125.71 172.183 126.89C171.463 128.05 170.323 129.38 168.763 130.88L164.653 134.78H173.443V138.5H158.653V135.59L166.363 128.24C168.283 126.38 169.243 124.84 169.243 123.62ZM192.616 123.35C192.616 122.63 192.276 122.02 191.596 121.52C190.916 121.02 190.046 120.77 188.986 120.77C188.126 120.77 187.366 120.95 186.706 121.31C186.066 121.65 185.596 122.1 185.296 122.66L181.756 120.98C182.376 119.78 183.336 118.83 184.636 118.13C185.936 117.41 187.396 117.05 189.016 117.05C191.196 117.05 193.016 117.64 194.476 118.82C195.916 119.98 196.636 121.45 196.636 123.23C196.636 124.97 195.886 126.43 194.386 127.61C196.246 128.81 197.176 130.44 197.176 132.5C197.176 134.36 196.416 135.9 194.896 137.12C193.376 138.34 191.486 138.95 189.226 138.95C187.366 138.95 185.736 138.52 184.336 137.66C182.936 136.78 181.986 135.64 181.486 134.24L185.236 132.92C185.456 133.6 185.926 134.16 186.646 134.6C187.366 135.02 188.216 135.23 189.196 135.23C190.316 135.23 191.256 134.96 192.016 134.42C192.776 133.86 193.156 133.16 193.156 132.32C193.156 131.52 192.776 130.86 192.016 130.34C191.276 129.8 190.366 129.53 189.286 129.53H187.696V126.02H188.776C189.856 126.02 190.766 125.77 191.506 125.27C192.246 124.77 192.616 124.13 192.616 123.35ZM216.254 138.5V134.48H205.364V130.76L216.434 117.5H220.124V130.76H222.794V134.48H220.124V138.5H216.254ZM216.254 123.29L210.014 130.76H216.254V123.29ZM246.57 131.81C246.57 133.83 245.8 135.53 244.26 136.91C242.72 138.27 240.81 138.95 238.53 138.95C236.69 138.95 235.07 138.47 233.67 137.51C232.27 136.53 231.27 135.22 230.67 133.58L234.54 132.53C234.88 133.37 235.41 134.03 236.13 134.51C236.85 134.99 237.66 135.23 238.56 135.23C239.7 135.23 240.64 134.9 241.38 134.24C242.16 133.58 242.55 132.77 242.55 131.81C242.55 130.77 242.12 129.91 241.26 129.23C240.44 128.55 239.39 128.21 238.11 128.21H232.26L233.34 117.5H244.77V121.07H236.55L236.22 124.67H238.32C240.66 124.67 242.62 125.35 244.2 126.71C245.78 128.05 246.57 129.75 246.57 131.81Z" fill="#AB85FF"/>
<path d="M116.444 119.21L115.765 118.475L115.761 118.48L116.444 119.21ZM128.054 119.21L127.371 119.94L127.375 119.945L128.054 119.21ZM128.054 136.79L127.375 136.055L127.371 136.06L128.054 136.79ZM116.444 136.79L115.761 137.52L115.765 137.525L116.444 136.79ZM119.234 134.15L118.555 134.884L118.564 134.893L118.574 134.901L119.234 134.15ZM125.294 134.15L125.954 134.901L125.964 134.893L125.974 134.883L125.294 134.15ZM125.294 121.88L124.615 122.614L124.624 122.623L124.634 122.631L125.294 121.88ZM119.234 121.88L119.903 122.623L119.913 122.614L119.234 121.88ZM115.134 131.39V124.61H113.134V131.39H115.134ZM115.134 124.61C115.134 122.719 115.795 121.186 117.127 119.94L115.761 118.48C114.013 120.114 113.134 122.181 113.134 124.61H115.134ZM117.122 119.945C118.479 118.692 120.17 118.05 122.264 118.05V116.05C119.718 116.05 117.528 116.848 115.765 118.475L117.122 119.945ZM122.264 118.05C124.358 118.05 126.035 118.692 127.371 119.94L128.737 118.48C126.992 116.848 124.81 116.05 122.264 116.05V118.05ZM127.375 119.945C128.726 121.192 129.394 122.724 129.394 124.61H131.394C131.394 122.176 130.501 120.108 128.732 118.475L127.375 119.945ZM129.394 124.61V131.39H131.394V124.61H129.394ZM129.394 131.39C129.394 133.276 128.726 134.808 127.375 136.055L128.732 137.525C130.501 135.892 131.394 133.824 131.394 131.39H129.394ZM127.371 136.06C126.035 137.308 124.358 137.95 122.264 137.95V139.95C124.81 139.95 126.992 139.152 128.737 137.52L127.371 136.06ZM122.264 137.95C120.17 137.95 118.479 137.308 117.122 136.055L115.765 137.525C117.528 139.152 119.718 139.95 122.264 139.95V137.95ZM117.127 136.06C115.795 134.814 115.134 133.281 115.134 131.39H113.134C113.134 133.819 114.013 135.886 115.761 137.52L117.127 136.06ZM117.034 124.55V131.45H119.034V124.55H117.034ZM117.034 131.45C117.034 132.797 117.557 133.961 118.555 134.884L119.913 133.416C119.311 132.859 119.034 132.223 119.034 131.45H117.034ZM118.574 134.901C119.595 135.798 120.847 136.23 122.264 136.23V134.23C121.28 134.23 120.512 133.942 119.894 133.399L118.574 134.901ZM122.264 136.23C123.68 136.23 124.932 135.798 125.954 134.901L124.634 133.399C124.015 133.942 123.247 134.23 122.264 134.23V136.23ZM125.974 134.883C126.981 133.95 127.524 132.791 127.524 131.45H125.524C125.524 132.189 125.247 132.83 124.614 133.417L125.974 134.883ZM127.524 131.45V124.55H125.524V131.45H127.524ZM127.524 124.55C127.524 123.193 126.983 122.032 125.954 121.129L124.634 122.631C125.245 123.168 125.524 123.787 125.524 124.55H127.524ZM125.973 121.146C124.965 120.214 123.703 119.77 122.264 119.77V121.77C123.264 121.77 124.022 122.066 124.615 122.614L125.973 121.146ZM122.264 119.77C120.824 119.77 119.562 120.214 118.555 121.146L119.913 122.614C120.505 122.066 121.263 121.77 122.264 121.77V119.77ZM118.565 121.137C117.558 122.043 117.034 123.202 117.034 124.55H119.034C119.034 123.778 119.31 123.157 119.903 122.623L118.565 121.137ZM144.252 122.27H145.252V120.658L143.807 121.374L144.252 122.27ZM140.622 124.07L139.718 124.498L140.154 125.418L141.066 124.966L140.622 124.07ZM139.002 120.65L138.558 119.754L137.677 120.19L138.098 121.078L139.002 120.65ZM145.362 117.5V116.5H145.128L144.918 116.604L145.362 117.5ZM148.152 117.5H149.152V116.5H148.152V117.5ZM148.152 138.5V139.5H149.152V138.5H148.152ZM144.252 138.5H143.252V139.5H144.252V138.5ZM143.807 121.374L140.177 123.174L141.066 124.966L144.696 123.166L143.807 121.374ZM141.525 123.642L139.905 120.222L138.098 121.078L139.718 124.498L141.525 123.642ZM139.445 121.546L145.805 118.396L144.918 116.604L138.558 119.754L139.445 121.546ZM145.362 118.5H148.152V116.5H145.362V118.5ZM147.152 117.5V138.5H149.152V117.5H147.152ZM148.152 137.5H144.252V139.5H148.152V137.5ZM145.252 138.5V122.27H143.252V138.5H145.252ZM168.223 121.61L167.565 122.363L167.576 122.372L167.588 122.382L168.223 121.61ZM163.423 121.61L164.034 122.402L164.037 122.399L163.423 121.61ZM161.833 123.83L161.404 124.733L162.381 125.197L162.767 124.188L161.833 123.83ZM158.233 122.12L157.317 121.72L156.93 122.608L157.804 123.023L158.233 122.12ZM161.293 118.43L161.845 119.264L161.854 119.258L161.293 118.43ZM171.103 118.94L170.434 119.683L170.445 119.693L171.103 118.94ZM172.183 126.89L173.033 127.417L173.037 127.411L172.183 126.89ZM168.763 130.88L169.452 131.605L169.456 131.601L168.763 130.88ZM164.653 134.78L163.965 134.055L162.147 135.78H164.653V134.78ZM173.443 134.78H174.443V133.78H173.443V134.78ZM173.443 138.5V139.5H174.443V138.5H173.443ZM158.653 138.5H157.653V139.5H158.653V138.5ZM158.653 135.59L157.963 134.866L157.653 135.162V135.59H158.653ZM166.363 128.24L167.053 128.964L167.059 128.958L166.363 128.24ZM170.243 123.62C170.243 122.5 169.736 121.56 168.859 120.838L167.588 122.382C168.071 122.78 168.243 123.18 168.243 123.62H170.243ZM168.882 120.857C168.04 120.121 167.008 119.77 165.853 119.77V121.77C166.579 121.77 167.127 121.979 167.565 122.363L168.882 120.857ZM165.853 119.77C164.728 119.77 163.702 120.126 162.809 120.821L164.037 122.399C164.584 121.974 165.179 121.77 165.853 121.77V119.77ZM162.812 120.818C161.948 121.485 161.316 122.385 160.899 123.472L162.767 124.188C163.071 123.395 163.499 122.815 164.034 122.402L162.812 120.818ZM162.262 122.927L158.662 121.217L157.804 123.023L161.404 124.733L162.262 122.927ZM159.15 122.52C159.756 121.128 160.653 120.053 161.845 119.264L160.741 117.596C159.213 118.607 158.07 119.992 157.317 121.72L159.15 122.52ZM161.854 119.258C163.044 118.453 164.368 118.05 165.853 118.05V116.05C163.978 116.05 162.262 116.567 160.733 117.602L161.854 119.258ZM165.853 118.05C167.737 118.05 169.239 118.608 170.434 119.683L171.772 118.197C170.167 116.752 168.17 116.05 165.853 116.05V118.05ZM170.445 119.693C171.686 120.779 172.263 122.032 172.263 123.5H174.263C174.263 121.408 173.4 119.621 171.762 118.187L170.445 119.693ZM172.263 123.5C172.263 124.351 171.98 125.303 171.33 126.369L173.037 127.411C173.826 126.117 174.263 124.809 174.263 123.5H172.263ZM171.334 126.363C170.675 127.423 169.601 128.687 168.07 130.159L169.456 131.601C171.046 130.073 172.251 128.677 173.033 127.417L171.334 126.363ZM168.075 130.155L163.965 134.055L165.342 135.505L169.452 131.605L168.075 130.155ZM164.653 135.78H173.443V133.78H164.653V135.78ZM172.443 134.78V138.5H174.443V134.78H172.443ZM173.443 137.5H158.653V139.5H173.443V137.5ZM159.653 138.5V135.59H157.653V138.5H159.653ZM159.343 136.314L167.053 128.964L165.673 127.516L157.963 134.866L159.343 136.314ZM167.059 128.958C168.053 127.996 168.834 127.082 169.372 126.219C169.906 125.363 170.243 124.487 170.243 123.62H168.243C168.243 123.973 168.101 124.477 167.675 125.161C167.253 125.838 166.594 126.624 165.667 127.522L167.059 128.958ZM191.596 121.52L192.188 120.714V120.714L191.596 121.52ZM186.706 121.31L187.175 122.193L187.184 122.188L186.706 121.31ZM185.296 122.66L184.867 123.563L185.727 123.972L186.177 123.132L185.296 122.66ZM181.756 120.98L180.867 120.521L180.392 121.44L181.327 121.883L181.756 120.98ZM184.636 118.13L185.11 119.011L185.12 119.005L184.636 118.13ZM194.476 118.82L193.847 119.598L193.848 119.599L194.476 118.82ZM194.386 127.61L193.767 126.824L192.666 127.691L193.843 128.45L194.386 127.61ZM194.896 137.12L194.27 136.34L194.896 137.12ZM184.336 137.66L183.803 138.507L183.812 138.512L184.336 137.66ZM181.486 134.24L181.154 133.297L180.206 133.63L180.544 134.576L181.486 134.24ZM185.236 132.92L186.187 132.612L185.871 131.636L184.904 131.977L185.236 132.92ZM186.646 134.6L186.124 135.453L186.133 135.459L186.142 135.464L186.646 134.6ZM192.016 134.42L192.595 135.235L192.602 135.23L192.609 135.225L192.016 134.42ZM192.016 130.34L191.426 131.148L191.438 131.157L191.451 131.165L192.016 130.34ZM187.696 129.53H186.696V130.53H187.696V129.53ZM187.696 126.02V125.02H186.696V126.02H187.696ZM193.616 123.35C193.616 122.254 193.074 121.366 192.188 120.714L191.003 122.326C191.477 122.674 191.616 123.006 191.616 123.35H193.616ZM192.188 120.714C191.297 120.059 190.204 119.77 188.986 119.77V121.77C189.888 121.77 190.535 121.981 191.003 122.326L192.188 120.714ZM188.986 119.77C187.983 119.77 187.054 119.981 186.227 120.432L187.184 122.188C187.678 121.919 188.269 121.77 188.986 121.77V119.77ZM186.236 120.427C185.447 120.846 184.821 121.429 184.414 122.188L186.177 123.132C186.371 122.771 186.685 122.454 187.175 122.193L186.236 120.427ZM185.724 121.757L182.184 120.077L181.327 121.883L184.867 123.563L185.724 121.757ZM182.644 121.439C183.163 120.435 183.97 119.624 185.11 119.01L184.162 117.25C182.701 118.036 181.588 119.125 180.867 120.521L182.644 121.439ZM185.12 119.005C186.259 118.374 187.549 118.05 189.016 118.05V116.05C187.242 116.05 185.613 116.446 184.151 117.255L185.12 119.005ZM189.016 118.05C191.006 118.05 192.593 118.584 193.847 119.598L195.104 118.042C193.438 116.696 191.386 116.05 189.016 116.05V118.05ZM193.848 119.599C195.063 120.577 195.636 121.766 195.636 123.23H197.636C197.636 121.134 196.768 119.383 195.103 118.041L193.848 119.599ZM195.636 123.23C195.636 124.631 195.053 125.813 193.767 126.824L195.004 128.396C196.718 127.047 197.636 125.309 197.636 123.23H195.636ZM193.843 128.45C195.443 129.483 196.176 130.809 196.176 132.5H198.176C198.176 130.071 197.048 128.137 194.928 126.77L193.843 128.45ZM196.176 132.5C196.176 134.04 195.566 135.299 194.27 136.34L195.522 137.9C197.265 136.501 198.176 134.68 198.176 132.5H196.176ZM194.27 136.34C192.955 137.396 191.296 137.95 189.226 137.95V139.95C191.675 139.95 193.796 139.284 195.522 137.9L194.27 136.34ZM189.226 137.95C187.525 137.95 186.082 137.559 184.859 136.808L183.812 138.512C185.39 139.481 187.206 139.95 189.226 139.95V137.95ZM184.868 136.813C183.635 136.039 182.843 135.069 182.427 133.904L180.544 134.576C181.128 136.211 182.236 137.521 183.803 138.507L184.868 136.813ZM181.818 135.183L185.568 133.863L184.904 131.977L181.154 133.297L181.818 135.183ZM184.284 133.228C184.591 134.175 185.239 134.912 186.124 135.453L187.167 133.747C186.612 133.408 186.321 133.025 186.187 132.612L184.284 133.228ZM186.142 135.464C187.04 135.988 188.07 136.23 189.196 136.23V134.23C188.361 134.23 187.692 134.052 187.149 133.736L186.142 135.464ZM189.196 136.23C190.481 136.23 191.634 135.918 192.595 135.235L191.436 133.605C190.877 134.002 190.151 134.23 189.196 134.23V136.23ZM192.609 135.225C193.588 134.503 194.156 133.52 194.156 132.32H192.156C192.156 132.8 191.963 133.217 191.422 133.615L192.609 135.225ZM194.156 132.32C194.156 131.136 193.565 130.188 192.58 129.515L191.451 131.165C191.986 131.532 192.156 131.904 192.156 132.32H194.156ZM192.605 129.532C191.665 128.846 190.538 128.53 189.286 128.53V130.53C190.193 130.53 190.886 130.754 191.426 131.148L192.605 129.532ZM189.286 128.53H187.696V130.53H189.286V128.53ZM188.696 129.53V126.02H186.696V129.53H188.696ZM187.696 127.02H188.776V125.02H187.696V127.02ZM188.776 127.02C190.013 127.02 191.128 126.732 192.065 126.099L190.946 124.441C190.403 124.808 189.698 125.02 188.776 125.02V127.02ZM192.065 126.099C193.034 125.444 193.616 124.514 193.616 123.35H191.616C191.616 123.746 191.457 124.096 190.946 124.441L192.065 126.099ZM216.254 138.5H215.254V139.5H216.254V138.5ZM216.254 134.48H217.254V133.48H216.254V134.48ZM205.364 134.48H204.364V135.48H205.364V134.48ZM205.364 130.76L204.596 130.119L204.364 130.397V130.76H205.364ZM216.434 117.5V116.5H215.966L215.666 116.859L216.434 117.5ZM220.124 117.5H221.124V116.5H220.124V117.5ZM220.124 130.76H219.124V131.76H220.124V130.76ZM222.794 130.76H223.794V129.76H222.794V130.76ZM222.794 134.48V135.48H223.794V134.48H222.794ZM220.124 134.48V133.48H219.124V134.48H220.124ZM220.124 138.5V139.5H221.124V138.5H220.124ZM216.254 123.29H217.254V120.533L215.486 122.649L216.254 123.29ZM210.014 130.76L209.246 130.119L207.875 131.76H210.014V130.76ZM216.254 130.76V131.76H217.254V130.76H216.254ZM217.254 138.5V134.48H215.254V138.5H217.254ZM216.254 133.48H205.364V135.48H216.254V133.48ZM206.364 134.48V130.76H204.364V134.48H206.364ZM206.131 131.401L217.201 118.141L215.666 116.859L204.596 130.119L206.131 131.401ZM216.434 118.5H220.124V116.5H216.434V118.5ZM219.124 117.5V130.76H221.124V117.5H219.124ZM220.124 131.76H222.794V129.76H220.124V131.76ZM221.794 130.76V134.48H223.794V130.76H221.794ZM222.794 133.48H220.124V135.48H222.794V133.48ZM219.124 134.48V138.5H221.124V134.48H219.124ZM220.124 137.5H216.254V139.5H220.124V137.5ZM215.486 122.649L209.246 130.119L210.781 131.401L217.021 123.931L215.486 122.649ZM210.014 131.76H216.254V129.76H210.014V131.76ZM217.254 130.76V123.29H215.254V130.76H217.254ZM244.26 136.91L244.922 137.66L244.928 137.655L244.26 136.91ZM233.67 137.51L233.097 138.329L233.105 138.335L233.67 137.51ZM230.67 133.58L230.409 132.615L229.357 132.9L229.731 133.924L230.67 133.58ZM234.54 132.53L235.467 132.155L235.135 131.333L234.279 131.565L234.54 132.53ZM236.13 134.51L235.576 135.342L236.13 134.51ZM241.38 134.24L240.734 133.477L240.725 133.485L240.715 133.494L241.38 134.24ZM241.26 129.23L240.622 130L240.631 130.007L240.64 130.014L241.26 129.23ZM232.26 128.21L231.265 128.11L231.154 129.21H232.26V128.21ZM233.34 117.5V116.5H232.436L232.345 117.4L233.34 117.5ZM244.77 117.5H245.77V116.5H244.77V117.5ZM244.77 121.07V122.07H245.77V121.07H244.77ZM236.55 121.07V120.07H235.638L235.555 120.979L236.55 121.07ZM236.22 124.67L235.225 124.579L235.125 125.67H236.22V124.67ZM244.2 126.71L243.548 127.468L243.554 127.473L244.2 126.71ZM245.57 131.81C245.57 133.538 244.927 134.97 243.593 136.165L244.928 137.655C246.674 136.09 247.57 134.122 247.57 131.81H245.57ZM243.598 136.16C242.262 137.341 240.595 137.95 238.53 137.95V139.95C241.025 139.95 243.179 139.199 244.922 137.66L243.598 136.16ZM238.53 137.95C236.874 137.95 235.455 137.521 234.236 136.685L233.105 138.335C234.685 139.419 236.506 139.95 238.53 139.95V137.95ZM234.244 136.691C233.015 135.831 232.141 134.689 231.61 133.236L229.731 133.924C230.4 135.751 231.525 137.229 233.097 138.329L234.244 136.691ZM230.932 134.545L234.802 133.495L234.279 131.565L230.409 132.615L230.932 134.545ZM233.613 132.905C234.025 133.922 234.68 134.745 235.576 135.342L236.685 133.678C236.14 133.315 235.736 132.818 235.467 132.155L233.613 132.905ZM235.576 135.342C236.467 135.936 237.471 136.23 238.56 136.23V134.23C237.849 134.23 237.234 134.044 236.685 133.678L235.576 135.342ZM238.56 136.23C239.907 136.23 241.096 135.834 242.046 134.986L240.715 133.494C240.185 133.966 239.494 134.23 238.56 134.23V136.23ZM242.026 135.003C243.014 134.167 243.55 133.085 243.55 131.81H241.55C241.55 132.455 241.306 132.993 240.734 133.477L242.026 135.003ZM243.55 131.81C243.55 130.446 242.965 129.303 241.881 128.446L240.64 130.014C241.275 130.517 241.55 131.094 241.55 131.81H243.55ZM241.899 128.46C240.865 127.603 239.575 127.21 238.11 127.21V129.21C239.206 129.21 240.016 129.497 240.622 130L241.899 128.46ZM238.11 127.21H232.26V129.21H238.11V127.21ZM233.255 128.31L234.335 117.6L232.345 117.4L231.265 128.11L233.255 128.31ZM233.34 118.5H244.77V116.5H233.34V118.5ZM243.77 117.5V121.07H245.77V117.5H243.77ZM244.77 120.07H236.55V122.07H244.77V120.07ZM235.555 120.979L235.225 124.579L237.216 124.761L237.546 121.161L235.555 120.979ZM236.22 125.67H238.32V123.67H236.22V125.67ZM238.32 125.67C240.452 125.67 242.172 126.283 243.548 127.468L244.853 125.952C243.069 124.417 240.868 123.67 238.32 123.67V125.67ZM243.554 127.473C244.911 128.624 245.57 130.046 245.57 131.81H247.57C247.57 129.454 246.65 127.476 244.847 125.947L243.554 127.473Z" fill="black"/>
</svg>
