<svg width="341" height="181" viewBox="0 0 341 181" fill="none" xmlns="http://www.w3.org/2000/svg">
<rect width="341" height="180" transform="translate(0 0.234375)" fill="#F5F5F5"/>
<path d="M240.726 35.696L298.931 126.31H182.52L240.726 35.696Z" fill="#A57CFE"/>
<path d="M264.941 125.955V52.9546M264.941 52.9546L263.976 54.9546M264.941 52.9546L265.906 54.9546" stroke="black"/>
<path d="M280.977 125.955V23.9546M280.977 23.9546L279.977 26.7491M280.977 23.9546L281.977 26.7491" stroke="black"/>
<path d="M248.977 125.955V79.9546M248.977 79.9546L247.977 81.2149M248.977 79.9546L249.977 81.2149" stroke="black"/>
<path d="M296.977 125.955V92.9546M296.977 92.9546L295.977 93.8587M296.977 92.9546L297.977 93.8587" stroke="black"/>
<path d="M107.013 82.4942V75.7142C107.013 73.5542 107.783 71.7542 109.323 70.3142C110.883 68.8742 112.823 68.1542 115.143 68.1542C117.463 68.1542 119.393 68.8742 120.933 70.3142C122.493 71.7542 123.273 73.5542 123.273 75.7142V82.4942C123.273 84.6542 122.493 86.4542 120.933 87.8942C119.393 89.3342 117.463 90.0542 115.143 90.0542C112.823 90.0542 110.883 89.3342 109.323 87.8942C107.783 86.4542 107.013 84.6542 107.013 82.4942ZM110.913 75.6542V82.5542C110.913 83.6142 111.313 84.5142 112.113 85.2542C112.933 85.9742 113.943 86.3342 115.143 86.3342C116.343 86.3342 117.353 85.9742 118.173 85.2542C118.993 84.4942 119.403 83.5942 119.403 82.5542V75.6542C119.403 74.5942 118.993 73.7042 118.173 72.9842C117.373 72.2442 116.363 71.8742 115.143 71.8742C113.923 71.8742 112.913 72.2442 112.113 72.9842C111.313 73.7042 110.913 74.5942 110.913 75.6542ZM137.131 73.3742L133.501 75.1742L131.881 71.7542L138.241 68.6042H141.031V89.6042H137.131V73.3742ZM162.122 74.7242C162.122 73.9442 161.782 73.2742 161.102 72.7142C160.462 72.1542 159.672 71.8742 158.732 71.8742C157.832 71.8742 157.022 72.1542 156.302 72.7142C155.602 73.2542 155.072 73.9942 154.712 74.9342L151.112 73.2242C151.792 71.6642 152.812 70.4342 154.172 69.5342C155.532 68.6142 157.052 68.1542 158.732 68.1542C160.832 68.1542 162.582 68.7842 163.982 70.0442C165.422 71.3042 166.142 72.8242 166.142 74.6042C166.142 75.6842 165.782 76.8142 165.062 77.9942C164.342 79.1542 163.202 80.4842 161.642 81.9842L157.532 85.8842H166.322V89.6042H151.532V86.6942L159.242 79.3442C161.162 77.4842 162.122 75.9442 162.122 74.7242ZM185.495 74.4542C185.495 73.7342 185.155 73.1242 184.475 72.6242C183.795 72.1242 182.925 71.8742 181.865 71.8742C181.005 71.8742 180.245 72.0542 179.585 72.4142C178.945 72.7542 178.475 73.2042 178.175 73.7642L174.635 72.0842C175.255 70.8842 176.215 69.9342 177.515 69.2342C178.815 68.5142 180.275 68.1542 181.895 68.1542C184.075 68.1542 185.895 68.7442 187.355 69.9242C188.795 71.0842 189.515 72.5542 189.515 74.3342C189.515 76.0742 188.765 77.5342 187.265 78.7142C189.125 79.9142 190.055 81.5442 190.055 83.6042C190.055 85.4642 189.295 87.0042 187.775 88.2242C186.255 89.4442 184.365 90.0542 182.105 90.0542C180.245 90.0542 178.615 89.6242 177.215 88.7642C175.815 87.8842 174.865 86.7442 174.365 85.3442L178.115 84.0242C178.335 84.7042 178.805 85.2642 179.525 85.7042C180.245 86.1242 181.095 86.3342 182.075 86.3342C183.195 86.3342 184.135 86.0642 184.895 85.5242C185.655 84.9642 186.035 84.2642 186.035 83.4242C186.035 82.6242 185.655 81.9642 184.895 81.4442C184.155 80.9042 183.245 80.6342 182.165 80.6342H180.575V77.1242H181.655C182.735 77.1242 183.645 76.8742 184.385 76.3742C185.125 75.8742 185.495 75.2342 185.495 74.4542ZM209.133 89.6042V85.5842H198.243V81.8642L209.313 68.6042H213.003V81.8642H215.673V85.5842H213.003V89.6042H209.133ZM209.133 74.3942L202.893 81.8642H209.133V74.3942ZM239.449 82.9142C239.449 84.9342 238.679 86.6342 237.139 88.0142C235.599 89.3742 233.689 90.0542 231.409 90.0542C229.569 90.0542 227.949 89.5742 226.549 88.6142C225.149 87.6342 224.149 86.3242 223.549 84.6842L227.419 83.6342C227.759 84.4742 228.289 85.1342 229.009 85.6142C229.729 86.0942 230.539 86.3342 231.439 86.3342C232.579 86.3342 233.519 86.0042 234.259 85.3442C235.039 84.6842 235.429 83.8742 235.429 82.9142C235.429 81.8742 234.999 81.0142 234.139 80.3342C233.319 79.6542 232.269 79.3142 230.989 79.3142H225.139L226.219 68.6042H237.649V72.1742H229.429L229.099 75.7742H231.199C233.539 75.7742 235.499 76.4542 237.079 77.8142C238.659 79.1542 239.449 80.8542 239.449 82.9142Z" fill="#31D67B"/>
<path d="M109.323 70.3142L108.644 69.5794L108.64 69.5838L109.323 70.3142ZM120.933 70.3142L120.25 71.0447L120.254 71.0491L120.933 70.3142ZM120.933 87.8942L120.254 87.1594L120.25 87.1638L120.933 87.8942ZM109.323 87.8942L108.64 88.6247L108.644 88.6291L109.323 87.8942ZM112.113 85.2542L111.434 85.9883L111.443 85.9971L111.453 86.0057L112.113 85.2542ZM118.173 85.2542L118.832 86.0057L118.843 85.9968L118.852 85.9877L118.173 85.2542ZM118.173 72.9842L117.494 73.7183L117.503 73.7271L117.513 73.7357L118.173 72.9842ZM112.113 72.9842L112.782 73.7276L112.792 73.7183L112.113 72.9842ZM108.013 82.4942V75.7142H106.013V82.4942H108.013ZM108.013 75.7142C108.013 73.8234 108.673 72.2904 110.006 71.0447L108.64 69.5838C106.892 71.2181 106.013 73.2851 106.013 75.7142H108.013ZM110.001 71.0491C111.358 69.796 113.049 69.1542 115.143 69.1542V67.1542C112.597 67.1542 110.407 67.9525 108.644 69.5794L110.001 71.0491ZM115.143 69.1542C117.237 69.1542 118.914 69.7959 120.25 71.0447L121.616 69.5838C119.871 67.9526 117.689 67.1542 115.143 67.1542V69.1542ZM120.254 71.0491C121.605 72.296 122.273 73.8278 122.273 75.7142H124.273C124.273 73.2807 123.38 71.2125 121.611 69.5794L120.254 71.0491ZM122.273 75.7142V82.4942H124.273V75.7142H122.273ZM122.273 82.4942C122.273 84.3807 121.605 85.9125 120.254 87.1594L121.611 88.6291C123.38 86.996 124.273 84.9278 124.273 82.4942H122.273ZM120.25 87.1638C118.914 88.4126 117.237 89.0542 115.143 89.0542V91.0542C117.689 91.0542 119.871 90.2559 121.616 88.6247L120.25 87.1638ZM115.143 89.0542C113.049 89.0542 111.358 88.4125 110.001 87.1594L108.644 88.6291C110.407 90.256 112.597 91.0542 115.143 91.0542V89.0542ZM110.006 87.1638C108.673 85.9181 108.013 84.3851 108.013 82.4942H106.013C106.013 84.9234 106.892 86.9904 108.64 88.6247L110.006 87.1638ZM109.913 75.6542V82.5542H111.913V75.6542H109.913ZM109.913 82.5542C109.913 83.9017 110.436 85.0651 111.434 85.9883L112.792 84.5201C112.19 83.9634 111.913 83.3268 111.913 82.5542H109.913ZM111.453 86.0057C112.474 86.9023 113.726 87.3342 115.143 87.3342V85.3342C114.159 85.3342 113.391 85.0462 112.772 84.5028L111.453 86.0057ZM115.143 87.3342C116.559 87.3342 117.811 86.9023 118.832 86.0057L117.513 84.5028C116.894 85.0462 116.126 85.3342 115.143 85.3342V87.3342ZM118.852 85.9877C119.859 85.0543 120.403 83.8952 120.403 82.5542H118.403C118.403 83.2933 118.126 83.9342 117.493 84.5208L118.852 85.9877ZM120.403 82.5542V75.6542H118.403V82.5542H120.403ZM120.403 75.6542C120.403 74.2969 119.861 73.1363 118.832 72.2328L117.513 73.7357C118.124 74.2722 118.403 74.8916 118.403 75.6542H120.403ZM118.852 72.2501C117.844 71.3183 116.582 70.8742 115.143 70.8742V72.8742C116.143 72.8742 116.901 73.1702 117.494 73.7183L118.852 72.2501ZM115.143 70.8742C113.703 70.8742 112.441 71.3183 111.434 72.2501L112.792 73.7183C113.384 73.1702 114.142 72.8742 115.143 72.8742V70.8742ZM111.444 72.241C110.437 73.1473 109.913 74.3058 109.913 75.6542H111.913C111.913 74.8827 112.189 74.2612 112.782 73.7275L111.444 72.241ZM137.131 73.3742H138.131V71.7622L136.686 72.4783L137.131 73.3742ZM133.501 75.1742L132.597 75.6023L133.033 76.5225L133.945 76.0702L133.501 75.1742ZM131.881 71.7542L131.437 70.8581L130.556 71.2943L130.977 72.1823L131.881 71.7542ZM138.241 68.6042V67.6042H138.006L137.797 67.7081L138.241 68.6042ZM141.031 68.6042H142.031V67.6042H141.031V68.6042ZM141.031 89.6042V90.6042H142.031V89.6042H141.031ZM137.131 89.6042H136.131V90.6042H137.131V89.6042ZM136.686 72.4783L133.056 74.2783L133.945 76.0702L137.575 74.2702L136.686 72.4783ZM134.404 74.7462L132.784 71.3262L130.977 72.1823L132.597 75.6023L134.404 74.7462ZM132.324 72.6504L138.684 69.5004L137.797 67.7081L131.437 70.8581L132.324 72.6504ZM138.241 69.6042H141.031V67.6042H138.241V69.6042ZM140.031 68.6042V89.6042H142.031V68.6042H140.031ZM141.031 88.6042H137.131V90.6042H141.031V88.6042ZM138.131 89.6042V73.3742H136.131V89.6042H138.131ZM161.102 72.7142L160.444 73.4668L160.455 73.4767L160.466 73.4862L161.102 72.7142ZM156.302 72.7142L156.913 73.506L156.916 73.5036L156.302 72.7142ZM154.712 74.9342L154.283 75.8375L155.259 76.3013L155.646 75.2919L154.712 74.9342ZM151.112 73.2242L150.195 72.8247L149.809 73.7121L150.683 74.1275L151.112 73.2242ZM154.172 69.5342L154.724 70.3682L154.732 70.3625L154.172 69.5342ZM163.982 70.0442L163.313 70.7876L163.324 70.7968L163.982 70.0442ZM165.062 77.9942L165.912 78.5216L165.916 78.5151L165.062 77.9942ZM161.642 81.9842L162.331 82.7097L162.335 82.7051L161.642 81.9842ZM157.532 85.8842L156.844 85.1589L155.026 86.8842H157.532V85.8842ZM166.322 85.8842H167.322V84.8842H166.322V85.8842ZM166.322 89.6042V90.6042H167.322V89.6042H166.322ZM151.532 89.6042H150.532V90.6042H151.532V89.6042ZM151.532 86.6942L150.842 85.9704L150.532 86.266V86.6942H151.532ZM159.242 79.3442L159.932 80.0681L159.938 80.0625L159.242 79.3442ZM163.122 74.7242C163.122 73.6045 162.615 72.6646 161.738 71.9423L160.466 73.4862C160.949 73.8839 161.122 74.284 161.122 74.7242H163.122ZM161.761 71.9617C160.919 71.225 159.887 70.8742 158.732 70.8742V72.8742C159.457 72.8742 160.006 73.0835 160.444 73.4668L161.761 71.9617ZM158.732 70.8742C157.607 70.8742 156.581 71.2304 155.688 71.9249L156.916 73.5036C157.463 73.0781 158.058 72.8742 158.732 72.8742V70.8742ZM155.691 71.9225C154.827 72.5896 154.195 73.4893 153.778 74.5766L155.646 75.2919C155.95 74.4992 156.378 73.9189 156.913 73.506L155.691 71.9225ZM155.141 74.031L151.541 72.321L150.683 74.1275L154.283 75.8375L155.141 74.031ZM152.029 73.6238C152.635 72.2327 153.532 71.1569 154.724 70.3682L153.62 68.7003C152.092 69.7116 150.949 71.0958 150.195 72.8247L152.029 73.6238ZM154.732 70.3625C155.923 69.5572 157.247 69.1542 158.732 69.1542V67.1542C156.857 67.1542 155.141 67.6713 153.612 68.706L154.732 70.3625ZM158.732 69.1542C160.616 69.1542 162.118 69.7122 163.313 70.7875L164.651 69.301C163.046 67.8563 161.049 67.1542 158.732 67.1542V69.1542ZM163.324 70.7968C164.565 71.883 165.142 73.1362 165.142 74.6042H167.142C167.142 72.5123 166.279 70.7255 164.641 69.2917L163.324 70.7968ZM165.142 74.6042C165.142 75.4557 164.859 76.407 164.209 77.4734L165.916 78.5151C166.705 77.2215 167.142 75.9128 167.142 74.6042H165.142ZM164.213 77.4669C163.554 78.5274 162.48 79.7917 160.949 81.2634L162.335 82.7051C163.925 81.1768 165.13 79.7811 165.912 78.5216L164.213 77.4669ZM160.954 81.2589L156.844 85.1589L158.221 86.6096L162.331 82.7096L160.954 81.2589ZM157.532 86.8842H166.322V84.8842H157.532V86.8842ZM165.322 85.8842V89.6042H167.322V85.8842H165.322ZM166.322 88.6042H151.532V90.6042H166.322V88.6042ZM152.532 89.6042V86.6942H150.532V89.6042H152.532ZM152.222 87.4181L159.932 80.0681L158.552 78.6204L150.842 85.9704L152.222 87.4181ZM159.938 80.0625C160.932 79.0999 161.713 78.1865 162.251 77.3233C162.785 76.4669 163.122 75.5913 163.122 74.7242H161.122C161.122 75.0772 160.98 75.5816 160.554 76.2652C160.132 76.942 159.473 77.7286 158.546 78.626L159.938 80.0625ZM184.475 72.6242L185.067 71.8186V71.8186L184.475 72.6242ZM179.585 72.4142L180.054 73.2974L180.063 73.2921L179.585 72.4142ZM178.175 73.7642L177.746 74.6677L178.606 75.076L179.056 74.2365L178.175 73.7642ZM174.635 72.0842L173.746 71.6252L173.271 72.5442L174.206 72.9877L174.635 72.0842ZM177.515 69.2342L177.989 70.1148L177.999 70.109L177.515 69.2342ZM187.355 69.9242L186.726 70.702L186.727 70.703L187.355 69.9242ZM187.265 78.7142L186.646 77.9283L185.545 78.7948L186.722 79.5545L187.265 78.7142ZM187.775 88.2242L187.149 87.4444L187.775 88.2242ZM177.215 88.7642L176.682 89.6109L176.691 89.6163L177.215 88.7642ZM174.365 85.3442L174.033 84.401L173.085 84.7345L173.423 85.6806L174.365 85.3442ZM178.115 84.0242L179.066 83.7164L178.75 82.7404L177.783 83.081L178.115 84.0242ZM179.525 85.7042L179.003 86.5575L179.012 86.5629L179.021 86.568L179.525 85.7042ZM184.895 85.5242L185.474 86.3394L185.481 86.3344L185.488 86.3293L184.895 85.5242ZM184.895 81.4442L184.305 82.252L184.317 82.261L184.33 82.2696L184.895 81.4442ZM180.575 80.6342H179.575V81.6342H180.575V80.6342ZM180.575 77.1242V76.1242H179.575V77.1242H180.575ZM186.495 74.4542C186.495 73.3586 185.953 72.4701 185.067 71.8186L183.882 73.4299C184.356 73.7784 184.495 74.1099 184.495 74.4542H186.495ZM185.067 71.8186C184.176 71.1632 183.083 70.8742 181.865 70.8742V72.8742C182.767 72.8742 183.414 73.0853 183.882 73.4299L185.067 71.8186ZM181.865 70.8742C180.862 70.8742 179.933 71.0853 179.106 71.5364L180.063 73.2921C180.557 73.0232 181.148 72.8742 181.865 72.8742V70.8742ZM179.115 71.5311C178.326 71.9507 177.699 72.5334 177.293 73.292L179.056 74.2365C179.25 73.875 179.563 73.5578 180.054 73.2974L179.115 71.5311ZM178.603 72.8608L175.063 71.1808L174.206 72.9877L177.746 74.6677L178.603 72.8608ZM175.523 72.5433C176.042 71.539 176.849 70.7285 177.989 70.1147L177.04 68.3538C175.58 69.14 174.467 70.2295 173.746 71.6252L175.523 72.5433ZM177.999 70.109C179.138 69.4784 180.428 69.1542 181.895 69.1542V67.1542C180.121 67.1542 178.491 67.5501 177.03 68.3595L177.999 70.109ZM181.895 69.1542C183.884 69.1542 185.472 69.6884 186.726 70.702L187.983 69.1465C186.317 67.8001 184.265 67.1542 181.895 67.1542V69.1542ZM186.727 70.703C187.942 71.6817 188.515 72.8702 188.515 74.3342H190.515C190.515 72.2383 189.647 70.4868 187.982 69.1455L186.727 70.703ZM188.515 74.3342C188.515 75.7351 187.932 76.9169 186.646 77.9283L187.883 79.5002C189.597 78.1516 190.515 76.4134 190.515 74.3342H188.515ZM186.722 79.5545C188.322 80.5868 189.055 81.9131 189.055 83.6042H191.055C191.055 81.1754 189.927 79.2417 187.807 77.874L186.722 79.5545ZM189.055 83.6042C189.055 85.1446 188.445 86.4037 187.149 87.4444L188.4 89.0041C190.144 87.6048 191.055 85.7839 191.055 83.6042H189.055ZM187.149 87.4444C185.834 88.4998 184.175 89.0542 182.105 89.0542V91.0542C184.554 91.0542 186.675 90.3887 188.4 89.0041L187.149 87.4444ZM182.105 89.0542C180.404 89.0542 178.96 88.6632 177.738 87.9122L176.691 89.6163C178.269 90.5853 180.085 91.0542 182.105 91.0542V89.0542ZM177.747 87.9176C176.514 87.1428 175.722 86.1729 175.306 85.0079L173.423 85.6806C174.007 87.3156 175.115 88.6257 176.682 89.6109L177.747 87.9176ZM174.697 86.2875L178.447 84.9675L177.783 83.081L174.033 84.401L174.697 86.2875ZM177.163 84.3321C177.47 85.2792 178.118 86.0166 179.003 86.5575L180.046 84.851C179.491 84.5119 179.2 84.1293 179.066 83.7164L177.163 84.3321ZM179.021 86.568C179.919 87.0918 180.949 87.3342 182.075 87.3342V85.3342C181.24 85.3342 180.57 85.1567 180.028 84.8405L179.021 86.568ZM182.075 87.3342C183.359 87.3342 184.513 87.0222 185.474 86.3394L184.315 84.7091C183.756 85.1063 183.03 85.3342 182.075 85.3342V87.3342ZM185.488 86.3293C186.467 85.6077 187.035 84.6247 187.035 83.4242H185.035C185.035 83.9038 184.842 84.3208 184.301 84.7192L185.488 86.3293ZM187.035 83.4242C187.035 82.2403 186.444 81.2927 185.459 80.6189L184.33 82.2696C184.865 82.6358 185.035 83.0082 185.035 83.4242H187.035ZM185.484 80.6365C184.544 79.9503 183.417 79.6342 182.165 79.6342V81.6342C183.072 81.6342 183.765 81.8582 184.305 82.252L185.484 80.6365ZM182.165 79.6342H180.575V81.6342H182.165V79.6342ZM181.575 80.6342V77.1242H179.575V80.6342H181.575ZM180.575 78.1242H181.655V76.1242H180.575V78.1242ZM181.655 78.1242C182.892 78.1242 184.007 77.8361 184.944 77.2028L183.825 75.5457C183.282 75.9124 182.577 76.1242 181.655 76.1242V78.1242ZM184.944 77.2028C185.913 76.5482 186.495 75.6187 186.495 74.4542H184.495C184.495 74.8498 184.336 75.2003 183.825 75.5457L184.944 77.2028ZM209.133 89.6042H208.133V90.6042H209.133V89.6042ZM209.133 85.5842H210.133V84.5842H209.133V85.5842ZM198.243 85.5842H197.243V86.5842H198.243V85.5842ZM198.243 81.8642L197.475 81.2234L197.243 81.5017V81.8642H198.243ZM209.313 68.6042V67.6042H208.845L208.545 67.9634L209.313 68.6042ZM213.003 68.6042H214.003V67.6042H213.003V68.6042ZM213.003 81.8642H212.003V82.8642H213.003V81.8642ZM215.673 81.8642H216.673V80.8642H215.673V81.8642ZM215.673 85.5842V86.5842H216.673V85.5842H215.673ZM213.003 85.5842V84.5842H212.003V85.5842H213.003ZM213.003 89.6042V90.6042H214.003V89.6042H213.003ZM209.133 74.3942H210.133V71.6373L208.365 73.7532L209.133 74.3942ZM202.893 81.8642L202.125 81.2232L200.754 82.8642H202.893V81.8642ZM209.133 81.8642V82.8642H210.133V81.8642H209.133ZM210.133 89.6042V85.5842H208.133V89.6042H210.133ZM209.133 84.5842H198.243V86.5842H209.133V84.5842ZM199.243 85.5842V81.8642H197.243V85.5842H199.243ZM199.01 82.5051L210.08 69.2451L208.545 67.9634L197.475 81.2234L199.01 82.5051ZM209.313 69.6042H213.003V67.6042H209.313V69.6042ZM212.003 68.6042V81.8642H214.003V68.6042H212.003ZM213.003 82.8642H215.673V80.8642H213.003V82.8642ZM214.673 81.8642V85.5842H216.673V81.8642H214.673ZM215.673 84.5842H213.003V86.5842H215.673V84.5842ZM212.003 85.5842V89.6042H214.003V85.5842H212.003ZM213.003 88.6042H209.133V90.6042H213.003V88.6042ZM208.365 73.7532L202.125 81.2232L203.66 82.5053L209.9 75.0353L208.365 73.7532ZM202.893 82.8642H209.133V80.8642H202.893V82.8642ZM210.133 81.8642V74.3942H208.133V81.8642H210.133ZM237.139 88.0142L237.801 88.7638L237.807 88.759L237.139 88.0142ZM226.549 88.6142L225.976 89.4335L225.984 89.439L226.549 88.6142ZM223.549 84.6842L223.287 83.7191L222.236 84.0045L222.61 85.0278L223.549 84.6842ZM227.419 83.6342L228.346 83.2591L228.013 82.4369L227.157 82.6691L227.419 83.6342ZM229.009 85.6142L228.455 86.4463L229.009 85.6142ZM234.259 85.3442L233.613 84.5809L233.603 84.5893L233.594 84.598L234.259 85.3442ZM234.139 80.3342L233.501 81.104L233.51 81.1114L233.519 81.1187L234.139 80.3342ZM225.139 79.3142L224.144 79.2139L224.033 80.3142H225.139V79.3142ZM226.219 68.6042V67.6042H225.315L225.224 68.5039L226.219 68.6042ZM237.649 68.6042H238.649V67.6042H237.649V68.6042ZM237.649 72.1742V73.1742H238.649V72.1742H237.649ZM229.429 72.1742V71.1742H228.517L228.433 72.083L229.429 72.1742ZM229.099 75.7742L228.103 75.683L228.003 76.7742H229.099V75.7742ZM237.079 77.8142L236.427 78.5722L236.432 78.5769L237.079 77.8142ZM238.449 82.9142C238.449 84.6424 237.806 86.0741 236.472 87.2695L237.807 88.759C239.553 87.1944 240.449 85.2261 240.449 82.9142H238.449ZM236.477 87.2647C235.141 88.4452 233.474 89.0542 231.409 89.0542V91.0542C233.904 91.0542 236.058 90.3033 237.801 88.7638L236.477 87.2647ZM231.409 89.0542C229.753 89.0542 228.334 88.6257 227.115 87.7895L225.984 89.439C227.564 90.5228 229.385 91.0542 231.409 91.0542V89.0542ZM227.123 87.795C225.894 86.9351 225.02 85.7929 224.488 84.3407L222.61 85.0278C223.279 86.8556 224.404 88.3334 225.976 89.4335L227.123 87.795ZM223.811 85.6494L227.681 84.5994L227.157 82.6691L223.287 83.7191L223.811 85.6494ZM226.492 84.0094C226.904 85.0264 227.559 85.8494 228.455 86.4463L229.564 84.7822C229.019 84.4191 228.615 83.9221 228.346 83.2591L226.492 84.0094ZM228.455 86.4463C229.346 87.0404 230.35 87.3342 231.439 87.3342V85.3342C230.728 85.3342 230.113 85.1481 229.564 84.7822L228.455 86.4463ZM231.439 87.3342C232.786 87.3342 233.974 86.9383 234.925 86.0905L233.594 84.598C233.064 85.0702 232.373 85.3342 231.439 85.3342V87.3342ZM234.905 86.1076C235.893 85.2716 236.429 84.1893 236.429 82.9142H234.429C234.429 83.5592 234.185 84.0969 233.613 84.5809L234.905 86.1076ZM236.429 82.9142C236.429 81.5498 235.844 80.4076 234.76 79.5498L233.519 81.1187C234.154 81.6209 234.429 82.1987 234.429 82.9142H236.429ZM234.778 79.5645C233.744 78.7072 232.453 78.3142 230.989 78.3142V80.3142C232.085 80.3142 232.895 80.6013 233.501 81.104L234.778 79.5645ZM230.989 78.3142H225.139V80.3142H230.989V78.3142ZM226.134 79.4146L227.214 68.7046L225.224 68.5039L224.144 79.2139L226.134 79.4146ZM226.219 69.6042H237.649V67.6042H226.219V69.6042ZM236.649 68.6042V72.1742H238.649V68.6042H236.649ZM237.649 71.1742H229.429V73.1742H237.649V71.1742ZM228.433 72.083L228.103 75.683L230.095 75.8655L230.425 72.2655L228.433 72.083ZM229.099 76.7742H231.199V74.7742H229.099V76.7742ZM231.199 76.7742C233.331 76.7742 235.051 77.3876 236.427 78.5721L237.732 77.0563C235.948 75.5209 233.747 74.7742 231.199 74.7742V76.7742ZM236.432 78.5769C237.79 79.7281 238.449 81.1499 238.449 82.9142H240.449C240.449 80.5586 239.529 78.5803 237.726 77.0516L236.432 78.5769Z" fill="black"/>
<circle cx="49.2467" cy="42.921" r="2.82092" fill="#31D67B"/>
<circle cx="60.5319" cy="42.921" r="2.82092" fill="#31D67B"/>
<circle cx="71.8131" cy="42.921" r="2.82092" fill="#31D67B"/>
<circle cx="83.0983" cy="42.921" r="2.82092" fill="#31D67B"/>
<circle cx="49.2467" cy="54.2047" r="2.82092" fill="#31D67B"/>
<circle cx="60.5319" cy="54.2047" r="2.82092" fill="#31D67B"/>
<circle cx="71.8131" cy="54.2047" r="2.82092" fill="#31D67B"/>
<circle cx="83.0983" cy="54.2047" r="2.82092" fill="#31D67B"/>
<circle cx="83.0983" cy="65.4884" r="2.82092" fill="#31D67B"/>
<circle cx="71.8131" cy="65.4884" r="2.82092" fill="#31D67B"/>
<circle cx="60.5319" cy="65.4884" r="2.82092" fill="#31D67B"/>
<circle cx="49.2467" cy="65.4884" r="2.82092" fill="#31D67B"/>
<circle cx="49.2467" cy="65.1302" r="2.82092" fill="#31D67B"/>
<circle cx="60.5319" cy="65.1302" r="2.82092" fill="#31D67B"/>
<circle cx="71.8131" cy="65.1302" r="2.82092" fill="#31D67B"/>
<circle cx="83.0983" cy="65.1302" r="2.82092" fill="#31D67B"/>
<circle cx="49.2467" cy="76.4139" r="2.82092" fill="#31D67B"/>
<circle cx="60.5319" cy="76.4139" r="2.82092" fill="#31D67B"/>
<circle cx="71.8131" cy="76.4139" r="2.82092" fill="#31D67B"/>
<circle cx="83.0983" cy="76.4139" r="2.82092" fill="#31D67B"/>
<circle cx="83.0983" cy="87.6976" r="2.82092" fill="#31D67B"/>
<circle cx="71.8131" cy="87.6976" r="2.82092" fill="#31D67B"/>
<circle cx="60.5319" cy="87.6976" r="2.82092" fill="#31D67B"/>
<circle cx="49.2467" cy="87.6976" r="2.82092" fill="#31D67B"/>
<circle cx="49.2467" cy="87.3395" r="2.82092" fill="#31D67B"/>
<circle cx="60.5319" cy="87.3395" r="2.82092" fill="#31D67B"/>
<circle cx="71.8131" cy="87.3395" r="2.82092" fill="#31D67B"/>
<circle cx="83.0983" cy="87.3395" r="2.82092" fill="#31D67B"/>
<circle cx="49.2467" cy="98.6232" r="2.82092" fill="#31D67B"/>
<circle cx="60.5319" cy="98.6232" r="2.82092" fill="#31D67B"/>
<circle cx="71.8131" cy="98.6232" r="2.82092" fill="#31D67B"/>
<circle cx="83.0983" cy="98.6232" r="2.82092" fill="#31D67B"/>
<circle cx="83.0983" cy="109.907" r="2.82092" fill="#31D67B"/>
<circle cx="71.8131" cy="109.907" r="2.82092" fill="#31D67B"/>
<circle cx="60.5319" cy="109.907" r="2.82092" fill="#31D67B"/>
<circle cx="49.2467" cy="109.907" r="2.82092" fill="#31D67B"/>
<circle cx="49.2467" cy="109.549" r="2.82092" fill="#31D67B"/>
<circle cx="60.5319" cy="109.549" r="2.82092" fill="#31D67B"/>
<circle cx="71.8131" cy="109.549" r="2.82092" fill="#31D67B"/>
<circle cx="83.0983" cy="109.549" r="2.82092" fill="#31D67B"/>
<circle cx="49.2467" cy="120.832" r="2.82092" fill="#31D67B"/>
<circle cx="60.5319" cy="120.832" r="2.82092" fill="#31D67B"/>
<circle cx="71.8131" cy="120.832" r="2.82092" fill="#31D67B"/>
<circle cx="83.0983" cy="120.832" r="2.82092" fill="#31D67B"/>
<circle cx="83.0983" cy="132.116" r="2.82092" fill="#31D67B"/>
<circle cx="71.8131" cy="132.116" r="2.82092" fill="#31D67B"/>
<circle cx="60.5319" cy="132.116" r="2.82092" fill="#31D67B"/>
<circle cx="49.2467" cy="132.116" r="2.82092" fill="#31D67B"/>
<path d="M198.929 134.937C198.929 138.077 200.177 141.089 202.397 143.309C204.618 145.53 207.629 146.777 210.769 146.777C213.91 146.777 216.921 145.53 219.142 143.309C221.362 141.089 222.609 138.077 222.609 134.937L210.769 134.937H198.929Z" fill="#D4D4D4"/>
<path d="M216.406 134.937C216.406 137.03 217.208 139.038 218.635 140.518C220.063 141.999 221.999 142.83 224.017 142.83C226.036 142.83 227.972 141.999 229.4 140.518C230.827 139.038 231.629 137.03 231.629 134.937L224.017 134.937H216.406Z" fill="#D4D4D4"/>
<path d="M182.578 134.937C182.578 137.03 183.736 139.038 185.798 140.518C187.86 141.999 190.656 142.83 193.572 142.83C196.488 142.83 199.284 141.999 201.346 140.518C203.408 139.038 204.566 137.03 204.566 134.937L193.572 134.937H182.578Z" fill="#D4D4D4"/>
<rect x="-0.5" y="0.5" width="37" height="72" transform="matrix(-1 0 0 1 70.0664 48.3767)" stroke="black"/>
</svg>
