<svg width="341" height="181" viewBox="0 0 341 181" fill="none" xmlns="http://www.w3.org/2000/svg">
<rect width="341" height="180" transform="translate(0 0.234375)" fill="#F5F5F5"/>
<circle r="55.7612" transform="matrix(-1 0 0 1 123.485 89.7905)" fill="#AB85FF"/>
<circle r="55.7612" transform="matrix(-1 0 0 1 123.485 89.7905)" fill="#31D67B"/>
<path d="M57.2744 96.7538V89.9738C57.2744 87.8138 58.0444 86.0138 59.5844 84.5738C61.1444 83.1338 63.0844 82.4138 65.4044 82.4138C67.7244 82.4138 69.6544 83.1338 71.1944 84.5738C72.7544 86.0138 73.5344 87.8138 73.5344 89.9738V96.7538C73.5344 98.9138 72.7544 100.714 71.1944 102.154C69.6544 103.594 67.7244 104.314 65.4044 104.314C63.0844 104.314 61.1444 103.594 59.5844 102.154C58.0444 100.714 57.2744 98.9138 57.2744 96.7538ZM61.1744 89.9138V96.8138C61.1744 97.8738 61.5744 98.7738 62.3744 99.5138C63.1944 100.234 64.2044 100.594 65.4044 100.594C66.6044 100.594 67.6144 100.234 68.4344 99.5138C69.2544 98.7538 69.6644 97.8538 69.6644 96.8138V89.9138C69.6644 88.8538 69.2544 87.9638 68.4344 87.2438C67.6344 86.5038 66.6244 86.1338 65.4044 86.1338C64.1844 86.1338 63.1744 86.5038 62.3744 87.2438C61.5744 87.9638 61.1744 88.8538 61.1744 89.9138ZM87.3923 87.6338L83.7623 89.4338L82.1423 86.0138L88.5023 82.8638H91.2923V103.864H87.3923V87.6338ZM112.384 88.9838C112.384 88.2038 112.044 87.5338 111.364 86.9738C110.724 86.4138 109.934 86.1338 108.994 86.1338C108.094 86.1338 107.284 86.4138 106.564 86.9738C105.864 87.5138 105.334 88.2538 104.974 89.1938L101.374 87.4838C102.054 85.9238 103.074 84.6938 104.434 83.7938C105.794 82.8738 107.314 82.4138 108.994 82.4138C111.094 82.4138 112.844 83.0438 114.244 84.3038C115.684 85.5638 116.404 87.0838 116.404 88.8638C116.404 89.9438 116.044 91.0738 115.324 92.2538C114.604 93.4138 113.464 94.7438 111.904 96.2438L107.794 100.144H116.584V103.864H101.794V100.954L109.504 93.6038C111.424 91.7438 112.384 90.2038 112.384 88.9838ZM135.756 88.7138C135.756 87.9938 135.416 87.3838 134.736 86.8838C134.056 86.3838 133.186 86.1338 132.126 86.1338C131.266 86.1338 130.506 86.3138 129.846 86.6738C129.206 87.0138 128.736 87.4638 128.436 88.0238L124.896 86.3438C125.516 85.1438 126.476 84.1938 127.776 83.4938C129.076 82.7738 130.536 82.4138 132.156 82.4138C134.336 82.4138 136.156 83.0038 137.616 84.1838C139.056 85.3438 139.776 86.8138 139.776 88.5938C139.776 90.3338 139.026 91.7938 137.526 92.9738C139.386 94.1738 140.316 95.8038 140.316 97.8638C140.316 99.7238 139.556 101.264 138.036 102.484C136.516 103.704 134.626 104.314 132.366 104.314C130.506 104.314 128.876 103.884 127.476 103.024C126.076 102.144 125.126 101.004 124.626 99.6038L128.376 98.2838C128.596 98.9638 129.066 99.5238 129.786 99.9638C130.506 100.384 131.356 100.594 132.336 100.594C133.456 100.594 134.396 100.324 135.156 99.7838C135.916 99.2238 136.296 98.5238 136.296 97.6838C136.296 96.8838 135.916 96.2238 135.156 95.7038C134.416 95.1638 133.506 94.8938 132.426 94.8938H130.836V91.3838H131.916C132.996 91.3838 133.906 91.1338 134.646 90.6338C135.386 90.1338 135.756 89.4938 135.756 88.7138ZM159.394 103.864V99.8438H148.504V96.1238L159.574 82.8638H163.264V96.1238H165.934V99.8438H163.264V103.864H159.394ZM159.394 88.6538L153.154 96.1238H159.394V88.6538ZM189.711 97.1738C189.711 99.1938 188.941 100.894 187.401 102.274C185.861 103.634 183.951 104.314 181.671 104.314C179.831 104.314 178.211 103.834 176.811 102.874C175.411 101.894 174.411 100.584 173.811 98.9438L177.681 97.8938C178.021 98.7338 178.551 99.3938 179.271 99.8738C179.991 100.354 180.801 100.594 181.701 100.594C182.841 100.594 183.781 100.264 184.521 99.6038C185.301 98.9438 185.691 98.1338 185.691 97.1738C185.691 96.1338 185.261 95.2738 184.401 94.5938C183.581 93.9138 182.531 93.5738 181.251 93.5738H175.401L176.481 82.8638H187.911V86.4338H179.691L179.361 90.0338H181.461C183.801 90.0338 185.761 90.7138 187.341 92.0738C188.921 93.4138 189.711 95.1138 189.711 97.1738Z" fill="#F5F5F5"/>
<path d="M59.5844 84.5738L58.9061 83.839L58.9014 83.8433L59.5844 84.5738ZM71.1944 84.5738L70.5114 85.3042L70.5161 85.3086L71.1944 84.5738ZM71.1944 102.154L70.5161 101.419L70.5114 101.423L71.1944 102.154ZM59.5844 102.154L58.9014 102.884L58.9061 102.889L59.5844 102.154ZM62.3744 99.5138L61.6953 100.248L61.7048 100.257L61.7146 100.265L62.3744 99.5138ZM68.4344 99.5138L69.0942 100.265L69.1043 100.256L69.1141 100.247L68.4344 99.5138ZM68.4344 87.2438L67.7553 87.9779L67.7648 87.9867L67.7746 87.9952L68.4344 87.2438ZM62.3744 87.2438L63.0434 87.9871L63.0534 87.9779L62.3744 87.2438ZM58.2744 96.7538V89.9738H56.2744V96.7538H58.2744ZM58.2744 89.9738C58.2744 88.083 58.9351 86.5499 60.2674 85.3042L58.9014 83.8433C57.1536 85.4776 56.2744 87.5446 56.2744 89.9738H58.2744ZM60.2627 85.3086C61.6201 84.0555 63.3104 83.4138 65.4044 83.4138V81.4138C62.8583 81.4138 60.6686 82.212 58.9061 83.839L60.2627 85.3086ZM65.4044 83.4138C67.4984 83.4138 69.1759 84.0554 70.5114 85.3042L71.8774 83.8433C70.1329 82.2121 67.9503 81.4138 65.4044 81.4138V83.4138ZM70.5161 85.3086C71.867 86.5555 72.5344 88.0873 72.5344 89.9738H74.5344C74.5344 87.5402 73.6418 85.472 71.8727 83.839L70.5161 85.3086ZM72.5344 89.9738V96.7538H74.5344V89.9738H72.5344ZM72.5344 96.7538C72.5344 98.6402 71.867 100.172 70.5161 101.419L71.8727 102.889C73.6418 101.256 74.5344 99.1873 74.5344 96.7538H72.5344ZM70.5114 101.423C69.1759 102.672 67.4984 103.314 65.4044 103.314V105.314C67.9503 105.314 70.1329 104.515 71.8774 102.884L70.5114 101.423ZM65.4044 103.314C63.3104 103.314 61.6201 102.672 60.2627 101.419L58.9061 102.889C60.6686 104.516 62.8583 105.314 65.4044 105.314V103.314ZM60.2674 101.423C58.9351 100.178 58.2744 98.6446 58.2744 96.7538H56.2744C56.2744 99.183 57.1536 101.25 58.9014 102.884L60.2674 101.423ZM60.1744 89.9138V96.8138H62.1744V89.9138H60.1744ZM60.1744 96.8138C60.1744 98.1613 60.6972 99.3246 61.6953 100.248L63.0534 98.7797C62.4515 98.2229 62.1744 97.5863 62.1744 96.8138H60.1744ZM61.7146 100.265C62.7357 101.162 63.9876 101.594 65.4044 101.594V99.5938C64.4211 99.5938 63.653 99.3057 63.0342 98.7623L61.7146 100.265ZM65.4044 101.594C66.8211 101.594 68.073 101.162 69.0942 100.265L67.7746 98.7623C67.1557 99.3057 66.3876 99.5938 65.4044 99.5938V101.594ZM69.1141 100.247C70.1212 99.3139 70.6644 98.1547 70.6644 96.8138H68.6644C68.6644 97.5528 68.3876 98.1937 67.7546 98.7803L69.1141 100.247ZM70.6644 96.8138V89.9138H68.6644V96.8138H70.6644ZM70.6644 89.9138C70.6644 88.5565 70.1231 87.3958 69.0942 86.4923L67.7746 87.9952C68.3856 88.5317 68.6644 89.1511 68.6644 89.9138H70.6644ZM69.1134 86.5097C68.1061 85.5779 66.8436 85.1338 65.4044 85.1338V87.1338C66.4051 87.1338 67.1627 87.4297 67.7553 87.9779L69.1134 86.5097ZM65.4044 85.1338C63.9651 85.1338 62.7027 85.5779 61.6953 86.5097L63.0534 87.9779C63.6461 87.4297 64.4036 87.1338 65.4044 87.1338V85.1338ZM61.7054 86.5005C60.6984 87.4068 60.1744 88.5653 60.1744 89.9138H62.1744C62.1744 89.1422 62.4504 88.5207 63.0433 87.9871L61.7054 86.5005ZM87.3923 87.6338H88.3923V86.0217L86.948 86.7379L87.3923 87.6338ZM83.7623 89.4338L82.8585 89.8619L83.2944 90.782L84.2065 90.3297L83.7623 89.4338ZM82.1423 86.0138L81.6984 85.1177L80.8179 85.5538L81.2385 86.4419L82.1423 86.0138ZM88.5023 82.8638V81.8638H88.2682L88.0584 81.9677L88.5023 82.8638ZM91.2923 82.8638H92.2923V81.8638H91.2923V82.8638ZM91.2923 103.864V104.864H92.2923V103.864H91.2923ZM87.3923 103.864H86.3923V104.864H87.3923V103.864ZM86.948 86.7379L83.318 88.5379L84.2065 90.3297L87.8365 88.5297L86.948 86.7379ZM84.666 89.0057L83.046 85.5857L81.2385 86.4419L82.8585 89.8619L84.666 89.0057ZM82.5861 86.9099L88.9461 83.7599L88.0584 81.9677L81.6984 85.1177L82.5861 86.9099ZM88.5023 83.8638H91.2923V81.8638H88.5023V83.8638ZM90.2923 82.8638V103.864H92.2923V82.8638H90.2923ZM91.2923 102.864H87.3923V104.864H91.2923V102.864ZM88.3923 103.864V87.6338H86.3923V103.864H88.3923ZM111.364 86.9738L110.705 87.7263L110.717 87.7362L110.728 87.7457L111.364 86.9738ZM106.564 86.9738L107.175 87.7656L107.178 87.7631L106.564 86.9738ZM104.974 89.1938L104.545 90.097L105.521 90.5608L105.908 89.5514L104.974 89.1938ZM101.374 87.4838L100.457 87.0842L100.07 87.9717L100.945 88.387L101.374 87.4838ZM104.434 83.7938L104.986 84.6277L104.994 84.6221L104.434 83.7938ZM114.244 84.3038L113.575 85.0471L113.585 85.0563L114.244 84.3038ZM115.324 92.2538L116.174 92.7811L116.178 92.7746L115.324 92.2538ZM111.904 96.2438L112.592 96.9692L112.597 96.9646L111.904 96.2438ZM107.794 100.144L107.106 99.4184L105.287 101.144H107.794V100.144ZM116.584 100.144H117.584V99.1438H116.584V100.144ZM116.584 103.864V104.864H117.584V103.864H116.584ZM101.794 103.864H100.794V104.864H101.794V103.864ZM101.794 100.954L101.104 100.23L100.794 100.525V100.954H101.794ZM109.504 93.6038L110.194 94.3276L110.2 94.322L109.504 93.6038ZM113.384 88.9838C113.384 87.864 112.877 86.9241 112 86.2018L110.728 87.7457C111.211 88.1434 111.384 88.5436 111.384 88.9838H113.384ZM112.022 86.2212C111.18 85.4845 110.149 85.1338 108.994 85.1338V87.1338C109.719 87.1338 110.267 87.343 110.705 87.7263L112.022 86.2212ZM108.994 85.1338C107.868 85.1338 106.843 85.4899 105.95 86.1844L107.178 87.7631C107.725 87.3377 108.32 87.1338 108.994 87.1338V85.1338ZM105.953 86.182C105.088 86.8492 104.456 87.7488 104.04 88.8361L105.908 89.5514C106.211 88.7588 106.64 88.1784 107.175 87.7656L105.953 86.182ZM105.403 88.2905L101.803 86.5805L100.945 88.387L104.545 90.097L105.403 88.2905ZM102.291 87.8834C102.897 86.4922 103.794 85.4164 104.986 84.6277L103.882 82.9598C102.354 83.9711 101.211 85.3553 100.457 87.0842L102.291 87.8834ZM104.994 84.6221C106.185 83.8167 107.509 83.4138 108.994 83.4138V81.4138C107.119 81.4138 105.403 81.9308 103.874 82.9655L104.994 84.6221ZM108.994 83.4138C110.877 83.4138 112.38 83.9717 113.575 85.0471L114.913 83.5605C113.308 82.1158 111.31 81.4138 108.994 81.4138V83.4138ZM113.585 85.0563C114.827 86.1425 115.404 87.3957 115.404 88.8638H117.404C117.404 86.7718 116.541 84.985 114.902 83.5512L113.585 85.0563ZM115.404 88.8638C115.404 89.7152 115.121 90.6665 114.47 91.7329L116.178 92.7746C116.967 91.481 117.404 90.1724 117.404 88.8638H115.404ZM114.474 91.7264C113.816 92.7869 112.741 94.0512 111.211 95.5229L112.597 96.9646C114.186 95.4363 115.392 94.0406 116.174 92.7811L114.474 91.7264ZM111.216 95.5184L107.106 99.4184L108.482 100.869L112.592 96.9692L111.216 95.5184ZM107.794 101.144H116.584V99.1438H107.794V101.144ZM115.584 100.144V103.864H117.584V100.144H115.584ZM116.584 102.864H101.794V104.864H116.584V102.864ZM102.794 103.864V100.954H100.794V103.864H102.794ZM102.484 101.678L110.194 94.3276L108.814 92.88L101.104 100.23L102.484 101.678ZM110.2 94.322C111.193 93.3594 111.974 92.446 112.513 91.5828C113.046 90.7264 113.384 89.8508 113.384 88.9838H111.384C111.384 89.3367 111.241 89.8411 110.815 90.5248C110.393 91.2015 109.734 91.9882 108.808 92.8855L110.2 94.322ZM134.736 86.8838L135.329 86.0781V86.0781L134.736 86.8838ZM129.846 86.6738L130.315 87.5569L130.325 87.5517L129.846 86.6738ZM128.436 88.0238L128.008 88.9272L128.868 89.3356L129.318 88.496L128.436 88.0238ZM124.896 86.3438L124.008 85.8847L123.533 86.8037L124.468 87.2472L124.896 86.3438ZM127.776 83.4938L128.25 84.3743L128.261 84.3686L127.776 83.4938ZM137.616 84.1838L136.988 84.9615L136.989 84.9625L137.616 84.1838ZM137.526 92.9738L136.908 92.1878L135.806 93.0543L136.984 93.8141L137.526 92.9738ZM138.036 102.484L137.41 101.704L138.036 102.484ZM127.476 103.024L126.944 103.87L126.953 103.876L127.476 103.024ZM124.626 99.6038L124.294 98.6605L123.347 98.9941L123.685 99.9401L124.626 99.6038ZM128.376 98.2838L129.328 97.9759L129.012 96.9999L128.044 97.3405L128.376 98.2838ZM129.786 99.9638L129.265 100.817L129.274 100.822L129.282 100.828L129.786 99.9638ZM135.156 99.7838L135.735 100.599L135.743 100.594L135.749 100.589L135.156 99.7838ZM135.156 95.7038L134.567 96.5116L134.579 96.5205L134.592 96.5291L135.156 95.7038ZM130.836 94.8938H129.836V95.8938H130.836V94.8938ZM130.836 91.3838V90.3838H129.836V91.3838H130.836ZM136.756 88.7138C136.756 87.6181 136.215 86.7297 135.329 86.0781L134.144 87.6894C134.618 88.0379 134.756 88.3694 134.756 88.7138H136.756ZM135.329 86.0781C134.437 85.4227 133.344 85.1338 132.126 85.1338V87.1338C133.028 87.1338 133.675 87.3448 134.144 87.6894L135.329 86.0781ZM132.126 85.1338C131.123 85.1338 130.194 85.3449 129.367 85.7959L130.325 87.5517C130.818 87.2827 131.409 87.1338 132.126 87.1338V85.1338ZM129.377 85.7907C128.587 86.2102 127.961 86.793 127.555 87.5515L129.318 88.496C129.511 88.1346 129.825 87.8173 130.315 87.5569L129.377 85.7907ZM128.865 87.1203L125.325 85.4403L124.468 87.2472L128.008 88.9272L128.865 87.1203ZM125.785 86.8028C126.304 85.7985 127.11 84.988 128.25 84.3742L127.302 82.6133C125.842 83.3995 124.729 84.489 124.008 85.8847L125.785 86.8028ZM128.261 84.3686C129.399 83.738 130.69 83.4138 132.156 83.4138V81.4138C130.382 81.4138 128.753 81.8096 127.292 82.619L128.261 84.3686ZM132.156 83.4138C134.146 83.4138 135.734 83.9479 136.988 84.9615L138.245 83.406C136.579 82.0596 134.526 81.4138 132.156 81.4138V83.4138ZM136.989 84.9625C138.204 85.9412 138.776 87.1297 138.776 88.5938H140.776C140.776 86.4978 139.909 84.7463 138.244 83.405L136.989 84.9625ZM138.776 88.5938C138.776 89.9946 138.194 91.1764 136.908 92.1878L138.145 93.7597C139.859 92.4111 140.776 90.6729 140.776 88.5938H138.776ZM136.984 93.8141C138.584 94.8463 139.316 96.1726 139.316 97.8638H141.316C141.316 95.4349 140.188 93.5012 138.068 92.1335L136.984 93.8141ZM139.316 97.8638C139.316 99.4042 138.707 100.663 137.41 101.704L138.662 103.264C140.406 101.864 141.316 100.043 141.316 97.8638H139.316ZM137.41 101.704C136.095 102.759 134.437 103.314 132.366 103.314V105.314C134.816 105.314 136.937 104.648 138.662 103.264L137.41 101.704ZM132.366 103.314C130.666 103.314 129.222 102.923 128 102.172L126.953 103.876C128.53 104.845 130.346 105.314 132.366 105.314V103.314ZM128.008 102.177C126.776 101.402 125.984 100.432 125.568 99.2674L123.685 99.9401C124.268 101.575 125.377 102.885 126.944 103.87L128.008 102.177ZM124.958 100.547L128.708 99.227L128.044 97.3405L124.294 98.6605L124.958 100.547ZM127.425 98.5916C127.731 99.5387 128.38 100.276 129.265 100.817L130.308 99.1105C129.753 98.7714 129.461 98.3888 129.328 97.9759L127.425 98.5916ZM129.282 100.828C130.18 101.351 131.211 101.594 132.336 101.594V99.5938C131.502 99.5938 130.832 99.4162 130.29 99.1L129.282 100.828ZM132.336 101.594C133.621 101.594 134.774 101.282 135.735 100.599L134.577 98.9686C134.018 99.3658 133.291 99.5938 132.336 99.5938V101.594ZM135.749 100.589C136.729 99.8672 137.296 98.8842 137.296 97.6838H135.296C135.296 98.1633 135.104 98.5803 134.563 98.9787L135.749 100.589ZM137.296 97.6838C137.296 96.4998 136.706 95.5522 135.721 94.8785L134.592 96.5291C135.127 96.8953 135.296 97.2677 135.296 97.6838H137.296ZM135.746 94.896C134.805 94.2099 133.679 93.8938 132.426 93.8938V95.8938C133.333 95.8938 134.027 96.1177 134.567 96.5116L135.746 94.896ZM132.426 93.8938H130.836V95.8938H132.426V93.8938ZM131.836 94.8938V91.3838H129.836V94.8938H131.836ZM130.836 92.3838H131.916V90.3838H130.836V92.3838ZM131.916 92.3838C133.153 92.3838 134.269 92.0956 135.206 91.4624L134.086 89.8052C133.544 90.1719 132.839 90.3838 131.916 90.3838V92.3838ZM135.206 91.4624C136.175 90.8078 136.756 89.8783 136.756 88.7138H134.756C134.756 89.1093 134.598 89.4598 134.086 89.8052L135.206 91.4624ZM159.394 103.864H158.394V104.864H159.394V103.864ZM159.394 99.8438H160.394V98.8438H159.394V99.8438ZM148.504 99.8438H147.504V100.844H148.504V99.8438ZM148.504 96.1238L147.737 95.4829L147.504 95.7612V96.1238H148.504ZM159.574 82.8638V81.8638H159.107L158.807 82.2229L159.574 82.8638ZM163.264 82.8638H164.264V81.8638H163.264V82.8638ZM163.264 96.1238H162.264V97.1238H163.264V96.1238ZM165.934 96.1238H166.934V95.1238H165.934V96.1238ZM165.934 99.8438V100.844H166.934V99.8438H165.934ZM163.264 99.8438V98.8438H162.264V99.8438H163.264ZM163.264 103.864V104.864H164.264V103.864H163.264ZM159.394 88.6538H160.394V85.8968L158.627 88.0127L159.394 88.6538ZM153.154 96.1238L152.387 95.4827L151.016 97.1238H153.154V96.1238ZM159.394 96.1238V97.1238H160.394V96.1238H159.394ZM160.394 103.864V99.8438H158.394V103.864H160.394ZM159.394 98.8438H148.504V100.844H159.394V98.8438ZM149.504 99.8438V96.1238H147.504V99.8438H149.504ZM149.272 96.7646L160.342 83.5046L158.807 82.2229L147.737 95.4829L149.272 96.7646ZM159.574 83.8638H163.264V81.8638H159.574V83.8638ZM162.264 82.8638V96.1238H164.264V82.8638H162.264ZM163.264 97.1238H165.934V95.1238H163.264V97.1238ZM164.934 96.1238V99.8438H166.934V96.1238H164.934ZM165.934 98.8438H163.264V100.844H165.934V98.8438ZM162.264 99.8438V103.864H164.264V99.8438H162.264ZM163.264 102.864H159.394V104.864H163.264V102.864ZM158.627 88.0127L152.387 95.4827L153.922 96.7649L160.162 89.2949L158.627 88.0127ZM153.154 97.1238H159.394V95.1238H153.154V97.1238ZM160.394 96.1238V88.6538H158.394V96.1238H160.394ZM187.401 102.274L188.063 103.023L188.068 103.019L187.401 102.274ZM176.811 102.874L176.238 103.693L176.245 103.698L176.811 102.874ZM173.811 98.9438L173.549 97.9787L172.497 98.264L172.872 99.2874L173.811 98.9438ZM177.681 97.8938L178.608 97.5186L178.275 96.6964L177.419 96.9287L177.681 97.8938ZM179.271 99.8738L178.716 100.706L179.271 99.8738ZM184.521 99.6038L183.875 98.8404L183.865 98.8488L183.855 98.8575L184.521 99.6038ZM184.401 94.5938L183.763 95.3635L183.772 95.371L183.781 95.3782L184.401 94.5938ZM175.401 93.5738L174.406 93.4734L174.295 94.5738H175.401V93.5738ZM176.481 82.8638V81.8638H175.577L175.486 82.7634L176.481 82.8638ZM187.911 82.8638H188.911V81.8638H187.911V82.8638ZM187.911 86.4338V87.4338H188.911V86.4338H187.911ZM179.691 86.4338V85.4338H178.778L178.695 86.3425L179.691 86.4338ZM179.361 90.0338L178.365 89.9425L178.265 91.0338H179.361V90.0338ZM187.341 92.0738L186.689 92.8317L186.694 92.8364L187.341 92.0738ZM188.711 97.1738C188.711 98.9019 188.068 100.334 186.734 101.529L188.068 103.019C189.814 101.454 190.711 99.4856 190.711 97.1738H188.711ZM186.739 101.524C185.402 102.705 183.736 103.314 181.671 103.314V105.314C184.166 105.314 186.32 104.563 188.063 103.023L186.739 101.524ZM181.671 103.314C180.015 103.314 178.596 102.885 177.377 102.049L176.245 103.698C177.826 104.782 179.647 105.314 181.671 105.314V103.314ZM177.384 102.055C176.156 101.195 175.281 100.052 174.75 98.6002L172.872 99.2874C173.541 101.115 174.666 102.593 176.238 103.693L177.384 102.055ZM174.073 99.9089L177.943 98.8589L177.419 96.9287L173.549 97.9787L174.073 99.9089ZM176.754 98.269C177.166 99.2859 177.821 100.109 178.716 100.706L179.826 99.0417C179.281 98.6786 178.876 98.1817 178.608 97.5186L176.754 98.269ZM178.716 100.706C179.607 101.3 180.612 101.594 181.701 101.594V99.5938C180.99 99.5938 180.375 99.4077 179.826 99.0417L178.716 100.706ZM181.701 101.594C183.047 101.594 184.236 101.198 185.187 100.35L183.855 98.8575C183.326 99.3297 182.635 99.5938 181.701 99.5938V101.594ZM185.167 100.367C186.155 99.5311 186.691 98.4488 186.691 97.1738H184.691C184.691 97.8187 184.447 98.3565 183.875 98.8404L185.167 100.367ZM186.691 97.1738C186.691 95.8093 186.106 94.6671 185.021 93.8094L183.781 95.3782C184.416 95.8804 184.691 96.4582 184.691 97.1738H186.691ZM185.039 93.824C184.006 92.9667 182.715 92.5738 181.251 92.5738V94.5738C182.347 94.5738 183.156 94.8608 183.763 95.3635L185.039 93.824ZM181.251 92.5738H175.401V94.5738H181.251V92.5738ZM176.396 93.6741L177.476 82.9641L175.486 82.7634L174.406 93.4734L176.396 93.6741ZM176.481 83.8638H187.911V81.8638H176.481V83.8638ZM186.911 82.8638V86.4338H188.911V82.8638H186.911ZM187.911 85.4338H179.691V87.4338H187.911V85.4338ZM178.695 86.3425L178.365 89.9425L180.357 90.1251L180.687 86.5251L178.695 86.3425ZM179.361 91.0338H181.461V89.0338H179.361V91.0338ZM181.461 91.0338C183.593 91.0338 185.313 91.6472 186.689 92.8317L187.993 91.3159C186.21 89.7804 184.009 89.0338 181.461 89.0338V91.0338ZM186.694 92.8364C188.052 93.9877 188.711 95.4095 188.711 97.1738H190.711C190.711 94.8181 189.79 92.8399 187.988 91.3111L186.694 92.8364Z" fill="black"/>
<rect width="9" height="28" transform="matrix(-1 0 0 1 261.824 108.893)" fill="#AB85FF"/>
<rect width="9" height="18" transform="matrix(-1 0 0 1 278.824 118.893)" fill="#AB85FF"/>
<rect width="9" height="49" transform="matrix(-1 0 0 1 244.824 87.8931)" fill="#AB85FF"/>
<rect width="9" height="66" transform="matrix(-1 0 0 1 227.824 70.8931)" fill="#AB85FF"/>
<path d="M256.812 56.7904L277.966 69.0035V44.5774L256.812 56.7904Z" fill="#D4D4D4"/>
<path d="M229.633 56.7904L250.786 69.0035V44.5774L229.633 56.7904Z" fill="#D4D4D4"/>
<path d="M243.223 56.7907L264.376 69.0037V44.5776L243.223 56.7907Z" fill="#D4D4D4"/>
</svg>
