<svg width="341" height="181" viewBox="0 0 341 181" fill="none" xmlns="http://www.w3.org/2000/svg">
<rect width="341" height="180" transform="translate(0 0.234375)" fill="#F5F5F5"/>
<path d="M251.531 124.102C265.031 123.247 290.831 114.098 292.031 89.4718C292.031 58.6895 264.531 50.5664 251.031 50.5664C231.531 50.5664 243.681 50.5664 197.681 50.5664" stroke="black"/>
<path d="M251.734 124.102H179.531" stroke="black"/>
<path d="M171.598 62.5229L141.809 95.7353" stroke="black" stroke-width="0.684791"/>
<path d="M168.516 62.522L138.727 95.7344" stroke="black" stroke-width="0.684791"/>
<path d="M165.094 62.522L135.305 95.7344" stroke="black" stroke-width="0.684791"/>
<path d="M161.668 62.522L131.88 95.7344" stroke="black" stroke-width="0.684791"/>
<path d="M158.246 62.522L128.458 95.7344" stroke="black" stroke-width="0.684791"/>
<path d="M154.82 62.522L125.032 95.7344" stroke="black" stroke-width="0.684791"/>
<g clip-path="url(#clip0)">
<rect width="142" height="39" transform="matrix(-1 0 0 1 179.531 94.2344)" fill="#AB85FF"/>
<path d="M234.695 82.78C158.193 39.0642 103.548 39.0642 70.7609 82.78C37.974 126.496 -16.6708 126.496 -93.1736 82.78" stroke="#8052E4" stroke-width="2"/>
<path d="M238.934 159.442C180.286 93.6839 128.473 76.321 83.4949 107.354C38.5168 138.386 -13.2962 121.023 -71.9441 55.265" stroke="#8052E4" stroke-width="2"/>
<path d="M231.463 137.596C151.762 100.026 97.2859 104.32 68.0352 150.476C38.7846 196.633 -15.6913 200.927 -95.3924 163.357" stroke="#8052E4" stroke-width="2"/>
</g>
<g clip-path="url(#clip1)">
<rect width="69.1934" height="19.0038" transform="matrix(-1 0 0 1 200.379 44.1733)" fill="#AB85FF"/>
<path d="M227.262 38.592C189.984 17.2903 163.357 17.2903 147.38 38.592C131.404 59.8938 104.777 59.8938 67.4987 38.592" stroke="#8052E4" stroke-width="0.974554"/>
<path d="M229.326 75.9477C200.748 43.9051 175.501 35.4446 153.584 50.5661C131.667 65.6876 106.42 57.227 77.8423 25.1845" stroke="#8052E4" stroke-width="0.974554"/>
<path d="M225.685 65.3024C186.848 46.9955 160.304 49.0877 146.05 71.5789C131.797 94.07 105.252 96.1622 66.4159 77.8553" stroke="#8052E4" stroke-width="0.974554"/>
</g>
<path d="M62.865 86.5792C62.865 81.7139 64.7978 77.0478 68.2381 73.6075C71.6784 70.1671 76.3445 68.2344 81.2099 68.2344C86.0752 68.2344 90.7413 70.1671 94.1816 73.6074C97.6219 77.0478 99.5547 81.7138 99.5547 86.5792L81.2099 86.5792H62.865Z" fill="#D4D4D4"/>
<path d="M89.945 86.579C89.945 83.3354 91.1875 80.2247 93.3992 77.9312C95.6108 75.6376 98.6104 74.3491 101.738 74.3491C104.866 74.3491 107.865 75.6376 110.077 77.9312C112.289 80.2247 113.531 83.3354 113.531 86.579L101.738 86.579H89.945Z" fill="#D4D4D4"/>
<path d="M37.5326 86.579C37.5326 83.3354 39.3273 80.2247 42.5219 77.9312C45.7165 75.6376 50.0493 74.3491 54.5671 74.3491C59.0849 74.3491 63.4177 75.6376 66.6123 77.9312C69.8069 80.2247 71.6016 83.3354 71.6016 86.579L54.5671 86.579H37.5326Z" fill="#D4D4D4"/>
<path d="M303.465 85.6115L274.517 68.8984V102.325L303.465 85.6115Z" fill="#31D67B"/>
<path d="M285.152 85.6115L256.204 68.8984V102.325L285.152 85.6115Z" fill="#31D67B"/>
<path d="M265.855 85.6115L236.908 68.8984V102.325L265.855 85.6115Z" fill="#31D67B"/>
<defs>
<clipPath id="clip0">
<rect width="142" height="39" fill="white" transform="matrix(-1 0 0 1 179.531 94.2344)"/>
</clipPath>
<clipPath id="clip1">
<rect width="69.1934" height="19.0038" fill="white" transform="matrix(-1 0 0 1 200.379 44.1733)"/>
</clipPath>
</defs>
</svg>
