<svg width="341" height="181" viewBox="0 0 341 181" fill="none" xmlns="http://www.w3.org/2000/svg">
<g clip-path="url(#clip0)">
<rect width="341" height="180" transform="translate(0 0.234375)" fill="#F5F5F5"/>
<path d="M194.879 78.4322L277.877 78.4322M277.877 78.4322L275.603 77.6749M277.877 78.4322L275.603 79.1895" stroke="black"/>
<path d="M194.879 91.0149L310.849 91.0149M310.849 91.0149L307.672 90.2302M310.849 91.0149L307.672 91.7996" stroke="black"/>
<path d="M194.879 65.9043H247.179M247.179 65.9043L245.746 65.1196M247.179 65.9043L245.746 66.689" stroke="black"/>
<path d="M194.879 103.57L273.534 103.57M273.534 103.57L271.38 102.785M273.534 103.57L271.38 104.355" stroke="black"/>
<path d="M136.569 55.1216C146.997 45.71 160.736 40.826 174.764 41.5442C188.792 42.2623 201.96 48.5238 211.372 58.9511C220.784 69.3784 225.668 83.1173 224.95 97.1456C224.231 111.174 217.97 124.342 207.543 133.754L172.056 94.4377L136.569 55.1216Z" fill="#A57CFE"/>
<path d="M119.34 35.4681C108.987 44.8127 102.77 57.8873 102.057 71.8157C101.344 85.744 106.193 99.3851 115.538 109.738C124.882 120.091 137.957 126.308 151.885 127.021C165.814 127.734 179.455 122.885 189.808 113.54L154.574 74.5042L119.34 35.4681Z" fill="#31D67B"/>
<circle cx="78.2298" cy="110.506" r="10.8978" fill="#D4D4D4"/>
<circle cx="78.2274" cy="119.802" r="7.89538" stroke="black"/>
<circle cx="61.1948" cy="139.479" r="5.63619" stroke="black"/>
</g>
<defs>
<clipPath id="clip0">
<rect width="341" height="180" fill="white" transform="translate(0 0.234375)"/>
</clipPath>
</defs>
</svg>
