<svg width="216" height="78" viewBox="0 0 216 78" fill="none" xmlns="http://www.w3.org/2000/svg">
<path d="M32.0664 50.083H92.3452" stroke="url(#paint0_linear)" stroke-width="2"/>
<rect x="1.83594" y="40.0312" width="127" height="36.7496" stroke="url(#paint1_linear)" stroke-width="2"/>
<path d="M189.297 26.3788C165.525 -2.03119 130.015 -13.1427 90.4933 26.3788M90.4933 26.3788C92.2369 17.0797 92.9164 12.6785 93.0382 11.6402L90.4933 26.3788ZM90.4933 26.3788C92.2381 25.6656 100.678 23.9838 106.681 23.4176" stroke="url(#paint2_linear)"/>
<path d="M174.596 51.4871L175.64 51.472L177.721 42.7639L180.476 52.7635L177.859 62.3582H170.882L163.502 37.809H170.907L174.596 51.4871ZM186.311 37.809L192.622 62.3582H185.548L178.782 37.809H186.311ZM191.304 47.9025L193.821 37.809H200.502L194.268 59.5077L191.304 47.9025Z" fill="url(#paint3_linear)" stroke="url(#paint4_linear)" stroke-width="1.07694"/>
<path d="M205.268 52.3754H199.253L200.153 47.3177H206.359H206.812L206.89 46.8713L208.463 37.809H215.172L210.831 62.3582H196.001L197.824 56.8822H204.681H205.135L205.212 56.4346L205.799 53.0048L205.907 52.3754H205.268Z" fill="url(#paint5_linear)" stroke="url(#paint6_linear)" stroke-width="1.07694"/>
<defs>
<linearGradient id="paint0_linear" x1="22.261" y1="51.1829" x2="22.2916" y2="48.8017" gradientUnits="userSpaceOnUse">
<stop stop-color="#AB85FF"/>
<stop offset="0.526042" stop-color="#EBA3E3"/>
<stop offset="1" stop-color="#FFDBE4"/>
</linearGradient>
<linearGradient id="paint1_linear" x1="-20.1481" y1="81.6507" x2="0.198222" y2="-5.90697" gradientUnits="userSpaceOnUse">
<stop stop-color="#AB85FF"/>
<stop offset="0.526042" stop-color="#EBA3E3"/>
<stop offset="1" stop-color="#FFDBE4"/>
</linearGradient>
<linearGradient id="paint2_linear" x1="205.369" y1="28.9397" x2="193.583" y2="-29.764" gradientUnits="userSpaceOnUse">
<stop stop-color="#AB85FF"/>
<stop offset="0.526042" stop-color="#EBA3E3"/>
<stop offset="1" stop-color="#FFDBE4"/>
</linearGradient>
<linearGradient id="paint3_linear" x1="156.525" y1="65.4559" x2="181.387" y2="17.2473" gradientUnits="userSpaceOnUse">
<stop stop-color="#AB85FF"/>
<stop offset="0.526042" stop-color="#EBA3E3"/>
<stop offset="1" stop-color="#FFDBE4"/>
</linearGradient>
<linearGradient id="paint4_linear" x1="156.525" y1="65.4559" x2="181.387" y2="17.2473" gradientUnits="userSpaceOnUse">
<stop stop-color="#AB85FF"/>
<stop offset="0.526042" stop-color="#EBA3E3"/>
<stop offset="1" stop-color="#FFDBE4"/>
</linearGradient>
<linearGradient id="paint5_linear" x1="191.909" y1="65.4559" x2="222.405" y2="33.8281" gradientUnits="userSpaceOnUse">
<stop stop-color="#AB85FF"/>
<stop offset="0.526042" stop-color="#EBA3E3"/>
<stop offset="1" stop-color="#FFDBE4"/>
</linearGradient>
<linearGradient id="paint6_linear" x1="191.909" y1="65.4559" x2="222.405" y2="33.8281" gradientUnits="userSpaceOnUse">
<stop stop-color="#AB85FF"/>
<stop offset="0.526042" stop-color="#EBA3E3"/>
<stop offset="1" stop-color="#FFDBE4"/>
</linearGradient>
</defs>
</svg>
