<svg width="199" height="52" viewBox="0 0 199 52" fill="none" xmlns="http://www.w3.org/2000/svg">
<path d="M34.0712 36.7916C33.9993 32.1827 32.5634 27.992 30.0105 24.9577C27.4725 21.942 24.0328 20.2812 20.324 20.2812C16.6153 20.2812 13.1756 21.942 10.6375 24.9577C8.08707 27.9888 6.65215 32.1737 6.57715 36.7769C8.01934 37.4993 13.9873 40.2812 20.324 40.2812C27.1762 40.2812 32.7338 37.5156 34.0712 36.7916Z" fill="url(#paint0_linear)"/>
<path d="M20.3242 19.0312C24.1212 19.0312 27.1992 15.9532 27.1992 12.1562C27.1992 8.35929 24.1212 5.28125 20.3242 5.28125C16.5273 5.28125 13.4492 8.35929 13.4492 12.1562C13.4492 15.9532 16.5273 19.0312 20.3242 19.0312Z" fill="url(#paint1_linear)"/>
<path d="M113.324 49.8115L123.324 29.775L142.324 39.7933L153.824 14.2467L174.324 23.2631L197.324 9.73846M197.324 9.73846L192.324 18.254M197.324 9.73846H187.324" stroke="url(#paint2_linear)"/>
<path d="M54.324 29.7812C57.8749 29.7812 61.1781 31.3687 63.6279 34.2796L63.628 34.2797C66.0391 37.1455 67.4368 41.1023 67.5645 45.4944C65.8865 46.3665 60.6642 48.7812 54.324 48.7812C48.4596 48.7812 42.8928 46.3447 41.0844 45.4693C41.2169 41.0871 42.6132 37.14 45.0201 34.2797C47.47 31.3688 50.7731 29.7812 54.324 29.7812Z" stroke="url(#paint3_linear)"/>
<path d="M60.6992 21.1562C60.6992 24.6771 57.845 27.5312 54.3242 27.5312C50.8034 27.5312 47.9492 24.6771 47.9492 21.1562C47.9492 17.6354 50.8034 14.7812 54.3242 14.7812C57.845 14.7812 60.6992 17.6354 60.6992 21.1562Z" stroke="url(#paint4_linear)"/>
<path d="M88.324 18.7812C91.8749 18.7812 95.1781 20.3687 97.6279 23.2796L97.628 23.2797C100.039 26.1455 101.437 30.1023 101.564 34.4944C99.8865 35.3665 94.6642 37.7812 88.324 37.7812C82.4596 37.7812 76.8928 35.3447 75.0844 34.4693C75.2169 30.0871 76.6132 26.14 79.0201 23.2797C81.47 20.3688 84.7731 18.7812 88.324 18.7812Z" stroke="url(#paint5_linear)"/>
<path d="M94.6992 10.1562C94.6992 13.6771 91.845 16.5312 88.3242 16.5312C84.8034 16.5312 81.9492 13.6771 81.9492 10.1562C81.9492 6.63543 84.8034 3.78125 88.3242 3.78125C91.845 3.78125 94.6992 6.63543 94.6992 10.1562Z" stroke="url(#paint6_linear)"/>
<defs>
<linearGradient id="paint0_linear" x1="2.10478" y1="42.2786" x2="22.4623" y2="6.10271" gradientUnits="userSpaceOnUse">
<stop stop-color="#AB85FF"/>
<stop offset="0.526042" stop-color="#EBA3E3"/>
<stop offset="1" stop-color="#FFDBE4"/>
</linearGradient>
<linearGradient id="paint1_linear" x1="11.2126" y1="20.4045" x2="27.0609" y2="-0.0822026" gradientUnits="userSpaceOnUse">
<stop stop-color="#AB85FF"/>
<stop offset="0.526042" stop-color="#EBA3E3"/>
<stop offset="1" stop-color="#FFDBE4"/>
</linearGradient>
<linearGradient id="paint2_linear" x1="99.6602" y1="5.73639" x2="130.66" y2="89.7337" gradientUnits="userSpaceOnUse">
<stop stop-color="#AB85FF"/>
<stop offset="0.526042" stop-color="#EBA3E3"/>
<stop offset="1" stop-color="#FFDBE4"/>
</linearGradient>
<linearGradient id="paint3_linear" x1="36.1048" y1="51.2786" x2="56.4623" y2="15.1027" gradientUnits="userSpaceOnUse">
<stop stop-color="#AB85FF"/>
<stop offset="0.526042" stop-color="#EBA3E3"/>
<stop offset="1" stop-color="#FFDBE4"/>
</linearGradient>
<linearGradient id="paint4_linear" x1="45.2126" y1="29.4045" x2="61.0609" y2="8.9178" gradientUnits="userSpaceOnUse">
<stop stop-color="#AB85FF"/>
<stop offset="0.526042" stop-color="#EBA3E3"/>
<stop offset="1" stop-color="#FFDBE4"/>
</linearGradient>
<linearGradient id="paint5_linear" x1="70.1048" y1="40.2786" x2="90.4623" y2="4.10271" gradientUnits="userSpaceOnUse">
<stop stop-color="#AB85FF"/>
<stop offset="0.526042" stop-color="#EBA3E3"/>
<stop offset="1" stop-color="#FFDBE4"/>
</linearGradient>
<linearGradient id="paint6_linear" x1="79.2126" y1="18.4045" x2="95.0609" y2="-2.0822" gradientUnits="userSpaceOnUse">
<stop stop-color="#AB85FF"/>
<stop offset="0.526042" stop-color="#EBA3E3"/>
<stop offset="1" stop-color="#FFDBE4"/>
</linearGradient>
</defs>
</svg>
