<svg width="174" height="87" viewBox="0 0 174 87" fill="none" xmlns="http://www.w3.org/2000/svg">
<rect x="1.15234" y="73.6738" width="57.3768" height="12.341" stroke="url(#paint0_linear)"/>
<rect x="115.902" y="67.4473" width="57.3768" height="18.5681" stroke="url(#paint1_linear)"/>
<rect x="58.5273" y="47.209" width="57.3768" height="38.8063" stroke="url(#paint2_linear)"/>
<path d="M86.7748 19.3314L81.8948 21.7714L79.9748 17.7314L88.0948 13.6514H91.3348V40.6514H86.7748V19.3314Z" fill="url(#paint3_linear)"/>
<path d="M149.304 45.2828C149.304 44.4779 148.978 43.8071 148.326 43.2705C147.656 42.7147 146.87 42.4368 145.969 42.4368C145.107 42.4368 144.33 42.6956 143.641 43.213C142.951 43.7305 142.424 44.4491 142.059 45.3691L139.012 43.9029C139.645 42.4656 140.574 41.3349 141.801 40.5108C143.046 39.6867 144.436 39.2746 145.969 39.2746C147.886 39.2746 149.486 39.8592 150.77 41.0282C152.092 42.1781 152.753 43.5676 152.753 45.1966C152.753 46.1931 152.428 47.2185 151.776 48.2725C151.124 49.3266 150.07 50.5531 148.614 51.9522L144.474 55.8905H152.926V59.0527H139.357V56.5805L146.544 49.7386C148.384 47.9371 149.304 46.4519 149.304 45.2828Z" fill="url(#paint4_linear)"/>
<path d="M33.9323 52.7683C33.9323 52.0673 33.6094 51.4862 32.9637 51.025C32.3181 50.5454 31.4971 50.3056 30.501 50.3056C29.6893 50.3056 28.9698 50.4716 28.3426 50.8037C27.7338 51.1173 27.3003 51.5508 27.042 52.1042L24.1641 50.7206C24.7176 49.6507 25.557 48.8113 26.6823 48.2025C27.826 47.5753 29.1082 47.2617 30.5286 47.2617C32.4288 47.2617 34.0245 47.7782 35.3158 48.8113C36.5887 49.8444 37.2252 51.1357 37.2252 52.6853C37.2252 54.3087 36.5057 55.6185 35.0668 56.6147C36.8193 57.7031 37.6956 59.1697 37.6956 61.0145C37.6956 62.6379 37.0223 63.9846 35.6756 65.0546C34.3658 66.1246 32.7055 66.6595 30.6947 66.6595C29.0897 66.6595 27.6692 66.2906 26.4332 65.5527C25.2157 64.7963 24.3855 63.8094 23.9428 62.5918L26.9867 61.5126C27.1896 62.1398 27.6231 62.6471 28.2872 63.0345C28.9698 63.4219 29.7723 63.6157 30.6947 63.6157C31.7462 63.6157 32.6225 63.3574 33.3235 62.8408C34.0429 62.3243 34.4027 61.6694 34.4027 60.8762C34.4027 60.1198 34.0522 59.4833 33.3512 58.9668C32.6686 58.4503 31.8108 58.192 30.7777 58.192H29.3664V55.3141H30.3349C31.3496 55.3141 32.1982 55.0743 32.8807 54.5947C33.5818 54.115 33.9323 53.5063 33.9323 52.7683Z" fill="url(#paint5_linear)"/>
<defs>
<linearGradient id="paint0_linear" x1="-8.84362" y1="87.8472" x2="-3.39672" y2="57.0374" gradientUnits="userSpaceOnUse">
<stop stop-color="#AB85FF"/>
<stop offset="0.526042" stop-color="#EBA3E3"/>
<stop offset="1" stop-color="#FFDBE4"/>
</linearGradient>
<linearGradient id="paint1_linear" x1="105.906" y1="88.4697" x2="117.23" y2="44.8026" gradientUnits="userSpaceOnUse">
<stop stop-color="#AB85FF"/>
<stop offset="0.526042" stop-color="#EBA3E3"/>
<stop offset="1" stop-color="#FFDBE4"/>
</linearGradient>
<linearGradient id="paint2_linear" x1="48.5314" y1="90.4907" x2="87.6538" y2="16.3255" gradientUnits="userSpaceOnUse">
<stop stop-color="#AB85FF"/>
<stop offset="0.526042" stop-color="#EBA3E3"/>
<stop offset="1" stop-color="#FFDBE4"/>
</linearGradient>
<linearGradient id="paint3_linear" x1="75.2868" y1="66.6435" x2="123.457" y2="47.963" gradientUnits="userSpaceOnUse">
<stop stop-color="#AB85FF"/>
<stop offset="0.526042" stop-color="#EBA3E3"/>
<stop offset="1" stop-color="#FFDBE4"/>
</linearGradient>
<linearGradient id="paint4_linear" x1="136.017" y1="77.48" x2="170.636" y2="64.0547" gradientUnits="userSpaceOnUse">
<stop stop-color="#AB85FF"/>
<stop offset="0.526042" stop-color="#EBA3E3"/>
<stop offset="1" stop-color="#FFDBE4"/>
</linearGradient>
<linearGradient id="paint5_linear" x1="21.1424" y1="83.9527" x2="54.4664" y2="71.0296" gradientUnits="userSpaceOnUse">
<stop stop-color="#AB85FF"/>
<stop offset="0.526042" stop-color="#EBA3E3"/>
<stop offset="1" stop-color="#FFDBE4"/>
</linearGradient>
</defs>
</svg>
