<svg width="342" height="180" viewBox="0 0 342 180" fill="none" xmlns="http://www.w3.org/2000/svg">
<rect width="341" height="180" transform="translate(0.402344)" fill="#F5F5F5"/>
<path d="M86.9922 125.101C73.4922 124.101 47.6922 113.401 46.4922 84.6008C46.4922 48.6008 73.9922 39.1009 87.4922 39.1009C106.992 39.1009 187.992 39.1008 233.992 39.1008" stroke="black"/>
<path d="M86.7891 125.101H158.993" stroke="black"/>
<path d="M270.492 60.1008C283.992 61.1008 309.792 71.8008 310.992 100.601C310.992 136.601 283.492 146.101 269.992 146.101C250.492 146.101 169.492 146.101 123.492 146.101" stroke="black"/>
<path d="M270.695 60.1008H198.492" stroke="black"/>
<path d="M138.492 39.6008V124.601M138.492 39.6008V124.601" stroke="black"/>
<path d="M133.992 39.1008V125.101M133.992 39.1008V125.101" stroke="black"/>
<path d="M128.992 39.1008V125.101M128.992 39.1008V125.101" stroke="black"/>
<path d="M123.992 39.1008V125.101M123.992 39.1008V125.101" stroke="black"/>
<path d="M118.992 39.1008V125.101M118.992 39.1008V125.101" stroke="black"/>
<path d="M113.992 39.1008V125.101M113.992 39.1008V125.101" stroke="black"/>
<path d="M108.992 39.1008V125.101M108.992 39.1008V125.101" stroke="black"/>
<path d="M103.992 39.1008V125.101M103.992 39.1008V125.101" stroke="black"/>
<path d="M228.992 39.1008V60.1008" stroke="black"/>
<path d="M225.992 39.1008V60.1008" stroke="black"/>
<path d="M222.992 39.1008V60.1008" stroke="black"/>
<path d="M219.992 39.1008V60.1008" stroke="black"/>
<path d="M216.992 39.1008V60.1008" stroke="black"/>
<path d="M244.648 70.6008L281.021 127.226H208.275L244.648 70.6008Z" fill="#A57CFE"/>
<path d="M225.991 121.669L247.878 87.5961H204.105L225.991 121.669Z" fill="#8052E4"/>
<circle cx="158.992" cy="124.601" r="11.1637" fill="#4AE991"/>
<circle cx="239.194" cy="39.1008" r="5.20167" fill="#4AE991"/>
<circle cx="32.1875" cy="77.6135" r="1.375" fill="#D4D4D4"/>
<circle cx="37.9375" cy="77.6135" r="1.375" fill="#D4D4D4"/>
<circle cx="43.6875" cy="77.6135" r="1.375" fill="#D4D4D4"/>
<circle cx="49.1875" cy="77.6135" r="1.375" fill="#D4D4D4"/>
<circle cx="55.1875" cy="77.6135" r="1.375" fill="#D4D4D4"/>
<circle cx="60.9375" cy="77.6135" r="1.375" fill="#D4D4D4"/>
<circle cx="66.6875" cy="77.6135" r="1.375" fill="#D4D4D4"/>
<circle cx="72.4375" cy="77.6135" r="1.375" fill="#D4D4D4"/>
<circle cx="78.1875" cy="77.6135" r="1.375" fill="#D4D4D4"/>
<circle cx="32.1875" cy="83.3635" r="1.375" fill="#D4D4D4"/>
<circle cx="37.9375" cy="83.3635" r="1.375" fill="#D4D4D4"/>
<circle cx="32.1875" cy="89.1135" r="1.375" fill="#D4D4D4"/>
<circle cx="37.9375" cy="89.1135" r="1.375" fill="#D4D4D4"/>
<circle cx="43.6875" cy="89.1135" r="1.375" fill="#D4D4D4"/>
<circle cx="49.4375" cy="89.1135" r="1.375" fill="#D4D4D4"/>
<circle cx="55.1875" cy="89.1135" r="1.375" fill="#D4D4D4"/>
<circle cx="60.9375" cy="89.1135" r="1.375" fill="#D4D4D4"/>
<circle cx="66.6875" cy="89.1135" r="1.375" fill="#D4D4D4"/>
<circle cx="72.4375" cy="89.1135" r="1.375" fill="#D4D4D4"/>
<circle cx="78.1875" cy="89.1135" r="1.375" fill="#D4D4D4"/>
<circle cx="43.6875" cy="83.3635" r="1.375" fill="#D4D4D4"/>
<circle cx="49.1875" cy="83.3635" r="1.375" fill="#D4D4D4"/>
<circle cx="55.1875" cy="83.3635" r="1.375" fill="#D4D4D4"/>
<circle cx="60.9375" cy="83.3635" r="1.375" fill="#D4D4D4"/>
<circle cx="66.6875" cy="83.3635" r="1.375" fill="#D4D4D4"/>
<circle cx="72.4375" cy="83.3635" r="1.375" fill="#D4D4D4"/>
<circle cx="78.1875" cy="83.3635" r="1.375" fill="#D4D4D4"/>
</svg>
