<svg width="342" height="180" viewBox="0 0 342 180" fill="none" xmlns="http://www.w3.org/2000/svg">
<rect width="341" height="180" transform="translate(0.402344)" fill="#F5F5F5"/>
<path d="M197.402 90C197.402 99.3239 195.566 108.556 191.998 117.171C188.43 125.785 183.2 133.612 176.607 140.205C170.014 146.798 162.187 152.027 153.573 155.595C144.959 159.164 135.726 161 126.402 161C117.078 161 107.846 159.164 99.2318 155.595C90.6177 152.027 82.7907 146.798 76.1978 140.205C69.6048 133.612 64.375 125.785 60.8069 117.171C57.2388 108.556 55.4023 99.3238 55.4023 90L126.402 90H197.402Z" fill="#AB85FF"/>
<mask id="mask0" mask-type="alpha" maskUnits="userSpaceOnUse" x="55" y="90" width="143" height="71">
<path d="M197.402 90C197.402 99.3239 195.566 108.556 191.998 117.171C188.43 125.785 183.2 133.612 176.607 140.205C170.014 146.798 162.187 152.027 153.573 155.595C144.959 159.164 135.726 161 126.402 161C117.078 161 107.846 159.164 99.2318 155.595C90.6177 152.027 82.7907 146.798 76.1978 140.205C69.6048 133.612 64.375 125.785 60.8069 117.171C57.2388 108.556 55.4023 99.3238 55.4023 90L126.402 90H197.402Z" fill="#AB85FF"/>
</mask>
<g mask="url(#mask0)">
<path d="M-14.7656 107.546C61.7371 63.8298 116.382 63.8298 149.169 107.546C181.956 151.262 236.601 151.262 313.103 107.546" stroke="#B491FF" stroke-width="2"/>
<path d="M-5.17993 191.265C53.468 125.507 105.281 108.144 150.259 139.176C195.237 170.209 247.05 152.846 305.698 87.0877" stroke="#B491FF" stroke-width="2"/>
<path d="M-11.5293 162.361C68.1718 124.792 122.648 129.085 151.898 175.242C181.149 221.399 235.625 225.692 315.326 188.123" stroke="#B491FF" stroke-width="2"/>
</g>
<path d="M160.402 77C160.402 69.9086 161.799 62.8867 164.513 56.3351C167.227 49.7835 171.204 43.8306 176.219 38.8162C181.233 33.8019 187.186 29.8243 193.737 27.1105C200.289 24.3968 207.311 23 214.402 23C221.494 23 228.516 24.3968 235.067 27.1105C241.619 29.8243 247.572 33.8019 252.586 38.8162C257.6 43.8306 261.578 49.7835 264.292 56.3351C267.006 62.8867 268.402 69.9086 268.402 77L214.402 77H160.402Z" fill="#31D67B"/>
<mask id="path-7-inside-1" fill="white">
<path d="M147.402 72C147.402 64.9086 148.799 57.8867 151.513 51.3351C154.227 44.7835 158.204 38.8306 163.219 33.8162C168.233 28.8019 174.186 24.8243 180.737 22.1105C187.289 19.3968 194.311 18 201.402 18C208.494 18 215.516 19.3968 222.067 22.1105C228.619 24.8243 234.572 28.8019 239.586 33.8162C244.6 38.8306 248.578 44.7835 251.292 51.3351C254.006 57.8867 255.402 64.9086 255.402 72L201.402 72H147.402Z"/>
</mask>
<path d="M147.402 72C147.402 64.9086 148.799 57.8867 151.513 51.3351C154.227 44.7835 158.204 38.8306 163.219 33.8162C168.233 28.8019 174.186 24.8243 180.737 22.1105C187.289 19.3968 194.311 18 201.402 18C208.494 18 215.516 19.3968 222.067 22.1105C228.619 24.8243 234.572 28.8019 239.586 33.8162C244.6 38.8306 248.578 44.7835 251.292 51.3351C254.006 57.8867 255.402 64.9086 255.402 72L201.402 72H147.402Z" stroke="black" stroke-width="2" mask="url(#path-7-inside-1)"/>
<path d="M99.1855 90L99.1855 48.463M99.1855 48.463L98.3904 49.601M99.1855 48.463L99.9805 49.601" stroke="black"/>
<path d="M112.395 90L112.395 31.9621M112.395 31.9621L111.571 33.5521M112.395 31.9621L113.219 33.5521" stroke="black"/>
<path d="M86.0356 90L86.0356 63.826M86.0356 63.826L85.2117 64.5431M86.0356 63.826L86.8594 64.5431" stroke="black"/>
<path d="M125.579 90V71.223M125.579 71.223L124.755 71.7375M125.579 71.223L126.402 71.7375" stroke="black"/>
<path d="M114.513 131.39V124.61C114.513 122.45 115.283 120.65 116.823 119.21C118.383 117.77 120.323 117.05 122.643 117.05C124.963 117.05 126.893 117.77 128.433 119.21C129.993 120.65 130.773 122.45 130.773 124.61V131.39C130.773 133.55 129.993 135.35 128.433 136.79C126.893 138.23 124.963 138.95 122.643 138.95C120.323 138.95 118.383 138.23 116.823 136.79C115.283 135.35 114.513 133.55 114.513 131.39ZM118.413 124.55V131.45C118.413 132.51 118.813 133.41 119.613 134.15C120.433 134.87 121.443 135.23 122.643 135.23C123.843 135.23 124.853 134.87 125.673 134.15C126.493 133.39 126.903 132.49 126.903 131.45V124.55C126.903 123.49 126.493 122.6 125.673 121.88C124.873 121.14 123.863 120.77 122.643 120.77C121.423 120.77 120.413 121.14 119.613 121.88C118.813 122.6 118.413 123.49 118.413 124.55ZM144.631 122.27L141.001 124.07L139.381 120.65L145.741 117.5H148.531V138.5H144.631V122.27ZM169.622 123.62C169.622 122.84 169.282 122.17 168.602 121.61C167.962 121.05 167.172 120.77 166.232 120.77C165.332 120.77 164.522 121.05 163.802 121.61C163.102 122.15 162.572 122.89 162.212 123.83L158.612 122.12C159.292 120.56 160.312 119.33 161.672 118.43C163.032 117.51 164.552 117.05 166.232 117.05C168.332 117.05 170.082 117.68 171.482 118.94C172.922 120.2 173.642 121.72 173.642 123.5C173.642 124.58 173.282 125.71 172.562 126.89C171.842 128.05 170.702 129.38 169.142 130.88L165.032 134.78H173.822V138.5H159.032V135.59L166.742 128.24C168.662 126.38 169.622 124.84 169.622 123.62ZM192.995 123.35C192.995 122.63 192.655 122.02 191.975 121.52C191.295 121.02 190.425 120.77 189.365 120.77C188.505 120.77 187.745 120.95 187.085 121.31C186.445 121.65 185.975 122.1 185.675 122.66L182.135 120.98C182.755 119.78 183.715 118.83 185.015 118.13C186.315 117.41 187.775 117.05 189.395 117.05C191.575 117.05 193.395 117.64 194.855 118.82C196.295 119.98 197.015 121.45 197.015 123.23C197.015 124.97 196.265 126.43 194.765 127.61C196.625 128.81 197.555 130.44 197.555 132.5C197.555 134.36 196.795 135.9 195.275 137.12C193.755 138.34 191.865 138.95 189.605 138.95C187.745 138.95 186.115 138.52 184.715 137.66C183.315 136.78 182.365 135.64 181.865 134.24L185.615 132.92C185.835 133.6 186.305 134.16 187.025 134.6C187.745 135.02 188.595 135.23 189.575 135.23C190.695 135.23 191.635 134.96 192.395 134.42C193.155 133.86 193.535 133.16 193.535 132.32C193.535 131.52 193.155 130.86 192.395 130.34C191.655 129.8 190.745 129.53 189.665 129.53H188.075V126.02H189.155C190.235 126.02 191.145 125.77 191.885 125.27C192.625 124.77 192.995 124.13 192.995 123.35ZM216.633 138.5V134.48H205.743V130.76L216.813 117.5H220.503V130.76H223.173V134.48H220.503V138.5H216.633ZM216.633 123.29L210.393 130.76H216.633V123.29ZM246.949 131.81C246.949 133.83 246.179 135.53 244.639 136.91C243.099 138.27 241.189 138.95 238.909 138.95C237.069 138.95 235.449 138.47 234.049 137.51C232.649 136.53 231.649 135.22 231.049 133.58L234.919 132.53C235.259 133.37 235.789 134.03 236.509 134.51C237.229 134.99 238.039 135.23 238.939 135.23C240.079 135.23 241.019 134.9 241.759 134.24C242.539 133.58 242.929 132.77 242.929 131.81C242.929 130.77 242.499 129.91 241.639 129.23C240.819 128.55 239.769 128.21 238.489 128.21H232.639L233.719 117.5H245.149V121.07H236.929L236.599 124.67H238.699C241.039 124.67 242.999 125.35 244.579 126.71C246.159 128.05 246.949 129.75 246.949 131.81Z" fill="#AB85FF"/>
<path d="M116.823 119.21L116.144 118.475L116.14 118.48L116.823 119.21ZM128.433 119.21L127.75 119.94L127.754 119.945L128.433 119.21ZM128.433 136.79L127.754 136.055L127.75 136.06L128.433 136.79ZM116.823 136.79L116.14 137.52L116.144 137.525L116.823 136.79ZM119.613 134.15L118.934 134.884L118.943 134.893L118.953 134.901L119.613 134.15ZM125.673 134.15L126.332 134.901L126.343 134.893L126.352 134.883L125.673 134.15ZM125.673 121.88L124.994 122.614L125.003 122.623L125.013 122.631L125.673 121.88ZM119.613 121.88L120.282 122.623L120.292 122.614L119.613 121.88ZM115.513 131.39V124.61H113.513V131.39H115.513ZM115.513 124.61C115.513 122.719 116.173 121.186 117.506 119.94L116.14 118.48C114.392 120.114 113.513 122.181 113.513 124.61H115.513ZM117.501 119.945C118.858 118.692 120.549 118.05 122.643 118.05V116.05C120.097 116.05 117.907 116.848 116.144 118.475L117.501 119.945ZM122.643 118.05C124.737 118.05 126.414 118.692 127.75 119.94L129.116 118.48C127.371 116.848 125.189 116.05 122.643 116.05V118.05ZM127.754 119.945C129.105 121.192 129.773 122.724 129.773 124.61H131.773C131.773 122.176 130.88 120.108 129.111 118.475L127.754 119.945ZM129.773 124.61V131.39H131.773V124.61H129.773ZM129.773 131.39C129.773 133.276 129.105 134.808 127.754 136.055L129.111 137.525C130.88 135.892 131.773 133.824 131.773 131.39H129.773ZM127.75 136.06C126.414 137.308 124.737 137.95 122.643 137.95V139.95C125.189 139.95 127.371 139.152 129.116 137.52L127.75 136.06ZM122.643 137.95C120.549 137.95 118.858 137.308 117.501 136.055L116.144 137.525C117.907 139.152 120.097 139.95 122.643 139.95V137.95ZM117.506 136.06C116.173 134.814 115.513 133.281 115.513 131.39H113.513C113.513 133.819 114.392 135.886 116.14 137.52L117.506 136.06ZM117.413 124.55V131.45H119.413V124.55H117.413ZM117.413 131.45C117.413 132.797 117.936 133.961 118.934 134.884L120.292 133.416C119.69 132.859 119.413 132.223 119.413 131.45H117.413ZM118.953 134.901C119.974 135.798 121.226 136.23 122.643 136.23V134.23C121.659 134.23 120.891 133.942 120.272 133.399L118.953 134.901ZM122.643 136.23C124.059 136.23 125.311 135.798 126.332 134.901L125.013 133.399C124.394 133.942 123.626 134.23 122.643 134.23V136.23ZM126.352 134.883C127.359 133.95 127.903 132.791 127.903 131.45H125.903C125.903 132.189 125.626 132.83 124.993 133.417L126.352 134.883ZM127.903 131.45V124.55H125.903V131.45H127.903ZM127.903 124.55C127.903 123.193 127.361 122.032 126.332 121.129L125.013 122.631C125.624 123.168 125.903 123.787 125.903 124.55H127.903ZM126.352 121.146C125.344 120.214 124.082 119.77 122.643 119.77V121.77C123.643 121.77 124.401 122.066 124.994 122.614L126.352 121.146ZM122.643 119.77C121.203 119.77 119.941 120.214 118.934 121.146L120.292 122.614C120.884 122.066 121.642 121.77 122.643 121.77V119.77ZM118.944 121.137C117.937 122.043 117.413 123.202 117.413 124.55H119.413C119.413 123.778 119.689 123.157 120.282 122.623L118.944 121.137ZM144.631 122.27H145.631V120.658L144.186 121.374L144.631 122.27ZM141.001 124.07L140.097 124.498L140.533 125.418L141.445 124.966L141.001 124.07ZM139.381 120.65L138.937 119.754L138.056 120.19L138.477 121.078L139.381 120.65ZM145.741 117.5V116.5H145.506L145.297 116.604L145.741 117.5ZM148.531 117.5H149.531V116.5H148.531V117.5ZM148.531 138.5V139.5H149.531V138.5H148.531ZM144.631 138.5H143.631V139.5H144.631V138.5ZM144.186 121.374L140.556 123.174L141.445 124.966L145.075 123.166L144.186 121.374ZM141.904 123.642L140.284 120.222L138.477 121.078L140.097 124.498L141.904 123.642ZM139.824 121.546L146.184 118.396L145.297 116.604L138.937 119.754L139.824 121.546ZM145.741 118.5H148.531V116.5H145.741V118.5ZM147.531 117.5V138.5H149.531V117.5H147.531ZM148.531 137.5H144.631V139.5H148.531V137.5ZM145.631 138.5V122.27H143.631V138.5H145.631ZM168.602 121.61L167.944 122.363L167.955 122.372L167.966 122.382L168.602 121.61ZM163.802 121.61L164.413 122.402L164.416 122.399L163.802 121.61ZM162.212 123.83L161.783 124.733L162.759 125.197L163.146 124.188L162.212 123.83ZM158.612 122.12L157.695 121.72L157.309 122.608L158.183 123.023L158.612 122.12ZM161.672 118.43L162.224 119.264L162.232 119.258L161.672 118.43ZM171.482 118.94L170.813 119.683L170.824 119.693L171.482 118.94ZM172.562 126.89L173.412 127.417L173.416 127.411L172.562 126.89ZM169.142 130.88L169.831 131.605L169.835 131.601L169.142 130.88ZM165.032 134.78L164.344 134.055L162.526 135.78H165.032V134.78ZM173.822 134.78H174.822V133.78H173.822V134.78ZM173.822 138.5V139.5H174.822V138.5H173.822ZM159.032 138.5H158.032V139.5H159.032V138.5ZM159.032 135.59L158.342 134.866L158.032 135.162V135.59H159.032ZM166.742 128.24L167.432 128.964L167.438 128.958L166.742 128.24ZM170.622 123.62C170.622 122.5 170.115 121.56 169.238 120.838L167.966 122.382C168.449 122.78 168.622 123.18 168.622 123.62H170.622ZM169.261 120.857C168.419 120.121 167.387 119.77 166.232 119.77V121.77C166.957 121.77 167.506 121.979 167.944 122.363L169.261 120.857ZM166.232 119.77C165.107 119.77 164.081 120.126 163.188 120.821L164.416 122.399C164.963 121.974 165.558 121.77 166.232 121.77V119.77ZM163.191 120.818C162.327 121.485 161.695 122.385 161.278 123.472L163.146 124.188C163.45 123.395 163.878 122.815 164.413 122.402L163.191 120.818ZM162.641 122.927L159.041 121.217L158.183 123.023L161.783 124.733L162.641 122.927ZM159.529 122.52C160.135 121.128 161.032 120.053 162.224 119.264L161.12 117.596C159.592 118.607 158.449 119.992 157.695 121.72L159.529 122.52ZM162.232 119.258C163.423 118.453 164.747 118.05 166.232 118.05V116.05C164.357 116.05 162.641 116.567 161.112 117.602L162.232 119.258ZM166.232 118.05C168.116 118.05 169.618 118.608 170.813 119.683L172.151 118.197C170.546 116.752 168.549 116.05 166.232 116.05V118.05ZM170.824 119.693C172.065 120.779 172.642 122.032 172.642 123.5H174.642C174.642 121.408 173.779 119.621 172.141 118.187L170.824 119.693ZM172.642 123.5C172.642 124.351 172.359 125.303 171.709 126.369L173.416 127.411C174.205 126.117 174.642 124.809 174.642 123.5H172.642ZM171.713 126.363C171.054 127.423 169.98 128.687 168.449 130.159L169.835 131.601C171.425 130.073 172.63 128.677 173.412 127.417L171.713 126.363ZM168.454 130.155L164.344 134.055L165.721 135.505L169.831 131.605L168.454 130.155ZM165.032 135.78H173.822V133.78H165.032V135.78ZM172.822 134.78V138.5H174.822V134.78H172.822ZM173.822 137.5H159.032V139.5H173.822V137.5ZM160.032 138.5V135.59H158.032V138.5H160.032ZM159.722 136.314L167.432 128.964L166.052 127.516L158.342 134.866L159.722 136.314ZM167.438 128.958C168.432 127.996 169.213 127.082 169.751 126.219C170.285 125.363 170.622 124.487 170.622 123.62H168.622C168.622 123.973 168.48 124.477 168.054 125.161C167.632 125.838 166.973 126.624 166.046 127.522L167.438 128.958ZM191.975 121.52L192.567 120.714V120.714L191.975 121.52ZM187.085 121.31L187.554 122.193L187.563 122.188L187.085 121.31ZM185.675 122.66L185.246 123.563L186.106 123.972L186.556 123.132L185.675 122.66ZM182.135 120.98L181.246 120.521L180.771 121.44L181.706 121.883L182.135 120.98ZM185.015 118.13L185.489 119.011L185.499 119.005L185.015 118.13ZM194.855 118.82L194.226 119.598L194.227 119.599L194.855 118.82ZM194.765 127.61L194.146 126.824L193.045 127.691L194.222 128.45L194.765 127.61ZM195.275 137.12L194.649 136.34L195.275 137.12ZM184.715 137.66L184.182 138.507L184.191 138.512L184.715 137.66ZM181.865 134.24L181.533 133.297L180.585 133.63L180.923 134.576L181.865 134.24ZM185.615 132.92L186.566 132.612L186.25 131.636L185.283 131.977L185.615 132.92ZM187.025 134.6L186.503 135.453L186.512 135.459L186.521 135.464L187.025 134.6ZM192.395 134.42L192.974 135.235L192.981 135.23L192.988 135.225L192.395 134.42ZM192.395 130.34L191.805 131.148L191.817 131.157L191.83 131.165L192.395 130.34ZM188.075 129.53H187.075V130.53H188.075V129.53ZM188.075 126.02V125.02H187.075V126.02H188.075ZM193.995 123.35C193.995 122.254 193.453 121.366 192.567 120.714L191.382 122.326C191.856 122.674 191.995 123.006 191.995 123.35H193.995ZM192.567 120.714C191.676 120.059 190.583 119.77 189.365 119.77V121.77C190.267 121.77 190.914 121.981 191.382 122.326L192.567 120.714ZM189.365 119.77C188.362 119.77 187.433 119.981 186.606 120.432L187.563 122.188C188.057 121.919 188.648 121.77 189.365 121.77V119.77ZM186.615 120.427C185.826 120.846 185.199 121.429 184.793 122.188L186.556 123.132C186.75 122.771 187.063 122.454 187.554 122.193L186.615 120.427ZM186.103 121.757L182.563 120.077L181.706 121.883L185.246 123.563L186.103 121.757ZM183.023 121.439C183.542 120.435 184.349 119.624 185.489 119.01L184.54 117.25C183.08 118.036 181.967 119.125 181.246 120.521L183.023 121.439ZM185.499 119.005C186.638 118.374 187.928 118.05 189.395 118.05V116.05C187.621 116.05 185.991 116.446 184.53 117.255L185.499 119.005ZM189.395 118.05C191.384 118.05 192.972 118.584 194.226 119.598L195.483 118.042C193.817 116.696 191.765 116.05 189.395 116.05V118.05ZM194.227 119.599C195.442 120.577 196.015 121.766 196.015 123.23H198.015C198.015 121.134 197.147 119.383 195.482 118.041L194.227 119.599ZM196.015 123.23C196.015 124.631 195.432 125.813 194.146 126.824L195.383 128.396C197.097 127.047 198.015 125.309 198.015 123.23H196.015ZM194.222 128.45C195.822 129.483 196.555 130.809 196.555 132.5H198.555C198.555 130.071 197.427 128.137 195.307 126.77L194.222 128.45ZM196.555 132.5C196.555 134.04 195.945 135.299 194.649 136.34L195.9 137.9C197.644 136.501 198.555 134.68 198.555 132.5H196.555ZM194.649 136.34C193.334 137.396 191.675 137.95 189.605 137.95V139.95C192.054 139.95 194.175 139.284 195.9 137.9L194.649 136.34ZM189.605 137.95C187.904 137.95 186.46 137.559 185.238 136.808L184.191 138.512C185.769 139.481 187.585 139.95 189.605 139.95V137.95ZM185.247 136.813C184.014 136.039 183.222 135.069 182.806 133.904L180.923 134.576C181.507 136.211 182.615 137.521 184.182 138.507L185.247 136.813ZM182.197 135.183L185.947 133.863L185.283 131.977L181.533 133.297L182.197 135.183ZM184.663 133.228C184.97 134.175 185.618 134.912 186.503 135.453L187.546 133.747C186.991 133.408 186.7 133.025 186.566 132.612L184.663 133.228ZM186.521 135.464C187.419 135.988 188.449 136.23 189.575 136.23V134.23C188.74 134.23 188.07 134.052 187.528 133.736L186.521 135.464ZM189.575 136.23C190.859 136.23 192.013 135.918 192.974 135.235L191.815 133.605C191.256 134.002 190.53 134.23 189.575 134.23V136.23ZM192.988 135.225C193.967 134.503 194.535 133.52 194.535 132.32H192.535C192.535 132.8 192.342 133.217 191.801 133.615L192.988 135.225ZM194.535 132.32C194.535 131.136 193.944 130.188 192.959 129.515L191.83 131.165C192.365 131.532 192.535 131.904 192.535 132.32H194.535ZM192.984 129.532C192.044 128.846 190.917 128.53 189.665 128.53V130.53C190.572 130.53 191.265 130.754 191.805 131.148L192.984 129.532ZM189.665 128.53H188.075V130.53H189.665V128.53ZM189.075 129.53V126.02H187.075V129.53H189.075ZM188.075 127.02H189.155V125.02H188.075V127.02ZM189.155 127.02C190.392 127.02 191.507 126.732 192.444 126.099L191.325 124.441C190.782 124.808 190.077 125.02 189.155 125.02V127.02ZM192.444 126.099C193.413 125.444 193.995 124.514 193.995 123.35H191.995C191.995 123.746 191.836 124.096 191.325 124.441L192.444 126.099ZM216.633 138.5H215.633V139.5H216.633V138.5ZM216.633 134.48H217.633V133.48H216.633V134.48ZM205.743 134.48H204.743V135.48H205.743V134.48ZM205.743 130.76L204.975 130.119L204.743 130.397V130.76H205.743ZM216.813 117.5V116.5H216.345L216.045 116.859L216.813 117.5ZM220.503 117.5H221.503V116.5H220.503V117.5ZM220.503 130.76H219.503V131.76H220.503V130.76ZM223.173 130.76H224.173V129.76H223.173V130.76ZM223.173 134.48V135.48H224.173V134.48H223.173ZM220.503 134.48V133.48H219.503V134.48H220.503ZM220.503 138.5V139.5H221.503V138.5H220.503ZM216.633 123.29H217.633V120.533L215.865 122.649L216.633 123.29ZM210.393 130.76L209.625 130.119L208.254 131.76H210.393V130.76ZM216.633 130.76V131.76H217.633V130.76H216.633ZM217.633 138.5V134.48H215.633V138.5H217.633ZM216.633 133.48H205.743V135.48H216.633V133.48ZM206.743 134.48V130.76H204.743V134.48H206.743ZM206.51 131.401L217.58 118.141L216.045 116.859L204.975 130.119L206.51 131.401ZM216.813 118.5H220.503V116.5H216.813V118.5ZM219.503 117.5V130.76H221.503V117.5H219.503ZM220.503 131.76H223.173V129.76H220.503V131.76ZM222.173 130.76V134.48H224.173V130.76H222.173ZM223.173 133.48H220.503V135.48H223.173V133.48ZM219.503 134.48V138.5H221.503V134.48H219.503ZM220.503 137.5H216.633V139.5H220.503V137.5ZM215.865 122.649L209.625 130.119L211.16 131.401L217.4 123.931L215.865 122.649ZM210.393 131.76H216.633V129.76H210.393V131.76ZM217.633 130.76V123.29H215.633V130.76H217.633ZM244.639 136.91L245.301 137.66L245.307 137.655L244.639 136.91ZM234.049 137.51L233.476 138.329L233.484 138.335L234.049 137.51ZM231.049 133.58L230.787 132.615L229.736 132.9L230.11 133.924L231.049 133.58ZM234.919 132.53L235.846 132.155L235.513 131.333L234.657 131.565L234.919 132.53ZM236.509 134.51L235.955 135.342L236.509 134.51ZM241.759 134.24L241.113 133.477L241.103 133.485L241.094 133.494L241.759 134.24ZM241.639 129.23L241.001 130L241.01 130.007L241.019 130.014L241.639 129.23ZM232.639 128.21L231.644 128.11L231.533 129.21H232.639V128.21ZM233.719 117.5V116.5H232.815L232.724 117.4L233.719 117.5ZM245.149 117.5H246.149V116.5H245.149V117.5ZM245.149 121.07V122.07H246.149V121.07H245.149ZM236.929 121.07V120.07H236.017L235.933 120.979L236.929 121.07ZM236.599 124.67L235.603 124.579L235.503 125.67H236.599V124.67ZM244.579 126.71L243.927 127.468L243.932 127.473L244.579 126.71ZM245.949 131.81C245.949 133.538 245.306 134.97 243.972 136.165L245.307 137.655C247.053 136.09 247.949 134.122 247.949 131.81H245.949ZM243.977 136.16C242.641 137.341 240.974 137.95 238.909 137.95V139.95C241.404 139.95 243.558 139.199 245.301 137.66L243.977 136.16ZM238.909 137.95C237.253 137.95 235.834 137.521 234.615 136.685L233.484 138.335C235.064 139.419 236.885 139.95 238.909 139.95V137.95ZM234.623 136.691C233.394 135.831 232.52 134.689 231.988 133.236L230.11 133.924C230.779 135.751 231.904 137.229 233.476 138.329L234.623 136.691ZM231.311 134.545L235.181 133.495L234.657 131.565L230.787 132.615L231.311 134.545ZM233.992 132.905C234.404 133.922 235.059 134.745 235.955 135.342L237.064 133.678C236.519 133.315 236.115 132.818 235.846 132.155L233.992 132.905ZM235.955 135.342C236.846 135.936 237.85 136.23 238.939 136.23V134.23C238.228 134.23 237.613 134.044 237.064 133.678L235.955 135.342ZM238.939 136.23C240.286 136.23 241.474 135.834 242.425 134.986L241.094 133.494C240.564 133.966 239.873 134.23 238.939 134.23V136.23ZM242.405 135.003C243.393 134.167 243.929 133.085 243.929 131.81H241.929C241.929 132.455 241.685 132.993 241.113 133.477L242.405 135.003ZM243.929 131.81C243.929 130.446 243.344 129.303 242.26 128.446L241.019 130.014C241.654 130.517 241.929 131.094 241.929 131.81H243.929ZM242.278 128.46C241.244 127.603 239.953 127.21 238.489 127.21V129.21C239.585 129.21 240.395 129.497 241.001 130L242.278 128.46ZM238.489 127.21H232.639V129.21H238.489V127.21ZM233.634 128.31L234.714 117.6L232.724 117.4L231.644 128.11L233.634 128.31ZM233.719 118.5H245.149V116.5H233.719V118.5ZM244.149 117.5V121.07H246.149V117.5H244.149ZM245.149 120.07H236.929V122.07H245.149V120.07ZM235.933 120.979L235.603 124.579L237.595 124.761L237.925 121.161L235.933 120.979ZM236.599 125.67H238.699V123.67H236.599V125.67ZM238.699 125.67C240.831 125.67 242.551 126.283 243.927 127.468L245.232 125.952C243.448 124.417 241.247 123.67 238.699 123.67V125.67ZM243.932 127.473C245.29 128.624 245.949 130.046 245.949 131.81H247.949C247.949 129.454 247.029 127.476 245.226 125.947L243.932 127.473Z" fill="black"/>
</svg>
