<svg width="342" height="180" viewBox="0 0 342 180" fill="none" xmlns="http://www.w3.org/2000/svg">
<rect width="341" height="180" transform="translate(0.402344)" fill="#F5F5F5"/>
<path d="M266.231 112.712C268.762 112.712 271.189 111.706 272.978 109.917C274.768 108.127 275.773 105.7 275.773 103.169C275.773 100.638 274.768 98.2108 272.978 96.4211C271.189 94.6315 268.762 93.6261 266.231 93.6261L266.231 103.169V112.712Z" fill="#D4D4D4"/>
<path d="M266.232 98.6246C267.919 98.6246 269.537 97.9783 270.73 96.8279C271.923 95.6774 272.594 94.117 272.594 92.49C272.594 90.863 271.923 89.3026 270.73 88.1522C269.537 87.0017 267.919 86.3554 266.232 86.3554L266.232 92.49V98.6246Z" fill="#D4D4D4"/>
<path d="M266.232 125.89C267.919 125.89 269.537 124.956 270.73 123.294C271.923 121.633 272.594 119.379 272.594 117.029C272.594 114.678 271.923 112.425 270.73 110.763C269.537 109.101 267.919 108.167 266.232 108.167L266.232 117.029V125.89Z" fill="#D4D4D4"/>
<path d="M172.598 85.5912L245.598 85.5912M245.598 85.5912L243.598 84.6262M245.598 85.5912L243.598 86.5563" stroke="black"/>
<path d="M172.598 101.626L274.598 101.626M274.598 101.626L271.803 100.626M274.598 101.626L271.803 102.626" stroke="black"/>
<path d="M172.598 69.6261L218.598 69.6261M218.598 69.6261L217.337 68.6261M218.598 69.6261L217.337 70.6261" stroke="black"/>
<path d="M172.598 117.626H205.598M205.598 117.626L204.694 116.626M205.598 117.626L204.694 118.626" stroke="black"/>
<path d="M190.107 106.123C195.805 106.123 201.269 103.859 205.298 99.8303C209.326 95.8015 211.59 90.3373 211.59 84.6397C211.59 78.9422 209.326 73.4779 205.298 69.4491C201.269 65.4203 195.805 63.157 190.107 63.157L190.107 84.6397V106.123Z" fill="#31D67B"/>
<path d="M190.108 74.4098C193.906 74.4098 197.549 72.9547 200.235 70.3648C202.921 67.7749 204.43 64.2621 204.43 60.5994C204.43 56.9367 202.921 53.424 200.235 50.834C197.549 48.2441 193.906 46.7891 190.108 46.7891L190.108 60.5994V74.4098Z" fill="#31D67B"/>
<path d="M190.108 135.789C193.906 135.789 197.549 133.687 200.235 129.946C202.921 126.205 204.43 121.131 204.43 115.841C204.43 110.55 202.921 105.476 200.235 101.735C197.549 97.9941 193.906 95.8925 190.108 95.8925L190.108 115.841V135.789Z" fill="#31D67B"/>
<path d="M234.138 82.9024C237.4 82.9024 240.528 81.6065 242.835 79.2999C245.142 76.9933 246.437 73.8649 246.437 70.6028C246.438 67.3408 245.142 64.2123 242.835 61.9057C240.528 59.5991 237.4 58.3032 234.138 58.3032L234.138 70.6028V82.9024Z" fill="#4AE991"/>
<path d="M234.136 64.7458C236.311 64.7458 238.397 63.9128 239.934 62.4299C241.472 60.9471 242.336 58.936 242.336 56.8389C242.336 54.7419 241.472 52.7307 239.934 51.2479C238.397 49.7651 236.311 48.9321 234.136 48.9321L234.136 56.8389V64.7458Z" fill="#4AE991"/>
<path d="M234.136 99.8874C236.311 99.8874 238.397 98.6841 239.934 96.5423C241.472 94.4004 242.336 91.4954 242.336 88.4664C242.336 85.4373 241.472 82.5324 239.934 80.3905C238.397 78.2486 236.311 77.0453 234.136 77.0453L234.136 88.4664V99.8874Z" fill="#4AE991"/>
<g clip-path="url(#clip0)">
<rect width="127" height="89" transform="translate(45.5977 46.7891)" fill="#A57CFE"/>
<path d="M23.9188 82.2477C64.5071 45.7322 98.6875 45.326 126.46 81.0289C154.233 116.732 188.413 116.326 229.001 79.81" stroke="#B491FF" stroke-width="2"/>
<path d="M27.3535 112.585C62.1064 70.4775 95.8524 65.0298 128.591 96.2416C161.33 127.453 195.076 122.006 229.829 79.8985" stroke="#B491FF" stroke-width="2"/>
<path d="M26.1921 120.714C65.2302 82.546 99.3643 80.7218 128.594 115.242C157.825 149.761 191.959 147.937 230.997 109.769" stroke="#B491FF" stroke-width="2"/>
<path d="M25.3644 128.754C68.6538 95.4852 102.763 97.7222 127.693 135.465C152.623 173.208 186.732 175.445 230.022 142.176" stroke="#B491FF" stroke-width="2"/>
<path d="M16.3662 154.754C51.8654 127.472 79.8368 129.307 100.28 160.257C120.724 191.208 148.695 193.043 184.194 165.761" stroke="#B491FF" stroke-width="2"/>
<path d="M56.7061 42.5572C94.171 18.0444 121.923 21.9936 139.962 54.4049C158 86.8162 185.752 90.7654 223.217 66.2526" stroke="#B491FF" stroke-width="2"/>
</g>
<circle cx="280.207" cy="55.3746" r="11.1637" fill="#8052E4"/>
<circle cx="288.207" cy="64.3955" r="7.5" stroke="black"/>
<defs>
<clipPath id="clip0">
<rect width="127" height="89" fill="white" transform="translate(45.5977 46.7891)"/>
</clipPath>
</defs>
</svg>
