<svg width="342" height="180" fill="none" xmlns="http://www.w3.org/2000/svg"><path d="M227.3 128.2l54.5 28.6V75l-54.5-26.6v79.8z" fill="#4AE991"/><mask id="a" maskUnits="userSpaceOnUse" x="227" y="48" width="55" height="109"><path d="M227.3 128.2l54.5 28.6V75l-54.5-26.6v79.8z" fill="#AB85FF"/></mask><g mask="url(#a)" stroke="#31D67B"><path d="M229.3-18.5c-35 52.2-35 89.5 0 111.8 35 22.4 35 59.7 0 111.9"/><path d="M296.3-12c-52.6 40-66.5 75.4-41.7 106 24.8 30.8 11 66.1-41.7 106.1"/><path d="M273.2-16.3C243 38.1 246.5 75.2 283.5 95.2c36.9 20 40.3 57.1 10.3 111.5"/></g><path d="M98.1 57.1h68.1m0 0l-1.8-.9m1.8 1l-1.8.8M98.1 72.1h95.2m0 0l-2.6-1m2.6 1l-2.6 1M98.1 42.3h43m0 0l-1.2-1m1.1 1l-1.1.9M98.1 87H129m0 0l-.8-1m.8 1l-.8 1" stroke="#000"/><path d="M106 118.5l-65 34.2V55l65-31.8v95.3z" fill="#AB85FF"/><mask id="b" maskUnits="userSpaceOnUse" x="40" y="23" width="66" height="130"><path d="M106 118.5l-65 34.2V55l65-31.8v95.3z" fill="#AB85FF"/></mask><g mask="url(#b)" stroke="#8052E4"><path d="M103.7-56.6c41.7 62.3 41.7 106.8 0 133.5-41.8 26.8-41.8 71.3 0 133.6"/><path d="M23.7-48.8C86.5-1 103 41.2 73.4 77.8c-29.6 36.7-13 78.9 49.8 126.6"/><path d="M51.3-54C87.2 11 83 55.4 39 79.3c-44.1 23.8-48.2 68.2-12.3 133"/></g><circle cx="264.9" cy="44.1" r="2.8" fill="#31D67B"/><circle cx="276.2" cy="44.1" r="2.8" fill="#31D67B"/><circle cx="287.5" cy="44.1" r="2.8" fill="#31D67B"/><circle cx="298.8" cy="44.1" r="2.8" fill="#31D67B"/><circle cx="264.9" cy="55.4" r="2.8" fill="#31D67B"/><circle cx="276.2" cy="55.4" r="2.8" fill="#31D67B"/><circle cx="287.5" cy="55.4" r="2.8" fill="#31D67B"/><circle cx="298.8" cy="55.4" r="2.8" fill="#31D67B"/><circle cx="298.8" cy="66.7" r="2.8" fill="#31D67B"/><circle cx="287.5" cy="66.7" r="2.8" fill="#31D67B"/><circle cx="276.2" cy="66.7" r="2.8" fill="#31D67B"/><circle cx="264.9" cy="66.7" r="2.8" fill="#31D67B"/><circle cx="264.9" cy="66.7" r="2.8" fill="#31D67B"/><circle cx="276.2" cy="66.7" r="2.8" fill="#31D67B"/><circle cx="287.5" cy="66.7" r="2.8" fill="#31D67B"/><circle cx="298.8" cy="66.7" r="2.8" fill="#31D67B"/><circle cx="264.9" cy="77.9" r="2.8" fill="#31D67B"/><circle cx="276.2" cy="77.9" r="2.8" fill="#31D67B"/><circle cx="287.5" cy="77.9" r="2.8" fill="#31D67B"/><circle cx="298.8" cy="77.9" r="2.8" fill="#31D67B"/><circle cx="298.8" cy="89.2" r="2.8" fill="#31D67B"/><circle cx="287.5" cy="89.2" r="2.8" fill="#31D67B"/><circle cx="276.2" cy="89.2" r="2.8" fill="#31D67B"/><circle cx="264.9" cy="89.2" r="2.8" fill="#31D67B"/><path d="M165.1 95.9l-.3-.4.3.4zm8.3 0l-.4.4.4-.4zm0 12.5l-.4-.4.4.4zm-8.3 0l-.3.4.3-.4zm2-1.9l-.3.4.3-.4zm4.3 0l.4.4-.4-.4zm0-8.7l-.3.4.3-.4zm-4.3 0l.4.4-.4-.4zm-3 6.8v-4.9H163v4.9h1zm0-4.9c0-1.3.4-2.5 1.4-3.4l-.7-.8a5.6 5.6 0 00-1.8 4.2h1zm1.4-3.4c1-1 2.2-1.4 3.8-1.4v-1c-1.8 0-3.3.5-4.5 1.6l.7.8zm3.8-1.4c1.5 0 2.7.5 3.7 1.4l.8-.8a6.3 6.3 0 00-4.5-1.7V95zm3.7 1.4c1 1 1.5 2 1.5 3.4h1.1c0-1.6-.6-3-1.8-4.2l-.8.8zm1.5 3.4v4.9h1.1v-4.9h-1zm0 4.9c0 1.4-.5 2.5-1.5 3.4l.8.8a5.5 5.5 0 001.8-4.2h-1zM173 108c-1 1-2.2 1.4-3.7 1.4v1c1.7 0 3.3-.5 4.5-1.6l-.8-.8zm-3.7 1.4c-1.6 0-2.8-.5-3.8-1.4l-.7.8a6.4 6.4 0 004.5 1.7v-1zm-3.8-1.4c-1-.9-1.5-2-1.5-3.4h-1c0 1.7.6 3 1.8 4.2l.7-.8zm.2-8.3v5h1.1v-5h-1zm0 5a3 3 0 001 2.2l.8-.8a2 2 0 01-.7-1.5h-1zm1 2.2c.8.6 1.6 1 2.6 1v-1.1c-.8 0-1.4-.3-1.8-.7l-.7.8zm2.6 1c1 0 1.8-.4 2.5-1l-.7-.8c-.5.5-1 .7-1.8.7v1zm2.5-1a3 3 0 001-2.3h-1c0 .6-.2 1-.7 1.5l.7.8zm1-2.3v-4.9h-1v5h1zm0-4.9a3 3 0 00-1-2.3l-.7.8c.5.4.7 1 .7 1.5h1zm-1-2.3c-.7-.6-1.5-1-2.5-1v1.1c.7 0 1.3.3 1.8.7l.7-.8zm-2.5-1c-1 0-1.9.4-2.5 1l.7.8c.4-.4 1-.7 1.8-.7v-1zm-2.5 1a3 3 0 00-1 2.3h1c0-.6.2-1 .7-1.5l-.7-.8zm19.4.7h.5v-.9l-.8.4.3.5zm-2.6 1.3l-.5.2.2.5.5-.3-.2-.4zm-1.2-2.5l-.2-.5-.5.3.2.5.5-.3zm4.5-2.2v-.5h-.2l.2.5zm2 0h.6v-.5h-.6v.5zm0 15v.5h.6v-.6h-.6zm-2.7 0h-.6v.5h.6v-.6zm-.3-12.1l-2.6 1.3.5 1 2.6-1.3-.5-1zm-1.8 1.5l-1.2-2.4-1 .5 1.2 2.4 1-.5zm-1.4-1.7l4.5-2.2-.5-1-4.5 2.2.5 1zm4.2-2.2h2v-1h-2v1zm1.5-.5v15h1v-15h-1zm.5 14.4h-2.7v1h2.7v-1zm-2.2.5V98.1h-1v11.5h1zM199.3 96l-.4-.4.4.4zm8.2 0l-.3.4.3-.4zm0 12.5l-.3-.4.3.4zm-8.2 0l-.4.4.4-.4zm2-1.9l-.4.4.4-.4zm4.3 0l.3.4-.3-.4zm0-8.7l-.4.4.4-.4zm-4.3 0l.3.4-.3-.4zm-3.1 6.8v-4.9h-1v4.9h1zm0-4.9c0-1.3.5-2.5 1.4-3.4l-.7-.8a5.6 5.6 0 00-1.8 4.2h1zm1.4-3.4c1-1 2.3-1.4 3.8-1.4v-1c-1.7 0-3.3.5-4.5 1.6l.7.8zm3.8-1.4c1.6 0 2.8.5 3.8 1.4l.7-.8a6.3 6.3 0 00-4.5-1.7V95zm3.8 1.4c1 1 1.5 2 1.5 3.4h1c0-1.6-.6-3-1.8-4.2l-.7.8zm1.5 3.4v4.9h1v-4.9h-1zm0 4.9c0 1.4-.5 2.5-1.5 3.4l.7.8a5.5 5.5 0 001.8-4.2h-1zm-1.5 3.4c-1 1-2.2 1.4-3.8 1.4v1c1.8 0 3.3-.5 4.5-1.6l-.7-.8zm-3.8 1.4c-1.5 0-2.8-.5-3.8-1.4l-.7.8a6.4 6.4 0 004.5 1.7v-1zm-3.8-1.4c-1-.9-1.4-2-1.4-3.4h-1c0 1.7.5 3 1.7 4.2l.7-.8zm.3-8.3v5h1v-5h-1zm0 5a3 3 0 001 2.2l.7-.8a2 2 0 01-.7-1.5h-1zm1 2.2c.7.6 1.6 1 2.5 1v-1.1c-.7 0-1.3-.3-1.8-.7l-.7.8zm2.5 1c1 0 1.8-.4 2.5-1l-.7-.8c-.4.5-1 .7-1.8.7v1zm2.5-1a3 3 0 001-2.3h-1c0 .6-.2 1-.7 1.5l.7.8zm1-2.3v-4.9h-1v5h1zm0-4.9a3 3 0 00-1-2.3l-.7.8c.5.4.7 1 .7 1.5h1zm-1-2.3c-.6-.6-1.5-1-2.5-1v1.1c.8 0 1.4.3 1.8.7l.7-.8zm-2.5-1c-1 0-1.8.4-2.5 1l.7.8c.5-.4 1-.7 1.8-.7v-1zm-2.5 1a3 3 0 00-1 2.3h1c0-.6.3-1 .7-1.5l-.7-.8zm19.4.7h.5v-.9l-.7.4.2.5zm-2.6 1.3l-.5.2.3.5.5-.3-.3-.4zm-1.1-2.5l-.3-.5-.4.3.2.5.5-.3zm4.5-2.2v-.5h-.2l.2.5zm2 0h.5v-.5h-.5v.5zm0 15v.5h.5v-.6h-.5zm-2.8 0h-.5v.5h.5v-.6zm-.2-12.1l-2.6 1.3.5 1 2.5-1.3-.4-1zm-1.9 1.5l-1.1-2.4-1 .5 1.1 2.4 1-.5zm-1.4-1.7l4.5-2.2-.4-1-4.6 2.2.5 1zm4.3-2.2h2v-1h-2v1zm1.4-.5v15h1.1v-15h-1zm.6 14.4h-2.8v1h2.8v-1zm-2.3.5V98.1h-1v11.5h1zM233.4 96l-.3-.4.3.4zm8.3 0l-.4.4.4-.4zm0 12.5l-.4-.4.4.4zm-8.3 0l-.3.4.3-.4zm2-1.9l-.3.4.3-.4zm4.3 0l.4.4-.4-.4zm0-8.7l-.3.4.3-.4zm-4.3 0l.4.4-.4-.4zm-3 6.8v-4.9h-1.1v4.9h1zm0-4.9c0-1.3.4-2.5 1.4-3.4l-.7-.8a5.6 5.6 0 00-1.8 4.2h1zm1.4-3.4c1-1 2.2-1.4 3.8-1.4v-1c-1.8 0-3.3.5-4.5 1.6l.7.8zm3.8-1.4c1.5 0 2.7.5 3.7 1.4l.8-.8a6.3 6.3 0 00-4.5-1.7V95zm3.7 1.4c1 1 1.5 2 1.5 3.4h1c0-1.6-.5-3-1.7-4.2l-.8.8zm1.5 3.4v4.9h1v-4.9h-1zm0 4.9c0 1.4-.5 2.5-1.5 3.4l.8.8a5.5 5.5 0 001.8-4.2h-1zm-1.5 3.4c-1 1-2.2 1.4-3.7 1.4v1c1.7 0 3.3-.5 4.5-1.6l-.8-.8zm-3.7 1.4c-1.6 0-2.8-.5-3.8-1.4l-.7.8a6.4 6.4 0 004.5 1.7v-1zm-3.8-1.4c-1-.9-1.5-2-1.5-3.4h-1c0 1.7.6 3 1.8 4.2l.7-.8zm.2-8.3v5h1.1v-5h-1zm0 5a3 3 0 001 2.2l.8-.8a2 2 0 01-.7-1.5h-1zm1 2.2c.8.6 1.6 1 2.6 1v-1.1c-.8 0-1.4-.3-1.8-.7l-.7.8zm2.6 1c1 0 1.8-.4 2.5-1l-.7-.8c-.5.5-1 .7-1.8.7v1zm2.5-1a3 3 0 001-2.3h-1c0 .6-.2 1-.7 1.5l.7.8zm1-2.3v-4.9h-1v5h1zm0-4.9a3 3 0 00-1-2.3l-.7.8c.5.4.7 1 .7 1.5h1zm-1-2.3c-.7-.6-1.5-1-2.5-1v1.1c.7 0 1.3.3 1.8.7l.7-.8zm-2.5-1c-1 0-1.9.4-2.5 1l.7.8c.4-.4 1-.7 1.8-.7v-1zm-2.5 1a3 3 0 00-1 2.3h1c0-.6.2-1 .7-1.5l-.7-.8zM165 128l-.3-.4.3.4zm8.3 0l-.4.4.4-.4zm0 12.5l-.4-.4.4.4zm-8.3 0l-.3.4.3-.4zm2-1.9l-.3.4.3-.4zm4.3 0l.4.4-.4-.4zm0-8.7l-.3.4.3-.4zm-4.3 0l.4.4-.4-.4zm-3 6.8v-4.9H163v4.9h1zm0-4.9c0-1.3.4-2.5 1.4-3.4l-.7-.8a5.6 5.6 0 00-1.8 4.2h1zm1.4-3.4c1-1 2.2-1.4 3.8-1.4v-1c-1.8 0-3.3.5-4.5 1.6l.7.8zm3.8-1.4c1.5 0 2.7.5 3.7 1.4l.8-.8a6.3 6.3 0 00-4.5-1.7v1.1zm3.7 1.4c1 1 1.5 2 1.5 3.4h1.1c0-1.6-.6-3-1.8-4.2l-.8.8zm1.5 3.4v4.9h1.1v-4.9h-1zm0 4.9c0 1.4-.5 2.5-1.5 3.4l.8.8a5.5 5.5 0 001.8-4.2h-1zM173 140c-1 1-2.2 1.4-3.7 1.4v1c1.7 0 3.3-.5 4.5-1.6l-.8-.8zm-3.7 1.4c-1.6 0-2.8-.5-3.8-1.4l-.7.8a6.4 6.4 0 004.5 1.7v-1zm-3.8-1.4c-1-.9-1.5-2-1.5-3.4h-1c0 1.7.6 3 1.8 4.2l.7-.8zm.2-8.3v5h1.1v-5h-1zm0 5a3 3 0 001 2.2l.8-.8a2 2 0 01-.7-1.5h-1zm1 2.2c.8.6 1.6 1 2.6 1v-1.1c-.8 0-1.4-.3-1.8-.7l-.7.8zm2.6 1c1 0 1.8-.4 2.5-1l-.7-.8c-.5.5-1 .7-1.8.7v1zm2.5-1a3 3 0 001-2.3h-1c0 .6-.2 1-.7 1.5l.7.8zm1-2.3v-4.9h-1v5h1zm0-4.9a3 3 0 00-1-2.3l-.7.8c.5.4.7 1 .7 1.5h1zm-1-2.3c-.7-.6-1.5-1-2.5-1v1.1c.7 0 1.3.3 1.8.7l.7-.8zm-2.5-1c-1 0-1.9.4-2.5 1l.7.8c.4-.4 1-.7 1.8-.7v-1zm-2.5 1a3 3 0 00-1 2.3h1c0-.6.2-1 .7-1.5l-.7-.8zm19.4.7h.5v-.9l-.8.4.3.5zm-2.6 1.3l-.5.2.2.5.5-.3-.2-.4zm-1.2-2.5l-.2-.5-.5.3.2.5.5-.3zm4.5-2.2v-.5h-.2l.2.5zm2 0h.6v-.5h-.6v.5zm0 15v.5h.6v-.6h-.6zm-2.7 0h-.6v.5h.6v-.6zm-.3-12.1l-2.6 1.3.5 1 2.6-1.3-.5-1zm-1.8 1.5l-1.2-2.4-1 .5 1.2 2.4 1-.5zm-1.4-1.7l4.5-2.2-.5-1-4.5 2.2.5 1zm4.2-2.2h2v-1h-2v1zm1.5-.5v15h1v-15h-1zm.5 14.4h-2.7v1h2.7v-1zm-2.2.5v-11.5h-1v11.5h1zm12.6-13.7l-.4-.4.4.4zm8.2 0l-.3.4.3-.4zm0 12.5l-.3-.4.3.4zm-8.2 0l-.4.4.4-.4zm2-1.9l-.4.4.4-.4zm4.3 0l.3.4-.3-.4zm0-8.7l-.4.4.4-.4zm-4.3 0l.3.4-.3-.4zm-3.1 6.8v-4.9h-1v4.9h1zm0-4.9c0-1.3.5-2.5 1.4-3.4l-.7-.8a5.6 5.6 0 00-1.8 4.2h1zm1.4-3.4c1-1 2.3-1.4 3.8-1.4v-1c-1.7 0-3.3.5-4.5 1.6l.7.8zm3.8-1.4c1.6 0 2.8.5 3.8 1.4l.7-.8a6.3 6.3 0 00-4.5-1.7v1.1zm3.8 1.4c1 1 1.5 2 1.5 3.4h1c0-1.6-.6-3-1.8-4.2l-.7.8zm1.5 3.4v4.9h1v-4.9h-1zm0 4.9c0 1.4-.5 2.5-1.5 3.4l.7.8a5.5 5.5 0 001.8-4.2h-1zm-1.5 3.4c-1 1-2.2 1.4-3.8 1.4v1c1.8 0 3.3-.5 4.5-1.6l-.7-.8zm-3.8 1.4c-1.5 0-2.8-.5-3.8-1.4l-.7.8a6.4 6.4 0 004.5 1.7v-1zm-3.8-1.4c-1-.9-1.4-2-1.4-3.4h-1c0 1.7.5 3 1.7 4.2l.7-.8zm.3-8.3v5h1v-5h-1zm0 5a3 3 0 001 2.2l.7-.8a2 2 0 01-.7-1.5h-1zm1 2.2c.7.6 1.6 1 2.5 1v-1.1c-.7 0-1.3-.3-1.8-.7l-.7.8zm2.5 1c1 0 1.8-.4 2.5-1l-.7-.8c-.4.5-1 .7-1.8.7v1zm2.5-1a3 3 0 001-2.3h-1c0 .6-.2 1-.7 1.5l.7.8zm1-2.3v-4.9h-1v5h1zm0-4.9a3 3 0 00-1-2.3l-.7.8c.5.4.7 1 .7 1.5h1zm-1-2.3c-.6-.6-1.5-1-2.5-1v1.1c.8 0 1.4.3 1.8.7l.7-.8zm-2.5-1c-1 0-1.8.4-2.5 1l.7.8c.5-.4 1-.7 1.8-.7v-1zm-2.5 1a3 3 0 00-1 2.3h1c0-.6.3-1 .7-1.5l-.7-.8zm19.4.7h.5v-.9l-.7.4.2.5zm-2.6 1.3l-.5.2.3.5.5-.3-.3-.4zm-1.1-2.5l-.3-.5-.4.3.2.5.5-.3zm4.5-2.2v-.5h-.2l.2.5zm2 0h.5v-.5h-.5v.5zm0 15v.5h.5v-.6h-.5zm-2.8 0h-.5v.5h.5v-.6zm-.2-12.1l-2.6 1.3.5 1 2.5-1.3-.4-1zm-1.9 1.5l-1.1-2.4-1 .5 1.1 2.4 1-.5zm-1.4-1.7l4.5-2.2-.4-1-4.6 2.2.5 1zm4.3-2.2h2v-1h-2v1zm1.4-.5v15h1.1v-15h-1zm.6 14.4h-2.8v1h2.8v-1zm-2.3.5v-11.5h-1v11.5h1zm12.6-13.7l-.3-.4.3.4zm8.3 0l-.4.4.4-.4zm0 12.5l-.4-.4.4.4zm-8.3 0l-.3.4.3-.4zm2-1.9l-.3.4.3-.4zm4.3 0l.4.4-.4-.4zm0-8.7l-.3.4.3-.4zm-4.3 0l.4.4-.4-.4zm-3 6.8v-4.9h-1.1v4.9h1zm0-4.9c0-1.3.4-2.5 1.4-3.4l-.7-.8a5.6 5.6 0 00-1.8 4.2h1zm1.4-3.4c1-1 2.2-1.4 3.8-1.4v-1c-1.8 0-3.3.5-4.5 1.6l.7.8zm3.8-1.4c1.5 0 2.7.5 3.7 1.4l.8-.8a6.3 6.3 0 00-4.5-1.7v1.1zm3.7 1.4c1 1 1.5 2 1.5 3.4h1c0-1.6-.5-3-1.7-4.2l-.8.8zm1.5 3.4v4.9h1v-4.9h-1zm0 4.9c0 1.4-.5 2.5-1.5 3.4l.8.8a5.5 5.5 0 001.8-4.2h-1zm-1.5 3.4c-1 1-2.2 1.4-3.7 1.4v1c1.7 0 3.3-.5 4.5-1.6l-.8-.8zm-3.7 1.4c-1.6 0-2.8-.5-3.8-1.4l-.7.8a6.4 6.4 0 004.5 1.7v-1zm-3.8-1.4c-1-.9-1.5-2-1.5-3.4h-1c0 1.7.6 3 1.8 4.2l.7-.8zm.2-8.3v5h1.1v-5h-1zm0 5a3 3 0 001 2.2l.8-.8a2 2 0 01-.7-1.5h-1zm1 2.2c.8.6 1.6 1 2.6 1v-1.1c-.8 0-1.4-.3-1.8-.7l-.7.8zm2.6 1c1 0 1.8-.4 2.5-1l-.7-.8c-.5.5-1 .7-1.8.7v1zm2.5-1a3 3 0 001-2.3h-1c0 .6-.2 1-.7 1.5l.7.8zm1-2.3v-4.9h-1v5h1zm0-4.9a3 3 0 00-1-2.3l-.7.8c.5.4.7 1 .7 1.5h1zm-1-2.3c-.7-.6-1.5-1-2.5-1v1.1c.7 0 1.3.3 1.8.7l.7-.8zm-2.5-1c-1 0-1.9.4-2.5 1l.7.8c.4-.4 1-.7 1.8-.7v-1zm-2.5 1a3 3 0 00-1 2.3h1c0-.6.2-1 .7-1.5l-.7-.8z" fill="#000"/></svg>