<svg width="341" height="181" fill="none" xmlns="http://www.w3.org/2000/svg"><path d="M92.6 58.1a18.3 18.3 0 0136.7 0H92.6z" fill="#8052E4"/><path d="M119.7 58.1c0-3.2 1.3-6.3 3.5-8.6a11.6 11.6 0 0116.7 0c2.2 2.3 3.4 5.4 3.4 8.6h-23.6zM67.3 58.1c0-3.2 1.8-6.3 5-8.6s7.5-3.6 12-3.6c4.6 0 8.9 1.3 12 3.6 3.3 2.3 5 5.4 5 8.6h-34z" fill="#8052E4"/><circle cx="206.1" cy="84.8" r="62.8" fill="#A57CFE"/><mask id="a" maskUnits="userSpaceOnUse" x="143" y="22" width="126" height="126"><circle cx="206.1" cy="84.8" r="62.8" fill="#A57CFE"/></mask><g mask="url(#a)" stroke="#B491FF"><path d="M264.4 13.1v149.4m0-149.4v149.4M255 13.1v149.4m0-149.4v149.4M245.7 13.1v149.4m0-149.4v149.4M236.3 13.1v149.4m0-149.4v149.4M227 13.1v149.4m0-149.4v149.4M217.6 13.1v149.4m0-149.4v149.4M208 14.8v147.7m0-147.7v147.7M199.5 14v149.4m0-149.4v149.4M190.2 14v149.4m0-149.4v149.4M180.8 14v149.4m0-149.4v149.4M171.4 14v149.4m0-149.4v149.4M162 14v149.4M162 14v149.4M152.7 14v149.4m0-149.4v149.4M143.3 14v149.4m0-149.4v149.4"/></g><path d="M311.4 124.6a47.6 47.6 0 10-95.2 0h95.2z" fill="#8052E4"/><path fill="#31D67B" d="M172.6 69.5h-112v7h112zM158.6 91.5h-112v12h112z"/><path d="M80.7 123.8V73m0 0l-.6 1.4m.6-1.4l.6 1.4M90.6 123.8v-39m0 0l-.5 1m.5-1l.5 1M70.8 123.8v-32m0 0l-.7.8m.7-.8l.6.8M100.5 123.8v-23m0 0l-.6.6m.6-.6l.6.6" stroke="#000"/><path fill="#31D67B" d="M141.6 117.5h-112v19h112z"/></svg>