<svg width="341" height="181" fill="none" xmlns="http://www.w3.org/2000/svg"><path d="M85.7 30.6C72.2 32 46.4 47 45.2 87c0 50 27.5 63.2 41 63.2h146.5M85.5 30.6h72.2M269.2 150.1c13.5-1.4 39.3-16.2 40.5-56.2 0-50-27.5-63.3-41-63.3H122.2M269.4 150.1h-72.2M144 149.4v-118m0 118v-118M137.7 150.1V30.6m0 119.5V30.6M130.7 150.1V30.6m0 119.5V30.6M123.8 150.1V30.6m0 119.5V30.6M116.8 150.1V30.6m0 119.5V30.6M109.9 150.1V30.6m0 119.5V30.6M103 150.1V30.6m0 119.5V30.6M96 150.1V30.6m0 119.5V30.6" stroke="#000"/><circle cx="74.7" cy="78.1" r="1.4" transform="rotate(-180 74.7 78)" fill="#D4D4D4"/><circle cx="68.9" cy="78.1" r="1.4" transform="rotate(-180 69 78)" fill="#D4D4D4"/><circle cx="63.2" cy="78.1" r="1.4" transform="rotate(-180 63.2 78)" fill="#D4D4D4"/><circle cx="57.7" cy="78.1" r="1.4" transform="rotate(-180 57.7 78)" fill="#D4D4D4"/><circle cx="51.7" cy="78.1" r="1.4" transform="rotate(-180 51.7 78)" fill="#D4D4D4"/><circle cx="45.9" cy="78.1" r="1.4" transform="rotate(-180 46 78)" fill="#D4D4D4"/><circle cx="40.2" cy="78.1" r="1.4" transform="rotate(-180 40.2 78)" fill="#D4D4D4"/><circle cx="34.4" cy="78.1" r="1.4" transform="rotate(-180 34.4 78)" fill="#D4D4D4"/><circle cx="28.7" cy="78.1" r="1.4" transform="rotate(-180 28.7 78)" fill="#D4D4D4"/><circle cx="74.7" cy="72.3" r="1.4" transform="rotate(-180 74.7 72.3)" fill="#D4D4D4"/><circle cx="68.9" cy="72.3" r="1.4" transform="rotate(-180 69 72.3)" fill="#D4D4D4"/><circle cx="74.7" cy="66.6" r="1.4" transform="rotate(-180 74.7 66.6)" fill="#D4D4D4"/><circle cx="68.9" cy="66.6" r="1.4" transform="rotate(-180 69 66.6)" fill="#D4D4D4"/><circle cx="63.2" cy="66.6" r="1.4" transform="rotate(-180 63.2 66.6)" fill="#D4D4D4"/><circle cx="57.4" cy="66.6" r="1.4" transform="rotate(-180 57.4 66.6)" fill="#D4D4D4"/><circle cx="51.7" cy="66.6" r="1.4" transform="rotate(-180 51.7 66.6)" fill="#D4D4D4"/><circle cx="45.9" cy="66.6" r="1.4" transform="rotate(-180 46 66.6)" fill="#D4D4D4"/><circle cx="40.2" cy="66.6" r="1.4" transform="rotate(-180 40.2 66.6)" fill="#D4D4D4"/><circle cx="34.4" cy="66.6" r="1.4" transform="rotate(-180 34.4 66.6)" fill="#D4D4D4"/><circle cx="28.7" cy="66.6" r="1.4" transform="rotate(-180 28.7 66.6)" fill="#D4D4D4"/><circle cx="63.2" cy="72.3" r="1.4" transform="rotate(-180 63.2 72.3)" fill="#D4D4D4"/><circle cx="57.7" cy="72.3" r="1.4" transform="rotate(-180 57.7 72.3)" fill="#D4D4D4"/><circle cx="51.7" cy="72.3" r="1.4" transform="rotate(-180 51.7 72.3)" fill="#D4D4D4"/><circle cx="45.9" cy="72.3" r="1.4" transform="rotate(-180 46 72.3)" fill="#D4D4D4"/><circle cx="40.2" cy="72.3" r="1.4" transform="rotate(-180 40.2 72.3)" fill="#D4D4D4"/><circle cx="34.4" cy="72.3" r="1.4" transform="rotate(-180 34.4 72.3)" fill="#D4D4D4"/><circle cx="28.7" cy="72.3" r="1.4" transform="rotate(-180 28.7 72.3)" fill="#D4D4D4"/><circle cx="256.2" cy="73.7" r="33.7" fill="#AB85FF"/><path d="M225.8 88.2l38.6-17.5m0 0h-1.3m1.3 0l-.8 1M228.5 93l71-32.1m0 0l-2.2.3m2.2-.3l-1.7 1.3M230.9 95.7L283.5 72m0 0l-1.7.1m1.7-.1l-1.2 1.2" stroke="#000"/><path fill="#31D67B" d="M205 116.2h-9v34h9zM188 91.2h-9v59h9zM171 70.2h-9v80h9z"/></svg>