<svg width="341" height="180" fill="none" xmlns="http://www.w3.org/2000/svg"><path d="M214 39v96.5M218 39v96.5M222 39v96.5M226 39v96.5M230 39v96.5M234 39v96.5M238 39v96.5M242 39v96.5M210 39v96.5M95.5 125C82 124 56.2 113.3 55 84.5 55 48.5 82.5 39 96 39h146.5M95.3 125h72.2" stroke="#000"/><path d="M140 36c0-4.24-1.63-8.31-4.54-11.31-2.9-3-6.85-4.69-10.96-4.69-4.11 0-8.05 1.69-10.96 4.69-2.9 3-4.54 7.07-4.54 11.31h31z" fill="#8052E4"/><path d="M158 36c0-2.92-1.37-5.72-3.8-7.78A14.29 14.29 0 00145 25c-3.45 0-6.75 1.16-9.2 3.22A10.22 10.22 0 00132 36h26zM117 36c0-1.86-.95-3.64-2.64-4.95A10.45 10.45 0 00108 29c-2.39 0-4.68.74-6.36 2.05A6.32 6.32 0 0099 36h18z" fill="#8052E4"/><circle cx="207.5" cy="113.5" r="41.5" fill="#A57CFE"/><circle cx="207.5" cy="109.53" r="33.34" fill="#A57CFE"/><g clip-path="url(#clip0)" fill="#F5F5F5"><path d="M219.79 91.77H193.9a5.37 5.37 0 00-5.36 5.37v25.94c0 2.96 2.4 5.38 5.36 5.38h25.89a5.37 5.37 0 005.36-5.38V97.14c0-2.96-2.4-5.37-5.36-5.37zm-12.87 27.94a9.67 9.67 0 010-19.34 9.67 9.67 0 010 19.34zm10.72-17.2a3.22 3.22 0 11.02-6.44 3.22 3.22 0 01-.02 6.45z"/><path d="M217.64 98.22a1.07 1.07 0 100 2.15 1.07 1.07 0 000-2.15zM206.92 102.52a7.52 7.52 0 000 15.04 7.52 7.52 0 000-15.04z"/></g><path fill="#31D67B" d="M48 136h245v24H48z"/><defs><clipPath id="clip0"><path fill="#fff" transform="translate(188.54 91.77)" d="M0 0h36.61v36.69H0z"/></clipPath></defs></svg>