<svg width="341" height="181" fill="none" xmlns="http://www.w3.org/2000/svg"><g clip-path="url(#clip0)"><path d="M66.5 152.9L138.3 41l71.9 111.8H66.5zM96.3 152.9v-73m0 0l-1 2m1-2l1 2M112.3 152.9v-102m0 0l-1 2.8m1-2.8l1 2.8M80.3 152.9v-46m0 0l-1 1.2m1-1.2l1 1.2M128.3 152.9v-33m0 0l-1 .9m1-1l1 1" stroke="#000"/><circle r="30.2" transform="matrix(1 0 0 -1 172.7 93)" fill="#F5F5F5"/><path d="M172 57a34.6 34.6 0 100 69.3 34.6 34.6 0 000-69.2zm17.5 38.4c1.6 1.6 3.3 3 4.8 4.8l1.7 2.5c.6 1.3 0 2.7-1.1 2.7h-7.1c-1.8.2-3.3-.5-4.5-1.8l-2.9-3c-.3-.5-.7-1-1.2-1.2-1-.7-1.8-.5-2.4.5-.6 1-.7 2.2-.7 3.4-.1 1.6-.6 2-2.3 2.1a18.2 18.2 0 01-17-8.5c-3.6-5-6.5-10.5-9-16-.5-1.3-.1-2 1.3-2h7c.9 0 1.5.5 1.8 1.4 1.3 3 2.8 6 4.7 8.7.6.8 1 1.5 1.8 2 .8.6 1.5.4 1.9-.5a6 6 0 00.4-1.9c.2-2.1.2-4.3-.1-6.4-.2-1.3-1-2.2-2.3-2.4-.7-.2-.6-.4-.3-.8.6-.7 1.1-1 2.2-1h8c1.3.2 1.6.7 1.7 2v8.9c0 .5.3 2 1.2 2.3.7.2 1.2-.4 1.6-.8 1.9-2 3.3-4.5 4.5-7l1.5-3.3c.3-.9.8-1.3 1.8-1.3h8.4c1.3.3 1.6.9 1.2 2.1-.6 2-1.8 3.7-3 5.4l-4 5.3c-1.2 1.6-1 2.4.4 3.8z" fill="#B490FF"/><circle r="13.3" transform="matrix(1 0 0 -1 227.8 116.6)" fill="#A57CFE"/><circle r="8.6" transform="matrix(1 0 0 -1 259.6 110.4)" fill="#8052E4"/><circle r="2.8" transform="matrix(1 0 0 -1 218.8 82.5)" fill="#31D67B"/><circle r="2.8" transform="matrix(1 0 0 -1 230 82.5)" fill="#31D67B"/><circle r="2.8" transform="matrix(1 0 0 -1 241.4 82.5)" fill="#31D67B"/><circle r="2.8" transform="matrix(1 0 0 -1 252.7 82.5)" fill="#31D67B"/><circle r="2.8" transform="matrix(1 0 0 -1 218.8 71.2)" fill="#31D67B"/><circle r="2.8" transform="matrix(1 0 0 -1 230 71.2)" fill="#31D67B"/><circle r="2.8" transform="matrix(1 0 0 -1 241.4 71.2)" fill="#31D67B"/><circle r="2.8" transform="matrix(1 0 0 -1 252.7 71.2)" fill="#31D67B"/><circle r="2.8" transform="matrix(1 0 0 -1 252.7 59.9)" fill="#31D67B"/><circle r="2.8" transform="matrix(1 0 0 -1 241.4 59.9)" fill="#31D67B"/><circle r="2.8" transform="matrix(1 0 0 -1 230 59.9)" fill="#31D67B"/><circle r="2.8" transform="matrix(1 0 0 -1 218.8 59.9)" fill="#31D67B"/><circle r="2.8" transform="matrix(1 0 0 -1 218.8 59.9)" fill="#31D67B"/><circle r="2.8" transform="matrix(1 0 0 -1 230 59.9)" fill="#31D67B"/><circle r="2.8" transform="matrix(1 0 0 -1 241.4 59.9)" fill="#31D67B"/><circle r="2.8" transform="matrix(1 0 0 -1 252.7 59.9)" fill="#31D67B"/><circle r="2.8" transform="matrix(1 0 0 -1 218.8 48.6)" fill="#31D67B"/><circle r="2.8" transform="matrix(1 0 0 -1 230 48.6)" fill="#31D67B"/><circle r="2.8" transform="matrix(1 0 0 -1 241.4 48.6)" fill="#31D67B"/><circle r="2.8" transform="matrix(1 0 0 -1 252.7 48.6)" fill="#31D67B"/><circle r="2.8" transform="matrix(1 0 0 -1 252.7 37.3)" fill="#31D67B"/><circle r="2.8" transform="matrix(1 0 0 -1 241.4 37.3)" fill="#31D67B"/><circle r="2.8" transform="matrix(1 0 0 -1 230 37.3)" fill="#31D67B"/><circle r="2.8" transform="matrix(1 0 0 -1 218.8 37.3)" fill="#31D67B"/></g><defs><clipPath id="clip0"><path fill="#fff" transform="translate(0 .5)" d="M0 0h341v180H0z"/></clipPath></defs></svg>