<svg width="341" height="181" fill="none" xmlns="http://www.w3.org/2000/svg"><path d="M262.84 48.03c13.5 1 39.3 11.7 40.5 40.5 0 36-27.5 45.5-41 45.5h-146.5M263.04 48.03h-27.73" stroke="#000"/><g clip-path="url(#clip0)"><rect width="127" height="127" rx="63.5" transform="matrix(-1 0 0 1 164.66 27.53)" fill="#4AE991"/><path d="M186.34 62.98c-40.59-36.51-74.77-36.92-102.54-1.21-27.77 35.7-61.95 35.3-102.54-1.22" stroke="#31D67B" stroke-width="2"/><path d="M182.9 93.32c-34.75-42.1-68.5-47.55-101.23-16.34-32.74 31.21-66.49 25.76-101.24-16.34" stroke="#31D67B" stroke-width="2"/><path d="M184.07 101.45c-39.04-38.17-73.17-40-102.4-5.47-29.23 34.52-63.37 32.7-102.4-5.47" stroke="#31D67B" stroke-width="2"/><path d="M184.9 109.49c-43.3-33.27-77.4-31.03-102.34 6.71-24.92 37.74-59.03 39.98-102.32 6.71" stroke="#31D67B" stroke-width="2"/><path d="M193.9 135.49c-35.5-27.28-63.48-25.45-83.92 5.5-20.44 30.95-48.42 32.79-83.91 5.5M153.55 23.3C116.1-1.23 88.34 2.72 70.3 35.13 52.26 67.55 24.5 71.5-12.96 47" stroke="#31D67B" stroke-width="2"/><g clip-path="url(#clip1)"><path d="M151.16 91.03c0-27.35-22.38-49.5-50-49.5s-50 22.15-50 49.5c0 27.34 22.38 49.5 50 49.5.3 0 .59 0 .88-.02v-38.52H91.3v-12.4h10.74v-9.12c0-10.58 6.52-16.34 16.06-16.34 4.57 0 8.5.33 9.63.48v11.06h-6.57c-5.17 0-6.19 2.44-6.19 6.02v7.89h12.4l-1.62 12.39h-10.78v36.64c20.9-5.94 36.2-24.98 36.2-47.58z" fill="#F5F5F5"/></g></g><path d="M224.27 44.87h-25.52m0 0l.7-.38m-.7.38l.7.38M224.27 51.16h-35.66m0 0l.98-.39m-.98.4l.98.38M224.27 38.61H208.2m0 0l.44-.4m-.44.4l.44.4M224.27 57.44h-11.53m0 0l.31-.4m-.31.4l.31.39" stroke="#000"/><circle r="12.48" transform="matrix(0 1 1 0 228.73 48.03)" fill="#F5F5F5" stroke="#000"/><circle r="16" transform="matrix(0 -1 -1 0 241.16 48.03)" fill="#8052E4"/><defs><clipPath id="clip0"><rect width="127" height="127" rx="63.5" transform="matrix(-1 0 0 1 164.66 27.53)" fill="#fff"/></clipPath><clipPath id="clip1"><path fill="#fff" transform="translate(51.16 41.53)" d="M0 0h100v99H0z"/></clipPath></defs></svg>