<svg width="261" height="116" fill="none" xmlns="http://www.w3.org/2000/svg"><path d="M231.6 30.4h-50v7h50v-7z" stroke="url(#paint0_linear)"/><path d="M231.6 48.4h-50v7h50v-7z" stroke="url(#paint1_linear)"/><path d="M231.6 66.4h-50v7h50v-7z" stroke="url(#paint2_linear)"/><path d="M237.6 12.4h-63v79h63v-79z" stroke="url(#paint3_linear)"/><path d="M149.6 30.4h-50v7h50v-7z" stroke="url(#paint4_linear)"/><path d="M149.6 48.4h-50v7h50v-7z" stroke="url(#paint5_linear)"/><path d="M149.6 66.4h-50v7h50v-7z" stroke="url(#paint6_linear)"/><path d="M155.6 12.4h-63v79h63v-79z" stroke="url(#paint7_linear)"/><path d="M67.5 30.4h-50v7h50v-7z" stroke="url(#paint8_linear)"/><path d="M67.5 48.4h-50v7h50v-7z" stroke="url(#paint9_linear)"/><path d="M67.5 66.4h-50v7h50v-7z" stroke="url(#paint10_linear)"/><path d="M73.5 12.4h-63v79h63v-79z" stroke="url(#paint11_linear)"/><path d="M237.6 80.7l2.3 7 .1.4H247.8l-6 4.3-.3.2.1.4 2.3 7-6-4.4-.3-.2-.2.2-6 4.4 2.3-7v-.4l-.2-.2-6-4.3H235.3v-.4l2.3-7z" fill="url(#paint12_linear)" stroke="url(#paint13_linear)"/><path d="M155.6 80.7l2.2 7 .1.4H165.7l-6 4.3-.3.2.1.4 2.3 7-6-4.4-.2-.2-.3.2-6 4.4 2.3-7v-.4l-.2-.2-6-4.3H153.2v-.4l2.4-7z" fill="url(#paint14_linear)" stroke="url(#paint15_linear)"/><path d="M73.5 80.7l2.2 7 .2.4h7.7l-6 4.3-.3.2.1.4 2.3 7-6-4.4-.2-.2-.3.2-6 4.4 2.3-7 .1-.4-.3-.2-6-4.3H71.1v-.4l2.4-7z" fill="url(#paint16_linear)" stroke="url(#paint17_linear)"/><defs><linearGradient id="paint0_linear" x1="172.9" y1="38.7" x2="175.1" y2="19.9" gradientUnits="userSpaceOnUse"><stop stop-color="#AB85FF"/><stop offset=".5" stop-color="#EBA3E3"/><stop offset="1" stop-color="#FFDBE4"/></linearGradient><linearGradient id="paint1_linear" x1="172.9" y1="56.7" x2="175.1" y2="37.9" gradientUnits="userSpaceOnUse"><stop stop-color="#AB85FF"/><stop offset=".5" stop-color="#EBA3E3"/><stop offset="1" stop-color="#FFDBE4"/></linearGradient><linearGradient id="paint2_linear" x1="172.9" y1="74.7" x2="175.1" y2="55.9" gradientUnits="userSpaceOnUse"><stop stop-color="#AB85FF"/><stop offset=".5" stop-color="#EBA3E3"/><stop offset="1" stop-color="#FFDBE4"/></linearGradient><linearGradient id="paint3_linear" x1="163.7" y1="99.9" x2="258.9" y2="1.4" gradientUnits="userSpaceOnUse"><stop stop-color="#AB85FF"/><stop offset=".5" stop-color="#EBA3E3"/><stop offset="1" stop-color="#FFDBE4"/></linearGradient><linearGradient id="paint4_linear" x1="90.8" y1="38.7" x2="93" y2="19.9" gradientUnits="userSpaceOnUse"><stop stop-color="#AB85FF"/><stop offset=".5" stop-color="#EBA3E3"/><stop offset="1" stop-color="#FFDBE4"/></linearGradient><linearGradient id="paint5_linear" x1="90.8" y1="56.7" x2="93" y2="37.9" gradientUnits="userSpaceOnUse"><stop stop-color="#AB85FF"/><stop offset=".5" stop-color="#EBA3E3"/><stop offset="1" stop-color="#FFDBE4"/></linearGradient><linearGradient id="paint6_linear" x1="90.8" y1="74.7" x2="93" y2="55.9" gradientUnits="userSpaceOnUse"><stop stop-color="#AB85FF"/><stop offset=".5" stop-color="#EBA3E3"/><stop offset="1" stop-color="#FFDBE4"/></linearGradient><linearGradient id="paint7_linear" x1="81.6" y1="99.9" x2="176.9" y2="1.4" gradientUnits="userSpaceOnUse"><stop stop-color="#AB85FF"/><stop offset=".5" stop-color="#EBA3E3"/><stop offset="1" stop-color="#FFDBE4"/></linearGradient><linearGradient id="paint8_linear" x1="8.7" y1="38.7" x2="10.9" y2="19.9" gradientUnits="userSpaceOnUse"><stop stop-color="#AB85FF"/><stop offset=".5" stop-color="#EBA3E3"/><stop offset="1" stop-color="#FFDBE4"/></linearGradient><linearGradient id="paint9_linear" x1="8.7" y1="56.7" x2="10.9" y2="37.9" gradientUnits="userSpaceOnUse"><stop stop-color="#AB85FF"/><stop offset=".5" stop-color="#EBA3E3"/><stop offset="1" stop-color="#FFDBE4"/></linearGradient><linearGradient id="paint10_linear" x1="8.7" y1="74.7" x2="10.9" y2="55.9" gradientUnits="userSpaceOnUse"><stop stop-color="#AB85FF"/><stop offset=".5" stop-color="#EBA3E3"/><stop offset="1" stop-color="#FFDBE4"/></linearGradient><linearGradient id="paint11_linear" x1="-.4" y1="99.9" x2="94.8" y2="1.4" gradientUnits="userSpaceOnUse"><stop stop-color="#AB85FF"/><stop offset=".5" stop-color="#EBA3E3"/><stop offset="1" stop-color="#FFDBE4"/></linearGradient><linearGradient id="paint12_linear" x1="221.4" y1="106.1" x2="249.7" y2="69.5" gradientUnits="userSpaceOnUse"><stop stop-color="#AB85FF"/><stop offset=".5" stop-color="#EBA3E3"/><stop offset="1" stop-color="#FFDBE4"/></linearGradient><linearGradient id="paint13_linear" x1="221.4" y1="106.1" x2="249.7" y2="69.5" gradientUnits="userSpaceOnUse"><stop stop-color="#AB85FF"/><stop offset=".5" stop-color="#EBA3E3"/><stop offset="1" stop-color="#FFDBE4"/></linearGradient><linearGradient id="paint14_linear" x1="139.3" y1="106.1" x2="167.6" y2="69.5" gradientUnits="userSpaceOnUse"><stop stop-color="#AB85FF"/><stop offset=".5" stop-color="#EBA3E3"/><stop offset="1" stop-color="#FFDBE4"/></linearGradient><linearGradient id="paint15_linear" x1="139.3" y1="106.1" x2="167.6" y2="69.5" gradientUnits="userSpaceOnUse"><stop stop-color="#AB85FF"/><stop offset=".5" stop-color="#EBA3E3"/><stop offset="1" stop-color="#FFDBE4"/></linearGradient><linearGradient id="paint16_linear" x1="57.2" y1="106.1" x2="85.5" y2="69.5" gradientUnits="userSpaceOnUse"><stop stop-color="#AB85FF"/><stop offset=".5" stop-color="#EBA3E3"/><stop offset="1" stop-color="#FFDBE4"/></linearGradient><linearGradient id="paint17_linear" x1="57.2" y1="106.1" x2="85.5" y2="69.5" gradientUnits="userSpaceOnUse"><stop stop-color="#AB85FF"/><stop offset=".5" stop-color="#EBA3E3"/><stop offset="1" stop-color="#FFDBE4"/></linearGradient></defs></svg>