<svg width="260" height="115" fill="none" xmlns="http://www.w3.org/2000/svg">
  <path d="M43 55.2l-2.7-.7v2.2l1.1 4.4 4 6.3 1.3 1.8v1.1l.8 1.8-.8 1.8.8 2.2-.8 1.7-5.3.7-3.9 1.3-4 2-1.5 2 2.8 1.9 3.8 1.2c.8.4 2.3 1.2 2.3 1.4 0 .3.3 1 .5 1.3l-1 1.2-.7 1.8-.6.9-1.6.8v3.2l3.4 1.2c.4 0 1-.3 1.2-.5l-.7-1.4 1.4-1 3 1.2h4l2.3-1.2 2.4-1.1 1.9-1.8 4.7-.3h2.5l3.8-.4h2.3l1.5-.3 1.7-.9h2.9l1.3.9h7.4l7.1.7h4.9l4.4 1.4h4.6l3.6.7 2.3-.4h3.7v1.5l1.2.2v1h5.9l.8-.2h1.5l.8 1.4 1 1 1.3-.7 2-1.7 1 .6h3l2.7-1.6 2.3 2 1.2.4 2-1.2 2.9.4 1.2 1.8 1.6.6 1-.3v-.7l.5-1 1.3-.8h2.7l1.2-.2 1.4-1 1.6 1.2v1.2l1.5 1.3 1.5 1.2 1-.5h3.1v-1l.8-.4 2.5-1 .5 1 2 .4h1.6l.9-.7 1.7-.6h4l1.8.6 2.8 2.5 3.5.5 1.4-.8v-1.5l-.6-1.3-1.6-2.1-1-1.1 1-.7 1.6-.8 1.2-1.8 1.3-1.2 3.3-1v-1l.7-1 1.5-.6 2.8.8 2.2-.1.9-.7 1.5-.5H210.5v-1.4l-1.2-.7-1-.8-1.8-1.1-.6-2.2.6-.9v-1.2l-1.1-.9a31 31 0 00-2.2-.8c-.4 0 .8-.4 1.4-.6l.8-1.2-2.2-.6.6-.9-2-.8-2-1.4-1.4-.8 1.3-.6.5-1.4v-1l1.6.5 2-.4h2.7l4 1.4h3.8l4.2-.5 1.2-1 1.2-.6 1-1.2v-.7h2l1.4-.6 2.3-.7v-1l-.8-1.2h-1.5l-3.5-1.2-1-.7v-1.5l-1.1-.8h-2l-2.2-.9-3.2-.4-4 .4h-2.4l.6-.4 1-1.2.7-1.3V52l-.8-.9-2-.4-1.6-.4-3-.3-3-1.1-1.8-.3v-1.7l-.8-1.1-1.6-1.2-2-.2v-.5l1-.7.6-.7v-.9l-.6-.6h-3.2l-.6-.3-3.6-1-.8-.8.8-.8v-.9l1.5-.6 1.6-1.2.5-1.4-.5-1.3-3.9-2.1 1.3-1 1-1v-2.9l-1.5-1.2-2.4.3h-.7l-1.9-.6-.8-1.3-4.8-1.3-.7-.3-2.7-.3H170l-1 .3-2.7-.3-1.9.3-.9.9h-3l-1.6.7-.7.9H157l-.6-.9v-1.3l.6-1.2-.6-.8-4-.8-4.1-.5c-.6.2-1.7.5-2.2.5-.4 0-1.4.6-1.9.8l-1.4-.4-.6-1.2-.8-.6h-5.8l-1 .6-1.8-1.4h-1.9l-3 .8-3 .9.4 1.3h-2.5l-1 .8v2l-1.2.5h-4.9l-2.3-.7H111l-5 2.6-1.2-.3h-1.5l-1.2.7 1.2.9-3 1.9.9 2-2.6 1.1v.6l3.5.2 2.7-.2 1.2.6-2 .9-.7 1.2h-1l-2 .3H96l-1.2.7v1.2l-1.2.8-4.4.7-3.8 2v4.3l-2 1.7-1.8 2.4-.5 1h-3.8l-3 .7-1.3 1.3-1.7.8-2.3-.6-1.8.6-2 .5 2 1.3-2 1v-1h-1.3l-6.2 2.3-2-1-1.8-.3-1 .2h-2.4l-1.6-.2-1.3.2-.8.7-.8-.7h-3z" stroke="url(#paint0_linear)"/>
  <path d="M82 29.5l4.3 13.1H100l-11.2 8.1L93.2 64 82 55.8l-11.2 8 4.3-13-11.2-8.2h13.8L82 29.5z" fill="url(#paint1_linear)"/>
  <path d="M169 15.1l3.8 11.7.1.3h12.6l-9.9 7.2-.3.3.1.3 3.8 11.7-10-7.2-.2-.3-.3.3-10 7.2 3.9-11.7v-.3l-.2-.3-10-7.2H165.2l.1-.3L169 15z" stroke="url(#paint2_linear)"/>
  <path d="M139 50.1l3.8 11.7.1.3h12.6l-9.9 7.2-.3.3.1.3 3.8 11.7-10-7.2-.2-.3-.3.3-10 7.2 3.9-11.7v-.3l-.2-.3-10-7.2H135.2l.1-.3L139 50z" stroke="url(#paint3_linear)"/>
  <defs>
    <linearGradient id="paint0_linear" x1=".2" y1="110" x2="61.3" y2="-71.9" gradientUnits="userSpaceOnUse">
      <stop stop-color="#AB85FF"/>
      <stop offset=".5" stop-color="#EBA3E3"/>
      <stop offset="1" stop-color="#FFDBE4"/>
    </linearGradient>
    <linearGradient id="paint1_linear" x1="56.8" y1="71.3" x2="100.6" y2="14.7" gradientUnits="userSpaceOnUse">
      <stop stop-color="#AB85FF"/>
      <stop offset=".5" stop-color="#EBA3E3"/>
      <stop offset="1" stop-color="#FFDBE4"/>
    </linearGradient>
    <linearGradient id="paint2_linear" x1="143.8" y1="55.3" x2="187.6" y2="-1.3" gradientUnits="userSpaceOnUse">
      <stop stop-color="#AB85FF"/>
      <stop offset=".5" stop-color="#EBA3E3"/>
      <stop offset="1" stop-color="#FFDBE4"/>
    </linearGradient>
    <linearGradient id="paint3_linear" x1="113.8" y1="90.3" x2="157.6" y2="33.7" gradientUnits="userSpaceOnUse">
      <stop stop-color="#AB85FF"/>
      <stop offset=".5" stop-color="#EBA3E3"/>
      <stop offset="1" stop-color="#FFDBE4"/>
    </linearGradient>
  </defs>
</svg>
