<svg width="260" height="115" fill="none" xmlns="http://www.w3.org/2000/svg">
  <path d="M215.2 78c0 3.7-2 7.2-6 10.5a54.5 54.5 0 01-16.6 8.8c-14 5-33.6 8.2-55.1 8.2-21.6 0-41.1-3.1-55.2-8.2-7-2.5-12.7-5.5-16.6-8.8-4-3.3-6-6.8-6-10.5s2-7.2 6-10.5c3.9-3.3 9.5-6.3 16.6-8.8 14-5 33.6-8.2 55.2-8.2 21.5 0 41 3.1 55.1 8.2 7 2.5 12.8 5.5 16.7 8.8 3.9 3.3 6 6.8 6 10.5z" stroke="url(#paint0_linear)"/>
  <path d="M107 71.6l8.8 6.4" stroke="url(#paint1_linear)"/>
  <path d="M116.5 71.6L106.3 78" stroke="url(#paint2_linear)"/>
  <path d="M35 39.5a55.3 55.3 0 0172.5 26m0 0V53v12.7zm0 0c-3.3-2.3-10.5-7-12-7.6" stroke="url(#paint3_linear)"/>
  <path d="M226 12.8a55.3 55.3 0 00-72.6 26m0 0V26.2 39zm0 0c3.4-2.3 10.5-7 12-7.6" stroke="url(#paint4_linear)"/>
  <defs>
    <linearGradient id="paint0_linear" x1="33.7" y1="111.6" x2="68" y2="-12.3" gradientUnits="userSpaceOnUse">
      <stop stop-color="#AB85FF"/>
      <stop offset=".5" stop-color="#EBA3E3"/>
      <stop offset="1" stop-color="#FFDBE4"/>
    </linearGradient>
    <linearGradient id="paint1_linear" x1="105.5" y1="78.6" x2="111.9" y2="67" gradientUnits="userSpaceOnUse">
      <stop stop-color="#AB85FF"/>
      <stop offset=".5" stop-color="#EBA3E3"/>
      <stop offset="1" stop-color="#FFDBE4"/>
    </linearGradient>
    <linearGradient id="paint2_linear" x1="118.1" y1="78.6" x2="112.2" y2="66.4" gradientUnits="userSpaceOnUse">
      <stop stop-color="#AB85FF"/>
      <stop offset=".5" stop-color="#EBA3E3"/>
      <stop offset="1" stop-color="#FFDBE4"/>
    </linearGradient>
    <linearGradient id="paint3_linear" x1="23.2" y1="68.7" x2="45" y2="2.4" gradientUnits="userSpaceOnUse">
      <stop stop-color="#AB85FF"/>
      <stop offset=".5" stop-color="#EBA3E3"/>
      <stop offset="1" stop-color="#FFDBE4"/>
    </linearGradient>
    <linearGradient id="paint4_linear" x1="237.7" y1="41.9" x2="215.9" y2="-24.4" gradientUnits="userSpaceOnUse">
      <stop stop-color="#AB85FF"/>
      <stop offset=".5" stop-color="#EBA3E3"/>
      <stop offset="1" stop-color="#FFDBE4"/>
    </linearGradient>
  </defs>
</svg>
