<svg width="341" height="180" fill="none" xmlns="http://www.w3.org/2000/svg">
  <path d="M235 78.5a67.5 67.5 0 01-135 0h135z" fill="#AB85FF"/>
  <mask id="a" maskUnits="userSpaceOnUse" x="100" y="78" width="135" height="68">
    <path d="M235 78.5a67.5 67.5 0 01-135 0h135z" fill="#AB85FF"/>
  </mask>
  <g mask="url(#a)" stroke="#B491FF" stroke-width="2">
    <path d="M73.9 92.6c40.6-36.5 74.7-36.9 102.5-1.2 27.8 35.7 62 35.3 102.6-1.2"/>
    <path d="M77.3 123c34.8-42.1 68.5-47.6 101.2-16.4 32.8 31.2 66.5 25.8 101.3-16.3"/>
    <path d="M76.1 131.1c39-38.2 73.2-40 102.4-5.5 29.3 34.5 63.4 32.7 102.4-5.4"/>
    <path d="M75.3 139.1c43.3-33.2 77.4-31 102.3 6.7 25 37.8 59 40 102.4 6.8M106.7 53c37.4-24.6 65.2-20.6 83.2 11.8 18 32.4 45.8 36.3 83.3 11.8"/>
  </g>
  <path d="M222 78.5a44.5 44.5 0 00-89 0h89z" fill="#31D67B"/>
  <path d="M53 56h119M113 49h59M88 64h84M70 64h13M80 49h28" stroke="#000"/>
  <circle cx="210.4" cy="110.4" r="1.4" fill="#D4D4D4"/>
  <circle cx="216.1" cy="110.4" r="1.4" fill="#D4D4D4"/>
  <circle cx="221.9" cy="110.4" r="1.4" fill="#D4D4D4"/>
  <circle cx="227.6" cy="110.4" r="1.4" fill="#D4D4D4"/>
  <circle cx="233.4" cy="110.4" r="1.4" fill="#D4D4D4"/>
  <circle cx="239.1" cy="110.4" r="1.4" fill="#D4D4D4"/>
  <circle cx="244.9" cy="110.4" r="1.4" fill="#D4D4D4"/>
  <circle cx="250.6" cy="110.4" r="1.4" fill="#D4D4D4"/>
  <circle cx="256.4" cy="110.4" r="1.4" fill="#D4D4D4"/>
  <circle cx="210.4" cy="116.1" r="1.4" fill="#D4D4D4"/>
  <circle cx="216.1" cy="116.1" r="1.4" fill="#D4D4D4"/>
  <circle cx="210.4" cy="121.9" r="1.4" fill="#D4D4D4"/>
  <circle cx="216.1" cy="121.9" r="1.4" fill="#D4D4D4"/>
  <circle cx="221.9" cy="121.9" r="1.4" fill="#D4D4D4"/>
  <circle cx="227.6" cy="121.9" r="1.4" fill="#D4D4D4"/>
  <circle cx="233.4" cy="121.9" r="1.4" fill="#D4D4D4"/>
  <circle cx="239.1" cy="121.9" r="1.4" fill="#D4D4D4"/>
  <circle cx="244.9" cy="121.9" r="1.4" fill="#D4D4D4"/>
  <circle cx="250.6" cy="121.9" r="1.4" fill="#D4D4D4"/>
  <circle cx="256.4" cy="121.9" r="1.4" fill="#D4D4D4"/>
  <circle cx="221.9" cy="116.1" r="1.4" fill="#D4D4D4"/>
  <circle cx="227.6" cy="116.1" r="1.4" fill="#D4D4D4"/>
  <circle cx="233.4" cy="116.1" r="1.4" fill="#D4D4D4"/>
  <circle cx="239.1" cy="116.1" r="1.4" fill="#D4D4D4"/>
  <circle cx="244.9" cy="116.1" r="1.4" fill="#D4D4D4"/>
  <circle cx="250.6" cy="116.1" r="1.4" fill="#D4D4D4"/>
  <circle cx="256.4" cy="116.1" r="1.4" fill="#D4D4D4"/>
</svg>
