<svg width="341" height="180" fill="none" xmlns="http://www.w3.org/2000/svg">
  <circle cx="113" cy="76" r="40" fill="#31D67B"/>
  <circle cx="57.4" cy="84.4" r="1.4" fill="#D4D4D4"/>
  <circle cx="63.1" cy="84.4" r="1.4" fill="#D4D4D4"/>
  <circle cx="68.9" cy="84.4" r="1.4" fill="#D4D4D4"/>
  <circle cx="74.4" cy="84.4" r="1.4" fill="#D4D4D4"/>
  <circle cx="80.4" cy="84.4" r="1.4" fill="#D4D4D4"/>
  <circle cx="86.1" cy="84.4" r="1.4" fill="#D4D4D4"/>
  <circle cx="91.9" cy="84.4" r="1.4" fill="#D4D4D4"/>
  <circle cx="97.6" cy="84.4" r="1.4" fill="#D4D4D4"/>
  <circle cx="103.4" cy="84.4" r="1.4" fill="#D4D4D4"/>
  <circle cx="57.4" cy="90.1" r="1.4" fill="#D4D4D4"/>
  <circle cx="63.1" cy="90.1" r="1.4" fill="#D4D4D4"/>
  <circle cx="57.4" cy="95.9" r="1.4" fill="#D4D4D4"/>
  <circle cx="63.1" cy="95.9" r="1.4" fill="#D4D4D4"/>
  <circle cx="68.9" cy="95.9" r="1.4" fill="#D4D4D4"/>
  <circle cx="74.6" cy="95.9" r="1.4" fill="#D4D4D4"/>
  <circle cx="80.4" cy="95.9" r="1.4" fill="#D4D4D4"/>
  <circle cx="86.1" cy="95.9" r="1.4" fill="#D4D4D4"/>
  <circle cx="91.9" cy="95.9" r="1.4" fill="#D4D4D4"/>
  <circle cx="97.6" cy="95.9" r="1.4" fill="#D4D4D4"/>
  <circle cx="103.4" cy="95.9" r="1.4" fill="#D4D4D4"/>
  <circle cx="68.9" cy="90.1" r="1.4" fill="#D4D4D4"/>
  <circle cx="74.4" cy="90.1" r="1.4" fill="#D4D4D4"/>
  <circle cx="80.4" cy="90.1" r="1.4" fill="#D4D4D4"/>
  <circle cx="86.1" cy="90.1" r="1.4" fill="#D4D4D4"/>
  <circle cx="91.9" cy="90.1" r="1.4" fill="#D4D4D4"/>
  <circle cx="97.6" cy="90.1" r="1.4" fill="#D4D4D4"/>
  <circle cx="103.4" cy="90.1" r="1.4" fill="#D4D4D4"/>
  <path d="M258 27v73m0 0l1-2m-1 2l-1-2" stroke="#31D67B"/>
  <g clip-path="url(#clip0)">
    <path fill="#A57CFE" d="M123 55h127v89H123z"/>
    <path d="M101.3 90.5c40.6-36.6 74.8-37 102.6-1.3 27.7 35.7 62 35.3 102.5-1.2" stroke="#B491FF" stroke-width="2"/>
    <path d="M104.8 120.8c34.7-42.1 68.5-47.6 101.2-16.3 32.7 31.2 66.5 25.7 101.2-16.4" stroke="#B491FF" stroke-width="2"/>
    <path d="M103.6 129c39-38.2 73.2-40 102.4-5.5 29.2 34.5 63.4 32.6 102.4-5.5" stroke="#B491FF" stroke-width="2"/>
    <path d="M102.8 137c43.3-33.3 77.4-31 102.3 6.7 25 37.7 59 40 102.3 6.7" stroke="#B491FF" stroke-width="2"/>
    <path d="M93.8 163c35.5-27.3 63.4-25.5 83.9 5.5 20.4 31 48.4 32.8 83.9 5.5M134.1 50.8c37.5-24.5 65.2-20.6 83.3 11.8 18 32.4 45.8 36.4 83.2 11.9" stroke="#B491FF" stroke-width="2"/>
  </g>
  <path stroke="#000" d="M244.5 105.5h24v48h-24z"/>
  <circle cx="258.5" cy="125.5" r="2.5" fill="#31D67B"/>
  <circle cx="268.5" cy="125.5" r="2.5" fill="#31D67B"/>
  <circle cx="278.5" cy="125.5" r="2.5" fill="#31D67B"/>
  <circle cx="288.5" cy="125.5" r="2.5" fill="#31D67B"/>
  <circle cx="258.5" cy="135.5" r="2.5" fill="#31D67B"/>
  <circle cx="268.5" cy="135.5" r="2.5" fill="#31D67B"/>
  <circle cx="278.5" cy="135.5" r="2.5" fill="#31D67B"/>
  <circle cx="288.5" cy="135.5" r="2.5" fill="#31D67B"/>
  <circle cx="288.5" cy="145.5" r="2.5" fill="#31D67B"/>
  <circle cx="278.5" cy="145.5" r="2.5" fill="#31D67B"/>
  <circle cx="268.5" cy="145.5" r="2.5" fill="#31D67B"/>
  <circle cx="258.5" cy="145.5" r="2.5" fill="#31D67B"/>
  <path d="M51 84.5V78h6.5M110.5 94v6.5H104" stroke="#000"/>
  <defs>
    <clipPath id="clip0">
      <path fill="#fff" transform="translate(123 55)" d="M0 0h127v89H0z"/>
    </clipPath>
  </defs>
</svg>
