<svg width="260" height="115" fill="none" xmlns="http://www.w3.org/2000/svg">
  <path d="M26 40.62l3.57 10.97.1.35H41.59l-9.34 6.78-.29.21.11.35 3.57 10.97-9.34-6.78-.29-.21-.3.21-9.33 6.78 3.57-10.97.1-.35-.29-.21-9.33-6.78H22.32l.11-.35L26 40.62z" stroke="url(#paint0_linear)"/>
  <path d="M78 40.62l3.57 10.97.1.35H93.59l-9.33 6.78-.3.21.11.35 3.57 10.97-9.34-6.78-.29-.21-.3.21-9.33 6.78 3.57-10.97.1-.35-.29-.21-9.33-6.78H74.32l.11-.35L78 40.62z" stroke="url(#paint1_linear)"/>
  <path d="M130 40.62l3.57 10.97.1.35H145.59l-9.34 6.78-.29.21.11.35 3.57 10.97-9.34-6.78-.29-.21-.3.21-9.33 6.78 3.57-10.97.1-.35-.29-.21-9.33-6.78H126.32l.11-.35L130 40.62z" stroke="url(#paint2_linear)"/>
  <path d="M182 40.62l3.57 10.97.1.35H197.59l-9.34 6.78-.29.21.11.35 3.57 10.97-9.34-6.78-.29-.21-.3.21-9.33 6.78 3.57-10.97.1-.35-.28-.21-9.34-6.78H178.32l.11-.35L182 40.62z" stroke="url(#paint3_linear)"/>
  <path d="M234 40.62l3.57 10.97.1.35H249.59l-9.34 6.78-.29.21.11.35 3.57 10.97-9.34-6.78-.29-.21-.3.21-9.33 6.78 3.57-10.97.1-.35-.28-.21-9.34-6.78H230.32l.11-.35L234 40.62z" stroke="url(#paint4_linear)"/>
  <defs>
    <linearGradient id="paint0_linear" x1="2.14" y1="78.6" x2="43.64" y2="24.96" gradientUnits="userSpaceOnUse">
      <stop stop-color="#AB85FF"/>
      <stop offset=".53" stop-color="#EBA3E3"/>
      <stop offset="1" stop-color="#FFDBE4"/>
    </linearGradient>
    <linearGradient id="paint1_linear" x1="54.14" y1="78.6" x2="95.64" y2="24.96" gradientUnits="userSpaceOnUse">
      <stop stop-color="#AB85FF"/>
      <stop offset=".53" stop-color="#EBA3E3"/>
      <stop offset="1" stop-color="#FFDBE4"/>
    </linearGradient>
    <linearGradient id="paint2_linear" x1="106.14" y1="78.6" x2="147.64" y2="24.96" gradientUnits="userSpaceOnUse">
      <stop stop-color="#AB85FF"/>
      <stop offset=".53" stop-color="#EBA3E3"/>
      <stop offset="1" stop-color="#FFDBE4"/>
    </linearGradient>
    <linearGradient id="paint3_linear" x1="158.14" y1="78.6" x2="199.64" y2="24.96" gradientUnits="userSpaceOnUse">
      <stop stop-color="#AB85FF"/>
      <stop offset=".53" stop-color="#EBA3E3"/>
      <stop offset="1" stop-color="#FFDBE4"/>
    </linearGradient>
    <linearGradient id="paint4_linear" x1="210.14" y1="78.6" x2="251.64" y2="24.96" gradientUnits="userSpaceOnUse">
      <stop stop-color="#AB85FF"/>
      <stop offset=".53" stop-color="#EBA3E3"/>
      <stop offset="1" stop-color="#FFDBE4"/>
    </linearGradient>
  </defs>
</svg>
