<svg width="341" height="180" fill="none" xmlns="http://www.w3.org/2000/svg"><path d="M210.2 141.8L138.3 29.8 66.5 141.7h143.7zM96.3 142V69m0 0l-1 2m1-2l1 2M112.3 142V40m0 0l-1 2.8m1-2.8l1 2.8M80.3 142V96m0 0l-1 1.3m1-1.3l1 1.3M128.3 142v-33m0 0l-1 .9m1-.9l1 .9" stroke="#000"/><circle cx="170.2" cy="59.1" r="31.9" fill="#B491FF"/><circle cx="225.3" cy="34.3" r="13.3" fill="#A57CFE"/><circle cx="257.2" cy="40.4" r="8.6" fill="#8052E4"/><circle cx="218.8" cy="71.8" r="2.8" fill="#31D67B"/><circle cx="230.1" cy="71.8" r="2.8" fill="#31D67B"/><circle cx="241.4" cy="71.8" r="2.8" fill="#31D67B"/><circle cx="252.7" cy="71.8" r="2.8" fill="#31D67B"/><circle cx="218.8" cy="83.1" r="2.8" fill="#31D67B"/><circle cx="230.1" cy="83.1" r="2.8" fill="#31D67B"/><circle cx="241.4" cy="83.1" r="2.8" fill="#31D67B"/><circle cx="252.7" cy="83.1" r="2.8" fill="#31D67B"/><circle cx="252.7" cy="94.4" r="2.8" fill="#31D67B"/><circle cx="241.4" cy="94.4" r="2.8" fill="#31D67B"/><circle cx="230.1" cy="94.4" r="2.8" fill="#31D67B"/><circle cx="218.8" cy="94.4" r="2.8" fill="#31D67B"/><circle cx="218.8" cy="94.4" r="2.8" fill="#31D67B"/><circle cx="230.1" cy="94.4" r="2.8" fill="#31D67B"/><circle cx="241.4" cy="94.4" r="2.8" fill="#31D67B"/><circle cx="252.7" cy="94.4" r="2.8" fill="#31D67B"/><circle cx="218.8" cy="105.7" r="2.8" fill="#31D67B"/><circle cx="230.1" cy="105.7" r="2.8" fill="#31D67B"/><circle cx="241.4" cy="105.7" r="2.8" fill="#31D67B"/><circle cx="252.7" cy="105.7" r="2.8" fill="#31D67B"/><circle cx="252.7" cy="117" r="2.8" fill="#31D67B"/><circle cx="241.4" cy="117" r="2.8" fill="#31D67B"/><circle cx="230.1" cy="117" r="2.8" fill="#31D67B"/><circle cx="218.8" cy="117" r="2.8" fill="#31D67B"/></svg>