<svg width="341" height="180" fill="none" xmlns="http://www.w3.org/2000/svg"><path d="M277.3 112.2a9.5 9.5 0 100-19.1v19.1z" fill="#D4D4D4"/><path d="M277.3 98c1.7 0 3.3-.6 4.5-1.7a6 6 0 000-8.7 6.5 6.5 0 00-4.5-1.8V98zM277.3 125.4c1.7 0 3.3-1 4.5-2.6 1.2-1.7 1.9-4 1.9-6.3 0-2.4-.7-4.6-2-6.3-1.1-1.6-2.7-2.6-4.4-2.6v17.8z" fill="#D4D4D4"/><path d="M223.6 104.3a21.5 21.5 0 000-43v43z" fill="#31D67B"/><path d="M223.6 72.6c3.8 0 7.5-1.5 10.2-4a13.6 13.6 0 000-19.6c-2.7-2.6-6.4-4-10.2-4v27.6zM223.6 134c3.8 0 7.5-2.1 10.2-5.9 2.7-3.7 4.2-8.8 4.2-14 0-5.4-1.5-10.4-4.2-14.2-2.7-3.7-6.4-5.8-10.2-5.8V134z" fill="#31D67B"/><path d="M258.6 78.7a12.3 12.3 0 100-24.6v24.6z" fill="#4AE991"/><path d="M258.6 60.6c2.2 0 4.3-.9 5.8-2.4a7.8 7.8 0 000-11.1 8.4 8.4 0 00-5.8-2.4v15.9zM258.6 95.7c2.2 0 4.3-1.2 5.8-3.3a14 14 0 002.4-8.1c0-3-.8-6-2.4-8-1.5-2.2-3.6-3.4-5.8-3.4v22.8z" fill="#4AE991"/><path d="M169.2 85h73m0 0l-2-1m2 1l-2 1M169.2 101h102m0 0l-2.8-1m2.8 1l-2.8 1M169.2 69h46m0 0l-1.3-1m1.3 1l-1.3 1M169.2 117h33m0 0l-1-1m1 1l-1 1" stroke="#000"/><g clip-path="url(#clip0)"><rect x="54.2" y="46.3" width="127" height="89" rx="44.5" fill="#A57CFE"/><path d="M32.5 81.7c40.6-36.5 74.8-37 102.5-1.2 27.8 35.7 62 35.3 102.6-1.2" stroke="#B491FF" stroke-width="2"/><path d="M36 112c34.7-42 68.4-47.5 101.2-16.3 32.7 31.2 66.4 25.8 101.2-16.3" stroke="#B491FF" stroke-width="2"/><path d="M34.8 120.2c39-38.2 73.1-40 102.4-5.5 29.2 34.5 63.3 32.7 102.4-5.5" stroke="#B491FF" stroke-width="2"/><path d="M34 128.2c43.2-33.3 77.3-31 102.3 6.7 24.9 37.8 59 40 102.3 6.7" stroke="#B491FF" stroke-width="2"/><path d="M25 154.2c35.4-27.3 63.4-25.4 83.9 5.5 20.4 31 48.4 32.8 83.9 5.5M65.3 42c37.4-24.5 65.2-20.5 83.2 11.9s45.8 36.3 83.3 11.8" stroke="#B491FF" stroke-width="2"/></g><defs><clipPath id="clip0"><rect x="54.2" y="46.3" width="127" height="89" rx="44.5" fill="#fff"/></clipPath></defs></svg>