<svg width="260" height="115" fill="none" xmlns="http://www.w3.org/2000/svg">
  <path stroke="url(#paint0_linear)" d="M26 46.5h15v53H26z"/>
  <path stroke="url(#paint1_linear)" d="M122 27.5h15v72h-15z"/>
  <path stroke="url(#paint2_linear)" d="M218 14.5h15v85h-15z"/>
  <path d="M51.5 77.3c12.1 5.4 40.3 9 56-20.3m0 0v9.9V57zm0 0a94.7 94.7 0 01-9.3 6" stroke="url(#paint3_linear)"/>
  <path d="M151.5 66.3c12.1 5.4 40.3 9 56-20.3m0 0v9.9V46zm0 0a94.7 94.7 0 01-9.3 6" stroke="url(#paint4_linear)"/>
  <defs>
    <linearGradient id="paint0_linear" x1="22.9" y1="105.4" x2="65.9" y2="88.9" gradientUnits="userSpaceOnUse">
      <stop stop-color="#AB85FF"/>
      <stop offset=".5" stop-color="#EBA3E3"/>
      <stop offset="1" stop-color="#FFDBE4"/>
    </linearGradient>
    <linearGradient id="paint1_linear" x1="118.9" y1="107.3" x2="164.5" y2="94.4" gradientUnits="userSpaceOnUse">
      <stop stop-color="#AB85FF"/>
      <stop offset=".5" stop-color="#EBA3E3"/>
      <stop offset="1" stop-color="#FFDBE4"/>
    </linearGradient>
    <linearGradient id="paint2_linear" x1="214.9" y1="108.6" x2="261.5" y2="97.4" gradientUnits="userSpaceOnUse">
      <stop stop-color="#AB85FF"/>
      <stop offset=".5" stop-color="#EBA3E3"/>
      <stop offset="1" stop-color="#FFDBE4"/>
    </linearGradient>
    <linearGradient id="paint3_linear" x1="42.4" y1="54.6" x2="59.5" y2="106.1" gradientUnits="userSpaceOnUse">
      <stop stop-color="#AB85FF"/>
      <stop offset=".5" stop-color="#EBA3E3"/>
      <stop offset="1" stop-color="#FFDBE4"/>
    </linearGradient>
    <linearGradient id="paint4_linear" x1="142.4" y1="43.6" x2="159.5" y2="95.1" gradientUnits="userSpaceOnUse">
      <stop stop-color="#AB85FF"/>
      <stop offset=".5" stop-color="#EBA3E3"/>
      <stop offset="1" stop-color="#FFDBE4"/>
    </linearGradient>
  </defs>
</svg>
