<svg width="260" height="115" fill="none" xmlns="http://www.w3.org/2000/svg">
  <path d="M91 49l13.8 9 19-9 11.5 23 20.5-8.2 23 12.2m0 0l-5-7.7m5 7.7h-10" stroke="url(#paint0_linear)"/>
  <path d="M224.3 82.6v0c0 5-3.9 8.8-10.2 9.7h-.4v5.2h-5.5v-5.2l-.4-.1c-3.5-.7-6.8-2.3-9-4.6l4-3.8a12.9 12.9 0 0013.3 2.3c1.5-.7 2.7-1.8 2.7-3.5 0 0 0 0 0 0h0s0 0 0 0c0-1-.2-1.8-.5-2.5-.4-.7-.9-1.2-1.6-1.7a23 23 0 00-6.2-2.5c-2.7-.8-5.3-1.7-7.5-3.1h0a9.3 9.3 0 01-4.2-8.1c0-4.9 3.4-8.5 9-9.8h.4v-5.4h5.5v5.1h.5c2.8.3 5.8 1.2 8 2.5l-3 4.6c-1.9-1-4.6-1.7-7-1.7a13 13 0 00-5.2 1c-1.5.7-2.7 1.9-2.7 3.7 0 .7 0 1.4.4 2 .3.6.7 1 1.4 1.5a23 23 0 006 2.4h0c2.8.8 5.5 1.7 7.8 3.3 3 2 4.4 5 4.4 8.7z" stroke="url(#paint1_linear)"/>
  <path d="M80.7 73.5v0c0 9-6.8 15.5-17.8 17l-.8.2v9h-9.7V90.5l-.7-.1c-6.1-1.2-11.9-4-16-8l7-6.8a22.7 22.7 0 0023.7 4c2.6-1.1 4.6-3.1 4.6-6.1 0 0 0 0 0 0v0s0 0 0 0c0-1.7-.2-3-.8-4.3a8.3 8.3 0 00-2.8-3.1c-2.4-1.7-6-3-11-4.5a47.3 47.3 0 01-13.1-5.4h0c-5-3.4-7.5-8.2-7.5-14.2 0-8.6 6-15 16-17.2l.6-.1V15.3h9.7V24l.8.1c5 .5 10.2 2.1 14 4.5l-5.2 8.1c-3.3-1.9-8-3-12.3-3-3 0-6.4.4-9.1 1.7-2.7 1.2-4.8 3.3-4.8 6.5 0 1.3.2 2.4.7 3.5a7 7 0 002.4 2.6c2.2 1.5 5.6 2.7 10.6 4.3h0c5 1.4 9.8 3 13.9 5.8 5.1 3.6 7.7 8.7 7.6 15.3z" stroke="url(#paint2_linear)"/>
  <defs>
    <linearGradient id="paint0_linear" x1="76.6" y1="78.6" x2="91.1" y2="17.9" gradientUnits="userSpaceOnUse">
      <stop stop-color="#AB85FF"/>
      <stop offset=".5" stop-color="#EBA3E3"/>
      <stop offset="1" stop-color="#FFDBE4"/>
    </linearGradient>
    <linearGradient id="paint1_linear" x1="193.7" y1="102.9" x2="248.6" y2="64" gradientUnits="userSpaceOnUse">
      <stop stop-color="#AB85FF"/>
      <stop offset=".5" stop-color="#EBA3E3"/>
      <stop offset="1" stop-color="#FFDBE4"/>
    </linearGradient>
    <linearGradient id="paint2_linear" x1="26.8" y1="109.2" x2="123.6" y2="40.9" gradientUnits="userSpaceOnUse">
      <stop stop-color="#AB85FF"/>
      <stop offset=".5" stop-color="#EBA3E3"/>
      <stop offset="1" stop-color="#FFDBE4"/>
    </linearGradient>
  </defs>
</svg>
