<svg width="196" height="85" viewBox="0 0 196 85" fill="none" xmlns="http://www.w3.org/2000/svg">
<g clip-path="url(#clip0)">
<path d="M141.407 31.6364H137.989C137.702 30.7451 137.327 29.8842 136.871 29.0642L139.286 26.7642C139.803 26.272 140.088 25.6164 140.088 24.9181C140.088 24.2207 139.803 23.5651 139.286 23.0729L136.702 20.612C135.67 19.6286 133.862 19.626 132.827 20.612L130.412 22.912C129.552 22.4781 128.648 22.1216 127.712 21.8477V18.5929C127.712 17.1547 126.483 15.9842 124.973 15.9842H121.32C119.81 15.9842 118.581 17.1547 118.581 18.5929V21.8486C117.645 22.1225 116.741 22.479 115.88 22.9129L113.465 20.6129C112.396 19.5955 110.658 19.5955 109.59 20.6129L107.005 23.0738C105.937 24.0912 105.937 25.7468 107.005 26.7642L109.42 29.0651C108.964 29.8842 108.59 30.746 108.302 31.6373H104.886C103.375 31.6373 102.146 32.8077 102.146 34.246V37.7242C102.146 39.1616 103.375 40.332 104.886 40.332H108.304C108.592 41.2234 108.966 42.0842 109.422 42.9042L107.007 45.2051C105.938 46.2225 105.938 47.8781 107.007 48.8955L109.591 51.3573C110.659 52.3738 112.397 52.3738 113.465 51.3573L115.881 49.0573C116.741 49.4912 117.646 49.8477 118.582 50.1216V53.3755C118.582 54.8138 119.811 55.9842 121.321 55.9842H124.973C126.484 55.9842 127.713 54.8138 127.713 53.3755V50.1199C128.648 49.846 129.553 49.4894 130.413 49.0555L132.828 51.3564C133.864 52.3416 135.672 52.3399 136.703 51.3564L139.287 48.8955C139.804 48.4034 140.089 47.7477 140.089 47.0503C140.089 46.352 139.804 45.6973 139.287 45.2051L136.872 42.9042C137.328 42.0851 137.702 41.2234 137.99 40.332H141.407C142.918 40.332 144.146 39.1616 144.146 37.7234V34.2451C144.146 32.8068 142.918 31.6364 141.407 31.6364ZM142.32 37.7234C142.32 38.2025 141.911 38.5929 141.407 38.5929H137.299C136.882 38.5929 136.519 38.8616 136.415 39.2451C136.092 40.432 135.599 41.5651 134.95 42.612C134.739 42.9538 134.797 43.3886 135.091 43.6686L137.994 46.4347C138.166 46.5981 138.261 46.8164 138.261 47.0503C138.261 47.2842 138.166 47.5025 137.994 47.666L135.41 50.1268C135.067 50.4538 134.462 50.4538 134.118 50.1268L131.214 47.3616C130.92 47.0807 130.464 47.0268 130.104 47.2277C129.006 47.8451 127.817 48.3147 126.569 48.6216C126.168 48.7199 125.886 49.066 125.886 49.4625V53.3755C125.886 53.8547 125.477 54.2451 124.973 54.2451H121.32C120.817 54.2451 120.407 53.8547 120.407 53.3755V49.4625C120.407 49.066 120.125 48.7199 119.723 48.6207C118.476 48.3138 117.287 47.8451 116.187 47.2268C116.043 47.1451 115.883 47.106 115.723 47.106C115.487 47.106 115.253 47.1929 115.077 47.3607L112.174 50.126C111.817 50.4651 111.238 50.4651 110.881 50.126L108.297 47.6651C107.94 47.3251 107.94 46.7729 108.297 46.4338L111.2 43.6686C111.495 43.3877 111.553 42.9529 111.341 42.612C110.693 41.5651 110.2 40.4329 109.877 39.2451C109.774 38.8616 109.411 38.5929 108.994 38.5929H104.886C104.383 38.5929 103.973 38.2025 103.973 37.7234V34.2451C103.973 33.766 104.383 33.3755 104.886 33.3755H108.994C109.411 33.3755 109.774 33.1068 109.878 32.7234C110.2 31.5364 110.693 30.4034 111.342 29.3564C111.554 29.0147 111.496 28.5799 111.201 28.2999L108.298 25.5347C107.942 25.1955 107.942 24.6434 108.298 24.3034L110.882 21.8425C111.239 21.5025 111.817 21.5034 112.174 21.8425L115.078 24.6077C115.373 24.8886 115.828 24.9442 116.187 24.7416C117.287 24.1242 118.475 23.6547 119.723 23.3477C120.125 23.2486 120.407 22.9025 120.407 22.506V18.5929C120.407 18.1138 120.817 17.7234 121.32 17.7234H124.973C125.477 17.7234 125.886 18.1138 125.886 18.5929V22.506C125.886 22.9025 126.168 23.2486 126.57 23.3477C127.818 23.6547 129.007 24.1242 130.105 24.7416C130.465 24.9434 130.921 24.8894 131.215 24.6077L134.119 21.8425C134.463 21.5138 135.068 21.5147 135.411 21.8425L137.995 24.3034C138.167 24.4668 138.262 24.686 138.262 24.919C138.262 25.152 138.167 25.3712 137.995 25.5347L135.092 28.2999C134.798 28.5807 134.739 29.0155 134.951 29.3564C135.6 30.4034 136.093 31.5355 136.416 32.7234C136.519 33.1068 136.882 33.3755 137.299 33.3755H141.407C141.911 33.3755 142.32 33.766 142.32 34.2451V37.7234Z" fill="url(#paint0_linear)"/>
<path d="M123.147 28.1581C118.617 28.1581 114.93 31.6694 114.93 35.9842C114.93 40.299 118.617 43.8103 123.147 43.8103C127.679 43.8103 131.364 40.299 131.364 35.9842C131.364 31.6694 127.679 28.1581 123.147 28.1581ZM123.147 42.0712C119.623 42.0712 116.756 39.3407 116.756 35.9842C116.756 32.6277 119.623 29.8973 123.147 29.8973C126.671 29.8973 129.538 32.6277 129.538 35.9842C129.538 39.3407 126.671 42.0712 123.147 42.0712Z" fill="url(#paint1_linear)"/>
</g>
<path d="M162.381 1.19281H83.6075V70.7756H162.381M162.381 1.19281V70.7756M162.381 1.19281L176.822 5.56909V65.5241L162.381 70.7756" stroke="url(#paint2_linear)"/>
<path d="M149.934 43.9914H195.075V83.866H149.934L141.658 80.8566V46.4992L149.934 43.9914Z" fill="white"/>
<path d="M149.934 43.9914H195.075V83.866H149.934M149.934 43.9914V83.866M149.934 43.9914L141.658 46.4992V80.8566L149.934 83.866" stroke="url(#paint3_linear)"/>
<path d="M18.845 47.5836C12.8973 47.143 1.53064 42.4289 1.00195 29.7405C1.00195 13.8801 13.1176 9.69465 19.0653 9.69465C27.6564 9.69465 63.3425 9.69464 83.6087 9.69464" stroke="url(#paint4_linear)"/>
<path d="M18.7559 47.5836H50.5665" stroke="url(#paint5_linear)"/>
<path d="M23.9902 48.5372L25.9228 40.4267L28.4437 49.606L26.364 57.2554H20.503L14.7051 37.9118H21.1332L23.9902 48.5372ZM37.6868 57.2554H31.5317L26.2169 37.9118H32.7291L37.6868 57.2554ZM37.7498 37.9118H43.6318L38.38 56.2495L35.7541 45.9385L37.7498 37.9118Z" fill="url(#paint6_linear)"/>
<path d="M42.5189 45.0584H47.5186L48.758 37.9119H54.619L51.2159 57.1717H39.1788L40.8174 52.2467H46.2582L46.6993 49.669H41.6997L42.5189 45.0584Z" fill="url(#paint7_linear)"/>
<defs>
<linearGradient id="paint0_linear" x1="95.3145" y1="59.979" x2="140.807" y2="-1.76781" gradientUnits="userSpaceOnUse">
<stop stop-color="#AB85FF"/>
<stop offset="0.526042" stop-color="#EBA3E3"/>
<stop offset="1" stop-color="#FFDBE4"/>
</linearGradient>
<linearGradient id="paint1_linear" x1="112.256" y1="45.3735" x2="130.058" y2="21.2117" gradientUnits="userSpaceOnUse">
<stop stop-color="#AB85FF"/>
<stop offset="0.526042" stop-color="#EBA3E3"/>
<stop offset="1" stop-color="#FFDBE4"/>
</linearGradient>
<linearGradient id="paint2_linear" x1="191.985" y1="77.7248" x2="120.22" y2="-46.5504" gradientUnits="userSpaceOnUse">
<stop stop-color="#AB85FF"/>
<stop offset="0.526042" stop-color="#EBA3E3"/>
<stop offset="1" stop-color="#FFDBE4"/>
</linearGradient>
<linearGradient id="paint3_linear" x1="132.969" y1="87.8482" x2="174.094" y2="16.632" gradientUnits="userSpaceOnUse">
<stop stop-color="#AB85FF"/>
<stop offset="0.526042" stop-color="#EBA3E3"/>
<stop offset="1" stop-color="#FFDBE4"/>
</linearGradient>
<linearGradient id="paint4_linear" x1="-12.4354" y1="51.3675" x2="16.0021" y2="-28.7782" gradientUnits="userSpaceOnUse">
<stop stop-color="#AB85FF"/>
<stop offset="0.526042" stop-color="#EBA3E3"/>
<stop offset="1" stop-color="#FFDBE4"/>
</linearGradient>
<linearGradient id="paint5_linear" x1="13.5813" y1="48.6835" x2="13.6392" y2="46.3033" gradientUnits="userSpaceOnUse">
<stop stop-color="#AB85FF"/>
<stop offset="0.526042" stop-color="#EBA3E3"/>
<stop offset="1" stop-color="#FFDBE4"/>
</linearGradient>
<linearGradient id="paint6_linear" x1="8.21241" y1="59.1873" x2="23.3555" y2="18.796" gradientUnits="userSpaceOnUse">
<stop stop-color="#AB85FF"/>
<stop offset="0.526042" stop-color="#EBA3E3"/>
<stop offset="1" stop-color="#FFDBE4"/>
</linearGradient>
<linearGradient id="paint7_linear" x1="8.21241" y1="59.1873" x2="23.3555" y2="18.796" gradientUnits="userSpaceOnUse">
<stop stop-color="#AB85FF"/>
<stop offset="0.526042" stop-color="#EBA3E3"/>
<stop offset="1" stop-color="#FFDBE4"/>
</linearGradient>
<clipPath id="clip0">
<rect width="42" height="40" fill="white" transform="translate(102.146 15.9842)"/>
</clipPath>
</defs>
</svg>
