<svg width="227" height="97" viewBox="0 0 227 97" fill="none" xmlns="http://www.w3.org/2000/svg">
<path d="M172.621 54.8499L192.908 35.4289M192.908 35.4289L185.001 38.42M192.908 35.4289L189.882 42.5176" stroke="url(#paint0_linear)"/>
<circle r="13.5" transform="matrix(1 0 0 -1 14.002 31.8498)" stroke="url(#paint1_linear)"/>
<path d="M152.151 56.1988L131.113 40.236" stroke="url(#paint2_linear)"/>
<circle r="13.5" transform="matrix(1 0 0 -1 61.002 68.8498)" stroke="url(#paint3_linear)"/>
<circle r="13.5" transform="matrix(1 0 0 -1 118.951 34.9673)" stroke="url(#paint4_linear)"/>
<circle r="19.5" transform="matrix(-1 0 0 1 61.502 68.9672)" stroke="url(#paint5_linear)"/>
<path d="M46.502 81.9672L23.002 95.4672L20.502 91.4672L44.002 77.9672" stroke="url(#paint6_linear)"/>
<circle r="13.5" transform="matrix(1 0 0 -1 163.002 63.9673)" stroke="url(#paint7_linear)"/>
<path d="M23.502 41.8498L46.502 56.4862" stroke="url(#paint8_linear)"/>
<path d="M75.002 55.3925L106.056 38.2267" stroke="url(#paint9_linear)"/>
<path d="M53.043 68.4848H61.0014M68.9598 68.4848H61.0014M61.0014 68.4848V76.2021V61.7324" stroke="url(#paint10_linear)"/>
<path d="M149.84 18.2876V13.0076C149.84 11.2796 150.464 9.83961 151.712 8.68761C152.976 7.51961 154.544 6.93561 156.416 6.93561C158.32 6.93561 159.888 7.51961 161.12 8.68761C162.384 9.83961 163.016 11.2796 163.016 13.0076V18.2876C163.016 20.0156 162.384 21.4636 161.12 22.6316C159.872 23.7836 158.304 24.3596 156.416 24.3596C154.544 24.3596 152.976 23.7836 151.712 22.6316C150.464 21.4636 149.84 20.0156 149.84 18.2876ZM153.488 12.9596V18.3356C153.488 19.0396 153.768 19.6396 154.328 20.1356C154.888 20.6156 155.584 20.8556 156.416 20.8556C157.248 20.8556 157.944 20.6156 158.504 20.1356C159.064 19.6396 159.344 19.0396 159.344 18.3356V12.9596C159.344 12.2396 159.064 11.6396 158.504 11.1596C157.944 10.6796 157.248 10.4396 156.416 10.4396C155.584 10.4396 154.888 10.6796 154.328 11.1596C153.768 11.6396 153.488 12.2396 153.488 12.9596ZM168.876 11.5676L166.14 12.8636L164.7 9.71961L169.908 7.24761H172.524V24.0476H168.876V11.5676ZM175.645 18.2876V13.0076C175.645 11.2796 176.269 9.83961 177.517 8.68761C178.781 7.51961 180.349 6.93561 182.221 6.93561C184.125 6.93561 185.693 7.51961 186.925 8.68761C188.189 9.83961 188.821 11.2796 188.821 13.0076V18.2876C188.821 20.0156 188.189 21.4636 186.925 22.6316C185.677 23.7836 184.109 24.3596 182.221 24.3596C180.349 24.3596 178.781 23.7836 177.517 22.6316C176.269 21.4636 175.645 20.0156 175.645 18.2876ZM179.293 12.9596V18.3356C179.293 19.0396 179.573 19.6396 180.133 20.1356C180.693 20.6156 181.389 20.8556 182.221 20.8556C183.053 20.8556 183.749 20.6156 184.309 20.1356C184.869 19.6396 185.149 19.0396 185.149 18.3356V12.9596C185.149 12.2396 184.869 11.6396 184.309 11.1596C183.749 10.6796 183.053 10.4396 182.221 10.4396C181.389 10.4396 180.693 10.6796 180.133 11.1596C179.573 11.6396 179.293 12.2396 179.293 12.9596ZM194.681 11.5676L191.945 12.8636L190.505 9.71961L195.713 7.24761H198.329V24.0476H194.681V11.5676ZM205.649 11.5676L202.913 12.8636L201.473 9.71961L206.681 7.24761H209.297V24.0476H205.649V11.5676ZM212.418 18.2876V13.0076C212.418 11.2796 213.042 9.83961 214.29 8.68761C215.554 7.51961 217.122 6.93561 218.994 6.93561C220.898 6.93561 222.466 7.51961 223.698 8.68761C224.962 9.83961 225.594 11.2796 225.594 13.0076V18.2876C225.594 20.0156 224.962 21.4636 223.698 22.6316C222.45 23.7836 220.882 24.3596 218.994 24.3596C217.122 24.3596 215.554 23.7836 214.29 22.6316C213.042 21.4636 212.418 20.0156 212.418 18.2876ZM216.066 12.9596V18.3356C216.066 19.0396 216.346 19.6396 216.906 20.1356C217.466 20.6156 218.162 20.8556 218.994 20.8556C219.826 20.8556 220.522 20.6156 221.082 20.1356C221.642 19.6396 221.922 19.0396 221.922 18.3356V12.9596C221.922 12.2396 221.642 11.6396 221.082 11.1596C220.522 10.6796 219.826 10.4396 218.994 10.4396C218.162 10.4396 217.466 10.6796 216.906 11.1596C216.346 11.6396 216.066 12.2396 216.066 12.9596Z" fill="url(#paint11_linear)"/>
<defs>
<linearGradient id="paint0_linear" x1="170.622" y1="57.9788" x2="198.81" y2="32.9673" gradientUnits="userSpaceOnUse">
<stop stop-color="#AB85FF"/>
<stop offset="0.526042" stop-color="#EBA3E3"/>
<stop offset="1" stop-color="#FFDBE4"/>
</linearGradient>
<linearGradient id="paint1_linear" x1="-4.55467" y1="30.7963" x2="27.7184" y2="-10.9219" gradientUnits="userSpaceOnUse">
<stop stop-color="#AB85FF"/>
<stop offset="0.526042" stop-color="#EBA3E3"/>
<stop offset="1" stop-color="#FFDBE4"/>
</linearGradient>
<linearGradient id="paint2_linear" x1="155.235" y1="57.53" x2="124.792" y2="39.8755" gradientUnits="userSpaceOnUse">
<stop stop-color="#AB85FF"/>
<stop offset="0.526042" stop-color="#EBA3E3"/>
<stop offset="1" stop-color="#FFDBE4"/>
</linearGradient>
<linearGradient id="paint3_linear" x1="-4.55467" y1="30.7963" x2="27.7184" y2="-10.9219" gradientUnits="userSpaceOnUse">
<stop stop-color="#AB85FF"/>
<stop offset="0.526042" stop-color="#EBA3E3"/>
<stop offset="1" stop-color="#FFDBE4"/>
</linearGradient>
<linearGradient id="paint4_linear" x1="-4.55467" y1="30.7963" x2="27.7184" y2="-10.9219" gradientUnits="userSpaceOnUse">
<stop stop-color="#AB85FF"/>
<stop offset="0.526042" stop-color="#EBA3E3"/>
<stop offset="1" stop-color="#FFDBE4"/>
</linearGradient>
<linearGradient id="paint5_linear" x1="-6.50667" y1="43.9948" x2="39.5977" y2="-15.6028" gradientUnits="userSpaceOnUse">
<stop stop-color="#AB85FF"/>
<stop offset="0.526042" stop-color="#EBA3E3"/>
<stop offset="1" stop-color="#FFDBE4"/>
</linearGradient>
<linearGradient id="paint6_linear" x1="50.7313" y1="97.2149" x2="33.6587" y2="64.4265" gradientUnits="userSpaceOnUse">
<stop stop-color="#AB85FF"/>
<stop offset="0.526042" stop-color="#EBA3E3"/>
<stop offset="1" stop-color="#FFDBE4"/>
</linearGradient>
<linearGradient id="paint7_linear" x1="-4.55467" y1="30.7963" x2="27.7184" y2="-10.9219" gradientUnits="userSpaceOnUse">
<stop stop-color="#AB85FF"/>
<stop offset="0.526042" stop-color="#EBA3E3"/>
<stop offset="1" stop-color="#FFDBE4"/>
</linearGradient>
<linearGradient id="paint8_linear" x1="19.7606" y1="40.3881" x2="33.5733" y2="68.4462" gradientUnits="userSpaceOnUse">
<stop stop-color="#AB85FF"/>
<stop offset="0.526042" stop-color="#EBA3E3"/>
<stop offset="1" stop-color="#FFDBE4"/>
</linearGradient>
<linearGradient id="paint9_linear" x1="69.9504" y1="36.5124" x2="84.7297" y2="71.0745" gradientUnits="userSpaceOnUse">
<stop stop-color="#AB85FF"/>
<stop offset="0.526042" stop-color="#EBA3E3"/>
<stop offset="1" stop-color="#FFDBE4"/>
</linearGradient>
<linearGradient id="paint10_linear" x1="50.4538" y1="60.2873" x2="66.6693" y2="83.3446" gradientUnits="userSpaceOnUse">
<stop stop-color="#AB85FF"/>
<stop offset="0.526042" stop-color="#EBA3E3"/>
<stop offset="1" stop-color="#FFDBE4"/>
</linearGradient>
<linearGradient id="paint11_linear" x1="136.312" y1="39.6429" x2="163.463" y2="-36.4004" gradientUnits="userSpaceOnUse">
<stop stop-color="#AB85FF"/>
<stop offset="0.526042" stop-color="#EBA3E3"/>
<stop offset="1" stop-color="#FFDBE4"/>
</linearGradient>
</defs>
</svg>
