<svg width="341" height="181" fill="none" xmlns="http://www.w3.org/2000/svg"><path d="M214 39v96.5M218 39v96.5M222 39v96.5M226 39v96.5M230 39v96.5M234 39v96.5M238 39v96.5M242 39v96.5M210 39v96.5M95.5 125C82 124 56.2 113.3 55 84.5 55 48.5 82.5 39 96 39h146.5M95.3 125h72.2" stroke="#000"/><path d="M140 36c0-4.2-1.6-8.3-4.5-11.3a15.3 15.3 0 00-22 0c-2.9 3-4.5 7-4.5 11.3h31z" fill="#8052E4"/><path d="M158 36c0-2.9-1.4-5.7-3.8-7.8-2.4-2-5.8-3.2-9.2-3.2-3.4 0-6.8 1.2-9.2 3.2-2.4 2.1-3.8 5-3.8 7.8h26zM117 36c0-1.8-1-3.6-2.6-5-1.7-1.2-4-2-6.4-2-2.4 0-4.7.8-6.4 2a6.3 6.3 0 00-2.6 5h18z" fill="#8052E4"/><circle cx="207.5" cy="113.5" r="41.5" fill="#A57CFE"/><path fill="#31D67B" d="M48 136h245v24H48z"/><circle r="3.1" transform="matrix(-1 0 0 1 266.3 97.1)" fill="#31D67B"/><circle r="3.1" transform="matrix(-1 0 0 1 254 97.1)" fill="#31D67B"/><circle r="3.1" transform="matrix(-1 0 0 1 241.5 97.1)" fill="#31D67B"/><circle r="3.1" transform="matrix(-1 0 0 1 229.1 97.1)" fill="#31D67B"/><circle r="3.1" transform="matrix(-1 0 0 1 266.3 109.5)" fill="#31D67B"/><circle r="3.1" transform="matrix(-1 0 0 1 254 109.5)" fill="#31D67B"/><circle r="3.1" transform="matrix(-1 0 0 1 241.5 109.5)" fill="#31D67B"/><circle r="3.1" transform="matrix(-1 0 0 1 229.1 109.5)" fill="#31D67B"/><circle r="3.1" transform="matrix(-1 0 0 1 229.1 122)" fill="#31D67B"/><circle r="3.1" transform="matrix(-1 0 0 1 241.5 122)" fill="#31D67B"/><circle r="3.1" transform="matrix(-1 0 0 1 254 122)" fill="#31D67B"/><circle r="3.1" transform="matrix(-1 0 0 1 266.3 122)" fill="#31D67B"/><path d="M111 125V78.7m0 0l-.6 1.3m.6-1.3l.7 1.3M121.2 125V60.3m0 0l-.6 1.8m.6-1.8l.6 1.8M101 125V95.8m0 0l-.7.8m.6-.8l.6.8M131.4 125v-21m0 0l-.7.7m.7-.6l.6.6" stroke="#000"/></svg>