<svg width="342" height="181" fill="none" xmlns="http://www.w3.org/2000/svg"><path d="M99.6 118.8l-82.8 13h237l77-13H99.6z" fill="#AB85FF"/><path d="M153.9 86.8l-54 61h154.6l50.3-61h-151z" fill="#4AE991"/><g clip-path="url(#clip0)" fill="#000"><path d="M55.8 50.8c.1 0 .2 0 .3.2l6.8 6.8v.5l-6.3 6.3 6.6 6.5v.5L56.9 78l6.6 6.5c.2.2.2.4 0 .6l-6.3 6.2 6.6 6.6v.5l-6.5 6.4c-.1.2-.4.2-.5 0a.4.4 0 010-.5L63 98l-6.5-6.5a.4.4 0 010-.5v-.1l6.2-6.2-6.5-6.5-.1-.4v-.3l6.3-6.1-6.6-6.6a.4.4 0 010-.5h.1l6.2-6.3-6.5-6.5a.4.4 0 010-.5l.2-.2zM66 50.8s.2 0 .2.2l6.8 6.8c.2.1.2.3 0 .5l-6.2 6.2 6.5 6.6c.2.1.2.4 0 .5L67.1 78l6.5 6.5c.2.2.2.4 0 .6l-6.2 6.2 6.5 6.6c.2.1.2.3 0 .5l-6.4 6.4c-.2.2-.4.2-.6 0a.4.4 0 010-.5l6.2-6.2-6.5-6.5a.4.4 0 010-.5v-.1l6.2-6.2-6.5-6.5c0-.1-.1-.3 0-.4v-.3l6.2-6.2-6.5-6.5a.4.4 0 010-.5l6.2-6.3-6.5-6.5a.4.4 0 010-.5l.3-.2zM76.1 50.8c.1 0 .2 0 .3.2l6.8 6.8v.5l-6.3 6.3 6.5 6.5c.2.1.2.4 0 .5L77.2 78l6.6 6.5v.6l-6.3 6.2 6.6 6.6v.5l-6.5 6.4c-.1.2-.4.2-.5 0a.4.4 0 010-.5l6.2-6.2-6.6-6.5a.4.4 0 010-.5v-.1l6.3-6.2-6.6-6.5v-.4-.3l6.3-6.1-6.6-6.6a.4.4 0 010-.5l6.3-6.3-6.6-6.5a.4.4 0 010-.5l.3-.2z"/></g><g clip-path="url(#clip1)" fill="#000"><path d="M86.8 50.8c.1 0 .2 0 .3.2l6.8 6.8v.5l-6.3 6.3 6.6 6.5v.5L87.9 78l6.6 6.5c.2.2.2.4 0 .6l-6.3 6.2 6.6 6.6v.5l-6.5 6.4c-.1.2-.4.2-.5 0a.4.4 0 010-.5L94 98l-6.5-6.5a.4.4 0 010-.5v-.1l6.2-6.2-6.5-6.5-.1-.4v-.3l6.3-6.1-6.6-6.6a.4.4 0 010-.5h.1l6.2-6.3-6.5-6.5a.4.4 0 010-.5l.2-.2zM97 50.8s.2 0 .2.2l6.8 6.8c.2.1.2.3 0 .5l-6.2 6.2 6.5 6.6c.2.1.2.4 0 .5L98.1 78l6.5 6.5c.2.2.2.4 0 .6l-6.2 6.2 6.5 6.6c.2.1.2.3 0 .5l-6.4 6.4c-.2.2-.4.2-.6 0a.4.4 0 010-.5l6.2-6.2-6.5-6.5a.4.4 0 010-.5v-.1l6.2-6.2-6.5-6.5c0-.1-.1-.3 0-.4v-.3l6.2-6.2-6.5-6.5a.4.4 0 010-.5l6.2-6.3-6.5-6.5a.4.4 0 010-.5l.3-.2zM107.1 50.8c.1 0 .2 0 .3.2l6.8 6.8v.5l-6.3 6.3 6.5 6.5c.2.1.2.4 0 .5l-6.2 6.3 6.6 6.5v.6l-6.3 6.2 6.6 6.6v.5l-6.5 6.4c-.1.2-.4.2-.5 0a.4.4 0 010-.5l6.2-6.2-6.6-6.5a.4.4 0 010-.5v-.1l6.3-6.2-6.6-6.5v-.4-.3l6.3-6.1-6.6-6.6a.4.4 0 010-.5l6.3-6.3-6.6-6.5a.4.4 0 010-.5l.3-.2z"/></g><path d="M188.8 147.8v-73m0 0l-1 2m1-2l1 2M204.8 147.8v-102m0 0l-1 2.8m1-2.8l1 2.8M172.8 147.8v-46m0 0l-1 1.3m1-1.3l1 1.3M220.8 147.8v-33m0 0l-1 1m1-1l1 1" stroke="#000"/><path d="M100.8 53.8a21 21 0 10-42 0h42z" fill="#8052E4"/><path d="M69.8 53.8c0-3.7-1.4-7.2-4-9.9a13.3 13.3 0 00-19 0c-2.6 2.7-4 6.2-4 10h27zM129.8 53.8c0-3.7-2-7.2-5.7-9.9a24 24 0 00-13.8-4 24 24 0 00-13.8 4c-3.6 2.7-5.7 6.2-5.7 10h39z" fill="#8052E4"/><defs><clipPath id="clip0"><path fill="#fff" transform="matrix(1 0 0 -1 42.8 104.8)" d="M0 0h54v54H0z"/></clipPath><clipPath id="clip1"><path fill="#fff" transform="matrix(1 0 0 -1 73.8 104.8)" d="M0 0h54v54H0z"/></clipPath></defs></svg>