<svg width="342" height="181" viewBox="0 0 342 181" fill="none" xmlns="http://www.w3.org/2000/svg">
<g clip-path="url(#clip0)">
<rect width="127" height="89" transform="translate(171.752 44.7773)" fill="#4AE991"/>
<path d="M150.073 80.2358C190.661 43.7203 224.842 43.314 252.614 79.0169C280.387 114.72 314.567 114.314 355.156 77.7981" stroke="#31D67B" stroke-width="2"/>
<path d="M153.51 110.573C188.263 68.4658 222.009 63.0181 254.748 94.2299C287.486 125.442 321.232 119.994 355.985 77.8868" stroke="#31D67B" stroke-width="2"/>
<path d="M152.344 118.702C191.383 80.5339 225.517 78.7097 254.747 113.229C283.977 147.749 318.111 145.925 357.149 107.757" stroke="#31D67B" stroke-width="2"/>
<path d="M151.521 126.742C194.81 93.4735 228.92 95.7105 253.849 133.453C278.779 171.196 312.888 173.433 356.178 140.164" stroke="#31D67B" stroke-width="2"/>
<path d="M142.52 152.742C178.02 125.46 205.991 127.295 226.435 158.246C246.878 189.197 274.849 191.031 310.349 163.749" stroke="#31D67B" stroke-width="2"/>
<path d="M182.86 40.5454C220.325 16.0326 248.077 19.9818 266.116 52.3931C284.155 84.8044 311.907 88.7536 349.371 64.2408" stroke="#31D67B" stroke-width="2"/>
</g>
<path d="M130.712 62.8806L130.35 62.4884L130.348 62.4907L130.712 62.8806ZM138.974 62.8806L138.609 63.2704L138.612 63.2727L138.974 62.8806ZM138.974 75.3906L138.612 74.9984L138.609 75.0007L138.974 75.3906ZM130.712 75.3906L130.348 75.7804L130.35 75.7827L130.712 75.3906ZM132.698 73.5119L132.335 73.9039L132.345 73.913L132.698 73.5119ZM137.01 73.5119L137.362 73.913L137.367 73.9083L137.373 73.9034L137.01 73.5119ZM137.01 64.7805L136.647 65.1725L136.658 65.1816L137.01 64.7805ZM132.698 64.7805L133.055 65.1773L133.06 65.1723L132.698 64.7805ZM129.602 71.5479V66.7232H128.535V71.5479H129.602ZM129.602 66.7232C129.602 65.3298 130.092 64.1914 131.077 63.2704L130.348 62.4907C129.141 63.6191 128.535 65.0425 128.535 66.7232H129.602ZM131.074 63.2727C132.076 62.3478 133.323 61.8772 134.854 61.8772V60.8098C133.082 60.8098 131.568 61.3639 130.35 62.4884L131.074 63.2727ZM134.854 61.8772C136.384 61.8772 137.623 62.3477 138.609 63.2704L139.338 62.4907C138.133 61.364 136.625 60.8098 134.854 60.8098V61.8772ZM138.612 63.2727C139.61 64.1944 140.105 65.3322 140.105 66.7232H141.173C141.173 65.0402 140.558 63.6161 139.336 62.4884L138.612 63.2727ZM140.105 66.7232V71.5479H141.173V66.7232H140.105ZM140.105 71.5479C140.105 72.939 139.61 74.0767 138.612 74.9984L139.336 75.7827C140.558 74.655 141.173 73.231 141.173 71.5479H140.105ZM138.609 75.0007C137.623 75.9234 136.384 76.3939 134.854 76.3939V77.4613C136.625 77.4613 138.133 76.9072 139.338 75.7804L138.609 75.0007ZM134.854 76.3939C133.323 76.3939 132.076 75.9233 131.074 74.9984L130.35 75.7827C131.568 76.9072 133.082 77.4613 134.854 77.4613V76.3939ZM131.077 75.0007C130.092 74.0797 129.602 72.9413 129.602 71.5479H128.535C128.535 73.2286 129.141 74.652 130.348 75.7804L131.077 75.0007ZM131.31 66.6805V71.5906H132.377V66.6805H131.31ZM131.31 71.5906C131.31 72.4983 131.66 73.2793 132.335 73.9037L133.06 73.1201C132.596 72.6914 132.377 72.1915 132.377 71.5906H131.31ZM132.345 73.913C133.036 74.5196 133.884 74.8142 134.854 74.8142V73.7468C134.115 73.7468 133.526 73.529 133.05 73.1109L132.345 73.913ZM134.854 74.8142C135.823 74.8142 136.671 74.5196 137.362 73.913L136.658 73.1109C136.182 73.529 135.592 73.7468 134.854 73.7468V74.8142ZM137.373 73.9034C138.056 73.27 138.419 72.4913 138.419 71.5906H137.351C137.351 72.1701 137.131 72.6722 136.647 73.1205L137.373 73.9034ZM138.419 71.5906V66.6805H137.351V71.5906H138.419ZM138.419 66.6805C138.419 65.7676 138.057 64.9898 137.362 64.3795L136.658 65.1816C137.13 65.596 137.351 66.0849 137.351 66.6805H138.419ZM137.372 64.3888C136.692 63.7598 135.839 63.457 134.854 63.457V64.5244C135.605 64.5244 136.189 64.7481 136.647 65.1723L137.372 64.3888ZM134.854 63.457C133.869 63.457 133.015 63.7598 132.335 64.3888L133.06 65.1723C133.519 64.7481 134.103 64.5244 134.854 64.5244V63.457ZM132.341 64.3839C131.661 64.9956 131.31 65.7723 131.31 66.6805H132.377C132.377 66.0802 132.596 65.5902 133.055 65.1772L132.341 64.3839ZM151.735 65.0581H152.268V64.1977L151.497 64.5799L151.735 65.0581ZM149.151 66.339L148.669 66.5674L148.902 67.0585L149.389 66.8171L149.151 66.339ZM147.999 63.9053L147.762 63.427L147.292 63.6598L147.516 64.1337L147.999 63.9053ZM152.524 61.6637V61.13H152.4L152.288 61.1855L152.524 61.6637ZM154.51 61.6637H155.044V61.13H154.51V61.6637ZM154.51 76.6074V77.1411H155.044V76.6074H154.51ZM151.735 76.6074H151.201V77.1411H151.735V76.6074ZM151.497 64.5799L148.914 65.8608L149.389 66.8171L151.972 65.5362L151.497 64.5799ZM149.634 66.1105L148.481 63.6768L147.516 64.1337L148.669 66.5674L149.634 66.1105ZM148.236 64.3835L152.761 62.142L152.288 61.1855L147.762 63.427L148.236 64.3835ZM152.524 62.1974H154.51V61.13H152.524V62.1974ZM153.976 61.6637V76.6074H155.044V61.6637H153.976ZM154.51 76.0737H151.735V77.1411H154.51V76.0737ZM152.268 76.6074V65.0581H151.201V76.6074H152.268ZM164.861 62.8806L164.499 62.4884L164.496 62.4907L164.861 62.8806ZM173.123 62.8806L172.758 63.2704L172.761 63.2727L173.123 62.8806ZM173.123 75.3906L172.761 74.9984L172.758 75.0007L173.123 75.3906ZM164.861 75.3906L164.496 75.7804L164.499 75.7827L164.861 75.3906ZM166.846 73.5119L166.484 73.9039L166.494 73.913L166.846 73.5119ZM171.159 73.5119L171.511 73.913L171.516 73.9083L171.521 73.9034L171.159 73.5119ZM171.159 64.7805L170.796 65.1725L170.806 65.1816L171.159 64.7805ZM166.846 64.7805L167.203 65.1773L167.209 65.1723L166.846 64.7805ZM163.751 71.5479V66.7232H162.683V71.5479H163.751ZM163.751 66.7232C163.751 65.3298 164.24 64.1914 165.225 63.2704L164.496 62.4907C163.29 63.6191 162.683 65.0425 162.683 66.7232H163.751ZM165.223 63.2727C166.225 62.3478 167.472 61.8772 169.002 61.8772V60.8098C167.231 60.8098 165.717 61.3639 164.499 62.4884L165.223 63.2727ZM169.002 61.8772C170.533 61.8772 171.771 62.3477 172.758 63.2704L173.487 62.4907C172.282 61.364 170.774 60.8098 169.002 60.8098V61.8772ZM172.761 63.2727C173.759 64.1944 174.254 65.3322 174.254 66.7232H175.321C175.321 65.0402 174.706 63.6161 173.485 62.4884L172.761 63.2727ZM174.254 66.7232V71.5479H175.321V66.7232H174.254ZM174.254 71.5479C174.254 72.939 173.759 74.0767 172.761 74.9984L173.485 75.7827C174.706 74.655 175.321 73.231 175.321 71.5479H174.254ZM172.758 75.0007C171.771 75.9234 170.533 76.3939 169.002 76.3939V77.4613C170.774 77.4613 172.282 76.9072 173.487 75.7804L172.758 75.0007ZM169.002 76.3939C167.472 76.3939 166.225 75.9233 165.223 74.9984L164.499 75.7827C165.717 76.9072 167.231 77.4613 169.002 77.4613V76.3939ZM165.225 75.0007C164.24 74.0797 163.751 72.9413 163.751 71.5479H162.683C162.683 73.2286 163.29 74.652 164.496 75.7804L165.225 75.0007ZM165.459 66.6805V71.5906H166.526V66.6805H165.459ZM165.459 71.5906C165.459 72.4983 165.809 73.2793 166.484 73.9037L167.209 73.1201C166.745 72.6914 166.526 72.1915 166.526 71.5906H165.459ZM166.494 73.913C167.185 74.5196 168.033 74.8142 169.002 74.8142V73.7468C168.264 73.7468 167.675 73.529 167.198 73.1109L166.494 73.913ZM169.002 74.8142C169.972 74.8142 170.82 74.5196 171.511 73.913L170.806 73.1109C170.33 73.529 169.741 73.7468 169.002 73.7468V74.8142ZM171.521 73.9034C172.205 73.27 172.568 72.4913 172.568 71.5906H171.5C171.5 72.1701 171.279 72.6722 170.796 73.1205L171.521 73.9034ZM172.568 71.5906V66.6805H171.5V71.5906H172.568ZM172.568 66.6805C172.568 65.7676 172.206 64.9898 171.511 64.3795L170.806 65.1816C171.278 65.596 171.5 66.0849 171.5 66.6805H172.568ZM171.521 64.3888C170.841 63.7598 169.988 63.457 169.002 63.457V64.5244C169.754 64.5244 170.338 64.7481 170.796 65.1723L171.521 64.3888ZM169.002 63.457C168.017 63.457 167.164 63.7598 166.484 64.3888L167.209 65.1723C167.667 64.7481 168.251 64.5244 169.002 64.5244V63.457ZM166.489 64.3839C165.809 64.9956 165.459 65.7723 165.459 66.6805H166.526C166.526 66.0802 166.744 65.5902 167.203 65.1772L166.489 64.3839ZM185.883 65.0581H186.417V64.1977L185.646 64.5799L185.883 65.0581ZM183.3 66.339L182.818 66.5674L183.05 67.0585L183.537 66.8171L183.3 66.339ZM182.147 63.9053L181.91 63.427L181.441 63.6598L181.665 64.1337L182.147 63.9053ZM186.673 61.6637V61.13H186.548L186.436 61.1855L186.673 61.6637ZM188.659 61.6637H189.192V61.13H188.659V61.6637ZM188.659 76.6074V77.1411H189.192V76.6074H188.659ZM185.883 76.6074H185.35V77.1411H185.883V76.6074ZM185.646 64.5799L183.063 65.8608L183.537 66.8171L186.12 65.5362L185.646 64.5799ZM183.782 66.1105L182.63 63.6768L181.665 64.1337L182.818 66.5674L183.782 66.1105ZM182.384 64.3835L186.91 62.142L186.436 61.1855L181.91 63.427L182.384 64.3835ZM186.673 62.1974H188.659V61.13H186.673V62.1974ZM188.125 61.6637V76.6074H189.192V61.6637H188.125ZM188.659 76.0737H185.883V77.1411H188.659V76.0737ZM186.417 76.6074V65.0581H185.35V76.6074H186.417ZM199.01 62.8806L198.648 62.4884L198.645 62.4907L199.01 62.8806ZM207.271 62.8806L206.907 63.2704L206.909 63.2727L207.271 62.8806ZM207.271 75.3906L206.909 74.9984L206.907 75.0007L207.271 75.3906ZM199.01 75.3906L198.645 75.7804L198.648 75.7827L199.01 75.3906ZM200.995 73.5119L200.632 73.9039L200.643 73.913L200.995 73.5119ZM205.307 73.5119L205.659 73.913L205.665 73.9083L205.67 73.9034L205.307 73.5119ZM205.307 64.7805L204.945 65.1725L204.955 65.1816L205.307 64.7805ZM200.995 64.7805L201.352 65.1773L201.357 65.1723L200.995 64.7805ZM197.899 71.5479V66.7232H196.832V71.5479H197.899ZM197.899 66.7232C197.899 65.3298 198.389 64.1914 199.374 63.2704L198.645 62.4907C197.438 63.6191 196.832 65.0425 196.832 66.7232H197.899ZM199.372 63.2727C200.374 62.3478 201.621 61.8772 203.151 61.8772V60.8098C201.38 60.8098 199.866 61.3639 198.648 62.4884L199.372 63.2727ZM203.151 61.8772C204.681 61.8772 205.92 62.3477 206.907 63.2704L207.636 62.4907C206.431 61.364 204.923 60.8098 203.151 60.8098V61.8772ZM206.909 63.2727C207.908 64.1944 208.403 65.3322 208.403 66.7232H209.47C209.47 65.0402 208.855 63.6161 207.633 62.4884L206.909 63.2727ZM208.403 66.7232V71.5479H209.47V66.7232H208.403ZM208.403 71.5479C208.403 72.939 207.908 74.0767 206.909 74.9984L207.633 75.7827C208.855 74.655 209.47 73.231 209.47 71.5479H208.403ZM206.907 75.0007C205.92 75.9234 204.681 76.3939 203.151 76.3939V77.4613C204.923 77.4613 206.431 76.9072 207.636 75.7804L206.907 75.0007ZM203.151 76.3939C201.621 76.3939 200.374 75.9233 199.372 74.9984L198.648 75.7827C199.866 76.9072 201.38 77.4613 203.151 77.4613V76.3939ZM199.374 75.0007C198.389 74.0797 197.899 72.9413 197.899 71.5479H196.832C196.832 73.2286 197.438 74.652 198.645 75.7804L199.374 75.0007ZM199.607 66.6805V71.5906H200.675V66.6805H199.607ZM199.607 71.5906C199.607 72.4983 199.958 73.2793 200.633 73.9037L201.357 73.1201C200.894 72.6914 200.675 72.1915 200.675 71.5906H199.607ZM200.643 73.913C201.334 74.5196 202.181 74.8142 203.151 74.8142V73.7468C202.413 73.7468 201.823 73.529 201.347 73.1109L200.643 73.913ZM203.151 74.8142C204.121 74.8142 204.969 74.5196 205.659 73.913L204.955 73.1109C204.479 73.529 203.889 73.7468 203.151 73.7468V74.8142ZM205.67 73.9034C206.353 73.27 206.716 72.4913 206.716 71.5906H205.649C205.649 72.1701 205.428 72.6722 204.944 73.1205L205.67 73.9034ZM206.716 71.5906V66.6805H205.649V71.5906H206.716ZM206.716 66.6805C206.716 65.7676 206.354 64.9898 205.659 64.3795L204.955 65.1816C205.427 65.596 205.649 66.0849 205.649 66.6805H206.716ZM205.67 64.3888C204.99 63.7598 204.136 63.457 203.151 63.457V64.5244C203.902 64.5244 204.486 64.7481 204.945 65.1723L205.67 64.3888ZM203.151 63.457C202.166 63.457 201.312 63.7598 200.633 64.3888L201.357 65.1723C201.816 64.7481 202.4 64.5244 203.151 64.5244V63.457ZM200.638 64.3839C199.958 64.9956 199.607 65.7723 199.607 66.6805H200.675C200.675 66.0802 200.893 65.5902 201.352 65.1772L200.638 64.3839ZM130.712 94.8806L130.35 94.4884L130.348 94.4907L130.712 94.8806ZM138.974 94.8806L138.609 95.2704L138.612 95.2727L138.974 94.8806ZM138.974 107.391L138.612 106.998L138.609 107.001L138.974 107.391ZM130.712 107.391L130.348 107.78L130.35 107.783L130.712 107.391ZM132.698 105.512L132.335 105.904L132.345 105.913L132.698 105.512ZM137.01 105.512L137.362 105.913L137.367 105.908L137.373 105.903L137.01 105.512ZM137.01 96.7805L136.647 97.1725L136.658 97.1816L137.01 96.7805ZM132.698 96.7805L133.055 97.1773L133.06 97.1723L132.698 96.7805ZM129.602 103.548V98.7232H128.535V103.548H129.602ZM129.602 98.7232C129.602 97.3298 130.092 96.1914 131.077 95.2704L130.348 94.4907C129.141 95.6191 128.535 97.0425 128.535 98.7232H129.602ZM131.074 95.2727C132.076 94.3478 133.323 93.8772 134.854 93.8772V92.8098C133.082 92.8098 131.568 93.3639 130.35 94.4884L131.074 95.2727ZM134.854 93.8772C136.384 93.8772 137.623 94.3477 138.609 95.2704L139.338 94.4907C138.133 93.364 136.625 92.8098 134.854 92.8098V93.8772ZM138.612 95.2727C139.61 96.1944 140.105 97.3322 140.105 98.7232H141.173C141.173 97.0402 140.558 95.6161 139.336 94.4884L138.612 95.2727ZM140.105 98.7232V103.548H141.173V98.7232H140.105ZM140.105 103.548C140.105 104.939 139.61 106.077 138.612 106.998L139.336 107.783C140.558 106.655 141.173 105.231 141.173 103.548H140.105ZM138.609 107.001C137.623 107.923 136.384 108.394 134.854 108.394V109.461C136.625 109.461 138.133 108.907 139.338 107.78L138.609 107.001ZM134.854 108.394C133.323 108.394 132.076 107.923 131.074 106.998L130.35 107.783C131.568 108.907 133.082 109.461 134.854 109.461V108.394ZM131.077 107.001C130.092 106.08 129.602 104.941 129.602 103.548H128.535C128.535 105.229 129.141 106.652 130.348 107.78L131.077 107.001ZM131.31 98.6805V103.591H132.377V98.6805H131.31ZM131.31 103.591C131.31 104.498 131.66 105.279 132.335 105.904L133.06 105.12C132.596 104.691 132.377 104.191 132.377 103.591H131.31ZM132.345 105.913C133.036 106.52 133.884 106.814 134.854 106.814V105.747C134.115 105.747 133.526 105.529 133.05 105.111L132.345 105.913ZM134.854 106.814C135.823 106.814 136.671 106.52 137.362 105.913L136.658 105.111C136.182 105.529 135.592 105.747 134.854 105.747V106.814ZM137.373 105.903C138.056 105.27 138.419 104.491 138.419 103.591H137.351C137.351 104.17 137.131 104.672 136.647 105.121L137.373 105.903ZM138.419 103.591V98.6805H137.351V103.591H138.419ZM138.419 98.6805C138.419 97.7676 138.057 96.9898 137.362 96.3795L136.658 97.1816C137.13 97.596 137.351 98.0849 137.351 98.6805H138.419ZM137.372 96.3888C136.692 95.7598 135.839 95.457 134.854 95.457V96.5244C135.605 96.5244 136.189 96.7481 136.647 97.1723L137.372 96.3888ZM134.854 95.457C133.869 95.457 133.015 95.7598 132.335 96.3888L133.06 97.1723C133.519 96.7481 134.103 96.5244 134.854 96.5244V95.457ZM132.341 96.3839C131.661 96.9956 131.31 97.7723 131.31 98.6805H132.377C132.377 98.0802 132.596 97.5902 133.055 97.1772L132.341 96.3839ZM151.735 97.0581H152.268V96.1977L151.497 96.5799L151.735 97.0581ZM149.151 98.339L148.669 98.5674L148.902 99.0585L149.389 98.8171L149.151 98.339ZM147.999 95.9053L147.762 95.427L147.292 95.6598L147.516 96.1337L147.999 95.9053ZM152.524 93.6637V93.13H152.4L152.288 93.1855L152.524 93.6637ZM154.51 93.6637H155.044V93.13H154.51V93.6637ZM154.51 108.607V109.141H155.044V108.607H154.51ZM151.735 108.607H151.201V109.141H151.735V108.607ZM151.497 96.5799L148.914 97.8608L149.389 98.8171L151.972 97.5362L151.497 96.5799ZM149.634 98.1105L148.481 95.6768L147.516 96.1337L148.669 98.5674L149.634 98.1105ZM148.236 96.3835L152.761 94.142L152.288 93.1855L147.762 95.427L148.236 96.3835ZM152.524 94.1974H154.51V93.13H152.524V94.1974ZM153.976 93.6637V108.607H155.044V93.6637H153.976ZM154.51 108.074H151.735V109.141H154.51V108.074ZM152.268 108.607V97.0581H151.201V108.607H152.268ZM164.861 94.8806L164.499 94.4884L164.496 94.4907L164.861 94.8806ZM173.123 94.8806L172.758 95.2704L172.761 95.2727L173.123 94.8806ZM173.123 107.391L172.761 106.998L172.758 107.001L173.123 107.391ZM164.861 107.391L164.496 107.78L164.499 107.783L164.861 107.391ZM166.846 105.512L166.484 105.904L166.494 105.913L166.846 105.512ZM171.159 105.512L171.511 105.913L171.516 105.908L171.521 105.903L171.159 105.512ZM171.159 96.7805L170.796 97.1725L170.806 97.1816L171.159 96.7805ZM166.846 96.7805L167.203 97.1773L167.209 97.1723L166.846 96.7805ZM163.751 103.548V98.7232H162.683V103.548H163.751ZM163.751 98.7232C163.751 97.3298 164.24 96.1914 165.225 95.2704L164.496 94.4907C163.29 95.6191 162.683 97.0425 162.683 98.7232H163.751ZM165.223 95.2727C166.225 94.3478 167.472 93.8772 169.002 93.8772V92.8098C167.231 92.8098 165.717 93.3639 164.499 94.4884L165.223 95.2727ZM169.002 93.8772C170.533 93.8772 171.771 94.3477 172.758 95.2704L173.487 94.4907C172.282 93.364 170.774 92.8098 169.002 92.8098V93.8772ZM172.761 95.2727C173.759 96.1944 174.254 97.3322 174.254 98.7232H175.321C175.321 97.0402 174.706 95.6161 173.485 94.4884L172.761 95.2727ZM174.254 98.7232V103.548H175.321V98.7232H174.254ZM174.254 103.548C174.254 104.939 173.759 106.077 172.761 106.998L173.485 107.783C174.706 106.655 175.321 105.231 175.321 103.548H174.254ZM172.758 107.001C171.771 107.923 170.533 108.394 169.002 108.394V109.461C170.774 109.461 172.282 108.907 173.487 107.78L172.758 107.001ZM169.002 108.394C167.472 108.394 166.225 107.923 165.223 106.998L164.499 107.783C165.717 108.907 167.231 109.461 169.002 109.461V108.394ZM165.225 107.001C164.24 106.08 163.751 104.941 163.751 103.548H162.683C162.683 105.229 163.29 106.652 164.496 107.78L165.225 107.001ZM165.459 98.6805V103.591H166.526V98.6805H165.459ZM165.459 103.591C165.459 104.498 165.809 105.279 166.484 105.904L167.209 105.12C166.745 104.691 166.526 104.191 166.526 103.591H165.459ZM166.494 105.913C167.185 106.52 168.033 106.814 169.002 106.814V105.747C168.264 105.747 167.675 105.529 167.198 105.111L166.494 105.913ZM169.002 106.814C169.972 106.814 170.82 106.52 171.511 105.913L170.806 105.111C170.33 105.529 169.741 105.747 169.002 105.747V106.814ZM171.521 105.903C172.205 105.27 172.568 104.491 172.568 103.591H171.5C171.5 104.17 171.279 104.672 170.796 105.121L171.521 105.903ZM172.568 103.591V98.6805H171.5V103.591H172.568ZM172.568 98.6805C172.568 97.7676 172.206 96.9898 171.511 96.3795L170.806 97.1816C171.278 97.596 171.5 98.0849 171.5 98.6805H172.568ZM171.521 96.3888C170.841 95.7598 169.988 95.457 169.002 95.457V96.5244C169.754 96.5244 170.338 96.7481 170.796 97.1723L171.521 96.3888ZM169.002 95.457C168.017 95.457 167.164 95.7598 166.484 96.3888L167.209 97.1723C167.667 96.7481 168.251 96.5244 169.002 96.5244V95.457ZM166.489 96.3839C165.809 96.9956 165.459 97.7723 165.459 98.6805H166.526C166.526 98.0802 166.744 97.5902 167.203 97.1772L166.489 96.3839ZM185.883 97.0581H186.417V96.1977L185.646 96.5799L185.883 97.0581ZM183.3 98.339L182.818 98.5674L183.05 99.0585L183.537 98.8171L183.3 98.339ZM182.147 95.9053L181.91 95.427L181.441 95.6598L181.665 96.1337L182.147 95.9053ZM186.673 93.6637V93.13H186.548L186.436 93.1855L186.673 93.6637ZM188.659 93.6637H189.192V93.13H188.659V93.6637ZM188.659 108.607V109.141H189.192V108.607H188.659ZM185.883 108.607H185.35V109.141H185.883V108.607ZM185.646 96.5799L183.063 97.8608L183.537 98.8171L186.12 97.5362L185.646 96.5799ZM183.782 98.1105L182.63 95.6768L181.665 96.1337L182.818 98.5674L183.782 98.1105ZM182.384 96.3835L186.91 94.142L186.436 93.1855L181.91 95.427L182.384 96.3835ZM186.673 94.1974H188.659V93.13H186.673V94.1974ZM188.125 93.6637V108.607H189.192V93.6637H188.125ZM188.659 108.074H185.883V109.141H188.659V108.074ZM186.417 108.607V97.0581H185.35V108.607H186.417ZM199.01 94.8806L198.648 94.4884L198.645 94.4907L199.01 94.8806ZM207.271 94.8806L206.907 95.2704L206.909 95.2727L207.271 94.8806ZM207.271 107.391L206.909 106.998L206.907 107.001L207.271 107.391ZM199.01 107.391L198.645 107.78L198.648 107.783L199.01 107.391ZM200.995 105.512L200.632 105.904L200.643 105.913L200.995 105.512ZM205.307 105.512L205.659 105.913L205.665 105.908L205.67 105.903L205.307 105.512ZM205.307 96.7805L204.945 97.1725L204.955 97.1816L205.307 96.7805ZM200.995 96.7805L201.352 97.1773L201.357 97.1723L200.995 96.7805ZM197.899 103.548V98.7232H196.832V103.548H197.899ZM197.899 98.7232C197.899 97.3298 198.389 96.1914 199.374 95.2704L198.645 94.4907C197.438 95.6191 196.832 97.0425 196.832 98.7232H197.899ZM199.372 95.2727C200.374 94.3478 201.621 93.8772 203.151 93.8772V92.8098C201.38 92.8098 199.866 93.3639 198.648 94.4884L199.372 95.2727ZM203.151 93.8772C204.681 93.8772 205.92 94.3477 206.907 95.2704L207.636 94.4907C206.431 93.364 204.923 92.8098 203.151 92.8098V93.8772ZM206.909 95.2727C207.908 96.1944 208.403 97.3322 208.403 98.7232H209.47C209.47 97.0402 208.855 95.6161 207.633 94.4884L206.909 95.2727ZM208.403 98.7232V103.548H209.47V98.7232H208.403ZM208.403 103.548C208.403 104.939 207.908 106.077 206.909 106.998L207.633 107.783C208.855 106.655 209.47 105.231 209.47 103.548H208.403ZM206.907 107.001C205.92 107.923 204.681 108.394 203.151 108.394V109.461C204.923 109.461 206.431 108.907 207.636 107.78L206.907 107.001ZM203.151 108.394C201.621 108.394 200.374 107.923 199.372 106.998L198.648 107.783C199.866 108.907 201.38 109.461 203.151 109.461V108.394ZM199.374 107.001C198.389 106.08 197.899 104.941 197.899 103.548H196.832C196.832 105.229 197.438 106.652 198.645 107.78L199.374 107.001ZM199.607 98.6805V103.591H200.675V98.6805H199.607ZM199.607 103.591C199.607 104.498 199.958 105.279 200.633 105.904L201.357 105.12C200.894 104.691 200.675 104.191 200.675 103.591H199.607ZM200.643 105.913C201.334 106.52 202.181 106.814 203.151 106.814V105.747C202.413 105.747 201.823 105.529 201.347 105.111L200.643 105.913ZM203.151 106.814C204.121 106.814 204.969 106.52 205.659 105.913L204.955 105.111C204.479 105.529 203.889 105.747 203.151 105.747V106.814ZM205.67 105.903C206.353 105.27 206.716 104.491 206.716 103.591H205.649C205.649 104.17 205.428 104.672 204.944 105.121L205.67 105.903ZM206.716 103.591V98.6805H205.649V103.591H206.716ZM206.716 98.6805C206.716 97.7676 206.354 96.9898 205.659 96.3795L204.955 97.1816C205.427 97.596 205.649 98.0849 205.649 98.6805H206.716ZM205.67 96.3888C204.99 95.7598 204.136 95.457 203.151 95.457V96.5244C203.902 96.5244 204.486 96.7481 204.945 97.1723L205.67 96.3888ZM203.151 95.457C202.166 95.457 201.312 95.7598 200.633 96.3888L201.357 97.1723C201.816 96.7481 202.4 96.5244 203.151 96.5244V95.457ZM200.638 96.3839C199.958 96.9956 199.607 97.7723 199.607 98.6805H200.675C200.675 98.0802 200.893 97.5902 201.352 97.1772L200.638 96.3839Z" fill="black"/>
<path d="M124.264 74.8448V70.0201C124.264 68.483 124.812 67.2022 125.907 66.1774C127.018 65.1527 128.398 64.6404 130.049 64.6404C131.7 64.6404 133.073 65.1527 134.169 66.1774C135.279 67.2022 135.834 68.483 135.834 70.0201V74.8448C135.834 76.3819 135.279 77.6627 134.169 78.6875C133.073 79.7122 131.7 80.2245 130.049 80.2245C128.398 80.2245 127.018 79.7122 125.907 78.6875C124.812 77.6627 124.264 76.3819 124.264 74.8448ZM127.039 69.9774V74.8875C127.039 75.6418 127.324 76.2822 127.893 76.8088C128.476 77.3212 129.195 77.5773 130.049 77.5773C130.903 77.5773 131.622 77.3212 132.205 76.8088C132.789 76.268 133.08 75.6276 133.08 74.8875V69.9774C133.08 69.2231 132.789 68.5898 132.205 68.0774C131.636 67.5508 130.917 67.2875 130.049 67.2875C129.181 67.2875 128.462 67.5508 127.893 68.0774C127.324 68.5898 127.039 69.2231 127.039 69.9774ZM146.93 68.355L144.347 69.6358L143.194 67.2022L147.72 64.9606H149.705V79.9043H146.93V68.355ZM158.412 74.8448V70.0201C158.412 68.483 158.96 67.2022 160.056 66.1774C161.166 65.1527 162.547 64.6404 164.198 64.6404C165.849 64.6404 167.222 65.1527 168.318 66.1774C169.428 67.2022 169.983 68.483 169.983 70.0201V74.8448C169.983 76.3819 169.428 77.6627 168.318 78.6875C167.222 79.7122 165.849 80.2245 164.198 80.2245C162.547 80.2245 161.166 79.7122 160.056 78.6875C158.96 77.6627 158.412 76.3819 158.412 74.8448ZM161.188 69.9774V74.8875C161.188 75.6418 161.472 76.2822 162.042 76.8088C162.625 77.3212 163.344 77.5773 164.198 77.5773C165.052 77.5773 165.77 77.3212 166.354 76.8088C166.937 76.268 167.229 75.6276 167.229 74.8875V69.9774C167.229 69.2231 166.937 68.5898 166.354 68.0774C165.785 67.5508 165.066 67.2875 164.198 67.2875C163.33 67.2875 162.611 67.5508 162.042 68.0774C161.472 68.5898 161.188 69.2231 161.188 69.9774ZM181.079 68.355L178.495 69.6358L177.343 67.2022L181.868 64.9606H183.854V79.9043H181.079V68.355ZM192.561 74.8448V70.0201C192.561 68.483 193.109 67.2022 194.205 66.1774C195.315 65.1527 196.695 64.6404 198.346 64.6404C199.997 64.6404 201.371 65.1527 202.467 66.1774C203.577 67.2022 204.132 68.483 204.132 70.0201V74.8448C204.132 76.3819 203.577 77.6627 202.467 78.6875C201.371 79.7122 199.997 80.2245 198.346 80.2245C196.695 80.2245 195.315 79.7122 194.205 78.6875C193.109 77.6627 192.561 76.3819 192.561 74.8448ZM195.336 69.9774V74.8875C195.336 75.6418 195.621 76.2822 196.19 76.8088C196.774 77.3212 197.492 77.5773 198.346 77.5773C199.2 77.5773 199.919 77.3212 200.503 76.8088C201.086 76.268 201.378 75.6276 201.378 74.8875V69.9774C201.378 69.2231 201.086 68.5898 200.503 68.0774C199.933 67.5508 199.215 67.2875 198.346 67.2875C197.478 67.2875 196.76 67.5508 196.19 68.0774C195.621 68.5898 195.336 69.2231 195.336 69.9774ZM124.264 106.845V102.02C124.264 100.483 124.812 99.2022 125.907 98.1774C127.018 97.1527 128.398 96.6404 130.049 96.6404C131.7 96.6404 133.073 97.1527 134.169 98.1774C135.279 99.2022 135.834 100.483 135.834 102.02V106.845C135.834 108.382 135.279 109.663 134.169 110.687C133.073 111.712 131.7 112.225 130.049 112.225C128.398 112.225 127.018 111.712 125.907 110.687C124.812 109.663 124.264 108.382 124.264 106.845ZM127.039 101.977V106.887C127.039 107.642 127.324 108.282 127.893 108.809C128.476 109.321 129.195 109.577 130.049 109.577C130.903 109.577 131.622 109.321 132.205 108.809C132.789 108.268 133.08 107.628 133.08 106.887V101.977C133.08 101.223 132.789 100.59 132.205 100.077C131.636 99.5508 130.917 99.2875 130.049 99.2875C129.181 99.2875 128.462 99.5508 127.893 100.077C127.324 100.59 127.039 101.223 127.039 101.977ZM146.93 100.355L144.347 101.636L143.194 99.2022L147.72 96.9606H149.705V111.904H146.93V100.355ZM158.412 106.845V102.02C158.412 100.483 158.96 99.2022 160.056 98.1774C161.166 97.1527 162.547 96.6404 164.198 96.6404C165.849 96.6404 167.222 97.1527 168.318 98.1774C169.428 99.2022 169.983 100.483 169.983 102.02V106.845C169.983 108.382 169.428 109.663 168.318 110.687C167.222 111.712 165.849 112.225 164.198 112.225C162.547 112.225 161.166 111.712 160.056 110.687C158.96 109.663 158.412 108.382 158.412 106.845ZM161.188 101.977V106.887C161.188 107.642 161.472 108.282 162.042 108.809C162.625 109.321 163.344 109.577 164.198 109.577C165.052 109.577 165.77 109.321 166.354 108.809C166.937 108.268 167.229 107.628 167.229 106.887V101.977C167.229 101.223 166.937 100.59 166.354 100.077C165.785 99.5508 165.066 99.2875 164.198 99.2875C163.33 99.2875 162.611 99.5508 162.042 100.077C161.472 100.59 161.188 101.223 161.188 101.977ZM181.079 100.355L178.495 101.636L177.343 99.2022L181.868 96.9606H183.854V111.904H181.079V100.355ZM192.561 106.845V102.02C192.561 100.483 193.109 99.2022 194.205 98.1774C195.315 97.1527 196.695 96.6404 198.346 96.6404C199.997 96.6404 201.371 97.1527 202.467 98.1774C203.577 99.2022 204.132 100.483 204.132 102.02V106.845C204.132 108.382 203.577 109.663 202.467 110.687C201.371 111.712 199.997 112.225 198.346 112.225C196.695 112.225 195.315 111.712 194.205 110.687C193.109 109.663 192.561 108.382 192.561 106.845ZM195.336 101.977V106.887C195.336 107.642 195.621 108.282 196.19 108.809C196.774 109.321 197.492 109.577 198.346 109.577C199.2 109.577 199.919 109.321 200.503 108.809C201.086 108.268 201.378 107.628 201.378 106.887V101.977C201.378 101.223 201.086 100.59 200.503 100.077C199.933 99.5508 199.215 99.2875 198.346 99.2875C197.478 99.2875 196.76 99.5508 196.19 100.077C195.621 100.59 195.336 101.223 195.336 101.977Z" fill="#F5F5F5"/>
<path d="M125.907 66.1774L125.545 65.7853L125.543 65.7876L125.907 66.1774ZM134.169 66.1774L133.805 66.5673L133.807 66.5696L134.169 66.1774ZM134.169 78.6875L133.807 78.2953L133.805 78.2976L134.169 78.6875ZM125.907 78.6875L125.543 79.0773L125.545 79.0796L125.907 78.6875ZM127.893 76.8088L127.53 77.2007L127.541 77.2099L127.893 76.8088ZM132.205 76.8088L132.557 77.2099L132.563 77.2051L132.568 77.2003L132.205 76.8088ZM132.205 68.0774L131.843 68.4693L131.853 68.4785L132.205 68.0774ZM127.893 68.0774L128.25 68.4742L128.255 68.4692L127.893 68.0774ZM124.797 74.8448V70.0201H123.73V74.8448H124.797ZM124.797 70.0201C124.797 68.6267 125.287 67.4883 126.272 66.5673L125.543 65.7876C124.336 66.916 123.73 68.3394 123.73 70.0201H124.797ZM126.269 66.5696C127.271 65.6447 128.519 65.1741 130.049 65.1741V64.1067C128.277 64.1067 126.764 64.6608 125.545 65.7853L126.269 66.5696ZM130.049 65.1741C131.579 65.1741 132.818 65.6446 133.805 66.5673L134.534 65.7876C133.329 64.6608 131.821 64.1067 130.049 64.1067V65.1741ZM133.807 66.5696C134.806 67.4913 135.301 68.629 135.301 70.0201H136.368C136.368 68.337 135.753 66.913 134.531 65.7853L133.807 66.5696ZM135.301 70.0201V74.8448H136.368V70.0201H135.301ZM135.301 74.8448C135.301 76.2358 134.806 77.3736 133.807 78.2953L134.531 79.0796C135.753 77.9519 136.368 76.5279 136.368 74.8448H135.301ZM133.805 78.2976C132.818 79.2203 131.579 79.6908 130.049 79.6908V80.7582C131.821 80.7582 133.329 80.2041 134.534 79.0773L133.805 78.2976ZM130.049 79.6908C128.519 79.6908 127.271 79.2202 126.269 78.2953L125.545 79.0796C126.764 80.2041 128.277 80.7582 130.049 80.7582V79.6908ZM126.272 78.2976C125.287 77.3766 124.797 76.2382 124.797 74.8448H123.73C123.73 76.5255 124.336 77.9489 125.543 79.0773L126.272 78.2976ZM126.505 69.9774V74.8875H127.573V69.9774H126.505ZM126.505 74.8875C126.505 75.7952 126.855 76.5762 127.53 77.2006L128.255 76.417C127.792 75.9882 127.573 75.4884 127.573 74.8875H126.505ZM127.541 77.2099C128.232 77.8165 129.079 78.1111 130.049 78.1111V77.0436C129.311 77.0436 128.721 76.8259 128.245 76.4078L127.541 77.2099ZM130.049 78.1111C131.019 78.1111 131.866 77.8165 132.557 77.2099L131.853 76.4078C131.377 76.8259 130.787 77.0436 130.049 77.0436V78.1111ZM132.568 77.2003C133.251 76.5669 133.614 75.7882 133.614 74.8875H132.547C132.547 75.4669 132.326 75.9691 131.842 76.4174L132.568 77.2003ZM133.614 74.8875V69.9774H132.547V74.8875H133.614ZM133.614 69.9774C133.614 69.0644 133.252 68.2867 132.557 67.6764L131.853 68.4785C132.325 68.8929 132.547 69.3818 132.547 69.9774H133.614ZM132.568 67.6856C131.888 67.0567 131.034 66.7538 130.049 66.7538V67.8212C130.8 67.8212 131.384 68.045 131.843 68.4692L132.568 67.6856ZM130.049 66.7538C129.064 66.7538 128.21 67.0567 127.53 67.6856L128.255 68.4692C128.714 68.045 129.298 67.8212 130.049 67.8212V66.7538ZM127.536 67.6807C126.856 68.2925 126.505 69.0692 126.505 69.9774H127.573C127.573 69.377 127.791 68.887 128.25 68.4741L127.536 67.6807ZM146.93 68.355H147.464V67.4946L146.693 67.8768L146.93 68.355ZM144.347 69.6358L143.864 69.8643L144.097 70.3554L144.584 70.114L144.347 69.6358ZM143.194 67.2022L142.957 66.7239L142.487 66.9567L142.712 67.4306L143.194 67.2022ZM147.72 64.9606V64.4269H147.595L147.483 64.4823L147.72 64.9606ZM149.705 64.9606H150.239V64.4269H149.705V64.9606ZM149.705 79.9043V80.438H150.239V79.9043H149.705ZM146.93 79.9043H146.396V80.438H146.93V79.9043ZM146.693 67.8768L144.11 69.1577L144.584 70.114L147.167 68.8331L146.693 67.8768ZM144.829 69.4074L143.676 66.9737L142.712 67.4306L143.864 69.8643L144.829 69.4074ZM143.431 67.6804L147.957 65.4389L147.483 64.4823L142.957 66.7239L143.431 67.6804ZM147.72 65.4943H149.705V64.4269H147.72V65.4943ZM149.171 64.9606V79.9043H150.239V64.9606H149.171ZM149.705 79.3706H146.93V80.438H149.705V79.3706ZM147.464 79.9043V68.355H146.396V79.9043H147.464ZM160.056 66.1774L159.694 65.7853L159.692 65.7876L160.056 66.1774ZM168.318 66.1774L167.953 66.5673L167.956 66.5696L168.318 66.1774ZM168.318 78.6875L167.956 78.2953L167.953 78.2976L168.318 78.6875ZM160.056 78.6875L159.692 79.0773L159.694 79.0796L160.056 78.6875ZM162.042 76.8088L161.679 77.2007L161.689 77.2099L162.042 76.8088ZM166.354 76.8088L166.706 77.2099L166.711 77.2051L166.717 77.2003L166.354 76.8088ZM166.354 68.0774L165.991 68.4693L166.002 68.4785L166.354 68.0774ZM162.042 68.0774L162.399 68.4742L162.404 68.4692L162.042 68.0774ZM158.946 74.8448V70.0201H157.879V74.8448H158.946ZM158.946 70.0201C158.946 68.6267 159.436 67.4883 160.421 66.5673L159.692 65.7876C158.485 66.916 157.879 68.3394 157.879 70.0201H158.946ZM160.418 66.5696C161.42 65.6447 162.667 65.1741 164.198 65.1741V64.1067C162.426 64.1067 160.912 64.6608 159.694 65.7853L160.418 66.5696ZM164.198 65.1741C165.728 65.1741 166.967 65.6446 167.953 66.5673L168.682 65.7876C167.477 64.6608 165.969 64.1067 164.198 64.1067V65.1741ZM167.956 66.5696C168.954 67.4913 169.449 68.629 169.449 70.0201H170.517C170.517 68.337 169.902 66.913 168.68 65.7853L167.956 66.5696ZM169.449 70.0201V74.8448H170.517V70.0201H169.449ZM169.449 74.8448C169.449 76.2358 168.954 77.3736 167.956 78.2953L168.68 79.0796C169.902 77.9519 170.517 76.5279 170.517 74.8448H169.449ZM167.953 78.2976C166.967 79.2203 165.728 79.6908 164.198 79.6908V80.7582C165.969 80.7582 167.477 80.2041 168.682 79.0773L167.953 78.2976ZM164.198 79.6908C162.667 79.6908 161.42 79.2202 160.418 78.2953L159.694 79.0796C160.912 80.2041 162.426 80.7582 164.198 80.7582V79.6908ZM160.421 78.2976C159.436 77.3766 158.946 76.2382 158.946 74.8448H157.879C157.879 76.5255 158.485 77.9489 159.692 79.0773L160.421 78.2976ZM160.654 69.9774V74.8875H161.721V69.9774H160.654ZM160.654 74.8875C160.654 75.7952 161.004 76.5762 161.679 77.2006L162.404 76.417C161.94 75.9882 161.721 75.4884 161.721 74.8875H160.654ZM161.689 77.2099C162.38 77.8165 163.228 78.1111 164.198 78.1111V77.0436C163.459 77.0436 162.87 76.8259 162.394 76.4078L161.689 77.2099ZM164.198 78.1111C165.167 78.1111 166.015 77.8165 166.706 77.2099L166.002 76.4078C165.526 76.8259 164.936 77.0436 164.198 77.0436V78.1111ZM166.717 77.2003C167.4 76.5669 167.763 75.7882 167.763 74.8875H166.695C166.695 75.4669 166.475 75.9691 165.991 76.4174L166.717 77.2003ZM167.763 74.8875V69.9774H166.695V74.8875H167.763ZM167.763 69.9774C167.763 69.0644 167.401 68.2867 166.706 67.6764L166.002 68.4785C166.474 68.8929 166.695 69.3818 166.695 69.9774H167.763ZM166.716 67.6856C166.036 67.0567 165.183 66.7538 164.198 66.7538V67.8212C164.949 67.8212 165.533 68.045 165.991 68.4692L166.716 67.6856ZM164.198 66.7538C163.213 66.7538 162.359 67.0567 161.679 67.6856L162.404 68.4692C162.863 68.045 163.447 67.8212 164.198 67.8212V66.7538ZM161.685 67.6807C161.005 68.2925 160.654 69.0692 160.654 69.9774H161.721C161.721 69.377 161.94 68.887 162.399 68.4741L161.685 67.6807ZM181.079 68.355H181.612V67.4946L180.841 67.8768L181.079 68.355ZM178.495 69.6358L178.013 69.8643L178.246 70.3554L178.733 70.114L178.495 69.6358ZM177.343 67.2022L177.106 66.7239L176.636 66.9567L176.86 67.4306L177.343 67.2022ZM181.868 64.9606V64.4269H181.744L181.632 64.4823L181.868 64.9606ZM183.854 64.9606H184.388V64.4269H183.854V64.9606ZM183.854 79.9043V80.438H184.388V79.9043H183.854ZM181.079 79.9043H180.545V80.438H181.079V79.9043ZM180.841 67.8768L178.258 69.1577L178.733 70.114L181.316 68.8331L180.841 67.8768ZM178.978 69.4074L177.825 66.9737L176.86 67.4306L178.013 69.8643L178.978 69.4074ZM177.58 67.6804L182.105 65.4389L181.632 64.4823L177.106 66.7239L177.58 67.6804ZM181.868 65.4943H183.854V64.4269H181.868V65.4943ZM183.32 64.9606V79.9043H184.388V64.9606H183.32ZM183.854 79.3706H181.079V80.438H183.854V79.3706ZM181.612 79.9043V68.355H180.545V79.9043H181.612ZM194.205 66.1774L193.843 65.7853L193.84 65.7876L194.205 66.1774ZM202.467 66.1774L202.102 66.5673L202.105 66.5696L202.467 66.1774ZM202.467 78.6875L202.105 78.2953L202.102 78.2976L202.467 78.6875ZM194.205 78.6875L193.84 79.0773L193.843 79.0796L194.205 78.6875ZM196.19 76.8088L195.828 77.2007L195.838 77.2099L196.19 76.8088ZM200.503 76.8088L200.855 77.2099L200.86 77.2051L200.865 77.2003L200.503 76.8088ZM200.503 68.0774L200.14 68.4693L200.15 68.4785L200.503 68.0774ZM196.19 68.0774L196.547 68.4742L196.553 68.4692L196.19 68.0774ZM193.095 74.8448V70.0201H192.027V74.8448H193.095ZM193.095 70.0201C193.095 68.6267 193.584 67.4883 194.569 66.5673L193.84 65.7876C192.634 66.916 192.027 68.3394 192.027 70.0201H193.095ZM194.567 66.5696C195.569 65.6447 196.816 65.1741 198.346 65.1741V64.1067C196.575 64.1067 195.061 64.6608 193.843 65.7853L194.567 66.5696ZM198.346 65.1741C199.877 65.1741 201.115 65.6446 202.102 66.5673L202.831 65.7876C201.626 64.6608 200.118 64.1067 198.346 64.1067V65.1741ZM202.105 66.5696C203.103 67.4913 203.598 68.629 203.598 70.0201H204.665C204.665 68.337 204.05 66.913 202.829 65.7853L202.105 66.5696ZM203.598 70.0201V74.8448H204.665V70.0201H203.598ZM203.598 74.8448C203.598 76.2358 203.103 77.3736 202.105 78.2953L202.829 79.0796C204.05 77.9519 204.665 76.5279 204.665 74.8448H203.598ZM202.102 78.2976C201.115 79.2203 199.877 79.6908 198.346 79.6908V80.7582C200.118 80.7582 201.626 80.2041 202.831 79.0773L202.102 78.2976ZM198.346 79.6908C196.816 79.6908 195.569 79.2202 194.567 78.2953L193.843 79.0796C195.061 80.2041 196.575 80.7582 198.346 80.7582V79.6908ZM194.569 78.2976C193.584 77.3766 193.095 76.2382 193.095 74.8448H192.027C192.027 76.5255 192.634 77.9489 193.84 79.0773L194.569 78.2976ZM194.803 69.9774V74.8875H195.87V69.9774H194.803ZM194.803 74.8875C194.803 75.7952 195.153 76.5762 195.828 77.2006L196.553 76.417C196.089 75.9882 195.87 75.4884 195.87 74.8875H194.803ZM195.838 77.2099C196.529 77.8165 197.377 78.1111 198.346 78.1111V77.0436C197.608 77.0436 197.019 76.8259 196.542 76.4078L195.838 77.2099ZM198.346 78.1111C199.316 78.1111 200.164 77.8165 200.855 77.2099L200.15 76.4078C199.674 76.8259 199.085 77.0436 198.346 77.0436V78.1111ZM200.865 77.2003C201.549 76.5669 201.912 75.7882 201.912 74.8875H200.844C200.844 75.4669 200.623 75.9691 200.14 76.4174L200.865 77.2003ZM201.912 74.8875V69.9774H200.844V74.8875H201.912ZM201.912 69.9774C201.912 69.0644 201.55 68.2867 200.855 67.6764L200.15 68.4785C200.622 68.8929 200.844 69.3818 200.844 69.9774H201.912ZM200.865 67.6856C200.185 67.0567 199.332 66.7538 198.346 66.7538V67.8212C199.098 67.8212 199.682 68.045 200.14 68.4692L200.865 67.6856ZM198.346 66.7538C197.361 66.7538 196.508 67.0567 195.828 67.6856L196.553 68.4692C197.011 68.045 197.595 67.8212 198.346 67.8212V66.7538ZM195.833 67.6807C195.153 68.2925 194.803 69.0692 194.803 69.9774H195.87C195.87 69.377 196.088 68.887 196.547 68.4741L195.833 67.6807ZM125.907 98.1774L125.545 97.7853L125.543 97.7876L125.907 98.1774ZM134.169 98.1774L133.805 98.5673L133.807 98.5696L134.169 98.1774ZM134.169 110.687L133.807 110.295L133.805 110.298L134.169 110.687ZM125.907 110.687L125.543 111.077L125.545 111.08L125.907 110.687ZM127.893 108.809L127.53 109.201L127.541 109.21L127.893 108.809ZM132.205 108.809L132.557 109.21L132.563 109.205L132.568 109.2L132.205 108.809ZM132.205 100.077L131.843 100.469L131.853 100.478L132.205 100.077ZM127.893 100.077L128.25 100.474L128.255 100.469L127.893 100.077ZM124.797 106.845V102.02H123.73V106.845H124.797ZM124.797 102.02C124.797 100.627 125.287 99.4883 126.272 98.5673L125.543 97.7876C124.336 98.916 123.73 100.339 123.73 102.02H124.797ZM126.269 98.5696C127.271 97.6447 128.519 97.1741 130.049 97.1741V96.1067C128.277 96.1067 126.764 96.6608 125.545 97.7853L126.269 98.5696ZM130.049 97.1741C131.579 97.1741 132.818 97.6446 133.805 98.5673L134.534 97.7876C133.329 96.6608 131.821 96.1067 130.049 96.1067V97.1741ZM133.807 98.5696C134.806 99.4913 135.301 100.629 135.301 102.02H136.368C136.368 100.337 135.753 98.913 134.531 97.7853L133.807 98.5696ZM135.301 102.02V106.845H136.368V102.02H135.301ZM135.301 106.845C135.301 108.236 134.806 109.374 133.807 110.295L134.531 111.08C135.753 109.952 136.368 108.528 136.368 106.845H135.301ZM133.805 110.298C132.818 111.22 131.579 111.691 130.049 111.691V112.758C131.821 112.758 133.329 112.204 134.534 111.077L133.805 110.298ZM130.049 111.691C128.519 111.691 127.271 111.22 126.269 110.295L125.545 111.08C126.764 112.204 128.277 112.758 130.049 112.758V111.691ZM126.272 110.298C125.287 109.377 124.797 108.238 124.797 106.845H123.73C123.73 108.526 124.336 109.949 125.543 111.077L126.272 110.298ZM126.505 101.977V106.887H127.573V101.977H126.505ZM126.505 106.887C126.505 107.795 126.855 108.576 127.53 109.201L128.255 108.417C127.792 107.988 127.573 107.488 127.573 106.887H126.505ZM127.541 109.21C128.232 109.816 129.079 110.111 130.049 110.111V109.044C129.311 109.044 128.721 108.826 128.245 108.408L127.541 109.21ZM130.049 110.111C131.019 110.111 131.866 109.816 132.557 109.21L131.853 108.408C131.377 108.826 130.787 109.044 130.049 109.044V110.111ZM132.568 109.2C133.251 108.567 133.614 107.788 133.614 106.887H132.547C132.547 107.467 132.326 107.969 131.842 108.417L132.568 109.2ZM133.614 106.887V101.977H132.547V106.887H133.614ZM133.614 101.977C133.614 101.064 133.252 100.287 132.557 99.6764L131.853 100.478C132.325 100.893 132.547 101.382 132.547 101.977H133.614ZM132.568 99.6856C131.888 99.0567 131.034 98.7538 130.049 98.7538V99.8212C130.8 99.8212 131.384 100.045 131.843 100.469L132.568 99.6856ZM130.049 98.7538C129.064 98.7538 128.21 99.0567 127.53 99.6856L128.255 100.469C128.714 100.045 129.298 99.8212 130.049 99.8212V98.7538ZM127.536 99.6807C126.856 100.293 126.505 101.069 126.505 101.977H127.573C127.573 101.377 127.791 100.887 128.25 100.474L127.536 99.6807ZM146.93 100.355H147.464V99.4946L146.693 99.8768L146.93 100.355ZM144.347 101.636L143.864 101.864L144.097 102.355L144.584 102.114L144.347 101.636ZM143.194 99.2021L142.957 98.7239L142.487 98.9567L142.712 99.4306L143.194 99.2021ZM147.72 96.9606V96.4269H147.595L147.483 96.4823L147.72 96.9606ZM149.705 96.9606H150.239V96.4269H149.705V96.9606ZM149.705 111.904V112.438H150.239V111.904H149.705ZM146.93 111.904H146.396V112.438H146.93V111.904ZM146.693 99.8768L144.11 101.158L144.584 102.114L147.167 100.833L146.693 99.8768ZM144.829 101.407L143.676 98.9737L142.712 99.4306L143.864 101.864L144.829 101.407ZM143.431 99.6804L147.957 97.4389L147.483 96.4823L142.957 98.7239L143.431 99.6804ZM147.72 97.4943H149.705V96.4269H147.72V97.4943ZM149.171 96.9606V111.904H150.239V96.9606H149.171ZM149.705 111.371H146.93V112.438H149.705V111.371ZM147.464 111.904V100.355H146.396V111.904H147.464ZM160.056 98.1774L159.694 97.7853L159.692 97.7876L160.056 98.1774ZM168.318 98.1774L167.953 98.5673L167.956 98.5696L168.318 98.1774ZM168.318 110.687L167.956 110.295L167.953 110.298L168.318 110.687ZM160.056 110.687L159.692 111.077L159.694 111.08L160.056 110.687ZM162.042 108.809L161.679 109.201L161.689 109.21L162.042 108.809ZM166.354 108.809L166.706 109.21L166.711 109.205L166.717 109.2L166.354 108.809ZM166.354 100.077L165.991 100.469L166.002 100.478L166.354 100.077ZM162.042 100.077L162.399 100.474L162.404 100.469L162.042 100.077ZM158.946 106.845V102.02H157.879V106.845H158.946ZM158.946 102.02C158.946 100.627 159.436 99.4883 160.421 98.5673L159.692 97.7876C158.485 98.916 157.879 100.339 157.879 102.02H158.946ZM160.418 98.5696C161.42 97.6447 162.667 97.1741 164.198 97.1741V96.1067C162.426 96.1067 160.912 96.6608 159.694 97.7853L160.418 98.5696ZM164.198 97.1741C165.728 97.1741 166.967 97.6446 167.953 98.5673L168.682 97.7876C167.477 96.6608 165.969 96.1067 164.198 96.1067V97.1741ZM167.956 98.5696C168.954 99.4913 169.449 100.629 169.449 102.02H170.517C170.517 100.337 169.902 98.913 168.68 97.7853L167.956 98.5696ZM169.449 102.02V106.845H170.517V102.02H169.449ZM169.449 106.845C169.449 108.236 168.954 109.374 167.956 110.295L168.68 111.08C169.902 109.952 170.517 108.528 170.517 106.845H169.449ZM167.953 110.298C166.967 111.22 165.728 111.691 164.198 111.691V112.758C165.969 112.758 167.477 112.204 168.682 111.077L167.953 110.298ZM164.198 111.691C162.667 111.691 161.42 111.22 160.418 110.295L159.694 111.08C160.912 112.204 162.426 112.758 164.198 112.758V111.691ZM160.421 110.298C159.436 109.377 158.946 108.238 158.946 106.845H157.879C157.879 108.526 158.485 109.949 159.692 111.077L160.421 110.298ZM160.654 101.977V106.887H161.721V101.977H160.654ZM160.654 106.887C160.654 107.795 161.004 108.576 161.679 109.201L162.404 108.417C161.94 107.988 161.721 107.488 161.721 106.887H160.654ZM161.689 109.21C162.38 109.816 163.228 110.111 164.198 110.111V109.044C163.459 109.044 162.87 108.826 162.394 108.408L161.689 109.21ZM164.198 110.111C165.167 110.111 166.015 109.816 166.706 109.21L166.002 108.408C165.526 108.826 164.936 109.044 164.198 109.044V110.111ZM166.717 109.2C167.4 108.567 167.763 107.788 167.763 106.887H166.695C166.695 107.467 166.475 107.969 165.991 108.417L166.717 109.2ZM167.763 106.887V101.977H166.695V106.887H167.763ZM167.763 101.977C167.763 101.064 167.401 100.287 166.706 99.6764L166.002 100.478C166.474 100.893 166.695 101.382 166.695 101.977H167.763ZM166.716 99.6856C166.036 99.0567 165.183 98.7538 164.198 98.7538V99.8212C164.949 99.8212 165.533 100.045 165.991 100.469L166.716 99.6856ZM164.198 98.7538C163.213 98.7538 162.359 99.0567 161.679 99.6856L162.404 100.469C162.863 100.045 163.447 99.8212 164.198 99.8212V98.7538ZM161.685 99.6807C161.005 100.293 160.654 101.069 160.654 101.977H161.721C161.721 101.377 161.94 100.887 162.399 100.474L161.685 99.6807ZM181.079 100.355H181.612V99.4946L180.841 99.8768L181.079 100.355ZM178.495 101.636L178.013 101.864L178.246 102.355L178.733 102.114L178.495 101.636ZM177.343 99.2021L177.106 98.7239L176.636 98.9567L176.86 99.4306L177.343 99.2021ZM181.868 96.9606V96.4269H181.744L181.632 96.4823L181.868 96.9606ZM183.854 96.9606H184.388V96.4269H183.854V96.9606ZM183.854 111.904V112.438H184.388V111.904H183.854ZM181.079 111.904H180.545V112.438H181.079V111.904ZM180.841 99.8768L178.258 101.158L178.733 102.114L181.316 100.833L180.841 99.8768ZM178.978 101.407L177.825 98.9737L176.86 99.4306L178.013 101.864L178.978 101.407ZM177.58 99.6804L182.105 97.4389L181.632 96.4823L177.106 98.7239L177.58 99.6804ZM181.868 97.4943H183.854V96.4269H181.868V97.4943ZM183.32 96.9606V111.904H184.388V96.9606H183.32ZM183.854 111.371H181.079V112.438H183.854V111.371ZM181.612 111.904V100.355H180.545V111.904H181.612ZM194.205 98.1774L193.843 97.7853L193.84 97.7876L194.205 98.1774ZM202.467 98.1774L202.102 98.5673L202.105 98.5696L202.467 98.1774ZM202.467 110.687L202.105 110.295L202.102 110.298L202.467 110.687ZM194.205 110.687L193.84 111.077L193.843 111.08L194.205 110.687ZM196.19 108.809L195.828 109.201L195.838 109.21L196.19 108.809ZM200.503 108.809L200.855 109.21L200.86 109.205L200.865 109.2L200.503 108.809ZM200.503 100.077L200.14 100.469L200.15 100.478L200.503 100.077ZM196.19 100.077L196.547 100.474L196.553 100.469L196.19 100.077ZM193.095 106.845V102.02H192.027V106.845H193.095ZM193.095 102.02C193.095 100.627 193.584 99.4883 194.569 98.5673L193.84 97.7876C192.634 98.916 192.027 100.339 192.027 102.02H193.095ZM194.567 98.5696C195.569 97.6447 196.816 97.1741 198.346 97.1741V96.1067C196.575 96.1067 195.061 96.6608 193.843 97.7853L194.567 98.5696ZM198.346 97.1741C199.877 97.1741 201.115 97.6446 202.102 98.5673L202.831 97.7876C201.626 96.6608 200.118 96.1067 198.346 96.1067V97.1741ZM202.105 98.5696C203.103 99.4913 203.598 100.629 203.598 102.02H204.665C204.665 100.337 204.05 98.913 202.829 97.7853L202.105 98.5696ZM203.598 102.02V106.845H204.665V102.02H203.598ZM203.598 106.845C203.598 108.236 203.103 109.374 202.105 110.295L202.829 111.08C204.05 109.952 204.665 108.528 204.665 106.845H203.598ZM202.102 110.298C201.115 111.22 199.877 111.691 198.346 111.691V112.758C200.118 112.758 201.626 112.204 202.831 111.077L202.102 110.298ZM198.346 111.691C196.816 111.691 195.569 111.22 194.567 110.295L193.843 111.08C195.061 112.204 196.575 112.758 198.346 112.758V111.691ZM194.569 110.298C193.584 109.377 193.095 108.238 193.095 106.845H192.027C192.027 108.526 192.634 109.949 193.84 111.077L194.569 110.298ZM194.803 101.977V106.887H195.87V101.977H194.803ZM194.803 106.887C194.803 107.795 195.153 108.576 195.828 109.201L196.553 108.417C196.089 107.988 195.87 107.488 195.87 106.887H194.803ZM195.838 109.21C196.529 109.816 197.377 110.111 198.346 110.111V109.044C197.608 109.044 197.019 108.826 196.542 108.408L195.838 109.21ZM198.346 110.111C199.316 110.111 200.164 109.816 200.855 109.21L200.15 108.408C199.674 108.826 199.085 109.044 198.346 109.044V110.111ZM200.865 109.2C201.549 108.567 201.912 107.788 201.912 106.887H200.844C200.844 107.467 200.623 107.969 200.14 108.417L200.865 109.2ZM201.912 106.887V101.977H200.844V106.887H201.912ZM201.912 101.977C201.912 101.064 201.55 100.287 200.855 99.6764L200.15 100.478C200.622 100.893 200.844 101.382 200.844 101.977H201.912ZM200.865 99.6856C200.185 99.0567 199.332 98.7538 198.346 98.7538V99.8212C199.098 99.8212 199.682 100.045 200.14 100.469L200.865 99.6856ZM198.346 98.7538C197.361 98.7538 196.508 99.0567 195.828 99.6856L196.553 100.469C197.011 100.045 197.595 99.8212 198.346 99.8212V98.7538ZM195.833 99.6807C195.153 100.293 194.803 101.069 194.803 101.977H195.87C195.87 101.377 196.088 100.887 196.547 100.474L195.833 99.6807Z" fill="black"/>
<path d="M311.799 135.131L302.299 125.631" stroke="black"/>
<path d="M305.299 135.631L295.799 126.131" stroke="black"/>
<path d="M298.799 135.631L289.299 126.131" stroke="black"/>
<path d="M292.299 135.631L282.799 126.131" stroke="black"/>
<path d="M285.799 135.631L276.299 126.131" stroke="black"/>
<path d="M279.299 135.631L269.799 126.131" stroke="black"/>
<path d="M272.799 135.631L263.299 126.131" stroke="black"/>
<path d="M107.033 90.926L78.0853 74.2129V107.639L107.033 90.926Z" fill="#AB85FF"/>
<path d="M88.7207 90.926L59.7728 74.2129V107.639L88.7207 90.926Z" fill="#AB85FF"/>
<path d="M69.4219 90.926L40.4739 74.2129V107.639L69.4219 90.926Z" fill="#AB85FF"/>
<defs>
<clipPath id="clip0">
<rect width="127" height="89" fill="white" transform="translate(171.752 44.7773)"/>
</clipPath>
</defs>
</svg>
