<svg width="217" height="99" viewBox="0 0 217 99" fill="none" xmlns="http://www.w3.org/2000/svg">
<path d="M32.0781 50.4814H92.3569" stroke="url(#paint0_linear)" stroke-width="2"/>
<rect x="1.84766" y="40.4297" width="127" height="36.7496" stroke="url(#paint1_linear)" stroke-width="2"/>
<path d="M189.309 26.7773C165.537 -1.63276 130.026 -12.7442 90.505 26.7773M90.505 26.7773C92.2486 17.4781 92.9281 13.0769 93.0499 12.0387L90.505 26.7773ZM90.505 26.7773C92.2499 26.064 100.69 24.3823 106.692 23.816" stroke="url(#paint2_linear)"/>
<rect x="-0.186871" y="0.186871" width="38.2675" height="52.988" transform="matrix(-1 0 0 1 216.048 44.6885)" fill="white"/>
<rect x="-0.186871" y="0.186871" width="29.5256" height="2.98993" transform="matrix(-1 0 0 1 211.935 51.79)" stroke="url(#paint3_linear)" stroke-width="0.373742"/>
<rect x="-0.186871" y="0.186871" width="29.5256" height="2.98993" transform="matrix(-1 0 0 1 211.935 58.8906)" stroke="url(#paint4_linear)" stroke-width="0.373742"/>
<rect x="-0.186871" y="0.186871" width="29.5256" height="2.98993" transform="matrix(-1 0 0 1 211.935 65.9922)" stroke="url(#paint5_linear)" stroke-width="0.373742"/>
<rect x="-0.186871" y="0.186871" width="29.5256" height="2.98993" transform="matrix(-1 0 0 1 211.935 73.0928)" stroke="url(#paint6_linear)" stroke-width="0.373742"/>
<rect x="-0.186871" y="0.186871" width="29.5256" height="2.98993" transform="matrix(-1 0 0 1 211.935 80.1934)" stroke="url(#paint7_linear)" stroke-width="0.373742"/>
<rect x="-0.186871" y="0.186871" width="29.5256" height="2.98993" transform="matrix(-1 0 0 1 211.935 87.2949)" stroke="url(#paint8_linear)" stroke-width="0.373742"/>
<rect x="-0.186871" y="0.186871" width="38.2675" height="52.988" transform="matrix(-1 0 0 1 216.048 44.6885)" stroke="url(#paint9_linear)" stroke-width="0.373742"/>
<rect x="-0.186871" y="0.186871" width="38.2675" height="52.988" transform="matrix(-1 0 0 1 193.048 39.3105)" fill="white"/>
<rect x="-0.186871" y="0.186871" width="29.5256" height="2.98993" transform="matrix(-1 0 0 1 188.935 46.4121)" stroke="url(#paint10_linear)" stroke-width="0.373742"/>
<rect x="-0.186871" y="0.186871" width="29.5256" height="2.98993" transform="matrix(-1 0 0 1 188.935 53.5127)" stroke="url(#paint11_linear)" stroke-width="0.373742"/>
<rect x="-0.186871" y="0.186871" width="29.5256" height="2.98993" transform="matrix(-1 0 0 1 188.935 60.6143)" stroke="url(#paint12_linear)" stroke-width="0.373742"/>
<rect x="-0.186871" y="0.186871" width="29.5256" height="2.98993" transform="matrix(-1 0 0 1 188.935 67.7148)" stroke="url(#paint13_linear)" stroke-width="0.373742"/>
<rect x="-0.186871" y="0.186871" width="29.5256" height="2.98993" transform="matrix(-1 0 0 1 188.935 74.8154)" stroke="url(#paint14_linear)" stroke-width="0.373742"/>
<rect x="-0.186871" y="0.186871" width="29.5256" height="2.98993" transform="matrix(-1 0 0 1 188.935 81.917)" stroke="url(#paint15_linear)" stroke-width="0.373742"/>
<rect x="-0.186871" y="0.186871" width="38.2675" height="52.988" transform="matrix(-1 0 0 1 193.048 39.3105)" stroke="url(#paint16_linear)" stroke-width="0.373742"/>
<defs>
<linearGradient id="paint0_linear" x1="22.2728" y1="51.5813" x2="22.3033" y2="49.2001" gradientUnits="userSpaceOnUse">
<stop stop-color="#AB85FF"/>
<stop offset="0.526042" stop-color="#EBA3E3"/>
<stop offset="1" stop-color="#FFDBE4"/>
</linearGradient>
<linearGradient id="paint1_linear" x1="-20.1364" y1="82.0492" x2="0.209941" y2="-5.50853" gradientUnits="userSpaceOnUse">
<stop stop-color="#AB85FF"/>
<stop offset="0.526042" stop-color="#EBA3E3"/>
<stop offset="1" stop-color="#FFDBE4"/>
</linearGradient>
<linearGradient id="paint2_linear" x1="205.381" y1="29.3382" x2="193.595" y2="-29.3655" gradientUnits="userSpaceOnUse">
<stop stop-color="#AB85FF"/>
<stop offset="0.526042" stop-color="#EBA3E3"/>
<stop offset="1" stop-color="#FFDBE4"/>
</linearGradient>
<linearGradient id="paint3_linear" x1="-4.86363" y1="3.69961" x2="-4.17169" y2="-4.25108" gradientUnits="userSpaceOnUse">
<stop stop-color="#AB85FF"/>
<stop offset="0.526042" stop-color="#EBA3E3"/>
<stop offset="1" stop-color="#FFDBE4"/>
</linearGradient>
<linearGradient id="paint4_linear" x1="-4.86363" y1="3.69961" x2="-4.17169" y2="-4.25108" gradientUnits="userSpaceOnUse">
<stop stop-color="#AB85FF"/>
<stop offset="0.526042" stop-color="#EBA3E3"/>
<stop offset="1" stop-color="#FFDBE4"/>
</linearGradient>
<linearGradient id="paint5_linear" x1="-4.86363" y1="3.69961" x2="-4.17169" y2="-4.25108" gradientUnits="userSpaceOnUse">
<stop stop-color="#AB85FF"/>
<stop offset="0.526042" stop-color="#EBA3E3"/>
<stop offset="1" stop-color="#FFDBE4"/>
</linearGradient>
<linearGradient id="paint6_linear" x1="-4.86363" y1="3.69961" x2="-4.17169" y2="-4.25108" gradientUnits="userSpaceOnUse">
<stop stop-color="#AB85FF"/>
<stop offset="0.526042" stop-color="#EBA3E3"/>
<stop offset="1" stop-color="#FFDBE4"/>
</linearGradient>
<linearGradient id="paint7_linear" x1="-4.86363" y1="3.69961" x2="-4.17169" y2="-4.25108" gradientUnits="userSpaceOnUse">
<stop stop-color="#AB85FF"/>
<stop offset="0.526042" stop-color="#EBA3E3"/>
<stop offset="1" stop-color="#FFDBE4"/>
</linearGradient>
<linearGradient id="paint8_linear" x1="-4.86363" y1="3.69961" x2="-4.17169" y2="-4.25108" gradientUnits="userSpaceOnUse">
<stop stop-color="#AB85FF"/>
<stop offset="0.526042" stop-color="#EBA3E3"/>
<stop offset="1" stop-color="#FFDBE4"/>
</linearGradient>
<linearGradient id="paint9_linear" x1="-6.28565" y1="58.691" x2="57.1189" y2="-0.660004" gradientUnits="userSpaceOnUse">
<stop stop-color="#AB85FF"/>
<stop offset="0.526042" stop-color="#EBA3E3"/>
<stop offset="1" stop-color="#FFDBE4"/>
</linearGradient>
<linearGradient id="paint10_linear" x1="-4.86363" y1="3.69961" x2="-4.17169" y2="-4.25108" gradientUnits="userSpaceOnUse">
<stop stop-color="#AB85FF"/>
<stop offset="0.526042" stop-color="#EBA3E3"/>
<stop offset="1" stop-color="#FFDBE4"/>
</linearGradient>
<linearGradient id="paint11_linear" x1="-4.86363" y1="3.69961" x2="-4.17169" y2="-4.25108" gradientUnits="userSpaceOnUse">
<stop stop-color="#AB85FF"/>
<stop offset="0.526042" stop-color="#EBA3E3"/>
<stop offset="1" stop-color="#FFDBE4"/>
</linearGradient>
<linearGradient id="paint12_linear" x1="-4.86363" y1="3.69961" x2="-4.17169" y2="-4.25108" gradientUnits="userSpaceOnUse">
<stop stop-color="#AB85FF"/>
<stop offset="0.526042" stop-color="#EBA3E3"/>
<stop offset="1" stop-color="#FFDBE4"/>
</linearGradient>
<linearGradient id="paint13_linear" x1="-4.86363" y1="3.69961" x2="-4.17169" y2="-4.25108" gradientUnits="userSpaceOnUse">
<stop stop-color="#AB85FF"/>
<stop offset="0.526042" stop-color="#EBA3E3"/>
<stop offset="1" stop-color="#FFDBE4"/>
</linearGradient>
<linearGradient id="paint14_linear" x1="-4.86363" y1="3.69961" x2="-4.17169" y2="-4.25108" gradientUnits="userSpaceOnUse">
<stop stop-color="#AB85FF"/>
<stop offset="0.526042" stop-color="#EBA3E3"/>
<stop offset="1" stop-color="#FFDBE4"/>
</linearGradient>
<linearGradient id="paint15_linear" x1="-4.86363" y1="3.69961" x2="-4.17169" y2="-4.25108" gradientUnits="userSpaceOnUse">
<stop stop-color="#AB85FF"/>
<stop offset="0.526042" stop-color="#EBA3E3"/>
<stop offset="1" stop-color="#FFDBE4"/>
</linearGradient>
<linearGradient id="paint16_linear" x1="-6.28565" y1="58.691" x2="57.1189" y2="-0.660004" gradientUnits="userSpaceOnUse">
<stop stop-color="#AB85FF"/>
<stop offset="0.526042" stop-color="#EBA3E3"/>
<stop offset="1" stop-color="#FFDBE4"/>
</linearGradient>
</defs>
</svg>
