<svg width="242" height="80" viewBox="0 0 242 80" fill="none" xmlns="http://www.w3.org/2000/svg">
<path d="M175.89 39.3421L202.602 48.0132M202.602 48.0132L194.182 48.7567M202.602 48.0132L196.796 42.9447" stroke="url(#paint0_linear)"/>
<circle cx="14.6836" cy="65.0498" r="13.5" stroke="url(#paint1_linear)"/>
<path d="M152.833 40.7013L131.794 56.6642" stroke="url(#paint2_linear)"/>
<circle cx="61.6836" cy="28.0498" r="13.5" stroke="url(#paint3_linear)"/>
<circle cx="119.633" cy="61.9326" r="13.5" stroke="url(#paint4_linear)"/>
<circle cx="62.1836" cy="27.9326" r="19.5" transform="rotate(-180 62.1836 27.9326)" stroke="url(#paint5_linear)"/>
<path d="M47.1836 14.9326L23.6836 1.43262L21.1836 5.43262L44.6836 18.9326" stroke="url(#paint6_linear)"/>
<circle cx="163.684" cy="32.9326" r="13.5" stroke="url(#paint7_linear)"/>
<path d="M24.1836 55.0504L47.1836 40.4141" stroke="url(#paint8_linear)"/>
<path d="M75.6836 41.5078L106.738 58.6736" stroke="url(#paint9_linear)"/>
<path d="M53.7266 28.4155H61.685M69.6434 28.4155H61.685M61.685 28.4155V20.6982V35.168" stroke="url(#paint10_linear)"/>
<g clip-path="url(#clip0)">
<path d="M239.168 56.4544H236.482C236.257 55.7413 235.962 55.0526 235.604 54.3966L237.502 52.5566C237.908 52.1629 238.132 51.6384 238.132 51.0797C238.132 50.5218 237.908 49.9973 237.502 49.6036L235.471 47.6349C234.66 46.8481 233.24 46.846 232.427 47.6349L230.529 49.4749C229.854 49.1277 229.143 48.8425 228.407 48.6234V46.0196C228.407 44.869 227.442 43.9326 226.255 43.9326H223.386C222.199 43.9326 221.233 44.869 221.233 46.0196V48.6241C220.498 48.8432 219.788 49.1284 219.111 49.4756L217.213 47.6356C216.374 46.8217 215.008 46.8217 214.168 47.6356L212.138 49.6043C211.299 50.4182 211.299 51.7427 212.138 52.5566L214.035 54.3973C213.677 55.0526 213.383 55.742 213.157 56.4551H210.472C209.286 56.4551 208.32 57.3914 208.32 58.542V61.3246C208.32 62.4745 209.286 63.4109 210.472 63.4109H213.158C213.384 64.1239 213.679 64.8126 214.036 65.4686L212.139 67.3093C211.3 68.1232 211.3 69.4477 212.139 70.2617L214.169 72.2311C215.009 73.0443 216.374 73.0443 217.214 72.2311L219.112 70.3911C219.788 70.7382 220.499 71.0234 221.234 71.2425V73.8457C221.234 74.9963 222.2 75.9326 223.386 75.9326H226.256C227.442 75.9326 228.408 74.9963 228.408 73.8457V71.2411C229.143 71.022 229.854 70.7368 230.53 70.3897L232.428 72.2304C233.241 73.0185 234.661 73.0171 235.472 72.2304L237.502 70.2617C237.908 69.8679 238.132 69.3434 238.132 68.7855C238.132 68.2269 237.908 67.7031 237.502 67.3093L235.605 65.4686C235.963 64.8133 236.257 64.1239 236.483 63.4109H239.168C240.355 63.4109 241.32 62.4745 241.32 61.3239V58.5413C241.32 57.3907 240.355 56.4544 239.168 56.4544ZM239.886 61.3239C239.886 61.7072 239.564 62.0196 239.168 62.0196H235.94C235.613 62.0196 235.327 62.2345 235.245 62.5413C234.991 63.4909 234.605 64.3973 234.095 65.2349C233.929 65.5083 233.974 65.8561 234.205 66.0801L236.487 68.293C236.621 68.4237 236.696 68.5984 236.696 68.7855C236.696 68.9726 236.621 69.1472 236.487 69.278L234.456 71.2467C234.187 71.5083 233.711 71.5083 233.44 71.2467L231.159 69.0345C230.928 68.8098 230.569 68.7667 230.287 68.9274C229.425 69.4213 228.49 69.797 227.51 70.0425C227.194 70.1211 226.972 70.398 226.972 70.7152V73.8457C226.972 74.229 226.651 74.5413 226.255 74.5413H223.386C222.99 74.5413 222.668 74.229 222.668 73.8457V70.7152C222.668 70.398 222.446 70.1211 222.13 70.0418C221.151 69.7963 220.216 69.4213 219.352 68.9267C219.239 68.8613 219.113 68.83 218.988 68.83C218.802 68.83 218.618 68.8996 218.48 69.0338L216.199 71.246C215.918 71.5173 215.463 71.5173 215.183 71.246L213.153 69.2773C212.872 69.0053 212.872 68.5636 213.153 68.2923L215.434 66.0801C215.666 65.8554 215.711 65.5076 215.544 65.2349C215.035 64.3973 214.648 63.4916 214.394 62.5413C214.313 62.2345 214.028 62.0196 213.701 62.0196H210.472C210.077 62.0196 209.755 61.7072 209.755 61.3239V58.5413C209.755 58.158 210.077 57.8457 210.472 57.8457H213.701C214.028 57.8457 214.313 57.6307 214.395 57.3239C214.648 56.3744 215.035 55.4679 215.545 54.6304C215.712 54.357 215.666 54.0091 215.435 53.7851L213.153 51.573C212.874 51.3017 212.874 50.8599 213.153 50.5879L215.184 48.6192C215.464 48.3472 215.919 48.3479 216.199 48.6192L218.481 50.8314C218.712 51.0561 219.07 51.1006 219.352 50.9385C220.216 50.4446 221.15 50.069 222.13 49.8234C222.446 49.7441 222.668 49.4672 222.668 49.15V46.0196C222.668 45.6363 222.99 45.3239 223.386 45.3239H226.255C226.651 45.3239 226.972 45.6363 226.972 46.0196V49.15C226.972 49.4672 227.194 49.7441 227.511 49.8234C228.49 50.069 229.425 50.4446 230.288 50.9385C230.57 51.0999 230.929 51.0568 231.16 50.8314L233.441 48.6192C233.712 48.3563 234.187 48.357 234.457 48.6192L236.487 50.5879C236.622 50.7187 236.697 50.894 236.697 51.0804C236.697 51.2669 236.622 51.4422 236.487 51.573L234.206 53.7851C233.975 54.0098 233.929 54.3577 234.095 54.6304C234.606 55.4679 234.992 56.3737 235.246 57.3239C235.327 57.6307 235.613 57.8457 235.94 57.8457H239.168C239.564 57.8457 239.886 58.158 239.886 58.5413V61.3239Z" fill="url(#paint11_linear)"/>
<path d="M224.82 53.6719C221.26 53.6719 218.363 56.4809 218.363 59.9327C218.363 63.3846 221.26 66.1936 224.82 66.1936C228.38 66.1936 231.276 63.3846 231.276 59.9327C231.276 56.4809 228.38 53.6719 224.82 53.6719ZM224.82 64.8023C222.051 64.8023 219.798 62.618 219.798 59.9327C219.798 57.2475 222.051 55.0632 224.82 55.0632C227.588 55.0632 229.842 57.2475 229.842 59.9327C229.842 62.618 227.588 64.8023 224.82 64.8023Z" fill="url(#paint12_linear)"/>
</g>
<defs>
<linearGradient id="paint0_linear" x1="172.73" y1="37.393" x2="208.988" y2="47.6641" gradientUnits="userSpaceOnUse">
<stop stop-color="#AB85FF"/>
<stop offset="0.526042" stop-color="#EBA3E3"/>
<stop offset="1" stop-color="#FFDBE4"/>
</linearGradient>
<linearGradient id="paint1_linear" x1="-3.87108" y1="81.8461" x2="28.402" y2="40.1279" gradientUnits="userSpaceOnUse">
<stop stop-color="#AB85FF"/>
<stop offset="0.526042" stop-color="#EBA3E3"/>
<stop offset="1" stop-color="#FFDBE4"/>
</linearGradient>
<linearGradient id="paint2_linear" x1="155.916" y1="39.3702" x2="125.473" y2="57.0247" gradientUnits="userSpaceOnUse">
<stop stop-color="#AB85FF"/>
<stop offset="0.526042" stop-color="#EBA3E3"/>
<stop offset="1" stop-color="#FFDBE4"/>
</linearGradient>
<linearGradient id="paint3_linear" x1="43.1289" y1="44.8461" x2="75.402" y2="3.12786" gradientUnits="userSpaceOnUse">
<stop stop-color="#AB85FF"/>
<stop offset="0.526042" stop-color="#EBA3E3"/>
<stop offset="1" stop-color="#FFDBE4"/>
</linearGradient>
<linearGradient id="paint4_linear" x1="101.078" y1="78.729" x2="133.351" y2="37.0107" gradientUnits="userSpaceOnUse">
<stop stop-color="#AB85FF"/>
<stop offset="0.526042" stop-color="#EBA3E3"/>
<stop offset="1" stop-color="#FFDBE4"/>
</linearGradient>
<linearGradient id="paint5_linear" x1="35.6769" y1="51.9274" x2="81.7813" y2="-7.67015" gradientUnits="userSpaceOnUse">
<stop stop-color="#AB85FF"/>
<stop offset="0.526042" stop-color="#EBA3E3"/>
<stop offset="1" stop-color="#FFDBE4"/>
</linearGradient>
<linearGradient id="paint6_linear" x1="51.4129" y1="-0.315099" x2="34.3404" y2="32.4733" gradientUnits="userSpaceOnUse">
<stop stop-color="#AB85FF"/>
<stop offset="0.526042" stop-color="#EBA3E3"/>
<stop offset="1" stop-color="#FFDBE4"/>
</linearGradient>
<linearGradient id="paint7_linear" x1="145.129" y1="49.729" x2="177.402" y2="8.01068" gradientUnits="userSpaceOnUse">
<stop stop-color="#AB85FF"/>
<stop offset="0.526042" stop-color="#EBA3E3"/>
<stop offset="1" stop-color="#FFDBE4"/>
</linearGradient>
<linearGradient id="paint8_linear" x1="20.4423" y1="56.5122" x2="34.2549" y2="28.4541" gradientUnits="userSpaceOnUse">
<stop stop-color="#AB85FF"/>
<stop offset="0.526042" stop-color="#EBA3E3"/>
<stop offset="1" stop-color="#FFDBE4"/>
</linearGradient>
<linearGradient id="paint9_linear" x1="70.6321" y1="60.388" x2="85.4114" y2="25.8259" gradientUnits="userSpaceOnUse">
<stop stop-color="#AB85FF"/>
<stop offset="0.526042" stop-color="#EBA3E3"/>
<stop offset="1" stop-color="#FFDBE4"/>
</linearGradient>
<linearGradient id="paint10_linear" x1="51.1374" y1="36.6131" x2="67.3529" y2="13.5558" gradientUnits="userSpaceOnUse">
<stop stop-color="#AB85FF"/>
<stop offset="0.526042" stop-color="#EBA3E3"/>
<stop offset="1" stop-color="#FFDBE4"/>
</linearGradient>
<linearGradient id="paint11_linear" x1="202.952" y1="79.1284" x2="239.536" y2="30.3606" gradientUnits="userSpaceOnUse">
<stop stop-color="#AB85FF"/>
<stop offset="0.526042" stop-color="#EBA3E3"/>
<stop offset="1" stop-color="#FFDBE4"/>
</linearGradient>
<linearGradient id="paint12_linear" x1="216.263" y1="67.4441" x2="230.578" y2="48.3611" gradientUnits="userSpaceOnUse">
<stop stop-color="#AB85FF"/>
<stop offset="0.526042" stop-color="#EBA3E3"/>
<stop offset="1" stop-color="#FFDBE4"/>
</linearGradient>
<clipPath id="clip0">
<rect width="33" height="32" fill="white" transform="translate(208.32 43.9326)"/>
</clipPath>
</defs>
</svg>
