<svg width="239" height="84" viewBox="0 0 239 84" fill="none" xmlns="http://www.w3.org/2000/svg">
<path d="M72.1934 52.0078L82.1934 31.9713L101.193 41.9895L112.693 16.443L133.193 25.4594L156.193 11.9348M156.193 11.9348L151.193 20.4503M156.193 11.9348H146.193" stroke="url(#paint0_linear)"/>
<rect x="0.92135" y="0.251428" width="51.4876" height="71.2935" fill="white"/>
<rect x="6.4526" y="9.80612" width="39.7257" height="4.02285" stroke="url(#paint1_linear)" stroke-width="0.502856"/>
<rect x="6.4526" y="19.3608" width="39.7257" height="4.02285" stroke="url(#paint2_linear)" stroke-width="0.502856"/>
<rect x="6.4526" y="28.9155" width="39.7257" height="4.02285" stroke="url(#paint3_linear)" stroke-width="0.502856"/>
<rect x="6.4526" y="38.4702" width="39.7257" height="4.02285" stroke="url(#paint4_linear)" stroke-width="0.502856"/>
<rect x="6.4526" y="48.021" width="39.7257" height="4.02285" stroke="url(#paint5_linear)" stroke-width="0.502856"/>
<rect x="6.4526" y="57.5756" width="39.7257" height="4.02285" stroke="url(#paint6_linear)" stroke-width="0.502856"/>
<rect x="0.92135" y="0.251428" width="51.4876" height="71.2935" stroke="url(#paint7_linear)" stroke-width="0.502856"/>
<rect x="175.978" y="0.251428" width="51.4876" height="71.2935" fill="white"/>
<rect x="181.509" y="9.80612" width="39.7257" height="4.02285" stroke="url(#paint8_linear)" stroke-width="0.502856"/>
<rect x="181.509" y="19.3608" width="39.7257" height="4.02285" stroke="url(#paint9_linear)" stroke-width="0.502856"/>
<rect x="181.509" y="28.9155" width="39.7257" height="4.02285" stroke="url(#paint10_linear)" stroke-width="0.502856"/>
<rect x="181.509" y="38.4702" width="39.7257" height="4.02285" stroke="url(#paint11_linear)" stroke-width="0.502856"/>
<rect x="181.509" y="48.021" width="39.7257" height="4.02285" stroke="url(#paint12_linear)" stroke-width="0.502856"/>
<rect x="181.509" y="57.5756" width="39.7257" height="4.02285" stroke="url(#paint13_linear)" stroke-width="0.502856"/>
<rect x="175.978" y="0.251428" width="51.4876" height="71.2935" stroke="url(#paint14_linear)" stroke-width="0.502856"/>
<path d="M225.384 57.3242L228.29 66.2698H237.696L230.087 71.7985L232.993 80.7441L225.384 75.2154L217.774 80.7441L220.681 71.7985L213.071 66.2698H222.477L225.384 57.3242Z" fill="url(#paint15_linear)"/>
<defs>
<linearGradient id="paint0_linear" x1="58.5294" y1="7.93268" x2="89.5287" y2="91.93" gradientUnits="userSpaceOnUse">
<stop stop-color="#AB85FF"/>
<stop offset="0.526042" stop-color="#EBA3E3"/>
<stop offset="1" stop-color="#FFDBE4"/>
</linearGradient>
<linearGradient id="paint1_linear" x1="-0.342669" y1="14.5324" x2="0.588317" y2="3.83501" gradientUnits="userSpaceOnUse">
<stop stop-color="#AB85FF"/>
<stop offset="0.526042" stop-color="#EBA3E3"/>
<stop offset="1" stop-color="#FFDBE4"/>
</linearGradient>
<linearGradient id="paint2_linear" x1="-0.342669" y1="24.0871" x2="0.588317" y2="13.3897" gradientUnits="userSpaceOnUse">
<stop stop-color="#AB85FF"/>
<stop offset="0.526042" stop-color="#EBA3E3"/>
<stop offset="1" stop-color="#FFDBE4"/>
</linearGradient>
<linearGradient id="paint3_linear" x1="-0.342669" y1="33.6417" x2="0.588317" y2="22.9444" gradientUnits="userSpaceOnUse">
<stop stop-color="#AB85FF"/>
<stop offset="0.526042" stop-color="#EBA3E3"/>
<stop offset="1" stop-color="#FFDBE4"/>
</linearGradient>
<linearGradient id="paint4_linear" x1="-0.342669" y1="43.1964" x2="0.588317" y2="32.4991" gradientUnits="userSpaceOnUse">
<stop stop-color="#AB85FF"/>
<stop offset="0.526042" stop-color="#EBA3E3"/>
<stop offset="1" stop-color="#FFDBE4"/>
</linearGradient>
<linearGradient id="paint5_linear" x1="-0.342669" y1="52.7472" x2="0.588317" y2="42.0499" gradientUnits="userSpaceOnUse">
<stop stop-color="#AB85FF"/>
<stop offset="0.526042" stop-color="#EBA3E3"/>
<stop offset="1" stop-color="#FFDBE4"/>
</linearGradient>
<linearGradient id="paint6_linear" x1="-0.342669" y1="62.3019" x2="0.588317" y2="51.6045" gradientUnits="userSpaceOnUse">
<stop stop-color="#AB85FF"/>
<stop offset="0.526042" stop-color="#EBA3E3"/>
<stop offset="1" stop-color="#FFDBE4"/>
</linearGradient>
<linearGradient id="paint7_linear" x1="-7.7872" y1="78.9666" x2="77.5214" y2="-0.888015" gradientUnits="userSpaceOnUse">
<stop stop-color="#AB85FF"/>
<stop offset="0.526042" stop-color="#EBA3E3"/>
<stop offset="1" stop-color="#FFDBE4"/>
</linearGradient>
<linearGradient id="paint8_linear" x1="174.714" y1="14.5324" x2="175.645" y2="3.83501" gradientUnits="userSpaceOnUse">
<stop stop-color="#AB85FF"/>
<stop offset="0.526042" stop-color="#EBA3E3"/>
<stop offset="1" stop-color="#FFDBE4"/>
</linearGradient>
<linearGradient id="paint9_linear" x1="174.714" y1="24.0871" x2="175.645" y2="13.3897" gradientUnits="userSpaceOnUse">
<stop stop-color="#AB85FF"/>
<stop offset="0.526042" stop-color="#EBA3E3"/>
<stop offset="1" stop-color="#FFDBE4"/>
</linearGradient>
<linearGradient id="paint10_linear" x1="174.714" y1="33.6417" x2="175.645" y2="22.9444" gradientUnits="userSpaceOnUse">
<stop stop-color="#AB85FF"/>
<stop offset="0.526042" stop-color="#EBA3E3"/>
<stop offset="1" stop-color="#FFDBE4"/>
</linearGradient>
<linearGradient id="paint11_linear" x1="174.714" y1="43.1964" x2="175.645" y2="32.4991" gradientUnits="userSpaceOnUse">
<stop stop-color="#AB85FF"/>
<stop offset="0.526042" stop-color="#EBA3E3"/>
<stop offset="1" stop-color="#FFDBE4"/>
</linearGradient>
<linearGradient id="paint12_linear" x1="174.714" y1="52.7472" x2="175.645" y2="42.0499" gradientUnits="userSpaceOnUse">
<stop stop-color="#AB85FF"/>
<stop offset="0.526042" stop-color="#EBA3E3"/>
<stop offset="1" stop-color="#FFDBE4"/>
</linearGradient>
<linearGradient id="paint13_linear" x1="174.714" y1="62.3019" x2="175.645" y2="51.6045" gradientUnits="userSpaceOnUse">
<stop stop-color="#AB85FF"/>
<stop offset="0.526042" stop-color="#EBA3E3"/>
<stop offset="1" stop-color="#FFDBE4"/>
</linearGradient>
<linearGradient id="paint14_linear" x1="167.269" y1="78.9666" x2="252.578" y2="-0.888015" gradientUnits="userSpaceOnUse">
<stop stop-color="#AB85FF"/>
<stop offset="0.526042" stop-color="#EBA3E3"/>
<stop offset="1" stop-color="#FFDBE4"/>
</linearGradient>
<linearGradient id="paint15_linear" x1="208.226" y1="85.8025" x2="238.07" y2="47.2244" gradientUnits="userSpaceOnUse">
<stop stop-color="#AB85FF"/>
<stop offset="0.526042" stop-color="#EBA3E3"/>
<stop offset="1" stop-color="#FFDBE4"/>
</linearGradient>
</defs>
</svg>
