<svg width="204" height="89" viewBox="0 0 204 89" fill="none" xmlns="http://www.w3.org/2000/svg">
<rect x="1.06055" y="0.5" width="184" height="77" stroke="url(#paint0_linear)"/>
<rect x="29.5605" y="9.5" width="63" height="79" fill="white"/>
<rect x="36.5605" y="27.5" width="50" height="7" stroke="url(#paint1_linear)"/>
<rect x="36.5605" y="45.5" width="50" height="7" stroke="url(#paint2_linear)"/>
<rect x="36.5605" y="63.5" width="50" height="7" stroke="url(#paint3_linear)"/>
<rect x="29.5605" y="9.5" width="63" height="79" stroke="url(#paint4_linear)"/>
<rect x="119.805" y="36.5" width="52" height="2" stroke="url(#paint5_linear)"/>
<rect x="119.805" y="47.5" width="52" height="2" stroke="url(#paint6_linear)"/>
<rect x="119.805" y="58.5" width="52" height="2" stroke="url(#paint7_linear)"/>
<path d="M171.715 60.9995C171.442 60.9995 171.176 60.8911 170.978 60.6953C170.732 60.4495 170.623 60.0953 170.692 59.7536L172.165 52.387C172.207 52.1849 172.303 51.9995 172.451 51.8557L194.548 29.7578C196.58 27.7266 199.884 27.7266 201.913 29.7578C202.898 30.7411 203.44 32.0495 203.44 33.4411C203.44 34.8328 202.898 36.1411 201.915 37.1245L179.817 59.2224C179.673 59.3682 179.488 59.4661 179.284 59.5078L171.919 60.9786C171.853 60.9932 171.784 60.9995 171.715 60.9995ZM174.148 53.1057L173.044 58.6307L178.567 57.5266L200.44 35.6516C201.032 35.0599 201.357 34.2766 201.357 33.4411C201.357 32.6057 201.032 31.8224 200.442 31.2307C199.226 30.012 197.24 30.012 196.023 31.2307L174.148 53.1057ZM179.082 58.4849H179.103H179.082Z" fill="url(#paint8_linear)"/>
<path d="M198.231 40.3779C197.964 40.3779 197.697 40.2758 197.493 40.0737L191.602 34.1799C191.195 33.7737 191.195 33.1133 191.602 32.707C192.008 32.3008 192.668 32.3008 193.074 32.707L198.966 38.6008C199.372 39.007 199.372 39.6674 198.966 40.0737C198.764 40.2758 198.497 40.3779 198.231 40.3779Z" fill="url(#paint9_linear)"/>
<rect x="120.035" y="25.5" width="52" height="2" stroke="url(#paint10_linear)"/>
<defs>
<linearGradient id="paint0_linear" x1="-29.5328" y1="85.7898" x2="25.2309" y2="-82.1124" gradientUnits="userSpaceOnUse">
<stop stop-color="#AB85FF"/>
<stop offset="0.526042" stop-color="#EBA3E3"/>
<stop offset="1" stop-color="#FFDBE4"/>
</linearGradient>
<linearGradient id="paint1_linear" x1="27.7645" y1="35.799" x2="30.043" y2="17.0227" gradientUnits="userSpaceOnUse">
<stop stop-color="#AB85FF"/>
<stop offset="0.526042" stop-color="#EBA3E3"/>
<stop offset="1" stop-color="#FFDBE4"/>
</linearGradient>
<linearGradient id="paint2_linear" x1="27.7645" y1="53.799" x2="30.043" y2="35.0227" gradientUnits="userSpaceOnUse">
<stop stop-color="#AB85FF"/>
<stop offset="0.526042" stop-color="#EBA3E3"/>
<stop offset="1" stop-color="#FFDBE4"/>
</linearGradient>
<linearGradient id="paint3_linear" x1="27.7645" y1="71.799" x2="30.043" y2="53.0227" gradientUnits="userSpaceOnUse">
<stop stop-color="#AB85FF"/>
<stop offset="0.526042" stop-color="#EBA3E3"/>
<stop offset="1" stop-color="#FFDBE4"/>
</linearGradient>
<linearGradient id="paint4_linear" x1="18.6499" y1="96.9896" x2="113.86" y2="-1.47025" gradientUnits="userSpaceOnUse">
<stop stop-color="#AB85FF"/>
<stop offset="0.526042" stop-color="#EBA3E3"/>
<stop offset="1" stop-color="#FFDBE4"/>
</linearGradient>
<linearGradient id="paint5_linear" x1="110.683" y1="39.2996" x2="110.996" y2="32.1685" gradientUnits="userSpaceOnUse">
<stop stop-color="#AB85FF"/>
<stop offset="0.526042" stop-color="#EBA3E3"/>
<stop offset="1" stop-color="#FFDBE4"/>
</linearGradient>
<linearGradient id="paint6_linear" x1="110.683" y1="50.2996" x2="110.996" y2="43.1685" gradientUnits="userSpaceOnUse">
<stop stop-color="#AB85FF"/>
<stop offset="0.526042" stop-color="#EBA3E3"/>
<stop offset="1" stop-color="#FFDBE4"/>
</linearGradient>
<linearGradient id="paint7_linear" x1="110.683" y1="61.2996" x2="110.996" y2="54.1685" gradientUnits="userSpaceOnUse">
<stop stop-color="#AB85FF"/>
<stop offset="0.526042" stop-color="#EBA3E3"/>
<stop offset="1" stop-color="#FFDBE4"/>
</linearGradient>
<linearGradient id="paint8_linear" x1="165.342" y1="64.2717" x2="203.106" y2="15.4502" gradientUnits="userSpaceOnUse">
<stop stop-color="#AB85FF"/>
<stop offset="0.526042" stop-color="#EBA3E3"/>
<stop offset="1" stop-color="#FFDBE4"/>
</linearGradient>
<linearGradient id="paint9_linear" x1="190" y1="41.1744" x2="199.193" y2="29.2931" gradientUnits="userSpaceOnUse">
<stop stop-color="#AB85FF"/>
<stop offset="0.526042" stop-color="#EBA3E3"/>
<stop offset="1" stop-color="#FFDBE4"/>
</linearGradient>
<linearGradient id="paint10_linear" x1="110.914" y1="28.2996" x2="111.226" y2="21.1685" gradientUnits="userSpaceOnUse">
<stop stop-color="#AB85FF"/>
<stop offset="0.526042" stop-color="#EBA3E3"/>
<stop offset="1" stop-color="#FFDBE4"/>
</linearGradient>
</defs>
</svg>
