<svg width="341" height="180" viewBox="0 0 341 180" fill="none" xmlns="http://www.w3.org/2000/svg">
<rect width="341" height="180" fill="#F5F5F5"/>
<path d="M168 29L178.5 39.5" stroke="black"/>
<path d="M178.5 29L168 39.5" stroke="black"/>
<circle cx="156.375" cy="66.375" r="1.375" fill="#31D67B"/>
<circle cx="162.125" cy="66.375" r="1.375" fill="#31D67B"/>
<circle cx="167.875" cy="66.375" r="1.375" fill="#31D67B"/>
<circle cx="173.625" cy="66.375" r="1.375" fill="#31D67B"/>
<circle cx="179.375" cy="66.375" r="1.375" fill="#31D67B"/>
<circle cx="185.125" cy="66.375" r="1.375" fill="#31D67B"/>
<circle cx="190.875" cy="66.375" r="1.375" fill="#31D67B"/>
<circle cx="196.625" cy="66.375" r="1.375" fill="#31D67B"/>
<circle cx="202.375" cy="66.375" r="1.375" fill="#31D67B"/>
<circle cx="156.375" cy="72.125" r="1.375" fill="#31D67B"/>
<circle cx="162.125" cy="72.125" r="1.375" fill="#31D67B"/>
<circle cx="156.375" cy="77.875" r="1.375" fill="#31D67B"/>
<circle cx="162.125" cy="77.875" r="1.375" fill="#31D67B"/>
<circle cx="167.875" cy="77.875" r="1.375" fill="#31D67B"/>
<circle cx="173.625" cy="77.875" r="1.375" fill="#31D67B"/>
<circle cx="179.375" cy="77.875" r="1.375" fill="#31D67B"/>
<circle cx="185.125" cy="77.875" r="1.375" fill="#31D67B"/>
<circle cx="190.875" cy="77.875" r="1.375" fill="#31D67B"/>
<circle cx="196.625" cy="77.875" r="1.375" fill="#31D67B"/>
<circle cx="202.375" cy="77.875" r="1.375" fill="#31D67B"/>
<circle cx="167.875" cy="72.125" r="1.375" fill="#31D67B"/>
<circle cx="173.625" cy="72.125" r="1.375" fill="#31D67B"/>
<circle cx="179.375" cy="72.125" r="1.375" fill="#31D67B"/>
<circle cx="185.125" cy="72.125" r="1.375" fill="#31D67B"/>
<circle cx="190.875" cy="72.125" r="1.375" fill="#31D67B"/>
<circle cx="196.625" cy="72.125" r="1.375" fill="#31D67B"/>
<circle cx="202.375" cy="72.125" r="1.375" fill="#31D67B"/>
<circle cx="42.375" cy="104.375" r="1.375" fill="#D4D4D4"/>
<circle cx="48.125" cy="104.375" r="1.375" fill="#D4D4D4"/>
<circle cx="53.875" cy="104.375" r="1.375" fill="#D4D4D4"/>
<circle cx="59.625" cy="104.375" r="1.375" fill="#D4D4D4"/>
<circle cx="65.375" cy="104.375" r="1.375" fill="#D4D4D4"/>
<circle cx="71.125" cy="104.375" r="1.375" fill="#D4D4D4"/>
<circle cx="76.875" cy="104.375" r="1.375" fill="#D4D4D4"/>
<circle cx="82.625" cy="104.375" r="1.375" fill="#D4D4D4"/>
<circle cx="88.375" cy="104.375" r="1.375" fill="#D4D4D4"/>
<circle cx="42.375" cy="110.125" r="1.375" fill="#D4D4D4"/>
<circle cx="48.125" cy="110.125" r="1.375" fill="#D4D4D4"/>
<circle cx="42.375" cy="115.875" r="1.375" fill="#D4D4D4"/>
<circle cx="48.125" cy="115.875" r="1.375" fill="#D4D4D4"/>
<circle cx="53.875" cy="115.875" r="1.375" fill="#D4D4D4"/>
<circle cx="59.625" cy="115.875" r="1.375" fill="#D4D4D4"/>
<circle cx="65.375" cy="115.875" r="1.375" fill="#D4D4D4"/>
<circle cx="71.125" cy="115.875" r="1.375" fill="#D4D4D4"/>
<circle cx="76.875" cy="115.875" r="1.375" fill="#D4D4D4"/>
<circle cx="82.625" cy="115.875" r="1.375" fill="#D4D4D4"/>
<circle cx="88.375" cy="115.875" r="1.375" fill="#D4D4D4"/>
<circle cx="53.875" cy="110.125" r="1.375" fill="#D4D4D4"/>
<circle cx="59.625" cy="110.125" r="1.375" fill="#D4D4D4"/>
<circle cx="65.375" cy="110.125" r="1.375" fill="#D4D4D4"/>
<circle cx="71.125" cy="110.125" r="1.375" fill="#D4D4D4"/>
<circle cx="76.875" cy="110.125" r="1.375" fill="#D4D4D4"/>
<circle cx="82.625" cy="110.125" r="1.375" fill="#D4D4D4"/>
<circle cx="88.375" cy="110.125" r="1.375" fill="#D4D4D4"/>
<rect x="76" y="42" width="84" height="84" fill="#A57CFE"/>
<path d="M86 62L86 67" stroke="black"/>
<rect x="83.5" y="60.5" width="68" height="8" stroke="black"/>
<rect x="83.5" y="79.5" width="68" height="8" stroke="black"/>
<rect x="83.5" y="98.5" width="68" height="8" stroke="black"/>
<rect width="224" height="16" transform="translate(76 133.75)" fill="#31D67B"/>
<path d="M239 138.5L248.5 129" stroke="black"/>
<path d="M245.5 139L255 129.5" stroke="black"/>
<path d="M252 139L261.5 129.5" stroke="black"/>
<path d="M258.5 139L268 129.5" stroke="black"/>
<path d="M265 139L274.5 129.5" stroke="black"/>
<path d="M271.5 139L281 129.5" stroke="black"/>
<path d="M278 139L287.5 129.5" stroke="black"/>
<rect width="79" height="33" transform="translate(219 86)" fill="#D4D4D4"/>
<path d="M226 95H291" stroke="black"/>
<path d="M226.5 103H291.5" stroke="black"/>
<path d="M226.5 111H291.5" stroke="black"/>
</svg>
