<svg width="341" height="180" viewBox="0 0 341 180" fill="none" xmlns="http://www.w3.org/2000/svg">
<rect width="341" height="180" fill="#F5F5F5"/>
<path d="M261 121C274.5 120 300.3 109.3 301.5 80.5C301.5 44.5 274 35 260.5 35C241 35 160 35 114 35" stroke="black"/>
<path d="M261.203 121H188.999" stroke="black"/>
<path d="M77.5 56C64 57 38.2 67.7 37 96.5C37 132.5 64.5 142 78 142C97.5 142 178.5 142 224.5 142" stroke="black"/>
<path d="M77.2969 56H149.501" stroke="black"/>
<path d="M209.5 35.5V120.5M209.5 35.5V120.5" stroke="black"/>
<path d="M214 35V121M214 35V121" stroke="black"/>
<path d="M219 35V121M219 35V121" stroke="black"/>
<path d="M224 35V121M224 35V121" stroke="black"/>
<path d="M229 35V121M229 35V121" stroke="black"/>
<path d="M234 35V121M234 35V121" stroke="black"/>
<path d="M239 35V121M239 35V121" stroke="black"/>
<path d="M244 35V121M244 35V121" stroke="black"/>
<circle cx="288" cy="44" r="17" fill="#A57CFE"/>
<circle cx="225" cy="142" r="11" fill="#8052E4"/>
<circle cx="82.5" cy="98.5" r="35.5" fill="#31D67B"/>
<circle cx="96.375" cy="93.375" r="1.375" fill="#D4D4D4"/>
<circle cx="102.125" cy="93.375" r="1.375" fill="#D4D4D4"/>
<circle cx="107.875" cy="93.375" r="1.375" fill="#D4D4D4"/>
<circle cx="113.375" cy="93.375" r="1.375" fill="#D4D4D4"/>
<circle cx="119.375" cy="93.375" r="1.375" fill="#D4D4D4"/>
<circle cx="125.125" cy="93.375" r="1.375" fill="#D4D4D4"/>
<circle cx="130.875" cy="93.375" r="1.375" fill="#D4D4D4"/>
<circle cx="136.625" cy="93.375" r="1.375" fill="#D4D4D4"/>
<circle cx="142.375" cy="93.375" r="1.375" fill="#D4D4D4"/>
<circle cx="96.375" cy="99.125" r="1.375" fill="#D4D4D4"/>
<circle cx="102.125" cy="99.125" r="1.375" fill="#D4D4D4"/>
<circle cx="96.375" cy="104.875" r="1.375" fill="#D4D4D4"/>
<circle cx="102.125" cy="104.875" r="1.375" fill="#D4D4D4"/>
<circle cx="107.875" cy="104.875" r="1.375" fill="#D4D4D4"/>
<circle cx="113.625" cy="104.875" r="1.375" fill="#D4D4D4"/>
<circle cx="119.375" cy="104.875" r="1.375" fill="#D4D4D4"/>
<circle cx="125.125" cy="104.875" r="1.375" fill="#D4D4D4"/>
<circle cx="130.875" cy="104.875" r="1.375" fill="#D4D4D4"/>
<circle cx="136.625" cy="104.875" r="1.375" fill="#D4D4D4"/>
<circle cx="142.375" cy="104.875" r="1.375" fill="#D4D4D4"/>
<circle cx="107.875" cy="99.125" r="1.375" fill="#D4D4D4"/>
<circle cx="113.375" cy="99.125" r="1.375" fill="#D4D4D4"/>
<circle cx="119.375" cy="99.125" r="1.375" fill="#D4D4D4"/>
<circle cx="125.125" cy="99.125" r="1.375" fill="#D4D4D4"/>
<circle cx="130.875" cy="99.125" r="1.375" fill="#D4D4D4"/>
<circle cx="136.625" cy="99.125" r="1.375" fill="#D4D4D4"/>
<circle cx="142.375" cy="99.125" r="1.375" fill="#D4D4D4"/>
<circle cx="96.375" cy="93.375" r="1.375" fill="#D4D4D4"/>
<circle cx="102.125" cy="93.375" r="1.375" fill="#D4D4D4"/>
<circle cx="107.875" cy="93.375" r="1.375" fill="#D4D4D4"/>
<circle cx="113.375" cy="93.375" r="1.375" fill="#D4D4D4"/>
<circle cx="119.375" cy="93.375" r="1.375" fill="#D4D4D4"/>
<circle cx="125.125" cy="93.375" r="1.375" fill="#D4D4D4"/>
<circle cx="130.875" cy="93.375" r="1.375" fill="#D4D4D4"/>
<circle cx="136.625" cy="93.375" r="1.375" fill="#D4D4D4"/>
<circle cx="142.375" cy="93.375" r="1.375" fill="#D4D4D4"/>
<circle cx="96.375" cy="99.125" r="1.375" fill="#D4D4D4"/>
<circle cx="102.125" cy="99.125" r="1.375" fill="#D4D4D4"/>
<circle cx="96.375" cy="104.875" r="1.375" fill="#D4D4D4"/>
<circle cx="102.125" cy="104.875" r="1.375" fill="#D4D4D4"/>
<circle cx="107.875" cy="104.875" r="1.375" fill="#D4D4D4"/>
<circle cx="113.625" cy="104.875" r="1.375" fill="#D4D4D4"/>
<circle cx="119.375" cy="104.875" r="1.375" fill="#D4D4D4"/>
<circle cx="125.125" cy="104.875" r="1.375" fill="#D4D4D4"/>
<circle cx="130.875" cy="104.875" r="1.375" fill="#D4D4D4"/>
<circle cx="136.625" cy="104.875" r="1.375" fill="#D4D4D4"/>
<circle cx="142.375" cy="104.875" r="1.375" fill="#D4D4D4"/>
<circle cx="107.875" cy="99.125" r="1.375" fill="#D4D4D4"/>
<circle cx="113.375" cy="99.125" r="1.375" fill="#D4D4D4"/>
<circle cx="119.375" cy="99.125" r="1.375" fill="#D4D4D4"/>
<circle cx="125.125" cy="99.125" r="1.375" fill="#D4D4D4"/>
<circle cx="130.875" cy="99.125" r="1.375" fill="#D4D4D4"/>
<circle cx="136.625" cy="99.125" r="1.375" fill="#D4D4D4"/>
<circle cx="142.375" cy="99.125" r="1.375" fill="#D4D4D4"/>
<path d="M119 35V56" stroke="black"/>
<path d="M122 35V56" stroke="black"/>
<path d="M125 35V56" stroke="black"/>
<path d="M128 35V56" stroke="black"/>
<path d="M131 35V56" stroke="black"/>
</svg>
