<svg width="260" height="115" fill="none" xmlns="http://www.w3.org/2000/svg">
  <g clip-path="url(#clip0)">
    <g clip-path="url(#clip1)">
      <path d="M34.4 67h0c0 5-3.9 8.8-10.1 9.7h-.5V82h-5.5v-5.2l-.4-.1c-3.4-.7-6.7-2.3-9-4.6l4-3.8a12.9 12.9 0 0013.4 2.3c1.4-.7 2.6-1.8 2.6-3.5 0 0 0 0 0 0h0s0 0 0 0a4.7 4.7 0 00-2-4.2 23 23 0 00-6.3-2.5c-2.6-.9-5.3-1.7-7.5-3.2h0a9.3 9.3 0 01-4.2-8c0-4.9 3.4-8.5 9-9.8h.4v-5.4h5.5V39h.5c2.9.3 5.8 1.2 8 2.5l-3 4.6c-1.9-1-4.6-1.7-7-1.7a13 13 0 00-5.2 1c-1.5.7-2.7 1.9-2.7 3.7 0 .7.1 1.4.4 2 .3.6.8 1 1.4 1.5 1.2.8 3.1 1.5 6 2.4h0c2.8.8 5.6 1.7 7.9 3.3 2.9 2 4.3 5 4.3 8.7z" fill="url(#paint0_linear)" stroke="url(#paint1_linear)"/>
    </g>
    <g clip-path="url(#clip2)">
      <path d="M88.4 67h0c0 5-3.9 8.8-10.1 9.7h-.5V82h-5.5v-5.2l-.4-.1c-3.4-.7-6.7-2.3-9-4.6l4-3.8a12.9 12.9 0 0013.4 2.3c1.4-.7 2.6-1.8 2.6-3.5 0 0 0 0 0 0h0s0 0 0 0a4.7 4.7 0 00-2-4.2 23 23 0 00-6.3-2.5c-2.6-.9-5.3-1.7-7.5-3.2h0a9.3 9.3 0 01-4.2-8c0-4.9 3.4-8.5 9-9.8h.4v-5.4h5.5V39h.5c2.9.3 5.8 1.2 8 2.5l-3 4.6c-1.9-1-4.6-1.7-7-1.7a13 13 0 00-5.2 1c-1.5.7-2.7 1.9-2.7 3.7 0 .7.1 1.4.4 2 .3.6.8 1 1.4 1.5 1.2.8 3.1 1.5 6 2.4h0c2.8.8 5.6 1.7 7.9 3.3 2.9 2 4.3 5 4.3 8.7z" fill="url(#paint2_linear)" stroke="url(#paint3_linear)"/>
    </g>
    <g clip-path="url(#clip3)">
      <path d="M142.4 67h0c0 5-3.9 8.8-10.1 9.7h-.5V82h-5.5v-5.2l-.4-.1c-3.5-.7-6.7-2.3-9-4.6l4-3.8a12.9 12.9 0 0013.4 2.3c1.4-.7 2.6-1.8 2.6-3.5 0 0 0 0 0 0h0s0 0 0 0a4.7 4.7 0 00-2-4.2 23 23 0 00-6.3-2.5c-2.6-.9-5.3-1.7-7.5-3.2h0a9.3 9.3 0 01-4.2-8c0-4.9 3.4-8.5 9-9.8h.4v-5.4h5.5V39h.5c2.9.3 5.8 1.2 8 2.5l-3 4.6c-1.9-1-4.6-1.7-7-1.7a13 13 0 00-5.2 1c-1.5.7-2.7 1.9-2.7 3.7 0 .7.1 1.4.4 2 .3.6.8 1 1.4 1.5a23 23 0 006 2.4h0c2.8.8 5.6 1.7 7.9 3.3 2.9 2 4.3 5 4.3 8.7z" fill="url(#paint4_linear)" stroke="url(#paint5_linear)"/>
    </g>
    <g clip-path="url(#clip4)">
      <path d="M196.4 67h0c0 5-3.9 8.8-10.1 9.7h-.5V82h-5.5v-5.2l-.4-.1c-3.5-.7-6.7-2.3-9-4.6l4-3.8a12.9 12.9 0 0013.4 2.3c1.4-.7 2.6-1.8 2.6-3.5 0 0 0 0 0 0h0s0 0 0 0a4.7 4.7 0 00-2-4.2 23 23 0 00-6.3-2.5c-2.6-.9-5.3-1.7-7.5-3.2h0a9.3 9.3 0 01-4.2-8c0-4.9 3.4-8.5 9-9.8h.4v-5.4h5.5V39h.5c2.9.3 5.8 1.2 8 2.5l-3 4.6c-1.9-1-4.6-1.7-7-1.7a13 13 0 00-5.2 1c-1.5.7-2.7 1.9-2.7 3.7 0 .7.1 1.4.4 2 .3.6.8 1 1.4 1.5a23 23 0 006 2.4h0c2.8.8 5.6 1.7 7.9 3.3 2.9 2 4.3 5 4.3 8.7z" stroke="url(#paint6_linear)"/>
    </g>
    <g clip-path="url(#clip5)">
      <path d="M250.4 67h0c0 5-3.9 8.8-10.1 9.7h-.5V82h-5.5v-5.2l-.4-.1c-3.5-.7-6.7-2.3-9-4.6l4-3.8a12.9 12.9 0 0013.4 2.3c1.4-.7 2.6-1.8 2.6-3.5 0 0 0 0 0 0h0s0 0 0 0a4.7 4.7 0 00-2-4.2 23 23 0 00-6.3-2.5c-2.6-.9-5.3-1.7-7.5-3.2h0a9.3 9.3 0 01-4.2-8c0-4.9 3.4-8.5 9-9.8h.4v-5.4h5.5V39h.5c2.9.3 5.8 1.2 8 2.5l-3 4.6c-1.9-1-4.6-1.7-7-1.7a13 13 0 00-5.2 1c-1.5.7-2.7 1.9-2.7 3.7 0 .7.1 1.4.4 2 .3.6.8 1 1.4 1.5a23 23 0 006 2.4h0c2.8.8 5.6 1.7 7.9 3.3 2.9 2 4.3 5 4.3 8.7z" stroke="url(#paint7_linear)"/>
    </g>
  </g>
  <defs>
    <linearGradient id="paint0_linear" x1="3.8" y1="87.3" x2="58.8" y2="48.4" gradientUnits="userSpaceOnUse">
      <stop stop-color="#AB85FF"/>
      <stop offset=".5" stop-color="#EBA3E3"/>
      <stop offset="1" stop-color="#FFDBE4"/>
    </linearGradient>
    <linearGradient id="paint1_linear" x1="3.8" y1="87.3" x2="58.8" y2="48.4" gradientUnits="userSpaceOnUse">
      <stop stop-color="#AB85FF"/>
      <stop offset=".5" stop-color="#EBA3E3"/>
      <stop offset="1" stop-color="#FFDBE4"/>
    </linearGradient>
    <linearGradient id="paint2_linear" x1="57.8" y1="87.3" x2="112.8" y2="48.4" gradientUnits="userSpaceOnUse">
      <stop stop-color="#AB85FF"/>
      <stop offset=".5" stop-color="#EBA3E3"/>
      <stop offset="1" stop-color="#FFDBE4"/>
    </linearGradient>
    <linearGradient id="paint3_linear" x1="57.8" y1="87.3" x2="112.8" y2="48.4" gradientUnits="userSpaceOnUse">
      <stop stop-color="#AB85FF"/>
      <stop offset=".5" stop-color="#EBA3E3"/>
      <stop offset="1" stop-color="#FFDBE4"/>
    </linearGradient>
    <linearGradient id="paint4_linear" x1="111.8" y1="87.3" x2="166.8" y2="48.4" gradientUnits="userSpaceOnUse">
      <stop stop-color="#AB85FF"/>
      <stop offset=".5" stop-color="#EBA3E3"/>
      <stop offset="1" stop-color="#FFDBE4"/>
    </linearGradient>
    <linearGradient id="paint5_linear" x1="111.8" y1="87.3" x2="166.8" y2="48.4" gradientUnits="userSpaceOnUse">
      <stop stop-color="#AB85FF"/>
      <stop offset=".5" stop-color="#EBA3E3"/>
      <stop offset="1" stop-color="#FFDBE4"/>
    </linearGradient>
    <linearGradient id="paint6_linear" x1="165.8" y1="87.3" x2="220.8" y2="48.4" gradientUnits="userSpaceOnUse">
      <stop stop-color="#AB85FF"/>
      <stop offset=".5" stop-color="#EBA3E3"/>
      <stop offset="1" stop-color="#FFDBE4"/>
    </linearGradient>
    <linearGradient id="paint7_linear" x1="219.8" y1="87.3" x2="274.8" y2="48.4" gradientUnits="userSpaceOnUse">
      <stop stop-color="#AB85FF"/>
      <stop offset=".5" stop-color="#EBA3E3"/>
      <stop offset="1" stop-color="#FFDBE4"/>
    </linearGradient>
    <clipPath id="clip0">
      <path fill="#fff" d="M0 0h260v115H0z"/>
    </clipPath>
    <clipPath id="clip1">
      <path fill="#fff" transform="translate(-3 33.4)" d="M0 0h49v49H0z"/>
    </clipPath>
    <clipPath id="clip2">
      <path fill="#fff" transform="translate(51 33.4)" d="M0 0h49v49H0z"/>
    </clipPath>
    <clipPath id="clip3">
      <path fill="#fff" transform="translate(105 33.4)" d="M0 0h49v49H0z"/>
    </clipPath>
    <clipPath id="clip4">
      <path fill="#fff" transform="translate(159 33.4)" d="M0 0h49v49H0z"/>
    </clipPath>
    <clipPath id="clip5">
      <path fill="#fff" transform="translate(213 33.4)" d="M0 0h49v49H0z"/>
    </clipPath>
  </defs>
</svg>
