<svg width="341" height="181" fill="none" xmlns="http://www.w3.org/2000/svg">
  <path d="M86.6 125.5C73 124.5 47.3 113.8 46 85c0-36 27.5-45.5 41-45.5h146.5M86.4 125.5h72.2M270 60.5c13.6 1 39.4 11.7 40.6 40.5 0 36-27.5 45.5-41 45.5H123M270.3 60.5H198M138 40v85m0-85v85M133.6 39.5v86m0-86v86M128.6 39.5v86m0-86v86M123.6 39.5v86m0-86v86M118.6 39.5v86m0-86v86M113.6 39.5v86m0-86v86M108.6 39.5v86m0-86v86M103.6 39.5v86m0-86v86M228.6 39.5v21M225.6 39.5v21M222.6 39.5v21M219.6 39.5v21M216.6 39.5v21" stroke="#000"/>
  <path d="M244.2 71l36.4 56.6H208L244.2 71z" fill="#A57CFE"/>
  <path d="M225.6 122l21.9-34h-43.8l21.9 34z" fill="#8052E4"/>
  <circle cx="158.6" cy="125" r="11.2" fill="#4AE991"/>
  <circle cx="238.8" cy="39.5" r="5.2" fill="#4AE991"/>
  <circle cx="31.8" cy="78" r="1.4" fill="#D4D4D4"/>
  <circle cx="37.5" cy="78" r="1.4" fill="#D4D4D4"/>
  <circle cx="43.3" cy="78" r="1.4" fill="#D4D4D4"/>
  <circle cx="48.8" cy="78" r="1.4" fill="#D4D4D4"/>
  <circle cx="54.8" cy="78" r="1.4" fill="#D4D4D4"/>
  <circle cx="60.5" cy="78" r="1.4" fill="#D4D4D4"/>
  <circle cx="66.3" cy="78" r="1.4" fill="#D4D4D4"/>
  <circle cx="72" cy="78" r="1.4" fill="#D4D4D4"/>
  <circle cx="77.8" cy="78" r="1.4" fill="#D4D4D4"/>
  <circle cx="31.8" cy="83.8" r="1.4" fill="#D4D4D4"/>
  <circle cx="37.5" cy="83.8" r="1.4" fill="#D4D4D4"/>
  <circle cx="31.8" cy="89.5" r="1.4" fill="#D4D4D4"/>
  <circle cx="37.5" cy="89.5" r="1.4" fill="#D4D4D4"/>
  <circle cx="43.3" cy="89.5" r="1.4" fill="#D4D4D4"/>
  <circle cx="49" cy="89.5" r="1.4" fill="#D4D4D4"/>
  <circle cx="54.8" cy="89.5" r="1.4" fill="#D4D4D4"/>
  <circle cx="60.5" cy="89.5" r="1.4" fill="#D4D4D4"/>
  <circle cx="66.3" cy="89.5" r="1.4" fill="#D4D4D4"/>
  <circle cx="72" cy="89.5" r="1.4" fill="#D4D4D4"/>
  <circle cx="77.8" cy="89.5" r="1.4" fill="#D4D4D4"/>
  <circle cx="43.3" cy="83.8" r="1.4" fill="#D4D4D4"/>
  <circle cx="48.8" cy="83.8" r="1.4" fill="#D4D4D4"/>
  <circle cx="54.8" cy="83.8" r="1.4" fill="#D4D4D4"/>
  <circle cx="60.5" cy="83.8" r="1.4" fill="#D4D4D4"/>
  <circle cx="66.3" cy="83.8" r="1.4" fill="#D4D4D4"/>
  <circle cx="72" cy="83.8" r="1.4" fill="#D4D4D4"/>
  <circle cx="77.8" cy="83.8" r="1.4" fill="#D4D4D4"/>
</svg>
