<svg width="341" height="181" fill="none" xmlns="http://www.w3.org/2000/svg">
  <circle cx="215.8" cy="82.1" r="42.5" fill="#A57CFE"/>
  <mask id="a" maskUnits="userSpaceOnUse" x="173" y="39" width="86" height="86">
    <circle cx="215.8" cy="82.1" r="42.5" fill="#A57CFE"/>
  </mask>
  <g mask="url(#a)" stroke="#B491FF">
    <path d="M255.3 33.6v101.2m0-101.2v101.2M249 33.6v101.2m0-101.2v101.2M242.6 33.6v101.2m0-101.2v101.2M236.3 33.6v101.2m0-101.2v101.2M230 33.6v101.2m0-101.2v101.2M223.6 33.6v101.2m0-101.2v101.2M217 34.8v100m0-100v100M211.3 34.2v101.1m0-101v101M205 34.2v101.1m0-101v101M198.7 34.2v101.1m0-101v101M192.3 34.2v101.1m0-101v101M186 34.2v101.1m0-101v101M179.6 34.2v101.1m0-101v101M173.3 34.2v101.1m0-101v101"/>
  </g>
  <path d="M192.6 59.3a22.8 22.8 0 01-45.6 0h45.6zM287 112a32.2 32.2 0 10-64.4 0H287z" fill="#8052E4"/>
  <path d="M86.7 139.5l-32.7-37h93.7l30.5 37H86.7z" fill="#4AE991"/>
  <mask id="b" maskUnits="userSpaceOnUse" x="53" y="102" width="126" height="38">
    <path d="M86.7 139.5l-32.7-37h93.7l30.5 37H86.7z" fill="#4AE991"/>
  </mask>
  <g mask="url(#b)" stroke="#A57CFE">
    <path d="M254.8 138.2c-59.8 23.7-102.5 23.7-128.2 0-25.6-23.7-68.3-23.7-128.1 0"/>
    <path d="M247.3 92.7C201.5 128.4 161 138 125.8 121c-35.2-16.8-75.7-7.4-121.5 28.3"/>
    <path d="M252.3 108.4c-62.3 20.4-105 18.1-127.8-7-22.8-25-65.4-27.3-127.7-7"/>
  </g>
  <path d="M110.2 121V73m0 0l-.8 1.3m.8-1.3l.7 1.3M122 121V54m0 0l-.8 1.8m.8-1.9l.7 1.9M98.4 121V90.8m0 0l-.8.8m.8-.8l.7.8M133.8 121V99.3m0 0l-.7.6m.7-.6l.7.6" stroke="#000"/>
</svg>
