<svg width="260" height="115" fill="none" xmlns="http://www.w3.org/2000/svg">
  <path d="M202 58.4h56m0 0l-7 2.5m7-2.5l-7-2" stroke="url(#paint0_linear)"/>
  <path d="M2 59.6l.3.7.3.7.4.7.3.7.3.7.3.7.3.7.4.7.3.6.3.7.3.7.3.6.3.7.4.6.3.6.3.7.3.6.3.6.4.6.3.5.3.6.3.6.3.5.4.5.3.5.3.5.3.5.3.5.4.4.3.4.3.4.3.4.3.4.3.4.4.3.3.3.3.4.3.2.3.3.4.2.3.3.3.2.3.2.3.1.4.2h.3l.3.2h.3l.3.1h.3l.4.1H19.2l.3-.1.4-.1.3-.1.3-.2.3-.1.3-.2.4-.2.3-.2.3-.2.3-.3.3-.2.4-.3.3-.3.3-.4.3-.3.3-.4.3-.4.4-.4.3-.4.3-.4.3-.5.3-.4.4-.5.3-.5.3-.5.3-.6.3-.5.4-.6.3-.5.3-.6.3-.6.3-.6.4-.6.3-.6.3-.7.3-.6.3-.7.3-.6.4-.7.3-.6.3-.7.3-.7.3-.7.4-.7.3-.7.3-.7.3-.7.3-.7.4-.7.3-.7.3-.7.3-.7.3-.7.3-.7.4-.7.3-.7.3-.7.3-.7.3-.7.4-.6.3-.7.3-.7.3-.6.3-.7.4-.6.3-.6.3-.6.3-.7.3-.5.4-.6.3-.6.3-.6.3-.5.3-.5.3-.6.4-.5.3-.5.3-.4.3-.5.3-.4.4-.5.3-.4.3-.4.3-.3.3-.4.4-.3.3-.3.3-.3.3-.3.3-.3.4-.2.3-.2.3-.2.3-.2.3-.2.3-.1.4-.1.3-.1.3-.1h.6l.4-.1H52.7l.3.2h.4l.3.2.3.1.3.2.3.1.4.2.3.2.3.3.3.2.3.3.3.3.4.3.3.4.3.3.3.4.3.4.4.4.3.4.3.4.3.5.3.5.4.5.3.5.3.5.3.5.3.5.3.6.4.6.3.6.3.6.3.6.3.6.4.6.3.6.3.7.3.6.3.7.4.7.3.6.3.7.3.7.3.7.4.7.3.7.3.7.3.7.3.7.3.7.4.7.3.7.3.7.3.7.3.7.4.7.3.7.3.7.3.7.3.6.4.7.3.7.3.6.3.7.3.6.4.7.3.6.3.6.3.6.3.6.3.6.4.6.3.5.3.6.3.5.3.5.4.5.3.5.3.5.3.4.3.4.4.5.3.4.3.4.3.3.3.4.3.3.4.3.3.3.3.3.3.2.3.3.4.2.3.2.3.2.3.1.3.1.4.2h.3l.3.1h.6l.4.1h.6l.3-.1h.3l.3-.2.4-.1.3-.1.3-.2.3-.2.3-.2.4-.2.3-.3.3-.2.3-.3.3-.3.4-.3.3-.4.3-.3.3-.4.3-.4.4-.4.3-.4.3-.5.3-.4.3-.5.3-.5.4-.5.3-.5.3-.6.3-.5.3-.6.4-.5.3-.6.3-.6.3-.6.3-.7.4-.6.3-.6.3-.7.3-.6.3-.7.4-.7.3-.6.3-.7.3-.7.3-.7.3-.7.4-.7.3-.7.3-.7.3-.7.3-.7.4-.7.3-.7.3-.7.3-.7.3-.7.4-.7.3-.7.3-.7.3-.7.3-.6.3-.7.4-.7.3-.6.3-.7.3-.6.3-.7.4-.6.3-.6.3-.6.3-.6.3-.6.4-.5.3-.6.3-.5.3-.5.3-.5.4-.5.3-.5.3-.5.3-.4.3-.5.3-.4.4-.4.3-.4.3-.3.3-.4.3-.3.4-.3.3-.3.3-.3.3-.2.3-.2.4-.3.3-.1.3-.2.3-.2h.3l.4-.2h.3l.3-.1h.3l.3-.1h1l.3.1.3.1.3.1.4.1.3.2.3.2.3.1.3.2.4.3.3.2.3.3.3.3.3.3.3.3.4.4.3.3.3.4.3.4.3.4.4.4.3.5.3.5.3.4.3.5.4.5.3.6.3.5.3.6.3.5.4.6.3.6.3.6.3.6.3.6.3.7.4.6.3.6.3.7.3.7.3.6.4.7.3.7.3.7.3.7.3.7.4.7.3.7.3.7.3.7.3.7.4.7.3.7.3.7.3.7.3.7.3.7.4.7.3.7.3.6.3.7.3.7.4.7.3.6.3.7.3.6.3.6.4.6.3.7.3.6.3.5.3.6.4.6.3.5.3.6.3.5.3.5.3.5.4.5.3.4.3.5.3.4.3.4.4.4.3.4.3.3.3.4.3.3.4.3.3.3.3.2.3.3.3.2.3.2.4.2.3.1.3.2.3.1.3.1h.4l.3.1h.3l.3.1h1l.3-.2h.3l.3-.2h.4l.3-.2.3-.2.3-.2.3-.2.3-.2.4-.3.3-.3.3-.3.3-.3.3-.3.4-.4.3-.3.3-.4.3-.4.3-.4.4-.5.3-.4.3-.5.3-.5.3-.5.4-.5.3-.5.3-.6.3-.5.3-.6.3-.6.4-.6.3-.6.3-.6.3-.6.3-.6.4-.7.3-.6.3-.7.3-.7.3-.6.4-.7.3-.7.3-.7.3-.7.3-.7.4-.7.3-.7.3-.7.3-.7.3-.7.3-.7.4-.7.3-.7.3-.7.3-.7.3-.7.4-.7.3-.7.3-.6.3-.7.3-.7.4-.6.3-.7.3-.6.3-.7.3-.6.3-.6.4-.6.3-.6.3-.6.3-.6.3-.5.4-.6.3-.5.3-.5.3-.5.3-.5.4-.5.3-.4.3-.5.3-.4.3-.4.4-.4.3-.4.3-.3.3-.4.3-.3.3-.3.4-.2.3-.3.3-.2.3-.3.3-.2.4-.1.3-.2.3-.1.3-.1.3-.1.4-.1h.6l.3-.1h.7l.3.1h.3l.3.2h.3l.3.2.4.2.3.2.3.2.3.2.3.2.4.3.3.3.3.2.3.4.3.3.4.4.3.3.3.4.3.4.3.5.3.4.4.4.3.5.3.5.3.5.3.5.4.6.3.5.3.6.3.5.3.6.4.6.3.6.3.6.3.7.3.6.4.7.3.6.3.7.3.6.3.7.3.7.4.7.3.7.3.7.3.7.3.7.4.7.3.7.3.7" stroke="url(#paint1_linear)"/>
  <path d="M35.6 57.6l.3.7.4.8.3.7.3.7.3.7.3.6.4.7.3.7.3.7.3.7.3.6.4.7.3.6.3.7.3.6.4.6.3.6.3.6.3.6.3.6.4.6.3.5.3.6.3.5.3.5.4.5.3.5.3.4.3.5.3.4.4.4.3.4.3.4.3.4.3.3.4.3.3.3.3.3.3.3.3.2.4.2.3.3.3.1.3.2.3.1.4.2h.3l.3.2h2.2l.4-.2h.3l.3-.2.3-.1.3-.2.4-.2.3-.2.3-.2.3-.3.3-.3.4-.3.3-.3.3-.3.3-.3.3-.4.4-.4.3-.4.3-.4.3-.4.3-.5.4-.5.3-.5.3-.4.3-.6.3-.5.4-.5.3-.6.3-.6.3-.5.3-.6.4-.6.3-.6.3-.7.3-.6.4-.6.3-.7.3-.7.3-.6.3-.7.4-.7.3-.7.3-.6.3-.7.3-.7.4-.7.3-.7.3-.7.3-.8.3-.7.4-.7.3-.7.3-.7.3-.7.3-.7.4-.7.3-.7.3-.7.3-.6.3-.7.4-.7.3-.6.3-.7.3-.6.3-.7.4-.6.3-.6.3-.6.3-.6.3-.6.4-.6.3-.6.3-.5.3-.5.3-.6.4-.5.3-.4.3-.5.3-.5.3-.4.4-.5.3-.4.3-.4.3-.3.3-.4.4-.3.3-.3.3-.3.3-.3.3-.3.4-.2.3-.2.3-.2.3-.2.3-.2.4-.1.3-.1.3-.1.3-.1h.7l.3-.1H86.5l.4.2h.3l.3.2.3.1.3.2.4.1.3.2.3.2.3.3.4.2.3.3.3.3.3.3.3.4.4.3.3.4.3.4.3.4.3.4.4.4.3.5.3.5.3.5.3.5.4.5.3.5.3.6.3.5.3.6.4.6.3.6.3.6.3.6.3.6.4.7.3.6.3.7.3.6.3.7.4.7.3.6.3.7.3.7.3.7.4.7.3.7.3.7.3.7.3.7.4.7.3.7.3.7.3.7.3.7.4.7.3.7.3.7.3.7.3.7.4.7.3.6.3.7.3.7.3.6.4.6.3.7.3.6.3.6.3.6.4.6.3.5.3.6.3.5.3.6.4.5.3.5.3.5.3.4.3.5.4.4.3.4.3.4.3.4.4.4.3.3.3.4.3.3.3.3.4.3.3.2.3.3.3.2.3.2.4.1.3.2.3.1.3.1.3.1h.4l.3.1H120.2l.3-.1.3-.1.3-.1.4-.2.3-.1.3-.2.3-.2.3-.2.4-.3.3-.2.3-.3.3-.3.3-.3.4-.4.3-.3.3-.4.3-.4.3-.4.4-.5.3-.4.3-.5.3-.4.3-.5.4-.5.3-.6.3-.5.3-.5.3-.6.4-.6.3-.6.3-.6.3-.6.3-.6.4-.6.3-.7.3-.6.3-.7.3-.6.4-.7.3-.7.3-.7.3-.6.3-.7.4-.7.3-.7.3-.7.3-.7.3-.7.4-.8.3-.7.3-.7.3-.7.3-.7.4-.7.3-.7.3-.7.3-.6.4-.7.3-.7.3-.7.3-.7.3-.6.4-.7.3-.6.3-.6.3-.7.3-.6.4-.6.3-.6.3-.5.3-.6.3-.6.4-.5.3-.5.3-.5.3-.5.3-.5.4-.5.3-.4.3-.5.3-.4.3-.4.4-.4.3-.3.3-.4.3-.3.3-.3.4-.3.3-.3.3-.2.3-.2.3-.2.4-.2.3-.2.3-.2h.3l.3-.2h.4l.3-.1h.3l.3-.1h1l.3.1.3.1.3.1.4.1.3.2.3.2.3.1.3.3.4.2.3.2.3.3.3.3.3.3.4.3.3.4.3.3.3.4.3.4.4.4.3.5.3.4.3.5.3.4.4.5.3.6.3.5.3.5.3.6.4.5.3.6.3.6.3.6.4.6.3.6.3.7.3.6.3.7.4.6.3.7.3.7.3.6.3.7.4.7.3.7.3.7.3.7.3.7.4.7.3.7.3.7.3.7.3.7.4.7.3.7.3.7.3.7.3.7.4.7.3.7.3.7.3.6.3.7.4.7.3.6.3.7.3.6.3.6.4.6.3.6.3.6.3.6.3.5.4.6.3.5.3.5.3.6.3.4.4.5.3.5.3.4.3.5.3.4.4.4.3.3.3.4.3.3.3.4.4.3.3.2.3.3.3.3.3.2.4.2.3.2.3.1.3.2h.3l.4.2h.3l.3.1H187.4l.4-.2h.3l.3-.2.3-.2.3-.1.4-.2.3-.2.3-.3.3-.2.3-.3.4-.3.3-.3.3-.3.3-.4.3-.4.4-.3.3-.4.3-.5.3-.4.3-.5.4-.4.3-.5.3-.5.3-.5.3-.6.4-.5.3-.6.3-.5.3-.6.3-.6.4-.6.3-.6.3-.6.3-.7.3-.6.4-.7.3-.6.3-.7.3-.7.3-.7.4-.6.3-.7.3-.7.3-.7.3-.7.4-.7.3-.7.3-.7.3-.7.3-.8.4-.7.3-.7.3-.7.3-.7.3-.7.4-.6.3-.7.3-.7.3-.7.3-.7.4-.6.3-.7.3-.6.3-.7.3-.6.4-.6.3-.6.3-.6.3-.6.3-.6.4-.5.3-.6.3-.5.3-.5.3-.5.4-.5.3-.5.3-.4.3-.5.4-.4.3-.4.3-.4.3-.4.3-.3.4-.4.3-.3.3-.3.3-.2.3-.3.4-.2.3-.3.3-.2.3-.1.3-.2.4-.1.3-.1.3-.1.3-.1h.7l.3-.1" stroke="url(#paint2_linear)"/>
  <defs>
    <linearGradient id="paint0_linear" x1="192.9" y1="61.3" x2="193.6" y2="50.7" gradientUnits="userSpaceOnUse">
      <stop stop-color="#AB85FF"/>
      <stop offset=".5" stop-color="#EBA3E3"/>
      <stop offset="1" stop-color="#FFDBE4"/>
    </linearGradient>
    <linearGradient id="paint1_linear" x1="-30.5" y1="87.1" x2="-10.8" y2="-21.3" gradientUnits="userSpaceOnUse">
      <stop stop-color="#AB85FF"/>
      <stop offset=".5" stop-color="#EBA3E3"/>
      <stop offset="1" stop-color="#FFDBE4"/>
    </linearGradient>
    <linearGradient id="paint2_linear" x1="5.7" y1="85.2" x2="27" y2="-22.7" gradientUnits="userSpaceOnUse">
      <stop stop-color="#AB85FF"/>
      <stop offset=".5" stop-color="#EBA3E3"/>
      <stop offset="1" stop-color="#FFDBE4"/>
    </linearGradient>
  </defs>
</svg>
