<svg width="260" height="115" fill="none" xmlns="http://www.w3.org/2000/svg">
  <path d="M37.6 22.3h78.7V92H37.6m0-69.6V92m0-69.6L23 26.7v60l14.5 5.2" stroke="url(#paint0_linear)"/>
  <path d="M158.3 22.3h78.8V92h-78.8m0-69.6V92m0-69.6L144 26.7v60l14.4 5.2" stroke="url(#paint1_linear)"/>
  <path d="M153.9 55c.2-.1.2-.5 0-.7l-3.2-3.1a.5.5 0 10-.7.7l2.8 2.8-2.8 2.8a.5.5 0 00.7.7l3.2-3.1zm-87.9.2h87.5v-1H66v1z" fill="url(#paint2_linear)"/>
  <path d="M210 71.1c0-4.6-1.5-8.8-4-11.8-2.6-3-6-4.7-9.8-4.7-3.7 0-7.1 1.7-9.6 4.7-2.6 3-4 7.2-4.1 11.8 1.4.7 7.4 3.5 13.7 3.5 6.9 0 12.5-2.8 13.8-3.5z" fill="url(#paint3_linear)"/>
  <path d="M196.2 53.4a6.9 6.9 0 100-13.8 6.9 6.9 0 000 13.8z" fill="url(#paint4_linear)"/>
  <defs>
    <linearGradient id="paint0_linear" x1="8" y1="98.8" x2="79.7" y2="-25.4" gradientUnits="userSpaceOnUse">
      <stop stop-color="#AB85FF"/>
      <stop offset=".5" stop-color="#EBA3E3"/>
      <stop offset="1" stop-color="#FFDBE4"/>
    </linearGradient>
    <linearGradient id="paint1_linear" x1="128.7" y1="98.8" x2="200.5" y2="-25.4" gradientUnits="userSpaceOnUse">
      <stop stop-color="#AB85FF"/>
      <stop offset=".5" stop-color="#EBA3E3"/>
      <stop offset="1" stop-color="#FFDBE4"/>
    </linearGradient>
    <linearGradient id="paint2_linear" x1="51.8" y1="55.8" x2="51.8" y2="53.4" gradientUnits="userSpaceOnUse">
      <stop stop-color="#AB85FF"/>
      <stop offset=".5" stop-color="#EBA3E3"/>
      <stop offset="1" stop-color="#FFDBE4"/>
    </linearGradient>
    <linearGradient id="paint3_linear" x1="178" y1="76.6" x2="198.4" y2="40.4" gradientUnits="userSpaceOnUse">
      <stop stop-color="#AB85FF"/>
      <stop offset=".5" stop-color="#EBA3E3"/>
      <stop offset="1" stop-color="#FFDBE4"/>
    </linearGradient>
    <linearGradient id="paint4_linear" x1="187.1" y1="54.7" x2="203" y2="34.2" gradientUnits="userSpaceOnUse">
      <stop stop-color="#AB85FF"/>
      <stop offset=".5" stop-color="#EBA3E3"/>
      <stop offset="1" stop-color="#FFDBE4"/>
    </linearGradient>
  </defs>
</svg>
