<svg width="243" height="59" viewBox="0 0 243 59" fill="none" xmlns="http://www.w3.org/2000/svg">
<path d="M26.2808 40.399V40.4026C26.2748 46.5005 22.4039 50.9642 16.1347 52.0394L15.7056 52.113V52.6324V58.2755H10.1956V52.4951V51.9993L9.78913 51.9066C6.31883 51.1153 3.04853 49.1576 0.71875 46.4096L4.72583 41.8683C6.78773 44.1904 10.093 45.6923 13.1404 45.6923C14.826 45.6923 16.687 45.378 18.1468 44.5876C19.6099 43.7954 20.7724 42.4546 20.773 40.387C20.773 40.3865 20.773 40.386 20.773 40.3854L20.7731 40.3595C20.7731 40.3594 20.7731 40.3594 20.7731 40.3593C20.78 39.2581 20.6324 38.3066 20.2891 37.471C19.9448 36.6328 19.4205 35.9526 18.7277 35.3645C17.3699 34.2119 15.2963 33.3626 12.4828 32.3438C9.82383 31.3778 7.16583 30.4094 4.99733 28.6243L4.99663 28.6237C2.18413 26.3172 0.76374 23.0729 0.76374 18.9428C0.76374 13.1206 4.18073 8.77697 9.80323 7.29514L10.1957 7.19162V6.7101V0.765625H15.7056V6.28129V6.8226L16.1551 6.87724C19.0459 7.22901 21.9584 8.3145 24.1641 9.89015L21.174 15.4385C19.2968 14.1661 16.5762 13.349 14.1934 13.349C12.442 13.349 10.5085 13.6824 8.99283 14.5199C7.47103 15.3608 6.27663 16.7754 6.27663 18.9428C6.27663 19.8293 6.38873 20.6164 6.67993 21.3249C6.97243 22.0366 7.42673 22.6227 8.04963 23.1426C9.26633 24.158 11.2081 24.9819 14.0784 26.0245L14.0791 26.0248C16.8645 27.0311 19.6486 28.0491 21.9318 29.9807C24.8488 32.4566 26.3081 35.9418 26.2808 40.399Z" stroke="url(#paint0_linear)"/>
<path d="M80.2809 40.399V40.4026C80.2749 46.5005 76.404 50.9642 70.1348 52.0394L69.7057 52.113V52.6324V58.2755H64.1957V52.4951V51.9993L63.7892 51.9066C60.3189 51.1153 57.0486 49.1576 54.7188 46.4096L58.7259 41.8683C60.7878 44.1904 64.0931 45.6923 67.1405 45.6923C68.8261 45.6923 70.6871 45.378 72.1469 44.5876C73.61 43.7954 74.7725 42.4546 74.7731 40.387C74.7731 40.3865 74.7731 40.386 74.7731 40.3854L74.7732 40.3595C74.7732 40.3594 74.7732 40.3594 74.7732 40.3593C74.7801 39.2581 74.6325 38.3066 74.2892 37.471C73.9449 36.6328 73.4206 35.9526 72.7278 35.3645C71.37 34.2119 69.2964 33.3626 66.4829 32.3438C63.8239 31.3778 61.1659 30.4094 58.9974 28.6243L58.9967 28.6237C56.1842 26.3172 54.7638 23.0729 54.7638 18.9428C54.7638 13.1206 58.1808 8.77697 63.8033 7.29514L64.1958 7.19162V6.7101V0.765625H69.7057V6.28129V6.8226L70.1552 6.87724C73.046 7.22901 75.9585 8.3145 78.1642 9.89015L75.1741 15.4385C73.2969 14.1661 70.5763 13.349 68.1935 13.349C66.4421 13.349 64.5086 13.6824 62.9929 14.5199C61.4711 15.3608 60.2767 16.7754 60.2767 18.9428C60.2767 19.8293 60.3888 20.6164 60.68 21.3249C60.9725 22.0366 61.4268 22.6227 62.0497 23.1426C63.2664 24.158 65.2082 24.9819 68.0785 26.0245L68.0792 26.0248C70.8646 27.0311 73.6487 28.0491 75.9319 29.9807C78.8489 32.4566 80.3082 35.9418 80.2809 40.399Z" stroke="url(#paint1_linear)"/>
<path d="M134.281 40.399V40.4026C134.275 46.5005 130.404 50.9642 124.135 52.0394L123.706 52.113V52.6324V58.2755H118.196V52.4951V51.9993L117.789 51.9066C114.319 51.1153 111.049 49.1576 108.719 46.4096L112.726 41.8683C114.788 44.1904 118.093 45.6923 121.141 45.6923C122.826 45.6923 124.687 45.378 126.147 44.5876C127.61 43.7954 128.773 42.4546 128.773 40.387C128.773 40.3865 128.773 40.386 128.773 40.3854V40.3595C128.773 40.3594 128.773 40.3594 128.773 40.3593C128.78 39.2581 128.633 38.3066 128.289 37.471C127.945 36.6328 127.421 35.9526 126.728 35.3645C125.37 34.2119 123.297 33.3626 120.483 32.3438C117.824 31.3778 115.166 30.4094 112.998 28.6243L112.997 28.6237C110.184 26.3172 108.764 23.0729 108.764 18.9428C108.764 13.1206 112.181 8.77697 117.803 7.29514L118.196 7.19162V6.7101V0.765625H123.706V6.28129V6.8226L124.155 6.87724C127.046 7.22901 129.959 8.3145 132.164 9.89015L129.174 15.4385C127.297 14.1661 124.576 13.349 122.194 13.349C120.442 13.349 118.509 13.6824 116.993 14.5199C115.471 15.3608 114.277 16.7754 114.277 18.9428C114.277 19.8293 114.389 20.6164 114.68 21.3249C114.973 22.0366 115.427 22.6227 116.05 23.1426C117.267 24.158 119.208 24.9819 122.079 26.0245V26.0248C124.865 27.0311 127.649 28.0491 129.932 29.9807C132.849 32.4566 134.308 35.9418 134.281 40.399Z" stroke="url(#paint2_linear)"/>
<path d="M188.281 40.399V40.4026C188.275 46.5005 184.404 50.9642 178.135 52.0394L177.706 52.113V52.6324V58.2755H172.196V52.4951V51.9993L171.789 51.9066C168.319 51.1153 165.049 49.1576 162.719 46.4096L166.726 41.8683C168.788 44.1904 172.093 45.6923 175.141 45.6923C176.826 45.6923 178.687 45.378 180.147 44.5876C181.61 43.7954 182.773 42.4546 182.773 40.387C182.773 40.3865 182.773 40.386 182.773 40.3854V40.3595C182.773 40.3594 182.773 40.3594 182.773 40.3593C182.78 39.2581 182.633 38.3066 182.289 37.471C181.945 36.6328 181.421 35.9526 180.728 35.3645C179.37 34.2119 177.297 33.3626 174.483 32.3438C171.824 31.3778 169.166 30.4094 166.998 28.6243L166.997 28.6237C164.184 26.3172 162.764 23.0729 162.764 18.9428C162.764 13.1206 166.181 8.77697 171.803 7.29514L172.196 7.19162V6.7101V0.765625H177.706V6.28129V6.8226L178.155 6.87724C181.046 7.22901 183.959 8.3145 186.164 9.89015L183.174 15.4385C181.297 14.1661 178.576 13.349 176.194 13.349C174.442 13.349 172.509 13.6824 170.993 14.5199C169.471 15.3608 168.277 16.7754 168.277 18.9428C168.277 19.8293 168.389 20.6164 168.68 21.3249C168.973 22.0366 169.427 22.6227 170.05 23.1426C171.267 24.158 173.208 24.9819 176.079 26.0245V26.0248C178.865 27.0311 181.649 28.0491 183.932 29.9807C186.849 32.4566 188.308 35.9418 188.281 40.399Z" stroke="url(#paint3_linear)"/>
<path d="M242.281 40.399V40.4026C242.275 46.5005 238.404 50.9642 232.135 52.0394L231.706 52.113V52.6324V58.2755H226.196V52.4951V51.9993L225.789 51.9066C222.319 51.1153 219.049 49.1576 216.719 46.4096L220.726 41.8683C222.788 44.1904 226.093 45.6923 229.141 45.6923C230.826 45.6923 232.687 45.378 234.147 44.5876C235.61 43.7954 236.773 42.4546 236.773 40.387C236.773 40.3865 236.773 40.386 236.773 40.3854V40.3595C236.773 40.3594 236.773 40.3594 236.773 40.3593C236.78 39.2581 236.633 38.3066 236.289 37.471C235.945 36.6328 235.421 35.9526 234.728 35.3645C233.37 34.2119 231.297 33.3626 228.483 32.3438C225.824 31.3778 223.166 30.4094 220.998 28.6243L220.997 28.6237C218.184 26.3172 216.764 23.0729 216.764 18.9428C216.764 13.1206 220.181 8.77697 225.803 7.29514L226.196 7.19162V6.7101V0.765625H231.706V6.28129V6.8226L232.155 6.87724C235.046 7.22901 237.959 8.3145 240.164 9.89015L237.174 15.4385C235.297 14.1661 232.576 13.349 230.194 13.349C228.442 13.349 226.509 13.6824 224.993 14.5199C223.471 15.3608 222.277 16.7754 222.277 18.9428C222.277 19.8293 222.389 20.6164 222.68 21.3249C222.973 22.0366 223.427 22.6227 224.05 23.1426C225.267 24.158 227.208 24.9819 230.079 26.0245V26.0248C232.865 27.0311 235.649 28.0491 237.932 29.9807C240.849 32.4566 242.308 35.9418 242.281 40.399Z" stroke="url(#paint4_linear)"/>
<defs>
<linearGradient id="paint0_linear" x1="-4.35008" y1="64.7377" x2="56.82" y2="28.674" gradientUnits="userSpaceOnUse">
<stop stop-color="#AB85FF"/>
<stop offset="0.526042" stop-color="#EBA3E3"/>
<stop offset="1" stop-color="#FFDBE4"/>
</linearGradient>
<linearGradient id="paint1_linear" x1="49.6499" y1="64.7377" x2="110.82" y2="28.6739" gradientUnits="userSpaceOnUse">
<stop stop-color="#AB85FF"/>
<stop offset="0.526042" stop-color="#EBA3E3"/>
<stop offset="1" stop-color="#FFDBE4"/>
</linearGradient>
<linearGradient id="paint2_linear" x1="103.65" y1="64.7377" x2="164.82" y2="28.674" gradientUnits="userSpaceOnUse">
<stop stop-color="#AB85FF"/>
<stop offset="0.526042" stop-color="#EBA3E3"/>
<stop offset="1" stop-color="#FFDBE4"/>
</linearGradient>
<linearGradient id="paint3_linear" x1="157.65" y1="64.7377" x2="218.82" y2="28.674" gradientUnits="userSpaceOnUse">
<stop stop-color="#AB85FF"/>
<stop offset="0.526042" stop-color="#EBA3E3"/>
<stop offset="1" stop-color="#FFDBE4"/>
</linearGradient>
<linearGradient id="paint4_linear" x1="211.65" y1="64.7377" x2="272.82" y2="28.674" gradientUnits="userSpaceOnUse">
<stop stop-color="#AB85FF"/>
<stop offset="0.526042" stop-color="#EBA3E3"/>
<stop offset="1" stop-color="#FFDBE4"/>
</linearGradient>
</defs>
</svg>
