<svg width="225" height="95" viewBox="0 0 225 95" fill="none" xmlns="http://www.w3.org/2000/svg">
<path d="M170.726 51.577L184.807 38.5874M184.807 38.5874L179.649 40.2719M184.807 38.5874L182.403 43.618" stroke="url(#paint0_linear)"/>
<circle r="13.5" transform="matrix(1 0 0 -1 14 30.1913)" stroke="url(#paint1_linear)"/>
<path d="M152.149 54.5402L131.111 38.5774" stroke="url(#paint2_linear)"/>
<circle r="13.5" transform="matrix(1 0 0 -1 61 67.1913)" stroke="url(#paint3_linear)"/>
<circle r="13.5" transform="matrix(1 0 0 -1 118.949 33.3087)" stroke="url(#paint4_linear)"/>
<circle r="19.5" transform="matrix(-1 0 0 1 61.5 67.3086)" stroke="url(#paint5_linear)"/>
<path d="M46.5 80.3086L23 93.8086L20.5 89.8086L44 76.3086" stroke="url(#paint6_linear)"/>
<circle r="13.5" transform="matrix(1 0 0 -1 163 62.3087)" stroke="url(#paint7_linear)"/>
<path d="M23.5 40.1913L46.5 54.8276" stroke="url(#paint8_linear)"/>
<path d="M75 53.734L106.054 36.5682" stroke="url(#paint9_linear)"/>
<path d="M53.041 66.8263H60.9994M68.9578 66.8263H60.9994M60.9994 66.8263V74.5436V60.0738" stroke="url(#paint10_linear)"/>
<path d="M111.902 33.3087H126" stroke="url(#paint11_linear)"/>
<path d="M218.553 34.2017C218.481 29.5928 217.045 25.402 214.492 22.3678C211.954 19.3521 208.514 17.6913 204.805 17.6913C201.097 17.6913 197.657 19.3521 195.119 22.3678C192.569 25.3988 191.134 29.5837 191.059 34.1869C192.501 34.9093 198.469 37.6913 204.805 37.6913C211.658 37.6913 217.215 34.9257 218.553 34.2017Z" fill="url(#paint12_linear)"/>
<path d="M204.805 16.4413C208.602 16.4413 211.68 13.3632 211.68 9.56628C211.68 5.76933 208.602 2.69128 204.805 2.69128C201.008 2.69128 197.93 5.76933 197.93 9.56628C197.93 13.3632 201.008 16.4413 204.805 16.4413Z" fill="url(#paint13_linear)"/>
<defs>
<linearGradient id="paint0_linear" x1="169.251" y1="53.7536" x2="190.815" y2="40.6984" gradientUnits="userSpaceOnUse">
<stop stop-color="#AB85FF"/>
<stop offset="0.526042" stop-color="#EBA3E3"/>
<stop offset="1" stop-color="#FFDBE4"/>
</linearGradient>
<linearGradient id="paint1_linear" x1="-4.55467" y1="30.7963" x2="27.7184" y2="-10.9219" gradientUnits="userSpaceOnUse">
<stop stop-color="#AB85FF"/>
<stop offset="0.526042" stop-color="#EBA3E3"/>
<stop offset="1" stop-color="#FFDBE4"/>
</linearGradient>
<linearGradient id="paint2_linear" x1="155.233" y1="55.8714" x2="124.79" y2="38.2169" gradientUnits="userSpaceOnUse">
<stop stop-color="#AB85FF"/>
<stop offset="0.526042" stop-color="#EBA3E3"/>
<stop offset="1" stop-color="#FFDBE4"/>
</linearGradient>
<linearGradient id="paint3_linear" x1="-4.55467" y1="30.7963" x2="27.7184" y2="-10.9219" gradientUnits="userSpaceOnUse">
<stop stop-color="#AB85FF"/>
<stop offset="0.526042" stop-color="#EBA3E3"/>
<stop offset="1" stop-color="#FFDBE4"/>
</linearGradient>
<linearGradient id="paint4_linear" x1="-4.55467" y1="30.7963" x2="27.7184" y2="-10.9219" gradientUnits="userSpaceOnUse">
<stop stop-color="#AB85FF"/>
<stop offset="0.526042" stop-color="#EBA3E3"/>
<stop offset="1" stop-color="#FFDBE4"/>
</linearGradient>
<linearGradient id="paint5_linear" x1="-6.50667" y1="43.9948" x2="39.5977" y2="-15.6028" gradientUnits="userSpaceOnUse">
<stop stop-color="#AB85FF"/>
<stop offset="0.526042" stop-color="#EBA3E3"/>
<stop offset="1" stop-color="#FFDBE4"/>
</linearGradient>
<linearGradient id="paint6_linear" x1="50.7293" y1="95.5563" x2="33.6568" y2="62.7679" gradientUnits="userSpaceOnUse">
<stop stop-color="#AB85FF"/>
<stop offset="0.526042" stop-color="#EBA3E3"/>
<stop offset="1" stop-color="#FFDBE4"/>
</linearGradient>
<linearGradient id="paint7_linear" x1="-4.55467" y1="30.7963" x2="27.7184" y2="-10.9219" gradientUnits="userSpaceOnUse">
<stop stop-color="#AB85FF"/>
<stop offset="0.526042" stop-color="#EBA3E3"/>
<stop offset="1" stop-color="#FFDBE4"/>
</linearGradient>
<linearGradient id="paint8_linear" x1="19.7587" y1="38.7295" x2="33.5713" y2="66.7876" gradientUnits="userSpaceOnUse">
<stop stop-color="#AB85FF"/>
<stop offset="0.526042" stop-color="#EBA3E3"/>
<stop offset="1" stop-color="#FFDBE4"/>
</linearGradient>
<linearGradient id="paint9_linear" x1="69.9485" y1="34.8539" x2="84.7278" y2="69.416" gradientUnits="userSpaceOnUse">
<stop stop-color="#AB85FF"/>
<stop offset="0.526042" stop-color="#EBA3E3"/>
<stop offset="1" stop-color="#FFDBE4"/>
</linearGradient>
<linearGradient id="paint10_linear" x1="50.4519" y1="58.6287" x2="66.6673" y2="81.686" gradientUnits="userSpaceOnUse">
<stop stop-color="#AB85FF"/>
<stop offset="0.526042" stop-color="#EBA3E3"/>
<stop offset="1" stop-color="#FFDBE4"/>
</linearGradient>
<linearGradient id="paint11_linear" x1="109.609" y1="34.4086" x2="109.739" y2="32.0341" gradientUnits="userSpaceOnUse">
<stop stop-color="#AB85FF"/>
<stop offset="0.526042" stop-color="#EBA3E3"/>
<stop offset="1" stop-color="#FFDBE4"/>
</linearGradient>
<linearGradient id="paint12_linear" x1="186.586" y1="39.6887" x2="206.944" y2="3.51274" gradientUnits="userSpaceOnUse">
<stop stop-color="#AB85FF"/>
<stop offset="0.526042" stop-color="#EBA3E3"/>
<stop offset="1" stop-color="#FFDBE4"/>
</linearGradient>
<linearGradient id="paint13_linear" x1="195.693" y1="17.8145" x2="211.541" y2="-2.67217" gradientUnits="userSpaceOnUse">
<stop stop-color="#AB85FF"/>
<stop offset="0.526042" stop-color="#EBA3E3"/>
<stop offset="1" stop-color="#FFDBE4"/>
</linearGradient>
</defs>
</svg>
