<svg width="341" height="180" viewBox="0 0 341 180" fill="none" xmlns="http://www.w3.org/2000/svg">
<rect width="341" height="180" fill="#F5F5F5"/>
<path d="M226.587 128.173L281.083 156.756V74.9683L226.587 48.366L226.587 128.173Z" fill="#AB85FF"/>
<mask id="mask0" mask-type="alpha" maskUnits="userSpaceOnUse" x="226" y="48" width="56" height="109">
<path d="M226.587 128.173L281.083 156.756V74.9683L226.587 48.366L226.587 128.173Z" fill="#AB85FF"/>
</mask>
<g mask="url(#mask0)">
<path d="M228.534 -18.4741C193.547 33.7058 193.547 70.9772 228.534 93.3401C263.521 115.703 263.521 152.974 228.534 205.154" stroke="#31D67B"/>
<path d="M295.536 -11.9377C242.909 28.0641 229.013 63.404 253.849 94.082C278.685 124.76 264.789 160.1 212.161 200.102" stroke="#31D67B"/>
<path d="M272.404 -16.2684C242.336 38.093 245.772 75.2492 282.713 95.2001C319.653 115.151 323.089 152.307 293.021 206.669" stroke="#31D67B"/>
</g>
<path d="M120.125 124.309V117.529C120.125 115.369 120.895 113.569 122.435 112.129C123.995 110.689 125.935 109.969 128.255 109.969C130.575 109.969 132.505 110.689 134.045 112.129C135.605 113.569 136.385 115.369 136.385 117.529V124.309C136.385 126.469 135.605 128.269 134.045 129.709C132.505 131.149 130.575 131.869 128.255 131.869C125.935 131.869 123.995 131.149 122.435 129.709C120.895 128.269 120.125 126.469 120.125 124.309ZM124.025 117.469V124.369C124.025 125.429 124.425 126.329 125.225 127.069C126.045 127.789 127.055 128.149 128.255 128.149C129.455 128.149 130.465 127.789 131.285 127.069C132.105 126.309 132.515 125.409 132.515 124.369V117.469C132.515 116.409 132.105 115.519 131.285 114.799C130.485 114.059 129.475 113.689 128.255 113.689C127.035 113.689 126.025 114.059 125.225 114.799C124.425 115.519 124.025 116.409 124.025 117.469ZM150.243 115.189L146.613 116.989L144.993 113.569L151.353 110.419H154.143V131.419H150.243V115.189ZM175.234 116.539C175.234 115.759 174.894 115.089 174.214 114.529C173.574 113.969 172.784 113.689 171.844 113.689C170.944 113.689 170.134 113.969 169.414 114.529C168.714 115.069 168.184 115.809 167.824 116.749L164.224 115.039C164.904 113.479 165.924 112.249 167.284 111.349C168.644 110.429 170.164 109.969 171.844 109.969C173.944 109.969 175.694 110.599 177.094 111.859C178.534 113.119 179.254 114.639 179.254 116.419C179.254 117.499 178.894 118.629 178.174 119.809C177.454 120.969 176.314 122.299 174.754 123.799L170.644 127.699H179.434V131.419H164.644V128.509L172.354 121.159C174.274 119.299 175.234 117.759 175.234 116.539ZM198.607 116.269C198.607 115.549 198.267 114.939 197.587 114.439C196.907 113.939 196.037 113.689 194.977 113.689C194.117 113.689 193.357 113.869 192.697 114.229C192.057 114.569 191.587 115.019 191.287 115.579L187.747 113.899C188.367 112.699 189.327 111.749 190.627 111.049C191.927 110.329 193.387 109.969 195.007 109.969C197.187 109.969 199.007 110.559 200.467 111.739C201.907 112.899 202.627 114.369 202.627 116.149C202.627 117.889 201.877 119.349 200.377 120.529C202.237 121.729 203.167 123.359 203.167 125.419C203.167 127.279 202.407 128.819 200.887 130.039C199.367 131.259 197.477 131.869 195.217 131.869C193.357 131.869 191.727 131.439 190.327 130.579C188.927 129.699 187.977 128.559 187.477 127.159L191.227 125.839C191.447 126.519 191.917 127.079 192.637 127.519C193.357 127.939 194.207 128.149 195.187 128.149C196.307 128.149 197.247 127.879 198.007 127.339C198.767 126.779 199.147 126.079 199.147 125.239C199.147 124.439 198.767 123.779 198.007 123.259C197.267 122.719 196.357 122.449 195.277 122.449H193.687V118.939H194.767C195.847 118.939 196.757 118.689 197.497 118.189C198.237 117.689 198.607 117.049 198.607 116.269ZM222.245 131.419V127.399H211.355V123.679L222.425 110.419H226.115V123.679H228.785V127.399H226.115V131.419H222.245ZM222.245 116.209L216.005 123.679H222.245V116.209ZM252.562 124.729C252.562 126.749 251.792 128.449 250.252 129.829C248.712 131.189 246.802 131.869 244.522 131.869C242.682 131.869 241.062 131.389 239.662 130.429C238.262 129.449 237.262 128.139 236.662 126.499L240.532 125.449C240.872 126.289 241.402 126.949 242.122 127.429C242.842 127.909 243.652 128.149 244.552 128.149C245.692 128.149 246.632 127.819 247.372 127.159C248.152 126.499 248.542 125.689 248.542 124.729C248.542 123.689 248.112 122.829 247.252 122.149C246.432 121.469 245.382 121.129 244.102 121.129H238.252L239.332 110.419H250.762V113.989H242.542L242.212 117.589H244.312C246.652 117.589 248.612 118.269 250.192 119.629C251.772 120.969 252.562 122.669 252.562 124.729Z" fill="#AB85FF"/>
<path d="M122.435 112.129L121.757 111.394L121.752 111.399L122.435 112.129ZM134.045 112.129L133.362 112.86L133.367 112.864L134.045 112.129ZM134.045 129.709L133.367 128.974L133.362 128.979L134.045 129.709ZM122.435 129.709L121.752 130.44L121.757 130.444L122.435 129.709ZM125.225 127.069L124.546 127.803L124.555 127.812L124.565 127.821L125.225 127.069ZM131.285 127.069L131.945 127.821L131.955 127.812L131.965 127.803L131.285 127.069ZM131.285 114.799L130.606 115.533L130.615 115.542L130.625 115.551L131.285 114.799ZM125.225 114.799L125.894 115.543L125.904 115.533L125.225 114.799ZM121.125 124.309V117.529H119.125V124.309H121.125ZM121.125 117.529C121.125 115.638 121.786 114.105 123.118 112.86L121.752 111.399C120.004 113.033 119.125 115.1 119.125 117.529H121.125ZM123.113 112.864C124.471 111.611 126.161 110.969 128.255 110.969V108.969C125.709 108.969 123.519 109.767 121.757 111.394L123.113 112.864ZM128.255 110.969C130.349 110.969 132.026 111.611 133.362 112.86L134.728 111.399C132.983 109.768 130.801 108.969 128.255 108.969V110.969ZM133.367 112.864C134.718 114.111 135.385 115.643 135.385 117.529H137.385C137.385 115.096 136.492 113.027 134.723 111.394L133.367 112.864ZM135.385 117.529V124.309H137.385V117.529H135.385ZM135.385 124.309C135.385 126.196 134.718 127.727 133.367 128.974L134.723 130.444C136.492 128.811 137.385 126.743 137.385 124.309H135.385ZM133.362 128.979C132.026 130.228 130.349 130.869 128.255 130.869V132.869C130.801 132.869 132.983 132.071 134.728 130.44L133.362 128.979ZM128.255 130.869C126.161 130.869 124.471 130.227 123.113 128.974L121.757 130.444C123.519 132.071 125.709 132.869 128.255 132.869V130.869ZM123.118 128.979C121.786 127.733 121.125 126.2 121.125 124.309H119.125C119.125 126.738 120.004 128.805 121.752 130.44L123.118 128.979ZM123.025 117.469V124.369H125.025V117.469H123.025ZM123.025 124.369C123.025 125.717 123.548 126.88 124.546 127.803L125.904 126.335C125.302 125.778 125.025 125.142 125.025 124.369H123.025ZM124.565 127.821C125.586 128.717 126.838 129.149 128.255 129.149V127.149C127.272 127.149 126.504 126.861 125.885 126.318L124.565 127.821ZM128.255 129.149C129.672 129.149 130.924 128.717 131.945 127.821L130.625 126.318C130.006 126.861 129.238 127.149 128.255 127.149V129.149ZM131.965 127.803C132.972 126.869 133.515 125.71 133.515 124.369H131.515C131.515 125.108 131.238 125.749 130.605 126.336L131.965 127.803ZM133.515 124.369V117.469H131.515V124.369H133.515ZM133.515 117.469C133.515 116.112 132.974 114.951 131.945 114.048L130.625 115.551C131.236 116.087 131.515 116.707 131.515 117.469H133.515ZM131.964 114.065C130.957 113.133 129.694 112.689 128.255 112.689V114.689C129.256 114.689 130.013 114.985 130.606 115.533L131.964 114.065ZM128.255 112.689C126.816 112.689 125.553 113.133 124.546 114.065L125.904 115.533C126.497 114.985 127.254 114.689 128.255 114.689V112.689ZM124.556 114.056C123.549 114.962 123.025 116.121 123.025 117.469H125.025C125.025 116.698 125.301 116.076 125.894 115.543L124.556 114.056ZM150.243 115.189H151.243V113.577L149.799 114.293L150.243 115.189ZM146.613 116.989L145.709 117.417L146.145 118.337L147.057 117.885L146.613 116.989ZM144.993 113.569L144.549 112.673L143.668 113.109L144.089 113.997L144.993 113.569ZM151.353 110.419V109.419H151.119L150.909 109.523L151.353 110.419ZM154.143 110.419H155.143V109.419H154.143V110.419ZM154.143 131.419V132.419H155.143V131.419H154.143ZM150.243 131.419H149.243V132.419H150.243V131.419ZM149.799 114.293L146.169 116.093L147.057 117.885L150.687 116.085L149.799 114.293ZM147.517 116.561L145.897 113.141L144.089 113.997L145.709 117.417L147.517 116.561ZM145.437 114.465L151.797 111.315L150.909 109.523L144.549 112.673L145.437 114.465ZM151.353 111.419H154.143V109.419H151.353V111.419ZM153.143 110.419V131.419H155.143V110.419H153.143ZM154.143 130.419H150.243V132.419H154.143V130.419ZM151.243 131.419V115.189H149.243V131.419H151.243ZM174.214 114.529L173.556 115.282L173.567 115.292L173.579 115.301L174.214 114.529ZM169.414 114.529L170.025 115.321L170.028 115.319L169.414 114.529ZM167.824 116.749L167.395 117.653L168.372 118.116L168.758 117.107L167.824 116.749ZM164.224 115.039L163.308 114.64L162.921 115.527L163.795 115.943L164.224 115.039ZM167.284 111.349L167.836 112.183L167.845 112.178L167.284 111.349ZM177.094 111.859L176.425 112.603L176.436 112.612L177.094 111.859ZM178.174 119.809L179.024 120.337L179.028 120.33L178.174 119.809ZM174.754 123.799L175.443 124.525L175.448 124.52L174.754 123.799ZM170.644 127.699L169.956 126.974L168.138 128.699H170.644V127.699ZM179.434 127.699H180.434V126.699H179.434V127.699ZM179.434 131.419V132.419H180.434V131.419H179.434ZM164.644 131.419H163.644V132.419H164.644V131.419ZM164.644 128.509L163.954 127.785L163.644 128.081V128.509H164.644ZM172.354 121.159L173.045 121.883L173.05 121.877L172.354 121.159ZM176.234 116.539C176.234 115.419 175.727 114.48 174.85 113.757L173.579 115.301C174.062 115.699 174.234 116.099 174.234 116.539H176.234ZM174.873 113.777C174.031 113.04 172.999 112.689 171.844 112.689V114.689C172.57 114.689 173.118 114.899 173.556 115.282L174.873 113.777ZM171.844 112.689C170.719 112.689 169.694 113.045 168.801 113.74L170.028 115.319C170.575 114.893 171.17 114.689 171.844 114.689V112.689ZM168.804 113.737C167.939 114.405 167.307 115.304 166.891 116.392L168.758 117.107C169.062 116.314 169.49 115.734 170.025 115.321L168.804 113.737ZM168.254 115.846L164.654 114.136L163.795 115.943L167.395 117.653L168.254 115.846ZM165.141 115.439C165.748 114.048 166.645 112.972 167.836 112.183L166.733 110.515C165.204 111.527 164.061 112.911 163.308 114.64L165.141 115.439ZM167.845 112.178C169.035 111.372 170.359 110.969 171.844 110.969V108.969C169.97 108.969 168.254 109.486 166.724 110.521L167.845 112.178ZM171.844 110.969C173.728 110.969 175.231 111.527 176.426 112.603L177.763 111.116C176.158 109.671 174.161 108.969 171.844 108.969V110.969ZM176.436 112.612C177.677 113.698 178.254 114.951 178.254 116.419H180.254C180.254 114.327 179.392 112.54 177.753 111.107L176.436 112.612ZM178.254 116.419C178.254 117.271 177.972 118.222 177.321 119.288L179.028 120.33C179.817 119.037 180.254 117.728 180.254 116.419H178.254ZM177.325 119.282C176.667 120.342 175.592 121.607 174.061 123.078L175.448 124.52C177.037 122.992 178.242 121.596 179.024 120.337L177.325 119.282ZM174.066 123.074L169.956 126.974L171.333 128.425L175.443 124.525L174.066 123.074ZM170.644 128.699H179.434V126.699H170.644V128.699ZM178.434 127.699V131.419H180.434V127.699H178.434ZM179.434 130.419H164.644V132.419H179.434V130.419ZM165.644 131.419V128.509H163.644V131.419H165.644ZM165.334 129.233L173.044 121.883L171.664 120.435L163.954 127.785L165.334 129.233ZM173.05 121.877C174.044 120.915 174.825 120.001 175.363 119.138C175.897 118.282 176.234 117.406 176.234 116.539H174.234C174.234 116.892 174.092 117.397 173.666 118.08C173.244 118.757 172.585 119.544 171.659 120.441L173.05 121.877ZM197.587 114.439L198.179 113.634V113.634L197.587 114.439ZM192.697 114.229L193.166 115.112L193.176 115.107L192.697 114.229ZM191.287 115.579L190.858 116.483L191.719 116.891L192.168 116.051L191.287 115.579ZM187.747 113.899L186.858 113.44L186.384 114.359L187.318 114.803L187.747 113.899ZM190.627 111.049L191.101 111.93L191.111 111.924L190.627 111.049ZM200.467 111.739L199.838 112.517L199.84 112.518L200.467 111.739ZM200.377 120.529L199.759 119.743L198.657 120.61L199.835 121.37L200.377 120.529ZM200.887 130.039L200.261 129.259L200.887 130.039ZM190.327 130.579L189.795 131.426L189.803 131.431L190.327 130.579ZM187.477 127.159L187.145 126.216L186.197 126.55L186.535 127.496L187.477 127.159ZM191.227 125.839L192.178 125.531L191.862 124.555L190.895 124.896L191.227 125.839ZM192.637 127.519L192.115 128.373L192.124 128.378L192.133 128.383L192.637 127.519ZM198.007 127.339L198.586 128.154L198.593 128.149L198.6 128.144L198.007 127.339ZM198.007 123.259L197.417 124.067L197.43 124.076L197.442 124.085L198.007 123.259ZM193.687 122.449H192.687V123.449H193.687V122.449ZM193.687 118.939V117.939H192.687V118.939H193.687ZM199.607 116.269C199.607 115.174 199.065 114.285 198.179 113.634L196.994 115.245C197.468 115.593 197.607 115.925 197.607 116.269H199.607ZM198.179 113.634C197.288 112.978 196.195 112.689 194.977 112.689V114.689C195.879 114.689 196.526 114.9 196.994 115.245L198.179 113.634ZM194.977 112.689C193.974 112.689 193.045 112.9 192.218 113.351L193.176 115.107C193.669 114.838 194.26 114.689 194.977 114.689V112.689ZM192.228 113.346C191.438 113.766 190.812 114.348 190.405 115.107L192.168 116.051C192.362 115.69 192.676 115.373 193.166 115.112L192.228 113.346ZM191.716 114.676L188.176 112.996L187.318 114.803L190.858 116.483L191.716 114.676ZM188.635 114.358C189.154 113.354 189.961 112.543 191.101 111.93L190.153 110.169C188.693 110.955 187.58 112.045 186.858 113.44L188.635 114.358ZM191.111 111.924C192.25 111.293 193.541 110.969 195.007 110.969V108.969C193.233 108.969 191.604 109.365 190.142 110.174L191.111 111.924ZM195.007 110.969C196.997 110.969 198.584 111.503 199.838 112.517L201.095 110.962C199.43 109.615 197.377 108.969 195.007 108.969V110.969ZM199.84 112.518C201.054 113.497 201.627 114.685 201.627 116.149H203.627C203.627 114.053 202.759 112.302 201.094 110.96L199.84 112.518ZM201.627 116.149C201.627 117.55 201.044 118.732 199.759 119.743L200.995 121.315C202.709 119.967 203.627 118.228 203.627 116.149H201.627ZM199.835 121.37C201.435 122.402 202.167 123.728 202.167 125.419H204.167C204.167 122.99 203.039 121.057 200.919 119.689L199.835 121.37ZM202.167 125.419C202.167 126.96 201.558 128.219 200.261 129.259L201.513 130.819C203.256 129.42 204.167 127.599 204.167 125.419H202.167ZM200.261 129.259C198.946 130.315 197.287 130.869 195.217 130.869V132.869C197.666 132.869 199.788 132.204 201.513 130.819L200.261 129.259ZM195.217 130.869C193.517 130.869 192.073 130.478 190.85 129.727L189.803 131.431C191.381 132.4 193.197 132.869 195.217 132.869V130.869ZM190.859 129.733C189.626 128.958 188.835 127.988 188.419 126.823L186.535 127.496C187.119 129.131 188.227 130.441 189.795 131.426L190.859 129.733ZM187.809 128.103L191.559 126.783L190.895 124.896L187.145 126.216L187.809 128.103ZM190.275 126.147C190.582 127.094 191.23 127.832 192.115 128.373L193.158 126.666C192.603 126.327 192.312 125.944 192.178 125.531L190.275 126.147ZM192.133 128.383C193.031 128.907 194.061 129.149 195.187 129.149V127.149C194.353 127.149 193.683 126.972 193.141 126.655L192.133 128.383ZM195.187 129.149C196.472 129.149 197.625 128.837 198.586 128.154L197.428 126.524C196.869 126.921 196.142 127.149 195.187 127.149V129.149ZM198.6 128.144C199.579 127.423 200.147 126.44 200.147 125.239H198.147C198.147 125.719 197.954 126.136 197.414 126.534L198.6 128.144ZM200.147 125.239C200.147 124.055 199.556 123.108 198.572 122.434L197.442 124.085C197.977 124.451 198.147 124.823 198.147 125.239H200.147ZM198.596 122.451C197.656 121.765 196.53 121.449 195.277 121.449V123.449C196.184 123.449 196.878 123.673 197.417 124.067L198.596 122.451ZM195.277 121.449H193.687V123.449H195.277V121.449ZM194.687 122.449V118.939H192.687V122.449H194.687ZM193.687 119.939H194.767V117.939H193.687V119.939ZM194.767 119.939C196.004 119.939 197.119 119.651 198.057 119.018L196.937 117.361C196.394 117.727 195.69 117.939 194.767 117.939V119.939ZM198.057 119.018C199.026 118.363 199.607 117.434 199.607 116.269H197.607C197.607 116.665 197.448 117.015 196.937 117.361L198.057 119.018ZM222.245 131.419H221.245V132.419H222.245V131.419ZM222.245 127.399H223.245V126.399H222.245V127.399ZM211.355 127.399H210.355V128.399H211.355V127.399ZM211.355 123.679L210.587 123.038L210.355 123.317V123.679H211.355ZM222.425 110.419V109.419H221.957L221.657 109.778L222.425 110.419ZM226.115 110.419H227.115V109.419H226.115V110.419ZM226.115 123.679H225.115V124.679H226.115V123.679ZM228.785 123.679H229.785V122.679H228.785V123.679ZM228.785 127.399V128.399H229.785V127.399H228.785ZM226.115 127.399V126.399H225.115V127.399H226.115ZM226.115 131.419V132.419H227.115V131.419H226.115ZM222.245 116.209H223.245V113.452L221.478 115.568L222.245 116.209ZM216.005 123.679L215.237 123.038L213.867 124.679H216.005V123.679ZM222.245 123.679V124.679H223.245V123.679H222.245ZM223.245 131.419V127.399H221.245V131.419H223.245ZM222.245 126.399H211.355V128.399H222.245V126.399ZM212.355 127.399V123.679H210.355V127.399H212.355ZM212.123 124.32L223.193 111.06L221.657 109.778L210.587 123.038L212.123 124.32ZM222.425 111.419H226.115V109.419H222.425V111.419ZM225.115 110.419V123.679H227.115V110.419H225.115ZM226.115 124.679H228.785V122.679H226.115V124.679ZM227.785 123.679V127.399H229.785V123.679H227.785ZM228.785 126.399H226.115V128.399H228.785V126.399ZM225.115 127.399V131.419H227.115V127.399H225.115ZM226.115 130.419H222.245V132.419H226.115V130.419ZM221.478 115.568L215.237 123.038L216.772 124.32L223.012 116.85L221.478 115.568ZM216.005 124.679H222.245V122.679H216.005V124.679ZM223.245 123.679V116.209H221.245V123.679H223.245ZM250.252 129.829L250.914 130.579L250.919 130.574L250.252 129.829ZM239.662 130.429L239.088 131.249L239.096 131.254L239.662 130.429ZM236.662 126.499L236.4 125.534L235.348 125.819L235.722 126.843L236.662 126.499ZM240.532 125.449L241.459 125.074L241.126 124.252L240.27 124.484L240.532 125.449ZM242.122 127.429L241.567 128.261L242.122 127.429ZM247.372 127.159L246.726 126.396L246.716 126.404L246.706 126.413L247.372 127.159ZM247.252 122.149L246.613 122.919L246.622 122.926L246.631 122.934L247.252 122.149ZM238.252 121.129L237.257 121.029L237.146 122.129H238.252V121.129ZM239.332 110.419V109.419H238.427L238.337 110.319L239.332 110.419ZM250.762 110.419H251.762V109.419H250.762V110.419ZM250.762 113.989V114.989H251.762V113.989H250.762ZM242.542 113.989V112.989H241.629L241.546 113.898L242.542 113.989ZM242.212 117.589L241.216 117.498L241.116 118.589H242.212V117.589ZM250.192 119.629L249.539 120.387L249.545 120.392L250.192 119.629ZM251.562 124.729C251.562 126.457 250.918 127.889 249.584 129.085L250.919 130.574C252.665 129.009 253.562 127.041 253.562 124.729H251.562ZM249.59 129.08C248.253 130.26 246.587 130.869 244.522 130.869V132.869C247.017 132.869 249.17 132.118 250.914 130.579L249.59 129.08ZM244.522 130.869C242.866 130.869 241.447 130.441 240.227 129.605L239.096 131.254C240.677 132.338 242.497 132.869 244.522 132.869V130.869ZM240.235 129.61C239.007 128.75 238.132 127.608 237.601 126.156L235.722 126.843C236.391 128.671 237.517 130.148 239.088 131.248L240.235 129.61ZM236.923 127.464L240.793 126.414L240.27 124.484L236.4 125.534L236.923 127.464ZM239.605 125.824C240.016 126.841 240.672 127.664 241.567 128.261L242.676 126.597C242.132 126.234 241.727 125.737 241.459 125.074L239.605 125.824ZM241.567 128.261C242.458 128.855 243.463 129.149 244.552 129.149V127.149C243.841 127.149 243.225 126.963 242.676 126.597L241.567 128.261ZM244.552 129.149C245.898 129.149 247.087 128.753 248.037 127.906L246.706 126.413C246.176 126.885 245.485 127.149 244.552 127.149V129.149ZM248.018 127.923C249.006 127.087 249.542 126.004 249.542 124.729H247.542C247.542 125.374 247.298 125.912 246.726 126.396L248.018 127.923ZM249.542 124.729C249.542 123.365 248.957 122.223 247.872 121.365L246.631 122.934C247.267 123.436 247.542 124.014 247.542 124.729H249.542ZM247.89 121.379C246.856 120.522 245.566 120.129 244.102 120.129V122.129C245.197 122.129 246.007 122.416 246.613 122.919L247.89 121.379ZM244.102 120.129H238.252V122.129H244.102V120.129ZM239.247 121.23L240.327 110.52L238.337 110.319L237.257 121.029L239.247 121.23ZM239.332 111.419H250.762V109.419H239.332V111.419ZM249.762 110.419V113.989H251.762V110.419H249.762ZM250.762 112.989H242.542V114.989H250.762V112.989ZM241.546 113.898L241.216 117.498L243.207 117.681L243.537 114.081L241.546 113.898ZM242.212 118.589H244.312V116.589H242.212V118.589ZM244.312 118.589C246.443 118.589 248.163 119.203 249.539 120.387L250.844 118.871C249.06 117.336 246.86 116.589 244.312 116.589V118.589ZM249.545 120.392C250.902 121.543 251.562 122.965 251.562 124.729H253.562C253.562 122.374 252.641 120.395 250.838 118.867L249.545 120.392Z" fill="black"/>
<path d="M97.3809 57.1444L165.475 57.1444M165.475 57.1444L163.609 56.2442M165.475 57.1444L163.609 58.0446" stroke="black"/>
<path d="M97.3809 72.1016L192.526 72.1016M192.526 72.1016L189.919 71.1688M192.526 72.1016L189.919 73.0344" stroke="black"/>
<path d="M97.3809 42.2523L140.289 42.2523M140.289 42.2523L139.114 41.3195M140.289 42.2523L139.114 43.1851" stroke="black"/>
<path d="M97.3809 87.0263H128.163M128.163 87.0263L127.32 86.0935M128.163 87.0263L127.32 87.959" stroke="black"/>
<path d="M105.246 118.542L40.1712 152.674L40.1712 55.0099L105.246 23.2437L105.246 118.542Z" fill="#4AE991"/>
<mask id="mask1" mask-type="alpha" maskUnits="userSpaceOnUse" x="40" y="23" width="66" height="130">
<path d="M105.246 118.542L40.1712 152.674L40.1712 55.0099L105.246 23.2437L105.246 118.542Z" fill="#4AE991"/>
</mask>
<g mask="url(#mask1)">
<path d="M102.921 -56.5713C144.699 5.7376 144.699 50.2439 102.921 76.9478C61.1431 103.652 61.1431 148.158 102.921 210.467" stroke="#A57CFE"/>
<path d="M22.9132 -48.766C85.7569 -0.999265 102.35 41.2006 72.6931 77.8338C43.0359 114.467 59.6292 156.667 122.473 204.434" stroke="#A57CFE"/>
<path d="M50.5357 -53.9372C86.4402 10.9767 82.3369 55.3454 38.2259 79.1691C-5.88506 102.993 -9.98832 147.362 25.9162 212.275" stroke="#A57CFE"/>
</g>
<circle cx="264.157" cy="44.0853" r="2.82092" fill="#31D67B"/>
<circle cx="275.441" cy="44.0853" r="2.82092" fill="#31D67B"/>
<circle cx="286.724" cy="44.0853" r="2.82092" fill="#31D67B"/>
<circle cx="298.008" cy="44.0853" r="2.82092" fill="#31D67B"/>
<circle cx="264.157" cy="55.369" r="2.82092" fill="#31D67B"/>
<circle cx="275.441" cy="55.369" r="2.82092" fill="#31D67B"/>
<circle cx="286.724" cy="55.369" r="2.82092" fill="#31D67B"/>
<circle cx="298.008" cy="55.369" r="2.82092" fill="#31D67B"/>
<circle cx="298.008" cy="66.6527" r="2.82092" fill="#31D67B"/>
<circle cx="286.724" cy="66.6527" r="2.82092" fill="#31D67B"/>
<circle cx="275.441" cy="66.6527" r="2.82092" fill="#31D67B"/>
<circle cx="264.157" cy="66.6527" r="2.82092" fill="#31D67B"/>
<circle cx="264.157" cy="66.6527" r="2.82092" fill="#31D67B"/>
<circle cx="275.441" cy="66.6527" r="2.82092" fill="#31D67B"/>
<circle cx="286.724" cy="66.6527" r="2.82092" fill="#31D67B"/>
<circle cx="298.008" cy="66.6527" r="2.82092" fill="#31D67B"/>
<circle cx="264.157" cy="77.9364" r="2.82092" fill="#31D67B"/>
<circle cx="275.441" cy="77.9364" r="2.82092" fill="#31D67B"/>
<circle cx="286.724" cy="77.9364" r="2.82092" fill="#31D67B"/>
<circle cx="298.008" cy="77.9364" r="2.82092" fill="#31D67B"/>
<circle cx="298.008" cy="89.2201" r="2.82092" fill="#31D67B"/>
<circle cx="286.724" cy="89.2201" r="2.82092" fill="#31D67B"/>
<circle cx="275.441" cy="89.2201" r="2.82092" fill="#31D67B"/>
<circle cx="264.157" cy="89.2201" r="2.82092" fill="#31D67B"/>
</svg>
