<svg width="341" height="180" viewBox="0 0 341 180" fill="none" xmlns="http://www.w3.org/2000/svg">
<rect width="341" height="180" fill="#F5F5F5"/>
<path d="M273.482 115.477C276.622 115.477 279.634 114.23 281.854 112.009C284.075 109.789 285.322 106.777 285.322 103.637C285.322 100.497 284.075 97.4855 281.854 95.2651C279.634 93.0446 276.622 91.7972 273.482 91.7972L273.482 103.637V115.477Z" fill="#D4D4D4"/>
<path d="M273.483 97.999C275.576 97.999 277.584 97.1971 279.064 95.7697C280.544 94.3423 281.376 92.4063 281.376 90.3876C281.376 88.3689 280.544 86.4329 279.064 85.0055C277.584 83.578 275.576 82.7761 273.483 82.7761L273.483 90.3876V97.999Z" fill="#D4D4D4"/>
<path d="M273.483 131.828C275.576 131.828 277.584 130.669 279.064 128.608C280.544 126.546 281.376 123.749 281.376 120.833C281.376 117.917 280.544 115.121 279.064 113.059C277.584 110.997 275.576 109.839 273.483 109.839L273.483 120.833V131.828Z" fill="#D4D4D4"/>
<path d="M206.921 105.703C213.99 105.703 220.77 102.894 225.768 97.8958C230.767 92.8971 233.575 86.1175 233.575 79.0483C233.575 71.9791 230.767 65.1995 225.768 60.2008C220.77 55.2021 213.99 52.3939 206.921 52.3939L206.921 79.0483V105.703Z" fill="#31D67B"/>
<path d="M206.921 66.3556C211.634 66.3556 216.153 64.5503 219.486 61.3369C222.818 58.1235 224.69 53.7651 224.69 49.2207C224.69 44.6762 222.818 40.3178 219.486 37.1044C216.153 33.891 211.634 32.0857 206.921 32.0857L206.921 49.2207V66.3556Z" fill="#31D67B"/>
<path d="M206.921 142.511C211.634 142.511 216.153 139.903 219.486 135.262C222.818 130.62 224.69 124.325 224.69 117.761C224.69 111.196 222.818 104.901 219.486 100.259C216.153 95.6177 211.634 93.0101 206.921 93.0101L206.921 117.761V142.511Z" fill="#31D67B"/>
<path d="M250.328 73.9684C254.376 73.9684 258.257 72.3606 261.119 69.4987C263.981 66.6368 265.589 62.7552 265.589 58.7078C265.589 54.6605 263.981 50.7789 261.119 47.917C258.257 45.0551 254.376 43.4473 250.328 43.4473L250.328 58.7078V73.9684Z" fill="#4AE991"/>
<path d="M250.328 51.441C253.027 51.441 255.614 50.4074 257.522 48.5676C259.43 46.7278 260.502 44.2325 260.502 41.6306C260.502 39.0288 259.43 36.5335 257.522 34.6937C255.614 32.8539 253.027 31.8203 250.328 31.8203L250.328 41.6306V51.441Z" fill="#4AE991"/>
<path d="M250.328 95.0424C253.027 95.0424 255.614 93.5494 257.522 90.8919C259.43 88.2344 260.502 84.6301 260.502 80.8719C260.502 77.1136 259.43 73.5093 257.522 70.8519C255.614 68.1944 253.027 66.7014 250.328 66.7014L250.328 80.8719V95.0424Z" fill="#4AE991"/>
<path d="M139.322 81.828L229.896 81.828M229.896 81.828L227.414 80.6307M229.896 81.828L227.414 83.0254" stroke="black"/>
<path d="M139.322 101.723L265.877 101.723M265.877 101.723L262.41 100.482M265.877 101.723L262.41 102.964" stroke="black"/>
<path d="M139.322 62.0195L196.396 62.0195M196.396 62.0195L194.832 60.7788M196.396 62.0195L194.832 63.2603" stroke="black"/>
<path d="M139.322 121.575H180.266M180.266 121.575L179.145 120.334M180.266 121.575L179.145 122.816" stroke="black"/>
<rect width="57" height="113" transform="matrix(-1 0 0 1 129.678 36.5)" fill="#A57CFE"/>
<rect x="-0.5" y="0.5" width="56" height="110" transform="matrix(-1 0 0 1 138.678 30.5)" stroke="black"/>
<circle r="3.10184" transform="matrix(-1 0 0 1 96.0017 77.8601)" fill="#31D67B"/>
<circle r="3.10184" transform="matrix(-1 0 0 1 83.5945 77.8601)" fill="#31D67B"/>
<circle r="3.10184" transform="matrix(-1 0 0 1 71.1872 77.8601)" fill="#31D67B"/>
<circle r="3.10184" transform="matrix(-1 0 0 1 58.78 77.8601)" fill="#31D67B"/>
<circle r="3.10184" transform="matrix(-1 0 0 1 96.0017 90.2675)" fill="#31D67B"/>
<circle r="3.10184" transform="matrix(-1 0 0 1 83.5945 90.2675)" fill="#31D67B"/>
<circle r="3.10184" transform="matrix(-1 0 0 1 71.1872 90.2675)" fill="#31D67B"/>
<circle r="3.10184" transform="matrix(-1 0 0 1 58.78 90.2675)" fill="#31D67B"/>
<circle r="3.10184" transform="matrix(-1 0 0 1 58.78 102.675)" fill="#31D67B"/>
<circle r="3.10184" transform="matrix(-1 0 0 1 71.1872 102.675)" fill="#31D67B"/>
<circle r="3.10184" transform="matrix(-1 0 0 1 83.5945 102.675)" fill="#31D67B"/>
<circle r="3.10184" transform="matrix(-1 0 0 1 96.0017 102.675)" fill="#31D67B"/>
</svg>
