<svg width="341" height="180" viewBox="0 0 341 180" fill="none" xmlns="http://www.w3.org/2000/svg">
<rect width="341" height="180" fill="#F5F5F5"/>
<path d="M210.162 141.75L138.331 29.9251L66.5004 141.75H210.162Z" stroke="black"/>
<path d="M96.2967 142L96.2967 69M96.2967 69L95.3316 71M96.2967 69L97.2617 71" stroke="black"/>
<path d="M112.331 142L112.331 40M112.331 40L111.331 42.7945M112.331 40L113.331 42.7945" stroke="black"/>
<path d="M80.3311 142L80.3311 96M80.3311 96L79.3311 97.2603M80.3311 96L81.3311 97.2603" stroke="black"/>
<path d="M128.331 142V109M128.331 109L127.331 109.904M128.331 109L129.331 109.904" stroke="black"/>
<circle cx="170.208" cy="59.1235" r="31.8765" fill="#B491FF"/>
<circle cx="225.34" cy="34.2652" r="13.2557" fill="#A57CFE"/>
<circle cx="257.166" cy="40.4388" r="8.57086" fill="#8052E4"/>
<circle cx="218.801" cy="71.8209" r="2.82092" fill="#31D67B"/>
<circle cx="230.086" cy="71.8209" r="2.82092" fill="#31D67B"/>
<circle cx="241.369" cy="71.8209" r="2.82092" fill="#31D67B"/>
<circle cx="252.653" cy="71.8209" r="2.82092" fill="#31D67B"/>
<circle cx="218.801" cy="83.1046" r="2.82092" fill="#31D67B"/>
<circle cx="230.086" cy="83.1046" r="2.82092" fill="#31D67B"/>
<circle cx="241.369" cy="83.1046" r="2.82092" fill="#31D67B"/>
<circle cx="252.653" cy="83.1046" r="2.82092" fill="#31D67B"/>
<circle cx="252.653" cy="94.3883" r="2.82092" fill="#31D67B"/>
<circle cx="241.369" cy="94.3883" r="2.82092" fill="#31D67B"/>
<circle cx="230.086" cy="94.3883" r="2.82092" fill="#31D67B"/>
<circle cx="218.801" cy="94.3883" r="2.82092" fill="#31D67B"/>
<circle cx="218.801" cy="94.3883" r="2.82092" fill="#31D67B"/>
<circle cx="230.086" cy="94.3883" r="2.82092" fill="#31D67B"/>
<circle cx="241.369" cy="94.3883" r="2.82092" fill="#31D67B"/>
<circle cx="252.653" cy="94.3883" r="2.82092" fill="#31D67B"/>
<circle cx="218.801" cy="105.672" r="2.82092" fill="#31D67B"/>
<circle cx="230.086" cy="105.672" r="2.82092" fill="#31D67B"/>
<circle cx="241.369" cy="105.672" r="2.82092" fill="#31D67B"/>
<circle cx="252.653" cy="105.672" r="2.82092" fill="#31D67B"/>
<circle cx="252.653" cy="116.956" r="2.82092" fill="#31D67B"/>
<circle cx="241.369" cy="116.956" r="2.82092" fill="#31D67B"/>
<circle cx="230.086" cy="116.956" r="2.82092" fill="#31D67B"/>
<circle cx="218.801" cy="116.956" r="2.82092" fill="#31D67B"/>
</svg>
