<svg width="342" height="181" viewBox="0 0 342 181" fill="none" xmlns="http://www.w3.org/2000/svg">
<rect width="341" height="180" transform="translate(0.75 0.5)" fill="#F5F5F5"/>
<path d="M69.25 133.5C55.75 132.5 29.95 121.8 28.75 93C28.75 57 56.25 47.5 69.75 47.5C89.25 47.5 170.25 47.5 216.25 47.5" stroke="black"/>
<path d="M69.0469 133.5H141.251" stroke="black"/>
<path d="M158.25 47.5L201.75 96" stroke="black"/>
<path d="M162.75 47.5L206.25 96" stroke="black"/>
<path d="M167.75 47.5L211.25 96" stroke="black"/>
<path d="M172.75 47.5L216.25 96" stroke="black"/>
<path d="M177.75 47.5L221.25 96" stroke="black"/>
<path d="M182.75 47.5L226.25 96" stroke="black"/>
<circle cx="77.75" cy="90.5" r="38" fill="#AB85FF"/>
<circle cx="128.25" cy="116" r="9.5" fill="#8052E4"/>
<g clip-path="url(#clip0)">
<rect width="142" height="39" transform="translate(171.75 94.5)" fill="#31D67B"/>
<path d="M116.586 83.0447C193.089 39.3289 247.733 39.3289 280.52 83.0447C313.307 126.761 367.952 126.761 444.455 83.0447" stroke="#4AE991" stroke-width="2"/>
<path d="M112.347 159.709C170.995 93.9505 222.808 76.5876 267.786 107.62C312.764 138.653 364.577 121.29 423.225 55.5316" stroke="#4AE991" stroke-width="2"/>
<path d="M119.818 137.861C199.519 100.292 253.995 104.585 283.246 150.742C312.497 196.899 366.973 201.192 446.674 163.623" stroke="#4AE991" stroke-width="2"/>
</g>
<circle cx="90.125" cy="84.875" r="1.375" fill="#D4D4D4"/>
<circle cx="95.875" cy="84.875" r="1.375" fill="#D4D4D4"/>
<circle cx="101.625" cy="84.875" r="1.375" fill="#D4D4D4"/>
<circle cx="107.375" cy="84.875" r="1.375" fill="#D4D4D4"/>
<circle cx="113.125" cy="84.875" r="1.375" fill="#D4D4D4"/>
<circle cx="118.875" cy="84.875" r="1.375" fill="#D4D4D4"/>
<circle cx="124.625" cy="84.875" r="1.375" fill="#D4D4D4"/>
<circle cx="130.375" cy="84.875" r="1.375" fill="#D4D4D4"/>
<circle cx="136.125" cy="84.875" r="1.375" fill="#D4D4D4"/>
<circle cx="90.125" cy="90.625" r="1.375" fill="#D4D4D4"/>
<circle cx="95.875" cy="90.625" r="1.375" fill="#D4D4D4"/>
<circle cx="90.125" cy="96.375" r="1.375" fill="#D4D4D4"/>
<circle cx="95.875" cy="96.375" r="1.375" fill="#D4D4D4"/>
<circle cx="101.625" cy="96.375" r="1.375" fill="#D4D4D4"/>
<circle cx="107.375" cy="96.375" r="1.375" fill="#D4D4D4"/>
<circle cx="113.125" cy="96.375" r="1.375" fill="#D4D4D4"/>
<circle cx="118.875" cy="96.375" r="1.375" fill="#D4D4D4"/>
<circle cx="124.625" cy="96.375" r="1.375" fill="#D4D4D4"/>
<circle cx="130.375" cy="96.375" r="1.375" fill="#D4D4D4"/>
<circle cx="136.125" cy="96.375" r="1.375" fill="#D4D4D4"/>
<circle cx="101.625" cy="90.625" r="1.375" fill="#D4D4D4"/>
<circle cx="107.375" cy="90.625" r="1.375" fill="#D4D4D4"/>
<circle cx="113.125" cy="90.625" r="1.375" fill="#D4D4D4"/>
<circle cx="118.875" cy="90.625" r="1.375" fill="#D4D4D4"/>
<circle cx="124.625" cy="90.625" r="1.375" fill="#D4D4D4"/>
<circle cx="130.375" cy="90.625" r="1.375" fill="#D4D4D4"/>
<circle cx="136.125" cy="90.625" r="1.375" fill="#D4D4D4"/>
<path d="M288.416 86.8448C288.416 81.9795 286.483 77.3134 283.043 73.8731C279.603 70.4328 274.937 68.5 270.071 68.5C265.206 68.5 260.54 70.4328 257.1 73.8731C253.659 77.3134 251.727 81.9795 251.727 86.8448L270.071 86.8448H288.416Z" fill="#D4D4D4"/>
<path d="M261.336 86.8451C261.336 83.6016 260.094 80.4908 257.882 78.1973C255.67 75.9037 252.671 74.6152 249.543 74.6152C246.415 74.6152 243.416 75.9037 241.204 78.1973C238.992 80.4908 237.75 83.6016 237.75 86.8451L249.543 86.8451H261.336Z" fill="#D4D4D4"/>
<path d="M313.749 86.8451C313.749 83.6016 311.954 80.4908 308.759 78.1973C305.565 75.9037 301.232 74.6152 296.714 74.6152C292.196 74.6152 287.864 75.9037 284.669 78.1973C281.474 80.4908 279.68 83.6016 279.68 86.8451L296.714 86.8451H313.749Z" fill="#D4D4D4"/>
<defs>
<clipPath id="clip0">
<rect width="142" height="39" fill="white" transform="translate(171.75 94.5)"/>
</clipPath>
</defs>
</svg>
