<svg width="342" height="181" viewBox="0 0 342 181" fill="none" xmlns="http://www.w3.org/2000/svg">
<rect width="341" height="180" transform="translate(0.75 0.5)" fill="#F5F5F5"/>
<g clip-path="url(#clip0)">
<rect width="127" height="89" transform="translate(69.7422 45.0723)" fill="#4AE991"/>
<path d="M48.0634 80.5307C88.6516 44.0152 122.832 43.6089 150.605 79.3119C178.377 115.015 212.558 114.608 253.146 78.093" stroke="#31D67B" stroke-width="2"/>
<path d="M51.5019 110.869C86.2549 68.7617 120.001 63.314 152.74 94.5258C185.479 125.738 219.225 120.29 253.978 78.1827" stroke="#31D67B" stroke-width="2"/>
<path d="M50.3367 118.998C89.3748 80.8298 123.509 79.0056 152.739 113.525C181.969 148.045 216.103 146.221 255.141 108.053" stroke="#31D67B" stroke-width="2"/>
<path d="M49.5089 127.037C92.7983 93.7684 126.908 96.0054 151.838 133.748C176.767 171.491 210.877 173.728 254.166 140.459" stroke="#31D67B" stroke-width="2"/>
<path d="M40.5107 153.036C76.01 125.754 103.981 127.589 124.425 158.54C144.868 189.491 172.84 191.325 208.339 164.043" stroke="#31D67B" stroke-width="2"/>
<path d="M80.8506 40.8413C118.316 16.3285 146.067 20.2777 164.106 52.689C182.145 85.1003 209.897 89.0495 247.362 64.5367" stroke="#31D67B" stroke-width="2"/>
</g>
<path d="M197.095 34.459C197.29 34.2638 197.29 33.9472 197.095 33.7519L193.913 30.5699C193.717 30.3747 193.401 30.3747 193.205 30.5699C193.01 30.7652 193.01 31.0818 193.205 31.277L196.034 34.1055L193.205 36.9339C193.01 37.1292 193.01 37.4457 193.205 37.641C193.401 37.8363 193.717 37.8363 193.913 37.641L197.095 34.459ZM69.3008 34.6055H196.741V33.6055H69.3008V34.6055Z" fill="black"/>
<path d="M59.5293 44.7202C59.3341 44.5249 59.0175 44.5249 58.8222 44.7202L55.6402 47.9022C55.445 48.0974 55.445 48.414 55.6402 48.6093C55.8355 48.8045 56.1521 48.8045 56.3474 48.6093L59.1758 45.7808L62.0042 48.6093C62.1995 48.8045 62.5161 48.8045 62.7113 48.6093C62.9066 48.414 62.9066 48.0974 62.7113 47.9022L59.5293 44.7202ZM59.6758 133.75L59.6758 45.0737H58.6758L58.6758 133.75H59.6758Z" fill="black"/>
<path d="M247.891 88.2561L218.943 71.543V104.969L247.891 88.2561Z" fill="#AB85FF"/>
<path d="M229.578 88.2561L200.63 71.543V104.969L229.578 88.2561Z" fill="#AB85FF"/>
<path d="M210.281 88.2561L181.333 71.543V104.969L210.281 88.2561Z" fill="#AB85FF"/>
<circle cx="244.406" cy="85.7008" r="10.6637" stroke="black"/>
<circle cx="265.051" cy="74.5389" r="5.08182" stroke="black"/>
<circle cx="280.111" cy="80.6524" r="2.71295" stroke="black"/>
<defs>
<clipPath id="clip0">
<rect width="127" height="89" fill="white" transform="translate(69.7422 45.0723)"/>
</clipPath>
</defs>
</svg>
