<svg width="342" height="181" viewBox="0 0 342 181" fill="none" xmlns="http://www.w3.org/2000/svg">
<rect width="341" height="180" transform="translate(0.75 0.5)" fill="#F5F5F5"/>
<path d="M264.113 143.375C277.613 142.375 303.413 131.675 304.613 102.875C304.613 66.875 277.113 57.375 263.613 57.375C244.113 57.375 163.113 57.375 117.113 57.375" stroke="black"/>
<path d="M264.316 143.375H192.113" stroke="black"/>
<path d="M242.779 119.921C242.779 115.056 240.847 110.39 237.406 106.949C233.966 103.509 229.3 101.576 224.435 101.576C219.569 101.576 214.903 103.509 211.463 106.949C208.023 110.39 206.09 115.056 206.09 119.921L224.435 119.921H242.779Z" fill="#8052E4"/>
<path d="M215.699 119.921C215.699 116.678 214.457 113.567 212.245 111.273C210.034 108.98 207.034 107.691 203.906 107.691C200.779 107.691 197.779 108.98 195.567 111.273C193.356 113.567 192.113 116.678 192.113 119.921L203.906 119.921H215.699Z" fill="#8052E4"/>
<path d="M268.112 119.921C268.112 116.678 266.317 113.567 263.123 111.273C259.928 108.98 255.595 107.691 251.077 107.691C246.56 107.691 242.227 108.98 239.032 111.273C235.838 113.567 234.043 116.678 234.043 119.921L251.077 119.921H268.112Z" fill="#8052E4"/>
<path d="M106.594 65.0918L106.594 115.906M106.594 115.906L107.193 114.513M106.594 115.906L105.996 114.513" stroke="black"/>
<path d="M96.6133 65.0918L96.6133 104.092M96.6133 104.092L97.1133 103.023M96.6133 104.092L96.1133 103.023" stroke="black"/>
<path d="M116.495 65.0918V97.1114M116.495 97.1114L117.115 96.2342M116.495 97.1114L115.875 96.2342" stroke="black"/>
<path d="M86.7333 65.0918V88.0624M86.7333 88.0624L87.3533 87.4331M86.7333 88.0624L86.1133 87.4331" stroke="black"/>
<circle cx="205.215" cy="127.348" r="1.375" fill="#D4D4D4"/>
<circle cx="210.965" cy="127.348" r="1.375" fill="#D4D4D4"/>
<circle cx="216.715" cy="127.348" r="1.375" fill="#D4D4D4"/>
<circle cx="222.215" cy="127.348" r="1.375" fill="#D4D4D4"/>
<circle cx="228.215" cy="127.348" r="1.375" fill="#D4D4D4"/>
<circle cx="233.965" cy="127.348" r="1.375" fill="#D4D4D4"/>
<circle cx="239.715" cy="127.348" r="1.375" fill="#D4D4D4"/>
<circle cx="245.465" cy="127.348" r="1.375" fill="#D4D4D4"/>
<circle cx="251.215" cy="127.348" r="1.375" fill="#D4D4D4"/>
<circle cx="205.215" cy="133.098" r="1.375" fill="#D4D4D4"/>
<circle cx="210.965" cy="133.098" r="1.375" fill="#D4D4D4"/>
<circle cx="205.215" cy="138.848" r="1.375" fill="#D4D4D4"/>
<circle cx="210.965" cy="138.848" r="1.375" fill="#D4D4D4"/>
<circle cx="216.715" cy="138.848" r="1.375" fill="#D4D4D4"/>
<circle cx="222.465" cy="138.848" r="1.375" fill="#D4D4D4"/>
<circle cx="228.215" cy="138.848" r="1.375" fill="#D4D4D4"/>
<circle cx="233.965" cy="138.848" r="1.375" fill="#D4D4D4"/>
<circle cx="239.715" cy="138.848" r="1.375" fill="#D4D4D4"/>
<circle cx="245.465" cy="138.848" r="1.375" fill="#D4D4D4"/>
<circle cx="251.215" cy="138.848" r="1.375" fill="#D4D4D4"/>
<circle cx="216.715" cy="133.098" r="1.375" fill="#D4D4D4"/>
<circle cx="222.215" cy="133.098" r="1.375" fill="#D4D4D4"/>
<circle cx="228.215" cy="133.098" r="1.375" fill="#D4D4D4"/>
<circle cx="233.965" cy="133.098" r="1.375" fill="#D4D4D4"/>
<circle cx="239.715" cy="133.098" r="1.375" fill="#D4D4D4"/>
<circle cx="245.465" cy="133.098" r="1.375" fill="#D4D4D4"/>
<circle cx="251.215" cy="133.098" r="1.375" fill="#D4D4D4"/>
<circle cx="205.215" cy="143.611" r="1.375" fill="#D4D4D4"/>
<circle cx="210.965" cy="143.611" r="1.375" fill="#D4D4D4"/>
<circle cx="216.715" cy="143.611" r="1.375" fill="#D4D4D4"/>
<circle cx="222.215" cy="143.611" r="1.375" fill="#D4D4D4"/>
<circle cx="228.215" cy="143.611" r="1.375" fill="#D4D4D4"/>
<circle cx="233.965" cy="143.611" r="1.375" fill="#D4D4D4"/>
<circle cx="239.715" cy="143.611" r="1.375" fill="#D4D4D4"/>
<circle cx="245.465" cy="143.611" r="1.375" fill="#D4D4D4"/>
<circle cx="251.215" cy="143.611" r="1.375" fill="#D4D4D4"/>
<circle cx="205.215" cy="149.361" r="1.375" fill="#D4D4D4"/>
<circle cx="210.965" cy="149.361" r="1.375" fill="#D4D4D4"/>
<circle cx="205.215" cy="155.111" r="1.375" fill="#D4D4D4"/>
<circle cx="210.965" cy="155.111" r="1.375" fill="#D4D4D4"/>
<circle cx="216.715" cy="155.111" r="1.375" fill="#D4D4D4"/>
<circle cx="222.465" cy="155.111" r="1.375" fill="#D4D4D4"/>
<circle cx="228.215" cy="155.111" r="1.375" fill="#D4D4D4"/>
<circle cx="233.965" cy="155.111" r="1.375" fill="#D4D4D4"/>
<circle cx="239.715" cy="155.111" r="1.375" fill="#D4D4D4"/>
<circle cx="245.465" cy="155.111" r="1.375" fill="#D4D4D4"/>
<circle cx="251.215" cy="155.111" r="1.375" fill="#D4D4D4"/>
<circle cx="216.715" cy="149.361" r="1.375" fill="#D4D4D4"/>
<circle cx="222.215" cy="149.361" r="1.375" fill="#D4D4D4"/>
<circle cx="228.215" cy="149.361" r="1.375" fill="#D4D4D4"/>
<circle cx="233.965" cy="149.361" r="1.375" fill="#D4D4D4"/>
<circle cx="239.715" cy="149.361" r="1.375" fill="#D4D4D4"/>
<circle cx="245.465" cy="149.361" r="1.375" fill="#D4D4D4"/>
<circle cx="251.215" cy="149.361" r="1.375" fill="#D4D4D4"/>
<path d="M39.1767 60.5502V53.7702C39.1767 51.6102 39.9467 49.8102 41.4867 48.3702C43.0467 46.9302 44.9867 46.2102 47.3067 46.2102C49.6267 46.2102 51.5567 46.9302 53.0967 48.3702C54.6567 49.8102 55.4367 51.6102 55.4367 53.7702V60.5502C55.4367 62.7102 54.6567 64.5102 53.0967 65.9502C51.5567 67.3902 49.6267 68.1102 47.3067 68.1102C44.9867 68.1102 43.0467 67.3902 41.4867 65.9502C39.9467 64.5102 39.1767 62.7102 39.1767 60.5502ZM43.0767 53.7102V60.6102C43.0767 61.6702 43.4767 62.5702 44.2767 63.3102C45.0967 64.0302 46.1067 64.3902 47.3067 64.3902C48.5067 64.3902 49.5167 64.0302 50.3367 63.3102C51.1567 62.5502 51.5667 61.6502 51.5667 60.6102V53.7102C51.5667 52.6502 51.1567 51.7602 50.3367 51.0402C49.5367 50.3002 48.5267 49.9302 47.3067 49.9302C46.0867 49.9302 45.0767 50.3002 44.2767 51.0402C43.4767 51.7602 43.0767 52.6502 43.0767 53.7102ZM69.2946 51.4302L65.6646 53.2302L64.0446 49.8102L70.4046 46.6602H73.1946V67.6602H69.2946V51.4302ZM94.2863 52.7802C94.2863 52.0002 93.9463 51.3302 93.2663 50.7702C92.6263 50.2102 91.8363 49.9302 90.8963 49.9302C89.9963 49.9302 89.1863 50.2102 88.4663 50.7702C87.7663 51.3102 87.2363 52.0502 86.8763 52.9902L83.2763 51.2802C83.9563 49.7202 84.9763 48.4902 86.3363 47.5902C87.6963 46.6702 89.2163 46.2102 90.8963 46.2102C92.9963 46.2102 94.7463 46.8402 96.1463 48.1002C97.5863 49.3602 98.3063 50.8802 98.3063 52.6602C98.3063 53.7402 97.9463 54.8702 97.2263 56.0502C96.5063 57.2102 95.3663 58.5402 93.8063 60.0402L89.6963 63.9402H98.4863V67.6602H83.6963V64.7502L91.4063 57.4002C93.3263 55.5402 94.2863 54.0002 94.2863 52.7802ZM117.659 52.5102C117.659 51.7902 117.319 51.1802 116.639 50.6802C115.959 50.1802 115.089 49.9302 114.029 49.9302C113.169 49.9302 112.409 50.1102 111.749 50.4702C111.109 50.8102 110.639 51.2602 110.339 51.8202L106.799 50.1402C107.419 48.9402 108.379 47.9902 109.679 47.2902C110.979 46.5702 112.439 46.2102 114.059 46.2102C116.239 46.2102 118.059 46.8002 119.519 47.9802C120.959 49.1402 121.679 50.6102 121.679 52.3902C121.679 54.1302 120.929 55.5902 119.429 56.7702C121.289 57.9702 122.219 59.6002 122.219 61.6602C122.219 63.5202 121.459 65.0602 119.939 66.2802C118.419 67.5002 116.529 68.1102 114.269 68.1102C112.409 68.1102 110.779 67.6802 109.379 66.8202C107.979 65.9402 107.029 64.8002 106.529 63.4002L110.279 62.0802C110.499 62.7602 110.969 63.3202 111.689 63.7602C112.409 64.1802 113.259 64.3902 114.239 64.3902C115.359 64.3902 116.299 64.1202 117.059 63.5802C117.819 63.0202 118.199 62.3202 118.199 61.4802C118.199 60.6802 117.819 60.0202 117.059 59.5002C116.319 58.9602 115.409 58.6902 114.329 58.6902H112.739V55.1802H113.819C114.899 55.1802 115.809 54.9302 116.549 54.4302C117.289 53.9302 117.659 53.2902 117.659 52.5102ZM141.297 67.6602V63.6402H130.407V59.9202L141.477 46.6602H145.167V59.9202H147.837V63.6402H145.167V67.6602H141.297ZM141.297 52.4502L135.057 59.9202H141.297V52.4502ZM171.613 60.9702C171.613 62.9902 170.843 64.6902 169.303 66.0702C167.763 67.4302 165.853 68.1102 163.573 68.1102C161.733 68.1102 160.113 67.6302 158.713 66.6702C157.313 65.6902 156.313 64.3802 155.713 62.7402L159.583 61.6902C159.923 62.5302 160.453 63.1902 161.173 63.6702C161.893 64.1502 162.703 64.3902 163.603 64.3902C164.743 64.3902 165.683 64.0602 166.423 63.4002C167.203 62.7402 167.593 61.9302 167.593 60.9702C167.593 59.9302 167.163 59.0702 166.303 58.3902C165.483 57.7102 164.433 57.3702 163.153 57.3702H157.303L158.383 46.6602H169.813V50.2302H161.593L161.263 53.8302H163.363C165.703 53.8302 167.663 54.5102 169.243 55.8702C170.823 57.2102 171.613 58.9102 171.613 60.9702Z" fill="#31D67B"/>
<path d="M41.4867 48.3702L40.8084 47.6353L40.8037 47.6397L41.4867 48.3702ZM53.0967 48.3702L52.4137 49.1006L52.4184 49.105L53.0967 48.3702ZM53.0967 65.9502L52.4184 65.2153L52.4137 65.2197L53.0967 65.9502ZM41.4867 65.9502L40.8037 66.6806L40.8084 66.685L41.4867 65.9502ZM44.2767 63.3102L43.5977 64.0443L43.6072 64.0531L43.6169 64.0616L44.2767 63.3102ZM50.3367 63.3102L50.9965 64.0616L51.0066 64.0527L51.0165 64.0436L50.3367 63.3102ZM50.3367 51.0402L49.6577 51.7743L49.6672 51.783L49.6769 51.7916L50.3367 51.0402ZM44.2767 51.0402L44.9457 51.7835L44.9558 51.7743L44.2767 51.0402ZM40.1767 60.5502V53.7702H38.1767V60.5502H40.1767ZM40.1767 53.7702C40.1767 51.8793 40.8375 50.3463 42.1697 49.1006L40.8037 47.6397C39.056 49.274 38.1767 51.341 38.1767 53.7702H40.1767ZM42.165 49.105C43.5224 47.8519 45.2127 47.2102 47.3067 47.2102V45.2102C44.7607 45.2102 42.571 46.0084 40.8084 47.6354L42.165 49.105ZM47.3067 47.2102C49.4008 47.2102 51.0782 47.8518 52.4137 49.1006L53.7797 47.6397C52.0352 46.0085 49.8527 45.2102 47.3067 45.2102V47.2102ZM52.4184 49.105C53.7693 50.3519 54.4367 51.8837 54.4367 53.7702H56.4367C56.4367 51.3366 55.5441 49.2684 53.775 47.6354L52.4184 49.105ZM54.4367 53.7702V60.5502H56.4367V53.7702H54.4367ZM54.4367 60.5502C54.4367 62.4366 53.7693 63.9684 52.4184 65.2154L53.775 66.685C55.5441 65.0519 56.4367 62.9837 56.4367 60.5502H54.4367ZM52.4137 65.2197C51.0782 66.4685 49.4008 67.1102 47.3067 67.1102V69.1102C49.8527 69.1102 52.0352 68.3118 53.7797 66.6806L52.4137 65.2197ZM47.3067 67.1102C45.2127 67.1102 43.5224 66.4684 42.165 65.2154L40.8084 66.685C42.571 68.3119 44.7607 69.1102 47.3067 69.1102V67.1102ZM42.1697 65.2197C40.8375 63.974 40.1767 62.441 40.1767 60.5502H38.1767C38.1767 62.9793 39.056 65.0463 40.8037 66.6806L42.1697 65.2197ZM42.0767 53.7102V60.6102H44.0767V53.7102H42.0767ZM42.0767 60.6102C42.0767 61.9576 42.5996 63.121 43.5977 64.0443L44.9558 62.5761C44.3539 62.0193 44.0767 61.3827 44.0767 60.6102H42.0767ZM43.6169 64.0616C44.6381 64.9582 45.89 65.3902 47.3067 65.3902V63.3902C46.3235 63.3902 45.5554 63.1021 44.9365 62.5587L43.6169 64.0616ZM47.3067 65.3902C48.7235 65.3902 49.9754 64.9582 50.9965 64.0616L49.6769 62.5587C49.0581 63.1021 48.29 63.3902 47.3067 63.3902V65.3902ZM51.0165 64.0436C52.0235 63.1102 52.5667 61.9511 52.5667 60.6102H50.5667C50.5667 61.3492 50.2899 61.9901 49.657 62.5767L51.0165 64.0436ZM52.5667 60.6102V53.7102H50.5667V60.6102H52.5667ZM52.5667 53.7102C52.5667 52.3528 52.0255 51.1922 50.9965 50.2887L49.6769 51.7916C50.288 52.3281 50.5667 52.9475 50.5667 53.7102H52.5667ZM51.0158 50.3061C50.0084 49.3743 48.746 48.9302 47.3067 48.9302V50.9302C48.3075 50.9302 49.065 51.2261 49.6577 51.7743L51.0158 50.3061ZM47.3067 48.9302C45.8675 48.9302 44.605 49.3743 43.5977 50.3061L44.9558 51.7743C45.5484 51.2261 46.306 50.9302 47.3067 50.9302V48.9302ZM43.6078 50.2969C42.6007 51.2032 42.0767 52.3617 42.0767 53.7102H44.0767C44.0767 52.9386 44.3527 52.3171 44.9457 51.7835L43.6078 50.2969ZM69.2946 51.4302H70.2946V49.8181L68.8504 50.5343L69.2946 51.4302ZM65.6646 53.2302L64.7609 53.6582L65.1967 54.5784L66.1089 54.1261L65.6646 53.2302ZM64.0446 49.8102L63.6008 48.914L62.7202 49.3502L63.1409 50.2382L64.0446 49.8102ZM70.4046 46.6602V45.6602H70.1705L69.9608 45.764L70.4046 46.6602ZM73.1946 46.6602H74.1946V45.6602H73.1946V46.6602ZM73.1946 67.6602V68.6602H74.1946V67.6602H73.1946ZM69.2946 67.6602H68.2946V68.6602H69.2946V67.6602ZM68.8504 50.5343L65.2204 52.3343L66.1089 54.1261L69.7389 52.3261L68.8504 50.5343ZM66.5683 52.8021L64.9483 49.3821L63.1409 50.2382L64.7609 53.6582L66.5683 52.8021ZM64.4884 50.7063L70.8484 47.5563L69.9608 45.764L63.6008 48.914L64.4884 50.7063ZM70.4046 47.6602H73.1946V45.6602H70.4046V47.6602ZM72.1946 46.6602V67.6602H74.1946V46.6602H72.1946ZM73.1946 66.6602H69.2946V68.6602H73.1946V66.6602ZM70.2946 67.6602V51.4302H68.2946V67.6602H70.2946ZM93.2663 50.7702L92.6077 51.5227L92.619 51.5326L92.6305 51.5421L93.2663 50.7702ZM88.4663 50.7702L89.0771 51.5619L89.0802 51.5595L88.4663 50.7702ZM86.8763 52.9902L86.4472 53.8934L87.4235 54.3572L87.8101 53.3478L86.8763 52.9902ZM83.2762 51.2802L82.3596 50.8806L81.9727 51.7681L82.8472 52.1834L83.2762 51.2802ZM86.3363 47.5902L86.8881 48.4241L86.8966 48.4184L86.3363 47.5902ZM96.1463 48.1002L95.4772 48.8435L95.4877 48.8527L96.1463 48.1002ZM97.2262 56.0502L98.0759 56.5775L98.0799 56.571L97.2262 56.0502ZM93.8063 60.0402L94.4946 60.7656L94.4994 60.761L93.8063 60.0402ZM89.6963 63.9402L89.0079 63.2148L87.1896 64.9402H89.6963V63.9402ZM98.4863 63.9402H99.4863V62.9402H98.4863V63.9402ZM98.4863 67.6602V68.6602H99.4863V67.6602H98.4863ZM83.6963 67.6602H82.6963V68.6602H83.6963V67.6602ZM83.6963 64.7502L83.0062 64.0264L82.6963 64.3219V64.7502H83.6963ZM91.4062 57.4002L92.0963 58.124L92.102 58.1184L91.4062 57.4002ZM95.2863 52.7802C95.2863 51.6604 94.779 50.7205 93.902 49.9982L92.6305 51.5421C93.1135 51.9398 93.2863 52.3399 93.2863 52.7802H95.2863ZM93.9248 50.0176C93.0828 49.2809 92.051 48.9302 90.8963 48.9302V50.9302C91.6215 50.9302 92.1697 51.1394 92.6077 51.5227L93.9248 50.0176ZM90.8963 48.9302C89.7706 48.9302 88.7453 49.2863 87.8523 49.9808L89.0802 51.5595C89.6272 51.134 90.2219 50.9302 90.8963 50.9302V48.9302ZM87.8554 49.9784C86.9906 50.6455 86.3588 51.5452 85.9424 52.6325L87.8101 53.3478C88.1137 52.5551 88.5419 51.9748 89.0771 51.5619L87.8554 49.9784ZM87.3053 52.0869L83.7053 50.3769L82.8472 52.1834L86.4472 53.8934L87.3053 52.0869ZM84.1929 51.6797C84.7993 50.2886 85.6963 49.2128 86.8881 48.4241L85.7844 46.7562C84.2562 47.7675 83.1132 49.1517 82.3596 50.8806L84.1929 51.6797ZM86.8966 48.4184C88.0871 47.6131 89.4111 47.2102 90.8963 47.2102V45.2102C89.0214 45.2102 87.3054 45.7272 85.7759 46.7619L86.8966 48.4184ZM90.8963 47.2102C92.7798 47.2102 94.2824 47.7681 95.4773 48.8435L96.8152 47.3569C95.2101 45.9122 93.2127 45.2102 90.8963 45.2102V47.2102ZM95.4877 48.8527C96.7291 49.9389 97.3063 51.1921 97.3063 52.6602H99.3063C99.3063 50.5682 98.4434 48.7814 96.8048 47.3476L95.4877 48.8527ZM97.3063 52.6602C97.3063 53.5116 97.0233 54.4629 96.3726 55.5293L98.0799 56.571C98.8692 55.2774 99.3063 53.9688 99.3063 52.6602H97.3063ZM96.3766 55.5228C95.7184 56.5833 94.6437 57.8476 93.1131 59.3193L94.4994 60.761C96.0888 59.2327 97.2941 57.837 98.0759 56.5775L96.3766 55.5228ZM93.1179 59.3148L89.0079 63.2148L90.3846 64.6656L94.4946 60.7656L93.1179 59.3148ZM89.6963 64.9402H98.4863V62.9402H89.6963V64.9402ZM97.4863 63.9402V67.6602H99.4863V63.9402H97.4863ZM98.4863 66.6602H83.6963V68.6602H98.4863V66.6602ZM84.6963 67.6602V64.7502H82.6963V67.6602H84.6963ZM84.3863 65.474L92.0963 58.124L90.7162 56.6764L83.0062 64.0264L84.3863 65.474ZM92.102 58.1184C93.0957 57.1558 93.8768 56.2424 94.4149 55.3792C94.9487 54.5228 95.2863 53.6472 95.2863 52.7802H93.2863C93.2863 53.1331 93.1438 53.6375 92.7176 54.3211C92.2957 54.9979 91.6368 55.7845 90.7105 56.6819L92.102 58.1184ZM116.639 50.6802L117.231 49.8745V49.8745L116.639 50.6802ZM111.749 50.4702L112.218 51.3533L112.227 51.3481L111.749 50.4702ZM110.339 51.8202L109.91 52.7236L110.77 53.1319L111.22 52.2924L110.339 51.8202ZM106.799 50.1402L105.91 49.6811L105.435 50.6001L106.37 51.0436L106.799 50.1402ZM109.679 47.2902L110.153 48.1707L110.163 48.1649L109.679 47.2902ZM119.519 47.9802L118.89 48.7579L118.891 48.7589L119.519 47.9802ZM119.429 56.7702L118.81 55.9842L117.709 56.8507L118.886 57.6105L119.429 56.7702ZM119.939 66.2802L119.313 65.5003L119.939 66.2802ZM109.379 66.8202L108.846 67.6668L108.855 67.6722L109.379 66.8202ZM106.529 63.4002L106.197 62.4569L105.249 62.7904L105.587 63.7365L106.529 63.4002ZM110.279 62.0802L111.23 61.7723L110.914 60.7963L109.947 61.1369L110.279 62.0802ZM111.689 63.7602L111.167 64.6134L111.176 64.6188L111.185 64.6239L111.689 63.7602ZM117.059 63.5802L117.638 64.3953L117.645 64.3903L117.652 64.3852L117.059 63.5802ZM117.059 59.5002L116.469 60.3079L116.481 60.3169L116.494 60.3255L117.059 59.5002ZM112.739 58.6902H111.739V59.6902H112.739V58.6902ZM112.739 55.1802V54.1802H111.739V55.1802H112.739ZM118.659 52.5102C118.659 51.4145 118.117 50.526 117.231 49.8745L116.046 51.4858C116.52 51.8343 116.659 52.1658 116.659 52.5102H118.659ZM117.231 49.8745C116.34 49.2191 115.247 48.9302 114.029 48.9302V50.9302C114.931 50.9302 115.578 51.1412 116.046 51.4858L117.231 49.8745ZM114.029 48.9302C113.026 48.9302 112.097 49.1412 111.27 49.5923L112.227 51.3481C112.721 51.0791 113.312 50.9302 114.029 50.9302V48.9302ZM111.279 49.587C110.49 50.0066 109.863 50.5894 109.457 51.3479L111.22 52.2924C111.414 51.931 111.727 51.6137 112.218 51.3533L111.279 49.587ZM110.767 50.9167L107.227 49.2367L106.37 51.0436L109.91 52.7236L110.767 50.9167ZM107.687 50.5992C108.206 49.5949 109.013 48.7844 110.153 48.1706L109.204 46.4097C107.744 47.1959 106.631 48.2854 105.91 49.6811L107.687 50.5992ZM110.163 48.1649C111.302 47.5343 112.592 47.2102 114.059 47.2102V45.2102C112.285 45.2102 110.656 45.606 109.194 46.4154L110.163 48.1649ZM114.059 47.2102C116.049 47.2102 117.636 47.7443 118.89 48.7579L120.147 47.2024C118.481 45.856 116.429 45.2102 114.059 45.2102V47.2102ZM118.891 48.7589C120.106 49.7376 120.679 50.9261 120.679 52.3902H122.679C122.679 50.2942 121.811 48.5427 120.146 47.2014L118.891 48.7589ZM120.679 52.3902C120.679 53.791 120.096 54.9728 118.81 55.9842L120.047 57.5561C121.761 56.2075 122.679 54.4693 122.679 52.3902H120.679ZM118.886 57.6105C120.486 58.6427 121.219 59.969 121.219 61.6602H123.219C123.219 59.2313 122.091 57.2976 119.971 55.9299L118.886 57.6105ZM121.219 61.6602C121.219 63.2005 120.609 64.4596 119.313 65.5003L120.565 67.06C122.308 65.6607 123.219 63.8398 123.219 61.6602H121.219ZM119.313 65.5003C117.998 66.5557 116.339 67.1102 114.269 67.1102V69.1102C116.718 69.1102 118.839 68.4446 120.565 67.06L119.313 65.5003ZM114.269 67.1102C112.568 67.1102 111.125 66.7191 109.902 65.9681L108.855 67.6722C110.433 68.6413 112.249 69.1102 114.269 69.1102V67.1102ZM109.911 65.9735C108.678 65.1987 107.886 64.2288 107.47 63.0638L105.587 63.7365C106.171 65.3715 107.279 66.6816 108.846 67.6668L109.911 65.9735ZM106.861 64.3434L110.611 63.0234L109.947 61.1369L106.197 62.4569L106.861 64.3434ZM109.327 62.388C109.634 63.3351 110.282 64.0725 111.167 64.6134L112.21 62.9069C111.655 62.5678 111.364 62.1852 111.23 61.7723L109.327 62.388ZM111.185 64.6239C112.083 65.1477 113.113 65.3902 114.239 65.3902V63.3902C113.404 63.3902 112.735 63.2126 112.192 62.8964L111.185 64.6239ZM114.239 65.3902C115.523 65.3902 116.677 65.0781 117.638 64.3953L116.479 62.765C115.92 63.1622 115.194 63.3902 114.239 63.3902V65.3902ZM117.652 64.3852C118.631 63.6636 119.199 62.6806 119.199 61.4802H117.199C117.199 61.9597 117.006 62.3767 116.465 62.7751L117.652 64.3852ZM119.199 61.4802C119.199 60.2962 118.608 59.3486 117.623 58.6748L116.494 60.3255C117.029 60.6917 117.199 61.0641 117.199 61.4802H119.199ZM117.648 58.6924C116.708 58.0062 115.581 57.6902 114.329 57.6902V59.6902C115.236 59.6902 115.929 59.9141 116.469 60.3079L117.648 58.6924ZM114.329 57.6902H112.739V59.6902H114.329V57.6902ZM113.739 58.6902V55.1802H111.739V58.6902H113.739ZM112.739 56.1802H113.819V54.1802H112.739V56.1802ZM113.819 56.1802C115.056 56.1802 116.171 55.892 117.108 55.2587L115.989 53.6016C115.446 53.9683 114.741 54.1802 113.819 54.1802V56.1802ZM117.108 55.2587C118.077 54.6041 118.659 53.6747 118.659 52.5102H116.659C116.659 52.9057 116.5 53.2562 115.989 53.6016L117.108 55.2587ZM141.297 67.6602H140.297V68.6602H141.297V67.6602ZM141.297 63.6402H142.297V62.6402H141.297V63.6402ZM130.407 63.6402H129.407V64.6402H130.407V63.6402ZM130.407 59.9202L129.639 59.2793L129.407 59.5576V59.9202H130.407ZM141.477 46.6602V45.6602H141.009L140.709 46.0193L141.477 46.6602ZM145.167 46.6602H146.167V45.6602H145.167V46.6602ZM145.167 59.9202H144.167V60.9202H145.167V59.9202ZM147.837 59.9202H148.837V58.9202H147.837V59.9202ZM147.837 63.6402V64.6402H148.837V63.6402H147.837ZM145.167 63.6402V62.6402H144.167V63.6402H145.167ZM145.167 67.6602V68.6602H146.167V67.6602H145.167ZM141.297 52.4502H142.297V49.6932L140.529 51.8091L141.297 52.4502ZM135.057 59.9202L134.289 59.2791L132.918 60.9202H135.057V59.9202ZM141.297 59.9202V60.9202H142.297V59.9202H141.297ZM142.297 67.6602V63.6402H140.297V67.6602H142.297ZM141.297 62.6402H130.407V64.6402H141.297V62.6402ZM131.407 63.6402V59.9202H129.407V63.6402H131.407ZM131.174 60.561L142.244 47.301L140.709 46.0193L129.639 59.2793L131.174 60.561ZM141.477 47.6602H145.167V45.6602H141.477V47.6602ZM144.167 46.6602V59.9202H146.167V46.6602H144.167ZM145.167 60.9202H147.837V58.9202H145.167V60.9202ZM146.837 59.9202V63.6402H148.837V59.9202H146.837ZM147.837 62.6402H145.167V64.6402H147.837V62.6402ZM144.167 63.6402V67.6602H146.167V63.6402H144.167ZM145.167 66.6602H141.297V68.6602H145.167V66.6602ZM140.529 51.8091L134.289 59.2791L135.824 60.5612L142.064 53.0912L140.529 51.8091ZM135.057 60.9202H141.297V58.9202H135.057V60.9202ZM142.297 59.9202V52.4502H140.297V59.9202H142.297ZM169.303 66.0702L169.965 66.8197L169.971 66.8149L169.303 66.0702ZM158.713 66.6702L158.14 67.4894L158.148 67.4949L158.713 66.6702ZM155.713 62.7402L155.452 61.775L154.4 62.0604L154.774 63.0837L155.713 62.7402ZM159.583 61.6902L160.51 61.315L160.178 60.4928L159.322 60.725L159.583 61.6902ZM161.173 63.6702L160.619 64.5022L161.173 63.6702ZM166.423 63.4002L165.777 62.6368L165.767 62.6452L165.758 62.6539L166.423 63.4002ZM166.303 58.3902L165.665 59.1599L165.674 59.1673L165.683 59.1746L166.303 58.3902ZM157.303 57.3702L156.308 57.2698L156.197 58.3702H157.303V57.3702ZM158.383 46.6602V45.6602H157.479L157.388 46.5598L158.383 46.6602ZM169.813 46.6602H170.813V45.6602H169.813V46.6602ZM169.813 50.2302V51.2302H170.813V50.2302H169.813ZM161.593 50.2302V49.2302H160.681L160.598 50.1389L161.593 50.2302ZM161.263 53.8302L160.268 53.7389L160.168 54.8302H161.263V53.8302ZM169.243 55.8702L168.591 56.6281L168.597 56.6328L169.243 55.8702ZM170.613 60.9702C170.613 62.6983 169.97 64.13 168.636 65.3254L169.971 66.8149C171.717 65.2503 172.613 63.282 172.613 60.9702H170.613ZM168.641 65.3206C167.305 66.5011 165.638 67.1102 163.573 67.1102V69.1102C166.068 69.1102 168.222 68.3592 169.965 66.8197L168.641 65.3206ZM163.573 67.1102C161.917 67.1102 160.498 66.6816 159.279 65.8454L158.148 67.4949C159.728 68.5787 161.549 69.1102 163.573 69.1102V67.1102ZM159.287 65.8509C158.058 64.991 157.184 63.8488 156.652 62.3966L154.774 63.0837C155.443 64.9115 156.568 66.3893 158.14 67.4894L159.287 65.8509ZM155.975 63.7053L159.845 62.6553L159.322 60.725L155.452 61.775L155.975 63.7053ZM158.656 62.0653C159.068 63.0823 159.723 63.9053 160.619 64.5022L161.728 62.8381C161.183 62.475 160.779 61.978 160.51 61.315L158.656 62.0653ZM160.619 64.5022C161.51 65.0963 162.514 65.3902 163.603 65.3902V63.3902C162.892 63.3902 162.277 63.204 161.728 62.8381L160.619 64.5022ZM163.603 65.3902C164.95 65.3902 166.138 64.9942 167.089 64.1465L165.758 62.6539C165.228 63.1261 164.537 63.3902 163.603 63.3902V65.3902ZM167.069 64.1635C168.057 63.3275 168.593 62.2452 168.593 60.9702H166.593C166.593 61.6151 166.349 62.1528 165.777 62.6368L167.069 64.1635ZM168.593 60.9702C168.593 59.6057 168.008 58.4635 166.924 57.6057L165.683 59.1746C166.318 59.6768 166.593 60.2546 166.593 60.9702H168.593ZM166.942 57.6204C165.908 56.7631 164.618 56.3702 163.153 56.3702V58.3702C164.249 58.3702 165.059 58.6572 165.665 59.1599L166.942 57.6204ZM163.153 56.3702H157.303V58.3702H163.153V56.3702ZM158.298 57.4705L159.378 46.7605L157.388 46.5598L156.308 57.2698L158.298 57.4705ZM158.383 47.6602H169.813V45.6602H158.383V47.6602ZM168.813 46.6602V50.2302H170.813V46.6602H168.813ZM169.813 49.2302H161.593V51.2302H169.813V49.2302ZM160.598 50.1389L160.268 53.7389L162.259 53.9214L162.589 50.3214L160.598 50.1389ZM161.263 54.8302H163.363V52.8302H161.263V54.8302ZM163.363 54.8302C165.495 54.8302 167.215 55.4435 168.591 56.6281L169.896 55.1123C168.112 53.5768 165.911 52.8302 163.363 52.8302V54.8302ZM168.597 56.6328C169.954 57.7841 170.613 59.2058 170.613 60.9702H172.613C172.613 58.6145 171.693 56.6363 169.89 55.1075L168.597 56.6328Z" fill="black"/>
</svg>
