<svg width="229" height="55" viewBox="0 0 229 55" fill="none" xmlns="http://www.w3.org/2000/svg">
<g clip-path="url(#clip0)">
<path d="M227.116 10.1982H223.516V5.69815C223.517 5.20113 223.116 4.79669 222.619 4.795C222.592 4.79489 222.566 4.79601 222.54 4.79815L220.192 4.99615C214.498 5.46708 208.913 6.82889 203.641 9.03175L201.016 10.1235L198.393 9.03535C193.121 6.83215 187.535 5.47011 181.84 4.99885L179.491 4.79815C178.996 4.75641 178.561 5.12406 178.519 5.6194C178.517 5.64561 178.516 5.67194 178.516 5.69815V10.1982H174.916C174.419 10.1982 174.016 10.6011 174.016 11.0982V48.8981C174.016 49.3952 174.419 49.7981 174.916 49.7981H227.116C227.613 49.7981 228.016 49.3952 228.016 48.8981V11.0982C228.016 10.6011 227.613 10.1982 227.116 10.1982ZM175.816 47.9999V11.9982H178.516V43.4981C178.514 43.9668 178.872 44.3583 179.339 44.3981L181.761 44.6051C182.421 44.6604 183.081 44.7285 183.741 44.8094C183.962 44.8355 184.18 44.8706 184.401 44.8994C184.837 44.9579 185.274 45.0164 185.708 45.0858C185.968 45.1271 186.226 45.1758 186.484 45.2216C186.878 45.291 187.273 45.3602 187.665 45.4376C187.935 45.4916 188.205 45.551 188.475 45.6096C188.854 45.6905 189.233 45.7733 189.61 45.8633C189.88 45.9281 190.154 45.9974 190.426 46.0667C190.798 46.1621 191.169 46.2593 191.539 46.3619C191.809 46.4375 192.079 46.5167 192.349 46.5959C192.716 46.7045 193.082 46.8173 193.448 46.9343C193.715 47.0195 193.982 47.1072 194.249 47.1971C194.617 47.3204 194.982 47.45 195.347 47.5823C195.607 47.6723 195.867 47.7704 196.124 47.8685C196.236 47.9108 196.346 47.9585 196.457 47.9999H175.816ZM200.116 47.5481L198.456 46.8551C193.188 44.6479 187.605 43.2812 181.913 42.8051L180.316 42.672V6.67735L181.689 6.79255C187.198 7.24773 192.601 8.56488 197.701 10.6959L200.116 11.6985V47.5481ZM201.916 47.5481V11.6985L204.333 10.695C209.432 8.56443 214.834 7.24761 220.342 6.79255L221.716 6.67735V42.6692L220.237 42.7898C214.541 43.2627 208.954 44.6212 203.677 46.8164L201.916 47.5481ZM226.216 47.9981H205.588C205.711 47.9504 205.833 47.9 205.957 47.8532C206.227 47.7497 206.497 47.6516 206.773 47.5536C207.126 47.4258 207.48 47.3019 207.836 47.1818C208.113 47.0918 208.392 47.0018 208.67 46.9118C209.026 46.7984 209.383 46.6904 209.74 46.5842C210.021 46.5014 210.303 46.4195 210.584 46.3421C210.944 46.2413 211.304 46.1469 211.673 46.0541C211.952 45.983 212.232 45.9119 212.513 45.8453C212.888 45.7553 213.265 45.6743 213.642 45.5942C213.912 45.5357 214.182 45.4754 214.457 45.4214C214.853 45.3431 215.251 45.2738 215.648 45.2045C215.905 45.1595 216.162 45.1145 216.42 45.0695C216.864 44.9993 217.308 44.939 217.754 44.8797C217.967 44.8517 218.18 44.8175 218.395 44.7896C219.055 44.7099 219.718 44.6417 220.385 44.5854L222.689 44.3981C223.157 44.3597 223.517 43.9677 223.516 43.4981V11.9982H226.216V47.9981Z" fill="url(#paint0_linear)"/>
</g>
<path d="M152.277 27.6504C152.472 27.4552 152.472 27.1386 152.277 26.9433L149.095 23.7613C148.899 23.5661 148.583 23.5661 148.387 23.7613C148.192 23.9566 148.192 24.2732 148.387 24.4685L151.216 27.2969L148.387 30.1253C148.192 30.3206 148.192 30.6371 148.387 30.8324C148.583 31.0277 148.899 31.0277 149.095 30.8324L152.277 27.6504ZM112.973 27.7969L151.923 27.7969L151.923 26.7969L112.973 26.7969L112.973 27.7969Z" fill="url(#paint1_linear)"/>
<path d="M90.9855 25.2734C94.1708 25.2734 97.131 26.6578 99.3252 29.1926C101.476 31.6784 102.728 35.1081 102.851 38.9187C101.309 39.6938 96.6421 41.7734 90.9855 41.7734C85.7525 41.7734 80.7817 39.6739 79.1212 38.8956C79.2483 35.0941 80.4985 31.6734 82.6457 29.1926C84.8399 26.6579 87.8001 25.2734 90.9855 25.2734Z" stroke="url(#paint2_linear)"/>
<path d="M96.6719 17.6641C96.6719 20.6971 94.1389 23.1797 90.9844 23.1797C87.8299 23.1797 85.2969 20.6971 85.2969 17.6641C85.2969 14.6311 87.8299 12.1484 90.9844 12.1484C94.1389 12.1484 96.6719 14.6311 96.6719 17.6641Z" stroke="url(#paint3_linear)"/>
<path d="M54.9855 25.2734C58.1708 25.2734 61.131 26.6578 63.3252 29.1926C65.4765 31.6784 66.7279 35.1081 66.8505 38.9187C65.3088 39.6938 60.6421 41.7734 54.9855 41.7734C49.7525 41.7734 44.7817 39.6739 43.1212 38.8956C43.2483 35.0941 44.4985 31.6734 46.6457 29.1926C48.8399 26.6579 51.8001 25.2734 54.9855 25.2734Z" fill="url(#paint4_linear)" stroke="url(#paint5_linear)"/>
<path d="M60.6719 17.6641C60.6719 20.6971 58.1389 23.1797 54.9844 23.1797C51.8299 23.1797 49.2969 20.6971 49.2969 17.6641C49.2969 14.6311 51.8299 12.1484 54.9844 12.1484C58.1389 12.1484 60.6719 14.6311 60.6719 17.6641Z" fill="url(#paint6_linear)" stroke="url(#paint7_linear)"/>
<path d="M18.9855 25.2734C22.1708 25.2734 25.131 26.6578 27.3252 29.1926C29.4765 31.6784 30.7279 35.1081 30.8505 38.9187C29.3088 39.6938 24.6421 41.7734 18.9855 41.7734C13.7525 41.7734 8.78175 39.6739 7.12123 38.8956C7.24831 35.0941 8.49853 31.6734 10.6457 29.1926C12.8399 26.6579 15.8001 25.2734 18.9855 25.2734Z" stroke="url(#paint8_linear)"/>
<path d="M24.6719 17.6641C24.6719 20.6971 22.1389 23.1797 18.9844 23.1797C15.8299 23.1797 13.2969 20.6971 13.2969 17.6641C13.2969 14.6311 15.8299 12.1484 18.9844 12.1484C22.1389 12.1484 24.6719 14.6311 24.6719 17.6641Z" stroke="url(#paint9_linear)"/>
<defs>
<linearGradient id="paint0_linear" x1="165.232" y1="54.2926" x2="214.043" y2="-21.4178" gradientUnits="userSpaceOnUse">
<stop stop-color="#AB85FF"/>
<stop offset="0.526042" stop-color="#EBA3E3"/>
<stop offset="1" stop-color="#FFDBE4"/>
</linearGradient>
<linearGradient id="paint1_linear" x1="106.637" y1="28.3967" x2="106.684" y2="26.0161" gradientUnits="userSpaceOnUse">
<stop stop-color="#AB85FF"/>
<stop offset="0.526042" stop-color="#EBA3E3"/>
<stop offset="1" stop-color="#FFDBE4"/>
</linearGradient>
<linearGradient id="paint2_linear" x1="74.5881" y1="44.0212" x2="92.1374" y2="11.9446" gradientUnits="userSpaceOnUse">
<stop stop-color="#AB85FF"/>
<stop offset="0.526042" stop-color="#EBA3E3"/>
<stop offset="1" stop-color="#FFDBE4"/>
</linearGradient>
<linearGradient id="paint3_linear" x1="82.7839" y1="24.8812" x2="96.5483" y2="6.58004" gradientUnits="userSpaceOnUse">
<stop stop-color="#AB85FF"/>
<stop offset="0.526042" stop-color="#EBA3E3"/>
<stop offset="1" stop-color="#FFDBE4"/>
</linearGradient>
<linearGradient id="paint4_linear" x1="38.5881" y1="44.0212" x2="56.1374" y2="11.9446" gradientUnits="userSpaceOnUse">
<stop stop-color="#AB85FF"/>
<stop offset="0.526042" stop-color="#EBA3E3"/>
<stop offset="1" stop-color="#FFDBE4"/>
</linearGradient>
<linearGradient id="paint5_linear" x1="38.5881" y1="44.0212" x2="56.1374" y2="11.9446" gradientUnits="userSpaceOnUse">
<stop stop-color="#AB85FF"/>
<stop offset="0.526042" stop-color="#EBA3E3"/>
<stop offset="1" stop-color="#FFDBE4"/>
</linearGradient>
<linearGradient id="paint6_linear" x1="46.7839" y1="24.8812" x2="60.5483" y2="6.58004" gradientUnits="userSpaceOnUse">
<stop stop-color="#AB85FF"/>
<stop offset="0.526042" stop-color="#EBA3E3"/>
<stop offset="1" stop-color="#FFDBE4"/>
</linearGradient>
<linearGradient id="paint7_linear" x1="46.7839" y1="24.8812" x2="60.5483" y2="6.58004" gradientUnits="userSpaceOnUse">
<stop stop-color="#AB85FF"/>
<stop offset="0.526042" stop-color="#EBA3E3"/>
<stop offset="1" stop-color="#FFDBE4"/>
</linearGradient>
<linearGradient id="paint8_linear" x1="2.58815" y1="44.0212" x2="20.1374" y2="11.9446" gradientUnits="userSpaceOnUse">
<stop stop-color="#AB85FF"/>
<stop offset="0.526042" stop-color="#EBA3E3"/>
<stop offset="1" stop-color="#FFDBE4"/>
</linearGradient>
<linearGradient id="paint9_linear" x1="10.7839" y1="24.8812" x2="24.5483" y2="6.58004" gradientUnits="userSpaceOnUse">
<stop stop-color="#AB85FF"/>
<stop offset="0.526042" stop-color="#EBA3E3"/>
<stop offset="1" stop-color="#FFDBE4"/>
</linearGradient>
<clipPath id="clip0">
<rect width="54" height="54" fill="white" transform="translate(174.016 0.296875)"/>
</clipPath>
</defs>
</svg>
