<svg width="205" height="91" viewBox="0 0 205 91" fill="none" xmlns="http://www.w3.org/2000/svg">
<path d="M17.5 0.5H107.5V80H17.5M17.5 0.5V80M17.5 0.5L1 5.5V74L17.5 80" stroke="url(#paint0_linear)"/>
<path d="M94.2817 55H134V90H94.2817M94.2817 55V90M94.2817 55L87 57.2013V87.3585L94.2817 90" stroke="url(#paint1_linear)"/>
<path d="M192.225 8.5H128V65.5H192.225M192.225 8.5V65.5M192.225 8.5L204 12.0849V61.1981L192.225 65.5" stroke="url(#paint2_linear)"/>
<path d="M36.1945 32.0668V28.454C36.1945 27.3456 36.5888 26.4131 37.3774 25.6564C38.1874 24.8998 39.1785 24.5214 40.3508 24.5214C41.5444 24.5214 42.5356 24.8998 43.3242 25.6564C44.1235 26.4025 44.5231 27.335 44.5231 28.454V32.0668C44.5231 33.1858 44.1235 34.1237 43.3242 34.8803C42.5462 35.6263 41.5551 35.9993 40.3508 35.9993C39.1572 35.9993 38.1661 35.6263 37.3774 34.8803C36.5888 34.1237 36.1945 33.1858 36.1945 32.0668ZM37.2176 28.438V32.0828C37.2176 32.9141 37.516 33.6121 38.1128 34.1769C38.7096 34.7311 39.4556 35.0082 40.3508 35.0082C41.246 35.0082 41.992 34.7311 42.5888 34.1769C43.1963 33.6121 43.5 32.9141 43.5 32.0828V28.438C43.5 27.6067 43.1963 26.914 42.5888 26.3598C41.9707 25.795 41.2247 25.5126 40.3508 25.5126C39.4769 25.5126 38.7309 25.795 38.1128 26.3598C37.516 26.9247 37.2176 27.6174 37.2176 28.438ZM49.3545 25.9921L46.9246 27.335L46.477 26.4238L49.6902 24.6653H50.3776V35.8555H49.3545V25.9921ZM53.4917 32.0668V28.454C53.4917 27.3456 53.8861 26.4131 54.6747 25.6564C55.4847 24.8998 56.4758 24.5214 57.6481 24.5214C58.8417 24.5214 59.8328 24.8998 60.6215 25.6564C61.4208 26.4025 61.8204 27.335 61.8204 28.454V32.0668C61.8204 33.1858 61.4208 34.1237 60.6215 34.8803C59.8435 35.6263 58.8524 35.9993 57.6481 35.9993C56.4545 35.9993 55.4633 35.6263 54.6747 34.8803C53.8861 34.1237 53.4917 33.1858 53.4917 32.0668ZM54.5148 28.438V32.0828C54.5148 32.9141 54.8132 33.6121 55.4101 34.1769C56.0069 34.7311 56.7529 35.0082 57.6481 35.0082C58.5433 35.0082 59.2893 34.7311 59.8861 34.1769C60.4936 33.6121 60.7973 32.9141 60.7973 32.0828V28.438C60.7973 27.6067 60.4936 26.914 59.8861 26.3598C59.268 25.795 58.522 25.5126 57.6481 25.5126C56.7742 25.5126 56.0282 25.795 55.4101 26.3598C54.8132 26.9247 54.5148 27.6174 54.5148 28.438ZM66.6518 25.9921L64.2219 27.335L63.7743 26.4238L66.9875 24.6653H67.6749V35.8555H66.6518V25.9921ZM70.789 32.0668V28.454C70.789 27.3456 71.1833 26.4131 71.972 25.6564C72.7819 24.8998 73.7731 24.5214 74.9454 24.5214C76.139 24.5214 77.1301 24.8998 77.9188 25.6564C78.718 26.4025 79.1177 27.335 79.1177 28.454V32.0668C79.1177 33.1858 78.718 34.1237 77.9188 34.8803C77.1408 35.6263 76.1496 35.9993 74.9454 35.9993C73.7518 35.9993 72.7606 35.6263 71.972 34.8803C71.1833 34.1237 70.789 33.1858 70.789 32.0668ZM71.8121 28.438V32.0828C71.8121 32.9141 72.1105 33.6121 72.7073 34.1769C73.3041 34.7311 74.0502 35.0082 74.9454 35.0082C75.8406 35.0082 76.5866 34.7311 77.1834 34.1769C77.7909 33.6121 78.0946 32.9141 78.0946 32.0828V28.438C78.0946 27.6067 77.7909 26.914 77.1834 26.3598C76.5653 25.795 75.8193 25.5126 74.9454 25.5126C74.0715 25.5126 73.3255 25.795 72.7073 26.3598C72.1105 26.9247 71.8121 27.6174 71.8121 28.438ZM83.9491 25.9921L81.5192 27.335L81.0716 26.4238L84.2848 24.6653H84.9722V35.8555H83.9491V25.9921ZM38.8481 41.9921L36.4183 43.335L35.9707 42.4238L39.1838 40.6653H39.8712V51.8555H38.8481V41.9921ZM42.9854 48.0668V44.454C42.9854 43.3456 43.3797 42.4131 44.1683 41.6564C44.9783 40.8998 45.9694 40.5214 47.1417 40.5214C48.3353 40.5214 49.3265 40.8998 50.1151 41.6564C50.9144 42.4025 51.314 43.335 51.314 44.454V48.0668C51.314 49.1858 50.9144 50.1237 50.1151 50.8803C49.3371 51.6263 48.346 51.9993 47.1417 51.9993C45.9481 51.9993 44.957 51.6263 44.1683 50.8803C43.3797 50.1237 42.9854 49.1858 42.9854 48.0668ZM44.0085 44.438V48.0828C44.0085 48.9141 44.3069 49.6121 44.9037 50.1769C45.5005 50.7311 46.2465 51.0082 47.1417 51.0082C48.0369 51.0082 48.7829 50.7311 49.3797 50.1769C49.9872 49.6121 50.2909 48.9141 50.2909 48.0828V44.438C50.2909 43.6067 49.9872 42.914 49.3797 42.3598C48.7616 41.795 48.0156 41.5126 47.1417 41.5126C46.2678 41.5126 45.5218 41.795 44.9037 42.3598C44.3069 42.9247 44.0085 43.6174 44.0085 44.438ZM56.1454 41.9921L53.7155 43.335L53.2679 42.4238L56.4811 40.6653H57.1685V51.8555H56.1454V41.9921ZM60.2826 48.0668V44.454C60.2826 43.3456 60.677 42.4131 61.4656 41.6564C62.2756 40.8998 63.2667 40.5214 64.439 40.5214C65.6326 40.5214 66.6237 40.8998 67.4124 41.6564C68.2117 42.4025 68.6113 43.335 68.6113 44.454V48.0668C68.6113 49.1858 68.2117 50.1237 67.4124 50.8803C66.6344 51.6263 65.6433 51.9993 64.439 51.9993C63.2454 51.9993 62.2542 51.6263 61.4656 50.8803C60.677 50.1237 60.2826 49.1858 60.2826 48.0668ZM61.3057 44.438V48.0828C61.3057 48.9141 61.6041 49.6121 62.201 50.1769C62.7978 50.7311 63.5438 51.0082 64.439 51.0082C65.3342 51.0082 66.0802 50.7311 66.677 50.1769C67.2845 49.6121 67.5882 48.9141 67.5882 48.0828V44.438C67.5882 43.6067 67.2845 42.914 66.677 42.3598C66.0589 41.795 65.3129 41.5126 64.439 41.5126C63.5651 41.5126 62.8191 41.795 62.201 42.3598C61.6041 42.9247 61.3057 43.6174 61.3057 44.438ZM73.4427 41.9921L71.0128 43.335L70.5652 42.4238L73.7784 40.6653H74.4658V51.8555H73.4427V41.9921ZM77.5799 48.0668V44.454C77.5799 43.3456 77.9742 42.4131 78.7629 41.6564C79.5728 40.8998 80.564 40.5214 81.7363 40.5214C82.9299 40.5214 83.921 40.8998 84.7097 41.6564C85.5089 42.4025 85.9086 43.335 85.9086 44.454V48.0668C85.9086 49.1858 85.5089 50.1237 84.7097 50.8803C83.9317 51.6263 82.9405 51.9993 81.7363 51.9993C80.5427 51.9993 79.5515 51.6263 78.7629 50.8803C77.9742 50.1237 77.5799 49.1858 77.5799 48.0668ZM78.603 44.438V48.0828C78.603 48.9141 78.9014 49.6121 79.4982 50.1769C80.095 50.7311 80.8411 51.0082 81.7363 51.0082C82.6315 51.0082 83.3775 50.7311 83.9743 50.1769C84.5818 49.6121 84.8855 48.9141 84.8855 48.0828V44.438C84.8855 43.6067 84.5818 42.914 83.9743 42.3598C83.3562 41.795 82.6102 41.5126 81.7363 41.5126C80.8624 41.5126 80.1164 41.795 79.4982 42.3598C78.9014 42.9247 78.603 43.6174 78.603 44.438Z" fill="url(#paint3_linear)"/>
<path d="M139.834 32.8317V29.9482C139.834 29.0637 140.149 28.3194 140.779 27.7155C141.425 27.1116 142.216 26.8096 143.152 26.8096C144.104 26.8096 144.895 27.1116 145.525 27.7155C146.163 28.3109 146.482 29.0551 146.482 29.9482V32.8317C146.482 33.7248 146.163 34.4733 145.525 35.0772C144.904 35.6726 144.113 35.9703 143.152 35.9703C142.199 35.9703 141.408 35.6726 140.779 35.0772C140.149 34.4733 139.834 33.7248 139.834 32.8317ZM140.651 29.9355V32.8444C140.651 33.5079 140.889 34.065 141.365 34.5158C141.842 34.9581 142.437 35.1793 143.152 35.1793C143.866 35.1793 144.461 34.9581 144.938 34.5158C145.423 34.065 145.665 33.5079 145.665 32.8444V29.9355C145.665 29.272 145.423 28.7192 144.938 28.2769C144.444 27.8261 143.849 27.6007 143.152 27.6007C142.454 27.6007 141.859 27.8261 141.365 28.2769C140.889 28.7277 140.651 29.2805 140.651 29.9355ZM150.338 27.9834L148.398 29.0551L148.041 28.3279L150.606 26.9245H151.154V35.8555H150.338V27.9834ZM153.64 32.8317V29.9482C153.64 29.0637 153.954 28.3194 154.584 27.7155C155.23 27.1116 156.021 26.8096 156.957 26.8096C157.909 26.8096 158.7 27.1116 159.33 27.7155C159.968 28.3109 160.287 29.0551 160.287 29.9482V32.8317C160.287 33.7248 159.968 34.4733 159.33 35.0772C158.709 35.6726 157.918 35.9703 156.957 35.9703C156.004 35.9703 155.213 35.6726 154.584 35.0772C153.954 34.4733 153.64 33.7248 153.64 32.8317ZM154.456 29.9355V32.8444C154.456 33.5079 154.694 34.065 155.171 34.5158C155.647 34.9581 156.242 35.1793 156.957 35.1793C157.671 35.1793 158.267 34.9581 158.743 34.5158C159.228 34.065 159.47 33.5079 159.47 32.8444V29.9355C159.47 29.272 159.228 28.7192 158.743 28.2769C158.25 27.8261 157.654 27.6007 156.957 27.6007C156.259 27.6007 155.664 27.8261 155.171 28.2769C154.694 28.7277 154.456 29.2805 154.456 29.9355ZM164.143 27.9834L162.203 29.0551L161.846 28.3279L164.411 26.9245H164.959V35.8555H164.143V27.9834ZM167.445 32.8317V29.9482C167.445 29.0637 167.759 28.3194 168.389 27.7155C169.035 27.1116 169.826 26.8096 170.762 26.8096C171.715 26.8096 172.506 27.1116 173.135 27.7155C173.773 28.3109 174.092 29.0551 174.092 29.9482V32.8317C174.092 33.7248 173.773 34.4733 173.135 35.0772C172.514 35.6726 171.723 35.9703 170.762 35.9703C169.809 35.9703 169.018 35.6726 168.389 35.0772C167.759 34.4733 167.445 33.7248 167.445 32.8317ZM168.261 29.9355V32.8444C168.261 33.5079 168.499 34.065 168.976 34.5158C169.452 34.9581 170.047 35.1793 170.762 35.1793C171.476 35.1793 172.072 34.9581 172.548 34.5158C173.033 34.065 173.275 33.5079 173.275 32.8444V29.9355C173.275 29.272 173.033 28.7192 172.548 28.2769C172.055 27.8261 171.459 27.6007 170.762 27.6007C170.064 27.6007 169.469 27.8261 168.976 28.2769C168.499 28.7277 168.261 29.2805 168.261 29.9355ZM177.948 27.9834L176.009 29.0551L175.651 28.3279L178.216 26.9245H178.764V35.8555H177.948V27.9834ZM141.952 40.9834L140.013 42.0551L139.656 41.3279L142.22 39.9245H142.769V48.8555H141.952V40.9834ZM145.254 45.8317V42.9482C145.254 42.0637 145.569 41.3194 146.198 40.7155C146.845 40.1116 147.636 39.8096 148.572 39.8096C149.524 39.8096 150.315 40.1116 150.945 40.7155C151.583 41.3109 151.902 42.0551 151.902 42.9482V45.8317C151.902 46.7248 151.583 47.4733 150.945 48.0772C150.324 48.6726 149.533 48.9703 148.572 48.9703C147.619 48.9703 146.828 48.6726 146.198 48.0772C145.569 47.4733 145.254 46.7248 145.254 45.8317ZM146.071 42.9355V45.8444C146.071 46.5079 146.309 47.065 146.785 47.5158C147.262 47.9581 147.857 48.1793 148.572 48.1793C149.286 48.1793 149.881 47.9581 150.358 47.5158C150.843 47.065 151.085 46.5079 151.085 45.8444V42.9355C151.085 42.272 150.843 41.7192 150.358 41.2769C149.864 40.8261 149.269 40.6007 148.572 40.6007C147.874 40.6007 147.279 40.8261 146.785 41.2769C146.309 41.7277 146.071 42.2805 146.071 42.9355ZM155.757 40.9834L153.818 42.0551L153.461 41.3279L156.025 39.9245H156.574V48.8555H155.757V40.9834ZM159.059 45.8317V42.9482C159.059 42.0637 159.374 41.3194 160.004 40.7155C160.65 40.1116 161.441 39.8096 162.377 39.8096C163.329 39.8096 164.12 40.1116 164.75 40.7155C165.388 41.3109 165.707 42.0551 165.707 42.9482V45.8317C165.707 46.7248 165.388 47.4733 164.75 48.0772C164.129 48.6726 163.338 48.9703 162.377 48.9703C161.424 48.9703 160.633 48.6726 160.004 48.0772C159.374 47.4733 159.059 46.7248 159.059 45.8317ZM159.876 42.9355V45.8444C159.876 46.5079 160.114 47.065 160.59 47.5158C161.067 47.9581 161.662 48.1793 162.377 48.1793C163.091 48.1793 163.687 47.9581 164.163 47.5158C164.648 47.065 164.89 46.5079 164.89 45.8444V42.9355C164.89 42.272 164.648 41.7192 164.163 41.2769C163.67 40.8261 163.074 40.6007 162.377 40.6007C161.679 40.6007 161.084 40.8261 160.59 41.2769C160.114 41.7277 159.876 42.2805 159.876 42.9355ZM169.563 40.9834L167.623 42.0551L167.266 41.3279L169.831 39.9245H170.379V48.8555H169.563V40.9834ZM172.865 45.8317V42.9482C172.865 42.0637 173.179 41.3194 173.809 40.7155C174.455 40.1116 175.246 39.8096 176.182 39.8096C177.135 39.8096 177.926 40.1116 178.555 40.7155C179.193 41.3109 179.512 42.0551 179.512 42.9482V45.8317C179.512 46.7248 179.193 47.4733 178.555 48.0772C177.934 48.6726 177.143 48.9703 176.182 48.9703C175.229 48.9703 174.438 48.6726 173.809 48.0772C173.179 47.4733 172.865 46.7248 172.865 45.8317ZM173.681 42.9355V45.8444C173.681 46.5079 173.919 47.065 174.396 47.5158C174.872 47.9581 175.467 48.1793 176.182 48.1793C176.896 48.1793 177.492 47.9581 177.968 47.5158C178.453 47.065 178.695 46.5079 178.695 45.8444V42.9355C178.695 42.272 178.453 41.7192 177.968 41.2769C177.475 40.8261 176.879 40.6007 176.182 40.6007C175.484 40.6007 174.889 40.8261 174.396 41.2769C173.919 41.7277 173.681 42.2805 173.681 42.9355Z" fill="url(#paint4_linear)"/>
<defs>
<linearGradient id="paint0_linear" x1="-16.324" y1="87.9396" x2="65.6698" y2="-54.0478" gradientUnits="userSpaceOnUse">
<stop stop-color="#AB85FF"/>
<stop offset="0.526042" stop-color="#EBA3E3"/>
<stop offset="1" stop-color="#FFDBE4"/>
</linearGradient>
<linearGradient id="paint1_linear" x1="79.3547" y1="93.4954" x2="115.409" y2="30.91" gradientUnits="userSpaceOnUse">
<stop stop-color="#AB85FF"/>
<stop offset="0.526042" stop-color="#EBA3E3"/>
<stop offset="1" stop-color="#FFDBE4"/>
</linearGradient>
<linearGradient id="paint2_linear" x1="216.363" y1="71.1926" x2="157.437" y2="-30.3695" gradientUnits="userSpaceOnUse">
<stop stop-color="#AB85FF"/>
<stop offset="0.526042" stop-color="#EBA3E3"/>
<stop offset="1" stop-color="#FFDBE4"/>
</linearGradient>
<linearGradient id="paint3_linear" x1="25.6328" y1="61.6077" x2="56.4871" y2="-6.07282" gradientUnits="userSpaceOnUse">
<stop stop-color="#AB85FF"/>
<stop offset="0.526042" stop-color="#EBA3E3"/>
<stop offset="1" stop-color="#FFDBE4"/>
</linearGradient>
<linearGradient id="paint4_linear" x1="131.405" y1="55.986" x2="156.03" y2="1.96932" gradientUnits="userSpaceOnUse">
<stop stop-color="#AB85FF"/>
<stop offset="0.526042" stop-color="#EBA3E3"/>
<stop offset="1" stop-color="#FFDBE4"/>
</linearGradient>
</defs>
</svg>
