<svg width="199" height="51" viewBox="0 0 199 51" fill="none" xmlns="http://www.w3.org/2000/svg">
<path d="M34.248 36.0104C34.176 31.4015 32.7402 27.2107 30.1873 24.1765C27.6492 21.1608 24.2095 19.5 20.5008 19.5C16.792 19.5 13.3523 21.1608 10.8143 24.1765C8.26383 27.2075 6.82891 31.3924 6.75391 35.9956C8.19609 36.718 14.1641 39.5 20.5008 39.5C27.353 39.5 32.9105 36.7344 34.248 36.0104Z" fill="url(#paint0_linear)"/>
<path d="M20.5 18.25C24.297 18.25 27.375 15.172 27.375 11.375C27.375 7.57804 24.297 4.5 20.5 4.5C16.703 4.5 13.625 7.57804 13.625 11.375C13.625 15.172 16.703 18.25 20.5 18.25Z" fill="url(#paint1_linear)"/>
<path d="M113.5 49.0298L123.5 28.9933L142.5 39.0116L154 13.465L174.5 22.4814L197.5 8.95679M197.5 8.95679L192.5 17.4723M197.5 8.95679H187.5" stroke="url(#paint2_linear)"/>
<path d="M54.5008 29C58.0517 29 61.3548 30.5875 63.8047 33.4984L63.8047 33.4984C66.2159 36.3643 67.6135 40.3211 67.7412 44.7131C66.0632 45.5852 60.841 48 54.5008 48C48.6363 48 43.0695 45.5635 41.2612 44.688C41.3936 40.3058 42.79 36.3588 45.1969 33.4984C47.6467 30.5875 50.9499 29 54.5008 29Z" stroke="url(#paint3_linear)"/>
<path d="M60.875 20.375C60.875 23.8958 58.0208 26.75 54.5 26.75C50.9792 26.75 48.125 23.8958 48.125 20.375C48.125 16.8542 50.9792 14 54.5 14C58.0208 14 60.875 16.8542 60.875 20.375Z" stroke="url(#paint4_linear)"/>
<path d="M88.5008 18C92.0517 18 95.3548 19.5875 97.8047 22.4984L97.8047 22.4984C100.216 25.3643 101.614 29.3211 101.741 33.7131C100.063 34.5852 94.841 37 88.5008 37C82.6363 37 77.0695 34.5635 75.2612 33.688C75.3936 29.3058 76.79 25.3588 79.1969 22.4984C81.6467 19.5875 84.9499 18 88.5008 18Z" stroke="url(#paint5_linear)"/>
<path d="M94.875 9.375C94.875 12.8958 92.0208 15.75 88.5 15.75C84.9792 15.75 82.125 12.8958 82.125 9.375C82.125 5.85418 84.9792 3 88.5 3C92.0208 3 94.875 5.85418 94.875 9.375Z" stroke="url(#paint6_linear)"/>
<defs>
<linearGradient id="paint0_linear" x1="2.28154" y1="41.4974" x2="22.639" y2="5.32146" gradientUnits="userSpaceOnUse">
<stop stop-color="#AB85FF"/>
<stop offset="0.526042" stop-color="#EBA3E3"/>
<stop offset="1" stop-color="#FFDBE4"/>
</linearGradient>
<linearGradient id="paint1_linear" x1="11.3883" y1="19.6232" x2="27.2367" y2="-0.863453" gradientUnits="userSpaceOnUse">
<stop stop-color="#AB85FF"/>
<stop offset="0.526042" stop-color="#EBA3E3"/>
<stop offset="1" stop-color="#FFDBE4"/>
</linearGradient>
<linearGradient id="paint2_linear" x1="99.836" y1="4.95471" x2="130.835" y2="88.952" gradientUnits="userSpaceOnUse">
<stop stop-color="#AB85FF"/>
<stop offset="0.526042" stop-color="#EBA3E3"/>
<stop offset="1" stop-color="#FFDBE4"/>
</linearGradient>
<linearGradient id="paint3_linear" x1="36.2815" y1="50.4974" x2="56.639" y2="14.3215" gradientUnits="userSpaceOnUse">
<stop stop-color="#AB85FF"/>
<stop offset="0.526042" stop-color="#EBA3E3"/>
<stop offset="1" stop-color="#FFDBE4"/>
</linearGradient>
<linearGradient id="paint4_linear" x1="45.3883" y1="28.6232" x2="61.2367" y2="8.13655" gradientUnits="userSpaceOnUse">
<stop stop-color="#AB85FF"/>
<stop offset="0.526042" stop-color="#EBA3E3"/>
<stop offset="1" stop-color="#FFDBE4"/>
</linearGradient>
<linearGradient id="paint5_linear" x1="70.2815" y1="39.4974" x2="90.639" y2="3.32146" gradientUnits="userSpaceOnUse">
<stop stop-color="#AB85FF"/>
<stop offset="0.526042" stop-color="#EBA3E3"/>
<stop offset="1" stop-color="#FFDBE4"/>
</linearGradient>
<linearGradient id="paint6_linear" x1="79.3883" y1="17.6232" x2="95.2367" y2="-2.86345" gradientUnits="userSpaceOnUse">
<stop stop-color="#AB85FF"/>
<stop offset="0.526042" stop-color="#EBA3E3"/>
<stop offset="1" stop-color="#FFDBE4"/>
</linearGradient>
</defs>
</svg>
