<svg width="242" height="87" viewBox="0 0 242 87" fill="none" xmlns="http://www.w3.org/2000/svg">
<path d="M226.117 6.04492H147.344V75.6277H226.117M226.117 6.04492V75.6277M226.117 6.04492L240.559 10.4212V70.3762L226.117 75.6277" stroke="url(#paint0_linear)"/>
<path d="M137.793 43.8536C137.988 43.6583 137.988 43.3417 137.793 43.1465L134.611 39.9645C134.416 39.7692 134.099 39.7692 133.904 39.9645C133.709 40.1597 133.709 40.4763 133.904 40.6716L136.732 43.5L133.904 46.3284C133.709 46.5237 133.709 46.8403 133.904 47.0355C134.099 47.2308 134.416 47.2308 134.611 47.0355L137.793 43.8536ZM98.4893 44L137.44 44L137.44 43L98.4893 43L98.4893 44Z" fill="url(#paint1_linear)"/>
<g clip-path="url(#clip0)">
<path d="M199.543 38.1733H197.102C196.897 37.5239 196.629 36.8967 196.303 36.2992L198.028 34.6235C198.398 34.2649 198.601 33.7873 198.601 33.2785C198.601 32.7704 198.398 32.2927 198.028 31.9342L196.183 30.1412C195.445 29.4247 194.154 29.4228 193.415 30.1412L191.69 31.8169C191.076 31.5008 190.429 31.2411 189.761 31.0415V28.6702C189.761 27.6223 188.883 26.7695 187.804 26.7695H185.196C184.117 26.7695 183.239 27.6223 183.239 28.6702V31.0421C182.571 31.2417 181.925 31.5014 181.31 31.8176L179.584 30.1419C178.821 29.4006 177.58 29.4006 176.817 30.1419L174.97 31.9348C174.208 32.676 174.208 33.8823 174.97 34.6235L176.695 36.2999C176.37 36.8967 176.102 37.5245 175.897 38.1739H173.457C172.378 38.1739 171.5 39.0266 171.5 40.0745V42.6087C171.5 43.6559 172.378 44.5087 173.457 44.5087H175.898C176.104 45.158 176.371 45.7852 176.697 46.3827L174.972 48.059C174.208 48.8003 174.208 50.0065 174.972 50.7478L176.817 52.5413C177.58 53.2819 178.822 53.2819 179.585 52.5413L181.311 50.8656C181.925 51.1817 182.571 51.4415 183.24 51.6411V54.0118C183.24 55.0596 184.118 55.9124 185.196 55.9124H187.805C188.884 55.9124 189.762 55.0596 189.762 54.0118V51.6398C190.43 51.4402 191.076 51.1805 191.691 50.8643L193.416 52.5407C194.155 53.2585 195.447 53.2572 196.183 52.5407L198.029 50.7478C198.398 50.3892 198.602 49.9115 198.602 49.4034C198.602 48.8947 198.398 48.4176 198.029 48.059L196.304 46.3827C196.63 45.7859 196.897 45.158 197.102 44.5087H199.543C200.622 44.5087 201.5 43.6559 201.5 42.608V40.0739C201.5 39.026 200.622 38.1733 199.543 38.1733ZM200.196 42.608C200.196 42.9571 199.903 43.2416 199.543 43.2416H196.609C196.311 43.2416 196.052 43.4373 195.977 43.7167C195.747 44.5815 195.395 45.407 194.931 46.1698C194.781 46.4188 194.822 46.7356 195.032 46.9396L197.106 48.9548C197.228 49.074 197.296 49.233 197.296 49.4034C197.296 49.5738 197.228 49.7328 197.106 49.8519L195.26 51.6449C195.015 51.8831 194.582 51.8831 194.337 51.6449L192.263 49.6302C192.053 49.4256 191.727 49.3863 191.47 49.5326C190.686 49.9824 189.836 50.3246 188.945 50.5482C188.658 50.6198 188.457 50.8719 188.457 51.1608V54.0118C188.457 54.3608 188.164 54.6453 187.804 54.6453H185.196C184.836 54.6453 184.543 54.3608 184.543 54.0118V51.1608C184.543 50.8719 184.342 50.6198 184.054 50.5476C183.164 50.3239 182.314 49.9825 181.529 49.532C181.426 49.4725 181.312 49.4439 181.198 49.4439C181.029 49.4439 180.862 49.5073 180.736 49.6296L178.662 51.6442C178.407 51.8913 177.994 51.8913 177.739 51.6442L175.893 49.8513C175.638 49.6036 175.638 49.2013 175.893 48.9542L177.967 46.9396C178.178 46.7349 178.219 46.4182 178.067 46.1698C177.604 45.407 177.252 44.5822 177.022 43.7167C176.948 43.4373 176.689 43.2416 176.391 43.2416H173.457C173.097 43.2416 172.804 42.9571 172.804 42.608V40.0739C172.804 39.7248 173.097 39.4403 173.457 39.4403H176.391C176.689 39.4403 176.948 39.2446 177.023 38.9652C177.253 38.1004 177.604 37.2749 178.068 36.5121C178.219 36.2631 178.178 35.9464 177.968 35.7424L175.894 33.7277C175.639 33.4806 175.639 33.0783 175.894 32.8306L177.739 31.0377C177.994 30.79 178.408 30.7906 178.663 31.0377L180.737 33.0524C180.947 33.257 181.273 33.2975 181.529 33.1499C182.314 32.7001 183.163 32.358 184.054 32.1344C184.342 32.0621 184.543 31.81 184.543 31.5211V28.6702C184.543 28.3211 184.836 28.0366 185.196 28.0366H187.804C188.164 28.0366 188.457 28.3211 188.457 28.6702V31.5211C188.457 31.81 188.658 32.0621 188.946 32.1344C189.837 32.358 190.686 32.7001 191.47 33.1499C191.727 33.2969 192.053 33.2576 192.263 33.0524L194.337 31.0377C194.583 30.7982 195.015 30.7988 195.261 31.0377L197.106 32.8306C197.229 32.9497 197.297 33.1094 197.297 33.2792C197.297 33.4489 197.229 33.6086 197.106 33.7277L195.032 35.7424C194.822 35.947 194.781 36.2638 194.932 36.5121C195.396 37.2749 195.747 38.0998 195.978 38.9652C196.052 39.2446 196.311 39.4403 196.609 39.4403H199.543C199.903 39.4403 200.196 39.7248 200.196 40.0739V42.608Z" fill="url(#paint2_linear)"/>
<path d="M186.5 35.6392C183.264 35.6392 180.631 38.1974 180.631 41.341C180.631 44.4846 183.264 47.0429 186.5 47.0429C189.737 47.0429 192.37 44.4846 192.37 41.341C192.37 38.1974 189.737 35.6392 186.5 35.6392ZM186.5 45.7758C183.983 45.7758 181.935 43.7865 181.935 41.341C181.935 38.8956 183.983 36.9062 186.5 36.9062C189.017 36.9062 191.066 38.8956 191.066 41.341C191.066 43.7865 189.017 45.7758 186.5 45.7758Z" fill="url(#paint3_linear)"/>
</g>
<rect x="57.6388" y="17.2589" width="40.6052" height="55.6052" fill="white"/>
<rect x="61.9816" y="24.7599" width="31.188" height="3.15828" stroke="url(#paint4_linear)" stroke-width="0.394785"/>
<rect x="61.9816" y="32.2609" width="31.188" height="3.15828" stroke="url(#paint5_linear)" stroke-width="0.394785"/>
<rect x="61.9816" y="39.7618" width="31.188" height="3.15828" stroke="url(#paint6_linear)" stroke-width="0.394785"/>
<rect x="61.9816" y="47.2623" width="31.188" height="3.15828" stroke="url(#paint7_linear)" stroke-width="0.394785"/>
<rect x="61.9816" y="54.7638" width="31.188" height="3.15828" stroke="url(#paint8_linear)" stroke-width="0.394785"/>
<rect x="61.9816" y="62.2648" width="31.188" height="3.15828" stroke="url(#paint9_linear)" stroke-width="0.394785"/>
<rect x="57.6388" y="17.2589" width="40.6052" height="55.6052" stroke="url(#paint10_linear)" stroke-width="0.394785"/>
<rect x="0.746077" y="0.304671" width="62.3907" height="86.3907" fill="white"/>
<rect x="7.4492" y="11.8823" width="48.138" height="4.87473" stroke="url(#paint11_linear)" stroke-width="0.609342"/>
<rect x="7.4492" y="23.4595" width="48.138" height="4.87473" stroke="url(#paint12_linear)" stroke-width="0.609342"/>
<rect x="7.4492" y="35.0371" width="48.138" height="4.87473" stroke="url(#paint13_linear)" stroke-width="0.609342"/>
<rect x="7.4492" y="46.6147" width="48.138" height="4.87473" stroke="url(#paint14_linear)" stroke-width="0.609342"/>
<rect x="7.4492" y="58.1914" width="48.138" height="4.87473" stroke="url(#paint15_linear)" stroke-width="0.609342"/>
<rect x="7.4492" y="69.7685" width="48.138" height="4.87473" stroke="url(#paint16_linear)" stroke-width="0.609342"/>
<rect x="0.746077" y="0.304671" width="62.3907" height="86.3907" stroke="url(#paint17_linear)" stroke-width="0.609342"/>
<defs>
<linearGradient id="paint0_linear" x1="255.722" y1="82.5769" x2="183.956" y2="-41.6983" gradientUnits="userSpaceOnUse">
<stop stop-color="#AB85FF"/>
<stop offset="0.526042" stop-color="#EBA3E3"/>
<stop offset="1" stop-color="#FFDBE4"/>
</linearGradient>
<linearGradient id="paint1_linear" x1="92.1533" y1="44.5999" x2="92.2006" y2="42.2192" gradientUnits="userSpaceOnUse">
<stop stop-color="#AB85FF"/>
<stop offset="0.526042" stop-color="#EBA3E3"/>
<stop offset="1" stop-color="#FFDBE4"/>
</linearGradient>
<linearGradient id="paint2_linear" x1="166.62" y1="58.8229" x2="199.954" y2="14.4664" gradientUnits="userSpaceOnUse">
<stop stop-color="#AB85FF"/>
<stop offset="0.526042" stop-color="#EBA3E3"/>
<stop offset="1" stop-color="#FFDBE4"/>
</linearGradient>
<linearGradient id="paint3_linear" x1="178.721" y1="48.1818" x2="191.765" y2="30.8249" gradientUnits="userSpaceOnUse">
<stop stop-color="#AB85FF"/>
<stop offset="0.526042" stop-color="#EBA3E3"/>
<stop offset="1" stop-color="#FFDBE4"/>
</linearGradient>
<linearGradient id="paint4_linear" x1="56.6467" y1="28.4704" x2="57.3776" y2="20.0721" gradientUnits="userSpaceOnUse">
<stop stop-color="#AB85FF"/>
<stop offset="0.526042" stop-color="#EBA3E3"/>
<stop offset="1" stop-color="#FFDBE4"/>
</linearGradient>
<linearGradient id="paint5_linear" x1="56.6467" y1="35.9714" x2="57.3776" y2="27.573" gradientUnits="userSpaceOnUse">
<stop stop-color="#AB85FF"/>
<stop offset="0.526042" stop-color="#EBA3E3"/>
<stop offset="1" stop-color="#FFDBE4"/>
</linearGradient>
<linearGradient id="paint6_linear" x1="56.6467" y1="43.4724" x2="57.3776" y2="35.074" gradientUnits="userSpaceOnUse">
<stop stop-color="#AB85FF"/>
<stop offset="0.526042" stop-color="#EBA3E3"/>
<stop offset="1" stop-color="#FFDBE4"/>
</linearGradient>
<linearGradient id="paint7_linear" x1="56.6467" y1="50.9728" x2="57.3776" y2="42.5745" gradientUnits="userSpaceOnUse">
<stop stop-color="#AB85FF"/>
<stop offset="0.526042" stop-color="#EBA3E3"/>
<stop offset="1" stop-color="#FFDBE4"/>
</linearGradient>
<linearGradient id="paint8_linear" x1="56.6467" y1="58.4743" x2="57.3776" y2="50.076" gradientUnits="userSpaceOnUse">
<stop stop-color="#AB85FF"/>
<stop offset="0.526042" stop-color="#EBA3E3"/>
<stop offset="1" stop-color="#FFDBE4"/>
</linearGradient>
<linearGradient id="paint9_linear" x1="56.6467" y1="65.9753" x2="57.3776" y2="57.577" gradientUnits="userSpaceOnUse">
<stop stop-color="#AB85FF"/>
<stop offset="0.526042" stop-color="#EBA3E3"/>
<stop offset="1" stop-color="#FFDBE4"/>
</linearGradient>
<linearGradient id="paint10_linear" x1="50.7721" y1="78.6542" x2="117.356" y2="15.6385" gradientUnits="userSpaceOnUse">
<stop stop-color="#AB85FF"/>
<stop offset="0.526042" stop-color="#EBA3E3"/>
<stop offset="1" stop-color="#FFDBE4"/>
</linearGradient>
<linearGradient id="paint11_linear" x1="-0.78504" y1="17.6094" x2="0.343093" y2="4.64675" gradientUnits="userSpaceOnUse">
<stop stop-color="#AB85FF"/>
<stop offset="0.526042" stop-color="#EBA3E3"/>
<stop offset="1" stop-color="#FFDBE4"/>
</linearGradient>
<linearGradient id="paint12_linear" x1="-0.78504" y1="29.1866" x2="0.343093" y2="16.2239" gradientUnits="userSpaceOnUse">
<stop stop-color="#AB85FF"/>
<stop offset="0.526042" stop-color="#EBA3E3"/>
<stop offset="1" stop-color="#FFDBE4"/>
</linearGradient>
<linearGradient id="paint13_linear" x1="-0.78504" y1="40.7642" x2="0.343093" y2="27.8015" gradientUnits="userSpaceOnUse">
<stop stop-color="#AB85FF"/>
<stop offset="0.526042" stop-color="#EBA3E3"/>
<stop offset="1" stop-color="#FFDBE4"/>
</linearGradient>
<linearGradient id="paint14_linear" x1="-0.78504" y1="52.3418" x2="0.343093" y2="39.3792" gradientUnits="userSpaceOnUse">
<stop stop-color="#AB85FF"/>
<stop offset="0.526042" stop-color="#EBA3E3"/>
<stop offset="1" stop-color="#FFDBE4"/>
</linearGradient>
<linearGradient id="paint15_linear" x1="-0.78504" y1="63.9185" x2="0.343093" y2="50.9558" gradientUnits="userSpaceOnUse">
<stop stop-color="#AB85FF"/>
<stop offset="0.526042" stop-color="#EBA3E3"/>
<stop offset="1" stop-color="#FFDBE4"/>
</linearGradient>
<linearGradient id="paint16_linear" x1="-0.78504" y1="75.4956" x2="0.343093" y2="62.533" gradientUnits="userSpaceOnUse">
<stop stop-color="#AB85FF"/>
<stop offset="0.526042" stop-color="#EBA3E3"/>
<stop offset="1" stop-color="#FFDBE4"/>
</linearGradient>
<linearGradient id="paint17_linear" x1="-9.8066" y1="95.6886" x2="93.567" y2="-1.07606" gradientUnits="userSpaceOnUse">
<stop stop-color="#AB85FF"/>
<stop offset="0.526042" stop-color="#EBA3E3"/>
<stop offset="1" stop-color="#FFDBE4"/>
</linearGradient>
<clipPath id="clip0">
<rect width="30" height="29.1429" fill="white" transform="translate(171.5 26.7695)"/>
</clipPath>
</defs>
</svg>
