<svg width="216" height="98" viewBox="0 0 216 98" fill="none" xmlns="http://www.w3.org/2000/svg">
<path d="M31.4453 50.4319H91.7241" stroke="url(#paint0_linear)" stroke-width="2"/>
<rect x="1.21484" y="40.38" width="127" height="36.7496" stroke="url(#paint1_linear)" stroke-width="2"/>
<path d="M188.676 26.7273C164.904 -1.68274 129.394 -12.7942 89.8722 26.7273M89.8722 26.7273C91.6158 17.4281 92.2953 13.0269 92.4171 11.9887L89.8722 26.7273ZM89.8722 26.7273C91.6171 26.014 100.057 24.3323 106.06 23.766" stroke="url(#paint2_linear)"/>
<rect x="-0.186871" y="0.186871" width="38.2675" height="52.988" transform="matrix(-1 0 0 1 215.415 44.6382)" fill="white"/>
<rect x="-0.186871" y="0.186871" width="29.5256" height="2.98993" transform="matrix(-1 0 0 1 211.302 51.7393)" stroke="url(#paint3_linear)" stroke-width="0.373742"/>
<rect x="-0.186871" y="0.186871" width="29.5256" height="2.98993" transform="matrix(-1 0 0 1 211.302 58.8404)" stroke="url(#paint4_linear)" stroke-width="0.373742"/>
<rect x="-0.186871" y="0.186871" width="29.5256" height="2.98993" transform="matrix(-1 0 0 1 211.302 65.9415)" stroke="url(#paint5_linear)" stroke-width="0.373742"/>
<rect x="-0.186871" y="0.186871" width="29.5256" height="2.98993" transform="matrix(-1 0 0 1 211.302 73.0426)" stroke="url(#paint6_linear)" stroke-width="0.373742"/>
<rect x="-0.186871" y="0.186871" width="29.5256" height="2.98993" transform="matrix(-1 0 0 1 211.302 80.1435)" stroke="url(#paint7_linear)" stroke-width="0.373742"/>
<rect x="-0.186871" y="0.186871" width="29.5256" height="2.98993" transform="matrix(-1 0 0 1 211.302 87.2444)" stroke="url(#paint8_linear)" stroke-width="0.373742"/>
<rect x="-0.186871" y="0.186871" width="38.2675" height="52.988" transform="matrix(-1 0 0 1 215.415 44.6382)" stroke="url(#paint9_linear)" stroke-width="0.373742"/>
<rect x="-0.186871" y="0.186871" width="38.2675" height="52.988" transform="matrix(-1 0 0 1 192.415 39.2607)" fill="white"/>
<rect x="-0.186871" y="0.186871" width="29.5256" height="2.98993" transform="matrix(-1 0 0 1 188.302 46.3618)" stroke="url(#paint10_linear)" stroke-width="0.373742"/>
<rect x="-0.186871" y="0.186871" width="29.5256" height="2.98993" transform="matrix(-1 0 0 1 188.302 53.4628)" stroke="url(#paint11_linear)" stroke-width="0.373742"/>
<rect x="-0.186871" y="0.186871" width="29.5256" height="2.98993" transform="matrix(-1 0 0 1 188.302 60.564)" stroke="url(#paint12_linear)" stroke-width="0.373742"/>
<rect x="-0.186871" y="0.186871" width="29.5256" height="2.98993" transform="matrix(-1 0 0 1 188.302 67.665)" stroke="url(#paint13_linear)" stroke-width="0.373742"/>
<rect x="-0.186871" y="0.186871" width="29.5256" height="2.98993" transform="matrix(-1 0 0 1 188.302 74.7659)" stroke="url(#paint14_linear)" stroke-width="0.373742"/>
<rect x="-0.186871" y="0.186871" width="29.5256" height="2.98993" transform="matrix(-1 0 0 1 188.302 81.8668)" stroke="url(#paint15_linear)" stroke-width="0.373742"/>
<rect x="-0.186871" y="0.186871" width="38.2675" height="52.988" transform="matrix(-1 0 0 1 192.415 39.2607)" stroke="url(#paint16_linear)" stroke-width="0.373742"/>
<defs>
<linearGradient id="paint0_linear" x1="21.64" y1="51.5318" x2="21.6705" y2="49.1506" gradientUnits="userSpaceOnUse">
<stop stop-color="#AB85FF"/>
<stop offset="0.526042" stop-color="#EBA3E3"/>
<stop offset="1" stop-color="#FFDBE4"/>
</linearGradient>
<linearGradient id="paint1_linear" x1="-20.7692" y1="81.9995" x2="-0.422872" y2="-5.55822" gradientUnits="userSpaceOnUse">
<stop stop-color="#AB85FF"/>
<stop offset="0.526042" stop-color="#EBA3E3"/>
<stop offset="1" stop-color="#FFDBE4"/>
</linearGradient>
<linearGradient id="paint2_linear" x1="204.748" y1="29.2882" x2="192.962" y2="-29.4155" gradientUnits="userSpaceOnUse">
<stop stop-color="#AB85FF"/>
<stop offset="0.526042" stop-color="#EBA3E3"/>
<stop offset="1" stop-color="#FFDBE4"/>
</linearGradient>
<linearGradient id="paint3_linear" x1="-4.86363" y1="3.69961" x2="-4.17169" y2="-4.25108" gradientUnits="userSpaceOnUse">
<stop stop-color="#AB85FF"/>
<stop offset="0.526042" stop-color="#EBA3E3"/>
<stop offset="1" stop-color="#FFDBE4"/>
</linearGradient>
<linearGradient id="paint4_linear" x1="-4.86363" y1="3.69961" x2="-4.17169" y2="-4.25108" gradientUnits="userSpaceOnUse">
<stop stop-color="#AB85FF"/>
<stop offset="0.526042" stop-color="#EBA3E3"/>
<stop offset="1" stop-color="#FFDBE4"/>
</linearGradient>
<linearGradient id="paint5_linear" x1="-4.86363" y1="3.69961" x2="-4.17169" y2="-4.25108" gradientUnits="userSpaceOnUse">
<stop stop-color="#AB85FF"/>
<stop offset="0.526042" stop-color="#EBA3E3"/>
<stop offset="1" stop-color="#FFDBE4"/>
</linearGradient>
<linearGradient id="paint6_linear" x1="-4.86363" y1="3.69961" x2="-4.17169" y2="-4.25108" gradientUnits="userSpaceOnUse">
<stop stop-color="#AB85FF"/>
<stop offset="0.526042" stop-color="#EBA3E3"/>
<stop offset="1" stop-color="#FFDBE4"/>
</linearGradient>
<linearGradient id="paint7_linear" x1="-4.86363" y1="3.69961" x2="-4.17169" y2="-4.25108" gradientUnits="userSpaceOnUse">
<stop stop-color="#AB85FF"/>
<stop offset="0.526042" stop-color="#EBA3E3"/>
<stop offset="1" stop-color="#FFDBE4"/>
</linearGradient>
<linearGradient id="paint8_linear" x1="-4.86363" y1="3.69961" x2="-4.17169" y2="-4.25108" gradientUnits="userSpaceOnUse">
<stop stop-color="#AB85FF"/>
<stop offset="0.526042" stop-color="#EBA3E3"/>
<stop offset="1" stop-color="#FFDBE4"/>
</linearGradient>
<linearGradient id="paint9_linear" x1="-6.28565" y1="58.691" x2="57.1189" y2="-0.660004" gradientUnits="userSpaceOnUse">
<stop stop-color="#AB85FF"/>
<stop offset="0.526042" stop-color="#EBA3E3"/>
<stop offset="1" stop-color="#FFDBE4"/>
</linearGradient>
<linearGradient id="paint10_linear" x1="-4.86363" y1="3.69961" x2="-4.17169" y2="-4.25108" gradientUnits="userSpaceOnUse">
<stop stop-color="#AB85FF"/>
<stop offset="0.526042" stop-color="#EBA3E3"/>
<stop offset="1" stop-color="#FFDBE4"/>
</linearGradient>
<linearGradient id="paint11_linear" x1="-4.86363" y1="3.69961" x2="-4.17169" y2="-4.25108" gradientUnits="userSpaceOnUse">
<stop stop-color="#AB85FF"/>
<stop offset="0.526042" stop-color="#EBA3E3"/>
<stop offset="1" stop-color="#FFDBE4"/>
</linearGradient>
<linearGradient id="paint12_linear" x1="-4.86363" y1="3.69961" x2="-4.17169" y2="-4.25108" gradientUnits="userSpaceOnUse">
<stop stop-color="#AB85FF"/>
<stop offset="0.526042" stop-color="#EBA3E3"/>
<stop offset="1" stop-color="#FFDBE4"/>
</linearGradient>
<linearGradient id="paint13_linear" x1="-4.86363" y1="3.69961" x2="-4.17169" y2="-4.25108" gradientUnits="userSpaceOnUse">
<stop stop-color="#AB85FF"/>
<stop offset="0.526042" stop-color="#EBA3E3"/>
<stop offset="1" stop-color="#FFDBE4"/>
</linearGradient>
<linearGradient id="paint14_linear" x1="-4.86363" y1="3.69961" x2="-4.17169" y2="-4.25108" gradientUnits="userSpaceOnUse">
<stop stop-color="#AB85FF"/>
<stop offset="0.526042" stop-color="#EBA3E3"/>
<stop offset="1" stop-color="#FFDBE4"/>
</linearGradient>
<linearGradient id="paint15_linear" x1="-4.86363" y1="3.69961" x2="-4.17169" y2="-4.25108" gradientUnits="userSpaceOnUse">
<stop stop-color="#AB85FF"/>
<stop offset="0.526042" stop-color="#EBA3E3"/>
<stop offset="1" stop-color="#FFDBE4"/>
</linearGradient>
<linearGradient id="paint16_linear" x1="-6.28565" y1="58.691" x2="57.1189" y2="-0.660004" gradientUnits="userSpaceOnUse">
<stop stop-color="#AB85FF"/>
<stop offset="0.526042" stop-color="#EBA3E3"/>
<stop offset="1" stop-color="#FFDBE4"/>
</linearGradient>
</defs>
</svg>
