<svg width="204" height="92" viewBox="0 0 204 92" fill="none" xmlns="http://www.w3.org/2000/svg">
<path d="M17 1.32373H107V80.8237H17M17 1.32373V80.8237M17 1.32373L0.5 6.32373V74.8237L17 80.8237" stroke="url(#paint0_linear)"/>
<path d="M93.7817 55.8237H133.5V90.8237H93.7817M93.7817 55.8237V90.8237M93.7817 55.8237L86.5 58.025V88.1822L93.7817 90.8237" stroke="url(#paint1_linear)"/>
<path d="M191.725 9.32373H127.5V66.3237H191.725M191.725 9.32373V66.3237M191.725 9.32373L203.5 12.9086V62.0218L191.725 66.3237" stroke="url(#paint2_linear)"/>
<path d="M86.5 19.8227C102.197 12.8227 138.682 8.24084 159.045 45.9136M159.045 45.9136C159.045 33.6953 159.045 32.3377 159.045 33.1862V45.9136ZM159.045 45.9136C155.652 43.5802 148.482 38.7862 146.955 38.2771" stroke="url(#paint3_linear)"/>
<path d="M151.637 60.9916C143.788 57.4916 125.546 55.2007 115.364 74.0371M115.364 74.0371C115.364 67.928 115.364 67.2492 115.364 67.6734V74.0371ZM115.364 74.0371C117.061 72.8704 120.646 70.4734 121.409 70.2189" stroke="url(#paint4_linear)"/>
<defs>
<linearGradient id="paint0_linear" x1="-16.824" y1="88.7634" x2="65.1698" y2="-53.224" gradientUnits="userSpaceOnUse">
<stop stop-color="#AB85FF"/>
<stop offset="0.526042" stop-color="#EBA3E3"/>
<stop offset="1" stop-color="#FFDBE4"/>
</linearGradient>
<linearGradient id="paint1_linear" x1="78.8547" y1="94.3192" x2="114.909" y2="31.7337" gradientUnits="userSpaceOnUse">
<stop stop-color="#AB85FF"/>
<stop offset="0.526042" stop-color="#EBA3E3"/>
<stop offset="1" stop-color="#FFDBE4"/>
</linearGradient>
<linearGradient id="paint2_linear" x1="215.863" y1="72.0163" x2="156.937" y2="-29.5458" gradientUnits="userSpaceOnUse">
<stop stop-color="#AB85FF"/>
<stop offset="0.526042" stop-color="#EBA3E3"/>
<stop offset="1" stop-color="#FFDBE4"/>
</linearGradient>
<linearGradient id="paint3_linear" x1="74.6993" y1="48.9948" x2="96.5124" y2="-17.3068" gradientUnits="userSpaceOnUse">
<stop stop-color="#AB85FF"/>
<stop offset="0.526042" stop-color="#EBA3E3"/>
<stop offset="1" stop-color="#FFDBE4"/>
</linearGradient>
<linearGradient id="paint4_linear" x1="157.537" y1="75.5777" x2="146.631" y2="42.4269" gradientUnits="userSpaceOnUse">
<stop stop-color="#AB85FF"/>
<stop offset="0.526042" stop-color="#EBA3E3"/>
<stop offset="1" stop-color="#FFDBE4"/>
</linearGradient>
</defs>
</svg>
