<svg width="243" height="62" viewBox="0 0 243 62" fill="none" xmlns="http://www.w3.org/2000/svg">
<path d="M26.2808 42.4707V42.4745C26.2748 48.9045 22.4039 53.6113 16.1347 54.745L15.7056 54.8226V55.3702V61.3207H10.1956V55.2255V54.7027L9.78913 54.6049C6.31883 53.7706 3.04853 51.7062 0.71875 48.8086L4.72583 44.0201C6.78773 46.4686 10.093 48.0522 13.1404 48.0522C14.826 48.0522 16.687 47.7208 18.1468 46.8874C19.6099 46.0521 20.7724 44.6382 20.773 42.4581C20.773 42.4576 20.773 42.457 20.773 42.4564L20.7731 42.4291C20.7731 42.429 20.7731 42.429 20.7731 42.4289C20.78 41.2677 20.6324 40.2644 20.2891 39.3833C19.9448 38.4994 19.4205 37.7822 18.7277 37.1621C17.3699 35.9467 15.2963 35.0512 12.4828 33.9769C9.82383 32.9583 7.16583 31.9372 4.99733 30.0549L4.99663 30.0542C2.18413 27.6222 0.76374 24.2012 0.76374 19.8462C0.76374 13.707 4.18073 9.12679 9.80323 7.56427L10.1957 7.45511V6.94737V0.679199H15.7056V6.49521V7.066L16.1551 7.12361C19.0459 7.49453 21.9584 8.63913 24.1641 10.3006L21.174 16.1511C19.2968 14.8094 16.5762 13.9478 14.1934 13.9478C12.442 13.9478 10.5085 14.2994 8.99283 15.1825C7.47103 16.0691 6.27663 17.5607 6.27663 19.8462C6.27663 20.7809 6.38873 21.611 6.67993 22.358C6.97243 23.1084 7.42673 23.7265 8.04963 24.2746C9.26633 25.3453 11.2081 26.2141 14.0784 27.3135L14.0791 27.3138C16.8645 28.3749 19.6486 29.4483 21.9318 31.4851C24.8488 34.0959 26.3081 37.7709 26.2808 42.4707Z" stroke="url(#paint0_linear)"/>
<path d="M80.2809 42.4707V42.4745C80.2749 48.9045 76.404 53.6113 70.1348 54.745L69.7057 54.8226V55.3702V61.3207H64.1957V55.2255V54.7027L63.7892 54.6049C60.3189 53.7706 57.0486 51.7062 54.7188 48.8086L58.7259 44.0201C60.7878 46.4686 64.0931 48.0522 67.1405 48.0522C68.8261 48.0522 70.6871 47.7208 72.1469 46.8874C73.61 46.0521 74.7725 44.6382 74.7731 42.4581C74.7731 42.4576 74.7731 42.457 74.7731 42.4564L74.7732 42.4291C74.7732 42.429 74.7732 42.429 74.7732 42.4289C74.7801 41.2677 74.6325 40.2644 74.2892 39.3833C73.9449 38.4994 73.4206 37.7822 72.7278 37.1621C71.37 35.9467 69.2964 35.0512 66.4829 33.9769C63.8239 32.9583 61.1659 31.9372 58.9974 30.0549L58.9967 30.0542C56.1842 27.6222 54.7638 24.2012 54.7638 19.8462C54.7638 13.707 58.1808 9.12679 63.8033 7.56427L64.1958 7.45511V6.94737V0.679199H69.7057V6.49521V7.066L70.1552 7.12361C73.046 7.49453 75.9585 8.63913 78.1642 10.3006L75.1741 16.1511C73.2969 14.8094 70.5763 13.9478 68.1935 13.9478C66.4421 13.9478 64.5086 14.2994 62.9929 15.1825C61.4711 16.0691 60.2767 17.5607 60.2767 19.8462C60.2767 20.7809 60.3888 21.611 60.68 22.358C60.9725 23.1084 61.4268 23.7265 62.0497 24.2746C63.2664 25.3453 65.2082 26.2141 68.0785 27.3135L68.0792 27.3138C70.8646 28.3749 73.6487 29.4483 75.9319 31.4851C78.8489 34.0959 80.3082 37.7709 80.2809 42.4707Z" stroke="url(#paint1_linear)"/>
<path d="M134.281 42.4707V42.4745C134.275 48.9045 130.404 53.6113 124.135 54.745L123.706 54.8226V55.3702V61.3207H118.196V55.2255V54.7027L117.789 54.6049C114.319 53.7706 111.049 51.7062 108.719 48.8086L112.726 44.0201C114.788 46.4686 118.093 48.0522 121.141 48.0522C122.826 48.0522 124.687 47.7208 126.147 46.8874C127.61 46.0521 128.773 44.6382 128.773 42.4581C128.773 42.4576 128.773 42.457 128.773 42.4564V42.4291C128.773 42.429 128.773 42.429 128.773 42.4289C128.78 41.2677 128.633 40.2644 128.289 39.3833C127.945 38.4994 127.421 37.7822 126.728 37.1621C125.37 35.9467 123.297 35.0512 120.483 33.9769C117.824 32.9583 115.166 31.9372 112.998 30.0549L112.997 30.0542C110.184 27.6222 108.764 24.2012 108.764 19.8462C108.764 13.707 112.181 9.12679 117.803 7.56427L118.196 7.45511V6.94737V0.679199H123.706V6.49521V7.066L124.155 7.12361C127.046 7.49453 129.959 8.63913 132.164 10.3006L129.174 16.1511C127.297 14.8094 124.576 13.9478 122.194 13.9478C120.442 13.9478 118.509 14.2994 116.993 15.1825C115.471 16.0691 114.277 17.5607 114.277 19.8462C114.277 20.7809 114.389 21.611 114.68 22.358C114.973 23.1084 115.427 23.7265 116.05 24.2746C117.267 25.3453 119.208 26.2141 122.079 27.3135V27.3138C124.865 28.3749 127.649 29.4483 129.932 31.4851C132.849 34.0959 134.308 37.7709 134.281 42.4707Z" stroke="url(#paint2_linear)"/>
<path d="M188.281 42.4707V42.4745C188.275 48.9045 184.404 53.6113 178.135 54.745L177.706 54.8226V55.3702V61.3207H172.196V55.2255V54.7027L171.789 54.6049C168.319 53.7706 165.049 51.7062 162.719 48.8086L166.726 44.0201C168.788 46.4686 172.093 48.0522 175.141 48.0522C176.826 48.0522 178.687 47.7208 180.147 46.8874C181.61 46.0521 182.773 44.6382 182.773 42.4581C182.773 42.4576 182.773 42.457 182.773 42.4564V42.4291C182.773 42.429 182.773 42.429 182.773 42.4289C182.78 41.2677 182.633 40.2644 182.289 39.3833C181.945 38.4994 181.421 37.7822 180.728 37.1621C179.37 35.9467 177.297 35.0512 174.483 33.9769C171.824 32.9583 169.166 31.9372 166.998 30.0549L166.997 30.0542C164.184 27.6222 162.764 24.2012 162.764 19.8462C162.764 13.707 166.181 9.12679 171.803 7.56427L172.196 7.45511V6.94737V0.679199H177.706V6.49521V7.066L178.155 7.12361C181.046 7.49453 183.959 8.63913 186.164 10.3006L183.174 16.1511C181.297 14.8094 178.576 13.9478 176.194 13.9478C174.442 13.9478 172.509 14.2994 170.993 15.1825C169.471 16.0691 168.277 17.5607 168.277 19.8462C168.277 20.7809 168.389 21.611 168.68 22.358C168.973 23.1084 169.427 23.7265 170.05 24.2746C171.267 25.3453 173.208 26.2141 176.079 27.3135V27.3138C178.865 28.3749 181.649 29.4483 183.932 31.4851C186.849 34.0959 188.308 37.7709 188.281 42.4707Z" stroke="url(#paint3_linear)"/>
<path d="M242.281 42.4707V42.4745C242.275 48.9045 238.404 53.6113 232.135 54.745L231.706 54.8226V55.3702V61.3207H226.196V55.2255V54.7027L225.789 54.6049C222.319 53.7706 219.049 51.7062 216.719 48.8086L220.726 44.0201C222.788 46.4686 226.093 48.0522 229.141 48.0522C230.826 48.0522 232.687 47.7208 234.147 46.8874C235.61 46.0521 236.773 44.6382 236.773 42.4581C236.773 42.4576 236.773 42.457 236.773 42.4564V42.4291C236.773 42.429 236.773 42.429 236.773 42.4289C236.78 41.2677 236.633 40.2644 236.289 39.3833C235.945 38.4994 235.421 37.7822 234.728 37.1621C233.37 35.9467 231.297 35.0512 228.483 33.9769C225.824 32.9583 223.166 31.9372 220.998 30.0549L220.997 30.0542C218.184 27.6222 216.764 24.2012 216.764 19.8462C216.764 13.707 220.181 9.12679 225.803 7.56427L226.196 7.45511V6.94737V0.679199H231.706V6.49521V7.066L232.155 7.12361C235.046 7.49453 237.959 8.63913 240.164 10.3006L237.174 16.1511C235.297 14.8094 232.576 13.9478 230.194 13.9478C228.442 13.9478 226.509 14.2994 224.993 15.1825C223.471 16.0691 222.277 17.5607 222.277 19.8462C222.277 20.7809 222.389 21.611 222.68 22.358C222.973 23.1084 223.427 23.7265 224.05 24.2746C225.267 25.3453 227.208 26.2141 230.079 27.3135V27.3138C232.865 28.3749 235.649 29.4483 237.932 31.4851C240.849 34.0959 242.308 37.7709 242.281 42.4707Z" stroke="url(#paint4_linear)"/>
<defs>
<linearGradient id="paint0_linear" x1="-4.35008" y1="68.1347" x2="58.4498" y2="33.0222" gradientUnits="userSpaceOnUse">
<stop stop-color="#AB85FF"/>
<stop offset="0.526042" stop-color="#EBA3E3"/>
<stop offset="1" stop-color="#FFDBE4"/>
</linearGradient>
<linearGradient id="paint1_linear" x1="49.6499" y1="68.1347" x2="112.45" y2="33.0221" gradientUnits="userSpaceOnUse">
<stop stop-color="#AB85FF"/>
<stop offset="0.526042" stop-color="#EBA3E3"/>
<stop offset="1" stop-color="#FFDBE4"/>
</linearGradient>
<linearGradient id="paint2_linear" x1="103.65" y1="68.1347" x2="166.45" y2="33.0222" gradientUnits="userSpaceOnUse">
<stop stop-color="#AB85FF"/>
<stop offset="0.526042" stop-color="#EBA3E3"/>
<stop offset="1" stop-color="#FFDBE4"/>
</linearGradient>
<linearGradient id="paint3_linear" x1="157.65" y1="68.1347" x2="220.45" y2="33.0222" gradientUnits="userSpaceOnUse">
<stop stop-color="#AB85FF"/>
<stop offset="0.526042" stop-color="#EBA3E3"/>
<stop offset="1" stop-color="#FFDBE4"/>
</linearGradient>
<linearGradient id="paint4_linear" x1="211.65" y1="68.1347" x2="274.45" y2="33.0222" gradientUnits="userSpaceOnUse">
<stop stop-color="#AB85FF"/>
<stop offset="0.526042" stop-color="#EBA3E3"/>
<stop offset="1" stop-color="#FFDBE4"/>
</linearGradient>
</defs>
</svg>
