<svg width="252" height="104" viewBox="0 0 252 104" fill="none" xmlns="http://www.w3.org/2000/svg">
<rect x="-0.326584" y="0.326584" width="66.8779" height="92.6041" transform="matrix(-1 0 0 1 67.5226 0)" fill="white"/>
<rect x="-0.326584" y="0.326584" width="51.6002" height="5.22534" transform="matrix(-1 0 0 1 60.339 12.4102)" stroke="url(#paint0_linear)" stroke-width="0.653167"/>
<rect x="-0.326584" y="0.326584" width="51.6002" height="5.22534" transform="matrix(-1 0 0 1 60.339 24.8203)" stroke="url(#paint1_linear)" stroke-width="0.653167"/>
<rect x="-0.326584" y="0.326584" width="51.6002" height="5.22534" transform="matrix(-1 0 0 1 60.339 37.2307)" stroke="url(#paint2_linear)" stroke-width="0.653167"/>
<rect x="-0.326584" y="0.326584" width="51.6002" height="5.22534" transform="matrix(-1 0 0 1 60.339 49.6406)" stroke="url(#paint3_linear)" stroke-width="0.653167"/>
<rect x="-0.326584" y="0.326584" width="51.6002" height="5.22534" transform="matrix(-1 0 0 1 60.339 62.0505)" stroke="url(#paint4_linear)" stroke-width="0.653167"/>
<rect x="-0.326584" y="0.326584" width="51.6002" height="5.22534" transform="matrix(-1 0 0 1 60.339 74.4602)" stroke="url(#paint5_linear)" stroke-width="0.653167"/>
<rect x="-0.326584" y="0.326584" width="66.8779" height="92.6041" transform="matrix(-1 0 0 1 67.5226 0)" stroke="url(#paint6_linear)" stroke-width="0.653167"/>
<path d="M78.9948 95.051L62.995 80.3387L62.9844 102.074L67.8395 97.4289L70.6911 103.929L75.1402 101.978L72.2886 95.4772L78.9948 95.051Z" fill="url(#paint7_linear)"/>
<rect x="-0.326584" y="0.326584" width="66.8779" height="92.6041" transform="matrix(-1 0 0 1 153.948 0)" fill="white"/>
<rect x="-0.326584" y="0.326584" width="51.6002" height="5.22534" transform="matrix(-1 0 0 1 146.765 12.4102)" stroke="url(#paint8_linear)" stroke-width="0.653167"/>
<rect x="-0.326584" y="0.326584" width="51.6002" height="5.22534" transform="matrix(-1 0 0 1 146.765 24.8203)" stroke="url(#paint9_linear)" stroke-width="0.653167"/>
<rect x="-0.326584" y="0.326584" width="51.6002" height="5.22534" transform="matrix(-1 0 0 1 146.765 37.2307)" stroke="url(#paint10_linear)" stroke-width="0.653167"/>
<rect x="-0.326584" y="0.326584" width="51.6002" height="5.22534" transform="matrix(-1 0 0 1 146.765 49.6406)" stroke="url(#paint11_linear)" stroke-width="0.653167"/>
<rect x="-0.326584" y="0.326584" width="51.6002" height="5.22534" transform="matrix(-1 0 0 1 146.765 62.0505)" stroke="url(#paint12_linear)" stroke-width="0.653167"/>
<rect x="-0.326584" y="0.326584" width="51.6002" height="5.22534" transform="matrix(-1 0 0 1 146.765 74.4602)" stroke="url(#paint13_linear)" stroke-width="0.653167"/>
<rect x="-0.326584" y="0.326584" width="66.8779" height="92.6041" transform="matrix(-1 0 0 1 153.948 0)" stroke="url(#paint14_linear)" stroke-width="0.653167"/>
<path d="M165.424 95.051L149.425 80.3387L149.414 102.074L154.269 97.4289L157.121 103.929L161.57 101.978L158.718 95.4772L165.424 95.051Z" fill="url(#paint15_linear)"/>
<rect x="-0.326584" y="0.326584" width="66.8779" height="92.6041" transform="matrix(-1 0 0 1 240.378 0)" fill="white"/>
<rect x="-0.326584" y="0.326584" width="51.6002" height="5.22534" transform="matrix(-1 0 0 1 233.194 12.4102)" stroke="url(#paint16_linear)" stroke-width="0.653167"/>
<rect x="-0.326584" y="0.326584" width="51.6002" height="5.22534" transform="matrix(-1 0 0 1 233.194 24.8203)" stroke="url(#paint17_linear)" stroke-width="0.653167"/>
<rect x="-0.326584" y="0.326584" width="51.6002" height="5.22534" transform="matrix(-1 0 0 1 233.194 37.2307)" stroke="url(#paint18_linear)" stroke-width="0.653167"/>
<rect x="-0.326584" y="0.326584" width="51.6002" height="5.22534" transform="matrix(-1 0 0 1 233.194 49.6406)" stroke="url(#paint19_linear)" stroke-width="0.653167"/>
<rect x="-0.326584" y="0.326584" width="51.6002" height="5.22534" transform="matrix(-1 0 0 1 233.194 62.0505)" stroke="url(#paint20_linear)" stroke-width="0.653167"/>
<rect x="-0.326584" y="0.326584" width="51.6002" height="5.22534" transform="matrix(-1 0 0 1 233.194 74.4602)" stroke="url(#paint21_linear)" stroke-width="0.653167"/>
<rect x="-0.326584" y="0.326584" width="66.8779" height="92.6041" transform="matrix(-1 0 0 1 240.378 0)" stroke="url(#paint22_linear)" stroke-width="0.653167"/>
<path d="M251.854 95.051L235.854 80.3387L235.844 102.074L240.699 97.4289L243.551 103.929L248 101.978L245.148 95.4772L251.854 95.051Z" fill="url(#paint23_linear)"/>
<defs>
<linearGradient id="paint0_linear" x1="-8.49989" y1="6.46559" x2="-7.29061" y2="-7.42937" gradientUnits="userSpaceOnUse">
<stop stop-color="#AB85FF"/>
<stop offset="0.526042" stop-color="#EBA3E3"/>
<stop offset="1" stop-color="#FFDBE4"/>
</linearGradient>
<linearGradient id="paint1_linear" x1="-8.49989" y1="6.46559" x2="-7.29061" y2="-7.42937" gradientUnits="userSpaceOnUse">
<stop stop-color="#AB85FF"/>
<stop offset="0.526042" stop-color="#EBA3E3"/>
<stop offset="1" stop-color="#FFDBE4"/>
</linearGradient>
<linearGradient id="paint2_linear" x1="-8.49989" y1="6.46559" x2="-7.29061" y2="-7.42937" gradientUnits="userSpaceOnUse">
<stop stop-color="#AB85FF"/>
<stop offset="0.526042" stop-color="#EBA3E3"/>
<stop offset="1" stop-color="#FFDBE4"/>
</linearGradient>
<linearGradient id="paint3_linear" x1="-8.49989" y1="6.46559" x2="-7.29061" y2="-7.42937" gradientUnits="userSpaceOnUse">
<stop stop-color="#AB85FF"/>
<stop offset="0.526042" stop-color="#EBA3E3"/>
<stop offset="1" stop-color="#FFDBE4"/>
</linearGradient>
<linearGradient id="paint4_linear" x1="-8.49989" y1="6.46559" x2="-7.29061" y2="-7.42937" gradientUnits="userSpaceOnUse">
<stop stop-color="#AB85FF"/>
<stop offset="0.526042" stop-color="#EBA3E3"/>
<stop offset="1" stop-color="#FFDBE4"/>
</linearGradient>
<linearGradient id="paint5_linear" x1="-8.49989" y1="6.46559" x2="-7.29061" y2="-7.42937" gradientUnits="userSpaceOnUse">
<stop stop-color="#AB85FF"/>
<stop offset="0.526042" stop-color="#EBA3E3"/>
<stop offset="1" stop-color="#FFDBE4"/>
</linearGradient>
<linearGradient id="paint6_linear" x1="-10.9851" y1="102.571" x2="99.8234" y2="-1.15345" gradientUnits="userSpaceOnUse">
<stop stop-color="#AB85FF"/>
<stop offset="0.526042" stop-color="#EBA3E3"/>
<stop offset="1" stop-color="#FFDBE4"/>
</linearGradient>
<linearGradient id="paint7_linear" x1="60.38" y1="106.285" x2="88.2325" y2="81.85" gradientUnits="userSpaceOnUse">
<stop stop-color="#AB85FF"/>
<stop offset="0.526042" stop-color="#EBA3E3"/>
<stop offset="1" stop-color="#FFDBE4"/>
</linearGradient>
<linearGradient id="paint8_linear" x1="-8.49989" y1="6.46559" x2="-7.29061" y2="-7.42937" gradientUnits="userSpaceOnUse">
<stop stop-color="#AB85FF"/>
<stop offset="0.526042" stop-color="#EBA3E3"/>
<stop offset="1" stop-color="#FFDBE4"/>
</linearGradient>
<linearGradient id="paint9_linear" x1="-8.49989" y1="6.46559" x2="-7.29061" y2="-7.42937" gradientUnits="userSpaceOnUse">
<stop stop-color="#AB85FF"/>
<stop offset="0.526042" stop-color="#EBA3E3"/>
<stop offset="1" stop-color="#FFDBE4"/>
</linearGradient>
<linearGradient id="paint10_linear" x1="-8.49989" y1="6.46559" x2="-7.29061" y2="-7.42937" gradientUnits="userSpaceOnUse">
<stop stop-color="#AB85FF"/>
<stop offset="0.526042" stop-color="#EBA3E3"/>
<stop offset="1" stop-color="#FFDBE4"/>
</linearGradient>
<linearGradient id="paint11_linear" x1="-8.49989" y1="6.46559" x2="-7.29061" y2="-7.42937" gradientUnits="userSpaceOnUse">
<stop stop-color="#AB85FF"/>
<stop offset="0.526042" stop-color="#EBA3E3"/>
<stop offset="1" stop-color="#FFDBE4"/>
</linearGradient>
<linearGradient id="paint12_linear" x1="-8.49989" y1="6.46559" x2="-7.29061" y2="-7.42937" gradientUnits="userSpaceOnUse">
<stop stop-color="#AB85FF"/>
<stop offset="0.526042" stop-color="#EBA3E3"/>
<stop offset="1" stop-color="#FFDBE4"/>
</linearGradient>
<linearGradient id="paint13_linear" x1="-8.49989" y1="6.46559" x2="-7.29061" y2="-7.42937" gradientUnits="userSpaceOnUse">
<stop stop-color="#AB85FF"/>
<stop offset="0.526042" stop-color="#EBA3E3"/>
<stop offset="1" stop-color="#FFDBE4"/>
</linearGradient>
<linearGradient id="paint14_linear" x1="-10.9851" y1="102.571" x2="99.8234" y2="-1.15345" gradientUnits="userSpaceOnUse">
<stop stop-color="#AB85FF"/>
<stop offset="0.526042" stop-color="#EBA3E3"/>
<stop offset="1" stop-color="#FFDBE4"/>
</linearGradient>
<linearGradient id="paint15_linear" x1="146.81" y1="106.285" x2="174.662" y2="81.85" gradientUnits="userSpaceOnUse">
<stop stop-color="#AB85FF"/>
<stop offset="0.526042" stop-color="#EBA3E3"/>
<stop offset="1" stop-color="#FFDBE4"/>
</linearGradient>
<linearGradient id="paint16_linear" x1="-8.49989" y1="6.46559" x2="-7.29061" y2="-7.42937" gradientUnits="userSpaceOnUse">
<stop stop-color="#AB85FF"/>
<stop offset="0.526042" stop-color="#EBA3E3"/>
<stop offset="1" stop-color="#FFDBE4"/>
</linearGradient>
<linearGradient id="paint17_linear" x1="-8.49989" y1="6.46559" x2="-7.29061" y2="-7.42937" gradientUnits="userSpaceOnUse">
<stop stop-color="#AB85FF"/>
<stop offset="0.526042" stop-color="#EBA3E3"/>
<stop offset="1" stop-color="#FFDBE4"/>
</linearGradient>
<linearGradient id="paint18_linear" x1="-8.49989" y1="6.46559" x2="-7.29061" y2="-7.42937" gradientUnits="userSpaceOnUse">
<stop stop-color="#AB85FF"/>
<stop offset="0.526042" stop-color="#EBA3E3"/>
<stop offset="1" stop-color="#FFDBE4"/>
</linearGradient>
<linearGradient id="paint19_linear" x1="-8.49989" y1="6.46559" x2="-7.29061" y2="-7.42937" gradientUnits="userSpaceOnUse">
<stop stop-color="#AB85FF"/>
<stop offset="0.526042" stop-color="#EBA3E3"/>
<stop offset="1" stop-color="#FFDBE4"/>
</linearGradient>
<linearGradient id="paint20_linear" x1="-8.49989" y1="6.46559" x2="-7.29061" y2="-7.42937" gradientUnits="userSpaceOnUse">
<stop stop-color="#AB85FF"/>
<stop offset="0.526042" stop-color="#EBA3E3"/>
<stop offset="1" stop-color="#FFDBE4"/>
</linearGradient>
<linearGradient id="paint21_linear" x1="-8.49989" y1="6.46559" x2="-7.29061" y2="-7.42937" gradientUnits="userSpaceOnUse">
<stop stop-color="#AB85FF"/>
<stop offset="0.526042" stop-color="#EBA3E3"/>
<stop offset="1" stop-color="#FFDBE4"/>
</linearGradient>
<linearGradient id="paint22_linear" x1="-10.9851" y1="102.571" x2="99.8234" y2="-1.15345" gradientUnits="userSpaceOnUse">
<stop stop-color="#AB85FF"/>
<stop offset="0.526042" stop-color="#EBA3E3"/>
<stop offset="1" stop-color="#FFDBE4"/>
</linearGradient>
<linearGradient id="paint23_linear" x1="233.239" y1="106.285" x2="261.092" y2="81.85" gradientUnits="userSpaceOnUse">
<stop stop-color="#AB85FF"/>
<stop offset="0.526042" stop-color="#EBA3E3"/>
<stop offset="1" stop-color="#FFDBE4"/>
</linearGradient>
</defs>
</svg>
