<svg width="255" height="107" viewBox="0 0 255 107" fill="none" xmlns="http://www.w3.org/2000/svg">
<path d="M213.997 78.3457C213.997 82.0078 211.923 85.5638 208.023 88.8628C204.124 92.1599 198.454 95.1516 191.403 97.6739C177.305 102.717 157.796 105.846 136.224 105.846C114.651 105.846 95.1428 102.717 81.0451 97.6739C73.9942 95.1516 68.3235 92.1599 64.4251 88.8628C60.5245 85.5638 58.4512 82.0078 58.4512 78.3457C58.4512 74.6836 60.5245 71.1276 64.4251 67.8286C68.3235 64.5315 73.9942 61.5398 81.0451 59.0175C95.1428 53.9744 114.651 50.8457 136.224 50.8457C157.796 50.8457 177.305 53.9744 191.403 59.0175C198.454 61.5398 204.124 64.5315 208.023 67.8286C211.923 71.1276 213.997 74.6836 213.997 78.3457Z" stroke="url(#paint0_linear)"/>
<path d="M115.682 71.9824L124.591 78.3461" stroke="url(#paint1_linear)"/>
<path d="M125.227 71.9824L115.045 78.3461" stroke="url(#paint2_linear)"/>
<path d="M43.7715 39.8349C59.4685 32.8349 95.9533 28.253 116.317 65.9258M116.317 65.9258C116.317 53.7075 116.317 52.3499 116.317 53.1984V65.9258ZM116.317 65.9258C112.923 63.5924 105.753 58.7984 104.226 58.2893" stroke="url(#paint3_linear)"/>
<path d="M208.771 13.1073C193.075 6.10732 156.59 1.5255 136.226 39.1982M136.226 39.1982C136.226 26.98 136.226 25.6224 136.226 26.4709V39.1982ZM136.226 39.1982C139.62 36.8649 146.79 32.0709 148.317 31.5618" stroke="url(#paint4_linear)"/>
<g clip-path="url(#clip0)">
<path d="M28.5435 26.6039H26.1017C25.897 25.9545 25.6289 25.3273 25.3035 24.7299L27.0285 23.0542C27.3976 22.6956 27.6011 22.2179 27.6011 21.7092C27.6011 21.2011 27.3976 20.7234 27.0285 20.3648L25.1828 18.5719C24.4452 17.8554 23.1539 17.8535 22.415 18.5719L20.69 20.2476C20.0757 19.9315 19.4293 19.6717 18.7609 19.4722V17.1008C18.7609 16.0529 17.883 15.2002 16.8043 15.2002H14.1957C13.117 15.2002 12.2391 16.0529 12.2391 17.1008V19.4728C11.5707 19.6724 10.925 19.9321 10.31 20.2482L8.58435 18.5725C7.8213 17.8313 6.57957 17.8313 5.81652 18.5725L3.97022 20.3654C3.20783 21.1067 3.20783 22.313 3.97022 23.0542L5.69522 24.7305C5.36978 25.3273 5.10239 25.9552 4.89696 26.6046H2.45652C1.37783 26.6046 0.5 27.4573 0.5 28.5052V31.0393C0.5 32.0866 1.37783 32.9393 2.45652 32.9393H4.89826C5.1037 33.5887 5.37109 34.2159 5.69652 34.8133L3.97152 36.4897C3.20848 37.2309 3.20848 38.4372 3.97152 39.1784L5.81717 40.972C6.58022 41.7126 7.82196 41.7126 8.585 40.972L10.3107 39.2963C10.925 39.6124 11.5713 39.8722 12.2398 40.0717V42.4424C12.2398 43.4903 13.1176 44.3431 14.1963 44.3431H16.805C17.8837 44.3431 18.7615 43.4903 18.7615 42.4424V40.0705C19.43 39.8709 20.0763 39.6111 20.6907 39.295L22.4157 40.9713C23.1552 41.6892 24.4465 41.6879 25.1835 40.9713L27.0291 39.1784C27.3983 38.8198 27.6017 38.3422 27.6017 37.8341C27.6017 37.3253 27.3983 36.8483 27.0291 36.4897L25.3041 34.8133C25.6296 34.2165 25.897 33.5887 26.1024 32.9393H28.5435C29.6222 32.9393 30.5 32.0866 30.5 31.0387V28.5045C30.5 27.4567 29.6222 26.6039 28.5435 26.6039ZM29.1957 31.0387C29.1957 31.3878 28.9035 31.6722 28.5435 31.6722H25.6087C25.3113 31.6722 25.0517 31.868 24.9774 32.1474C24.7465 33.0122 24.395 33.8377 23.9313 34.6005C23.7807 34.8494 23.8217 35.1662 24.0317 35.3702L26.1057 37.3855C26.2283 37.5046 26.2961 37.6636 26.2961 37.8341C26.2961 38.0045 26.2283 38.1635 26.1057 38.2826L24.26 40.0755C24.0148 40.3137 23.5824 40.3137 23.3365 40.0755L21.2626 38.0609C21.0526 37.8562 20.7265 37.817 20.4696 37.9633C19.6857 38.4131 18.8359 38.7552 17.945 38.9789C17.658 39.0505 17.4565 39.3026 17.4565 39.5915V42.4424C17.4565 42.7915 17.1643 43.076 16.8043 43.076H14.1957C13.8363 43.076 13.5435 42.7915 13.5435 42.4424V39.5915C13.5435 39.3026 13.342 39.0505 13.0543 38.9782C12.1641 38.7546 11.3143 38.4131 10.5291 37.9627C10.4261 37.9031 10.312 37.8746 10.1978 37.8746C10.0289 37.8746 9.86196 37.938 9.73609 38.0602L7.66217 40.0749C7.40717 40.322 6.9937 40.322 6.7387 40.0749L4.89304 38.282C4.63804 38.0343 4.63804 37.632 4.89304 37.3849L6.96696 35.3702C7.17761 35.1656 7.2187 34.8488 7.06739 34.6005C6.60435 33.8377 6.25217 33.0128 6.02196 32.1474C5.94826 31.868 5.6887 31.6722 5.3913 31.6722H2.45652C2.09717 31.6722 1.80435 31.3878 1.80435 31.0387V28.5045C1.80435 28.1555 2.09717 27.871 2.45652 27.871H5.3913C5.6887 27.871 5.94826 27.6752 6.02261 27.3958C6.25283 26.5311 6.60435 25.7056 7.06804 24.9428C7.21935 24.6938 7.17826 24.377 6.96761 24.173L4.8937 22.1584C4.63935 21.9113 4.63935 21.509 4.8937 21.2613L6.73935 19.4684C6.99435 19.2206 7.40783 19.2213 7.66283 19.4684L9.73674 21.483C9.94739 21.6876 10.2728 21.7282 10.5291 21.5806C11.3143 21.1308 12.1635 20.7887 13.0543 20.565C13.342 20.4928 13.5435 20.2406 13.5435 19.9517V17.1008C13.5435 16.7517 13.8363 16.4673 14.1957 16.4673H16.8043C17.1643 16.4673 17.4565 16.7517 17.4565 17.1008V19.9517C17.4565 20.2406 17.658 20.4928 17.9457 20.565C18.8365 20.7887 19.6863 21.1308 20.4702 21.5806C20.7272 21.7276 21.0533 21.6883 21.2633 21.483L23.3372 19.4684C23.583 19.2289 24.0154 19.2295 24.2607 19.4684L26.1063 21.2613C26.2289 21.3804 26.2967 21.54 26.2967 21.7098C26.2967 21.8796 26.2289 22.0393 26.1063 22.1584L24.0324 24.173C23.8224 24.3777 23.7807 24.6944 23.932 24.9428C24.3957 25.7056 24.7472 26.5304 24.978 27.3958C25.0517 27.6752 25.3113 27.871 25.6087 27.871H28.5435C28.9035 27.871 29.1957 28.1555 29.1957 28.5045V31.0387Z" fill="url(#paint5_linear)"/>
<path d="M15.5004 24.0698C12.2643 24.0698 9.63086 26.6281 9.63086 29.7717C9.63086 32.9153 12.2643 35.4735 15.5004 35.4735C18.7372 35.4735 21.37 32.9153 21.37 29.7717C21.37 26.6281 18.7372 24.0698 15.5004 24.0698ZM15.5004 34.2065C12.983 34.2065 10.9352 32.2171 10.9352 29.7717C10.9352 27.3262 12.983 25.3369 15.5004 25.3369C18.0172 25.3369 20.0656 27.3262 20.0656 29.7717C20.0656 32.2171 18.0172 34.2065 15.5004 34.2065Z" fill="url(#paint6_linear)"/>
</g>
<g clip-path="url(#clip1)">
<path d="M252.543 12.0326H250.102C249.897 11.3833 249.629 10.756 249.303 10.1586L251.028 8.48291C251.398 8.12432 251.601 7.64663 251.601 7.1379C251.601 6.6298 251.398 6.15211 251.028 5.79353L249.183 4.00061C248.445 3.28407 247.154 3.28217 246.415 4.00061L244.69 5.67632C244.076 5.36019 243.429 5.10043 242.761 4.90087V2.52953C242.761 1.48165 241.883 0.628906 240.804 0.628906H238.196C237.117 0.628906 236.239 1.48165 236.239 2.52953V4.9015C235.571 5.10107 234.925 5.36082 234.31 5.67696L232.584 4.00124C231.821 3.26 230.58 3.26 229.817 4.00124L227.97 5.79416C227.208 6.5354 227.208 7.74166 227.97 8.48291L229.695 10.1593C229.37 10.756 229.102 11.3839 228.897 12.0333H226.457C225.378 12.0333 224.5 12.886 224.5 13.9339V16.468C224.5 17.5153 225.378 18.368 226.457 18.368H228.898C229.104 19.0174 229.371 19.6446 229.697 20.242L227.972 21.9184C227.208 22.6596 227.208 23.8659 227.972 24.6071L229.817 26.4007C230.58 27.1413 231.822 27.1413 232.585 26.4007L234.311 24.725C234.925 25.0411 235.571 25.3009 236.24 25.5004V27.8711C236.24 28.919 237.118 29.7718 238.196 29.7718H240.805C241.884 29.7718 242.762 28.919 242.762 27.8711V25.4992C243.43 25.2996 244.076 25.0399 244.691 24.7237L246.416 26.4001C247.155 27.1179 248.447 27.1166 249.183 26.4001L251.029 24.6071C251.398 24.2486 251.602 23.7709 251.602 23.2628C251.602 22.754 251.398 22.277 251.029 21.9184L249.304 20.242C249.63 19.6453 249.897 19.0174 250.102 18.368H252.543C253.622 18.368 254.5 17.5153 254.5 16.4674V13.9333C254.5 12.8854 253.622 12.0326 252.543 12.0326ZM253.196 16.4674C253.196 16.8165 252.903 17.101 252.543 17.101H249.609C249.311 17.101 249.052 17.2967 248.977 17.5761C248.747 18.4409 248.395 19.2664 247.931 20.0292C247.781 20.2782 247.822 20.5949 248.032 20.7989L250.106 22.8142C250.228 22.9333 250.296 23.0923 250.296 23.2628C250.296 23.4332 250.228 23.5922 250.106 23.7113L248.26 25.5042C248.015 25.7424 247.582 25.7424 247.337 25.5042L245.263 23.4896C245.053 23.2849 244.727 23.2457 244.47 23.392C243.686 23.8418 242.836 24.1839 241.945 24.4076C241.658 24.4792 241.457 24.7313 241.457 25.0202V27.8711C241.457 28.2202 241.164 28.5047 240.804 28.5047H238.196C237.836 28.5047 237.543 28.2202 237.543 27.8711V25.0202C237.543 24.7313 237.342 24.4792 237.054 24.4069C236.164 24.1833 235.314 23.8418 234.529 23.3914C234.426 23.3318 234.312 23.3033 234.198 23.3033C234.029 23.3033 233.862 23.3667 233.736 23.4889L231.662 25.5036C231.407 25.7507 230.994 25.7507 230.739 25.5036L228.893 23.7107C228.638 23.463 228.638 23.0607 228.893 22.8136L230.967 20.7989C231.178 20.5943 231.219 20.2775 231.067 20.0292C230.604 19.2664 230.252 18.4415 230.022 17.5761C229.948 17.2967 229.689 17.101 229.391 17.101H226.457C226.097 17.101 225.804 16.8165 225.804 16.4674V13.9333C225.804 13.5842 226.097 13.2997 226.457 13.2997H229.391C229.689 13.2997 229.948 13.1039 230.023 12.8246C230.253 11.9598 230.604 11.1343 231.068 10.3715C231.219 10.1225 231.178 9.80574 230.968 9.60174L228.894 7.58708C228.639 7.34 228.639 6.9377 228.894 6.68999L230.739 4.89707C230.994 4.64935 231.408 4.64999 231.663 4.89707L233.737 6.91173C233.947 7.11636 234.273 7.15691 234.529 7.00929C235.314 6.55948 236.163 6.21737 237.054 5.99373C237.342 5.9215 237.543 5.66935 237.543 5.38046V2.52953C237.543 2.18045 237.836 1.89599 238.196 1.89599H240.804C241.164 1.89599 241.457 2.18045 241.457 2.52953V5.38046C241.457 5.66935 241.658 5.9215 241.946 5.99373C242.837 6.21737 243.686 6.55948 244.47 7.00929C244.727 7.15627 245.053 7.11699 245.263 6.91173L247.337 4.89707C247.583 4.65759 248.015 4.65822 248.261 4.89707L250.106 6.68999C250.229 6.80909 250.297 6.96874 250.297 7.13853C250.297 7.30832 250.229 7.46797 250.106 7.58708L248.032 9.60174C247.822 9.80637 247.781 10.1231 247.932 10.3715C248.396 11.1343 248.747 11.9591 248.978 12.8246C249.052 13.1039 249.311 13.2997 249.609 13.2997H252.543C252.903 13.2997 253.196 13.5842 253.196 13.9333V16.4674Z" fill="url(#paint7_linear)"/>
<path d="M239.5 9.49854C236.264 9.49854 233.631 12.0568 233.631 15.2004C233.631 18.344 236.264 20.9023 239.5 20.9023C242.737 20.9023 245.37 18.344 245.37 15.2004C245.37 12.0568 242.737 9.49854 239.5 9.49854ZM239.5 19.6352C236.983 19.6352 234.935 17.6459 234.935 15.2004C234.935 12.7549 236.983 10.7656 239.5 10.7656C242.017 10.7656 244.066 12.7549 244.066 15.2004C244.066 17.6459 242.017 19.6352 239.5 19.6352Z" fill="url(#paint8_linear)"/>
</g>
<defs>
<linearGradient id="paint0_linear" x1="32.4864" y1="111.938" x2="66.7687" y2="-11.9437" gradientUnits="userSpaceOnUse">
<stop stop-color="#AB85FF"/>
<stop offset="0.526042" stop-color="#EBA3E3"/>
<stop offset="1" stop-color="#FFDBE4"/>
</linearGradient>
<linearGradient id="paint1_linear" x1="114.232" y1="78.9816" x2="120.648" y2="67.3711" gradientUnits="userSpaceOnUse">
<stop stop-color="#AB85FF"/>
<stop offset="0.526042" stop-color="#EBA3E3"/>
<stop offset="1" stop-color="#FFDBE4"/>
</linearGradient>
<linearGradient id="paint2_linear" x1="126.883" y1="78.9816" x2="120.944" y2="66.6976" gradientUnits="userSpaceOnUse">
<stop stop-color="#AB85FF"/>
<stop offset="0.526042" stop-color="#EBA3E3"/>
<stop offset="1" stop-color="#FFDBE4"/>
</linearGradient>
<linearGradient id="paint3_linear" x1="31.9708" y1="69.007" x2="53.7839" y2="2.70536" gradientUnits="userSpaceOnUse">
<stop stop-color="#AB85FF"/>
<stop offset="0.526042" stop-color="#EBA3E3"/>
<stop offset="1" stop-color="#FFDBE4"/>
</linearGradient>
<linearGradient id="paint4_linear" x1="220.572" y1="42.2795" x2="198.759" y2="-24.0222" gradientUnits="userSpaceOnUse">
<stop stop-color="#AB85FF"/>
<stop offset="0.526042" stop-color="#EBA3E3"/>
<stop offset="1" stop-color="#FFDBE4"/>
</linearGradient>
<linearGradient id="paint5_linear" x1="-4.38" y1="47.2535" x2="28.9536" y2="2.89706" gradientUnits="userSpaceOnUse">
<stop stop-color="#AB85FF"/>
<stop offset="0.526042" stop-color="#EBA3E3"/>
<stop offset="1" stop-color="#FFDBE4"/>
</linearGradient>
<linearGradient id="paint6_linear" x1="7.72129" y1="36.6124" x2="20.7649" y2="19.2556" gradientUnits="userSpaceOnUse">
<stop stop-color="#AB85FF"/>
<stop offset="0.526042" stop-color="#EBA3E3"/>
<stop offset="1" stop-color="#FFDBE4"/>
</linearGradient>
<linearGradient id="paint7_linear" x1="219.62" y1="32.6822" x2="252.954" y2="-11.6742" gradientUnits="userSpaceOnUse">
<stop stop-color="#AB85FF"/>
<stop offset="0.526042" stop-color="#EBA3E3"/>
<stop offset="1" stop-color="#FFDBE4"/>
</linearGradient>
<linearGradient id="paint8_linear" x1="231.721" y1="22.0411" x2="244.765" y2="4.68427" gradientUnits="userSpaceOnUse">
<stop stop-color="#AB85FF"/>
<stop offset="0.526042" stop-color="#EBA3E3"/>
<stop offset="1" stop-color="#FFDBE4"/>
</linearGradient>
<clipPath id="clip0">
<rect width="30" height="29.1429" fill="white" transform="translate(0.5 15.2002)"/>
</clipPath>
<clipPath id="clip1">
<rect width="30" height="29.1429" fill="white" transform="translate(224.5 0.628906)"/>
</clipPath>
</defs>
</svg>
