<svg width="214" height="74" viewBox="0 0 214 74" fill="none" xmlns="http://www.w3.org/2000/svg">
<path d="M83.252 26.79C107.024 -1.62006 142.534 -12.7315 182.056 26.79M182.056 26.79C180.312 17.4908 179.632 13.0896 179.511 12.0514L182.056 26.79ZM182.056 26.79C180.311 26.0767 171.87 24.395 165.868 23.8287" stroke="url(#paint0_linear)" stroke-width="2"/>
<path d="M132.654 47.1143C108.882 75.5244 73.3722 86.6358 33.8507 47.1143M33.8507 47.1143C35.5943 56.4135 36.2738 60.8147 36.3956 61.8529L33.8507 47.1143ZM33.8507 47.1143C35.5956 47.8276 44.0359 49.5093 50.0381 50.0756" stroke="url(#paint1_linear)" stroke-width="2"/>
<path d="M193.953 50.7568C197.504 50.7568 200.807 52.3443 203.257 55.2552L203.257 55.2553C205.668 58.1211 207.066 62.0779 207.193 66.47C205.515 67.3421 200.293 69.7568 193.953 69.7568C188.088 69.7568 182.522 67.3203 180.713 66.4449C180.846 62.0627 182.242 58.1156 184.649 55.2552C187.099 52.3443 190.402 50.7568 193.953 50.7568Z" fill="url(#paint2_linear)" stroke="url(#paint3_linear)"/>
<path d="M200.328 42.1318C200.328 45.6527 197.474 48.5068 193.953 48.5068C190.432 48.5068 187.578 45.6527 187.578 42.1318C187.578 38.611 190.432 35.7568 193.953 35.7568C197.474 35.7568 200.328 38.611 200.328 42.1318Z" fill="url(#paint4_linear)" stroke="url(#paint5_linear)"/>
<path d="M1.79496 47.1143C1.46181 47.1143 1.13629 46.9821 0.894693 46.743C0.594606 46.443 0.462363 46.0106 0.546286 45.5936L2.34427 36.6011C2.39513 36.3544 2.51211 36.1281 2.69267 35.9526L29.6675 8.97782C32.147 6.49828 36.1804 6.49828 38.6574 8.97782C39.8603 10.1782 40.5215 11.7752 40.5215 13.474C40.5215 15.1728 39.8603 16.7699 38.6599 17.9703L11.6851 44.9451C11.5096 45.1231 11.2833 45.2426 11.0341 45.2935L2.04418 47.0889C1.9628 47.1067 1.87888 47.1143 1.79496 47.1143ZM8.04105 39.7944L27.6943 18.4028C28.4166 17.6805 31.5865 15.1647 33.3574 13.6914C34.8978 12.4098 35.7223 11.7239 36.8619 10.7758C38.3471 9.28808 37.9784 9.65746 36.8619 10.7758L8.04105 39.7944Z" fill="url(#paint6_linear)"/>
<defs>
<linearGradient id="paint0_linear" x1="67.1799" y1="29.3509" x2="78.9659" y2="-29.3528" gradientUnits="userSpaceOnUse">
<stop stop-color="#AB85FF"/>
<stop offset="0.526042" stop-color="#EBA3E3"/>
<stop offset="1" stop-color="#FFDBE4"/>
</linearGradient>
<linearGradient id="paint1_linear" x1="148.726" y1="44.5534" x2="136.94" y2="103.257" gradientUnits="userSpaceOnUse">
<stop stop-color="#AB85FF"/>
<stop offset="0.526042" stop-color="#EBA3E3"/>
<stop offset="1" stop-color="#FFDBE4"/>
</linearGradient>
<linearGradient id="paint2_linear" x1="175.734" y1="72.2542" x2="196.091" y2="36.0783" gradientUnits="userSpaceOnUse">
<stop stop-color="#AB85FF"/>
<stop offset="0.526042" stop-color="#EBA3E3"/>
<stop offset="1" stop-color="#FFDBE4"/>
</linearGradient>
<linearGradient id="paint3_linear" x1="175.734" y1="72.2542" x2="196.091" y2="36.0783" gradientUnits="userSpaceOnUse">
<stop stop-color="#AB85FF"/>
<stop offset="0.526042" stop-color="#EBA3E3"/>
<stop offset="1" stop-color="#FFDBE4"/>
</linearGradient>
<linearGradient id="paint4_linear" x1="184.841" y1="50.38" x2="200.69" y2="29.8934" gradientUnits="userSpaceOnUse">
<stop stop-color="#AB85FF"/>
<stop offset="0.526042" stop-color="#EBA3E3"/>
<stop offset="1" stop-color="#FFDBE4"/>
</linearGradient>
<linearGradient id="paint5_linear" x1="184.841" y1="50.38" x2="200.69" y2="29.8934" gradientUnits="userSpaceOnUse">
<stop stop-color="#AB85FF"/>
<stop offset="0.526042" stop-color="#EBA3E3"/>
<stop offset="1" stop-color="#FFDBE4"/>
</linearGradient>
<linearGradient id="paint6_linear" x1="-5.98519" y1="51.1087" x2="40.1137" y2="-8.48738" gradientUnits="userSpaceOnUse">
<stop stop-color="#AB85FF"/>
<stop offset="0.526042" stop-color="#EBA3E3"/>
<stop offset="1" stop-color="#FFDBE4"/>
</linearGradient>
</defs>
</svg>
