<svg width="148" height="77" viewBox="0 0 148 77" fill="none" xmlns="http://www.w3.org/2000/svg">
<rect x="0.644043" y="15.4868" width="130.937" height="60.3752" stroke="url(#paint0_linear)"/>
<g clip-path="url(#clip0)">
<path d="M145.125 11.4589H142.683C142.479 10.8095 142.21 10.1823 141.885 9.58489L143.61 7.90918C143.979 7.55059 144.183 7.0729 144.183 6.56417C144.183 6.05607 143.979 5.57838 143.61 5.2198L141.764 3.42688C141.027 2.71034 139.735 2.70844 138.997 3.42688L137.272 5.10259C136.657 4.78646 136.011 4.5267 135.342 4.32714V1.9558C135.342 0.907921 134.465 0.0551758 133.386 0.0551758H130.777C129.698 0.0551758 128.821 0.907921 128.821 1.9558V4.32777C128.152 4.52734 127.507 4.78709 126.892 5.10323L125.166 3.42751C124.403 2.68627 123.161 2.68627 122.398 3.42751L120.552 5.22043C119.789 5.96167 119.789 7.16793 120.552 7.90918L122.277 9.58552C121.951 10.1823 121.684 10.8102 121.478 11.4595H119.038C117.959 11.4595 117.082 12.3123 117.082 13.3602V15.8943C117.082 16.9416 117.959 17.7943 119.038 17.7943H121.48C121.685 18.4437 121.953 19.0709 122.278 19.6683L120.553 21.3447C119.79 22.0859 119.79 23.2922 120.553 24.0334L122.399 25.827C123.162 26.5676 124.404 26.5676 125.167 25.827L126.892 24.1512C127.507 24.4674 128.153 24.7271 128.821 24.9267V27.2974C128.821 28.3453 129.699 29.198 130.778 29.198H133.387C134.465 29.198 135.343 28.3453 135.343 27.2974V24.9254C136.012 24.7259 136.658 24.4661 137.272 24.15L138.997 25.8263C139.737 26.5441 141.028 26.5429 141.765 25.8263L143.611 24.0334C143.98 23.6748 144.183 23.1971 144.183 22.689C144.183 22.1803 143.98 21.7032 143.611 21.3447L141.886 19.6683C142.211 19.0715 142.479 18.4437 142.684 17.7943H145.125C146.204 17.7943 147.082 16.9416 147.082 15.8937V13.3595C147.082 12.3116 146.204 11.4589 145.125 11.4589ZM145.777 15.8937C145.777 16.2428 145.485 16.5272 145.125 16.5272H142.19C141.893 16.5272 141.633 16.723 141.559 17.0024C141.328 17.8672 140.977 18.6927 140.513 19.4554C140.362 19.7044 140.403 20.0212 140.613 20.2252L142.687 22.2405C142.81 22.3596 142.878 22.5186 142.878 22.689C142.878 22.8595 142.81 23.0185 142.687 23.1376L140.842 24.9305C140.596 25.1687 140.164 25.1687 139.918 24.9305L137.844 22.9158C137.634 22.7112 137.308 22.6719 137.051 22.8183C136.267 23.2681 135.417 23.6102 134.527 23.8338C134.24 23.9054 134.038 24.1576 134.038 24.4465V27.2974C134.038 27.6465 133.746 27.931 133.386 27.931H130.777C130.418 27.931 130.125 27.6465 130.125 27.2974V24.4465C130.125 24.1576 129.924 23.9054 129.636 23.8332C128.746 23.6096 127.896 23.2681 127.111 22.8176C127.008 22.7581 126.893 22.7296 126.779 22.7296C126.61 22.7296 126.443 22.7929 126.318 22.9152L124.244 24.9299C123.989 25.177 123.575 25.177 123.32 24.9299L121.475 23.1369C121.22 22.8892 121.22 22.4869 121.475 22.2399L123.549 20.2252C123.759 20.0206 123.8 19.7038 123.649 19.4554C123.186 18.6927 122.834 17.8678 122.603 17.0024C122.53 16.723 122.27 16.5272 121.973 16.5272H119.038C118.679 16.5272 118.386 16.2428 118.386 15.8937V13.3595C118.386 13.0104 118.679 12.726 119.038 12.726H121.973C122.27 12.726 122.53 12.5302 122.604 12.2508C122.834 11.386 123.186 10.5605 123.65 9.79776C123.801 9.54878 123.76 9.23201 123.549 9.02801L121.475 7.01335C121.221 6.76627 121.221 6.36397 121.475 6.11626L123.321 4.32334C123.576 4.07562 123.989 4.07626 124.244 4.32334L126.318 6.338C126.529 6.54263 126.854 6.58318 127.111 6.43556C127.896 5.98575 128.745 5.64364 129.636 5.42C129.924 5.34777 130.125 5.09562 130.125 4.80673V1.9558C130.125 1.60672 130.418 1.32226 130.777 1.32226H133.386C133.746 1.32226 134.038 1.60672 134.038 1.9558V4.80673C134.038 5.09562 134.24 5.34777 134.527 5.42C135.418 5.64364 136.268 5.98575 137.052 6.43556C137.309 6.58254 137.635 6.54326 137.845 6.338L139.919 4.32334C140.165 4.08386 140.597 4.08449 140.842 4.32334L142.688 6.11626C142.81 6.23536 142.878 6.39501 142.878 6.5648C142.878 6.73459 142.81 6.89424 142.688 7.01335L140.614 9.02801C140.404 9.23264 140.362 9.54941 140.514 9.79776C140.977 10.5605 141.329 11.3854 141.56 12.2508C141.633 12.5302 141.893 12.726 142.19 12.726H145.125C145.485 12.726 145.777 13.0104 145.777 13.3595V15.8937Z" fill="url(#paint1_linear)"/>
<path d="M132.082 8.9248C128.846 8.9248 126.212 11.483 126.212 14.6267C126.212 17.7703 128.846 20.3285 132.082 20.3285C135.319 20.3285 137.952 17.7703 137.952 14.6267C137.952 11.483 135.319 8.9248 132.082 8.9248ZM132.082 19.0614C129.565 19.0614 127.517 17.0721 127.517 14.6267C127.517 12.1812 129.565 10.1919 132.082 10.1919C134.599 10.1919 136.647 12.1812 136.647 14.6267C136.647 17.0721 134.599 19.0614 132.082 19.0614Z" fill="url(#paint2_linear)"/>
</g>
<rect x="25.9653" y="27.0884" width="80.295" height="4.21925" stroke="url(#paint3_linear)"/>
<rect x="25.9653" y="43.5645" width="80.295" height="4.21925" stroke="url(#paint4_linear)"/>
<rect x="25.9653" y="60.0405" width="80.295" height="4.21925" stroke="url(#paint5_linear)"/>
<defs>
<linearGradient id="paint0_linear" x1="-21.3178" y1="82.4915" x2="25.2528" y2="-46.9201" gradientUnits="userSpaceOnUse">
<stop stop-color="#AB85FF"/>
<stop offset="0.526042" stop-color="#EBA3E3"/>
<stop offset="1" stop-color="#FFDBE4"/>
</linearGradient>
<linearGradient id="paint1_linear" x1="112.202" y1="32.1085" x2="145.535" y2="-12.248" gradientUnits="userSpaceOnUse">
<stop stop-color="#AB85FF"/>
<stop offset="0.526042" stop-color="#EBA3E3"/>
<stop offset="1" stop-color="#FFDBE4"/>
</linearGradient>
<linearGradient id="paint2_linear" x1="124.303" y1="21.4674" x2="137.346" y2="4.11054" gradientUnits="userSpaceOnUse">
<stop stop-color="#AB85FF"/>
<stop offset="0.526042" stop-color="#EBA3E3"/>
<stop offset="1" stop-color="#FFDBE4"/>
</linearGradient>
<linearGradient id="paint3_linear" x1="12.2413" y1="32.3289" x2="12.8572" y2="19.9293" gradientUnits="userSpaceOnUse">
<stop stop-color="#AB85FF"/>
<stop offset="0.526042" stop-color="#EBA3E3"/>
<stop offset="1" stop-color="#FFDBE4"/>
</linearGradient>
<linearGradient id="paint4_linear" x1="12.2413" y1="48.805" x2="12.8572" y2="36.4054" gradientUnits="userSpaceOnUse">
<stop stop-color="#AB85FF"/>
<stop offset="0.526042" stop-color="#EBA3E3"/>
<stop offset="1" stop-color="#FFDBE4"/>
</linearGradient>
<linearGradient id="paint5_linear" x1="12.2413" y1="65.281" x2="12.8572" y2="52.8815" gradientUnits="userSpaceOnUse">
<stop stop-color="#AB85FF"/>
<stop offset="0.526042" stop-color="#EBA3E3"/>
<stop offset="1" stop-color="#FFDBE4"/>
</linearGradient>
<clipPath id="clip0">
<rect width="30" height="29.1429" fill="white" transform="translate(117.082 0.0551758)"/>
</clipPath>
</defs>
</svg>
