<svg width="205" height="91" viewBox="0 0 205 91" fill="none" xmlns="http://www.w3.org/2000/svg">
<path d="M17.7036 0.555176H107.704V80.0552H17.7036M17.7036 0.555176V80.0552M17.7036 0.555176L1.20361 5.55518V74.0552L17.7036 80.0552" stroke="url(#paint0_linear)"/>
<path d="M94.4853 55.0552H134.204V90.0552H94.4853M94.4853 55.0552V90.0552M94.4853 55.0552L87.2036 57.2564V87.4137L94.4853 90.0552" stroke="url(#paint1_linear)"/>
<path d="M192.429 8.55518H128.204V65.5552H192.429M192.429 8.55518V65.5552M192.429 8.55518L204.204 12.1401V61.2533L192.429 65.5552" stroke="url(#paint2_linear)"/>
<g clip-path="url(#clip0)">
<path d="M172.747 33.8876H170.305C170.101 33.2382 169.833 32.611 169.507 32.0136L171.232 30.3379C171.601 29.9793 171.805 29.5016 171.805 28.9929C171.805 28.4848 171.601 28.0071 171.232 27.6485L169.386 25.8556C168.649 25.1391 167.358 25.1372 166.619 25.8556L164.894 27.5313C164.279 27.2152 163.633 26.9554 162.964 26.7558V24.3845C162.964 23.3366 162.087 22.4839 161.008 22.4839H158.399C157.321 22.4839 156.443 23.3366 156.443 24.3845V26.7565C155.774 26.956 155.129 27.2158 154.514 27.5319L152.788 25.8562C152.025 25.115 150.783 25.115 150.02 25.8562L148.174 27.6491C147.411 28.3904 147.411 29.5966 148.174 30.3379L149.899 32.0142C149.573 32.611 149.306 33.2389 149.101 33.8882H146.66C145.581 33.8882 144.704 34.741 144.704 35.7889V38.323C144.704 39.3703 145.581 40.223 146.66 40.223H149.102C149.307 40.8724 149.575 41.4996 149.9 42.097L148.175 43.7734C147.412 44.5146 147.412 45.7209 148.175 46.4621L150.021 48.2557C150.784 48.9963 152.026 48.9963 152.789 48.2557L154.514 46.58C155.129 46.8961 155.775 47.1558 156.443 47.3554V49.7261C156.443 50.774 157.321 51.6267 158.4 51.6267H161.009C162.087 51.6267 162.965 50.774 162.965 49.7261V47.3541C163.634 47.1546 164.28 46.8948 164.894 46.5787L166.619 48.255C167.359 48.9728 168.65 48.9716 169.387 48.255L171.233 46.4621C171.602 46.1035 171.805 45.6258 171.805 45.1178C171.805 44.609 171.602 44.132 171.233 43.7734L169.508 42.097C169.833 41.5002 170.101 40.8724 170.306 40.223H172.747C173.826 40.223 174.704 39.3703 174.704 38.3224V35.7882C174.704 34.7404 173.826 33.8876 172.747 33.8876ZM173.399 38.3224C173.399 38.6715 173.107 38.9559 172.747 38.9559H169.812C169.515 38.9559 169.255 39.1517 169.181 39.4311C168.95 40.2959 168.599 41.1214 168.135 41.8842C167.984 42.1331 168.025 42.4499 168.235 42.6539L170.309 44.6692C170.432 44.7883 170.5 44.9473 170.5 45.1178C170.5 45.2882 170.432 45.4472 170.309 45.5663L168.464 47.3592C168.218 47.5974 167.786 47.5974 167.54 47.3592L165.466 45.3446C165.256 45.1399 164.93 45.1006 164.673 45.247C163.889 45.6968 163.039 46.0389 162.149 46.2626C161.862 46.3341 161.66 46.5863 161.66 46.8752V49.7261C161.66 50.0752 161.368 50.3597 161.008 50.3597H158.399C158.04 50.3597 157.747 50.0752 157.747 49.7261V46.8752C157.747 46.5863 157.546 46.3341 157.258 46.2619C156.368 46.0383 155.518 45.6968 154.733 45.2464C154.63 45.1868 154.516 45.1583 154.401 45.1583C154.233 45.1583 154.066 45.2216 153.94 45.3439L151.866 47.3586C151.611 47.6057 151.197 47.6057 150.942 47.3586L149.097 45.5657C148.842 45.3179 148.842 44.9156 149.097 44.6686L151.171 42.6539C151.381 42.4493 151.422 42.1325 151.271 41.8842C150.808 41.1214 150.456 40.2965 150.226 39.4311C150.152 39.1517 149.892 38.9559 149.595 38.9559H146.66C146.301 38.9559 146.008 38.6715 146.008 38.3224V35.7882C146.008 35.4392 146.301 35.1547 146.66 35.1547H149.595C149.892 35.1547 150.152 34.9589 150.226 34.6795C150.456 33.8148 150.808 32.9893 151.272 32.2265C151.423 31.9775 151.382 31.6607 151.171 31.4567L149.097 29.4421C148.843 29.195 148.843 28.7927 149.097 28.545L150.943 26.752C151.198 26.5043 151.611 26.505 151.866 26.752L153.94 28.7667C154.151 28.9713 154.476 29.0119 154.733 28.8643C155.518 28.4145 156.367 28.0723 157.258 27.8487C157.546 27.7765 157.747 27.5243 157.747 27.2354V24.3845C157.747 24.0354 158.04 23.751 158.399 23.751H161.008C161.368 23.751 161.66 24.0354 161.66 24.3845V27.2354C161.66 27.5243 161.862 27.7765 162.149 27.8487C163.04 28.0723 163.89 28.4145 164.674 28.8643C164.931 29.0113 165.257 28.972 165.467 28.7667L167.541 26.752C167.787 26.5126 168.219 26.5132 168.464 26.752L170.31 28.545C170.433 28.6641 170.5 28.8237 170.5 28.9935C170.5 29.1633 170.433 29.323 170.31 29.4421L168.236 31.4567C168.026 31.6614 167.984 31.9781 168.136 32.2265C168.599 32.9893 168.951 33.8141 169.182 34.6795C169.255 34.9589 169.515 35.1547 169.812 35.1547H172.747C173.107 35.1547 173.399 35.4392 173.399 35.7882V38.3224Z" fill="url(#paint3_linear)"/>
<path d="M159.704 31.3535C156.468 31.3535 153.834 33.9118 153.834 37.0554C153.834 40.199 156.468 42.7572 159.704 42.7572C162.941 42.7572 165.574 40.199 165.574 37.0554C165.574 33.9118 162.941 31.3535 159.704 31.3535ZM159.704 41.4902C157.187 41.4902 155.139 39.5008 155.139 37.0554C155.139 34.6099 157.187 32.6206 159.704 32.6206C162.221 32.6206 164.269 34.6099 164.269 37.0554C164.269 39.5008 162.221 41.4902 159.704 41.4902Z" fill="url(#paint4_linear)"/>
</g>
<rect x="34.978" y="32.4302" width="58.1347" height="9.25" stroke="url(#paint5_linear)"/>
<rect x="34.978" y="32.4302" width="33.265" height="9.25" fill="url(#paint6_linear)" stroke="url(#paint7_linear)"/>
<defs>
<linearGradient id="paint0_linear" x1="-16.1204" y1="87.9948" x2="65.8734" y2="-53.9926" gradientUnits="userSpaceOnUse">
<stop stop-color="#AB85FF"/>
<stop offset="0.526042" stop-color="#EBA3E3"/>
<stop offset="1" stop-color="#FFDBE4"/>
</linearGradient>
<linearGradient id="paint1_linear" x1="79.5583" y1="93.5506" x2="115.613" y2="30.9651" gradientUnits="userSpaceOnUse">
<stop stop-color="#AB85FF"/>
<stop offset="0.526042" stop-color="#EBA3E3"/>
<stop offset="1" stop-color="#FFDBE4"/>
</linearGradient>
<linearGradient id="paint2_linear" x1="216.566" y1="71.2477" x2="157.64" y2="-30.3144" gradientUnits="userSpaceOnUse">
<stop stop-color="#AB85FF"/>
<stop offset="0.526042" stop-color="#EBA3E3"/>
<stop offset="1" stop-color="#FFDBE4"/>
</linearGradient>
<linearGradient id="paint3_linear" x1="139.824" y1="54.5372" x2="173.157" y2="10.1808" gradientUnits="userSpaceOnUse">
<stop stop-color="#AB85FF"/>
<stop offset="0.526042" stop-color="#EBA3E3"/>
<stop offset="1" stop-color="#FFDBE4"/>
</linearGradient>
<linearGradient id="paint4_linear" x1="151.925" y1="43.8961" x2="164.968" y2="26.5393" gradientUnits="userSpaceOnUse">
<stop stop-color="#AB85FF"/>
<stop offset="0.526042" stop-color="#EBA3E3"/>
<stop offset="1" stop-color="#FFDBE4"/>
</linearGradient>
<linearGradient id="paint5_linear" x1="24.8588" y1="43.2038" x2="28.0743" y2="19.2237" gradientUnits="userSpaceOnUse">
<stop stop-color="#AB85FF"/>
<stop offset="0.526042" stop-color="#EBA3E3"/>
<stop offset="1" stop-color="#FFDBE4"/>
</linearGradient>
<linearGradient id="paint6_linear" x1="28.9042" y1="43.2038" x2="34.2662" y2="20.0333" gradientUnits="userSpaceOnUse">
<stop stop-color="#AB85FF"/>
<stop offset="0.526042" stop-color="#EBA3E3"/>
<stop offset="1" stop-color="#FFDBE4"/>
</linearGradient>
<linearGradient id="paint7_linear" x1="28.9042" y1="43.2038" x2="34.2662" y2="20.0333" gradientUnits="userSpaceOnUse">
<stop stop-color="#AB85FF"/>
<stop offset="0.526042" stop-color="#EBA3E3"/>
<stop offset="1" stop-color="#FFDBE4"/>
</linearGradient>
<clipPath id="clip0">
<rect width="30" height="29.1429" fill="white" transform="translate(144.704 22.4839)"/>
</clipPath>
</defs>
</svg>
