<svg width="162" height="87" viewBox="0 0 162 87" fill="none" xmlns="http://www.w3.org/2000/svg">
<rect x="91.4188" y="24.2557" width="32.2101" height="44.1089" fill="white"/>
<rect x="94.8631" y="30.2059" width="24.7399" height="2.50531" stroke="url(#paint0_linear)" stroke-width="0.313163"/>
<rect x="94.8631" y="36.1561" width="24.7399" height="2.50531" stroke="url(#paint1_linear)" stroke-width="0.313163"/>
<rect x="94.8631" y="42.1058" width="24.7399" height="2.50531" stroke="url(#paint2_linear)" stroke-width="0.313163"/>
<rect x="94.8631" y="48.056" width="24.7399" height="2.50531" stroke="url(#paint3_linear)" stroke-width="0.313163"/>
<rect x="94.8631" y="54.0057" width="24.7399" height="2.50531" stroke="url(#paint4_linear)" stroke-width="0.313163"/>
<rect x="94.8631" y="59.9559" width="24.7399" height="2.50531" stroke="url(#paint5_linear)" stroke-width="0.313163"/>
<rect x="91.4188" y="24.2557" width="32.2101" height="44.1089" stroke="url(#paint6_linear)" stroke-width="0.313163"/>
<rect x="57.401" y="17.2589" width="40.6052" height="55.6052" fill="white"/>
<rect x="61.7433" y="24.7599" width="31.188" height="3.15828" stroke="url(#paint7_linear)" stroke-width="0.394785"/>
<rect x="61.7433" y="32.2609" width="31.188" height="3.15828" stroke="url(#paint8_linear)" stroke-width="0.394785"/>
<rect x="61.7433" y="39.7618" width="31.188" height="3.15828" stroke="url(#paint9_linear)" stroke-width="0.394785"/>
<rect x="61.7433" y="47.2623" width="31.188" height="3.15828" stroke="url(#paint10_linear)" stroke-width="0.394785"/>
<rect x="61.7433" y="54.7638" width="31.188" height="3.15828" stroke="url(#paint11_linear)" stroke-width="0.394785"/>
<rect x="61.7433" y="62.2648" width="31.188" height="3.15828" stroke="url(#paint12_linear)" stroke-width="0.394785"/>
<rect x="57.401" y="17.2589" width="40.6052" height="55.6052" stroke="url(#paint13_linear)" stroke-width="0.394785"/>
<rect x="0.508284" y="0.304671" width="62.3907" height="86.3907" fill="white"/>
<rect x="7.21092" y="11.8823" width="48.138" height="4.87473" stroke="url(#paint14_linear)" stroke-width="0.609342"/>
<rect x="7.21092" y="23.4595" width="48.138" height="4.87473" stroke="url(#paint15_linear)" stroke-width="0.609342"/>
<rect x="7.21092" y="35.0371" width="48.138" height="4.87473" stroke="url(#paint16_linear)" stroke-width="0.609342"/>
<rect x="7.21092" y="46.6147" width="48.138" height="4.87473" stroke="url(#paint17_linear)" stroke-width="0.609342"/>
<rect x="7.21092" y="58.1914" width="48.138" height="4.87473" stroke="url(#paint18_linear)" stroke-width="0.609342"/>
<rect x="7.21092" y="69.7685" width="48.138" height="4.87473" stroke="url(#paint19_linear)" stroke-width="0.609342"/>
<rect x="0.508284" y="0.304671" width="62.3907" height="86.3907" stroke="url(#paint20_linear)" stroke-width="0.609342"/>
<path d="M123.274 59.5626C122.941 59.5626 122.615 59.4303 122.374 59.1913C122.074 58.8912 121.941 58.4589 122.025 58.0418L123.823 49.0494C123.874 48.8027 123.991 48.5763 124.172 48.4009L151.146 21.4261C153.626 18.9465 157.659 18.9465 160.136 21.4261C161.339 22.6264 162 24.2235 162 25.9223C162 27.6211 161.339 29.2182 160.139 30.4185L133.164 57.3933C132.989 57.5713 132.762 57.6909 132.513 57.7417L123.523 59.5372C123.442 59.555 123.358 59.5626 123.274 59.5626ZM129.52 52.2426L149.173 30.851C149.896 30.1288 153.066 27.6129 154.836 26.1396C156.377 24.8581 157.201 24.1722 158.341 23.224C159.826 21.7363 159.457 22.1057 158.341 23.224L129.52 52.2426Z" fill="url(#paint21_linear)"/>
<defs>
<linearGradient id="paint0_linear" x1="90.6312" y1="33.1493" x2="91.211" y2="26.4873" gradientUnits="userSpaceOnUse">
<stop stop-color="#AB85FF"/>
<stop offset="0.526042" stop-color="#EBA3E3"/>
<stop offset="1" stop-color="#FFDBE4"/>
</linearGradient>
<linearGradient id="paint1_linear" x1="90.6312" y1="39.0995" x2="91.211" y2="32.4375" gradientUnits="userSpaceOnUse">
<stop stop-color="#AB85FF"/>
<stop offset="0.526042" stop-color="#EBA3E3"/>
<stop offset="1" stop-color="#FFDBE4"/>
</linearGradient>
<linearGradient id="paint2_linear" x1="90.6312" y1="45.0492" x2="91.211" y2="38.3872" gradientUnits="userSpaceOnUse">
<stop stop-color="#AB85FF"/>
<stop offset="0.526042" stop-color="#EBA3E3"/>
<stop offset="1" stop-color="#FFDBE4"/>
</linearGradient>
<linearGradient id="paint3_linear" x1="90.6312" y1="50.9994" x2="91.211" y2="44.3374" gradientUnits="userSpaceOnUse">
<stop stop-color="#AB85FF"/>
<stop offset="0.526042" stop-color="#EBA3E3"/>
<stop offset="1" stop-color="#FFDBE4"/>
</linearGradient>
<linearGradient id="paint4_linear" x1="90.6312" y1="56.9491" x2="91.211" y2="50.2871" gradientUnits="userSpaceOnUse">
<stop stop-color="#AB85FF"/>
<stop offset="0.526042" stop-color="#EBA3E3"/>
<stop offset="1" stop-color="#FFDBE4"/>
</linearGradient>
<linearGradient id="paint5_linear" x1="90.6312" y1="62.8993" x2="91.211" y2="56.2373" gradientUnits="userSpaceOnUse">
<stop stop-color="#AB85FF"/>
<stop offset="0.526042" stop-color="#EBA3E3"/>
<stop offset="1" stop-color="#FFDBE4"/>
</linearGradient>
<linearGradient id="paint6_linear" x1="85.9718" y1="72.9576" x2="138.789" y2="22.9703" gradientUnits="userSpaceOnUse">
<stop stop-color="#AB85FF"/>
<stop offset="0.526042" stop-color="#EBA3E3"/>
<stop offset="1" stop-color="#FFDBE4"/>
</linearGradient>
<linearGradient id="paint7_linear" x1="56.4084" y1="28.4704" x2="57.1393" y2="20.0721" gradientUnits="userSpaceOnUse">
<stop stop-color="#AB85FF"/>
<stop offset="0.526042" stop-color="#EBA3E3"/>
<stop offset="1" stop-color="#FFDBE4"/>
</linearGradient>
<linearGradient id="paint8_linear" x1="56.4084" y1="35.9714" x2="57.1393" y2="27.573" gradientUnits="userSpaceOnUse">
<stop stop-color="#AB85FF"/>
<stop offset="0.526042" stop-color="#EBA3E3"/>
<stop offset="1" stop-color="#FFDBE4"/>
</linearGradient>
<linearGradient id="paint9_linear" x1="56.4084" y1="43.4724" x2="57.1393" y2="35.074" gradientUnits="userSpaceOnUse">
<stop stop-color="#AB85FF"/>
<stop offset="0.526042" stop-color="#EBA3E3"/>
<stop offset="1" stop-color="#FFDBE4"/>
</linearGradient>
<linearGradient id="paint10_linear" x1="56.4084" y1="50.9728" x2="57.1393" y2="42.5745" gradientUnits="userSpaceOnUse">
<stop stop-color="#AB85FF"/>
<stop offset="0.526042" stop-color="#EBA3E3"/>
<stop offset="1" stop-color="#FFDBE4"/>
</linearGradient>
<linearGradient id="paint11_linear" x1="56.4084" y1="58.4743" x2="57.1393" y2="50.076" gradientUnits="userSpaceOnUse">
<stop stop-color="#AB85FF"/>
<stop offset="0.526042" stop-color="#EBA3E3"/>
<stop offset="1" stop-color="#FFDBE4"/>
</linearGradient>
<linearGradient id="paint12_linear" x1="56.4084" y1="65.9753" x2="57.1393" y2="57.577" gradientUnits="userSpaceOnUse">
<stop stop-color="#AB85FF"/>
<stop offset="0.526042" stop-color="#EBA3E3"/>
<stop offset="1" stop-color="#FFDBE4"/>
</linearGradient>
<linearGradient id="paint13_linear" x1="50.5343" y1="78.6542" x2="117.118" y2="15.6385" gradientUnits="userSpaceOnUse">
<stop stop-color="#AB85FF"/>
<stop offset="0.526042" stop-color="#EBA3E3"/>
<stop offset="1" stop-color="#FFDBE4"/>
</linearGradient>
<linearGradient id="paint14_linear" x1="-1.02332" y1="17.6094" x2="0.104811" y2="4.64675" gradientUnits="userSpaceOnUse">
<stop stop-color="#AB85FF"/>
<stop offset="0.526042" stop-color="#EBA3E3"/>
<stop offset="1" stop-color="#FFDBE4"/>
</linearGradient>
<linearGradient id="paint15_linear" x1="-1.02332" y1="29.1866" x2="0.104811" y2="16.2239" gradientUnits="userSpaceOnUse">
<stop stop-color="#AB85FF"/>
<stop offset="0.526042" stop-color="#EBA3E3"/>
<stop offset="1" stop-color="#FFDBE4"/>
</linearGradient>
<linearGradient id="paint16_linear" x1="-1.02332" y1="40.7642" x2="0.104811" y2="27.8015" gradientUnits="userSpaceOnUse">
<stop stop-color="#AB85FF"/>
<stop offset="0.526042" stop-color="#EBA3E3"/>
<stop offset="1" stop-color="#FFDBE4"/>
</linearGradient>
<linearGradient id="paint17_linear" x1="-1.02332" y1="52.3418" x2="0.104811" y2="39.3792" gradientUnits="userSpaceOnUse">
<stop stop-color="#AB85FF"/>
<stop offset="0.526042" stop-color="#EBA3E3"/>
<stop offset="1" stop-color="#FFDBE4"/>
</linearGradient>
<linearGradient id="paint18_linear" x1="-1.02332" y1="63.9185" x2="0.104811" y2="50.9558" gradientUnits="userSpaceOnUse">
<stop stop-color="#AB85FF"/>
<stop offset="0.526042" stop-color="#EBA3E3"/>
<stop offset="1" stop-color="#FFDBE4"/>
</linearGradient>
<linearGradient id="paint19_linear" x1="-1.02332" y1="75.4956" x2="0.104811" y2="62.533" gradientUnits="userSpaceOnUse">
<stop stop-color="#AB85FF"/>
<stop offset="0.526042" stop-color="#EBA3E3"/>
<stop offset="1" stop-color="#FFDBE4"/>
</linearGradient>
<linearGradient id="paint20_linear" x1="-10.0444" y1="95.6886" x2="93.3292" y2="-1.07606" gradientUnits="userSpaceOnUse">
<stop stop-color="#AB85FF"/>
<stop offset="0.526042" stop-color="#EBA3E3"/>
<stop offset="1" stop-color="#FFDBE4"/>
</linearGradient>
<linearGradient id="paint21_linear" x1="115.494" y1="63.557" x2="161.593" y2="3.96086" gradientUnits="userSpaceOnUse">
<stop stop-color="#AB85FF"/>
<stop offset="0.526042" stop-color="#EBA3E3"/>
<stop offset="1" stop-color="#FFDBE4"/>
</linearGradient>
</defs>
</svg>
