<svg width="253" height="92" viewBox="0 0 253 92" fill="none" xmlns="http://www.w3.org/2000/svg">
<rect x="0.5" y="0.752441" width="63" height="79" fill="white"/>
<rect x="7.5" y="18.7524" width="50" height="7" stroke="url(#paint0_linear)"/>
<rect x="7.5" y="36.7524" width="50" height="7" stroke="url(#paint1_linear)"/>
<rect x="7.5" y="54.7524" width="50" height="7" stroke="url(#paint2_linear)"/>
<rect x="0.5" y="0.752441" width="63" height="79" stroke="url(#paint3_linear)"/>
<g clip-path="url(#clip0)">
<path d="M77.0435 73.6562H74.6017C74.397 73.0068 74.1289 72.3796 73.8035 71.7822L75.5285 70.1064C75.8976 69.7479 76.1011 69.2702 76.1011 68.7614C76.1011 68.2533 75.8976 67.7756 75.5285 67.4171L73.6828 65.6241C72.9452 64.9076 71.6539 64.9057 70.915 65.6241L69.19 67.2999C68.5757 66.9837 67.9293 66.724 67.2609 66.5244V64.1531C67.2609 63.1052 66.383 62.2524 65.3043 62.2524H62.6957C61.617 62.2524 60.7391 63.1052 60.7391 64.1531V66.525C60.0707 66.7246 59.425 66.9844 58.81 67.3005L57.0843 65.6248C56.3213 64.8835 55.0796 64.8835 54.3165 65.6248L52.4702 67.4177C51.7078 68.1589 51.7078 69.3652 52.4702 70.1064L54.1952 71.7828C53.8698 72.3796 53.6024 73.0074 53.397 73.6568H50.9565C49.8778 73.6568 49 74.5095 49 75.5574V78.0916C49 79.1388 49.8778 79.9916 50.9565 79.9916H53.3983C53.6037 80.6409 53.8711 81.2682 54.1965 81.8656L52.4715 83.5419C51.7085 84.2832 51.7085 85.4894 52.4715 86.2307L54.3172 88.0242C55.0802 88.7648 56.322 88.7648 57.085 88.0242L58.8107 86.3485C59.425 86.6647 60.0713 86.9244 60.7398 87.124V89.4947C60.7398 90.5426 61.6176 91.3953 62.6963 91.3953H65.305C66.3837 91.3953 67.2615 90.5426 67.2615 89.4947V87.1227C67.93 86.9231 68.5763 86.6634 69.1907 86.3472L70.9157 88.0236C71.6552 88.7414 72.9465 88.7401 73.6835 88.0236L75.5291 86.2307C75.8983 85.8721 76.1017 85.3944 76.1017 84.8863C76.1017 84.3776 75.8983 83.9005 75.5291 83.5419L73.8041 81.8656C74.1296 81.2688 74.397 80.6409 74.6024 79.9916H77.0435C78.1222 79.9916 79 79.1388 79 78.091V75.5568C79 74.5089 78.1222 73.6562 77.0435 73.6562ZM77.6957 78.091C77.6957 78.44 77.4035 78.7245 77.0435 78.7245H74.1087C73.8113 78.7245 73.5517 78.9203 73.4774 79.1996C73.2465 80.0644 72.895 80.8899 72.4313 81.6527C72.2807 81.9017 72.3217 82.2185 72.5317 82.4225L74.6057 84.4378C74.7283 84.5569 74.7961 84.7159 74.7961 84.8863C74.7961 85.0567 74.7283 85.2157 74.6057 85.3348L72.76 87.1278C72.5148 87.366 72.0824 87.366 71.8365 87.1278L69.7626 85.1131C69.5526 84.9085 69.2265 84.8692 68.9696 85.0155C68.1857 85.4654 67.3359 85.8075 66.445 86.0311C66.158 86.1027 65.9565 86.3548 65.9565 86.6437V89.4947C65.9565 89.8438 65.6643 90.1282 65.3043 90.1282H62.6957C62.3363 90.1282 62.0435 89.8438 62.0435 89.4947V86.6437C62.0435 86.3548 61.842 86.1027 61.5543 86.0305C60.6641 85.8068 59.8143 85.4654 59.0291 85.0149C58.9261 84.9554 58.812 84.9269 58.6978 84.9269C58.5289 84.9269 58.362 84.9902 58.2361 85.1125L56.1622 87.1271C55.9072 87.3742 55.4937 87.3742 55.2387 87.1271L53.393 85.3342C53.138 85.0865 53.138 84.6842 53.393 84.4371L55.467 82.4225C55.6776 82.2178 55.7187 81.9011 55.5674 81.6527C55.1043 80.8899 54.7522 80.0651 54.522 79.1996C54.4483 78.9203 54.1887 78.7245 53.8913 78.7245H50.9565C50.5972 78.7245 50.3043 78.44 50.3043 78.091V75.5568C50.3043 75.2077 50.5972 74.9232 50.9565 74.9232H53.8913C54.1887 74.9232 54.4483 74.7275 54.5226 74.4481C54.7528 73.5833 55.1043 72.7578 55.568 71.995C55.7193 71.746 55.6783 71.4293 55.4676 71.2253L53.3937 69.2106C53.1393 68.9635 53.1393 68.5612 53.3937 68.3135L55.2393 66.5206C55.4943 66.2729 55.9078 66.2735 56.1628 66.5206L58.2367 68.5353C58.4474 68.7399 58.7728 68.7804 59.0291 68.6328C59.8143 68.183 60.6635 67.8409 61.5543 67.6173C61.842 67.545 62.0435 67.2929 62.0435 67.004V64.1531C62.0435 63.804 62.3363 63.5195 62.6957 63.5195H65.3043C65.6643 63.5195 65.9565 63.804 65.9565 64.1531V67.004C65.9565 67.2929 66.158 67.545 66.4457 67.6173C67.3365 67.8409 68.1863 68.183 68.9702 68.6328C69.2272 68.7798 69.5533 68.7405 69.7633 68.5353L71.8372 66.5206C72.083 66.2811 72.5154 66.2818 72.7607 66.5206L74.6063 68.3135C74.7289 68.4326 74.7967 68.5923 74.7967 68.7621C74.7967 68.9319 74.7289 69.0915 74.6063 69.2106L72.5324 71.2253C72.3224 71.4299 72.2807 71.7467 72.432 71.995C72.8957 72.7578 73.2472 73.5827 73.478 74.4481C73.5517 74.7275 73.8113 74.9232 74.1087 74.9232H77.0435C77.4035 74.9232 77.6957 75.2077 77.6957 75.5568V78.091Z" fill="url(#paint4_linear)"/>
<path d="M64.0004 71.1221C60.7643 71.1221 58.1309 73.6803 58.1309 76.8239C58.1309 79.9676 60.7643 82.5258 64.0004 82.5258C67.2372 82.5258 69.87 79.9676 69.87 76.8239C69.87 73.6803 67.2372 71.1221 64.0004 71.1221ZM64.0004 81.2587C61.483 81.2587 59.4352 79.2694 59.4352 76.8239C59.4352 74.3785 61.483 72.3892 64.0004 72.3892C66.5172 72.3892 68.5656 74.3785 68.5656 76.8239C68.5656 79.2694 66.5172 81.2587 64.0004 81.2587Z" fill="url(#paint5_linear)"/>
</g>
<rect x="87.5" y="0.752441" width="63" height="79" fill="white"/>
<rect x="94.5" y="18.7524" width="50" height="7" stroke="url(#paint6_linear)"/>
<rect x="94.5" y="36.7524" width="50" height="7" stroke="url(#paint7_linear)"/>
<rect x="94.5" y="54.7524" width="50" height="7" stroke="url(#paint8_linear)"/>
<rect x="87.5" y="0.752441" width="63" height="79" stroke="url(#paint9_linear)"/>
<g clip-path="url(#clip1)">
<path d="M164.043 73.6562H161.602C161.397 73.0068 161.129 72.3796 160.803 71.7822L162.528 70.1064C162.898 69.7479 163.101 69.2702 163.101 68.7614C163.101 68.2533 162.898 67.7756 162.528 67.4171L160.683 65.6241C159.945 64.9076 158.654 64.9057 157.915 65.6241L156.19 67.2999C155.576 66.9837 154.929 66.724 154.261 66.5244V64.1531C154.261 63.1052 153.383 62.2524 152.304 62.2524H149.696C148.617 62.2524 147.739 63.1052 147.739 64.1531V66.525C147.071 66.7246 146.425 66.9844 145.81 67.3005L144.084 65.6248C143.321 64.8835 142.08 64.8835 141.317 65.6248L139.47 67.4177C138.708 68.1589 138.708 69.3652 139.47 70.1064L141.195 71.7828C140.87 72.3796 140.602 73.0074 140.397 73.6568H137.957C136.878 73.6568 136 74.5095 136 75.5574V78.0916C136 79.1388 136.878 79.9916 137.957 79.9916H140.398C140.604 80.6409 140.871 81.2682 141.197 81.8656L139.472 83.5419C138.708 84.2832 138.708 85.4894 139.472 86.2307L141.317 88.0242C142.08 88.7648 143.322 88.7648 144.085 88.0242L145.811 86.3485C146.425 86.6647 147.071 86.9244 147.74 87.124V89.4947C147.74 90.5426 148.618 91.3953 149.696 91.3953H152.305C153.384 91.3953 154.262 90.5426 154.262 89.4947V87.1227C154.93 86.9231 155.576 86.6634 156.191 86.3472L157.916 88.0236C158.655 88.7414 159.947 88.7401 160.683 88.0236L162.529 86.2307C162.898 85.8721 163.102 85.3944 163.102 84.8863C163.102 84.3776 162.898 83.9005 162.529 83.5419L160.804 81.8656C161.13 81.2688 161.397 80.6409 161.602 79.9916H164.043C165.122 79.9916 166 79.1388 166 78.091V75.5568C166 74.5089 165.122 73.6562 164.043 73.6562ZM164.696 78.091C164.696 78.44 164.403 78.7245 164.043 78.7245H161.109C160.811 78.7245 160.552 78.9203 160.477 79.1996C160.247 80.0644 159.895 80.8899 159.431 81.6527C159.281 81.9017 159.322 82.2185 159.532 82.4225L161.606 84.4378C161.728 84.5569 161.796 84.7159 161.796 84.8863C161.796 85.0567 161.728 85.2157 161.606 85.3348L159.76 87.1278C159.515 87.366 159.082 87.366 158.837 87.1278L156.763 85.1131C156.553 84.9085 156.227 84.8692 155.97 85.0155C155.186 85.4654 154.336 85.8075 153.445 86.0311C153.158 86.1027 152.957 86.3548 152.957 86.6437V89.4947C152.957 89.8438 152.664 90.1282 152.304 90.1282H149.696C149.336 90.1282 149.043 89.8438 149.043 89.4947V86.6437C149.043 86.3548 148.842 86.1027 148.554 86.0305C147.664 85.8068 146.814 85.4654 146.029 85.0149C145.926 84.9554 145.812 84.9269 145.698 84.9269C145.529 84.9269 145.362 84.9902 145.236 85.1125L143.162 87.1271C142.907 87.3742 142.494 87.3742 142.239 87.1271L140.393 85.3342C140.138 85.0865 140.138 84.6842 140.393 84.4371L142.467 82.4225C142.678 82.2178 142.719 81.9011 142.567 81.6527C142.104 80.8899 141.752 80.0651 141.522 79.1996C141.448 78.9203 141.189 78.7245 140.891 78.7245H137.957C137.597 78.7245 137.304 78.44 137.304 78.091V75.5568C137.304 75.2077 137.597 74.9232 137.957 74.9232H140.891C141.189 74.9232 141.448 74.7275 141.523 74.4481C141.753 73.5833 142.104 72.7578 142.568 71.995C142.719 71.746 142.678 71.4293 142.468 71.2253L140.394 69.2106C140.139 68.9635 140.139 68.5612 140.394 68.3135L142.239 66.5206C142.494 66.2729 142.908 66.2735 143.163 66.5206L145.237 68.5353C145.447 68.7399 145.773 68.7804 146.029 68.6328C146.814 68.183 147.663 67.8409 148.554 67.6173C148.842 67.545 149.043 67.2929 149.043 67.004V64.1531C149.043 63.804 149.336 63.5195 149.696 63.5195H152.304C152.664 63.5195 152.957 63.804 152.957 64.1531V67.004C152.957 67.2929 153.158 67.545 153.446 67.6173C154.337 67.8409 155.186 68.183 155.97 68.6328C156.227 68.7798 156.553 68.7405 156.763 68.5353L158.837 66.5206C159.083 66.2811 159.515 66.2818 159.761 66.5206L161.606 68.3135C161.729 68.4326 161.797 68.5923 161.797 68.7621C161.797 68.9319 161.729 69.0915 161.606 69.2106L159.532 71.2253C159.322 71.4299 159.281 71.7467 159.432 71.995C159.896 72.7578 160.247 73.5827 160.478 74.4481C160.552 74.7275 160.811 74.9232 161.109 74.9232H164.043C164.403 74.9232 164.696 75.2077 164.696 75.5568V78.091Z" fill="url(#paint10_linear)"/>
<path d="M151 71.1221C147.764 71.1221 145.131 73.6803 145.131 76.8239C145.131 79.9676 147.764 82.5258 151 82.5258C154.237 82.5258 156.87 79.9676 156.87 76.8239C156.87 73.6803 154.237 71.1221 151 71.1221ZM151 81.2587C148.483 81.2587 146.435 79.2694 146.435 76.8239C146.435 74.3785 148.483 72.3892 151 72.3892C153.517 72.3892 155.566 74.3785 155.566 76.8239C155.566 79.2694 153.517 81.2587 151 81.2587Z" fill="url(#paint11_linear)"/>
</g>
<rect x="174.5" y="0.752441" width="63" height="79" fill="white"/>
<rect x="181.5" y="18.7524" width="50" height="7" stroke="url(#paint12_linear)"/>
<rect x="181.5" y="36.7524" width="50" height="7" stroke="url(#paint13_linear)"/>
<rect x="181.5" y="54.7524" width="50" height="7" stroke="url(#paint14_linear)"/>
<rect x="174.5" y="0.752441" width="63" height="79" stroke="url(#paint15_linear)"/>
<g clip-path="url(#clip2)">
<path d="M251.043 73.6562H248.602C248.397 73.0068 248.129 72.3796 247.803 71.7822L249.528 70.1064C249.898 69.7479 250.101 69.2702 250.101 68.7614C250.101 68.2533 249.898 67.7756 249.528 67.4171L247.683 65.6241C246.945 64.9076 245.654 64.9057 244.915 65.6241L243.19 67.2999C242.576 66.9837 241.929 66.724 241.261 66.5244V64.1531C241.261 63.1052 240.383 62.2524 239.304 62.2524H236.696C235.617 62.2524 234.739 63.1052 234.739 64.1531V66.525C234.071 66.7246 233.425 66.9844 232.81 67.3005L231.084 65.6248C230.321 64.8835 229.08 64.8835 228.317 65.6248L226.47 67.4177C225.708 68.1589 225.708 69.3652 226.47 70.1064L228.195 71.7828C227.87 72.3796 227.602 73.0074 227.397 73.6568H224.957C223.878 73.6568 223 74.5095 223 75.5574V78.0916C223 79.1388 223.878 79.9916 224.957 79.9916H227.398C227.604 80.6409 227.871 81.2682 228.197 81.8656L226.472 83.5419C225.708 84.2832 225.708 85.4894 226.472 86.2307L228.317 88.0242C229.08 88.7648 230.322 88.7648 231.085 88.0242L232.811 86.3485C233.425 86.6647 234.071 86.9244 234.74 87.124V89.4947C234.74 90.5426 235.618 91.3953 236.696 91.3953H239.305C240.384 91.3953 241.262 90.5426 241.262 89.4947V87.1227C241.93 86.9231 242.576 86.6634 243.191 86.3472L244.916 88.0236C245.655 88.7414 246.947 88.7401 247.683 88.0236L249.529 86.2307C249.898 85.8721 250.102 85.3944 250.102 84.8863C250.102 84.3776 249.898 83.9005 249.529 83.5419L247.804 81.8656C248.13 81.2688 248.397 80.6409 248.602 79.9916H251.043C252.122 79.9916 253 79.1388 253 78.091V75.5568C253 74.5089 252.122 73.6562 251.043 73.6562ZM251.696 78.091C251.696 78.44 251.403 78.7245 251.043 78.7245H248.109C247.811 78.7245 247.552 78.9203 247.477 79.1996C247.247 80.0644 246.895 80.8899 246.431 81.6527C246.281 81.9017 246.322 82.2185 246.532 82.4225L248.606 84.4378C248.728 84.5569 248.796 84.7159 248.796 84.8863C248.796 85.0567 248.728 85.2157 248.606 85.3348L246.76 87.1278C246.515 87.366 246.082 87.366 245.837 87.1278L243.763 85.1131C243.553 84.9085 243.227 84.8692 242.97 85.0155C242.186 85.4654 241.336 85.8075 240.445 86.0311C240.158 86.1027 239.957 86.3548 239.957 86.6437V89.4947C239.957 89.8438 239.664 90.1282 239.304 90.1282H236.696C236.336 90.1282 236.043 89.8438 236.043 89.4947V86.6437C236.043 86.3548 235.842 86.1027 235.554 86.0305C234.664 85.8068 233.814 85.4654 233.029 85.0149C232.926 84.9554 232.812 84.9269 232.698 84.9269C232.529 84.9269 232.362 84.9902 232.236 85.1125L230.162 87.1271C229.907 87.3742 229.494 87.3742 229.239 87.1271L227.393 85.3342C227.138 85.0865 227.138 84.6842 227.393 84.4371L229.467 82.4225C229.678 82.2178 229.719 81.9011 229.567 81.6527C229.104 80.8899 228.752 80.0651 228.522 79.1996C228.448 78.9203 228.189 78.7245 227.891 78.7245H224.957C224.597 78.7245 224.304 78.44 224.304 78.091V75.5568C224.304 75.2077 224.597 74.9232 224.957 74.9232H227.891C228.189 74.9232 228.448 74.7275 228.523 74.4481C228.753 73.5833 229.104 72.7578 229.568 71.995C229.719 71.746 229.678 71.4293 229.468 71.2253L227.394 69.2106C227.139 68.9635 227.139 68.5612 227.394 68.3135L229.239 66.5206C229.494 66.2729 229.908 66.2735 230.163 66.5206L232.237 68.5353C232.447 68.7399 232.773 68.7804 233.029 68.6328C233.814 68.183 234.663 67.8409 235.554 67.6173C235.842 67.545 236.043 67.2929 236.043 67.004V64.1531C236.043 63.804 236.336 63.5195 236.696 63.5195H239.304C239.664 63.5195 239.957 63.804 239.957 64.1531V67.004C239.957 67.2929 240.158 67.545 240.446 67.6173C241.337 67.8409 242.186 68.183 242.97 68.6328C243.227 68.7798 243.553 68.7405 243.763 68.5353L245.837 66.5206C246.083 66.2811 246.515 66.2818 246.761 66.5206L248.606 68.3135C248.729 68.4326 248.797 68.5923 248.797 68.7621C248.797 68.9319 248.729 69.0915 248.606 69.2106L246.532 71.2253C246.322 71.4299 246.281 71.7467 246.432 71.995C246.896 72.7578 247.247 73.5827 247.478 74.4481C247.552 74.7275 247.811 74.9232 248.109 74.9232H251.043C251.403 74.9232 251.696 75.2077 251.696 75.5568V78.091Z" fill="url(#paint16_linear)"/>
<path d="M238 71.1221C234.764 71.1221 232.131 73.6803 232.131 76.8239C232.131 79.9676 234.764 82.5258 238 82.5258C241.237 82.5258 243.87 79.9676 243.87 76.8239C243.87 73.6803 241.237 71.1221 238 71.1221ZM238 81.2587C235.483 81.2587 233.435 79.2694 233.435 76.8239C233.435 74.3785 235.483 72.3892 238 72.3892C240.517 72.3892 242.566 74.3785 242.566 76.8239C242.566 79.2694 240.517 81.2587 238 81.2587Z" fill="url(#paint17_linear)"/>
</g>
<defs>
<linearGradient id="paint0_linear" x1="-1.296" y1="27.0514" x2="0.982461" y2="8.27515" gradientUnits="userSpaceOnUse">
<stop stop-color="#AB85FF"/>
<stop offset="0.526042" stop-color="#EBA3E3"/>
<stop offset="1" stop-color="#FFDBE4"/>
</linearGradient>
<linearGradient id="paint1_linear" x1="-1.296" y1="45.0514" x2="0.982461" y2="26.2751" gradientUnits="userSpaceOnUse">
<stop stop-color="#AB85FF"/>
<stop offset="0.526042" stop-color="#EBA3E3"/>
<stop offset="1" stop-color="#FFDBE4"/>
</linearGradient>
<linearGradient id="paint2_linear" x1="-1.296" y1="63.0514" x2="0.982461" y2="44.2751" gradientUnits="userSpaceOnUse">
<stop stop-color="#AB85FF"/>
<stop offset="0.526042" stop-color="#EBA3E3"/>
<stop offset="1" stop-color="#FFDBE4"/>
</linearGradient>
<linearGradient id="paint3_linear" x1="-10.4107" y1="88.242" x2="84.7994" y2="-10.2178" gradientUnits="userSpaceOnUse">
<stop stop-color="#AB85FF"/>
<stop offset="0.526042" stop-color="#EBA3E3"/>
<stop offset="1" stop-color="#FFDBE4"/>
</linearGradient>
<linearGradient id="paint4_linear" x1="44.12" y1="94.3058" x2="77.4536" y2="49.9493" gradientUnits="userSpaceOnUse">
<stop stop-color="#AB85FF"/>
<stop offset="0.526042" stop-color="#EBA3E3"/>
<stop offset="1" stop-color="#FFDBE4"/>
</linearGradient>
<linearGradient id="paint5_linear" x1="56.2213" y1="83.6647" x2="69.2649" y2="66.3078" gradientUnits="userSpaceOnUse">
<stop stop-color="#AB85FF"/>
<stop offset="0.526042" stop-color="#EBA3E3"/>
<stop offset="1" stop-color="#FFDBE4"/>
</linearGradient>
<linearGradient id="paint6_linear" x1="85.704" y1="27.0514" x2="87.9825" y2="8.27515" gradientUnits="userSpaceOnUse">
<stop stop-color="#AB85FF"/>
<stop offset="0.526042" stop-color="#EBA3E3"/>
<stop offset="1" stop-color="#FFDBE4"/>
</linearGradient>
<linearGradient id="paint7_linear" x1="85.704" y1="45.0514" x2="87.9825" y2="26.2751" gradientUnits="userSpaceOnUse">
<stop stop-color="#AB85FF"/>
<stop offset="0.526042" stop-color="#EBA3E3"/>
<stop offset="1" stop-color="#FFDBE4"/>
</linearGradient>
<linearGradient id="paint8_linear" x1="85.704" y1="63.0514" x2="87.9825" y2="44.2751" gradientUnits="userSpaceOnUse">
<stop stop-color="#AB85FF"/>
<stop offset="0.526042" stop-color="#EBA3E3"/>
<stop offset="1" stop-color="#FFDBE4"/>
</linearGradient>
<linearGradient id="paint9_linear" x1="76.5893" y1="88.242" x2="171.799" y2="-10.2178" gradientUnits="userSpaceOnUse">
<stop stop-color="#AB85FF"/>
<stop offset="0.526042" stop-color="#EBA3E3"/>
<stop offset="1" stop-color="#FFDBE4"/>
</linearGradient>
<linearGradient id="paint10_linear" x1="131.12" y1="94.3058" x2="164.454" y2="49.9493" gradientUnits="userSpaceOnUse">
<stop stop-color="#AB85FF"/>
<stop offset="0.526042" stop-color="#EBA3E3"/>
<stop offset="1" stop-color="#FFDBE4"/>
</linearGradient>
<linearGradient id="paint11_linear" x1="143.221" y1="83.6647" x2="156.265" y2="66.3078" gradientUnits="userSpaceOnUse">
<stop stop-color="#AB85FF"/>
<stop offset="0.526042" stop-color="#EBA3E3"/>
<stop offset="1" stop-color="#FFDBE4"/>
</linearGradient>
<linearGradient id="paint12_linear" x1="172.704" y1="27.0514" x2="174.982" y2="8.27515" gradientUnits="userSpaceOnUse">
<stop stop-color="#AB85FF"/>
<stop offset="0.526042" stop-color="#EBA3E3"/>
<stop offset="1" stop-color="#FFDBE4"/>
</linearGradient>
<linearGradient id="paint13_linear" x1="172.704" y1="45.0514" x2="174.982" y2="26.2751" gradientUnits="userSpaceOnUse">
<stop stop-color="#AB85FF"/>
<stop offset="0.526042" stop-color="#EBA3E3"/>
<stop offset="1" stop-color="#FFDBE4"/>
</linearGradient>
<linearGradient id="paint14_linear" x1="172.704" y1="63.0514" x2="174.982" y2="44.2751" gradientUnits="userSpaceOnUse">
<stop stop-color="#AB85FF"/>
<stop offset="0.526042" stop-color="#EBA3E3"/>
<stop offset="1" stop-color="#FFDBE4"/>
</linearGradient>
<linearGradient id="paint15_linear" x1="163.589" y1="88.242" x2="258.799" y2="-10.2178" gradientUnits="userSpaceOnUse">
<stop stop-color="#AB85FF"/>
<stop offset="0.526042" stop-color="#EBA3E3"/>
<stop offset="1" stop-color="#FFDBE4"/>
</linearGradient>
<linearGradient id="paint16_linear" x1="218.12" y1="94.3058" x2="251.454" y2="49.9493" gradientUnits="userSpaceOnUse">
<stop stop-color="#AB85FF"/>
<stop offset="0.526042" stop-color="#EBA3E3"/>
<stop offset="1" stop-color="#FFDBE4"/>
</linearGradient>
<linearGradient id="paint17_linear" x1="230.221" y1="83.6647" x2="243.265" y2="66.3078" gradientUnits="userSpaceOnUse">
<stop stop-color="#AB85FF"/>
<stop offset="0.526042" stop-color="#EBA3E3"/>
<stop offset="1" stop-color="#FFDBE4"/>
</linearGradient>
<clipPath id="clip0">
<rect width="30" height="29.1429" fill="white" transform="translate(49 62.2524)"/>
</clipPath>
<clipPath id="clip1">
<rect width="30" height="29.1429" fill="white" transform="translate(136 62.2524)"/>
</clipPath>
<clipPath id="clip2">
<rect width="30" height="29.1429" fill="white" transform="translate(223 62.2524)"/>
</clipPath>
</defs>
</svg>
