<svg width="128" height="107" viewBox="0 0 128 107" fill="none" xmlns="http://www.w3.org/2000/svg">
<path d="M8.44077 48.848L6.79069 47.891V50.6751L7.48546 56.0693L10.004 63.8127L10.8725 65.9878V67.3799L11.3935 69.555L10.8725 71.8171L11.3935 74.5142L10.8725 76.5153L7.48546 77.3853L4.96693 78.9514L2.36155 81.5615L1.40625 83.9106L3.23001 86.2597L5.6617 87.7388C6.15382 88.2028 7.13808 89.2005 7.13808 89.4789C7.13808 89.7573 7.36967 90.6389 7.48546 91.0449L6.87754 92.524L6.35647 94.6991L6.00908 95.8302L4.96693 96.8742V98.6143V100.789C5.57485 101.195 6.86017 102.042 7.13808 102.181C7.41599 102.321 7.77495 101.891 7.91969 101.659L7.48546 99.8323L8.35392 98.6143L10.2645 100.18H12.8699L14.3463 98.6143L15.9095 97.3092L17.1254 95.1341L20.165 94.6991H21.815L24.2467 94.1771H25.7231L26.6784 93.8291L27.8074 92.785H29.6312L30.4996 93.8291H35.2761L39.879 94.6991H43.0054L45.8713 96.4392H48.8241L51.1689 97.3092L52.6453 96.8742H54.9902V98.6143L55.7718 98.9623V100.18H57.9429H59.593L60.1141 99.8323H61.0694L61.5904 101.572L62.1984 102.79L63.0668 101.92L64.3695 99.8323L65.0643 100.615H66.888L68.7118 98.6143L70.1882 101.224L70.9698 101.572L72.2725 100.18L74.0963 100.615L74.8779 102.79L75.92 103.574L76.5279 103.225V102.355L76.8753 101.224L77.7438 100.18H78.3517H79.4807L80.2623 99.8323L81.1308 98.6143L82.1729 100.18V101.572L83.1282 103.225L84.0835 104.705L84.7783 104.009H86.7757V102.79L87.2968 102.355L88.8601 101.224L89.2074 102.355L90.5101 102.79H91.5523L92.0733 101.92L93.2023 101.224H95.8077L96.9367 101.92L98.7605 105.053L101.018 105.662L101.887 104.705V102.79L101.54 101.224L100.497 98.6143L99.8895 97.3092L100.497 96.4392L101.54 95.4821L102.321 93.22L103.103 91.828L105.274 90.6099V89.3919L105.708 88.1738L106.663 87.3038L108.487 88.3478L109.877 88.1738L110.485 87.3038L111.44 86.7817H113.264H116.564V85.0417L115.782 84.1716L115.088 83.1276L113.959 81.8225L113.611 79.1254L113.959 78.0813V76.5153L113.264 75.4712C112.916 75.2102 112.152 74.6534 111.874 74.5142C111.596 74.375 112.337 73.9342 112.743 73.7311L113.264 72.2521L111.874 71.469L112.222 70.425L110.919 69.381L109.616 67.7279L108.748 66.7708L109.616 65.9878L109.877 64.2477V63.1167L110.919 63.6387L112.222 63.1167H113.959L116.564 64.9437H118.996L121.688 64.2477L122.469 63.1167L123.251 62.3336L123.859 60.8546V59.9845H125.162L126.117 59.2885L127.593 58.4184V57.1134L127.072 55.6343H126.117L123.859 54.2423L123.251 53.2852V52.5022V51.4581L122.469 50.5011H121.254L119.777 49.457L117.693 48.935L115.088 49.457H113.611L113.959 48.935L114.566 47.4559L115.088 45.8899V44.7588L114.566 43.6278L113.264 43.1928L112.222 42.6707L110.311 42.2357L108.314 40.9306L107.185 40.5826V38.4945L106.663 37.1025L105.621 35.6234L104.405 35.4494V34.7534L105.013 33.8833L105.361 33.1003V31.9692L105.013 31.2732H102.929L102.582 30.8382L100.237 29.6201L99.7158 28.6631L100.237 27.706V26.575L101.192 25.879L102.234 24.3129L102.582 22.5728L102.234 21.0067L99.7158 18.3966L100.584 17.1786L101.192 15.9605V13.6114V12.4803L100.237 10.9143L98.6736 11.3493H98.2394L97.0236 10.5663L96.5025 9.00019L93.376 7.43412L92.9418 6.9991L91.2049 6.65108H90.3364L89.7285 6.9991L87.9916 6.65108L86.7757 6.9991L86.1678 8.13015H85.4731H84.2572L83.2151 9.00019L82.7808 10.0442H81.9992L81.565 9.00019V7.43412L81.9992 5.95505L81.565 4.99801L79.0465 3.95396L76.3542 3.34493C76.0069 3.54794 75.2426 3.95396 74.9647 3.95396C74.6868 3.95396 74.0384 4.64999 73.7489 4.99801L72.7936 4.47598L72.4462 2.99692L71.9251 2.21388H68.1907L67.5828 2.99692L66.367 1.25684H65.1511L63.2405 2.21388L61.2431 3.34493L61.5036 4.99801H59.9404L59.2456 5.95505V8.47817L58.464 9.00019H57.5087H56.206H55.3375L53.8612 8.13015H52.2979L49.0846 11.3493L48.303 10.9143H47.3477L46.5661 11.8713L47.3477 12.9154L45.4371 15.2645L45.9582 17.7876L44.3081 19.0927V19.7887L46.5661 20.0497L48.303 19.7887L49.0846 20.5717L47.782 21.6158L47.3477 23.0948H46.7398L45.4371 23.4429H44.3081H42.658L41.8764 24.3129V25.879L41.0948 26.749L38.2289 27.706L35.7972 30.1422V35.4494L34.4945 37.4505L33.3655 40.4086L33.0182 41.7137H30.5865L28.589 42.5837L27.8074 44.0628L26.6784 45.1068L25.202 44.4108L24.073 45.1068L22.7703 45.7159L24.073 47.3689L22.7703 48.5V47.3689H21.9019L17.907 50.1531L16.6911 48.848L15.4753 48.5L14.8674 48.848H13.3041L12.262 48.5L11.3935 48.848L10.8725 49.631L10.3514 48.848H8.44077Z" stroke="url(#paint0_linear)" stroke-width="0.751113"/>
<rect x="25.2119" y="20.9434" width="7.46602" height="50.8425" fill="url(#paint1_linear)"/>
<rect x="37.7246" y="53.459" width="7.46602" height="27.3767" fill="url(#paint2_linear)"/>
<rect x="50.2373" y="36.5874" width="7.46602" height="27.3767" fill="url(#paint3_linear)"/>
<rect x="106.207" y="17.4849" width="7.46602" height="38.2046" fill="url(#paint4_linear)"/>
<rect x="95.3135" y="46.3647" width="7.46602" height="22.916" fill="url(#paint5_linear)"/>
<defs>
<linearGradient id="paint0_linear" x1="-19.1202" y1="116.088" x2="93.7783" y2="-60.2995" gradientUnits="userSpaceOnUse">
<stop stop-color="#AB85FF"/>
<stop offset="0.526042" stop-color="#EBA3E3"/>
<stop offset="1" stop-color="#FFDBE4"/>
</linearGradient>
<linearGradient id="paint1_linear" x1="23.9974" y1="76.8635" x2="46.1829" y2="72.6522" gradientUnits="userSpaceOnUse">
<stop stop-color="#AB85FF"/>
<stop offset="0.526042" stop-color="#EBA3E3"/>
<stop offset="1" stop-color="#FFDBE4"/>
</linearGradient>
<linearGradient id="paint2_linear" x1="36.5101" y1="83.5698" x2="56.9543" y2="76.3626" gradientUnits="userSpaceOnUse">
<stop stop-color="#AB85FF"/>
<stop offset="0.526042" stop-color="#EBA3E3"/>
<stop offset="1" stop-color="#FFDBE4"/>
</linearGradient>
<linearGradient id="paint3_linear" x1="49.0228" y1="66.6982" x2="69.467" y2="59.491" gradientUnits="userSpaceOnUse">
<stop stop-color="#AB85FF"/>
<stop offset="0.526042" stop-color="#EBA3E3"/>
<stop offset="1" stop-color="#FFDBE4"/>
</linearGradient>
<linearGradient id="paint4_linear" x1="104.993" y1="59.5049" x2="126.599" y2="54.0469" gradientUnits="userSpaceOnUse">
<stop stop-color="#AB85FF"/>
<stop offset="0.526042" stop-color="#EBA3E3"/>
<stop offset="1" stop-color="#FFDBE4"/>
</linearGradient>
<linearGradient id="paint5_linear" x1="94.099" y1="71.5693" x2="113.621" y2="63.3475" gradientUnits="userSpaceOnUse">
<stop stop-color="#AB85FF"/>
<stop offset="0.526042" stop-color="#EBA3E3"/>
<stop offset="1" stop-color="#FFDBE4"/>
</linearGradient>
</defs>
</svg>
