<svg width="235" height="98" viewBox="0 0 235 98" fill="none" xmlns="http://www.w3.org/2000/svg">
<path d="M222.092 20.4219H172.092V27.9749H222.092V20.4219Z" stroke="url(#paint0_linear)"/>
<path d="M222.092 39.8438H172.092V47.3967H222.092V39.8438Z" stroke="url(#paint1_linear)"/>
<path d="M222.092 59.2656H172.092V66.8186H222.092V59.2656Z" stroke="url(#paint2_linear)"/>
<path d="M228.092 1H165.092V86.2409H228.092V1Z" stroke="url(#paint3_linear)"/>
<path d="M140 20.4219H90V27.9749H140V20.4219Z" stroke="url(#paint4_linear)"/>
<path d="M140 39.8438H90V47.3967H140V39.8438Z" stroke="url(#paint5_linear)"/>
<path d="M140 59.2656H90V66.8186H140V59.2656Z" stroke="url(#paint6_linear)"/>
<path d="M146 1H83V86.2409H146V1Z" stroke="url(#paint7_linear)"/>
<path d="M57.9082 20.4219H7.9082V27.9749H57.9082V20.4219Z" stroke="url(#paint8_linear)"/>
<path d="M57.9082 39.8438H7.9082V47.3967H57.9082V39.8438Z" stroke="url(#paint9_linear)"/>
<path d="M57.9082 59.2656H7.9082V66.8186H57.9082V59.2656Z" stroke="url(#paint10_linear)"/>
<path d="M63.9082 1H0.908203V86.2409H63.9082V1Z" stroke="url(#paint11_linear)"/>
<path d="M69.908 89.7978V89.7963C69.9211 87.8725 69.2343 86.3686 67.8651 85.3014C66.7944 84.4696 65.4892 84.0314 64.1845 83.5986V83.5985C62.8392 83.15 61.9309 82.7958 61.3621 82.36C61.0713 82.137 60.8602 81.8865 60.7243 81.5834C60.5893 81.2818 60.5371 80.9463 60.5371 80.567C60.5371 79.6454 61.0902 79.0403 61.8027 78.6788C62.5115 78.3192 63.4166 78.1757 64.2367 78.1757C65.3546 78.1757 66.6306 78.5285 67.5091 79.0769L68.9228 76.6676C67.8872 75.9845 66.5163 75.5142 65.1562 75.3623L64.9541 75.3398V75.1208V72.7334H62.3549V75.3052V75.4996L62.1789 75.5421C59.5447 76.1797 57.9366 78.0505 57.9366 80.567C57.9366 82.3504 58.6049 83.7506 59.925 84.7447L59.9254 84.7449C60.9421 85.5137 62.1884 85.9306 63.4337 86.3459C63.4337 86.346 63.4337 86.346 63.4342 86.346L63.3676 86.578C66.0199 87.4599 67.0969 87.9974 67.0847 89.7773L69.908 89.7978ZM69.908 89.7978C69.9067 91.128 69.4453 92.2619 68.6276 93.123C67.8066 93.9869 66.6162 94.5866 65.1467 94.818L64.9541 94.8483V95.0583V97.5005H62.3549V94.9992V94.799L62.1726 94.7608C60.5407 94.4191 59.0019 93.5718 57.9082 92.3813L59.8017 90.4108C60.7648 91.4102 62.314 92.0581 63.7434 92.0581C64.5328 92.0581 65.4037 91.923 66.0865 91.5836C66.7715 91.2428 67.3093 90.6696 67.3098 89.7911C67.3098 89.7908 67.3098 89.7906 67.3098 89.7904V89.7791C67.3098 89.779 67.3098 89.779 67.3098 89.7789L69.908 89.7978Z" fill="url(#paint12_linear)" stroke="url(#paint13_linear)"/>
<path d="M152 89.7978V89.7963C152.013 87.8725 151.326 86.3686 149.957 85.3014C148.886 84.4696 147.581 84.0314 146.276 83.5986V83.5985C144.931 83.15 144.023 82.7958 143.454 82.36C143.163 82.137 142.952 81.8865 142.816 81.5834C142.681 81.2818 142.629 80.9463 142.629 80.567C142.629 79.6454 143.182 79.0403 143.894 78.6788C144.603 78.3192 145.508 78.1757 146.328 78.1757C147.446 78.1757 148.722 78.5285 149.601 79.0769L151.015 76.6676C149.979 75.9845 148.608 75.5142 147.248 75.3623L147.046 75.3398V75.1208V72.7334H144.447V75.3052V75.4996L144.271 75.5421C141.636 76.1797 140.028 78.0505 140.028 80.567C140.028 82.3504 140.697 83.7506 142.017 84.7447L142.017 84.7449C143.034 85.5137 144.28 85.9306 145.526 86.3459C145.526 86.346 145.526 86.346 145.526 86.346L145.459 86.578C148.112 87.4599 149.189 87.9974 149.177 89.7773L152 89.7978ZM152 89.7978C151.998 91.128 151.537 92.2619 150.719 93.123C149.898 93.9869 148.708 94.5866 147.239 94.818L147.046 94.8483V95.0583V97.5005H144.447V94.9992V94.799L144.264 94.7608C142.632 94.4191 141.094 93.5718 140 92.3813L141.893 90.4108C142.857 91.4102 144.406 92.0581 145.835 92.0581C146.625 92.0581 147.495 91.923 148.178 91.5836C148.863 91.2428 149.401 90.6696 149.402 89.7911C149.402 89.7908 149.402 89.7906 149.402 89.7904V89.7791C149.402 89.779 149.402 89.779 149.402 89.7789L152 89.7978Z" fill="url(#paint14_linear)" stroke="url(#paint15_linear)"/>
<path d="M234.092 89.7978V89.7963C234.105 87.8725 233.418 86.3686 232.049 85.3014C230.978 84.4696 229.673 84.0314 228.368 83.5986V83.5985C227.023 83.15 226.115 82.7958 225.546 82.36C225.255 82.137 225.044 81.8865 224.908 81.5834C224.773 81.2818 224.721 80.9463 224.721 80.567C224.721 79.6454 225.274 79.0403 225.986 78.6788C226.695 78.3192 227.6 78.1757 228.42 78.1757C229.538 78.1757 230.814 78.5285 231.693 79.0769L233.106 76.6676C232.071 75.9845 230.7 75.5142 229.34 75.3623L229.138 75.3398V75.1208V72.7334H226.539V75.3052V75.4996L226.363 75.5421C223.728 76.1797 222.12 78.0505 222.12 80.567C222.12 82.3504 222.789 83.7506 224.109 84.7447L224.109 84.7449C225.126 85.5137 226.372 85.9306 227.617 86.3459C227.617 86.346 227.617 86.346 227.618 86.346L227.551 86.578C230.203 87.4599 231.28 87.9974 231.268 89.7773L234.092 89.7978ZM234.092 89.7978C234.09 91.128 233.629 92.2619 232.811 93.123C231.99 93.9869 230.8 94.5866 229.33 94.818L229.138 94.8483V95.0583V97.5005H226.539V94.9992V94.799L226.356 94.7608C224.724 94.4191 223.185 93.5718 222.092 92.3813L223.985 90.4108C224.948 91.4102 226.498 92.0581 227.927 92.0581C228.716 92.0581 229.587 91.923 230.27 91.5836C230.955 91.2428 231.493 90.6696 231.493 89.7911C231.493 89.7908 231.493 89.7906 231.493 89.7904V89.7791C231.493 89.779 231.493 89.779 231.493 89.7789L234.092 89.7978Z" fill="url(#paint16_linear)" stroke="url(#paint17_linear)"/>
<defs>
<linearGradient id="paint0_linear" x1="163.296" y1="29.3765" x2="165.943" y2="9.16501" gradientUnits="userSpaceOnUse">
<stop stop-color="#AB85FF"/>
<stop offset="0.526042" stop-color="#EBA3E3"/>
<stop offset="1" stop-color="#FFDBE4"/>
</linearGradient>
<linearGradient id="paint1_linear" x1="163.296" y1="48.7983" x2="165.943" y2="28.587" gradientUnits="userSpaceOnUse">
<stop stop-color="#AB85FF"/>
<stop offset="0.526042" stop-color="#EBA3E3"/>
<stop offset="1" stop-color="#FFDBE4"/>
</linearGradient>
<linearGradient id="paint2_linear" x1="163.296" y1="68.2202" x2="165.943" y2="48.0088" gradientUnits="userSpaceOnUse">
<stop stop-color="#AB85FF"/>
<stop offset="0.526042" stop-color="#EBA3E3"/>
<stop offset="1" stop-color="#FFDBE4"/>
</linearGradient>
<linearGradient id="paint3_linear" x1="154.182" y1="95.4011" x2="256.878" y2="-3.02544" gradientUnits="userSpaceOnUse">
<stop stop-color="#AB85FF"/>
<stop offset="0.526042" stop-color="#EBA3E3"/>
<stop offset="1" stop-color="#FFDBE4"/>
</linearGradient>
<linearGradient id="paint4_linear" x1="81.204" y1="29.3765" x2="83.8504" y2="9.16499" gradientUnits="userSpaceOnUse">
<stop stop-color="#AB85FF"/>
<stop offset="0.526042" stop-color="#EBA3E3"/>
<stop offset="1" stop-color="#FFDBE4"/>
</linearGradient>
<linearGradient id="paint5_linear" x1="81.204" y1="48.7983" x2="83.8504" y2="28.5869" gradientUnits="userSpaceOnUse">
<stop stop-color="#AB85FF"/>
<stop offset="0.526042" stop-color="#EBA3E3"/>
<stop offset="1" stop-color="#FFDBE4"/>
</linearGradient>
<linearGradient id="paint6_linear" x1="81.204" y1="68.2202" x2="83.8504" y2="48.0088" gradientUnits="userSpaceOnUse">
<stop stop-color="#AB85FF"/>
<stop offset="0.526042" stop-color="#EBA3E3"/>
<stop offset="1" stop-color="#FFDBE4"/>
</linearGradient>
<linearGradient id="paint7_linear" x1="72.0894" y1="95.4011" x2="174.786" y2="-3.02543" gradientUnits="userSpaceOnUse">
<stop stop-color="#AB85FF"/>
<stop offset="0.526042" stop-color="#EBA3E3"/>
<stop offset="1" stop-color="#FFDBE4"/>
</linearGradient>
<linearGradient id="paint8_linear" x1="-0.887757" y1="29.3765" x2="1.75864" y2="9.16498" gradientUnits="userSpaceOnUse">
<stop stop-color="#AB85FF"/>
<stop offset="0.526042" stop-color="#EBA3E3"/>
<stop offset="1" stop-color="#FFDBE4"/>
</linearGradient>
<linearGradient id="paint9_linear" x1="-0.887757" y1="48.7983" x2="1.7586" y2="28.5869" gradientUnits="userSpaceOnUse">
<stop stop-color="#AB85FF"/>
<stop offset="0.526042" stop-color="#EBA3E3"/>
<stop offset="1" stop-color="#FFDBE4"/>
</linearGradient>
<linearGradient id="paint10_linear" x1="-0.887757" y1="68.2202" x2="1.7586" y2="48.0088" gradientUnits="userSpaceOnUse">
<stop stop-color="#AB85FF"/>
<stop offset="0.526042" stop-color="#EBA3E3"/>
<stop offset="1" stop-color="#FFDBE4"/>
</linearGradient>
<linearGradient id="paint11_linear" x1="-10.0024" y1="95.4011" x2="92.6942" y2="-3.02543" gradientUnits="userSpaceOnUse">
<stop stop-color="#AB85FF"/>
<stop offset="0.526042" stop-color="#EBA3E3"/>
<stop offset="1" stop-color="#FFDBE4"/>
</linearGradient>
<linearGradient id="paint12_linear" x1="55.55" y1="100.265" x2="82.8928" y2="82.7095" gradientUnits="userSpaceOnUse">
<stop stop-color="#AB85FF"/>
<stop offset="0.526042" stop-color="#EBA3E3"/>
<stop offset="1" stop-color="#FFDBE4"/>
</linearGradient>
<linearGradient id="paint13_linear" x1="55.55" y1="100.265" x2="82.8928" y2="82.7095" gradientUnits="userSpaceOnUse">
<stop stop-color="#AB85FF"/>
<stop offset="0.526042" stop-color="#EBA3E3"/>
<stop offset="1" stop-color="#FFDBE4"/>
</linearGradient>
<linearGradient id="paint14_linear" x1="137.642" y1="100.265" x2="164.985" y2="82.7095" gradientUnits="userSpaceOnUse">
<stop stop-color="#AB85FF"/>
<stop offset="0.526042" stop-color="#EBA3E3"/>
<stop offset="1" stop-color="#FFDBE4"/>
</linearGradient>
<linearGradient id="paint15_linear" x1="137.642" y1="100.265" x2="164.985" y2="82.7095" gradientUnits="userSpaceOnUse">
<stop stop-color="#AB85FF"/>
<stop offset="0.526042" stop-color="#EBA3E3"/>
<stop offset="1" stop-color="#FFDBE4"/>
</linearGradient>
<linearGradient id="paint16_linear" x1="219.734" y1="100.265" x2="247.076" y2="82.7095" gradientUnits="userSpaceOnUse">
<stop stop-color="#AB85FF"/>
<stop offset="0.526042" stop-color="#EBA3E3"/>
<stop offset="1" stop-color="#FFDBE4"/>
</linearGradient>
<linearGradient id="paint17_linear" x1="219.734" y1="100.265" x2="247.076" y2="82.7095" gradientUnits="userSpaceOnUse">
<stop stop-color="#AB85FF"/>
<stop offset="0.526042" stop-color="#EBA3E3"/>
<stop offset="1" stop-color="#FFDBE4"/>
</linearGradient>
</defs>
</svg>
