<svg width="169" height="60" viewBox="0 0 169 60" fill="none" xmlns="http://www.w3.org/2000/svg">
<path d="M85.7441 2.15307L91.9439 21.2341L92.0561 21.5796H92.4194H112.482L96.2511 33.3723L95.9572 33.5858L96.0695 33.9313L102.269 53.0124L86.038 41.2196L85.7441 41.0061L85.4502 41.2196L69.2189 53.0124L75.4187 33.9313L75.531 33.5858L75.2371 33.3723L59.0058 21.5796H79.0687H79.432L79.5443 21.2341L85.7441 2.15307Z" fill="url(#paint0_linear)" stroke="url(#paint1_linear)"/>
<path d="M137.044 30.4996C137.044 33.0346 135.698 35.507 133.139 37.8135C130.579 40.1199 126.848 42.2199 122.194 43.9936C112.891 47.5399 100.004 49.7438 85.7447 49.7438C71.4855 49.7438 58.5988 47.5399 49.2951 43.9936C44.6415 42.2199 40.91 40.1199 38.3507 37.8135C35.7913 35.507 34.4453 33.0346 34.4453 30.4996C34.4453 27.9646 35.7913 25.4922 38.3507 23.1858C40.91 20.8794 44.6415 18.7794 49.2951 17.0056C58.5988 13.4594 71.4855 11.2555 85.7447 11.2555C100.004 11.2555 112.891 13.4594 122.194 17.0056C126.848 18.7794 130.579 20.8794 133.139 23.1858C135.698 25.4922 137.044 27.9646 137.044 30.4996Z" stroke="url(#paint2_linear)"/>
<path d="M0.626602 30.8534C0.431339 30.6582 0.431339 30.3416 0.626602 30.1463L3.80858 26.9643C4.00385 26.7691 4.32043 26.7691 4.51569 26.9643C4.71095 27.1596 4.71095 27.4762 4.51569 27.6715L1.68726 30.4999L4.51569 33.3283C4.71095 33.5236 4.71095 33.8401 4.51569 34.0354C4.32043 34.2307 4.00385 34.2307 3.80858 34.0354L0.626602 30.8534ZM33.9453 30.9999H0.980156V29.9999H33.9453V30.9999Z" fill="url(#paint3_linear)"/>
<path d="M168.215 36.913C168.41 36.7177 168.41 36.4012 168.215 36.2059L165.033 33.0239C164.838 32.8287 164.521 32.8287 164.326 33.0239C164.131 33.2192 164.131 33.5358 164.326 33.731L167.155 36.5594L164.326 39.3879C164.131 39.5831 164.131 39.8997 164.326 40.095C164.521 40.2902 164.838 40.2902 165.033 40.095L168.215 36.913ZM134.896 37.0594H167.862V36.0594H134.896V37.0594Z" fill="url(#paint4_linear)"/>
<path d="M168.215 24.7127C168.41 24.908 168.41 25.2246 168.215 25.4198L165.033 28.6018C164.838 28.7971 164.521 28.7971 164.326 28.6018C164.131 28.4066 164.131 28.09 164.326 27.8947L167.155 25.0663L164.326 22.2379C164.131 22.0426 164.131 21.726 164.326 21.5308C164.521 21.3355 164.838 21.3355 165.033 21.5308L168.215 24.7127ZM134.896 24.5663H167.862V25.5663H134.896V24.5663Z" fill="url(#paint5_linear)"/>
<defs>
<linearGradient id="paint0_linear" x1="46.3388" y1="65.9385" x2="114.878" y2="-22.6603" gradientUnits="userSpaceOnUse">
<stop stop-color="#AB85FF"/>
<stop offset="0.526042" stop-color="#EBA3E3"/>
<stop offset="1" stop-color="#FFDBE4"/>
</linearGradient>
<linearGradient id="paint1_linear" x1="46.3388" y1="65.9385" x2="114.878" y2="-22.6603" gradientUnits="userSpaceOnUse">
<stop stop-color="#AB85FF"/>
<stop offset="0.526042" stop-color="#EBA3E3"/>
<stop offset="1" stop-color="#FFDBE4"/>
</linearGradient>
<linearGradient id="paint2_linear" x1="17.0932" y1="54.1875" x2="42.6059" y2="-32.3347" gradientUnits="userSpaceOnUse">
<stop stop-color="#AB85FF"/>
<stop offset="0.526042" stop-color="#EBA3E3"/>
<stop offset="1" stop-color="#FFDBE4"/>
</linearGradient>
<linearGradient id="paint3_linear" x1="39.3076" y1="31.5997" x2="39.2518" y2="29.2195" gradientUnits="userSpaceOnUse">
<stop stop-color="#AB85FF"/>
<stop offset="0.526042" stop-color="#EBA3E3"/>
<stop offset="1" stop-color="#FFDBE4"/>
</linearGradient>
<linearGradient id="paint4_linear" x1="129.534" y1="37.6593" x2="129.59" y2="35.279" gradientUnits="userSpaceOnUse">
<stop stop-color="#AB85FF"/>
<stop offset="0.526042" stop-color="#EBA3E3"/>
<stop offset="1" stop-color="#FFDBE4"/>
</linearGradient>
<linearGradient id="paint5_linear" x1="129.534" y1="23.9664" x2="129.59" y2="26.3467" gradientUnits="userSpaceOnUse">
<stop stop-color="#AB85FF"/>
<stop offset="0.526042" stop-color="#EBA3E3"/>
<stop offset="1" stop-color="#FFDBE4"/>
</linearGradient>
</defs>
</svg>
