<svg width="186" height="82" viewBox="0 0 186 82" fill="none" xmlns="http://www.w3.org/2000/svg">
<path d="M17.4844 1.24805H107.484V80.748H17.4844M17.4844 1.24805V80.748M17.4844 1.24805L0.984375 6.24805V74.748L17.4844 80.748" stroke="url(#paint0_linear)"/>
<path d="M43.8031 36.5187V33.6353C43.8031 32.7507 44.1178 32.0064 44.7473 31.4025C45.3937 30.7986 46.1847 30.4967 47.1204 30.4967C48.073 30.4967 48.864 30.7986 49.4935 31.4025C50.1314 31.9979 50.4503 32.7422 50.4503 33.6353V36.5187C50.4503 37.4118 50.1314 38.1603 49.4935 38.7642C48.8725 39.3596 48.0815 39.6573 47.1204 39.6573C46.1677 39.6573 45.3767 39.3596 44.7473 38.7642C44.1178 38.1603 43.8031 37.4118 43.8031 36.5187ZM44.6197 33.6225V36.5315C44.6197 37.1949 44.8578 37.752 45.3342 38.2028C45.8105 38.6451 46.4059 38.8663 47.1204 38.8663C47.8348 38.8663 48.4302 38.6451 48.9066 38.2028C49.3914 37.752 49.6338 37.1949 49.6338 36.5315V33.6225C49.6338 32.9591 49.3914 32.4062 48.9066 31.9639C48.4132 31.5131 47.8178 31.2877 47.1204 31.2877C46.4229 31.2877 45.8275 31.5131 45.3342 31.9639C44.8578 32.4147 44.6197 32.9676 44.6197 33.6225ZM54.3063 31.6704L52.367 32.7422L52.0098 32.0149L54.5743 30.6115H55.1229V39.5425H54.3063V31.6704ZM57.6083 36.5187V33.6353C57.6083 32.7507 57.923 32.0064 58.5524 31.4025C59.1989 30.7986 59.9899 30.4967 60.9255 30.4967C61.8782 30.4967 62.6692 30.7986 63.2986 31.4025C63.9366 31.9979 64.2555 32.7422 64.2555 33.6353V36.5187C64.2555 37.4118 63.9366 38.1603 63.2986 38.7642C62.6777 39.3596 61.8867 39.6573 60.9255 39.6573C59.9729 39.6573 59.1819 39.3596 58.5524 38.7642C57.923 38.1603 57.6083 37.4118 57.6083 36.5187ZM58.4249 33.6225V36.5315C58.4249 37.1949 58.663 37.752 59.1393 38.2028C59.6157 38.6451 60.2111 38.8663 60.9255 38.8663C61.64 38.8663 62.2354 38.6451 62.7117 38.2028C63.1966 37.752 63.439 37.1949 63.439 36.5315V33.6225C63.439 32.9591 63.1966 32.4062 62.7117 31.9639C62.2184 31.5131 61.623 31.2877 60.9255 31.2877C60.2281 31.2877 59.6327 31.5131 59.1393 31.9639C58.663 32.4147 58.4249 32.9676 58.4249 33.6225ZM68.1115 31.6704L66.1722 32.7422L65.815 32.0149L68.3794 30.6115H68.9281V39.5425H68.1115V31.6704ZM71.4135 36.5187V33.6353C71.4135 32.7507 71.7282 32.0064 72.3576 31.4025C73.0041 30.7986 73.7951 30.4967 74.7307 30.4967C75.6834 30.4967 76.4744 30.7986 77.1038 31.4025C77.7417 31.9979 78.0607 32.7422 78.0607 33.6353V36.5187C78.0607 37.4118 77.7417 38.1603 77.1038 38.7642C76.4829 39.3596 75.6919 39.6573 74.7307 39.6573C73.7781 39.6573 72.987 39.3596 72.3576 38.7642C71.7282 38.1603 71.4135 37.4118 71.4135 36.5187ZM72.23 33.6225V36.5315C72.23 37.1949 72.4682 37.752 72.9445 38.2028C73.4208 38.6451 74.0162 38.8663 74.7307 38.8663C75.4452 38.8663 76.0406 38.6451 76.5169 38.2028C77.0017 37.752 77.2442 37.1949 77.2442 36.5315V33.6225C77.2442 32.9591 77.0017 32.4062 76.5169 31.9639C76.0236 31.5131 75.4282 31.2877 74.7307 31.2877C74.0332 31.2877 73.4378 31.5131 72.9445 31.9639C72.4682 32.4147 72.23 32.9676 72.23 33.6225ZM81.9167 31.6704L79.9774 32.7422L79.6201 32.0149L82.1846 30.6115H82.7332V39.5425H81.9167V31.6704ZM45.9211 44.6704L43.9818 45.7422L43.6245 45.0149L46.189 43.6115H46.7376V52.5425H45.9211V44.6704ZM49.223 49.5187V46.6353C49.223 45.7507 49.5377 45.0064 50.1672 44.4025C50.8136 43.7986 51.6046 43.4967 52.5403 43.4967C53.4929 43.4967 54.2839 43.7986 54.9134 44.4025C55.5513 44.9979 55.8703 45.7422 55.8703 46.6353V49.5187C55.8703 50.4118 55.5513 51.1603 54.9134 51.7642C54.2924 52.3596 53.5014 52.6573 52.5403 52.6573C51.5876 52.6573 50.7966 52.3596 50.1672 51.7642C49.5377 51.1603 49.223 50.4118 49.223 49.5187ZM50.0396 46.6225V49.5315C50.0396 50.1949 50.2777 50.752 50.7541 51.2028C51.2304 51.6451 51.8258 51.8663 52.5403 51.8663C53.2547 51.8663 53.8501 51.6451 54.3265 51.2028C54.8113 50.752 55.0537 50.1949 55.0537 49.5315V46.6225C55.0537 45.9591 54.8113 45.4062 54.3265 44.9639C53.8331 44.5131 53.2377 44.2877 52.5403 44.2877C51.8428 44.2877 51.2474 44.5131 50.7541 44.9639C50.2777 45.4147 50.0396 45.9676 50.0396 46.6225ZM59.7262 44.6704L57.7869 45.7422L57.4297 45.0149L59.9942 43.6115H60.5428V52.5425H59.7262V44.6704ZM63.0282 49.5187V46.6353C63.0282 45.7507 63.3429 45.0064 63.9723 44.4025C64.6188 43.7986 65.4098 43.4967 66.3454 43.4967C67.2981 43.4967 68.0891 43.7986 68.7185 44.4025C69.3565 44.9979 69.6754 45.7422 69.6754 46.6353V49.5187C69.6754 50.4118 69.3565 51.1603 68.7185 51.7642C68.0976 52.3596 67.3066 52.6573 66.3454 52.6573C65.3928 52.6573 64.6018 52.3596 63.9723 51.7642C63.3429 51.1603 63.0282 50.4118 63.0282 49.5187ZM63.8448 46.6225V49.5315C63.8448 50.1949 64.0829 50.752 64.5592 51.2028C65.0356 51.6451 65.631 51.8663 66.3454 51.8663C67.0599 51.8663 67.6553 51.6451 68.1316 51.2028C68.6165 50.752 68.8589 50.1949 68.8589 49.5315V46.6225C68.8589 45.9591 68.6165 45.4062 68.1316 44.9639C67.6383 44.5131 67.0429 44.2877 66.3454 44.2877C65.648 44.2877 65.0526 44.5131 64.5592 44.9639C64.0829 45.4147 63.8448 45.9676 63.8448 46.6225ZM73.5314 44.6704L71.5921 45.7422L71.2349 45.0149L73.7993 43.6115H74.348V52.5425H73.5314V44.6704ZM76.8334 49.5187V46.6353C76.8334 45.7507 77.1481 45.0064 77.7775 44.4025C78.424 43.7986 79.215 43.4967 80.1506 43.4967C81.1033 43.4967 81.8943 43.7986 82.5237 44.4025C83.1616 44.9979 83.4806 45.7422 83.4806 46.6353V49.5187C83.4806 50.4118 83.1616 51.1603 82.5237 51.7642C81.9028 52.3596 81.1118 52.6573 80.1506 52.6573C79.198 52.6573 78.4069 52.3596 77.7775 51.7642C77.1481 51.1603 76.8334 50.4118 76.8334 49.5187ZM77.6499 46.6225V49.5315C77.6499 50.1949 77.8881 50.752 78.3644 51.2028C78.8407 51.6451 79.4361 51.8663 80.1506 51.8663C80.8651 51.8663 81.4605 51.6451 81.9368 51.2028C82.4216 50.752 82.6641 50.1949 82.6641 49.5315V46.6225C82.6641 45.9591 82.4216 45.4062 81.9368 44.9639C81.4435 44.5131 80.8481 44.2877 80.1506 44.2877C79.4531 44.2877 78.8577 44.5131 78.3644 44.9639C77.8881 45.4147 77.6499 45.9676 77.6499 46.6225Z" fill="url(#paint1_linear)"/>
<path d="M177.736 45.998H138.018V80.998H177.736M177.736 45.998V80.998M177.736 45.998L185.018 48.1993V78.3565L177.736 80.998" stroke="url(#paint2_linear)"/>
<path d="M177.736 1.24805H138.018V36.248H177.736M177.736 1.24805V36.248M177.736 1.24805L185.018 3.4493V33.6065L177.736 36.248" stroke="url(#paint3_linear)"/>
<path d="M57.1308 18.3945C56.9356 18.5897 56.9356 18.9063 57.1308 19.1016L60.3128 22.2836C60.5081 22.4788 60.8246 22.4788 61.0199 22.2836C61.2152 22.0883 61.2152 21.7717 61.0199 21.5765L58.1915 18.748L61.0199 15.9196C61.2152 15.7243 61.2152 15.4078 61.0199 15.2125C60.8246 15.0172 60.5081 15.0172 60.3128 15.2125L57.1308 18.3945ZM157.484 18.248L57.4844 18.248L57.4844 19.248L157.484 19.248L157.484 18.248Z" fill="url(#paint4_linear)"/>
<path d="M57.1308 63.8516C56.9356 63.6563 56.9356 63.3398 57.1308 63.1445L60.3128 59.9625C60.5081 59.7673 60.8246 59.7673 61.0199 59.9625C61.2152 60.1578 61.2152 60.4744 61.0199 60.6696L58.1915 63.4981L61.0199 66.3265C61.2152 66.5217 61.2152 66.8383 61.0199 67.0336C60.8246 67.2289 60.5081 67.2289 60.3128 67.0336L57.1308 63.8516ZM157.484 63.998L57.4844 63.9981L57.4844 62.9981L157.484 62.998L157.484 63.998Z" fill="url(#paint5_linear)"/>
<defs>
<linearGradient id="paint0_linear" x1="-16.3396" y1="88.6877" x2="65.6542" y2="-53.2997" gradientUnits="userSpaceOnUse">
<stop stop-color="#AB85FF"/>
<stop offset="0.526042" stop-color="#EBA3E3"/>
<stop offset="1" stop-color="#FFDBE4"/>
</linearGradient>
<linearGradient id="paint1_linear" x1="35.3737" y1="59.673" x2="59.999" y2="5.65634" gradientUnits="userSpaceOnUse">
<stop stop-color="#AB85FF"/>
<stop offset="0.526042" stop-color="#EBA3E3"/>
<stop offset="1" stop-color="#FFDBE4"/>
</linearGradient>
<linearGradient id="paint2_linear" x1="192.663" y1="84.4935" x2="156.609" y2="21.908" gradientUnits="userSpaceOnUse">
<stop stop-color="#AB85FF"/>
<stop offset="0.526042" stop-color="#EBA3E3"/>
<stop offset="1" stop-color="#FFDBE4"/>
</linearGradient>
<linearGradient id="paint3_linear" x1="192.663" y1="39.7435" x2="156.609" y2="-22.842" gradientUnits="userSpaceOnUse">
<stop stop-color="#AB85FF"/>
<stop offset="0.526042" stop-color="#EBA3E3"/>
<stop offset="1" stop-color="#FFDBE4"/>
</linearGradient>
<linearGradient id="paint4_linear" x1="173.751" y1="17.6482" x2="173.733" y2="20.0296" gradientUnits="userSpaceOnUse">
<stop stop-color="#AB85FF"/>
<stop offset="0.526042" stop-color="#EBA3E3"/>
<stop offset="1" stop-color="#FFDBE4"/>
</linearGradient>
<linearGradient id="paint5_linear" x1="173.751" y1="64.5979" x2="173.733" y2="62.2165" gradientUnits="userSpaceOnUse">
<stop stop-color="#AB85FF"/>
<stop offset="0.526042" stop-color="#EBA3E3"/>
<stop offset="1" stop-color="#FFDBE4"/>
</linearGradient>
</defs>
</svg>
