<svg width="241" height="88" viewBox="0 0 241 88" fill="none" xmlns="http://www.w3.org/2000/svg">
<path d="M161.532 6.68506H240.305V76.2679H161.532M161.532 6.68506V76.2679M161.532 6.68506L147.09 11.0613V71.0163L161.532 76.2679" stroke="url(#paint0_linear)"/>
<path d="M137.538 44.4937C137.734 44.2984 137.734 43.9818 137.538 43.7866L134.356 40.6046C134.161 40.4093 133.844 40.4093 133.649 40.6046C133.454 40.7999 133.454 41.1165 133.649 41.3117L136.478 44.1401L133.649 46.9686C133.454 47.1638 133.454 47.4804 133.649 47.6757C133.844 47.8709 134.161 47.8709 134.356 47.6757L137.538 44.4937ZM98.2344 44.6401L137.185 44.6401L137.185 43.6401L98.2344 43.6401L98.2344 44.6401Z" fill="url(#paint1_linear)"/>
<rect x="57.3849" y="17.8991" width="40.6052" height="55.6052" fill="white"/>
<rect x="61.7286" y="25.4002" width="31.188" height="3.15828" stroke="url(#paint2_linear)" stroke-width="0.394785"/>
<rect x="61.7286" y="32.901" width="31.188" height="3.15828" stroke="url(#paint3_linear)" stroke-width="0.394785"/>
<rect x="61.7286" y="40.4021" width="31.188" height="3.15828" stroke="url(#paint4_linear)" stroke-width="0.394785"/>
<rect x="61.7286" y="47.9027" width="31.188" height="3.15828" stroke="url(#paint5_linear)" stroke-width="0.394785"/>
<rect x="61.7286" y="55.4037" width="31.188" height="3.15828" stroke="url(#paint6_linear)" stroke-width="0.394785"/>
<rect x="61.7286" y="62.9047" width="31.188" height="3.15828" stroke="url(#paint7_linear)" stroke-width="0.394785"/>
<rect x="57.3849" y="17.8991" width="40.6052" height="55.6052" stroke="url(#paint8_linear)" stroke-width="0.394785"/>
<rect x="0.492171" y="0.944808" width="62.3907" height="86.3907" fill="white"/>
<rect x="7.1953" y="12.5222" width="48.138" height="4.87473" stroke="url(#paint9_linear)" stroke-width="0.609342"/>
<rect x="7.1953" y="24.0996" width="48.138" height="4.87473" stroke="url(#paint10_linear)" stroke-width="0.609342"/>
<rect x="7.1953" y="35.6772" width="48.138" height="4.87473" stroke="url(#paint11_linear)" stroke-width="0.609342"/>
<rect x="7.1953" y="47.2547" width="48.138" height="4.87473" stroke="url(#paint12_linear)" stroke-width="0.609342"/>
<rect x="7.1953" y="58.8318" width="48.138" height="4.87473" stroke="url(#paint13_linear)" stroke-width="0.609342"/>
<rect x="7.1953" y="70.4089" width="48.138" height="4.87473" stroke="url(#paint14_linear)" stroke-width="0.609342"/>
<rect x="0.492171" y="0.944808" width="62.3907" height="86.3907" stroke="url(#paint15_linear)" stroke-width="0.609342"/>
<path d="M186 37.4347L200.409 56.1943L218.353 20.0347" stroke="url(#paint16_linear)" stroke-width="2" stroke-linecap="round"/>
<defs>
<linearGradient id="paint0_linear" x1="131.927" y1="83.2171" x2="203.692" y2="-41.0582" gradientUnits="userSpaceOnUse">
<stop stop-color="#AB85FF"/>
<stop offset="0.526042" stop-color="#EBA3E3"/>
<stop offset="1" stop-color="#FFDBE4"/>
</linearGradient>
<linearGradient id="paint1_linear" x1="91.8985" y1="45.24" x2="91.9457" y2="42.8594" gradientUnits="userSpaceOnUse">
<stop stop-color="#AB85FF"/>
<stop offset="0.526042" stop-color="#EBA3E3"/>
<stop offset="1" stop-color="#FFDBE4"/>
</linearGradient>
<linearGradient id="paint2_linear" x1="56.3938" y1="29.1107" x2="57.1247" y2="20.7123" gradientUnits="userSpaceOnUse">
<stop stop-color="#AB85FF"/>
<stop offset="0.526042" stop-color="#EBA3E3"/>
<stop offset="1" stop-color="#FFDBE4"/>
</linearGradient>
<linearGradient id="paint3_linear" x1="56.3938" y1="36.6115" x2="57.1247" y2="28.2132" gradientUnits="userSpaceOnUse">
<stop stop-color="#AB85FF"/>
<stop offset="0.526042" stop-color="#EBA3E3"/>
<stop offset="1" stop-color="#FFDBE4"/>
</linearGradient>
<linearGradient id="paint4_linear" x1="56.3938" y1="44.1126" x2="57.1247" y2="35.7143" gradientUnits="userSpaceOnUse">
<stop stop-color="#AB85FF"/>
<stop offset="0.526042" stop-color="#EBA3E3"/>
<stop offset="1" stop-color="#FFDBE4"/>
</linearGradient>
<linearGradient id="paint5_linear" x1="56.3938" y1="51.6132" x2="57.1247" y2="43.2149" gradientUnits="userSpaceOnUse">
<stop stop-color="#AB85FF"/>
<stop offset="0.526042" stop-color="#EBA3E3"/>
<stop offset="1" stop-color="#FFDBE4"/>
</linearGradient>
<linearGradient id="paint6_linear" x1="56.3938" y1="59.1142" x2="57.1247" y2="50.7159" gradientUnits="userSpaceOnUse">
<stop stop-color="#AB85FF"/>
<stop offset="0.526042" stop-color="#EBA3E3"/>
<stop offset="1" stop-color="#FFDBE4"/>
</linearGradient>
<linearGradient id="paint7_linear" x1="56.3938" y1="66.6152" x2="57.1247" y2="58.2168" gradientUnits="userSpaceOnUse">
<stop stop-color="#AB85FF"/>
<stop offset="0.526042" stop-color="#EBA3E3"/>
<stop offset="1" stop-color="#FFDBE4"/>
</linearGradient>
<linearGradient id="paint8_linear" x1="50.5182" y1="79.2944" x2="117.102" y2="16.2786" gradientUnits="userSpaceOnUse">
<stop stop-color="#AB85FF"/>
<stop offset="0.526042" stop-color="#EBA3E3"/>
<stop offset="1" stop-color="#FFDBE4"/>
</linearGradient>
<linearGradient id="paint9_linear" x1="-1.03895" y1="18.2493" x2="0.0891863" y2="5.28665" gradientUnits="userSpaceOnUse">
<stop stop-color="#AB85FF"/>
<stop offset="0.526042" stop-color="#EBA3E3"/>
<stop offset="1" stop-color="#FFDBE4"/>
</linearGradient>
<linearGradient id="paint10_linear" x1="-1.03895" y1="29.8267" x2="0.0891863" y2="16.864" gradientUnits="userSpaceOnUse">
<stop stop-color="#AB85FF"/>
<stop offset="0.526042" stop-color="#EBA3E3"/>
<stop offset="1" stop-color="#FFDBE4"/>
</linearGradient>
<linearGradient id="paint11_linear" x1="-1.03895" y1="41.4043" x2="0.0891863" y2="28.4417" gradientUnits="userSpaceOnUse">
<stop stop-color="#AB85FF"/>
<stop offset="0.526042" stop-color="#EBA3E3"/>
<stop offset="1" stop-color="#FFDBE4"/>
</linearGradient>
<linearGradient id="paint12_linear" x1="-1.03895" y1="52.9818" x2="0.0891863" y2="40.0192" gradientUnits="userSpaceOnUse">
<stop stop-color="#AB85FF"/>
<stop offset="0.526042" stop-color="#EBA3E3"/>
<stop offset="1" stop-color="#FFDBE4"/>
</linearGradient>
<linearGradient id="paint13_linear" x1="-1.03895" y1="64.5589" x2="0.0891863" y2="51.5962" gradientUnits="userSpaceOnUse">
<stop stop-color="#AB85FF"/>
<stop offset="0.526042" stop-color="#EBA3E3"/>
<stop offset="1" stop-color="#FFDBE4"/>
</linearGradient>
<linearGradient id="paint14_linear" x1="-1.03895" y1="76.136" x2="0.0891863" y2="63.1734" gradientUnits="userSpaceOnUse">
<stop stop-color="#AB85FF"/>
<stop offset="0.526042" stop-color="#EBA3E3"/>
<stop offset="1" stop-color="#FFDBE4"/>
</linearGradient>
<linearGradient id="paint15_linear" x1="-10.0605" y1="96.3288" x2="93.3131" y2="-0.435926" gradientUnits="userSpaceOnUse">
<stop stop-color="#AB85FF"/>
<stop offset="0.526042" stop-color="#EBA3E3"/>
<stop offset="1" stop-color="#FFDBE4"/>
</linearGradient>
<linearGradient id="paint16_linear" x1="180.737" y1="59.8055" x2="223.344" y2="10.5266" gradientUnits="userSpaceOnUse">
<stop stop-color="#AB85FF"/>
<stop offset="0.526042" stop-color="#EBA3E3"/>
<stop offset="1" stop-color="#FFDBE4"/>
</linearGradient>
</defs>
</svg>
