<svg width="341" height="181" viewBox="0 0 341 181" fill="none" xmlns="http://www.w3.org/2000/svg">
<rect width="341" height="180" transform="translate(0 0.5)" fill="#F5F5F5"/>
<path d="M217.761 82.3261L149.673 82.3261M149.673 82.3261L151.538 81.1287M149.673 82.3261L151.538 83.5234" stroke="black"/>
<path d="M217.762 102.22L138.494 102.22M138.494 102.22L140.666 101.186M138.494 102.22L140.666 103.254" stroke="black"/>
<path d="M217.761 62.5171L174.856 62.5171M174.856 62.5171L176.032 61.2763M174.856 62.5171L176.032 63.7578" stroke="black"/>
<path d="M217.762 122.072L186.982 122.072M186.982 122.072L187.826 120.831M186.982 122.072L187.826 123.313" stroke="black"/>
<rect width="57" height="113" transform="translate(227.406 37)" fill="#31D67B"/>
<rect x="217.906" y="31.5" width="56" height="110" stroke="black"/>
<circle cx="261.082" cy="78.3596" r="3.10184" fill="#D4D4D4"/>
<circle cx="273.49" cy="78.3596" r="3.10184" fill="#D4D4D4"/>
<circle cx="285.897" cy="78.3596" r="3.10184" fill="#D4D4D4"/>
<circle cx="298.304" cy="78.3596" r="3.10184" fill="#D4D4D4"/>
<circle cx="261.082" cy="90.7659" r="3.10184" fill="#D4D4D4"/>
<circle cx="273.49" cy="90.7659" r="3.10184" fill="#D4D4D4"/>
<circle cx="285.897" cy="90.7659" r="3.10184" fill="#D4D4D4"/>
<circle cx="298.304" cy="90.7659" r="3.10184" fill="#D4D4D4"/>
<circle cx="298.304" cy="103.176" r="3.10184" fill="#D4D4D4"/>
<circle cx="285.897" cy="103.176" r="3.10184" fill="#D4D4D4"/>
<circle cx="273.49" cy="103.176" r="3.10184" fill="#D4D4D4"/>
<circle cx="261.082" cy="103.176" r="3.10184" fill="#D4D4D4"/>
<rect x="77.4414" y="57.3398" width="13" height="98" transform="rotate(22.7183 77.4414 57.3398)" fill="#AB85FF"/>
<rect x="100.646" y="46.4219" width="13" height="98" transform="rotate(22.7183 100.646 46.4219)" fill="#AB85FF"/>
<rect x="126.503" y="28.2422" width="13" height="98" transform="rotate(22.7183 126.503 28.2422)" fill="#AB85FF"/>
</svg>
