<svg width="341" height="181" viewBox="0 0 341 181" fill="none" xmlns="http://www.w3.org/2000/svg">
<rect width="341" height="180" transform="translate(0 0.5)" fill="#F5F5F5"/>
<path d="M251.532 124.367C265.032 123.512 290.832 114.363 292.032 89.7374C292.032 58.9552 264.532 50.8321 251.032 50.8321C231.532 50.8321 243.682 50.832 197.682 50.832" stroke="black"/>
<path d="M251.736 124.367H179.533" stroke="black"/>
<path d="M171.598 62.7891L141.809 96.0014" stroke="black" stroke-width="0.684791"/>
<path d="M168.516 62.7891L138.727 96.0014" stroke="black" stroke-width="0.684791"/>
<path d="M165.092 62.7891L135.303 96.0014" stroke="black" stroke-width="0.684791"/>
<path d="M161.668 62.7891L131.88 96.0014" stroke="black" stroke-width="0.684791"/>
<path d="M158.244 62.7891L128.456 96.0014" stroke="black" stroke-width="0.684791"/>
<path d="M154.82 62.7891L125.032 96.0014" stroke="black" stroke-width="0.684791"/>
<g clip-path="url(#clip0)">
<rect width="142" height="39" transform="matrix(-1 0 0 1 179.532 94.5)" fill="#AB85FF"/>
<path d="M234.698 83.0447C158.196 39.3289 103.551 39.3289 70.7638 83.0447C37.9769 126.761 -16.6679 126.761 -93.1706 83.0447" stroke="#8052E4" stroke-width="2"/>
<path d="M238.935 159.709C180.287 93.9505 128.474 76.5876 83.4958 107.62C38.5177 138.653 -13.2952 121.29 -71.9431 55.5316" stroke="#8052E4" stroke-width="2"/>
<path d="M231.464 137.861C151.763 100.292 97.2869 104.585 68.0362 150.742C38.7855 196.899 -15.6903 201.192 -95.3914 163.623" stroke="#8052E4" stroke-width="2"/>
</g>
<g clip-path="url(#clip1)">
<rect width="69.1934" height="19.0038" transform="matrix(-1 0 0 1 200.379 44.4375)" fill="#AB85FF"/>
<path d="M227.26 38.8552C189.982 17.5535 163.355 17.5535 147.378 38.8552C131.402 60.1569 104.775 60.1569 67.4967 38.8552" stroke="#8052E4" stroke-width="0.974554"/>
<path d="M229.324 76.2109C200.746 44.1683 175.499 35.7078 153.582 50.8293C131.665 65.9508 106.418 57.4902 77.8403 25.4477" stroke="#8052E4" stroke-width="0.974554"/>
<path d="M225.684 65.5675C186.847 47.2607 160.303 49.3528 146.049 71.844C131.796 94.3352 105.251 96.4273 66.4149 78.1205" stroke="#8052E4" stroke-width="0.974554"/>
</g>
<path d="M62.866 86.8448C62.866 81.9795 64.7988 77.3134 68.2391 73.8731C71.6794 70.4328 76.3455 68.5 81.2108 68.5C86.0762 68.5 90.7423 70.4328 94.1826 73.8731C97.6229 77.3134 99.5557 81.9795 99.5557 86.8448L81.2108 86.8448H62.866Z" fill="#D4D4D4"/>
<path d="M89.946 86.8432C89.946 83.5996 91.1885 80.4889 93.4001 78.1953C95.6118 75.9018 98.6114 74.6133 101.739 74.6133C104.867 74.6133 107.866 75.9018 110.078 78.1953C112.29 80.4889 113.532 83.5996 113.532 86.8432L101.739 86.8432H89.946Z" fill="#D4D4D4"/>
<path d="M37.5326 86.8432C37.5326 83.5996 39.3273 80.4889 42.5219 78.1953C45.7165 75.9018 50.0493 74.6133 54.5671 74.6133C59.0849 74.6133 63.4177 75.9018 66.6123 78.1953C69.8069 80.4889 71.6016 83.5996 71.6016 86.8432L54.5671 86.8432H37.5326Z" fill="#D4D4D4"/>
<path d="M303.468 85.8772L274.52 69.1641V102.59L303.468 85.8772Z" fill="#31D67B"/>
<path d="M285.155 85.8772L256.207 69.1641V102.59L285.155 85.8772Z" fill="#31D67B"/>
<path d="M265.857 85.8772L236.909 69.1641V102.59L265.857 85.8772Z" fill="#31D67B"/>
<defs>
<clipPath id="clip0">
<rect width="142" height="39" fill="white" transform="matrix(-1 0 0 1 179.532 94.5)"/>
</clipPath>
<clipPath id="clip1">
<rect width="69.1934" height="19.0038" fill="white" transform="matrix(-1 0 0 1 200.379 44.4375)"/>
</clipPath>
</defs>
</svg>
