<svg width="341" height="181" viewBox="0 0 341 181" fill="none" xmlns="http://www.w3.org/2000/svg">
<rect width="341" height="180" transform="translate(0 0.5)" fill="#F5F5F5"/>
<rect x="61.9121" y="26" width="176" height="12" stroke="#A57CFE"/>
<rect width="114" height="13" transform="translate(93.4121 51.5)" fill="#A57CFE"/>
<rect width="114" height="13" transform="translate(93.4121 102.5)" fill="#A57CFE"/>
<rect x="61.9121" y="77" width="176" height="12" stroke="#A57CFE"/>
<rect x="61.9121" y="128" width="176" height="12" stroke="#A57CFE"/>
<g clip-path="url(#clip0)">
<rect width="68" height="13" transform="translate(139.412 102.5)" fill="#31D67B"/>
<rect width="68" height="13" transform="translate(139.412 51.5)" fill="#31D67B"/>
<rect width="100" height="13" transform="translate(138.412 76.5)" fill="#31D67B"/>
<rect width="100" height="13" transform="translate(138.412 127.5)" fill="#31D67B"/>
</g>
<rect x="138.912" y="45" width="110" height="110" stroke="black"/>
<path d="M193.774 102.58H181.384C181.664 103.6 182.214 104.43 183.034 105.07C183.874 105.69 184.844 106 185.944 106C187.484 106 188.704 105.45 189.604 104.35L193.234 105.4C192.514 106.66 191.504 107.65 190.204 108.37C188.924 109.09 187.504 109.45 185.944 109.45C183.544 109.45 181.534 108.67 179.914 107.11C178.314 105.51 177.514 103.54 177.514 101.2C177.514 98.84 178.294 96.88 179.854 95.32C181.434 93.74 183.384 92.95 185.704 92.95C188.024 92.95 189.964 93.74 191.524 95.32C193.104 96.9 193.894 98.86 193.894 101.2C193.894 101.58 193.854 102.04 193.774 102.58ZM181.414 99.67H190.024C189.724 98.69 189.174 97.9 188.374 97.3C187.574 96.7 186.664 96.4 185.644 96.4C184.664 96.4 183.784 96.7 183.004 97.3C182.224 97.9 181.694 98.69 181.414 99.67ZM205.94 93.4V95.32C207.02 93.74 208.73 92.95 211.07 92.95V97.12C210.57 96.9 210.06 96.79 209.54 96.79C208.5 96.79 207.64 97.14 206.96 97.84C206.28 98.52 205.94 99.38 205.94 100.42V109H202.19V93.4H205.94ZM222.867 93.4V95.32C223.947 93.74 225.657 92.95 227.997 92.95V97.12C227.497 96.9 226.987 96.79 226.467 96.79C225.427 96.79 224.567 97.14 223.887 97.84C223.207 98.52 222.867 99.38 222.867 100.42V109H219.117V93.4H222.867ZM237.258 107.11C235.698 105.53 234.918 103.56 234.918 101.2C234.918 98.84 235.698 96.88 237.258 95.32C238.838 93.74 240.808 92.95 243.168 92.95C245.528 92.95 247.498 93.74 249.078 95.32C250.658 96.88 251.448 98.84 251.448 101.2C251.448 103.56 250.658 105.53 249.078 107.11C247.478 108.67 245.508 109.45 243.168 109.45C240.828 109.45 238.858 108.67 237.258 107.11ZM243.168 96.7C241.928 96.7 240.888 97.13 240.048 97.99C239.208 98.85 238.788 99.92 238.788 101.2C238.788 102.48 239.208 103.55 240.048 104.41C240.888 105.27 241.928 105.7 243.168 105.7C244.408 105.7 245.448 105.27 246.288 104.41C247.128 103.55 247.548 102.48 247.548 101.2C247.548 99.92 247.128 98.85 246.288 97.99C245.448 97.13 244.408 96.7 243.168 96.7ZM263.783 93.4V95.32C264.863 93.74 266.573 92.95 268.913 92.95V97.12C268.413 96.9 267.903 96.79 267.383 96.79C266.343 96.79 265.483 97.14 264.803 97.84C264.123 98.52 263.783 99.38 263.783 100.42V109H260.033V93.4H263.783Z" fill="#AB85FF"/>
<path d="M193.774 102.58V103.58H194.637L194.763 102.727L193.774 102.58ZM181.384 102.58V101.58H180.073L180.42 102.845L181.384 102.58ZM183.034 105.07L182.419 105.858L182.429 105.867L182.44 105.875L183.034 105.07ZM189.604 104.35L189.882 103.389L189.248 103.206L188.83 103.717L189.604 104.35ZM193.234 105.4L194.102 105.896L194.733 104.793L193.512 104.439L193.234 105.4ZM190.204 108.37L189.72 107.495L189.714 107.498L190.204 108.37ZM179.914 107.11L179.207 107.817L179.214 107.824L179.22 107.83L179.914 107.11ZM179.854 95.32L179.147 94.6129L179.854 95.32ZM191.524 95.32L190.813 96.0226L190.817 96.0271L191.524 95.32ZM181.414 99.67L180.453 99.3953L180.088 100.67H181.414V99.67ZM190.024 99.67V100.67H191.376L190.98 99.3773L190.024 99.67ZM188.374 97.3L188.974 96.5L188.374 97.3ZM193.774 101.58H181.384V103.58H193.774V101.58ZM180.42 102.845C180.756 104.068 181.426 105.084 182.419 105.858L183.649 104.282C183.002 103.776 182.573 103.132 182.348 102.315L180.42 102.845ZM182.44 105.875C183.462 106.629 184.643 107 185.944 107V105C185.046 105 184.286 104.751 183.628 104.265L182.44 105.875ZM185.944 107C187.755 107 189.271 106.337 190.378 104.983L188.83 103.717C188.138 104.563 187.213 105 185.944 105V107ZM189.326 105.311L192.956 106.361L193.512 104.439L189.882 103.389L189.326 105.311ZM192.366 104.904C191.739 106.001 190.864 106.862 189.72 107.495L190.689 109.245C192.145 108.438 193.289 107.319 194.102 105.896L192.366 104.904ZM189.714 107.498C188.593 108.129 187.343 108.45 185.944 108.45V110.45C187.665 110.45 189.255 110.051 190.694 109.242L189.714 107.498ZM185.944 108.45C183.784 108.45 182.028 107.757 180.608 106.39L179.22 107.83C181.04 109.583 183.305 110.45 185.944 110.45V108.45ZM180.621 106.403C179.216 104.997 178.514 103.285 178.514 101.2H176.514C176.514 103.795 177.412 106.023 179.207 107.817L180.621 106.403ZM178.514 101.2C178.514 99.0847 179.203 97.3856 180.561 96.0271L179.147 94.6129C177.385 96.3744 176.514 98.5953 176.514 101.2H178.514ZM180.561 96.0271C181.946 94.6425 183.638 93.95 185.704 93.95V91.95C183.13 91.95 180.922 92.8375 179.147 94.6129L180.561 96.0271ZM185.704 93.95C187.77 93.95 189.45 94.6422 190.813 96.0226L192.236 94.6174C190.479 92.8378 188.278 91.95 185.704 91.95V93.95ZM190.817 96.0271C192.2 97.4099 192.894 99.1113 192.894 101.2H194.894C194.894 98.6087 194.008 96.3901 192.231 94.6129L190.817 96.0271ZM192.894 101.2C192.894 101.515 192.861 101.923 192.785 102.433L194.763 102.727C194.848 102.157 194.894 101.645 194.894 101.2H192.894ZM181.414 100.67H190.024V98.67H181.414V100.67ZM190.98 99.3773C190.62 98.2001 189.948 97.2304 188.974 96.5L187.774 98.1C188.4 98.5695 188.828 99.1799 189.068 99.9627L190.98 99.3773ZM188.974 96.5C187.997 95.7674 186.876 95.4 185.644 95.4V97.4C186.452 97.4 187.151 97.6326 187.774 98.1L188.974 96.5ZM185.644 95.4C184.443 95.4 183.348 95.7735 182.394 96.5074L183.614 98.0926C184.22 97.6265 184.886 97.4 185.644 97.4V95.4ZM182.394 96.5074C181.438 97.2428 180.789 98.2173 180.453 99.3953L182.376 99.9447C182.599 99.1627 183.01 98.5572 183.614 98.0926L182.394 96.5074ZM205.94 93.4H206.94V92.4H205.94V93.4ZM205.94 95.32H204.94V98.555L206.765 95.8843L205.94 95.32ZM211.07 92.95H212.07V91.95H211.07V92.95ZM211.07 97.12L210.667 98.0353L212.07 98.6525V97.12H211.07ZM206.96 97.84L207.667 98.5471L207.672 98.542L207.677 98.5368L206.96 97.84ZM205.94 109V110H206.94V109H205.94ZM202.19 109H201.19V110H202.19V109ZM202.19 93.4V92.4H201.19V93.4H202.19ZM204.94 93.4V95.32H206.94V93.4H204.94ZM206.765 95.8843C207.616 94.6394 208.976 93.95 211.07 93.95V91.95C208.483 91.95 206.423 92.8406 205.114 94.7557L206.765 95.8843ZM210.07 92.95V97.12H212.07V92.95H210.07ZM211.472 96.2047C210.852 95.9317 210.205 95.79 209.54 95.79V97.79C209.914 97.79 210.287 97.8683 210.667 98.0353L211.472 96.2047ZM209.54 95.79C208.249 95.79 207.124 96.2356 206.242 97.1432L207.677 98.5368C208.155 98.0444 208.75 97.79 209.54 97.79V95.79ZM206.253 97.1329C205.369 98.0166 204.94 99.1386 204.94 100.42H206.94C206.94 99.6214 207.19 99.0234 207.667 98.5471L206.253 97.1329ZM204.94 100.42V109H206.94V100.42H204.94ZM205.94 108H202.19V110H205.94V108ZM203.19 109V93.4H201.19V109H203.19ZM202.19 94.4H205.94V92.4H202.19V94.4ZM222.867 93.4H223.867V92.4H222.867V93.4ZM222.867 95.32H221.867V98.555L223.693 95.8843L222.867 95.32ZM227.997 92.95H228.997V91.95H227.997V92.95ZM227.997 97.12L227.595 98.0353L228.997 98.6525V97.12H227.997ZM223.887 97.84L224.594 98.5471L224.6 98.542L224.605 98.5368L223.887 97.84ZM222.867 109V110H223.867V109H222.867ZM219.117 109H218.117V110H219.117V109ZM219.117 93.4V92.4H218.117V93.4H219.117ZM221.867 93.4V95.32H223.867V93.4H221.867ZM223.693 95.8843C224.544 94.6394 225.904 93.95 227.997 93.95V91.95C225.411 91.95 223.351 92.8406 222.042 94.7557L223.693 95.8843ZM226.997 92.95V97.12H228.997V92.95H226.997ZM228.4 96.2047C227.78 95.9317 227.133 95.79 226.467 95.79V97.79C226.842 97.79 227.215 97.8683 227.595 98.0353L228.4 96.2047ZM226.467 95.79C225.177 95.79 224.052 96.2356 223.17 97.1432L224.605 98.5368C225.083 98.0444 225.678 97.79 226.467 97.79V95.79ZM223.18 97.1329C222.296 98.0166 221.867 99.1386 221.867 100.42H223.867C223.867 99.6214 224.118 99.0234 224.594 98.5471L223.18 97.1329ZM221.867 100.42V109H223.867V100.42H221.867ZM222.867 108H219.117V110H222.867V108ZM220.117 109V93.4H218.117V109H220.117ZM219.117 94.4H222.867V92.4H219.117V94.4ZM237.258 107.11L236.547 107.813L236.554 107.819L236.56 107.826L237.258 107.11ZM237.258 95.32L236.551 94.6129L237.258 95.32ZM249.078 95.32L248.371 96.0271L248.376 96.0316L249.078 95.32ZM249.078 107.11L249.777 107.826L249.786 107.817L249.078 107.11ZM240.048 97.99L240.764 98.6887L240.048 97.99ZM240.048 104.41L240.764 103.711L240.048 104.41ZM246.288 104.41L245.573 103.711L246.288 104.41ZM237.97 106.407C236.607 105.027 235.918 103.315 235.918 101.2H233.918C233.918 103.805 234.79 106.033 236.547 107.813L237.97 106.407ZM235.918 101.2C235.918 99.0847 236.607 97.3856 237.966 96.0271L236.551 94.6129C234.79 96.3744 233.918 98.5953 233.918 101.2H235.918ZM237.966 96.0271C239.347 94.646 241.057 93.95 243.168 93.95V91.95C240.56 91.95 238.33 92.834 236.551 94.6129L237.966 96.0271ZM243.168 93.95C245.28 93.95 246.99 94.646 248.371 96.0271L249.786 94.6129C248.007 92.834 245.777 91.95 243.168 91.95V93.95ZM248.376 96.0316C249.753 97.391 250.448 99.0887 250.448 101.2H252.448C252.448 98.5913 251.564 96.369 249.781 94.6084L248.376 96.0316ZM250.448 101.2C250.448 103.311 249.752 105.022 248.371 106.403L249.786 107.817C251.564 106.038 252.448 103.809 252.448 101.2H250.448ZM248.38 106.394C246.977 107.763 245.261 108.45 243.168 108.45V110.45C245.756 110.45 247.98 109.577 249.777 107.826L248.38 106.394ZM243.168 108.45C241.076 108.45 239.36 107.763 237.957 106.394L236.56 107.826C238.357 109.577 240.581 110.45 243.168 110.45V108.45ZM243.168 95.7C241.669 95.7 240.368 96.2319 239.333 97.2913L240.764 98.6887C241.409 98.0281 242.188 97.7 243.168 97.7V95.7ZM239.333 97.2913C238.298 98.351 237.788 99.6775 237.788 101.2H239.788C239.788 100.162 240.119 99.349 240.764 98.6887L239.333 97.2913ZM237.788 101.2C237.788 102.722 238.298 104.049 239.333 105.109L240.764 103.711C240.119 103.051 239.788 102.238 239.788 101.2H237.788ZM239.333 105.109C240.368 106.168 241.669 106.7 243.168 106.7V104.7C242.188 104.7 241.409 104.372 240.764 103.711L239.333 105.109ZM243.168 106.7C244.668 106.7 245.969 106.168 247.004 105.109L245.573 103.711C244.928 104.372 244.149 104.7 243.168 104.7V106.7ZM247.004 105.109C248.039 104.049 248.548 102.722 248.548 101.2H246.548C246.548 102.238 246.218 103.051 245.573 103.711L247.004 105.109ZM248.548 101.2C248.548 99.6775 248.039 98.351 247.004 97.2913L245.573 98.6887C246.218 99.349 246.548 100.162 246.548 101.2H248.548ZM247.004 97.2913C245.969 96.2319 244.668 95.7 243.168 95.7V97.7C244.149 97.7 244.928 98.0281 245.573 98.6887L247.004 97.2913ZM263.783 93.4H264.783V92.4H263.783V93.4ZM263.783 95.32H262.783V98.555L264.609 95.8843L263.783 95.32ZM268.913 92.95H269.913V91.95H268.913V92.95ZM268.913 97.12L268.511 98.0353L269.913 98.6525V97.12H268.913ZM264.803 97.84L265.51 98.5471L265.516 98.542L265.521 98.5368L264.803 97.84ZM263.783 109V110H264.783V109H263.783ZM260.033 109H259.033V110H260.033V109ZM260.033 93.4V92.4H259.033V93.4H260.033ZM262.783 93.4V95.32H264.783V93.4H262.783ZM264.609 95.8843C265.46 94.6394 266.82 93.95 268.913 93.95V91.95C266.327 91.95 264.267 92.8406 262.958 94.7557L264.609 95.8843ZM267.913 92.95V97.12H269.913V92.95H267.913ZM269.316 96.2047C268.696 95.9317 268.049 95.79 267.383 95.79V97.79C267.758 97.79 268.131 97.8683 268.511 98.0353L269.316 96.2047ZM267.383 95.79C266.093 95.79 264.968 96.2356 264.086 97.1432L265.521 98.5368C265.999 98.0444 266.594 97.79 267.383 97.79V95.79ZM264.096 97.1329C263.213 98.0166 262.783 99.1386 262.783 100.42H264.783C264.783 99.6214 265.034 99.0234 265.51 98.5471L264.096 97.1329ZM262.783 100.42V109H264.783V100.42H262.783ZM263.783 108H260.033V110H263.783V108ZM261.033 109V93.4H259.033V109H261.033ZM260.033 94.4H263.783V92.4H260.033V94.4Z" fill="black"/>
<path d="M93.4121 107L47.4121 107M47.4121 107L48.6724 108M47.4121 107L48.6724 106" stroke="black"/>
<path d="M93.4121 59L60.4121 59M60.4121 59L61.3162 60M60.4121 59L61.3162 58" stroke="black"/>
<defs>
<clipPath id="clip0">
</clipPath>
</defs>
</svg>
