<svg width="341" height="181" viewBox="0 0 341 181" fill="none" xmlns="http://www.w3.org/2000/svg">
<rect width="341" height="180" transform="translate(0 0.5)" fill="#F5F5F5"/>
<path d="M86.2691 94.7695L40.7988 146.077H170.907L213.226 94.7695H86.2691Z" fill="#AB85FF"/>
<mask id="mask0" mask-type="alpha" maskUnits="userSpaceOnUse" x="40" y="94" width="174" height="53">
<path d="M86.2691 94.7695L40.7988 146.077H170.907L213.226 94.7695H86.2691Z" fill="#AB85FF"/>
</mask>
<g mask="url(#mask0)">
<path d="M319.556 96.6031C236.548 63.6636 177.257 63.6636 141.682 96.6031C106.107 129.543 46.8163 129.543 -36.1913 96.6031" stroke="#C9AEFF"/>
<path d="M309.156 159.686C245.522 110.138 189.303 97.0549 140.501 120.438C91.6983 143.821 35.4797 130.738 -28.1549 81.1894" stroke="#C9AEFF"/>
<path d="M316.046 137.906C229.568 109.597 170.46 112.832 138.723 147.611C106.985 182.39 47.8769 185.625 -38.601 157.317" stroke="#C9AEFF"/>
</g>
<path d="M144.563 64.7969L123.599 88.453H183.587L203.099 64.7969H144.563Z" fill="#C9AEFF"/>
<mask id="mask1" mask-type="alpha" maskUnits="userSpaceOnUse" x="123" y="64" width="81" height="25">
<path d="M144.563 64.7969L123.599 88.453H183.587L203.099 64.7969H144.563Z" fill="#C9AEFF"/>
</mask>
<g mask="url(#mask1)">
<path d="M252.123 65.6404C213.851 50.4532 186.514 50.4532 170.112 65.6404C153.71 80.8277 126.373 80.8277 88.1007 65.6404" stroke="#8052E4"/>
<path d="M247.329 94.7259C217.99 71.8809 192.069 65.8489 169.568 76.6299C147.067 87.4109 121.147 81.3789 91.807 58.5339" stroke="#8052E4"/>
<path d="M250.506 84.6873C210.634 71.6352 183.381 73.1268 168.748 89.1621C154.115 105.197 126.862 106.689 86.9903 93.637" stroke="#8052E4"/>
</g>
<path d="M87.7012 34.9219C74.2012 35.9219 48.4012 46.6219 47.2012 75.4219C47.2012 111.422 74.7012 120.922 88.2012 120.922C107.701 120.922 188.701 120.922 234.701 120.922" stroke="black"/>
<path d="M87.498 34.9219H159.702" stroke="black"/>
<path d="M271.201 120.922C284.701 119.922 310.501 109.222 311.701 80.4219C311.701 44.4219 284.201 34.9219 270.701 34.9219C251.201 34.9219 170.201 34.9219 124.201 34.9219" stroke="black"/>
<path d="M271.404 120.922H199.201" stroke="black"/>
<path d="M139.201 120.422V35.4219M139.201 120.422V35.4219" stroke="black"/>
<path d="M134.701 120.922V34.9219M134.701 120.922V34.9219" stroke="black"/>
<path d="M129.701 120.922V34.9219M129.701 120.922V34.9219" stroke="black"/>
<path d="M124.701 120.922V34.9219M124.701 120.922V34.9219" stroke="black"/>
<path d="M119.701 120.922V34.9219M119.701 120.922V34.9219" stroke="black"/>
<path d="M114.701 120.922V34.9219M114.701 120.922V34.9219" stroke="black"/>
<path d="M109.701 120.922V34.9219M109.701 120.922V34.9219" stroke="black"/>
<path d="M104.701 120.922V34.9219M104.701 120.922V34.9219" stroke="black"/>
<circle cx="76.6738" cy="82.375" r="1.375" transform="rotate(-180 76.6738 82.375)" fill="#D4D4D4"/>
<circle cx="70.9238" cy="82.375" r="1.375" transform="rotate(-180 70.9238 82.375)" fill="#D4D4D4"/>
<circle cx="65.1738" cy="82.375" r="1.375" transform="rotate(-180 65.1738 82.375)" fill="#D4D4D4"/>
<circle cx="59.6738" cy="82.375" r="1.375" transform="rotate(-180 59.6738 82.375)" fill="#D4D4D4"/>
<circle cx="53.6738" cy="82.375" r="1.375" transform="rotate(-180 53.6738 82.375)" fill="#D4D4D4"/>
<circle cx="47.9238" cy="82.375" r="1.375" transform="rotate(-180 47.9238 82.375)" fill="#D4D4D4"/>
<circle cx="42.1738" cy="82.375" r="1.375" transform="rotate(-180 42.1738 82.375)" fill="#D4D4D4"/>
<circle cx="36.4238" cy="82.375" r="1.375" transform="rotate(-180 36.4238 82.375)" fill="#D4D4D4"/>
<circle cx="30.6738" cy="82.375" r="1.375" transform="rotate(-180 30.6738 82.375)" fill="#D4D4D4"/>
<circle cx="76.6738" cy="76.625" r="1.375" transform="rotate(-180 76.6738 76.625)" fill="#D4D4D4"/>
<circle cx="70.9238" cy="76.625" r="1.375" transform="rotate(-180 70.9238 76.625)" fill="#D4D4D4"/>
<circle cx="76.6738" cy="70.875" r="1.375" transform="rotate(-180 76.6738 70.875)" fill="#D4D4D4"/>
<circle cx="70.9238" cy="70.875" r="1.375" transform="rotate(-180 70.9238 70.875)" fill="#D4D4D4"/>
<circle cx="65.1738" cy="70.875" r="1.375" transform="rotate(-180 65.1738 70.875)" fill="#D4D4D4"/>
<circle cx="59.4238" cy="70.875" r="1.375" transform="rotate(-180 59.4238 70.875)" fill="#D4D4D4"/>
<circle cx="53.6738" cy="70.875" r="1.375" transform="rotate(-180 53.6738 70.875)" fill="#D4D4D4"/>
<circle cx="47.9238" cy="70.875" r="1.375" transform="rotate(-180 47.9238 70.875)" fill="#D4D4D4"/>
<circle cx="42.1738" cy="70.875" r="1.375" transform="rotate(-180 42.1738 70.875)" fill="#D4D4D4"/>
<circle cx="36.4238" cy="70.875" r="1.375" transform="rotate(-180 36.4238 70.875)" fill="#D4D4D4"/>
<circle cx="30.6738" cy="70.875" r="1.375" transform="rotate(-180 30.6738 70.875)" fill="#D4D4D4"/>
<circle cx="65.1738" cy="76.625" r="1.375" transform="rotate(-180 65.1738 76.625)" fill="#D4D4D4"/>
<circle cx="59.6738" cy="76.625" r="1.375" transform="rotate(-180 59.6738 76.625)" fill="#D4D4D4"/>
<circle cx="53.6738" cy="76.625" r="1.375" transform="rotate(-180 53.6738 76.625)" fill="#D4D4D4"/>
<circle cx="47.9238" cy="76.625" r="1.375" transform="rotate(-180 47.9238 76.625)" fill="#D4D4D4"/>
<circle cx="42.1738" cy="76.625" r="1.375" transform="rotate(-180 42.1738 76.625)" fill="#D4D4D4"/>
<circle cx="36.4238" cy="76.625" r="1.375" transform="rotate(-180 36.4238 76.625)" fill="#D4D4D4"/>
<circle cx="30.6738" cy="76.625" r="1.375" transform="rotate(-180 30.6738 76.625)" fill="#D4D4D4"/>
<circle cx="258.202" cy="78.0018" r="33.6971" fill="#31D67B"/>
<path d="M227.76 92.5205L266.396 75.0275M266.396 75.0275L265.106 74.996M266.396 75.0275L265.569 76.0175" stroke="black"/>
<path d="M230.546 97.2588L301.467 65.1483M301.467 65.1483L299.293 65.5172M301.467 65.1483L299.756 66.5387" stroke="black"/>
<path d="M232.869 100.028L285.523 76.1886M285.523 76.1886L283.849 76.331M285.523 76.1886L284.312 77.3525" stroke="black"/>
</svg>
