<svg width="341" height="181" viewBox="0 0 341 181" fill="none" xmlns="http://www.w3.org/2000/svg">
<rect width="341" height="180" transform="translate(0 0.5)" fill="#F5F5F5"/>
<rect x="54.1006" y="42.6914" width="157.296" height="30.2721" fill="#C9AEFF"/>
<rect x="133.04" y="90.0039" width="99.9788" height="19.2412" fill="#31D67B"/>
<rect x="133.04" y="90.0039" width="99.9788" height="19.2412" fill="#A57CFE"/>
<rect x="211.397" y="125.199" width="71.321" height="13.7259" fill="#31D67B"/>
<rect x="211.397" y="125.199" width="71.321" height="13.7259" fill="#8052E4"/>
<path d="M187.723 113.746L178.223 104.246" stroke="black"/>
<path d="M181.223 114.246L171.723 104.746" stroke="black"/>
<path d="M174.723 114.246L165.223 104.746" stroke="black"/>
<path d="M168.223 114.246L158.723 104.746" stroke="black"/>
<path d="M161.723 114.246L152.223 104.746" stroke="black"/>
<path d="M155.223 114.246L145.723 104.746" stroke="black"/>
<path d="M148.723 114.246L139.223 104.746" stroke="black"/>
<path d="M279.759 108.996C279.759 105.856 278.512 102.845 276.291 100.624C274.071 98.4037 271.059 97.1563 267.919 97.1563C264.779 97.1562 261.767 98.4037 259.547 100.624C257.327 102.845 256.079 105.856 256.079 108.996L267.919 108.996H279.759Z" fill="#D4D4D4"/>
<path d="M262.281 108.995C262.281 106.901 261.479 104.894 260.051 103.413C258.624 101.933 256.688 101.102 254.669 101.102C252.65 101.102 250.714 101.933 249.287 103.413C247.86 104.894 247.058 106.901 247.058 108.995L254.669 108.995H262.281Z" fill="#D4D4D4"/>
<path d="M296.109 108.995C296.109 106.901 294.95 104.894 292.889 103.413C290.827 101.933 288.03 101.102 285.114 101.102C282.199 101.102 279.402 101.933 277.34 103.413C275.278 104.894 274.12 106.901 274.12 108.995L285.114 108.995H296.109Z" fill="#D4D4D4"/>
<path d="M102.414 135.17C102.414 128.101 99.606 121.321 94.6074 116.323C89.6087 111.324 82.829 108.516 75.7599 108.516C68.6907 108.516 61.911 111.324 56.9124 116.323C51.9137 121.321 49.1055 128.101 49.1055 135.17L75.7599 135.17H102.414Z" fill="#4AE991"/>
<path d="M63.0668 135.168C63.0668 130.455 61.2615 125.935 58.0481 122.603C54.8347 119.271 50.4763 117.398 45.9318 117.398C41.3874 117.398 37.029 119.271 33.8156 122.603C30.6022 125.935 28.7969 130.455 28.7969 135.168L45.9318 135.168H63.0668Z" fill="#4AE991"/>
<path d="M139.223 135.168C139.223 130.455 136.615 125.935 131.973 122.603C127.332 119.271 121.036 117.398 114.472 117.398C107.908 117.398 101.613 119.271 96.9709 122.603C92.3293 125.935 89.7217 130.455 89.7217 135.168L114.472 135.168H139.223Z" fill="#4AE991"/>
<path d="M229.871 34.4363C229.871 30.389 228.263 26.5074 225.401 23.6455C222.539 20.7836 218.657 19.1758 214.61 19.1758C210.563 19.1758 206.681 20.7836 203.819 23.6455C200.957 26.5074 199.35 30.3889 199.35 34.4363L214.61 34.4363H229.871Z" fill="#31D67B"/>
<path d="M207.343 34.4354C207.343 31.7372 206.31 29.1495 204.47 27.2415C202.63 25.3336 200.135 24.2617 197.533 24.2617C194.931 24.2617 192.436 25.3336 190.596 27.2415C188.756 29.1495 187.723 31.7372 187.723 34.4354L197.533 34.4354H207.343Z" fill="#31D67B"/>
<path d="M250.944 34.4354C250.944 31.7372 249.451 29.1495 246.794 27.2415C244.137 25.3336 240.532 24.2617 236.774 24.2617C233.016 24.2617 229.411 25.3336 226.754 27.2415C224.096 29.1495 222.604 31.7372 222.604 34.4354L236.774 34.4354H250.944Z" fill="#31D67B"/>
<path d="M58.21 54.1764L87.9358 54.1764M87.9358 54.1764L87.1214 53.7355M87.9358 54.1764L87.1214 54.6172" stroke="black" stroke-width="1.97979"/>
<path d="M58.21 61.5002L99.7446 61.5002M99.7446 61.5002L98.6067 61.0434M99.7446 61.5002L98.6067 61.957" stroke="black" stroke-width="1.97979"/>
<path d="M58.21 46.8831L76.9413 46.8831M76.9413 46.8831L76.4281 46.4263M76.9413 46.8831L76.4281 47.3398" stroke="black" stroke-width="1.97979"/>
<path d="M58.21 68.8088H71.6477M71.6477 68.8088L71.2795 68.352M71.6477 68.8088L71.2795 69.2656" stroke="black" stroke-width="1.97979"/>
<circle cx="53.0157" cy="57.8476" r="14.1272" transform="rotate(90 53.0157 57.8476)" fill="#F5F5F5" stroke="black" stroke-width="1.97979"/>
</svg>
