<svg width="227" height="97" viewBox="0 0 227 97" fill="none" xmlns="http://www.w3.org/2000/svg">
<path d="M172.621 54.8175L192.908 35.3965M192.908 35.3965L185.001 38.3876M192.908 35.3965L189.882 42.4852" stroke="url(#paint0_linear)"/>
<circle r="13.5" transform="matrix(1 0 0 -1 14 31.8184)" stroke="url(#paint1_linear)"/>
<path d="M152.149 56.1668L131.111 40.204" stroke="url(#paint2_linear)"/>
<circle r="13.5" transform="matrix(1 0 0 -1 61 68.8184)" stroke="url(#paint3_linear)"/>
<circle r="13.5" transform="matrix(1 0 0 -1 118.949 34.9355)" stroke="url(#paint4_linear)"/>
<circle r="19.5" transform="matrix(-1 0 0 1 61.5 68.9355)" stroke="url(#paint5_linear)"/>
<path d="M46.5 81.9355L23 95.4355L20.5 91.4355L44 77.9355" stroke="url(#paint6_linear)"/>
<circle r="13.5" transform="matrix(1 0 0 -1 163 63.9355)" stroke="url(#paint7_linear)"/>
<path d="M23.5 41.8187L46.5 56.4551" stroke="url(#paint8_linear)"/>
<path d="M75 55.3613L106.054 38.1955" stroke="url(#paint9_linear)"/>
<path d="M53.043 68.4526H61.0014M68.9598 68.4526H61.0014M61.0014 68.4526V76.1699V61.7001" stroke="url(#paint10_linear)"/>
<path d="M149.836 18.2556V12.9756C149.836 11.2476 150.46 9.80762 151.708 8.65562C152.972 7.48762 154.54 6.90362 156.412 6.90362C158.316 6.90362 159.884 7.48762 161.116 8.65562C162.38 9.80762 163.012 11.2476 163.012 12.9756V18.2556C163.012 19.9836 162.38 21.4316 161.116 22.5996C159.868 23.7516 158.3 24.3276 156.412 24.3276C154.54 24.3276 152.972 23.7516 151.708 22.5996C150.46 21.4316 149.836 19.9836 149.836 18.2556ZM153.484 12.9276V18.3036C153.484 19.0076 153.764 19.6076 154.324 20.1036C154.884 20.5836 155.58 20.8236 156.412 20.8236C157.244 20.8236 157.94 20.5836 158.5 20.1036C159.06 19.6076 159.34 19.0076 159.34 18.3036V12.9276C159.34 12.2076 159.06 11.6076 158.5 11.1276C157.94 10.6476 157.244 10.4076 156.412 10.4076C155.58 10.4076 154.884 10.6476 154.324 11.1276C153.764 11.6076 153.484 12.2076 153.484 12.9276ZM168.872 11.5356L166.136 12.8316L164.696 9.68762L169.904 7.21562H172.52V24.0156H168.872V11.5356ZM175.641 18.2556V12.9756C175.641 11.2476 176.265 9.80762 177.513 8.65562C178.777 7.48762 180.345 6.90362 182.217 6.90362C184.121 6.90362 185.689 7.48762 186.921 8.65562C188.185 9.80762 188.817 11.2476 188.817 12.9756V18.2556C188.817 19.9836 188.185 21.4316 186.921 22.5996C185.673 23.7516 184.105 24.3276 182.217 24.3276C180.345 24.3276 178.777 23.7516 177.513 22.5996C176.265 21.4316 175.641 19.9836 175.641 18.2556ZM179.289 12.9276V18.3036C179.289 19.0076 179.569 19.6076 180.129 20.1036C180.689 20.5836 181.385 20.8236 182.217 20.8236C183.049 20.8236 183.745 20.5836 184.305 20.1036C184.865 19.6076 185.145 19.0076 185.145 18.3036V12.9276C185.145 12.2076 184.865 11.6076 184.305 11.1276C183.745 10.6476 183.049 10.4076 182.217 10.4076C181.385 10.4076 180.689 10.6476 180.129 11.1276C179.569 11.6076 179.289 12.2076 179.289 12.9276ZM194.677 11.5356L191.941 12.8316L190.501 9.68762L195.709 7.21562H198.325V24.0156H194.677V11.5356ZM205.645 11.5356L202.909 12.8316L201.469 9.68762L206.677 7.21562H209.293V24.0156H205.645V11.5356ZM212.414 18.2556V12.9756C212.414 11.2476 213.038 9.80762 214.286 8.65562C215.55 7.48762 217.118 6.90362 218.99 6.90362C220.894 6.90362 222.462 7.48762 223.694 8.65562C224.958 9.80762 225.59 11.2476 225.59 12.9756V18.2556C225.59 19.9836 224.958 21.4316 223.694 22.5996C222.446 23.7516 220.878 24.3276 218.99 24.3276C217.118 24.3276 215.55 23.7516 214.286 22.5996C213.038 21.4316 212.414 19.9836 212.414 18.2556ZM216.062 12.9276V18.3036C216.062 19.0076 216.342 19.6076 216.902 20.1036C217.462 20.5836 218.158 20.8236 218.99 20.8236C219.822 20.8236 220.518 20.5836 221.078 20.1036C221.638 19.6076 221.918 19.0076 221.918 18.3036V12.9276C221.918 12.2076 221.638 11.6076 221.078 11.1276C220.518 10.6476 219.822 10.4076 218.99 10.4076C218.158 10.4076 217.462 10.6476 216.902 11.1276C216.342 11.6076 216.062 12.2076 216.062 12.9276Z" fill="url(#paint11_linear)"/>
<defs>
<linearGradient id="paint0_linear" x1="170.622" y1="57.9464" x2="198.81" y2="32.9349" gradientUnits="userSpaceOnUse">
<stop stop-color="#AB85FF"/>
<stop offset="0.526042" stop-color="#EBA3E3"/>
<stop offset="1" stop-color="#FFDBE4"/>
</linearGradient>
<linearGradient id="paint1_linear" x1="-4.55467" y1="30.7963" x2="27.7184" y2="-10.9219" gradientUnits="userSpaceOnUse">
<stop stop-color="#AB85FF"/>
<stop offset="0.526042" stop-color="#EBA3E3"/>
<stop offset="1" stop-color="#FFDBE4"/>
</linearGradient>
<linearGradient id="paint2_linear" x1="155.233" y1="57.498" x2="124.79" y2="39.8435" gradientUnits="userSpaceOnUse">
<stop stop-color="#AB85FF"/>
<stop offset="0.526042" stop-color="#EBA3E3"/>
<stop offset="1" stop-color="#FFDBE4"/>
</linearGradient>
<linearGradient id="paint3_linear" x1="-4.55467" y1="30.7963" x2="27.7184" y2="-10.9219" gradientUnits="userSpaceOnUse">
<stop stop-color="#AB85FF"/>
<stop offset="0.526042" stop-color="#EBA3E3"/>
<stop offset="1" stop-color="#FFDBE4"/>
</linearGradient>
<linearGradient id="paint4_linear" x1="-4.55467" y1="30.7963" x2="27.7184" y2="-10.9219" gradientUnits="userSpaceOnUse">
<stop stop-color="#AB85FF"/>
<stop offset="0.526042" stop-color="#EBA3E3"/>
<stop offset="1" stop-color="#FFDBE4"/>
</linearGradient>
<linearGradient id="paint5_linear" x1="-6.50667" y1="43.9948" x2="39.5977" y2="-15.6028" gradientUnits="userSpaceOnUse">
<stop stop-color="#AB85FF"/>
<stop offset="0.526042" stop-color="#EBA3E3"/>
<stop offset="1" stop-color="#FFDBE4"/>
</linearGradient>
<linearGradient id="paint6_linear" x1="50.7293" y1="97.1833" x2="33.6568" y2="64.3949" gradientUnits="userSpaceOnUse">
<stop stop-color="#AB85FF"/>
<stop offset="0.526042" stop-color="#EBA3E3"/>
<stop offset="1" stop-color="#FFDBE4"/>
</linearGradient>
<linearGradient id="paint7_linear" x1="-4.55467" y1="30.7963" x2="27.7184" y2="-10.9219" gradientUnits="userSpaceOnUse">
<stop stop-color="#AB85FF"/>
<stop offset="0.526042" stop-color="#EBA3E3"/>
<stop offset="1" stop-color="#FFDBE4"/>
</linearGradient>
<linearGradient id="paint8_linear" x1="19.7587" y1="40.357" x2="33.5713" y2="68.415" gradientUnits="userSpaceOnUse">
<stop stop-color="#AB85FF"/>
<stop offset="0.526042" stop-color="#EBA3E3"/>
<stop offset="1" stop-color="#FFDBE4"/>
</linearGradient>
<linearGradient id="paint9_linear" x1="69.9485" y1="36.4812" x2="84.7278" y2="71.0433" gradientUnits="userSpaceOnUse">
<stop stop-color="#AB85FF"/>
<stop offset="0.526042" stop-color="#EBA3E3"/>
<stop offset="1" stop-color="#FFDBE4"/>
</linearGradient>
<linearGradient id="paint10_linear" x1="50.4538" y1="60.255" x2="66.6693" y2="83.3124" gradientUnits="userSpaceOnUse">
<stop stop-color="#AB85FF"/>
<stop offset="0.526042" stop-color="#EBA3E3"/>
<stop offset="1" stop-color="#FFDBE4"/>
</linearGradient>
<linearGradient id="paint11_linear" x1="136.308" y1="39.6109" x2="163.459" y2="-36.4324" gradientUnits="userSpaceOnUse">
<stop stop-color="#AB85FF"/>
<stop offset="0.526042" stop-color="#EBA3E3"/>
<stop offset="1" stop-color="#FFDBE4"/>
</linearGradient>
</defs>
</svg>
