<svg width="205" height="73" viewBox="0 0 205 73" fill="none" xmlns="http://www.w3.org/2000/svg">
<path d="M52.8847 14.7196L59.0845 33.8006L59.1968 34.1461H59.56H79.623L63.3917 45.9388L63.0978 46.1524L63.2101 46.4979L69.4099 65.5789L53.1786 53.7862L52.8847 53.5726L52.5908 53.7862L36.3595 65.5789L42.5593 46.4979L42.6716 46.1524L42.3777 45.9388L26.1464 34.1461H46.2094H46.5726L46.6849 33.8006L52.8847 14.7196Z" stroke="url(#paint0_linear)"/>
<path d="M103.95 43.0664C103.95 45.6014 102.604 48.0738 100.045 50.3803C97.4856 52.6867 93.7541 54.7866 89.1005 56.5604C79.7968 60.1067 66.91 62.3106 52.6509 62.3106C38.3918 62.3106 25.5051 60.1067 16.2013 56.5604C11.5477 54.7866 7.81624 52.6867 5.25694 50.3803C2.69753 48.0738 1.35156 45.6014 1.35156 43.0664C1.35156 40.5314 2.69753 38.059 5.25694 35.7525C7.81624 33.4461 11.5477 31.3462 16.2013 29.5724C25.5051 26.0261 38.3918 23.8223 52.6509 23.8223C66.91 23.8223 79.7968 26.0261 89.1005 29.5724C93.7541 31.3462 97.4856 33.4461 100.045 35.7525C102.604 38.059 103.95 40.5314 103.95 43.0664Z" stroke="url(#paint1_linear)"/>
<path d="M166.577 19.3192L171.018 32.9889L171.131 33.3344H171.494H185.867L174.239 41.7827L173.945 41.9962L174.057 42.3417L178.499 56.0114L166.871 47.5631L166.577 47.3495L166.283 47.5631L154.655 56.0114L159.096 42.3417L159.209 41.9962L158.915 41.7827L147.287 33.3344H161.66H162.023L162.135 32.9889L166.577 19.3192Z" stroke="url(#paint2_linear)"/>
<path d="M204.061 39.7741C204.061 41.591 203.097 43.3794 201.228 45.0637C199.359 46.7479 196.627 48.2875 193.208 49.5908C186.373 52.1959 176.897 53.8177 166.406 53.8177C155.914 53.8177 146.438 52.1959 139.604 49.5908C136.185 48.2875 133.452 46.7479 131.583 45.0637C129.714 43.3794 128.75 41.591 128.75 39.7741C128.75 37.9571 129.714 36.1688 131.583 34.4845C133.452 32.8003 136.185 31.2606 139.604 29.9574C146.438 27.3523 155.914 25.7305 166.406 25.7305C176.897 25.7305 186.373 27.3523 193.208 29.9574C196.627 31.2606 199.359 32.8003 201.228 34.4845C203.097 36.1688 204.061 37.9571 204.061 39.7741Z" stroke="url(#paint3_linear)"/>
<path d="M118.104 2.036L120.476 9.33585L120.588 9.68134H120.952H128.627L122.418 14.1929L122.124 14.4064L122.236 14.7519L124.608 22.0518L118.398 17.5402L118.104 17.3267L117.81 17.5402L111.601 22.0518L113.973 14.7519L114.085 14.4064L113.791 14.1929L107.581 9.68134H115.257H115.62L115.732 9.33585L118.104 2.036Z" stroke="url(#paint4_linear)"/>
<path d="M139.601 13.1993C139.601 14.171 139.086 15.1542 138.03 16.1061C136.973 17.0579 135.417 17.938 133.451 18.6873C129.523 20.1847 124.062 21.1213 118.005 21.1213C111.949 21.1213 106.488 20.1847 102.56 18.6873C100.594 17.938 99.0374 17.0579 97.9812 16.1061C96.9249 15.1542 96.4102 14.171 96.4102 13.1993C96.4102 12.2276 96.9249 11.2444 97.9812 10.2925C99.0374 9.3407 100.594 8.46062 102.56 7.71129C106.488 6.21394 111.949 5.27734 118.005 5.27734C124.062 5.27734 129.523 6.21394 133.451 7.71129C135.417 8.46062 136.973 9.3407 138.03 10.2925C139.086 11.2444 139.601 12.2276 139.601 13.1993Z" stroke="url(#paint5_linear)"/>
<defs>
<linearGradient id="paint0_linear" x1="13.4794" y1="78.505" x2="82.019" y2="-10.0938" gradientUnits="userSpaceOnUse">
<stop stop-color="#AB85FF"/>
<stop offset="0.526042" stop-color="#EBA3E3"/>
<stop offset="1" stop-color="#FFDBE4"/>
</linearGradient>
<linearGradient id="paint1_linear" x1="-16.0005" y1="66.7542" x2="9.51213" y2="-19.7679" gradientUnits="userSpaceOnUse">
<stop stop-color="#AB85FF"/>
<stop offset="0.526042" stop-color="#EBA3E3"/>
<stop offset="1" stop-color="#FFDBE4"/>
</linearGradient>
<linearGradient id="paint2_linear" x1="137.551" y1="65.8776" x2="188.037" y2="0.615374" gradientUnits="userSpaceOnUse">
<stop stop-color="#AB85FF"/>
<stop offset="0.526042" stop-color="#EBA3E3"/>
<stop offset="1" stop-color="#FFDBE4"/>
</linearGradient>
<linearGradient id="paint3_linear" x1="115.837" y1="57.2226" x2="134.629" y2="-6.50993" gradientUnits="userSpaceOnUse">
<stop stop-color="#AB85FF"/>
<stop offset="0.526042" stop-color="#EBA3E3"/>
<stop offset="1" stop-color="#FFDBE4"/>
</linearGradient>
<linearGradient id="paint4_linear" x1="101.296" y1="28.3161" x2="130.532" y2="-9.47612" gradientUnits="userSpaceOnUse">
<stop stop-color="#AB85FF"/>
<stop offset="0.526042" stop-color="#EBA3E3"/>
<stop offset="1" stop-color="#FFDBE4"/>
</linearGradient>
<linearGradient id="paint5_linear" x1="88.7218" y1="23.3034" x2="99.6044" y2="-13.603" gradientUnits="userSpaceOnUse">
<stop stop-color="#AB85FF"/>
<stop offset="0.526042" stop-color="#EBA3E3"/>
<stop offset="1" stop-color="#FFDBE4"/>
</linearGradient>
</defs>
</svg>
