<svg width="226" height="67" viewBox="0 0 226 67" fill="none" xmlns="http://www.w3.org/2000/svg">
<rect x="1.12109" y="17.3438" width="97.883" height="48.2215" stroke="url(#paint0_linear)"/>
<rect x="11.5312" y="34.5742" width="52" height="2" stroke="url(#paint1_linear)"/>
<rect x="11.5312" y="25.3086" width="52" height="2" stroke="url(#paint2_linear)"/>
<rect x="11.5312" y="45.5742" width="52" height="2" stroke="url(#paint3_linear)"/>
<rect x="11.5312" y="56.5742" width="52" height="2" stroke="url(#paint4_linear)"/>
<path d="M71.3283 19.0505V13.7705C71.3283 12.0425 71.9523 10.6025 73.2003 9.45055C74.4643 8.28255 76.0323 7.69855 77.9043 7.69855C79.8083 7.69855 81.3763 8.28255 82.6083 9.45055C83.8723 10.6025 84.5043 12.0425 84.5043 13.7705V19.0505C84.5043 20.7785 83.8723 22.2265 82.6083 23.3945C81.3603 24.5465 79.7923 25.1225 77.9043 25.1225C76.0323 25.1225 74.4643 24.5465 73.2003 23.3945C71.9523 22.2265 71.3283 20.7785 71.3283 19.0505ZM74.9763 13.7225V19.0985C74.9763 19.8025 75.2563 20.4025 75.8163 20.8985C76.3763 21.3785 77.0723 21.6185 77.9043 21.6185C78.7363 21.6185 79.4323 21.3785 79.9923 20.8985C80.5523 20.4025 80.8323 19.8025 80.8323 19.0985V13.7225C80.8323 13.0025 80.5523 12.4025 79.9923 11.9225C79.4323 11.4425 78.7363 11.2025 77.9043 11.2025C77.0723 11.2025 76.3763 11.4425 75.8163 11.9225C75.2563 12.4025 74.9763 13.0025 74.9763 13.7225ZM90.3642 12.3305L87.6282 13.6265L86.1882 10.4825L91.3962 8.01055H94.0122V24.8105H90.3642V12.3305ZM97.133 19.0505V13.7705C97.133 12.0425 97.757 10.6025 99.005 9.45055C100.269 8.28255 101.837 7.69855 103.709 7.69855C105.613 7.69855 107.181 8.28255 108.413 9.45055C109.677 10.6025 110.309 12.0425 110.309 13.7705V19.0505C110.309 20.7785 109.677 22.2265 108.413 23.3945C107.165 24.5465 105.597 25.1225 103.709 25.1225C101.837 25.1225 100.269 24.5465 99.005 23.3945C97.757 22.2265 97.133 20.7785 97.133 19.0505ZM100.781 13.7225V19.0985C100.781 19.8025 101.061 20.4025 101.621 20.8985C102.181 21.3785 102.877 21.6185 103.709 21.6185C104.541 21.6185 105.237 21.3785 105.797 20.8985C106.357 20.4025 106.637 19.8025 106.637 19.0985V13.7225C106.637 13.0025 106.357 12.4025 105.797 11.9225C105.237 11.4425 104.541 11.2025 103.709 11.2025C102.877 11.2025 102.181 11.4425 101.621 11.9225C101.061 12.4025 100.781 13.0025 100.781 13.7225Z" fill="url(#paint5_linear)"/>
<rect x="118.91" y="17.3438" width="97.883" height="48.2215" stroke="url(#paint6_linear)"/>
<rect x="129.32" y="34.5742" width="52" height="2" stroke="url(#paint7_linear)"/>
<rect x="129.32" y="25.3086" width="52" height="2" stroke="url(#paint8_linear)"/>
<rect x="129.32" y="45.5742" width="52" height="2" stroke="url(#paint9_linear)"/>
<rect x="129.32" y="56.5742" width="52" height="2" stroke="url(#paint10_linear)"/>
<path d="M193.321 12.3305L190.585 13.6265L189.145 10.4825L194.353 8.01055H196.969V24.8105H193.321V12.3305ZM200.09 19.0505V13.7705C200.09 12.0425 200.714 10.6025 201.962 9.45055C203.226 8.28255 204.794 7.69855 206.666 7.69855C208.57 7.69855 210.138 8.28255 211.37 9.45055C212.634 10.6025 213.266 12.0425 213.266 13.7705V19.0505C213.266 20.7785 212.634 22.2265 211.37 23.3945C210.122 24.5465 208.554 25.1225 206.666 25.1225C204.794 25.1225 203.226 24.5465 201.962 23.3945C200.714 22.2265 200.09 20.7785 200.09 19.0505ZM203.738 13.7225V19.0985C203.738 19.8025 204.018 20.4025 204.578 20.8985C205.138 21.3785 205.834 21.6185 206.666 21.6185C207.498 21.6185 208.194 21.3785 208.754 20.8985C209.314 20.4025 209.594 19.8025 209.594 19.0985V13.7225C209.594 13.0025 209.314 12.4025 208.754 11.9225C208.194 11.4425 207.498 11.2025 206.666 11.2025C205.834 11.2025 205.138 11.4425 204.578 11.9225C204.018 12.4025 203.738 13.0025 203.738 13.7225ZM219.126 12.3305L216.39 13.6265L214.95 10.4825L220.158 8.01055H222.774V24.8105H219.126V12.3305Z" fill="url(#paint11_linear)"/>
<defs>
<linearGradient id="paint0_linear" x1="-15.4639" y1="70.9809" x2="23.8476" y2="-31.1066" gradientUnits="userSpaceOnUse">
<stop stop-color="#AB85FF"/>
<stop offset="0.526042" stop-color="#EBA3E3"/>
<stop offset="1" stop-color="#FFDBE4"/>
</linearGradient>
<linearGradient id="paint1_linear" x1="2.40991" y1="37.3738" x2="2.72217" y2="30.2427" gradientUnits="userSpaceOnUse">
<stop stop-color="#AB85FF"/>
<stop offset="0.526042" stop-color="#EBA3E3"/>
<stop offset="1" stop-color="#FFDBE4"/>
</linearGradient>
<linearGradient id="paint2_linear" x1="2.40991" y1="28.1082" x2="2.72217" y2="20.9771" gradientUnits="userSpaceOnUse">
<stop stop-color="#AB85FF"/>
<stop offset="0.526042" stop-color="#EBA3E3"/>
<stop offset="1" stop-color="#FFDBE4"/>
</linearGradient>
<linearGradient id="paint3_linear" x1="2.40991" y1="48.3738" x2="2.72217" y2="41.2427" gradientUnits="userSpaceOnUse">
<stop stop-color="#AB85FF"/>
<stop offset="0.526042" stop-color="#EBA3E3"/>
<stop offset="1" stop-color="#FFDBE4"/>
</linearGradient>
<linearGradient id="paint4_linear" x1="2.40991" y1="59.3738" x2="2.72217" y2="52.2427" gradientUnits="userSpaceOnUse">
<stop stop-color="#AB85FF"/>
<stop offset="0.526042" stop-color="#EBA3E3"/>
<stop offset="1" stop-color="#FFDBE4"/>
</linearGradient>
<linearGradient id="paint5_linear" x1="63.8189" y1="40.4058" x2="103.67" y2="-18.2626" gradientUnits="userSpaceOnUse">
<stop stop-color="#AB85FF"/>
<stop offset="0.526042" stop-color="#EBA3E3"/>
<stop offset="1" stop-color="#FFDBE4"/>
</linearGradient>
<linearGradient id="paint6_linear" x1="102.325" y1="70.9809" x2="141.637" y2="-31.1066" gradientUnits="userSpaceOnUse">
<stop stop-color="#AB85FF"/>
<stop offset="0.526042" stop-color="#EBA3E3"/>
<stop offset="1" stop-color="#FFDBE4"/>
</linearGradient>
<linearGradient id="paint7_linear" x1="120.199" y1="37.3738" x2="120.511" y2="30.2427" gradientUnits="userSpaceOnUse">
<stop stop-color="#AB85FF"/>
<stop offset="0.526042" stop-color="#EBA3E3"/>
<stop offset="1" stop-color="#FFDBE4"/>
</linearGradient>
<linearGradient id="paint8_linear" x1="120.199" y1="28.1082" x2="120.511" y2="20.9771" gradientUnits="userSpaceOnUse">
<stop stop-color="#AB85FF"/>
<stop offset="0.526042" stop-color="#EBA3E3"/>
<stop offset="1" stop-color="#FFDBE4"/>
</linearGradient>
<linearGradient id="paint9_linear" x1="120.199" y1="48.3738" x2="120.511" y2="41.2427" gradientUnits="userSpaceOnUse">
<stop stop-color="#AB85FF"/>
<stop offset="0.526042" stop-color="#EBA3E3"/>
<stop offset="1" stop-color="#FFDBE4"/>
</linearGradient>
<linearGradient id="paint10_linear" x1="120.199" y1="59.3738" x2="120.511" y2="52.2427" gradientUnits="userSpaceOnUse">
<stop stop-color="#AB85FF"/>
<stop offset="0.526042" stop-color="#EBA3E3"/>
<stop offset="1" stop-color="#FFDBE4"/>
</linearGradient>
<linearGradient id="paint11_linear" x1="182.263" y1="40.4058" x2="223.457" y2="-14.3246" gradientUnits="userSpaceOnUse">
<stop stop-color="#AB85FF"/>
<stop offset="0.526042" stop-color="#EBA3E3"/>
<stop offset="1" stop-color="#FFDBE4"/>
</linearGradient>
</defs>
</svg>
