<svg width="256" height="74" viewBox="0 0 256 74" fill="none" xmlns="http://www.w3.org/2000/svg">
<path d="M240.191 0.898438H161.418V70.4813H240.191M240.191 0.898438V70.4813M240.191 0.898438L254.633 5.27472V65.2297L240.191 70.4813" stroke="url(#paint0_linear)"/>
<path d="M218.407 20.2773H180.398V53.8515H218.407M218.407 20.2773V53.8515M218.407 20.2773L225.375 22.3889V51.3176L218.407 53.8515" stroke="url(#paint1_linear)"/>
<path d="M151.866 38.7071C152.062 38.5118 152.062 38.1952 151.866 38L148.684 34.818C148.489 34.6227 148.173 34.6227 147.977 34.818C147.782 35.0132 147.782 35.3298 147.977 35.5251L150.806 38.3535L147.977 41.1819C147.782 41.3772 147.782 41.6938 147.977 41.8891C148.173 42.0843 148.489 42.0843 148.684 41.8891L151.866 38.7071ZM112.562 38.8535L151.513 38.8535L151.513 37.8535L112.563 37.8535L112.562 38.8535Z" fill="url(#paint2_linear)"/>
<path d="M16.3413 53.2305L12.1813 47.1905L8.06125 53.2305H1.02125L8.62125 42.5105L1.46125 32.4305H8.46125L12.1813 37.8305L15.9013 32.4305H22.9013L15.7813 42.5105L23.3413 53.2305H16.3413Z" fill="url(#paint3_linear)"/>
<path d="M51.2827 53.2305L47.1227 47.1905L43.0027 53.2305H35.9627L43.5627 42.5105L36.4027 32.4305H43.4027L47.1227 37.8305L50.8427 32.4305H57.8427L50.7227 42.5105L58.2827 53.2305H51.2827Z" fill="url(#paint4_linear)"/>
<path d="M86.2202 53.2305L82.0602 47.1905L77.9402 53.2305H70.9002L78.5002 42.5105L71.3402 32.4305H78.3402L82.0602 37.8305L85.7802 32.4305H92.7802L85.6602 42.5105L93.2202 53.2305H86.2202Z" fill="url(#paint5_linear)"/>
<defs>
<linearGradient id="paint0_linear" x1="269.796" y1="77.4305" x2="198.03" y2="-46.8448" gradientUnits="userSpaceOnUse">
<stop stop-color="#AB85FF"/>
<stop offset="0.526042" stop-color="#EBA3E3"/>
<stop offset="1" stop-color="#FFDBE4"/>
</linearGradient>
<linearGradient id="paint1_linear" x1="232.691" y1="57.2045" x2="198.064" y2="-2.75905" gradientUnits="userSpaceOnUse">
<stop stop-color="#AB85FF"/>
<stop offset="0.526042" stop-color="#EBA3E3"/>
<stop offset="1" stop-color="#FFDBE4"/>
</linearGradient>
<linearGradient id="paint2_linear" x1="106.227" y1="39.4534" x2="106.274" y2="37.0727" gradientUnits="userSpaceOnUse">
<stop stop-color="#AB85FF"/>
<stop offset="0.526042" stop-color="#EBA3E3"/>
<stop offset="1" stop-color="#FFDBE4"/>
</linearGradient>
<linearGradient id="paint3_linear" x1="-2.96009" y1="79.2226" x2="53.8889" y2="51.0527" gradientUnits="userSpaceOnUse">
<stop stop-color="#AB85FF"/>
<stop offset="0.526042" stop-color="#EBA3E3"/>
<stop offset="1" stop-color="#FFDBE4"/>
</linearGradient>
<linearGradient id="paint4_linear" x1="31.9813" y1="79.2226" x2="88.8304" y2="51.0527" gradientUnits="userSpaceOnUse">
<stop stop-color="#AB85FF"/>
<stop offset="0.526042" stop-color="#EBA3E3"/>
<stop offset="1" stop-color="#FFDBE4"/>
</linearGradient>
<linearGradient id="paint5_linear" x1="66.9188" y1="79.2226" x2="123.768" y2="51.0527" gradientUnits="userSpaceOnUse">
<stop stop-color="#AB85FF"/>
<stop offset="0.526042" stop-color="#EBA3E3"/>
<stop offset="1" stop-color="#FFDBE4"/>
</linearGradient>
</defs>
</svg>
