<svg width="341" height="180" viewBox="0 0 341 180" fill="none" xmlns="http://www.w3.org/2000/svg">
<rect width="341" height="180" fill="#F5F5F5"/>
<g clip-path="url(#clip0)">
<path d="M51.0239 43C51.12 43 51.2162 43.0368 51.2899 43.1102L58.0888 49.9082C58.2353 50.0535 58.2353 50.294 58.0888 50.4393L51.8261 56.7016L58.363 63.2388C58.5086 63.3841 58.5086 63.6231 58.363 63.7698L52.125 70.0059L58.6934 76.5744C58.8398 76.7212 58.8398 76.9592 58.6934 77.1055L52.4315 83.368L58.9685 89.9049C59.1148 90.0512 59.1148 90.2897 58.9685 90.4359L52.5142 96.8899C52.3679 97.0367 52.1294 97.0367 51.9833 96.8899C51.8369 96.7438 51.8369 96.5056 51.9833 96.359L58.1717 90.1708L51.6385 83.638C51.4924 83.4914 51.4924 83.2533 51.6385 83.1071C51.6493 83.0963 51.662 83.0927 51.673 83.0843C51.6858 83.0663 51.6935 83.0461 51.7093 83.0304L57.8976 76.8413L51.3647 70.3085C51.2714 70.2153 51.2443 70.0869 51.2688 69.9673C51.2667 69.8684 51.3023 69.7687 51.3771 69.6937L57.5656 63.5032L51.0324 56.9721C50.8869 56.8252 50.8869 56.5862 51.0324 56.4409C51.0431 56.4292 51.0552 56.4256 51.0664 56.4189C51.079 56.4013 51.0859 56.3808 51.103 56.3646L57.2913 50.177L50.7592 43.6453C50.6128 43.4985 50.6128 43.2587 50.7592 43.1142C50.8306 43.0356 50.9278 43 51.0239 43Z" fill="black"/>
<path d="M61.1611 43.0001C61.2572 43.0001 61.3532 43.0369 61.4268 43.1103L68.2253 49.9083C68.3704 50.0536 68.3704 50.2941 68.2253 50.4394L61.9638 56.7017L68.5013 63.2389C68.6458 63.3842 68.6458 63.6232 68.5013 63.7699L62.2627 70.006L68.8318 76.5745C68.9777 76.7213 68.9777 76.9593 68.8318 77.1056L62.5699 83.3673L69.1071 89.9043C69.2537 90.0505 69.2537 90.289 69.1071 90.4352L62.6525 96.8886C62.5064 97.0352 62.2671 97.0352 62.1215 96.8886C61.9753 96.7423 61.9753 96.5042 62.1215 96.3576L68.3097 90.1694L61.7776 83.6365C61.6312 83.4899 61.6312 83.2518 61.7776 83.1056C61.7875 83.0956 61.7991 83.092 61.8105 83.0836C61.8234 83.0656 61.8301 83.0447 61.8473 83.0289L68.0363 76.8396L61.5036 70.3068C61.4112 70.2144 61.384 70.0866 61.408 69.9672C61.4056 69.8682 61.4403 69.7669 61.516 69.691L67.7068 63.5011L61.1699 56.9703C61.0245 56.825 61.0245 56.5846 61.1699 56.4393C61.1807 56.4291 61.1927 56.4238 61.2032 56.4188C61.2167 56.4012 61.2236 56.3792 61.2407 56.3645L67.4288 50.1751L60.8962 43.6435C60.7494 43.4969 60.7494 43.2585 60.8962 43.1126C60.9677 43.0357 61.0638 43.0001 61.1611 43.0001Z" fill="black"/>
<path d="M71.2988 43C71.3965 43 71.4919 43.0368 71.5646 43.1102L78.3641 49.9082C78.5106 50.0535 78.5106 50.294 78.3641 50.4393L72.1016 56.7016L78.6383 63.2388C78.7849 63.3841 78.7849 63.6231 78.6383 63.7698L72.4009 70.0059L78.97 76.5744C79.1134 76.7212 79.1134 76.9592 78.97 77.1055L72.7058 83.368L79.2431 89.9049C79.3888 90.0512 79.3888 90.2897 79.2431 90.4359L72.7877 96.8899C72.6411 97.0367 72.4013 97.0367 72.2568 96.8899C72.1103 96.7438 72.1103 96.5056 72.2568 96.359L78.4436 90.1708L71.9119 83.638C71.7652 83.4914 71.7652 83.2533 71.9119 83.1071C71.9225 83.0963 71.9332 83.0927 71.9471 83.0843C71.9617 83.0663 71.9658 83.0461 71.9827 83.0304L78.1719 76.8413L71.6378 70.3085C71.5453 70.2153 71.5203 70.0869 71.5426 69.9673C71.5408 69.8684 71.576 69.7687 71.6522 69.6937L77.8415 63.5032L71.3079 56.9721C71.1627 56.8252 71.1627 56.5862 71.3079 56.4409C71.3179 56.4292 71.3299 56.4256 71.3412 56.4189C71.3549 56.4013 71.3592 56.3808 71.378 56.3646L77.5672 50.177L71.0351 43.6453C70.888 43.4985 70.888 43.2587 71.0351 43.1142C71.1065 43.0356 71.2021 43 71.2988 43Z" fill="black"/>
</g>
<g clip-path="url(#clip1)">
<path d="M82.0239 43C82.12 43 82.2162 43.0368 82.2899 43.1102L89.0888 49.9082C89.2353 50.0535 89.2353 50.294 89.0888 50.4393L82.8261 56.7016L89.363 63.2388C89.5086 63.3841 89.5086 63.6231 89.363 63.7698L83.125 70.0059L89.6934 76.5744C89.8398 76.7212 89.8398 76.9592 89.6934 77.1055L83.4315 83.368L89.9685 89.9049C90.1148 90.0512 90.1148 90.2897 89.9685 90.4359L83.5142 96.8899C83.3679 97.0367 83.1294 97.0367 82.9833 96.8899C82.8369 96.7438 82.8369 96.5056 82.9833 96.359L89.1717 90.1708L82.6385 83.638C82.4924 83.4914 82.4924 83.2533 82.6385 83.1071C82.6493 83.0963 82.662 83.0927 82.673 83.0843C82.6858 83.0663 82.6935 83.0461 82.7093 83.0304L88.8976 76.8413L82.3647 70.3085C82.2714 70.2153 82.2443 70.0869 82.2688 69.9673C82.2667 69.8684 82.3023 69.7687 82.3771 69.6937L88.5656 63.5032L82.0324 56.9721C81.8869 56.8252 81.8869 56.5862 82.0324 56.4409C82.0431 56.4292 82.0552 56.4256 82.0664 56.4189C82.079 56.4013 82.0859 56.3808 82.103 56.3646L88.2913 50.177L81.7592 43.6453C81.6128 43.4985 81.6128 43.2587 81.7592 43.1142C81.8306 43.0356 81.9278 43 82.0239 43Z" fill="black"/>
<path d="M92.1611 43.0001C92.2572 43.0001 92.3532 43.0369 92.4268 43.1103L99.2253 49.9083C99.3704 50.0536 99.3704 50.2941 99.2253 50.4394L92.9638 56.7017L99.5013 63.2389C99.6458 63.3842 99.6458 63.6232 99.5013 63.7699L93.2627 70.006L99.8318 76.5745C99.9777 76.7213 99.9777 76.9593 99.8318 77.1056L93.5699 83.3673L100.107 89.9043C100.254 90.0505 100.254 90.289 100.107 90.4352L93.6525 96.8886C93.5064 97.0352 93.2671 97.0352 93.1215 96.8886C92.9753 96.7423 92.9753 96.5042 93.1215 96.3576L99.3097 90.1694L92.7776 83.6365C92.6312 83.4899 92.6312 83.2518 92.7776 83.1056C92.7875 83.0956 92.7991 83.092 92.8105 83.0836C92.8234 83.0656 92.8301 83.0447 92.8473 83.0289L99.0363 76.8396L92.5036 70.3068C92.4112 70.2144 92.384 70.0866 92.408 69.9672C92.4056 69.8682 92.4403 69.7669 92.516 69.691L98.7068 63.5011L92.1699 56.9703C92.0245 56.825 92.0245 56.5846 92.1699 56.4393C92.1807 56.4291 92.1927 56.4238 92.2032 56.4188C92.2167 56.4012 92.2236 56.3792 92.2407 56.3645L98.4288 50.1751L91.8962 43.6435C91.7494 43.4969 91.7494 43.2585 91.8962 43.1126C91.9677 43.0357 92.0638 43.0001 92.1611 43.0001Z" fill="black"/>
<path d="M102.299 43C102.396 43 102.492 43.0368 102.565 43.1102L109.364 49.9082C109.511 50.0535 109.511 50.294 109.364 50.4393L103.102 56.7016L109.638 63.2388C109.785 63.3841 109.785 63.6231 109.638 63.7698L103.401 70.0059L109.97 76.5744C110.113 76.7212 110.113 76.9592 109.97 77.1055L103.706 83.368L110.243 89.9049C110.389 90.0512 110.389 90.2897 110.243 90.4359L103.788 96.8899C103.641 97.0367 103.401 97.0367 103.257 96.8899C103.11 96.7438 103.11 96.5056 103.257 96.359L109.444 90.1708L102.912 83.638C102.765 83.4914 102.765 83.2533 102.912 83.1071C102.922 83.0963 102.933 83.0927 102.947 83.0843C102.962 83.0663 102.966 83.0461 102.983 83.0304L109.172 76.8413L102.638 70.3085C102.545 70.2153 102.52 70.0869 102.543 69.9673C102.541 69.8684 102.576 69.7687 102.652 69.6937L108.841 63.5032L102.308 56.9721C102.163 56.8252 102.163 56.5862 102.308 56.4409C102.318 56.4292 102.33 56.4256 102.341 56.4189C102.355 56.4013 102.359 56.3808 102.378 56.3646L108.567 50.177L102.035 43.6453C101.888 43.4985 101.888 43.2587 102.035 43.1142C102.107 43.0356 102.202 43 102.299 43Z" fill="black"/>
</g>
<path d="M242.623 112.039H293.534M293.534 112.039L292.139 112.712M293.534 112.039L292.139 111.366" stroke="black"/>
<path d="M242.623 100.856H313.759M313.759 100.856L311.81 101.554M313.759 100.856L311.81 100.159" stroke="black"/>
<path d="M242.623 123.173H274.704M274.704 123.173L273.825 123.87M274.704 123.173L273.825 122.476" stroke="black"/>
<path d="M242.623 89.6974H265.638M265.638 89.6974L265.007 90.3948M265.638 89.6974L265.007 89" stroke="black"/>
<path d="M96 46C96 40.4305 93.7875 35.089 89.8492 31.1508C85.911 27.2125 80.5695 25 75 25C69.4305 25 64.089 27.2125 60.1508 31.1508C56.2125 35.089 54 40.4305 54 46L75 46H96Z" fill="#8052E4"/>
<path d="M65 46C65 42.287 63.5777 38.726 61.0459 36.1005C58.5142 33.475 55.0804 32 51.5 32C47.9196 32 44.4858 33.475 41.9541 36.1005C39.4223 38.726 38 42.287 38 46L51.5 46H65Z" fill="#8052E4"/>
<path d="M125 46C125 42.287 122.946 38.726 119.289 36.1005C115.632 33.475 110.672 32 105.5 32C100.328 32 95.3684 33.475 91.7114 36.1005C88.0545 38.726 86 42.287 86 46L105.5 46H125Z" fill="#8052E4"/>
<path d="M234.306 73.7236L282.629 149.111H185.982L234.306 73.7236Z" fill="#31D67B"/>
<path d="M169.862 140.888L217.27 66.9265L264.679 140.888H169.862Z" stroke="black"/>
<circle r="3.10184" transform="matrix(-1 0 0 1 169.364 69.1018)" fill="#31D67B"/>
<circle r="3.10184" transform="matrix(-1 0 0 1 156.957 69.1018)" fill="#31D67B"/>
<circle r="3.10184" transform="matrix(-1 0 0 1 144.55 69.1018)" fill="#31D67B"/>
<circle r="3.10184" transform="matrix(-1 0 0 1 132.142 69.1018)" fill="#31D67B"/>
<circle r="3.10184" transform="matrix(-1 0 0 1 169.364 81.5091)" fill="#31D67B"/>
<circle r="3.10184" transform="matrix(-1 0 0 1 156.957 81.5091)" fill="#31D67B"/>
<circle r="3.10184" transform="matrix(-1 0 0 1 144.55 81.5091)" fill="#31D67B"/>
<circle r="3.10184" transform="matrix(-1 0 0 1 132.142 81.5091)" fill="#31D67B"/>
<circle r="3.10184" transform="matrix(-1 0 0 1 132.142 93.9163)" fill="#31D67B"/>
<circle r="3.10184" transform="matrix(-1 0 0 1 144.55 93.9163)" fill="#31D67B"/>
<circle r="3.10184" transform="matrix(-1 0 0 1 156.957 93.9163)" fill="#31D67B"/>
<circle r="3.10184" transform="matrix(-1 0 0 1 169.364 93.9163)" fill="#31D67B"/>
<defs>
<clipPath id="clip0">
<rect width="54" height="54" fill="white" transform="matrix(1 0 0 -1 38 97)"/>
</clipPath>
<clipPath id="clip1">
<rect width="54" height="54" fill="white" transform="matrix(1 0 0 -1 69 97)"/>
</clipPath>
</defs>
</svg>
