<svg width="341" height="180" viewBox="0 0 341 180" fill="none" xmlns="http://www.w3.org/2000/svg">
<rect width="341" height="180" fill="#F5F5F5"/>
<path d="M262.721 47.3834C276.221 48.4515 302.021 59.88 303.221 90.6408C303.221 129.092 275.721 139.239 262.221 139.239C242.721 139.239 161.721 139.239 115.721 139.239" stroke="black"/>
<path d="M262.924 47.3833H190.72" stroke="black"/>
<path d="M79.2207 139.238C65.7207 138.17 39.9207 126.742 38.7207 95.9807C38.7207 57.5296 66.2207 47.3828 79.7207 47.3828C99.2207 47.3828 180.221 47.3828 226.221 47.3828" stroke="black"/>
<path d="M79.0176 139.238H151.221" stroke="black"/>
<path d="M204.5 138.704V47.9169M204.5 138.704V47.9169" stroke="black"/>
<path d="M210.753 139.238V47.383M210.753 139.238V47.383" stroke="black"/>
<path d="M217.701 139.238V47.383M217.701 139.238V47.383" stroke="black"/>
<path d="M224.649 139.238V47.383M224.649 139.238V47.383" stroke="black"/>
<path d="M231.598 139.238V47.383M231.598 139.238V47.383" stroke="black"/>
<path d="M238.546 139.238V47.383M238.546 139.238V47.383" stroke="black"/>
<path d="M245.493 139.238V47.383M245.493 139.238V47.383" stroke="black"/>
<path d="M252.441 139.238V47.383M252.441 139.238V47.383" stroke="black"/>
<rect width="9" height="26" transform="translate(108.221 113.503)" fill="#31D67B"/>
<rect width="9" height="46" transform="translate(125.221 93.5029)" fill="#31D67B"/>
<rect width="9" height="62" transform="translate(142.221 77.5029)" fill="#31D67B"/>
<path d="M257.845 86.75L241.132 115.698H274.558L257.845 86.75Z" fill="#8052E4"/>
<path d="M257.845 105.062L241.132 134.01H274.558L257.845 105.062Z" fill="#8052E4"/>
<path d="M257.845 124.361L241.132 153.309H274.558L257.845 124.361Z" fill="#8052E4"/>
<path d="M260.347 90.0469L243.634 118.995H277.06L260.347 90.0469Z" fill="#AB85FF"/>
<path d="M260.347 108.359L243.634 137.307H277.06L260.347 108.359Z" fill="#AB85FF"/>
<path d="M260.347 127.658L243.634 156.606H277.06L260.347 127.658Z" fill="#AB85FF"/>
<circle cx="48.927" cy="119.507" r="11.1477" fill="#8052E4"/>
<rect width="34.8655" height="2.1791" transform="translate(60.0742 70.0396) rotate(-90)" fill="#D4D4D4"/>
<rect width="34.8655" height="3.73559" transform="translate(66.9229 70.0396) rotate(-90)" fill="#D4D4D4"/>
<rect width="34.8655" height="5.91469" transform="translate(75.0166 70.0396) rotate(-90)" fill="#D4D4D4"/>
<rect width="34.8655" height="2.1791" transform="translate(85.8438 70.0396) rotate(-90)" fill="#D4D4D4"/>
<rect width="34.8655" height="3.73559" transform="translate(92.6924 70.0396) rotate(-90)" fill="#D4D4D4"/>
<rect width="34.8655" height="5.91469" transform="translate(100.786 70.0396) rotate(-90)" fill="#D4D4D4"/>
<rect width="34.8655" height="2.1791" transform="translate(111.613 70.0396) rotate(-90)" fill="#D4D4D4"/>
<rect width="34.8655" height="3.73559" transform="translate(118.462 70.0396) rotate(-90)" fill="#D4D4D4"/>
<rect width="34.8655" height="5.91469" transform="translate(126.556 70.0396) rotate(-90)" fill="#D4D4D4"/>
</svg>
