<svg width="341" height="180" viewBox="0 0 341 180" fill="none" xmlns="http://www.w3.org/2000/svg">
<rect width="341" height="180" fill="#F5F5F5"/>
<path d="M226.586 128.173L281.082 156.756V74.9683L226.586 48.3659L226.586 128.173Z" fill="#AB85FF"/>
<mask id="mask0" mask-type="alpha" maskUnits="userSpaceOnUse" x="226" y="48" width="56" height="109">
<path d="M226.586 128.173L281.082 156.756V74.9683L226.586 48.3659L226.586 128.173Z" fill="#AB85FF"/>
</mask>
<g mask="url(#mask0)">
<path d="M228.533 -18.4741C193.546 33.7058 193.546 70.9772 228.533 93.3401C263.52 115.703 263.52 152.974 228.533 205.154" stroke="#31D67B"/>
<path d="M295.535 -11.9379C242.907 28.0639 229.011 63.4038 253.847 94.0818C278.683 124.76 264.787 160.1 212.159 200.102" stroke="#31D67B"/>
<path d="M272.403 -16.2683C242.335 38.0931 245.771 75.2493 282.712 95.2002C319.652 115.151 323.088 152.307 293.02 206.669" stroke="#31D67B"/>
</g>
<path d="M120.124 124.309V117.529C120.124 115.369 120.894 113.569 122.434 112.129C123.994 110.689 125.934 109.969 128.254 109.969C130.574 109.969 132.504 110.689 134.044 112.129C135.604 113.569 136.384 115.369 136.384 117.529V124.309C136.384 126.469 135.604 128.269 134.044 129.709C132.504 131.149 130.574 131.869 128.254 131.869C125.934 131.869 123.994 131.149 122.434 129.709C120.894 128.269 120.124 126.469 120.124 124.309ZM124.024 117.469V124.369C124.024 125.429 124.424 126.329 125.224 127.069C126.044 127.789 127.054 128.149 128.254 128.149C129.454 128.149 130.464 127.789 131.284 127.069C132.104 126.309 132.514 125.409 132.514 124.369V117.469C132.514 116.409 132.104 115.519 131.284 114.799C130.484 114.059 129.474 113.689 128.254 113.689C127.034 113.689 126.024 114.059 125.224 114.799C124.424 115.519 124.024 116.409 124.024 117.469ZM150.242 115.189L146.612 116.989L144.992 113.569L151.352 110.419H154.142V131.419H150.242V115.189ZM175.234 116.539C175.234 115.759 174.894 115.089 174.214 114.529C173.574 113.969 172.784 113.689 171.844 113.689C170.944 113.689 170.134 113.969 169.414 114.529C168.714 115.069 168.184 115.809 167.824 116.749L164.224 115.039C164.904 113.479 165.924 112.249 167.284 111.349C168.644 110.429 170.164 109.969 171.844 109.969C173.944 109.969 175.694 110.599 177.094 111.859C178.534 113.119 179.254 114.639 179.254 116.419C179.254 117.499 178.894 118.629 178.174 119.809C177.454 120.969 176.314 122.299 174.754 123.799L170.644 127.699H179.434V131.419H164.644V128.509L172.354 121.159C174.274 119.299 175.234 117.759 175.234 116.539ZM198.606 116.269C198.606 115.549 198.266 114.939 197.586 114.439C196.906 113.939 196.036 113.689 194.976 113.689C194.116 113.689 193.356 113.869 192.696 114.229C192.056 114.569 191.586 115.019 191.286 115.579L187.746 113.899C188.366 112.699 189.326 111.749 190.626 111.049C191.926 110.329 193.386 109.969 195.006 109.969C197.186 109.969 199.006 110.559 200.466 111.739C201.906 112.899 202.626 114.369 202.626 116.149C202.626 117.889 201.876 119.349 200.376 120.529C202.236 121.729 203.166 123.359 203.166 125.419C203.166 127.279 202.406 128.819 200.886 130.039C199.366 131.259 197.476 131.869 195.216 131.869C193.356 131.869 191.726 131.439 190.326 130.579C188.926 129.699 187.976 128.559 187.476 127.159L191.226 125.839C191.446 126.519 191.916 127.079 192.636 127.519C193.356 127.939 194.206 128.149 195.186 128.149C196.306 128.149 197.246 127.879 198.006 127.339C198.766 126.779 199.146 126.079 199.146 125.239C199.146 124.439 198.766 123.779 198.006 123.259C197.266 122.719 196.356 122.449 195.276 122.449H193.686V118.939H194.766C195.846 118.939 196.756 118.689 197.496 118.189C198.236 117.689 198.606 117.049 198.606 116.269ZM222.244 131.419V127.399H211.354V123.679L222.424 110.419H226.114V123.679H228.784V127.399H226.114V131.419H222.244ZM222.244 116.209L216.004 123.679H222.244V116.209ZM252.561 124.729C252.561 126.749 251.791 128.449 250.251 129.829C248.711 131.189 246.801 131.869 244.521 131.869C242.681 131.869 241.061 131.389 239.661 130.429C238.261 129.449 237.261 128.139 236.661 126.499L240.531 125.449C240.871 126.289 241.401 126.949 242.121 127.429C242.841 127.909 243.651 128.149 244.551 128.149C245.691 128.149 246.631 127.819 247.371 127.159C248.151 126.499 248.541 125.689 248.541 124.729C248.541 123.689 248.111 122.829 247.251 122.149C246.431 121.469 245.381 121.129 244.101 121.129H238.251L239.331 110.419H250.761V113.989H242.541L242.211 117.589H244.311C246.651 117.589 248.611 118.269 250.191 119.629C251.771 120.969 252.561 122.669 252.561 124.729Z" fill="#AB85FF"/>
<path d="M122.434 112.129L121.756 111.394L121.751 111.399L122.434 112.129ZM134.044 112.129L133.361 112.859L133.366 112.864L134.044 112.129ZM134.044 129.709L133.366 128.974L133.361 128.979L134.044 129.709ZM122.434 129.709L121.751 130.439L121.756 130.444L122.434 129.709ZM125.224 127.069L124.545 127.803L124.554 127.812L124.564 127.82L125.224 127.069ZM131.284 127.069L131.944 127.82L131.954 127.812L131.964 127.802L131.284 127.069ZM131.284 114.799L130.605 115.533L130.614 115.542L130.624 115.55L131.284 114.799ZM125.224 114.799L125.893 115.542L125.903 115.533L125.224 114.799ZM121.124 124.309V117.529H119.124V124.309H121.124ZM121.124 117.529C121.124 115.638 121.785 114.105 123.117 112.859L121.751 111.399C120.003 113.033 119.124 115.1 119.124 117.529H121.124ZM123.112 112.864C124.47 111.611 126.16 110.969 128.254 110.969V108.969C125.708 108.969 123.518 109.767 121.756 111.394L123.112 112.864ZM128.254 110.969C130.348 110.969 132.026 111.611 133.361 112.859L134.727 111.399C132.982 109.767 130.8 108.969 128.254 108.969V110.969ZM133.366 112.864C134.717 114.111 135.384 115.643 135.384 117.529H137.384C137.384 115.095 136.491 113.027 134.722 111.394L133.366 112.864ZM135.384 117.529V124.309H137.384V117.529H135.384ZM135.384 124.309C135.384 126.195 134.717 127.727 133.366 128.974L134.722 130.444C136.491 128.811 137.384 126.743 137.384 124.309H135.384ZM133.361 128.979C132.026 130.227 130.348 130.869 128.254 130.869V132.869C130.8 132.869 132.982 132.071 134.727 130.439L133.361 128.979ZM128.254 130.869C126.16 130.869 124.47 130.227 123.112 128.974L121.756 130.444C123.518 132.071 125.708 132.869 128.254 132.869V130.869ZM123.117 128.979C121.785 127.733 121.124 126.2 121.124 124.309H119.124C119.124 126.738 120.003 128.805 121.751 130.439L123.117 128.979ZM123.024 117.469V124.369H125.024V117.469H123.024ZM123.024 124.369C123.024 125.716 123.547 126.88 124.545 127.803L125.903 126.335C125.301 125.778 125.024 125.141 125.024 124.369H123.024ZM124.564 127.82C125.585 128.717 126.837 129.149 128.254 129.149V127.149C127.271 127.149 126.503 126.861 125.884 126.318L124.564 127.82ZM128.254 129.149C129.671 129.149 130.923 128.717 131.944 127.82L130.624 126.318C130.005 126.861 129.237 127.149 128.254 127.149V129.149ZM131.964 127.802C132.971 126.869 133.514 125.71 133.514 124.369H131.514C131.514 125.108 131.237 125.749 130.604 126.336L131.964 127.802ZM133.514 124.369V117.469H131.514V124.369H133.514ZM133.514 117.469C133.514 116.112 132.973 114.951 131.944 114.048L130.624 115.55C131.235 116.087 131.514 116.706 131.514 117.469H133.514ZM131.963 114.065C130.956 113.133 129.693 112.689 128.254 112.689V114.689C129.255 114.689 130.012 114.985 130.605 115.533L131.963 114.065ZM128.254 112.689C126.815 112.689 125.552 113.133 124.545 114.065L125.903 115.533C126.496 114.985 127.253 114.689 128.254 114.689V112.689ZM124.555 114.056C123.548 114.962 123.024 116.121 123.024 117.469H125.024C125.024 116.697 125.3 116.076 125.893 115.542L124.555 114.056ZM150.242 115.189H151.242V113.577L149.798 114.293L150.242 115.189ZM146.612 116.989L145.708 117.417L146.144 118.337L147.056 117.885L146.612 116.989ZM144.992 113.569L144.548 112.673L143.667 113.109L144.088 113.997L144.992 113.569ZM151.352 110.419V109.419H151.118L150.908 109.523L151.352 110.419ZM154.142 110.419H155.142V109.419H154.142V110.419ZM154.142 131.419V132.419H155.142V131.419H154.142ZM150.242 131.419H149.242V132.419H150.242V131.419ZM149.798 114.293L146.168 116.093L147.056 117.885L150.686 116.085L149.798 114.293ZM147.516 116.561L145.896 113.141L144.088 113.997L145.708 117.417L147.516 116.561ZM145.436 114.465L151.796 111.315L150.908 109.523L144.548 112.673L145.436 114.465ZM151.352 111.419H154.142V109.419H151.352V111.419ZM153.142 110.419V131.419H155.142V110.419H153.142ZM154.142 130.419H150.242V132.419H154.142V130.419ZM151.242 131.419V115.189H149.242V131.419H151.242ZM174.214 114.529L173.555 115.282L173.566 115.291L173.578 115.301L174.214 114.529ZM169.414 114.529L170.024 115.321L170.027 115.318L169.414 114.529ZM167.824 116.749L167.394 117.652L168.371 118.116L168.757 117.107L167.824 116.749ZM164.224 115.039L163.307 114.639L162.92 115.527L163.794 115.942L164.224 115.039ZM167.284 111.349L167.835 112.183L167.844 112.177L167.284 111.349ZM177.094 111.859L176.424 112.602L176.435 112.612L177.094 111.859ZM178.174 119.809L179.023 120.336L179.027 120.33L178.174 119.809ZM174.754 123.799L175.442 124.524L175.447 124.52L174.754 123.799ZM170.644 127.699L169.955 126.974L168.137 128.699H170.644V127.699ZM179.434 127.699H180.434V126.699H179.434V127.699ZM179.434 131.419V132.419H180.434V131.419H179.434ZM164.644 131.419H163.644V132.419H164.644V131.419ZM164.644 128.509L163.954 127.785L163.644 128.081V128.509H164.644ZM172.354 121.159L173.044 121.883L173.049 121.877L172.354 121.159ZM176.234 116.539C176.234 115.419 175.726 114.479 174.849 113.757L173.578 115.301C174.061 115.699 174.234 116.099 174.234 116.539H176.234ZM174.872 113.776C174.03 113.04 172.998 112.689 171.844 112.689V114.689C172.569 114.689 173.117 114.898 173.555 115.282L174.872 113.776ZM171.844 112.689C170.718 112.689 169.693 113.045 168.8 113.74L170.027 115.318C170.574 114.893 171.169 114.689 171.844 114.689V112.689ZM168.803 113.737C167.938 114.404 167.306 115.304 166.89 116.391L168.757 117.107C169.061 116.314 169.489 115.734 170.024 115.321L168.803 113.737ZM168.253 115.846L164.653 114.136L163.794 115.942L167.394 117.652L168.253 115.846ZM165.14 115.439C165.747 114.047 166.644 112.972 167.835 112.183L166.732 110.515C165.203 111.526 164.06 112.911 163.307 114.639L165.14 115.439ZM167.844 112.177C169.034 111.372 170.358 110.969 171.844 110.969V108.969C169.969 108.969 168.253 109.486 166.723 110.521L167.844 112.177ZM171.844 110.969C173.727 110.969 175.23 111.527 176.425 112.602L177.762 111.116C176.157 109.671 174.16 108.969 171.844 108.969V110.969ZM176.435 112.612C177.676 113.698 178.254 114.951 178.254 116.419H180.254C180.254 114.327 179.391 112.54 177.752 111.106L176.435 112.612ZM178.254 116.419C178.254 117.27 177.971 118.222 177.32 119.288L179.027 120.33C179.816 119.036 180.254 117.728 180.254 116.419H178.254ZM177.324 119.282C176.666 120.342 175.591 121.606 174.06 123.078L175.447 124.52C177.036 122.991 178.241 121.596 179.023 120.336L177.324 119.282ZM174.065 123.074L169.955 126.974L171.332 128.424L175.442 124.524L174.065 123.074ZM170.644 128.699H179.434V126.699H170.644V128.699ZM178.434 127.699V131.419H180.434V127.699H178.434ZM179.434 130.419H164.644V132.419H179.434V130.419ZM165.644 131.419V128.509H163.644V131.419H165.644ZM165.334 129.233L173.044 121.883L171.664 120.435L163.954 127.785L165.334 129.233ZM173.049 121.877C174.043 120.915 174.824 120.001 175.362 119.138C175.896 118.282 176.234 117.406 176.234 116.539H174.234C174.234 116.892 174.091 117.396 173.665 118.08C173.243 118.757 172.584 119.543 171.658 120.441L173.049 121.877ZM197.586 114.439L198.178 113.633V113.633L197.586 114.439ZM192.696 114.229L193.165 115.112L193.175 115.107L192.696 114.229ZM191.286 115.579L190.857 116.482L191.718 116.891L192.167 116.051L191.286 115.579ZM187.746 113.899L186.857 113.44L186.383 114.359L187.317 114.802L187.746 113.899ZM190.626 111.049L191.1 111.929L191.11 111.924L190.626 111.049ZM200.466 111.739L199.837 112.517L199.839 112.518L200.466 111.739ZM200.376 120.529L199.758 119.743L198.656 120.609L199.834 121.369L200.376 120.529ZM200.886 130.039L200.26 129.259L200.886 130.039ZM190.326 130.579L189.794 131.426L189.802 131.431L190.326 130.579ZM187.476 127.159L187.144 126.216L186.196 126.549L186.534 127.495L187.476 127.159ZM191.226 125.839L192.177 125.531L191.862 124.555L190.894 124.896L191.226 125.839ZM192.636 127.519L192.114 128.372L192.123 128.378L192.132 128.383L192.636 127.519ZM198.006 127.339L198.585 128.154L198.592 128.149L198.599 128.144L198.006 127.339ZM198.006 123.259L197.416 124.067L197.429 124.076L197.441 124.084L198.006 123.259ZM193.686 122.449H192.686V123.449H193.686V122.449ZM193.686 118.939V117.939H192.686V118.939H193.686ZM199.606 116.269C199.606 115.173 199.064 114.285 198.178 113.633L196.993 115.245C197.467 115.593 197.606 115.925 197.606 116.269H199.606ZM198.178 113.633C197.287 112.978 196.194 112.689 194.976 112.689V114.689C195.878 114.689 196.525 114.9 196.993 115.245L198.178 113.633ZM194.976 112.689C193.973 112.689 193.044 112.9 192.217 113.351L193.175 115.107C193.668 114.838 194.259 114.689 194.976 114.689V112.689ZM192.227 113.346C191.437 113.765 190.811 114.348 190.404 115.107L192.167 116.051C192.361 115.69 192.675 115.373 193.165 115.112L192.227 113.346ZM191.715 114.676L188.175 112.996L187.317 114.802L190.857 116.482L191.715 114.676ZM188.634 114.358C189.153 113.354 189.96 112.543 191.1 111.929L190.152 110.168C188.692 110.955 187.579 112.044 186.857 113.44L188.634 114.358ZM191.11 111.924C192.249 111.293 193.54 110.969 195.006 110.969V108.969C193.232 108.969 191.603 109.365 190.141 110.174L191.11 111.924ZM195.006 110.969C196.996 110.969 198.583 111.503 199.837 112.517L201.094 110.961C199.429 109.615 197.376 108.969 195.006 108.969V110.969ZM199.839 112.518C201.053 113.496 201.626 114.685 201.626 116.149H203.626C203.626 114.053 202.758 112.301 201.093 110.96L199.839 112.518ZM201.626 116.149C201.626 117.55 201.043 118.732 199.758 119.743L200.994 121.315C202.708 119.966 203.626 118.228 203.626 116.149H201.626ZM199.834 121.369C201.434 122.401 202.166 123.728 202.166 125.419H204.166C204.166 122.99 203.038 121.056 200.918 119.689L199.834 121.369ZM202.166 125.419C202.166 126.959 201.557 128.218 200.26 129.259L201.512 130.819C203.255 129.42 204.166 127.599 204.166 125.419H202.166ZM200.26 129.259C198.945 130.314 197.286 130.869 195.216 130.869V132.869C197.665 132.869 199.787 132.203 201.512 130.819L200.26 129.259ZM195.216 130.869C193.516 130.869 192.072 130.478 190.849 129.727L189.802 131.431C191.38 132.4 193.196 132.869 195.216 132.869V130.869ZM190.858 129.732C189.625 128.957 188.834 127.988 188.418 126.823L186.534 127.495C187.118 129.13 188.226 130.44 189.794 131.426L190.858 129.732ZM187.808 128.102L191.558 126.782L190.894 124.896L187.144 126.216L187.808 128.102ZM190.274 126.147C190.581 127.094 191.229 127.831 192.114 128.372L193.157 126.666C192.602 126.327 192.311 125.944 192.177 125.531L190.274 126.147ZM192.132 128.383C193.03 128.907 194.06 129.149 195.186 129.149V127.149C194.352 127.149 193.682 126.971 193.14 126.655L192.132 128.383ZM195.186 129.149C196.471 129.149 197.624 128.837 198.585 128.154L197.427 126.524C196.868 126.921 196.141 127.149 195.186 127.149V129.149ZM198.599 128.144C199.578 127.422 200.146 126.439 200.146 125.239H198.146C198.146 125.718 197.953 126.136 197.413 126.534L198.599 128.144ZM200.146 125.239C200.146 124.055 199.555 123.107 198.571 122.434L197.441 124.084C197.976 124.45 198.146 124.823 198.146 125.239H200.146ZM198.595 122.451C197.655 121.765 196.529 121.449 195.276 121.449V123.449C196.183 123.449 196.877 123.673 197.416 124.067L198.595 122.451ZM195.276 121.449H193.686V123.449H195.276V121.449ZM194.686 122.449V118.939H192.686V122.449H194.686ZM193.686 119.939H194.766V117.939H193.686V119.939ZM194.766 119.939C196.003 119.939 197.118 119.651 198.056 119.018L196.936 117.36C196.393 117.727 195.689 117.939 194.766 117.939V119.939ZM198.056 119.018C199.025 118.363 199.606 117.433 199.606 116.269H197.606C197.606 116.664 197.447 117.015 196.936 117.36L198.056 119.018ZM222.244 131.419H221.244V132.419H222.244V131.419ZM222.244 127.399H223.244V126.399H222.244V127.399ZM211.354 127.399H210.354V128.399H211.354V127.399ZM211.354 123.679L210.586 123.038L210.354 123.316V123.679H211.354ZM222.424 110.419V109.419H221.956L221.656 109.778L222.424 110.419ZM226.114 110.419H227.114V109.419H226.114V110.419ZM226.114 123.679H225.114V124.679H226.114V123.679ZM228.784 123.679H229.784V122.679H228.784V123.679ZM228.784 127.399V128.399H229.784V127.399H228.784ZM226.114 127.399V126.399H225.114V127.399H226.114ZM226.114 131.419V132.419H227.114V131.419H226.114ZM222.244 116.209H223.244V113.452L221.477 115.568L222.244 116.209ZM216.004 123.679L215.237 123.038L213.866 124.679H216.004V123.679ZM222.244 123.679V124.679H223.244V123.679H222.244ZM223.244 131.419V127.399H221.244V131.419H223.244ZM222.244 126.399H211.354V128.399H222.244V126.399ZM212.354 127.399V123.679H210.354V127.399H212.354ZM212.122 124.32L223.192 111.06L221.656 109.778L210.586 123.038L212.122 124.32ZM222.424 111.419H226.114V109.419H222.424V111.419ZM225.114 110.419V123.679H227.114V110.419H225.114ZM226.114 124.679H228.784V122.679H226.114V124.679ZM227.784 123.679V127.399H229.784V123.679H227.784ZM228.784 126.399H226.114V128.399H228.784V126.399ZM225.114 127.399V131.419H227.114V127.399H225.114ZM226.114 130.419H222.244V132.419H226.114V130.419ZM221.477 115.568L215.237 123.038L216.771 124.32L223.011 116.85L221.477 115.568ZM216.004 124.679H222.244V122.679H216.004V124.679ZM223.244 123.679V116.209H221.244V123.679H223.244ZM250.251 129.829L250.913 130.579L250.918 130.574L250.251 129.829ZM239.661 130.429L239.087 131.248L239.095 131.254L239.661 130.429ZM236.661 126.499L236.399 125.534L235.347 125.819L235.722 126.843L236.661 126.499ZM240.531 125.449L241.458 125.074L241.125 124.252L240.269 124.484L240.531 125.449ZM242.121 127.429L241.566 128.261L242.121 127.429ZM247.371 127.159L246.725 126.396L246.715 126.404L246.705 126.413L247.371 127.159ZM247.251 122.149L246.612 122.919L246.621 122.926L246.63 122.933L247.251 122.149ZM238.251 121.129L237.256 121.029L237.145 122.129H238.251V121.129ZM239.331 110.419V109.419H238.426L238.336 110.319L239.331 110.419ZM250.761 110.419H251.761V109.419H250.761V110.419ZM250.761 113.989V114.989H251.761V113.989H250.761ZM242.541 113.989V112.989H241.628L241.545 113.898L242.541 113.989ZM242.211 117.589L241.215 117.498L241.115 118.589H242.211V117.589ZM250.191 119.629L249.538 120.387L249.544 120.392L250.191 119.629ZM251.561 124.729C251.561 126.457 250.917 127.889 249.583 129.084L250.918 130.574C252.664 129.009 253.561 127.041 253.561 124.729H251.561ZM249.589 129.079C248.252 130.26 246.586 130.869 244.521 130.869V132.869C247.016 132.869 249.169 132.118 250.913 130.578L249.589 129.079ZM244.521 130.869C242.865 130.869 241.446 130.44 240.226 129.604L239.095 131.254C240.676 132.337 242.497 132.869 244.521 132.869V130.869ZM240.234 129.61C239.006 128.75 238.131 127.608 237.6 126.155L235.722 126.843C236.39 128.67 237.516 130.148 239.087 131.248L240.234 129.61ZM236.922 127.464L240.792 126.414L240.269 124.484L236.399 125.534L236.922 127.464ZM239.604 125.824C240.015 126.841 240.671 127.664 241.566 128.261L242.675 126.597C242.131 126.234 241.726 125.737 241.458 125.074L239.604 125.824ZM241.566 128.261C242.457 128.855 243.462 129.149 244.551 129.149V127.149C243.84 127.149 243.224 126.963 242.675 126.597L241.566 128.261ZM244.551 129.149C245.897 129.149 247.086 128.753 248.036 127.905L246.705 126.413C246.175 126.885 245.484 127.149 244.551 127.149V129.149ZM248.017 127.922C249.005 127.086 249.541 126.004 249.541 124.729H247.541C247.541 125.374 247.297 125.912 246.725 126.396L248.017 127.922ZM249.541 124.729C249.541 123.364 248.956 122.222 247.871 121.365L246.63 122.933C247.266 123.436 247.541 124.013 247.541 124.729H249.541ZM247.889 121.379C246.855 120.522 245.565 120.129 244.101 120.129V122.129C245.196 122.129 246.006 122.416 246.612 122.919L247.889 121.379ZM244.101 120.129H238.251V122.129H244.101V120.129ZM239.246 121.229L240.326 110.519L238.336 110.319L237.256 121.029L239.246 121.229ZM239.331 111.419H250.761V109.419H239.331V111.419ZM249.761 110.419V113.989H251.761V110.419H249.761ZM250.761 112.989H242.541V114.989H250.761V112.989ZM241.545 113.898L241.215 117.498L243.206 117.68L243.536 114.08L241.545 113.898ZM242.211 118.589H244.311V116.589H242.211V118.589ZM244.311 118.589C246.443 118.589 248.162 119.202 249.538 120.387L250.843 118.871C249.059 117.336 246.859 116.589 244.311 116.589V118.589ZM249.544 120.392C250.901 121.543 251.561 122.965 251.561 124.729H253.561C253.561 122.373 252.64 120.395 250.837 118.866L249.544 120.392Z" fill="black"/>
<path d="M97.3789 57.1443L165.473 57.1443M165.473 57.1443L163.607 56.2441M165.473 57.1443L163.607 58.0444" stroke="black"/>
<path d="M97.3789 72.1014L192.524 72.1014M192.524 72.1014L189.917 71.1686M192.524 72.1014L189.917 73.0342" stroke="black"/>
<path d="M97.3789 42.2523L140.287 42.2523M140.287 42.2523L139.112 41.3195M140.287 42.2523L139.112 43.1851" stroke="black"/>
<path d="M97.3789 87.0262H128.161M128.161 87.0262L127.318 86.0934M128.161 87.0262L127.318 87.959" stroke="black"/>
<path d="M105.244 118.542L40.1693 152.674L40.1693 55.0099L105.244 23.2437L105.244 118.542Z" fill="#4AE991"/>
<mask id="mask1" mask-type="alpha" maskUnits="userSpaceOnUse" x="40" y="23" width="66" height="130">
<path d="M105.244 118.542L40.1693 152.674L40.1693 55.0099L105.244 23.2437L105.244 118.542Z" fill="#4AE991"/>
</mask>
<g mask="url(#mask1)">
<path d="M102.92 -56.5713C144.698 5.7376 144.698 50.2439 102.92 76.9478C61.1421 103.652 61.1421 148.158 102.92 210.467" stroke="#A57CFE"/>
<path d="M22.9112 -48.7661C85.755 -0.999387 102.348 41.2005 72.6911 77.8337C43.0339 114.467 59.6272 156.667 122.471 204.433" stroke="#A57CFE"/>
<path d="M50.5328 -53.937C86.4372 10.9768 82.334 55.3455 38.223 79.1692C-5.88799 102.993 -9.99125 147.362 25.9132 212.276" stroke="#A57CFE"/>
</g>
<circle cx="264.157" cy="44.0851" r="2.82092" fill="#31D67B"/>
<circle cx="275.44" cy="44.0851" r="2.82092" fill="#31D67B"/>
<circle cx="286.725" cy="44.0851" r="2.82092" fill="#31D67B"/>
<circle cx="298.008" cy="44.0851" r="2.82092" fill="#31D67B"/>
<circle cx="264.157" cy="55.3688" r="2.82092" fill="#31D67B"/>
<circle cx="275.44" cy="55.3688" r="2.82092" fill="#31D67B"/>
<circle cx="286.725" cy="55.3688" r="2.82092" fill="#31D67B"/>
<circle cx="298.008" cy="55.3688" r="2.82092" fill="#31D67B"/>
<circle cx="298.008" cy="66.6525" r="2.82092" fill="#31D67B"/>
<circle cx="286.725" cy="66.6525" r="2.82092" fill="#31D67B"/>
<circle cx="275.44" cy="66.6525" r="2.82092" fill="#31D67B"/>
<circle cx="264.157" cy="66.6525" r="2.82092" fill="#31D67B"/>
<circle cx="264.157" cy="66.6525" r="2.82092" fill="#31D67B"/>
<circle cx="275.44" cy="66.6525" r="2.82092" fill="#31D67B"/>
<circle cx="286.725" cy="66.6525" r="2.82092" fill="#31D67B"/>
<circle cx="298.008" cy="66.6525" r="2.82092" fill="#31D67B"/>
<circle cx="264.157" cy="77.9362" r="2.82092" fill="#31D67B"/>
<circle cx="275.44" cy="77.9362" r="2.82092" fill="#31D67B"/>
<circle cx="286.725" cy="77.9362" r="2.82092" fill="#31D67B"/>
<circle cx="298.008" cy="77.9362" r="2.82092" fill="#31D67B"/>
<circle cx="298.008" cy="89.2198" r="2.82092" fill="#31D67B"/>
<circle cx="286.725" cy="89.2198" r="2.82092" fill="#31D67B"/>
<circle cx="275.44" cy="89.2198" r="2.82092" fill="#31D67B"/>
<circle cx="264.157" cy="89.2198" r="2.82092" fill="#31D67B"/>
</svg>
