<svg width="341" height="180" viewBox="0 0 341 180" fill="none" xmlns="http://www.w3.org/2000/svg">
<rect width="341" height="180" fill="#F5F5F5"/>
<g clip-path="url(#clip0)">
<rect width="127" height="89" transform="translate(170.939 44.5737)" fill="#4AE991"/>
<path d="M149.261 80.0322C189.849 43.5167 224.029 43.1104 251.802 78.8133C279.574 114.516 313.755 114.11 354.343 77.5945" stroke="#31D67B" stroke-width="2"/>
<path d="M152.697 110.369C187.45 68.2622 221.196 62.8144 253.935 94.0263C286.674 125.238 320.42 119.79 355.173 77.6832" stroke="#31D67B" stroke-width="2"/>
<path d="M151.532 118.499C190.57 80.3308 224.704 78.5066 253.934 113.026C283.164 147.546 317.299 145.722 356.337 107.554" stroke="#31D67B" stroke-width="2"/>
<path d="M150.708 126.539C193.998 93.2699 228.107 95.5069 253.037 133.25C277.966 170.993 312.076 173.23 355.365 139.961" stroke="#31D67B" stroke-width="2"/>
<path d="M141.708 152.539C177.207 125.257 205.179 127.091 225.622 158.042C246.065 188.993 274.037 190.827 309.536 163.546" stroke="#31D67B" stroke-width="2"/>
<path d="M182.048 40.3418C219.513 15.8289 247.265 19.7782 265.303 52.1895C283.342 84.6008 311.094 88.55 348.559 64.0372" stroke="#31D67B" stroke-width="2"/>
</g>
<path d="M129.9 62.676L129.538 62.2838L129.535 62.2861L129.9 62.676ZM138.161 62.676L137.797 63.0658L137.799 63.0681L138.161 62.676ZM138.161 75.186L137.799 74.7938L137.797 74.7962L138.161 75.186ZM129.9 75.186L129.535 75.5758L129.538 75.5782L129.9 75.186ZM131.885 73.3074L131.523 73.6993L131.533 73.7084L131.885 73.3074ZM136.197 73.3074L136.55 73.7084L136.555 73.7037L136.56 73.6988L136.197 73.3074ZM136.197 64.576L135.835 64.9679L135.845 64.977L136.197 64.576ZM131.885 64.576L132.242 64.9727L132.247 64.9678L131.885 64.576ZM128.79 71.3433V66.5186H127.722V71.3433H128.79ZM128.79 66.5186C128.79 65.1252 129.279 63.9868 130.264 63.0658L129.535 62.2861C128.328 63.4145 127.722 64.8379 127.722 66.5186H128.79ZM130.262 63.0681C131.264 62.1432 132.511 61.6726 134.041 61.6726V60.6052C132.27 60.6052 130.756 61.1593 129.538 62.2838L130.262 63.0681ZM134.041 61.6726C135.572 61.6726 136.81 62.1432 137.797 63.0658L138.526 62.2861C137.321 61.1594 135.813 60.6052 134.041 60.6052V61.6726ZM137.799 63.0681C138.798 63.9898 139.293 65.1276 139.293 66.5186H140.36C140.36 64.8356 139.745 63.4115 138.523 62.2838L137.799 63.0681ZM139.293 66.5186V71.3433H140.36V66.5186H139.293ZM139.293 71.3433C139.293 72.7344 138.798 73.8721 137.799 74.7938L138.523 75.5782C139.745 74.4504 140.36 73.0264 140.36 71.3433H139.293ZM137.797 74.7962C136.81 75.7188 135.572 76.1894 134.041 76.1894V77.2568C135.813 77.2568 137.321 76.7026 138.526 75.5758L137.797 74.7962ZM134.041 76.1894C132.511 76.1894 131.264 75.7187 130.262 74.7938L129.538 75.5782C130.756 76.7027 132.27 77.2568 134.041 77.2568V76.1894ZM130.264 74.7962C129.279 73.8751 128.79 72.7367 128.79 71.3433H127.722C127.722 73.0241 128.328 74.4474 129.535 75.5758L130.264 74.7962ZM130.497 66.4759V71.386H131.565V66.4759H130.497ZM130.497 71.386C130.497 72.2938 130.848 73.0748 131.523 73.6991L132.247 72.9156C131.784 72.4868 131.565 71.9869 131.565 71.386H130.497ZM131.533 73.7084C132.224 74.315 133.072 74.6096 134.041 74.6096V73.5422C133.303 73.5422 132.713 73.3244 132.237 72.9063L131.533 73.7084ZM134.041 74.6096C135.011 74.6096 135.859 74.315 136.55 73.7084L135.845 72.9063C135.369 73.3244 134.779 73.5422 134.041 73.5422V74.6096ZM136.56 73.6988C137.244 73.0654 137.606 72.2867 137.606 71.386H136.539C136.539 71.9655 136.318 72.4676 135.835 72.9159L136.56 73.6988ZM137.606 71.386V66.4759H136.539V71.386H137.606ZM137.606 66.4759C137.606 65.563 137.245 64.7852 136.55 64.1749L135.845 64.977C136.317 65.3914 136.539 65.8803 136.539 66.4759H137.606ZM136.56 64.1842C135.88 63.5552 135.026 63.2524 134.041 63.2524V64.3198C134.792 64.3198 135.376 64.5435 135.835 64.9678L136.56 64.1842ZM134.041 63.2524C133.056 63.2524 132.203 63.5552 131.523 64.1842L132.247 64.9678C132.706 64.5435 133.29 64.3198 134.041 64.3198V63.2524ZM131.528 64.1793C130.848 64.7911 130.497 65.5677 130.497 66.4759H131.565C131.565 65.8756 131.783 65.3856 132.242 64.9727L131.528 64.1793ZM150.922 64.8535H151.456V63.9931L150.685 64.3753L150.922 64.8535ZM148.339 66.1344L147.857 66.3628L148.089 66.8539L148.576 66.6125L148.339 66.1344ZM147.186 63.7007L146.949 63.2224L146.479 63.4552L146.704 63.9292L147.186 63.7007ZM151.712 61.4591V60.9254H151.587L151.475 60.9809L151.712 61.4591ZM153.697 61.4591H154.231V60.9254H153.697V61.4591ZM153.697 76.4028V76.9365H154.231V76.4028H153.697ZM150.922 76.4028H150.388V76.9365H150.922V76.4028ZM150.685 64.3753L148.102 65.6562L148.576 66.6125L151.159 65.3316L150.685 64.3753ZM148.821 65.9059L147.668 63.4722L146.704 63.9292L147.857 66.3628L148.821 65.9059ZM147.423 64.1789L151.949 61.9374L151.475 60.9809L146.949 63.2224L147.423 64.1789ZM151.712 61.9928H153.697V60.9254H151.712V61.9928ZM153.164 61.4591V76.4028H154.231V61.4591H153.164ZM153.697 75.8691H150.922V76.9365H153.697V75.8691ZM151.456 76.4028V64.8535H150.388V76.4028H151.456ZM164.048 62.676L163.686 62.2838L163.684 62.2861L164.048 62.676ZM172.31 62.676L171.946 63.0658L171.948 63.0681L172.31 62.676ZM172.31 75.186L171.948 74.7938L171.946 74.7962L172.31 75.186ZM164.048 75.186L163.684 75.5758L163.686 75.5782L164.048 75.186ZM166.034 73.3074L165.671 73.6993L165.682 73.7084L166.034 73.3074ZM170.346 73.3074L170.698 73.7084L170.704 73.7037L170.709 73.6988L170.346 73.3074ZM170.346 64.576L169.984 64.9679L169.994 64.977L170.346 64.576ZM166.034 64.576L166.391 64.9727L166.396 64.9678L166.034 64.576ZM162.938 71.3433V66.5186H161.871V71.3433H162.938ZM162.938 66.5186C162.938 65.1252 163.428 63.9868 164.413 63.0658L163.684 62.2861C162.477 63.4145 161.871 64.8379 161.871 66.5186H162.938ZM164.41 63.0681C165.412 62.1432 166.66 61.6726 168.19 61.6726V60.6052C166.418 60.6052 164.905 61.1593 163.686 62.2838L164.41 63.0681ZM168.19 61.6726C169.72 61.6726 170.959 62.1432 171.946 63.0658L172.675 62.2861C171.47 61.1594 169.961 60.6052 168.19 60.6052V61.6726ZM171.948 63.0681C172.947 63.9898 173.442 65.1276 173.442 66.5186H174.509C174.509 64.8356 173.894 63.4115 172.672 62.2838L171.948 63.0681ZM173.442 66.5186V71.3433H174.509V66.5186H173.442ZM173.442 71.3433C173.442 72.7344 172.947 73.8721 171.948 74.7938L172.672 75.5782C173.894 74.4504 174.509 73.0264 174.509 71.3433H173.442ZM171.946 74.7962C170.959 75.7188 169.72 76.1894 168.19 76.1894V77.2568C169.961 77.2568 171.47 76.7026 172.675 75.5758L171.946 74.7962ZM168.19 76.1894C166.66 76.1894 165.412 75.7187 164.41 74.7938L163.686 75.5782C164.905 76.7027 166.418 77.2568 168.19 77.2568V76.1894ZM164.413 74.7962C163.428 73.8751 162.938 72.7367 162.938 71.3433H161.871C161.871 73.0241 162.477 74.4474 163.684 75.5758L164.413 74.7962ZM164.646 66.4759V71.386H165.714V66.4759H164.646ZM164.646 71.386C164.646 72.2938 164.996 73.0748 165.671 73.6991L166.396 72.9156C165.933 72.4868 165.714 71.9869 165.714 71.386H164.646ZM165.682 73.7084C166.372 74.315 167.22 74.6096 168.19 74.6096V73.5422C167.452 73.5422 166.862 73.3244 166.386 72.9063L165.682 73.7084ZM168.19 74.6096C169.16 74.6096 170.007 74.315 170.698 73.7084L169.994 72.9063C169.518 73.3244 168.928 73.5422 168.19 73.5422V74.6096ZM170.709 73.6988C171.392 73.0654 171.755 72.2867 171.755 71.386H170.688C170.688 71.9655 170.467 72.4676 169.983 72.9159L170.709 73.6988ZM171.755 71.386V66.4759H170.688V71.386H171.755ZM171.755 66.4759C171.755 65.563 171.393 64.7852 170.698 64.1749L169.994 64.977C170.466 65.3914 170.688 65.8803 170.688 66.4759H171.755ZM170.708 64.1842C170.029 63.5552 169.175 63.2524 168.19 63.2524V64.3198C168.941 64.3198 169.525 64.5435 169.984 64.9678L170.708 64.1842ZM168.19 63.2524C167.205 63.2524 166.351 63.5552 165.671 64.1842L166.396 64.9678C166.855 64.5435 167.439 64.3198 168.19 64.3198V63.2524ZM165.677 64.1793C164.997 64.7911 164.646 65.5677 164.646 66.4759H165.714C165.714 65.8756 165.932 65.3856 166.391 64.9727L165.677 64.1793ZM185.071 64.8535H185.604V63.9931L184.834 64.3753L185.071 64.8535ZM182.488 66.1344L182.005 66.3628L182.238 66.8539L182.725 66.6125L182.488 66.1344ZM181.335 63.7007L181.098 63.2224L180.628 63.4552L180.853 63.9292L181.335 63.7007ZM185.861 61.4591V60.9254H185.736L185.624 60.9809L185.861 61.4591ZM187.846 61.4591H188.38V60.9254H187.846V61.4591ZM187.846 76.4028V76.9365H188.38V76.4028H187.846ZM185.071 76.4028H184.537V76.9365H185.071V76.4028ZM184.834 64.3753L182.251 65.6562L182.725 66.6125L185.308 65.3316L184.834 64.3753ZM182.97 65.9059L181.817 63.4722L180.853 63.9292L182.005 66.3628L182.97 65.9059ZM181.572 64.1789L186.098 61.9374L185.624 60.9809L181.098 63.2224L181.572 64.1789ZM185.861 61.9928H187.846V60.9254H185.861V61.9928ZM187.312 61.4591V76.4028H188.38V61.4591H187.312ZM187.846 75.8691H185.071V76.9365H187.846V75.8691ZM185.604 76.4028V64.8535H184.537V76.4028H185.604ZM198.197 62.676L197.835 62.2838L197.833 62.2861L198.197 62.676ZM206.459 62.676L206.094 63.0658L206.097 63.0681L206.459 62.676ZM206.459 75.186L206.097 74.7938L206.094 74.7962L206.459 75.186ZM198.197 75.186L197.833 75.5758L197.835 75.5782L198.197 75.186ZM200.182 73.3074L199.82 73.6993L199.83 73.7084L200.182 73.3074ZM204.495 73.3074L204.847 73.7084L204.852 73.7037L204.858 73.6988L204.495 73.3074ZM204.495 64.576L204.132 64.9679L204.143 64.977L204.495 64.576ZM200.182 64.576L200.539 64.9727L200.545 64.9678L200.182 64.576ZM197.087 71.3433V66.5186H196.02V71.3433H197.087ZM197.087 66.5186C197.087 65.1252 197.577 63.9868 198.562 63.0658L197.833 62.2861C196.626 63.4145 196.02 64.8379 196.02 66.5186H197.087ZM198.559 63.0681C199.561 62.1432 200.808 61.6726 202.339 61.6726V60.6052C200.567 60.6052 199.053 61.1593 197.835 62.2838L198.559 63.0681ZM202.339 61.6726C203.869 61.6726 205.108 62.1432 206.094 63.0658L206.823 62.2861C205.618 61.1594 204.11 60.6052 202.339 60.6052V61.6726ZM206.097 63.0681C207.095 63.9898 207.59 65.1276 207.59 66.5186H208.658C208.658 64.8356 208.042 63.4115 206.821 62.2838L206.097 63.0681ZM207.59 66.5186V71.3433H208.658V66.5186H207.59ZM207.59 71.3433C207.59 72.7344 207.095 73.8721 206.097 74.7938L206.821 75.5782C208.042 74.4504 208.658 73.0264 208.658 71.3433H207.59ZM206.094 74.7962C205.108 75.7188 203.869 76.1894 202.339 76.1894V77.2568C204.11 77.2568 205.618 76.7026 206.823 75.5758L206.094 74.7962ZM202.339 76.1894C200.808 76.1894 199.561 75.7187 198.559 74.7938L197.835 75.5782C199.053 76.7027 200.567 77.2568 202.339 77.2568V76.1894ZM198.562 74.7962C197.577 73.8751 197.087 72.7367 197.087 71.3433H196.02C196.02 73.0241 196.626 74.4474 197.833 75.5758L198.562 74.7962ZM198.795 66.4759V71.386H199.862V66.4759H198.795ZM198.795 71.386C198.795 72.2938 199.145 73.0748 199.82 73.6991L200.545 72.9156C200.081 72.4868 199.862 71.9869 199.862 71.386H198.795ZM199.83 73.7084C200.521 74.315 201.369 74.6096 202.339 74.6096V73.5422C201.6 73.5422 201.011 73.3244 200.535 72.9063L199.83 73.7084ZM202.339 74.6096C203.308 74.6096 204.156 74.315 204.847 73.7084L204.143 72.9063C203.666 73.3244 203.077 73.5422 202.339 73.5422V74.6096ZM204.858 73.6988C205.541 73.0654 205.904 72.2867 205.904 71.386H204.836C204.836 71.9655 204.616 72.4676 204.132 72.9159L204.858 73.6988ZM205.904 71.386V66.4759H204.836V71.386H205.904ZM205.904 66.4759C205.904 65.563 205.542 64.7852 204.847 64.1749L204.143 64.977C204.615 65.3914 204.836 65.8803 204.836 66.4759H205.904ZM204.857 64.1842C204.177 63.5552 203.324 63.2524 202.339 63.2524V64.3198C203.09 64.3198 203.674 64.5435 204.132 64.9678L204.857 64.1842ZM202.339 63.2524C201.353 63.2524 200.5 63.5552 199.82 64.1842L200.545 64.9678C201.003 64.5435 201.587 64.3198 202.339 64.3198V63.2524ZM199.825 64.1793C199.146 64.7911 198.795 65.5677 198.795 66.4759H199.862C199.862 65.8756 200.081 65.3856 200.539 64.9727L199.825 64.1793ZM129.9 94.676L129.538 94.2838L129.535 94.2861L129.9 94.676ZM138.161 94.676L137.797 95.0658L137.799 95.0681L138.161 94.676ZM138.161 107.186L137.799 106.794L137.797 106.796L138.161 107.186ZM129.9 107.186L129.535 107.576L129.538 107.578L129.9 107.186ZM131.885 105.307L131.523 105.699L131.533 105.708L131.885 105.307ZM136.197 105.307L136.55 105.708L136.555 105.704L136.56 105.699L136.197 105.307ZM136.197 96.576L135.835 96.9679L135.845 96.977L136.197 96.576ZM131.885 96.576L132.242 96.9727L132.247 96.9678L131.885 96.576ZM128.79 103.343V98.5186H127.722V103.343H128.79ZM128.79 98.5186C128.79 97.1252 129.279 95.9868 130.264 95.0658L129.535 94.2861C128.328 95.4145 127.722 96.8379 127.722 98.5186H128.79ZM130.262 95.0681C131.264 94.1432 132.511 93.6726 134.041 93.6726V92.6052C132.27 92.6052 130.756 93.1593 129.538 94.2838L130.262 95.0681ZM134.041 93.6726C135.572 93.6726 136.81 94.1432 137.797 95.0658L138.526 94.2861C137.321 93.1594 135.813 92.6052 134.041 92.6052V93.6726ZM137.799 95.0681C138.798 95.9898 139.293 97.1276 139.293 98.5186H140.36C140.36 96.8356 139.745 95.4115 138.523 94.2838L137.799 95.0681ZM139.293 98.5186V103.343H140.36V98.5186H139.293ZM139.293 103.343C139.293 104.734 138.798 105.872 137.799 106.794L138.523 107.578C139.745 106.45 140.36 105.026 140.36 103.343H139.293ZM137.797 106.796C136.81 107.719 135.572 108.189 134.041 108.189V109.257C135.813 109.257 137.321 108.703 138.526 107.576L137.797 106.796ZM134.041 108.189C132.511 108.189 131.264 107.719 130.262 106.794L129.538 107.578C130.756 108.703 132.27 109.257 134.041 109.257V108.189ZM130.264 106.796C129.279 105.875 128.79 104.737 128.79 103.343H127.722C127.722 105.024 128.328 106.447 129.535 107.576L130.264 106.796ZM130.497 98.4759V103.386H131.565V98.4759H130.497ZM130.497 103.386C130.497 104.294 130.848 105.075 131.523 105.699L132.247 104.916C131.784 104.487 131.565 103.987 131.565 103.386H130.497ZM131.533 105.708C132.224 106.315 133.072 106.61 134.041 106.61V105.542C133.303 105.542 132.713 105.324 132.237 104.906L131.533 105.708ZM134.041 106.61C135.011 106.61 135.859 106.315 136.55 105.708L135.845 104.906C135.369 105.324 134.779 105.542 134.041 105.542V106.61ZM136.56 105.699C137.244 105.065 137.606 104.287 137.606 103.386H136.539C136.539 103.965 136.318 104.468 135.835 104.916L136.56 105.699ZM137.606 103.386V98.4759H136.539V103.386H137.606ZM137.606 98.4759C137.606 97.563 137.245 96.7852 136.55 96.1749L135.845 96.977C136.317 97.3914 136.539 97.8803 136.539 98.4759H137.606ZM136.56 96.1842C135.88 95.5552 135.026 95.2524 134.041 95.2524V96.3198C134.792 96.3198 135.376 96.5435 135.835 96.9678L136.56 96.1842ZM134.041 95.2524C133.056 95.2524 132.203 95.5552 131.523 96.1842L132.247 96.9678C132.706 96.5435 133.29 96.3198 134.041 96.3198V95.2524ZM131.528 96.1793C130.848 96.7911 130.497 97.5677 130.497 98.4759H131.565C131.565 97.8756 131.783 97.3856 132.242 96.9727L131.528 96.1793ZM150.922 96.8535H151.456V95.9931L150.685 96.3753L150.922 96.8535ZM148.339 98.1344L147.857 98.3628L148.089 98.8539L148.576 98.6125L148.339 98.1344ZM147.186 95.7007L146.949 95.2224L146.479 95.4552L146.704 95.9292L147.186 95.7007ZM151.712 93.4591V92.9254H151.587L151.475 92.9809L151.712 93.4591ZM153.697 93.4591H154.231V92.9254H153.697V93.4591ZM153.697 108.403V108.937H154.231V108.403H153.697ZM150.922 108.403H150.388V108.937H150.922V108.403ZM150.685 96.3753L148.102 97.6562L148.576 98.6125L151.159 97.3316L150.685 96.3753ZM148.821 97.9059L147.668 95.4722L146.704 95.9292L147.857 98.3628L148.821 97.9059ZM147.423 96.1789L151.949 93.9374L151.475 92.9809L146.949 95.2224L147.423 96.1789ZM151.712 93.9928H153.697V92.9254H151.712V93.9928ZM153.164 93.4591V108.403H154.231V93.4591H153.164ZM153.697 107.869H150.922V108.937H153.697V107.869ZM151.456 108.403V96.8535H150.388V108.403H151.456ZM164.048 94.676L163.686 94.2838L163.684 94.2861L164.048 94.676ZM172.31 94.676L171.946 95.0658L171.948 95.0681L172.31 94.676ZM172.31 107.186L171.948 106.794L171.946 106.796L172.31 107.186ZM164.048 107.186L163.684 107.576L163.686 107.578L164.048 107.186ZM166.034 105.307L165.671 105.699L165.682 105.708L166.034 105.307ZM170.346 105.307L170.698 105.708L170.704 105.704L170.709 105.699L170.346 105.307ZM170.346 96.576L169.984 96.9679L169.994 96.977L170.346 96.576ZM166.034 96.576L166.391 96.9727L166.396 96.9678L166.034 96.576ZM162.938 103.343V98.5186H161.871V103.343H162.938ZM162.938 98.5186C162.938 97.1252 163.428 95.9868 164.413 95.0658L163.684 94.2861C162.477 95.4145 161.871 96.8379 161.871 98.5186H162.938ZM164.41 95.0681C165.412 94.1432 166.66 93.6726 168.19 93.6726V92.6052C166.418 92.6052 164.905 93.1593 163.686 94.2838L164.41 95.0681ZM168.19 93.6726C169.72 93.6726 170.959 94.1432 171.946 95.0658L172.675 94.2861C171.47 93.1594 169.961 92.6052 168.19 92.6052V93.6726ZM171.948 95.0681C172.947 95.9898 173.442 97.1276 173.442 98.5186H174.509C174.509 96.8356 173.894 95.4115 172.672 94.2838L171.948 95.0681ZM173.442 98.5186V103.343H174.509V98.5186H173.442ZM173.442 103.343C173.442 104.734 172.947 105.872 171.948 106.794L172.672 107.578C173.894 106.45 174.509 105.026 174.509 103.343H173.442ZM171.946 106.796C170.959 107.719 169.72 108.189 168.19 108.189V109.257C169.961 109.257 171.47 108.703 172.675 107.576L171.946 106.796ZM168.19 108.189C166.66 108.189 165.412 107.719 164.41 106.794L163.686 107.578C164.905 108.703 166.418 109.257 168.19 109.257V108.189ZM164.413 106.796C163.428 105.875 162.938 104.737 162.938 103.343H161.871C161.871 105.024 162.477 106.447 163.684 107.576L164.413 106.796ZM164.646 98.4759V103.386H165.714V98.4759H164.646ZM164.646 103.386C164.646 104.294 164.996 105.075 165.671 105.699L166.396 104.916C165.933 104.487 165.714 103.987 165.714 103.386H164.646ZM165.682 105.708C166.372 106.315 167.22 106.61 168.19 106.61V105.542C167.452 105.542 166.862 105.324 166.386 104.906L165.682 105.708ZM168.19 106.61C169.16 106.61 170.007 106.315 170.698 105.708L169.994 104.906C169.518 105.324 168.928 105.542 168.19 105.542V106.61ZM170.709 105.699C171.392 105.065 171.755 104.287 171.755 103.386H170.688C170.688 103.965 170.467 104.468 169.983 104.916L170.709 105.699ZM171.755 103.386V98.4759H170.688V103.386H171.755ZM171.755 98.4759C171.755 97.563 171.393 96.7852 170.698 96.1749L169.994 96.977C170.466 97.3914 170.688 97.8803 170.688 98.4759H171.755ZM170.708 96.1842C170.029 95.5552 169.175 95.2524 168.19 95.2524V96.3198C168.941 96.3198 169.525 96.5435 169.984 96.9678L170.708 96.1842ZM168.19 95.2524C167.205 95.2524 166.351 95.5552 165.671 96.1842L166.396 96.9678C166.855 96.5435 167.439 96.3198 168.19 96.3198V95.2524ZM165.677 96.1793C164.997 96.7911 164.646 97.5677 164.646 98.4759H165.714C165.714 97.8756 165.932 97.3856 166.391 96.9727L165.677 96.1793ZM185.071 96.8535H185.604V95.9931L184.834 96.3753L185.071 96.8535ZM182.488 98.1344L182.005 98.3628L182.238 98.8539L182.725 98.6125L182.488 98.1344ZM181.335 95.7007L181.098 95.2224L180.628 95.4552L180.853 95.9292L181.335 95.7007ZM185.861 93.4591V92.9254H185.736L185.624 92.9809L185.861 93.4591ZM187.846 93.4591H188.38V92.9254H187.846V93.4591ZM187.846 108.403V108.937H188.38V108.403H187.846ZM185.071 108.403H184.537V108.937H185.071V108.403ZM184.834 96.3753L182.251 97.6562L182.725 98.6125L185.308 97.3316L184.834 96.3753ZM182.97 97.9059L181.817 95.4722L180.853 95.9292L182.005 98.3628L182.97 97.9059ZM181.572 96.1789L186.098 93.9374L185.624 92.9809L181.098 95.2224L181.572 96.1789ZM185.861 93.9928H187.846V92.9254H185.861V93.9928ZM187.312 93.4591V108.403H188.38V93.4591H187.312ZM187.846 107.869H185.071V108.937H187.846V107.869ZM185.604 108.403V96.8535H184.537V108.403H185.604ZM198.197 94.676L197.835 94.2838L197.833 94.2861L198.197 94.676ZM206.459 94.676L206.094 95.0658L206.097 95.0681L206.459 94.676ZM206.459 107.186L206.097 106.794L206.094 106.796L206.459 107.186ZM198.197 107.186L197.833 107.576L197.835 107.578L198.197 107.186ZM200.182 105.307L199.82 105.699L199.83 105.708L200.182 105.307ZM204.495 105.307L204.847 105.708L204.852 105.704L204.858 105.699L204.495 105.307ZM204.495 96.576L204.132 96.9679L204.143 96.977L204.495 96.576ZM200.182 96.576L200.539 96.9727L200.545 96.9678L200.182 96.576ZM197.087 103.343V98.5186H196.02V103.343H197.087ZM197.087 98.5186C197.087 97.1252 197.577 95.9868 198.562 95.0658L197.833 94.2861C196.626 95.4145 196.02 96.8379 196.02 98.5186H197.087ZM198.559 95.0681C199.561 94.1432 200.808 93.6726 202.339 93.6726V92.6052C200.567 92.6052 199.053 93.1593 197.835 94.2838L198.559 95.0681ZM202.339 93.6726C203.869 93.6726 205.108 94.1432 206.094 95.0658L206.823 94.2861C205.618 93.1594 204.11 92.6052 202.339 92.6052V93.6726ZM206.097 95.0681C207.095 95.9898 207.59 97.1276 207.59 98.5186H208.658C208.658 96.8356 208.042 95.4115 206.821 94.2838L206.097 95.0681ZM207.59 98.5186V103.343H208.658V98.5186H207.59ZM207.59 103.343C207.59 104.734 207.095 105.872 206.097 106.794L206.821 107.578C208.042 106.45 208.658 105.026 208.658 103.343H207.59ZM206.094 106.796C205.108 107.719 203.869 108.189 202.339 108.189V109.257C204.11 109.257 205.618 108.703 206.823 107.576L206.094 106.796ZM202.339 108.189C200.808 108.189 199.561 107.719 198.559 106.794L197.835 107.578C199.053 108.703 200.567 109.257 202.339 109.257V108.189ZM198.562 106.796C197.577 105.875 197.087 104.737 197.087 103.343H196.02C196.02 105.024 196.626 106.447 197.833 107.576L198.562 106.796ZM198.795 98.4759V103.386H199.862V98.4759H198.795ZM198.795 103.386C198.795 104.294 199.145 105.075 199.82 105.699L200.545 104.916C200.081 104.487 199.862 103.987 199.862 103.386H198.795ZM199.83 105.708C200.521 106.315 201.369 106.61 202.339 106.61V105.542C201.6 105.542 201.011 105.324 200.535 104.906L199.83 105.708ZM202.339 106.61C203.308 106.61 204.156 106.315 204.847 105.708L204.143 104.906C203.666 105.324 203.077 105.542 202.339 105.542V106.61ZM204.858 105.699C205.541 105.065 205.904 104.287 205.904 103.386H204.836C204.836 103.965 204.616 104.468 204.132 104.916L204.858 105.699ZM205.904 103.386V98.4759H204.836V103.386H205.904ZM205.904 98.4759C205.904 97.563 205.542 96.7852 204.847 96.1749L204.143 96.977C204.615 97.3914 204.836 97.8803 204.836 98.4759H205.904ZM204.857 96.1842C204.177 95.5552 203.324 95.2524 202.339 95.2524V96.3198C203.09 96.3198 203.674 96.5435 204.132 96.9678L204.857 96.1842ZM202.339 95.2524C201.353 95.2524 200.5 95.5552 199.82 96.1842L200.545 96.9678C201.003 96.5435 201.587 96.3198 202.339 96.3198V95.2524ZM199.825 96.1793C199.146 96.7911 198.795 97.5677 198.795 98.4759H199.862C199.862 97.8756 200.081 97.3856 200.539 96.9727L199.825 96.1793Z" fill="black"/>
<path d="M123.451 74.6402V69.8155C123.451 68.2784 123.999 66.9976 125.095 65.9728C126.205 64.9481 127.586 64.4358 129.237 64.4358C130.887 64.4358 132.261 64.9481 133.357 65.9728C134.467 66.9976 135.022 68.2784 135.022 69.8155V74.6402C135.022 76.1773 134.467 77.4582 133.357 78.4829C132.261 79.5076 130.887 80.0199 129.237 80.0199C127.586 80.0199 126.205 79.5076 125.095 78.4829C123.999 77.4582 123.451 76.1773 123.451 74.6402ZM126.226 69.7728V74.6829C126.226 75.4372 126.511 76.0776 127.08 76.6042C127.664 77.1166 128.383 77.3728 129.237 77.3728C130.09 77.3728 130.809 77.1166 131.393 76.6042C131.976 76.0634 132.268 75.423 132.268 74.6829V69.7728C132.268 69.0185 131.976 68.3852 131.393 67.8728C130.823 67.3462 130.105 67.083 129.237 67.083C128.368 67.083 127.65 67.3462 127.08 67.8728C126.511 68.3852 126.226 69.0185 126.226 69.7728ZM146.117 68.1504L143.534 69.4312L142.381 66.9976L146.907 64.756H148.893V79.6997H146.117V68.1504ZM157.6 74.6402V69.8155C157.6 68.2784 158.148 66.9976 159.244 65.9728C160.354 64.9481 161.734 64.4358 163.385 64.4358C165.036 64.4358 166.41 64.9481 167.505 65.9728C168.616 66.9976 169.171 68.2784 169.171 69.8155V74.6402C169.171 76.1773 168.616 77.4582 167.505 78.4829C166.41 79.5076 165.036 80.0199 163.385 80.0199C161.734 80.0199 160.354 79.5076 159.244 78.4829C158.148 77.4582 157.6 76.1773 157.6 74.6402ZM160.375 69.7728V74.6829C160.375 75.4372 160.66 76.0776 161.229 76.6042C161.813 77.1166 162.531 77.3728 163.385 77.3728C164.239 77.3728 164.958 77.1166 165.541 76.6042C166.125 76.0634 166.417 75.423 166.417 74.6829V69.7728C166.417 69.0185 166.125 68.3852 165.541 67.8728C164.972 67.3462 164.253 67.083 163.385 67.083C162.517 67.083 161.798 67.3462 161.229 67.8728C160.66 68.3852 160.375 69.0185 160.375 69.7728ZM180.266 68.1504L177.683 69.4312L176.53 66.9976L181.056 64.756H183.041V79.6997H180.266V68.1504ZM191.749 74.6402V69.8155C191.749 68.2784 192.296 66.9976 193.392 65.9728C194.502 64.9481 195.883 64.4358 197.534 64.4358C199.185 64.4358 200.558 64.9481 201.654 65.9728C202.764 66.9976 203.319 68.2784 203.319 69.8155V74.6402C203.319 76.1773 202.764 77.4582 201.654 78.4829C200.558 79.5076 199.185 80.0199 197.534 80.0199C195.883 80.0199 194.502 79.5076 193.392 78.4829C192.296 77.4582 191.749 76.1773 191.749 74.6402ZM194.524 69.7728V74.6829C194.524 75.4372 194.808 76.0776 195.378 76.6042C195.961 77.1166 196.68 77.3728 197.534 77.3728C198.388 77.3728 199.107 77.1166 199.69 76.6042C200.274 76.0634 200.565 75.423 200.565 74.6829V69.7728C200.565 69.0185 200.274 68.3852 199.69 67.8728C199.121 67.3462 198.402 67.083 197.534 67.083C196.666 67.083 195.947 67.3462 195.378 67.8728C194.808 68.3852 194.524 69.0185 194.524 69.7728ZM123.451 106.64V101.816C123.451 100.278 123.999 98.9976 125.095 97.9728C126.205 96.9481 127.586 96.4358 129.237 96.4358C130.887 96.4358 132.261 96.9481 133.357 97.9728C134.467 98.9976 135.022 100.278 135.022 101.816V106.64C135.022 108.177 134.467 109.458 133.357 110.483C132.261 111.508 130.887 112.02 129.237 112.02C127.586 112.02 126.205 111.508 125.095 110.483C123.999 109.458 123.451 108.177 123.451 106.64ZM126.226 101.773V106.683C126.226 107.437 126.511 108.078 127.08 108.604C127.664 109.117 128.383 109.373 129.237 109.373C130.09 109.373 130.809 109.117 131.393 108.604C131.976 108.063 132.268 107.423 132.268 106.683V101.773C132.268 101.019 131.976 100.385 131.393 99.8728C130.823 99.3462 130.105 99.083 129.237 99.083C128.368 99.083 127.65 99.3462 127.08 99.8728C126.511 100.385 126.226 101.019 126.226 101.773ZM146.117 100.15L143.534 101.431L142.381 98.9976L146.907 96.756H148.893V111.7H146.117V100.15ZM157.6 106.64V101.816C157.6 100.278 158.148 98.9976 159.244 97.9728C160.354 96.9481 161.734 96.4358 163.385 96.4358C165.036 96.4358 166.41 96.9481 167.505 97.9728C168.616 98.9976 169.171 100.278 169.171 101.816V106.64C169.171 108.177 168.616 109.458 167.505 110.483C166.41 111.508 165.036 112.02 163.385 112.02C161.734 112.02 160.354 111.508 159.244 110.483C158.148 109.458 157.6 108.177 157.6 106.64ZM160.375 101.773V106.683C160.375 107.437 160.66 108.078 161.229 108.604C161.813 109.117 162.531 109.373 163.385 109.373C164.239 109.373 164.958 109.117 165.541 108.604C166.125 108.063 166.417 107.423 166.417 106.683V101.773C166.417 101.019 166.125 100.385 165.541 99.8728C164.972 99.3462 164.253 99.083 163.385 99.083C162.517 99.083 161.798 99.3462 161.229 99.8728C160.66 100.385 160.375 101.019 160.375 101.773ZM180.266 100.15L177.683 101.431L176.53 98.9976L181.056 96.756H183.041V111.7H180.266V100.15ZM191.749 106.64V101.816C191.749 100.278 192.296 98.9976 193.392 97.9728C194.502 96.9481 195.883 96.4358 197.534 96.4358C199.185 96.4358 200.558 96.9481 201.654 97.9728C202.764 98.9976 203.319 100.278 203.319 101.816V106.64C203.319 108.177 202.764 109.458 201.654 110.483C200.558 111.508 199.185 112.02 197.534 112.02C195.883 112.02 194.502 111.508 193.392 110.483C192.296 109.458 191.749 108.177 191.749 106.64ZM194.524 101.773V106.683C194.524 107.437 194.808 108.078 195.378 108.604C195.961 109.117 196.68 109.373 197.534 109.373C198.388 109.373 199.107 109.117 199.69 108.604C200.274 108.063 200.565 107.423 200.565 106.683V101.773C200.565 101.019 200.274 100.385 199.69 99.8728C199.121 99.3462 198.402 99.083 197.534 99.083C196.666 99.083 195.947 99.3462 195.378 99.8728C194.808 100.385 194.524 101.019 194.524 101.773Z" fill="#F5F5F5"/>
<path d="M125.095 65.9728L124.733 65.5807L124.73 65.583L125.095 65.9728ZM133.357 65.9728L132.992 66.3627L132.995 66.365L133.357 65.9728ZM133.357 78.4829L132.995 78.0907L132.992 78.093L133.357 78.4829ZM125.095 78.4829L124.73 78.8727L124.733 78.875L125.095 78.4829ZM127.08 76.6042L126.718 76.9961L126.728 77.0053L127.08 76.6042ZM131.393 76.6042L131.745 77.0053L131.75 77.0005L131.755 76.9957L131.393 76.6042ZM131.393 67.8728L131.03 68.2648L131.041 68.2739L131.393 67.8728ZM127.08 67.8728L127.437 68.2696L127.443 68.2646L127.08 67.8728ZM123.985 74.6402V69.8155H122.917V74.6402H123.985ZM123.985 69.8155C123.985 68.4221 124.475 67.2837 125.459 66.3627L124.73 65.583C123.524 66.7114 122.917 68.1348 122.917 69.8155H123.985ZM125.457 66.365C126.459 65.4401 127.706 64.9695 129.237 64.9695V63.9021C127.465 63.9021 125.951 64.4562 124.733 65.5807L125.457 66.365ZM129.237 64.9695C130.767 64.9695 132.005 65.44 132.992 66.3627L133.721 65.583C132.516 64.4562 131.008 63.9021 129.237 63.9021V64.9695ZM132.995 66.365C133.993 67.2867 134.488 68.4245 134.488 69.8155H135.556C135.556 68.1324 134.94 66.7084 133.719 65.5807L132.995 66.365ZM134.488 69.8155V74.6402H135.556V69.8155H134.488ZM134.488 74.6402C134.488 76.0313 133.993 77.169 132.995 78.0907L133.719 78.875C134.94 77.7473 135.556 76.3233 135.556 74.6402H134.488ZM132.992 78.093C132.005 79.0157 130.767 79.4862 129.237 79.4862V80.5536C131.008 80.5536 132.516 79.9995 133.721 78.8727L132.992 78.093ZM129.237 79.4862C127.706 79.4862 126.459 79.0156 125.457 78.0907L124.733 78.875C125.951 79.9995 127.465 80.5536 129.237 80.5536V79.4862ZM125.459 78.093C124.475 77.172 123.985 76.0336 123.985 74.6402H122.917C122.917 76.3209 123.524 77.7443 124.73 78.8727L125.459 78.093ZM125.693 69.7728V74.6829H126.76V69.7728H125.693ZM125.693 74.6829C125.693 75.5906 126.043 76.3716 126.718 76.996L127.443 76.2124C126.979 75.7836 126.76 75.2838 126.76 74.6829H125.693ZM126.728 77.0053C127.419 77.6119 128.267 77.9065 129.237 77.9065V76.8391C128.498 76.8391 127.909 76.6213 127.432 76.2032L126.728 77.0053ZM129.237 77.9065C130.206 77.9065 131.054 77.6119 131.745 77.0053L131.041 76.2032C130.564 76.6213 129.975 76.8391 129.237 76.8391V77.9065ZM131.755 76.9957C132.439 76.3623 132.802 75.5836 132.802 74.6829H131.734C131.734 75.2623 131.514 75.7645 131.03 76.2128L131.755 76.9957ZM132.802 74.6829V69.7728H131.734V74.6829H132.802ZM132.802 69.7728C132.802 68.8598 132.44 68.0821 131.745 67.4718L131.041 68.2739C131.513 68.6883 131.734 69.1772 131.734 69.7728H132.802ZM131.755 67.481C131.075 66.8521 130.222 66.5492 129.237 66.5492V67.6167C129.988 67.6167 130.572 67.8404 131.03 68.2646L131.755 67.481ZM129.237 66.5492C128.251 66.5492 127.398 66.8521 126.718 67.481L127.443 68.2646C127.901 67.8404 128.485 67.6167 129.237 67.6167V66.5492ZM126.723 67.4761C126.044 68.0879 125.693 68.8646 125.693 69.7728H126.76C126.76 69.1725 126.979 68.6825 127.437 68.2695L126.723 67.4761ZM146.117 68.1504H146.651V67.29L145.88 67.6722L146.117 68.1504ZM143.534 69.4312L143.052 69.6597L143.285 70.1508L143.771 69.9094L143.534 69.4312ZM142.381 66.9976L142.145 66.5193L141.675 66.7521L141.899 67.226L142.381 66.9976ZM146.907 64.756V64.2223H146.782L146.67 64.2777L146.907 64.756ZM148.893 64.756H149.426V64.2223H148.893V64.756ZM148.893 79.6997V80.2334H149.426V79.6997H148.893ZM146.117 79.6997H145.584V80.2334H146.117V79.6997ZM145.88 67.6722L143.297 68.9531L143.771 69.9094L146.354 68.6285L145.88 67.6722ZM144.017 69.2028L142.864 66.7691L141.899 67.226L143.052 69.6597L144.017 69.2028ZM142.618 67.4758L147.144 65.2343L146.67 64.2777L142.145 66.5193L142.618 67.4758ZM146.907 65.2897H148.893V64.2223H146.907V65.2897ZM148.359 64.756V79.6997H149.426V64.756H148.359ZM148.893 79.166H146.117V80.2334H148.893V79.166ZM146.651 79.6997V68.1504H145.584V79.6997H146.651ZM159.244 65.9728L158.882 65.5807L158.879 65.583L159.244 65.9728ZM167.505 65.9728L167.141 66.3627L167.143 66.365L167.505 65.9728ZM167.505 78.4829L167.143 78.0907L167.141 78.093L167.505 78.4829ZM159.244 78.4829L158.879 78.8727L158.882 78.875L159.244 78.4829ZM161.229 76.6042L160.867 76.9961L160.877 77.0053L161.229 76.6042ZM165.541 76.6042L165.894 77.0053L165.899 77.0005L165.904 76.9957L165.541 76.6042ZM165.541 67.8728L165.179 68.2648L165.189 68.2739L165.541 67.8728ZM161.229 67.8728L161.586 68.2696L161.591 68.2646L161.229 67.8728ZM158.134 74.6402V69.8155H157.066V74.6402H158.134ZM158.134 69.8155C158.134 68.4221 158.623 67.2837 159.608 66.3627L158.879 65.583C157.672 66.7114 157.066 68.1348 157.066 69.8155H158.134ZM159.606 66.365C160.608 65.4401 161.855 64.9695 163.385 64.9695V63.9021C161.614 63.9021 160.1 64.4562 158.882 65.5807L159.606 66.365ZM163.385 64.9695C164.916 64.9695 166.154 65.44 167.141 66.3627L167.87 65.583C166.665 64.4562 165.157 63.9021 163.385 63.9021V64.9695ZM167.143 66.365C168.142 67.2867 168.637 68.4245 168.637 69.8155H169.704C169.704 68.1324 169.089 66.7084 167.867 65.5807L167.143 66.365ZM168.637 69.8155V74.6402H169.704V69.8155H168.637ZM168.637 74.6402C168.637 76.0313 168.142 77.169 167.143 78.0907L167.867 78.875C169.089 77.7473 169.704 76.3233 169.704 74.6402H168.637ZM167.141 78.093C166.154 79.0157 164.916 79.4862 163.385 79.4862V80.5536C165.157 80.5536 166.665 79.9995 167.87 78.8727L167.141 78.093ZM163.385 79.4862C161.855 79.4862 160.608 79.0156 159.606 78.0907L158.882 78.875C160.1 79.9995 161.614 80.5536 163.385 80.5536V79.4862ZM159.608 78.093C158.623 77.172 158.134 76.0336 158.134 74.6402H157.066C157.066 76.3209 157.672 77.7443 158.879 78.8727L159.608 78.093ZM159.841 69.7728V74.6829H160.909V69.7728H159.841ZM159.841 74.6829C159.841 75.5906 160.192 76.3716 160.867 76.996L161.591 76.2124C161.128 75.7836 160.909 75.2838 160.909 74.6829H159.841ZM160.877 77.0053C161.568 77.6119 162.416 77.9065 163.385 77.9065V76.8391C162.647 76.8391 162.057 76.6213 161.581 76.2032L160.877 77.0053ZM163.385 77.9065C164.355 77.9065 165.203 77.6119 165.894 77.0053L165.189 76.2032C164.713 76.6213 164.123 76.8391 163.385 76.8391V77.9065ZM165.904 76.9957C166.588 76.3623 166.95 75.5836 166.95 74.6829H165.883C165.883 75.2623 165.662 75.7645 165.179 76.2128L165.904 76.9957ZM166.95 74.6829V69.7728H165.883V74.6829H166.95ZM166.95 69.7728C166.95 68.8598 166.589 68.0821 165.894 67.4718L165.189 68.2739C165.661 68.6883 165.883 69.1772 165.883 69.7728H166.95ZM165.904 67.481C165.224 66.8521 164.37 66.5492 163.385 66.5492V67.6167C164.136 67.6167 164.72 67.8404 165.179 68.2646L165.904 67.481ZM163.385 66.5492C162.4 66.5492 161.547 66.8521 160.867 67.481L161.591 68.2646C162.05 67.8404 162.634 67.6167 163.385 67.6167V66.5492ZM160.872 67.4761C160.192 68.0879 159.841 68.8646 159.841 69.7728H160.909C160.909 69.1725 161.127 68.6825 161.586 68.2695L160.872 67.4761ZM180.266 68.1504H180.8V67.29L180.029 67.6722L180.266 68.1504ZM177.683 69.4312L177.201 69.6597L177.433 70.1508L177.92 69.9094L177.683 69.4312ZM176.53 66.9976L176.293 66.5193L175.823 66.7521L176.048 67.226L176.53 66.9976ZM181.056 64.756V64.2223H180.931L180.819 64.2777L181.056 64.756ZM183.041 64.756H183.575V64.2223H183.041V64.756ZM183.041 79.6997V80.2334H183.575V79.6997H183.041ZM180.266 79.6997H179.732V80.2334H180.266V79.6997ZM180.029 67.6722L177.446 68.9531L177.92 69.9094L180.503 68.6285L180.029 67.6722ZM178.165 69.2028L177.012 66.7691L176.048 67.226L177.201 69.6597L178.165 69.2028ZM176.767 67.4758L181.293 65.2343L180.819 64.2777L176.293 66.5193L176.767 67.4758ZM181.056 65.2897H183.041V64.2223H181.056V65.2897ZM182.508 64.756V79.6997H183.575V64.756H182.508ZM183.041 79.166H180.266V80.2334H183.041V79.166ZM180.8 79.6997V68.1504H179.732V79.6997H180.8ZM193.392 65.9728L193.03 65.5807L193.028 65.583L193.392 65.9728ZM201.654 65.9728L201.29 66.3627L201.292 66.365L201.654 65.9728ZM201.654 78.4829L201.292 78.0907L201.29 78.093L201.654 78.4829ZM193.392 78.4829L193.028 78.8727L193.03 78.875L193.392 78.4829ZM195.378 76.6042L195.015 76.9961L195.026 77.0053L195.378 76.6042ZM199.69 76.6042L200.042 77.0053L200.048 77.0005L200.053 76.9957L199.69 76.6042ZM199.69 67.8728L199.328 68.2648L199.338 68.2739L199.69 67.8728ZM195.378 67.8728L195.735 68.2696L195.74 68.2646L195.378 67.8728ZM192.282 74.6402V69.8155H191.215V74.6402H192.282ZM192.282 69.8155C192.282 68.4221 192.772 67.2837 193.757 66.3627L193.028 65.583C191.821 66.7114 191.215 68.1348 191.215 69.8155H192.282ZM193.754 66.365C194.756 65.4401 196.004 64.9695 197.534 64.9695V63.9021C195.762 63.9021 194.249 64.4562 193.03 65.5807L193.754 66.365ZM197.534 64.9695C199.064 64.9695 200.303 65.44 201.29 66.3627L202.019 65.583C200.814 64.4562 199.305 63.9021 197.534 63.9021V64.9695ZM201.292 66.365C202.291 67.2867 202.786 68.4245 202.786 69.8155H203.853C203.853 68.1324 203.238 66.7084 202.016 65.5807L201.292 66.365ZM202.786 69.8155V74.6402H203.853V69.8155H202.786ZM202.786 74.6402C202.786 76.0313 202.291 77.169 201.292 78.0907L202.016 78.875C203.238 77.7473 203.853 76.3233 203.853 74.6402H202.786ZM201.29 78.093C200.303 79.0157 199.064 79.4862 197.534 79.4862V80.5536C199.305 80.5536 200.814 79.9995 202.019 78.8727L201.29 78.093ZM197.534 79.4862C196.004 79.4862 194.756 79.0156 193.754 78.0907L193.03 78.875C194.249 79.9995 195.762 80.5536 197.534 80.5536V79.4862ZM193.757 78.093C192.772 77.172 192.282 76.0336 192.282 74.6402H191.215C191.215 76.3209 191.821 77.7443 193.028 78.8727L193.757 78.093ZM193.99 69.7728V74.6829H195.058V69.7728H193.99ZM193.99 74.6829C193.99 75.5906 194.34 76.3716 195.015 76.996L195.74 76.2124C195.277 75.7836 195.058 75.2838 195.058 74.6829H193.99ZM195.026 77.0053C195.716 77.6119 196.564 77.9065 197.534 77.9065V76.8391C196.796 76.8391 196.206 76.6213 195.73 76.2032L195.026 77.0053ZM197.534 77.9065C198.504 77.9065 199.351 77.6119 200.042 77.0053L199.338 76.2032C198.862 76.6213 198.272 76.8391 197.534 76.8391V77.9065ZM200.053 76.9957C200.736 76.3623 201.099 75.5836 201.099 74.6829H200.032C200.032 75.2623 199.811 75.7645 199.327 76.2128L200.053 76.9957ZM201.099 74.6829V69.7728H200.032V74.6829H201.099ZM201.099 69.7728C201.099 68.8598 200.737 68.0821 200.042 67.4718L199.338 68.2739C199.81 68.6883 200.032 69.1772 200.032 69.7728H201.099ZM200.052 67.481C199.373 66.8521 198.519 66.5492 197.534 66.5492V67.6167C198.285 67.6167 198.869 67.8404 199.328 68.2646L200.052 67.481ZM197.534 66.5492C196.549 66.5492 195.695 66.8521 195.015 67.481L195.74 68.2646C196.199 67.8404 196.783 67.6167 197.534 67.6167V66.5492ZM195.021 67.4761C194.341 68.0879 193.99 68.8646 193.99 69.7728H195.058C195.058 69.1725 195.276 68.6825 195.735 68.2695L195.021 67.4761ZM125.095 97.9729L124.733 97.5807L124.73 97.583L125.095 97.9729ZM133.357 97.9729L132.992 98.3627L132.995 98.365L133.357 97.9729ZM133.357 110.483L132.995 110.091L132.992 110.093L133.357 110.483ZM125.095 110.483L124.73 110.873L124.733 110.875L125.095 110.483ZM127.08 108.604L126.718 108.996L126.728 109.005L127.08 108.604ZM131.393 108.604L131.745 109.005L131.75 109.001L131.755 108.996L131.393 108.604ZM131.393 99.8728L131.03 100.265L131.041 100.274L131.393 99.8728ZM127.08 99.8728L127.437 100.27L127.443 100.265L127.08 99.8728ZM123.985 106.64V101.816H122.917V106.64H123.985ZM123.985 101.816C123.985 100.422 124.475 99.2837 125.459 98.3627L124.73 97.583C123.524 98.7114 122.917 100.135 122.917 101.816H123.985ZM125.457 98.365C126.459 97.4401 127.706 96.9695 129.237 96.9695V95.9021C127.465 95.9021 125.951 96.4562 124.733 97.5807L125.457 98.365ZM129.237 96.9695C130.767 96.9695 132.005 97.44 132.992 98.3627L133.721 97.583C132.516 96.4562 131.008 95.9021 129.237 95.9021V96.9695ZM132.995 98.365C133.993 99.2867 134.488 100.424 134.488 101.816H135.556C135.556 100.132 134.94 98.7084 133.719 97.5807L132.995 98.365ZM134.488 101.816V106.64H135.556V101.816H134.488ZM134.488 106.64C134.488 108.031 133.993 109.169 132.995 110.091L133.719 110.875C134.94 109.747 135.556 108.323 135.556 106.64H134.488ZM132.992 110.093C132.005 111.016 130.767 111.486 129.237 111.486V112.554C131.008 112.554 132.516 111.999 133.721 110.873L132.992 110.093ZM129.237 111.486C127.706 111.486 126.459 111.016 125.457 110.091L124.733 110.875C125.951 112 127.465 112.554 129.237 112.554V111.486ZM125.459 110.093C124.475 109.172 123.985 108.034 123.985 106.64H122.917C122.917 108.321 123.524 109.744 124.73 110.873L125.459 110.093ZM125.693 101.773V106.683H126.76V101.773H125.693ZM125.693 106.683C125.693 107.591 126.043 108.372 126.718 108.996L127.443 108.212C126.979 107.784 126.76 107.284 126.76 106.683H125.693ZM126.728 109.005C127.419 109.612 128.267 109.906 129.237 109.906V108.839C128.498 108.839 127.909 108.621 127.432 108.203L126.728 109.005ZM129.237 109.906C130.206 109.906 131.054 109.612 131.745 109.005L131.041 108.203C130.564 108.621 129.975 108.839 129.237 108.839V109.906ZM131.755 108.996C132.439 108.362 132.802 107.584 132.802 106.683H131.734C131.734 107.262 131.514 107.764 131.03 108.213L131.755 108.996ZM132.802 106.683V101.773H131.734V106.683H132.802ZM132.802 101.773C132.802 100.86 132.44 100.082 131.745 99.4718L131.041 100.274C131.513 100.688 131.734 101.177 131.734 101.773H132.802ZM131.755 99.481C131.075 98.8521 130.222 98.5492 129.237 98.5492V99.6167C129.988 99.6167 130.572 99.8404 131.03 100.265L131.755 99.481ZM129.237 98.5492C128.251 98.5492 127.398 98.8521 126.718 99.481L127.443 100.265C127.901 99.8404 128.485 99.6167 129.237 99.6167V98.5492ZM126.723 99.4761C126.044 100.088 125.693 100.865 125.693 101.773H126.76C126.76 101.172 126.979 100.682 127.437 100.27L126.723 99.4761ZM146.117 100.15H146.651V99.29L145.88 99.6722L146.117 100.15ZM143.534 101.431L143.052 101.66L143.285 102.151L143.771 101.909L143.534 101.431ZM142.381 98.9976L142.145 98.5193L141.675 98.7521L141.899 99.226L142.381 98.9976ZM146.907 96.756V96.2223H146.782L146.67 96.2777L146.907 96.756ZM148.893 96.756H149.426V96.2223H148.893V96.756ZM148.893 111.7V112.233H149.426V111.7H148.893ZM146.117 111.7H145.584V112.233H146.117V111.7ZM145.88 99.6722L143.297 100.953L143.771 101.909L146.354 100.629L145.88 99.6722ZM144.017 101.203L142.864 98.7691L141.899 99.226L143.052 101.66L144.017 101.203ZM142.618 99.4758L147.144 97.2343L146.67 96.2777L142.145 98.5193L142.618 99.4758ZM146.907 97.2897H148.893V96.2223H146.907V97.2897ZM148.359 96.756V111.7H149.426V96.756H148.359ZM148.893 111.166H146.117V112.233H148.893V111.166ZM146.651 111.7V100.15H145.584V111.7H146.651ZM159.244 97.9729L158.882 97.5807L158.879 97.583L159.244 97.9729ZM167.505 97.9729L167.141 98.3627L167.143 98.365L167.505 97.9729ZM167.505 110.483L167.143 110.091L167.141 110.093L167.505 110.483ZM159.244 110.483L158.879 110.873L158.882 110.875L159.244 110.483ZM161.229 108.604L160.867 108.996L160.877 109.005L161.229 108.604ZM165.541 108.604L165.894 109.005L165.899 109.001L165.904 108.996L165.541 108.604ZM165.541 99.8728L165.179 100.265L165.189 100.274L165.541 99.8728ZM161.229 99.8728L161.586 100.27L161.591 100.265L161.229 99.8728ZM158.134 106.64V101.816H157.066V106.64H158.134ZM158.134 101.816C158.134 100.422 158.623 99.2837 159.608 98.3627L158.879 97.583C157.672 98.7114 157.066 100.135 157.066 101.816H158.134ZM159.606 98.365C160.608 97.4401 161.855 96.9695 163.385 96.9695V95.9021C161.614 95.9021 160.1 96.4562 158.882 97.5807L159.606 98.365ZM163.385 96.9695C164.916 96.9695 166.154 97.44 167.141 98.3627L167.87 97.583C166.665 96.4562 165.157 95.9021 163.385 95.9021V96.9695ZM167.143 98.365C168.142 99.2867 168.637 100.424 168.637 101.816H169.704C169.704 100.132 169.089 98.7084 167.867 97.5807L167.143 98.365ZM168.637 101.816V106.64H169.704V101.816H168.637ZM168.637 106.64C168.637 108.031 168.142 109.169 167.143 110.091L167.867 110.875C169.089 109.747 169.704 108.323 169.704 106.64H168.637ZM167.141 110.093C166.154 111.016 164.916 111.486 163.385 111.486V112.554C165.157 112.554 166.665 111.999 167.87 110.873L167.141 110.093ZM163.385 111.486C161.855 111.486 160.608 111.016 159.606 110.091L158.882 110.875C160.1 112 161.614 112.554 163.385 112.554V111.486ZM159.608 110.093C158.623 109.172 158.134 108.034 158.134 106.64H157.066C157.066 108.321 157.672 109.744 158.879 110.873L159.608 110.093ZM159.841 101.773V106.683H160.909V101.773H159.841ZM159.841 106.683C159.841 107.591 160.192 108.372 160.867 108.996L161.591 108.212C161.128 107.784 160.909 107.284 160.909 106.683H159.841ZM160.877 109.005C161.568 109.612 162.416 109.906 163.385 109.906V108.839C162.647 108.839 162.057 108.621 161.581 108.203L160.877 109.005ZM163.385 109.906C164.355 109.906 165.203 109.612 165.894 109.005L165.189 108.203C164.713 108.621 164.123 108.839 163.385 108.839V109.906ZM165.904 108.996C166.588 108.362 166.95 107.584 166.95 106.683H165.883C165.883 107.262 165.662 107.764 165.179 108.213L165.904 108.996ZM166.95 106.683V101.773H165.883V106.683H166.95ZM166.95 101.773C166.95 100.86 166.589 100.082 165.894 99.4718L165.189 100.274C165.661 100.688 165.883 101.177 165.883 101.773H166.95ZM165.904 99.481C165.224 98.8521 164.37 98.5492 163.385 98.5492V99.6167C164.136 99.6167 164.72 99.8404 165.179 100.265L165.904 99.481ZM163.385 98.5492C162.4 98.5492 161.547 98.8521 160.867 99.481L161.591 100.265C162.05 99.8404 162.634 99.6167 163.385 99.6167V98.5492ZM160.872 99.4761C160.192 100.088 159.841 100.865 159.841 101.773H160.909C160.909 101.172 161.127 100.682 161.586 100.27L160.872 99.4761ZM180.266 100.15H180.8V99.29L180.029 99.6722L180.266 100.15ZM177.683 101.431L177.201 101.66L177.433 102.151L177.92 101.909L177.683 101.431ZM176.53 98.9976L176.293 98.5193L175.823 98.7521L176.048 99.226L176.53 98.9976ZM181.056 96.756V96.2223H180.931L180.819 96.2777L181.056 96.756ZM183.041 96.756H183.575V96.2223H183.041V96.756ZM183.041 111.7V112.233H183.575V111.7H183.041ZM180.266 111.7H179.732V112.233H180.266V111.7ZM180.029 99.6722L177.446 100.953L177.92 101.909L180.503 100.629L180.029 99.6722ZM178.165 101.203L177.012 98.7691L176.048 99.226L177.201 101.66L178.165 101.203ZM176.767 99.4758L181.293 97.2343L180.819 96.2777L176.293 98.5193L176.767 99.4758ZM181.056 97.2897H183.041V96.2223H181.056V97.2897ZM182.508 96.756V111.7H183.575V96.756H182.508ZM183.041 111.166H180.266V112.233H183.041V111.166ZM180.8 111.7V100.15H179.732V111.7H180.8ZM193.392 97.9729L193.03 97.5807L193.028 97.583L193.392 97.9729ZM201.654 97.9729L201.29 98.3627L201.292 98.365L201.654 97.9729ZM201.654 110.483L201.292 110.091L201.29 110.093L201.654 110.483ZM193.392 110.483L193.028 110.873L193.03 110.875L193.392 110.483ZM195.378 108.604L195.015 108.996L195.026 109.005L195.378 108.604ZM199.69 108.604L200.042 109.005L200.048 109.001L200.053 108.996L199.69 108.604ZM199.69 99.8728L199.328 100.265L199.338 100.274L199.69 99.8728ZM195.378 99.8728L195.735 100.27L195.74 100.265L195.378 99.8728ZM192.282 106.64V101.816H191.215V106.64H192.282ZM192.282 101.816C192.282 100.422 192.772 99.2837 193.757 98.3627L193.028 97.583C191.821 98.7114 191.215 100.135 191.215 101.816H192.282ZM193.754 98.365C194.756 97.4401 196.004 96.9695 197.534 96.9695V95.9021C195.762 95.9021 194.249 96.4562 193.03 97.5807L193.754 98.365ZM197.534 96.9695C199.064 96.9695 200.303 97.44 201.29 98.3627L202.019 97.583C200.814 96.4562 199.305 95.9021 197.534 95.9021V96.9695ZM201.292 98.365C202.291 99.2867 202.786 100.424 202.786 101.816H203.853C203.853 100.132 203.238 98.7084 202.016 97.5807L201.292 98.365ZM202.786 101.816V106.64H203.853V101.816H202.786ZM202.786 106.64C202.786 108.031 202.291 109.169 201.292 110.091L202.016 110.875C203.238 109.747 203.853 108.323 203.853 106.64H202.786ZM201.29 110.093C200.303 111.016 199.064 111.486 197.534 111.486V112.554C199.305 112.554 200.814 111.999 202.019 110.873L201.29 110.093ZM197.534 111.486C196.004 111.486 194.756 111.016 193.754 110.091L193.03 110.875C194.249 112 195.762 112.554 197.534 112.554V111.486ZM193.757 110.093C192.772 109.172 192.282 108.034 192.282 106.64H191.215C191.215 108.321 191.821 109.744 193.028 110.873L193.757 110.093ZM193.99 101.773V106.683H195.058V101.773H193.99ZM193.99 106.683C193.99 107.591 194.34 108.372 195.015 108.996L195.74 108.212C195.277 107.784 195.058 107.284 195.058 106.683H193.99ZM195.026 109.005C195.716 109.612 196.564 109.906 197.534 109.906V108.839C196.796 108.839 196.206 108.621 195.73 108.203L195.026 109.005ZM197.534 109.906C198.504 109.906 199.351 109.612 200.042 109.005L199.338 108.203C198.862 108.621 198.272 108.839 197.534 108.839V109.906ZM200.053 108.996C200.736 108.362 201.099 107.584 201.099 106.683H200.032C200.032 107.262 199.811 107.764 199.327 108.213L200.053 108.996ZM201.099 106.683V101.773H200.032V106.683H201.099ZM201.099 101.773C201.099 100.86 200.737 100.082 200.042 99.4718L199.338 100.274C199.81 100.688 200.032 101.177 200.032 101.773H201.099ZM200.052 99.481C199.373 98.8521 198.519 98.5492 197.534 98.5492V99.6167C198.285 99.6167 198.869 99.8404 199.328 100.265L200.052 99.481ZM197.534 98.5492C196.549 98.5492 195.695 98.8521 195.015 99.481L195.74 100.265C196.199 99.8404 196.783 99.6167 197.534 99.6167V98.5492ZM195.021 99.4761C194.341 100.088 193.99 100.865 193.99 101.773H195.058C195.058 101.172 195.276 100.682 195.735 100.27L195.021 99.4761Z" fill="black"/>
<path d="M310.986 134.926L301.486 125.426" stroke="black"/>
<path d="M304.486 135.426L294.986 125.926" stroke="black"/>
<path d="M297.986 135.426L288.486 125.926" stroke="black"/>
<path d="M291.486 135.426L281.986 125.926" stroke="black"/>
<path d="M284.986 135.426L275.486 125.926" stroke="black"/>
<path d="M278.486 135.426L268.986 125.926" stroke="black"/>
<path d="M271.986 135.426L262.486 125.926" stroke="black"/>
<path d="M106.221 90.7219L77.2728 74.0088V107.435L106.221 90.7219Z" fill="#AB85FF"/>
<path d="M87.9082 90.7219L58.9603 74.0088V107.435L87.9082 90.7219Z" fill="#AB85FF"/>
<path d="M68.6094 90.7219L39.6614 74.0088V107.435L68.6094 90.7219Z" fill="#AB85FF"/>
<defs>
<clipPath id="clip0">
<rect width="127" height="89" fill="white" transform="translate(170.939 44.5737)"/>
</clipPath>
</defs>
</svg>
