<svg width="342" height="181" viewBox="0 0 342 181" fill="none" xmlns="http://www.w3.org/2000/svg">
<rect width="341" height="180" transform="matrix(-1 0 0 1 341.449 0.5)" fill="#F5F5F5"/>
<path d="M216.832 26.2305L289.578 139.48H144.086L216.832 26.2305Z" fill="#A57CFE"/>
<mask id="mask0" mask-type="alpha" maskUnits="userSpaceOnUse" x="144" y="26" width="146" height="114">
<path d="M216.832 26.2305L289.578 139.48H144.086L216.832 26.2305Z" fill="#A57CFE"/>
</mask>
<g mask="url(#mask0)">
<path d="M250.715 -30.168C292.493 32.1409 292.493 76.6473 250.715 103.351C208.937 130.055 208.937 174.561 250.715 236.87" stroke="#8052E4"/>
<path d="M170.708 -22.3628C233.552 25.4039 250.145 67.6038 220.488 104.237C190.831 140.87 207.424 183.07 270.268 230.837" stroke="#8052E4"/>
<path d="M198.33 -27.5337C234.234 37.3801 230.131 81.7489 186.02 105.573C141.909 129.396 137.806 173.765 173.71 238.679" stroke="#8052E4"/>
</g>
<circle r="11.1637" transform="matrix(-1 0 0 1 289.668 50.6969)" fill="#8052E4"/>
<circle r="7.5" transform="matrix(-1 0 0 1 281.668 59.7168)" stroke="black"/>
<rect x="-0.5" y="0.5" width="92.1425" height="5.84098" transform="matrix(-1 0 0 1 133.209 41.2148)" stroke="#31D67B"/>
<rect width="59.9901" height="6.84098" transform="matrix(-1 0 0 1 117.369 54.8965)" fill="#31D67B"/>
<rect width="59.9901" height="6.84098" transform="matrix(-1 0 0 1 117.369 81.7344)" fill="#31D67B"/>
<rect x="-0.5" y="0.5" width="92.1425" height="5.84098" transform="matrix(-1 0 0 1 133.209 68.0527)" stroke="#31D67B"/>
<rect x="-0.5" y="0.5" width="92.1425" height="5.84098" transform="matrix(-1 0 0 1 133.209 94.8906)" stroke="#31D67B"/>
<path d="M117.369 84.1024H141.576M141.576 84.1024L140.912 84.6286M141.576 84.1024L140.912 83.5762" stroke="black"/>
<path d="M117.369 58.8446L134.735 58.8446M134.735 58.8446L134.259 59.3708M134.735 58.8446L134.259 58.3184" stroke="black"/>
<circle cx="120.523" cy="122.533" r="1.375" fill="#D4D4D4"/>
<circle cx="126.273" cy="122.533" r="1.375" fill="#D4D4D4"/>
<circle cx="132.023" cy="122.533" r="1.375" fill="#D4D4D4"/>
<circle cx="137.523" cy="122.533" r="1.375" fill="#D4D4D4"/>
<circle cx="143.523" cy="122.533" r="1.375" fill="#D4D4D4"/>
<circle cx="149.273" cy="122.533" r="1.375" fill="#D4D4D4"/>
<circle cx="155.023" cy="122.533" r="1.375" fill="#D4D4D4"/>
<circle cx="160.773" cy="122.533" r="1.375" fill="#D4D4D4"/>
<circle cx="166.523" cy="122.533" r="1.375" fill="#D4D4D4"/>
<circle cx="120.523" cy="128.283" r="1.375" fill="#D4D4D4"/>
<circle cx="126.273" cy="128.283" r="1.375" fill="#D4D4D4"/>
<circle cx="120.523" cy="134.033" r="1.375" fill="#D4D4D4"/>
<circle cx="126.273" cy="134.033" r="1.375" fill="#D4D4D4"/>
<circle cx="132.023" cy="134.033" r="1.375" fill="#D4D4D4"/>
<circle cx="137.773" cy="134.033" r="1.375" fill="#D4D4D4"/>
<circle cx="143.523" cy="134.033" r="1.375" fill="#D4D4D4"/>
<circle cx="149.273" cy="134.033" r="1.375" fill="#D4D4D4"/>
<circle cx="155.023" cy="134.033" r="1.375" fill="#D4D4D4"/>
<circle cx="160.773" cy="134.033" r="1.375" fill="#D4D4D4"/>
<circle cx="166.523" cy="134.033" r="1.375" fill="#D4D4D4"/>
<circle cx="132.023" cy="128.283" r="1.375" fill="#D4D4D4"/>
<circle cx="137.523" cy="128.283" r="1.375" fill="#D4D4D4"/>
<circle cx="143.523" cy="128.283" r="1.375" fill="#D4D4D4"/>
<circle cx="149.273" cy="128.283" r="1.375" fill="#D4D4D4"/>
<circle cx="155.023" cy="128.283" r="1.375" fill="#D4D4D4"/>
<circle cx="160.773" cy="128.283" r="1.375" fill="#D4D4D4"/>
<circle cx="166.523" cy="128.283" r="1.375" fill="#D4D4D4"/>
<circle cx="120.523" cy="138.797" r="1.375" fill="#D4D4D4"/>
<circle cx="126.273" cy="138.797" r="1.375" fill="#D4D4D4"/>
<circle cx="132.023" cy="138.797" r="1.375" fill="#D4D4D4"/>
<circle cx="137.523" cy="138.797" r="1.375" fill="#D4D4D4"/>
<circle cx="143.523" cy="138.797" r="1.375" fill="#D4D4D4"/>
<circle cx="149.273" cy="138.797" r="1.375" fill="#D4D4D4"/>
<circle cx="155.023" cy="138.797" r="1.375" fill="#D4D4D4"/>
<circle cx="160.773" cy="138.797" r="1.375" fill="#D4D4D4"/>
<circle cx="166.523" cy="138.797" r="1.375" fill="#D4D4D4"/>
<circle cx="120.523" cy="144.547" r="1.375" fill="#D4D4D4"/>
<circle cx="126.273" cy="144.547" r="1.375" fill="#D4D4D4"/>
<circle cx="120.523" cy="150.297" r="1.375" fill="#D4D4D4"/>
<circle cx="126.273" cy="150.297" r="1.375" fill="#D4D4D4"/>
<circle cx="132.023" cy="150.297" r="1.375" fill="#D4D4D4"/>
<circle cx="137.773" cy="150.297" r="1.375" fill="#D4D4D4"/>
<circle cx="143.523" cy="150.297" r="1.375" fill="#D4D4D4"/>
<circle cx="149.273" cy="150.297" r="1.375" fill="#D4D4D4"/>
<circle cx="155.023" cy="150.297" r="1.375" fill="#D4D4D4"/>
<circle cx="160.773" cy="150.297" r="1.375" fill="#D4D4D4"/>
<circle cx="166.523" cy="150.297" r="1.375" fill="#D4D4D4"/>
<circle cx="132.023" cy="144.547" r="1.375" fill="#D4D4D4"/>
<circle cx="137.523" cy="144.547" r="1.375" fill="#D4D4D4"/>
<circle cx="143.523" cy="144.547" r="1.375" fill="#D4D4D4"/>
<circle cx="149.273" cy="144.547" r="1.375" fill="#D4D4D4"/>
<circle cx="155.023" cy="144.547" r="1.375" fill="#D4D4D4"/>
<circle cx="160.773" cy="144.547" r="1.375" fill="#D4D4D4"/>
<circle cx="166.523" cy="144.547" r="1.375" fill="#D4D4D4"/>
</svg>
