<svg width="341" height="180" viewBox="0 0 341 180" fill="none" xmlns="http://www.w3.org/2000/svg">
<rect width="341" height="180" fill="#F5F5F5"/>
<rect width="341" height="180" fill="#F5F5F5"/>
<rect width="341" height="180" fill="#F5F5F5"/>
<path d="M91 71H257.5" stroke="black"/>
<path d="M76 83H238" stroke="black"/>
<path d="M106 97L266 97" stroke="black"/>
<path d="M95 109.5L255 109.5" stroke="black"/>
<path d="M171 129C158.004 129 145.541 123.838 136.352 114.648C127.162 105.459 122 92.9956 122 80C122 67.0044 127.162 54.541 136.352 45.3518C145.541 36.1625 158.004 31 171 31V80L171 129Z" fill="#A57CFE"/>
<path d="M171 150C183.996 150 196.459 144.838 205.648 135.648C214.838 126.459 220 113.996 220 101C220 88.0044 214.838 75.541 205.648 66.3518C196.459 57.1625 183.996 52 171 52V101L171 150Z" fill="#31D67B"/>
<circle cx="115.375" cy="137.375" r="1.375" fill="#D4D4D4"/>
<circle cx="121.125" cy="137.375" r="1.375" fill="#D4D4D4"/>
<circle cx="126.875" cy="137.375" r="1.375" fill="#D4D4D4"/>
<circle cx="132.625" cy="137.375" r="1.375" fill="#D4D4D4"/>
<circle cx="138.375" cy="137.375" r="1.375" fill="#D4D4D4"/>
<circle cx="144.125" cy="137.375" r="1.375" fill="#D4D4D4"/>
<circle cx="149.875" cy="137.375" r="1.375" fill="#D4D4D4"/>
<circle cx="155.625" cy="137.375" r="1.375" fill="#D4D4D4"/>
<circle cx="161.375" cy="137.375" r="1.375" fill="#D4D4D4"/>
<circle cx="115.375" cy="143.125" r="1.375" fill="#D4D4D4"/>
<circle cx="121.125" cy="143.125" r="1.375" fill="#D4D4D4"/>
<circle cx="115.375" cy="148.875" r="1.375" fill="#D4D4D4"/>
<circle cx="121.125" cy="148.875" r="1.375" fill="#D4D4D4"/>
<circle cx="126.875" cy="148.875" r="1.375" fill="#D4D4D4"/>
<circle cx="132.625" cy="148.875" r="1.375" fill="#D4D4D4"/>
<circle cx="138.375" cy="148.875" r="1.375" fill="#D4D4D4"/>
<circle cx="144.125" cy="148.875" r="1.375" fill="#D4D4D4"/>
<circle cx="149.875" cy="148.875" r="1.375" fill="#D4D4D4"/>
<circle cx="155.625" cy="148.875" r="1.375" fill="#D4D4D4"/>
<circle cx="161.375" cy="148.875" r="1.375" fill="#D4D4D4"/>
<circle cx="126.875" cy="143.125" r="1.375" fill="#D4D4D4"/>
<circle cx="132.625" cy="143.125" r="1.375" fill="#D4D4D4"/>
<circle cx="138.375" cy="143.125" r="1.375" fill="#D4D4D4"/>
<circle cx="144.125" cy="143.125" r="1.375" fill="#D4D4D4"/>
<circle cx="149.875" cy="143.125" r="1.375" fill="#D4D4D4"/>
<circle cx="155.625" cy="143.125" r="1.375" fill="#D4D4D4"/>
<circle cx="161.375" cy="143.125" r="1.375" fill="#D4D4D4"/>
<circle cx="115.375" cy="137.375" r="1.375" fill="#D4D4D4"/>
<circle cx="121.125" cy="137.375" r="1.375" fill="#D4D4D4"/>
<circle cx="126.875" cy="137.375" r="1.375" fill="#D4D4D4"/>
<circle cx="132.625" cy="137.375" r="1.375" fill="#D4D4D4"/>
<circle cx="138.375" cy="137.375" r="1.375" fill="#D4D4D4"/>
<circle cx="144.125" cy="137.375" r="1.375" fill="#D4D4D4"/>
<circle cx="149.875" cy="137.375" r="1.375" fill="#D4D4D4"/>
<circle cx="155.625" cy="137.375" r="1.375" fill="#D4D4D4"/>
<circle cx="161.375" cy="137.375" r="1.375" fill="#D4D4D4"/>
<circle cx="115.375" cy="143.125" r="1.375" fill="#D4D4D4"/>
<circle cx="121.125" cy="143.125" r="1.375" fill="#D4D4D4"/>
<circle cx="115.375" cy="148.875" r="1.375" fill="#D4D4D4"/>
<circle cx="121.125" cy="148.875" r="1.375" fill="#D4D4D4"/>
<circle cx="126.875" cy="148.875" r="1.375" fill="#D4D4D4"/>
<circle cx="132.625" cy="148.875" r="1.375" fill="#D4D4D4"/>
<circle cx="138.375" cy="148.875" r="1.375" fill="#D4D4D4"/>
<circle cx="144.125" cy="148.875" r="1.375" fill="#D4D4D4"/>
<circle cx="149.875" cy="148.875" r="1.375" fill="#D4D4D4"/>
<circle cx="155.625" cy="148.875" r="1.375" fill="#D4D4D4"/>
<circle cx="161.375" cy="148.875" r="1.375" fill="#D4D4D4"/>
<circle cx="126.875" cy="143.125" r="1.375" fill="#D4D4D4"/>
<circle cx="132.625" cy="143.125" r="1.375" fill="#D4D4D4"/>
<circle cx="138.375" cy="143.125" r="1.375" fill="#D4D4D4"/>
<circle cx="144.125" cy="143.125" r="1.375" fill="#D4D4D4"/>
<circle cx="149.875" cy="143.125" r="1.375" fill="#D4D4D4"/>
<circle cx="155.625" cy="143.125" r="1.375" fill="#D4D4D4"/>
<circle cx="161.375" cy="143.125" r="1.375" fill="#D4D4D4"/>
<circle cx="204.5" cy="41.5" r="7.5" fill="#8052E4"/>
</svg>
