<svg width="341" height="180" viewBox="0 0 341 180" fill="none" xmlns="http://www.w3.org/2000/svg">
<rect width="341" height="180" fill="#F5F5F5"/>
<rect x="54.1006" y="42.1924" width="157.296" height="30.2721" fill="#4AE991"/>
<rect x="133.04" y="89.5049" width="99.9788" height="19.2412" fill="#31D67B"/>
<rect x="133.04" y="89.5049" width="99.9788" height="19.2412" fill="#31D67B"/>
<rect x="211.397" y="124.698" width="71.321" height="13.7259" fill="#31D67B"/>
<rect x="211.397" y="124.698" width="71.321" height="13.7259" fill="#2CB66A"/>
<path d="M187.723 113.246L178.223 103.746" stroke="black"/>
<path d="M181.223 113.746L171.723 104.246" stroke="black"/>
<path d="M174.723 113.746L165.223 104.246" stroke="black"/>
<path d="M168.223 113.746L158.723 104.246" stroke="black"/>
<path d="M161.723 113.746L152.223 104.246" stroke="black"/>
<path d="M155.223 113.746L145.723 104.246" stroke="black"/>
<path d="M148.723 113.746L139.223 104.246" stroke="black"/>
<path d="M279.759 108.496C279.759 105.356 278.512 102.345 276.291 100.124C274.071 97.9037 271.059 96.6563 267.919 96.6563C264.779 96.6562 261.767 97.9037 259.547 100.124C257.327 102.345 256.079 105.356 256.079 108.496L267.919 108.496H279.759Z" fill="#D4D4D4"/>
<path d="M262.281 108.496C262.281 106.403 261.479 104.395 260.051 102.915C258.624 101.435 256.688 100.603 254.669 100.603C252.65 100.603 250.714 101.435 249.287 102.915C247.86 104.395 247.058 106.403 247.058 108.496L254.669 108.496H262.281Z" fill="#D4D4D4"/>
<path d="M296.109 108.496C296.109 106.403 294.95 104.395 292.889 102.915C290.827 101.435 288.03 100.603 285.114 100.603C282.199 100.603 279.402 101.435 277.34 102.915C275.278 104.395 274.12 106.403 274.12 108.496L285.114 108.496H296.109Z" fill="#D4D4D4"/>
<path d="M102.414 134.671C102.414 127.601 99.606 120.822 94.6074 115.823C89.6087 110.824 82.829 108.016 75.7599 108.016C68.6907 108.016 61.911 110.824 56.9124 115.823C51.9137 120.822 49.1055 127.601 49.1055 134.67L75.7599 134.671H102.414Z" fill="#AB85FF"/>
<path d="M63.0668 134.67C63.0668 129.958 61.2615 125.438 58.0481 122.105C54.8347 118.773 50.4763 116.901 45.9318 116.901C41.3874 116.901 37.029 118.773 33.8156 122.105C30.6022 125.438 28.7969 129.958 28.7969 134.67L45.9318 134.67H63.0668Z" fill="#AB85FF"/>
<path d="M139.223 134.67C139.223 129.958 136.615 125.438 131.973 122.105C127.332 118.773 121.036 116.901 114.472 116.901C107.908 116.901 101.613 118.773 96.9709 122.105C92.3293 125.438 89.7217 129.958 89.7217 134.67L114.472 134.67H139.223Z" fill="#AB85FF"/>
<path d="M229.871 33.9353C229.871 29.888 228.263 26.0064 225.401 23.1445C222.539 20.2826 218.657 18.6748 214.61 18.6748C210.563 18.6748 206.681 20.2826 203.819 23.1445C200.957 26.0064 199.35 29.888 199.35 33.9353L214.61 33.9353H229.871Z" fill="#8052E4"/>
<path d="M207.343 33.9354C207.343 31.2372 206.31 28.6495 204.47 26.7415C202.63 24.8336 200.135 23.7617 197.533 23.7617C194.931 23.7617 192.436 24.8336 190.596 26.7415C188.756 28.6495 187.723 31.2372 187.723 33.9354L197.533 33.9354H207.343Z" fill="#8052E4"/>
<path d="M250.944 33.9354C250.944 31.2372 249.451 28.6495 246.794 26.7415C244.137 24.8336 240.532 23.7617 236.774 23.7617C233.016 23.7617 229.411 24.8336 226.754 26.7415C224.096 28.6495 222.604 31.2372 222.604 33.9354L236.774 33.9354H250.944Z" fill="#8052E4"/>
<path d="M58.21 53.6769L87.9358 53.6769M87.9358 53.6769L87.1214 53.236M87.9358 53.6769L87.1214 54.1177" stroke="black" stroke-width="1.97979"/>
<path d="M58.21 61.0012L99.7446 61.0012M99.7446 61.0012L98.6067 60.5444M99.7446 61.0012L98.6067 61.458" stroke="black" stroke-width="1.97979"/>
<path d="M58.21 46.384L76.9413 46.384M76.9413 46.384L76.4281 45.9272M76.9413 46.384L76.4281 46.8408" stroke="black" stroke-width="1.97979"/>
<path d="M58.21 68.3103H71.6477M71.6477 68.3103L71.2795 67.8535M71.6477 68.3103L71.2795 68.7671" stroke="black" stroke-width="1.97979"/>
<circle cx="53.0157" cy="57.3471" r="14.1272" transform="rotate(90 53.0157 57.3471)" fill="#F5F5F5" stroke="black" stroke-width="1.97979"/>
</svg>
