<svg width="342" height="181" viewBox="0 0 342 181" fill="none" xmlns="http://www.w3.org/2000/svg">
<rect width="341" height="180" transform="translate(0.0410156 0.5)" fill="#F5F5F5"/>
<path d="M240.765 35.9609L298.97 126.574H182.559L240.765 35.9609Z" fill="#A57CFE"/>
<path d="M264.982 126.221V53.2207M264.982 53.2207L264.017 55.2207M264.982 53.2207L265.947 55.2207" stroke="black"/>
<path d="M281.017 126.221V24.2207M281.017 24.2207L280.017 27.0152M281.017 24.2207L282.017 27.0152" stroke="black"/>
<path d="M249.017 126.221V80.2207M249.017 80.2207L248.017 81.481M249.017 80.2207L250.017 81.481" stroke="black"/>
<path d="M297.017 126.221V93.2207M297.017 93.2207L296.017 94.1248M297.017 93.2207L298.017 94.1248" stroke="black"/>
<path d="M107.055 82.7591V75.9791C107.055 73.8191 107.825 72.0191 109.365 70.5791C110.925 69.1391 112.865 68.4191 115.185 68.4191C117.505 68.4191 119.435 69.1391 120.975 70.5791C122.535 72.0191 123.315 73.8191 123.315 75.9791V82.7591C123.315 84.9191 122.535 86.7191 120.975 88.1591C119.435 89.5991 117.505 90.3191 115.185 90.3191C112.865 90.3191 110.925 89.5991 109.365 88.1591C107.825 86.7191 107.055 84.9191 107.055 82.7591ZM110.955 75.9191V82.8191C110.955 83.8791 111.355 84.7791 112.155 85.5191C112.975 86.2391 113.985 86.5991 115.185 86.5991C116.385 86.5991 117.395 86.2391 118.215 85.5191C119.035 84.7591 119.445 83.8591 119.445 82.8191V75.9191C119.445 74.8591 119.035 73.9691 118.215 73.2491C117.415 72.5091 116.405 72.1391 115.185 72.1391C113.965 72.1391 112.955 72.5091 112.155 73.2491C111.355 73.9691 110.955 74.8591 110.955 75.9191ZM137.173 73.6391L133.543 75.4391L131.923 72.0191L138.283 68.8691H141.073V89.8691H137.173V73.6391ZM162.164 74.9891C162.164 74.2091 161.824 73.5391 161.144 72.9791C160.504 72.4191 159.714 72.1391 158.774 72.1391C157.874 72.1391 157.064 72.4191 156.344 72.9791C155.644 73.5191 155.114 74.2591 154.754 75.1991L151.154 73.4891C151.834 71.9291 152.854 70.6991 154.214 69.7991C155.574 68.8791 157.094 68.4191 158.774 68.4191C160.874 68.4191 162.624 69.0491 164.024 70.3091C165.464 71.5691 166.184 73.0891 166.184 74.8691C166.184 75.9491 165.824 77.0791 165.104 78.2591C164.384 79.4191 163.244 80.7491 161.684 82.2491L157.574 86.1491H166.364V89.8691H151.574V86.9591L159.284 79.6091C161.204 77.7491 162.164 76.2091 162.164 74.9891ZM185.537 74.7191C185.537 73.9991 185.197 73.3891 184.517 72.8891C183.837 72.3891 182.967 72.1391 181.907 72.1391C181.047 72.1391 180.287 72.3191 179.627 72.6791C178.987 73.0191 178.517 73.4691 178.217 74.0291L174.677 72.3491C175.297 71.1491 176.257 70.1991 177.557 69.4991C178.857 68.7791 180.317 68.4191 181.937 68.4191C184.117 68.4191 185.937 69.0091 187.397 70.1891C188.837 71.3491 189.557 72.8191 189.557 74.5991C189.557 76.3391 188.807 77.7991 187.307 78.9791C189.167 80.1791 190.097 81.8091 190.097 83.8691C190.097 85.7291 189.337 87.2691 187.817 88.4891C186.297 89.7091 184.407 90.3191 182.147 90.3191C180.287 90.3191 178.657 89.8891 177.257 89.0291C175.857 88.1491 174.907 87.0091 174.407 85.6091L178.157 84.2891C178.377 84.9691 178.847 85.5291 179.567 85.9691C180.287 86.3891 181.137 86.5991 182.117 86.5991C183.237 86.5991 184.177 86.3291 184.937 85.7891C185.697 85.2291 186.077 84.5291 186.077 83.6891C186.077 82.8891 185.697 82.2291 184.937 81.7091C184.197 81.1691 183.287 80.8991 182.207 80.8991H180.617V77.3891H181.697C182.777 77.3891 183.687 77.1391 184.427 76.6391C185.167 76.1391 185.537 75.4991 185.537 74.7191ZM209.175 89.8691V85.8491H198.285V82.1291L209.355 68.8691H213.045V82.1291H215.715V85.8491H213.045V89.8691H209.175ZM209.175 74.6591L202.935 82.1291H209.175V74.6591ZM239.492 83.1791C239.492 85.1991 238.722 86.8991 237.182 88.2791C235.642 89.6391 233.732 90.3191 231.452 90.3191C229.612 90.3191 227.992 89.8391 226.592 88.8791C225.192 87.8991 224.192 86.5891 223.592 84.9491L227.462 83.8991C227.802 84.7391 228.332 85.3991 229.052 85.8791C229.772 86.3591 230.582 86.5991 231.482 86.5991C232.622 86.5991 233.562 86.2691 234.302 85.6091C235.082 84.9491 235.472 84.1391 235.472 83.1791C235.472 82.1391 235.042 81.2791 234.182 80.5991C233.362 79.9191 232.312 79.5791 231.032 79.5791H225.182L226.262 68.8691H237.692V72.4391H229.472L229.142 76.0391H231.242C233.582 76.0391 235.542 76.7191 237.122 78.0791C238.702 79.4191 239.492 81.1191 239.492 83.1791Z" fill="#31D67B"/>
<path d="M109.365 70.5791L108.687 69.8443L108.682 69.8487L109.365 70.5791ZM120.975 70.5791L120.292 71.3096L120.297 71.3139L120.975 70.5791ZM120.975 88.1591L120.297 87.4243L120.292 87.4287L120.975 88.1591ZM109.365 88.1591L108.682 88.8896L108.687 88.8939L109.365 88.1591ZM112.155 85.5191L111.476 86.2532L111.485 86.262L111.495 86.2706L112.155 85.5191ZM118.215 85.5191L118.875 86.2706L118.885 86.2617L118.895 86.2526L118.215 85.5191ZM118.215 73.2491L117.536 73.9832L117.545 73.992L117.555 74.0006L118.215 73.2491ZM112.155 73.2491L112.824 73.9925L112.834 73.9832L112.155 73.2491ZM108.055 82.7591V75.9791H106.055V82.7591H108.055ZM108.055 75.9791C108.055 74.0883 108.716 72.5553 110.048 71.3096L108.682 69.8487C106.934 71.483 106.055 73.55 106.055 75.9791H108.055ZM110.043 71.3139C111.401 70.0609 113.091 69.4191 115.185 69.4191V67.4191C112.639 67.4191 110.449 68.2174 108.687 69.8443L110.043 71.3139ZM115.185 69.4191C117.279 69.4191 118.956 70.0608 120.292 71.3096L121.658 69.8487C119.913 68.2175 117.731 67.4191 115.185 67.4191V69.4191ZM120.297 71.3139C121.648 72.5609 122.315 74.0927 122.315 75.9791H124.315C124.315 73.5456 123.422 71.4774 121.653 69.8443L120.297 71.3139ZM122.315 75.9791V82.7591H124.315V75.9791H122.315ZM122.315 82.7591C122.315 84.6456 121.648 86.1774 120.297 87.4243L121.653 88.8939C123.422 87.2609 124.315 85.1927 124.315 82.7591H122.315ZM120.292 87.4287C118.956 88.6775 117.279 89.3191 115.185 89.3191V91.3191C117.731 91.3191 119.913 90.5208 121.658 88.8896L120.292 87.4287ZM115.185 89.3191C113.091 89.3191 111.401 88.6774 110.043 87.4243L108.687 88.8939C110.449 90.5209 112.639 91.3191 115.185 91.3191V89.3191ZM110.048 87.4287C108.716 86.183 108.055 84.65 108.055 82.7591H106.055C106.055 85.1883 106.934 87.2553 108.682 88.8896L110.048 87.4287ZM109.955 75.9191V82.8191H111.955V75.9191H109.955ZM109.955 82.8191C109.955 84.1666 110.478 85.33 111.476 86.2532L112.834 84.785C112.232 84.2283 111.955 83.5917 111.955 82.8191H109.955ZM111.495 86.2706C112.516 87.1672 113.768 87.5991 115.185 87.5991V85.5991C114.202 85.5991 113.434 85.3111 112.815 84.7677L111.495 86.2706ZM115.185 87.5991C116.602 87.5991 117.854 87.1672 118.875 86.2706L117.555 84.7677C116.936 85.3111 116.168 85.5991 115.185 85.5991V87.5991ZM118.895 86.2526C119.902 85.3192 120.445 84.1601 120.445 82.8191H118.445C118.445 83.5582 118.168 84.1991 117.535 84.7857L118.895 86.2526ZM120.445 82.8191V75.9191H118.445V82.8191H120.445ZM120.445 75.9191C120.445 74.5618 119.904 73.4012 118.875 72.4977L117.555 74.0006C118.166 74.5371 118.445 75.1565 118.445 75.9191H120.445ZM118.894 72.515C117.887 71.5832 116.624 71.1391 115.185 71.1391V73.1391C116.186 73.1391 116.943 73.435 117.536 73.9832L118.894 72.515ZM115.185 71.1391C113.746 71.1391 112.483 71.5832 111.476 72.515L112.834 73.9832C113.427 73.435 114.184 73.1391 115.185 73.1391V71.1391ZM111.486 72.5058C110.479 73.4122 109.955 74.5707 109.955 75.9191H111.955C111.955 75.1476 112.231 74.5261 112.824 73.9924L111.486 72.5058ZM137.173 73.6391H138.173V72.0271L136.729 72.7432L137.173 73.6391ZM133.543 75.4391L132.639 75.8672L133.075 76.7873L133.987 76.335L133.543 75.4391ZM131.923 72.0191L131.479 71.123L130.598 71.5592L131.019 72.4472L131.923 72.0191ZM138.283 68.8691V67.8691H138.049L137.839 67.973L138.283 68.8691ZM141.073 68.8691H142.073V67.8691H141.073V68.8691ZM141.073 89.8691V90.8691H142.073V89.8691H141.073ZM137.173 89.8691H136.173V90.8691H137.173V89.8691ZM136.729 72.7432L133.099 74.5432L133.987 76.335L137.617 74.535L136.729 72.7432ZM134.447 75.0111L132.827 71.5911L131.019 72.4472L132.639 75.8672L134.447 75.0111ZM132.367 72.9153L138.727 69.7653L137.839 67.973L131.479 71.123L132.367 72.9153ZM138.283 69.8691H141.073V67.8691H138.283V69.8691ZM140.073 68.8691V89.8691H142.073V68.8691H140.073ZM141.073 88.8691H137.173V90.8691H141.073V88.8691ZM138.173 89.8691V73.6391H136.173V89.8691H138.173ZM161.144 72.9791L160.486 73.7317L160.497 73.7416L160.509 73.7511L161.144 72.9791ZM156.344 72.9791L156.955 73.7709L156.958 73.7685L156.344 72.9791ZM154.754 75.1991L154.325 76.1024L155.302 76.5662L155.688 75.5568L154.754 75.1991ZM151.154 73.4891L150.238 73.0896L149.851 73.977L150.725 74.3924L151.154 73.4891ZM154.214 69.7991L154.766 70.6331L154.775 70.6274L154.214 69.7991ZM164.024 70.3091L163.355 71.0525L163.366 71.0617L164.024 70.3091ZM165.104 78.2591L165.954 78.7865L165.958 78.78L165.104 78.2591ZM161.684 82.2491L162.373 82.9746L162.378 82.97L161.684 82.2491ZM157.574 86.1491L156.886 85.4237L155.068 87.1491H157.574V86.1491ZM166.364 86.1491H167.364V85.1491H166.364V86.1491ZM166.364 89.8691V90.8691H167.364V89.8691H166.364ZM151.574 89.8691H150.574V90.8691H151.574V89.8691ZM151.574 86.9591L150.884 86.2353L150.574 86.5309V86.9591H151.574ZM159.284 79.6091L159.974 80.333L159.98 80.3274L159.284 79.6091ZM163.164 74.9891C163.164 73.8694 162.657 72.9295 161.78 72.2072L160.509 73.7511C160.992 74.1488 161.164 74.5489 161.164 74.9891H163.164ZM161.803 72.2266C160.961 71.4899 159.929 71.1391 158.774 71.1391V73.1391C159.5 73.1391 160.048 73.3484 160.486 73.7317L161.803 72.2266ZM158.774 71.1391C157.649 71.1391 156.623 71.4953 155.73 72.1898L156.958 73.7685C157.505 73.343 158.1 73.1391 158.774 73.1391V71.1391ZM155.734 72.1874C154.869 72.8545 154.237 73.7542 153.821 74.8415L155.688 75.5568C155.992 74.7641 156.42 74.1837 156.955 73.7709L155.734 72.1874ZM155.183 74.2959L151.583 72.5859L150.725 74.3924L154.325 76.1024L155.183 74.2959ZM152.071 73.8887C152.678 72.4976 153.574 71.4218 154.766 70.6331L153.663 68.9652C152.134 69.9765 150.991 71.3607 150.238 73.0896L152.071 73.8887ZM154.775 70.6274C155.965 69.8221 157.289 69.4191 158.774 69.4191V67.4191C156.9 67.4191 155.184 67.9362 153.654 68.9709L154.775 70.6274ZM158.774 69.4191C160.658 69.4191 162.161 69.9771 163.355 71.0524L164.693 69.5658C163.088 68.1212 161.091 67.4191 158.774 67.4191V69.4191ZM163.366 71.0617C164.607 72.1479 165.184 73.4011 165.184 74.8691H167.184C167.184 72.7772 166.322 70.9904 164.683 69.5566L163.366 71.0617ZM165.184 74.8691C165.184 75.7205 164.901 76.6719 164.251 77.7383L165.958 78.78C166.747 77.4864 167.184 76.1777 167.184 74.8691H165.184ZM164.255 77.7318C163.597 78.7923 162.522 80.0566 160.991 81.5283L162.378 82.97C163.967 81.4417 165.172 80.046 165.954 78.7865L164.255 77.7318ZM160.996 81.5237L156.886 85.4237L158.263 86.8745L162.373 82.9745L160.996 81.5237ZM157.574 87.1491H166.364V85.1491H157.574V87.1491ZM165.364 86.1491V89.8691H167.364V86.1491H165.364ZM166.364 88.8691H151.574V90.8691H166.364V88.8691ZM152.574 89.8691V86.9591H150.574V89.8691H152.574ZM152.264 87.6829L159.974 80.3329L158.594 78.8853L150.884 86.2353L152.264 87.6829ZM159.98 80.3274C160.974 79.3648 161.755 78.4514 162.293 77.5881C162.827 76.7318 163.164 75.8562 163.164 74.9891H161.164C161.164 75.3421 161.022 75.8465 160.596 76.5301C160.174 77.2069 159.515 77.9935 158.589 78.8909L159.98 80.3274ZM184.517 72.8891L185.109 72.0835V72.0835L184.517 72.8891ZM179.627 72.6791L180.096 73.5623L180.106 73.557L179.627 72.6791ZM178.217 74.0291L177.788 74.9326L178.648 75.3409L179.098 74.5014L178.217 74.0291ZM174.677 72.3491L173.788 71.8901L173.314 72.8091L174.248 73.2526L174.677 72.3491ZM177.557 69.4991L178.031 70.3797L178.041 70.3739L177.557 69.4991ZM187.397 70.1891L186.768 70.9669L186.769 70.9679L187.397 70.1891ZM187.307 78.9791L186.688 78.1932L185.587 79.0597L186.765 79.8194L187.307 78.9791ZM187.817 88.4891L187.191 87.7093L187.817 88.4891ZM177.257 89.0291L176.725 89.8758L176.733 89.8812L177.257 89.0291ZM174.407 85.6091L174.075 84.6659L173.127 84.9994L173.465 85.9455L174.407 85.6091ZM178.157 84.2891L179.108 83.9813L178.792 83.0052L177.825 83.3459L178.157 84.2891ZM179.567 85.9691L179.045 86.8224L179.054 86.8278L179.063 86.8329L179.567 85.9691ZM184.937 85.7891L185.516 86.6043L185.523 86.5993L185.53 86.5942L184.937 85.7891ZM184.937 81.7091L184.347 82.5169L184.36 82.5259L184.372 82.5344L184.937 81.7091ZM180.617 80.8991H179.617V81.8991H180.617V80.8991ZM180.617 77.3891V76.3891H179.617V77.3891H180.617ZM186.537 74.7191C186.537 73.6235 185.995 72.735 185.109 72.0835L183.924 73.6948C184.398 74.0433 184.537 74.3748 184.537 74.7191H186.537ZM185.109 72.0835C184.218 71.4281 183.125 71.1391 181.907 71.1391V73.1391C182.809 73.1391 183.456 73.3502 183.924 73.6948L185.109 72.0835ZM181.907 71.1391C180.904 71.1391 179.975 71.3502 179.148 71.8012L180.106 73.557C180.599 73.2881 181.19 73.1391 181.907 73.1391V71.1391ZM179.158 71.796C178.368 72.2156 177.742 72.7983 177.335 73.5569L179.098 74.5014C179.292 74.1399 179.606 73.8227 180.096 73.5623L179.158 71.796ZM178.646 73.1257L175.106 71.4457L174.248 73.2526L177.788 74.9326L178.646 73.1257ZM175.565 72.8082C176.084 71.8039 176.891 70.9934 178.031 70.3796L177.083 68.6187C175.623 69.4049 174.509 70.4944 173.788 71.8901L175.565 72.8082ZM178.041 70.3739C179.18 69.7433 180.471 69.4191 181.937 69.4191V67.4191C180.163 67.4191 178.534 67.815 177.072 68.6243L178.041 70.3739ZM181.937 69.4191C183.927 69.4191 185.514 69.9533 186.768 70.9669L188.025 69.4114C186.359 68.065 184.307 67.4191 181.937 67.4191V69.4191ZM186.769 70.9679C187.984 71.9466 188.557 73.1351 188.557 74.5991H190.557C190.557 72.5032 189.689 70.7517 188.024 69.4104L186.769 70.9679ZM188.557 74.5991C188.557 76 187.974 77.1818 186.688 78.1932L187.925 79.7651C189.639 78.4165 190.557 76.6783 190.557 74.5991H188.557ZM186.765 79.8194C188.365 80.8517 189.097 82.178 189.097 83.8691H191.097C191.097 81.4403 189.969 79.5066 187.849 78.1388L186.765 79.8194ZM189.097 83.8691C189.097 85.4095 188.487 86.6686 187.191 87.7093L188.443 89.269C190.186 87.8697 191.097 86.0487 191.097 83.8691H189.097ZM187.191 87.7093C185.876 88.7647 184.217 89.3191 182.147 89.3191V91.3191C184.596 91.3191 186.718 90.6536 188.443 89.269L187.191 87.7093ZM182.147 89.3191C180.447 89.3191 179.003 88.928 177.78 88.1771L176.733 89.8812C178.311 90.8502 180.127 91.3191 182.147 91.3191V89.3191ZM177.789 88.1825C176.556 87.4077 175.765 86.4378 175.349 85.2728L173.465 85.9455C174.049 87.5805 175.157 88.8906 176.725 89.8758L177.789 88.1825ZM174.739 86.5524L178.489 85.2324L177.825 83.3459L174.075 84.6659L174.739 86.5524ZM177.205 84.597C177.512 85.5441 178.16 86.2815 179.045 86.8224L180.088 85.1159C179.533 84.7768 179.242 84.3942 179.108 83.9813L177.205 84.597ZM179.063 86.8329C179.961 87.3567 180.991 87.5991 182.117 87.5991V85.5991C181.282 85.5991 180.613 85.4216 180.071 85.1054L179.063 86.8329ZM182.117 87.5991C183.402 87.5991 184.555 87.2871 185.516 86.6043L184.358 84.974C183.799 85.3712 183.072 85.5991 182.117 85.5991V87.5991ZM185.53 86.5942C186.509 85.8726 187.077 84.8896 187.077 83.6891H185.077C185.077 84.1687 184.884 84.5857 184.344 84.9841L185.53 86.5942ZM187.077 83.6891C187.077 82.5052 186.486 81.5576 185.501 80.8838L184.372 82.5344C184.907 82.9007 185.077 83.2731 185.077 83.6891H187.077ZM185.526 80.9014C184.586 80.2152 183.46 79.8991 182.207 79.8991V81.8991C183.114 81.8991 183.808 82.1231 184.347 82.5169L185.526 80.9014ZM182.207 79.8991H180.617V81.8991H182.207V79.8991ZM181.617 80.8991V77.3891H179.617V80.8991H181.617ZM180.617 78.3891H181.697V76.3891H180.617V78.3891ZM181.697 78.3891C182.934 78.3891 184.049 78.101 184.987 77.4677L183.867 75.8106C183.324 76.1773 182.62 76.3891 181.697 76.3891V78.3891ZM184.987 77.4677C185.955 76.8131 186.537 75.8836 186.537 74.7191H184.537C184.537 75.1146 184.378 75.4652 183.867 75.8106L184.987 77.4677ZM209.175 89.8691H208.175V90.8691H209.175V89.8691ZM209.175 85.8491H210.175V84.8491H209.175V85.8491ZM198.285 85.8491H197.285V86.8491H198.285V85.8491ZM198.285 82.1291L197.517 81.4883L197.285 81.7666V82.1291H198.285ZM209.355 68.8691V67.8691H208.887L208.587 68.2283L209.355 68.8691ZM213.045 68.8691H214.045V67.8691H213.045V68.8691ZM213.045 82.1291H212.045V83.1291H213.045V82.1291ZM215.715 82.1291H216.715V81.1291H215.715V82.1291ZM215.715 85.8491V86.8491H216.715V85.8491H215.715ZM213.045 85.8491V84.8491H212.045V85.8491H213.045ZM213.045 89.8691V90.8691H214.045V89.8691H213.045ZM209.175 74.6591H210.175V71.9022L208.407 74.018L209.175 74.6591ZM202.935 82.1291L202.167 81.488L200.797 83.1291H202.935V82.1291ZM209.175 82.1291V83.1291H210.175V82.1291H209.175ZM210.175 89.8691V85.8491H208.175V89.8691H210.175ZM209.175 84.8491H198.285V86.8491H209.175V84.8491ZM199.285 85.8491V82.1291H197.285V85.8491H199.285ZM199.053 82.77L210.123 69.51L208.587 68.2283L197.517 81.4883L199.053 82.77ZM209.355 69.8691H213.045V67.8691H209.355V69.8691ZM212.045 68.8691V82.1291H214.045V68.8691H212.045ZM213.045 83.1291H215.715V81.1291H213.045V83.1291ZM214.715 82.1291V85.8491H216.715V82.1291H214.715ZM215.715 84.8491H213.045V86.8491H215.715V84.8491ZM212.045 85.8491V89.8691H214.045V85.8491H212.045ZM213.045 88.8691H209.175V90.8691H213.045V88.8691ZM208.407 74.018L202.167 81.488L203.702 82.7702L209.942 75.3002L208.407 74.018ZM202.935 83.1291H209.175V81.1291H202.935V83.1291ZM210.175 82.1291V74.6591H208.175V82.1291H210.175ZM237.182 88.2791L237.843 89.0287L237.849 89.0239L237.182 88.2791ZM226.592 88.8791L226.018 89.6984L226.026 89.7039L226.592 88.8791ZM223.592 84.9491L223.33 83.984L222.278 84.2694L222.652 85.2927L223.592 84.9491ZM227.462 83.8991L228.388 83.5239L228.056 82.7018L227.2 82.934L227.462 83.8991ZM229.052 85.8791L228.497 86.7112L229.052 85.8791ZM234.302 85.6091L233.656 84.8458L233.646 84.8542L233.636 84.8628L234.302 85.6091ZM234.182 80.5991L233.543 81.3689L233.552 81.3763L233.561 81.3836L234.182 80.5991ZM225.182 79.5791L224.187 79.4788L224.076 80.5791H225.182V79.5791ZM226.262 68.8691V67.8691H225.357L225.267 68.7688L226.262 68.8691ZM237.692 68.8691H238.692V67.8691H237.692V68.8691ZM237.692 72.4391V73.4391H238.692V72.4391H237.692ZM229.472 72.4391V71.4391H228.559L228.476 72.3479L229.472 72.4391ZM229.142 76.0391L228.146 75.9479L228.046 77.0391H229.142V76.0391ZM237.122 78.0791L236.469 78.8371L236.475 78.8418L237.122 78.0791ZM238.492 83.1791C238.492 84.9073 237.848 86.339 236.514 87.5344L237.849 89.0239C239.595 87.4593 240.492 85.491 240.492 83.1791H238.492ZM236.52 87.5296C235.183 88.7101 233.517 89.3191 231.452 89.3191V91.3191C233.947 91.3191 236.1 90.5682 237.843 89.0287L236.52 87.5296ZM231.452 89.3191C229.796 89.3191 228.376 88.8906 227.157 88.0544L226.026 89.7039C227.607 90.7877 229.427 91.3191 231.452 91.3191V89.3191ZM227.165 88.0599C225.937 87.2 225.062 86.0578 224.531 84.6056L222.652 85.2927C223.321 87.1205 224.446 88.5983 226.018 89.6984L227.165 88.0599ZM223.853 85.9142L227.723 84.8642L227.2 82.934L223.33 83.984L223.853 85.9142ZM226.535 84.2743C226.946 85.2912 227.602 86.1143 228.497 86.7112L229.606 85.0471C229.062 84.684 228.657 84.187 228.388 83.5239L226.535 84.2743ZM228.497 86.7112C229.388 87.3053 230.392 87.5991 231.482 87.5991V85.5991C230.771 85.5991 230.155 85.413 229.606 85.0471L228.497 86.7112ZM231.482 87.5991C232.828 87.5991 234.017 87.2032 234.967 86.3554L233.636 84.8628C233.106 85.3351 232.415 85.5991 231.482 85.5991V87.5991ZM234.947 86.3725C235.936 85.5365 236.472 84.4542 236.472 83.1791H234.472C234.472 83.8241 234.228 84.3618 233.656 84.8458L234.947 86.3725ZM236.472 83.1791C236.472 81.8147 235.887 80.6725 234.802 79.8147L233.561 81.3836C234.196 81.8858 234.472 82.4636 234.472 83.1791H236.472ZM234.82 79.8294C233.786 78.9721 232.496 78.5791 231.032 78.5791V80.5791C232.127 80.5791 232.937 80.8662 233.543 81.3689L234.82 79.8294ZM231.032 78.5791H225.182V80.5791H231.032V78.5791ZM226.176 79.6795L227.256 68.9695L225.267 68.7688L224.187 79.4788L226.176 79.6795ZM226.262 69.8691H237.692V67.8691H226.262V69.8691ZM236.692 68.8691V72.4391H238.692V68.8691H236.692ZM237.692 71.4391H229.472V73.4391H237.692V71.4391ZM228.476 72.3479L228.146 75.9479L230.137 76.1304L230.467 72.5304L228.476 72.3479ZM229.142 77.0391H231.242V75.0391H229.142V77.0391ZM231.242 77.0391C233.373 77.0391 235.093 77.6525 236.469 78.837L237.774 77.3212C235.99 75.7858 233.79 75.0391 231.242 75.0391V77.0391ZM236.475 78.8418C237.832 79.993 238.492 81.4148 238.492 83.1791H240.492C240.492 80.8235 239.571 78.8452 237.768 77.3165L236.475 78.8418Z" fill="black"/>
<circle cx="49.2863" cy="43.1862" r="2.82092" fill="#31D67B"/>
<circle cx="60.5699" cy="43.1862" r="2.82092" fill="#31D67B"/>
<circle cx="71.8536" cy="43.1862" r="2.82092" fill="#31D67B"/>
<circle cx="83.1373" cy="43.1862" r="2.82092" fill="#31D67B"/>
<circle cx="49.2863" cy="54.4694" r="2.82092" fill="#31D67B"/>
<circle cx="60.5699" cy="54.4694" r="2.82092" fill="#31D67B"/>
<circle cx="71.8536" cy="54.4694" r="2.82092" fill="#31D67B"/>
<circle cx="83.1373" cy="54.4694" r="2.82092" fill="#31D67B"/>
<circle cx="83.1373" cy="65.7545" r="2.82092" fill="#31D67B"/>
<circle cx="71.8536" cy="65.7545" r="2.82092" fill="#31D67B"/>
<circle cx="60.5699" cy="65.7545" r="2.82092" fill="#31D67B"/>
<circle cx="49.2863" cy="65.7545" r="2.82092" fill="#31D67B"/>
<circle cx="49.2863" cy="65.3951" r="2.82092" fill="#31D67B"/>
<circle cx="60.5699" cy="65.3951" r="2.82092" fill="#31D67B"/>
<circle cx="71.8536" cy="65.3951" r="2.82092" fill="#31D67B"/>
<circle cx="83.1373" cy="65.3951" r="2.82092" fill="#31D67B"/>
<circle cx="49.2863" cy="76.6783" r="2.82092" fill="#31D67B"/>
<circle cx="60.5699" cy="76.6783" r="2.82092" fill="#31D67B"/>
<circle cx="71.8536" cy="76.6783" r="2.82092" fill="#31D67B"/>
<circle cx="83.1373" cy="76.6783" r="2.82092" fill="#31D67B"/>
<circle cx="83.1373" cy="87.9635" r="2.82092" fill="#31D67B"/>
<circle cx="71.8536" cy="87.9635" r="2.82092" fill="#31D67B"/>
<circle cx="60.5699" cy="87.9635" r="2.82092" fill="#31D67B"/>
<circle cx="49.2863" cy="87.9635" r="2.82092" fill="#31D67B"/>
<circle cx="49.2863" cy="87.6041" r="2.82092" fill="#31D67B"/>
<circle cx="60.5699" cy="87.6041" r="2.82092" fill="#31D67B"/>
<circle cx="71.8536" cy="87.6041" r="2.82092" fill="#31D67B"/>
<circle cx="83.1373" cy="87.6041" r="2.82092" fill="#31D67B"/>
<circle cx="49.2863" cy="98.8873" r="2.82092" fill="#31D67B"/>
<circle cx="60.5699" cy="98.8873" r="2.82092" fill="#31D67B"/>
<circle cx="71.8536" cy="98.8873" r="2.82092" fill="#31D67B"/>
<circle cx="83.1373" cy="98.8873" r="2.82092" fill="#31D67B"/>
<circle cx="83.1373" cy="110.172" r="2.82092" fill="#31D67B"/>
<circle cx="71.8536" cy="110.172" r="2.82092" fill="#31D67B"/>
<circle cx="60.5699" cy="110.172" r="2.82092" fill="#31D67B"/>
<circle cx="49.2863" cy="110.172" r="2.82092" fill="#31D67B"/>
<circle cx="49.2863" cy="109.813" r="2.82092" fill="#31D67B"/>
<circle cx="60.5699" cy="109.813" r="2.82092" fill="#31D67B"/>
<circle cx="71.8536" cy="109.813" r="2.82092" fill="#31D67B"/>
<circle cx="83.1373" cy="109.813" r="2.82092" fill="#31D67B"/>
<circle cx="49.2863" cy="121.096" r="2.82092" fill="#31D67B"/>
<circle cx="60.5699" cy="121.096" r="2.82092" fill="#31D67B"/>
<circle cx="71.8536" cy="121.096" r="2.82092" fill="#31D67B"/>
<circle cx="83.1373" cy="121.096" r="2.82092" fill="#31D67B"/>
<circle cx="83.1373" cy="132.381" r="2.82092" fill="#31D67B"/>
<circle cx="71.8536" cy="132.381" r="2.82092" fill="#31D67B"/>
<circle cx="60.5699" cy="132.381" r="2.82092" fill="#31D67B"/>
<circle cx="49.2863" cy="132.381" r="2.82092" fill="#31D67B"/>
<path d="M198.969 135.203C198.969 138.343 200.216 141.355 202.437 143.575C204.657 145.796 207.669 147.043 210.809 147.043C213.949 147.043 216.961 145.796 219.181 143.575C221.401 141.355 222.649 138.343 222.649 135.203L210.809 135.203H198.969Z" fill="#D4D4D4"/>
<path d="M216.447 135.202C216.447 137.296 217.249 139.303 218.676 140.784C220.104 142.264 222.04 143.096 224.058 143.096C226.077 143.096 228.013 142.264 229.441 140.784C230.868 139.303 231.67 137.296 231.67 135.202L224.058 135.202H216.447Z" fill="#D4D4D4"/>
<path d="M182.618 135.202C182.618 137.296 183.777 139.303 185.838 140.784C187.9 142.264 190.697 143.096 193.613 143.096C196.528 143.096 199.325 142.264 201.387 140.784C203.449 139.303 204.607 137.296 204.607 135.202L193.613 135.202H182.618Z" fill="#D4D4D4"/>
<rect x="-0.5" y="0.5" width="37" height="72" transform="matrix(-1 0 0 1 70.1072 48.6426)" stroke="black"/>
</svg>
