<svg width="342" height="181" viewBox="0 0 342 181" fill="none" xmlns="http://www.w3.org/2000/svg">
<rect width="341" height="180" transform="translate(0.449219 0.5)" fill="#F5F5F5"/>
<path d="M145.689 101.203L175.478 134.416" stroke="black" stroke-width="0.684791"/>
<path d="M148.771 101.203L178.56 134.416" stroke="black" stroke-width="0.684791"/>
<path d="M152.195 101.203L181.984 134.416" stroke="black" stroke-width="0.684791"/>
<path d="M155.619 101.203L185.408 134.416" stroke="black" stroke-width="0.684791"/>
<path d="M159.043 101.203L188.831 134.416" stroke="black" stroke-width="0.684791"/>
<path d="M162.467 101.203L192.255 134.416" stroke="black" stroke-width="0.684791"/>
<path d="M91.9312 29.9297H179.074V107.269H91.9312L75.9551 101.432V34.7938L91.9312 29.9297Z" fill="#A57CFE"/>
<path d="M91.9312 29.9297V107.269L75.9551 101.432V34.7938L91.9312 29.9297Z" fill="#8052E4"/>
<path d="M250.947 119.77V60.8387M250.947 60.8387L251.919 62.4532M250.947 60.8387L249.975 62.4532" stroke="black"/>
<path d="M234.793 119.77L234.793 37.4278M234.793 37.4278L235.8 39.6837M234.793 37.4278L233.785 39.6837" stroke="black"/>
<path d="M267.033 119.77V82.635M267.033 82.635L268.04 83.6524M267.033 82.635L266.025 83.6524" stroke="black"/>
<path d="M218.672 119.77V93.1296M218.672 93.1296L219.679 93.8594M218.672 93.1296L217.664 93.8594" stroke="black"/>
<path d="M268.562 103.236H214.664V151.07H268.562L278.443 147.46V106.245L268.562 103.236Z" fill="#4AE991"/>
<path d="M268.562 103.236V151.07L278.443 147.46V106.245L268.562 103.236Z" fill="#31D67B"/>
<circle r="2.5" transform="matrix(1 0 0 -1 65.9551 76.0996)" fill="black"/>
<circle r="2.5" transform="matrix(1 0 0 -1 75.9551 76.0996)" fill="black"/>
<circle r="2.5" transform="matrix(1 0 0 -1 85.9551 76.0996)" fill="black"/>
<circle r="2.5" transform="matrix(1 0 0 -1 95.9551 76.0996)" fill="black"/>
<circle r="2.5" transform="matrix(1 0 0 -1 65.9551 66.0996)" fill="black"/>
<circle r="2.5" transform="matrix(1 0 0 -1 75.9551 66.0996)" fill="black"/>
<circle r="2.5" transform="matrix(1 0 0 -1 85.9551 66.0996)" fill="black"/>
<circle r="2.5" transform="matrix(1 0 0 -1 95.9551 66.0996)" fill="black"/>
<circle r="2.5" transform="matrix(1 0 0 -1 95.9551 56.0996)" fill="black"/>
<circle r="2.5" transform="matrix(1 0 0 -1 85.9551 56.0996)" fill="black"/>
<circle r="2.5" transform="matrix(1 0 0 -1 75.9551 56.0996)" fill="black"/>
<circle r="2.5" transform="matrix(1 0 0 -1 65.9551 56.0996)" fill="black"/>
<path d="M124.615 127.154C124.615 131.201 123.007 135.082 120.145 137.944C117.283 140.806 113.402 142.414 109.354 142.414C105.307 142.414 101.425 140.806 98.5635 137.944C95.7015 135.082 94.0938 131.201 94.0938 127.154L109.354 127.154H124.615Z" fill="#D4D4D4"/>
<path d="M102.087 127.154C102.087 129.853 101.054 132.44 99.2141 134.348C97.3743 136.256 94.879 137.328 92.2771 137.328C89.6753 137.328 87.18 136.256 85.3402 134.348C83.5004 132.44 82.4668 129.853 82.4668 127.154L92.2771 127.154H102.087Z" fill="#D4D4D4"/>
<path d="M145.689 127.154C145.689 129.853 144.196 132.44 141.538 134.348C138.881 136.256 135.276 137.328 131.518 137.328C127.76 137.328 124.156 136.256 121.498 134.348C118.841 132.44 117.348 129.853 117.348 127.154L131.518 127.154H145.689Z" fill="#D4D4D4"/>
</svg>
