<svg width="342" height="181" viewBox="0 0 342 181" fill="none" xmlns="http://www.w3.org/2000/svg">
<rect width="341" height="180" transform="translate(0.0410156 0.5)" fill="#F5F5F5"/>
<path d="M85.7417 30.7111C72.2417 32.1008 46.4417 46.9697 45.2417 86.9909C45.2417 137.017 72.7417 150.219 86.2417 150.219C105.742 150.219 186.742 150.219 232.742 150.219" stroke="black"/>
<path d="M85.5381 30.7109H157.742" stroke="black"/>
<path d="M269.242 150.219C282.742 148.829 308.542 133.96 309.742 93.9388C309.742 43.9124 282.242 30.711 268.742 30.711C249.242 30.711 168.242 30.7109 122.242 30.7109" stroke="black"/>
<path d="M269.445 150.219H197.242" stroke="black"/>
<path d="M143.963 149.523V31.4062M143.963 149.523V31.4062" stroke="black"/>
<path d="M137.709 150.219V30.7119M137.709 150.219V30.7119" stroke="black"/>
<path d="M130.761 150.219V30.7119M130.761 150.219V30.7119" stroke="black"/>
<path d="M123.813 150.219V30.7119M123.813 150.219V30.7119" stroke="black"/>
<path d="M116.865 150.219V30.7119M116.865 150.219V30.7119" stroke="black"/>
<path d="M109.917 150.219V30.7119M109.917 150.219V30.7119" stroke="black"/>
<path d="M102.969 150.219V30.7119M102.969 150.219V30.7119" stroke="black"/>
<path d="M96.021 150.219V30.7119M96.021 150.219V30.7119" stroke="black"/>
<circle cx="74.7153" cy="78.1641" r="1.375" transform="rotate(-180 74.7153 78.1641)" fill="#D4D4D4"/>
<circle cx="68.9653" cy="78.1641" r="1.375" transform="rotate(-180 68.9653 78.1641)" fill="#D4D4D4"/>
<circle cx="63.2153" cy="78.1641" r="1.375" transform="rotate(-180 63.2153 78.1641)" fill="#D4D4D4"/>
<circle cx="57.7153" cy="78.1641" r="1.375" transform="rotate(-180 57.7153 78.1641)" fill="#D4D4D4"/>
<circle cx="51.7153" cy="78.1641" r="1.375" transform="rotate(-180 51.7153 78.1641)" fill="#D4D4D4"/>
<circle cx="45.9653" cy="78.1641" r="1.375" transform="rotate(-180 45.9653 78.1641)" fill="#D4D4D4"/>
<circle cx="40.2153" cy="78.1641" r="1.375" transform="rotate(-180 40.2153 78.1641)" fill="#D4D4D4"/>
<circle cx="34.4653" cy="78.1641" r="1.375" transform="rotate(-180 34.4653 78.1641)" fill="#D4D4D4"/>
<circle cx="28.7153" cy="78.1641" r="1.375" transform="rotate(-180 28.7153 78.1641)" fill="#D4D4D4"/>
<circle cx="74.7153" cy="72.4141" r="1.375" transform="rotate(-180 74.7153 72.4141)" fill="#D4D4D4"/>
<circle cx="68.9653" cy="72.4141" r="1.375" transform="rotate(-180 68.9653 72.4141)" fill="#D4D4D4"/>
<circle cx="74.7153" cy="66.6641" r="1.375" transform="rotate(-180 74.7153 66.6641)" fill="#D4D4D4"/>
<circle cx="68.9653" cy="66.6641" r="1.375" transform="rotate(-180 68.9653 66.6641)" fill="#D4D4D4"/>
<circle cx="63.2153" cy="66.6641" r="1.375" transform="rotate(-180 63.2153 66.6641)" fill="#D4D4D4"/>
<circle cx="57.4653" cy="66.6641" r="1.375" transform="rotate(-180 57.4653 66.6641)" fill="#D4D4D4"/>
<circle cx="51.7153" cy="66.6641" r="1.375" transform="rotate(-180 51.7153 66.6641)" fill="#D4D4D4"/>
<circle cx="45.9653" cy="66.6641" r="1.375" transform="rotate(-180 45.9653 66.6641)" fill="#D4D4D4"/>
<circle cx="40.2153" cy="66.6641" r="1.375" transform="rotate(-180 40.2153 66.6641)" fill="#D4D4D4"/>
<circle cx="34.4653" cy="66.6641" r="1.375" transform="rotate(-180 34.4653 66.6641)" fill="#D4D4D4"/>
<circle cx="28.7153" cy="66.6641" r="1.375" transform="rotate(-180 28.7153 66.6641)" fill="#D4D4D4"/>
<circle cx="63.2153" cy="72.4141" r="1.375" transform="rotate(-180 63.2153 72.4141)" fill="#D4D4D4"/>
<circle cx="57.7153" cy="72.4141" r="1.375" transform="rotate(-180 57.7153 72.4141)" fill="#D4D4D4"/>
<circle cx="51.7153" cy="72.4141" r="1.375" transform="rotate(-180 51.7153 72.4141)" fill="#D4D4D4"/>
<circle cx="45.9653" cy="72.4141" r="1.375" transform="rotate(-180 45.9653 72.4141)" fill="#D4D4D4"/>
<circle cx="40.2153" cy="72.4141" r="1.375" transform="rotate(-180 40.2153 72.4141)" fill="#D4D4D4"/>
<circle cx="34.4653" cy="72.4141" r="1.375" transform="rotate(-180 34.4653 72.4141)" fill="#D4D4D4"/>
<circle cx="28.7153" cy="72.4141" r="1.375" transform="rotate(-180 28.7153 72.4141)" fill="#D4D4D4"/>
<circle cx="256.242" cy="73.7908" r="33.6971" fill="#AB85FF"/>
<path d="M225.8 88.3096L264.436 70.8165M264.436 70.8165L263.146 70.785M264.436 70.8165L263.609 71.8065" stroke="black"/>
<path d="M228.586 93.0498L299.508 60.9393M299.508 60.9393L297.333 61.3082M299.508 60.9393L297.796 62.3298" stroke="black"/>
<path d="M230.91 95.8174L283.564 71.9777M283.564 71.9777L281.89 72.1201M283.564 71.9777L282.353 73.1416" stroke="black"/>
<rect width="9" height="34" transform="matrix(-1 0 0 1 205.041 116.289)" fill="#31D67B"/>
<rect width="9" height="59" transform="matrix(-1 0 0 1 188.041 91.2891)" fill="#31D67B"/>
<rect width="9" height="80" transform="matrix(-1 0 0 1 171.041 70.2891)" fill="#31D67B"/>
</svg>
