<svg width="341" height="180" viewBox="0 0 341 180" fill="none" xmlns="http://www.w3.org/2000/svg">
<rect width="341" height="180" fill="#F5F5F5"/>
<ellipse cx="240.022" cy="111.553" rx="64.6151" ry="25.0044" transform="rotate(-45 240.022 111.553)" fill="#6A41C4"/>
<ellipse cx="228.065" cy="99.6692" rx="64.6151" ry="25.0044" transform="rotate(-45 228.065 99.6692)" fill="#8052E4"/>
<path d="M204.494 92.3865L156.345 44.237M156.345 44.237L157.027 46.1927M156.345 44.237L158.3 44.9196" stroke="black"/>
<path d="M215.071 81.81L147.793 14.5325M147.793 14.5325L148.977 17.0353M147.793 14.5325L150.296 15.7162" stroke="black"/>
<path d="M193.964 102.917L163.624 72.5761M163.624 72.5761L163.795 74.0669M163.624 72.5761L165.114 72.7478" stroke="black"/>
<path d="M225.625 71.2567L203.858 49.4905M203.858 49.4905L203.795 50.7464M203.858 49.4905L205.114 49.4273" stroke="black"/>
<ellipse cx="215.479" cy="90.2615" rx="64.6151" ry="25.0044" transform="rotate(-45 215.479 90.2615)" fill="#AB85FF"/>
<path d="M88.9119 28.5688L137.235 103.956H40.5889L88.9119 28.5688Z" fill="#31D67B"/>
<path d="M93.8932 91.4487L93.8932 142.262M93.8932 142.262L94.4916 140.87M93.8932 142.262L93.2949 140.87" stroke="black"/>
<path d="M83.9121 91.4487L83.9121 130.449M83.9121 130.449L84.4121 129.38M83.9121 130.449L83.4121 129.38" stroke="black"/>
<path d="M103.792 91.4487V123.468M103.792 123.468L104.412 122.591M103.792 123.468L103.172 122.591" stroke="black"/>
<path d="M74.0321 91.4487V114.419M74.0321 114.419L74.6521 113.79M74.0321 114.419L73.4121 113.79" stroke="black"/>
</svg>
