<svg width="342" height="181" viewBox="0 0 342 181" fill="none" xmlns="http://www.w3.org/2000/svg">
<rect width="341" height="180" transform="translate(0.632812 0.5)" fill="#F5F5F5"/>
<path d="M83.4893 125.602C69.9893 124.602 44.1893 113.902 42.9893 85.1016C42.9893 49.1016 70.4893 39.6016 83.9893 39.6016C103.489 39.6016 195.547 39.6016 241.547 39.6016" stroke="black"/>
<path d="M83.2856 125.602H155.489" stroke="black"/>
<path d="M266.989 60.6016C280.489 61.6016 306.289 72.3015 307.489 101.102C307.489 137.102 279.989 146.602 266.489 146.602C246.989 146.602 165.989 146.602 119.989 146.602" stroke="black"/>
<path d="M267.193 60.6016H194.989" stroke="black"/>
<path d="M134.989 40.1016V125.102M134.989 40.1016V125.102" stroke="black"/>
<path d="M130.489 39.6016V125.602M130.489 39.6016V125.602" stroke="black"/>
<path d="M125.489 39.6016V125.602M125.489 39.6016V125.602" stroke="black"/>
<path d="M120.489 39.6016V125.602M120.489 39.6016V125.602" stroke="black"/>
<path d="M115.489 39.6016V125.602M115.489 39.6016V125.602" stroke="black"/>
<path d="M110.489 39.6016V125.602M110.489 39.6016V125.602" stroke="black"/>
<path d="M105.489 39.6016V125.602M105.489 39.6016V125.602" stroke="black"/>
<path d="M100.489 39.6016V125.602M100.489 39.6016V125.602" stroke="black"/>
<path d="M225.489 39.6016V60.6016" stroke="black"/>
<path d="M222.489 39.6016V60.6016" stroke="black"/>
<path d="M219.489 39.6016V60.6016" stroke="black"/>
<path d="M216.489 39.6016V60.6016" stroke="black"/>
<path d="M213.489 39.6016V60.6016" stroke="black"/>
<path d="M242.381 49.3555L231.007 31.6489L253.755 31.6489L242.381 49.3555Z" fill="#A57CFE"/>
<path d="M158.64 134.812L167.996 120.246H149.283L158.64 134.812Z" fill="#8052E4"/>
<circle cx="28.6831" cy="78.1133" r="1.375" fill="#D4D4D4"/>
<circle cx="34.4331" cy="78.1133" r="1.375" fill="#D4D4D4"/>
<circle cx="40.1831" cy="78.1133" r="1.375" fill="#D4D4D4"/>
<circle cx="45.6831" cy="78.1133" r="1.375" fill="#D4D4D4"/>
<circle cx="51.6831" cy="78.1133" r="1.375" fill="#D4D4D4"/>
<circle cx="57.4331" cy="78.1133" r="1.375" fill="#D4D4D4"/>
<circle cx="63.1831" cy="78.1133" r="1.375" fill="#D4D4D4"/>
<circle cx="68.9331" cy="78.1133" r="1.375" fill="#D4D4D4"/>
<circle cx="74.6831" cy="78.1133" r="1.375" fill="#D4D4D4"/>
<circle cx="28.6831" cy="83.8633" r="1.375" fill="#D4D4D4"/>
<circle cx="34.4331" cy="83.8633" r="1.375" fill="#D4D4D4"/>
<circle cx="28.6831" cy="89.6133" r="1.375" fill="#D4D4D4"/>
<circle cx="34.4331" cy="89.6133" r="1.375" fill="#D4D4D4"/>
<circle cx="40.1831" cy="89.6133" r="1.375" fill="#D4D4D4"/>
<circle cx="45.9331" cy="89.6133" r="1.375" fill="#D4D4D4"/>
<circle cx="51.6831" cy="89.6133" r="1.375" fill="#D4D4D4"/>
<circle cx="57.4331" cy="89.6133" r="1.375" fill="#D4D4D4"/>
<circle cx="63.1831" cy="89.6133" r="1.375" fill="#D4D4D4"/>
<circle cx="68.9331" cy="89.6133" r="1.375" fill="#D4D4D4"/>
<circle cx="74.6831" cy="89.6133" r="1.375" fill="#D4D4D4"/>
<circle cx="40.1831" cy="83.8633" r="1.375" fill="#D4D4D4"/>
<circle cx="45.6831" cy="83.8633" r="1.375" fill="#D4D4D4"/>
<circle cx="51.6831" cy="83.8633" r="1.375" fill="#D4D4D4"/>
<circle cx="57.4331" cy="83.8633" r="1.375" fill="#D4D4D4"/>
<circle cx="63.1831" cy="83.8633" r="1.375" fill="#D4D4D4"/>
<circle cx="68.9331" cy="83.8633" r="1.375" fill="#D4D4D4"/>
<circle cx="74.6831" cy="83.8633" r="1.375" fill="#D4D4D4"/>
<rect width="38.8608" height="34.908" transform="translate(184.923 82.6016)" fill="#31D67B"/>
<rect width="21.6724" height="34.908" transform="translate(226.773 82.6016)" fill="#31D67B"/>
<rect width="14.1992" height="34.908" transform="translate(251.435 82.6016)" fill="#31D67B"/>
<rect width="7.47324" height="34.908" transform="translate(268.623 82.6016)" fill="#31D67B"/>
<rect width="7.47324" height="34.908" transform="translate(279.086 82.6016)" fill="#31D67B"/>
<rect width="7.47324" height="34.908" transform="translate(289.548 82.6016)" fill="#31D67B"/>
<rect width="2.9893" height="34.908" transform="translate(300.011 82.6016)" fill="#31D67B"/>
<rect width="2.9893" height="34.908" transform="translate(305.99 82.6016)" fill="#31D67B"/>
<rect width="2.9893" height="34.908" transform="translate(311.968 82.6016)" fill="#31D67B"/>
</svg>
