<svg width="341" height="181" viewBox="0 0 341 181" fill="none" xmlns="http://www.w3.org/2000/svg">
<g clip-path="url(#clip0)">
<rect width="341" height="180" transform="translate(0 0.115234)" fill="#F5F5F5"/>
<rect width="341" height="180" transform="translate(0 0.115234)" fill="#F5F5F5"/>
<rect width="341" height="180" transform="translate(-0.367188 0.5)" fill="#F5F5F5"/>
<path d="M287.945 71.4082C287.945 80.2724 286.199 89.0499 282.807 97.2393C279.415 105.429 274.443 112.87 268.175 119.138C261.907 125.406 254.466 130.378 246.276 133.77C238.087 137.162 229.31 138.908 220.445 138.908C211.581 138.908 202.804 137.162 194.614 133.77C186.425 130.378 178.984 125.406 172.716 119.138C166.448 112.87 161.476 105.429 158.083 97.2393C154.691 89.0499 152.945 80.2724 152.945 71.4082L220.445 71.4082H287.945Z" fill="#31D67B"/>
<mask id="mask0" mask-type="alpha" maskUnits="userSpaceOnUse" x="152" y="71" width="136" height="68">
<path d="M287.945 71.4082C287.945 80.2724 286.199 89.0499 282.807 97.2393C279.415 105.429 274.443 112.87 268.175 119.138C261.907 125.406 254.466 130.378 246.276 133.77C238.087 137.162 229.31 138.908 220.445 138.908C211.581 138.908 202.804 137.162 194.614 133.77C186.425 130.378 178.984 125.406 172.716 119.138C166.448 112.87 161.476 105.429 158.083 97.2393C154.691 89.0499 152.945 80.2724 152.945 71.4082L220.445 71.4082H287.945Z" fill="#A57CFE"/>
</mask>
<g mask="url(#mask0)">
<path d="M126.815 85.5385C167.404 49.023 201.584 48.6168 229.357 84.3197C257.129 120.023 291.31 119.616 331.898 83.1008" stroke="black"/>
<path d="M130.252 115.875C165.005 73.7675 198.751 68.3198 231.49 99.5316C264.229 130.743 297.975 125.296 332.728 83.1885" stroke="black"/>
<path d="M129.087 124.004C168.125 85.8357 202.259 84.0115 231.489 118.531C260.72 153.051 294.854 151.227 333.892 113.059" stroke="black"/>
<path d="M128.263 132.043C171.552 98.7742 205.662 101.011 230.591 138.754C255.521 176.497 289.631 178.734 332.92 145.465" stroke="black"/>
<path d="M159.603 45.8471C197.067 21.3343 224.819 25.2836 242.858 57.6948C260.897 90.1061 288.649 94.0554 326.114 69.5426" stroke="black"/>
</g>
<rect width="224" height="16" transform="translate(287.945 57.9082) rotate(-180)" fill="#A57CFE"/>
<path d="M124.945 53.1582L115.445 62.6582" stroke="black"/>
<path d="M118.445 52.6582L108.945 62.1582" stroke="black"/>
<path d="M111.945 52.6582L102.445 62.1582" stroke="black"/>
<path d="M105.445 52.6582L95.9453 62.1582" stroke="black"/>
<path d="M98.9453 52.6582L89.4453 62.1582" stroke="black"/>
<path d="M92.4453 52.6582L82.9453 62.1582" stroke="black"/>
<path d="M85.9453 52.6582L76.4453 62.1582" stroke="black"/>
<circle cx="82.8203" cy="118.592" r="30.5" fill="#8052E4"/>
<circle cx="88.6953" cy="97.4668" r="1.375" fill="#D4D4D4"/>
<circle cx="94.4453" cy="97.4668" r="1.375" fill="#D4D4D4"/>
<circle cx="100.195" cy="97.4668" r="1.375" fill="#D4D4D4"/>
<circle cx="105.695" cy="97.4668" r="1.375" fill="#D4D4D4"/>
<circle cx="111.695" cy="97.4668" r="1.375" fill="#D4D4D4"/>
<circle cx="117.445" cy="97.4668" r="1.375" fill="#D4D4D4"/>
<circle cx="123.195" cy="97.4668" r="1.375" fill="#D4D4D4"/>
<circle cx="128.945" cy="97.4668" r="1.375" fill="#D4D4D4"/>
<circle cx="134.695" cy="97.4668" r="1.375" fill="#D4D4D4"/>
<circle cx="88.6953" cy="103.217" r="1.375" fill="#D4D4D4"/>
<circle cx="94.4453" cy="103.217" r="1.375" fill="#D4D4D4"/>
<circle cx="88.6953" cy="108.967" r="1.375" fill="#D4D4D4"/>
<circle cx="94.4453" cy="108.967" r="1.375" fill="#D4D4D4"/>
<circle cx="100.195" cy="108.967" r="1.375" fill="#D4D4D4"/>
<circle cx="105.945" cy="108.967" r="1.375" fill="#D4D4D4"/>
<circle cx="111.695" cy="108.967" r="1.375" fill="#D4D4D4"/>
<circle cx="117.445" cy="108.967" r="1.375" fill="#D4D4D4"/>
<circle cx="123.195" cy="108.967" r="1.375" fill="#D4D4D4"/>
<circle cx="128.945" cy="108.967" r="1.375" fill="#D4D4D4"/>
<circle cx="134.695" cy="108.967" r="1.375" fill="#D4D4D4"/>
<circle cx="100.195" cy="103.217" r="1.375" fill="#D4D4D4"/>
<circle cx="105.695" cy="103.217" r="1.375" fill="#D4D4D4"/>
<circle cx="111.695" cy="103.217" r="1.375" fill="#D4D4D4"/>
<circle cx="117.445" cy="103.217" r="1.375" fill="#D4D4D4"/>
<circle cx="123.195" cy="103.217" r="1.375" fill="#D4D4D4"/>
<circle cx="128.945" cy="103.217" r="1.375" fill="#D4D4D4"/>
<circle cx="134.695" cy="103.217" r="1.375" fill="#D4D4D4"/>
</g>
<defs>
<clipPath id="clip0">
<rect width="341" height="180" fill="white" transform="translate(0 0.115234)"/>
</clipPath>
</defs>
</svg>
