<svg width="342" height="181" viewBox="0 0 342 181" fill="none" xmlns="http://www.w3.org/2000/svg">
<g clip-path="url(#clip0)">
<rect width="341" height="180" transform="translate(0.449219 0.5)" fill="#F5F5F5"/>
<ellipse cx="70.9023" cy="85.7502" rx="64.6151" ry="25.0044" transform="rotate(90.9501 70.9023 85.7502)" fill="#2CB66A"/>
<ellipse cx="87.5136" cy="85.7502" rx="64.6151" ry="25.0044" transform="rotate(90.9501 87.5136 85.7502)" fill="#31D67B"/>
<path d="M109.519 76.4808L177.603 77.6099M177.603 77.6099L175.753 76.6789M177.603 77.6099L175.723 78.479" stroke="black"/>
<path d="M109.269 91.4365L204.401 93.0141M204.401 93.0141L201.81 92.0382M204.401 93.0141L201.779 93.9035" stroke="black"/>
<path d="M109.765 61.5908L152.668 62.3023M152.668 62.3023L151.508 61.3501M152.668 62.3023L151.477 63.2154" stroke="black"/>
<path d="M109.023 106.358L139.801 106.869M139.801 106.869L138.973 105.922M139.801 106.869L138.942 107.787" stroke="black"/>
<ellipse cx="103.1" cy="86.5783" rx="64.6151" ry="25.0044" transform="rotate(90.9501 103.1 86.5783)" fill="#4AE991"/>
<path d="M196.76 105.426L165.674 140.503H254.623L283.555 105.426H196.76Z" fill="#AB85FF"/>
<mask id="mask0" mask-type="alpha" maskUnits="userSpaceOnUse" x="165" y="105" width="119" height="36">
<path d="M196.76 105.426L165.674 140.503H254.623L283.555 105.426H196.76Z" fill="#AB85FF"/>
</mask>
<g mask="url(#mask0)">
<path d="M356.248 106.679C299.499 84.1592 258.964 84.1592 234.643 106.679C210.322 129.198 169.787 129.198 113.039 106.679" stroke="#8052E4"/>
<path d="M349.139 149.805C305.635 115.931 267.201 106.987 233.837 122.973C200.472 138.959 162.038 130.015 118.534 96.1403" stroke="#8052E4"/>
<path d="M353.848 134.915C294.727 115.562 254.317 117.774 232.62 141.551C210.922 165.328 170.512 167.539 111.391 148.186" stroke="#8052E4"/>
</g>
<path d="M232.476 73.3613L210.518 98.1387H273.349L293.786 73.3613H232.476Z" fill="#AB85FF"/>
<mask id="mask1" mask-type="alpha" maskUnits="userSpaceOnUse" x="210" y="73" width="84" height="26">
<path d="M232.476 73.3613L210.518 98.1387H273.349L293.786 73.3613H232.476Z" fill="#AB85FF"/>
</mask>
<g mask="url(#mask1)">
<path d="M345.135 74.2467C305.049 58.3396 276.416 58.3396 259.236 74.2467C242.057 90.1538 213.424 90.1538 173.338 74.2467" stroke="#8052E4"/>
<path d="M340.112 104.711C309.381 80.7827 282.232 74.4647 258.665 85.7567C235.097 97.0488 207.948 90.7308 177.218 66.803" stroke="#8052E4"/>
<path d="M343.44 94.1923C301.678 80.5216 273.134 82.0839 257.807 98.8792C242.48 115.675 213.936 117.237 172.174 103.566" stroke="#8052E4"/>
</g>
<path d="M262.255 49.7539L247.793 66.0721H289.173L302.633 49.7539H262.255Z" fill="#AB85FF"/>
<mask id="mask2" mask-type="alpha" maskUnits="userSpaceOnUse" x="247" y="49" width="56" height="18">
<path d="M262.255 49.7539L247.793 66.0721H289.173L302.633 49.7539H262.255Z" fill="#AB85FF"/>
</mask>
<g mask="url(#mask2)">
<path d="M336.451 50.3377C310.051 39.8614 291.194 39.8614 279.879 50.3377C268.565 60.814 249.708 60.814 223.307 50.3377" stroke="#8052E4"/>
<path d="M333.143 70.3993C312.905 54.6406 295.024 50.4796 279.503 57.9165C263.982 65.3533 246.101 61.1924 225.863 45.4337" stroke="#8052E4"/>
<path d="M335.334 63.4735C307.83 54.4702 289.031 55.4991 278.937 66.5603C268.843 77.6216 250.044 78.6505 222.54 69.6471" stroke="#8052E4"/>
</g>
</g>
<defs>
<clipPath id="clip0">
<rect width="341" height="180" fill="white" transform="translate(0.449219 0.5)"/>
</clipPath>
</defs>
</svg>
