<svg width="342" height="181" viewBox="0 0 342 181" fill="none" xmlns="http://www.w3.org/2000/svg">
<rect width="341" height="180" transform="translate(0.632812 0.5)" fill="#F5F5F5"/>
<path d="M159.61 81.3945L105.55 142.395H260.237L310.55 81.3945H159.61Z" fill="#31D67B"/>
<mask id="mask0" mask-type="alpha" maskUnits="userSpaceOnUse" x="105" y="81" width="206" height="62">
<path d="M159.61 81.3945L105.55 142.395H260.237L310.55 81.3945H159.61Z" fill="#31D67B"/>
</mask>
<g mask="url(#mask0)">
<path d="M436.966 83.5728C338.278 44.4106 267.786 44.4106 225.491 83.5728C183.196 122.735 112.704 122.735 14.0155 83.5728" stroke="#4AE991" stroke-width="2"/>
<path d="M424.604 158.572C348.948 99.6635 282.109 84.1093 224.087 111.909C166.066 139.709 99.2269 124.155 23.5711 65.2466" stroke="#4AE991" stroke-width="2"/>
<path d="M432.794 132.679C329.98 99.023 259.706 102.869 221.972 144.218C184.239 185.567 113.965 189.413 11.1507 155.757" stroke="#4AE991" stroke-width="2"/>
</g>
<path d="M92.8172 47.3301L47.3469 98.6376H177.455L219.774 47.3301H92.8172Z" fill="#AB85FF"/>
<mask id="mask1" mask-type="alpha" maskUnits="userSpaceOnUse" x="47" y="47" width="173" height="52">
<path d="M92.8172 47.3301L47.3469 98.6376H177.455L219.774 47.3301H92.8172Z" fill="#AB85FF"/>
</mask>
<g mask="url(#mask1)">
<path d="M326.103 49.1636C243.096 16.2241 183.804 16.2241 148.23 49.1636C112.655 82.1032 53.3639 82.1032 -29.6437 49.1636" stroke="#C9AEFF"/>
<path d="M315.705 112.245C252.07 62.6963 195.852 49.6135 147.049 72.9963C98.2466 96.3792 42.028 83.2964 -21.6066 33.748" stroke="#C9AEFF"/>
<path d="M322.594 90.4662C236.116 62.1577 177.008 65.3929 145.27 100.172C113.533 134.95 54.4247 138.186 -32.0532 109.877" stroke="#C9AEFF"/>
</g>
<path d="M238.108 142.395L238.108 62.0738M238.108 62.0738L239.083 64.2744M238.108 62.0738L237.134 64.2744" stroke="black"/>
<path d="M221.856 142.395V80.7477M221.856 80.7477L222.67 82.4366M221.856 80.7477L221.042 82.4366" stroke="black"/>
<path d="M254.226 142.395V91.7815M254.226 91.7815L255.235 93.1681M254.226 91.7815L253.216 93.1681" stroke="black"/>
<path d="M205.769 142.395V106.085M205.769 106.085L206.778 107.08M205.769 106.085L204.759 107.08" stroke="black"/>
<circle cx="131.531" cy="44.1559" r="9.69497" stroke="black"/>
<circle cx="145.571" cy="62.775" r="6.91367" stroke="black"/>
<circle cx="149.278" cy="40.449" r="3.20684" stroke="black"/>
</svg>
