<svg width="342" height="181" viewBox="0 0 342 181" fill="none" xmlns="http://www.w3.org/2000/svg">
<rect width="341" height="180" transform="translate(0.632812 0.5)" fill="#F5F5F5"/>
<path d="M218.394 82.328L150.306 82.328M150.306 82.328L152.172 81.1307M150.306 82.328L152.172 83.5254" stroke="black"/>
<path d="M218.394 102.224L139.127 102.224M139.127 102.224L141.299 101.19M139.127 102.224L141.299 103.258" stroke="black"/>
<path d="M218.394 62.521L175.49 62.521M175.49 62.521L176.665 61.2803M175.49 62.521L176.665 63.7617" stroke="black"/>
<path d="M218.394 122.076L187.615 122.076M187.615 122.076L188.458 120.835M187.615 122.076L188.458 123.316" stroke="black"/>
<rect width="57" height="113" transform="translate(228.039 37)" fill="#31D67B"/>
<rect x="218.539" y="31.5" width="56" height="110" stroke="black"/>
<circle cx="261.715" cy="78.3596" r="3.10184" fill="#D4D4D4"/>
<circle cx="274.122" cy="78.3596" r="3.10184" fill="#D4D4D4"/>
<circle cx="286.53" cy="78.3596" r="3.10184" fill="#D4D4D4"/>
<circle cx="298.937" cy="78.3596" r="3.10184" fill="#D4D4D4"/>
<circle cx="261.715" cy="90.7679" r="3.10184" fill="#D4D4D4"/>
<circle cx="274.122" cy="90.7679" r="3.10184" fill="#D4D4D4"/>
<circle cx="286.53" cy="90.7679" r="3.10184" fill="#D4D4D4"/>
<circle cx="298.937" cy="90.7679" r="3.10184" fill="#D4D4D4"/>
<circle cx="298.937" cy="103.174" r="3.10184" fill="#D4D4D4"/>
<circle cx="286.53" cy="103.174" r="3.10184" fill="#D4D4D4"/>
<circle cx="274.122" cy="103.174" r="3.10184" fill="#D4D4D4"/>
<circle cx="261.715" cy="103.174" r="3.10184" fill="#D4D4D4"/>
<rect x="78.0745" y="57.3398" width="13" height="98" transform="rotate(22.7183 78.0745 57.3398)" fill="#AB85FF"/>
<rect x="101.279" y="46.4238" width="13" height="98" transform="rotate(22.7183 101.279 46.4238)" fill="#AB85FF"/>
<rect x="127.136" y="28.2422" width="13" height="98" transform="rotate(22.7183 127.136 28.2422)" fill="#AB85FF"/>
</svg>
