<svg width="341" height="180" viewBox="0 0 341 180" fill="none" xmlns="http://www.w3.org/2000/svg">
<rect width="341" height="180" fill="#F5F5F5"/>
<rect width="341" height="180" fill="#F5F5F5"/>
<rect width="341" height="180" fill="#F5F5F5"/>
<path d="M95.8042 83L13 96H249.935L327 83H95.8042Z" fill="#31D67B"/>
<path d="M190.481 111V161.813M190.481 161.813L191.079 160.421M190.481 161.813L189.883 160.421" stroke="black"/>
<path d="M180.5 111V150M180.5 150L181 148.931M180.5 150L180 148.931" stroke="black"/>
<path d="M200.38 111V143.019M200.38 143.019L201 142.142M200.38 143.019L199.76 142.142" stroke="black"/>
<path d="M170.62 111V133.97M170.62 133.97L171.24 133.341M170.62 133.97L170 133.341" stroke="black"/>
<path d="M110.06 59L56 120H210.687L261 59H110.06Z" fill="#A57CFE"/>
<path d="M107.965 120L107.965 47M107.965 47L107 49M107.965 47L108.93 49" stroke="black"/>
<path d="M124 120L124 18M124 18L123 20.7945M124 18L125 20.7945" stroke="black"/>
<path d="M92 120L92 74M92 74L91 75.2603M92 74L93 75.2603" stroke="black"/>
<path d="M140 120V87M140 87L139 87.9041M140 87L141 87.9041" stroke="black"/>
<circle cx="230.375" cy="54.375" r="1.375" fill="#D4D4D4"/>
<circle cx="236.125" cy="54.375" r="1.375" fill="#D4D4D4"/>
<circle cx="241.875" cy="54.375" r="1.375" fill="#D4D4D4"/>
<circle cx="247.375" cy="54.375" r="1.375" fill="#D4D4D4"/>
<circle cx="253.375" cy="54.375" r="1.375" fill="#D4D4D4"/>
<circle cx="259.125" cy="54.375" r="1.375" fill="#D4D4D4"/>
<circle cx="264.875" cy="54.375" r="1.375" fill="#D4D4D4"/>
<circle cx="270.625" cy="54.375" r="1.375" fill="#D4D4D4"/>
<circle cx="276.375" cy="54.375" r="1.375" fill="#D4D4D4"/>
<circle cx="230.375" cy="60.125" r="1.375" fill="#D4D4D4"/>
<circle cx="236.125" cy="60.125" r="1.375" fill="#D4D4D4"/>
<circle cx="230.375" cy="65.875" r="1.375" fill="#D4D4D4"/>
<circle cx="236.125" cy="65.875" r="1.375" fill="#D4D4D4"/>
<circle cx="241.875" cy="65.875" r="1.375" fill="#D4D4D4"/>
<circle cx="247.625" cy="65.875" r="1.375" fill="#D4D4D4"/>
<circle cx="253.375" cy="65.875" r="1.375" fill="#D4D4D4"/>
<circle cx="259.125" cy="65.875" r="1.375" fill="#D4D4D4"/>
<circle cx="264.875" cy="65.875" r="1.375" fill="#D4D4D4"/>
<circle cx="270.625" cy="65.875" r="1.375" fill="#D4D4D4"/>
<circle cx="276.375" cy="65.875" r="1.375" fill="#D4D4D4"/>
<circle cx="241.875" cy="60.125" r="1.375" fill="#D4D4D4"/>
<circle cx="247.375" cy="60.125" r="1.375" fill="#D4D4D4"/>
<circle cx="253.375" cy="60.125" r="1.375" fill="#D4D4D4"/>
<circle cx="259.125" cy="60.125" r="1.375" fill="#D4D4D4"/>
<circle cx="264.875" cy="60.125" r="1.375" fill="#D4D4D4"/>
<circle cx="270.625" cy="60.125" r="1.375" fill="#D4D4D4"/>
<circle cx="276.375" cy="60.125" r="1.375" fill="#D4D4D4"/>
<path d="M224 54.5V48L230.5 48" stroke="black"/>
<path d="M283.5 64V70.5L277 70.5" stroke="black"/>
</svg>
