<svg width="342" height="181" viewBox="0 0 342 181" fill="none" xmlns="http://www.w3.org/2000/svg">
<rect width="341" height="180" transform="translate(0.507812 0.5)" fill="#F5F5F5"/>
<path d="M148.5 79.3047L88.1152 147.442H260.9L317.1 79.3047H148.5Z" fill="#AB85FF"/>
<mask id="mask0" mask-type="alpha" maskUnits="userSpaceOnUse" x="88" y="79" width="230" height="69">
<path d="M148.5 79.3047L88.1152 147.442H260.9L317.1 79.3047H148.5Z" fill="#AB85FF"/>
</mask>
<g mask="url(#mask0)">
<path d="M458.308 81.7378C348.072 37.9937 269.333 37.9937 222.089 81.7378C174.846 125.482 96.1063 125.482 -14.1289 81.7378" stroke="#8052E4"/>
<path d="M444.498 165.51C359.99 99.7093 285.331 82.3352 220.521 113.388C155.71 144.441 81.0515 127.067 -3.4561 61.2656" stroke="#8052E4"/>
<path d="M453.647 136.589C338.803 98.9955 260.307 103.292 218.159 149.478C176.01 195.665 97.5145 199.961 -17.3293 162.367" stroke="#8052E4"/>
</g>
<path d="M68.7829 66.3711L68.7829 113.564M68.7829 113.564L68.2182 112.271M68.7829 113.564L69.3477 112.271" stroke="black"/>
<path d="M78.1667 66.3711L78.1667 132.312M78.1667 132.312L77.5815 130.505M78.1667 132.312L78.752 130.505" stroke="black"/>
<path d="M59.4392 66.3711L59.4392 96.1092M59.4392 96.1092L58.854 95.2944M59.4392 96.1092L60.0244 95.2944" stroke="black"/>
<path d="M87.53 66.3711V87.7049M87.53 87.7049L86.9448 87.1204M87.53 87.7049L88.1152 87.1204" stroke="black"/>
<path d="M143.291 94.6721C143.291 91.5319 142.044 88.5203 139.824 86.2999C137.603 84.0795 134.592 82.832 131.451 82.832C128.311 82.832 125.3 84.0795 123.079 86.2999C120.859 88.5203 119.611 91.5319 119.611 94.6721L131.451 94.6721H143.291Z" fill="#D4D4D4"/>
<path d="M125.813 94.6707C125.813 92.5773 125.011 90.5696 123.583 89.0893C122.156 87.609 120.22 86.7773 118.201 86.7773C116.183 86.7773 114.247 87.609 112.819 89.0893C111.392 90.5695 110.59 92.5773 110.59 94.6707L118.201 94.6707H125.813Z" fill="#D4D4D4"/>
<path d="M159.641 94.6707C159.641 92.5773 158.483 90.5696 156.421 89.0893C154.359 87.609 151.563 86.7773 148.647 86.7773C145.731 86.7773 142.934 87.609 140.873 89.0893C138.811 90.5695 137.652 92.5773 137.652 94.6707L148.647 94.6707H159.641Z" fill="#D4D4D4"/>
<path d="M98.5324 72.6856C98.5324 65.6165 95.7242 58.8368 90.7255 53.8381C85.7269 48.8395 78.9472 46.0313 71.878 46.0313C64.8088 46.0312 58.0292 48.8395 53.0305 53.8381C48.0319 58.8368 45.2236 65.6165 45.2236 72.6856L71.878 72.6856H98.5324Z" fill="#4AE991"/>
<path d="M59.185 72.6837C59.185 67.9709 57.3797 63.4511 54.1663 60.1187C50.9528 56.7862 46.5945 54.9141 42.05 54.9141C37.5055 54.9141 33.1472 56.7862 29.9338 60.1187C26.7203 63.4511 24.915 67.9709 24.915 72.6837L42.05 72.6837H59.185Z" fill="#4AE991"/>
<path d="M135.341 72.6837C135.341 67.9709 132.733 63.4511 128.092 60.1187C123.45 56.7862 117.155 54.9141 110.59 54.9141C104.026 54.9141 97.7307 56.7862 93.0891 60.1187C88.4475 63.4511 85.8398 67.9709 85.8398 72.6837L110.59 72.6837H135.341Z" fill="#4AE991"/>
<path d="M134.072 48.823C134.072 44.7757 132.464 40.8941 129.602 38.0322C126.74 35.1703 122.859 33.5625 118.811 33.5625C114.764 33.5625 110.882 35.1703 108.02 38.0322C105.159 40.8941 103.551 44.7757 103.551 48.823L118.811 48.823H134.072Z" fill="#20D06F"/>
<path d="M111.544 48.8221C111.544 46.1239 110.511 43.5362 108.671 41.6282C106.831 39.7203 104.336 38.6484 101.734 38.6484C99.1323 38.6484 96.637 39.7203 94.7972 41.6282C92.9574 43.5362 91.9238 46.1239 91.9238 48.8221L101.734 48.8221H111.544Z" fill="#20D06F"/>
<path d="M155.146 48.8221C155.146 46.1239 153.653 43.5362 150.995 41.6282C148.338 39.7203 144.733 38.6484 140.975 38.6484C137.217 38.6484 133.613 39.7203 130.955 41.6282C128.298 43.5362 126.805 46.1239 126.805 48.8221L140.975 48.8221H155.146Z" fill="#20D06F"/>
<path d="M234.157 29.782C235.917 29.782 237.497 30.342 238.897 31.462V30.232H242.617V45.832H238.897V44.602C237.497 45.722 235.917 46.282 234.157 46.282C232.017 46.282 230.207 45.502 228.727 43.942C227.287 42.362 226.567 40.392 226.567 38.032C226.567 35.672 227.287 33.712 228.727 32.152C230.187 30.572 231.997 29.782 234.157 29.782ZM237.607 34.822C236.807 33.962 235.817 33.532 234.637 33.532C233.437 33.532 232.437 33.962 231.637 34.822C230.837 35.682 230.437 36.752 230.437 38.032C230.437 39.312 230.837 40.382 231.637 41.242C232.437 42.102 233.437 42.532 234.637 42.532C235.817 42.532 236.807 42.102 237.607 41.242C238.427 40.362 238.837 39.292 238.837 38.032C238.837 36.772 238.427 35.702 237.607 34.822ZM227.137 75.832V53.332H230.887V61.462C232.287 60.342 233.857 59.782 235.597 59.782C237.757 59.782 239.567 60.572 241.027 62.152C242.487 63.692 243.217 65.652 243.217 68.032C243.217 70.392 242.487 72.362 241.027 73.942C239.547 75.502 237.737 76.282 235.597 76.282C233.857 76.282 232.287 75.722 230.887 74.602V75.832H227.137ZM238.087 64.822C237.287 63.962 236.297 63.532 235.117 63.532C233.937 63.532 232.947 63.962 232.147 64.822C231.347 65.682 230.947 66.752 230.947 68.032C230.947 69.312 231.347 70.382 232.147 71.242C232.947 72.102 233.937 72.532 235.117 72.532C236.297 72.532 237.287 72.102 238.087 71.242C238.907 70.362 239.317 69.292 239.317 68.032C239.317 66.772 238.907 65.702 238.087 64.822ZM243.494 94.942L239.744 96.052C239.404 95.272 238.874 94.662 238.154 94.222C237.454 93.762 236.664 93.532 235.784 93.532C234.544 93.532 233.504 93.962 232.664 94.822C231.824 95.682 231.404 96.752 231.404 98.032C231.404 99.312 231.824 100.382 232.664 101.242C233.504 102.102 234.544 102.532 235.784 102.532C236.664 102.532 237.454 102.312 238.154 101.872C238.874 101.412 239.404 100.792 239.744 100.012L243.494 101.122C242.894 102.702 241.904 103.962 240.524 104.902C239.144 105.822 237.564 106.282 235.784 106.282C233.444 106.282 231.474 105.502 229.874 103.942C228.314 102.362 227.534 100.392 227.534 98.032C227.534 95.672 228.314 93.712 229.874 92.152C231.454 90.572 233.424 89.782 235.784 89.782C237.564 89.782 239.144 90.252 240.524 91.192C241.904 92.112 242.894 93.362 243.494 94.942ZM234.157 119.782C235.917 119.782 237.497 120.342 238.897 121.462V113.332H242.617V135.832H238.897V134.602C237.497 135.722 235.917 136.282 234.157 136.282C232.017 136.282 230.207 135.502 228.727 133.942C227.287 132.362 226.567 130.392 226.567 128.032C226.567 125.672 227.287 123.712 228.727 122.152C230.187 120.572 231.997 119.782 234.157 119.782ZM237.607 124.822C236.807 123.962 235.817 123.532 234.637 123.532C233.437 123.532 232.437 123.962 231.637 124.822C230.837 125.682 230.437 126.752 230.437 128.032C230.437 129.312 230.837 130.382 231.637 131.242C232.437 132.102 233.437 132.532 234.637 132.532C235.817 132.532 236.807 132.102 237.607 131.242C238.427 130.362 238.837 129.292 238.837 128.032C238.837 126.772 238.427 125.702 237.607 124.822Z" fill="#31D67B"/>
<path d="M238.897 31.462L238.273 32.2429L239.897 33.5427V31.462H238.897ZM238.897 30.232V29.232H237.897V30.232H238.897ZM242.617 30.232H243.617V29.232H242.617V30.232ZM242.617 45.832V46.832H243.617V45.832H242.617ZM238.897 45.832H237.897V46.832H238.897V45.832ZM238.897 44.602H239.897V42.5214L238.273 43.8212L238.897 44.602ZM228.727 43.942L227.988 44.6156L227.995 44.623L228.002 44.6303L228.727 43.942ZM228.727 32.152L227.993 31.4734L227.993 31.4738L228.727 32.152ZM237.607 34.822L236.875 35.5031L236.876 35.5038L237.607 34.822ZM231.637 41.242L232.37 40.5609L231.637 41.242ZM237.607 41.242L236.876 40.5603L236.875 40.5609L237.607 41.242ZM234.157 30.782C235.686 30.782 237.046 31.2619 238.273 32.2429L239.522 30.6812C237.948 29.4222 236.149 28.782 234.157 28.782V30.782ZM239.897 31.462V30.232H237.897V31.462H239.897ZM238.897 31.232H242.617V29.232H238.897V31.232ZM241.617 30.232V45.832H243.617V30.232H241.617ZM242.617 44.832H238.897V46.832H242.617V44.832ZM239.897 45.832V44.602H237.897V45.832H239.897ZM238.273 43.8212C237.046 44.8022 235.686 45.282 234.157 45.282V47.282C236.149 47.282 237.948 46.6419 239.522 45.3829L238.273 43.8212ZM234.157 45.282C232.293 45.282 230.745 44.6158 229.453 43.2538L228.002 44.6303C229.67 46.3882 231.742 47.282 234.157 47.282V45.282ZM229.466 43.2684C228.212 41.8923 227.567 40.1709 227.567 38.032H225.567C225.567 40.6132 226.362 42.8317 227.988 44.6156L229.466 43.2684ZM227.567 38.032C227.567 35.8931 228.212 34.1844 229.462 32.8303L227.993 31.4738C226.363 33.2396 225.567 35.451 225.567 38.032H227.567ZM229.462 32.8307C230.732 31.4565 232.275 30.782 234.157 30.782V28.782C231.72 28.782 229.643 29.6876 227.993 31.4734L229.462 32.8307ZM238.34 34.1409C237.349 33.0765 236.094 32.532 234.637 32.532V34.532C235.541 34.532 236.265 34.8476 236.875 35.5031L238.34 34.1409ZM234.637 32.532C233.166 32.532 231.899 33.0726 230.905 34.1409L232.37 35.5031C232.976 34.8514 233.708 34.532 234.637 34.532V32.532ZM230.905 34.1409C229.917 35.2033 229.437 36.524 229.437 38.032H231.437C231.437 36.98 231.758 36.1608 232.37 35.5031L230.905 34.1409ZM229.437 38.032C229.437 39.54 229.917 40.8608 230.905 41.9231L232.37 40.5609C231.758 39.9033 231.437 39.084 231.437 38.032H229.437ZM230.905 41.9231C231.899 42.9914 233.166 43.532 234.637 43.532V41.532C233.708 41.532 232.976 41.2126 232.37 40.5609L230.905 41.9231ZM234.637 43.532C236.094 43.532 237.349 42.9876 238.34 41.9231L236.875 40.5609C236.265 41.2165 235.541 41.532 234.637 41.532V43.532ZM238.339 41.9238C239.34 40.8492 239.837 39.5318 239.837 38.032H237.837C237.837 39.0523 237.514 39.8749 236.876 40.5603L238.339 41.9238ZM239.837 38.032C239.837 36.5323 239.34 35.2149 238.339 34.1403L236.876 35.5038C237.514 36.1892 237.837 37.0118 237.837 38.032H239.837ZM227.137 75.832H226.137V76.832H227.137V75.832ZM227.137 53.332V52.332H226.137V53.332H227.137ZM230.887 53.332H231.887V52.332H230.887V53.332ZM230.887 61.462H229.887V63.5427L231.512 62.2429L230.887 61.462ZM241.027 62.152L240.293 62.8308L240.302 62.84L241.027 62.152ZM241.027 73.942L241.753 74.6304L241.762 74.6207L241.027 73.942ZM230.887 74.602L231.512 73.8212L229.887 72.5214V74.602H230.887ZM230.887 75.832V76.832H231.887V75.832H230.887ZM238.087 64.822L237.355 65.5031L237.356 65.5038L238.087 64.822ZM232.147 71.242L232.88 70.5609L232.147 71.242ZM238.087 71.242L237.356 70.5603L237.355 70.5609L238.087 71.242ZM228.137 75.832V53.332H226.137V75.832H228.137ZM227.137 54.332H230.887V52.332H227.137V54.332ZM229.887 53.332V61.462H231.887V53.332H229.887ZM231.512 62.2429C232.741 61.2601 234.092 60.782 235.597 60.782V58.782C233.623 58.782 231.834 59.424 230.263 60.6812L231.512 62.2429ZM235.597 60.782C237.48 60.782 239.023 61.4565 240.293 62.8307L241.762 61.4734C240.112 59.6876 238.035 58.782 235.597 58.782V60.782ZM240.302 62.84C241.564 64.1712 242.217 65.8743 242.217 68.032H244.217C244.217 65.4298 243.411 63.2129 241.753 61.464L240.302 62.84ZM242.217 68.032C242.217 70.167 241.565 71.8867 240.293 73.2634L241.762 74.6207C243.41 72.8373 244.217 70.6171 244.217 68.032H242.217ZM240.302 73.2538C239.01 74.6158 237.462 75.282 235.597 75.282V77.282C238.013 77.282 240.085 76.3882 241.753 74.6303L240.302 73.2538ZM235.597 75.282C234.092 75.282 232.741 74.804 231.512 73.8212L230.263 75.3829C231.834 76.6401 233.623 77.282 235.597 77.282V75.282ZM229.887 74.602V75.832H231.887V74.602H229.887ZM230.887 74.832H227.137V76.832H230.887V74.832ZM238.82 64.1409C237.829 63.0765 236.574 62.532 235.117 62.532V64.532C236.021 64.532 236.745 64.8476 237.355 65.5031L238.82 64.1409ZM235.117 62.532C233.661 62.532 232.405 63.0765 231.415 64.1409L232.88 65.5031C233.489 64.8476 234.214 64.532 235.117 64.532V62.532ZM231.415 64.1409C230.427 65.2033 229.947 66.524 229.947 68.032H231.947C231.947 66.98 232.268 66.1608 232.88 65.5031L231.415 64.1409ZM229.947 68.032C229.947 69.54 230.427 70.8608 231.415 71.9231L232.88 70.5609C232.268 69.9033 231.947 69.084 231.947 68.032H229.947ZM231.415 71.9231C232.405 72.9876 233.661 73.532 235.117 73.532V71.532C234.214 71.532 233.489 71.2165 232.88 70.5609L231.415 71.9231ZM235.117 73.532C236.574 73.532 237.829 72.9876 238.82 71.9231L237.355 70.5609C236.745 71.2165 236.021 71.532 235.117 71.532V73.532ZM238.819 71.9238C239.82 70.8492 240.317 69.5318 240.317 68.032H238.317C238.317 69.0523 237.994 69.8749 237.356 70.5603L238.819 71.9238ZM240.317 68.032C240.317 66.5323 239.82 65.2149 238.819 64.1403L237.356 65.5038C237.994 66.1892 238.317 67.0118 238.317 68.032H240.317ZM243.494 94.942L243.778 95.9009L244.812 95.5949L244.429 94.587L243.494 94.942ZM239.744 96.052L238.827 96.4516L239.181 97.2617L240.028 97.0109L239.744 96.052ZM238.154 94.222L237.605 95.0577L237.619 95.0667L237.633 95.0753L238.154 94.222ZM232.664 94.822L233.38 95.5208H233.38L232.664 94.822ZM232.664 101.242L233.38 100.543L232.664 101.242ZM238.154 101.872L238.686 102.719L238.693 102.715L238.154 101.872ZM239.744 100.012L240.028 99.0532L239.181 98.8023L238.827 99.6124L239.744 100.012ZM243.494 101.122L244.429 101.477L244.812 100.469L243.778 100.163L243.494 101.122ZM240.524 104.902L241.079 105.734L241.087 105.729L240.524 104.902ZM229.874 103.942L229.163 104.645L229.169 104.651L229.176 104.658L229.874 103.942ZM229.874 92.152L229.167 91.4449L229.874 92.152ZM240.524 91.192L239.961 92.0186L239.969 92.0241L240.524 91.192ZM243.21 93.9832L239.46 95.0932L240.028 97.0109L243.778 95.9009L243.21 93.9832ZM240.661 95.6524C240.24 94.6859 239.572 93.9168 238.676 93.3688L237.633 95.0753C238.176 95.4073 238.569 95.8581 238.827 96.4516L240.661 95.6524ZM238.703 93.3863C237.832 92.8136 236.849 92.532 235.784 92.532V94.532C236.479 94.532 237.077 94.7105 237.605 95.0577L238.703 93.3863ZM235.784 92.532C234.284 92.532 232.984 93.0639 231.949 94.1233L233.38 95.5208C234.025 94.8601 234.804 94.532 235.784 94.532V92.532ZM231.949 94.1233C230.914 95.1831 230.404 96.5096 230.404 98.032H232.404C232.404 96.9945 232.735 96.181 233.38 95.5208L231.949 94.1233ZM230.404 98.032C230.404 99.5545 230.914 100.881 231.949 101.941L233.38 100.543C232.735 99.8831 232.404 99.0696 232.404 98.032H230.404ZM231.949 101.941C232.984 103 234.284 103.532 235.784 103.532V101.532C234.804 101.532 234.025 101.204 233.38 100.543L231.949 101.941ZM235.784 103.532C236.84 103.532 237.817 103.265 238.686 102.719L237.622 101.025C237.092 101.359 236.489 101.532 235.784 101.532V103.532ZM238.693 102.715C239.579 102.148 240.241 101.374 240.661 100.412L238.827 99.6124C238.567 100.21 238.169 100.676 237.616 101.029L238.693 102.715ZM239.46 100.971L243.21 102.081L243.778 100.163L240.028 99.0532L239.46 100.971ZM242.559 100.767C242.031 102.158 241.17 103.252 239.961 104.076L241.087 105.729C242.639 104.672 243.757 103.246 244.429 101.477L242.559 100.767ZM239.969 104.07C238.766 104.872 237.382 105.282 235.784 105.282V107.282C237.746 107.282 239.522 106.772 241.079 105.734L239.969 104.07ZM235.784 105.282C233.691 105.282 231.976 104.595 230.572 103.226L229.176 104.658C230.972 106.409 233.197 107.282 235.784 107.282V105.282ZM230.586 103.239C229.223 101.859 228.534 100.147 228.534 98.032H226.534C226.534 100.637 227.405 102.865 229.163 104.645L230.586 103.239ZM228.534 98.032C228.534 95.9168 229.223 94.2176 230.581 92.8591L229.167 91.4449C227.406 93.2065 226.534 95.4273 226.534 98.032H228.534ZM230.581 92.8591C231.962 91.4781 233.673 90.782 235.784 90.782V88.782C233.176 88.782 230.946 89.666 229.167 91.4449L230.581 92.8591ZM235.784 90.782C237.377 90.782 238.758 91.1992 239.961 92.0185L241.087 90.3655C239.53 89.3049 237.751 88.782 235.784 88.782V90.782ZM239.969 92.0241C241.173 92.8262 242.032 93.9078 242.559 95.297L244.429 94.587C243.757 92.8163 242.636 91.3979 241.079 90.36L239.969 92.0241ZM238.897 121.462L238.273 122.243L239.897 123.543V121.462H238.897ZM238.897 113.332V112.332H237.897V113.332H238.897ZM242.617 113.332H243.617V112.332H242.617V113.332ZM242.617 135.832V136.832H243.617V135.832H242.617ZM238.897 135.832H237.897V136.832H238.897V135.832ZM238.897 134.602H239.897V132.521L238.273 133.821L238.897 134.602ZM228.727 133.942L227.988 134.616L227.995 134.623L228.002 134.63L228.727 133.942ZM228.727 122.152L227.993 121.473L227.993 121.474L228.727 122.152ZM237.607 124.822L236.875 125.503L236.876 125.504L237.607 124.822ZM231.637 131.242L232.37 130.561L231.637 131.242ZM237.607 131.242L236.876 130.56L236.875 130.561L237.607 131.242ZM234.157 120.782C235.686 120.782 237.046 121.262 238.273 122.243L239.522 120.681C237.948 119.422 236.149 118.782 234.157 118.782V120.782ZM239.897 121.462V113.332H237.897V121.462H239.897ZM238.897 114.332H242.617V112.332H238.897V114.332ZM241.617 113.332V135.832H243.617V113.332H241.617ZM242.617 134.832H238.897V136.832H242.617V134.832ZM239.897 135.832V134.602H237.897V135.832H239.897ZM238.273 133.821C237.046 134.802 235.686 135.282 234.157 135.282V137.282C236.149 137.282 237.948 136.642 239.522 135.383L238.273 133.821ZM234.157 135.282C232.293 135.282 230.745 134.616 229.453 133.254L228.002 134.63C229.67 136.388 231.742 137.282 234.157 137.282V135.282ZM229.466 133.268C228.212 131.892 227.567 130.171 227.567 128.032H225.567C225.567 130.613 226.362 132.832 227.988 134.616L229.466 133.268ZM227.567 128.032C227.567 125.893 228.212 124.184 229.462 122.83L227.993 121.474C226.363 123.24 225.567 125.451 225.567 128.032H227.567ZM229.462 122.831C230.732 121.456 232.275 120.782 234.157 120.782V118.782C231.72 118.782 229.643 119.688 227.993 121.473L229.462 122.831ZM238.34 124.141C237.349 123.076 236.094 122.532 234.637 122.532V124.532C235.541 124.532 236.265 124.848 236.875 125.503L238.34 124.141ZM234.637 122.532C233.166 122.532 231.899 123.073 230.905 124.141L232.37 125.503C232.976 124.851 233.708 124.532 234.637 124.532V122.532ZM230.905 124.141C229.917 125.203 229.437 126.524 229.437 128.032H231.437C231.437 126.98 231.758 126.161 232.37 125.503L230.905 124.141ZM229.437 128.032C229.437 129.54 229.917 130.861 230.905 131.923L232.37 130.561C231.758 129.903 231.437 129.084 231.437 128.032H229.437ZM230.905 131.923C231.899 132.991 233.166 133.532 234.637 133.532V131.532C233.708 131.532 232.976 131.213 232.37 130.561L230.905 131.923ZM234.637 133.532C236.094 133.532 237.349 132.988 238.34 131.923L236.875 130.561C236.265 131.216 235.541 131.532 234.637 131.532V133.532ZM238.339 131.924C239.34 130.849 239.837 129.532 239.837 128.032H237.837C237.837 129.052 237.514 129.875 236.876 130.56L238.339 131.924ZM239.837 128.032C239.837 126.532 239.34 125.215 238.339 124.14L236.876 125.504C237.514 126.189 237.837 127.012 237.837 128.032H239.837Z" fill="black"/>
</svg>
