<svg width="342" height="181" viewBox="0 0 342 181" fill="none" xmlns="http://www.w3.org/2000/svg">
<rect width="341" height="180" transform="translate(0.507812 0.5)" fill="#F5F5F5"/>
<rect width="17.7681" height="79.9565" transform="matrix(-1 0 0 1 95.5518 48.4492)" fill="#AB85FF"/>
<rect width="11.4224" height="52.0352" transform="matrix(-1 0 0 1 114.352 76.3711)" fill="#AB85FF"/>
<rect width="6.34575" height="29.1905" transform="matrix(-1 0 0 1 128.074 99.2148)" fill="#AB85FF"/>
<path d="M114.352 103.046H160.676M160.676 103.046L159.406 103.658M160.676 103.046L159.406 102.434" stroke="black"/>
<path d="M114.352 92.8729H179.078M179.078 92.8729L177.305 93.5074M179.078 92.8729L177.305 92.2383" stroke="black"/>
<path d="M114.352 113.178H143.542M143.542 113.178L142.742 113.812M143.542 113.178L142.742 112.543" stroke="black"/>
<path d="M114.352 82.7166H135.293M135.293 82.7166L134.719 83.3512M135.293 82.7166L134.719 82.082" stroke="black"/>
<path d="M69.5425 33.2956C54.613 34.4015 26.081 46.2346 24.7539 78.0842C24.7539 117.896 55.1659 128.402 70.0955 128.402C91.6604 128.402 181.238 128.402 232.109 128.402" stroke="black"/>
<path d="M69.3174 33.2969H149.167" stroke="black"/>
<path d="M272.473 128.404C287.403 127.298 315.935 115.465 317.262 83.615C317.262 43.8029 286.85 33.2969 271.92 33.2969C250.355 33.2969 160.778 33.2969 109.907 33.2969" stroke="black"/>
<path d="M272.698 128.402H192.849" stroke="black"/>
<path d="M200.152 128.405L229.1 111.691V145.118L200.152 128.405Z" fill="#31D67B"/>
<path d="M218.465 128.405L247.413 111.691V145.118L218.465 128.405Z" fill="#31D67B"/>
<path d="M237.764 128.405L266.712 111.691V145.118L237.764 128.405Z" fill="#31D67B"/>
</svg>
