<svg width="342" height="181" viewBox="0 0 342 181" fill="none" xmlns="http://www.w3.org/2000/svg">
<rect width="341" height="180" transform="translate(0.507812 0.5)" fill="#F5F5F5"/>
<path d="M216.008 20.5L277.063 115.75H154.953L216.008 20.5Z" fill="#31D67B"/>
<path d="M66.6771 141.25L138.508 29.4251L210.339 141.25H66.6771Z" stroke="black"/>
<path d="M96.4725 141.5L96.4725 68.5M96.4725 68.5L95.5074 70.5M96.4725 68.5L97.4375 70.5" stroke="black"/>
<path d="M112.508 141.5L112.508 39.5M112.508 39.5L111.508 42.2945M112.508 39.5L113.508 42.2945" stroke="black"/>
<path d="M80.5078 141.5L80.5078 95.5M80.5078 95.5L79.5078 96.7603M80.5078 95.5L81.5078 96.7603" stroke="black"/>
<path d="M128.508 141.5V108.5M128.508 108.5L127.508 109.404M128.508 108.5L129.508 109.404" stroke="black"/>
<circle cx="235.508" cy="118.5" r="19" fill="#B491FF"/>
</svg>
