<svg width="341" height="180" fill="none" xmlns="http://www.w3.org/2000/svg">
  <g clip-path="url(#clip0)">
    <path d="M223.5 90l33.3-57.8h-66.6L223.5 90z" fill="#A57CFE"/>
    <path d="M208.5 85l23-39.8h-46l23 39.8z" fill="#8052E4"/>
    <path d="M238 36.5l9.5-9.5M244.5 37l9.5-9.5M251 37l9.5-9.5M257.5 37l9.5-9.5M264 37l9.5-9.5M270.5 37l9.5-9.5M277 37l9.5-9.5M145.5 90.4l42.9-25.5m0 0l-.7 1.5m.7-1.5l-1.7-.2M141.5 103.4l42.9-25.5m0 0l-.7 1.5m.7-1.5l-1.7-.2" stroke="#000"/>
    <circle cx="117" cy="97" r="50" fill="#31D67B"/>
    <circle cx="86.5" cy="82.5" r="30" stroke="#000"/>
    <circle cx="140.4" cy="122.4" r="1.4" fill="#D4D4D4"/>
    <circle cx="146.1" cy="122.4" r="1.4" fill="#D4D4D4"/>
    <circle cx="151.9" cy="122.4" r="1.4" fill="#D4D4D4"/>
    <circle cx="157.6" cy="122.4" r="1.4" fill="#D4D4D4"/>
    <circle cx="163.4" cy="122.4" r="1.4" fill="#D4D4D4"/>
    <circle cx="169.1" cy="122.4" r="1.4" fill="#D4D4D4"/>
    <circle cx="174.9" cy="122.4" r="1.4" fill="#D4D4D4"/>
    <circle cx="180.6" cy="122.4" r="1.4" fill="#D4D4D4"/>
    <circle cx="186.4" cy="122.4" r="1.4" fill="#D4D4D4"/>
    <circle cx="140.4" cy="128.1" r="1.4" fill="#D4D4D4"/>
    <circle cx="146.1" cy="128.1" r="1.4" fill="#D4D4D4"/>
    <circle cx="140.4" cy="133.9" r="1.4" fill="#D4D4D4"/>
    <circle cx="146.1" cy="133.9" r="1.4" fill="#D4D4D4"/>
    <circle cx="151.9" cy="133.9" r="1.4" fill="#D4D4D4"/>
    <circle cx="157.6" cy="133.9" r="1.4" fill="#D4D4D4"/>
    <circle cx="163.4" cy="133.9" r="1.4" fill="#D4D4D4"/>
    <circle cx="169.1" cy="133.9" r="1.4" fill="#D4D4D4"/>
    <circle cx="174.9" cy="133.9" r="1.4" fill="#D4D4D4"/>
    <circle cx="180.6" cy="133.9" r="1.4" fill="#D4D4D4"/>
    <circle cx="186.4" cy="133.9" r="1.4" fill="#D4D4D4"/>
    <circle cx="151.9" cy="128.1" r="1.4" fill="#D4D4D4"/>
    <circle cx="157.6" cy="128.1" r="1.4" fill="#D4D4D4"/>
    <circle cx="163.4" cy="128.1" r="1.4" fill="#D4D4D4"/>
    <circle cx="169.1" cy="128.1" r="1.4" fill="#D4D4D4"/>
    <circle cx="174.9" cy="128.1" r="1.4" fill="#D4D4D4"/>
    <circle cx="180.6" cy="128.1" r="1.4" fill="#D4D4D4"/>
    <circle cx="186.4" cy="128.1" r="1.4" fill="#D4D4D4"/>
  </g>
  <defs>
    <clipPath id="clip0">
      <path fill="#fff" d="M0 0h341v180H0z"/>
    </clipPath>
  </defs>
</svg>
