<svg width="341" height="180" fill="none" xmlns="http://www.w3.org/2000/svg">
  <path d="M68.5 133C55 132 29.2 121.3 28 92.5 28 56.5 55.5 47 69 47h146.5M68.3 133h72.2M157.5 47L201 95.5M162 47l43.5 48.5M167 47l43.5 48.5M172 47l43.5 48.5M177 47l43.5 48.5M182 47l43.5 48.5" stroke="#000"/>
  <circle cx="77" cy="90" r="38" fill="#AB85FF"/>
  <circle cx="77" cy="90" r="38" fill="#AB85FF"/>
  <circle cx="127.5" cy="115.5" r="9.5" fill="#8052E4"/>
  <g clip-path="url(#clip0)">
    <path fill="#31D67B" d="M171 94h142v39H171z"/>
    <path d="M115.8 82.5c76.5-43.7 131.2-43.7 164 0 32.8 43.8 87.4 43.8 163.9 0" stroke="#4AE991" stroke-width="2"/>
    <path d="M125.4 166.3C184.1 100.5 236 83 281 114.2c45 31 96.7 13.6 155.4-52.1" stroke="#4AE991" stroke-width="2"/>
    <path d="M119 137.4c79.8-37.6 134.2-33.3 163.5 12.8 29.2 46.2 83.7 50.5 163.4 13" stroke="#4AE991" stroke-width="2"/>
  </g>
  <circle cx="89.4" cy="84.4" r="1.4" fill="#D4D4D4"/>
  <circle cx="95.1" cy="84.4" r="1.4" fill="#D4D4D4"/>
  <circle cx="100.9" cy="84.4" r="1.4" fill="#D4D4D4"/>
  <circle cx="106.6" cy="84.4" r="1.4" fill="#D4D4D4"/>
  <circle cx="112.4" cy="84.4" r="1.4" fill="#D4D4D4"/>
  <circle cx="118.1" cy="84.4" r="1.4" fill="#D4D4D4"/>
  <circle cx="123.9" cy="84.4" r="1.4" fill="#D4D4D4"/>
  <circle cx="129.6" cy="84.4" r="1.4" fill="#D4D4D4"/>
  <circle cx="135.4" cy="84.4" r="1.4" fill="#D4D4D4"/>
  <circle cx="89.4" cy="90.1" r="1.4" fill="#D4D4D4"/>
  <circle cx="95.1" cy="90.1" r="1.4" fill="#D4D4D4"/>
  <circle cx="89.4" cy="95.9" r="1.4" fill="#D4D4D4"/>
  <circle cx="95.1" cy="95.9" r="1.4" fill="#D4D4D4"/>
  <circle cx="100.9" cy="95.9" r="1.4" fill="#D4D4D4"/>
  <circle cx="106.6" cy="95.9" r="1.4" fill="#D4D4D4"/>
  <circle cx="112.4" cy="95.9" r="1.4" fill="#D4D4D4"/>
  <circle cx="118.1" cy="95.9" r="1.4" fill="#D4D4D4"/>
  <circle cx="123.9" cy="95.9" r="1.4" fill="#D4D4D4"/>
  <circle cx="129.6" cy="95.9" r="1.4" fill="#D4D4D4"/>
  <circle cx="135.4" cy="95.9" r="1.4" fill="#D4D4D4"/>
  <circle cx="100.9" cy="90.1" r="1.4" fill="#D4D4D4"/>
  <circle cx="106.6" cy="90.1" r="1.4" fill="#D4D4D4"/>
  <circle cx="112.4" cy="90.1" r="1.4" fill="#D4D4D4"/>
  <circle cx="118.1" cy="90.1" r="1.4" fill="#D4D4D4"/>
  <circle cx="123.9" cy="90.1" r="1.4" fill="#D4D4D4"/>
  <circle cx="129.6" cy="90.1" r="1.4" fill="#D4D4D4"/>
  <circle cx="135.4" cy="90.1" r="1.4" fill="#D4D4D4"/>
  <path d="M287.7 86.3a18.3 18.3 0 00-36.7 0h36.7z" fill="#4AE991"/>
  <path d="M260.6 86.3c0-3.2-1.3-6.3-3.5-8.6a11.6 11.6 0 00-16.6 0 12.5 12.5 0 00-3.5 8.6h23.6zM313 86.3c0-3.2-1.8-6.3-5-8.6a20.9 20.9 0 00-12-3.6c-4.6 0-8.9 1.3-12 3.6-3.3 2.3-5 5.4-5 8.6h34z" fill="#4AE991"/>
  <defs>
    <clipPath id="clip0">
      <path fill="#fff" transform="translate(171 94)" d="M0 0h142v39H0z"/>
    </clipPath>
  </defs>
</svg>
