<svg width="342" height="180" viewBox="0 0 342 180" fill="none" xmlns="http://www.w3.org/2000/svg">
<rect width="341" height="180" transform="translate(0.167969)" fill="#F5F5F5"/>
<path d="M96.9721 118L14.168 131H251.103L328.168 118H96.9721Z" fill="#31D67B"/>
<path d="M140.228 86L86.168 147H240.855L291.168 86H140.228Z" fill="#A57CFE"/>
<path d="M188.133 147L188.133 74M188.133 74L187.168 76M188.133 74L189.098 76" stroke="black"/>
<path d="M204.168 147L204.168 45M204.168 45L203.168 47.7945M204.168 45L205.168 47.7945" stroke="black"/>
<path d="M172.168 147V101M172.168 101L171.168 102.26M172.168 101L173.168 102.26" stroke="black"/>
<path d="M220.168 147V114M220.168 114L219.168 114.904M220.168 114L221.168 114.904" stroke="black"/>
<circle cx="73.668" cy="53.5" r="2.5" fill="#31D67B"/>
<circle cx="83.668" cy="53.5" r="2.5" fill="#31D67B"/>
<circle cx="93.668" cy="53.5" r="2.5" fill="#31D67B"/>
<circle cx="103.668" cy="53.5" r="2.5" fill="#31D67B"/>
<circle cx="73.668" cy="63.5" r="2.5" fill="#31D67B"/>
<circle cx="83.668" cy="63.5" r="2.5" fill="#31D67B"/>
<circle cx="93.668" cy="63.5" r="2.5" fill="#31D67B"/>
<circle cx="103.668" cy="63.5" r="2.5" fill="#31D67B"/>
<circle cx="103.668" cy="73.5" r="2.5" fill="#31D67B"/>
<circle cx="93.668" cy="73.5" r="2.5" fill="#31D67B"/>
<circle cx="83.668" cy="73.5" r="2.5" fill="#31D67B"/>
<circle cx="73.668" cy="73.5" r="2.5" fill="#31D67B"/>
<circle cx="73.668" cy="73.5" r="2.5" fill="#31D67B"/>
<circle cx="83.668" cy="73.5" r="2.5" fill="#31D67B"/>
<circle cx="93.668" cy="73.5" r="2.5" fill="#31D67B"/>
<circle cx="103.668" cy="73.5" r="2.5" fill="#31D67B"/>
<circle cx="73.668" cy="83.5" r="2.5" fill="#31D67B"/>
<circle cx="83.668" cy="83.5" r="2.5" fill="#31D67B"/>
<circle cx="93.668" cy="83.5" r="2.5" fill="#31D67B"/>
<circle cx="103.668" cy="83.5" r="2.5" fill="#31D67B"/>
<circle cx="103.668" cy="93.5" r="2.5" fill="#31D67B"/>
<circle cx="93.668" cy="93.5" r="2.5" fill="#31D67B"/>
<circle cx="83.668" cy="93.5" r="2.5" fill="#31D67B"/>
<circle cx="73.668" cy="93.5" r="2.5" fill="#31D67B"/>
<path d="M100.168 53C100.168 47.4305 97.9555 42.089 94.0172 38.1508C90.0789 34.2125 84.7375 32 79.168 32C73.5984 32 68.257 34.2125 64.3187 38.1508C60.3805 42.089 58.168 47.4305 58.168 53L79.168 53H100.168Z" fill="#8052E4"/>
<path d="M69.168 53C69.168 49.287 67.7457 45.726 65.2139 43.1005C62.6822 40.475 59.2484 39 55.668 39C52.0875 39 48.6538 40.475 46.122 43.1005C43.5903 45.726 42.168 49.287 42.168 53L55.668 53H69.168Z" fill="#8052E4"/>
<path d="M129.168 53C129.168 49.287 127.114 45.726 123.457 43.1005C119.8 40.475 114.84 39 109.668 39C104.496 39 99.5363 40.475 95.8794 43.1005C92.2224 45.726 90.168 49.287 90.168 53L109.668 53H129.168Z" fill="#8052E4"/>
</svg>
