<svg width="342" height="180" viewBox="0 0 342 180" fill="none" xmlns="http://www.w3.org/2000/svg">
<rect width="341" height="180" transform="translate(0.359375)" fill="#F5F5F5"/>
<path d="M69.3941 42.447C54.4645 43.5529 25.9325 55.3859 24.6055 87.2356C24.6055 127.048 55.0175 137.554 69.947 137.554C91.5119 137.554 181.089 137.554 231.96 137.554" stroke="black"/>
<path d="M69.168 42.4463H149.017" stroke="black"/>
<path d="M272.325 137.553C287.254 136.447 315.786 124.614 317.113 92.7644C317.113 52.9523 286.701 42.4463 271.772 42.4463C250.207 42.4463 160.63 42.4463 109.759 42.4463" stroke="black"/>
<path d="M272.551 137.553H192.701" stroke="black"/>
<path d="M200.004 137.554L228.952 120.841V154.267L200.004 137.554Z" fill="#31D67B"/>
<path d="M218.316 137.554L247.264 120.841V154.267L218.316 137.554Z" fill="#31D67B"/>
<path d="M237.615 137.554L266.563 120.841V154.267L237.615 137.554Z" fill="#31D67B"/>
<path d="M143.393 42.4461L114.445 59.1592V25.733L143.393 42.4461Z" fill="#AB85FF"/>
<path d="M106.197 42.4471L77.2493 59.1602V25.734L106.197 42.4471Z" fill="#AB85FF"/>
<path d="M124.795 42.4461L95.847 59.1592V25.733L124.795 42.4461Z" fill="#AB85FF"/>
<circle cx="69.2546" cy="99.8913" r="13.1315" stroke="black"/>
<circle cx="94.4603" cy="86.2601" r="6.31575" stroke="black"/>
<circle cx="112.853" cy="93.7259" r="3.42321" stroke="black"/>
<circle cx="248.906" cy="77.2025" r="13.1315" transform="rotate(-180 248.906 77.2025)" stroke="black"/>
<circle cx="223.698" cy="90.8337" r="6.31575" transform="rotate(-180 223.698 90.8337)" stroke="black"/>
<circle cx="205.307" cy="83.3678" r="3.42321" transform="rotate(-180 205.307 83.3678)" stroke="black"/>
</svg>
