<svg width="342" height="180" viewBox="0 0 342 180" fill="none" xmlns="http://www.w3.org/2000/svg">
<rect width="341" height="180" transform="translate(0.167969)" fill="#F5F5F5"/>
<path d="M191.918 73.1697L274.916 73.1697M274.916 73.1697L272.642 72.2047M274.916 73.1697L272.642 74.1348" stroke="black"/>
<path d="M191.918 89.2051L307.888 89.2051M307.888 89.2051L304.711 88.2051M307.888 89.2051L304.711 90.2051" stroke="black"/>
<path d="M191.918 57.2051L244.218 57.2051M244.218 57.2051L242.785 56.2051M244.218 57.2051L242.785 58.2051" stroke="black"/>
<path d="M191.918 105.205L270.574 105.205M270.574 105.205L268.419 104.205M270.574 105.205L268.419 106.205" stroke="black"/>
<path d="M180.28 32.4053L235.657 118.797H124.903L180.28 32.4053Z" fill="#4AE991"/>
<path d="M134.436 32.4053L189.813 118.797H79.059L134.436 32.4053Z" fill="#20D06F"/>
<path d="M90.7133 32.4053L146.09 118.797H35.3364L90.7133 32.4053Z" fill="#2CB66A"/>
<path d="M72.3084 126.728C72.3084 133.798 75.1166 140.577 80.1153 145.576C85.114 150.575 91.8936 153.383 98.9628 153.383C106.032 153.383 112.812 150.575 117.81 145.576C122.809 140.577 125.617 133.798 125.617 126.728L98.9628 126.728H72.3084Z" fill="#AB85FF"/>
<path d="M111.656 126.728C111.656 131.441 113.461 135.961 116.675 139.293C119.888 142.626 124.246 144.498 128.791 144.498C133.335 144.498 137.694 142.626 140.907 139.293C144.12 135.961 145.926 131.441 145.926 126.728L128.791 126.728H111.656Z" fill="#AB85FF"/>
<path d="M35.499 126.728C35.499 131.441 38.1066 135.961 42.7482 139.293C47.3899 142.626 53.6853 144.498 60.2495 144.498C66.8137 144.498 73.1091 142.626 77.7507 139.293C82.3924 135.961 85 131.441 85 126.728L60.2495 126.728H35.499Z" fill="#AB85FF"/>
</svg>
