<svg width="342" height="180" viewBox="0 0 342 180" fill="none" xmlns="http://www.w3.org/2000/svg">
<rect width="341" height="180" transform="translate(0.167969)" fill="#F5F5F5"/>
<path d="M261.168 121C274.668 120 300.468 109.3 301.668 80.5C301.668 44.5 274.168 35 260.668 35C241.168 35 160.168 35 114.168 35" stroke="black"/>
<path d="M261.371 121H189.167" stroke="black"/>
<path d="M77.668 56C64.168 57 38.368 67.7 37.168 96.5C37.168 132.5 64.668 142 78.168 142C97.668 142 178.668 142 224.668 142" stroke="black"/>
<path d="M77.4648 56H149.668" stroke="black"/>
<path d="M209.668 35.5V120.5M209.668 35.5V120.5" stroke="black"/>
<path d="M214.168 35V121M214.168 35V121" stroke="black"/>
<path d="M219.168 35V121M219.168 35V121" stroke="black"/>
<path d="M224.168 35V121M224.168 35V121" stroke="black"/>
<path d="M229.168 35V121M229.168 35V121" stroke="black"/>
<path d="M234.168 35V121M234.168 35V121" stroke="black"/>
<path d="M239.168 35V121M239.168 35V121" stroke="black"/>
<path d="M244.168 35V121M244.168 35V121" stroke="black"/>
<circle cx="288.168" cy="44" r="17" fill="#A57CFE"/>
<circle cx="225.168" cy="142" r="11" fill="#8052E4"/>
<circle cx="82.668" cy="98.5" r="35.5" fill="#31D67B"/>
<circle cx="96.543" cy="93.375" r="1.375" fill="#D4D4D4"/>
<circle cx="102.293" cy="93.375" r="1.375" fill="#D4D4D4"/>
<circle cx="108.043" cy="93.375" r="1.375" fill="#D4D4D4"/>
<circle cx="113.543" cy="93.375" r="1.375" fill="#D4D4D4"/>
<circle cx="119.543" cy="93.375" r="1.375" fill="#D4D4D4"/>
<circle cx="125.293" cy="93.375" r="1.375" fill="#D4D4D4"/>
<circle cx="131.043" cy="93.375" r="1.375" fill="#D4D4D4"/>
<circle cx="136.793" cy="93.375" r="1.375" fill="#D4D4D4"/>
<circle cx="142.543" cy="93.375" r="1.375" fill="#D4D4D4"/>
<circle cx="96.543" cy="99.125" r="1.375" fill="#D4D4D4"/>
<circle cx="102.293" cy="99.125" r="1.375" fill="#D4D4D4"/>
<circle cx="96.543" cy="104.875" r="1.375" fill="#D4D4D4"/>
<circle cx="102.293" cy="104.875" r="1.375" fill="#D4D4D4"/>
<circle cx="108.043" cy="104.875" r="1.375" fill="#D4D4D4"/>
<circle cx="113.793" cy="104.875" r="1.375" fill="#D4D4D4"/>
<circle cx="119.543" cy="104.875" r="1.375" fill="#D4D4D4"/>
<circle cx="125.293" cy="104.875" r="1.375" fill="#D4D4D4"/>
<circle cx="131.043" cy="104.875" r="1.375" fill="#D4D4D4"/>
<circle cx="136.793" cy="104.875" r="1.375" fill="#D4D4D4"/>
<circle cx="142.543" cy="104.875" r="1.375" fill="#D4D4D4"/>
<circle cx="108.043" cy="99.125" r="1.375" fill="#D4D4D4"/>
<circle cx="113.543" cy="99.125" r="1.375" fill="#D4D4D4"/>
<circle cx="119.543" cy="99.125" r="1.375" fill="#D4D4D4"/>
<circle cx="125.293" cy="99.125" r="1.375" fill="#D4D4D4"/>
<circle cx="131.043" cy="99.125" r="1.375" fill="#D4D4D4"/>
<circle cx="136.793" cy="99.125" r="1.375" fill="#D4D4D4"/>
<circle cx="142.543" cy="99.125" r="1.375" fill="#D4D4D4"/>
<circle cx="96.543" cy="93.375" r="1.375" fill="#D4D4D4"/>
<circle cx="102.293" cy="93.375" r="1.375" fill="#D4D4D4"/>
<circle cx="108.043" cy="93.375" r="1.375" fill="#D4D4D4"/>
<circle cx="113.543" cy="93.375" r="1.375" fill="#D4D4D4"/>
<circle cx="119.543" cy="93.375" r="1.375" fill="#D4D4D4"/>
<circle cx="125.293" cy="93.375" r="1.375" fill="#D4D4D4"/>
<circle cx="131.043" cy="93.375" r="1.375" fill="#D4D4D4"/>
<circle cx="136.793" cy="93.375" r="1.375" fill="#D4D4D4"/>
<circle cx="142.543" cy="93.375" r="1.375" fill="#D4D4D4"/>
<circle cx="96.543" cy="99.125" r="1.375" fill="#D4D4D4"/>
<circle cx="102.293" cy="99.125" r="1.375" fill="#D4D4D4"/>
<circle cx="96.543" cy="104.875" r="1.375" fill="#D4D4D4"/>
<circle cx="102.293" cy="104.875" r="1.375" fill="#D4D4D4"/>
<circle cx="108.043" cy="104.875" r="1.375" fill="#D4D4D4"/>
<circle cx="113.793" cy="104.875" r="1.375" fill="#D4D4D4"/>
<circle cx="119.543" cy="104.875" r="1.375" fill="#D4D4D4"/>
<circle cx="125.293" cy="104.875" r="1.375" fill="#D4D4D4"/>
<circle cx="131.043" cy="104.875" r="1.375" fill="#D4D4D4"/>
<circle cx="136.793" cy="104.875" r="1.375" fill="#D4D4D4"/>
<circle cx="142.543" cy="104.875" r="1.375" fill="#D4D4D4"/>
<circle cx="108.043" cy="99.125" r="1.375" fill="#D4D4D4"/>
<circle cx="113.543" cy="99.125" r="1.375" fill="#D4D4D4"/>
<circle cx="119.543" cy="99.125" r="1.375" fill="#D4D4D4"/>
<circle cx="125.293" cy="99.125" r="1.375" fill="#D4D4D4"/>
<circle cx="131.043" cy="99.125" r="1.375" fill="#D4D4D4"/>
<circle cx="136.793" cy="99.125" r="1.375" fill="#D4D4D4"/>
<circle cx="142.543" cy="99.125" r="1.375" fill="#D4D4D4"/>
<path d="M119.168 35V56" stroke="black"/>
<path d="M122.168 35V56" stroke="black"/>
<path d="M125.168 35V56" stroke="black"/>
<path d="M128.168 35V56" stroke="black"/>
<path d="M131.168 35V56" stroke="black"/>
</svg>
