<svg width="40" height="41" viewBox="0 0 40 41" fill="none" xmlns="http://www.w3.org/2000/svg">
<circle cx="20.001" cy="20.2119" r="19.5" stroke="url(#paint0_linear)"/>
<g clip-path="url(#clip0)">
<path d="M31.7765 26.544C31.7084 26.43 31.2872 25.5147 29.2604 23.6336C27.1385 21.6638 27.4236 21.9836 29.9793 18.5776C31.5358 16.5033 32.1581 15.2365 31.9633 14.695C31.7781 14.1788 30.6332 14.315 30.6332 14.315L26.8266 14.3371C26.8266 14.3371 26.5448 14.2991 26.3342 14.4242C26.1299 14.5477 25.9985 14.8328 25.9985 14.8328C25.9985 14.8328 25.3952 16.4384 24.5908 17.8033C22.8949 20.6836 22.2156 20.8356 21.9385 20.6567C21.294 20.2402 21.4555 18.9814 21.4555 18.0883C21.4555 15.2967 21.8783 14.1329 20.6306 13.832C20.2157 13.7323 19.9117 13.6658 18.8524 13.6547C17.4938 13.6404 16.3426 13.6594 15.6918 13.9777C15.2579 14.1899 14.9238 14.6633 15.1281 14.6902C15.3799 14.7235 15.9499 14.8438 16.2523 15.2555C16.6434 15.786 16.6292 16.9799 16.6292 16.9799C16.6292 16.9799 16.854 20.2656 16.1051 20.6741C15.5905 20.9544 14.8858 20.3828 13.3736 17.7685C12.5993 16.4305 12.0134 14.9499 12.0134 14.9499C12.0134 14.9499 11.901 14.6744 11.6999 14.5271C11.4561 14.3482 11.114 14.2912 11.114 14.2912L7.49428 14.3134C7.49428 14.3134 6.95115 14.3292 6.75164 14.5652C6.57429 14.7758 6.73739 15.2096 6.73739 15.2096C6.73739 15.2096 9.57176 21.8395 12.7798 25.1822C15.7235 28.2462 19.0645 28.0451 19.0645 28.0451H20.5783C20.5783 28.0451 21.0359 27.9944 21.2687 27.7426C21.4841 27.5114 21.4761 27.0776 21.4761 27.0776C21.4761 27.0776 21.446 25.046 22.3898 24.7467C23.3193 24.4522 24.5132 26.7102 25.7784 27.5795C26.7348 28.2367 27.4616 28.0926 27.4616 28.0926L30.8454 28.0451C30.8454 28.0451 32.6157 27.9358 31.7765 26.544Z" fill="url(#paint1_linear)"/>
</g>
<defs>
<linearGradient id="paint0_linear" x1="-6.50569" y1="44.2067" x2="39.5987" y2="-15.3909" gradientUnits="userSpaceOnUse">
<stop stop-color="#AB85FF"/>
<stop offset="0.526042" stop-color="#EBA3E3"/>
<stop offset="1" stop-color="#FFDBE4"/>
</linearGradient>
<linearGradient id="paint1_linear" x1="2.54805" y1="29.5495" x2="15.2654" y2="0.737935" gradientUnits="userSpaceOnUse">
<stop stop-color="#AB85FF"/>
<stop offset="0.526042" stop-color="#EBA3E3"/>
<stop offset="1" stop-color="#FFDBE4"/>
</linearGradient>
<clipPath id="clip0">
<rect width="25.3333" height="25.3333" fill="white" transform="translate(6.66895 8.21191)"/>
</clipPath>
</defs>
</svg>
