<svg width="40" height="41" viewBox="0 0 40 41" fill="none" xmlns="http://www.w3.org/2000/svg">
<circle cx="20.001" cy="20.2119" r="19.5" stroke="url(#paint0_linear)"/>
<g clip-path="url(#clip0)">
<path d="M27.7644 9.19482H12.2374C10.4638 9.19482 9.02051 10.6429 9.02051 12.4225V28.0012C9.02051 29.7807 10.4638 31.2288 12.2374 31.2288H27.7644C29.538 31.2288 30.9813 29.7807 30.9813 28.0012V12.4225C30.9813 10.6429 29.538 9.19482 27.7644 9.19482ZM20.0438 25.9785C16.8508 25.9785 14.2534 23.3724 14.2534 20.1688C14.2534 16.9652 16.8508 14.359 20.0438 14.359C23.2367 14.359 25.8342 16.9652 25.8342 20.1688C25.8342 23.3724 23.2367 25.9785 20.0438 25.9785ZM26.4776 15.6501C25.4134 15.6501 24.5475 14.7813 24.5475 13.7135C24.5475 12.6457 25.4134 11.7769 26.4776 11.7769C27.5419 11.7769 28.4078 12.6457 28.4078 13.7135C28.4078 14.7813 27.5419 15.6501 26.4776 15.6501Z" fill="url(#paint1_linear)"/>
<path d="M26.4779 13.0679C26.1228 13.0679 25.8345 13.3572 25.8345 13.7134C25.8345 14.0696 26.1228 14.3589 26.4779 14.3589C26.8329 14.3589 27.1212 14.0696 27.1212 13.7134C27.1212 13.3572 26.8329 13.0679 26.4779 13.0679Z" fill="url(#paint2_linear)"/>
<path d="M20.0432 15.6504C17.5602 15.6504 15.5396 17.6777 15.5396 20.1691C15.5396 22.6604 17.5602 24.6878 20.0432 24.6878C22.5263 24.6878 24.5469 22.6604 24.5469 20.1691C24.5469 17.6777 22.5263 15.6504 20.0432 15.6504Z" fill="url(#paint3_linear)"/>
</g>
<defs>
<linearGradient id="paint0_linear" x1="-6.50569" y1="44.2067" x2="39.5987" y2="-15.3909" gradientUnits="userSpaceOnUse">
<stop stop-color="#AB85FF"/>
<stop offset="0.526042" stop-color="#EBA3E3"/>
<stop offset="1" stop-color="#FFDBE4"/>
</linearGradient>
<linearGradient id="paint1_linear" x1="5.44822" y1="33.4293" x2="30.8659" y2="0.681906" gradientUnits="userSpaceOnUse">
<stop stop-color="#AB85FF"/>
<stop offset="0.526042" stop-color="#EBA3E3"/>
<stop offset="1" stop-color="#FFDBE4"/>
</linearGradient>
<linearGradient id="paint2_linear" x1="25.6252" y1="14.4879" x2="27.1145" y2="12.5691" gradientUnits="userSpaceOnUse">
<stop stop-color="#AB85FF"/>
<stop offset="0.526042" stop-color="#EBA3E3"/>
<stop offset="1" stop-color="#FFDBE4"/>
</linearGradient>
<linearGradient id="paint3_linear" x1="14.0744" y1="25.5903" x2="24.4996" y2="12.1588" gradientUnits="userSpaceOnUse">
<stop stop-color="#AB85FF"/>
<stop offset="0.526042" stop-color="#EBA3E3"/>
<stop offset="1" stop-color="#FFDBE4"/>
</linearGradient>
<clipPath id="clip0">
<rect width="21.9608" height="22.034" fill="white" transform="translate(9.02051 9.19482)"/>
</clipPath>
</defs>
</svg>
