<svg width="40" height="41" viewBox="0 0 40 41" fill="none" xmlns="http://www.w3.org/2000/svg">
<circle cx="20.001" cy="20.3628" r="19.5" stroke="url(#paint0_linear)"/>
<g clip-path="url(#clip0)">
<path d="M22.2034 17.593C21.9665 17.3547 21.7038 17.1434 21.4203 16.9631C20.6691 16.4822 19.7959 16.2266 18.904 16.2266C17.6661 16.2243 16.4784 16.7161 15.6046 17.593L11.3654 21.8356C10.493 22.7096 10.0027 23.8938 10.002 25.1287C10.0003 27.7055 12.0879 29.7958 14.6648 29.7975C15.9008 29.8018 17.0874 29.3122 17.9609 28.4377L21.4602 24.9383C21.5238 24.8753 21.5593 24.7893 21.5588 24.6998C21.5578 24.5157 21.4077 24.3674 21.2236 24.3684H21.0903C20.3592 24.371 19.6346 24.2306 18.9574 23.9552C18.8326 23.9038 18.6892 23.9328 18.5941 24.0285L16.0779 26.5481C15.2965 27.3294 14.0297 27.3294 13.2484 26.5481C12.4671 25.7667 12.4671 24.4999 13.2484 23.7186L17.5043 19.466C18.285 18.6862 19.5498 18.6862 20.3305 19.466C20.8566 19.9612 21.6774 19.9612 22.2035 19.466C22.4298 19.2394 22.5671 18.9389 22.5901 18.6195C22.6144 18.2377 22.4736 17.8638 22.2034 17.593Z" fill="url(#paint1_linear)"/>
<path d="M28.6326 11.164C26.8104 9.34181 23.856 9.34181 22.0338 11.164L18.5378 14.6567C18.4418 14.7532 18.4141 14.8983 18.4678 15.0233C18.5209 15.1487 18.6449 15.2292 18.781 15.2266H18.9043C19.6346 15.2253 20.358 15.3668 21.034 15.6432C21.1587 15.6946 21.3021 15.6656 21.3972 15.5699L23.9068 13.0637C24.6881 12.2823 25.9549 12.2823 26.7363 13.0637C27.5176 13.845 27.5176 15.1118 26.7363 15.8932L23.6101 19.0159L23.5835 19.0459L22.4903 20.1324C21.7096 20.9122 20.4449 20.9122 19.6642 20.1324C19.138 19.6372 18.3173 19.6372 17.7912 20.1324C17.5634 20.3607 17.426 20.6638 17.4046 20.9856C17.3802 21.3673 17.521 21.7412 17.7912 22.0121C18.1769 22.3995 18.6283 22.7154 19.1243 22.9452C19.1942 22.9785 19.2642 23.0052 19.3342 23.0352C19.4042 23.0652 19.4775 23.0885 19.5475 23.1152C19.6175 23.1419 19.6908 23.1652 19.7608 23.1852L19.9574 23.2385C20.0907 23.2718 20.2241 23.2985 20.3607 23.3218C20.5253 23.3462 20.691 23.3618 20.8573 23.3685H21.0905H21.1105L21.3105 23.3452C21.3838 23.3418 21.4605 23.3252 21.5471 23.3252H21.6604L21.8904 23.2918L21.9971 23.2718L22.1903 23.2319H22.227C23.0457 23.0262 23.7932 22.6024 24.39 22.0054L28.6325 17.7628C30.4548 15.9406 30.4548 12.9862 28.6326 11.164Z" fill="url(#paint2_linear)"/>
</g>
<defs>
<linearGradient id="paint0_linear" x1="-6.50569" y1="44.3576" x2="39.5987" y2="-15.24" gradientUnits="userSpaceOnUse">
<stop stop-color="#AB85FF"/>
<stop offset="0.526042" stop-color="#EBA3E3"/>
<stop offset="1" stop-color="#FFDBE4"/>
</linearGradient>
<linearGradient id="paint1_linear" x1="7.95384" y1="31.1528" x2="23.8508" y2="12.0875" gradientUnits="userSpaceOnUse">
<stop stop-color="#AB85FF"/>
<stop offset="0.526042" stop-color="#EBA3E3"/>
<stop offset="1" stop-color="#FFDBE4"/>
</linearGradient>
<linearGradient id="paint2_linear" x1="15.3527" y1="24.7238" x2="31.2484" y2="5.65025" gradientUnits="userSpaceOnUse">
<stop stop-color="#AB85FF"/>
<stop offset="0.526042" stop-color="#EBA3E3"/>
<stop offset="1" stop-color="#FFDBE4"/>
</linearGradient>
<clipPath id="clip0">
<rect width="20" height="20" fill="white" transform="translate(10.001 9.79736)"/>
</clipPath>
</defs>
</svg>
