<svg width="40" height="41" viewBox="0 0 40 41" fill="none" xmlns="http://www.w3.org/2000/svg">
<circle cx="20.001" cy="20.2119" r="19.5" stroke="url(#paint0_linear)"/>
<g clip-path="url(#clip0)">
<path d="M16.895 23.8827L16.52 29.1565C17.0565 29.1565 17.2888 28.926 17.5674 28.6493L20.0825 26.2457L25.2939 30.0622C26.2497 30.5949 26.9231 30.3144 27.1809 29.1829L30.6017 13.1538L30.6026 13.1529C30.9058 11.74 30.0917 11.1875 29.1605 11.5341L9.05326 19.2323C7.68098 19.7649 7.70176 20.5299 8.81998 20.8765L13.9606 22.4755L25.9012 15.004C26.4631 14.6319 26.9741 14.8378 26.5538 15.2099L16.895 23.8827Z" fill="url(#paint1_linear)"/>
</g>
<defs>
<linearGradient id="paint0_linear" x1="-6.50569" y1="44.2067" x2="39.5987" y2="-15.3909" gradientUnits="userSpaceOnUse">
<stop stop-color="#AB85FF"/>
<stop offset="0.526042" stop-color="#EBA3E3"/>
<stop offset="1" stop-color="#FFDBE4"/>
</linearGradient>
<linearGradient id="paint1_linear" x1="4.31395" y1="32.209" x2="24.8009" y2="0.430681" gradientUnits="userSpaceOnUse">
<stop stop-color="#AB85FF"/>
<stop offset="0.526042" stop-color="#EBA3E3"/>
<stop offset="1" stop-color="#FFDBE4"/>
</linearGradient>
<clipPath id="clip0">
<rect width="22.6667" height="22.6667" fill="white" transform="translate(8.00098 9.54541)"/>
</clipPath>
</defs>
</svg>
