<svg width="44" height="46" viewBox="0 0 44 46" fill="none" xmlns="http://www.w3.org/2000/svg">
<g clip-path="url(#clip0)">
<path d="M37.5268 0.966064H6.47289C2.92557 0.966064 0.0390625 3.86219 0.0390625 7.42133V38.5788C0.0390625 42.1379 2.92557 45.034 6.47289 45.034H37.5268C41.0741 45.034 43.9606 42.1379 43.9606 38.5788V7.42133C43.9606 3.86219 41.0741 0.966064 37.5268 0.966064ZM22.0856 34.5334C15.6997 34.5334 10.5047 29.3212 10.5047 22.914C10.5047 16.5068 15.6997 11.2945 22.0856 11.2945C28.4715 11.2945 33.6665 16.5068 33.6665 22.914C33.6665 29.3212 28.4715 34.5334 22.0856 34.5334ZM34.9533 13.8766C32.8248 13.8766 31.093 12.1391 31.093 10.0034C31.093 7.86782 32.8248 6.13028 34.9533 6.13028C37.0818 6.13028 38.8136 7.86782 38.8136 10.0034C38.8136 12.1391 37.0818 13.8766 34.9533 13.8766Z" fill="url(#paint0_linear)"/>
<path d="M34.9533 8.71216C34.2432 8.71216 33.6665 9.29078 33.6665 10.0032C33.6665 10.7156 34.2432 11.2943 34.9533 11.2943C35.6633 11.2943 36.24 10.7156 36.24 10.0032C36.24 9.29078 35.6633 8.71216 34.9533 8.71216Z" fill="url(#paint1_linear)"/>
<path d="M22.0855 13.8767C17.1194 13.8767 13.0781 17.9314 13.0781 22.9141C13.0781 27.8967 17.1194 31.9515 22.0855 31.9515C27.0516 31.9515 31.0928 27.8967 31.0928 22.9141C31.0928 17.9314 27.0516 13.8767 22.0855 13.8767Z" fill="url(#paint2_linear)"/>
</g>
<defs>
<linearGradient id="paint0_linear" x1="-7.10552" y1="49.4351" x2="43.7298" y2="-16.0598" gradientUnits="userSpaceOnUse">
<stop stop-color="#AB85FF"/>
<stop offset="0.526042" stop-color="#EBA3E3"/>
<stop offset="1" stop-color="#FFDBE4"/>
</linearGradient>
<linearGradient id="paint1_linear" x1="33.2479" y1="11.5521" x2="36.2265" y2="7.71456" gradientUnits="userSpaceOnUse">
<stop stop-color="#AB85FF"/>
<stop offset="0.526042" stop-color="#EBA3E3"/>
<stop offset="1" stop-color="#FFDBE4"/>
</linearGradient>
<linearGradient id="paint2_linear" x1="10.1477" y1="33.7566" x2="30.9982" y2="6.89346" gradientUnits="userSpaceOnUse">
<stop stop-color="#AB85FF"/>
<stop offset="0.526042" stop-color="#EBA3E3"/>
<stop offset="1" stop-color="#FFDBE4"/>
</linearGradient>
<clipPath id="clip0">
<rect width="43.9216" height="44.068" fill="white" transform="translate(0.0390625 0.966064)"/>
</clipPath>
</defs>
</svg>
