<svg width="22" height="23" viewBox="0 0 22 23" fill="none" xmlns="http://www.w3.org/2000/svg">
<path d="M18.7644 0.194824H3.23742C1.46376 0.194824 0.0205078 1.64289 0.0205078 3.42246V19.0012C0.0205078 20.7807 1.46376 22.2288 3.23742 22.2288H18.7644C20.538 22.2288 21.9813 20.7807 21.9813 19.0012V3.42246C21.9813 1.64289 20.538 0.194824 18.7644 0.194824ZM11.0438 16.9785C7.85084 16.9785 5.25335 14.3724 5.25335 11.1688C5.25335 7.96518 7.85084 5.35904 11.0438 5.35904C14.2367 5.35904 16.8342 7.96518 16.8342 11.1688C16.8342 14.3724 14.2367 16.9785 11.0438 16.9785ZM17.4776 6.65009C16.4134 6.65009 15.5475 5.78132 15.5475 4.71351C15.5475 3.6457 16.4134 2.77693 17.4776 2.77693C18.5419 2.77693 19.4078 3.6457 19.4078 4.71351C19.4078 5.78132 18.5419 6.65009 17.4776 6.65009Z" fill="url(#paint0_linear)"/>
<defs>
<linearGradient id="paint0_linear" x1="-3.55178" y1="24.4293" x2="21.8659" y2="-8.31809" gradientUnits="userSpaceOnUse">
<stop stop-color="#AB85FF"/>
<stop offset="0.526042" stop-color="#EBA3E3"/>
<stop offset="1" stop-color="#FFDBE4"/>
</linearGradient>
</defs>
</svg>
