<svg width="20" height="21" viewBox="0 0 20 21" fill="none" xmlns="http://www.w3.org/2000/svg">
<g clip-path="url(#clip0)">
<path d="M12.2034 8.59301C11.9665 8.35469 11.7038 8.14344 11.4203 7.96312C10.6691 7.48215 9.79594 7.22657 8.90403 7.22657C7.66609 7.22427 6.47845 7.71613 5.60462 8.59301L1.36538 12.8356C0.493038 13.7096 0.0027352 14.8938 0.00195409 16.1287C0.000313761 18.7055 2.08791 20.7958 4.66479 20.7975C5.90082 20.8018 7.08736 20.3122 7.96088 19.4377L11.4602 15.9383C11.5238 15.8753 11.5593 15.7893 11.5588 15.6998C11.5578 15.5157 11.4077 15.3674 11.2236 15.3684H11.0903C10.3592 15.371 9.6346 15.2306 8.95738 14.9552C8.83259 14.9038 8.68918 14.9328 8.59412 15.0285L6.07789 17.5481C5.29655 18.3294 4.02975 18.3294 3.2484 17.5481C2.46706 16.7667 2.46706 15.4999 3.2484 14.7186L7.50432 10.466C8.28504 9.68625 9.54977 9.68625 10.3305 10.466C10.8566 10.9612 11.6774 10.9612 12.2035 10.466C12.4298 10.2394 12.5671 9.93894 12.5901 9.61946C12.6144 9.2377 12.4736 8.86382 12.2034 8.59301Z" fill="url(#paint0_linear)"/>
<path d="M18.6326 2.16402C16.8104 0.34181 13.856 0.34181 12.0338 2.16402L8.53776 5.65672C8.44176 5.75318 8.41407 5.89827 8.46777 6.02333C8.52085 6.14874 8.64489 6.22923 8.78104 6.22661H8.90434C9.6346 6.22529 10.358 6.36678 11.034 6.64322C11.1587 6.69458 11.3021 6.6656 11.3972 6.56991L13.9068 4.06368C14.6881 3.28234 15.9549 3.28234 16.7363 4.06368C17.5176 4.84503 17.5176 6.11183 16.7363 6.89317L13.6101 10.0159L13.5835 10.0459L12.4903 11.1324C11.7096 11.9122 10.4449 11.9122 9.66416 11.1324C9.13801 10.6372 8.31729 10.6372 7.79118 11.1324C7.56337 11.3607 7.42601 11.6638 7.40457 11.9856C7.3802 12.3673 7.52099 12.7412 7.79118 13.0121C8.17693 13.3995 8.62825 13.7154 9.12426 13.9452C9.19425 13.9785 9.26423 14.0052 9.33422 14.0352C9.40421 14.0652 9.47752 14.0885 9.5475 14.1152C9.61749 14.1419 9.6908 14.1652 9.76078 14.1852L9.95743 14.2385C10.0907 14.2718 10.2241 14.2985 10.3607 14.3218C10.5253 14.3462 10.691 14.3618 10.8573 14.3685H11.0905H11.1105L11.3105 14.3452C11.3838 14.3418 11.4605 14.3252 11.5471 14.3252H11.6604L11.8904 14.2918L11.9971 14.2718L12.1903 14.2319H12.227C13.0457 14.0262 13.7932 13.6024 14.39 13.0054L18.6325 8.76284C20.4548 6.94063 20.4548 3.98623 18.6326 2.16402Z" fill="url(#paint1_linear)"/>
</g>
<defs>
<linearGradient id="paint0_linear" x1="-2.04616" y1="22.1528" x2="13.8508" y2="3.08749" gradientUnits="userSpaceOnUse">
<stop stop-color="#AB85FF"/>
<stop offset="0.526042" stop-color="#EBA3E3"/>
<stop offset="1" stop-color="#FFDBE4"/>
</linearGradient>
<linearGradient id="paint1_linear" x1="5.35267" y1="15.7238" x2="21.2484" y2="-3.34975" gradientUnits="userSpaceOnUse">
<stop stop-color="#AB85FF"/>
<stop offset="0.526042" stop-color="#EBA3E3"/>
<stop offset="1" stop-color="#FFDBE4"/>
</linearGradient>
<clipPath id="clip0">
<rect width="20" height="20" fill="white" transform="translate(0.000976562 0.797363)"/>
</clipPath>
</defs>
</svg>
