<svg width="26" height="25" viewBox="0 0 26 25" fill="none" xmlns="http://www.w3.org/2000/svg">
<g clip-path="url(#clip0)">
<path d="M12.9999 0.48999C9.55308 0.48999 6.75 3.15378 6.75 6.42932C6.75 9.70486 9.55308 12.3686 12.9999 12.3686C16.4467 12.3686 19.2498 9.70486 19.2498 6.42932C19.2498 3.15378 16.4467 0.48999 12.9999 0.48999ZM12.9999 9.39898C11.2765 9.39898 9.87495 8.06709 9.87495 6.42932C9.87495 4.79155 11.2765 3.45966 12.9999 3.45966C14.7233 3.45966 16.1249 4.79155 16.1249 6.42932C16.1249 8.06709 14.7233 9.39898 12.9999 9.39898Z" fill="url(#paint0_linear)"/>
<path d="M21.2872 12.204C20.6763 11.6234 19.6888 11.6234 19.0779 12.204C15.7279 15.3875 10.2749 15.3875 6.9234 12.204C6.31247 11.6234 5.32498 11.6234 4.71406 12.204C4.10313 12.7846 4.10313 13.723 4.71406 14.305C6.65777 16.1522 9.1218 17.2049 11.6624 17.4796L7.20777 21.7129C6.59684 22.2934 6.59684 23.2319 7.20777 23.8124C7.81869 24.393 8.80618 24.393 9.41711 23.8124L12.9999 20.4077L16.5826 23.8124C16.8873 24.102 17.2873 24.2475 17.6873 24.2475C18.0873 24.2475 18.4873 24.102 18.792 23.8124C19.4029 23.2319 19.4029 22.2934 18.792 21.7129L14.3373 17.4796C16.8779 17.2049 19.342 16.1522 21.2857 14.305C21.8966 13.7245 21.8966 12.7846 21.2872 12.204Z" fill="url(#paint1_linear)"/>
</g>
<defs>
<linearGradient id="paint0_linear" x1="4.7167" y1="13.555" x2="18.2177" y2="-4.80987" gradientUnits="userSpaceOnUse">
<stop stop-color="#AB85FF"/>
<stop offset="0.526042" stop-color="#EBA3E3"/>
<stop offset="1" stop-color="#FFDBE4"/>
</linearGradient>
<linearGradient id="paint1_linear" x1="1.41111" y1="25.4942" x2="13.9857" y2="2.71507" gradientUnits="userSpaceOnUse">
<stop stop-color="#AB85FF"/>
<stop offset="0.526042" stop-color="#EBA3E3"/>
<stop offset="1" stop-color="#FFDBE4"/>
</linearGradient>
<clipPath id="clip0">
<rect width="25" height="23.7577" fill="white" transform="translate(0.5 0.48999)"/>
</clipPath>
</defs>
</svg>
