<svg width="18" height="19" viewBox="0 0 18 19" fill="none" xmlns="http://www.w3.org/2000/svg">
<g clip-path="url(#clip0)">
<path d="M0.580078 17.8457H17.4195" stroke="#E29FE8" stroke-width="1.5"/>
<path d="M17.4857 17.793C17.3658 15.7099 16.4981 13.7703 15.0104 12.2825C15.0104 12.2825 15.0104 12.2825 15.0104 12.2825M17.4857 17.793L12.4993 9.99645C13.5566 10.4424 14.5281 11.0931 15.364 11.929L15.0104 12.2825M17.4857 17.793H17.0785C16.8194 13.5616 13.2955 10.1992 9 10.1992C4.70454 10.1992 1.18055 13.5616 0.921512 17.793H0.514344C0.634211 15.7099 1.50192 13.7703 2.98961 12.2825M17.4857 17.793L2.98961 12.2825M15.0104 12.2825C14.0836 11.3557 12.9819 10.6709 11.7809 10.2565L10.8451 9.93356L11.6603 9.37204C12.8946 8.52193 13.7031 7.10114 13.7031 5.49609C13.7031 2.90324 11.5929 0.792969 9 0.792969C6.40715 0.792969 4.29688 2.90324 4.29688 5.49609C4.29688 7.10114 5.10538 8.52193 6.33969 9.37204L7.15499 9.93355L6.21918 10.2565C5.01814 10.6709 3.91644 11.3557 2.98961 12.2825M15.0104 12.2825L2.98961 12.2825M4.70312 5.49609C4.70312 7.86586 6.63027 9.79297 9 9.79297C11.3697 9.79297 13.2969 7.86586 13.2969 5.49609C13.2969 3.12632 11.3697 1.19922 9 1.19922C6.63027 1.19922 4.70312 3.12632 4.70312 5.49609Z" fill="url(#paint0_linear)" stroke="url(#paint1_linear)"/>
</g>
<defs>
<linearGradient id="paint0_linear" x1="-2.928" y1="20.0906" x2="17.819" y2="-6.72828" gradientUnits="userSpaceOnUse">
<stop stop-color="#AB85FF"/>
<stop offset="0.526042" stop-color="#EBA3E3"/>
<stop offset="1" stop-color="#FFDBE4"/>
</linearGradient>
<linearGradient id="paint1_linear" x1="-2.928" y1="20.0906" x2="17.819" y2="-6.72828" gradientUnits="userSpaceOnUse">
<stop stop-color="#AB85FF"/>
<stop offset="0.526042" stop-color="#EBA3E3"/>
<stop offset="1" stop-color="#FFDBE4"/>
</linearGradient>
<clipPath id="clip0">
<rect width="18" height="18" fill="white" transform="translate(0 0.292969)"/>
</clipPath>
</defs>
</svg>
