<svg width="51" height="30" viewBox="0 0 51 30" fill="none" xmlns="http://www.w3.org/2000/svg">
<path d="M50.5485 26.6641C50.4124 26.4361 49.57 24.6056 45.5163 20.8433C41.2727 16.9037 41.8427 17.5434 46.9541 10.7314C50.0672 6.58277 51.3118 4.04924 50.9222 2.96616C50.5517 1.93375 48.2621 2.20611 48.2621 2.20611L40.6488 2.25044C40.6488 2.25044 40.0851 2.17444 39.6639 2.42462C39.2554 2.67164 38.9925 3.24168 38.9925 3.24168C38.9925 3.24168 37.7859 6.45292 36.1772 9.18279C32.7854 14.9434 31.4268 15.2474 30.8726 14.8895C29.5837 14.0567 29.9067 11.539 29.9067 9.75283C29.9067 4.16959 30.7523 1.84191 28.2568 1.2402C27.427 1.04069 26.819 0.907677 24.7003 0.885508C21.9831 0.857006 19.6808 0.895009 18.3792 1.53156C17.5115 1.95592 16.8432 2.90283 17.2518 2.95666C17.7553 3.02317 18.8954 3.26385 19.5003 4.08725C20.2825 5.14816 20.254 7.536 20.254 7.536C20.254 7.536 20.7037 14.1073 19.2058 14.9244C18.1765 15.4849 16.7672 14.3417 13.7429 9.11312C12.1942 6.43709 11.0225 3.47604 11.0225 3.47604C11.0225 3.47604 10.7976 2.92499 10.3954 2.63047C9.90774 2.27261 9.22369 2.1586 9.22369 2.1586L1.98416 2.20294C1.98416 2.20294 0.897911 2.23461 0.498882 2.70648C0.144189 3.12768 0.47038 3.99541 0.47038 3.99541C0.47038 3.99541 6.13913 17.2552 12.5553 23.9406C18.4425 30.0685 25.1247 29.6663 25.1247 29.6663H28.1522C28.1522 29.6663 29.0675 29.565 29.533 29.0614C29.9637 28.5991 29.9479 27.7313 29.9479 27.7313C29.9479 27.7313 29.8877 23.6682 31.7752 23.0697C33.6341 22.4806 36.022 26.9966 38.5523 28.7352C40.4651 30.0495 41.9188 29.7613 41.9188 29.7613L48.6864 29.6663C48.6864 29.6663 52.227 29.4478 50.5485 26.6641Z" fill="url(#paint0_linear)"/>
<defs>
<linearGradient id="paint0_linear" x1="-7.90829" y1="32.6753" x2="17.5263" y2="-24.948" gradientUnits="userSpaceOnUse">
<stop stop-color="#AB85FF"/>
<stop offset="0.526042" stop-color="#EBA3E3"/>
<stop offset="1" stop-color="#FFDBE4"/>
</linearGradient>
</defs>
</svg>
