<svg width="27" height="16" viewBox="0 0 27 16" fill="none" xmlns="http://www.w3.org/2000/svg">
<path d="M25.7765 13.544C25.7084 13.43 25.2872 12.5147 23.2604 10.6336C21.1385 8.66376 21.4236 8.98362 23.9793 5.57762C25.5358 3.5033 26.1581 2.23654 25.9633 1.695C25.7781 1.17879 24.6332 1.31497 24.6332 1.31497L20.8266 1.33714C20.8266 1.33714 20.5448 1.29913 20.3342 1.42423C20.1299 1.54773 19.9985 1.83276 19.9985 1.83276C19.9985 1.83276 19.3952 3.43837 18.5908 4.80331C16.8949 7.68361 16.2156 7.83562 15.9385 7.65669C15.294 7.24024 15.4555 5.9814 15.4555 5.08833C15.4555 2.29671 15.8783 1.13287 14.6306 0.832015C14.2157 0.732257 13.9117 0.665752 12.8524 0.654668C11.4938 0.640417 10.3426 0.659419 9.69179 0.977692C9.25793 1.18987 8.92382 1.66333 9.12809 1.69025C9.37985 1.7235 9.9499 1.84384 10.2523 2.25554C10.6434 2.78599 10.6292 3.97992 10.6292 3.97992C10.6292 3.97992 10.854 7.26558 10.1051 7.67411C9.59045 7.95438 8.88582 7.38275 7.37362 4.76847C6.59932 3.43046 6.01344 1.94993 6.01344 1.94993C6.01344 1.94993 5.90102 1.67441 5.69992 1.52715C5.45607 1.34822 5.11404 1.29122 5.11404 1.29122L1.49428 1.31338C1.49428 1.31338 0.951153 1.32922 0.751638 1.56515C0.574292 1.77575 0.737387 2.20962 0.737387 2.20962C0.737387 2.20962 3.57176 8.83953 6.77983 12.1822C9.72346 15.2462 13.0645 15.0451 13.0645 15.0451H14.5783C14.5783 15.0451 15.0359 14.9944 15.2687 14.7426C15.4841 14.5114 15.4761 14.0776 15.4761 14.0776C15.4761 14.0776 15.446 12.046 16.3898 11.7467C17.3193 11.4522 18.5132 13.7102 19.7784 14.5795C20.7348 15.2367 21.4616 15.0926 21.4616 15.0926L24.8454 15.0451C24.8454 15.0451 26.6157 14.9358 25.7765 13.544Z" fill="url(#paint0_linear)"/>
<defs>
<linearGradient id="paint0_linear" x1="-3.45195" y1="16.5495" x2="9.26536" y2="-12.2621" gradientUnits="userSpaceOnUse">
<stop stop-color="#AB85FF"/>
<stop offset="0.526042" stop-color="#EBA3E3"/>
<stop offset="1" stop-color="#FFDBE4"/>
</linearGradient>
</defs>
</svg>
