<svg width="209" height="83" viewBox="0 0 209 83" fill="none" xmlns="http://www.w3.org/2000/svg">
<g clip-path="url(#clip0)">
<path d="M183.891 33.0638H180.636C180.363 32.1725 180.005 31.3116 179.571 30.4916L181.871 28.1916C182.363 27.6994 182.635 27.0438 182.635 26.3455C182.635 25.6481 182.363 24.9925 181.871 24.5003L179.41 22.0394C178.427 21.056 176.705 21.0534 175.72 22.0394L173.42 24.3394C172.601 23.9055 171.739 23.549 170.848 23.2751V20.0203C170.848 18.5821 169.677 17.4116 168.239 17.4116H164.761C163.323 17.4116 162.152 18.5821 162.152 20.0203V23.276C161.261 23.5499 160.4 23.9064 159.58 24.3403L157.279 22.0403C156.262 21.0229 154.606 21.0229 153.589 22.0403L151.127 24.5012C150.11 25.5186 150.11 27.1742 151.127 28.1916L153.427 30.4925C152.993 31.3116 152.637 32.1734 152.363 33.0647H149.109C147.67 33.0647 146.5 34.2351 146.5 35.6734V39.1516C146.5 40.589 147.67 41.7594 149.109 41.7594H152.364C152.638 42.6508 152.995 43.5116 153.429 44.3316L151.129 46.6325C150.111 47.6499 150.111 49.3055 151.129 50.3229L153.59 52.7847C154.607 53.8012 156.263 53.8012 157.28 52.7847L159.581 50.4847C160.4 50.9186 161.262 51.2751 162.153 51.549V54.8029C162.153 56.2412 163.323 57.4116 164.762 57.4116H168.24C169.678 57.4116 170.849 56.2412 170.849 54.8029V51.5473C171.74 51.2734 172.602 50.9168 173.421 50.4829L175.721 52.7838C176.707 53.769 178.429 53.7673 179.411 52.7838L181.872 50.3229C182.364 49.8307 182.636 49.1751 182.636 48.4777C182.636 47.7794 182.364 47.1247 181.872 46.6325L179.572 44.3316C180.006 43.5125 180.363 42.6508 180.637 41.7594H183.891C185.33 41.7594 186.5 40.589 186.5 39.1508V35.6725C186.5 34.2342 185.33 33.0638 183.891 33.0638ZM184.761 39.1508C184.761 39.6299 184.371 40.0203 183.891 40.0203H179.978C179.582 40.0203 179.236 40.289 179.137 40.6725C178.829 41.8594 178.36 42.9925 177.742 44.0394C177.541 44.3812 177.596 44.816 177.876 45.096L180.641 47.8621C180.804 48.0255 180.895 48.2438 180.895 48.4777C180.895 48.7116 180.804 48.9299 180.641 49.0934L178.18 51.5542C177.853 51.8812 177.277 51.8812 176.949 51.5542L174.183 48.789C173.903 48.5081 173.469 48.4542 173.126 48.6551C172.081 49.2725 170.948 49.7421 169.76 50.049C169.377 50.1473 169.109 50.4934 169.109 50.8899V54.8029C169.109 55.2821 168.719 55.6725 168.239 55.6725H164.761C164.282 55.6725 163.891 55.2821 163.891 54.8029V50.8899C163.891 50.4934 163.623 50.1473 163.239 50.0481C162.052 49.7412 160.919 49.2725 159.872 48.6542C159.735 48.5725 159.583 48.5334 159.43 48.5334C159.205 48.5334 158.983 48.6203 158.815 48.7881L156.05 51.5534C155.71 51.8925 155.158 51.8925 154.818 51.5534L152.357 49.0925C152.017 48.7525 152.017 48.2003 152.357 47.8612L155.123 45.096C155.403 44.8151 155.458 44.3803 155.257 44.0394C154.639 42.9925 154.17 41.8603 153.863 40.6725C153.764 40.289 153.418 40.0203 153.022 40.0203H149.109C148.63 40.0203 148.239 39.6299 148.239 39.1508V35.6725C148.239 35.1934 148.63 34.8029 149.109 34.8029H153.022C153.418 34.8029 153.764 34.5342 153.863 34.1508C154.17 32.9638 154.639 31.8308 155.257 30.7838C155.459 30.4421 155.404 30.0073 155.123 29.7273L152.358 26.9621C152.019 26.6229 152.019 26.0708 152.358 25.7308L154.819 23.2699C155.159 22.9299 155.71 22.9308 156.05 23.2699L158.816 26.0351C159.097 26.316 159.53 26.3716 159.872 26.169C160.919 25.5516 162.051 25.0821 163.239 24.7751C163.623 24.676 163.891 24.3299 163.891 23.9334V20.0203C163.891 19.5412 164.282 19.1508 164.761 19.1508H168.239C168.719 19.1508 169.109 19.5412 169.109 20.0203V23.9334C169.109 24.3299 169.377 24.676 169.761 24.7751C170.949 25.0821 172.082 25.5516 173.127 26.169C173.47 26.3708 173.904 26.3168 174.184 26.0351L176.95 23.2699C177.277 22.9412 177.854 22.9421 178.181 23.2699L180.642 25.7308C180.805 25.8942 180.896 26.1134 180.896 26.3464C180.896 26.5794 180.805 26.7986 180.642 26.9621L177.877 29.7273C177.597 30.0081 177.541 30.4429 177.743 30.7838C178.361 31.8308 178.83 32.9629 179.137 34.1508C179.236 34.5342 179.582 34.8029 179.978 34.8029H183.891C184.371 34.8029 184.761 35.1934 184.761 35.6725V39.1508Z" fill="url(#paint0_linear)"/>
<path d="M166.5 29.5854C162.185 29.5854 158.674 33.0968 158.674 37.4115C158.674 41.7263 162.185 45.2376 166.5 45.2376C170.816 45.2376 174.326 41.7263 174.326 37.4115C174.326 33.0968 170.816 29.5854 166.5 29.5854ZM166.5 43.4985C163.143 43.4985 160.413 40.7681 160.413 37.4115C160.413 34.055 163.143 31.3246 166.5 31.3246C169.856 31.3246 172.587 34.055 172.587 37.4115C172.587 40.7681 169.856 43.4985 166.5 43.4985Z" fill="url(#paint1_linear)"/>
</g>
<g clip-path="url(#clip1)">
<path d="M46.3478 37.801H43.6619C43.4367 37.088 43.1418 36.3993 42.7838 35.7433L44.6813 33.9033C45.0874 33.5096 45.3112 32.985 45.3112 32.4264C45.3112 31.8685 45.0874 31.344 44.6813 30.9503L42.6511 28.9816C41.8397 28.1948 40.4193 28.1927 39.6065 28.9816L37.709 30.8216C37.0332 30.4744 36.3223 30.1892 35.587 29.9701V27.3663C35.587 26.2156 34.6213 25.2793 33.4348 25.2793H30.5652C29.3787 25.2793 28.413 26.2156 28.413 27.3663V29.9708C27.6777 30.1899 26.9675 30.4751 26.291 30.8223L24.3928 28.9823C23.5534 28.1683 22.1875 28.1683 21.3482 28.9823L19.3172 30.9509C18.4786 31.7649 18.4786 33.0894 19.3172 33.9033L21.2147 35.744C20.8568 36.3993 20.5626 37.0887 20.3367 37.8017H17.6522C16.4656 37.8017 15.5 38.7381 15.5 39.8887V42.6713C15.5 43.8212 16.4656 44.7576 17.6522 44.7576H20.3381C20.5641 45.4706 20.8582 46.1593 21.2162 46.8153L19.3187 48.656C18.4793 49.4699 18.4793 50.7944 19.3187 51.6083L21.3489 53.5777C22.1882 54.391 23.5542 54.391 24.3935 53.5777L26.2917 51.7377C26.9675 52.0849 27.6784 52.3701 28.4138 52.5892V55.1923C28.4138 56.3429 29.3794 57.2793 30.5659 57.2793H33.4355C34.6221 57.2793 35.5877 56.3429 35.5877 55.1923V52.5878C36.323 52.3687 37.0339 52.0835 37.7097 51.7363L39.6072 53.577C40.4207 54.3652 41.8412 54.3638 42.6518 53.577L44.682 51.6083C45.0881 51.2146 45.3119 50.6901 45.3119 50.1322C45.3119 49.5736 45.0881 49.0497 44.682 48.656L42.7845 46.8153C43.1425 46.16 43.4367 45.4706 43.6626 44.7576H46.3478C47.5344 44.7576 48.5 43.8212 48.5 42.6706V39.888C48.5 38.7374 47.5344 37.801 46.3478 37.801ZM47.0652 42.6706C47.0652 43.0539 46.7438 43.3663 46.3478 43.3663H43.1196C42.7924 43.3663 42.5069 43.5812 42.4251 43.888C42.1712 44.8376 41.7845 45.744 41.2744 46.5816C41.1087 46.8549 41.1539 47.2028 41.3849 47.4268L43.6662 49.6396C43.8011 49.7704 43.8757 49.945 43.8757 50.1322C43.8757 50.3193 43.8011 50.4939 43.6662 50.6247L41.636 52.5934C41.3663 52.8549 40.8906 52.8549 40.6202 52.5934L38.3389 50.3812C38.1079 50.1565 37.7492 50.1134 37.4665 50.2741C36.6042 50.768 35.6695 51.1436 34.6895 51.3892C34.3738 51.4678 34.1522 51.7447 34.1522 52.0619V55.1923C34.1522 55.5756 33.8308 55.888 33.4348 55.888H30.5652C30.1699 55.888 29.8478 55.5756 29.8478 55.1923V52.0619C29.8478 51.7447 29.6262 51.4678 29.3098 51.3885C28.3305 51.143 27.3958 50.768 26.532 50.2734C26.4187 50.208 26.2932 50.1767 26.1676 50.1767C25.9818 50.1767 25.7982 50.2463 25.6597 50.3805L23.3784 52.5927C23.0979 52.864 22.6431 52.864 22.3626 52.5927L20.3323 50.624C20.0518 50.352 20.0518 49.9103 20.3323 49.6389L22.6137 47.4268C22.8454 47.2021 22.8906 46.8543 22.7241 46.5816C22.2148 45.744 21.8274 44.8383 21.5742 43.888C21.4931 43.5812 21.2076 43.3663 20.8804 43.3663H17.6522C17.2569 43.3663 16.9348 43.0539 16.9348 42.6706V39.888C16.9348 39.5047 17.2569 39.1923 17.6522 39.1923H20.8804C21.2076 39.1923 21.4931 38.9774 21.5749 38.6706C21.8281 37.721 22.2148 36.8146 22.7248 35.977C22.8913 35.7036 22.8461 35.3558 22.6144 35.1318L20.3331 32.9196C20.0533 32.6483 20.0533 32.2066 20.3331 31.9346L22.3633 29.9659C22.6438 29.6939 23.0986 29.6946 23.3791 29.9659L25.6604 32.1781C25.8921 32.4028 26.2501 32.4473 26.532 32.2852C27.3958 31.7913 28.3298 31.4156 29.3098 31.1701C29.6262 31.0908 29.8478 30.8139 29.8478 30.4967V27.3663C29.8478 26.9829 30.1699 26.6706 30.5652 26.6706H33.4348C33.8308 26.6706 34.1522 26.9829 34.1522 27.3663V30.4967C34.1522 30.8139 34.3738 31.0908 34.6902 31.1701C35.6702 31.4156 36.6049 31.7913 37.4672 32.2852C37.7499 32.4466 38.1086 32.4035 38.3396 32.1781L40.6209 29.9659C40.8913 29.7029 41.367 29.7036 41.6367 29.9659L43.6669 31.9346C43.8018 32.0654 43.8764 32.2407 43.8764 32.4271C43.8764 32.6136 43.8018 32.7889 43.6669 32.9196L41.3856 35.1318C41.1546 35.3565 41.1087 35.7043 41.2752 35.977C41.7852 36.8146 42.1719 37.7203 42.4258 38.6706C42.5069 38.9774 42.7924 39.1923 43.1196 39.1923H46.3478C46.7438 39.1923 47.0652 39.5047 47.0652 39.888V42.6706Z" fill="url(#paint2_linear)"/>
<path d="M32 35.0186C28.4403 35.0186 25.5435 37.8276 25.5435 41.2794C25.5435 44.7312 28.4403 47.5403 32 47.5403C35.5604 47.5403 38.4565 44.7312 38.4565 41.2794C38.4565 37.8276 35.5604 35.0186 32 35.0186ZM32 46.149C29.2308 46.149 26.9782 43.9646 26.9782 41.2794C26.9782 38.5942 29.2308 36.4099 32 36.4099C34.7684 36.4099 37.0217 38.5942 37.0217 41.2794C37.0217 43.9646 34.7684 46.149 32 46.149Z" fill="url(#paint3_linear)"/>
</g>
<path d="M64.0417 13.9761H0.974676V68.5829H64.0417M64.0417 13.9761V68.5829M64.0417 13.9761L75.604 17.4105V64.4616L64.0417 68.5829" stroke="url(#paint4_linear)"/>
<path d="M126.115 1.23438H208.025V73.5884H126.115M126.115 1.23438V73.5884M126.115 1.23438L111.098 5.78494V68.1277L126.115 73.5884" stroke="url(#paint5_linear)"/>
<path d="M98.7031 37.6387H150.233V82.2342H98.7031L89.2559 78.8685V40.4434L98.7031 37.6387Z" fill="white"/>
<path d="M98.7031 37.6387H150.233V82.2342H98.7031M98.7031 37.6387V82.2342M98.7031 37.6387L89.2559 40.4434V78.8685L98.7031 82.2342" stroke="url(#paint6_linear)"/>
<g clip-path="url(#clip2)">
<path d="M132.598 57.5452H130.726C130.569 57.055 130.364 56.5815 130.114 56.1305L131.437 54.8655C131.72 54.5948 131.876 54.2342 131.876 53.8502C131.876 53.4666 131.72 53.106 131.437 52.8353L130.022 51.4818C129.456 50.9409 128.466 50.9395 127.9 51.4818L126.577 52.7468C126.106 52.5082 125.611 52.3121 125.098 52.1614V50.3713C125.098 49.5803 124.425 48.9365 123.598 48.9365H121.598C120.771 48.9365 120.098 49.5803 120.098 50.3713V52.1619C119.586 52.3126 119.091 52.5087 118.619 52.7473L117.296 51.4823C116.711 50.9227 115.759 50.9227 115.174 51.4823L113.759 52.8358C113.174 53.3953 113.174 54.306 113.759 54.8655L115.081 56.131C114.832 56.5815 114.627 57.0555 114.469 57.5457H112.598C111.771 57.5457 111.098 58.1894 111.098 58.9805V60.8935C111.098 61.6841 111.771 62.3278 112.598 62.3278H114.47C114.628 62.818 114.833 63.2915 115.082 63.7425L113.76 65.008C113.175 65.5676 113.175 66.4782 113.76 67.0377L115.175 68.3917C115.76 68.9508 116.712 68.9508 117.297 68.3917L118.62 67.1267C119.091 67.3654 119.586 67.5614 120.099 67.7121V69.5017C120.099 70.2928 120.772 70.9365 121.599 70.9365H123.599C124.426 70.9365 125.099 70.2928 125.099 69.5017V67.7111C125.611 67.5605 126.107 67.3644 126.578 67.1257L127.9 68.3912C128.467 68.9331 129.457 68.9321 130.022 68.3912L131.437 67.0377C131.72 66.767 131.876 66.4064 131.876 66.0229C131.876 65.6388 131.72 65.2787 131.437 65.008L130.115 63.7425C130.364 63.292 130.569 62.818 130.727 62.3278H132.598C133.425 62.3278 134.098 61.6841 134.098 60.893V58.98C134.098 58.189 133.425 57.5452 132.598 57.5452ZM133.098 60.893C133.098 61.1566 132.874 61.3713 132.598 61.3713H130.348C130.12 61.3713 129.921 61.5191 129.864 61.73C129.687 62.3828 129.418 63.006 129.062 63.5818C128.947 63.7698 128.978 64.0089 129.139 64.1629L130.729 65.6843C130.823 65.7742 130.875 65.8942 130.875 66.0229C130.875 66.1515 130.823 66.2716 130.729 66.3615L129.314 67.715C129.126 67.8948 128.795 67.8948 128.606 67.715L127.016 66.1941C126.855 66.0396 126.605 66.01 126.408 66.1204C125.807 66.46 125.156 66.7183 124.473 66.8871C124.253 66.9411 124.098 67.1315 124.098 67.3496V69.5017C124.098 69.7653 123.874 69.98 123.598 69.98H121.598C121.323 69.98 121.098 69.7653 121.098 69.5017V67.3496C121.098 67.1315 120.944 66.9411 120.723 66.8866C120.041 66.7178 119.389 66.46 118.787 66.12C118.708 66.075 118.621 66.0535 118.533 66.0535C118.404 66.0535 118.276 66.1013 118.179 66.1936L116.589 67.7145C116.394 67.901 116.077 67.901 115.881 67.7145L114.466 66.361C114.271 66.174 114.271 65.8703 114.466 65.6838L116.056 64.1629C116.218 64.0084 116.249 63.7693 116.133 63.5818C115.778 63.006 115.508 62.3833 115.332 61.73C115.275 61.5191 115.076 61.3713 114.848 61.3713H112.598C112.323 61.3713 112.098 61.1566 112.098 60.893V58.98C112.098 58.7165 112.323 58.5017 112.598 58.5017H114.848C115.076 58.5017 115.275 58.354 115.332 58.143C115.509 57.4902 115.778 56.867 116.134 56.2912C116.25 56.1033 116.218 55.8641 116.057 55.7101L114.467 54.1893C114.272 54.0027 114.272 53.699 114.467 53.512L115.882 52.1586C116.077 51.9716 116.394 51.972 116.59 52.1586L118.18 53.6794C118.341 53.8339 118.591 53.8645 118.787 53.7531C119.389 53.4135 120.04 53.1553 120.723 52.9864C120.944 52.9319 121.098 52.7416 121.098 52.5235V50.3713C121.098 50.1078 121.323 49.893 121.598 49.893H123.598C123.874 49.893 124.098 50.1078 124.098 50.3713V52.5235C124.098 52.7416 124.253 52.9319 124.473 52.9864C125.156 53.1553 125.808 53.4135 126.409 53.7531C126.606 53.864 126.856 53.8344 127.017 53.6794L128.607 52.1586C128.795 51.9778 129.127 51.9783 129.315 52.1586L130.73 53.512C130.824 53.602 130.876 53.7225 130.876 53.8507C130.876 53.9788 130.824 54.0993 130.73 54.1893L129.14 55.7101C128.979 55.8646 128.947 56.1037 129.063 56.2912C129.418 56.867 129.688 57.4897 129.865 58.143C129.921 58.354 130.12 58.5017 130.348 58.5017H132.598C132.874 58.5017 133.098 58.7165 133.098 58.98V60.893Z" fill="url(#paint7_linear)"/>
<path d="M122.598 55.6323C120.117 55.6323 118.098 57.5635 118.098 59.9367C118.098 62.3098 120.117 64.241 122.598 64.241C125.08 64.241 127.098 62.3098 127.098 59.9367C127.098 57.5635 125.08 55.6323 122.598 55.6323ZM122.598 63.2845C120.668 63.2845 119.098 61.7828 119.098 59.9367C119.098 58.0906 120.668 56.5888 122.598 56.5888C124.528 56.5888 126.098 58.0906 126.098 59.9367C126.098 61.7828 124.528 63.2845 122.598 63.2845Z" fill="url(#paint8_linear)"/>
</g>
<defs>
<linearGradient id="paint0_linear" x1="139.993" y1="61.4064" x2="186.098" y2="1.80885" gradientUnits="userSpaceOnUse">
<stop stop-color="#AB85FF"/>
<stop offset="0.526042" stop-color="#EBA3E3"/>
<stop offset="1" stop-color="#FFDBE4"/>
</linearGradient>
<linearGradient id="paint1_linear" x1="156.128" y1="46.8008" x2="174.169" y2="23.48" gradientUnits="userSpaceOnUse">
<stop stop-color="#AB85FF"/>
<stop offset="0.526042" stop-color="#EBA3E3"/>
<stop offset="1" stop-color="#FFDBE4"/>
</linearGradient>
<linearGradient id="paint2_linear" x1="10.132" y1="60.4751" x2="46.7153" y2="11.7073" gradientUnits="userSpaceOnUse">
<stop stop-color="#AB85FF"/>
<stop offset="0.526042" stop-color="#EBA3E3"/>
<stop offset="1" stop-color="#FFDBE4"/>
</linearGradient>
<linearGradient id="paint3_linear" x1="23.4429" y1="48.7908" x2="37.7582" y2="29.7078" gradientUnits="userSpaceOnUse">
<stop stop-color="#AB85FF"/>
<stop offset="0.526042" stop-color="#EBA3E3"/>
<stop offset="1" stop-color="#FFDBE4"/>
</linearGradient>
<linearGradient id="paint4_linear" x1="87.7437" y1="74.0365" x2="31.9921" y2="-24.4568" gradientUnits="userSpaceOnUse">
<stop stop-color="#AB85FF"/>
<stop offset="0.526042" stop-color="#EBA3E3"/>
<stop offset="1" stop-color="#FFDBE4"/>
</linearGradient>
<linearGradient id="paint5_linear" x1="95.3316" y1="80.8144" x2="169.955" y2="-48.4103" gradientUnits="userSpaceOnUse">
<stop stop-color="#AB85FF"/>
<stop offset="0.526042" stop-color="#EBA3E3"/>
<stop offset="1" stop-color="#FFDBE4"/>
</linearGradient>
<linearGradient id="paint6_linear" x1="79.3368" y1="86.688" x2="124.856" y2="6.23242" gradientUnits="userSpaceOnUse">
<stop stop-color="#AB85FF"/>
<stop offset="0.526042" stop-color="#EBA3E3"/>
<stop offset="1" stop-color="#FFDBE4"/>
</linearGradient>
<linearGradient id="paint7_linear" x1="107.357" y1="73.1337" x2="132.41" y2="39.2767" gradientUnits="userSpaceOnUse">
<stop stop-color="#AB85FF"/>
<stop offset="0.526042" stop-color="#EBA3E3"/>
<stop offset="1" stop-color="#FFDBE4"/>
</linearGradient>
<linearGradient id="paint8_linear" x1="116.634" y1="65.1008" x2="126.438" y2="51.8524" gradientUnits="userSpaceOnUse">
<stop stop-color="#AB85FF"/>
<stop offset="0.526042" stop-color="#EBA3E3"/>
<stop offset="1" stop-color="#FFDBE4"/>
</linearGradient>
<clipPath id="clip0">
<rect width="40" height="40" fill="white" transform="translate(146.5 17.4116)"/>
</clipPath>
<clipPath id="clip1">
<rect width="33" height="32" fill="white" transform="translate(15.5 25.2793)"/>
</clipPath>
<clipPath id="clip2">
<rect width="23" height="22" fill="white" transform="translate(111.098 48.9365)"/>
</clipPath>
</defs>
</svg>
