<svg width="256" height="72" viewBox="0 0 256 72" fill="none" xmlns="http://www.w3.org/2000/svg">
<path d="M240.088 1.2085H161.315V70.7913H240.088M240.088 1.2085V70.7913M240.088 1.2085L254.529 5.58477V65.5398L240.088 70.7913" stroke="url(#paint0_linear)"/>
<path d="M151.764 39.0171C151.96 38.8219 151.96 38.5053 151.764 38.31L148.582 35.128C148.387 34.9328 148.071 34.9328 147.875 35.128C147.68 35.3233 147.68 35.6399 147.875 35.8352L150.704 38.6636L147.875 41.492C147.68 41.6873 147.68 42.0038 147.875 42.1991C148.071 42.3944 148.387 42.3944 148.582 42.1991L151.764 39.0171ZM112.46 39.1636L151.411 39.1636L151.411 38.1636L112.46 38.1636L112.46 39.1636Z" fill="url(#paint1_linear)"/>
<path d="M90.4706 36.6396C93.6559 36.6396 96.6161 38.024 98.8103 40.5588C100.962 43.0446 102.213 46.4743 102.336 50.2849C100.794 51.06 96.1272 53.1396 90.4706 53.1396C85.2376 53.1396 80.2669 51.0401 78.6063 50.2618C78.7334 46.4603 79.9836 43.0396 82.1308 40.5588C84.325 38.0241 87.2852 36.6396 90.4706 36.6396Z" stroke="url(#paint2_linear)"/>
<path d="M96.1582 29.0303C96.1582 32.0633 93.6252 34.5459 90.4707 34.5459C87.3162 34.5459 84.7832 32.0633 84.7832 29.0303C84.7832 25.9973 87.3162 23.5146 90.4707 23.5146C93.6252 23.5146 96.1582 25.9973 96.1582 29.0303Z" stroke="url(#paint3_linear)"/>
<path d="M54.4706 36.6396C57.6559 36.6396 60.6161 38.024 62.8103 40.5588C64.9616 43.0446 66.213 46.4743 66.3357 50.2849C64.7939 51.06 60.1272 53.1396 54.4706 53.1396C49.2376 53.1396 44.2669 51.0401 42.6063 50.2618C42.7334 46.4603 43.9836 43.0396 46.1308 40.5588C48.325 38.0241 51.2852 36.6396 54.4706 36.6396Z" stroke="url(#paint4_linear)"/>
<path d="M60.1582 29.0303C60.1582 32.0633 57.6252 34.5459 54.4707 34.5459C51.3162 34.5459 48.7832 32.0633 48.7832 29.0303C48.7832 25.9973 51.3162 23.5146 54.4707 23.5146C57.6252 23.5146 60.1582 25.9973 60.1582 29.0303Z" stroke="url(#paint5_linear)"/>
<path d="M18.4706 36.6396C21.6559 36.6396 24.6161 38.024 26.8103 40.5588C28.9616 43.0446 30.213 46.4743 30.3357 50.2849C28.7939 51.06 24.1272 53.1396 18.4706 53.1396C13.2376 53.1396 8.26686 51.0401 6.60634 50.2618C6.73341 46.4603 7.98364 43.0396 10.1308 40.5588C12.325 38.0241 15.2852 36.6396 18.4706 36.6396Z" stroke="url(#paint6_linear)"/>
<path d="M24.1582 29.0303C24.1582 32.0633 21.6252 34.5459 18.4707 34.5459C15.3162 34.5459 12.7832 32.0633 12.7832 29.0303C12.7832 25.9973 15.3162 23.5146 18.4707 23.5146C21.6252 23.5146 24.1582 25.9973 24.1582 29.0303Z" stroke="url(#paint7_linear)"/>
<g clip-path="url(#clip0)">
<ellipse cx="198.565" cy="36" rx="19" ry="19.5" fill="white"/>
<path d="M205.827 37.2188H191.173C190.964 37.2188 190.796 37.3949 190.801 37.6085C190.846 39.3716 190.962 41.0558 191.139 42.6483C191.165 42.8775 191.38 43.0322 191.598 42.9753C193.838 42.3895 196.147 42.0937 198.5 42.0937C200.853 42.0937 203.162 42.3895 205.402 42.9753C205.62 43.0322 205.835 42.8775 205.861 42.6483C206.038 41.0557 206.154 39.3715 206.199 37.6085C206.204 37.3949 206.036 37.2188 205.827 37.2188Z" fill="url(#paint8_linear)"/>
<path d="M205.861 29.3515C205.836 29.1224 205.62 28.9676 205.402 29.0245C203.162 29.6104 200.853 29.9062 198.5 29.9062C196.147 29.9062 193.838 29.6104 191.598 29.0246C191.38 28.9677 191.165 29.1225 191.139 29.3516C190.962 30.9442 190.846 32.6284 190.801 34.3914C190.796 34.6052 190.964 34.7812 191.173 34.7812H205.827C206.036 34.7812 206.204 34.6051 206.199 34.3914C206.154 32.6284 206.038 30.9441 205.861 29.3515Z" fill="url(#paint9_linear)"/>
<path d="M205.402 26.1373C204.737 22.361 203.718 19.2641 202.542 17.0756C202.489 16.9781 202.397 16.9093 202.291 16.8873C201.056 16.6319 199.788 16.5 198.5 16.5C197.212 16.5 195.944 16.6319 194.709 16.8873C194.603 16.9093 194.511 16.9781 194.459 17.0756C193.282 19.2641 192.263 22.361 191.598 26.1373C191.564 26.3307 191.68 26.52 191.865 26.5711C193.981 27.1563 196.206 27.4688 198.5 27.4688C200.794 27.4688 203.019 27.1563 205.136 26.5711C205.321 26.52 205.436 26.3306 205.402 26.1373Z" fill="url(#paint10_linear)"/>
<path d="M206.398 18.2546C206.095 18.1127 205.78 18.4226 205.9 18.741C205.902 18.7466 205.904 18.7523 205.906 18.7579C206.628 20.6853 207.215 22.8735 207.654 25.24C207.698 25.4765 207.943 25.6112 208.16 25.5198C209.621 24.9046 211.014 24.1539 212.325 23.2837C212.52 23.1549 212.555 22.8771 212.397 22.7034C212.246 22.5372 212.092 22.3731 211.935 22.2116C210.306 20.5394 208.432 19.2094 206.398 18.2546Z" fill="url(#paint11_linear)"/>
<path d="M208.945 34.7815H217.063C217.281 34.7815 217.451 34.5902 217.433 34.3677C217.171 31.0984 216.123 27.9945 214.382 25.2882C214.268 25.1111 214.037 25.0632 213.864 25.1801C212.446 26.1416 210.943 26.9692 209.363 27.6552C209.039 27.796 208.712 27.93 208.385 28.0576C208.224 28.1202 208.125 28.2863 208.147 28.4616C208.38 30.3734 208.525 32.3678 208.575 34.4092C208.579 34.6161 208.743 34.7815 208.945 34.7815Z" fill="url(#paint12_linear)"/>
<path d="M191.598 45.8627C192.263 49.639 193.282 52.7359 194.459 54.9244C194.511 55.0219 194.603 55.0907 194.709 55.1127C195.944 55.3681 197.212 55.5 198.5 55.5C199.788 55.5 201.056 55.3681 202.291 55.1127C202.397 55.0907 202.489 55.0219 202.542 54.9244C203.718 52.7359 204.737 49.639 205.402 45.8627C205.436 45.6693 205.321 45.48 205.136 45.4289C203.019 44.8437 200.794 44.5312 198.5 44.5312C196.206 44.5312 193.981 44.8437 191.865 45.4289C191.68 45.48 191.564 45.6694 191.598 45.8627Z" fill="url(#paint13_linear)"/>
<path d="M187.637 44.3449C187.962 44.2042 188.288 44.0702 188.616 43.9426C188.776 43.88 188.875 43.7138 188.853 43.5386C188.62 41.6267 188.475 39.6324 188.426 37.5909C188.42 37.3841 188.257 37.2188 188.055 37.2188H179.937C179.719 37.2188 179.549 37.41 179.567 37.6326C179.829 40.9018 180.877 44.0057 182.618 46.712C182.732 46.8891 182.963 46.9371 183.136 46.8201C184.554 45.8585 186.057 45.0309 187.637 44.3449Z" fill="url(#paint14_linear)"/>
<path d="M212.325 48.7166C211.014 47.8464 209.621 47.0957 208.16 46.4805C207.943 46.3891 207.698 46.5238 207.654 46.7603C207.215 49.1268 206.628 51.315 205.906 53.2424C205.904 53.248 205.902 53.2537 205.9 53.2593C205.78 53.5777 206.095 53.8876 206.398 53.7457C208.432 52.7909 210.306 51.4609 211.935 49.7887C212.092 49.6272 212.246 49.4631 212.397 49.2969C212.555 49.1232 212.52 48.8454 212.325 48.7166Z" fill="url(#paint15_linear)"/>
<path d="M208.575 37.591C208.525 39.6325 208.38 41.6269 208.147 43.5387C208.125 43.7139 208.224 43.8801 208.385 43.9427C208.712 44.0703 209.039 44.2042 209.363 44.345C210.943 45.0311 212.446 45.8587 213.864 46.8201C214.037 46.9371 214.268 46.8891 214.382 46.7121C216.123 44.0058 217.171 40.9019 217.433 37.6326C217.451 37.41 217.281 37.2188 217.063 37.2188H208.945C208.743 37.2188 208.579 37.3842 208.575 37.591Z" fill="url(#paint16_linear)"/>
<path d="M184.675 23.2832C185.986 24.1534 187.379 24.9042 188.84 25.5193C189.057 25.6107 189.302 25.476 189.346 25.2395C189.785 22.873 190.372 20.6849 191.094 18.7574C191.096 18.7518 191.098 18.7461 191.1 18.7405C191.22 18.4221 190.905 18.1122 190.602 18.2541C188.568 19.2089 186.694 20.539 185.065 22.2111C184.908 22.3726 184.754 22.5367 184.603 22.703C184.446 22.8766 184.48 23.1544 184.675 23.2832Z" fill="url(#paint17_linear)"/>
<path d="M188.418 34.7815C188.458 32.6102 188.606 30.4894 188.853 28.4616C188.875 28.2863 188.776 28.1202 188.616 28.0576C188.288 27.93 187.962 27.796 187.637 27.6552C186.057 26.9691 184.554 26.1415 183.136 25.1801C182.963 25.0632 182.732 25.1111 182.618 25.2882C180.877 27.9945 179.829 31.0984 179.567 34.3676C179.549 34.5902 179.719 34.7815 179.937 34.7815H188.418Z" fill="url(#paint18_linear)"/>
<path d="M190.602 53.7457C190.905 53.8876 191.22 53.5777 191.1 53.2593C191.098 53.2537 191.096 53.248 191.094 53.2424C190.372 51.315 189.785 49.1268 189.346 46.7603C189.302 46.5238 189.057 46.3891 188.84 46.4805C187.379 47.0957 185.986 47.8464 184.675 48.7166C184.48 48.8454 184.446 49.1232 184.603 49.2969C184.754 49.4632 184.908 49.6272 185.065 49.7887C186.694 51.4609 188.568 52.7909 190.602 53.7457Z" fill="url(#paint19_linear)"/>
</g>
<defs>
<linearGradient id="paint0_linear" x1="269.692" y1="77.7405" x2="197.927" y2="-46.5347" gradientUnits="userSpaceOnUse">
<stop stop-color="#AB85FF"/>
<stop offset="0.526042" stop-color="#EBA3E3"/>
<stop offset="1" stop-color="#FFDBE4"/>
</linearGradient>
<linearGradient id="paint1_linear" x1="106.125" y1="39.7634" x2="106.172" y2="37.3828" gradientUnits="userSpaceOnUse">
<stop stop-color="#AB85FF"/>
<stop offset="0.526042" stop-color="#EBA3E3"/>
<stop offset="1" stop-color="#FFDBE4"/>
</linearGradient>
<linearGradient id="paint2_linear" x1="74.0733" y1="55.3874" x2="91.6225" y2="23.3108" gradientUnits="userSpaceOnUse">
<stop stop-color="#AB85FF"/>
<stop offset="0.526042" stop-color="#EBA3E3"/>
<stop offset="1" stop-color="#FFDBE4"/>
</linearGradient>
<linearGradient id="paint3_linear" x1="82.2702" y1="36.2475" x2="96.0347" y2="17.9463" gradientUnits="userSpaceOnUse">
<stop stop-color="#AB85FF"/>
<stop offset="0.526042" stop-color="#EBA3E3"/>
<stop offset="1" stop-color="#FFDBE4"/>
</linearGradient>
<linearGradient id="paint4_linear" x1="38.0733" y1="55.3874" x2="55.6225" y2="23.3108" gradientUnits="userSpaceOnUse">
<stop stop-color="#AB85FF"/>
<stop offset="0.526042" stop-color="#EBA3E3"/>
<stop offset="1" stop-color="#FFDBE4"/>
</linearGradient>
<linearGradient id="paint5_linear" x1="46.2702" y1="36.2475" x2="60.0347" y2="17.9463" gradientUnits="userSpaceOnUse">
<stop stop-color="#AB85FF"/>
<stop offset="0.526042" stop-color="#EBA3E3"/>
<stop offset="1" stop-color="#FFDBE4"/>
</linearGradient>
<linearGradient id="paint6_linear" x1="2.07326" y1="55.3874" x2="19.6225" y2="23.3108" gradientUnits="userSpaceOnUse">
<stop stop-color="#AB85FF"/>
<stop offset="0.526042" stop-color="#EBA3E3"/>
<stop offset="1" stop-color="#FFDBE4"/>
</linearGradient>
<linearGradient id="paint7_linear" x1="10.2702" y1="36.2475" x2="24.0347" y2="17.9463" gradientUnits="userSpaceOnUse">
<stop stop-color="#AB85FF"/>
<stop offset="0.526042" stop-color="#EBA3E3"/>
<stop offset="1" stop-color="#FFDBE4"/>
</linearGradient>
<linearGradient id="paint8_linear" x1="188.297" y1="43.5633" x2="191.97" y2="30.8897" gradientUnits="userSpaceOnUse">
<stop stop-color="#AB85FF"/>
<stop offset="0.526042" stop-color="#EBA3E3"/>
<stop offset="1" stop-color="#FFDBE4"/>
</linearGradient>
<linearGradient id="paint9_linear" x1="188.297" y1="35.3573" x2="191.97" y2="22.6836" gradientUnits="userSpaceOnUse">
<stop stop-color="#AB85FF"/>
<stop offset="0.526042" stop-color="#EBA3E3"/>
<stop offset="1" stop-color="#FFDBE4"/>
</linearGradient>
<linearGradient id="paint10_linear" x1="189.345" y1="28.5642" x2="200.994" y2="9.59581" gradientUnits="userSpaceOnUse">
<stop stop-color="#AB85FF"/>
<stop offset="0.526042" stop-color="#EBA3E3"/>
<stop offset="1" stop-color="#FFDBE4"/>
</linearGradient>
<linearGradient id="paint11_linear" x1="204.797" y1="26.2806" x2="213.42" y2="16.2085" gradientUnits="userSpaceOnUse">
<stop stop-color="#AB85FF"/>
<stop offset="0.526042" stop-color="#EBA3E3"/>
<stop offset="1" stop-color="#FFDBE4"/>
</linearGradient>
<linearGradient id="paint12_linear" x1="206.632" y1="35.7468" x2="217.876" y2="21.7762" gradientUnits="userSpaceOnUse">
<stop stop-color="#AB85FF"/>
<stop offset="0.526042" stop-color="#EBA3E3"/>
<stop offset="1" stop-color="#FFDBE4"/>
</linearGradient>
<linearGradient id="paint13_linear" x1="189.345" y1="56.5954" x2="200.994" y2="37.6271" gradientUnits="userSpaceOnUse">
<stop stop-color="#AB85FF"/>
<stop offset="0.526042" stop-color="#EBA3E3"/>
<stop offset="1" stop-color="#FFDBE4"/>
</linearGradient>
<linearGradient id="paint14_linear" x1="178.054" y1="47.8493" x2="189.297" y2="33.8787" gradientUnits="userSpaceOnUse">
<stop stop-color="#AB85FF"/>
<stop offset="0.526042" stop-color="#EBA3E3"/>
<stop offset="1" stop-color="#FFDBE4"/>
</linearGradient>
<linearGradient id="paint15_linear" x1="204.797" y1="54.513" x2="213.42" y2="44.4409" gradientUnits="userSpaceOnUse">
<stop stop-color="#AB85FF"/>
<stop offset="0.526042" stop-color="#EBA3E3"/>
<stop offset="1" stop-color="#FFDBE4"/>
</linearGradient>
<linearGradient id="paint16_linear" x1="206.632" y1="47.8493" x2="217.876" y2="33.8787" gradientUnits="userSpaceOnUse">
<stop stop-color="#AB85FF"/>
<stop offset="0.526042" stop-color="#EBA3E3"/>
<stop offset="1" stop-color="#FFDBE4"/>
</linearGradient>
<linearGradient id="paint17_linear" x1="183.427" y1="26.2801" x2="192.05" y2="16.208" gradientUnits="userSpaceOnUse">
<stop stop-color="#AB85FF"/>
<stop offset="0.526042" stop-color="#EBA3E3"/>
<stop offset="1" stop-color="#FFDBE4"/>
</linearGradient>
<linearGradient id="paint18_linear" x1="178.054" y1="35.7467" x2="189.297" y2="21.7762" gradientUnits="userSpaceOnUse">
<stop stop-color="#AB85FF"/>
<stop offset="0.526042" stop-color="#EBA3E3"/>
<stop offset="1" stop-color="#FFDBE4"/>
</linearGradient>
<linearGradient id="paint19_linear" x1="183.427" y1="54.513" x2="192.05" y2="44.4409" gradientUnits="userSpaceOnUse">
<stop stop-color="#AB85FF"/>
<stop offset="0.526042" stop-color="#EBA3E3"/>
<stop offset="1" stop-color="#FFDBE4"/>
</linearGradient>
<clipPath id="clip0">
<rect width="38" height="39" fill="white" transform="translate(179.5 16.5)"/>
</clipPath>
</defs>
</svg>
