<svg width="341" height="180" viewBox="0 0 341 180" fill="none" xmlns="http://www.w3.org/2000/svg">
<rect width="341" height="180" fill="#F5F5F5"/>
<rect width="52" height="27" transform="translate(39.25 28.3594)" fill="#31D67B"/>
<rect width="29" height="27" transform="translate(95.25 28.3594)" fill="#31D67B"/>
<rect width="19" height="27" transform="translate(128.25 28.3594)" fill="#31D67B"/>
<rect width="10" height="27" transform="translate(151.25 28.3594)" fill="#31D67B"/>
<rect width="10" height="27" transform="translate(165.25 28.3594)" fill="#31D67B"/>
<rect width="10" height="27" transform="translate(179.25 28.3594)" fill="#31D67B"/>
<rect width="4" height="27" transform="translate(193.25 28.3594)" fill="#31D67B"/>
<rect width="4" height="27" transform="translate(201.25 28.3594)" fill="#31D67B"/>
<rect width="4" height="27" transform="translate(209.25 28.3594)" fill="#31D67B"/>
<path d="M234.25 157.5C243.114 157.5 251.892 155.754 260.081 152.362C268.271 148.97 275.712 143.998 281.98 137.73C288.248 131.462 293.22 124.021 296.612 115.831C300.004 107.642 301.75 98.8642 301.75 90C301.75 81.1358 300.004 72.3583 296.612 64.1689C293.22 55.9794 288.248 48.5382 281.98 42.2703C275.712 36.0023 268.271 31.0303 260.081 27.6381C251.892 24.2459 243.114 22.5 234.25 22.5L234.25 90V157.5Z" fill="#AB85FF"/>
<circle cx="203.769" cy="113.607" r="1.375" fill="#D4D4D4"/>
<circle cx="209.519" cy="113.607" r="1.375" fill="#D4D4D4"/>
<circle cx="215.269" cy="113.607" r="1.375" fill="#D4D4D4"/>
<circle cx="220.769" cy="113.607" r="1.375" fill="#D4D4D4"/>
<circle cx="226.769" cy="113.607" r="1.375" fill="#D4D4D4"/>
<circle cx="232.519" cy="113.607" r="1.375" fill="#D4D4D4"/>
<circle cx="238.269" cy="113.607" r="1.375" fill="#D4D4D4"/>
<circle cx="244.019" cy="113.607" r="1.375" fill="#D4D4D4"/>
<circle cx="249.769" cy="113.607" r="1.375" fill="#D4D4D4"/>
<circle cx="203.769" cy="119.357" r="1.375" fill="#D4D4D4"/>
<circle cx="209.519" cy="119.357" r="1.375" fill="#D4D4D4"/>
<circle cx="203.769" cy="125.107" r="1.375" fill="#D4D4D4"/>
<circle cx="209.519" cy="125.107" r="1.375" fill="#D4D4D4"/>
<circle cx="215.269" cy="125.107" r="1.375" fill="#D4D4D4"/>
<circle cx="221.019" cy="125.107" r="1.375" fill="#D4D4D4"/>
<circle cx="226.769" cy="125.107" r="1.375" fill="#D4D4D4"/>
<circle cx="232.519" cy="125.107" r="1.375" fill="#D4D4D4"/>
<circle cx="238.269" cy="125.107" r="1.375" fill="#D4D4D4"/>
<circle cx="244.019" cy="125.107" r="1.375" fill="#D4D4D4"/>
<circle cx="249.769" cy="125.107" r="1.375" fill="#D4D4D4"/>
<circle cx="215.269" cy="119.357" r="1.375" fill="#D4D4D4"/>
<circle cx="220.769" cy="119.357" r="1.375" fill="#D4D4D4"/>
<circle cx="226.769" cy="119.357" r="1.375" fill="#D4D4D4"/>
<circle cx="232.519" cy="119.357" r="1.375" fill="#D4D4D4"/>
<circle cx="238.269" cy="119.357" r="1.375" fill="#D4D4D4"/>
<circle cx="244.019" cy="119.357" r="1.375" fill="#D4D4D4"/>
<circle cx="249.769" cy="119.357" r="1.375" fill="#D4D4D4"/>
<path d="M197.394 113.732V107.232L203.894 107.232" stroke="#31D67B"/>
<path d="M256.894 123.232V129.732L250.394 129.732" stroke="#31D67B"/>
<circle cx="280.75" cy="42.5" r="16" transform="rotate(-90 280.75 42.5)" fill="#8052E4"/>
<path d="M80.5527 58.5948L124.013 58.5948M124.013 58.5948L122.822 57.9503M124.013 58.5948L122.822 59.2393" stroke="black" stroke-width="1.97979"/>
<path d="M80.5527 69.3038L141.278 69.3038M141.278 69.3038L139.614 68.636M141.278 69.3038L139.614 69.9717" stroke="black" stroke-width="1.97979"/>
<path d="M80.5527 47.9327L107.939 47.9327M107.939 47.9327L107.188 47.2649M107.939 47.9327L107.188 48.6006" stroke="black" stroke-width="1.97979"/>
<path d="M80.5527 79.9894H100.199M100.199 79.9894L99.6608 79.3215M100.199 79.9894L99.6608 80.6572" stroke="black" stroke-width="1.97979"/>
<circle cx="72.9578" cy="63.9611" r="21.1119" transform="rotate(90 72.9578 63.9611)" fill="#F5F5F5" stroke="black" stroke-width="1.97979"/>
<path d="M47.86 113.682C49.62 113.682 51.2 114.242 52.6 115.362V114.132H56.32V129.732H52.6V128.502C51.2 129.622 49.62 130.182 47.86 130.182C45.72 130.182 43.91 129.402 42.43 127.842C40.99 126.262 40.27 124.292 40.27 121.932C40.27 119.572 40.99 117.612 42.43 116.052C43.89 114.472 45.7 113.682 47.86 113.682ZM51.31 118.722C50.51 117.862 49.52 117.432 48.34 117.432C47.14 117.432 46.14 117.862 45.34 118.722C44.54 119.582 44.14 120.652 44.14 121.932C44.14 123.212 44.54 124.282 45.34 125.142C46.14 126.002 47.14 126.432 48.34 126.432C49.52 126.432 50.51 126.002 51.31 125.142C52.13 124.262 52.54 123.192 52.54 121.932C52.54 120.672 52.13 119.602 51.31 118.722ZM72.5221 113.682C74.2821 113.682 75.8621 114.242 77.2621 115.362V107.232H80.9821V129.732H77.2621V128.502C75.8621 129.622 74.2821 130.182 72.5221 130.182C70.3821 130.182 68.5721 129.402 67.0921 127.842C65.6521 126.262 64.9321 124.292 64.9321 121.932C64.9321 119.572 65.6521 117.612 67.0921 116.052C68.5521 114.472 70.3621 113.682 72.5221 113.682ZM75.9721 118.722C75.1721 117.862 74.1821 117.432 73.0021 117.432C71.8021 117.432 70.8021 117.862 70.0021 118.722C69.2021 119.582 68.8021 120.652 68.8021 121.932C68.8021 123.212 69.2021 124.282 70.0021 125.142C70.8021 126.002 71.8021 126.432 73.0021 126.432C74.1821 126.432 75.1721 126.002 75.9721 125.142C76.7921 124.262 77.2021 123.192 77.2021 121.932C77.2021 120.672 76.7921 119.602 75.9721 118.722ZM91.9342 127.842C90.3742 126.262 89.5942 124.292 89.5942 121.932C89.5942 119.572 90.3742 117.612 91.9342 116.052C93.5142 114.472 95.4842 113.682 97.8442 113.682C100.204 113.682 102.174 114.472 103.754 116.052C105.334 117.612 106.124 119.572 106.124 121.932C106.124 124.292 105.334 126.262 103.754 127.842C102.154 129.402 100.184 130.182 97.8442 130.182C95.5042 130.182 93.5342 129.402 91.9342 127.842ZM97.8442 117.432C96.6042 117.432 95.5642 117.862 94.7242 118.722C93.8842 119.582 93.4642 120.652 93.4642 121.932C93.4642 123.212 93.8842 124.282 94.7242 125.142C95.5642 126.002 96.6042 126.432 97.8442 126.432C99.0842 126.432 100.124 126.002 100.964 125.142C101.804 124.282 102.224 123.212 102.224 121.932C102.224 120.652 101.804 119.582 100.964 118.722C100.124 117.862 99.0842 117.432 97.8442 117.432ZM114.709 129.732V107.232H118.459V115.362C119.859 114.242 121.429 113.682 123.169 113.682C125.329 113.682 127.139 114.472 128.599 116.052C130.059 117.592 130.789 119.552 130.789 121.932C130.789 124.292 130.059 126.262 128.599 127.842C127.119 129.402 125.309 130.182 123.169 130.182C121.429 130.182 119.859 129.622 118.459 128.502V129.732H114.709ZM125.659 118.722C124.859 117.862 123.869 117.432 122.689 117.432C121.509 117.432 120.519 117.862 119.719 118.722C118.919 119.582 118.519 120.652 118.519 121.932C118.519 123.212 118.919 124.282 119.719 125.142C120.519 126.002 121.509 126.432 122.689 126.432C123.869 126.432 124.859 126.002 125.659 125.142C126.479 124.262 126.889 123.192 126.889 121.932C126.889 120.672 126.479 119.602 125.659 118.722ZM155.061 123.312H142.671C142.951 124.332 143.501 125.162 144.321 125.802C145.161 126.422 146.131 126.732 147.231 126.732C148.771 126.732 149.991 126.182 150.891 125.082L154.521 126.132C153.801 127.392 152.791 128.382 151.491 129.102C150.211 129.822 148.791 130.182 147.231 130.182C144.831 130.182 142.821 129.402 141.201 127.842C139.601 126.242 138.801 124.272 138.801 121.932C138.801 119.572 139.581 117.612 141.141 116.052C142.721 114.472 144.671 113.682 146.991 113.682C149.311 113.682 151.251 114.472 152.811 116.052C154.391 117.632 155.181 119.592 155.181 121.932C155.181 122.312 155.141 122.772 155.061 123.312ZM142.701 120.402H151.311C151.011 119.422 150.461 118.632 149.661 118.032C148.861 117.432 147.951 117.132 146.931 117.132C145.951 117.132 145.071 117.432 144.291 118.032C143.511 118.632 142.981 119.422 142.701 120.402Z" fill="#31D67B"/>
<path d="M52.6 115.362L51.9753 116.143L53.6 117.443V115.362H52.6ZM52.6 114.132V113.132H51.6V114.132H52.6ZM56.32 114.132H57.32V113.132H56.32V114.132ZM56.32 129.732V130.732H57.32V129.732H56.32ZM52.6 129.732H51.6V130.732H52.6V129.732ZM52.6 128.502H53.6V126.422L51.9753 127.722L52.6 128.502ZM42.43 127.842L41.6909 128.516L41.6976 128.523L41.7045 128.531L42.43 127.842ZM42.43 116.052L41.6956 115.374L41.6952 115.374L42.43 116.052ZM51.31 118.722L50.5778 119.404L50.5784 119.404L51.31 118.722ZM45.34 125.142L46.0722 124.461L45.34 125.142ZM51.31 125.142L50.5784 124.461L50.5778 124.461L51.31 125.142ZM47.86 114.682C49.3884 114.682 50.749 115.162 51.9753 116.143L53.2247 114.582C51.651 113.323 49.8516 112.682 47.86 112.682V114.682ZM53.6 115.362V114.132H51.6V115.362H53.6ZM52.6 115.132H56.32V113.132H52.6V115.132ZM55.32 114.132V129.732H57.32V114.132H55.32ZM56.32 128.732H52.6V130.732H56.32V128.732ZM53.6 129.732V128.502H51.6V129.732H53.6ZM51.9753 127.722C50.749 128.703 49.3884 129.182 47.86 129.182V131.182C49.8516 131.182 51.651 130.542 53.2247 129.283L51.9753 127.722ZM47.86 129.182C45.9958 129.182 44.4477 128.516 43.1555 127.154L41.7045 128.531C43.3723 130.289 45.4442 131.182 47.86 131.182V129.182ZM43.1691 127.169C41.9149 125.793 41.27 124.071 41.27 121.932H39.27C39.27 124.514 40.0651 126.732 41.6909 128.516L43.1691 127.169ZM41.27 121.932C41.27 119.793 41.9149 118.085 43.1648 116.731L41.6952 115.374C40.0651 117.14 39.27 119.351 39.27 121.932H41.27ZM43.1644 116.731C44.4343 115.357 45.9776 114.682 47.86 114.682V112.682C45.4224 112.682 43.3457 113.588 41.6956 115.374L43.1644 116.731ZM52.0422 118.041C51.052 116.977 49.7963 116.432 48.34 116.432V118.432C49.2437 118.432 49.968 118.748 50.5778 119.404L52.0422 118.041ZM48.34 116.432C46.8691 116.432 45.6016 116.973 44.6078 118.041L46.0722 119.404C46.6784 118.752 47.4109 118.432 48.34 118.432V116.432ZM44.6078 118.041C43.6196 119.104 43.14 120.424 43.14 121.932H45.14C45.14 120.88 45.4604 120.061 46.0722 119.404L44.6078 118.041ZM43.14 121.932C43.14 123.44 43.6196 124.761 44.6078 125.824L46.0722 124.461C45.4604 123.804 45.14 122.984 45.14 121.932H43.14ZM44.6078 125.824C45.6016 126.892 46.8691 127.432 48.34 127.432V125.432C47.4109 125.432 46.6784 125.113 46.0722 124.461L44.6078 125.824ZM48.34 127.432C49.7963 127.432 51.052 126.888 52.0422 125.824L50.5778 124.461C49.968 125.117 49.2437 125.432 48.34 125.432V127.432ZM52.0416 125.824C53.0429 124.75 53.54 123.432 53.54 121.932H51.54C51.54 122.953 51.2171 123.775 50.5784 124.461L52.0416 125.824ZM53.54 121.932C53.54 120.433 53.0429 119.115 52.0416 118.041L50.5784 119.404C51.2171 120.09 51.54 120.912 51.54 121.932H53.54ZM77.2621 115.362L76.6374 116.143L78.2621 117.443V115.362H77.2621ZM77.2621 107.232V106.232H76.2621V107.232H77.2621ZM80.9821 107.232H81.9821V106.232H80.9821V107.232ZM80.9821 129.732V130.732H81.9821V129.732H80.9821ZM77.2621 129.732H76.2621V130.732H77.2621V129.732ZM77.2621 128.502H78.2621V126.422L76.6374 127.722L77.2621 128.502ZM67.0921 127.842L66.353 128.516L66.3598 128.523L66.3666 128.531L67.0921 127.842ZM67.0921 116.052L66.3577 115.374L66.3573 115.374L67.0921 116.052ZM75.9721 118.722L75.2399 119.404L75.2405 119.404L75.9721 118.722ZM70.0021 125.142L70.7343 124.461L70.0021 125.142ZM75.9721 125.142L75.2405 124.461L75.2399 124.461L75.9721 125.142ZM72.5221 114.682C74.0505 114.682 75.4111 115.162 76.6374 116.143L77.8868 114.582C76.3131 113.323 74.5137 112.682 72.5221 112.682V114.682ZM78.2621 115.362V107.232H76.2621V115.362H78.2621ZM77.2621 108.232H80.9821V106.232H77.2621V108.232ZM79.9821 107.232V129.732H81.9821V107.232H79.9821ZM80.9821 128.732H77.2621V130.732H80.9821V128.732ZM78.2621 129.732V128.502H76.2621V129.732H78.2621ZM76.6374 127.722C75.4111 128.703 74.0505 129.182 72.5221 129.182V131.182C74.5137 131.182 76.3131 130.542 77.8868 129.283L76.6374 127.722ZM72.5221 129.182C70.658 129.182 69.1098 128.516 67.8176 127.154L66.3666 128.531C68.0344 130.289 70.1063 131.182 72.5221 131.182V129.182ZM67.8312 127.169C66.577 125.793 65.9321 124.071 65.9321 121.932H63.9321C63.9321 124.514 64.7272 126.732 66.353 128.516L67.8312 127.169ZM65.9321 121.932C65.9321 119.793 66.577 118.085 67.8269 116.731L66.3573 115.374C64.7273 117.14 63.9321 119.351 63.9321 121.932H65.9321ZM67.8266 116.731C69.0964 115.357 70.6397 114.682 72.5221 114.682V112.682C70.0845 112.682 68.0078 113.588 66.3577 115.374L67.8266 116.731ZM76.7043 118.041C75.7141 116.977 74.4584 116.432 73.0021 116.432V118.432C73.9058 118.432 74.6301 118.748 75.2399 119.404L76.7043 118.041ZM73.0021 116.432C71.5312 116.432 70.2637 116.973 69.2699 118.041L70.7343 119.404C71.3405 118.752 72.073 118.432 73.0021 118.432V116.432ZM69.2699 118.041C68.2817 119.104 67.8021 120.424 67.8021 121.932H69.8021C69.8021 120.88 70.1225 120.061 70.7343 119.404L69.2699 118.041ZM67.8021 121.932C67.8021 123.44 68.2817 124.761 69.2699 125.824L70.7343 124.461C70.1225 123.804 69.8021 122.984 69.8021 121.932H67.8021ZM69.2699 125.824C70.2637 126.892 71.5312 127.432 73.0021 127.432V125.432C72.073 125.432 71.3405 125.113 70.7343 124.461L69.2699 125.824ZM73.0021 127.432C74.4584 127.432 75.7141 126.888 76.7043 125.824L75.2399 124.461C74.6301 125.117 73.9058 125.432 73.0021 125.432V127.432ZM76.7037 125.824C77.705 124.75 78.2021 123.432 78.2021 121.932H76.2021C76.2021 122.953 75.8792 123.775 75.2405 124.461L76.7037 125.824ZM78.2021 121.932C78.2021 120.433 77.705 119.115 76.7037 118.041L75.2405 119.404C75.8792 120.09 76.2021 120.912 76.2021 121.932H78.2021ZM91.9342 127.842L91.2226 128.545L91.2293 128.552L91.2361 128.558L91.9342 127.842ZM91.9342 116.052L91.2271 115.345L91.9342 116.052ZM103.754 116.052L103.047 116.76L103.052 116.764L103.754 116.052ZM103.754 127.842L104.452 128.558L104.461 128.55L103.754 127.842ZM94.7242 118.722L95.4396 119.421L94.7242 118.722ZM94.7242 125.142L95.4396 124.444L94.7242 125.142ZM100.964 125.142L100.249 124.444L100.964 125.142ZM92.6458 127.14C91.2831 125.76 90.5942 124.048 90.5942 121.932H88.5942C88.5942 124.537 89.4654 126.765 91.2226 128.545L92.6458 127.14ZM90.5942 121.932C90.5942 119.817 91.2829 118.118 92.6413 116.76L91.2271 115.345C89.4656 117.107 88.5942 119.328 88.5942 121.932H90.5942ZM92.6413 116.76C94.0224 115.378 95.7329 114.682 97.8442 114.682V112.682C95.2356 112.682 93.006 113.566 91.2271 115.345L92.6413 116.76ZM97.8442 114.682C99.9556 114.682 101.666 115.378 103.047 116.76L104.461 115.345C102.682 113.566 100.453 112.682 97.8442 112.682V114.682ZM103.052 116.764C104.428 118.123 105.124 119.821 105.124 121.932H107.124C107.124 119.324 106.24 117.101 104.457 115.341L103.052 116.764ZM105.124 121.932C105.124 124.044 104.428 125.754 103.047 127.135L104.461 128.55C106.24 126.771 107.124 124.541 107.124 121.932H105.124ZM103.056 127.126C101.652 128.495 99.937 129.182 97.8442 129.182V131.182C100.431 131.182 102.656 130.31 104.452 128.558L103.056 127.126ZM97.8442 129.182C95.7514 129.182 94.036 128.495 92.6323 127.126L91.2361 128.558C93.0324 130.31 95.257 131.182 97.8442 131.182V129.182ZM97.8442 116.432C96.3444 116.432 95.0436 116.964 94.0088 118.024L95.4396 119.421C96.0849 118.761 96.864 118.432 97.8442 118.432V116.432ZM94.0088 118.024C92.9737 119.083 92.4642 120.41 92.4642 121.932H94.4642C94.4642 120.895 94.7947 120.081 95.4396 119.421L94.0088 118.024ZM92.4642 121.932C92.4642 123.455 92.9737 124.781 94.0088 125.841L95.4396 124.444C94.7947 123.783 94.4642 122.97 94.4642 121.932H92.4642ZM94.0088 125.841C95.0436 126.901 96.3444 127.432 97.8442 127.432V125.432C96.864 125.432 96.0849 125.104 95.4396 124.444L94.0088 125.841ZM97.8442 127.432C99.344 127.432 100.645 126.901 101.68 125.841L100.249 124.444C99.6036 125.104 98.8244 125.432 97.8442 125.432V127.432ZM101.68 125.841C102.715 124.781 103.224 123.455 103.224 121.932H101.224C101.224 122.97 100.894 123.783 100.249 124.444L101.68 125.841ZM103.224 121.932C103.224 120.41 102.715 119.083 101.68 118.024L100.249 119.421C100.894 120.081 101.224 120.895 101.224 121.932H103.224ZM101.68 118.024C100.645 116.964 99.344 116.432 97.8442 116.432V118.432C98.8244 118.432 99.6036 118.761 100.249 119.421L101.68 118.024ZM114.709 129.732H113.709V130.732H114.709V129.732ZM114.709 107.232V106.232H113.709V107.232H114.709ZM118.459 107.232H119.459V106.232H118.459V107.232ZM118.459 115.362H117.459V117.443L119.084 116.143L118.459 115.362ZM128.599 116.052L127.865 116.731L127.873 116.74L128.599 116.052ZM128.599 127.842L129.325 128.531L129.334 128.521L128.599 127.842ZM118.459 128.502L119.084 127.722L117.459 126.422V128.502H118.459ZM118.459 129.732V130.732H119.459V129.732H118.459ZM125.659 118.722L124.927 119.404L124.928 119.404L125.659 118.722ZM119.719 125.142L120.451 124.461L119.719 125.142ZM125.659 125.142L124.928 124.461L124.927 124.461L125.659 125.142ZM115.709 129.732V107.232H113.709V129.732H115.709ZM114.709 108.232H118.459V106.232H114.709V108.232ZM117.459 107.232V115.362H119.459V107.232H117.459ZM119.084 116.143C120.312 115.16 121.664 114.682 123.169 114.682V112.682C121.195 112.682 119.406 113.324 117.834 114.582L119.084 116.143ZM123.169 114.682C125.052 114.682 126.595 115.357 127.865 116.731L129.334 115.374C127.683 113.588 125.607 112.682 123.169 112.682V114.682ZM127.873 116.74C129.135 118.072 129.789 119.775 129.789 121.932H131.789C131.789 119.33 130.983 117.113 129.325 115.364L127.873 116.74ZM129.789 121.932C129.789 124.067 129.137 125.787 127.865 127.164L129.334 128.521C130.982 126.738 131.789 124.517 131.789 121.932H129.789ZM127.874 127.154C126.581 128.516 125.033 129.182 123.169 129.182V131.182C125.585 131.182 127.657 130.289 129.325 128.531L127.874 127.154ZM123.169 129.182C121.664 129.182 120.312 128.704 119.084 127.722L117.834 129.283C119.406 130.54 121.195 131.182 123.169 131.182V129.182ZM117.459 128.502V129.732H119.459V128.502H117.459ZM118.459 128.732H114.709V130.732H118.459V128.732ZM126.391 118.041C125.401 116.977 124.145 116.432 122.689 116.432V118.432C123.593 118.432 124.317 118.748 124.927 119.404L126.391 118.041ZM122.689 116.432C121.233 116.432 119.977 116.977 118.987 118.041L120.451 119.404C121.061 118.748 121.785 118.432 122.689 118.432V116.432ZM118.987 118.041C117.999 119.104 117.519 120.424 117.519 121.932H119.519C119.519 120.88 119.84 120.061 120.451 119.404L118.987 118.041ZM117.519 121.932C117.519 123.44 117.999 124.761 118.987 125.824L120.451 124.461C119.84 123.804 119.519 122.984 119.519 121.932H117.519ZM118.987 125.824C119.977 126.888 121.233 127.432 122.689 127.432V125.432C121.785 125.432 121.061 125.117 120.451 124.461L118.987 125.824ZM122.689 127.432C124.145 127.432 125.401 126.888 126.391 125.824L124.927 124.461C124.317 125.117 123.593 125.432 122.689 125.432V127.432ZM126.391 125.824C127.392 124.75 127.889 123.432 127.889 121.932H125.889C125.889 122.953 125.566 123.775 124.928 124.461L126.391 125.824ZM127.889 121.932C127.889 120.433 127.392 119.115 126.391 118.041L124.928 119.404C125.566 120.09 125.889 120.912 125.889 121.932H127.889ZM155.061 123.312V124.312H155.924L156.05 123.459L155.061 123.312ZM142.671 123.312V122.312H141.36L141.707 123.577L142.671 123.312ZM144.321 125.802L143.706 126.591L143.717 126.599L143.727 126.607L144.321 125.802ZM150.891 125.082L151.169 124.122L150.535 123.938L150.117 124.449L150.891 125.082ZM154.521 126.132L155.389 126.629L156.02 125.525L154.799 125.172L154.521 126.132ZM151.491 129.102L151.007 128.228L151.001 128.231L151.491 129.102ZM141.201 127.842L140.494 128.55L140.501 128.556L140.508 128.563L141.201 127.842ZM141.141 116.052L140.434 115.345L141.141 116.052ZM152.811 116.052L152.1 116.755L152.104 116.76L152.811 116.052ZM142.701 120.402L141.74 120.128L141.376 121.402H142.701V120.402ZM151.311 120.402V121.402H152.663L152.267 120.11L151.311 120.402ZM149.661 118.032L150.261 117.232L149.661 118.032ZM155.061 122.312H142.671V124.312H155.061V122.312ZM141.707 123.577C142.043 124.801 142.713 125.816 143.706 126.591L144.937 125.014C144.289 124.509 143.86 123.864 143.636 123.048L141.707 123.577ZM143.727 126.607C144.749 127.361 145.93 127.732 147.231 127.732V125.732C146.333 125.732 145.574 125.484 144.915 124.998L143.727 126.607ZM147.231 127.732C149.043 127.732 150.558 127.069 151.665 125.716L150.117 124.449C149.425 125.296 148.5 125.732 147.231 125.732V127.732ZM150.613 126.043L154.243 127.093L154.799 125.172L151.169 124.122L150.613 126.043ZM153.653 125.636C153.026 126.733 152.151 127.594 151.007 128.228L151.976 129.977C153.432 129.171 154.576 128.051 155.389 126.629L153.653 125.636ZM151.001 128.231C149.88 128.861 148.631 129.182 147.231 129.182V131.182C148.952 131.182 150.542 130.783 151.982 129.974L151.001 128.231ZM147.231 129.182C145.071 129.182 143.315 128.49 141.895 127.122L140.508 128.563C142.327 130.315 144.592 131.182 147.231 131.182V129.182ZM141.908 127.135C140.503 125.73 139.801 124.017 139.801 121.932H137.801C137.801 124.528 138.7 126.755 140.494 128.55L141.908 127.135ZM139.801 121.932C139.801 119.817 140.49 118.118 141.848 116.76L140.434 115.345C138.673 117.107 137.801 119.328 137.801 121.932H139.801ZM141.848 116.76C143.233 115.375 144.925 114.682 146.991 114.682V112.682C144.417 112.682 142.21 113.57 140.434 115.345L141.848 116.76ZM146.991 114.682C149.057 114.682 150.737 115.375 152.1 116.755L153.523 115.35C151.766 113.57 149.565 112.682 146.991 112.682V114.682ZM152.104 116.76C153.487 118.142 154.181 119.844 154.181 121.932H156.181C156.181 119.341 155.296 117.122 153.518 115.345L152.104 116.76ZM154.181 121.932C154.181 122.247 154.148 122.655 154.072 123.166L156.05 123.459C156.135 122.889 156.181 122.378 156.181 121.932H154.181ZM142.701 121.402H151.311V119.402H142.701V121.402ZM152.267 120.11C151.907 118.933 151.235 117.963 150.261 117.232L149.061 118.832C149.687 119.302 150.115 119.912 150.355 120.695L152.267 120.11ZM150.261 117.232C149.284 116.5 148.163 116.132 146.931 116.132V118.132C147.74 118.132 148.438 118.365 149.061 118.832L150.261 117.232ZM146.931 116.132C145.73 116.132 144.636 116.506 143.682 117.24L144.901 118.825C145.507 118.359 146.173 118.132 146.931 118.132V116.132ZM143.682 117.24C142.725 117.975 142.076 118.95 141.74 120.128L143.663 120.677C143.886 119.895 144.297 119.29 144.901 118.825L143.682 117.24Z" fill="black"/>
</svg>
