<svg width="341" height="180" viewBox="0 0 341 180" fill="none" xmlns="http://www.w3.org/2000/svg">
<rect width="341" height="180" fill="#F5F5F5"/>
<path d="M85.7385 45.0244C72.2385 46.0244 46.4385 56.7244 45.2385 85.5244C45.2385 121.524 72.7385 131.024 86.2385 131.024C105.739 131.024 186.739 131.024 232.739 131.024" stroke="black"/>
<path d="M85.5349 45.0244H113.264" stroke="black"/>
<path d="M239.964 72.9302L288.287 148.318H191.641L239.964 72.9302Z" fill="#A57CFE"/>
<path d="M88.8504 131.025L88.8504 80.2112M88.8504 80.2112L88.2521 81.6033M88.8504 80.2112L89.4487 81.6033" stroke="black"/>
<path d="M98.832 131.025L98.832 92.0249M98.832 92.0249L98.332 93.0934M98.832 92.0249L99.332 93.0934" stroke="black"/>
<path d="M78.952 131.025V99.0053M78.952 99.0053L78.332 99.8825M78.952 99.0053L79.572 99.8825" stroke="black"/>
<path d="M108.712 131.025V108.054M108.712 108.054L108.092 108.684M108.712 108.054L109.332 108.684" stroke="black"/>
<mask id="mask0" mask-type="alpha" maskUnits="userSpaceOnUse" x="221" y="68" width="66" height="56">
<path d="M269.086 122.188L261.086 68.1885" stroke="black"/>
<path d="M264.586 122.188L256.586 68.1885" stroke="black"/>
<path d="M259.586 122.188L251.586 68.1885" stroke="black"/>
<path d="M254.586 122.188L246.586 68.1885" stroke="black"/>
<path d="M249.586 123.188L241.586 69.1885" stroke="black"/>
<path d="M244.586 123.188L236.586 69.1885" stroke="black"/>
<path d="M239.586 123.188L231.586 69.1885" stroke="black"/>
<path d="M234.586 123.188L226.586 69.1885" stroke="black"/>
<path d="M229.586 123.188L221.586 69.1885" stroke="black"/>
<path d="M274.586 122.188L266.586 68.1885" stroke="black"/>
<path d="M280.586 122.188L272.586 68.1885" stroke="black"/>
<path d="M285.586 122.188L277.586 68.1885" stroke="black"/>
</mask>
<g mask="url(#mask0)">
<path d="M256.086 68.1885L285.964 119.938H226.208L256.086 68.1885Z" fill="black"/>
</g>
<path d="M109.67 54.1885H105.44L114.44 33.1885H117.71L126.71 54.1885H122.48L120.83 50.2285H111.32L109.67 54.1885ZM119.27 46.5385L116.09 38.9185L112.88 46.5385H119.27ZM138.727 46.7785V54.1885H134.707V33.1885H144.127C146.167 33.1885 147.887 33.8385 149.287 35.1385C150.687 36.4185 151.387 38.0285 151.387 39.9685C151.387 41.9285 150.687 43.5485 149.287 44.8285C147.887 46.1285 146.167 46.7785 144.127 46.7785H138.727ZM144.127 36.9085H138.727V43.0585H144.127C145.007 43.0585 145.737 42.7685 146.317 42.1885C146.897 41.5885 147.187 40.8485 147.187 39.9685C147.187 39.0885 146.897 38.3585 146.317 37.7785C145.737 37.1985 145.007 36.9085 144.127 36.9085ZM164.297 46.7785V54.1885H160.277V33.1885H169.697C171.737 33.1885 173.457 33.8385 174.857 35.1385C176.257 36.4185 176.957 38.0285 176.957 39.9685C176.957 41.9285 176.257 43.5485 174.857 44.8285C173.457 46.1285 171.737 46.7785 169.697 46.7785H164.297ZM169.697 36.9085H164.297V43.0585H169.697C170.577 43.0585 171.307 42.7685 171.887 42.1885C172.467 41.5885 172.757 40.8485 172.757 39.9685C172.757 39.0885 172.467 38.3585 171.887 37.7785C171.307 37.1985 170.577 36.9085 169.697 36.9085ZM185.848 33.1885H189.868V50.4685H200.458V54.1885H185.848V33.1885ZM208.928 33.1885H224.408V36.9085H212.948V41.7085H222.758V45.4285H212.948V50.4685H224.558V54.1885H208.928V33.1885Z" fill="#31D67B"/>
<path d="M109.67 54.1885V55.1885H110.337L110.593 54.5731L109.67 54.1885ZM105.44 54.1885L104.521 53.7946L103.924 55.1885H105.44V54.1885ZM114.44 33.1885V32.1885H113.781L113.521 32.7946L114.44 33.1885ZM117.71 33.1885L118.629 32.7946L118.37 32.1885H117.71V33.1885ZM126.71 54.1885V55.1885H128.227L127.629 53.7946L126.71 54.1885ZM122.48 54.1885L121.557 54.5731L121.813 55.1885H122.48V54.1885ZM120.83 50.2285L121.753 49.8439L121.497 49.2285H120.83V50.2285ZM111.32 50.2285V49.2285H110.653L110.397 49.8439L111.32 50.2285ZM119.27 46.5385V47.5385H120.771L120.193 46.1533L119.27 46.5385ZM116.09 38.9185L117.013 38.5333L116.094 36.3323L115.169 38.5303L116.09 38.9185ZM112.88 46.5385L111.959 46.1503L111.374 47.5385H112.88V46.5385ZM109.67 53.1885H105.44V55.1885H109.67V53.1885ZM106.359 54.5824L115.359 33.5824L113.521 32.7946L104.521 53.7946L106.359 54.5824ZM114.44 34.1885H117.71V32.1885H114.44V34.1885ZM116.791 33.5824L125.791 54.5824L127.629 53.7946L118.629 32.7946L116.791 33.5824ZM126.71 53.1885H122.48V55.1885H126.71V53.1885ZM123.403 53.8039L121.753 49.8439L119.907 50.6131L121.557 54.5731L123.403 53.8039ZM120.83 49.2285H111.32V51.2285H120.83V49.2285ZM110.397 49.8439L108.747 53.8039L110.593 54.5731L112.243 50.6131L110.397 49.8439ZM120.193 46.1533L117.013 38.5333L115.167 39.3036L118.347 46.9236L120.193 46.1533ZM115.169 38.5303L111.959 46.1503L113.802 46.9267L117.012 39.3067L115.169 38.5303ZM112.88 47.5385H119.27V45.5385H112.88V47.5385ZM138.727 46.7785V45.7785H137.727V46.7785H138.727ZM138.727 54.1885V55.1885H139.727V54.1885H138.727ZM134.707 54.1885H133.707V55.1885H134.707V54.1885ZM134.707 33.1885V32.1885H133.707V33.1885H134.707ZM149.287 35.1385L148.607 35.8713L148.612 35.8765L149.287 35.1385ZM149.287 44.8285L148.612 44.0904L148.607 44.0957L149.287 44.8285ZM138.727 36.9085V35.9085H137.727V36.9085H138.727ZM138.727 43.0585H137.727V44.0585H138.727V43.0585ZM146.317 42.1885L147.024 42.8956L147.03 42.8896L147.036 42.8835L146.317 42.1885ZM146.317 37.7785L147.024 37.0714L146.317 37.7785ZM137.727 46.7785V54.1885H139.727V46.7785H137.727ZM138.727 53.1885H134.707V55.1885H138.727V53.1885ZM135.707 54.1885V33.1885H133.707V54.1885H135.707ZM134.707 34.1885H144.127V32.1885H134.707V34.1885ZM144.127 34.1885C145.933 34.1885 147.405 34.7554 148.607 35.8713L149.967 34.4057C148.369 32.9216 146.401 32.1885 144.127 32.1885V34.1885ZM148.612 35.8765C149.8 36.9622 150.387 38.302 150.387 39.9685H152.387C152.387 37.755 151.574 35.8747 149.962 34.4004L148.612 35.8765ZM150.387 39.9685C150.387 41.6583 149.797 43.0069 148.612 44.0904L149.962 45.5665C151.577 44.09 152.387 42.1987 152.387 39.9685H150.387ZM148.607 44.0957C147.405 45.2116 145.933 45.7785 144.127 45.7785V47.7785C146.401 47.7785 148.369 47.0454 149.967 45.5613L148.607 44.0957ZM144.127 45.7785H138.727V47.7785H144.127V45.7785ZM144.127 35.9085H138.727V37.9085H144.127V35.9085ZM137.727 36.9085V43.0585H139.727V36.9085H137.727ZM138.727 44.0585H144.127V42.0585H138.727V44.0585ZM144.127 44.0585C145.251 44.0585 146.242 43.6777 147.024 42.8956L145.61 41.4814C145.232 41.8592 144.763 42.0585 144.127 42.0585V44.0585ZM147.036 42.8835C147.807 42.0861 148.187 41.0922 148.187 39.9685H146.187C146.187 40.6048 145.987 41.0909 145.598 41.4935L147.036 42.8835ZM148.187 39.9685C148.187 38.8446 147.806 37.8535 147.024 37.0714L145.61 38.4856C145.988 38.8635 146.187 39.3323 146.187 39.9685H148.187ZM147.024 37.0714C146.242 36.2892 145.251 35.9085 144.127 35.9085V37.9085C144.763 37.9085 145.232 38.1077 145.61 38.4856L147.024 37.0714ZM164.297 46.7785V45.7785H163.297V46.7785H164.297ZM164.297 54.1885V55.1885H165.297V54.1885H164.297ZM160.277 54.1885H159.277V55.1885H160.277V54.1885ZM160.277 33.1885V32.1885H159.277V33.1885H160.277ZM174.857 35.1385L174.177 35.8713L174.183 35.8765L174.857 35.1385ZM174.857 44.8285L174.183 44.0904L174.177 44.0957L174.857 44.8285ZM164.297 36.9085V35.9085H163.297V36.9085H164.297ZM164.297 43.0585H163.297V44.0585H164.297V43.0585ZM171.887 42.1885L172.594 42.8956L172.6 42.8896L172.606 42.8835L171.887 42.1885ZM171.887 37.7785L172.594 37.0714L171.887 37.7785ZM163.297 46.7785V54.1885H165.297V46.7785H163.297ZM164.297 53.1885H160.277V55.1885H164.297V53.1885ZM161.277 54.1885V33.1885H159.277V54.1885H161.277ZM160.277 34.1885H169.697V32.1885H160.277V34.1885ZM169.697 34.1885C171.504 34.1885 172.975 34.7554 174.177 35.8713L175.538 34.4057C173.94 32.9216 171.971 32.1885 169.697 32.1885V34.1885ZM174.183 35.8765C175.37 36.9622 175.957 38.302 175.957 39.9685H177.957C177.957 37.755 177.145 35.8747 175.532 34.4004L174.183 35.8765ZM175.957 39.9685C175.957 41.6583 175.368 43.0069 174.183 44.0904L175.532 45.5665C177.147 44.09 177.957 42.1987 177.957 39.9685H175.957ZM174.177 44.0957C172.975 45.2116 171.504 45.7785 169.697 45.7785V47.7785C171.971 47.7785 173.94 47.0454 175.538 45.5613L174.177 44.0957ZM169.697 45.7785H164.297V47.7785H169.697V45.7785ZM169.697 35.9085H164.297V37.9085H169.697V35.9085ZM163.297 36.9085V43.0585H165.297V36.9085H163.297ZM164.297 44.0585H169.697V42.0585H164.297V44.0585ZM169.697 44.0585C170.821 44.0585 171.812 43.6777 172.594 42.8956L171.18 41.4814C170.802 41.8592 170.334 42.0585 169.697 42.0585V44.0585ZM172.606 42.8835C173.377 42.0861 173.757 41.0922 173.757 39.9685H171.757C171.757 40.6048 171.558 41.0909 171.168 41.4935L172.606 42.8835ZM173.757 39.9685C173.757 38.8446 173.377 37.8535 172.594 37.0714L171.18 38.4856C171.558 38.8635 171.757 39.3323 171.757 39.9685H173.757ZM172.594 37.0714C171.812 36.2892 170.821 35.9085 169.697 35.9085V37.9085C170.334 37.9085 170.802 38.1077 171.18 38.4856L172.594 37.0714ZM185.848 33.1885V32.1885H184.848V33.1885H185.848ZM189.868 33.1885H190.868V32.1885H189.868V33.1885ZM189.868 50.4685H188.868V51.4685H189.868V50.4685ZM200.458 50.4685H201.458V49.4685H200.458V50.4685ZM200.458 54.1885V55.1885H201.458V54.1885H200.458ZM185.848 54.1885H184.848V55.1885H185.848V54.1885ZM185.848 34.1885H189.868V32.1885H185.848V34.1885ZM188.868 33.1885V50.4685H190.868V33.1885H188.868ZM189.868 51.4685H200.458V49.4685H189.868V51.4685ZM199.458 50.4685V54.1885H201.458V50.4685H199.458ZM200.458 53.1885H185.848V55.1885H200.458V53.1885ZM186.848 54.1885V33.1885H184.848V54.1885H186.848ZM208.928 33.1885V32.1885H207.928V33.1885H208.928ZM224.408 33.1885H225.408V32.1885H224.408V33.1885ZM224.408 36.9085V37.9085H225.408V36.9085H224.408ZM212.948 36.9085V35.9085H211.948V36.9085H212.948ZM212.948 41.7085H211.948V42.7085H212.948V41.7085ZM222.758 41.7085H223.758V40.7085H222.758V41.7085ZM222.758 45.4285V46.4285H223.758V45.4285H222.758ZM212.948 45.4285V44.4285H211.948V45.4285H212.948ZM212.948 50.4685H211.948V51.4685H212.948V50.4685ZM224.558 50.4685H225.558V49.4685H224.558V50.4685ZM224.558 54.1885V55.1885H225.558V54.1885H224.558ZM208.928 54.1885H207.928V55.1885H208.928V54.1885ZM208.928 34.1885H224.408V32.1885H208.928V34.1885ZM223.408 33.1885V36.9085H225.408V33.1885H223.408ZM224.408 35.9085H212.948V37.9085H224.408V35.9085ZM211.948 36.9085V41.7085H213.948V36.9085H211.948ZM212.948 42.7085H222.758V40.7085H212.948V42.7085ZM221.758 41.7085V45.4285H223.758V41.7085H221.758ZM222.758 44.4285H212.948V46.4285H222.758V44.4285ZM211.948 45.4285V50.4685H213.948V45.4285H211.948ZM212.948 51.4685H224.558V49.4685H212.948V51.4685ZM223.558 50.4685V54.1885H225.558V50.4685H223.558ZM224.558 53.1885H208.928V55.1885H224.558V53.1885ZM209.928 54.1885V33.1885H207.928V54.1885H209.928Z" fill="black"/>
</svg>
