<svg width="341" height="180" viewBox="0 0 341 180" fill="none" xmlns="http://www.w3.org/2000/svg">
<rect width="341" height="180" fill="#F5F5F5"/>
<path d="M147.993 81.2075L87.6077 149.345H260.393L316.593 81.2075H147.993Z" fill="#AB85FF"/>
<mask id="mask0" mask-type="alpha" maskUnits="userSpaceOnUse" x="87" y="81" width="230" height="69">
<path d="M147.993 81.2075L87.6077 149.345H260.393L316.593 81.2075H147.993Z" fill="#AB85FF"/>
</mask>
<g mask="url(#mask0)">
<path d="M457.8 83.6411C347.564 39.897 268.825 39.897 221.581 83.6411C174.338 127.385 95.5983 127.385 -14.6369 83.6411" stroke="#8052E4"/>
<path d="M443.99 167.415C359.483 101.614 284.824 84.24 220.013 115.293C155.203 146.345 80.5441 128.971 -3.96342 63.1704" stroke="#8052E4"/>
<path d="M453.139 138.493C338.295 100.899 259.799 105.195 217.651 151.382C175.503 197.568 97.0069 201.865 -17.8369 164.271" stroke="#8052E4"/>
</g>
<path d="M68.2751 68.2764L68.2751 115.469M68.2751 115.469L67.7103 114.176M68.2751 115.469L68.8398 114.176" stroke="black"/>
<path d="M77.6589 68.2764L77.6589 134.217M77.6589 134.217L77.0737 132.411M77.6589 134.217L78.2441 132.411" stroke="black"/>
<path d="M58.9321 68.2764L58.9321 98.0145M58.9321 98.0145L58.3469 97.1997M58.9321 98.0145L59.5173 97.1997" stroke="black"/>
<path d="M87.0222 68.2764V89.6102M87.0222 89.6102L86.437 89.0257M87.0222 89.6102L87.6074 89.0257" stroke="black"/>
<path d="M142.783 96.5778C142.783 93.4377 141.536 90.4261 139.315 88.2057C137.095 85.9852 134.083 84.7378 130.943 84.7378C127.803 84.7378 124.792 85.9852 122.571 88.2057C120.351 90.4261 119.103 93.4377 119.103 96.5778L130.943 96.5778H142.783Z" fill="#D4D4D4"/>
<path d="M125.305 96.5779C125.305 94.4845 124.503 92.4768 123.076 90.9965C121.648 89.5162 119.712 88.6846 117.694 88.6846C115.675 88.6846 113.739 89.5162 112.312 90.9965C110.884 92.4768 110.082 94.4845 110.082 96.5779L117.694 96.5779H125.305Z" fill="#D4D4D4"/>
<path d="M159.134 96.5779C159.134 94.4845 157.976 92.4768 155.914 90.9965C153.852 89.5162 151.055 88.6846 148.14 88.6846C145.224 88.6846 142.427 89.5162 140.365 90.9965C138.304 92.4768 137.145 94.4845 137.145 96.5779L148.14 96.5779H159.134Z" fill="#D4D4D4"/>
<path d="M98.0244 74.5924C98.0244 67.5232 95.2161 60.7435 90.2175 55.7449C85.2188 50.7462 78.4392 47.938 71.37 47.938C64.3008 47.938 57.5211 50.7462 52.5225 55.7449C47.5238 60.7435 44.7156 67.5232 44.7156 74.5924L71.37 74.5924H98.0244Z" fill="#4AE991"/>
<path d="M58.6772 74.5923C58.6772 69.8796 56.8719 65.3598 53.6584 62.0273C50.445 58.6949 46.0867 56.8228 41.5422 56.8228C36.9977 56.8228 32.6394 58.6949 29.4259 62.0273C26.2125 65.3598 24.4072 69.8796 24.4072 74.5923L41.5422 74.5923H58.6772Z" fill="#4AE991"/>
<path d="M134.833 74.5923C134.833 69.8796 132.225 65.3598 127.583 62.0273C122.942 58.6949 116.646 56.8228 110.082 56.8228C103.518 56.8228 97.2224 58.6949 92.5808 62.0273C87.9392 65.3598 85.3315 69.8796 85.3315 74.5923L110.082 74.5923H134.833Z" fill="#4AE991"/>
<path d="M133.564 50.7258C133.564 46.6785 131.956 42.7969 129.094 39.935C126.232 37.0731 122.351 35.4653 118.303 35.4653C114.256 35.4653 110.375 37.0731 107.513 39.935C104.651 42.7969 103.043 46.6785 103.043 50.7258L118.303 50.7258H133.564Z" fill="#20D06F"/>
<path d="M111.037 50.7259C111.037 48.0277 110.003 45.44 108.163 43.532C106.323 41.6241 103.828 40.5522 101.226 40.5522C98.6245 40.5522 96.1292 41.6241 94.2894 43.532C92.4496 45.44 91.416 48.0277 91.416 50.7259L101.226 50.7259H111.037Z" fill="#20D06F"/>
<path d="M154.638 50.7259C154.638 48.0277 153.145 45.44 150.488 43.532C147.83 41.6241 144.226 40.5522 140.468 40.5522C136.709 40.5522 133.105 41.6241 130.448 43.532C127.79 45.44 126.297 48.0277 126.297 50.7259L140.468 50.7259H154.638Z" fill="#20D06F"/>
<path d="M228.836 47.7378H224.606L233.606 26.7378H236.876L245.876 47.7378H241.646L239.996 43.7778H230.486L228.836 47.7378ZM238.436 40.0878L235.256 32.4678L232.046 40.0878H238.436ZM232.895 60.4578H225.935V56.7378H243.905V60.4578H236.945V77.7378H232.895V60.4578ZM233.414 108.188C231.294 108.188 229.534 107.548 228.134 106.268C226.734 104.988 226.034 103.418 226.034 101.558C226.034 99.4378 227.184 97.5978 229.484 96.0378C228.484 94.5578 227.984 93.1078 227.984 91.6878C227.984 90.1278 228.504 88.8378 229.544 87.8178C230.604 86.7978 231.934 86.2878 233.534 86.2878C235.134 86.2878 236.484 86.7878 237.584 87.7878C238.664 88.7678 239.204 90.0078 239.204 91.5078C239.204 92.6278 238.874 93.6078 238.214 94.4478C237.574 95.2678 236.584 96.0978 235.244 96.9378L238.724 100.508C239.204 99.2878 239.444 98.0078 239.444 96.6678H243.194C243.194 99.1678 242.624 101.388 241.484 103.328L245.804 107.738H240.434L238.964 106.238C237.304 107.538 235.454 108.188 233.414 108.188ZM236.354 103.568L232.394 99.5178C232.114 99.2378 231.944 99.0578 231.884 98.9778C230.584 99.8578 229.934 100.768 229.934 101.708C229.934 102.488 230.274 103.148 230.954 103.688C231.634 104.228 232.474 104.498 233.474 104.498C234.534 104.498 235.494 104.188 236.354 103.568ZM232.814 94.1778C233.774 93.6578 234.464 93.2078 234.884 92.8278C235.304 92.4478 235.514 92.0178 235.514 91.5378C235.514 91.0978 235.334 90.7278 234.974 90.4278C234.614 90.1278 234.164 89.9778 233.624 89.9778C233.084 89.9778 232.644 90.1378 232.304 90.4578C231.964 90.7778 231.794 91.1878 231.794 91.6878C231.794 92.3678 232.134 93.1978 232.814 94.1778ZM231.958 120.458H224.998V116.738H242.968V120.458H236.008V137.738H231.958V120.458Z" fill="#31D67B"/>
<path d="M228.836 47.7378V48.7378H229.503L229.759 48.1224L228.836 47.7378ZM224.606 47.7378L223.687 47.3439L223.09 48.7378H224.606V47.7378ZM233.606 26.7378V25.7378H232.947L232.687 26.3439L233.606 26.7378ZM236.876 26.7378L237.795 26.3439L237.536 25.7378H236.876V26.7378ZM245.876 47.7378V48.7378H247.393L246.795 47.3439L245.876 47.7378ZM241.646 47.7378L240.723 48.1224L240.98 48.7378H241.646V47.7378ZM239.996 43.7778L240.919 43.3932L240.663 42.7778H239.996V43.7778ZM230.486 43.7778V42.7778H229.82L229.563 43.3932L230.486 43.7778ZM238.436 40.0878V41.0878H239.937L239.359 39.7027L238.436 40.0878ZM235.256 32.4678L236.179 32.0827L235.261 29.8817L234.335 32.0796L235.256 32.4678ZM232.046 40.0878L231.125 39.6996L230.54 41.0878H232.046V40.0878ZM228.836 46.7378H224.606V48.7378H228.836V46.7378ZM225.525 48.1317L234.525 27.1317L232.687 26.3439L223.687 47.3439L225.525 48.1317ZM233.606 27.7378H236.876V25.7378H233.606V27.7378ZM235.957 27.1317L244.957 48.1317L246.795 47.3439L237.795 26.3439L235.957 27.1317ZM245.876 46.7378H241.646V48.7378H245.876V46.7378ZM242.569 47.3532L240.919 43.3932L239.073 44.1624L240.723 48.1224L242.569 47.3532ZM239.996 42.7778H230.486V44.7778H239.996V42.7778ZM229.563 43.3932L227.913 47.3532L229.759 48.1224L231.409 44.1624L229.563 43.3932ZM239.359 39.7027L236.179 32.0827L234.333 32.8529L237.513 40.4729L239.359 39.7027ZM234.335 32.0796L231.125 39.6996L232.968 40.476L236.178 32.856L234.335 32.0796ZM232.046 41.0878H238.436V39.0878H232.046V41.0878ZM232.895 60.4578H233.895V59.4578H232.895V60.4578ZM225.935 60.4578H224.935V61.4578H225.935V60.4578ZM225.935 56.7378V55.7378H224.935V56.7378H225.935ZM243.905 56.7378H244.905V55.7378H243.905V56.7378ZM243.905 60.4578V61.4578H244.905V60.4578H243.905ZM236.945 60.4578V59.4578H235.945V60.4578H236.945ZM236.945 77.7378V78.7378H237.945V77.7378H236.945ZM232.895 77.7378H231.895V78.7378H232.895V77.7378ZM232.895 59.4578H225.935V61.4578H232.895V59.4578ZM226.935 60.4578V56.7378H224.935V60.4578H226.935ZM225.935 57.7378H243.905V55.7378H225.935V57.7378ZM242.905 56.7378V60.4578H244.905V56.7378H242.905ZM243.905 59.4578H236.945V61.4578H243.905V59.4578ZM235.945 60.4578V77.7378H237.945V60.4578H235.945ZM236.945 76.7378H232.895V78.7378H236.945V76.7378ZM233.895 77.7378V60.4578H231.895V77.7378H233.895ZM228.134 106.268L228.808 105.53L228.134 106.268ZM229.484 96.0378L230.045 96.8654L230.871 96.3051L230.312 95.4779L229.484 96.0378ZM229.544 87.8178L228.85 87.0972L228.843 87.1039L229.544 87.8178ZM237.584 87.7878L236.911 88.5277L236.912 88.5284L237.584 87.7878ZM238.214 94.4478L237.427 93.83L237.425 93.8325L238.214 94.4478ZM235.244 96.9378L234.712 96.0905L233.663 96.7486L234.527 97.6358L235.244 96.9378ZM238.724 100.508L238.007 101.206L239.088 102.314L239.654 100.874L238.724 100.508ZM239.444 96.6678V95.6678H238.444V96.6678H239.444ZM243.194 96.6678H244.194V95.6678H243.194V96.6678ZM241.484 103.328L240.621 102.821L240.234 103.481L240.769 104.028L241.484 103.328ZM245.804 107.738V108.738H248.183L246.518 107.038L245.804 107.738ZM240.434 107.738L239.719 108.438L240.013 108.738H240.434V107.738ZM238.964 106.238L239.678 105.538L239.051 104.899L238.347 105.45L238.964 106.238ZM236.354 103.568L236.938 104.379L237.881 103.699L237.069 102.869L236.354 103.568ZM232.394 99.5178L233.109 98.8186L233.101 98.8107L232.394 99.5178ZM231.884 98.9778L232.684 98.3778L232.112 97.6156L231.323 98.1497L231.884 98.9778ZM230.954 103.688L230.332 104.471L230.954 103.688ZM232.814 94.1778L231.992 94.7479L232.502 95.4836L233.29 95.0571L232.814 94.1778ZM234.884 92.8278L235.554 93.5693L234.884 92.8278ZM232.304 90.4578L231.618 89.7296H231.618L232.304 90.4578ZM233.414 107.188C231.512 107.188 230.002 106.621 228.808 105.53L227.459 107.006C229.065 108.475 231.075 109.188 233.414 109.188V107.188ZM228.808 105.53C227.611 104.435 227.034 103.131 227.034 101.558H225.034C225.034 103.705 225.856 105.541 227.459 107.006L228.808 105.53ZM227.034 101.558C227.034 99.8695 227.924 98.3036 230.045 96.8654L228.922 95.2102C226.443 96.892 225.034 99.0061 225.034 101.558H227.034ZM230.312 95.4779C229.395 94.1206 228.984 92.8623 228.984 91.6878H226.984C226.984 93.3533 227.572 94.995 228.655 96.5976L230.312 95.4779ZM228.984 91.6878C228.984 90.3752 229.41 89.3494 230.244 88.5317L228.843 87.1039C227.597 88.3262 226.984 89.8804 226.984 91.6878H228.984ZM230.237 88.5384C231.093 87.7142 232.167 87.2878 233.534 87.2878V85.2878C231.7 85.2878 230.114 85.8814 228.85 87.0972L230.237 88.5384ZM233.534 87.2878C234.905 87.2878 236.01 87.7085 236.911 88.5277L238.256 87.0479C236.957 85.8671 235.362 85.2878 233.534 85.2878V87.2878ZM236.912 88.5284C237.776 89.3127 238.204 90.2807 238.204 91.5078H240.204C240.204 89.7349 239.551 88.2228 238.256 87.0472L236.912 88.5284ZM238.204 91.5078C238.204 92.4154 237.942 93.1751 237.427 93.83L239 95.0656C239.805 94.0405 240.204 92.8402 240.204 91.5078H238.204ZM237.425 93.8325C236.884 94.5261 236 95.2835 234.712 96.0905L235.775 97.7851C237.167 96.9121 238.263 96.0095 239.002 95.0631L237.425 93.8325ZM234.527 97.6358L238.007 101.206L239.44 99.8098L235.96 96.2398L234.527 97.6358ZM239.654 100.874C240.181 99.5347 240.444 98.1303 240.444 96.6678H238.444C238.444 97.8853 238.226 99.0409 237.793 100.142L239.654 100.874ZM239.444 97.6678H243.194V95.6678H239.444V97.6678ZM242.194 96.6678C242.194 99.0099 241.661 101.051 240.621 102.821L242.346 103.834C243.586 101.724 244.194 99.3256 244.194 96.6678H242.194ZM240.769 104.028L245.089 108.438L246.518 107.038L242.198 102.628L240.769 104.028ZM245.804 106.738H240.434V108.738H245.804V106.738ZM241.148 107.038L239.678 105.538L238.249 106.938L239.719 108.438L241.148 107.038ZM238.347 105.45C236.857 106.618 235.222 107.188 233.414 107.188V109.188C235.685 109.188 237.751 108.458 239.58 107.025L238.347 105.45ZM237.069 102.869L233.109 98.8187L231.679 100.217L235.639 104.267L237.069 102.869ZM233.101 98.8107C232.964 98.674 232.859 98.5664 232.783 98.4862C232.697 98.3953 232.676 98.3673 232.684 98.3778L231.084 99.5778C231.196 99.7274 231.425 99.9634 231.686 100.225L233.101 98.8107ZM231.323 98.1497C229.934 99.0901 228.934 100.262 228.934 101.708H230.934C230.934 101.274 231.233 100.626 232.444 99.8059L231.323 98.1497ZM228.934 101.708C228.934 102.83 229.444 103.766 230.332 104.471L231.575 102.905C231.104 102.53 230.934 102.145 230.934 101.708H228.934ZM230.332 104.471C231.215 105.172 232.284 105.498 233.474 105.498V103.498C232.663 103.498 232.052 103.283 231.575 102.905L230.332 104.471ZM233.474 105.498C234.744 105.498 235.908 105.122 236.938 104.379L235.769 102.757C235.079 103.254 234.324 103.498 233.474 103.498V105.498ZM233.29 95.0571C234.268 94.5273 235.043 94.0317 235.554 93.5693L234.213 92.0863C233.884 92.3839 233.279 92.7883 232.337 93.2985L233.29 95.0571ZM235.554 93.5693C236.143 93.0371 236.514 92.3516 236.514 91.5378H234.514C234.514 91.684 234.464 91.8585 234.213 92.0863L235.554 93.5693ZM236.514 91.5378C236.514 90.7796 236.185 90.1354 235.614 89.6596L234.333 91.196C234.482 91.3201 234.514 91.4159 234.514 91.5378H236.514ZM235.614 89.6596C235.047 89.1874 234.36 88.9778 233.624 88.9778V90.9778C233.967 90.9778 234.18 91.0682 234.333 91.196L235.614 89.6596ZM233.624 88.9778C232.872 88.9778 232.173 89.2077 231.618 89.7296L232.989 91.186C233.114 91.0678 233.296 90.9778 233.624 90.9778V88.9778ZM231.618 89.7296C231.062 90.253 230.794 90.9339 230.794 91.6878H232.794C232.794 91.4417 232.865 91.3026 232.989 91.186L231.618 89.7296ZM230.794 91.6878C230.794 92.6745 231.273 93.7119 231.992 94.7479L233.635 93.6077C232.994 92.6837 232.794 92.061 232.794 91.6878H230.794ZM231.958 120.458H232.958V119.458H231.958V120.458ZM224.998 120.458H223.998V121.458H224.998V120.458ZM224.998 116.738V115.738H223.998V116.738H224.998ZM242.968 116.738H243.968V115.738H242.968V116.738ZM242.968 120.458V121.458H243.968V120.458H242.968ZM236.008 120.458V119.458H235.008V120.458H236.008ZM236.008 137.738V138.738H237.008V137.738H236.008ZM231.958 137.738H230.958V138.738H231.958V137.738ZM231.958 119.458H224.998V121.458H231.958V119.458ZM225.998 120.458V116.738H223.998V120.458H225.998ZM224.998 117.738H242.968V115.738H224.998V117.738ZM241.968 116.738V120.458H243.968V116.738H241.968ZM242.968 119.458H236.008V121.458H242.968V119.458ZM235.008 120.458V137.738H237.008V120.458H235.008ZM236.008 136.738H231.958V138.738H236.008V136.738ZM232.958 137.738V120.458H230.958V137.738H232.958Z" fill="black"/>
</svg>
