<svg width="341" height="180" viewBox="0 0 341 180" fill="none" xmlns="http://www.w3.org/2000/svg">
<rect width="341" height="180" fill="#F5F5F5"/>
<circle cx="219.708" cy="113.5" r="41.5" fill="#A57CFE"/>
<rect x="60.208" y="136" width="245" height="24" fill="#31D67B"/>
<path d="M226.208 39V135.5" stroke="black"/>
<path d="M230.208 39V135.5" stroke="black"/>
<path d="M234.208 39V135.5" stroke="black"/>
<path d="M238.208 39V135.5" stroke="black"/>
<path d="M242.208 39V135.5" stroke="black"/>
<path d="M246.208 39V135.5" stroke="black"/>
<path d="M250.208 39V135.5" stroke="black"/>
<path d="M254.208 39V135.5" stroke="black"/>
<path d="M222.208 39V135.5" stroke="black"/>
<path d="M107.708 125C94.208 124 68.408 113.3 67.208 84.5C67.208 48.5 94.708 39 108.208 39C127.708 39 208.708 39 254.708 39" stroke="black"/>
<path d="M107.504 125H179.708" stroke="black"/>
<path d="M152.208 36C152.208 31.7565 150.575 27.6869 147.668 24.6863C144.761 21.6857 140.819 20 136.708 20C132.597 20 128.655 21.6857 125.748 24.6863C122.841 27.6869 121.208 31.7565 121.208 36L136.708 36H152.208Z" fill="#8052E4"/>
<path d="M170.208 36C170.208 33.0826 168.838 30.2847 166.4 28.2218C163.962 26.1589 160.656 25 157.208 25C153.76 25 150.454 26.1589 148.016 28.2218C145.578 30.2847 144.208 33.0826 144.208 36L157.208 36H170.208Z" fill="#8052E4"/>
<path d="M129.208 36C129.208 34.1435 128.26 32.363 126.572 31.0503C124.884 29.7375 122.595 29 120.208 29C117.821 29 115.532 29.7375 113.844 31.0503C112.156 32.363 111.208 34.1435 111.208 36L120.208 36H129.208Z" fill="#8052E4"/>
<path d="M47.912 68.55C50.092 68.55 52.052 69.09 53.792 70.17C55.532 71.23 56.842 72.66 57.722 74.46L53.822 75.93C53.242 74.85 52.422 74 51.362 73.38C50.322 72.74 49.172 72.42 47.912 72.42C45.992 72.42 44.382 73.1 43.082 74.46C41.802 75.8 41.162 77.48 41.162 79.5C41.162 81.52 41.802 83.2 43.082 84.54C44.362 85.88 45.972 86.55 47.912 86.55C49.172 86.55 50.322 86.24 51.362 85.62C52.422 85 53.242 84.15 53.822 83.07L57.722 84.54C56.862 86.34 55.552 87.78 53.792 88.86C52.032 89.92 50.072 90.45 47.912 90.45C44.812 90.45 42.202 89.41 40.082 87.33C38.002 85.21 36.962 82.6 36.962 79.5C36.962 76.38 38.002 73.78 40.082 71.7C42.182 69.6 44.792 68.55 47.912 68.55ZM70.4914 90H66.4714V69H70.4914V90ZM94.5814 73.26L90.5614 74.43C90.4014 73.87 90.0014 73.39 89.3614 72.99C88.7214 72.59 87.9914 72.39 87.1714 72.39C86.2914 72.39 85.5414 72.61 84.9214 73.05C84.3014 73.47 83.9914 73.99 83.9914 74.61C83.9914 75.39 84.6314 76.05 85.9114 76.59C86.4314 76.81 87.5814 77.18 89.3614 77.7C90.6614 78.06 91.7014 78.45 92.4814 78.87C93.1014 79.19 93.6014 79.56 93.9814 79.98C94.9214 80.96 95.3914 82.23 95.3914 83.79C95.3914 85.81 94.6614 87.43 93.2014 88.65C91.7614 89.85 89.8914 90.45 87.5914 90.45C85.5114 90.45 83.7314 89.97 82.2514 89.01C80.7714 88.01 79.8114 86.79 79.3714 85.35L83.3914 84.15C83.5514 84.83 84.0214 85.41 84.8014 85.89C85.6014 86.35 86.5314 86.58 87.5914 86.58C88.6714 86.58 89.5714 86.36 90.2914 85.92C91.0114 85.46 91.3714 84.87 91.3714 84.15C91.3714 83.63 91.1214 83.14 90.6214 82.68C90.4214 82.52 90.1314 82.35 89.7514 82.17C89.4314 82.01 88.8714 81.8 88.0714 81.54C85.5714 80.8 83.8814 80.2 83.0014 79.74C80.9814 78.66 79.9714 77.05 79.9714 74.91C79.9714 73.01 80.6314 71.48 81.9514 70.32C83.3114 69.14 85.0314 68.55 87.1114 68.55C88.9514 68.55 90.5514 69 91.9114 69.9C93.2714 70.78 94.1614 71.9 94.5814 73.26ZM114.369 68.55C116.549 68.55 118.509 69.09 120.249 70.17C121.989 71.23 123.299 72.66 124.179 74.46L120.279 75.93C119.699 74.85 118.879 74 117.819 73.38C116.779 72.74 115.629 72.42 114.369 72.42C112.449 72.42 110.839 73.1 109.539 74.46C108.259 75.8 107.619 77.48 107.619 79.5C107.619 81.52 108.259 83.2 109.539 84.54C110.819 85.88 112.429 86.55 114.369 86.55C115.629 86.55 116.779 86.24 117.819 85.62C118.879 85 119.699 84.15 120.279 83.07L124.179 84.54C123.319 86.34 122.009 87.78 120.249 88.86C118.489 89.92 116.529 90.45 114.369 90.45C111.269 90.45 108.659 89.41 106.539 87.33C104.459 85.21 103.419 82.6 103.419 79.5C103.419 76.38 104.459 73.78 106.539 71.7C108.639 69.6 111.249 68.55 114.369 68.55ZM143.016 68.55C146.176 68.55 148.786 69.6 150.846 71.7C152.946 73.76 153.996 76.36 153.996 79.5C153.996 82.62 152.946 85.23 150.846 87.33C148.766 89.41 146.156 90.45 143.016 90.45C139.916 90.45 137.306 89.41 135.186 87.33C133.106 85.21 132.066 82.6 132.066 79.5C132.066 76.38 133.106 73.78 135.186 71.7C137.286 69.6 139.896 68.55 143.016 68.55ZM138.186 74.46C136.906 75.8 136.266 77.48 136.266 79.5C136.266 81.52 136.906 83.2 138.186 84.54C139.466 85.88 141.076 86.55 143.016 86.55C144.956 86.55 146.566 85.88 147.846 84.54C149.146 83.18 149.796 81.5 149.796 79.5C149.796 77.5 149.146 75.82 147.846 74.46C146.546 73.1 144.936 72.42 143.016 72.42C141.096 72.42 139.486 73.1 138.186 74.46Z" fill="#D4D4D4"/>
<path d="M53.792 70.17L53.2646 71.0197L53.2717 71.024L53.792 70.17ZM57.722 74.46L58.0747 75.3957L59.1031 75.0081L58.6204 74.0208L57.722 74.46ZM53.822 75.93L52.941 76.4031L53.3553 77.1746L54.1747 76.8657L53.822 75.93ZM51.362 73.38L50.8379 74.2317L50.8474 74.2375L50.8571 74.2432L51.362 73.38ZM43.082 74.46L42.3591 73.769L42.3589 73.7693L43.082 74.46ZM43.082 84.54L43.8051 83.8493L43.082 84.54ZM51.362 85.62L50.8571 84.7568L50.8499 84.7611L51.362 85.62ZM53.822 83.07L54.1747 82.1343L53.3553 81.8254L52.941 82.5969L53.822 83.07ZM57.722 84.54L58.6243 84.9711L59.0938 83.9884L58.0747 83.6043L57.722 84.54ZM53.792 88.86L54.3079 89.7167L54.315 89.7123L53.792 88.86ZM40.082 87.33L39.3682 88.0303L39.3749 88.0371L39.3817 88.0438L40.082 87.33ZM40.082 71.7L40.7891 72.4071L40.082 71.7ZM47.912 69.55C49.9182 69.55 51.6933 70.0443 53.2646 71.0196L54.3194 69.3204C52.4107 68.1357 50.2658 67.55 47.912 67.55V69.55ZM53.2717 71.024C54.8516 71.9865 56.029 73.2738 56.8236 74.8992L58.6204 74.0208C57.655 72.0462 56.2124 70.4735 54.3123 69.316L53.2717 71.024ZM57.3693 73.5243L53.4693 74.9943L54.1747 76.8657L58.0747 75.3957L57.3693 73.5243ZM54.703 75.4569C54.0357 74.2144 53.0855 73.2296 51.8669 72.5168L50.8571 74.2432C51.7585 74.7704 52.4482 75.4856 52.941 76.4031L54.703 75.4569ZM51.8861 72.5283C50.6833 71.7882 49.3509 71.42 47.912 71.42V73.42C48.9931 73.42 49.9607 73.6918 50.8379 74.2317L51.8861 72.5283ZM47.912 71.42C45.7253 71.42 43.8521 72.2071 42.3591 73.769L43.8049 75.151C44.9119 73.9929 46.2587 73.42 47.912 73.42V71.42ZM42.3589 73.7693C40.8844 75.3129 40.162 77.2481 40.162 79.5H42.162C42.162 77.7119 42.7196 76.2871 43.8051 75.1507L42.3589 73.7693ZM40.162 79.5C40.162 81.7519 40.8844 83.6871 42.3589 85.2307L43.8051 83.8493C42.7196 82.7129 42.162 81.2881 42.162 79.5H40.162ZM42.3589 85.2307C43.8373 86.7784 45.7132 87.55 47.912 87.55V85.55C46.2308 85.55 44.8867 84.9816 43.8051 83.8493L42.3589 85.2307ZM47.912 87.55C49.3446 87.55 50.6728 87.1951 51.8741 86.4789L50.8499 84.7611C49.9712 85.2849 48.9994 85.55 47.912 85.55V87.55ZM51.8669 86.4832C53.0855 85.7704 54.0357 84.7856 54.703 83.5431L52.941 82.5969C52.4482 83.5144 51.7585 84.2296 50.8571 84.7568L51.8669 86.4832ZM53.4693 84.0057L57.3693 85.4757L58.0747 83.6043L54.1747 82.1343L53.4693 84.0057ZM56.8197 84.1089C56.0459 85.7285 54.8707 87.0248 53.269 88.0077L54.315 89.7123C56.2333 88.5352 57.6781 86.9515 58.6243 84.9711L56.8197 84.1089ZM53.2761 88.0034C51.6799 88.9647 49.8999 89.45 47.912 89.45V91.45C50.2441 91.45 52.384 90.8753 54.3079 89.7166L53.2761 88.0034ZM47.912 89.45C45.0612 89.45 42.7065 88.504 40.7823 86.6162L39.3817 88.0438C41.6975 90.316 44.5628 91.45 47.912 91.45V89.45ZM40.7958 86.6297C38.908 84.7055 37.962 82.3508 37.962 79.5H35.962C35.962 82.8492 37.096 85.7145 39.3682 88.0303L40.7958 86.6297ZM37.962 79.5C37.962 76.6274 38.9089 74.2873 40.7891 72.4071L39.3749 70.9929C37.0951 73.2727 35.962 76.1326 35.962 79.5H37.962ZM40.7891 72.4071C42.6913 70.5049 45.0423 69.55 47.912 69.55V67.55C44.5417 67.55 41.6727 68.6951 39.3749 70.9929L40.7891 72.4071ZM70.4914 90V91H71.4914V90H70.4914ZM66.4714 90H65.4714V91H66.4714V90ZM66.4714 69V68H65.4714V69H66.4714ZM70.4914 69H71.4914V68H70.4914V69ZM70.4914 89H66.4714V91H70.4914V89ZM67.4714 90V69H65.4714V90H67.4714ZM66.4714 70H70.4914V68H66.4714V70ZM69.4914 69V90H71.4914V69H69.4914ZM94.5814 73.26L94.8609 74.2202L95.8368 73.9361L95.5369 72.9649L94.5814 73.26ZM90.5614 74.43L89.5999 74.7047L89.876 75.671L90.8409 75.3902L90.5614 74.43ZM84.9214 73.05L85.4823 73.8779L85.4913 73.8718L85.5002 73.8655L84.9214 73.05ZM85.9114 76.59L86.3011 75.669L86.3001 75.6686L85.9114 76.59ZM89.3614 77.7L89.081 78.66L89.0946 78.6637L89.3614 77.7ZM92.4814 78.87L92.0073 79.7505L92.015 79.7546L92.0228 79.7586L92.4814 78.87ZM93.9814 79.98L93.2399 80.6509L93.2497 80.6617L93.2598 80.6722L93.9814 79.98ZM93.2014 88.65L93.8416 89.4182L93.8427 89.4174L93.2014 88.65ZM82.2514 89.01L81.6916 89.8386L81.6994 89.8438L81.7073 89.849L82.2514 89.01ZM79.3714 85.35L79.0854 84.3918L78.121 84.6797L78.4151 85.6422L79.3714 85.35ZM83.3914 84.15L84.3649 83.921L84.1219 82.8884L83.1054 83.1918L83.3914 84.15ZM84.8014 85.89L84.2773 86.7417L84.29 86.7495L84.303 86.7569L84.8014 85.89ZM90.2914 85.92L90.8129 86.7733L90.8214 86.7681L90.8298 86.7627L90.2914 85.92ZM90.6214 82.68L91.2985 81.9441L91.2731 81.9207L91.2461 81.8991L90.6214 82.68ZM89.7514 82.17L89.3042 83.0644L89.3137 83.0692L89.3234 83.0737L89.7514 82.17ZM88.0714 81.54L88.3805 80.589L88.368 80.5849L88.3553 80.5811L88.0714 81.54ZM83.0014 79.74L82.5299 80.6219L82.5382 80.6262L83.0014 79.74ZM81.9514 70.32L81.2961 69.5647L81.2913 69.5688L81.9514 70.32ZM91.9114 69.9L91.3596 70.734L91.3682 70.7396L91.9114 69.9ZM94.302 72.2998L90.282 73.4698L90.8409 75.3902L94.8609 74.2202L94.302 72.2998ZM91.523 74.1553C91.2768 73.2938 90.6775 72.6333 89.8914 72.142L88.8314 73.838C89.3254 74.1467 89.5261 74.4462 89.5999 74.7047L91.523 74.1553ZM89.8914 72.142C89.0788 71.6341 88.162 71.39 87.1714 71.39V73.39C87.8209 73.39 88.3641 73.5459 88.8314 73.838L89.8914 72.142ZM87.1714 71.39C86.1178 71.39 85.1574 71.6563 84.3427 72.2345L85.5002 73.8655C85.9255 73.5637 86.4651 73.39 87.1714 73.39V71.39ZM84.3606 72.2221C83.5312 72.7839 82.9914 73.5865 82.9914 74.61H84.9914C84.9914 74.3935 85.0717 74.1561 85.4823 73.8779L84.3606 72.2221ZM82.9914 74.61C82.9914 76.0444 84.1799 76.9449 85.5227 77.5114L86.3001 75.6686C85.0829 75.1551 84.9914 74.7356 84.9914 74.61H82.9914ZM85.5218 77.511C86.1054 77.7579 87.3142 78.1437 89.081 78.6599L89.6419 76.7401C87.8487 76.2163 86.7575 75.8621 86.3011 75.669L85.5218 77.511ZM89.0946 78.6637C90.3558 79.013 91.3177 79.3791 92.0073 79.7505L92.9555 77.9895C92.0852 77.5209 90.9671 77.107 89.6283 76.7363L89.0946 78.6637ZM92.0228 79.7586C92.5601 80.0359 92.9566 80.3378 93.2399 80.6509L94.723 79.3091C94.2463 78.7822 93.6428 78.3441 92.9401 77.9814L92.0228 79.7586ZM93.2598 80.6722C93.9944 81.4382 94.3914 82.4466 94.3914 83.79H96.3914C96.3914 82.0134 95.8485 80.4818 94.7031 79.2878L93.2598 80.6722ZM94.3914 83.79C94.3914 85.5346 93.7773 86.8656 92.5602 87.8826L93.8427 89.4174C95.5456 87.9944 96.3914 86.0854 96.3914 83.79H94.3914ZM92.5613 87.8818C91.3391 88.9002 89.7125 89.45 87.5914 89.45V91.45C90.0704 91.45 92.1838 90.7998 93.8416 89.4182L92.5613 87.8818ZM87.5914 89.45C85.6694 89.45 84.0864 89.0083 82.7956 88.171L81.7073 89.849C83.3765 90.9317 85.3535 91.45 87.5914 91.45V89.45ZM82.8113 88.1814C81.4842 87.2847 80.689 86.2399 80.3278 85.0578L78.4151 85.6422C78.9339 87.3401 80.0587 88.7353 81.6916 89.8386L82.8113 88.1814ZM79.6575 86.3082L83.6775 85.1082L83.1054 83.1918L79.0854 84.3918L79.6575 86.3082ZM82.418 84.379C82.6562 85.3914 83.344 86.1673 84.2773 86.7417L85.3255 85.0383C84.6989 84.6527 84.4467 84.2686 84.3649 83.921L82.418 84.379ZM84.303 86.7569C85.276 87.3164 86.3829 87.58 87.5914 87.58V85.58C86.68 85.58 85.9269 85.3836 85.2999 85.0231L84.303 86.7569ZM87.5914 87.58C88.8047 87.58 89.8976 87.3326 90.8129 86.7733L89.77 85.0667C89.2453 85.3874 88.5382 85.58 87.5914 85.58V87.58ZM90.8298 86.7627C91.775 86.1588 92.3714 85.2792 92.3714 84.15H90.3714C90.3714 84.4608 90.2479 84.7612 89.7531 85.0773L90.8298 86.7627ZM92.3714 84.15C92.3714 83.2712 91.9378 82.5322 91.2985 81.9441L89.9444 83.4159C90.3051 83.7478 90.3714 83.9888 90.3714 84.15H92.3714ZM91.2461 81.8991C90.9595 81.6698 90.5911 81.4612 90.1795 81.2663L89.3234 83.0737C89.6718 83.2388 89.8834 83.3702 89.9967 83.4609L91.2461 81.8991ZM90.1987 81.2756C89.8053 81.0789 89.1818 80.8494 88.3805 80.589L87.7624 82.491C88.5611 82.7506 89.0576 82.9411 89.3042 83.0644L90.1987 81.2756ZM88.3553 80.5811C85.8488 79.8392 84.2473 79.2628 83.4647 78.8538L82.5382 80.6262C83.5156 81.1372 85.2941 81.7608 87.7876 82.4989L88.3553 80.5811ZM83.4729 78.8581C82.585 78.3834 81.9712 77.821 81.5761 77.1911C81.1832 76.5648 80.9714 75.8164 80.9714 74.91H78.9714C78.9714 76.1436 79.2647 77.2702 79.8818 78.2539C80.4967 79.234 81.3978 80.0166 82.53 80.6219L83.4729 78.8581ZM80.9714 74.91C80.9714 73.2713 81.5266 72.0246 82.6116 71.0712L81.2913 69.5688C79.7363 70.9354 78.9714 72.7487 78.9714 74.91H80.9714ZM82.6068 71.0753C83.7571 70.0773 85.2326 69.55 87.1114 69.55V67.55C84.8303 67.55 82.8658 68.2027 81.2961 69.5647L82.6068 71.0753ZM87.1114 69.55C88.7812 69.55 90.1837 69.9558 91.3596 70.7339L92.4633 69.0661C90.9192 68.0442 89.1217 67.55 87.1114 67.55V69.55ZM91.3682 70.7396C92.56 71.5107 93.2847 72.4501 93.626 73.5551L95.5369 72.9649C95.0382 71.3499 93.9829 70.0493 92.4547 69.0604L91.3682 70.7396ZM120.249 70.17L119.722 71.0197L119.729 71.024L120.249 70.17ZM124.179 74.46L124.532 75.3957L125.56 75.0081L125.077 74.0208L124.179 74.46ZM120.279 75.93L119.398 76.4031L119.812 77.1746L120.632 76.8657L120.279 75.93ZM117.819 73.38L117.295 74.2317L117.304 74.2375L117.314 74.2432L117.819 73.38ZM109.539 74.46L108.816 73.769L108.816 73.7693L109.539 74.46ZM109.539 84.54L110.262 83.8493L109.539 84.54ZM117.819 85.62L117.314 84.7568L117.307 84.7611L117.819 85.62ZM120.279 83.07L120.632 82.1343L119.812 81.8254L119.398 82.5969L120.279 83.07ZM124.179 84.54L125.081 84.9711L125.551 83.9884L124.532 83.6043L124.179 84.54ZM120.249 88.86L120.765 89.7167L120.772 89.7123L120.249 88.86ZM106.539 87.33L105.825 88.0303L105.832 88.0371L105.839 88.0438L106.539 87.33ZM106.539 71.7L107.246 72.4071L106.539 71.7ZM114.369 69.55C116.375 69.55 118.15 70.0443 119.722 71.0196L120.776 69.3204C118.868 68.1357 116.723 67.55 114.369 67.55V69.55ZM119.729 71.024C121.309 71.9865 122.486 73.2738 123.281 74.8992L125.077 74.0208C124.112 72.0462 122.669 70.4735 120.769 69.316L119.729 71.024ZM123.826 73.5243L119.926 74.9943L120.632 76.8657L124.532 75.3957L123.826 73.5243ZM121.16 75.4569C120.493 74.2144 119.542 73.2296 118.324 72.5168L117.314 74.2432C118.216 74.7704 118.905 75.4856 119.398 76.4031L121.16 75.4569ZM118.343 72.5283C117.14 71.7882 115.808 71.42 114.369 71.42V73.42C115.45 73.42 116.418 73.6918 117.295 74.2317L118.343 72.5283ZM114.369 71.42C112.182 71.42 110.309 72.2071 108.816 73.769L110.262 75.151C111.369 73.9929 112.716 73.42 114.369 73.42V71.42ZM108.816 73.7693C107.341 75.3129 106.619 77.2481 106.619 79.5H108.619C108.619 77.7119 109.177 76.2871 110.262 75.1507L108.816 73.7693ZM106.619 79.5C106.619 81.7519 107.341 83.6871 108.816 85.2307L110.262 83.8493C109.177 82.7129 108.619 81.2881 108.619 79.5H106.619ZM108.816 85.2307C110.294 86.7784 112.17 87.55 114.369 87.55V85.55C112.688 85.55 111.344 84.9816 110.262 83.8493L108.816 85.2307ZM114.369 87.55C115.802 87.55 117.13 87.1951 118.331 86.4789L117.307 84.7611C116.428 85.2849 115.456 85.55 114.369 85.55V87.55ZM118.324 86.4832C119.542 85.7704 120.493 84.7856 121.16 83.5431L119.398 82.5969C118.905 83.5144 118.216 84.2296 117.314 84.7568L118.324 86.4832ZM119.926 84.0057L123.826 85.4757L124.532 83.6043L120.632 82.1343L119.926 84.0057ZM123.277 84.1089C122.503 85.7285 121.328 87.0248 119.726 88.0077L120.772 89.7123C122.69 88.5352 124.135 86.9515 125.081 84.9711L123.277 84.1089ZM119.733 88.0034C118.137 88.9647 116.357 89.45 114.369 89.45V91.45C116.701 91.45 118.841 90.8753 120.765 89.7166L119.733 88.0034ZM114.369 89.45C111.518 89.45 109.164 88.504 107.239 86.6162L105.839 88.0438C108.155 90.316 111.02 91.45 114.369 91.45V89.45ZM107.253 86.6297C105.365 84.7055 104.419 82.3508 104.419 79.5H102.419C102.419 82.8492 103.553 85.7145 105.825 88.0303L107.253 86.6297ZM104.419 79.5C104.419 76.6274 105.366 74.2873 107.246 72.4071L105.832 70.9929C103.552 73.2727 102.419 76.1326 102.419 79.5H104.419ZM107.246 72.4071C109.148 70.5049 111.499 69.55 114.369 69.55V67.55C110.999 67.55 108.13 68.6951 105.832 70.9929L107.246 72.4071ZM150.846 71.7L150.132 72.4003L150.138 72.4071L150.145 72.4139L150.846 71.7ZM150.846 87.33L150.138 86.6229L150.846 87.33ZM135.186 87.33L134.472 88.0303L134.478 88.0371L134.485 88.0438L135.186 87.33ZM135.186 71.7L135.893 72.4071L135.186 71.7ZM138.186 74.46L137.463 73.769L137.462 73.7693L138.186 74.46ZM138.186 84.54L138.909 83.8493L138.186 84.54ZM147.846 84.54L147.123 83.849L147.122 83.8493L147.846 84.54ZM147.846 74.46L147.123 75.151L147.846 74.46ZM143.016 69.55C145.929 69.55 148.275 70.5072 150.132 72.4003L151.559 70.9997C149.296 68.6928 146.422 67.55 143.016 67.55V69.55ZM150.145 72.4139C152.04 74.2722 152.996 76.6084 152.996 79.5H154.996C154.996 76.1116 153.851 73.2478 151.546 70.9861L150.145 72.4139ZM152.996 79.5C152.996 82.3697 152.041 84.7207 150.138 86.6229L151.553 88.0371C153.85 85.7393 154.996 82.8703 154.996 79.5H152.996ZM150.138 86.6229C148.26 88.5018 145.91 89.45 143.016 89.45V91.45C146.401 91.45 149.272 90.3182 151.553 88.0371L150.138 86.6229ZM143.016 89.45C140.165 89.45 137.81 88.504 135.886 86.6162L134.485 88.0438C136.801 90.316 139.666 91.45 143.016 91.45V89.45ZM135.899 86.6297C134.011 84.7055 133.066 82.3508 133.066 79.5H131.066C131.066 82.8492 132.2 85.7145 134.472 88.0303L135.899 86.6297ZM133.066 79.5C133.066 76.6274 134.012 74.2873 135.893 72.4071L134.478 70.9929C132.199 73.2727 131.066 76.1326 131.066 79.5H133.066ZM135.893 72.4071C137.795 70.5049 140.146 69.55 143.016 69.55V67.55C139.645 67.55 136.776 68.6951 134.478 70.9929L135.893 72.4071ZM137.462 73.7693C135.988 75.3129 135.266 77.2481 135.266 79.5H137.266C137.266 77.7119 137.823 76.2871 138.909 75.1507L137.462 73.7693ZM135.266 79.5C135.266 81.7519 135.988 83.6871 137.462 85.2307L138.909 83.8493C137.823 82.7129 137.266 81.2881 137.266 79.5H135.266ZM137.462 85.2307C138.941 86.7784 140.817 87.55 143.016 87.55V85.55C141.334 85.55 139.99 84.9816 138.909 83.8493L137.462 85.2307ZM143.016 87.55C145.214 87.55 147.09 86.7784 148.569 85.2307L147.122 83.8493C146.041 84.9816 144.697 85.55 143.016 85.55V87.55ZM148.568 85.231C150.058 83.6724 150.796 81.7395 150.796 79.5H148.796C148.796 81.2605 148.233 82.6876 147.123 83.849L148.568 85.231ZM150.796 79.5C150.796 77.2605 150.058 75.3276 148.568 73.769L147.123 75.151C148.233 76.3124 148.796 77.7395 148.796 79.5H150.796ZM148.568 73.769C147.075 72.2071 145.202 71.42 143.016 71.42V73.42C144.669 73.42 146.016 73.9929 147.123 75.151L148.568 73.769ZM143.016 71.42C140.829 71.42 138.956 72.2071 137.463 73.769L138.908 75.151C140.015 73.9929 141.362 73.42 143.016 73.42V71.42Z" fill="black"/>
</svg>
