<svg width="341" height="180" viewBox="0 0 341 180" fill="none" xmlns="http://www.w3.org/2000/svg">
<rect width="341" height="180" fill="#F5F5F5"/>
<path d="M69.0344 42.4465C54.1049 43.5524 25.5729 55.3854 24.2458 87.2351C24.2458 127.047 54.6578 137.553 69.5874 137.553C91.1522 137.553 180.729 137.553 231.601 137.553" stroke="black"/>
<path d="M68.8092 42.4463H148.659" stroke="black"/>
<path d="M271.966 137.553C286.895 136.447 315.427 124.614 316.754 92.7644C316.754 52.9523 286.342 42.4463 271.413 42.4463C249.848 42.4463 160.271 42.4463 109.399 42.4463" stroke="black"/>
<path d="M272.191 137.553H192.341" stroke="black"/>
<path d="M231.601 137L252.492 124.938V149.062L231.601 137Z" fill="#31D67B"/>
<path d="M244.817 137L265.709 124.938V149.062L244.817 137Z" fill="#31D67B"/>
<path d="M258.745 137L279.637 124.938V149.062L258.745 137Z" fill="#31D67B"/>
<path d="M117.964 42.4462L96.6237 54.7672V30.1253L117.964 42.4462Z" fill="#D4D4D4"/>
<path d="M104.254 42.4462L82.9138 54.7672V30.1253L104.254 42.4462Z" fill="#D4D4D4"/>
<path d="M90.5443 42.4462L69.2038 54.7672V30.1253L90.5443 42.4462Z" fill="#D4D4D4"/>
<path d="M187.75 42.9995V137M187.75 42.9995V137" stroke="black"/>
<path d="M183.25 42.4468V137.553M183.25 42.4468V137.553" stroke="black"/>
<path d="M178.25 42.4468V137.553M178.25 42.4468V137.553" stroke="black"/>
<path d="M173.25 42.4468V137.553M173.25 42.4468V137.553" stroke="black"/>
<path d="M168.25 42.4468V137.553M168.25 42.4468V137.553" stroke="black"/>
<path d="M163.25 42.4468V137.553M163.25 42.4468V137.553" stroke="black"/>
<path d="M158.25 42.4468V137.553M158.25 42.4468V137.553" stroke="black"/>
<path d="M153.25 42.4468V137.553M153.25 42.4468V137.553" stroke="black"/>
<path d="M99.05 77.8044C101.25 77.8044 103.23 78.3444 104.99 79.4244C106.73 80.4644 108.06 81.8944 108.98 83.7144L105.08 85.1844C104.48 84.0844 103.65 83.2244 102.59 82.6044C101.53 81.9844 100.35 81.6744 99.05 81.6744C97.07 81.6744 95.42 82.3544 94.1 83.7144C92.78 85.0744 92.12 86.7544 92.12 88.7544C92.12 90.7744 92.76 92.4544 94.04 93.7944C95.32 95.1344 96.89 95.8044 98.75 95.8044C100.17 95.8044 101.47 95.3944 102.65 94.5744C103.81 93.7744 104.62 92.6944 105.08 91.3344H98.45V87.6744H109.64C109.68 88.2744 109.7 88.6244 109.7 88.7244C109.7 91.8044 108.66 94.4144 106.58 96.5544C104.52 98.6544 101.93 99.7044 98.81 99.7044C95.71 99.7044 93.12 98.6644 91.04 96.5844C88.96 94.4644 87.92 91.8544 87.92 88.7544C87.92 85.6144 88.98 83.0144 91.1 80.9544C93.22 78.8544 95.87 77.8044 99.05 77.8044ZM128.981 77.8044C132.141 77.8044 134.751 78.8544 136.811 80.9544C138.911 83.0144 139.961 85.6144 139.961 88.7544C139.961 91.8744 138.911 94.4844 136.811 96.5844C134.731 98.6644 132.121 99.7044 128.981 99.7044C125.881 99.7044 123.271 98.6644 121.151 96.5844C119.071 94.4644 118.031 91.8544 118.031 88.7544C118.031 85.6344 119.071 83.0344 121.151 80.9544C123.251 78.8544 125.861 77.8044 128.981 77.8044ZM124.151 83.7144C122.871 85.0544 122.231 86.7344 122.231 88.7544C122.231 90.7744 122.871 92.4544 124.151 93.7944C125.431 95.1344 127.041 95.8044 128.981 95.8044C130.921 95.8044 132.531 95.1344 133.811 93.7944C135.111 92.4344 135.761 90.7544 135.761 88.7544C135.761 86.7544 135.111 85.0744 133.811 83.7144C132.511 82.3544 130.901 81.6744 128.981 81.6744C127.061 81.6744 125.451 82.3544 124.151 83.7144ZM159.239 77.8044C162.399 77.8044 165.009 78.8544 167.069 80.9544C169.169 83.0144 170.219 85.6144 170.219 88.7544C170.219 91.8744 169.169 94.4844 167.069 96.5844C164.989 98.6644 162.379 99.7044 159.239 99.7044C156.139 99.7044 153.529 98.6644 151.409 96.5844C149.329 94.4644 148.289 91.8544 148.289 88.7544C148.289 85.6344 149.329 83.0344 151.409 80.9544C153.509 78.8544 156.119 77.8044 159.239 77.8044ZM154.409 83.7144C153.129 85.0544 152.489 86.7344 152.489 88.7544C152.489 90.7744 153.129 92.4544 154.409 93.7944C155.689 95.1344 157.299 95.8044 159.239 95.8044C161.179 95.8044 162.789 95.1344 164.069 93.7944C165.369 92.4344 166.019 90.7544 166.019 88.7544C166.019 86.7544 165.369 85.0744 164.069 83.7144C162.769 82.3544 161.159 81.6744 159.239 81.6744C157.319 81.6744 155.709 82.3544 154.409 83.7144ZM189.677 77.8044C191.877 77.8044 193.857 78.3444 195.617 79.4244C197.357 80.4644 198.687 81.8944 199.607 83.7144L195.707 85.1844C195.107 84.0844 194.277 83.2244 193.217 82.6044C192.157 81.9844 190.977 81.6744 189.677 81.6744C187.697 81.6744 186.047 82.3544 184.727 83.7144C183.407 85.0744 182.747 86.7544 182.747 88.7544C182.747 90.7744 183.387 92.4544 184.667 93.7944C185.947 95.1344 187.517 95.8044 189.377 95.8044C190.797 95.8044 192.097 95.3944 193.277 94.5744C194.437 93.7744 195.247 92.6944 195.707 91.3344H189.077V87.6744H200.267C200.307 88.2744 200.327 88.6244 200.327 88.7244C200.327 91.8044 199.287 94.4144 197.207 96.5544C195.147 98.6544 192.557 99.7044 189.437 99.7044C186.337 99.7044 183.747 98.6644 181.667 96.5844C179.587 94.4644 178.547 91.8544 178.547 88.7544C178.547 85.6144 179.607 83.0144 181.727 80.9544C183.847 78.8544 186.497 77.8044 189.677 77.8044ZM209.228 78.2544H213.248V95.5344H223.838V99.2544H209.228V78.2544ZM232.308 78.2544H247.788V81.9744H236.328V86.7744H246.138V90.4944H236.328V95.5344H247.938V99.2544H232.308V78.2544Z" fill="#AB85FF"/>
<path d="M104.99 79.4244L104.467 80.2768L104.477 80.2828L104.99 79.4244ZM108.98 83.7144L109.333 84.6501L110.375 84.2573L109.872 83.2633L108.98 83.7144ZM105.08 85.1844L104.202 85.6632L104.619 86.427L105.433 86.1201L105.08 85.1844ZM102.59 82.6044L102.085 83.4676L102.085 83.4676L102.59 82.6044ZM94.1 83.7144L94.8176 84.4109L94.1 83.7144ZM94.04 93.7944L94.7631 93.1037L94.04 93.7944ZM102.65 94.5744L102.082 93.7512L102.079 93.7532L102.65 94.5744ZM105.08 91.3344L106.027 91.6548L106.474 90.3344H105.08V91.3344ZM98.45 91.3344H97.45V92.3344H98.45V91.3344ZM98.45 87.6744V86.6744H97.45V87.6744H98.45ZM109.64 87.6744L110.638 87.6079L110.576 86.6744H109.64V87.6744ZM106.58 96.5544L107.294 97.2547L107.297 97.2514L106.58 96.5544ZM91.04 96.5844L90.3262 97.2848L90.3329 97.2915L91.04 96.5844ZM91.1 80.9544L91.7969 81.6716L91.8037 81.6648L91.1 80.9544ZM99.05 78.8044C101.078 78.8044 102.875 79.2997 104.467 80.2767L105.513 78.5721C103.585 77.3891 101.422 76.8044 99.05 76.8044V78.8044ZM104.477 80.2828C106.053 81.225 107.252 82.5134 108.088 84.1655L109.872 83.2633C108.868 81.2754 107.407 79.7038 105.503 78.566L104.477 80.2828ZM108.627 82.7787L104.727 84.2487L105.433 86.1201L109.333 84.6501L108.627 82.7787ZM105.958 84.7055C105.273 83.4493 104.315 82.455 103.095 81.7412L102.085 83.4676C102.985 83.9938 103.687 84.7195 104.202 85.6632L105.958 84.7055ZM103.095 81.7412C101.873 81.0263 100.517 80.6744 99.05 80.6744V82.6744C100.183 82.6744 101.187 82.9425 102.085 83.4676L103.095 81.7412ZM99.05 80.6744C96.8131 80.6744 94.9 81.4544 93.3824 83.0179L94.8176 84.4109C95.94 83.2544 97.3269 82.6744 99.05 82.6744V80.6744ZM93.3824 83.0179C91.8705 84.5756 91.12 86.5102 91.12 88.7544H93.12C93.12 86.9985 93.6895 85.5732 94.8176 84.4109L93.3824 83.0179ZM91.12 88.7544C91.12 91.0063 91.8424 92.9415 93.3169 94.4851L94.7631 93.1037C93.6776 91.9673 93.12 90.5424 93.12 88.7544H91.12ZM93.3169 94.4851C94.7864 96.0235 96.618 96.8044 98.75 96.8044V94.8044C97.162 94.8044 95.8536 94.2453 94.7631 93.1037L93.3169 94.4851ZM98.75 96.8044C100.377 96.8044 101.875 96.3305 103.221 95.3956L102.079 93.7532C101.065 94.4583 99.9634 94.8044 98.75 94.8044V96.8044ZM103.218 95.3976C104.559 94.4728 105.5 93.2148 106.027 91.6548L104.133 91.014C103.74 92.174 103.061 93.076 102.082 93.7512L103.218 95.3976ZM105.08 90.3344H98.45V92.3344H105.08V90.3344ZM99.45 91.3344V87.6744H97.45V91.3344H99.45ZM98.45 88.6744H109.64V86.6744H98.45V88.6744ZM108.642 87.7409C108.662 88.0396 108.677 88.2735 108.687 88.4439C108.692 88.5293 108.695 88.5965 108.697 88.6469C108.698 88.6721 108.699 88.6915 108.7 88.7059C108.7 88.7215 108.7 88.7265 108.7 88.7244H110.7C110.7 88.5818 110.676 88.187 110.638 87.6079L108.642 87.7409ZM108.7 88.7244C108.7 91.5534 107.755 93.9106 105.863 95.8574L107.297 97.2514C109.565 94.9182 110.7 92.0554 110.7 88.7244H108.7ZM105.866 95.8541C104.007 97.7498 101.68 98.7044 98.81 98.7044V100.704C102.18 100.704 105.033 99.5589 107.294 97.2547L105.866 95.8541ZM98.81 98.7044C95.9593 98.7044 93.6286 97.7588 91.7471 95.8773L90.3329 97.2915C92.6114 99.57 95.4607 100.704 98.81 100.704V98.7044ZM91.7538 95.8841C89.866 93.9599 88.92 91.6052 88.92 88.7544H86.92C86.92 92.1036 88.054 94.9689 90.3262 97.2847L91.7538 95.8841ZM88.92 88.7544C88.92 85.8658 89.8837 83.5306 91.7969 81.6716L90.4031 80.2372C88.0763 82.4982 86.92 85.3629 86.92 88.7544H88.92ZM91.8037 81.6648C93.7233 79.7634 96.1144 78.8044 99.05 78.8044V76.8044C95.6256 76.8044 92.7167 77.9454 90.3963 80.2439L91.8037 81.6648ZM136.811 80.9544L136.097 81.6547L136.104 81.6615L136.111 81.6683L136.811 80.9544ZM136.811 96.5844L136.104 95.8773L136.811 96.5844ZM121.151 96.5844L120.438 97.2847L120.444 97.2915L120.451 97.2982L121.151 96.5844ZM121.151 80.9544L121.858 81.6615L121.151 80.9544ZM124.151 83.7144L123.428 83.0234L123.428 83.0237L124.151 83.7144ZM124.151 93.7944L124.874 93.1037L124.151 93.7944ZM133.811 93.7944L133.088 93.1034L133.088 93.1037L133.811 93.7944ZM133.811 83.7144L133.088 84.4054L133.811 83.7144ZM128.981 78.8044C131.895 78.8044 134.24 79.7616 136.097 81.6547L137.525 80.2541C135.262 77.9472 132.388 76.8044 128.981 76.8044V78.8044ZM136.111 81.6683C138.005 83.5266 138.961 85.8628 138.961 88.7544H140.961C140.961 85.366 139.817 82.5022 137.512 80.2405L136.111 81.6683ZM138.961 88.7544C138.961 91.6241 138.006 93.9751 136.104 95.8773L137.518 97.2915C139.816 94.9937 140.961 92.1247 140.961 88.7544H138.961ZM136.104 95.8773C134.225 97.7562 131.876 98.7044 128.981 98.7044V100.704C132.367 100.704 135.237 99.5726 137.518 97.2915L136.104 95.8773ZM128.981 98.7044C126.131 98.7044 123.776 97.7584 121.852 95.8706L120.451 97.2982C122.767 99.5704 125.632 100.704 128.981 100.704V98.7044ZM121.865 95.8841C119.977 93.9599 119.031 91.6052 119.031 88.7544H117.031C117.031 92.1036 118.165 94.9689 120.438 97.2847L121.865 95.8841ZM119.031 88.7544C119.031 85.8818 119.978 83.5417 121.858 81.6615L120.444 80.2473C118.164 82.5271 117.031 85.387 117.031 88.7544H119.031ZM121.858 81.6615C123.761 79.7593 126.112 78.8044 128.981 78.8044V76.8044C125.611 76.8044 122.742 77.9495 120.444 80.2473L121.858 81.6615ZM123.428 83.0237C121.954 84.5673 121.231 86.5024 121.231 88.7544H123.231C123.231 86.9663 123.789 85.5415 124.874 84.4051L123.428 83.0237ZM121.231 88.7544C121.231 91.0063 121.954 92.9415 123.428 94.4851L124.874 93.1037C123.789 91.9673 123.231 90.5424 123.231 88.7544H121.231ZM123.428 94.4851C124.907 96.0328 126.783 96.8044 128.981 96.8044V94.8044C127.3 94.8044 125.956 94.236 124.874 93.1037L123.428 94.4851ZM128.981 96.8044C131.18 96.8044 133.056 96.0328 134.534 94.4851L133.088 93.1037C132.007 94.236 130.663 94.8044 128.981 94.8044V96.8044ZM134.534 94.4854C136.024 92.9268 136.761 90.9939 136.761 88.7544H134.761C134.761 90.5149 134.199 91.942 133.088 93.1034L134.534 94.4854ZM136.761 88.7544C136.761 86.5149 136.024 84.582 134.534 83.0234L133.088 84.4054C134.199 85.5668 134.761 86.9939 134.761 88.7544H136.761ZM134.534 83.0234C133.041 81.4615 131.168 80.6744 128.981 80.6744V82.6744C130.635 82.6744 131.981 83.2473 133.088 84.4054L134.534 83.0234ZM128.981 80.6744C126.795 80.6744 124.921 81.4615 123.428 83.0234L124.874 84.4054C125.981 83.2473 127.328 82.6744 128.981 82.6744V80.6744ZM167.069 80.9544L166.355 81.6547L166.362 81.6615L166.369 81.6683L167.069 80.9544ZM167.069 96.5844L166.362 95.8773L167.069 96.5844ZM151.409 96.5844L150.695 97.2847L150.702 97.2915L150.709 97.2982L151.409 96.5844ZM151.409 80.9544L152.116 81.6615L151.409 80.9544ZM154.409 83.7144L153.686 83.0234L153.686 83.0237L154.409 83.7144ZM154.409 93.7944L155.132 93.1037L154.409 93.7944ZM164.069 93.7944L163.346 93.1034L163.346 93.1037L164.069 93.7944ZM164.069 83.7144L163.346 84.4054L164.069 83.7144ZM159.239 78.8044C162.153 78.8044 164.498 79.7616 166.355 81.6547L167.783 80.2541C165.52 77.9472 162.646 76.8044 159.239 76.8044V78.8044ZM166.369 81.6683C168.263 83.5266 169.219 85.8628 169.219 88.7544H171.219C171.219 85.366 170.075 82.5022 167.769 80.2405L166.369 81.6683ZM169.219 88.7544C169.219 91.6241 168.264 93.9751 166.362 95.8773L167.776 97.2915C170.074 94.9937 171.219 92.1247 171.219 88.7544H169.219ZM166.362 95.8773C164.483 97.7562 162.134 98.7044 159.239 98.7044V100.704C162.625 100.704 165.495 99.5726 167.776 97.2915L166.362 95.8773ZM159.239 98.7044C156.388 98.7044 154.034 97.7584 152.109 95.8706L150.709 97.2982C153.025 99.5704 155.89 100.704 159.239 100.704V98.7044ZM152.123 95.8841C150.235 93.9599 149.289 91.6052 149.289 88.7544H147.289C147.289 92.1036 148.423 94.9689 150.695 97.2847L152.123 95.8841ZM149.289 88.7544C149.289 85.8818 150.236 83.5417 152.116 81.6615L150.702 80.2473C148.422 82.5271 147.289 85.387 147.289 88.7544H149.289ZM152.116 81.6615C154.018 79.7593 156.369 78.8044 159.239 78.8044V76.8044C155.869 76.8044 153 77.9495 150.702 80.2473L152.116 81.6615ZM153.686 83.0237C152.212 84.5673 151.489 86.5024 151.489 88.7544H153.489C153.489 86.9663 154.047 85.5415 155.132 84.4051L153.686 83.0237ZM151.489 88.7544C151.489 91.0063 152.212 92.9415 153.686 94.4851L155.132 93.1037C154.047 91.9673 153.489 90.5424 153.489 88.7544H151.489ZM153.686 94.4851C155.164 96.0328 157.04 96.8044 159.239 96.8044V94.8044C157.558 94.8044 156.214 94.236 155.132 93.1037L153.686 94.4851ZM159.239 96.8044C161.438 96.8044 163.314 96.0328 164.792 94.4851L163.346 93.1037C162.264 94.236 160.92 94.8044 159.239 94.8044V96.8044ZM164.792 94.4854C166.282 92.9268 167.019 90.9939 167.019 88.7544H165.019C165.019 90.5149 164.456 91.942 163.346 93.1034L164.792 94.4854ZM167.019 88.7544C167.019 86.5149 166.282 84.582 164.792 83.0234L163.346 84.4054C164.456 85.5668 165.019 86.9939 165.019 88.7544H167.019ZM164.792 83.0234C163.299 81.4615 161.426 80.6744 159.239 80.6744V82.6744C160.892 82.6744 162.239 83.2473 163.346 84.4054L164.792 83.0234ZM159.239 80.6744C157.052 80.6744 155.179 81.4615 153.686 83.0234L155.132 84.4054C156.239 83.2473 157.586 82.6744 159.239 82.6744V80.6744ZM195.617 79.4244L195.094 80.2768L195.104 80.2828L195.617 79.4244ZM199.607 83.7144L199.96 84.6501L201.002 84.2573L200.499 83.2633L199.607 83.7144ZM195.707 85.1844L194.829 85.6632L195.246 86.427L196.06 86.1201L195.707 85.1844ZM193.217 82.6044L192.712 83.4676V83.4676L193.217 82.6044ZM184.727 83.7144L185.445 84.4109L184.727 83.7144ZM184.667 93.7944L185.39 93.1037L184.667 93.7944ZM193.277 94.5744L192.709 93.7512L192.706 93.7532L193.277 94.5744ZM195.707 91.3344L196.654 91.6548L197.101 90.3344H195.707V91.3344ZM189.077 91.3344H188.077V92.3344H189.077V91.3344ZM189.077 87.6744V86.6744H188.077V87.6744H189.077ZM200.267 87.6744L201.265 87.6079L201.203 86.6744H200.267V87.6744ZM197.207 96.5544L197.921 97.2547L197.924 97.2514L197.207 96.5544ZM181.667 96.5844L180.953 97.2848L180.96 97.2915L181.667 96.5844ZM181.727 80.9544L182.424 81.6716L182.431 81.6648L181.727 80.9544ZM189.677 78.8044C191.705 78.8044 193.502 79.2997 195.094 80.2767L196.14 78.5721C194.212 77.3891 192.049 76.8044 189.677 76.8044V78.8044ZM195.104 80.2828C196.68 81.225 197.879 82.5134 198.715 84.1655L200.499 83.2633C199.495 81.2754 198.033 79.7038 196.13 78.566L195.104 80.2828ZM199.254 82.7787L195.354 84.2487L196.06 86.1201L199.96 84.6501L199.254 82.7787ZM196.585 84.7055C195.9 83.4493 194.942 82.455 193.722 81.7412L192.712 83.4676C193.612 83.9938 194.314 84.7195 194.829 85.6632L196.585 84.7055ZM193.722 81.7412C192.5 81.0263 191.144 80.6744 189.677 80.6744V82.6744C190.81 82.6744 191.814 82.9425 192.712 83.4676L193.722 81.7412ZM189.677 80.6744C187.44 80.6744 185.527 81.4544 184.009 83.0179L185.445 84.4109C186.567 83.2544 187.954 82.6744 189.677 82.6744V80.6744ZM184.009 83.0179C182.497 84.5756 181.747 86.5102 181.747 88.7544H183.747C183.747 86.9985 184.316 85.5732 185.445 84.4109L184.009 83.0179ZM181.747 88.7544C181.747 91.0063 182.469 92.9415 183.944 94.4851L185.39 93.1037C184.305 91.9673 183.747 90.5424 183.747 88.7544H181.747ZM183.944 94.4851C185.413 96.0235 187.245 96.8044 189.377 96.8044V94.8044C187.789 94.8044 186.481 94.2453 185.39 93.1037L183.944 94.4851ZM189.377 96.8044C191.004 96.8044 192.502 96.3305 193.848 95.3956L192.706 93.7532C191.692 94.4583 190.59 94.8044 189.377 94.8044V96.8044ZM193.845 95.3976C195.186 94.4728 196.127 93.2148 196.654 91.6548L194.76 91.014C194.367 92.174 193.688 93.076 192.709 93.7512L193.845 95.3976ZM195.707 90.3344H189.077V92.3344H195.707V90.3344ZM190.077 91.3344V87.6744H188.077V91.3344H190.077ZM189.077 88.6744H200.267V86.6744H189.077V88.6744ZM199.269 87.7409C199.289 88.0396 199.304 88.2735 199.314 88.4439C199.318 88.5293 199.322 88.5965 199.324 88.6469C199.325 88.6721 199.326 88.6915 199.326 88.7059C199.327 88.7215 199.327 88.7265 199.327 88.7244H201.327C201.327 88.5818 201.303 88.187 201.265 87.6079L199.269 87.7409ZM199.327 88.7244C199.327 91.5534 198.382 93.9106 196.49 95.8574L197.924 97.2514C200.192 94.9182 201.327 92.0554 201.327 88.7244H199.327ZM196.493 95.8541C194.633 97.7498 192.307 98.7044 189.437 98.7044V100.704C192.807 100.704 195.66 99.5589 197.921 97.2547L196.493 95.8541ZM189.437 98.7044C186.586 98.7044 184.256 97.7588 182.374 95.8773L180.96 97.2915C183.238 99.57 186.088 100.704 189.437 100.704V98.7044ZM182.381 95.8841C180.493 93.9599 179.547 91.6052 179.547 88.7544H177.547C177.547 92.1036 178.681 94.9689 180.953 97.2847L182.381 95.8841ZM179.547 88.7544C179.547 85.8658 180.511 83.5306 182.424 81.6716L181.03 80.2372C178.703 82.4982 177.547 85.3629 177.547 88.7544H179.547ZM182.431 81.6648C184.35 79.7634 186.741 78.8044 189.677 78.8044V76.8044C186.253 76.8044 183.344 77.9454 181.023 80.2439L182.431 81.6648ZM209.228 78.2544V77.2544H208.228V78.2544H209.228ZM213.248 78.2544H214.248V77.2544H213.248V78.2544ZM213.248 95.5344H212.248V96.5344H213.248V95.5344ZM223.838 95.5344H224.838V94.5344H223.838V95.5344ZM223.838 99.2544V100.254H224.838V99.2544H223.838ZM209.228 99.2544H208.228V100.254H209.228V99.2544ZM209.228 79.2544H213.248V77.2544H209.228V79.2544ZM212.248 78.2544V95.5344H214.248V78.2544H212.248ZM213.248 96.5344H223.838V94.5344H213.248V96.5344ZM222.838 95.5344V99.2544H224.838V95.5344H222.838ZM223.838 98.2544H209.228V100.254H223.838V98.2544ZM210.228 99.2544V78.2544H208.228V99.2544H210.228ZM232.308 78.2544V77.2544H231.308V78.2544H232.308ZM247.788 78.2544H248.788V77.2544H247.788V78.2544ZM247.788 81.9744V82.9744H248.788V81.9744H247.788ZM236.328 81.9744V80.9744H235.328V81.9744H236.328ZM236.328 86.7744H235.328V87.7744H236.328V86.7744ZM246.138 86.7744H247.138V85.7744H246.138V86.7744ZM246.138 90.4944V91.4944H247.138V90.4944H246.138ZM236.328 90.4944V89.4944H235.328V90.4944H236.328ZM236.328 95.5344H235.328V96.5344H236.328V95.5344ZM247.938 95.5344H248.938V94.5344H247.938V95.5344ZM247.938 99.2544V100.254H248.938V99.2544H247.938ZM232.308 99.2544H231.308V100.254H232.308V99.2544ZM232.308 79.2544H247.788V77.2544H232.308V79.2544ZM246.788 78.2544V81.9744H248.788V78.2544H246.788ZM247.788 80.9744H236.328V82.9744H247.788V80.9744ZM235.328 81.9744V86.7744H237.328V81.9744H235.328ZM236.328 87.7744H246.138V85.7744H236.328V87.7744ZM245.138 86.7744V90.4944H247.138V86.7744H245.138ZM246.138 89.4944H236.328V91.4944H246.138V89.4944ZM235.328 90.4944V95.5344H237.328V90.4944H235.328ZM236.328 96.5344H247.938V94.5344H236.328V96.5344ZM246.938 95.5344V99.2544H248.938V95.5344H246.938ZM247.938 98.2544H232.308V100.254H247.938V98.2544ZM233.308 99.2544V78.2544H231.308V99.2544H233.308Z" fill="black"/>
</svg>
