<svg width="341" height="180" viewBox="0 0 341 180" fill="none" xmlns="http://www.w3.org/2000/svg">
<rect width="341" height="180" fill="#F5F5F5"/>
<path d="M53.0694 24.0151L13.0471 69.1753H127.566L164.815 24.0151H53.0694Z" fill="#31D67B"/>
<mask id="mask0" mask-type="alpha" maskUnits="userSpaceOnUse" x="13" y="24" width="152" height="46">
<path d="M53.0694 24.0151L13.0471 69.1753H127.566L164.815 24.0151H53.0694Z" fill="#31D67B"/>
</mask>
<g mask="url(#mask0)">
<path d="M258.404 25.628C185.342 -3.36492 133.155 -3.36492 101.843 25.628C70.5304 54.6209 18.3432 54.6209 -54.7189 25.628" stroke="#4AE991" stroke-width="2"/>
<path d="M249.252 81.152C193.242 37.5402 143.759 26.0249 100.804 46.6061C57.8483 67.1874 8.36558 55.6721 -47.6447 12.0603" stroke="#4AE991" stroke-width="2"/>
<path d="M255.316 61.9826C179.199 37.0659 127.173 39.9135 99.2379 70.5253C71.3027 101.137 19.2769 103.985 -56.8398 79.0679" stroke="#4AE991" stroke-width="2"/>
</g>
<path d="M122.941 90.7158L65.0976 155.984H230.609L284.443 90.7158H122.941Z" fill="#AB85FF"/>
<mask id="mask1" mask-type="alpha" maskUnits="userSpaceOnUse" x="65" y="90" width="220" height="66">
<path d="M122.941 90.7158L65.0976 155.984H230.609L284.443 90.7158H122.941Z" fill="#AB85FF"/>
</mask>
<g mask="url(#mask1)">
<path d="M419.705 93.047C314.11 51.1445 238.686 51.1445 193.431 93.047C148.176 134.95 72.7518 134.95 -32.8426 93.047" stroke="#C9AEFF"/>
<path d="M406.477 173.294C325.527 110.263 254.011 93.6204 191.929 123.366C129.847 153.111 58.3315 136.469 -22.6184 73.4378" stroke="#C9AEFF"/>
<path d="M415.241 145.59C305.232 109.578 230.04 113.694 189.666 157.936C149.293 202.178 74.1012 206.294 -35.9077 170.282" stroke="#C9AEFF"/>
</g>
<path d="M259.109 60.6051C259.109 55.7397 257.177 51.0737 253.736 47.6333C250.296 44.193 245.63 42.2603 240.765 42.2603C235.899 42.2603 231.233 44.193 227.793 47.6333C224.352 51.0737 222.42 55.7397 222.42 60.6051L240.765 60.6051H259.109Z" fill="#8052E4"/>
<path d="M232.029 60.6049C232.029 57.3613 230.786 54.2506 228.575 51.9571C226.363 49.6635 223.364 48.375 220.236 48.375C217.108 48.375 214.108 49.6635 211.897 51.957C209.685 54.2506 208.443 57.3613 208.443 60.6049L220.236 60.6049H232.029Z" fill="#8052E4"/>
<path d="M284.443 60.6049C284.443 57.3613 282.648 54.2506 279.453 51.9571C276.259 49.6635 271.926 48.375 267.408 48.375C262.89 48.375 258.558 49.6635 255.363 51.957C252.168 54.2506 250.374 57.3613 250.374 60.6049L267.408 60.6049H284.443Z" fill="#8052E4"/>
<path d="M90.2291 109.176H84.8691V81.1758H90.2291L100.269 98.8558L110.269 81.1758H115.629V109.176H110.269V91.3358L102.029 106.016H98.4691L90.2291 91.3758V109.176ZM129.42 87.7758C131.766 87.7758 133.873 88.5224 135.74 90.0158V88.3758H140.7V109.176H135.74V107.536C133.873 109.029 131.766 109.776 129.42 109.776C126.566 109.776 124.153 108.736 122.18 106.656C120.26 104.549 119.3 101.922 119.3 98.7758C119.3 95.6291 120.26 93.0158 122.18 90.9358C124.126 88.8291 126.54 87.7758 129.42 87.7758ZM134.02 94.4958C132.953 93.3491 131.633 92.7758 130.06 92.7758C128.46 92.7758 127.126 93.3491 126.06 94.4958C124.993 95.6424 124.46 97.0691 124.46 98.7758C124.46 100.482 124.993 101.909 126.06 103.056C127.126 104.202 128.46 104.776 130.06 104.776C131.633 104.776 132.953 104.202 134.02 103.056C135.113 101.882 135.66 100.456 135.66 98.7758C135.66 97.0958 135.113 95.6691 134.02 94.4958ZM165.463 94.6558L160.463 96.1358C160.009 95.0958 159.303 94.2824 158.343 93.6958C157.409 93.0824 156.356 92.7758 155.183 92.7758C153.529 92.7758 152.143 93.3491 151.023 94.4958C149.903 95.6424 149.343 97.0691 149.343 98.7758C149.343 100.482 149.903 101.909 151.023 103.056C152.143 104.202 153.529 104.776 155.183 104.776C156.356 104.776 157.409 104.482 158.343 103.896C159.303 103.282 160.009 102.456 160.463 101.416L165.463 102.896C164.663 105.002 163.343 106.682 161.503 107.936C159.663 109.162 157.556 109.776 155.183 109.776C152.063 109.776 149.436 108.736 147.303 106.656C145.223 104.549 144.183 101.922 144.183 98.7758C144.183 95.6291 145.223 93.0158 147.303 90.9358C149.409 88.8291 152.036 87.7758 155.183 87.7758C157.556 87.7758 159.663 88.4024 161.503 89.6558C163.343 90.8824 164.663 92.5491 165.463 94.6558ZM177.896 87.7758C180.243 87.7758 182.35 88.5224 184.216 90.0158V79.1758H189.176V109.176H184.216V107.536C182.35 109.029 180.243 109.776 177.896 109.776C175.043 109.776 172.63 108.736 170.656 106.656C168.736 104.549 167.776 101.922 167.776 98.7758C167.776 95.6291 168.736 93.0158 170.656 90.9358C172.603 88.8291 175.016 87.7758 177.896 87.7758ZM182.496 94.4958C181.43 93.3491 180.11 92.7758 178.536 92.7758C176.936 92.7758 175.603 93.3491 174.536 94.4958C173.47 95.6424 172.936 97.0691 172.936 98.7758C172.936 100.482 173.47 101.909 174.536 103.056C175.603 104.202 176.936 104.776 178.536 104.776C180.11 104.776 181.43 104.202 182.496 103.056C183.59 101.882 184.136 100.456 184.136 98.7758C184.136 97.0958 183.59 95.6691 182.496 94.4958ZM195.779 106.656C193.699 104.549 192.659 101.922 192.659 98.7758C192.659 95.6291 193.699 93.0158 195.779 90.9358C197.886 88.8291 200.512 87.7758 203.659 87.7758C206.806 87.7758 209.432 88.8291 211.539 90.9358C213.646 93.0158 214.699 95.6291 214.699 98.7758C214.699 101.922 213.646 104.549 211.539 106.656C209.406 108.736 206.779 109.776 203.659 109.776C200.539 109.776 197.912 108.736 195.779 106.656ZM203.659 92.7758C202.006 92.7758 200.619 93.3491 199.499 94.4958C198.379 95.6424 197.819 97.0691 197.819 98.7758C197.819 100.482 198.379 101.909 199.499 103.056C200.619 104.202 202.006 104.776 203.659 104.776C205.312 104.776 206.699 104.202 207.819 103.056C208.939 101.909 209.499 100.482 209.499 98.7758C209.499 97.0691 208.939 95.6424 207.819 94.4958C206.699 93.3491 205.312 92.7758 203.659 92.7758ZM218.146 109.176V88.3758H223.146V90.8958C224.666 88.8158 226.746 87.7758 229.386 87.7758C231.732 87.7758 233.679 88.5491 235.226 90.0958C236.799 91.6691 237.586 93.6024 237.586 95.8958V109.176H232.586V97.2958C232.586 95.9358 232.132 94.8024 231.226 93.8958C230.346 92.9891 229.239 92.5358 227.906 92.5358C226.546 92.5358 225.412 92.9891 224.506 93.8958C223.599 94.8024 223.146 95.9358 223.146 97.2958V109.176H218.146ZM251.178 87.7758C253.524 87.7758 255.631 88.5224 257.498 90.0158V88.3758H262.458V109.176H257.498V107.536C255.631 109.029 253.524 109.776 251.178 109.776C248.324 109.776 245.911 108.736 243.938 106.656C242.018 104.549 241.058 101.922 241.058 98.7758C241.058 95.6291 242.018 93.0158 243.938 90.9358C245.884 88.8291 248.298 87.7758 251.178 87.7758ZM255.778 94.4958C254.711 93.3491 253.391 92.7758 251.818 92.7758C250.218 92.7758 248.884 93.3491 247.818 94.4958C246.751 95.6424 246.218 97.0691 246.218 98.7758C246.218 100.482 246.751 101.909 247.818 103.056C248.884 104.202 250.218 104.776 251.818 104.776C253.391 104.776 254.711 104.202 255.778 103.056C256.871 101.882 257.418 100.456 257.418 98.7758C257.418 97.0958 256.871 95.6691 255.778 94.4958ZM271.7 109.176H266.7V79.1758H271.7V109.176ZM285.318 87.7758C287.665 87.7758 289.771 88.5224 291.638 90.0158V79.1758H296.598V109.176H291.638V107.536C289.771 109.029 287.665 109.776 285.318 109.776C282.465 109.776 280.051 108.736 278.078 106.656C276.158 104.549 275.198 101.922 275.198 98.7758C275.198 95.6291 276.158 93.0158 278.078 90.9358C280.025 88.8291 282.438 87.7758 285.318 87.7758ZM289.918 94.4958C288.851 93.3491 287.531 92.7758 285.958 92.7758C284.358 92.7758 283.025 93.3491 281.958 94.4958C280.891 95.6424 280.358 97.0691 280.358 98.7758C280.358 100.482 280.891 101.909 281.958 103.056C283.025 104.202 284.358 104.776 285.958 104.776C287.531 104.776 288.851 104.202 289.918 103.056C291.011 101.882 291.558 100.456 291.558 98.7758C291.558 97.0958 291.011 95.6691 289.918 94.4958ZM316.241 93.3758L311.561 94.1358C311.108 92.7758 309.894 92.0958 307.921 92.0958C307.068 92.0958 306.361 92.2558 305.801 92.5758C305.268 92.8958 305.001 93.3358 305.001 93.8958C305.001 94.5891 305.614 95.1491 306.841 95.5758L311.121 97.0158C313.014 97.6824 314.388 98.5091 315.241 99.4958C316.121 100.482 316.561 101.736 316.561 103.256C316.561 105.362 315.801 106.976 314.281 108.096C312.788 109.216 310.801 109.776 308.321 109.776C305.841 109.776 303.854 109.242 302.361 108.176C300.868 107.082 299.974 105.576 299.681 103.656L304.361 102.976C304.548 103.722 304.988 104.322 305.681 104.776C306.401 105.229 307.321 105.456 308.441 105.456C309.428 105.456 310.228 105.282 310.841 104.936C311.481 104.562 311.801 104.056 311.801 103.416C311.801 102.589 311.028 101.922 309.481 101.416L305.201 100.056C303.441 99.4691 302.174 98.7224 301.401 97.8158C300.628 96.9091 300.241 95.7224 300.241 94.2558C300.241 92.1491 300.961 90.5491 302.401 89.4558C303.868 88.3358 305.828 87.7758 308.281 87.7758C310.521 87.7758 312.334 88.2691 313.721 89.2558C315.134 90.2424 315.974 91.6158 316.241 93.3758Z" fill="#F5F5F5"/>
<path d="M90.2291 109.176V110.176H91.2291V109.176H90.2291ZM84.8691 109.176H83.8691V110.176H84.8691V109.176ZM84.8691 81.1758V80.1758H83.8691V81.1758H84.8691ZM90.2291 81.1758L91.0986 80.682L90.8112 80.1758H90.2291V81.1758ZM100.269 98.8558L99.3995 99.3496L100.271 100.884L101.139 99.3481L100.269 98.8558ZM110.269 81.1758V80.1758H109.686L109.399 80.6835L110.269 81.1758ZM115.629 81.1758H116.629V80.1758H115.629V81.1758ZM115.629 109.176V110.176H116.629V109.176H115.629ZM110.269 109.176H109.269V110.176H110.269V109.176ZM110.269 91.3358H111.269V87.5112L109.397 90.8463L110.269 91.3358ZM102.029 106.016V107.016H102.615L102.901 106.505L102.029 106.016ZM98.4691 106.016L97.5976 106.506L97.8844 107.016H98.4691V106.016ZM90.2291 91.3758L91.1005 90.8853L89.2291 87.5603V91.3758H90.2291ZM90.2291 108.176H84.8691V110.176H90.2291V108.176ZM85.8691 109.176V81.1758H83.8691V109.176H85.8691ZM84.8691 82.1758H90.2291V80.1758H84.8691V82.1758ZM89.3595 81.6696L99.3995 99.3496L101.139 98.362L91.0986 80.682L89.3595 81.6696ZM101.139 99.3481L111.139 81.6681L109.399 80.6835L99.3987 98.3635L101.139 99.3481ZM110.269 82.1758H115.629V80.1758H110.269V82.1758ZM114.629 81.1758V109.176H116.629V81.1758H114.629ZM115.629 108.176H110.269V110.176H115.629V108.176ZM111.269 109.176V91.3358H109.269V109.176H111.269ZM109.397 90.8463L101.157 105.526L102.901 106.505L111.141 91.8253L109.397 90.8463ZM102.029 105.016H98.4691V107.016H102.029V105.016ZM99.3405 105.525L91.1005 90.8853L89.3576 91.8663L97.5976 106.506L99.3405 105.525ZM89.2291 91.3758V109.176H91.2291V91.3758H89.2291ZM135.74 90.0158L135.115 90.7966L136.74 92.0964V90.0158H135.74ZM135.74 88.3758V87.3758H134.74V88.3758H135.74ZM140.7 88.3758H141.7V87.3758H140.7V88.3758ZM140.7 109.176V110.176H141.7V109.176H140.7ZM135.74 109.176H134.74V110.176H135.74V109.176ZM135.74 107.536H136.74V105.455L135.115 106.755L135.74 107.536ZM122.18 106.656L121.441 107.329L121.447 107.337L121.454 107.344L122.18 106.656ZM122.18 90.9358L121.445 90.2571L121.445 90.2575L122.18 90.9358ZM134.02 94.4958L133.288 95.1769L133.288 95.1775L134.02 94.4958ZM126.06 103.056L126.792 102.375L126.06 103.056ZM134.02 103.056L133.288 102.374L133.288 102.375L134.02 103.056ZM129.42 88.7758C131.535 88.7758 133.422 89.4423 135.115 90.7966L136.364 89.2349C134.324 87.6026 131.998 86.7758 129.42 86.7758V88.7758ZM136.74 90.0158V88.3758H134.74V90.0158H136.74ZM135.74 89.3758H140.7V87.3758H135.74V89.3758ZM139.7 88.3758V109.176H141.7V88.3758H139.7ZM140.7 108.176H135.74V110.176H140.7V108.176ZM136.74 109.176V107.536H134.74V109.176H136.74ZM135.115 106.755C133.422 108.109 131.535 108.776 129.42 108.776V110.776C131.998 110.776 134.324 109.949 136.364 108.317L135.115 106.755ZM129.42 108.776C126.842 108.776 124.691 107.85 122.905 105.968L121.454 107.344C123.615 109.622 126.291 110.776 129.42 110.776V108.776ZM122.919 105.982C121.185 104.079 120.3 101.701 120.3 98.7758H118.3C118.3 102.144 119.335 105.019 121.441 107.329L122.919 105.982ZM120.3 98.7758C120.3 95.8501 121.185 93.4882 122.915 91.6141L121.445 90.2575C119.335 92.5434 118.3 95.4081 118.3 98.7758H120.3ZM122.914 91.6144C124.671 89.7136 126.817 88.7758 129.42 88.7758V86.7758C126.262 86.7758 123.582 87.9447 121.445 90.2571L122.914 91.6144ZM134.752 93.8147C133.495 92.4636 131.909 91.7758 130.06 91.7758V93.7758C131.357 93.7758 132.411 94.2347 133.288 95.1769L134.752 93.8147ZM130.06 91.7758C128.189 91.7758 126.588 92.4597 125.328 93.8147L126.792 95.1769C127.665 94.2385 128.731 93.7758 130.06 93.7758V91.7758ZM125.328 93.8147C124.073 95.1637 123.46 96.8411 123.46 98.7758H125.46C125.46 97.2971 125.913 96.1212 126.792 95.1769L125.328 93.8147ZM123.46 98.7758C123.46 100.71 124.073 102.388 125.328 103.737L126.792 102.375C125.913 101.43 125.46 100.254 125.46 98.7758H123.46ZM125.328 103.737C126.588 105.092 128.189 105.776 130.06 105.776V103.776C128.731 103.776 127.665 103.313 126.792 102.375L125.328 103.737ZM130.06 105.776C131.909 105.776 133.495 105.088 134.752 103.737L133.288 102.375C132.411 103.317 131.357 103.776 130.06 103.776V105.776ZM134.751 103.738C136.026 102.37 136.66 100.696 136.66 98.7758H134.66C134.66 100.216 134.2 101.395 133.288 102.374L134.751 103.738ZM136.66 98.7758C136.66 96.856 136.026 95.182 134.751 93.8141L133.288 95.1775C134.2 96.1563 134.66 97.3355 134.66 98.7758H136.66ZM165.463 94.6558L165.746 95.6147L166.78 95.3087L166.397 94.3008L165.463 94.6558ZM160.463 96.1358L159.546 96.5354L159.899 97.3455L160.746 97.0947L160.463 96.1358ZM158.343 93.6958L157.793 94.5315L157.807 94.5405L157.821 94.5491L158.343 93.6958ZM151.023 94.4958L151.738 95.1945L151.023 94.4958ZM151.023 103.056L151.738 102.357L151.023 103.056ZM158.343 103.896L158.875 104.742L158.881 104.738L158.343 103.896ZM160.463 101.416L160.746 100.457L159.899 100.206L159.546 101.016L160.463 101.416ZM165.463 102.896L166.397 103.251L166.78 102.243L165.746 101.937L165.463 102.896ZM161.503 107.936L162.057 108.768L162.065 108.762L161.503 107.936ZM147.303 106.656L146.591 107.358L146.598 107.365L146.604 107.372L147.303 106.656ZM147.303 90.9358L146.595 90.2287L147.303 90.9358ZM161.503 89.6558L160.94 90.4823L160.948 90.4878L161.503 89.6558ZM165.179 93.6969L160.179 95.1769L160.746 97.0947L165.746 95.6147L165.179 93.6969ZM161.379 95.7362C160.845 94.5097 160.001 93.5372 158.864 92.8425L157.821 94.5491C158.604 95.0277 159.174 95.6819 159.546 96.5354L161.379 95.7362ZM158.892 92.8601C157.787 92.134 156.541 91.7758 155.183 91.7758V93.7758C156.171 93.7758 157.032 94.0309 157.793 94.5315L158.892 92.8601ZM155.183 91.7758C153.269 91.7758 151.622 92.451 150.307 93.797L151.738 95.1945C152.663 94.2472 153.789 93.7758 155.183 93.7758V91.7758ZM150.307 93.797C148.992 95.1435 148.343 96.8266 148.343 98.7758H150.343C150.343 97.3116 150.813 96.1414 151.738 95.1945L150.307 93.797ZM148.343 98.7758C148.343 100.725 148.992 102.408 150.307 103.755L151.738 102.357C150.813 101.41 150.343 100.24 150.343 98.7758H148.343ZM150.307 103.755C151.622 105.101 153.269 105.776 155.183 105.776V103.776C153.789 103.776 152.663 103.304 151.738 102.357L150.307 103.755ZM155.183 105.776C156.531 105.776 157.772 105.436 158.875 104.742L157.81 103.049C157.047 103.529 156.18 103.776 155.183 103.776V105.776ZM158.881 104.738C160.007 104.019 160.846 103.038 161.379 101.815L159.546 101.016C159.172 101.873 158.598 102.546 157.804 103.053L158.881 104.738ZM160.179 102.375L165.179 103.855L165.746 101.937L160.746 100.457L160.179 102.375ZM164.528 102.541C163.799 104.458 162.608 105.973 160.94 107.109L162.065 108.762C164.077 107.392 165.526 105.547 166.397 103.251L164.528 102.541ZM160.948 107.104C159.284 108.213 157.374 108.776 155.183 108.776V110.776C157.738 110.776 160.041 110.112 162.057 108.768L160.948 107.104ZM155.183 108.776C152.31 108.776 149.938 107.828 148.001 105.94L146.604 107.372C148.934 109.643 151.815 110.776 155.183 110.776V108.776ZM148.014 105.953C146.131 104.046 145.183 101.678 145.183 98.7758H143.183C143.183 102.167 144.314 105.052 146.591 107.358L148.014 105.953ZM145.183 98.7758C145.183 95.8739 146.131 93.5214 148.01 91.6429L146.595 90.2287C144.314 92.5102 143.183 95.3844 143.183 98.7758H145.183ZM148.01 91.6429C149.917 89.7351 152.285 88.7758 155.183 88.7758V86.7758C151.787 86.7758 148.901 87.9231 146.595 90.2287L148.01 91.6429ZM155.183 88.7758C157.369 88.7758 159.277 89.3496 160.94 90.4823L162.065 88.8293C160.048 87.4553 157.743 86.7758 155.183 86.7758V88.7758ZM160.948 90.4878C162.611 91.5966 163.8 93.0949 164.528 95.0108L166.397 94.3008C165.525 92.0033 164.074 90.1683 162.057 88.8237L160.948 90.4878ZM184.216 90.0158L183.592 90.7966L185.216 92.0964V90.0158H184.216ZM184.216 79.1758V78.1758H183.216V79.1758H184.216ZM189.176 79.1758H190.176V78.1758H189.176V79.1758ZM189.176 109.176V110.176H190.176V109.176H189.176ZM184.216 109.176H183.216V110.176H184.216V109.176ZM184.216 107.536H185.216V105.455L183.592 106.755L184.216 107.536ZM170.656 106.656L169.917 107.329L169.924 107.337L169.931 107.344L170.656 106.656ZM170.656 90.9358L169.922 90.2571L169.921 90.2575L170.656 90.9358ZM182.496 94.4958L181.764 95.1769L181.765 95.1775L182.496 94.4958ZM174.536 103.056L175.268 102.375L174.536 103.056ZM182.496 103.056L181.765 102.374L181.764 102.375L182.496 103.056ZM177.896 88.7758C180.011 88.7758 181.899 89.4423 183.592 90.7966L184.841 89.2349C182.801 87.6026 180.475 86.7758 177.896 86.7758V88.7758ZM185.216 90.0158V79.1758H183.216V90.0158H185.216ZM184.216 80.1758H189.176V78.1758H184.216V80.1758ZM188.176 79.1758V109.176H190.176V79.1758H188.176ZM189.176 108.176H184.216V110.176H189.176V108.176ZM185.216 109.176V107.536H183.216V109.176H185.216ZM183.592 106.755C181.899 108.109 180.011 108.776 177.896 108.776V110.776C180.475 110.776 182.801 109.949 184.841 108.317L183.592 106.755ZM177.896 108.776C175.319 108.776 173.167 107.85 171.382 105.968L169.931 107.344C172.092 109.622 174.767 110.776 177.896 110.776V108.776ZM171.395 105.982C169.661 104.079 168.776 101.701 168.776 98.7758H166.776C166.776 102.144 167.811 105.019 169.917 107.329L171.395 105.982ZM168.776 98.7758C168.776 95.8501 169.661 93.4882 171.391 91.6141L169.921 90.2575C167.811 92.5434 166.776 95.4081 166.776 98.7758H168.776ZM171.391 91.6144C173.147 89.7136 175.294 88.7758 177.896 88.7758V86.7758C174.739 86.7758 172.059 87.9447 169.922 90.2571L171.391 91.6144ZM183.228 93.8147C181.972 92.4636 180.386 91.7758 178.536 91.7758V93.7758C179.833 93.7758 180.888 94.2347 181.764 95.1769L183.228 93.8147ZM178.536 91.7758C176.665 91.7758 175.065 92.4597 173.804 93.8147L175.268 95.1769C176.141 94.2385 177.207 93.7758 178.536 93.7758V91.7758ZM173.804 93.8147C172.549 95.1637 171.936 96.8411 171.936 98.7758H173.936C173.936 97.2971 174.39 96.1212 175.268 95.1769L173.804 93.8147ZM171.936 98.7758C171.936 100.71 172.549 102.388 173.804 103.737L175.268 102.375C174.39 101.43 173.936 100.254 173.936 98.7758H171.936ZM173.804 103.737C175.065 105.092 176.665 105.776 178.536 105.776V103.776C177.207 103.776 176.141 103.313 175.268 102.375L173.804 103.737ZM178.536 105.776C180.386 105.776 181.972 105.088 183.228 103.737L181.764 102.375C180.888 103.317 179.833 103.776 178.536 103.776V105.776ZM183.228 103.738C184.503 102.37 185.136 100.696 185.136 98.7758H183.136C183.136 100.216 182.677 101.395 181.765 102.374L183.228 103.738ZM185.136 98.7758C185.136 96.856 184.503 95.182 183.228 93.8141L181.765 95.1775C182.677 96.1563 183.136 97.3355 183.136 98.7758H185.136ZM195.779 106.656L195.067 107.358L195.074 107.365L195.081 107.372L195.779 106.656ZM195.779 90.9358L195.072 90.2287L195.779 90.9358ZM211.539 90.9358L210.832 91.6429L210.836 91.6474L211.539 90.9358ZM211.539 106.656L212.237 107.372L212.246 107.363L211.539 106.656ZM199.499 94.4958L200.214 95.1945L199.499 94.4958ZM199.499 103.056L200.214 102.357L199.499 103.056ZM207.819 103.056L207.104 102.357L207.819 103.056ZM196.491 105.953C194.608 104.046 193.659 101.678 193.659 98.7758H191.659C191.659 102.167 192.79 105.052 195.067 107.358L196.491 105.953ZM193.659 98.7758C193.659 95.8739 194.608 93.5214 196.486 91.6429L195.072 90.2287C192.79 92.5102 191.659 95.3844 191.659 98.7758H193.659ZM196.486 91.6429C198.394 89.7351 200.761 88.7758 203.659 88.7758V86.7758C200.264 86.7758 197.378 87.9231 195.072 90.2287L196.486 91.6429ZM203.659 88.7758C206.557 88.7758 208.924 89.7351 210.832 91.6429L212.246 90.2287C209.941 87.9231 207.054 86.7758 203.659 86.7758V88.7758ZM210.836 91.6474C212.74 93.5267 213.699 95.8778 213.699 98.7758H215.699C215.699 95.3804 214.552 92.5048 212.242 90.2242L210.836 91.6474ZM213.699 98.7758C213.699 101.674 212.74 104.041 210.832 105.949L212.246 107.363C214.552 105.057 215.699 102.171 215.699 98.7758H213.699ZM210.841 105.94C208.904 107.828 206.532 108.776 203.659 108.776V110.776C207.026 110.776 209.908 109.643 212.237 107.372L210.841 105.94ZM203.659 108.776C200.786 108.776 198.414 107.828 196.477 105.94L195.081 107.372C197.411 109.643 200.292 110.776 203.659 110.776V108.776ZM203.659 91.7758C201.746 91.7758 200.098 92.451 198.784 93.797L200.214 95.1945C201.14 94.2472 202.266 93.7758 203.659 93.7758V91.7758ZM198.784 93.797C197.469 95.1435 196.819 96.8266 196.819 98.7758H198.819C198.819 97.3116 199.29 96.1414 200.214 95.1945L198.784 93.797ZM196.819 98.7758C196.819 100.725 197.469 102.408 198.784 103.755L200.214 102.357C199.29 101.41 198.819 100.24 198.819 98.7758H196.819ZM198.784 103.755C200.098 105.101 201.746 105.776 203.659 105.776V103.776C202.266 103.776 201.14 103.304 200.214 102.357L198.784 103.755ZM203.659 105.776C205.572 105.776 207.22 105.101 208.534 103.755L207.104 102.357C206.178 103.304 205.053 103.776 203.659 103.776V105.776ZM208.534 103.755C209.85 102.408 210.499 100.725 210.499 98.7758H208.499C208.499 100.24 208.029 101.41 207.104 102.357L208.534 103.755ZM210.499 98.7758C210.499 96.8266 209.85 95.1435 208.534 93.797L207.104 95.1945C208.029 96.1414 208.499 97.3116 208.499 98.7758H210.499ZM208.534 93.797C207.22 92.451 205.572 91.7758 203.659 91.7758V93.7758C205.053 93.7758 206.178 94.2472 207.104 95.1945L208.534 93.797ZM218.146 109.176H217.146V110.176H218.146V109.176ZM218.146 88.3758V87.3758H217.146V88.3758H218.146ZM223.146 88.3758H224.146V87.3758H223.146V88.3758ZM223.146 90.8958H222.146V93.9591L223.953 91.4858L223.146 90.8958ZM237.586 109.176V110.176H238.586V109.176H237.586ZM232.586 109.176H231.586V110.176H232.586V109.176ZM231.226 93.8958L230.508 94.5923L230.513 94.5976L230.519 94.6029L231.226 93.8958ZM224.506 93.8958L223.799 93.1887L224.506 93.8958ZM223.146 109.176V110.176H224.146V109.176H223.146ZM219.146 109.176V88.3758H217.146V109.176H219.146ZM218.146 89.3758H223.146V87.3758H218.146V89.3758ZM222.146 88.3758V90.8958H224.146V88.3758H222.146ZM223.953 91.4858C225.279 89.6709 227.055 88.7758 229.386 88.7758V86.7758C226.436 86.7758 224.052 87.9606 222.338 90.3058L223.953 91.4858ZM229.386 88.7758C231.488 88.7758 233.174 89.4583 234.519 90.8029L235.933 89.3887C234.184 87.6399 231.976 86.7758 229.386 86.7758V88.7758ZM234.519 90.8029C235.898 92.1823 236.586 93.8586 236.586 95.8958H238.586C238.586 93.3463 237.7 91.1559 235.933 89.3887L234.519 90.8029ZM236.586 95.8958V109.176H238.586V95.8958H236.586ZM237.586 108.176H232.586V110.176H237.586V108.176ZM233.586 109.176V97.2958H231.586V109.176H233.586ZM233.586 97.2958C233.586 95.6884 233.039 94.2951 231.933 93.1887L230.519 94.6029C231.225 95.3098 231.586 96.1831 231.586 97.2958H233.586ZM231.943 93.1993C230.864 92.087 229.493 91.5358 227.906 91.5358V93.5358C228.985 93.5358 229.828 93.8913 230.508 94.5923L231.943 93.1993ZM227.906 91.5358C226.298 91.5358 224.905 92.0822 223.799 93.1887L225.213 94.6029C225.92 93.896 226.793 93.5358 227.906 93.5358V91.5358ZM223.799 93.1887C222.692 94.2951 222.146 95.6884 222.146 97.2958H224.146C224.146 96.1831 224.506 95.3098 225.213 94.6029L223.799 93.1887ZM222.146 97.2958V109.176H224.146V97.2958H222.146ZM223.146 108.176H218.146V110.176H223.146V108.176ZM257.498 90.0158L256.873 90.7966L258.498 92.0964V90.0158H257.498ZM257.498 88.3758V87.3758H256.498V88.3758H257.498ZM262.458 88.3758H263.458V87.3758H262.458V88.3758ZM262.458 109.176V110.176H263.458V109.176H262.458ZM257.498 109.176H256.498V110.176H257.498V109.176ZM257.498 107.536H258.498V105.455L256.873 106.755L257.498 107.536ZM243.938 106.656L243.198 107.329L243.205 107.337L243.212 107.344L243.938 106.656ZM243.938 90.9358L243.203 90.2571L243.203 90.2575L243.938 90.9358ZM255.778 94.4958L255.045 95.1769L255.046 95.1775L255.778 94.4958ZM247.818 103.056L248.55 102.375L247.818 103.056ZM255.778 103.056L255.046 102.374L255.045 102.375L255.778 103.056ZM251.178 88.7758C253.293 88.7758 255.18 89.4423 256.873 90.7966L258.122 89.2349C256.082 87.6026 253.756 86.7758 251.178 86.7758V88.7758ZM258.498 90.0158V88.3758H256.498V90.0158H258.498ZM257.498 89.3758H262.458V87.3758H257.498V89.3758ZM261.458 88.3758V109.176H263.458V88.3758H261.458ZM262.458 108.176H257.498V110.176H262.458V108.176ZM258.498 109.176V107.536H256.498V109.176H258.498ZM256.873 106.755C255.18 108.109 253.293 108.776 251.178 108.776V110.776C253.756 110.776 256.082 109.949 258.122 108.317L256.873 106.755ZM251.178 108.776C248.6 108.776 246.449 107.85 244.663 105.968L243.212 107.344C245.373 109.622 248.048 110.776 251.178 110.776V108.776ZM244.677 105.982C242.942 104.079 242.058 101.701 242.058 98.7758H240.058C240.058 102.144 241.093 105.019 243.198 107.329L244.677 105.982ZM242.058 98.7758C242.058 95.8501 242.942 93.4882 244.672 91.6141L243.203 90.2575C241.093 92.5434 240.058 95.4081 240.058 98.7758H242.058ZM244.672 91.6144C246.428 89.7136 248.575 88.7758 251.178 88.7758V86.7758C248.02 86.7758 245.34 87.9447 243.203 90.2571L244.672 91.6144ZM256.51 93.8147C255.253 92.4636 253.667 91.7758 251.818 91.7758V93.7758C253.115 93.7758 254.169 94.2347 255.045 95.1769L256.51 93.8147ZM251.818 91.7758C249.947 91.7758 248.346 92.4597 247.085 93.8147L248.55 95.1769C249.423 94.2385 250.488 93.7758 251.818 93.7758V91.7758ZM247.085 93.8147C245.83 95.1637 245.218 96.8411 245.218 98.7758H247.218C247.218 97.2971 247.671 96.1212 248.55 95.1769L247.085 93.8147ZM245.218 98.7758C245.218 100.71 245.83 102.388 247.085 103.737L248.55 102.375C247.671 101.43 247.218 100.254 247.218 98.7758H245.218ZM247.085 103.737C248.346 105.092 249.947 105.776 251.818 105.776V103.776C250.488 103.776 249.423 103.313 248.55 102.375L247.085 103.737ZM251.818 105.776C253.667 105.776 255.253 105.088 256.51 103.737L255.045 102.375C254.169 103.317 253.115 103.776 251.818 103.776V105.776ZM256.509 103.738C257.784 102.37 258.418 100.696 258.418 98.7758H256.418C256.418 100.216 255.958 101.395 255.046 102.374L256.509 103.738ZM258.418 98.7758C258.418 96.856 257.784 95.182 256.509 93.8141L255.046 95.1775C255.958 96.1563 256.418 97.3355 256.418 98.7758H258.418ZM271.7 109.176V110.176H272.7V109.176H271.7ZM266.7 109.176H265.7V110.176H266.7V109.176ZM266.7 79.1758V78.1758H265.7V79.1758H266.7ZM271.7 79.1758H272.7V78.1758H271.7V79.1758ZM271.7 108.176H266.7V110.176H271.7V108.176ZM267.7 109.176V79.1758H265.7V109.176H267.7ZM266.7 80.1758H271.7V78.1758H266.7V80.1758ZM270.7 79.1758V109.176H272.7V79.1758H270.7ZM291.638 90.0158L291.013 90.7966L292.638 92.0964V90.0158H291.638ZM291.638 79.1758V78.1758H290.638V79.1758H291.638ZM296.598 79.1758H297.598V78.1758H296.598V79.1758ZM296.598 109.176V110.176H297.598V109.176H296.598ZM291.638 109.176H290.638V110.176H291.638V109.176ZM291.638 107.536H292.638V105.455L291.013 106.755L291.638 107.536ZM278.078 106.656L277.339 107.329L277.346 107.337L277.353 107.344L278.078 106.656ZM278.078 90.9358L277.344 90.2571L277.343 90.2575L278.078 90.9358ZM289.918 94.4958L289.186 95.1769L289.187 95.1775L289.918 94.4958ZM281.958 103.056L282.69 102.375L281.958 103.056ZM289.918 103.056L289.187 102.374L289.186 102.375L289.918 103.056ZM285.318 88.7758C287.433 88.7758 289.32 89.4423 291.013 90.7966L292.263 89.2349C290.222 87.6026 287.896 86.7758 285.318 86.7758V88.7758ZM292.638 90.0158V79.1758H290.638V90.0158H292.638ZM291.638 80.1758H296.598V78.1758H291.638V80.1758ZM295.598 79.1758V109.176H297.598V79.1758H295.598ZM296.598 108.176H291.638V110.176H296.598V108.176ZM292.638 109.176V107.536H290.638V109.176H292.638ZM291.013 106.755C289.32 108.109 287.433 108.776 285.318 108.776V110.776C287.896 110.776 290.222 109.949 292.263 108.317L291.013 106.755ZM285.318 108.776C282.741 108.776 280.589 107.85 278.804 105.968L277.353 107.344C279.514 109.622 282.189 110.776 285.318 110.776V108.776ZM278.817 105.982C277.083 104.079 276.198 101.701 276.198 98.7758H274.198C274.198 102.144 275.233 105.019 277.339 107.329L278.817 105.982ZM276.198 98.7758C276.198 95.8501 277.083 93.4882 278.813 91.6141L277.343 90.2575C275.233 92.5434 274.198 95.4081 274.198 98.7758H276.198ZM278.813 91.6144C280.569 89.7136 282.716 88.7758 285.318 88.7758V86.7758C282.161 86.7758 279.481 87.9447 277.344 90.2571L278.813 91.6144ZM290.65 93.8147C289.393 92.4636 287.808 91.7758 285.958 91.7758V93.7758C287.255 93.7758 288.309 94.2347 289.186 95.1769L290.65 93.8147ZM285.958 91.7758C284.087 91.7758 282.486 92.4597 281.226 93.8147L282.69 95.1769C283.563 94.2385 284.629 93.7758 285.958 93.7758V91.7758ZM281.226 93.8147C279.971 95.1637 279.358 96.8411 279.358 98.7758H281.358C281.358 97.2971 281.812 96.1212 282.69 95.1769L281.226 93.8147ZM279.358 98.7758C279.358 100.71 279.971 102.388 281.226 103.737L282.69 102.375C281.812 101.43 281.358 100.254 281.358 98.7758H279.358ZM281.226 103.737C282.486 105.092 284.087 105.776 285.958 105.776V103.776C284.629 103.776 283.563 103.313 282.69 102.375L281.226 103.737ZM285.958 105.776C287.808 105.776 289.393 105.088 290.65 103.737L289.186 102.375C288.309 103.317 287.255 103.776 285.958 103.776V105.776ZM290.65 103.738C291.924 102.37 292.558 100.696 292.558 98.7758H290.558C290.558 100.216 290.099 101.395 289.187 102.374L290.65 103.738ZM292.558 98.7758C292.558 96.856 291.924 95.182 290.65 93.8141L289.187 95.1775C290.099 96.1563 290.558 97.3355 290.558 98.7758H292.558ZM316.241 93.3758L316.401 94.3629L317.378 94.2043L317.23 93.226L316.241 93.3758ZM311.561 94.1358L310.612 94.452L310.881 95.2592L311.721 95.1229L311.561 94.1358ZM305.801 92.5758L305.305 91.7075L305.296 91.7128L305.286 91.7183L305.801 92.5758ZM306.841 95.5758L306.512 96.5203L306.522 96.5236L306.841 95.5758ZM311.121 97.0158L311.453 96.0725L311.44 96.068L311.121 97.0158ZM315.241 99.4958L314.485 100.15L314.49 100.156L314.495 100.161L315.241 99.4958ZM314.281 108.096L313.688 107.291L313.681 107.296L314.281 108.096ZM302.361 108.176L301.77 108.983L301.78 108.99L302.361 108.176ZM299.681 103.656L299.537 102.666L298.54 102.811L298.692 103.807L299.681 103.656ZM304.361 102.976L305.331 102.733L305.112 101.856L304.217 101.986L304.361 102.976ZM305.681 104.776L305.134 105.613L305.141 105.617L305.148 105.622L305.681 104.776ZM310.841 104.936L311.333 105.806L311.345 105.8L310.841 104.936ZM309.481 101.416L309.792 100.465L309.784 100.463L309.481 101.416ZM305.201 100.056L304.885 101.005L304.898 101.009L305.201 100.056ZM302.401 89.4558L303.006 90.2522L303.008 90.2505L302.401 89.4558ZM313.721 89.2558L313.141 90.0706L313.149 90.0757L313.721 89.2558ZM316.081 92.3887L311.401 93.1487L311.721 95.1229L316.401 94.3629L316.081 92.3887ZM312.51 93.8196C312.207 92.9114 311.631 92.1992 310.8 91.7334C309.994 91.2819 309.011 91.0958 307.921 91.0958V93.0958C308.804 93.0958 309.414 93.2496 309.822 93.4781C310.204 93.6924 310.462 94.0002 310.612 94.452L312.51 93.8196ZM307.921 91.0958C306.948 91.0958 306.057 91.2777 305.305 91.7075L306.297 93.444C306.665 93.2339 307.187 93.0958 307.921 93.0958V91.0958ZM305.286 91.7183C304.492 92.195 304.001 92.9402 304.001 93.8958H306.001C306.001 93.7313 306.043 93.5966 306.315 93.4333L305.286 91.7183ZM304.001 93.8958C304.001 94.5787 304.317 95.1455 304.787 95.5743C305.234 95.9825 305.835 96.2848 306.512 96.5203L307.169 94.6313C306.62 94.4401 306.301 94.249 306.135 94.0973C305.991 93.966 306.001 93.9062 306.001 93.8958H304.001ZM306.522 96.5236L310.802 97.9636L311.44 96.068L307.16 94.628L306.522 96.5236ZM310.789 97.959C312.599 98.5964 313.79 99.3474 314.485 100.15L315.997 98.8416C314.985 97.6708 313.43 96.7685 311.453 96.0725L310.789 97.959ZM314.495 100.161C315.187 100.938 315.561 101.942 315.561 103.256H317.561C317.561 101.529 317.055 100.027 315.987 98.8302L314.495 100.161ZM315.561 103.256C315.561 105.087 314.92 106.383 313.688 107.291L314.874 108.901C316.682 107.569 317.561 105.638 317.561 103.256H315.561ZM313.681 107.296C312.41 108.249 310.655 108.776 308.321 108.776V110.776C310.947 110.776 313.165 110.182 314.881 108.896L313.681 107.296ZM308.321 108.776C305.977 108.776 304.215 108.272 302.942 107.362L301.78 108.99C303.493 110.213 305.704 110.776 308.321 110.776V108.776ZM302.952 107.369C301.684 106.441 300.925 105.176 300.669 103.505L298.692 103.807C299.024 105.975 300.051 107.724 301.77 108.983L302.952 107.369ZM299.825 104.645L304.505 103.965L304.217 101.986L299.537 102.666L299.825 104.645ZM303.391 103.218C303.643 104.229 304.247 105.033 305.134 105.613L306.228 103.939C305.728 103.612 305.452 103.216 305.331 102.733L303.391 103.218ZM305.148 105.622C306.071 106.203 307.191 106.456 308.441 106.456V104.456C307.451 104.456 306.731 104.255 306.214 103.93L305.148 105.622ZM308.441 106.456C309.535 106.456 310.521 106.265 311.333 105.806L310.349 104.065C309.934 104.3 309.321 104.456 308.441 104.456V106.456ZM311.345 105.8C312.234 105.281 312.801 104.474 312.801 103.416H310.801C310.801 103.638 310.728 103.844 310.337 104.072L311.345 105.8ZM312.801 103.416C312.801 102.645 312.425 102.013 311.874 101.538C311.345 101.083 310.625 100.738 309.792 100.465L309.17 102.366C309.883 102.6 310.323 102.842 310.568 103.053C310.791 103.245 310.801 103.36 310.801 103.416H312.801ZM309.784 100.463L305.504 99.1027L304.898 101.009L309.178 102.369L309.784 100.463ZM305.517 99.1071C303.842 98.5487 302.769 97.8782 302.162 97.1668L300.64 98.4647C301.58 99.5667 303.04 100.39 304.885 101.004L305.517 99.1071ZM302.162 97.1668C301.576 96.4802 301.241 95.5415 301.241 94.2558H299.241C299.241 95.9034 299.679 97.338 300.64 98.4647L302.162 97.1668ZM301.241 94.2558C301.241 92.4033 301.858 91.1237 303.006 90.2522L301.796 88.6593C300.064 89.9745 299.241 91.8949 299.241 94.2558H301.241ZM303.008 90.2505C304.251 89.3016 305.975 88.7758 308.281 88.7758V86.7758C305.68 86.7758 303.485 87.37 301.794 88.661L303.008 90.2505ZM308.281 88.7758C310.378 88.7758 311.97 89.2373 313.141 90.0706L314.301 88.441C312.698 87.3009 310.664 86.7758 308.281 86.7758V88.7758ZM313.149 90.0757C314.329 90.8998 315.025 92.0266 315.252 93.5256L317.23 93.226C316.923 91.205 315.94 89.5851 314.293 88.4358L313.149 90.0757Z" fill="black"/>
</svg>
