<svg width="341" height="180" viewBox="0 0 341 180" fill="none" xmlns="http://www.w3.org/2000/svg">
<rect width="341" height="180" fill="#F5F5F5"/>
<path d="M191.591 90C191.591 99.3239 189.754 108.556 186.186 117.171C182.618 125.785 177.388 133.612 170.795 140.205C164.202 146.798 156.375 152.027 147.761 155.595C139.147 159.164 129.914 161 120.591 161C111.267 161 102.034 159.164 93.42 155.595C84.8059 152.027 76.9789 146.798 70.3859 140.205C63.793 133.612 58.5631 125.785 54.9951 117.171C51.427 108.556 49.5905 99.3238 49.5905 90L120.591 90H191.591Z" fill="#AB85FF"/>
<mask id="mask0" mask-type="alpha" maskUnits="userSpaceOnUse" x="49" y="90" width="143" height="71">
<path d="M191.591 90C191.591 99.3239 189.754 108.556 186.186 117.171C182.618 125.785 177.388 133.612 170.795 140.205C164.202 146.798 156.375 152.027 147.761 155.595C139.147 159.164 129.914 161 120.591 161C111.267 161 102.034 159.164 93.42 155.595C84.8059 152.027 76.9789 146.798 70.3859 140.205C63.793 133.612 58.5631 125.785 54.9951 117.171C51.427 108.556 49.5905 99.3238 49.5905 90L120.591 90H191.591Z" fill="#AB85FF"/>
</mask>
<g mask="url(#mask0)">
<path d="M-20.5755 107.546C55.9272 63.8298 110.572 63.8298 143.359 107.546C176.146 151.262 230.791 151.262 307.293 107.546" stroke="#B491FF" stroke-width="2"/>
<path d="M-10.9918 191.265C47.6561 125.507 99.4691 108.144 144.447 139.176C189.425 170.209 241.238 152.846 299.886 87.0877" stroke="#B491FF" stroke-width="2"/>
<path d="M-17.3411 162.361C62.36 124.792 116.836 129.085 146.087 175.242C175.337 221.399 229.813 225.692 309.514 188.123" stroke="#B491FF" stroke-width="2"/>
</g>
<path d="M154.591 77C154.591 69.9086 155.987 62.8867 158.701 56.3351C161.415 49.7835 165.392 43.8306 170.407 38.8162C175.421 33.8019 181.374 29.8243 187.926 27.1105C194.477 24.3968 201.499 23 208.591 23C215.682 23 222.704 24.3968 229.255 27.1105C235.807 29.8243 241.76 33.8019 246.774 38.8162C251.789 43.8306 255.766 49.7835 258.48 56.3351C261.194 62.8867 262.591 69.9086 262.591 77L208.591 77H154.591Z" fill="#31D67B"/>
<mask id="path-7-inside-1" fill="white">
<path d="M141.591 72C141.591 64.9086 142.987 57.8867 145.701 51.3351C148.415 44.7835 152.392 38.8306 157.407 33.8162C162.421 28.8019 168.374 24.8243 174.926 22.1105C181.477 19.3968 188.499 18 195.591 18C202.682 18 209.704 19.3968 216.255 22.1105C222.807 24.8243 228.76 28.8019 233.774 33.8162C238.789 38.8306 242.766 44.7835 245.48 51.3351C248.194 57.8867 249.591 64.9086 249.591 72L195.591 72H141.591Z"/>
</mask>
<path d="M141.591 72C141.591 64.9086 142.987 57.8867 145.701 51.3351C148.415 44.7835 152.392 38.8306 157.407 33.8162C162.421 28.8019 168.374 24.8243 174.926 22.1105C181.477 19.3968 188.499 18 195.591 18C202.682 18 209.704 19.3968 216.255 22.1105C222.807 24.8243 228.76 28.8019 233.774 33.8162C238.789 38.8306 242.766 44.7835 245.48 51.3351C248.194 57.8867 249.591 64.9086 249.591 72L195.591 72H141.591Z" stroke="black" stroke-width="2" mask="url(#path-7-inside-1)"/>
<path d="M93.3759 90L93.3759 48.463M93.3759 48.463L92.5809 49.601M93.3759 48.463L94.1709 49.601" stroke="black"/>
<path d="M106.586 90L106.586 31.9621M106.586 31.9621L105.762 33.5521M106.586 31.9621L107.409 33.5521" stroke="black"/>
<path d="M80.2236 90L80.2236 63.826M80.2236 63.826L79.3998 64.5431M80.2236 63.826L81.0474 64.5431" stroke="black"/>
<path d="M119.767 90V71.223M119.767 71.223L118.943 71.7375M119.767 71.223L120.591 71.7375" stroke="black"/>
<path d="M112.749 138.5H108.999V122.9H112.749V124.55C113.829 123.15 115.289 122.45 117.129 122.45C119.309 122.45 120.949 123.3 122.049 125C123.149 123.3 124.809 122.45 127.029 122.45C128.829 122.45 130.309 123 131.469 124.1C132.649 125.22 133.239 126.6 133.239 128.24V138.5H129.519V129.32C129.519 128.38 129.209 127.6 128.589 126.98C127.969 126.34 127.199 126.02 126.279 126.02C125.359 126.02 124.579 126.34 123.939 126.98C123.319 127.6 123.009 128.38 123.009 129.32V138.5H119.259V129.32C119.259 128.38 118.949 127.6 118.329 126.98C117.709 126.34 116.939 126.02 116.019 126.02C115.099 126.02 114.319 126.34 113.679 126.98C113.059 127.6 112.749 128.38 112.749 129.32V138.5ZM146.171 138.5H142.421V122.9H146.171V138.5ZM144.281 121.52C143.601 121.52 143.031 121.29 142.571 120.83C142.131 120.37 141.911 119.8 141.911 119.12C141.911 118.44 142.131 117.88 142.571 117.44C143.031 116.98 143.601 116.75 144.281 116.75C144.961 116.75 145.531 116.98 145.991 117.44C146.451 117.88 146.681 118.44 146.681 119.12C146.681 119.8 146.451 120.37 145.991 120.83C145.551 121.29 144.981 121.52 144.281 121.52ZM170.755 127.61L167.005 128.72C166.665 127.94 166.135 127.33 165.415 126.89C164.715 126.43 163.925 126.2 163.045 126.2C161.805 126.2 160.765 126.63 159.925 127.49C159.085 128.35 158.665 129.42 158.665 130.7C158.665 131.98 159.085 133.05 159.925 133.91C160.765 134.77 161.805 135.2 163.045 135.2C163.925 135.2 164.715 134.98 165.415 134.54C166.135 134.08 166.665 133.46 167.005 132.68L170.755 133.79C170.155 135.37 169.165 136.63 167.785 137.57C166.405 138.49 164.825 138.95 163.045 138.95C160.705 138.95 158.735 138.17 157.135 136.61C155.575 135.03 154.795 133.06 154.795 130.7C154.795 128.34 155.575 126.38 157.135 124.82C158.715 123.24 160.685 122.45 163.045 122.45C164.825 122.45 166.405 122.92 167.785 123.86C169.165 124.78 170.155 126.03 170.755 127.61ZM182.81 122.9V124.82C183.89 123.24 185.6 122.45 187.94 122.45V126.62C187.44 126.4 186.93 126.29 186.41 126.29C185.37 126.29 184.51 126.64 183.83 127.34C183.15 128.02 182.81 128.88 182.81 129.92V138.5H179.06V122.9H182.81ZM197.201 136.61C195.641 135.03 194.861 133.06 194.861 130.7C194.861 128.34 195.641 126.38 197.201 124.82C198.781 123.24 200.751 122.45 203.111 122.45C205.471 122.45 207.441 123.24 209.021 124.82C210.601 126.38 211.391 128.34 211.391 130.7C211.391 133.06 210.601 135.03 209.021 136.61C207.421 138.17 205.451 138.95 203.111 138.95C200.771 138.95 198.801 138.17 197.201 136.61ZM203.111 126.2C201.871 126.2 200.831 126.63 199.991 127.49C199.151 128.35 198.731 129.42 198.731 130.7C198.731 131.98 199.151 133.05 199.991 133.91C200.831 134.77 201.871 135.2 203.111 135.2C204.351 135.2 205.391 134.77 206.231 133.91C207.071 133.05 207.491 131.98 207.491 130.7C207.491 129.42 207.071 128.35 206.231 127.49C205.391 126.63 204.351 126.2 203.111 126.2ZM231.526 126.65L228.016 127.22C227.676 126.2 226.766 125.69 225.286 125.69C224.646 125.69 224.116 125.81 223.696 126.05C223.296 126.29 223.096 126.62 223.096 127.04C223.096 127.56 223.556 127.98 224.476 128.3L227.686 129.38C229.106 129.88 230.136 130.5 230.776 131.24C231.436 131.98 231.766 132.92 231.766 134.06C231.766 135.64 231.196 136.85 230.056 137.69C228.936 138.53 227.446 138.95 225.586 138.95C223.726 138.95 222.236 138.55 221.116 137.75C219.996 136.93 219.326 135.8 219.106 134.36L222.616 133.85C222.756 134.41 223.086 134.86 223.606 135.2C224.146 135.54 224.836 135.71 225.676 135.71C226.416 135.71 227.016 135.58 227.476 135.32C227.956 135.04 228.196 134.66 228.196 134.18C228.196 133.56 227.616 133.06 226.456 132.68L223.246 131.66C221.926 131.22 220.976 130.66 220.396 129.98C219.816 129.3 219.526 128.41 219.526 127.31C219.526 125.73 220.066 124.53 221.146 123.71C222.246 122.87 223.716 122.45 225.556 122.45C227.236 122.45 228.596 122.82 229.636 123.56C230.696 124.3 231.326 125.33 231.526 126.65ZM241.984 136.61C240.424 135.03 239.644 133.06 239.644 130.7C239.644 128.34 240.424 126.38 241.984 124.82C243.564 123.24 245.534 122.45 247.894 122.45C250.254 122.45 252.224 123.24 253.804 124.82C255.384 126.38 256.174 128.34 256.174 130.7C256.174 133.06 255.384 135.03 253.804 136.61C252.204 138.17 250.234 138.95 247.894 138.95C245.554 138.95 243.584 138.17 241.984 136.61ZM247.894 126.2C246.654 126.2 245.614 126.63 244.774 127.49C243.934 128.35 243.514 129.42 243.514 130.7C243.514 131.98 243.934 133.05 244.774 133.91C245.614 134.77 246.654 135.2 247.894 135.2C249.134 135.2 250.174 134.77 251.014 133.91C251.854 133.05 252.274 131.98 252.274 130.7C252.274 129.42 251.854 128.35 251.014 127.49C250.174 126.63 249.134 126.2 247.894 126.2ZM269.589 121.46V122.9H273.309V126.14H269.589V138.5H265.839V126.14H263.469V122.9H265.839V120.95C265.839 119.53 266.349 118.35 267.369 117.41C268.429 116.47 269.709 116 271.209 116H273.309V119.57H271.479C270.939 119.57 270.489 119.75 270.129 120.11C269.769 120.47 269.589 120.92 269.589 121.46ZM279.87 126.17V122.9H282.09V119.84H285.84V122.9H289.71V126.17H285.84V133.04C285.84 133.58 286.02 134.03 286.38 134.39C286.74 134.75 287.2 134.93 287.76 134.93H289.71V138.5H287.4C285.92 138.5 284.66 138.03 283.62 137.09C282.6 136.15 282.09 134.98 282.09 133.58V126.17H279.87Z" fill="#F5F5F5"/>
<path d="M112.749 138.5V139.5H113.749V138.5H112.749ZM108.999 138.5H107.999V139.5H108.999V138.5ZM108.999 122.9V121.9H107.999V122.9H108.999ZM112.749 122.9H113.749V121.9H112.749V122.9ZM112.749 124.55H111.749V127.483L113.541 125.161L112.749 124.55ZM122.049 125L121.21 125.543L122.049 126.841L122.889 125.543L122.049 125ZM131.469 124.1L132.158 123.375L132.158 123.374L131.469 124.1ZM133.239 138.5V139.5H134.239V138.5H133.239ZM129.519 138.5H128.519V139.5H129.519V138.5ZM128.589 126.98L127.871 127.676L127.877 127.681L127.882 127.687L128.589 126.98ZM123.939 126.98L123.232 126.273L123.939 126.98ZM123.009 138.5V139.5H124.009V138.5H123.009ZM119.259 138.5H118.259V139.5H119.259V138.5ZM118.329 126.98L117.611 127.676L117.617 127.681L117.622 127.687L118.329 126.98ZM113.679 126.98L114.387 127.687H114.387L113.679 126.98ZM112.749 137.5H108.999V139.5H112.749V137.5ZM109.999 138.5V122.9H107.999V138.5H109.999ZM108.999 123.9H112.749V121.9H108.999V123.9ZM111.749 122.9V124.55H113.749V122.9H111.749ZM113.541 125.161C114.423 124.018 115.585 123.45 117.129 123.45V121.45C114.994 121.45 113.236 122.282 111.958 123.939L113.541 125.161ZM117.129 123.45C119.001 123.45 120.31 124.153 121.21 125.543L122.889 124.457C121.589 122.447 119.618 121.45 117.129 121.45V123.45ZM122.889 125.543C123.785 124.159 125.11 123.45 127.029 123.45V121.45C124.509 121.45 122.514 122.441 121.21 124.457L122.889 125.543ZM127.029 123.45C128.608 123.45 129.831 123.924 130.781 124.826L132.158 123.374C130.788 122.076 129.051 121.45 127.029 121.45V123.45ZM130.781 124.825C131.76 125.755 132.239 126.872 132.239 128.24H134.239C134.239 126.328 133.539 124.685 132.158 123.375L130.781 124.825ZM132.239 128.24V138.5H134.239V128.24H132.239ZM133.239 137.5H129.519V139.5H133.239V137.5ZM130.519 138.5V129.32H128.519V138.5H130.519ZM130.519 129.32C130.519 128.136 130.119 127.095 129.297 126.273L127.882 127.687C128.3 128.105 128.519 128.624 128.519 129.32H130.519ZM129.308 126.284C128.493 125.443 127.46 125.02 126.279 125.02V127.02C126.939 127.02 127.446 127.237 127.871 127.676L129.308 126.284ZM126.279 125.02C125.099 125.02 124.063 125.442 123.232 126.273L124.647 127.687C125.096 127.238 125.62 127.02 126.279 127.02V125.02ZM123.232 126.273C122.41 127.095 122.009 128.136 122.009 129.32H124.009C124.009 128.624 124.229 128.105 124.647 127.687L123.232 126.273ZM122.009 129.32V138.5H124.009V129.32H122.009ZM123.009 137.5H119.259V139.5H123.009V137.5ZM120.259 138.5V129.32H118.259V138.5H120.259ZM120.259 129.32C120.259 128.136 119.859 127.095 119.037 126.273L117.622 127.687C118.04 128.105 118.259 128.624 118.259 129.32H120.259ZM119.048 126.284C118.233 125.443 117.2 125.02 116.019 125.02V127.02C116.679 127.02 117.186 127.237 117.611 127.676L119.048 126.284ZM116.019 125.02C114.839 125.02 113.803 125.442 112.972 126.273L114.387 127.687C114.836 127.238 115.36 127.02 116.019 127.02V125.02ZM112.972 126.273C112.15 127.095 111.749 128.136 111.749 129.32H113.749C113.749 128.624 113.969 128.105 114.387 127.687L112.972 126.273ZM111.749 129.32V138.5H113.749V129.32H111.749ZM146.171 138.5V139.5H147.171V138.5H146.171ZM142.421 138.5H141.421V139.5H142.421V138.5ZM142.421 122.9V121.9H141.421V122.9H142.421ZM146.171 122.9H147.171V121.9H146.171V122.9ZM142.571 120.83L141.849 121.521L141.856 121.529L141.864 121.537L142.571 120.83ZM142.571 117.44L141.864 116.733L142.571 117.44ZM145.991 117.44L145.284 118.147L145.292 118.155L145.3 118.163L145.991 117.44ZM145.991 120.83L145.284 120.123L145.276 120.131L145.269 120.139L145.991 120.83ZM146.171 137.5H142.421V139.5H146.171V137.5ZM143.421 138.5V122.9H141.421V138.5H143.421ZM142.421 123.9H146.171V121.9H142.421V123.9ZM145.171 122.9V138.5H147.171V122.9H145.171ZM144.281 120.52C143.853 120.52 143.542 120.386 143.278 120.123L141.864 121.537C142.521 122.194 143.35 122.52 144.281 122.52V120.52ZM143.294 120.139C143.045 119.878 142.911 119.562 142.911 119.12H140.911C140.911 120.038 141.218 120.862 141.849 121.521L143.294 120.139ZM142.911 119.12C142.911 118.678 143.044 118.381 143.278 118.147L141.864 116.733C141.218 117.379 140.911 118.202 140.911 119.12H142.911ZM143.278 118.147C143.542 117.884 143.853 117.75 144.281 117.75V115.75C143.35 115.75 142.521 116.076 141.864 116.733L143.278 118.147ZM144.281 117.75C144.71 117.75 145.021 117.884 145.284 118.147L146.698 116.733C146.042 116.076 145.213 115.75 144.281 115.75V117.75ZM145.3 118.163C145.548 118.4 145.681 118.692 145.681 119.12H147.681C147.681 118.188 147.354 117.36 146.683 116.717L145.3 118.163ZM145.681 119.12C145.681 119.548 145.547 119.86 145.284 120.123L146.698 121.537C147.355 120.88 147.681 120.052 147.681 119.12H145.681ZM145.269 120.139C145.037 120.381 144.739 120.52 144.281 120.52V122.52C145.224 122.52 146.066 122.199 146.714 121.521L145.269 120.139ZM170.755 127.61L171.039 128.569L172.072 128.263L171.69 127.255L170.755 127.61ZM167.005 128.72L166.088 129.12L166.441 129.93L167.289 129.679L167.005 128.72ZM165.415 126.89L164.866 127.726L164.879 127.735L164.893 127.743L165.415 126.89ZM159.925 127.49L160.64 128.189L159.925 127.49ZM159.925 133.91L160.64 133.211L159.925 133.91ZM165.415 134.54L165.947 135.387L165.953 135.383L165.415 134.54ZM167.005 132.68L167.289 131.721L166.441 131.47L166.088 132.28L167.005 132.68ZM170.755 133.79L171.69 134.145L172.072 133.137L171.039 132.831L170.755 133.79ZM167.785 137.57L168.339 138.402L168.348 138.396L167.785 137.57ZM157.135 136.61L156.423 137.313L156.43 137.319L156.437 137.326L157.135 136.61ZM157.135 124.82L156.428 124.113L157.135 124.82ZM167.785 123.86L167.222 124.687L167.23 124.692L167.785 123.86ZM170.471 126.651L166.721 127.761L167.289 129.679L171.039 128.569L170.471 126.651ZM167.921 128.32C167.5 127.354 166.833 126.585 165.936 126.037L164.893 127.743C165.436 128.075 165.829 128.526 166.088 129.12L167.921 128.32ZM165.964 126.054C165.092 125.482 164.109 125.2 163.045 125.2V127.2C163.74 127.2 164.337 127.378 164.866 127.726L165.964 126.054ZM163.045 125.2C161.545 125.2 160.244 125.732 159.209 126.791L160.64 128.189C161.285 127.528 162.065 127.2 163.045 127.2V125.2ZM159.209 126.791C158.174 127.851 157.665 129.178 157.665 130.7H159.665C159.665 129.662 159.995 128.849 160.64 128.189L159.209 126.791ZM157.665 130.7C157.665 132.222 158.174 133.549 159.209 134.609L160.64 133.211C159.995 132.551 159.665 131.738 159.665 130.7H157.665ZM159.209 134.609C160.244 135.668 161.545 136.2 163.045 136.2V134.2C162.065 134.2 161.285 133.872 160.64 133.211L159.209 134.609ZM163.045 136.2C164.1 136.2 165.077 135.933 165.947 135.387L164.883 133.693C164.352 134.027 163.749 134.2 163.045 134.2V136.2ZM165.953 135.383C166.84 134.816 167.502 134.042 167.921 133.08L166.088 132.28C165.828 132.878 165.43 133.344 164.876 133.697L165.953 135.383ZM166.721 133.639L170.471 134.749L171.039 132.831L167.289 131.721L166.721 133.639ZM169.82 133.435C169.292 134.826 168.43 135.92 167.222 136.744L168.348 138.396C169.899 137.34 171.018 135.914 171.69 134.145L169.82 133.435ZM167.23 136.738C166.026 137.54 164.642 137.95 163.045 137.95V139.95C165.007 139.95 166.783 139.44 168.339 138.402L167.23 136.738ZM163.045 137.95C160.952 137.95 159.237 137.263 157.833 135.894L156.437 137.326C158.233 139.077 160.458 139.95 163.045 139.95V137.95ZM157.846 135.907C156.484 134.527 155.795 132.815 155.795 130.7H153.795C153.795 133.305 154.666 135.533 156.423 137.313L157.846 135.907ZM155.795 130.7C155.795 128.585 156.483 126.886 157.842 125.527L156.428 124.113C154.666 125.874 153.795 128.095 153.795 130.7H155.795ZM157.842 125.527C159.223 124.146 160.933 123.45 163.045 123.45V121.45C160.436 121.45 158.207 122.334 156.428 124.113L157.842 125.527ZM163.045 123.45C164.638 123.45 166.019 123.867 167.222 124.686L168.348 123.034C166.791 121.973 165.012 121.45 163.045 121.45V123.45ZM167.23 124.692C168.433 125.494 169.292 126.576 169.82 127.965L171.69 127.255C171.017 125.484 169.896 124.066 168.339 123.028L167.23 124.692ZM182.81 122.9H183.81V121.9H182.81V122.9ZM182.81 124.82H181.81V128.055L183.636 125.384L182.81 124.82ZM187.94 122.45H188.94V121.45H187.94V122.45ZM187.94 126.62L187.537 127.535L188.94 128.153V126.62H187.94ZM183.83 127.34L184.537 128.047L184.542 128.042L184.547 128.037L183.83 127.34ZM182.81 138.5V139.5H183.81V138.5H182.81ZM179.06 138.5H178.06V139.5H179.06V138.5ZM179.06 122.9V121.9H178.06V122.9H179.06ZM181.81 122.9V124.82H183.81V122.9H181.81ZM183.636 125.384C184.487 124.139 185.847 123.45 187.94 123.45V121.45C185.353 121.45 183.294 122.341 181.984 124.256L183.636 125.384ZM186.94 122.45V126.62H188.94V122.45H186.94ZM188.343 125.705C187.722 125.432 187.076 125.29 186.41 125.29V127.29C186.784 127.29 187.158 127.368 187.537 127.535L188.343 125.705ZM186.41 125.29C185.12 125.29 183.994 125.736 183.113 126.643L184.547 128.037C185.026 127.544 185.621 127.29 186.41 127.29V125.29ZM183.123 126.633C182.239 127.517 181.81 128.639 181.81 129.92H183.81C183.81 129.121 184.061 128.523 184.537 128.047L183.123 126.633ZM181.81 129.92V138.5H183.81V129.92H181.81ZM182.81 137.5H179.06V139.5H182.81V137.5ZM180.06 138.5V122.9H178.06V138.5H180.06ZM179.06 123.9H182.81V121.9H179.06V123.9ZM197.201 136.61L196.49 137.313L196.496 137.319L196.503 137.326L197.201 136.61ZM197.201 124.82L196.494 124.113L197.201 124.82ZM209.021 124.82L208.314 125.527L208.319 125.532L209.021 124.82ZM209.021 136.61L209.719 137.326L209.728 137.317L209.021 136.61ZM199.991 127.49L200.707 128.189L199.991 127.49ZM199.991 133.91L200.707 133.211L199.991 133.91ZM206.231 133.91L205.516 133.211L206.231 133.91ZM197.913 135.907C196.55 134.527 195.861 132.815 195.861 130.7H193.861C193.861 133.305 194.732 135.533 196.49 137.313L197.913 135.907ZM195.861 130.7C195.861 128.585 196.55 126.886 197.908 125.527L196.494 124.113C194.732 125.874 193.861 128.095 193.861 130.7H195.861ZM197.908 125.527C199.289 124.146 201 123.45 203.111 123.45V121.45C200.502 121.45 198.273 122.334 196.494 124.113L197.908 125.527ZM203.111 123.45C205.222 123.45 206.933 124.146 208.314 125.527L209.728 124.113C207.949 122.334 205.72 121.45 203.111 121.45V123.45ZM208.319 125.532C209.695 126.891 210.391 128.589 210.391 130.7H212.391C212.391 128.091 211.507 125.869 209.724 124.108L208.319 125.532ZM210.391 130.7C210.391 132.811 209.695 134.522 208.314 135.903L209.728 137.317C211.507 135.538 212.391 133.309 212.391 130.7H210.391ZM208.323 135.894C206.919 137.263 205.204 137.95 203.111 137.95V139.95C205.698 139.95 207.923 139.077 209.719 137.326L208.323 135.894ZM203.111 137.95C201.018 137.95 199.303 137.263 197.899 135.894L196.503 137.326C198.299 139.077 200.524 139.95 203.111 139.95V137.95ZM203.111 125.2C201.611 125.2 200.31 125.732 199.276 126.791L200.707 128.189C201.352 127.528 202.131 127.2 203.111 127.2V125.2ZM199.276 126.791C198.241 127.851 197.731 129.178 197.731 130.7H199.731C199.731 129.662 200.062 128.849 200.707 128.189L199.276 126.791ZM197.731 130.7C197.731 132.222 198.241 133.549 199.276 134.609L200.707 133.211C200.062 132.551 199.731 131.738 199.731 130.7H197.731ZM199.276 134.609C200.31 135.668 201.611 136.2 203.111 136.2V134.2C202.131 134.2 201.352 133.872 200.707 133.211L199.276 134.609ZM203.111 136.2C204.611 136.2 205.912 135.668 206.947 134.609L205.516 133.211C204.87 133.872 204.091 134.2 203.111 134.2V136.2ZM206.947 134.609C207.982 133.549 208.491 132.222 208.491 130.7H206.491C206.491 131.738 206.161 132.551 205.516 133.211L206.947 134.609ZM208.491 130.7C208.491 129.178 207.982 127.851 206.947 126.791L205.516 128.189C206.161 128.849 206.491 129.662 206.491 130.7H208.491ZM206.947 126.791C205.912 125.732 204.611 125.2 203.111 125.2V127.2C204.091 127.2 204.87 127.528 205.516 128.189L206.947 126.791ZM231.526 126.65L231.686 127.637L232.663 127.478L232.515 126.5L231.526 126.65ZM228.016 127.22L227.067 127.536L227.336 128.343L228.176 128.207L228.016 127.22ZM223.696 126.05L223.2 125.182L223.191 125.187L223.182 125.193L223.696 126.05ZM224.476 128.3L224.148 129.245L224.157 129.248L224.476 128.3ZM227.686 129.38L228.018 128.437L228.005 128.432L227.686 129.38ZM230.776 131.24L230.02 131.894L230.025 131.9L230.03 131.906L230.776 131.24ZM230.056 137.69L229.463 136.885L229.456 136.89L230.056 137.69ZM221.116 137.75L220.525 138.557L220.535 138.564L221.116 137.75ZM219.106 134.36L218.962 133.37L217.965 133.515L218.118 134.511L219.106 134.36ZM222.616 133.85L223.586 133.607L223.367 132.73L222.472 132.86L222.616 133.85ZM223.606 135.2L223.059 136.037L223.066 136.042L223.073 136.046L223.606 135.2ZM227.476 135.32L227.968 136.191L227.98 136.184L227.476 135.32ZM226.456 132.68L226.767 131.73L226.759 131.727L226.456 132.68ZM223.246 131.66L222.93 132.609L222.943 132.613L223.246 131.66ZM221.146 123.71L221.751 124.506L221.753 124.505L221.146 123.71ZM229.636 123.56L229.056 124.375L229.064 124.38L229.636 123.56ZM231.366 125.663L227.856 126.233L228.176 128.207L231.686 127.637L231.366 125.663ZM228.965 126.904C228.719 126.166 228.247 125.581 227.567 125.2C226.913 124.834 226.13 124.69 225.286 124.69V126.69C225.922 126.69 226.334 126.801 226.59 126.945C226.82 127.074 226.973 127.254 227.067 127.536L228.965 126.904ZM225.286 124.69C224.526 124.69 223.812 124.832 223.2 125.182L224.192 126.918C224.42 126.788 224.766 126.69 225.286 126.69V124.69ZM223.182 125.193C222.52 125.589 222.096 126.224 222.096 127.04H224.096C224.096 127.015 224.099 127.003 224.1 127C224.1 126.997 224.101 126.997 224.101 126.996C224.102 126.995 224.107 126.986 224.122 126.972C224.138 126.957 224.165 126.935 224.211 126.907L223.182 125.193ZM222.096 127.04C222.096 127.636 222.374 128.125 222.767 128.483C223.137 128.822 223.624 129.062 224.148 129.244L224.805 127.356C224.408 127.218 224.205 127.088 224.115 127.007C224.048 126.945 224.096 126.964 224.096 127.04H222.096ZM224.157 129.248L227.367 130.328L228.005 128.432L224.795 127.352L224.157 129.248ZM227.354 130.323C228.691 130.794 229.539 131.338 230.02 131.894L231.532 130.586C230.733 129.662 229.521 128.966 228.018 128.437L227.354 130.323ZM230.03 131.906C230.502 132.435 230.766 133.126 230.766 134.06H232.766C232.766 132.714 232.37 131.525 231.522 130.574L230.03 131.906ZM230.766 134.06C230.766 135.365 230.315 136.257 229.463 136.885L230.649 138.495C232.077 137.443 232.766 135.915 232.766 134.06H230.766ZM229.456 136.89C228.558 137.563 227.3 137.95 225.586 137.95V139.95C227.592 139.95 229.314 139.497 230.656 138.49L229.456 136.89ZM225.586 137.95C223.862 137.95 222.597 137.579 221.697 136.936L220.535 138.564C221.875 139.521 223.59 139.95 225.586 139.95V137.95ZM221.707 136.943C220.813 136.289 220.277 135.401 220.095 134.209L218.118 134.511C218.375 136.199 219.179 137.571 220.525 138.557L221.707 136.943ZM219.25 135.35L222.76 134.84L222.472 132.86L218.962 133.37L219.25 135.35ZM221.646 134.093C221.852 134.916 222.346 135.571 223.059 136.037L224.153 134.363C223.827 134.149 223.66 133.904 223.586 133.607L221.646 134.093ZM223.073 136.046C223.816 136.514 224.706 136.71 225.676 136.71V134.71C224.966 134.71 224.476 134.566 224.139 134.354L223.073 136.046ZM225.676 136.71C226.523 136.71 227.31 136.563 227.968 136.191L226.984 134.449C226.722 134.597 226.309 134.71 225.676 134.71V136.71ZM227.98 136.184C228.709 135.758 229.196 135.078 229.196 134.18H227.196C227.196 134.244 227.183 134.272 227.171 134.291C227.154 134.317 227.106 134.378 226.972 134.456L227.98 136.184ZM229.196 134.18C229.196 133.512 228.868 132.974 228.414 132.583C227.982 132.21 227.407 131.939 226.767 131.73L226.145 133.63C226.665 133.801 226.96 133.97 227.108 134.097C227.234 134.206 227.196 134.228 227.196 134.18H229.196ZM226.759 131.727L223.549 130.707L222.943 132.613L226.153 133.633L226.759 131.727ZM223.562 130.711C222.327 130.3 221.57 129.816 221.157 129.331L219.635 130.629C220.382 131.504 221.525 132.14 222.93 132.609L223.562 130.711ZM221.157 129.331C220.765 128.871 220.526 128.229 220.526 127.31H218.526C218.526 128.591 218.868 129.729 219.635 130.629L221.157 129.331ZM220.526 127.31C220.526 125.984 220.963 125.105 221.751 124.506L220.541 122.914C219.169 123.955 218.526 125.476 218.526 127.31H220.526ZM221.753 124.505C222.629 123.836 223.863 123.45 225.556 123.45V121.45C223.569 121.45 221.863 121.904 220.539 122.915L221.753 124.505ZM225.556 123.45C227.093 123.45 228.232 123.788 229.056 124.375L230.216 122.745C228.96 121.852 227.379 121.45 225.556 121.45V123.45ZM229.064 124.38C229.891 124.957 230.377 125.741 230.537 126.8L232.515 126.5C232.275 124.919 231.501 123.643 230.208 122.74L229.064 124.38ZM241.984 136.61L241.273 137.313L241.279 137.319L241.286 137.326L241.984 136.61ZM241.984 124.82L241.277 124.113L241.984 124.82ZM253.804 124.82L253.097 125.527L253.102 125.532L253.804 124.82ZM253.804 136.61L254.502 137.326L254.511 137.317L253.804 136.61ZM244.774 127.49L245.49 128.189L244.774 127.49ZM244.774 133.91L245.49 133.211L244.774 133.91ZM251.014 133.91L250.299 133.211L251.014 133.91ZM242.696 135.907C241.333 134.527 240.644 132.815 240.644 130.7H238.644C238.644 133.305 239.515 135.533 241.273 137.313L242.696 135.907ZM240.644 130.7C240.644 128.585 241.333 126.886 242.691 125.527L241.277 124.113C239.516 125.874 238.644 128.095 238.644 130.7H240.644ZM242.691 125.527C244.073 124.146 245.783 123.45 247.894 123.45V121.45C245.286 121.45 243.056 122.334 241.277 124.113L242.691 125.527ZM247.894 123.45C250.006 123.45 251.716 124.146 253.097 125.527L254.511 124.113C252.733 122.334 250.503 121.45 247.894 121.45V123.45ZM253.102 125.532C254.479 126.891 255.174 128.589 255.174 130.7H257.174C257.174 128.091 256.29 125.869 254.507 124.108L253.102 125.532ZM255.174 130.7C255.174 132.811 254.478 134.522 253.097 135.903L254.511 137.317C256.29 135.538 257.174 133.309 257.174 130.7H255.174ZM253.106 135.894C251.703 137.263 249.987 137.95 247.894 137.95V139.95C250.482 139.95 252.706 139.077 254.502 137.326L253.106 135.894ZM247.894 137.95C245.802 137.95 244.086 137.263 242.682 135.894L241.286 137.326C243.083 139.077 245.307 139.95 247.894 139.95V137.95ZM247.894 125.2C246.395 125.2 245.094 125.732 244.059 126.791L245.49 128.189C246.135 127.528 246.914 127.2 247.894 127.2V125.2ZM244.059 126.791C243.024 127.851 242.514 129.178 242.514 130.7H244.514C244.514 129.662 244.845 128.849 245.49 128.189L244.059 126.791ZM242.514 130.7C242.514 132.222 243.024 133.549 244.059 134.609L245.49 133.211C244.845 132.551 244.514 131.738 244.514 130.7H242.514ZM244.059 134.609C245.094 135.668 246.395 136.2 247.894 136.2V134.2C246.914 134.2 246.135 133.872 245.49 133.211L244.059 134.609ZM247.894 136.2C249.394 136.2 250.695 135.668 251.73 134.609L250.299 133.211C249.654 133.872 248.875 134.2 247.894 134.2V136.2ZM251.73 134.609C252.765 133.549 253.274 132.222 253.274 130.7H251.274C251.274 131.738 250.944 132.551 250.299 133.211L251.73 134.609ZM253.274 130.7C253.274 129.178 252.765 127.851 251.73 126.791L250.299 128.189C250.944 128.849 251.274 129.662 251.274 130.7H253.274ZM251.73 126.791C250.695 125.732 249.394 125.2 247.894 125.2V127.2C248.875 127.2 249.654 127.528 250.299 128.189L251.73 126.791ZM269.589 122.9H268.589V123.9H269.589V122.9ZM273.309 122.9H274.309V121.9H273.309V122.9ZM273.309 126.14V127.14H274.309V126.14H273.309ZM269.589 126.14V125.14H268.589V126.14H269.589ZM269.589 138.5V139.5H270.589V138.5H269.589ZM265.839 138.5H264.839V139.5H265.839V138.5ZM265.839 126.14H266.839V125.14H265.839V126.14ZM263.469 126.14H262.469V127.14H263.469V126.14ZM263.469 122.9V121.9H262.469V122.9H263.469ZM265.839 122.9V123.9H266.839V122.9H265.839ZM267.369 117.41L266.706 116.662L266.699 116.668L266.692 116.675L267.369 117.41ZM273.309 116H274.309V115H273.309V116ZM273.309 119.57V120.57H274.309V119.57H273.309ZM268.589 121.46V122.9H270.589V121.46H268.589ZM269.589 123.9H273.309V121.9H269.589V123.9ZM272.309 122.9V126.14H274.309V122.9H272.309ZM273.309 125.14H269.589V127.14H273.309V125.14ZM268.589 126.14V138.5H270.589V126.14H268.589ZM269.589 137.5H265.839V139.5H269.589V137.5ZM266.839 138.5V126.14H264.839V138.5H266.839ZM265.839 125.14H263.469V127.14H265.839V125.14ZM264.469 126.14V122.9H262.469V126.14H264.469ZM263.469 123.9H265.839V121.9H263.469V123.9ZM266.839 122.9V120.95H264.839V122.9H266.839ZM266.839 120.95C266.839 119.802 267.238 118.891 268.047 118.145L266.692 116.675C265.461 117.809 264.839 119.258 264.839 120.95H266.839ZM268.033 118.158C268.898 117.391 269.938 117 271.209 117V115C269.48 115 267.96 115.549 266.706 116.662L268.033 118.158ZM271.209 117H273.309V115H271.209V117ZM272.309 116V119.57H274.309V116H272.309ZM273.309 118.57H271.479V120.57H273.309V118.57ZM271.479 118.57C270.692 118.57 269.982 118.843 269.422 119.403L270.836 120.817C270.997 120.657 271.187 120.57 271.479 120.57V118.57ZM269.422 119.403C268.862 119.963 268.589 120.673 268.589 121.46H270.589C270.589 121.167 270.676 120.977 270.836 120.817L269.422 119.403ZM279.87 126.17H278.87V127.17H279.87V126.17ZM279.87 122.9V121.9H278.87V122.9H279.87ZM282.09 122.9V123.9H283.09V122.9H282.09ZM282.09 119.84V118.84H281.09V119.84H282.09ZM285.84 119.84H286.84V118.84H285.84V119.84ZM285.84 122.9H284.84V123.9H285.84V122.9ZM289.71 122.9H290.71V121.9H289.71V122.9ZM289.71 126.17V127.17H290.71V126.17H289.71ZM285.84 126.17V125.17H284.84V126.17H285.84ZM286.38 134.39L287.087 133.683V133.683L286.38 134.39ZM289.71 134.93H290.71V133.93H289.71V134.93ZM289.71 138.5V139.5H290.71V138.5H289.71ZM283.62 137.09L282.942 137.825L282.949 137.832L283.62 137.09ZM282.09 126.17H283.09V125.17H282.09V126.17ZM280.87 126.17V122.9H278.87V126.17H280.87ZM279.87 123.9H282.09V121.9H279.87V123.9ZM283.09 122.9V119.84H281.09V122.9H283.09ZM282.09 120.84H285.84V118.84H282.09V120.84ZM284.84 119.84V122.9H286.84V119.84H284.84ZM285.84 123.9H289.71V121.9H285.84V123.9ZM288.71 122.9V126.17H290.71V122.9H288.71ZM289.71 125.17H285.84V127.17H289.71V125.17ZM284.84 126.17V133.04H286.84V126.17H284.84ZM284.84 133.04C284.84 133.827 285.113 134.537 285.673 135.097L287.087 133.683C286.927 133.523 286.84 133.333 286.84 133.04H284.84ZM285.673 135.097C286.24 135.664 286.964 135.93 287.76 135.93V133.93C287.436 133.93 287.24 133.836 287.087 133.683L285.673 135.097ZM287.76 135.93H289.71V133.93H287.76V135.93ZM288.71 134.93V138.5H290.71V134.93H288.71ZM289.71 137.5H287.4V139.5H289.71V137.5ZM287.4 137.5C286.152 137.5 285.135 137.112 284.29 136.348L282.949 137.832C284.184 138.948 285.687 139.5 287.4 139.5V137.5ZM284.297 136.355C283.485 135.606 283.09 134.704 283.09 133.58H281.09C281.09 135.256 281.714 136.694 282.942 137.825L284.297 136.355ZM283.09 133.58V126.17H281.09V133.58H283.09ZM282.09 125.17H279.87V127.17H282.09V125.17Z" fill="black"/>
</svg>
