<svg width="341" height="180" viewBox="0 0 341 180" fill="none" xmlns="http://www.w3.org/2000/svg">
<rect width="341" height="180" fill="#F5F5F5"/>
<path d="M255.481 124.227C272.711 123.227 305.639 112.527 307.171 83.7271C307.171 47.7271 272.073 38.2271 254.843 38.2271C229.955 38.2271 126.576 38.2271 67.8667 38.2271" stroke="black"/>
<path d="M255.741 124.227H163.588" stroke="black"/>
<path d="M179.449 81.2271L233.107 141.773H79.5719L29.6333 81.2271H179.449Z" fill="#31D67B"/>
<mask id="mask0" mask-type="alpha" maskUnits="userSpaceOnUse" x="29" y="81" width="205" height="61">
<path d="M179.449 81.2271L233.107 141.773H79.5719L29.6333 81.2271H179.449Z" fill="#31D67B"/>
</mask>
<g mask="url(#mask0)">
<path d="M-95.8413 83.3897C2.11227 44.5192 72.0791 44.5192 114.059 83.3897C156.039 122.26 226.006 122.26 323.96 83.3897" stroke="#4AE991" stroke-width="2"/>
<path d="M-83.5705 157.83C-8.4782 99.3602 57.8628 83.9218 115.452 111.515C173.042 139.108 239.383 123.669 314.475 65.1996" stroke="#4AE991" stroke-width="2"/>
<path d="M-91.7 132.13C10.3487 98.7245 80.0992 102.542 117.552 143.583C155.004 184.624 224.754 188.442 326.803 155.036" stroke="#4AE991" stroke-width="2"/>
</g>
<path d="M135.867 38.2271L92.3667 86.7271" stroke="black"/>
<path d="M131.367 38.2271L87.8667 86.7271" stroke="black"/>
<path d="M126.367 38.2271L82.8667 86.7271" stroke="black"/>
<path d="M121.367 38.2271L77.8667 86.7271" stroke="black"/>
<path d="M116.367 38.2271L72.8667 86.7271" stroke="black"/>
<path d="M111.367 38.2271L67.8667 86.7271" stroke="black"/>
<path d="M137.357 73.4976V86.8176C137.357 89.1376 136.557 91.0776 134.957 92.6376C133.357 94.1776 131.347 94.9476 128.927 94.9476C127.427 94.9476 126.047 94.6176 124.787 93.9576C123.527 93.2976 122.527 92.3976 121.787 91.2576L125.147 89.0976C125.507 89.7576 126.027 90.2776 126.707 90.6576C127.387 91.0376 128.147 91.2276 128.987 91.2276C130.267 91.2276 131.337 90.8076 132.197 89.9676C133.057 89.1076 133.487 88.0576 133.487 86.8176V73.4976H137.357ZM150.588 87.0876V94.4976H146.568V73.4976H155.988C158.028 73.4976 159.748 74.1476 161.148 75.4476C162.548 76.7276 163.248 78.3376 163.248 80.2776C163.248 82.2376 162.548 83.8576 161.148 85.1376C159.748 86.4376 158.028 87.0876 155.988 87.0876H150.588ZM155.988 77.2176H150.588V83.3676H155.988C156.868 83.3676 157.598 83.0776 158.178 82.4976C158.758 81.8976 159.048 81.1576 159.048 80.2776C159.048 79.3976 158.758 78.6676 158.178 78.0876C157.598 77.5076 156.868 77.2176 155.988 77.2176ZM176.158 94.4976H172.138V73.4976H176.158L183.688 86.7576L191.188 73.4976H195.208V94.4976H191.188V81.1176L185.008 92.1276H182.338L176.158 81.1476V94.4976ZM206.301 92.6076C204.741 91.0276 203.961 89.0576 203.961 86.6976C203.961 84.3376 204.741 82.3776 206.301 80.8176C207.881 79.2376 209.851 78.4476 212.211 78.4476C214.571 78.4476 216.541 79.2376 218.121 80.8176C219.701 82.3776 220.491 84.3376 220.491 86.6976C220.491 89.0576 219.701 91.0276 218.121 92.6076C216.521 94.1676 214.551 94.9476 212.211 94.9476C209.871 94.9476 207.901 94.1676 206.301 92.6076ZM212.211 82.1976C210.971 82.1976 209.931 82.6276 209.091 83.4876C208.251 84.3476 207.831 85.4176 207.831 86.6976C207.831 87.9776 208.251 89.0476 209.091 89.9076C209.931 90.7676 210.971 91.1976 212.211 91.1976C213.451 91.1976 214.491 90.7676 215.331 89.9076C216.171 89.0476 216.591 87.9776 216.591 86.6976C216.591 85.4176 216.171 84.3476 215.331 83.4876C214.491 82.6276 213.451 82.1976 212.211 82.1976ZM232.826 78.8976V80.8176C233.906 79.2376 235.616 78.4476 237.956 78.4476V82.6176C237.456 82.3976 236.946 82.2876 236.426 82.2876C235.386 82.2876 234.526 82.6376 233.846 83.3376C233.166 84.0176 232.826 84.8776 232.826 85.9176V94.4976H229.076V78.8976H232.826ZM252.467 78.4476C254.227 78.4476 255.807 79.0076 257.207 80.1276V78.8976H260.927V94.0776C260.927 96.2176 260.177 98.0276 258.677 99.5076C257.197 100.968 255.367 101.698 253.187 101.698C251.487 101.698 249.927 101.248 248.507 100.348C247.087 99.4676 246.107 98.3576 245.567 97.0176L249.317 95.9376C249.597 96.5376 250.087 97.0276 250.787 97.4076C251.487 97.7876 252.247 97.9776 253.067 97.9776C254.207 97.9776 255.187 97.5976 256.007 96.8376C256.807 96.0976 257.207 95.1776 257.207 94.0776V93.2676C255.807 94.3876 254.227 94.9476 252.467 94.9476C250.327 94.9476 248.517 94.1676 247.037 92.6076C245.597 91.0276 244.877 89.0576 244.877 86.6976C244.877 84.3376 245.597 82.3776 247.037 80.8176C248.497 79.2376 250.307 78.4476 252.467 78.4476ZM255.917 83.4876C255.117 82.6276 254.127 82.1976 252.947 82.1976C251.747 82.1976 250.747 82.6276 249.947 83.4876C249.147 84.3476 248.747 85.4176 248.747 86.6976C248.747 87.9776 249.147 89.0476 249.947 89.9076C250.747 90.7676 251.747 91.1976 252.947 91.1976C254.127 91.1976 255.117 90.7676 255.917 89.9076C256.737 89.0276 257.147 87.9576 257.147 86.6976C257.147 85.4376 256.737 84.3676 255.917 83.4876ZM277.129 78.4476C278.889 78.4476 280.469 79.0076 281.869 80.1276V78.8976H285.589V94.4976H281.869V93.2676C280.469 94.3876 278.889 94.9476 277.129 94.9476C274.989 94.9476 273.179 94.1676 271.699 92.6076C270.259 91.0276 269.539 89.0576 269.539 86.6976C269.539 84.3376 270.259 82.3776 271.699 80.8176C273.159 79.2376 274.969 78.4476 277.129 78.4476ZM280.579 83.4876C279.779 82.6276 278.789 82.1976 277.609 82.1976C276.409 82.1976 275.409 82.6276 274.609 83.4876C273.809 84.3476 273.409 85.4176 273.409 86.6976C273.409 87.9776 273.809 89.0476 274.609 89.9076C275.409 90.7676 276.409 91.1976 277.609 91.1976C278.789 91.1976 279.779 90.7676 280.579 89.9076C281.399 89.0276 281.809 87.9576 281.809 86.6976C281.809 85.4376 281.399 84.3676 280.579 83.4876ZM294.771 94.4976V78.8976H298.521V80.7876C299.661 79.2276 301.221 78.4476 303.201 78.4476C304.961 78.4476 306.421 79.0276 307.581 80.1876C308.761 81.3676 309.351 82.8176 309.351 84.5376V94.4976H305.601V85.5876C305.601 84.5676 305.261 83.7176 304.581 83.0376C303.921 82.3576 303.091 82.0176 302.091 82.0176C301.071 82.0176 300.221 82.3576 299.541 83.0376C298.861 83.7176 298.521 84.5676 298.521 85.5876V94.4976H294.771Z" fill="#AB85FF"/>
<path d="M137.357 73.4976H138.357V72.4976H137.357V73.4976ZM134.957 92.6376L135.65 93.3581L135.655 93.3536L134.957 92.6376ZM124.787 93.9576L125.251 93.0717L124.787 93.9576ZM121.787 91.2576L121.246 90.4164L120.401 90.9595L120.948 91.802L121.787 91.2576ZM125.147 89.0976L126.025 88.6187L125.51 87.6752L124.606 88.2564L125.147 89.0976ZM126.707 90.6576L126.219 91.5305L126.707 90.6576ZM132.197 89.9676L132.896 90.683L132.904 90.6747L132.197 89.9676ZM133.487 73.4976V72.4976H132.487V73.4976H133.487ZM136.357 73.4976V86.8176H138.357V73.4976H136.357ZM136.357 86.8176C136.357 88.8795 135.657 90.5577 134.259 91.9216L135.655 93.3536C137.456 91.5974 138.357 89.3956 138.357 86.8176H136.357ZM134.263 91.9171C132.867 93.2609 131.114 93.9476 128.927 93.9476V95.9476C131.58 95.9476 133.846 95.0943 135.65 93.358L134.263 91.9171ZM128.927 93.9476C127.579 93.9476 126.36 93.6526 125.251 93.0717L124.323 94.8434C125.734 95.5825 127.274 95.9476 128.927 95.9476V93.9476ZM125.251 93.0717C124.136 92.4876 123.268 91.7022 122.626 90.7131L120.948 91.802C121.786 93.0929 122.918 94.1075 124.323 94.8434L125.251 93.0717ZM122.327 92.0987L125.687 89.9387L124.606 88.2564L121.246 90.4164L122.327 92.0987ZM124.269 89.5764C124.722 90.4081 125.381 91.062 126.219 91.5305L127.195 89.7846C126.673 89.4931 126.291 89.107 126.025 88.6187L124.269 89.5764ZM126.219 91.5305C127.06 92.0003 127.99 92.2276 128.987 92.2276V90.2276C128.304 90.2276 127.714 90.0748 127.195 89.7846L126.219 91.5305ZM128.987 92.2276C130.509 92.2276 131.836 91.7181 132.895 90.6829L131.498 89.2522C130.838 89.8971 130.024 90.2276 128.987 90.2276V92.2276ZM132.904 90.6747C133.955 89.6231 134.487 88.317 134.487 86.8176H132.487C132.487 87.7982 132.158 88.5921 131.49 89.2605L132.904 90.6747ZM134.487 86.8176V73.4976H132.487V86.8176H134.487ZM133.487 74.4976H137.357V72.4976H133.487V74.4976ZM150.588 87.0876V86.0876H149.588V87.0876H150.588ZM150.588 94.4976V95.4976H151.588V94.4976H150.588ZM146.568 94.4976H145.568V95.4976H146.568V94.4976ZM146.568 73.4976V72.4976H145.568V73.4976H146.568ZM161.148 75.4476L160.467 76.1804L160.473 76.1856L161.148 75.4476ZM161.148 85.1376L160.473 84.3995L160.467 84.4048L161.148 85.1376ZM150.588 77.2176V76.2176H149.588V77.2176H150.588ZM150.588 83.3676H149.588V84.3676H150.588V83.3676ZM158.178 82.4976L158.885 83.2047L158.891 83.1987L158.897 83.1926L158.178 82.4976ZM158.178 78.0876L158.885 77.3805L158.178 78.0876ZM149.588 87.0876V94.4976H151.588V87.0876H149.588ZM150.588 93.4976H146.568V95.4976H150.588V93.4976ZM147.568 94.4976V73.4976H145.568V94.4976H147.568ZM146.568 74.4976H155.988V72.4976H146.568V74.4976ZM155.988 74.4976C157.794 74.4976 159.265 75.0644 160.467 76.1804L161.828 74.7148C160.23 73.2307 158.261 72.4976 155.988 72.4976V74.4976ZM160.473 76.1856C161.66 77.2713 162.248 78.6111 162.248 80.2776H164.248C164.248 78.064 163.435 76.1838 161.822 74.7095L160.473 76.1856ZM162.248 80.2776C162.248 81.9674 161.658 83.316 160.473 84.3995L161.822 85.8756C163.437 84.3991 164.248 82.5077 164.248 80.2776H162.248ZM160.467 84.4048C159.265 85.5207 157.794 86.0876 155.988 86.0876V88.0876C158.261 88.0876 160.23 87.3544 161.828 85.8704L160.467 84.4048ZM155.988 86.0876H150.588V88.0876H155.988V86.0876ZM155.988 76.2176H150.588V78.2176H155.988V76.2176ZM149.588 77.2176V83.3676H151.588V77.2176H149.588ZM150.588 84.3676H155.988V82.3676H150.588V84.3676ZM155.988 84.3676C157.112 84.3676 158.103 83.9868 158.885 83.2047L157.471 81.7905C157.093 82.1683 156.624 82.3676 155.988 82.3676V84.3676ZM158.897 83.1926C159.667 82.3952 160.048 81.4013 160.048 80.2776H158.048C158.048 80.9138 157.848 81.4 157.459 81.8025L158.897 83.1926ZM160.048 80.2776C160.048 79.1537 159.667 78.1626 158.885 77.3805L157.471 78.7947C157.848 79.1725 158.048 79.6414 158.048 80.2776H160.048ZM158.885 77.3805C158.103 76.5983 157.112 76.2176 155.988 76.2176V78.2176C156.624 78.2176 157.093 78.4168 157.471 78.7947L158.885 77.3805ZM176.158 94.4976V95.4976H177.158V94.4976H176.158ZM172.138 94.4976H171.138V95.4976H172.138V94.4976ZM172.138 73.4976V72.4976H171.138V73.4976H172.138ZM176.158 73.4976L177.028 73.0038L176.74 72.4976H176.158V73.4976ZM183.688 86.7576L182.818 87.2514L183.69 88.7857L184.558 87.2499L183.688 86.7576ZM191.188 73.4976V72.4976H190.605L190.318 73.0052L191.188 73.4976ZM195.208 73.4976H196.208V72.4976H195.208V73.4976ZM195.208 94.4976V95.4976H196.208V94.4976H195.208ZM191.188 94.4976H190.188V95.4976H191.188V94.4976ZM191.188 81.1176H192.188V77.293L190.316 80.6281L191.188 81.1176ZM185.008 92.1276V93.1276H185.593L185.88 92.617L185.008 92.1276ZM182.338 92.1276L181.467 92.618L181.753 93.1276H182.338V92.1276ZM176.158 81.1476L177.029 80.6571L175.158 77.3321V81.1476H176.158ZM176.158 93.4976H172.138V95.4976H176.158V93.4976ZM173.138 94.4976V73.4976H171.138V94.4976H173.138ZM172.138 74.4976H176.158V72.4976H172.138V74.4976ZM175.288 73.9914L182.818 87.2514L184.558 86.2638L177.028 73.0038L175.288 73.9914ZM184.558 87.2499L192.058 73.9899L190.318 73.0052L182.818 86.2652L184.558 87.2499ZM191.188 74.4976H195.208V72.4976H191.188V74.4976ZM194.208 73.4976V94.4976H196.208V73.4976H194.208ZM195.208 93.4976H191.188V95.4976H195.208V93.4976ZM192.188 94.4976V81.1176H190.188V94.4976H192.188ZM190.316 80.6281L184.136 91.6381L185.88 92.617L192.06 81.607L190.316 80.6281ZM185.008 91.1276H182.338V93.1276H185.008V91.1276ZM183.209 91.6371L177.029 80.6571L175.287 81.638L181.467 92.618L183.209 91.6371ZM175.158 81.1476V94.4976H177.158V81.1476H175.158ZM206.301 92.6076L205.589 93.3101L205.596 93.3169L205.603 93.3236L206.301 92.6076ZM206.301 80.8176L205.594 80.1105L206.301 80.8176ZM218.121 80.8176L217.414 81.5247L217.418 81.5292L218.121 80.8176ZM218.121 92.6076L218.819 93.3236L218.828 93.3147L218.121 92.6076ZM209.091 83.4876L209.806 84.1863L209.091 83.4876ZM209.091 89.9076L209.806 89.2088L209.091 89.9076ZM215.331 89.9076L214.616 89.2088L215.331 89.9076ZM207.013 91.905C205.65 90.5248 204.961 88.8129 204.961 86.6976H202.961C202.961 89.3023 203.832 91.5304 205.589 93.3101L207.013 91.905ZM204.961 86.6976C204.961 84.5823 205.65 82.8831 207.008 81.5247L205.594 80.1105C203.832 81.872 202.961 84.0928 202.961 86.6976H204.961ZM207.008 81.5247C208.389 80.1436 210.1 79.4476 212.211 79.4476V77.4476C209.602 77.4476 207.373 78.3315 205.594 80.1105L207.008 81.5247ZM212.211 79.4476C214.322 79.4476 216.033 80.1436 217.414 81.5247L218.828 80.1105C217.049 78.3315 214.82 77.4476 212.211 77.4476V79.4476ZM217.418 81.5292C218.795 82.8885 219.491 84.5863 219.491 86.6976H221.491C221.491 84.0888 220.607 81.8666 218.824 80.106L217.418 81.5292ZM219.491 86.6976C219.491 88.8089 218.795 90.5194 217.414 91.9005L218.828 93.3147C220.607 91.5357 221.491 89.3062 221.491 86.6976H219.491ZM217.423 91.8916C216.019 93.2602 214.304 93.9476 212.211 93.9476V95.9476C214.798 95.9476 217.023 95.075 218.819 93.3236L217.423 91.8916ZM212.211 93.9476C210.118 93.9476 208.403 93.2602 206.999 91.8916L205.603 93.3236C207.399 95.075 209.624 95.9476 212.211 95.9476V93.9476ZM212.211 81.1976C210.711 81.1976 209.41 81.7295 208.376 82.7888L209.806 84.1863C210.452 83.5256 211.231 83.1976 212.211 83.1976V81.1976ZM208.376 82.7888C207.34 83.8486 206.831 85.1751 206.831 86.6976H208.831C208.831 85.66 209.161 84.8465 209.806 84.1863L208.376 82.7888ZM206.831 86.6976C206.831 88.22 207.34 89.5465 208.376 90.6063L209.806 89.2088C209.161 88.5486 208.831 87.7351 208.831 86.6976H206.831ZM208.376 90.6063C209.41 91.6656 210.711 92.1976 212.211 92.1976V90.1976C211.231 90.1976 210.452 89.8695 209.806 89.2088L208.376 90.6063ZM212.211 92.1976C213.711 92.1976 215.012 91.6656 216.046 90.6063L214.616 89.2088C213.97 89.8695 213.191 90.1976 212.211 90.1976V92.1976ZM216.046 90.6063C217.081 89.5465 217.591 88.22 217.591 86.6976H215.591C215.591 87.7351 215.26 88.5486 214.616 89.2088L216.046 90.6063ZM217.591 86.6976C217.591 85.1751 217.081 83.8486 216.046 82.7888L214.616 84.1863C215.26 84.8465 215.591 85.66 215.591 86.6976H217.591ZM216.046 82.7888C215.012 81.7295 213.711 81.1976 212.211 81.1976V83.1976C213.191 83.1976 213.97 83.5256 214.616 84.1863L216.046 82.7888ZM232.826 78.8976H233.826V77.8976H232.826V78.8976ZM232.826 80.8176H231.826V84.0526L233.651 81.3819L232.826 80.8176ZM237.956 78.4476H238.956V77.4476H237.956V78.4476ZM237.956 82.6176L237.553 83.5329L238.956 84.1501V82.6176H237.956ZM233.846 83.3376L234.553 84.0447L234.558 84.0395L234.563 84.0343L233.846 83.3376ZM232.826 94.4976V95.4976H233.826V94.4976H232.826ZM229.076 94.4976H228.076V95.4976H229.076V94.4976ZM229.076 78.8976V77.8976H228.076V78.8976H229.076ZM231.826 78.8976V80.8176H233.826V78.8976H231.826ZM233.651 81.3819C234.502 80.1369 235.863 79.4476 237.956 79.4476V77.4476C235.369 77.4476 233.309 78.3382 232 80.2532L233.651 81.3819ZM236.956 78.4476V82.6176H238.956V78.4476H236.956ZM238.359 81.7022C237.738 81.4293 237.092 81.2876 236.426 81.2876V83.2876C236.8 83.2876 237.174 83.3658 237.553 83.5329L238.359 81.7022ZM236.426 81.2876C235.135 81.2876 234.01 81.7332 233.129 82.6408L234.563 84.0343C235.042 83.5419 235.636 83.2876 236.426 83.2876V81.2876ZM233.139 82.6305C232.255 83.5142 231.826 84.6362 231.826 85.9176H233.826C233.826 85.1189 234.077 84.5209 234.553 84.0447L233.139 82.6305ZM231.826 85.9176V94.4976H233.826V85.9176H231.826ZM232.826 93.4976H229.076V95.4976H232.826V93.4976ZM230.076 94.4976V78.8976H228.076V94.4976H230.076ZM229.076 79.8976H232.826V77.8976H229.076V79.8976ZM257.207 80.1276L256.582 80.9084L258.207 82.2082V80.1276H257.207ZM257.207 78.8976V77.8976H256.207V78.8976H257.207ZM260.927 78.8976H261.927V77.8976H260.927V78.8976ZM258.677 99.5076L259.379 100.219L259.379 100.219L258.677 99.5076ZM248.507 100.348L249.042 99.5029L249.034 99.4975L248.507 100.348ZM245.567 97.0176L245.29 96.0566L244.225 96.3633L244.639 97.3913L245.567 97.0176ZM249.317 95.9376L250.223 95.5147L249.862 94.74L249.04 94.9766L249.317 95.9376ZM250.787 97.4076L251.264 96.5287L250.787 97.4076ZM256.007 96.8376L255.328 96.1035L255.327 96.1041L256.007 96.8376ZM257.207 93.2676H258.207V91.1869L256.582 92.4867L257.207 93.2676ZM247.037 92.6076L246.298 93.2812L246.305 93.2886L246.312 93.2958L247.037 92.6076ZM247.037 80.8176L246.303 80.1389L246.302 80.1393L247.037 80.8176ZM255.917 83.4876L255.185 84.1687L255.185 84.1693L255.917 83.4876ZM249.947 89.9076L250.679 89.2265L249.947 89.9076ZM255.917 89.9076L255.185 89.2258L255.185 89.2265L255.917 89.9076ZM252.467 79.4476C253.995 79.4476 255.356 79.9274 256.582 80.9084L257.832 79.3467C256.258 78.0877 254.459 77.4476 252.467 77.4476V79.4476ZM258.207 80.1276V78.8976H256.207V80.1276H258.207ZM257.207 79.8976H260.927V77.8976H257.207V79.8976ZM259.927 78.8976V94.0776H261.927V78.8976H259.927ZM259.927 94.0776C259.927 95.9547 259.281 97.5069 257.975 98.7957L259.379 100.219C261.073 98.5482 261.927 96.4804 261.927 94.0776H259.927ZM257.975 98.7957C256.692 100.061 255.118 100.698 253.187 100.698V102.698C255.616 102.698 257.702 101.874 259.379 100.219L257.975 98.7957ZM253.187 100.698C251.674 100.698 250.3 100.3 249.042 99.5029L247.972 101.192C249.554 102.195 251.3 102.698 253.187 102.698V100.698ZM249.034 99.4975C247.765 98.7114 246.943 97.7567 246.494 96.6438L244.639 97.3913C245.271 98.9584 246.409 100.224 247.98 101.198L249.034 99.4975ZM245.844 97.9785L249.594 96.8985L249.04 94.9766L245.29 96.0566L245.844 97.9785ZM248.411 96.3604C248.799 97.1913 249.461 97.8255 250.31 98.2864L251.264 96.5287C250.713 96.2296 250.395 95.8838 250.223 95.5147L248.411 96.3604ZM250.31 98.2864C251.161 98.7483 252.085 98.9776 253.067 98.9776V96.9776C252.408 96.9776 251.813 96.8268 251.264 96.5287L250.31 98.2864ZM253.067 98.9776C254.454 98.9776 255.678 98.506 256.687 97.571L255.327 96.1041C254.696 96.6891 253.96 96.9776 253.067 96.9776V98.9776ZM256.686 97.5717C257.693 96.6404 258.207 95.4533 258.207 94.0776H256.207C256.207 94.9018 255.921 95.5547 255.328 96.1035L256.686 97.5717ZM258.207 94.0776V93.2676H256.207V94.0776H258.207ZM256.582 92.4867C255.356 93.4677 253.995 93.9476 252.467 93.9476V95.9476C254.459 95.9476 256.258 95.3074 257.832 94.0484L256.582 92.4867ZM252.467 93.9476C250.603 93.9476 249.055 93.2814 247.762 91.9193L246.312 93.2958C247.979 95.0538 250.051 95.9476 252.467 95.9476V93.9476ZM247.776 91.934C246.522 90.5579 245.877 88.8364 245.877 86.6976H243.877C243.877 89.2787 244.672 91.4973 246.298 93.2812L247.776 91.934ZM245.877 86.6976C245.877 84.5586 246.522 82.85 247.772 81.4958L246.302 80.1393C244.672 81.9052 243.877 84.1165 243.877 86.6976H245.877ZM247.771 81.4962C249.041 80.122 250.585 79.4476 252.467 79.4476V77.4476C250.029 77.4476 247.953 78.3531 246.303 80.1389L247.771 81.4962ZM256.649 82.8065C255.659 81.742 254.403 81.1976 252.947 81.1976V83.1976C253.851 83.1976 254.575 83.5131 255.185 84.1687L256.649 82.8065ZM252.947 81.1976C251.476 81.1976 250.209 81.7381 249.215 82.8065L250.679 84.1687C251.285 83.517 252.018 83.1976 252.947 83.1976V81.1976ZM249.215 82.8065C248.227 83.8688 247.747 85.1896 247.747 86.6976H249.747C249.747 85.6456 250.067 84.8263 250.679 84.1687L249.215 82.8065ZM247.747 86.6976C247.747 88.2056 248.227 89.5263 249.215 90.5887L250.679 89.2265C250.067 88.5688 249.747 87.7496 249.747 86.6976H247.747ZM249.215 90.5887C250.209 91.657 251.476 92.1976 252.947 92.1976V90.1976C252.018 90.1976 251.285 89.8781 250.679 89.2265L249.215 90.5887ZM252.947 92.1976C254.403 92.1976 255.659 91.6531 256.649 90.5887L255.185 89.2265C254.575 89.882 253.851 90.1976 252.947 90.1976V92.1976ZM256.649 90.5893C257.65 89.5147 258.147 88.1973 258.147 86.6976H256.147C256.147 87.7178 255.824 88.5404 255.185 89.2258L256.649 90.5893ZM258.147 86.6976C258.147 85.1978 257.65 83.8804 256.649 82.8058L255.185 84.1693C255.824 84.8547 256.147 85.6773 256.147 86.6976H258.147ZM281.869 80.1276L281.244 80.9084L282.869 82.2082V80.1276H281.869ZM281.869 78.8976V77.8976H280.869V78.8976H281.869ZM285.589 78.8976H286.589V77.8976H285.589V78.8976ZM285.589 94.4976V95.4976H286.589V94.4976H285.589ZM281.869 94.4976H280.869V95.4976H281.869V94.4976ZM281.869 93.2676H282.869V91.1869L281.244 92.4867L281.869 93.2676ZM271.699 92.6076L270.96 93.2812L270.967 93.2886L270.974 93.2958L271.699 92.6076ZM271.699 80.8176L270.965 80.1389L270.964 80.1393L271.699 80.8176ZM280.579 83.4876L279.847 84.1687L279.847 84.1693L280.579 83.4876ZM274.609 89.9076L275.341 89.2265L274.609 89.9076ZM280.579 89.9076L279.847 89.2258L279.847 89.2265L280.579 89.9076ZM277.129 79.4476C278.657 79.4476 280.018 79.9274 281.244 80.9084L282.494 79.3467C280.92 78.0877 279.121 77.4476 277.129 77.4476V79.4476ZM282.869 80.1276V78.8976H280.869V80.1276H282.869ZM281.869 79.8976H285.589V77.8976H281.869V79.8976ZM284.589 78.8976V94.4976H286.589V78.8976H284.589ZM285.589 93.4976H281.869V95.4976H285.589V93.4976ZM282.869 94.4976V93.2676H280.869V94.4976H282.869ZM281.244 92.4867C280.018 93.4677 278.657 93.9476 277.129 93.9476V95.9476C279.121 95.9476 280.92 95.3074 282.494 94.0484L281.244 92.4867ZM277.129 93.9476C275.265 93.9476 273.717 93.2814 272.425 91.9193L270.974 93.2958C272.641 95.0538 274.713 95.9476 277.129 95.9476V93.9476ZM272.438 91.934C271.184 90.5579 270.539 88.8364 270.539 86.6976H268.539C268.539 89.2787 269.334 91.4973 270.96 93.2812L272.438 91.934ZM270.539 86.6976C270.539 84.5586 271.184 82.85 272.434 81.4958L270.964 80.1393C269.334 81.9052 268.539 84.1165 268.539 86.6976H270.539ZM272.434 81.4962C273.703 80.122 275.247 79.4476 277.129 79.4476V77.4476C274.691 77.4476 272.615 78.3531 270.965 80.1389L272.434 81.4962ZM281.311 82.8065C280.321 81.742 279.065 81.1976 277.609 81.1976V83.1976C278.513 83.1976 279.237 83.5131 279.847 84.1687L281.311 82.8065ZM277.609 81.1976C276.138 81.1976 274.871 81.7381 273.877 82.8065L275.341 84.1687C275.947 83.517 276.68 83.1976 277.609 83.1976V81.1976ZM273.877 82.8065C272.889 83.8688 272.409 85.1896 272.409 86.6976H274.409C274.409 85.6456 274.73 84.8263 275.341 84.1687L273.877 82.8065ZM272.409 86.6976C272.409 88.2056 272.889 89.5263 273.877 90.5887L275.341 89.2265C274.73 88.5688 274.409 87.7496 274.409 86.6976H272.409ZM273.877 90.5887C274.871 91.657 276.138 92.1976 277.609 92.1976V90.1976C276.68 90.1976 275.947 89.8781 275.341 89.2265L273.877 90.5887ZM277.609 92.1976C279.065 92.1976 280.321 91.6531 281.311 90.5887L279.847 89.2265C279.237 89.882 278.513 90.1976 277.609 90.1976V92.1976ZM281.311 90.5893C282.312 89.5147 282.809 88.1973 282.809 86.6976H280.809C280.809 87.7178 280.486 88.5404 279.847 89.2258L281.311 90.5893ZM282.809 86.6976C282.809 85.1978 282.312 83.8804 281.311 82.8058L279.847 84.1693C280.486 84.8547 280.809 85.6773 280.809 86.6976H282.809ZM294.771 94.4976H293.771V95.4976H294.771V94.4976ZM294.771 78.8976V77.8976H293.771V78.8976H294.771ZM298.521 78.8976H299.521V77.8976H298.521V78.8976ZM298.521 80.7876H297.521V83.8508L299.329 81.3776L298.521 80.7876ZM309.351 94.4976V95.4976H310.351V94.4976H309.351ZM305.601 94.4976H304.601V95.4976H305.601V94.4976ZM304.581 83.0376L303.864 83.734L303.869 83.7394L303.874 83.7447L304.581 83.0376ZM299.541 83.0376L298.834 82.3305L299.541 83.0376ZM298.521 94.4976V95.4976H299.521V94.4976H298.521ZM295.771 94.4976V78.8976H293.771V94.4976H295.771ZM294.771 79.8976H298.521V77.8976H294.771V79.8976ZM297.521 78.8976V80.7876H299.521V78.8976H297.521ZM299.329 81.3776C300.275 80.0827 301.531 79.4476 303.201 79.4476V77.4476C300.911 77.4476 299.048 78.3724 297.714 80.1975L299.329 81.3776ZM303.201 79.4476C304.717 79.4476 305.916 79.9368 306.874 80.8947L308.288 79.4805C306.926 78.1183 305.205 77.4476 303.201 77.4476V79.4476ZM306.874 80.8947C307.86 81.8808 308.351 83.0737 308.351 84.5376H310.351C310.351 82.5614 309.662 80.8543 308.288 79.4805L306.874 80.8947ZM308.351 84.5376V94.4976H310.351V84.5376H308.351ZM309.351 93.4976H305.601V95.4976H309.351V93.4976ZM306.601 94.4976V85.5876H304.601V94.4976H306.601ZM306.601 85.5876C306.601 84.3202 306.168 83.2102 305.288 82.3305L303.874 83.7447C304.354 84.2249 304.601 84.8149 304.601 85.5876H306.601ZM305.299 82.3411C304.439 81.4554 303.345 81.0176 302.091 81.0176V83.0176C302.837 83.0176 303.403 83.2597 303.864 83.734L305.299 82.3411ZM302.091 81.0176C300.824 81.0176 299.714 81.4507 298.834 82.3305L300.248 83.7447C300.729 83.2645 301.319 83.0176 302.091 83.0176V81.0176ZM298.834 82.3305C297.954 83.2102 297.521 84.3202 297.521 85.5876H299.521C299.521 84.8149 299.768 84.2249 300.248 83.7447L298.834 82.3305ZM297.521 85.5876V94.4976H299.521V85.5876H297.521ZM298.521 93.4976H294.771V95.4976H298.521V93.4976Z" fill="black"/>
</svg>
