<svg width="341" height="180" viewBox="0 0 341 180" fill="none" xmlns="http://www.w3.org/2000/svg">
<rect width="341" height="180" fill="#F5F5F5"/>
<rect x="55.5" y="25.5" width="176" height="12" stroke="#A57CFE"/>
<rect width="114" height="13" transform="translate(87 51)" fill="#A57CFE"/>
<rect width="114" height="13" transform="translate(87 102)" fill="#A57CFE"/>
<rect x="55.5" y="76.5" width="176" height="12" stroke="#A57CFE"/>
<rect x="55.5" y="127.5" width="176" height="12" stroke="#A57CFE"/>
<rect width="68" height="13" transform="translate(133 102)" fill="#31D67B"/>
<rect width="68" height="13" transform="translate(133 51)" fill="#31D67B"/>
<rect width="100" height="13" transform="translate(132 76)" fill="#31D67B"/>
<rect width="100" height="13" transform="translate(132 127)" fill="#31D67B"/>
<rect x="132.5" y="44.5" width="110" height="110" stroke="black"/>
<path d="M159.856 35.22H152.896V31.5H170.866V35.22H163.906V52.5H159.856V35.22ZM182.94 52.5H179.19V36.9H182.94V52.5ZM181.05 35.52C180.37 35.52 179.8 35.29 179.34 34.83C178.9 34.37 178.68 33.8 178.68 33.12C178.68 32.44 178.9 31.88 179.34 31.44C179.8 30.98 180.37 30.75 181.05 30.75C181.73 30.75 182.3 30.98 182.76 31.44C183.22 31.88 183.45 32.44 183.45 33.12C183.45 33.8 183.22 34.37 182.76 34.83C182.32 35.29 181.75 35.52 181.05 35.52ZM195.883 52.5H192.133V36.9H195.883V38.55C196.963 37.15 198.423 36.45 200.263 36.45C202.443 36.45 204.083 37.3 205.183 39C206.283 37.3 207.943 36.45 210.163 36.45C211.963 36.45 213.443 37 214.603 38.1C215.783 39.22 216.373 40.6 216.373 42.24V52.5H212.653V43.32C212.653 42.38 212.343 41.6 211.723 40.98C211.103 40.34 210.333 40.02 209.413 40.02C208.493 40.02 207.713 40.34 207.073 40.98C206.453 41.6 206.143 42.38 206.143 43.32V52.5H202.393V43.32C202.393 42.38 202.083 41.6 201.463 40.98C200.843 40.34 200.073 40.02 199.153 40.02C198.233 40.02 197.453 40.34 196.813 40.98C196.193 41.6 195.883 42.38 195.883 43.32V52.5ZM241.245 46.08H228.855C229.135 47.1 229.685 47.93 230.505 48.57C231.345 49.19 232.315 49.5 233.415 49.5C234.955 49.5 236.175 48.95 237.075 47.85L240.705 48.9C239.985 50.16 238.975 51.15 237.675 51.87C236.395 52.59 234.975 52.95 233.415 52.95C231.015 52.95 229.005 52.17 227.385 50.61C225.785 49.01 224.985 47.04 224.985 44.7C224.985 42.34 225.765 40.38 227.325 38.82C228.905 37.24 230.855 36.45 233.175 36.45C235.495 36.45 237.435 37.24 238.995 38.82C240.575 40.4 241.365 42.36 241.365 44.7C241.365 45.08 241.325 45.54 241.245 46.08ZM228.885 43.17H237.495C237.195 42.19 236.645 41.4 235.845 40.8C235.045 40.2 234.135 39.9 233.115 39.9C232.135 39.9 231.255 40.2 230.475 40.8C229.695 41.4 229.165 42.19 228.885 43.17ZM162.856 97.5H159.556L152.446 76.5H156.586L161.176 91.05L165.616 76.5H168.916L173.386 91.05L177.946 76.5H182.056L174.946 97.5H171.676L167.266 83.46L162.856 97.5ZM194.501 81.45C196.261 81.45 197.841 82.01 199.241 83.13V81.9H202.961V97.5H199.241V96.27C197.841 97.39 196.261 97.95 194.501 97.95C192.361 97.95 190.551 97.17 189.071 95.61C187.631 94.03 186.911 92.06 186.911 89.7C186.911 87.34 187.631 85.38 189.071 83.82C190.531 82.24 192.341 81.45 194.501 81.45ZM197.951 86.49C197.151 85.63 196.161 85.2 194.981 85.2C193.781 85.2 192.781 85.63 191.981 86.49C191.181 87.35 190.781 88.42 190.781 89.7C190.781 90.98 191.181 92.05 191.981 92.91C192.781 93.77 193.781 94.2 194.981 94.2C196.161 94.2 197.151 93.77 197.951 92.91C198.771 92.03 199.181 90.96 199.181 89.7C199.181 88.44 198.771 87.37 197.951 86.49ZM215.893 81.9V83.82C216.973 82.24 218.683 81.45 221.023 81.45V85.62C220.523 85.4 220.013 85.29 219.493 85.29C218.453 85.29 217.593 85.64 216.913 86.34C216.233 87.02 215.893 87.88 215.893 88.92V97.5H212.143V81.9H215.893ZM232.821 97.5H229.071V81.9H232.821V83.55C233.901 82.15 235.361 81.45 237.201 81.45C239.381 81.45 241.021 82.3 242.121 84C243.221 82.3 244.881 81.45 247.101 81.45C248.901 81.45 250.381 82 251.541 83.1C252.721 84.22 253.311 85.6 253.311 87.24V97.5H249.591V88.32C249.591 87.38 249.281 86.6 248.661 85.98C248.041 85.34 247.271 85.02 246.351 85.02C245.431 85.02 244.651 85.34 244.011 85.98C243.391 86.6 243.081 87.38 243.081 88.32V97.5H239.331V88.32C239.331 87.38 239.021 86.6 238.401 85.98C237.781 85.34 237.011 85.02 236.091 85.02C235.171 85.02 234.391 85.34 233.751 85.98C233.131 86.6 232.821 87.38 232.821 88.32V97.5ZM278.183 91.08H265.793C266.073 92.1 266.623 92.93 267.443 93.57C268.283 94.19 269.253 94.5 270.353 94.5C271.893 94.5 273.113 93.95 274.013 92.85L277.643 93.9C276.923 95.16 275.913 96.15 274.613 96.87C273.333 97.59 271.913 97.95 270.353 97.95C267.953 97.95 265.943 97.17 264.323 95.61C262.723 94.01 261.923 92.04 261.923 89.7C261.923 87.34 262.703 85.38 264.263 83.82C265.843 82.24 267.793 81.45 270.113 81.45C272.433 81.45 274.373 82.24 275.933 83.82C277.513 85.4 278.303 87.36 278.303 89.7C278.303 90.08 278.263 90.54 278.183 91.08ZM265.823 88.17H274.433C274.133 87.19 273.583 86.4 272.783 85.8C271.983 85.2 271.073 84.9 270.053 84.9C269.073 84.9 268.193 85.2 267.413 85.8C266.633 86.4 266.103 87.19 265.823 88.17ZM290.348 81.9V83.82C291.428 82.24 293.138 81.45 295.478 81.45V85.62C294.978 85.4 294.468 85.29 293.948 85.29C292.908 85.29 292.048 85.64 291.368 86.34C290.688 87.02 290.348 87.88 290.348 88.92V97.5H286.598V81.9H290.348ZM164.296 121.05C166.476 121.05 168.436 121.59 170.176 122.67C171.916 123.73 173.226 125.16 174.106 126.96L170.206 128.43C169.626 127.35 168.806 126.5 167.746 125.88C166.706 125.24 165.556 124.92 164.296 124.92C162.376 124.92 160.766 125.6 159.466 126.96C158.186 128.3 157.546 129.98 157.546 132C157.546 134.02 158.186 135.7 159.466 137.04C160.746 138.38 162.356 139.05 164.296 139.05C165.556 139.05 166.706 138.74 167.746 138.12C168.806 137.5 169.626 136.65 170.206 135.57L174.106 137.04C173.246 138.84 171.936 140.28 170.176 141.36C168.416 142.42 166.456 142.95 164.296 142.95C161.196 142.95 158.586 141.91 156.466 139.83C154.386 137.71 153.346 135.1 153.346 132C153.346 128.88 154.386 126.28 156.466 124.2C158.566 122.1 161.176 121.05 164.296 121.05ZM189.433 126.45C191.193 126.45 192.773 127.01 194.173 128.13V126.9H197.893V142.5H194.173V141.27C192.773 142.39 191.193 142.95 189.433 142.95C187.293 142.95 185.483 142.17 184.003 140.61C182.563 139.03 181.843 137.06 181.843 134.7C181.843 132.34 182.563 130.38 184.003 128.82C185.463 127.24 187.273 126.45 189.433 126.45ZM192.883 131.49C192.083 130.63 191.093 130.2 189.913 130.2C188.713 130.2 187.713 130.63 186.913 131.49C186.113 132.35 185.713 133.42 185.713 134.7C185.713 135.98 186.113 137.05 186.913 137.91C187.713 138.77 188.713 139.2 189.913 139.2C191.093 139.2 192.083 138.77 192.883 137.91C193.703 137.03 194.113 135.96 194.113 134.7C194.113 133.44 193.703 132.37 192.883 131.49ZM207.075 142.5V120H210.825V128.13C212.225 127.01 213.795 126.45 215.535 126.45C217.695 126.45 219.505 127.24 220.965 128.82C222.425 130.36 223.155 132.32 223.155 134.7C223.155 137.06 222.425 139.03 220.965 140.61C219.485 142.17 217.675 142.95 215.535 142.95C213.795 142.95 212.225 142.39 210.825 141.27V142.5H207.075ZM218.025 131.49C217.225 130.63 216.235 130.2 215.055 130.2C213.875 130.2 212.885 130.63 212.085 131.49C211.285 132.35 210.885 133.42 210.885 134.7C210.885 135.98 211.285 137.05 212.085 137.91C212.885 138.77 213.875 139.2 215.055 139.2C216.235 139.2 217.225 138.77 218.025 137.91C218.845 137.03 219.255 135.96 219.255 134.7C219.255 133.44 218.845 132.37 218.025 131.49ZM235.487 142.5H231.737V120H235.487V142.5ZM260.37 136.08H247.98C248.26 137.1 248.81 137.93 249.63 138.57C250.47 139.19 251.44 139.5 252.54 139.5C254.08 139.5 255.3 138.95 256.2 137.85L259.83 138.9C259.11 140.16 258.1 141.15 256.8 141.87C255.52 142.59 254.1 142.95 252.54 142.95C250.14 142.95 248.13 142.17 246.51 140.61C244.91 139.01 244.11 137.04 244.11 134.7C244.11 132.34 244.89 130.38 246.45 128.82C248.03 127.24 249.98 126.45 252.3 126.45C254.62 126.45 256.56 127.24 258.12 128.82C259.7 130.4 260.49 132.36 260.49 134.7C260.49 135.08 260.45 135.54 260.37 136.08ZM248.01 133.17H256.62C256.32 132.19 255.77 131.4 254.97 130.8C254.17 130.2 253.26 129.9 252.24 129.9C251.26 129.9 250.38 130.2 249.6 130.8C248.82 131.4 248.29 132.19 248.01 133.17Z" fill="#AB85FF"/>
<path d="M159.856 35.22H160.856V34.22H159.856V35.22ZM152.896 35.22H151.896V36.22H152.896V35.22ZM152.896 31.5V30.5H151.896V31.5H152.896ZM170.866 31.5H171.866V30.5H170.866V31.5ZM170.866 35.22V36.22H171.866V35.22H170.866ZM163.906 35.22V34.22H162.906V35.22H163.906ZM163.906 52.5V53.5H164.906V52.5H163.906ZM159.856 52.5H158.856V53.5H159.856V52.5ZM159.856 34.22H152.896V36.22H159.856V34.22ZM153.896 35.22V31.5H151.896V35.22H153.896ZM152.896 32.5H170.866V30.5H152.896V32.5ZM169.866 31.5V35.22H171.866V31.5H169.866ZM170.866 34.22H163.906V36.22H170.866V34.22ZM162.906 35.22V52.5H164.906V35.22H162.906ZM163.906 51.5H159.856V53.5H163.906V51.5ZM160.856 52.5V35.22H158.856V52.5H160.856ZM182.94 52.5V53.5H183.94V52.5H182.94ZM179.19 52.5H178.19V53.5H179.19V52.5ZM179.19 36.9V35.9H178.19V36.9H179.19ZM182.94 36.9H183.94V35.9H182.94V36.9ZM179.34 34.83L178.617 35.5212L178.625 35.5292L178.633 35.5371L179.34 34.83ZM179.34 31.44L178.633 30.7329H178.633L179.34 31.44ZM182.76 31.44L182.053 32.1471L182.061 32.155L182.069 32.1626L182.76 31.44ZM182.76 34.83L182.053 34.1229L182.045 34.1307L182.037 34.1388L182.76 34.83ZM182.94 51.5H179.19V53.5H182.94V51.5ZM180.19 52.5V36.9H178.19V52.5H180.19ZM179.19 37.9H182.94V35.9H179.19V37.9ZM181.94 36.9V52.5H183.94V36.9H181.94ZM181.05 34.52C180.622 34.52 180.31 34.3861 180.047 34.1229L178.633 35.5371C179.29 36.1939 180.118 36.52 181.05 36.52V34.52ZM180.062 34.1388C179.813 33.8784 179.68 33.5618 179.68 33.12H177.68C177.68 34.0382 177.986 34.8616 178.617 35.5212L180.062 34.1388ZM179.68 33.12C179.68 32.6781 179.813 32.3812 180.047 32.1471L178.633 30.7329C177.987 31.3788 177.68 32.2019 177.68 33.12H179.68ZM180.047 32.1471C180.31 31.8839 180.622 31.75 181.05 31.75V29.75C180.118 29.75 179.29 30.0761 178.633 30.7329L180.047 32.1471ZM181.05 31.75C181.478 31.75 181.79 31.8839 182.053 32.1471L183.467 30.7329C182.81 30.0761 181.982 29.75 181.05 29.75V31.75ZM182.069 32.1626C182.317 32.4001 182.45 32.6921 182.45 33.12H184.45C184.45 32.1879 184.123 31.3599 183.451 30.7174L182.069 32.1626ZM182.45 33.12C182.45 33.5482 182.316 33.8597 182.053 34.1229L183.467 35.5371C184.124 34.8803 184.45 34.0518 184.45 33.12H182.45ZM182.037 34.1388C181.806 34.3808 181.507 34.52 181.05 34.52V36.52C181.993 36.52 182.834 36.1992 183.482 35.5212L182.037 34.1388ZM195.883 52.5V53.5H196.883V52.5H195.883ZM192.133 52.5H191.133V53.5H192.133V52.5ZM192.133 36.9V35.9H191.133V36.9H192.133ZM195.883 36.9H196.883V35.9H195.883V36.9ZM195.883 38.55H194.883V41.4835L196.675 39.1608L195.883 38.55ZM205.183 39L204.344 39.5433L205.183 40.8408L206.023 39.5433L205.183 39ZM214.603 38.1L215.292 37.3747L215.291 37.3744L214.603 38.1ZM216.373 52.5V53.5H217.373V52.5H216.373ZM212.653 52.5H211.653V53.5H212.653V52.5ZM211.723 40.98L211.005 41.6758L211.01 41.6815L211.016 41.6871L211.723 40.98ZM207.073 40.98L206.366 40.2729H206.366L207.073 40.98ZM206.143 52.5V53.5H207.143V52.5H206.143ZM202.393 52.5H201.393V53.5H202.393V52.5ZM201.463 40.98L200.745 41.6758L200.75 41.6815L200.756 41.6871L201.463 40.98ZM196.813 40.98L197.52 41.6871L196.813 40.98ZM195.883 51.5H192.133V53.5H195.883V51.5ZM193.133 52.5V36.9H191.133V52.5H193.133ZM192.133 37.9H195.883V35.9H192.133V37.9ZM194.883 36.9V38.55H196.883V36.9H194.883ZM196.675 39.1608C197.557 38.0176 198.719 37.45 200.263 37.45V35.45C198.128 35.45 196.37 36.2824 195.091 37.9392L196.675 39.1608ZM200.263 37.45C202.135 37.45 203.444 38.1531 204.344 39.5433L206.023 38.4567C204.722 36.4469 202.751 35.45 200.263 35.45V37.45ZM206.023 39.5433C206.918 38.1592 208.244 37.45 210.163 37.45V35.45C207.643 35.45 205.648 36.4408 204.344 38.4567L206.023 39.5433ZM210.163 37.45C211.742 37.45 212.965 37.9244 213.915 38.8256L215.291 37.3744C213.922 36.0756 212.184 35.45 210.163 35.45V37.45ZM213.915 38.8253C214.894 39.7548 215.373 40.8718 215.373 42.24H217.373C217.373 40.3282 216.672 38.6852 215.292 37.3747L213.915 38.8253ZM215.373 42.24V52.5H217.373V42.24H215.373ZM216.373 51.5H212.653V53.5H216.373V51.5ZM213.653 52.5V43.32H211.653V52.5H213.653ZM213.653 43.32C213.653 42.1359 213.252 41.0949 212.43 40.2729L211.016 41.6871C211.434 42.1051 211.653 42.6241 211.653 43.32H213.653ZM212.441 40.2842C211.626 39.4428 210.594 39.02 209.413 39.02V41.02C210.072 41.02 210.58 41.2372 211.005 41.6758L212.441 40.2842ZM209.413 39.02C208.233 39.02 207.197 39.4419 206.366 40.2729L207.78 41.6871C208.229 41.2381 208.754 41.02 209.413 41.02V39.02ZM206.366 40.2729C205.544 41.0949 205.143 42.1359 205.143 43.32H207.143C207.143 42.6241 207.362 42.1051 207.78 41.6871L206.366 40.2729ZM205.143 43.32V52.5H207.143V43.32H205.143ZM206.143 51.5H202.393V53.5H206.143V51.5ZM203.393 52.5V43.32H201.393V52.5H203.393ZM203.393 43.32C203.393 42.1359 202.992 41.0949 202.17 40.2729L200.756 41.6871C201.174 42.1051 201.393 42.6241 201.393 43.32H203.393ZM202.181 40.2842C201.366 39.4428 200.334 39.02 199.153 39.02V41.02C199.812 41.02 200.32 41.2372 200.745 41.6758L202.181 40.2842ZM199.153 39.02C197.973 39.02 196.937 39.4419 196.106 40.2729L197.52 41.6871C197.969 41.2381 198.494 41.02 199.153 41.02V39.02ZM196.106 40.2729C195.284 41.0949 194.883 42.1359 194.883 43.32H196.883C196.883 42.6241 197.102 42.1051 197.52 41.6871L196.106 40.2729ZM194.883 43.32V52.5H196.883V43.32H194.883ZM241.245 46.08V47.08H242.108L242.234 46.2265L241.245 46.08ZM228.855 46.08V45.08H227.544L227.891 46.3447L228.855 46.08ZM230.505 48.57L229.89 49.3583L229.9 49.3666L229.911 49.3746L230.505 48.57ZM237.075 47.85L237.353 46.8894L236.719 46.706L236.301 47.2168L237.075 47.85ZM240.705 48.9L241.573 49.3961L242.204 48.2926L240.983 47.9394L240.705 48.9ZM237.675 51.87L237.191 50.9952L237.185 50.9984L237.675 51.87ZM227.385 50.61L226.678 51.3171L226.685 51.3238L226.691 51.3303L227.385 50.61ZM227.325 38.82L226.618 38.1129L227.325 38.82ZM238.995 38.82L238.283 39.5226L238.288 39.5271L238.995 38.82ZM228.885 43.17L227.924 42.8953L227.559 44.17H228.885V43.17ZM237.495 43.17V44.17H238.847L238.451 42.8773L237.495 43.17ZM235.845 40.8L236.445 40L235.845 40.8ZM241.245 45.08H228.855V47.08H241.245V45.08ZM227.891 46.3447C228.227 47.5685 228.897 48.5835 229.89 49.3583L231.12 47.7817C230.473 47.2765 230.043 46.6315 229.819 45.8153L227.891 46.3447ZM229.911 49.3746C230.933 50.1286 232.114 50.5 233.415 50.5V48.5C232.517 48.5 231.757 48.2514 231.099 47.7654L229.911 49.3746ZM233.415 50.5C235.226 50.5 236.742 49.8366 237.849 48.4832L236.301 47.2168C235.608 48.0634 234.684 48.5 233.415 48.5V50.5ZM236.797 48.8106L240.427 49.8606L240.983 47.9394L237.353 46.8894L236.797 48.8106ZM239.837 48.4039C239.21 49.5009 238.334 50.3617 237.191 50.9952L238.16 52.7448C239.616 51.9383 240.76 50.8191 241.573 49.3961L239.837 48.4039ZM237.185 50.9984C236.064 51.629 234.814 51.95 233.415 51.95V53.95C235.136 53.95 236.726 53.551 238.165 52.7416L237.185 50.9984ZM233.415 51.95C231.255 51.95 229.499 51.2574 228.079 49.8897L226.691 51.3303C228.511 53.0826 230.776 53.95 233.415 53.95V51.95ZM228.092 49.9029C226.687 48.4975 225.985 46.7849 225.985 44.7H223.985C223.985 47.2951 224.883 49.5225 226.678 51.3171L228.092 49.9029ZM225.985 44.7C225.985 42.5847 226.674 40.8856 228.032 39.5271L226.618 38.1129C224.856 39.8744 223.985 42.0953 223.985 44.7H225.985ZM228.032 39.5271C229.417 38.1425 231.109 37.45 233.175 37.45V35.45C230.601 35.45 228.393 36.3375 226.618 38.1129L228.032 39.5271ZM233.175 37.45C235.241 37.45 236.921 38.1422 238.283 39.5226L239.707 38.1174C237.95 36.3378 235.749 35.45 233.175 35.45V37.45ZM238.288 39.5271C239.671 40.9099 240.365 42.6113 240.365 44.7H242.365C242.365 42.1087 241.479 39.8901 239.702 38.1129L238.288 39.5271ZM240.365 44.7C240.365 45.0149 240.332 45.423 240.256 45.9335L242.234 46.2265C242.319 45.657 242.365 45.1451 242.365 44.7H240.365ZM228.885 44.17H237.495V42.17H228.885V44.17ZM238.451 42.8773C238.091 41.7001 237.419 40.7304 236.445 40L235.245 41.6C235.871 42.0695 236.299 42.6799 236.539 43.4627L238.451 42.8773ZM236.445 40C235.468 39.2674 234.347 38.9 233.115 38.9V40.9C233.923 40.9 234.622 41.1326 235.245 41.6L236.445 40ZM233.115 38.9C231.914 38.9 230.819 39.2735 229.865 40.0074L231.085 41.5926C231.691 41.1265 232.357 40.9 233.115 40.9V38.9ZM229.865 40.0074C228.909 40.7428 228.26 41.7173 227.924 42.8953L229.847 43.4447C230.07 42.6627 230.481 42.0572 231.085 41.5926L229.865 40.0074ZM162.856 97.5V98.5H163.59L163.81 97.7997L162.856 97.5ZM159.556 97.5L158.609 97.8207L158.839 98.5H159.556V97.5ZM152.446 76.5V75.5H151.052L151.499 76.8207L152.446 76.5ZM156.586 76.5L157.54 76.1992L157.319 75.5H156.586V76.5ZM161.176 91.05L160.222 91.3508L161.192 94.4242L162.132 91.3419L161.176 91.05ZM165.616 76.5V75.5H164.876L164.66 76.2081L165.616 76.5ZM168.916 76.5L169.872 76.2063L169.655 75.5H168.916V76.5ZM173.386 91.05L172.43 91.3437L173.377 94.4242L174.34 91.3491L173.386 91.05ZM177.946 76.5V75.5H177.211L176.992 76.2009L177.946 76.5ZM182.056 76.5L183.003 76.8207L183.45 75.5H182.056V76.5ZM174.946 97.5V98.5H175.663L175.893 97.8207L174.946 97.5ZM171.676 97.5L170.722 97.7997L170.942 98.5H171.676V97.5ZM167.266 83.46L168.22 83.1603L167.266 80.123L166.312 83.1603L167.266 83.46ZM162.856 96.5H159.556V98.5H162.856V96.5ZM160.503 97.1793L153.393 76.1793L151.499 76.8207L158.609 97.8207L160.503 97.1793ZM152.446 77.5H156.586V75.5H152.446V77.5ZM155.632 76.8008L160.222 91.3508L162.13 90.7492L157.54 76.1992L155.632 76.8008ZM162.132 91.3419L166.572 76.7919L164.66 76.2081L160.22 90.7581L162.132 91.3419ZM165.616 77.5H168.916V75.5H165.616V77.5ZM167.96 76.7937L172.43 91.3437L174.342 90.7563L169.872 76.2063L167.96 76.7937ZM174.34 91.3491L178.9 76.7991L176.992 76.2009L172.432 90.7509L174.34 91.3491ZM177.946 77.5H182.056V75.5H177.946V77.5ZM181.109 76.1793L173.999 97.1793L175.893 97.8207L183.003 76.8207L181.109 76.1793ZM174.946 96.5H171.676V98.5H174.946V96.5ZM172.63 97.2003L168.22 83.1603L166.312 83.7597L170.722 97.7997L172.63 97.2003ZM166.312 83.1603L161.902 97.2003L163.81 97.7997L168.22 83.7597L166.312 83.1603ZM199.241 83.13L198.616 83.9109L200.241 85.2106V83.13H199.241ZM199.241 81.9V80.9H198.241V81.9H199.241ZM202.961 81.9H203.961V80.9H202.961V81.9ZM202.961 97.5V98.5H203.961V97.5H202.961ZM199.241 97.5H198.241V98.5H199.241V97.5ZM199.241 96.27H200.241V94.1894L198.616 95.4891L199.241 96.27ZM189.071 95.61L188.332 96.2836L188.339 96.291L188.345 96.2983L189.071 95.61ZM189.071 83.82L188.336 83.1413L188.336 83.1417L189.071 83.82ZM197.951 86.49L197.219 87.1711L197.219 87.1717L197.951 86.49ZM191.981 92.91L192.713 92.2289L191.981 92.91ZM197.951 92.91L197.219 92.2283L197.219 92.2289L197.951 92.91ZM194.501 82.45C196.029 82.45 197.39 82.9298 198.616 83.9109L199.866 82.3491C198.292 81.0902 196.493 80.45 194.501 80.45V82.45ZM200.241 83.13V81.9H198.241V83.13H200.241ZM199.241 82.9H202.961V80.9H199.241V82.9ZM201.961 81.9V97.5H203.961V81.9H201.961ZM202.961 96.5H199.241V98.5H202.961V96.5ZM200.241 97.5V96.27H198.241V97.5H200.241ZM198.616 95.4891C197.39 96.4702 196.029 96.95 194.501 96.95V98.95C196.493 98.95 198.292 98.3098 199.866 97.0509L198.616 95.4891ZM194.501 96.95C192.637 96.95 191.089 96.2838 189.796 94.9217L188.345 96.2983C190.013 98.0562 192.085 98.95 194.501 98.95V96.95ZM189.81 94.9364C188.556 93.5603 187.911 91.8388 187.911 89.7H185.911C185.911 92.2812 186.706 94.4997 188.332 96.2836L189.81 94.9364ZM187.911 89.7C187.911 87.561 188.556 85.8524 189.806 84.4983L188.336 83.1417C186.706 84.9076 185.911 87.119 185.911 89.7H187.911ZM189.805 84.4987C191.075 83.1245 192.618 82.45 194.501 82.45V80.45C192.063 80.45 189.987 81.3555 188.336 83.1413L189.805 84.4987ZM198.683 85.8089C197.693 84.7445 196.437 84.2 194.981 84.2V86.2C195.885 86.2 196.609 86.5155 197.219 87.1711L198.683 85.8089ZM194.981 84.2C193.51 84.2 192.242 84.7406 191.249 85.8089L192.713 87.1711C193.319 86.5194 194.052 86.2 194.981 86.2V84.2ZM191.249 85.8089C190.26 86.8713 189.781 88.192 189.781 89.7H191.781C191.781 88.648 192.101 87.8287 192.713 87.1711L191.249 85.8089ZM189.781 89.7C189.781 91.208 190.26 92.5287 191.249 93.5911L192.713 92.2289C192.101 91.5713 191.781 90.752 191.781 89.7H189.781ZM191.249 93.5911C192.242 94.6594 193.51 95.2 194.981 95.2V93.2C194.052 93.2 193.319 92.8806 192.713 92.2289L191.249 93.5911ZM194.981 95.2C196.437 95.2 197.693 94.6555 198.683 93.5911L197.219 92.2289C196.609 92.8845 195.885 93.2 194.981 93.2V95.2ZM198.682 93.5917C199.684 92.5172 200.181 91.1998 200.181 89.7H198.181C198.181 90.7202 197.858 91.5428 197.219 92.2283L198.682 93.5917ZM200.181 89.7C200.181 88.2002 199.684 86.8829 198.682 85.8083L197.219 87.1717C197.858 87.8571 198.181 88.6798 198.181 89.7H200.181ZM215.893 81.9H216.893V80.9H215.893V81.9ZM215.893 83.82H214.893V87.055L216.719 84.3843L215.893 83.82ZM221.023 81.45H222.023V80.45H221.023V81.45ZM221.023 85.62L220.62 86.5353L222.023 87.1525V85.62H221.023ZM216.913 86.34L217.62 87.0471L217.625 87.042L217.63 87.0368L216.913 86.34ZM215.893 97.5V98.5H216.893V97.5H215.893ZM212.143 97.5H211.143V98.5H212.143V97.5ZM212.143 81.9V80.9H211.143V81.9H212.143ZM214.893 81.9V83.82H216.893V81.9H214.893ZM216.719 84.3843C217.57 83.1394 218.93 82.45 221.023 82.45V80.45C218.436 80.45 216.376 81.3406 215.067 83.2557L216.719 84.3843ZM220.023 81.45V85.62H222.023V81.45H220.023ZM221.426 84.7047C220.805 84.4317 220.159 84.29 219.493 84.29V86.29C219.867 86.29 220.241 86.3683 220.62 86.5353L221.426 84.7047ZM219.493 84.29C218.202 84.29 217.077 84.7356 216.196 85.6432L217.63 87.0368C218.109 86.5444 218.703 86.29 219.493 86.29V84.29ZM216.206 85.6329C215.322 86.5166 214.893 87.6386 214.893 88.92H216.893C216.893 88.1214 217.144 87.5234 217.62 87.0471L216.206 85.6329ZM214.893 88.92V97.5H216.893V88.92H214.893ZM215.893 96.5H212.143V98.5H215.893V96.5ZM213.143 97.5V81.9H211.143V97.5H213.143ZM212.143 82.9H215.893V80.9H212.143V82.9ZM232.821 97.5V98.5H233.821V97.5H232.821ZM229.071 97.5H228.071V98.5H229.071V97.5ZM229.071 81.9V80.9H228.071V81.9H229.071ZM232.821 81.9H233.821V80.9H232.821V81.9ZM232.821 83.55H231.821V86.4835L233.612 84.1608L232.821 83.55ZM242.121 84L241.281 84.5433L242.121 85.8408L242.96 84.5433L242.121 84ZM251.541 83.1L252.229 82.3747L252.229 82.3744L251.541 83.1ZM253.311 97.5V98.5H254.311V97.5H253.311ZM249.591 97.5H248.591V98.5H249.591V97.5ZM248.661 85.98L247.942 86.6758L247.948 86.6815L247.954 86.6871L248.661 85.98ZM244.011 85.98L243.304 85.2729L244.011 85.98ZM243.081 97.5V98.5H244.081V97.5H243.081ZM239.331 97.5H238.331V98.5H239.331V97.5ZM238.401 85.98L237.682 86.6758L237.688 86.6815L237.694 86.6871L238.401 85.98ZM233.751 85.98L234.458 86.6871L233.751 85.98ZM232.821 96.5H229.071V98.5H232.821V96.5ZM230.071 97.5V81.9H228.071V97.5H230.071ZM229.071 82.9H232.821V80.9H229.071V82.9ZM231.821 81.9V83.55H233.821V81.9H231.821ZM233.612 84.1608C234.494 83.0176 235.656 82.45 237.201 82.45V80.45C235.065 80.45 233.307 81.2824 232.029 82.9392L233.612 84.1608ZM237.201 82.45C239.073 82.45 240.382 83.1531 241.281 84.5433L242.96 83.4567C241.66 81.4469 239.689 80.45 237.201 80.45V82.45ZM242.96 84.5433C243.856 83.1592 245.181 82.45 247.101 82.45V80.45C244.58 80.45 242.586 81.4408 241.281 83.4567L242.96 84.5433ZM247.101 82.45C248.68 82.45 249.902 82.9244 250.853 83.8256L252.229 82.3744C250.859 81.0756 249.122 80.45 247.101 80.45V82.45ZM250.852 83.8253C251.832 84.7548 252.311 85.8718 252.311 87.24H254.311C254.311 85.3282 253.61 83.6852 252.229 82.3747L250.852 83.8253ZM252.311 87.24V97.5H254.311V87.24H252.311ZM253.311 96.5H249.591V98.5H253.311V96.5ZM250.591 97.5V88.32H248.591V97.5H250.591ZM250.591 88.32C250.591 87.1359 250.19 86.0949 249.368 85.2729L247.954 86.6871C248.372 87.1051 248.591 87.6241 248.591 88.32H250.591ZM249.379 85.2842C248.564 84.4428 247.532 84.02 246.351 84.02V86.02C247.01 86.02 247.518 86.2372 247.942 86.6758L249.379 85.2842ZM246.351 84.02C245.17 84.02 244.135 84.4419 243.304 85.2729L244.718 86.6871C245.167 86.2381 245.691 86.02 246.351 86.02V84.02ZM243.304 85.2729C242.482 86.0949 242.081 87.1359 242.081 88.32H244.081C244.081 87.6241 244.3 87.1051 244.718 86.6871L243.304 85.2729ZM242.081 88.32V97.5H244.081V88.32H242.081ZM243.081 96.5H239.331V98.5H243.081V96.5ZM240.331 97.5V88.32H238.331V97.5H240.331ZM240.331 88.32C240.331 87.1359 239.93 86.0949 239.108 85.2729L237.694 86.6871C238.112 87.1051 238.331 87.6241 238.331 88.32H240.331ZM239.119 85.2842C238.304 84.4428 237.272 84.02 236.091 84.02V86.02C236.75 86.02 237.258 86.2372 237.682 86.6758L239.119 85.2842ZM236.091 84.02C234.91 84.02 233.875 84.4419 233.044 85.2729L234.458 86.6871C234.907 86.2381 235.431 86.02 236.091 86.02V84.02ZM233.044 85.2729C232.222 86.0949 231.821 87.1359 231.821 88.32H233.821C233.821 87.6241 234.04 87.1051 234.458 86.6871L233.044 85.2729ZM231.821 88.32V97.5H233.821V88.32H231.821ZM278.183 91.08V92.08H279.045L279.172 91.2265L278.183 91.08ZM265.793 91.08V90.08H264.481L264.828 91.3447L265.793 91.08ZM267.443 93.57L266.827 94.3583L266.838 94.3666L266.849 94.3746L267.443 93.57ZM274.013 92.85L274.29 91.8894L273.657 91.706L273.239 92.2168L274.013 92.85ZM277.643 93.9L278.511 94.3961L279.141 93.2926L277.92 92.9394L277.643 93.9ZM274.613 96.87L274.128 95.9952L274.122 95.9984L274.613 96.87ZM264.323 95.61L263.615 96.3171L263.622 96.3238L263.629 96.3303L264.323 95.61ZM264.263 83.82L263.555 83.1129L264.263 83.82ZM275.933 83.82L275.221 84.5226L275.225 84.5271L275.933 83.82ZM265.823 88.17L264.861 87.8953L264.497 89.17H265.823V88.17ZM274.433 88.17V89.17H275.785L275.389 87.8773L274.433 88.17ZM272.783 85.8L273.383 85L272.783 85.8ZM278.183 90.08H265.793V92.08H278.183V90.08ZM264.828 91.3447C265.164 92.5685 265.835 93.5835 266.827 94.3583L268.058 92.7817C267.411 92.2765 266.981 91.6315 266.757 90.8153L264.828 91.3447ZM266.849 94.3746C267.87 95.1286 269.051 95.5 270.353 95.5V93.5C269.454 93.5 268.695 93.2514 268.036 92.7654L266.849 94.3746ZM270.353 95.5C272.164 95.5 273.679 94.8366 274.787 93.4832L273.239 92.2168C272.546 93.0634 271.621 93.5 270.353 93.5V95.5ZM273.735 93.8106L277.365 94.8606L277.92 92.9394L274.29 91.8894L273.735 93.8106ZM276.774 93.4039C276.147 94.5009 275.272 95.3617 274.128 95.9952L275.097 97.7448C276.553 96.9383 277.698 95.8191 278.511 94.3961L276.774 93.4039ZM274.122 95.9984C273.001 96.629 271.752 96.95 270.353 96.95V98.95C272.073 98.95 273.664 98.551 275.103 97.7416L274.122 95.9984ZM270.353 96.95C268.192 96.95 266.437 96.2574 265.016 94.8897L263.629 96.3303C265.449 98.0826 267.713 98.95 270.353 98.95V96.95ZM265.03 94.9029C263.624 93.4975 262.923 91.7849 262.923 89.7H260.923C260.923 92.2951 261.821 94.5225 263.615 96.3171L265.03 94.9029ZM262.923 89.7C262.923 87.5847 263.611 85.8856 264.97 84.5271L263.555 83.1129C261.794 84.8744 260.923 87.0953 260.923 89.7H262.923ZM264.97 84.5271C266.354 83.1425 268.046 82.45 270.113 82.45V80.45C267.539 80.45 265.331 81.3375 263.555 83.1129L264.97 84.5271ZM270.113 82.45C272.179 82.45 273.858 83.1422 275.221 84.5226L276.644 83.1174C274.887 81.3378 272.687 80.45 270.113 80.45V82.45ZM275.225 84.5271C276.608 85.9099 277.303 87.6113 277.303 89.7H279.303C279.303 87.1087 278.417 84.8901 276.64 83.1129L275.225 84.5271ZM277.303 89.7C277.303 90.0149 277.269 90.423 277.193 90.9334L279.172 91.2265C279.256 90.6571 279.303 90.1451 279.303 89.7H277.303ZM265.823 89.17H274.433V87.17H265.823V89.17ZM275.389 87.8773C275.028 86.7001 274.357 85.7304 273.383 85L272.183 86.6C272.809 87.0695 273.237 87.6799 273.476 88.4627L275.389 87.8773ZM273.383 85C272.406 84.2674 271.284 83.9 270.053 83.9V85.9C270.861 85.9 271.559 86.1326 272.183 86.6L273.383 85ZM270.053 83.9C268.851 83.9 267.757 84.2735 266.803 85.0074L268.022 86.5926C268.628 86.1265 269.294 85.9 270.053 85.9V83.9ZM266.803 85.0074C265.847 85.7428 265.198 86.7173 264.861 87.8953L266.784 88.4447C267.008 87.6627 267.418 87.0572 268.022 86.5926L266.803 85.0074ZM290.348 81.9H291.348V80.9H290.348V81.9ZM290.348 83.82H289.348V87.055L291.174 84.3843L290.348 83.82ZM295.478 81.45H296.478V80.45H295.478V81.45ZM295.478 85.62L295.075 86.5353L296.478 87.1525V85.62H295.478ZM291.368 86.34L292.075 87.0471L292.08 87.042L292.085 87.0368L291.368 86.34ZM290.348 97.5V98.5H291.348V97.5H290.348ZM286.598 97.5H285.598V98.5H286.598V97.5ZM286.598 81.9V80.9H285.598V81.9H286.598ZM289.348 81.9V83.82H291.348V81.9H289.348ZM291.174 84.3843C292.025 83.1394 293.385 82.45 295.478 82.45V80.45C292.891 80.45 290.832 81.3406 289.522 83.2557L291.174 84.3843ZM294.478 81.45V85.62H296.478V81.45H294.478ZM295.881 84.7047C295.26 84.4317 294.614 84.29 293.948 84.29V86.29C294.322 86.29 294.696 86.3683 295.075 86.5353L295.881 84.7047ZM293.948 84.29C292.658 84.29 291.532 84.7356 290.651 85.6432L292.085 87.0368C292.564 86.5444 293.159 86.29 293.948 86.29V84.29ZM290.661 85.6329C289.777 86.5166 289.348 87.6386 289.348 88.92H291.348C291.348 88.1214 291.599 87.5234 292.075 87.0471L290.661 85.6329ZM289.348 88.92V97.5H291.348V88.92H289.348ZM290.348 96.5H286.598V98.5H290.348V96.5ZM287.598 97.5V81.9H285.598V97.5H287.598ZM286.598 82.9H290.348V80.9H286.598V82.9ZM170.176 122.67L169.649 123.52L169.656 123.524L170.176 122.67ZM174.106 126.96L174.459 127.896L175.487 127.508L175.004 126.521L174.106 126.96ZM170.206 128.43L169.325 128.903L169.739 129.675L170.559 129.366L170.206 128.43ZM167.746 125.88L167.222 126.732L167.231 126.738L167.241 126.743L167.746 125.88ZM159.466 126.96L158.743 126.269L158.743 126.269L159.466 126.96ZM159.466 137.04L160.189 136.349L159.466 137.04ZM167.746 138.12L167.241 137.257L167.234 137.261L167.746 138.12ZM170.206 135.57L170.559 134.634L169.739 134.325L169.325 135.097L170.206 135.57ZM174.106 137.04L175.008 137.471L175.478 136.488L174.459 136.104L174.106 137.04ZM170.176 141.36L170.692 142.217L170.699 142.212L170.176 141.36ZM156.466 139.83L155.752 140.53L155.759 140.537L155.766 140.544L156.466 139.83ZM156.466 124.2L157.173 124.907L156.466 124.2ZM164.296 122.05C166.302 122.05 168.077 122.544 169.649 123.52L170.703 121.82C168.795 120.636 166.65 120.05 164.296 120.05V122.05ZM169.656 123.524C171.236 124.486 172.413 125.774 173.208 127.399L175.004 126.521C174.039 124.546 172.596 122.974 170.696 121.816L169.656 123.524ZM173.753 126.024L169.853 127.494L170.559 129.366L174.459 127.896L173.753 126.024ZM171.087 127.957C170.42 126.714 169.469 125.73 168.251 125.017L167.241 126.743C168.143 127.27 168.832 127.986 169.325 128.903L171.087 127.957ZM168.27 125.028C167.067 124.288 165.735 123.92 164.296 123.92V125.92C165.377 125.92 166.345 126.192 167.222 126.732L168.27 125.028ZM164.296 123.92C162.109 123.92 160.236 124.707 158.743 126.269L160.189 127.651C161.296 126.493 162.643 125.92 164.296 125.92V123.92ZM158.743 126.269C157.268 127.813 156.546 129.748 156.546 132H158.546C158.546 130.212 159.104 128.787 160.189 127.651L158.743 126.269ZM156.546 132C156.546 134.252 157.268 136.187 158.743 137.731L160.189 136.349C159.104 135.213 158.546 133.788 158.546 132H156.546ZM158.743 137.731C160.221 139.278 162.097 140.05 164.296 140.05V138.05C162.615 138.05 161.271 137.482 160.189 136.349L158.743 137.731ZM164.296 140.05C165.729 140.05 167.057 139.695 168.258 138.979L167.234 137.261C166.355 137.785 165.383 138.05 164.296 138.05V140.05ZM168.251 138.983C169.469 138.27 170.42 137.286 171.087 136.043L169.325 135.097C168.832 136.014 168.143 136.73 167.241 137.257L168.251 138.983ZM169.853 136.506L173.753 137.976L174.459 136.104L170.559 134.634L169.853 136.506ZM173.204 136.609C172.43 138.229 171.255 139.525 169.653 140.508L170.699 142.212C172.617 141.035 174.062 139.451 175.008 137.471L173.204 136.609ZM169.66 140.503C168.064 141.465 166.284 141.95 164.296 141.95V143.95C166.628 143.95 168.768 143.375 170.692 142.217L169.66 140.503ZM164.296 141.95C161.445 141.95 159.091 141.004 157.166 139.116L155.766 140.544C158.082 142.816 160.947 143.95 164.296 143.95V141.95ZM157.18 139.13C155.292 137.206 154.346 134.851 154.346 132H152.346C152.346 135.349 153.48 138.214 155.752 140.53L157.18 139.13ZM154.346 132C154.346 129.127 155.293 126.787 157.173 124.907L155.759 123.493C153.479 125.773 152.346 128.633 152.346 132H154.346ZM157.173 124.907C159.075 123.005 161.426 122.05 164.296 122.05V120.05C160.926 120.05 158.057 121.195 155.759 123.493L157.173 124.907ZM194.173 128.13L193.548 128.911L195.173 130.211V128.13H194.173ZM194.173 126.9V125.9H193.173V126.9H194.173ZM197.893 126.9H198.893V125.9H197.893V126.9ZM197.893 142.5V143.5H198.893V142.5H197.893ZM194.173 142.5H193.173V143.5H194.173V142.5ZM194.173 141.27H195.173V139.189L193.548 140.489L194.173 141.27ZM184.003 140.61L183.263 141.284L183.27 141.291L183.277 141.298L184.003 140.61ZM184.003 128.82L183.268 128.141L183.268 128.142L184.003 128.82ZM192.883 131.49L192.15 132.171L192.151 132.172L192.883 131.49ZM186.913 137.91L187.645 137.229L186.913 137.91ZM192.883 137.91L192.151 137.228L192.15 137.229L192.883 137.91ZM189.433 127.45C190.961 127.45 192.322 127.93 193.548 128.911L194.797 127.349C193.223 126.09 191.424 125.45 189.433 125.45V127.45ZM195.173 128.13V126.9H193.173V128.13H195.173ZM194.173 127.9H197.893V125.9H194.173V127.9ZM196.893 126.9V142.5H198.893V126.9H196.893ZM197.893 141.5H194.173V143.5H197.893V141.5ZM195.173 142.5V141.27H193.173V142.5H195.173ZM193.548 140.489C192.322 141.47 190.961 141.95 189.433 141.95V143.95C191.424 143.95 193.223 143.31 194.797 142.051L193.548 140.489ZM189.433 141.95C187.568 141.95 186.02 141.284 184.728 139.922L183.277 141.298C184.945 143.056 187.017 143.95 189.433 143.95V141.95ZM184.742 139.936C183.487 138.56 182.843 136.839 182.843 134.7H180.843C180.843 137.281 181.638 139.5 183.263 141.284L184.742 139.936ZM182.843 134.7C182.843 132.561 183.487 130.852 184.737 129.498L183.268 128.142C181.638 129.908 180.843 132.119 180.843 134.7H182.843ZM184.737 129.499C186.007 128.124 187.55 127.45 189.433 127.45V125.45C186.995 125.45 184.918 126.356 183.268 128.141L184.737 129.499ZM193.615 130.809C192.625 129.744 191.369 129.2 189.913 129.2V131.2C190.816 131.2 191.541 131.516 192.15 132.171L193.615 130.809ZM189.913 129.2C188.442 129.2 187.174 129.741 186.18 130.809L187.645 132.171C188.251 131.519 188.983 131.2 189.913 131.2V129.2ZM186.18 130.809C185.192 131.871 184.713 133.192 184.713 134.7H186.713C186.713 133.648 187.033 132.829 187.645 132.171L186.18 130.809ZM184.713 134.7C184.713 136.208 185.192 137.529 186.18 138.591L187.645 137.229C187.033 136.571 186.713 135.752 186.713 134.7H184.713ZM186.18 138.591C187.174 139.659 188.442 140.2 189.913 140.2V138.2C188.983 138.2 188.251 137.881 187.645 137.229L186.18 138.591ZM189.913 140.2C191.369 140.2 192.625 139.656 193.615 138.591L192.15 137.229C191.541 137.884 190.816 138.2 189.913 138.2V140.2ZM193.614 138.592C194.615 137.517 195.113 136.2 195.113 134.7H193.113C193.113 135.72 192.79 136.543 192.151 137.228L193.614 138.592ZM195.113 134.7C195.113 133.2 194.615 131.883 193.614 130.808L192.151 132.172C192.79 132.857 193.113 133.68 193.113 134.7H195.113ZM207.075 142.5H206.075V143.5H207.075V142.5ZM207.075 120V119H206.075V120H207.075ZM210.825 120H211.825V119H210.825V120ZM210.825 128.13H209.825V130.211L211.449 128.911L210.825 128.13ZM220.965 128.82L220.23 129.499L220.239 129.508L220.965 128.82ZM220.965 140.61L221.69 141.298L221.699 141.289L220.965 140.61ZM210.825 141.27L211.449 140.489L209.825 139.189V141.27H210.825ZM210.825 142.5V143.5H211.825V142.5H210.825ZM218.025 131.49L217.292 132.171L217.293 132.172L218.025 131.49ZM212.085 137.91L212.817 137.229L212.085 137.91ZM218.025 137.91L217.293 137.228L217.292 137.229L218.025 137.91ZM208.075 142.5V120H206.075V142.5H208.075ZM207.075 121H210.825V119H207.075V121ZM209.825 120V128.13H211.825V120H209.825ZM211.449 128.911C212.678 127.928 214.029 127.45 215.535 127.45V125.45C213.56 125.45 211.771 126.092 210.2 127.349L211.449 128.911ZM215.535 127.45C217.417 127.45 218.96 128.124 220.23 129.499L221.699 128.141C220.049 126.356 217.972 125.45 215.535 125.45V127.45ZM220.239 129.508C221.501 130.839 222.155 132.542 222.155 134.7H224.155C224.155 132.098 223.348 129.881 221.69 128.132L220.239 129.508ZM222.155 134.7C222.155 136.835 221.502 138.555 220.23 139.931L221.699 141.289C223.347 139.505 224.155 137.285 224.155 134.7H222.155ZM220.239 139.922C218.947 141.284 217.399 141.95 215.535 141.95V143.95C217.95 143.95 220.022 143.056 221.69 141.298L220.239 139.922ZM215.535 141.95C214.029 141.95 212.678 141.472 211.449 140.489L210.2 142.051C211.771 143.308 213.56 143.95 215.535 143.95V141.95ZM209.825 141.27V142.5H211.825V141.27H209.825ZM210.825 141.5H207.075V143.5H210.825V141.5ZM218.757 130.809C217.767 129.744 216.511 129.2 215.055 129.2V131.2C215.958 131.2 216.683 131.516 217.292 132.171L218.757 130.809ZM215.055 129.2C213.598 129.2 212.343 129.744 211.352 130.809L212.817 132.171C213.427 131.516 214.151 131.2 215.055 131.2V129.2ZM211.352 130.809C210.364 131.871 209.885 133.192 209.885 134.7H211.885C211.885 133.648 212.205 132.829 212.817 132.171L211.352 130.809ZM209.885 134.7C209.885 136.208 210.364 137.529 211.352 138.591L212.817 137.229C212.205 136.571 211.885 135.752 211.885 134.7H209.885ZM211.352 138.591C212.343 139.656 213.598 140.2 215.055 140.2V138.2C214.151 138.2 213.427 137.884 212.817 137.229L211.352 138.591ZM215.055 140.2C216.511 140.2 217.767 139.656 218.757 138.591L217.292 137.229C216.683 137.884 215.958 138.2 215.055 138.2V140.2ZM218.756 138.592C219.758 137.517 220.255 136.2 220.255 134.7H218.255C218.255 135.72 217.932 136.543 217.293 137.228L218.756 138.592ZM220.255 134.7C220.255 133.2 219.758 131.883 218.756 130.808L217.293 132.172C217.932 132.857 218.255 133.68 218.255 134.7H220.255ZM235.487 142.5V143.5H236.487V142.5H235.487ZM231.737 142.5H230.737V143.5H231.737V142.5ZM231.737 120V119H230.737V120H231.737ZM235.487 120H236.487V119H235.487V120ZM235.487 141.5H231.737V143.5H235.487V141.5ZM232.737 142.5V120H230.737V142.5H232.737ZM231.737 121H235.487V119H231.737V121ZM234.487 120V142.5H236.487V120H234.487ZM260.37 136.08V137.08H261.233L261.359 136.227L260.37 136.08ZM247.98 136.08V135.08H246.669L247.016 136.345L247.98 136.08ZM249.63 138.57L249.015 139.358L249.025 139.367L249.036 139.375L249.63 138.57ZM256.2 137.85L256.478 136.889L255.844 136.706L255.426 137.217L256.2 137.85ZM259.83 138.9L260.698 139.396L261.329 138.293L260.108 137.939L259.83 138.9ZM256.8 141.87L256.316 140.995L256.31 140.998L256.8 141.87ZM246.51 140.61L245.803 141.317L245.81 141.324L245.816 141.33L246.51 140.61ZM246.45 128.82L245.743 128.113L246.45 128.82ZM258.12 128.82L257.408 129.523L257.413 129.527L258.12 128.82ZM248.01 133.17L247.049 132.895L246.684 134.17H248.01V133.17ZM256.62 133.17V134.17H257.972L257.576 132.877L256.62 133.17ZM254.97 130.8L255.57 130L254.97 130.8ZM260.37 135.08H247.98V137.08H260.37V135.08ZM247.016 136.345C247.352 137.568 248.022 138.584 249.015 139.358L250.245 137.782C249.598 137.276 249.168 136.632 248.944 135.815L247.016 136.345ZM249.036 139.375C250.058 140.129 251.239 140.5 252.54 140.5V138.5C251.642 138.5 250.882 138.251 250.224 137.765L249.036 139.375ZM252.54 140.5C254.351 140.5 255.867 139.837 256.974 138.483L255.426 137.217C254.733 138.063 253.809 138.5 252.54 138.5V140.5ZM255.922 138.811L259.552 139.861L260.108 137.939L256.478 136.889L255.922 138.811ZM258.962 138.404C258.335 139.501 257.459 140.362 256.316 140.995L257.285 142.745C258.741 141.938 259.885 140.819 260.698 139.396L258.962 138.404ZM256.31 140.998C255.189 141.629 253.939 141.95 252.54 141.95V143.95C254.261 143.95 255.851 143.551 257.29 142.742L256.31 140.998ZM252.54 141.95C250.38 141.95 248.624 141.257 247.204 139.89L245.816 141.33C247.636 143.083 249.901 143.95 252.54 143.95V141.95ZM247.217 139.903C245.812 138.497 245.11 136.785 245.11 134.7H243.11C243.11 137.295 244.008 139.523 245.803 141.317L247.217 139.903ZM245.11 134.7C245.11 132.585 245.799 130.886 247.157 129.527L245.743 128.113C243.981 129.874 243.11 132.095 243.11 134.7H245.11ZM247.157 129.527C248.542 128.143 250.234 127.45 252.3 127.45V125.45C249.726 125.45 247.518 126.337 245.743 128.113L247.157 129.527ZM252.3 127.45C254.366 127.45 256.046 128.142 257.408 129.523L258.832 128.117C257.075 126.338 254.874 125.45 252.3 125.45V127.45ZM257.413 129.527C258.796 130.91 259.49 132.611 259.49 134.7H261.49C261.49 132.109 260.604 129.89 258.827 128.113L257.413 129.527ZM259.49 134.7C259.49 135.015 259.457 135.423 259.381 135.933L261.359 136.227C261.444 135.657 261.49 135.145 261.49 134.7H259.49ZM248.01 134.17H256.62V132.17H248.01V134.17ZM257.576 132.877C257.216 131.7 256.544 130.73 255.57 130L254.37 131.6C254.996 132.07 255.424 132.68 255.664 133.463L257.576 132.877ZM255.57 130C254.593 129.267 253.472 128.9 252.24 128.9V130.9C253.048 130.9 253.747 131.133 254.37 131.6L255.57 130ZM252.24 128.9C251.039 128.9 249.944 129.274 248.99 130.007L250.21 131.593C250.816 131.126 251.482 130.9 252.24 130.9V128.9ZM248.99 130.007C248.034 130.743 247.385 131.717 247.049 132.895L248.972 133.445C249.195 132.663 249.606 132.057 250.21 131.593L248.99 130.007Z" fill="black"/>
<path d="M87 106.5L41 106.5M41 106.5L42.2603 107.5M41 106.5L42.2603 105.5" stroke="black"/>
<path d="M87 58.5L54 58.5M54 58.5L54.9041 59.5M54 58.5L54.9041 57.5" stroke="black"/>
</svg>
