<svg width="341" height="180" viewBox="0 0 341 180" fill="none" xmlns="http://www.w3.org/2000/svg">
<rect width="341" height="180" fill="#F5F5F5"/>
<path d="M226.586 128.173L281.082 156.757V74.9688L226.586 48.3664L226.586 128.173Z" fill="#AB85FF"/>
<mask id="mask0" mask-type="alpha" maskUnits="userSpaceOnUse" x="226" y="48" width="56" height="109">
<path d="M226.586 128.173L281.082 156.757V74.9688L226.586 48.3664L226.586 128.173Z" fill="#AB85FF"/>
</mask>
<g mask="url(#mask0)">
<path d="M228.533 -18.4736C193.546 33.7063 193.546 70.9777 228.533 93.3406C263.52 115.703 263.52 152.975 228.533 205.155" stroke="#31D67B"/>
<path d="M295.535 -11.9374C242.907 28.0644 229.011 63.4043 253.848 94.0823C278.684 124.76 264.788 160.1 212.16 200.102" stroke="#31D67B"/>
<path d="M272.403 -16.2678C242.335 38.0936 245.771 75.2498 282.712 95.2007C319.652 115.152 323.088 152.308 293.02 206.669" stroke="#31D67B"/>
</g>
<path d="M128.547 131.419H125.277L116.427 110.419H120.657L126.927 125.659L133.167 110.419H137.397L128.547 131.419ZM149.421 131.419H145.401V110.419H149.421L156.951 123.679L164.451 110.419H168.471V131.419H164.451V118.039L158.271 129.049H155.601L149.421 118.069V131.419ZM184.934 131.419H181.574L176.474 115.819H180.254L183.224 125.629L186.194 115.819H189.584L192.554 125.629L195.524 115.819H199.274L194.204 131.419H190.844L187.904 122.029L184.934 131.419ZM213.548 115.369C215.308 115.369 216.888 115.929 218.288 117.049V115.819H222.008V131.419H218.288V130.189C216.888 131.309 215.308 131.869 213.548 131.869C211.408 131.869 209.598 131.089 208.118 129.529C206.678 127.949 205.958 125.979 205.958 123.619C205.958 121.259 206.678 119.299 208.118 117.739C209.578 116.159 211.388 115.369 213.548 115.369ZM216.998 120.409C216.198 119.549 215.208 119.119 214.028 119.119C212.828 119.119 211.828 119.549 211.028 120.409C210.228 121.269 209.828 122.339 209.828 123.619C209.828 124.899 210.228 125.969 211.028 126.829C211.828 127.689 212.828 128.119 214.028 128.119C215.208 128.119 216.198 127.689 216.998 126.829C217.818 125.949 218.228 124.879 218.228 123.619C218.228 122.359 217.818 121.289 216.998 120.409ZM234.94 115.819V117.739C236.02 116.159 237.73 115.369 240.07 115.369V119.539C239.57 119.319 239.06 119.209 238.54 119.209C237.5 119.209 236.64 119.559 235.96 120.259C235.28 120.939 234.94 121.799 234.94 122.839V131.419H231.19V115.819H234.94ZM263.251 124.999H250.861C251.141 126.019 251.691 126.849 252.511 127.489C253.351 128.109 254.321 128.419 255.421 128.419C256.961 128.419 258.181 127.869 259.081 126.769L262.711 127.819C261.991 129.079 260.981 130.069 259.681 130.789C258.401 131.509 256.981 131.869 255.421 131.869C253.021 131.869 251.011 131.089 249.391 129.529C247.791 127.929 246.991 125.959 246.991 123.619C246.991 121.259 247.771 119.299 249.331 117.739C250.911 116.159 252.861 115.369 255.181 115.369C257.501 115.369 259.441 116.159 261.001 117.739C262.581 119.319 263.371 121.279 263.371 123.619C263.371 123.999 263.331 124.459 263.251 124.999ZM250.891 122.089H259.501C259.201 121.109 258.651 120.319 257.851 119.719C257.051 119.119 256.141 118.819 255.121 118.819C254.141 118.819 253.261 119.119 252.481 119.719C251.701 120.319 251.171 121.109 250.891 122.089Z" fill="#AB85FF"/>
<path d="M128.547 131.419V132.419H129.211L129.468 131.808L128.547 131.419ZM125.277 131.419L124.355 131.808L124.613 132.419H125.277V131.419ZM116.427 110.419V109.419H114.92L115.505 110.808L116.427 110.419ZM120.657 110.419L121.582 110.039L121.327 109.419H120.657V110.419ZM126.927 125.659L126.002 126.04L126.929 128.293L127.852 126.038L126.927 125.659ZM133.167 110.419V109.419H132.496L132.242 110.041L133.167 110.419ZM137.397 110.419L138.318 110.808L138.904 109.419H137.397V110.419ZM128.547 130.419H125.277V132.419H128.547V130.419ZM126.198 131.031L117.348 110.031L115.505 110.808L124.355 131.808L126.198 131.031ZM116.427 111.419H120.657V109.419H116.427V111.419ZM119.732 110.8L126.002 126.04L127.852 125.279L121.582 110.039L119.732 110.8ZM127.852 126.038L134.092 110.798L132.242 110.041L126.002 125.281L127.852 126.038ZM133.167 111.419H137.397V109.419H133.167V111.419ZM136.475 110.031L127.625 131.031L129.468 131.808L138.318 110.808L136.475 110.031ZM149.421 131.419V132.419H150.421V131.419H149.421ZM145.401 131.419H144.401V132.419H145.401V131.419ZM145.401 110.419V109.419H144.401V110.419H145.401ZM149.421 110.419L150.29 109.926L150.003 109.419H149.421V110.419ZM156.951 123.679L156.081 124.173L156.953 125.708L157.821 124.172L156.951 123.679ZM164.451 110.419V109.419H163.868L163.58 109.927L164.451 110.419ZM168.471 110.419H169.471V109.419H168.471V110.419ZM168.471 131.419V132.419H169.471V131.419H168.471ZM164.451 131.419H163.451V132.419H164.451V131.419ZM164.451 118.039H165.451V114.215L163.579 117.55L164.451 118.039ZM158.271 129.049V130.049H158.856L159.143 129.539L158.271 129.049ZM155.601 129.049L154.729 129.54L155.016 130.049H155.601V129.049ZM149.421 118.069L150.292 117.579L148.421 114.254V118.069H149.421ZM149.421 130.419H145.401V132.419H149.421V130.419ZM146.401 131.419V110.419H144.401V131.419H146.401ZM145.401 111.419H149.421V109.419H145.401V111.419ZM148.551 110.913L156.081 124.173L157.82 123.186L150.29 109.926L148.551 110.913ZM157.821 124.172L165.321 110.912L163.58 109.927L156.08 123.187L157.821 124.172ZM164.451 111.419H168.471V109.419H164.451V111.419ZM167.471 110.419V131.419H169.471V110.419H167.471ZM168.471 130.419H164.451V132.419H168.471V130.419ZM165.451 131.419V118.039H163.451V131.419H165.451ZM163.579 117.55L157.399 128.56L159.143 129.539L165.323 118.529L163.579 117.55ZM158.271 128.049H155.601V130.049H158.271V128.049ZM156.472 128.559L150.292 117.579L148.549 118.56L154.729 129.54L156.472 128.559ZM148.421 118.069V131.419H150.421V118.069H148.421ZM184.934 131.419V132.419H185.666L185.887 131.721L184.934 131.419ZM181.574 131.419L180.623 131.73L180.849 132.419H181.574V131.419ZM176.474 115.819V114.819H175.095L175.523 116.13L176.474 115.819ZM180.254 115.819L181.211 115.53L180.996 114.819H180.254V115.819ZM183.224 125.629L182.267 125.919L183.224 129.081L184.181 125.919L183.224 125.629ZM186.194 115.819V114.819H185.452L185.237 115.53L186.194 115.819ZM189.584 115.819L190.541 115.53L190.326 114.819H189.584V115.819ZM192.554 125.629L191.597 125.919L192.554 129.081L193.511 125.919L192.554 125.629ZM195.524 115.819V114.819H194.782L194.567 115.53L195.524 115.819ZM199.274 115.819L200.225 116.129L200.65 114.819H199.274V115.819ZM194.204 131.419V132.419H194.93L195.155 131.729L194.204 131.419ZM190.844 131.419L189.89 131.718L190.109 132.419H190.844V131.419ZM187.904 122.029L188.858 121.731L187.909 118.698L186.95 121.728L187.904 122.029ZM184.934 130.419H181.574V132.419H184.934V130.419ZM182.524 131.109L177.424 115.509L175.523 116.13L180.623 131.73L182.524 131.109ZM176.474 116.819H180.254V114.819H176.474V116.819ZM179.297 116.109L182.267 125.919L184.181 125.34L181.211 115.53L179.297 116.109ZM184.181 125.919L187.151 116.109L185.237 115.53L182.267 125.34L184.181 125.919ZM186.194 116.819H189.584V114.819H186.194V116.819ZM188.627 116.109L191.597 125.919L193.511 125.34L190.541 115.53L188.627 116.109ZM193.511 125.919L196.481 116.109L194.567 115.53L191.597 125.34L193.511 125.919ZM195.524 116.819H199.274V114.819H195.524V116.819ZM198.323 115.51L193.253 131.11L195.155 131.729L200.225 116.129L198.323 115.51ZM194.204 130.419H190.844V132.419H194.204V130.419ZM191.798 131.121L188.858 121.731L186.95 122.328L189.89 131.718L191.798 131.121ZM186.95 121.728L183.98 131.118L185.887 131.721L188.857 122.331L186.95 121.728ZM218.288 117.049L217.664 117.83L219.288 119.13V117.049H218.288ZM218.288 115.819V114.819H217.288V115.819H218.288ZM222.008 115.819H223.008V114.819H222.008V115.819ZM222.008 131.419V132.419H223.008V131.419H222.008ZM218.288 131.419H217.288V132.419H218.288V131.419ZM218.288 130.189H219.288V128.109L217.664 129.409L218.288 130.189ZM208.118 129.529L207.379 130.203L207.386 130.21L207.393 130.218L208.118 129.529ZM208.118 117.739L207.384 117.061L207.383 117.061L208.118 117.739ZM216.998 120.409L216.266 121.091L216.267 121.091L216.998 120.409ZM211.028 126.829L211.76 126.148L211.028 126.829ZM216.998 126.829L216.267 126.148L216.266 126.148L216.998 126.829ZM213.548 116.369C215.077 116.369 216.437 116.849 217.664 117.83L218.913 116.269C217.339 115.01 215.54 114.369 213.548 114.369V116.369ZM219.288 117.049V115.819H217.288V117.049H219.288ZM218.288 116.819H222.008V114.819H218.288V116.819ZM221.008 115.819V131.419H223.008V115.819H221.008ZM222.008 130.419H218.288V132.419H222.008V130.419ZM219.288 131.419V130.189H217.288V131.419H219.288ZM217.664 129.409C216.437 130.39 215.077 130.869 213.548 130.869V132.869C215.54 132.869 217.339 132.229 218.913 130.97L217.664 129.409ZM213.548 130.869C211.684 130.869 210.136 130.203 208.844 128.841L207.393 130.218C209.061 131.976 211.132 132.869 213.548 132.869V130.869ZM208.857 128.856C207.603 127.48 206.958 125.758 206.958 123.619H204.958C204.958 126.201 205.753 128.419 207.379 130.203L208.857 128.856ZM206.958 123.619C206.958 121.48 207.603 119.772 208.853 118.418L207.383 117.061C205.753 118.827 204.958 121.038 204.958 123.619H206.958ZM208.853 118.418C210.123 117.044 211.666 116.369 213.548 116.369V114.369C211.111 114.369 209.034 115.275 207.384 117.061L208.853 118.418ZM217.73 119.728C216.74 118.664 215.485 118.119 214.028 118.119V120.119C214.932 120.119 215.656 120.435 216.266 121.091L217.73 119.728ZM214.028 118.119C212.557 118.119 211.29 118.66 210.296 119.728L211.76 121.091C212.367 120.439 213.099 120.119 214.028 120.119V118.119ZM210.296 119.728C209.308 120.791 208.828 122.111 208.828 123.619H210.828C210.828 122.567 211.149 121.748 211.76 121.091L210.296 119.728ZM208.828 123.619C208.828 125.127 209.308 126.448 210.296 127.511L211.76 126.148C211.149 125.491 210.828 124.671 210.828 123.619H208.828ZM210.296 127.511C211.29 128.579 212.557 129.119 214.028 129.119V127.119C213.099 127.119 212.367 126.8 211.76 126.148L210.296 127.511ZM214.028 129.119C215.485 129.119 216.74 128.575 217.73 127.511L216.266 126.148C215.656 126.804 214.932 127.119 214.028 127.119V129.119ZM217.73 127.511C218.731 126.437 219.228 125.119 219.228 123.619H217.228C217.228 124.64 216.905 125.462 216.267 126.148L217.73 127.511ZM219.228 123.619C219.228 122.12 218.731 120.802 217.73 119.728L216.267 121.091C216.905 121.777 217.228 122.599 217.228 123.619H219.228ZM234.94 115.819H235.94V114.819H234.94V115.819ZM234.94 117.739H233.94V120.974L235.766 118.304L234.94 117.739ZM240.07 115.369H241.07V114.369H240.07V115.369ZM240.07 119.539L239.668 120.455L241.07 121.072V119.539H240.07ZM235.96 120.259L236.667 120.967L236.673 120.961L236.678 120.956L235.96 120.259ZM234.94 131.419V132.419H235.94V131.419H234.94ZM231.19 131.419H230.19V132.419H231.19V131.419ZM231.19 115.819V114.819H230.19V115.819H231.19ZM233.94 115.819V117.739H235.94V115.819H233.94ZM235.766 118.304C236.617 117.059 237.977 116.369 240.07 116.369V114.369C237.484 114.369 235.424 115.26 234.115 117.175L235.766 118.304ZM239.07 115.369V119.539H241.07V115.369H239.07ZM240.473 118.624C239.853 118.351 239.206 118.209 238.54 118.209V120.209C238.915 120.209 239.288 120.288 239.668 120.455L240.473 118.624ZM238.54 118.209C237.25 118.209 236.125 118.655 235.243 119.563L236.678 120.956C237.156 120.464 237.751 120.209 238.54 120.209V118.209ZM235.253 119.552C234.369 120.436 233.94 121.558 233.94 122.839H235.94C235.94 122.041 236.191 121.443 236.667 120.967L235.253 119.552ZM233.94 122.839V131.419H235.94V122.839H233.94ZM234.94 130.419H231.19V132.419H234.94V130.419ZM232.19 131.419V115.819H230.19V131.419H232.19ZM231.19 116.819H234.94V114.819H231.19V116.819ZM263.251 124.999V125.999H264.114L264.241 125.146L263.251 124.999ZM250.861 124.999V123.999H249.55L249.897 125.264L250.861 124.999ZM252.511 127.489L251.896 128.278L251.907 128.286L251.918 128.294L252.511 127.489ZM259.081 126.769L259.359 125.809L258.725 125.625L258.307 126.136L259.081 126.769ZM262.711 127.819L263.58 128.316L264.21 127.212L262.989 126.859L262.711 127.819ZM259.681 130.789L259.197 129.915L259.191 129.918L259.681 130.789ZM249.391 129.529L248.684 130.237L248.691 130.243L248.698 130.25L249.391 129.529ZM249.331 117.739L248.624 117.032L249.331 117.739ZM261.001 117.739L260.29 118.442L260.294 118.447L261.001 117.739ZM250.891 122.089L249.93 121.815L249.566 123.089H250.891V122.089ZM259.501 122.089V123.089H260.853L260.458 121.797L259.501 122.089ZM257.851 119.719L258.451 118.919L257.851 119.719ZM263.251 123.999H250.861V125.999H263.251V123.999ZM249.897 125.264C250.233 126.488 250.903 127.503 251.896 128.278L253.127 126.701C252.479 126.196 252.05 125.551 251.826 124.735L249.897 125.264ZM251.918 128.294C252.939 129.048 254.12 129.419 255.421 129.419V127.419C254.523 127.419 253.764 127.171 253.105 126.685L251.918 128.294ZM255.421 129.419C257.233 129.419 258.748 128.756 259.855 127.403L258.307 126.136C257.615 126.983 256.69 127.419 255.421 127.419V129.419ZM258.804 127.73L262.434 128.78L262.989 126.859L259.359 125.809L258.804 127.73ZM261.843 127.323C261.216 128.42 260.341 129.281 259.197 129.915L260.166 131.664C261.622 130.858 262.767 129.739 263.58 128.316L261.843 127.323ZM259.191 129.918C258.07 130.548 256.821 130.869 255.421 130.869V132.869C257.142 132.869 258.733 132.47 260.172 131.661L259.191 129.918ZM255.421 130.869C253.261 130.869 251.505 130.177 250.085 128.809L248.698 130.25C250.517 132.002 252.782 132.869 255.421 132.869V130.869ZM250.099 128.822C248.693 127.417 247.991 125.704 247.991 123.619H245.991C245.991 126.215 246.89 128.442 248.684 130.237L250.099 128.822ZM247.991 123.619C247.991 121.504 248.68 119.805 250.039 118.447L248.624 117.032C246.863 118.794 245.991 121.015 245.991 123.619H247.991ZM250.039 118.447C251.423 117.062 253.115 116.369 255.181 116.369V114.369C252.608 114.369 250.4 115.257 248.624 117.032L250.039 118.447ZM255.181 116.369C257.247 116.369 258.927 117.062 260.29 118.442L261.713 117.037C259.956 115.257 257.755 114.369 255.181 114.369V116.369ZM260.294 118.447C261.677 119.829 262.371 121.531 262.371 123.619H264.371C264.371 121.028 263.486 118.81 261.709 117.032L260.294 118.447ZM262.371 123.619C262.371 123.934 262.338 124.342 262.262 124.853L264.241 125.146C264.325 124.576 264.371 124.065 264.371 123.619H262.371ZM250.891 123.089H259.501V121.089H250.891V123.089ZM260.458 121.797C260.097 120.62 259.425 119.65 258.451 118.919L257.251 120.519C257.878 120.989 258.306 121.599 258.545 122.382L260.458 121.797ZM258.451 118.919C257.475 118.187 256.353 117.819 255.121 117.819V119.819C255.93 119.819 256.628 120.052 257.251 120.519L258.451 118.919ZM255.121 117.819C253.92 117.819 252.826 118.193 251.872 118.927L253.091 120.512C253.697 120.046 254.363 119.819 255.121 119.819V117.819ZM251.872 118.927C250.916 119.662 250.266 120.637 249.93 121.815L251.853 122.364C252.076 121.582 252.487 120.977 253.091 120.512L251.872 118.927Z" fill="black"/>
<path d="M97.3801 57.1443L165.474 57.1443M165.474 57.1443L163.608 56.2441M165.474 57.1443L163.608 58.0444" stroke="black"/>
<path d="M97.3801 72.1014L192.525 72.1014M192.525 72.1014L189.918 71.1686M192.525 72.1014L189.918 73.0342" stroke="black"/>
<path d="M97.3801 42.2523L140.289 42.2523M140.289 42.2523L139.113 41.3195M140.289 42.2523L139.113 43.1851" stroke="black"/>
<path d="M97.3801 87.0262H128.162M128.162 87.0262L127.319 86.0934M128.162 87.0262L127.319 87.959" stroke="black"/>
<path d="M105.246 118.542L40.1707 152.674L40.1707 55.0099L105.246 23.2437L105.246 118.542Z" fill="#4AE991"/>
<mask id="mask1" mask-type="alpha" maskUnits="userSpaceOnUse" x="40" y="23" width="66" height="130">
<path d="M105.246 118.542L40.1707 152.674L40.1707 55.0099L105.246 23.2437L105.246 118.542Z" fill="#4AE991"/>
</mask>
<g mask="url(#mask1)">
<path d="M102.921 -56.5713C144.699 5.7376 144.699 50.2439 102.921 76.9478C61.1428 103.652 61.1428 148.158 102.921 210.467" stroke="#A57CFE"/>
<path d="M22.9123 -48.7661C85.7561 -0.999387 102.349 41.2005 72.6922 77.8337C43.035 114.467 59.6283 156.667 122.472 204.433" stroke="#A57CFE"/>
<path d="M50.5347 -53.937C86.4392 10.9768 82.3359 55.3455 38.2249 79.1692C-5.88604 102.993 -9.98929 147.362 25.9152 212.276" stroke="#A57CFE"/>
</g>
<circle cx="264.157" cy="44.0856" r="2.82092" fill="#31D67B"/>
<circle cx="275.441" cy="44.0856" r="2.82092" fill="#31D67B"/>
<circle cx="286.724" cy="44.0856" r="2.82092" fill="#31D67B"/>
<circle cx="298.008" cy="44.0856" r="2.82092" fill="#31D67B"/>
<circle cx="264.157" cy="55.3693" r="2.82092" fill="#31D67B"/>
<circle cx="275.441" cy="55.3693" r="2.82092" fill="#31D67B"/>
<circle cx="286.724" cy="55.3693" r="2.82092" fill="#31D67B"/>
<circle cx="298.008" cy="55.3693" r="2.82092" fill="#31D67B"/>
<circle cx="298.008" cy="66.653" r="2.82092" fill="#31D67B"/>
<circle cx="286.724" cy="66.653" r="2.82092" fill="#31D67B"/>
<circle cx="275.441" cy="66.653" r="2.82092" fill="#31D67B"/>
<circle cx="264.157" cy="66.653" r="2.82092" fill="#31D67B"/>
<circle cx="264.157" cy="66.653" r="2.82092" fill="#31D67B"/>
<circle cx="275.441" cy="66.653" r="2.82092" fill="#31D67B"/>
<circle cx="286.724" cy="66.653" r="2.82092" fill="#31D67B"/>
<circle cx="298.008" cy="66.653" r="2.82092" fill="#31D67B"/>
<circle cx="264.157" cy="77.9366" r="2.82092" fill="#31D67B"/>
<circle cx="275.441" cy="77.9366" r="2.82092" fill="#31D67B"/>
<circle cx="286.724" cy="77.9366" r="2.82092" fill="#31D67B"/>
<circle cx="298.008" cy="77.9366" r="2.82092" fill="#31D67B"/>
<circle cx="298.008" cy="89.2203" r="2.82092" fill="#31D67B"/>
<circle cx="286.724" cy="89.2203" r="2.82092" fill="#31D67B"/>
<circle cx="275.441" cy="89.2203" r="2.82092" fill="#31D67B"/>
<circle cx="264.157" cy="89.2203" r="2.82092" fill="#31D67B"/>
</svg>
