<svg width="341" height="180" fill="none" xmlns="http://www.w3.org/2000/svg">
  <path d="M44.4 141.8l71.9-111.9L188 141.7H44.4z" stroke="#000"/>
  <path fill="#4AE991" d="M89.9 53.1H70.4v88h19.5zM110.5 83.8H98V141h12.6zM125.6 109h-7v32h7z"/>
  <path d="M110.5 113.1h51m0 0l-1.5.7m1.4-.7l-1.4-.6M110.5 102h71.2m0 0l-2 .6m2-.7l-2-.7M110.5 124.3h32.1m0 0l-.9.7m1-.7l-1-.7M110.5 90.8h23m0 0l-.6.7m.6-.7l-.6-.7" stroke="#000"/>
  <circle cx="250.4" cy="113.4" r="31.9" fill="#B491FF"/>
  <circle cx="295.5" cy="62.1" r="13.3" fill="#A57CFE"/>
  <circle cx="238.1" cy="57.4" r="8.6" fill="#8052E4"/>
</svg>
