<svg width="341" height="180" viewBox="0 0 341 180" fill="none" xmlns="http://www.w3.org/2000/svg">
<path d="M180.215 90.2859L107.333 90.2859M107.333 90.2859L109.33 89.5738M107.333 90.2859L109.33 90.998" stroke="black"/>
<path d="M174.711 102.119L88.2532 102.119M88.2532 102.119L90.6219 101.382M88.2532 102.119L90.6219 102.857" stroke="black"/>
<path d="M185.715 78.5052L125.094 78.5052M125.094 78.5052L126.755 77.7673M125.094 78.5052L126.755 79.2432" stroke="black"/>
<path d="M169.789 113.926H133.644M133.644 113.926L134.634 113.188M133.644 113.926L134.634 114.664" stroke="black"/>
<path d="M217.645 20.7148L290.391 133.965H144.898L217.645 20.7148Z" fill="#A57CFE"/>
<mask id="mask0" mask-type="alpha" maskUnits="userSpaceOnUse" x="144" y="20" width="147" height="114">
<path d="M217.645 20.7148L290.391 133.965H144.898L217.645 20.7148Z" fill="#A57CFE"/>
</mask>
<g mask="url(#mask0)">
<path d="M251.53 -35.6836C293.308 26.6253 293.308 71.1316 251.53 97.8354C209.751 124.539 209.751 169.046 251.53 231.354" stroke="#8052E4"/>
<path d="M171.521 -27.8784C234.364 19.8883 250.958 62.0882 221.3 98.7214C191.643 135.354 208.237 177.554 271.08 225.321" stroke="#8052E4"/>
<path d="M199.142 -33.0493C235.047 31.8645 230.943 76.2332 186.832 100.057C142.721 123.881 138.618 168.249 174.523 233.163" stroke="#8052E4"/>
</g>
<path d="M72.0156 117.127L39.3539 146.073L39.3539 63.248L72.0156 36.3083V117.127Z" fill="#4AE991"/>
<mask id="mask1" mask-type="alpha" maskUnits="userSpaceOnUse" x="39" y="36" width="34" height="111">
<path d="M72.0156 117.127L39.3539 146.073L39.3539 63.248L72.0156 36.3083V117.127Z" fill="#4AE991"/>
</mask>
<g mask="url(#mask1)">
<path d="M70.8475 -31.3799C91.8164 21.4618 91.8164 59.2058 70.8475 81.8522C49.8786 104.499 49.8786 142.243 70.8475 195.084" stroke="black"/>
<path d="M30.6899 -24.7604C62.2318 15.7487 70.5602 51.5367 55.6749 82.6038C40.7897 113.671 49.118 149.459 80.6599 189.968" stroke="black"/>
<path d="M44.5563 -29.1456C62.5771 25.9052 60.5177 63.5325 38.3779 83.7365C16.2382 103.94 14.1787 141.568 32.1995 196.618" stroke="black"/>
</g>
<circle r="11.1637" transform="matrix(-1 0 0 1 127.512 35.2867)" fill="#8052E4"/>
<circle r="7.5" transform="matrix(-1 0 0 1 119.512 44.3076)" stroke="black"/>
<mask id="mask2" mask-type="alpha" maskUnits="userSpaceOnUse" x="220" y="51" width="66" height="56">
<path d="M237.531 52.7432L245.531 106.743" stroke="black"/>
<path d="M242.031 52.7432L250.031 106.743" stroke="black"/>
<path d="M247.031 52.7432L255.031 106.743" stroke="black"/>
<path d="M252.031 52.7432L260.031 106.743" stroke="black"/>
<path d="M257.031 51.7432L265.031 105.743" stroke="black"/>
<path d="M262.031 51.7432L270.031 105.743" stroke="black"/>
<path d="M267.031 51.7432L275.031 105.743" stroke="black"/>
<path d="M272.031 51.7432L280.031 105.743" stroke="black"/>
<path d="M277.031 51.7432L285.031 105.743" stroke="black"/>
<path d="M232.031 52.7432L240.031 106.743" stroke="black"/>
<path d="M226.031 52.7432L234.031 106.743" stroke="black"/>
<path d="M221.031 52.7432L229.031 106.743" stroke="black"/>
</mask>
<g mask="url(#mask2)">
<path d="M250.531 106.743L220.653 54.9932H280.409L250.531 106.743Z" fill="black"/>
</g>
</svg>
