<svg width="342" height="180" viewBox="0 0 342 180" fill="none" xmlns="http://www.w3.org/2000/svg">
<rect width="34.8655" height="2.1791" transform="translate(171.475 147.43) rotate(-90)" fill="#AB85FF"/>
<rect width="34.8655" height="3.73559" transform="translate(178.324 147.43) rotate(-90)" fill="#AB85FF"/>
<rect width="34.8655" height="5.91469" transform="translate(186.418 147.43) rotate(-90)" fill="#AB85FF"/>
<rect width="34.8655" height="2.1791" transform="translate(197.245 147.43) rotate(-90)" fill="#AB85FF"/>
<rect width="34.8655" height="3.73559" transform="translate(204.094 147.43) rotate(-90)" fill="#AB85FF"/>
<rect width="34.8655" height="5.91469" transform="translate(212.188 147.43) rotate(-90)" fill="#AB85FF"/>
<rect width="34.8655" height="2.1791" transform="translate(223.015 147.43) rotate(-90)" fill="#AB85FF"/>
<rect width="34.8655" height="3.73559" transform="translate(229.864 147.43) rotate(-90)" fill="#AB85FF"/>
<rect width="34.8655" height="5.91469" transform="translate(237.957 147.43) rotate(-90)" fill="#AB85FF"/>
<path d="M243.475 147.431C256.975 146.431 282.775 135.731 283.975 106.931C283.975 70.9307 256.475 61.4307 242.975 61.4307C223.475 61.4307 142.475 61.4307 96.4753 61.4307" stroke="black"/>
<path d="M243.679 147.431H171.475" stroke="black"/>
<path d="M89.2511 28.5684L137.574 103.956H40.928L89.2511 28.5684Z" fill="#31D67B"/>
<path d="M94.2326 91.4492L94.2326 142.263M94.2326 142.263L94.8309 140.871M94.2326 142.263L93.6343 140.871" stroke="black"/>
<path d="M84.251 91.4492L84.251 130.449M84.251 130.449L84.751 129.381M84.251 130.449L83.751 129.381" stroke="black"/>
<path d="M104.131 91.4492V123.469M104.131 123.469L104.751 122.592M104.131 123.469L103.511 122.592" stroke="black"/>
<path d="M74.371 91.4492V114.42M74.371 114.42L74.991 113.79M74.371 114.42L73.751 113.79" stroke="black"/>
<path d="M308.225 99.0547L298.725 89.5547" stroke="black"/>
<path d="M301.725 99.5547L292.225 90.0547" stroke="black"/>
<path d="M295.225 99.5547L285.725 90.0547" stroke="black"/>
<path d="M288.725 99.5547L279.225 90.0547" stroke="black"/>
<path d="M282.225 99.5547L272.725 90.0547" stroke="black"/>
<path d="M275.725 99.5547L266.225 90.0547" stroke="black"/>
<path d="M269.225 99.5547L259.725 90.0547" stroke="black"/>
</svg>
