<svg width="342" height="181" fill="none" xmlns="http://www.w3.org/2000/svg">
  <path d="M69 43.8c-13.5 1-39.3 11.7-40.5 40.5 0 36 27.5 45.5 41 45.5H216M68.8 43.8h27.7M72 129.8V79m0 0l-.5 1.4M72 79l.6 1.4M82 129.8v-39m0 0l-.4 1m.5-1l.5 1M62.2 129.8v-32m0 0l-.6.8m.6-.8l.6.8M92 129.8v-23m0 0l-.7.6m.6-.6l.7.6" stroke="#000"/>
  <path d="M162.3 83.8l-54 61h154.6l50.3-61h-151z" fill="#A57CFE"/>
  <mask id="a" maskUnits="userSpaceOnUse" x="108" y="83" width="206" height="62">
    <path d="M162.3 83.8l-54 61h154.6l50.3-61h-151z" fill="#A57CFE"/>
  </mask>
  <g mask="url(#a)" stroke="#4AE991" stroke-width="2">
    <path d="M439.6 86C341 46.7 270.5 46.7 228.2 86 185.9 125 115.4 125 16.7 86"/>
    <path d="M427.3 161c-75.7-59-142.5-74.5-200.5-46.7-58 27.8-125 12.2-200.6-46.7"/>
    <path d="M435.5 135c-102.9-33.6-173.1-29.8-210.9 11.6-37.7 41.3-108 45.2-210.8 11.5"/>
  </g>
  <path d="M116.8 21.8a24.2 24.2 0 100 48.4 24.2 24.2 0 000-48.4zM129 48.6c1.1 1.1 2.3 2.1 3.3 3.4.5.5.9 1 1.2 1.7.5.9 0 1.9-.7 2h-5c-1.3 0-2.3-.5-3.2-1.4l-2-2.1c-.2-.3-.5-.6-.9-.8-.6-.5-1.2-.3-1.6.4-.4.7-.5 1.5-.5 2.3 0 1.1-.4 1.5-1.6 1.5a12.7 12.7 0 01-11.9-6 60.3 60.3 0 01-6.3-11.2c-.4-.9 0-1.4.9-1.4h4.8c.7 0 1.1.4 1.4 1 .9 2.2 2 4.2 3.3 6.1.3.5.7 1 1.2 1.4.6.4 1 .3 1.3-.4.2-.4.3-.8.3-1.3v-4.4c-.2-1-.7-1.6-1.7-1.8-.4 0-.4-.2-.1-.5.4-.5.7-.8 1.5-.8h5.6c.9.2 1 .6 1.2 1.5V44c0 .4.2 1.4.8 1.6.5.2.8-.2 1.1-.5 1.3-1.4 2.3-3.1 3.2-4.9l1-2.3c.2-.6.6-1 1.3-1l5.4.1h.4c1 .2 1.2.6 1 1.5-.5 1.4-1.4 2.5-2.2 3.7l-2.8 3.7c-.8 1.1-.7 1.7.3 2.7z" fill="#31D67B"/>
  <circle r="3.1" transform="matrix(-1 0 0 1 294.6 66.6)" fill="#31D67B"/>
  <circle r="3.1" transform="matrix(-1 0 0 1 282.2 66.6)" fill="#31D67B"/>
  <circle r="3.1" transform="matrix(-1 0 0 1 269.7 66.6)" fill="#31D67B"/>
  <circle r="3.1" transform="matrix(-1 0 0 1 257.3 66.6)" fill="#31D67B"/>
  <circle r="3.1" transform="matrix(-1 0 0 1 294.6 79)" fill="#31D67B"/>
  <circle r="3.1" transform="matrix(-1 0 0 1 282.2 79)" fill="#31D67B"/>
  <circle r="3.1" transform="matrix(-1 0 0 1 269.7 79)" fill="#31D67B"/>
  <circle r="3.1" transform="matrix(-1 0 0 1 257.3 79)" fill="#31D67B"/>
  <circle r="3.1" transform="matrix(-1 0 0 1 257.3 91.4)" fill="#31D67B"/>
  <circle r="3.1" transform="matrix(-1 0 0 1 269.7 91.4)" fill="#31D67B"/>
  <circle r="3.1" transform="matrix(-1 0 0 1 282.2 91.4)" fill="#31D67B"/>
  <circle r="3.1" transform="matrix(-1 0 0 1 294.6 91.4)" fill="#31D67B"/>
</svg>
