<svg width="342" height="181" fill="none" xmlns="http://www.w3.org/2000/svg">
  <path fill="#AB85FF" d="M95.7 48.1H77.9v80h17.8zM114.5 76H103v52h11.4zM128.2 98.9H122v29.2h6.3z"/>
  <path d="M114.5 102.7h46.3m0 0l-1.3.6m1.3-.6l-1.3-.6M114.5 92.6h64.7m0 0l-1.8.6m1.8-.6l-1.8-.7M114.5 112.9h29.2m0 0l-.8.6m.8-.6l-.8-.7M114.5 82.4h21m0 0l-.6.6m.5-.6l-.5-.6M69.7 33c-15 1-43.5 13-44.8 44.8 0 39.8 30.4 50.3 45.3 50.3h162M69.4 33h79.9M272.6 128c15-1 43.5-12.8 44.8-44.7C317.4 43.5 287 33 272 33H110M272.8 128H193" stroke="#000"/>
  <path d="M200.3 128l29-16.6v33.4l-29-16.7z" fill="#31D67B"/>
  <path d="M218.6 128l29-16.6v33.4l-29-16.7z" fill="#31D67B"/>
  <path d="M237.9 128l29-16.6v33.4l-29-16.7z" fill="#31D67B"/>
</svg>
