<svg width="341" height="180" fill="none" xmlns="http://www.w3.org/2000/svg">
  <path d="M95.8 83L13 96h237l77-13H95.8z" fill="#31D67B"/>
  <path d="M190.5 111v50.8m0 0l.6-1.4m-.6 1.4l-.6-1.4M180.5 111v39m0 0l.5-1m-.5 1l-.5-1M200.4 111v32m0 0l.6-.9m-.6 1l-.6-1M170.6 111v23m0 0l.6-.7m-.6.7l-.6-.7" stroke="#000"/>
  <path d="M110 59l-54 61h154.7L261 59H110z" fill="#A57CFE"/>
  <path d="M108 120V47m0 0l-1 2m1-2l1 2M124 120V18m0 0l-1 2.8m1-2.8l1 2.8M92 120V74m0 0l-1 1.3m1-1.3l1 1.3M140 120V87m0 0l-1 .9m1-.9l1 .9" stroke="#000"/>
  <circle cx="230.4" cy="54.4" r="1.4" fill="#D4D4D4"/>
  <circle cx="236.1" cy="54.4" r="1.4" fill="#D4D4D4"/>
  <circle cx="241.9" cy="54.4" r="1.4" fill="#D4D4D4"/>
  <circle cx="247.4" cy="54.4" r="1.4" fill="#D4D4D4"/>
  <circle cx="253.4" cy="54.4" r="1.4" fill="#D4D4D4"/>
  <circle cx="259.1" cy="54.4" r="1.4" fill="#D4D4D4"/>
  <circle cx="264.9" cy="54.4" r="1.4" fill="#D4D4D4"/>
  <circle cx="270.6" cy="54.4" r="1.4" fill="#D4D4D4"/>
  <circle cx="276.4" cy="54.4" r="1.4" fill="#D4D4D4"/>
  <circle cx="230.4" cy="60.1" r="1.4" fill="#D4D4D4"/>
  <circle cx="236.1" cy="60.1" r="1.4" fill="#D4D4D4"/>
  <circle cx="230.4" cy="65.9" r="1.4" fill="#D4D4D4"/>
  <circle cx="236.1" cy="65.9" r="1.4" fill="#D4D4D4"/>
  <circle cx="241.9" cy="65.9" r="1.4" fill="#D4D4D4"/>
  <circle cx="247.6" cy="65.9" r="1.4" fill="#D4D4D4"/>
  <circle cx="253.4" cy="65.9" r="1.4" fill="#D4D4D4"/>
  <circle cx="259.1" cy="65.9" r="1.4" fill="#D4D4D4"/>
  <circle cx="264.9" cy="65.9" r="1.4" fill="#D4D4D4"/>
  <circle cx="270.6" cy="65.9" r="1.4" fill="#D4D4D4"/>
  <circle cx="276.4" cy="65.9" r="1.4" fill="#D4D4D4"/>
  <circle cx="241.9" cy="60.1" r="1.4" fill="#D4D4D4"/>
  <circle cx="247.4" cy="60.1" r="1.4" fill="#D4D4D4"/>
  <circle cx="253.4" cy="60.1" r="1.4" fill="#D4D4D4"/>
  <circle cx="259.1" cy="60.1" r="1.4" fill="#D4D4D4"/>
  <circle cx="264.9" cy="60.1" r="1.4" fill="#D4D4D4"/>
  <circle cx="270.6" cy="60.1" r="1.4" fill="#D4D4D4"/>
  <circle cx="276.4" cy="60.1" r="1.4" fill="#D4D4D4"/>
  <path d="M224 54.5V48h6.5M283.5 64v6.5H277" stroke="#000"/>
</svg>
