<svg width="341" height="180" fill="none" xmlns="http://www.w3.org/2000/svg">
  <rect x="43.54" y="30.5" width="119" height="119" rx="59.5" fill="#AB85FF"/>
  <mask id="a" maskUnits="userSpaceOnUse" x="43" y="30" width="120" height="120">
    <rect x="43.54" y="30.5" width="119" height="119" rx="59.5" fill="#AB85FF"/>
  </mask>
  <g mask="url(#a)" stroke="#000">
    <path d="M81.36 145.6V72.7m0 0l.71 2m-.7-2l-.72 2M69.4 140.38V53.92m0 0l.74 2.37m-.74-2.37l-.74 2.37M101.17 149.5V88.88m0 0l.74 1.66m-.74-1.66l-.74 1.66M90.09 149.03v-36.15m0 0l.73 1m-.73-1l-.74 1"/>
  </g>
  <path d="M140.26 77.96l-.62.78 1.62 1.3v-2.08h-1zm0-1.44v-1h-1v1h1zm4.34 0h1v-1h-1v1zm0 18.18v1h1v-1h-1zm-4.34 0h-1v1h1v-1zm0-1.43h1v-2.08l-1.62 1.3.62.78zm-11.85-.77l-.74.67v.01h.01l.73-.68zm0-13.74l-.74-.68.74.68zm10.35 3.11l-.73.68.73-.68zm-6.96 7.48l.73-.68-.73.68zm6.96 0l-.73-.68.73.68zM134.74 77c1.82 0 3.44.57 4.9 1.74l1.25-1.56a9.61 9.61 0 00-6.15-2.18v2zm6.52.96v-1.44h-2v1.44h2zm-1-.44h4.34v-2h-4.34v2zm3.34-1V94.7h2V76.52h-2zm1 17.18h-4.34v2h4.34v-2zm-3.34 1v-1.43h-2v1.43h2zm-1.62-2.21a7.61 7.61 0 01-4.9 1.74v2c2.28 0 4.34-.74 6.14-2.18l-1.24-1.56zm-4.9 1.74c-2.22 0-4.07-.8-5.6-2.42l-1.46 1.38a9.38 9.38 0 007.06 3.04v-2zm-5.6-2.4a8.84 8.84 0 01-2.25-6.22h-2c0 2.97.92 5.52 2.78 7.56l1.48-1.34zm-2.25-6.22c0-2.53.77-4.56 2.25-6.17l-1.47-1.36a10.71 10.71 0 00-2.78 7.53h2zm2.25-6.17a7.27 7.27 0 015.6-2.44v-2a9.26 9.26 0 00-7.07 3.08l1.47 1.36zm10.35 1.75a5.54 5.54 0 00-4.2-1.82v2c1.1 0 2 .39 2.74 1.18l1.46-1.36zm-4.2-1.82c-1.66 0-3.1.61-4.22 1.82l1.46 1.36a3.58 3.58 0 012.77-1.18v-2zm-4.22 1.82a6.28 6.28 0 00-1.67 4.42h2c0-1.26.39-2.26 1.13-3.06l-1.46-1.36zm-1.67 4.42c0 1.72.55 3.22 1.67 4.42l1.46-1.36a4.29 4.29 0 01-1.13-3.06h-2zm1.67 4.42a5.58 5.58 0 004.23 1.83v-2a3.58 3.58 0 01-2.77-1.19l-1.46 1.36zm4.23 1.83c1.65 0 3.07-.62 4.19-1.83l-1.47-1.36a3.54 3.54 0 01-2.72 1.19v2zm4.19-1.82a6.29 6.29 0 001.7-4.43h-2c0 1.23-.39 2.23-1.16 3.06l1.46 1.37zm1.7-4.43c0-1.7-.56-3.2-1.7-4.42l-1.47 1.36a4.29 4.29 0 011.17 3.06h2zm23.97-7.65l-.63.78 1.63 1.3v-2.08h-1zm0-9.48v-1h-1v1h1zm4.33 0h1v-1h-1v1zm0 26.22v1h1v-1h-1zm-4.33 0h-1v1h1v-1zm0-1.43h1v-2.08l-1.63 1.3.63.78zm-11.86-.77l-.74.67.01.01.73-.68zm0-13.74l-.73-.68.73.68zm10.35 3.11l-.73.68.73-.68zm-6.96 7.48l.74-.68-.74.68zm6.96 0l-.73-.68.73.68zM159.63 77c1.82 0 3.44.57 4.9 1.74l1.25-1.56a9.61 9.61 0 00-6.15-2.18v2zm6.53.96v-9.48h-2v9.48h2zm-1-8.48h4.33v-2h-4.33v2zm3.33-1V94.7h2V68.48h-2zm1 25.22h-4.33v2h4.33v-2zm-3.33 1v-1.43h-2v1.43h2zm-1.63-2.21a7.61 7.61 0 01-4.9 1.74v2c2.28 0 4.34-.74 6.15-2.18l-1.25-1.56zm-4.9 1.74a7.4 7.4 0 01-5.6-2.42l-1.45 1.38a9.39 9.39 0 007.05 3.04v-2zm-5.59-2.4a8.84 8.84 0 01-2.25-6.22h-2c0 2.97.91 5.52 2.77 7.56l1.48-1.34zm-2.25-6.22c0-2.53.76-4.56 2.25-6.17l-1.47-1.36a10.7 10.7 0 00-2.78 7.53h2zm2.25-6.17a7.27 7.27 0 015.6-2.44v-2a9.27 9.27 0 00-7.07 3.08l1.47 1.36zm10.34 1.75a5.54 5.54 0 00-4.19-1.82v2c1.1 0 1.99.39 2.73 1.18l1.46-1.36zm-4.19-1.82c-1.67 0-3.1.61-4.23 1.82l1.47 1.36a3.58 3.58 0 012.76-1.18v-2zm-4.23 1.82a6.28 6.28 0 00-1.66 4.42h2c0-1.26.38-2.26 1.13-3.06l-1.47-1.36zm-1.66 4.42c0 1.72.54 3.22 1.66 4.42l1.47-1.36a4.29 4.29 0 01-1.13-3.06h-2zm1.66 4.42a5.57 5.57 0 004.23 1.83v-2a3.58 3.58 0 01-2.76-1.19l-1.47 1.36zm4.23 1.83c1.65 0 3.07-.62 4.2-1.83l-1.47-1.36a3.54 3.54 0 01-2.73 1.19v2zm4.2-1.82a6.29 6.29 0 001.7-4.43h-2c0 1.23-.4 2.23-1.17 3.06l1.46 1.37zm1.7-4.43c0-1.7-.57-3.2-1.7-4.42l-1.47 1.36a4.3 4.3 0 011.17 3.06h2zm12.32 6.9l-.71.7h.01l.7-.7zm0-13.75l-.7-.7.7.7zm13.77 0l-.7.7v.01l.7-.71zm0 13.74l.7.72.01-.01-.7-.7zm-10.52-10.63l.72.7-.72-.7zm0 7.48l.72-.7-.72.7zm7.27 0l-.71-.7.71.7zm-9.81 2.45a8.41 8.41 0 01-2.44-6.19h-2c0 3 1 5.55 3.02 7.6l1.42-1.41zm-2.44-6.19c0-2.5.82-4.53 2.44-6.14l-1.42-1.42a10.29 10.29 0 00-3.02 7.56h2zm2.44-6.14A8.35 8.35 0 01185.3 77v-2c-3 0-5.56 1.01-7.6 3.05l1.42 1.42zM185.3 77c2.5 0 4.53.83 6.18 2.47l1.41-1.42a10.35 10.35 0 00-7.6-3.05v2zm6.18 2.47a8.23 8.23 0 012.47 6.14h2c0-3-1.02-5.54-3.06-7.56l-1.4 1.42zm2.47 6.14c0 2.5-.83 4.54-2.47 6.18l1.41 1.42a10.35 10.35 0 003.06-7.6h-2zm-2.46 6.17a8.49 8.49 0 01-6.2 2.45v2c2.98 0 5.53-1 7.6-3.01l-1.4-1.44zm-6.2 2.45a8.49 8.49 0 01-6.18-2.45l-1.4 1.44c2.06 2 4.61 3 7.59 3v-2zm0-14.86c-1.7 0-3.17.6-4.34 1.8l1.43 1.4c.78-.8 1.73-1.2 2.92-1.2v-2zm-4.34 1.8a6.14 6.14 0 00-1.76 4.44h2c0-1.25.4-2.24 1.19-3.04l-1.44-1.4zm-1.76 4.44c0 1.74.58 3.24 1.75 4.44l1.44-1.4a4.15 4.15 0 01-1.19-3.04h-2zm1.75 4.44a5.88 5.88 0 004.36 1.8v-2c-1.19 0-2.14-.4-2.93-1.2l-1.43 1.4zm4.36 1.8c1.7 0 3.17-.6 4.35-1.8l-1.43-1.4c-.79.8-1.74 1.2-2.92 1.2v2zm4.35-1.8a6.14 6.14 0 001.75-4.44h-2c0 1.25-.4 2.24-1.18 3.05l1.43 1.4zm1.75-4.44c0-1.73-.58-3.23-1.75-4.44l-1.43 1.4c.78.8 1.18 1.8 1.18 3.04h2zm-1.75-4.44a5.88 5.88 0 00-4.35-1.8v2c1.18 0 2.13.4 2.92 1.2l1.43-1.4zM201.1 94.7h-1v1h1v-1zm0-26.22v-1h-1v1h1zm4.38 0h1v-1h-1v1zm0 9.48h-1v2.08l1.62-1.3-.63-.78zm11.81.8l-.73.68.73-.68zm0 13.74l.73.69v-.01l-.73-.68zm-11.81.77l.62-.78-1.63-1.3v2.08h1zm0 1.43v1h1v-1h-1zm8.39-12.83l-.74.68.74-.68zm-6.93 7.48l.74-.68-.74.68zm6.93 0l-.74-.68.74.68zM202.1 94.7V68.48h-2V94.7h2zm-1-25.22h4.38v-2h-4.38v2zm3.38-1v9.48h2v-9.48h-2zm1.62 10.26a7.56 7.56 0 014.86-1.74v-2c-2.26 0-4.3.73-6.11 2.18l1.25 1.56zm4.86-1.74c2.24 0 4.09.8 5.6 2.44l1.47-1.36a9.27 9.27 0 00-7.07-3.08v2zm5.6 2.45a8.56 8.56 0 012.28 6.16h2c0-3-.92-5.53-2.82-7.54l-1.45 1.38zm2.28 6.16c0 2.53-.77 4.57-2.28 6.21l1.47 1.36a10.76 10.76 0 002.81-7.57h-2zm-2.27 6.2a7.4 7.4 0 01-5.6 2.42v2a9.39 9.39 0 007.05-3.04l-1.45-1.38zm-5.6 2.42c-1.8 0-3.41-.57-4.87-1.74l-1.25 1.56a9.56 9.56 0 006.11 2.18v-2zm-6.5-.96v1.43h2v-1.43h-2zm1 .43h-4.37v2h4.38v-2zm9.13-12.5a5.54 5.54 0 00-4.2-1.83v2c1.1 0 2 .39 2.73 1.18l1.47-1.36zm-4.2-1.83c-1.65 0-3.07.61-4.19 1.82l1.47 1.36a3.54 3.54 0 012.72-1.18v-2zm-4.19 1.82a6.28 6.28 0 00-1.67 4.42h2c0-1.26.4-2.26 1.14-3.06l-1.47-1.36zm-1.67 4.42c0 1.72.55 3.22 1.67 4.42l1.47-1.36a4.28 4.28 0 01-1.14-3.06h-2zm1.67 4.42a5.54 5.54 0 004.2 1.83v-2c-1.1 0-2-.39-2.73-1.19l-1.47 1.36zm4.2 1.83c1.65 0 3.07-.62 4.19-1.83l-1.47-1.36a3.54 3.54 0 01-2.72 1.19v2zm4.19-1.82a6.29 6.29 0 001.7-4.43h-2c0 1.23-.4 2.23-1.17 3.06l1.47 1.37zm1.7-4.43c0-1.7-.57-3.2-1.7-4.42l-1.47 1.36a4.29 4.29 0 011.17 3.06h2zm27.98 1.61v1h.87l.12-.85-.99-.15zm-14.43 0v-1h-1.32l.35 1.27.97-.27zm1.92 2.9l-.62.8h.03l.59-.8zm7.66-.84l.27-.96-.63-.18-.42.51.78.63zm4.23 1.23l.86.5.63-1.11-1.22-.35-.27.96zm-3.53 3.46l-.49-.88.49.88zm-12-1.47l-.7.7v.02l.7-.72zm-.07-13.74l-.7-.7.7.7zm13.6 0l-.7.7.7-.7zm-11.78 5.07l-.96-.27-.36 1.27h1.32v-1zm10.03 0v1h1.36l-.4-1.3-.96.3zM238 81.07l.6-.8-.6.8zm6.3 5.15h-14.44v2h14.44v-2zm-15.4 1.27a6.39 6.39 0 002.26 3.42l1.23-1.58a4.4 4.4 0 01-1.57-2.37l-1.93.53zm2.29 3.44a6.56 6.56 0 003.98 1.28v-2c-1.08 0-2-.3-2.8-.9l-1.19 1.62zm3.98 1.28c2.07 0 3.78-.76 5.04-2.3l-1.55-1.26a4.23 4.23 0 01-3.49 1.56v2zm3.99-1.97l4.23 1.23.55-1.92-4.23-1.23-.55 1.92zm3.64-.23a8 8 0 01-3.15 3.08l.97 1.75a10 10 0 003.91-3.84l-1.73-.99zm-3.16 3.09a8.95 8.95 0 01-4.47 1.13v2c1.98 0 3.8-.46 5.46-1.39l-.99-1.74zm-4.47 1.13a8.74 8.74 0 01-6.33-2.45l-1.4 1.44c2.1 2.01 4.7 3 7.73 3v-2zm-6.32-2.44a8.36 8.36 0 01-2.5-6.18h-2c0 2.99 1.03 5.54 3.09 7.6l1.41-1.42zm-2.5-6.18c0-2.5.81-4.53 2.43-6.14l-1.41-1.42a10.29 10.29 0 00-3.02 7.56h2zm2.43-6.14a8.26 8.26 0 016.11-2.47v-2c-2.96 0-5.49 1.02-7.52 3.05l1.41 1.42zm6.11-2.47c2.45 0 4.45.82 6.07 2.46l1.43-1.4a10.15 10.15 0 00-7.5-3.06v2zm6.08 2.47a8.3 8.3 0 012.47 6.14h2a10.3 10.3 0 00-3.06-7.56l-1.41 1.42zm2.47 6.14c0 .38-.05.86-.13 1.46l1.97.3c.1-.66.16-1.25.16-1.76h-2zm-13.55-.78h10.03v-2h-10.03v2zm11-1.3a6.3 6.3 0 00-2.29-3.26l-1.2 1.6a4.3 4.3 0 011.57 2.25l1.91-.58zm-2.29-3.26a6.16 6.16 0 00-3.78-1.25v2c.98 0 1.83.28 2.58.85l1.2-1.6zm-3.78-1.25c-1.36 0-2.6.42-3.69 1.26l1.22 1.58a3.92 3.92 0 012.47-.84v-2zm-3.69 1.26a6.18 6.18 0 00-2.2 3.28l1.92.54c.27-.94.77-1.68 1.5-2.24l-1.22-1.58z" fill="#000"/>
  <path d="M123.07 84.19c2.05 0 3.89.65 5.52 1.95v-1.43h4.34v18.18h-4.34v-1.43a8.61 8.61 0 01-5.52 1.96c-2.5 0-4.6-.91-6.33-2.73a9.84 9.84 0 01-2.52-6.89c0-2.75.84-5.03 2.52-6.85a8.27 8.27 0 016.33-2.76zm4.02 5.87c-.93-1-2.09-1.5-3.46-1.5-1.4 0-2.57.5-3.5 1.5-.93 1-1.4 2.25-1.4 3.74 0 1.5.47 2.74 1.4 3.74.93 1 2.1 1.5 3.5 1.5 1.37 0 2.53-.5 3.46-1.5a5.29 5.29 0 001.43-3.74c0-1.47-.48-2.71-1.43-3.74zm20.87-5.87c2.05 0 3.9.65 5.53 1.95v-9.47h4.33v26.22h-4.33v-1.43a8.61 8.61 0 01-5.53 1.96c-2.5 0-4.6-.91-6.33-2.73a9.84 9.84 0 01-2.51-6.89c0-2.75.84-5.03 2.51-6.85a8.27 8.27 0 016.33-2.76zm4.02 5.87c-.93-1-2.08-1.5-3.46-1.5-1.4 0-2.56.5-3.5 1.5-.93 1-1.4 2.25-1.4 3.74 0 1.5.47 2.74 1.4 3.74.94 1 2.1 1.5 3.5 1.5 1.38 0 2.53-.5 3.46-1.5a5.29 5.29 0 001.44-3.74c0-1.47-.48-2.71-1.44-3.74zm14.76 10.63a9.41 9.41 0 01-2.73-6.89 9.35 9.35 0 019.61-9.61c2.76 0 5.05.92 6.9 2.76a9.23 9.23 0 012.76 6.85 9.34 9.34 0 01-9.65 9.62c-2.73 0-5.03-.91-6.89-2.73zm6.89-12.13c-1.45 0-2.66.5-3.64 1.5a5.14 5.14 0 00-1.47 3.74c0 1.5.5 2.74 1.47 3.74.98 1 2.2 1.5 3.64 1.5s2.66-.5 3.63-1.5c.98-1 1.47-2.25 1.47-3.74 0-1.49-.49-2.74-1.47-3.74-.97-1-2.19-1.5-3.63-1.5zm15.8 14.33V76.67h4.38v9.47a8.57 8.57 0 015.49-1.95c2.51 0 4.62.92 6.32 2.76a9.56 9.56 0 012.56 6.85c0 2.75-.86 5.05-2.56 6.89a8.39 8.39 0 01-6.32 2.73 8.57 8.57 0 01-5.5-1.96v1.43h-4.36zm12.77-12.83c-.94-1-2.09-1.5-3.46-1.5-1.38 0-2.53.5-3.47 1.5-.93 1-1.4 2.25-1.4 3.74 0 1.5.47 2.74 1.4 3.74.94 1 2.1 1.5 3.47 1.5s2.52-.5 3.46-1.5a5.29 5.29 0 001.43-3.74c0-1.47-.48-2.71-1.43-3.74zm30.42 5.35h-14.44a5.4 5.4 0 001.92 2.9 5.56 5.56 0 003.4 1.09c1.79 0 3.2-.65 4.26-1.93l4.23 1.23a9 9 0 01-3.53 3.46 9.95 9.95 0 01-4.97 1.26c-2.8 0-5.14-.91-7.03-2.73a9.36 9.36 0 01-2.8-6.89c0-2.75.92-5.03 2.73-6.85a9.26 9.26 0 016.82-2.76c2.7 0 4.97.92 6.78 2.76a9.3 9.3 0 012.77 6.85c0 .44-.05.98-.14 1.61zm-14.4-3.4h10.03a5.3 5.3 0 00-5.1-3.8 5.19 5.19 0 00-4.93 3.81z" fill="#F5F5F5"/>
  <path d="M128.6 86.14l-.63.79 1.62 1.3v-2.09h-1zm0-1.43v-1h-1v1h1zm4.33 0h1v-1h-1v1zm0 18.18v1h1v-1h-1zm-4.34 0h-1v1h1v-1zm0-1.43h1v-2.08l-1.62 1.3.62.78zm-11.85-.77l-.74.67v.01h.01l.73-.68zm0-13.74l-.73-.68.73.68zm10.35 3.11l-.73.68.73-.68zm-6.96 7.48l.73-.68-.73.68zm6.96 0l-.73-.68.73.68zm-4.02-12.35c1.82 0 3.44.57 4.9 1.74l1.25-1.57a9.6 9.6 0 00-6.15-2.17v2zm6.52.95v-1.43h-2v1.43h2zm-1-.43h4.34v-2h-4.34v2zm3.34-1v18.18h2V84.71h-2zm1 17.18h-4.34v2h4.34v-2zm-3.34 1v-1.43h-2v1.43h2zm-1.62-2.21a7.6 7.6 0 01-4.9 1.74v2a9.6 9.6 0 006.15-2.18l-1.25-1.56zm-4.9 1.74a7.4 7.4 0 01-5.6-2.42l-1.46 1.38a9.39 9.39 0 007.06 3.04v-2zm-5.6-2.4a8.84 8.84 0 01-2.25-6.22h-2c0 2.97.92 5.52 2.78 7.56l1.48-1.34zm-2.25-6.22c0-2.53.77-4.56 2.25-6.17L116 86.27a10.71 10.71 0 00-2.78 7.53h2zm2.25-6.17a7.27 7.27 0 015.6-2.44v-2a9.27 9.27 0 00-7.06 3.08l1.46 1.36zm10.35 1.75a5.54 5.54 0 00-4.2-1.82v2c1.1 0 2 .38 2.74 1.18l1.46-1.36zm-4.2-1.82c-1.66 0-3.1.6-4.22 1.82l1.46 1.36a3.58 3.58 0 012.77-1.18v-2zm-4.22 1.82a6.28 6.28 0 00-1.67 4.42h2c0-1.26.39-2.26 1.13-3.06l-1.46-1.36zm-1.67 4.42c0 1.72.55 3.22 1.67 4.42l1.46-1.36a4.29 4.29 0 01-1.13-3.06h-2zm1.67 4.42a5.57 5.57 0 004.23 1.83v-2c-1.13 0-2.03-.4-2.77-1.19l-1.46 1.36zm4.23 1.83c1.65 0 3.07-.62 4.2-1.83l-1.47-1.36a3.54 3.54 0 01-2.73 1.19v2zm4.19-1.83a6.29 6.29 0 001.7-4.42h-2a4.3 4.3 0 01-1.16 3.06l1.46 1.36zm1.7-4.42c0-1.7-.56-3.2-1.7-4.42l-1.46 1.36a4.3 4.3 0 011.16 3.06h2zm23.97-7.66l-.63.79 1.63 1.3v-2.09h-1zm0-9.47v-1h-1v1h1zm4.33 0h1v-1h-1v1zm0 26.22v1h1v-1h-1zm-4.33 0h-1v1h1v-1zm0-1.43h1v-2.08l-1.63 1.3.63.78zm-11.86-.77l-.73.67v.01h.01l.72-.68zm0-13.74l-.73-.68.73.68zm10.35 3.11l-.73.68.73-.68zm-6.95 7.48l.73-.68-.73.68zm6.95 0l-.73-.68.73.68zm-4.02-12.35a7.6 7.6 0 014.9 1.74l1.25-1.57a9.61 9.61 0 00-6.15-2.17v2zm6.53.95v-9.47h-2v9.47h2zm-1-8.47h4.33v-2h-4.33v2zm3.33-1v26.22h2V76.67h-2zm1 25.22h-4.33v2h4.33v-2zm-3.33 1v-1.43h-2v1.43h2zm-1.63-2.21a7.6 7.6 0 01-4.9 1.74v2c2.29 0 4.35-.74 6.15-2.18l-1.25-1.56zm-4.9 1.74a7.4 7.4 0 01-5.6-2.42l-1.45 1.38a9.38 9.38 0 007.05 3.04v-2zm-5.59-2.4a8.84 8.84 0 01-2.25-6.22h-2c0 2.97.91 5.52 2.78 7.56l1.47-1.34zm-2.25-6.22c0-2.53.76-4.56 2.25-6.17l-1.47-1.36a10.71 10.71 0 00-2.78 7.53h2zm2.25-6.17a7.27 7.27 0 015.6-2.44v-2a9.26 9.26 0 00-7.07 3.08l1.47 1.36zm10.35 1.75a5.54 5.54 0 00-4.2-1.82v2c1.1 0 1.99.38 2.73 1.18l1.47-1.36zm-4.2-1.82c-1.67 0-3.1.6-4.23 1.82l1.47 1.36a3.58 3.58 0 012.76-1.18v-2zm-4.23 1.82a6.28 6.28 0 00-1.66 4.42h2c0-1.26.38-2.26 1.13-3.06l-1.47-1.36zm-1.66 4.42c0 1.72.54 3.22 1.66 4.42l1.47-1.36a4.28 4.28 0 01-1.13-3.06h-2zm1.66 4.42a5.58 5.58 0 004.23 1.83v-2c-1.13 0-2.02-.4-2.76-1.19l-1.47 1.36zm4.23 1.83c1.65 0 3.07-.62 4.2-1.83l-1.47-1.36a3.54 3.54 0 01-2.73 1.19v2zm4.2-1.83a6.29 6.29 0 001.7-4.42h-2a4.3 4.3 0 01-1.17 3.06l1.47 1.36zm1.7-4.42c0-1.7-.57-3.2-1.7-4.42l-1.47 1.36a4.3 4.3 0 011.17 3.06h2zm12.32 6.89l-.71.7.01.02.7-.72zm0-13.74l-.7-.7.7.7zm13.77 0l-.7.7v.01l.7-.71zm0 13.74l.7.72.01-.01-.7-.71zM170 90.06l.72.7-.72-.7zm0 7.48l.72-.7-.72.7zm7.27 0l-.71-.7.71.7zm-9.8 2.45A8.41 8.41 0 01165 93.8h-2c0 3 1 5.55 3.02 7.6l1.42-1.41zM165 93.8c0-2.5.82-4.53 2.44-6.14l-1.42-1.42a10.3 10.3 0 00-3.02 7.56h2zm2.44-6.14a8.35 8.35 0 016.18-2.47v-2c-3 0-5.56 1.01-7.6 3.05l1.42 1.42zm6.18-2.47c2.5 0 4.54.82 6.18 2.47l1.41-1.42a10.34 10.34 0 00-7.6-3.05v2zm6.18 2.47a8.23 8.23 0 012.47 6.14h2c0-3-1.02-5.54-3.06-7.56l-1.4 1.42zm2.47 6.14c0 2.5-.83 4.54-2.47 6.18l1.41 1.42a10.34 10.34 0 003.06-7.6h-2zm-2.46 6.17a8.48 8.48 0 01-6.2 2.45v2c2.98 0 5.53-1 7.6-3.02l-1.4-1.43zm-6.2 2.45a8.49 8.49 0 01-6.18-2.45l-1.4 1.44c2.06 2 4.61 3 7.59 3v-2zm0-14.86c-1.7 0-3.17.6-4.34 1.8l1.43 1.4c.78-.8 1.73-1.2 2.92-1.2v-2zm-4.34 1.8a6.14 6.14 0 00-1.76 4.44h2c0-1.25.4-2.24 1.19-3.04l-1.43-1.4zm-1.76 4.44c0 1.74.58 3.24 1.76 4.44l1.43-1.4a4.14 4.14 0 01-1.19-3.04h-2zm1.76 4.44a5.88 5.88 0 004.35 1.8v-2c-1.19 0-2.14-.4-2.92-1.2l-1.43 1.4zm4.35 1.8c1.7 0 3.18-.6 4.35-1.8l-1.43-1.4c-.79.8-1.74 1.2-2.92 1.2v2zm4.35-1.8a6.14 6.14 0 001.75-4.44h-2c0 1.25-.4 2.24-1.18 3.04l1.43 1.4zm1.75-4.44c0-1.73-.58-3.24-1.75-4.44l-1.43 1.4c.78.8 1.18 1.8 1.18 3.04h2zm-1.75-4.44a5.88 5.88 0 00-4.35-1.8v2c1.18 0 2.13.4 2.92 1.2l1.43-1.4zm11.46 13.53h-1v1h1v-1zm0-26.22v-1h-1v1h1zm4.37 0h1v-1h-1v1zm0 9.47h-1v2.09l1.62-1.3-.62-.79zm11.81.8l-.73.69.73-.68zm0 13.75l.73.69v-.01l-.73-.68zm-11.81.77l.62-.78-1.62-1.3v2.08h1zm0 1.43v1h1v-1h-1zm8.39-12.83l-.73.68.73-.68zm-6.92 7.48l.73-.68-.73.68zm6.92 0l-.73-.68.73.68zm-11.76 5.35V76.67h-2v26.22h2zm-1-25.22h4.37v-2h-4.37v2zm3.37-1v9.47h2v-9.47h-2zm1.62 10.26a7.57 7.57 0 014.87-1.74v-2c-2.27 0-4.31.73-6.12 2.17l1.25 1.57zm4.87-1.74c2.23 0 4.08.8 5.59 2.44l1.47-1.36a9.27 9.27 0 00-7.06-3.08v2zm5.6 2.45a8.56 8.56 0 012.28 6.16h2c0-3-.93-5.54-2.83-7.54l-1.45 1.38zm2.28 6.16c0 2.53-.78 4.57-2.3 6.21l1.48 1.36a10.76 10.76 0 002.82-7.57h-2zm-2.28 6.2a7.39 7.39 0 01-5.6 2.42v2a9.39 9.39 0 007.05-3.04L204.9 100zm-5.6 2.42c-1.8 0-3.4-.58-4.87-1.74l-1.25 1.56a9.56 9.56 0 006.12 2.18v-2zm-6.5-.96v1.43h2v-1.43h-2zm1 .43h-4.36v2h4.37v-2zm9.13-12.51a5.54 5.54 0 00-4.2-1.82v2c1.1 0 2 .38 2.74 1.18l1.46-1.36zm-4.2-1.82c-1.64 0-3.06.61-4.19 1.82l1.47 1.36a3.54 3.54 0 012.73-1.18v-2zm-4.19 1.82a6.28 6.28 0 00-1.66 4.42h2c0-1.26.38-2.26 1.13-3.06l-1.47-1.36zm-1.66 4.42c0 1.72.54 3.22 1.66 4.42l1.47-1.36a4.29 4.29 0 01-1.13-3.06h-2zm1.66 4.42a5.54 5.54 0 004.2 1.83v-2c-1.1 0-2-.4-2.73-1.19l-1.47 1.36zm4.2 1.83c1.65 0 3.07-.62 4.19-1.83l-1.47-1.36a3.54 3.54 0 01-2.72 1.19v2zm4.19-1.83a6.29 6.29 0 001.7-4.42h-2a4.3 4.3 0 01-1.16 3.06l1.46 1.36zm1.7-4.42c0-1.7-.56-3.2-1.7-4.42l-1.46 1.36a4.3 4.3 0 011.16 3.06h2zm27.99 1.61v1h.86l.13-.85-1-.15zm-14.44 0v-1h-1.31l.34 1.26.97-.26zm1.92 2.9l-.61.79.02.02.59-.8zm7.66-.84l.28-.96-.64-.18-.42.5.78.64zm4.23 1.23l.87.5.63-1.11-1.23-.35-.27.96zm-3.53 3.46l-.49-.88.49.88zm-12-1.47l-.7.7v.01h.01l.7-.71zm-.07-13.74l-.7-.7.7.7zm13.6 0l-.7.7.7-.7zm-11.78 5.07l-.96-.28-.36 1.28h1.32v-1zm10.04 0v1h1.35l-.4-1.3-.95.3zm-1.93-2.76l.6-.8-.6.8zm6.3 5.15h-14.44v2h14.44v-2zm-15.4 1.26a6.4 6.4 0 002.27 3.43l1.23-1.58a4.4 4.4 0 01-1.58-2.38l-1.93.53zm2.29 3.45a6.56 6.56 0 003.98 1.27v-2c-1.08 0-2-.3-2.8-.88l-1.18 1.6zm3.98 1.27c2.07 0 3.78-.75 5.04-2.28l-1.55-1.27a4.22 4.22 0 01-3.49 1.56v2zm3.99-1.96l4.23 1.23.55-1.92-4.22-1.23-.56 1.92zm3.64-.23a8 8 0 01-3.15 3.08l.97 1.75a10 10 0 003.92-3.84l-1.74-.99zm-3.15 3.09a8.96 8.96 0 01-4.48 1.13v2c1.98 0 3.8-.46 5.46-1.4l-.98-1.73zm-4.48 1.13a8.74 8.74 0 01-6.33-2.45l-1.39 1.44c2.09 2.01 4.69 3 7.72 3v-2zm-6.32-2.44a8.36 8.36 0 01-2.5-6.18h-2c0 2.98 1.03 5.54 3.09 7.6l1.41-1.42zm-2.5-6.18c0-2.5.82-4.53 2.43-6.14l-1.41-1.42a10.3 10.3 0 00-3.02 7.56h2zm2.43-6.14a8.27 8.27 0 016.11-2.47v-2c-2.96 0-5.49 1.02-7.52 3.05l1.41 1.42zm6.11-2.47c2.45 0 4.45.82 6.07 2.46l1.43-1.4a10.14 10.14 0 00-7.5-3.06v2zm6.08 2.47a8.3 8.3 0 012.47 6.14h2a10.3 10.3 0 00-3.06-7.56l-1.41 1.42zm2.47 6.14c0 .38-.04.86-.13 1.46l1.98.3c.1-.66.15-1.25.15-1.76h-2zm-13.55-.78h10.04v-2H218.2v2zm11-1.3a6.3 6.3 0 00-2.29-3.26l-1.2 1.6a4.3 4.3 0 011.57 2.25l1.91-.58zm-2.29-3.26a6.17 6.17 0 00-3.78-1.25v2c.98 0 1.83.28 2.58.85l1.2-1.6zm-3.78-1.25c-1.36 0-2.6.42-3.68 1.25l1.22 1.59a3.92 3.92 0 012.46-.84v-2zm-3.68 1.25a6.18 6.18 0 00-2.2 3.28l1.91.55c.27-.94.77-1.68 1.5-2.24l-1.21-1.59z" fill="#000"/>
  <path d="M221.26 120.3l28.94-16.72v33.43l-28.94-16.71z" fill="#31D67B"/>
  <path d="M239.57 120.3l28.95-16.72v33.43l-28.95-16.71z" fill="#31D67B"/>
  <path d="M258.87 120.3l28.94-16.72v33.43l-28.94-16.71z" fill="#31D67B"/>
</svg>
