<svg width="341" height="180" fill="none" xmlns="http://www.w3.org/2000/svg">
  <path d="M81 47.8c-13.4 1-39.2 11.7-40.4 40.5 0 36 27.5 45.5 41 45.5H228M80.9 47.8h27.7" stroke="#000"/>
  <g clip-path="url(#clip0)">
    <path fill="#4AE991" d="M173.4 56.2h127v89h-127z"/>
    <path d="M151.7 91.6c40.6-36.5 74.8-36.9 102.6-1.2 27.7 35.7 62 35.3 102.5-1.2" stroke="#31D67B" stroke-width="2"/>
    <path d="M155.2 122c34.7-42.1 68.5-47.6 101.2-16.4 32.7 31.2 66.5 25.8 101.2-16.3" stroke="#31D67B" stroke-width="2"/>
    <path d="M154 130.1c39-38.2 73.2-40 102.4-5.5 29.2 34.6 63.4 32.7 102.4-5.4" stroke="#31D67B" stroke-width="2"/>
    <path d="M153.2 138.1c43.3-33.2 77.4-31 102.3 6.8 25 37.7 59 40 102.3 6.7" stroke="#31D67B" stroke-width="2"/>
    <path d="M144.2 164.1c35.5-27.2 63.4-25.4 83.9 5.5 20.4 31 48.4 32.8 84 5.6M184.5 52c37.5-24.6 65.2-20.6 83.3 11.8 18 32.4 45.8 36.4 83.2 11.8" stroke="#31D67B" stroke-width="2"/>
  </g>
  <path fill="#A57CFE" d="M76.8 84h52v27h-52zM132.8 84h29v27h-29zM165.8 84h19v27h-19zM188.8 84h10v27h-10zM202.8 84h10v27h-10zM216.8 84h10v27h-10zM230.8 84h4v27h-4zM238.8 84h4v27h-4zM246.8 84h4v27h-4z"/>
  <circle cx="118.2" cy="47.4" r="17.8" transform="rotate(23.2 118.2 47.4)" fill="#F5F5F5" stroke="#000"/>
  <path d="M101.1 41.9l55.3-1.2m0 0l-1.5-.2m1.5.2l-1.5.4M100.3 47.8l42.2-.8m0 0l-1.1-.3m1.1.3l-1.1.3M100.9 53l31.3-.7m0 0l-.8-.3m.8.3l-.8.4" stroke="#000"/>
  <defs>
    <clipPath id="clip0">
      <path fill="#fff" transform="translate(173.4 56.2)" d="M0 0h127v89H0z"/>
    </clipPath>
  </defs>
</svg>
