<svg width="342" height="180" fill="none" xmlns="http://www.w3.org/2000/svg">
  <path d="M213.5 64h73m0 0l-2-1m2 1l-2 1M210.5 89h103m0 0l-2.8-1m2.8 1l-2.8 1M132.5 108h-103m0 0l2.8-1m-2.8 1l2.8 1M155.5 77h-103m0 0l2.8-1m-2.8 1l2.8 1" stroke="#000"/>
  <g clip-path="url(#clip0)">
    <rect x="95.5" y="15" width="151" height="151" rx="75.5" fill="#4AE991"/>
    <path d="M139.8 45.9V39c0-2.1.8-4 2.3-5.4a8.3 8.3 0 015.8-2.1c2.3 0 4.3.7 5.8 2.1a7 7 0 012.4 5.4V46a7 7 0 01-2.4 5.4 8.1 8.1 0 01-5.8 2.2c-2.3 0-4.2-.8-5.8-2.2a7 7 0 01-2.3-5.4zm3.9-6.8V46c0 1 .4 2 1.2 2.7.8.7 1.8 1 3 1s2.2-.3 3-1c.9-.8 1.3-1.7 1.3-2.7v-7c0-1-.4-1.9-1.3-2.6a4.3 4.3 0 00-3-1.1c-1.2 0-2.2.3-3 1-.8.8-1.2 1.7-1.2 2.8zm26.2-2.3l-3.6 1.8-1.6-3.4L171 32h2.8v21H170V36.8zm25 1.3c0-.8-.3-1.4-1-2-.7-.5-1.5-.8-2.4-.8-.9 0-1.7.3-2.4.8a5 5 0 00-1.6 2.2l-3.6-1.7a8.3 8.3 0 017.6-5c2.1 0 3.9.6 5.3 1.8a5.9 5.9 0 011 8c-.7 1.2-1.8 2.5-3.4 4l-4 3.9h8.7V53h-14.8v-3l7.7-7.3c2-1.8 2.9-3.4 2.9-4.6zm23.4-.2c0-.8-.4-1.4-1-1.9-.7-.5-1.6-.7-2.7-.7-.8 0-1.6.2-2.2.5-.7.4-1.1.8-1.4 1.4l-3.6-1.7a6.7 6.7 0 012.9-2.9c1.3-.7 2.8-1 4.4-1 2.2 0 4 .5 5.4 1.7a5.4 5.4 0 012.2 4.4c0 1.8-.8 3.2-2.3 4.4a5.6 5.6 0 012.8 4.9c0 1.9-.7 3.4-2.2 4.6a8.8 8.8 0 01-5.7 1.9c-1.9 0-3.5-.5-5-1.3-1.3-1-2.3-2-2.8-3.5l3.8-1.3a3 3 0 001.4 1.7 5 5 0 002.6.6c1 0 2-.2 2.8-.8.7-.5 1.1-1.2 1.1-2 0-.9-.4-1.5-1.1-2-.8-.6-1.7-.9-2.8-.9h-1.5v-3.5h1c1.1 0 2-.2 2.8-.7.7-.5 1-1.2 1-2zM241.9 53v-4H231v-3.7L242 32h3.8v13.3h2.6V49h-2.6v4h-3.9zm0-15.2l-6.2 7.5h6.2v-7.5zm30.3 8.5c0 2-.7 3.7-2.3 5.1a8.3 8.3 0 01-5.7 2c-1.9 0-3.5-.4-4.9-1.4a8 8 0 01-3-4l3.9-1a4.2 4.2 0 004 2.7 4 4 0 002.8-1 3.2 3.2 0 00-.1-5c-.8-.6-1.9-1-3.1-1h-5.9L259 32h11.4v3.6h-8.2l-.3 3.6h2c2.4 0 4.4.7 6 2 1.5 1.4 2.3 3 2.3 5.1z" fill="#A57CFE"/>
    <path d="M142.1 33.7l-.7-.7.7.7zm11.6 0l-.7.7.7-.7zm0 17.6l-.7-.7.7.7zm-11.6 0l-.7.7.7-.7zm2.8-2.6l-.7.7.7-.7zm6 0l.7.7-.7-.7zm0-12.3l-.6.7.6-.7zm-6 0l.7.7-.7-.7zm-4.1 9.5V39h-2V46h2zm0-6.8a6 6 0 012-4.7l-1.4-1.4a8 8 0 00-2.6 6.1h2zm2-4.7c1.3-1.2 3-1.8 5.1-1.8v-2c-2.5 0-4.7.7-6.5 2.4l1.4 1.4zm5.1-1.8c2.1 0 3.8.6 5.1 1.8l1.4-1.4a9.1 9.1 0 00-6.5-2.4v2zm5.1 1.8a6 6 0 012 4.7h2a8 8 0 00-2.6-6.1l-1.4 1.4zm2 4.7V46h2V39h-2zm0 6.8a6 6 0 01-2 4.7l1.4 1.4A8 8 0 00157 46h-2zm-2 4.7a7.2 7.2 0 01-5 1.9v2c2.5 0 4.6-.8 6.4-2.5l-1.4-1.4zm-5 1.9c-2.2 0-3.9-.7-5.2-2l-1.4 1.5c1.8 1.7 4 2.5 6.5 2.5v-2zm-5.2-2a6 6 0 01-2-4.6h-2a8 8 0 002.6 6.1l1.4-1.4zm-.1-11.4V46h2v-7h-2zm0 6.9c0 1.3.5 2.5 1.5 3.4l1.4-1.5c-.6-.5-1-1.2-1-2h-2zm1.5 3.4c1 .9 2.3 1.3 3.7 1.3v-2c-1 0-1.7-.3-2.3-.8l-1.4 1.5zm3.7 1.3c1.4 0 2.7-.4 3.7-1.3l-1.3-1.5c-.6.5-1.4.8-2.4.8v2zm3.7-1.3c1-1 1.6-2.1 1.6-3.4h-2c0 .7-.3 1.3-1 2l1.4 1.4zm1.6-3.4v-7h-2v7h2zm0-7c0-1.3-.6-2.5-1.6-3.4l-1.3 1.5c.6.6.9 1.2.9 2h2zm-1.6-3.4c-1-.9-2.2-1.3-3.7-1.3v2c1 0 1.8.3 2.4.8l1.3-1.5zm-3.7-1.3c-1.4 0-2.7.4-3.7 1.3l1.4 1.5c.6-.5 1.3-.8 2.3-.8v-2zm-3.7 1.3c-1 1-1.5 2.1-1.5 3.5h2c0-.8.3-1.4.9-2l-1.4-1.5zm25.7 1.2h1v-1.6l-1.4.7.4.9zm-3.6 1.8l-1 .4.5 1 1-.5-.5-1zm-1.6-3.4l-.5-1-.9.5.5.9.9-.4zM171 32v-1h-.2l-.2.1.4.9zm2.8 0h1v-1h-1v1zm0 21v1h1v-1h-1zm-3.9 0h-1v1h1v-1zm-.4-17.1l-3.7 1.8 1 1.8 3.6-1.8-1-1.8zm-2.3 2.2l-1.6-3.4-1.8.9 1.6 3.4 1.8-.9zm-2.1-2l6.4-3.2-1-1.8-6.3 3.2.9 1.7zm6-3.1h2.7v-2H171v2zm1.7-1v21h2V32h-2zm1 20H170v2h4v-2zm-2.9 1V36.8h-2V53h2zm23-16.9l-.7.8.7-.8zm-4.8 0l.6.8-.6-.8zm-1.6 2.2l-.4 1 1 .4.3-1-1-.4zm-3.6-1.7l-1-.4-.3 1 .9.3.4-.9zm3-3.7l.6.9-.6-.9zm9.9.5l-.7.8.7-.8zm1 8l.9.5-.9-.5zm-3.4 4l.7.7-.7-.7zm-4 3.9l-.8-.7-1.8 1.7h2.5v-1zm8.7 0h1v-1h-1v1zm0 3.7v1h1v-1h-1zm-14.8 0h-1v1h1v-1zm0-3l-.7-.6-.3.3v.4h1zm7.7-7.3l.7.8-.7-.8zm3.9-4.6c0-1.1-.5-2-1.4-2.8l-1.3 1.6c.5.4.7.8.7 1.2h2zm-1.4-2.7c-.8-.8-1.8-1.1-3-1.1v2c.7 0 1.3.2 1.7.6l1.3-1.5zm-3-1.1c-1.1 0-2.1.3-3 1l1.2 1.6c.5-.4 1.1-.6 1.8-.6v-2zm-3 1a6 6 0 00-2 2.7l2 .7a4 4 0 011.2-1.8l-1.2-1.6zm-.6 2.1l-3.6-1.7-.8 1.8 3.6 1.7.8-1.8zm-3-.4a7.3 7.3 0 012.6-3.2l-1.1-1.7a9.3 9.3 0 00-3.4 4.1l1.8.8zm2.6-3.2a7 7 0 014-1.2v-2a9 9 0 00-5.1 1.5l1.1 1.7zm4-1.2c1.9 0 3.4.5 4.6 1.6l1.3-1.5a8.6 8.6 0 00-5.9-2.1v2zm4.6 1.6c1.2 1 1.8 2.3 1.8 3.8h2c0-2-.8-3.9-2.5-5.3l-1.3 1.5zm1.8 3.8c0 .9-.3 1.8-1 2.9l1.8 1a7.5 7.5 0 001.2-3.9h-2zm-1 2.9a21 21 0 01-3.2 3.8l1.4 1.4c1.6-1.5 2.8-3 3.6-4.2l-1.7-1zm-3.2 3.8l-4 3.9L191 50l4.1-3.9-1.4-1.4zm-3.4 5.6h8.8v-2h-8.8v2zm7.8-1V53h2v-3.7h-2zm1 2.7h-14.8v2h14.8v-2zm-13.8 1v-3h-2v3h2zm-.3-2.2l7.7-7.3-1.4-1.5-7.7 7.4 1.4 1.4zm7.7-7.3c1-1 1.8-2 2.3-2.8a5 5 0 00.9-2.6h-2c0 .4-.1.9-.6 1.6-.4.6-1 1.4-2 2.3l1.4 1.5zm24.6-7.5l.5-.8-.5.8zm-5-.2l.5.9-.4-.9zm-1.3 1.4l-.5.9.9.4.4-.9-.8-.4zm-3.6-1.7l-.9-.5-.5 1 1 .4.4-1zm2.9-2.9l.5 1-.5-1zm9.8.7l-.6.8.6-.8zm0 8.8l-.7-.8-1 .9 1.1.8.5-.9zm.5 9.5l-.7-.8.7.8zm-10.6.6l-.5.8.5-.8zm-2.9-3.5l-.3-.9-1 .3.4 1 1-.4zm3.8-1.3l1-.3-.4-1-1 .4.4 1zm1.4 1.7l-.5.9.5-.9zm5.4-.2l.6.8-.6-.8zm0-4l-.6.7.6-.8zm-4.3-.9h-1v1h1v-1zm0-3.5v-1h-1v1h1zm5.9-2.6c0-1.1-.6-2-1.5-2.7l-1.1 1.6c.4.4.6.7.6 1h2zm-1.5-2.7c-.8-.6-2-1-3.2-1v2c1 0 1.6.3 2 .6l1.2-1.6zm-3.2-1c-1 0-1.9.3-2.7.7l1 1.8c.4-.3 1-.4 1.7-.4v-2zm-2.7.7c-.8.4-1.4 1-1.8 1.8l1.7 1c.2-.4.5-.7 1-1l-1-1.8zm-.5 1.4l-3.6-1.7-.8 1.8 3.5 1.7.9-1.8zm-3.1-.4c.5-1 1.3-1.8 2.5-2.4l-1-1.7a7.7 7.7 0 00-3.3 3.2l1.8 1zm2.5-2.4c1.1-.6 2.4-1 3.9-1v-2c-1.8 0-3.4.4-4.9 1.3l1 1.7zm3.9-1c2 0 3.5.6 4.8 1.6l1.3-1.6a9.4 9.4 0 00-6.1-2v2zm4.8 1.6c1.2 1 1.8 2.2 1.8 3.6h2c0-2-.9-3.8-2.5-5.2l-1.3 1.6zm1.8 3.6c0 1.4-.6 2.6-1.9 3.6l1.3 1.6c1.7-1.4 2.6-3 2.6-5.2h-2zm-1.8 5.3c1.6 1 2.3 2.3 2.3 4h2c0-2.4-1.1-4.4-3.2-5.7l-1.1 1.7zm2.3 4c0 1.5-.6 2.8-1.9 3.8l1.3 1.6a6.7 6.7 0 002.6-5.4h-2zm-1.9 3.8c-1.3 1.1-3 1.7-5 1.7v2c2.4 0 4.6-.7 6.3-2.1l-1.3-1.6zm-5 1.7c-1.7 0-3.2-.4-4.4-1.2l-1 1.7c1.5 1 3.4 1.5 5.4 1.5v-2zm-4.4-1.2c-1.2-.8-2-1.7-2.4-2.9l-1.9.7c.6 1.6 1.7 3 3.3 4l1-1.8zm-3-1.6l3.7-1.3-.6-2-3.8 1.4.7 1.9zm2.4-2a4 4 0 001.9 2.3l1-1.8a2 2 0 01-1-1l-1.9.5zm1.9 2.3c.9.5 2 .7 3 .7v-2a4 4 0 01-2-.5l-1 1.8zm3 .7c1.3 0 2.5-.3 3.5-1l-1.2-1.6c-.6.4-1.3.6-2.2.6v2zm3.5-1c1-.7 1.5-1.7 1.5-2.9h-2c0 .5-.2 1-.7 1.3l1.2 1.6zm1.5-2.9c0-1.2-.6-2.1-1.6-2.8l-1 1.7c.4.3.6.7.6 1.1h2zm-1.5-2.8c-1-.7-2.1-1-3.4-1v2c1 0 1.6.3 2.2.6l1.2-1.6zm-3.4-1h-1.5v2h1.5v-2zm-.5 1v-3.5h-2V44h2zm-1-2.5h1v-2h-1v2zm1 0c1.3 0 2.4-.3 3.3-.9l-1.1-1.7c-.5.4-1.2.6-2.2.6v2zm3.3-.9c1-.7 1.6-1.6 1.6-2.7h-2c0 .3-.2.7-.7 1l1.1 1.7zM242 53h-1v1h1v-1zm0-4h1v-1h-1v1zM231 49h-1v1h1v-1zm0-3.7l-.7-.7-.3.3v.4h1zM242 32v-1h-.4l-.3.4.8.6zm3.8 0h1v-1h-1v1zm0 13.3h-1v1h1v-1zm2.6 0h1v-1h-1v1zm0 3.7v1h1v-1h-1zm-2.6 0v-1h-1v1h1zm0 4v1h1v-1h-1zm-3.9-15.2h1V35l-1.8 2.1.8.7zm-6.2 7.5l-.8-.7-1.4 1.7h2.2v-1zm6.2 0v1h1v-1h-1zm1 7.7v-4h-2v4h2zm-1-5H231v2h11v-2zm-9.9 1v-3.7h-2V49h2zm-.2-3.1l11-13.3-1.5-1.2-11 13.2 1.5 1.3zM242 33h3.7v-2H242v2zm2.7-1v13.3h2V32h-2zm1 14.3h2.6v-2h-2.6v2zm1.6-1V49h2v-3.7h-2zm1 2.7h-2.6v2h2.6v-2zm-3.6 1v4h2v-4h-2zm1 3h-3.9v2h3.9v-2zM241 37.1l-6.2 7.5 1.5 1.3 6.3-7.5-1.6-1.3zm-5.4 9.2h6.2v-2h-6.2v2zm7.2-1v-7.5h-2v7.5h2zm27 6.1l.7.8-.7-.8zm-10.6.6l-.5.8.5-.8zm-3-4l-.2-.9-1 .3.3 1 1-.3zm3.9-1l1-.3-.4-.9-.9.3.3 1zm1.6 2l-.6.8.6-.8zm5.2-.3l-.6-.7.6.7zm0-5l-.7.8.6-.8zm-9-1h-1l-.2 1h1.1v-1zm1-10.7v-1h-1v.9l1 .1zm11.4 0h1v-1h-1v1zm0 3.6v1h1v-1h-1zm-8.2 0v-1h-1v.9h1zm-.3 3.6l-1-.1-.1 1h1v-1zm8 2l-.7.8.7-.8zm1.3 5.1c0 1.7-.6 3.2-2 4.4l1.4 1.5a7.6 7.6 0 002.6-5.9h-2zm-2 4.4a7.3 7.3 0 01-5 1.8v2c2.5 0 4.6-.8 6.4-2.3l-1.3-1.5zm-5 1.8c-1.7 0-3-.5-4.3-1.3l-1.1 1.6c1.5 1.1 3.4 1.7 5.4 1.7v-2zm-4.3-1.3a7 7 0 01-2.6-3.5l-2 .7a9 9 0 003.5 4.4l1.1-1.6zm-3.3-2.2l3.9-1-.6-2-3.8 1.1.5 2zm2.7-1.6c.4 1 1 1.8 2 2.4l1-1.6c-.5-.4-1-.9-1.2-1.5l-1.8.7zm2 2.4c.8.6 1.8 1 3 1v-2c-.8 0-1.4-.3-2-.6l-1 1.6zm3 1a5 5 0 003.4-1.3l-1.3-1.5a3 3 0 01-2.2.7v2zm3.4-1.3a4 4 0 001.5-3.2h-2a2 2 0 01-.8 1.7l1.3 1.5zm1.5-3.2c0-1.4-.6-2.5-1.7-3.4l-1.2 1.6c.6.5 1 1.1 1 1.8h2zm-1.6-3.3c-1-.9-2.4-1.3-3.8-1.3v2c1 0 1.9.3 2.5.8l1.3-1.5zm-3.8-1.3h-5.9v2h5.9v-2zm-4.9 1.1l1-10.7-1.9-.2-1 10.7 2 .2zm.1-9.8h11.4v-2H259v2zm10.4-1v3.6h2V32h-2zm1 2.6h-8.2v2h8.2v-2zm-9.2.9L261 39l2 .2.3-3.6-2-.2zm.7 4.7h2v-2h-2v2zm2 0c2.2 0 4 .6 5.3 1.8l1.3-1.5a9.7 9.7 0 00-6.5-2.3v2zm5.3 1.8c1.4 1.1 2 2.5 2 4.3h2c0-2.3-.9-4.3-2.7-5.9l-1.3 1.6z" fill="#000"/>
    <path d="M129.2 80.6l-3.6 1.7c-.8-1.3-2-2-3.7-2-1.2 0-2.2.3-3 1-.8.8-1.2 1.7-1.2 2.7v1.5c1.2-.7 2.6-1 4-1a8 8 0 015.6 2c1.5 1.4 2.3 3 2.3 5s-.8 3.6-2.3 5a8.2 8.2 0 01-5.6 2c-2.2 0-4.1-.7-5.6-2a6.4 6.4 0 01-2.3-5V84c0-2.2.8-4 2.3-5.4a8.2 8.2 0 015.8-2.1c1.6 0 3 .3 4.3 1 1.3.8 2.3 1.8 3 3zm-11.4 10.8a3 3 0 001.2 2.4c.7.6 1.6 1 2.7 1s2-.4 2.8-1c.7-.6 1-1.4 1-2.3a3 3 0 00-1-2.3c-.8-.7-1.7-1-2.8-1a4 4 0 00-2.8 1c-.7.6-1 1.3-1 2.2zm35.7 0c0 2-.7 3.6-2.3 5a8.3 8.3 0 01-5.7 2c-1.9 0-3.5-.4-4.9-1.4a8 8 0 01-3-4l3.9-1a4.2 4.2 0 004 2.7 4 4 0 002.8-1 3.2 3.2 0 00-.1-5c-.8-.6-1.9-1-3.1-1h-5.9l1-10.7h11.5v3.6h-8.2l-.3 3.6h2c2.4 0 4.4.7 6 2 1.5 1.4 2.3 3 2.3 5.1zm19 6.6v-4h-10.8v-3.7l11-13.3h3.8v13.3h2.6V94h-2.6v4h-4zm0-15.2l-6.1 7.5h6.2v-7.5zm25.3 0c0-.7-.3-1.3-1-1.8s-1.5-.7-2.6-.7c-.9 0-1.6.2-2.3.5-.6.4-1 .8-1.4 1.4l-3.5-1.7a6.7 6.7 0 012.9-2.9c1.3-.7 2.7-1 4.3-1 2.2 0 4 .5 5.5 1.7a5.4 5.4 0 012.2 4.4c0 1.8-.8 3.2-2.3 4.4a5.6 5.6 0 012.8 4.9c0 1.9-.8 3.4-2.3 4.6a8.8 8.8 0 01-5.7 1.9c-1.8 0-3.4-.5-4.8-1.3-1.4-1-2.4-2-2.9-3.5l3.8-1.3a3 3 0 001.4 1.7 5 5 0 002.5.6c1.1 0 2-.2 2.8-.8.8-.5 1.2-1.2 1.2-2 0-.9-.4-1.5-1.2-2-.7-.6-1.6-.9-2.7-.9H193v-3.5h1.1c1 0 2-.2 2.7-.7.8-.5 1.1-1.2 1.1-2zm23.6.3c0-.8-.3-1.4-1-2a3.9 3.9 0 00-4.8 0 5 5 0 00-1.6 2.2l-3.6-1.7a8.3 8.3 0 017.7-5c2 0 3.8.6 5.2 1.8a5.9 5.9 0 011 8c-.6 1.2-1.8 2.5-3.3 4l-4.1 3.9h8.7V98H211v-3l7.7-7.3c1.9-1.8 2.8-3.4 2.8-4.6zm18.1-1.3l-3.6 1.8-1.6-3.4 6.3-3.2h2.8v21h-3.9V81.8zm14.4 9v-6.7c0-2.1.8-4 2.3-5.4a8.3 8.3 0 015.9-2.1c2.3 0 4.2.7 5.8 2.1a7 7 0 012.3 5.4V91a7 7 0 01-2.3 5.4 8.1 8.1 0 01-5.8 2.2c-2.4 0-4.3-.8-5.9-2.2a7 7 0 01-2.3-5.4zm4-6.7V91c0 1 .3 2 1.1 2.7.9.7 1.9 1 3 1 1.3 0 2.3-.3 3.1-1 .8-.8 1.2-1.7 1.2-2.7v-7c0-1-.4-1.9-1.2-2.6a4.3 4.3 0 00-3-1.1c-1.3 0-2.3.3-3 1-.9.8-1.3 1.7-1.3 2.8z" fill="#A57CFE"/>
    <path d="M129.2 80.6l.4 1 1-.5-.5-1-.9.5zm-3.6 1.7l-.9.5.5.8.8-.4-.4-.9zm-6.7-1l-.7-.7.7.8zm-1.2 4.2h-1V87l1.5-.8-.5-.8zm9.6 1l-.6.8.6-.8zm0 10l.7.7-.7-.7zm-11.2 0l-.7.7.7-.8zm0-17.8l-.6-.7.6.7zm10.1-1l-.5.8.5-.8zM119 93.8l-.6.8.7-.8zm5.6 0l.6.8-.6-.8zm0-4.6l-.7.7.7-.7zm-5.5 0l.6.7-.6-.7zm9.8-9.5l-3.6 1.7.8 1.8 3.6-1.7-.8-1.8zm-2.3 2.2a5 5 0 00-4.6-2.6v2c1.4 0 2.3.5 2.8 1.5l1.8-1zm-4.6-2.6c-1.5 0-2.7.4-3.7 1.3l1.3 1.5c.6-.5 1.4-.8 2.4-.8v-2zm-3.7 1.3c-1 1-1.5 2-1.5 3.4h2c0-.8.3-1.4.8-2l-1.3-1.4zm-1.5 3.4v1.5h2V84h-2zm1.5 2.3c1-.5 2.2-.8 3.6-.8v-2c-1.7 0-3.2.3-4.6 1l1 1.8zm3.6-.8c2 0 3.6.6 4.9 1.8l1.3-1.5a9 9 0 00-6.2-2.3v2zm4.9 1.8c1.3 1.1 1.9 2.5 1.9 4.2h2c0-2.3-.9-4.2-2.6-5.7l-1.3 1.5zm1.9 4.2c0 1.7-.6 3-2 4.2l1.4 1.5a7.3 7.3 0 002.6-5.7h-2zm-2 4.2a7.2 7.2 0 01-4.9 1.8v2c2.5 0 4.6-.8 6.3-2.3l-1.3-1.5zm-4.9 1.8c-2 0-3.7-.6-5-1.8l-1.3 1.5a9.2 9.2 0 006.3 2.3v-2zm-5-1.8a5.4 5.4 0 01-1.9-4.2h-2c0 2.2.9 4.2 2.6 5.7l1.3-1.5zm-1.9-4.2V84h-2v7.4h2zm0-7.4a6 6 0 012-4.7l-1.4-1.4a8 8 0 00-2.6 6h2zm2-4.7c1.4-1.2 3-1.8 5.1-1.8v-2c-2.5 0-4.7.8-6.4 2.4l1.3 1.4zm5.1-1.8c1.5 0 2.7.3 3.8 1l1-1.8c-1.4-.8-3-1.2-4.8-1.2v2zm3.9 1c1 .6 2 1.4 2.5 2.5l1.8-1c-.8-1.4-2-2.5-3.4-3.3l-1 1.7zm-9 12.8a4 4 0 001.5 3.2l1.3-1.6a2 2 0 01-.8-1.6h-2zm1.5 3.2c1 .8 2.1 1.1 3.4 1.1v-2c-.9 0-1.6-.2-2.1-.7l-1.3 1.6zm3.4 1.1c1.3 0 2.5-.3 3.4-1.1l-1.3-1.6c-.5.5-1.2.7-2 .7v2zm3.4-1.1c1-.8 1.5-1.9 1.5-3h-2c0 .5-.2 1-.8 1.4l1.3 1.6zm1.5-3a4 4 0 00-1.5-3.2l-1.3 1.5c.5.4.8 1 .8 1.6h2zm-1.5-3.2c-1-.8-2.1-1.2-3.4-1.2v2c.9 0 1.6.2 2.1.7l1.3-1.5zm-3.4-1.2a5 5 0 00-3.4 1.2l1.3 1.5a3 3 0 012.1-.7v-2zm-3.4 1.2c-1 .8-1.5 1.8-1.5 3h2c0-.5.3-1 .8-1.5l-1.3-1.5zm33 8l.6.8-.7-.8zm-10.7.6l-.5.8.5-.8zm-3-4l-.2-.9-1 .3.3 1 1-.3zm3.9-1l1-.3-.4-.9-.9.3.3 1zm1.6 2l-.6.8.6-.8zm5.2-.3l-.6-.7.6.7zm0-5l-.7.8.6-.8zm-9-1h-1l-.2 1h1.1v-1zm1-10.7v-1h-1v.9l1 .1zm11.4 0h1v-1h-1v1zm0 3.6v1h1v-1h-1zm-8.2 0v-1h-1v.9h1zm-.3 3.6l-1-.1-.1 1h1v-1zm8 2l-.7.8.7-.8zm1.3 5.1c0 1.7-.6 3.2-2 4.4l1.4 1.5a7.6 7.6 0 002.6-5.9h-2zm-2 4.4a7.3 7.3 0 01-5 1.8v2c2.5 0 4.6-.8 6.4-2.3l-1.3-1.5zm-5 1.8c-1.7 0-3-.5-4.3-1.3l-1.1 1.6c1.5 1.1 3.4 1.7 5.4 1.7v-2zm-4.3-1.3a7 7 0 01-2.6-3.5l-2 .7a9 9 0 003.5 4.4l1.1-1.6zm-3.3-2.2l3.9-1-.6-2-3.8 1.1.5 2zm2.7-1.6c.4 1 1 1.8 2 2.4l1-1.6c-.5-.4-1-.9-1.2-1.5l-1.8.7zm2 2.4c.8.6 1.8 1 3 1v-2c-.8 0-1.4-.3-2-.6l-1 1.6zm3 1a5 5 0 003.4-1.3l-1.3-1.5a3 3 0 01-2.2.7v2zm3.4-1.3a4 4 0 001.5-3.2h-2a2 2 0 01-.8 1.7l1.3 1.5zm1.5-3.2c0-1.4-.6-2.5-1.7-3.4l-1.2 1.6c.6.5 1 1.1 1 1.8h2zM149 88c-1-.9-2.4-1.3-3.8-1.3v2c1 0 1.9.3 2.5.8l1.3-1.5zm-3.8-1.3h-5.9v2h5.9v-2zm-4.9 1.1l1-10.7-1.9-.2-1 10.7 2 .2zm0-9.8h11.5v-2h-11.4v2zm10.5-1v3.6h2V77h-2zm1 2.6h-8.2v2h8.2v-2zm-9.2.9l-.3 3.6 2 .2.3-3.6-2-.2zm.7 4.7h2v-2h-2v2zm2 0c2.2 0 4 .6 5.3 1.8l1.3-1.5a9.7 9.7 0 00-6.5-2.3v2zm5.3 1.8c1.4 1.1 2 2.5 2 4.3h2c0-2.3-.9-4.3-2.7-5.9l-1.3 1.6zm22 11h-1v1h1v-1zm0-4h1v-1h-1v1zm-10.8 0h-1v1h1v-1zm0-3.7l-.8-.7-.2.3v.4h1zm11-13.3v-1h-.4l-.3.4.8.6zm3.8 0h1v-1h-1v1zm0 13.3h-1v1h1v-1zm2.6 0h1v-1h-1v1zm0 3.7v1h1v-1h-1zm-2.6 0v-1h-1v1h1zm0 4v1h1v-1h-1zm-4-15.2h1V80l-1.7 2.1.8.7zm-6.1 7.5l-.8-.7-1.4 1.7h2.2v-1zm6.2 0v1h1v-1h-1zm1 7.7v-4h-2v4h2zm-1-5h-10.9v2h10.9v-2zm-9.9 1v-3.7h-2V94h2zm-.2-3.1l11-13.3-1.5-1.2-11 13.2 1.5 1.3zM172.8 78h3.7v-2h-3.7v2zm2.7-1v13.3h2V77h-2zm1 14.3h2.6v-2h-2.6v2zm1.6-1V94h2v-3.7h-2zm1 2.7h-2.6v2h2.6v-2zm-3.6 1v4h2v-4h-2zm1 3h-4v2h4v-2zm-4.7-14.9l-6.2 7.5L167 91l6.3-7.5-1.6-1.3zm-5.4 9.2h6.2v-2h-6.2v2zm7.2-1v-7.5h-2v7.5h2zm23.2-9.3l.6-.8-.6.8zm-4.9-.2l.5.9-.5-.9zm-1.4 1.4l-.4.9.8.4.5-.9-.9-.4zm-3.5-1.7l-1-.5-.4 1 1 .4.4-1zm2.9-2.9l.4 1-.4-1zm9.8.7l-.6.8.6-.8zm0 8.8l-.7-.8-1.1.9 1.2.8.5-.9zm.4 9.5l-.6-.8.6.8zm-10.5.6l-.6.8.6-.8zm-2.9-3.5l-.3-.9-1 .3.4 1 1-.4zm3.8-1.3l1-.3-.4-1-1 .4.4 1zm1.4 1.7l-.6.9.6-.9zm5.3-.2l.6.8-.6-.8zm0-4l-.6.7.6-.8zM193 89h-1v1h1v-1zm0-3.5v-1h-1v1h1zm6-2.6c0-1.1-.6-2-1.5-2.7l-1.2 1.6c.5.4.6.7.6 1h2zm-1.5-2.7c-.9-.6-2-1-3.2-1v2c1 0 1.6.3 2 .6l1.2-1.6zm-3.2-1c-1 0-2 .3-2.8.7l1 1.8c.5-.3 1-.4 1.8-.4v-2zm-2.7.7c-.8.4-1.5 1-1.9 1.8l1.8 1c.2-.4.5-.7 1-1l-1-1.8zm-.6 1.4l-3.5-1.7-.8 1.8L190 83l.8-1.8zm-3-.4c.5-1 1.3-1.8 2.4-2.4l-1-1.7a7.7 7.7 0 00-3.2 3.2l1.8 1zm2.4-2.4c1.2-.6 2.5-1 4-1v-2c-1.8 0-3.5.4-5 1.3l1 1.7zm4-1c2 0 3.5.6 4.8 1.6l1.2-1.6a9.4 9.4 0 00-6-2v2zm4.8 1.6c1.2 1 1.8 2.2 1.8 3.6h2c0-2-1-3.8-2.6-5.2l-1.2 1.6zm1.8 3.6c0 1.4-.6 2.6-2 3.6l1.3 1.6c1.7-1.4 2.7-3 2.7-5.2h-2zM199 88c1.6 1 2.3 2.3 2.3 4h2c0-2.4-1.1-4.4-3.3-5.7l-1 1.7zm2.3 4c0 1.5-.6 2.8-2 3.8l1.3 1.6a6.7 6.7 0 002.7-5.4h-2zm-2 3.8c-1.2 1.1-2.9 1.7-5 1.7v2c2.5 0 4.6-.7 6.3-2.1l-1.2-1.6zm-5 1.7c-1.7 0-3.1-.4-4.3-1.2l-1 1.7c1.5 1 3.3 1.5 5.3 1.5v-2zm-4.3-1.2c-1.2-.8-2-1.7-2.4-2.9l-2 .7c.7 1.6 1.8 3 3.3 4l1-1.8zm-3-1.6l3.7-1.3-.7-2-3.7 1.4.6 1.9zm2.4-2a4 4 0 001.8 2.3l1-1.8a2 2 0 01-.9-1l-1.9.5zm1.9 2.3c.9.5 1.9.7 3 .7v-2a4 4 0 01-2-.5l-1 1.8zm3 .7c1.3 0 2.5-.3 3.4-1l-1.1-1.6c-.6.4-1.3.6-2.3.6v2zm3.4-1c1-.7 1.6-1.7 1.6-2.9h-2c0 .5-.2 1-.8 1.3l1.2 1.6zm1.6-2.9c0-1.2-.6-2.1-1.6-2.8l-1.1 1.7c.5.3.7.7.7 1.1h2zm-1.6-2.8c-1-.7-2-1-3.3-1v2c1 0 1.6.3 2.1.6l1.2-1.6zm-3.3-1H193v2h1.6v-2zm-.6 1v-3.5h-2V89h2zm-1-2.5h1.1v-2h-1v2zm1.1 0c1.2 0 2.4-.3 3.3-.9l-1.1-1.7c-.6.4-1.3.6-2.2.6v2zm3.3-.9c1-.7 1.5-1.6 1.5-2.7h-2c0 .3-.1.7-.6 1l1 1.7zm23.1-4.5l-.6.8.6-.8zm-4.8 0l.6.8-.6-.8zm-1.6 2.2l-.4 1 1 .4.4-1-1-.4zm-3.6-1.7l-.9-.4-.4 1 1 .3.3-.9zm3.1-3.7l.5.9-.5-.9zm9.8.5l-.7.8.7-.8zm1 8l1 .5-1-.5zm-3.3 4l.7.7-.7-.7zm-4.1 3.9l-.7-.7-1.8 1.7h2.5v-1zm8.7 0h1v-1h-1v1zm0 3.7v1h1v-1h-1zM211 98h-1v1h1v-1zm0-3l-.7-.6-.3.3v.4h1zm7.7-7.3l.7.8-.7-.8zm3.8-4.6c0-1.1-.5-2-1.3-2.8l-1.3 1.6c.5.4.6.8.6 1.2h2zm-1.3-2.7c-.9-.8-1.9-1.1-3-1.1v2c.7 0 1.2.2 1.7.6l1.3-1.5zm-3-1.1c-1.2 0-2.2.3-3 1l1.1 1.6c.6-.4 1.2-.6 1.9-.6v-2zm-3 1a6 6 0 00-2 2.7l1.9.7a4 4 0 011.2-1.8l-1.2-1.6zm-.6 2.1l-3.6-1.7-.9 1.8 3.6 1.7.9-1.8zm-3.1-.4a7.3 7.3 0 012.6-3.2l-1-1.7a9.3 9.3 0 00-3.5 4.1l1.9.8zm2.7-3.2a7 7 0 014-1.2v-2a9 9 0 00-5.2 1.5l1.2 1.7zm4-1.2c1.8 0 3.3.5 4.5 1.6l1.4-1.5a8.6 8.6 0 00-6-2.1v2zm4.5 1.6c1.3 1 1.9 2.3 1.9 3.8h2c0-2-.9-3.9-2.5-5.3l-1.4 1.5zm1.9 3.8c0 .9-.3 1.8-1 2.9l1.7 1a7.5 7.5 0 001.3-3.9h-2zm-1 2.9a21 21 0 01-3.2 3.8l1.4 1.4c1.5-1.5 2.8-3 3.5-4.2l-1.7-1zm-3.2 3.8l-4.1 3.9 1.3 1.4 4.2-3.9-1.4-1.4zm-3.4 5.6h8.7v-2H217v2zm7.7-1V98h2v-3.7h-2zm1 2.7H211v2h14.7v-2zM212 98v-3h-2v3h2zm-.4-2.2l7.8-7.3-1.4-1.5-7.7 7.4 1.3 1.4zm7.8-7.3c1-1 1.7-2 2.3-2.8a5 5 0 00.8-2.6h-2c0 .4-.1.9-.5 1.6l-2 2.3 1.4 1.5zm20.2-6.7h1v-1.6l-1.4.7.4.9zm-3.6 1.8l-.9.4.4 1 1-.5-.5-1zm-1.6-3.4l-.5-1-.8.5.4.9.9-.4zm6.3-3.2v-1h-.2l-.2.1.4.9zm2.8 0h1v-1h-1v1zm0 21v1h1v-1h-1zm-3.9 0h-1v1h1v-1zm-.4-17.1l-3.6 1.8.9 1.8 3.6-1.8-1-1.8zm-2.3 2.2l-1.6-3.4-1.8.9L235 84l1.8-.9zm-2-2l6.3-3.2-.9-1.8-6.4 3.2 1 1.7zm5.8-3.1h2.8v-2h-2.8v2zm1.8-1v21h2V77h-2zm1 20h-3.9v2h4v-2zm-2.9 1V81.8h-2V98h2zm15.8-19.3l-.7-.7.7.7zm11.6 0l-.7.7.7-.7zm0 17.6l-.7-.7.7.7zm-11.6 0l-.7.7.7-.7zm2.7-2.6l-.6.7.6-.7zm6.1 0l.7.7-.7-.7zm0-12.3l-.7.7.7-.7zm-6 0l.6.7-.7-.7zm-4.2 9.5V84h-2V91h2zm0-6.8a6 6 0 012-4.7l-1.3-1.4a8 8 0 00-2.7 6.1h2zm2-4.7c1.4-1.2 3-1.8 5.2-1.8v-2c-2.6 0-4.8.7-6.5 2.4l1.3 1.4zm5.2-1.8c2 0 3.7.6 5 1.8l1.4-1.4a9.1 9.1 0 00-6.4-2.4v2zm5 1.8a6 6 0 012.1 4.7h2a8 8 0 00-2.7-6.1l-1.3 1.4zm2.1 4.7V91h2V84h-2zm0 6.8a6 6 0 01-2 4.7l1.3 1.4a8 8 0 002.7-6.1h-2zm-2 4.7a7.2 7.2 0 01-5.1 1.9v2c2.5 0 4.7-.8 6.4-2.5l-1.3-1.4zm-5.1 1.9c-2.1 0-3.8-.7-5.2-2l-1.3 1.5c1.7 1.7 4 2.5 6.5 2.5v-2zm-5.2-2a6 6 0 01-2-4.6h-2a8 8 0 002.7 6.1l1.3-1.4zm0-11.4V91h2v-7h-2zm0 6.9c0 1.3.5 2.5 1.5 3.4l1.3-1.5c-.6-.5-.9-1.2-.9-2h-2zm1.5 3.4c1 .9 2.3 1.3 3.7 1.3v-2c-1 0-1.8-.3-2.4-.8l-1.3 1.5zm3.7 1.3c1.4 0 2.6-.4 3.7-1.3l-1.4-1.5c-.6.5-1.3.8-2.3.8v2zm3.7-1.3c1-1 1.5-2.1 1.5-3.4h-2c0 .7-.2 1.3-.9 2l1.4 1.4zm1.5-3.4v-7h-2v7h2zm0-7c0-1.3-.5-2.5-1.5-3.4l-1.4 1.5c.7.6 1 1.2 1 2h2zm-1.5-3.4c-1-.9-2.3-1.3-3.7-1.3v2c1 0 1.7.3 2.3.8l1.4-1.5zm-3.7-1.3c-1.5 0-2.7.4-3.7 1.3l1.3 1.5c.6-.5 1.4-.8 2.4-.8v-2zm-3.7 1.3c-1 1-1.6 2.1-1.6 3.5h2c0-.8.3-1.4 1-2l-1.4-1.5z" fill="#000"/>
    <path d="M75.2 125.6l-3.6 1.7c-.8-1.3-2-2-3.7-2-1.2 0-2.2.3-3 1-.8.8-1.2 1.7-1.2 2.7v1.5c1.2-.7 2.6-1 4-1a8 8 0 015.6 2c1.5 1.4 2.3 3 2.3 5s-.8 3.6-2.3 5a8.2 8.2 0 01-5.6 2c-2.2 0-4.1-.7-5.6-2a6.4 6.4 0 01-2.3-5V129c0-2.2.8-4 2.3-5.4a8.2 8.2 0 015.8-2.1c1.6 0 3 .3 4.3 1 1.3.8 2.3 1.8 3 3zm-11.4 10.8a3 3 0 001.2 2.4c.7.6 1.6 1 2.7 1s2-.4 2.8-1c.7-.6 1-1.4 1-2.3a3 3 0 00-1-2.3c-.8-.7-1.7-1-2.8-1a4 4 0 00-2.8 1c-.7.6-1 1.3-1 2.2zm35.7 0c0 2-.7 3.6-2.3 5a8.3 8.3 0 01-5.7 2c-1.9 0-3.5-.4-4.9-1.4a8 8 0 01-3-4l3.9-1a4.2 4.2 0 004 2.7 4 4 0 002.8-1 3.2 3.2 0 00-.1-5c-.8-.6-1.9-1-3.1-1h-5.9l1.1-10.7h11.4v3.6h-8.2l-.3 3.6h2c2.4 0 4.4.7 6 2 1.5 1.4 2.3 3 2.3 5.1zm19 6.6v-4h-10.8v-3.7l11-13.3h3.8v13.3h2.6v3.7h-2.6v4h-4zm0-15.2l-6.1 7.5h6.2v-7.5zm25.3 0c0-.7-.3-1.3-1-1.8s-1.5-.7-2.6-.7c-.9 0-1.6.2-2.3.5-.6.4-1 .8-1.4 1.4l-3.5-1.7a6.7 6.7 0 012.9-2.9c1.3-.7 2.7-1 4.3-1 2.2 0 4 .5 5.5 1.7a5.4 5.4 0 012.2 4.4c0 1.8-.8 3.2-2.3 4.4a5.6 5.6 0 012.8 4.9c0 1.9-.8 3.4-2.3 4.6a8.8 8.8 0 01-5.7 1.9c-1.8 0-3.4-.5-4.8-1.3-1.4-1-2.4-2-2.9-3.5l3.8-1.3a3 3 0 001.4 1.7 5 5 0 002.5.6c1.1 0 2-.2 2.8-.8.8-.5 1.2-1.2 1.2-2 0-.9-.4-1.5-1.2-2-.7-.6-1.6-.9-2.7-.9H139v-3.5h1.1c1 0 2-.2 2.7-.7.8-.5 1.1-1.2 1.1-2zm23.6.3c0-.8-.3-1.4-1-2a3.9 3.9 0 00-4.8 0 5 5 0 00-1.6 2.2l-3.6-1.7a8.3 8.3 0 017.7-5c2 0 3.8.6 5.2 1.8a5.9 5.9 0 011 8c-.6 1.2-1.8 2.5-3.3 4l-4.1 3.9h8.7v3.7H157v-3l7.7-7.3c1.9-1.8 2.8-3.4 2.8-4.6zm18.1-1.3l-3.6 1.8-1.6-3.4 6.3-3.2h2.8v21h-3.9v-16.2zm14.4 9v-6.7c0-2.1.8-4 2.3-5.4a8.3 8.3 0 015.9-2.1c2.3 0 4.2.7 5.8 2.1a7 7 0 012.3 5.4v6.8a7 7 0 01-2.3 5.4 8.1 8.1 0 01-5.8 2.2c-2.3 0-4.3-.8-5.8-2.2a7 7 0 01-2.4-5.4zm4-6.7v6.9c0 1 .3 2 1.1 2.7.9.7 1.9 1 3 1 1.3 0 2.3-.3 3.1-1 .8-.8 1.2-1.7 1.2-2.7v-7c0-1-.4-1.9-1.2-2.6a4.3 4.3 0 00-3-1.1c-1.3 0-2.3.3-3 1-.9.8-1.3 1.7-1.3 2.8z" fill="#A57CFE"/>
    <path d="M75.2 125.6l.4 1 1-.5-.5-1-.9.5zm-3.6 1.7l-.9.5.5.8.8-.4-.4-.9zm-6.7-1l-.7-.7.7.8zm-1.2 4.2h-1v1.6l1.5-.8-.5-.8zm9.6 1l-.6.8.6-.8zm0 10l.7.7-.7-.7zm-11.2 0l-.7.7.7-.8zm0-17.8l-.6-.7.6.7zm10.1-1l-.5.8.5-.8zM65 138.8l-.6.8.7-.8zm5.6 0l.6.8-.6-.8zm0-4.6l-.7.7.7-.7zm-5.5 0l.6.7-.6-.7zm9.8-9.5l-3.6 1.7.8 1.8 3.6-1.7-.8-1.8zm-2.3 2.2a5 5 0 00-4.6-2.6v2c1.4 0 2.3.5 2.8 1.5l1.8-1zm-4.6-2.6c-1.5 0-2.7.4-3.7 1.3l1.3 1.5c.6-.5 1.4-.8 2.4-.8v-2zm-3.7 1.3c-1 1-1.5 2-1.5 3.4h2c0-.8.3-1.4.8-2l-1.3-1.4zm-1.5 3.4v1.5h2V129h-2zm1.5 2.3c1-.5 2.2-.8 3.6-.8v-2c-1.7 0-3.2.3-4.6 1l1 1.8zm3.6-.8c2 0 3.6.6 4.9 1.8l1.3-1.5a9 9 0 00-6.2-2.3v2zm4.9 1.8c1.3 1.1 1.9 2.5 1.9 4.2h2c0-2.3-.9-4.2-2.6-5.7l-1.3 1.5zm1.9 4.2c0 1.7-.6 3-2 4.2l1.4 1.5a7.3 7.3 0 002.6-5.7h-2zm-2 4.2a7.2 7.2 0 01-4.9 1.8v2c2.5 0 4.6-.8 6.3-2.3l-1.3-1.5zm-4.9 1.8c-2 0-3.7-.6-5-1.8l-1.3 1.5a9.2 9.2 0 006.3 2.3v-2zm-5-1.8a5.4 5.4 0 01-1.9-4.2h-2c0 2.2.9 4.2 2.6 5.7l1.3-1.5zm-1.9-4.2V129h-2v7.4h2zm0-7.4a6 6 0 012-4.7l-1.4-1.4a8 8 0 00-2.6 6h2zm2-4.7c1.4-1.2 3-1.8 5.1-1.8v-2c-2.5 0-4.7.8-6.4 2.4l1.3 1.4zm5.1-1.8c1.5 0 2.7.3 3.8 1l1-1.8c-1.4-.8-3-1.2-4.8-1.2v2zm3.9 1c1 .6 2 1.4 2.5 2.5l1.8-1a8.3 8.3 0 00-3.4-3.3l-1 1.7zm-9 12.8a4 4 0 001.5 3.2l1.3-1.6a2 2 0 01-.8-1.6h-2zm1.5 3.2c1 .8 2.1 1.1 3.4 1.1v-2c-.9 0-1.6-.2-2.1-.7l-1.3 1.6zm3.4 1.1c1.3 0 2.5-.3 3.4-1.1l-1.3-1.6c-.5.5-1.2.7-2 .7v2zm3.4-1.1c1-.8 1.5-1.9 1.5-3h-2c0 .5-.2 1-.8 1.4l1.3 1.6zm1.5-3a4 4 0 00-1.5-3.2l-1.3 1.5c.5.4.8 1 .8 1.6h2zm-1.5-3.2c-1-.8-2.1-1.2-3.4-1.2v2c.9 0 1.6.2 2.1.7l1.3-1.5zm-3.4-1.2a5 5 0 00-3.4 1.2l1.3 1.5a3 3 0 012.1-.7v-2zm-3.4 1.2c-1 .8-1.5 1.8-1.5 3h2c0-.6.3-1 .8-1.5l-1.3-1.5zm33 8l.6.8-.7-.8zm-10.7.6l-.5.8.5-.8zm-3-4l-.2-.9-1 .3.3 1 1-.3zm3.9-1l1-.3-.4-.9-.9.3.3 1zm1.6 2l-.6.8.6-.8zm5.2-.3l-.6-.7.6.7zm0-5l-.7.8.6-.8zm-9-1h-1l-.2 1h1.1v-1zm1-10.7v-1h-1v.9l1 .1zm11.4 0h1v-1h-1v1zm0 3.6v1h1v-1h-1zm-8.2 0v-1h-1v.9h1zm-.3 3.6l-1-.1-.1 1h1v-1zm8 2l-.7.8.7-.8zm1.3 5.1c0 1.7-.6 3.2-2 4.4l1.4 1.5a7.6 7.6 0 002.6-5.9h-2zm-2 4.4a7.3 7.3 0 01-5 1.8v2c2.5 0 4.6-.8 6.4-2.3l-1.3-1.5zm-5 1.8c-1.7 0-3-.5-4.3-1.3l-1.1 1.6c1.5 1.1 3.4 1.7 5.4 1.7v-2zm-4.3-1.3a7 7 0 01-2.6-3.5l-2 .7a9 9 0 003.5 4.4l1.1-1.6zm-3.3-2.2l3.9-1-.6-2-3.8 1.1.5 2zm2.7-1.6c.4 1 1 1.8 2 2.4l1-1.6c-.5-.4-1-.9-1.2-1.5l-1.8.7zm2 2.4c.8.6 1.8 1 3 1v-2c-.8 0-1.4-.3-2-.6l-1 1.6zm3 1a5 5 0 003.4-1.3l-1.3-1.5a3 3 0 01-2.2.7v2zm3.4-1.3a4 4 0 001.5-3.2h-2a2 2 0 01-.8 1.7l1.3 1.5zm1.5-3.2c0-1.4-.6-2.5-1.7-3.4l-1.2 1.6c.6.5 1 1 1 1.8h2zM95 133c-1-.9-2.4-1.3-3.8-1.3v2c1 0 1.9.3 2.5.8l1.3-1.5zm-3.8-1.3h-5.9v2h5.9v-2zm-4.9 1.1l1-10.7-1.9-.2-1 10.7 2 .2zm.1-9.8h11.4v-2H86.3v2zm10.4-1v3.6h2V122h-2zm1 2.6h-8.2v2h8.2v-2zm-9.2.9l-.3 3.6 2 .2.3-3.6-2-.2zm.7 4.7h2v-2h-2v2zm2 0c2.2 0 4 .6 5.3 1.8l1.3-1.5a9.7 9.7 0 00-6.5-2.3v2zm5.3 1.8c1.4 1.1 2 2.5 2 4.3h2c0-2.3-.9-4.3-2.7-5.9l-1.3 1.6zm22 11h-1v1h1v-1zm0-4h1v-1h-1v1zm-10.8 0h-1v1h1v-1zm0-3.7l-.8-.7-.2.3v.4h1zm11-13.3v-1h-.4l-.3.4.8.6zm3.8 0h1v-1h-1v1zm0 13.3h-1v1h1v-1zm2.6 0h1v-1h-1v1zm0 3.7v1h1v-1h-1zm-2.6 0v-1h-1v1h1zm0 4v1h1v-1h-1zm-4-15.2h1V125l-1.7 2.2.8.6zm-6.1 7.5l-.8-.7-1.4 1.7h2.2v-1zm6.2 0v1h1v-1h-1zm1 7.7v-4h-2v4h2zm-1-5h-10.9v2h10.9v-2zm-9.9 1v-3.7h-2v3.7h2zm-.2-3.1l11-13.3-1.5-1.2-11 13.2 1.5 1.3zm10.3-12.9h3.7v-2h-3.7v2zm2.7-1v13.3h2V122h-2zm1 14.3h2.6v-2h-2.6v2zm1.6-1v3.7h2v-3.7h-2zm1 2.7h-2.6v2h2.6v-2zm-3.6 1v4h2v-4h-2zm1 3h-4v2h4v-2zm-4.7-14.8l-6.2 7.4 1.5 1.3 6.3-7.5-1.6-1.3zm-5.4 9h6.2v-2h-6.2v2zm7.2-1v-7.4h-2v7.5h2zm23.2-9.2l.6-.8-.6.8zm-4.9-.2l.5.9-.5-.9zm-1.4 1.4l-.4.9.8.4.5-.9-.9-.4zm-3.5-1.7l-1-.5-.4 1 1 .4.4-1zm2.9-2.9l.4 1-.4-1zm9.8.7l-.6.8.6-.8zm0 8.8l-.7-.8-1.1.9 1.2.8.5-.9zm.4 9.5l-.6-.8.6.8zm-10.5.6l-.6.8.6-.8zm-2.9-3.5l-.3-.9-1 .3.4 1 1-.4zm3.8-1.3l1-.3-.4-1-1 .4.4 1zm1.4 1.7l-.6.9.6-.9zm5.3-.2l.6.8-.6-.8zm0-4l-.6.7.6-.8zm-4.3-.9h-1v1h1v-1zm0-3.5v-1h-1v1h1zm6-2.6c0-1.1-.6-2-1.5-2.7l-1.2 1.6c.5.4.6.7.6 1h2zm-1.5-2.7c-.9-.6-2-1-3.2-1v2c1 0 1.6.3 2 .6l1.2-1.6zm-3.2-1c-1 0-2 .3-2.8.7l1 1.8c.5-.3 1-.4 1.8-.4v-2zm-2.7.7c-.8.4-1.5 1-1.9 1.8l1.8 1c.2-.4.5-.7 1-1l-1-1.8zm-.6 1.4l-3.5-1.7-.8 1.8 3.5 1.7.8-1.8zm-3-.4c.5-1 1.3-1.8 2.4-2.4l-1-1.7a7.7 7.7 0 00-3.2 3.2l1.8 1zm2.4-2.4c1.2-.6 2.5-1 4-1v-2c-1.8 0-3.5.4-5 1.3l1 1.7zm4-1c2 0 3.5.6 4.8 1.6l1.2-1.6a9.4 9.4 0 00-6-2v2zm4.8 1.6c1.2 1 1.8 2.2 1.8 3.6h2c0-2-1-3.8-2.6-5.2l-1.2 1.6zm1.8 3.6c0 1.4-.6 2.6-2 3.6l1.3 1.6c1.7-1.4 2.7-3 2.7-5.2h-2zM145 133c1.6 1 2.3 2.3 2.3 4h2c0-2.4-1.1-4.4-3.3-5.7l-1 1.7zm2.3 4c0 1.5-.6 2.8-2 3.8l1.3 1.6a6.7 6.7 0 002.7-5.4h-2zm-2 3.8c-1.2 1.1-2.9 1.7-5 1.7v2c2.5 0 4.6-.7 6.3-2.1l-1.2-1.6zm-5 1.7c-1.7 0-3.1-.4-4.3-1.2l-1 1.7c1.5 1 3.3 1.5 5.3 1.5v-2zm-4.3-1.2c-1.2-.8-2-1.7-2.4-2.9l-2 .7c.7 1.6 1.8 3 3.3 4l1-1.8zm-3-1.6l3.7-1.3-.7-2-3.7 1.4.6 1.9zm2.4-2a4 4 0 001.8 2.3l1-1.8a2 2 0 01-.9-1l-1.9.5zm1.9 2.3c.9.5 1.9.7 3 .7v-2a4 4 0 01-2-.5l-1 1.8zm3 .7c1.3 0 2.5-.3 3.4-1l-1.1-1.6c-.6.4-1.3.6-2.3.6v2zm3.4-1c1-.7 1.6-1.7 1.6-2.9h-2c0 .5-.2 1-.8 1.3l1.2 1.6zm1.6-2.9c0-1.2-.6-2.1-1.6-2.8l-1.1 1.7c.5.3.7.7.7 1.1h2zm-1.6-2.8c-1-.7-2-1-3.3-1v2c1 0 1.6.3 2.1.6l1.2-1.6zm-3.3-1H139v2h1.6v-2zm-.6 1v-3.5h-2v3.5h2zm-1-2.5h1.1v-2h-1v2zm1.1 0c1.2 0 2.4-.3 3.3-.9l-1.1-1.7c-.6.4-1.3.6-2.2.6v2zm3.3-.9c1-.7 1.5-1.6 1.5-2.7h-2c0 .3-.1.7-.6 1l1 1.7zm23.1-4.5l-.6.8.6-.8zm-4.8 0l.6.8-.6-.8zm-1.6 2.2l-.4 1 1 .4.4-1-1-.4zm-3.6-1.7l-.9-.4-.4 1 1 .3.3-.9zm3.1-3.7l.5.9-.5-.9zm9.8.5l-.7.8.7-.8zm1 8l1 .5-1-.5zm-3.3 4l.7.7-.7-.7zm-4.1 3.9l-.7-.7-1.8 1.7h2.5v-1zm8.7 0h1v-1h-1v1zm0 3.7v1h1v-1h-1zm-14.7 0h-1v1h1v-1zm0-3l-.7-.6-.3.3v.4h1zm7.7-7.3l.7.8-.7-.8zm3.8-4.6c0-1.1-.5-2-1.3-2.8l-1.3 1.6c.5.4.6.8.6 1.2h2zm-1.3-2.7c-.9-.8-1.9-1.1-3-1.1v2c.7 0 1.2.2 1.7.6l1.3-1.5zm-3-1.1c-1.2 0-2.2.3-3 1l1.1 1.6c.6-.4 1.2-.6 1.9-.6v-2zm-3 1a6 6 0 00-2 2.7l1.9.7a4 4 0 011.2-1.8l-1.2-1.6zm-.6 2.1l-3.6-1.7-.9 1.8 3.6 1.7.9-1.8zm-3.1-.4a7.3 7.3 0 012.6-3.2l-1-1.7a9.3 9.3 0 00-3.5 4.1l1.9.8zm2.7-3.2a7 7 0 014-1.2v-2a9 9 0 00-5.2 1.5l1.2 1.7zm4-1.2c1.8 0 3.3.5 4.5 1.6l1.4-1.5a8.5 8.5 0 00-6-2.1v2zm4.5 1.6c1.3 1 1.9 2.3 1.9 3.8h2c0-2-.9-3.9-2.5-5.3l-1.4 1.5zm1.9 3.8c0 .9-.3 1.8-1 2.9l1.7 1a7.5 7.5 0 001.3-3.9h-2zm-1 2.9a21 21 0 01-3.2 3.8l1.4 1.4c1.5-1.5 2.8-3 3.5-4.2l-1.7-1zm-3.2 3.8l-4.1 3.9 1.3 1.4 4.2-3.9-1.4-1.4zm-3.4 5.6h8.7v-2H163v2zm7.7-1v3.7h2v-3.7h-2zm1 2.7H157v2h14.7v-2zm-13.7 1v-3h-2v3h2zm-.4-2.2l7.8-7.3-1.4-1.5-7.7 7.4 1.3 1.4zm7.8-7.3c1-1 1.7-2 2.3-2.8a5 5 0 00.8-2.6h-2c0 .4-.1.9-.5 1.6l-2 2.3 1.4 1.5zm20.2-6.7h1v-1.6l-1.4.7.4.9zm-3.6 1.8l-.9.4.4 1 1-.5-.5-1zm-1.6-3.4l-.5-1-.8.5.4.9.9-.4zm6.3-3.2v-1h-.2l-.2.1.4.9zm2.8 0h1v-1h-1v1zm0 21v1h1v-1h-1zm-3.9 0h-1v1h1v-1zm-.4-17.1l-3.6 1.8.9 1.8 3.6-1.8-1-1.8zm-2.3 2.2l-1.6-3.4-1.8.9 1.6 3.4 1.8-.9zm-2-2l6.3-3.2-.9-1.8-6.4 3.2 1 1.7zm5.8-3.1h2.8v-2h-2.8v2zm1.8-1v21h2v-21h-2zm1 20h-3.9v2h4v-2zm-2.9 1v-16.2h-2V143h2zm15.8-19.3l-.7-.7.7.7zm11.6 0l-.7.7.7-.7zm0 17.6l-.7-.7.7.7zm-11.7 0l-.6.7.7-.7zm2.8-2.6l-.6.7.6-.7zm6.1 0l.7.7-.7-.7zm0-12.3l-.7.7.7-.7zm-6 0l.6.7-.7-.7zm-4.2 9.5V129h-2v6.8h2zm0-6.8a6 6 0 012-4.7l-1.3-1.4a8 8 0 00-2.7 6.1h2zm2-4.7c1.4-1.2 3-1.8 5.2-1.8v-2c-2.6 0-4.8.7-6.5 2.4l1.3 1.4zm5.2-1.8c2 0 3.7.6 5 1.8l1.4-1.4a9.1 9.1 0 00-6.4-2.4v2zm5 1.8a6 6 0 012.1 4.7h2a8 8 0 00-2.7-6.1l-1.3 1.4zm2.1 4.7v6.8h2V129h-2zm0 6.8a6 6 0 01-2 4.7l1.3 1.4a8 8 0 002.7-6.1h-2zm-2 4.7a7.2 7.2 0 01-5.1 1.9v2c2.5 0 4.7-.8 6.4-2.5l-1.3-1.4zm-5.1 1.9c-2.1 0-3.8-.7-5.2-2l-1.3 1.5c1.7 1.7 4 2.5 6.5 2.5v-2zm-5.2-2a6 6 0 01-2-4.6h-2a8 8 0 002.7 6.1l1.3-1.4zm0-11.4v6.9h2v-7h-2zm0 6.9c0 1.3.5 2.5 1.5 3.4l1.3-1.5c-.6-.5-.9-1.2-.9-2h-2zm1.5 3.4c1 .9 2.3 1.3 3.7 1.3v-2c-1 0-1.8-.3-2.4-.8l-1.3 1.5zm3.7 1.3c1.4 0 2.6-.4 3.7-1.3l-1.4-1.5c-.6.5-1.3.8-2.3.8v2zm3.7-1.3c1-1 1.5-2.1 1.5-3.4h-2c0 .7-.2 1.3-.9 2l1.4 1.4zm1.5-3.4v-7h-2v7h2zm0-7c0-1.3-.5-2.5-1.5-3.4l-1.4 1.5c.7.6 1 1.2 1 2h2zm-1.5-3.4c-1-.9-2.3-1.3-3.7-1.3v2c1 0 1.7.3 2.3.8l1.4-1.5zm-3.7-1.3c-1.5 0-2.7.4-3.7 1.3l1.3 1.5c.6-.5 1.4-.8 2.4-.8v-2zm-3.7 1.3c-1 1-1.6 2.1-1.6 3.5h2c0-.8.3-1.4 1-2l-1.4-1.5z" fill="#000"/>
  </g>
  <circle cx="79" cy="27.5" r="7.5" fill="#8052E4"/>
  <circle cx="262" cy="143.5" r="14.5" fill="#AB85FF"/>
  <circle cx="66.9" cy="54.4" r="1.4" fill="#D4D4D4"/>
  <circle cx="72.6" cy="54.4" r="1.4" fill="#D4D4D4"/>
  <circle cx="78.4" cy="54.4" r="1.4" fill="#D4D4D4"/>
  <circle cx="84.1" cy="54.4" r="1.4" fill="#D4D4D4"/>
  <circle cx="89.9" cy="54.4" r="1.4" fill="#D4D4D4"/>
  <circle cx="95.6" cy="54.4" r="1.4" fill="#D4D4D4"/>
  <circle cx="101.4" cy="54.4" r="1.4" fill="#D4D4D4"/>
  <circle cx="107.1" cy="54.4" r="1.4" fill="#D4D4D4"/>
  <circle cx="112.9" cy="54.4" r="1.4" fill="#D4D4D4"/>
  <circle cx="66.9" cy="60.1" r="1.4" fill="#D4D4D4"/>
  <circle cx="72.6" cy="60.1" r="1.4" fill="#D4D4D4"/>
  <circle cx="66.9" cy="65.9" r="1.4" fill="#D4D4D4"/>
  <circle cx="72.6" cy="65.9" r="1.4" fill="#D4D4D4"/>
  <circle cx="78.4" cy="65.9" r="1.4" fill="#D4D4D4"/>
  <circle cx="84.1" cy="65.9" r="1.4" fill="#D4D4D4"/>
  <circle cx="89.9" cy="65.9" r="1.4" fill="#D4D4D4"/>
  <circle cx="95.6" cy="65.9" r="1.4" fill="#D4D4D4"/>
  <circle cx="101.4" cy="65.9" r="1.4" fill="#D4D4D4"/>
  <circle cx="107.1" cy="65.9" r="1.4" fill="#D4D4D4"/>
  <circle cx="112.9" cy="65.9" r="1.4" fill="#D4D4D4"/>
  <circle cx="78.4" cy="60.1" r="1.4" fill="#D4D4D4"/>
  <circle cx="84.1" cy="60.1" r="1.4" fill="#D4D4D4"/>
  <circle cx="89.9" cy="60.1" r="1.4" fill="#D4D4D4"/>
  <circle cx="95.6" cy="60.1" r="1.4" fill="#D4D4D4"/>
  <circle cx="101.4" cy="60.1" r="1.4" fill="#D4D4D4"/>
  <circle cx="107.1" cy="60.1" r="1.4" fill="#D4D4D4"/>
  <circle cx="112.9" cy="60.1" r="1.4" fill="#D4D4D4"/>
  <defs>
    <clipPath id="clip0">
      <rect x="95.5" y="15" width="151" height="151" rx="75.5" fill="#fff"/>
    </clipPath>
  </defs>
</svg>
