<svg width="261" height="117" viewBox="0 0 261 117" fill="none" xmlns="http://www.w3.org/2000/svg">
<path d="M131.822 30.4091L138.022 49.4901L138.134 49.8356H138.498H158.561L142.329 61.6283L142.035 61.8418L142.148 62.1873L148.347 81.2683L132.116 69.4756L131.822 69.2621L131.528 69.4756L115.297 81.2683L121.497 62.1873L121.609 61.8418L121.315 61.6283L105.084 49.8356H125.147H125.51L125.622 49.4901L131.822 30.4091Z" fill="url(#paint0_linear)" stroke="url(#paint1_linear)"/>
<path d="M183.122 58.7559C183.122 61.2909 181.776 63.7633 179.217 66.0697C176.657 68.3761 172.926 70.4761 168.272 72.2499C158.969 75.7961 146.082 78 131.823 78C117.564 78 104.677 75.7961 95.3732 72.2499C90.7196 70.4761 86.9881 68.3761 84.4288 66.0697C81.8694 63.7633 80.5234 61.2909 80.5234 58.7559C80.5234 56.2209 81.8694 53.7485 84.4288 51.442C86.9881 49.1356 90.7196 47.0356 95.3732 45.2619C104.677 41.7156 117.564 39.5117 131.823 39.5117C146.082 39.5117 158.969 41.7156 168.272 45.2619C172.926 47.0356 176.657 49.1356 179.217 51.442C181.776 53.7485 183.122 56.2209 183.122 58.7559Z" stroke="url(#paint2_linear)"/>
<path d="M46.7047 59.1094C46.5095 58.9142 46.5095 58.5976 46.7047 58.4023L49.8867 55.2203C50.082 55.0251 50.3986 55.0251 50.5938 55.2203C50.7891 55.4156 50.7891 55.7322 50.5938 55.9274L47.7654 58.7559L50.5938 61.5843C50.7891 61.7795 50.7891 62.0961 50.5938 62.2914C50.3986 62.4867 50.082 62.4867 49.8867 62.2914L46.7047 59.1094ZM80.0234 59.2559H47.0583V58.2559H80.0234V59.2559Z" fill="url(#paint3_linear)"/>
<path d="M214.293 65.169C214.489 64.9737 214.489 64.6571 214.293 64.4619L211.111 61.2799C210.916 61.0846 210.599 61.0846 210.404 61.2799C210.209 61.4752 210.209 61.7917 210.404 61.987L213.233 64.8154L210.404 67.6439C210.209 67.8391 210.209 68.1557 210.404 68.351C210.599 68.5462 210.916 68.5462 211.111 68.351L214.293 65.169ZM180.975 65.3154H213.94V64.3154H180.975V65.3154Z" fill="url(#paint4_linear)"/>
<path d="M214.293 52.9687C214.489 53.164 214.489 53.4806 214.293 53.6758L211.111 56.8578C210.916 57.0531 210.599 57.0531 210.404 56.8578C210.209 56.6625 210.209 56.346 210.404 56.1507L213.233 53.3223L210.404 50.4938C210.209 50.2986 210.209 49.982 210.404 49.7867C210.599 49.5915 210.916 49.5915 211.111 49.7867L214.293 52.9687ZM180.975 52.8223H213.94V53.8223H180.975V52.8223Z" fill="url(#paint5_linear)"/>
<defs>
<linearGradient id="paint0_linear" x1="92.4169" y1="94.1944" x2="160.957" y2="5.59565" gradientUnits="userSpaceOnUse">
<stop stop-color="#AB85FF"/>
<stop offset="0.526042" stop-color="#EBA3E3"/>
<stop offset="1" stop-color="#FFDBE4"/>
</linearGradient>
<linearGradient id="paint1_linear" x1="92.4169" y1="94.1944" x2="160.957" y2="5.59565" gradientUnits="userSpaceOnUse">
<stop stop-color="#AB85FF"/>
<stop offset="0.526042" stop-color="#EBA3E3"/>
<stop offset="1" stop-color="#FFDBE4"/>
</linearGradient>
<linearGradient id="paint2_linear" x1="63.1714" y1="82.4437" x2="88.684" y2="-4.07846" gradientUnits="userSpaceOnUse">
<stop stop-color="#AB85FF"/>
<stop offset="0.526042" stop-color="#EBA3E3"/>
<stop offset="1" stop-color="#FFDBE4"/>
</linearGradient>
<linearGradient id="paint3_linear" x1="85.3858" y1="59.8557" x2="85.3299" y2="57.4754" gradientUnits="userSpaceOnUse">
<stop stop-color="#AB85FF"/>
<stop offset="0.526042" stop-color="#EBA3E3"/>
<stop offset="1" stop-color="#FFDBE4"/>
</linearGradient>
<linearGradient id="paint4_linear" x1="175.612" y1="65.9153" x2="175.668" y2="63.535" gradientUnits="userSpaceOnUse">
<stop stop-color="#AB85FF"/>
<stop offset="0.526042" stop-color="#EBA3E3"/>
<stop offset="1" stop-color="#FFDBE4"/>
</linearGradient>
<linearGradient id="paint5_linear" x1="175.612" y1="52.2224" x2="175.668" y2="54.6027" gradientUnits="userSpaceOnUse">
<stop stop-color="#AB85FF"/>
<stop offset="0.526042" stop-color="#EBA3E3"/>
<stop offset="1" stop-color="#FFDBE4"/>
</linearGradient>
</defs>
</svg>
