<svg width="262" height="117" fill="none" xmlns="http://www.w3.org/2000/svg">
  <path d="M114.5 64.4c0 2.5-1.3 5-3.9 7.3a35.2 35.2 0 01-11 6.2c-9.2 3.5-22.1 5.7-36.4 5.7-14.2 0-27.1-2.2-36.4-5.7a35.2 35.2 0 01-11-6.2C13.3 69.4 12 67 12 64.4s1.4-5 4-7.3c2.5-2.3 6.2-4.4 10.9-6.2 9.3-3.5 22.2-5.7 36.4-5.7 14.3 0 27.2 2.2 36.5 5.7 4.6 1.8 8.3 3.9 11 6.2 2.5 2.3 3.8 4.8 3.8 7.3z" stroke="url(#paint0_linear)"/>
  <path d="M250 69c0 1.7-.9 3.5-2.7 5.2a25.8 25.8 0 01-8 4.5 78 78 0 01-26.9 4.3 78 78 0 01-26.8-4.3 25.8 25.8 0 01-8-4.5c-1.9-1.7-2.8-3.5-2.8-5.3 0-1.8 1-3.6 2.8-5.3 1.9-1.6 4.6-3.2 8-4.5a78 78 0 0126.8-4.2 78 78 0 0126.8 4.2c3.5 1.3 6.2 2.9 8 4.5 2 1.7 2.9 3.5 2.9 5.3z" stroke="url(#paint1_linear)"/>
  <path d="M166.2 36.2c0 1-.5 2-1.5 3-1 .9-2.6 1.8-4.6 2.5a45 45 0 01-15.5 2.5c-6 0-11.5-1-15.4-2.5-2-.7-3.5-1.6-4.6-2.6-1-1-1.5-1.9-1.5-2.9s.5-2 1.5-2.9c1-1 2.6-1.8 4.6-2.6a45 45 0 0115.4-2.4c6.1 0 11.6 1 15.5 2.4 2 .8 3.5 1.7 4.6 2.6 1 1 1.5 2 1.5 3z" stroke="url(#paint2_linear)"/>
  <path d="M158.4 86.5c0-4.6-1.5-8.8-4-11.9a12.6 12.6 0 00-19.4 0c-2.6 3-4 7.2-4.1 11.8 1.4.8 7.4 3.6 13.7 3.6 6.9 0 12.5-2.8 13.8-3.5z" fill="url(#paint3_linear)"/>
  <path d="M144.6 68.7a6.9 6.9 0 100-13.8 6.9 6.9 0 000 13.8z" fill="url(#paint4_linear)"/>
  <path d="M85.4 16.8H41v55.7h44.4V16.8z" fill="#fff" stroke="url(#paint5_linear)"/>
  <path d="M81.2 29.5H46v5h35.2v-5z" stroke="url(#paint6_linear)"/>
  <path d="M81.2 42.2H46V47h35.2v-5z" stroke="url(#paint7_linear)"/>
  <path d="M81.2 54.8H46v5h35.2v-5z" stroke="url(#paint8_linear)"/>
  <path d="M155.7 8.4h-22.2v27.8h22.2V8.4z" fill="#fff" stroke="url(#paint9_linear)"/>
  <path d="M153.6 14.7H136v2.5h17.6v-2.5z" stroke="url(#paint10_linear)"/>
  <path d="M153.6 21H136v2.6h17.6V21z" stroke="url(#paint11_linear)"/>
  <path d="M153.6 27.4H136V30h17.6v-2.5z" stroke="url(#paint12_linear)"/>
  <path d="M230.2 29.9h-35.6v44.6h35.6V30z" fill="#fff" stroke="url(#paint13_linear)"/>
  <path d="M226.8 40h-28.2v4h28.2v-4z" stroke="url(#paint14_linear)"/>
  <path d="M226.8 50.2h-28.2v4h28.2v-4z" stroke="url(#paint15_linear)"/>
  <path d="M226.8 60.4h-28.2v4h28.2v-4z" stroke="url(#paint16_linear)"/>
  <defs>
    <linearGradient id="paint0_linear" x1="-5.4" y1="88.1" x2="20.1" y2="1.6" gradientUnits="userSpaceOnUse">
      <stop stop-color="#AB85FF"/>
      <stop offset=".5" stop-color="#EBA3E3"/>
      <stop offset="1" stop-color="#FFDBE4"/>
    </linearGradient>
    <linearGradient id="paint1_linear" x1="161.9" y1="86.4" x2="180.7" y2="22.6" gradientUnits="userSpaceOnUse">
      <stop stop-color="#AB85FF"/>
      <stop offset=".5" stop-color="#EBA3E3"/>
      <stop offset="1" stop-color="#FFDBE4"/>
    </linearGradient>
    <linearGradient id="paint2_linear" x1="115.4" y1="46.3" x2="126.2" y2="9.4" gradientUnits="userSpaceOnUse">
      <stop stop-color="#AB85FF"/>
      <stop offset=".5" stop-color="#EBA3E3"/>
      <stop offset="1" stop-color="#FFDBE4"/>
    </linearGradient>
    <linearGradient id="paint3_linear" x1="126.4" y1="91.9" x2="146.8" y2="55.8" gradientUnits="userSpaceOnUse">
      <stop stop-color="#AB85FF"/>
      <stop offset=".5" stop-color="#EBA3E3"/>
      <stop offset="1" stop-color="#FFDBE4"/>
    </linearGradient>
    <linearGradient id="paint4_linear" x1="135.5" y1="70.1" x2="151.4" y2="49.6" gradientUnits="userSpaceOnUse">
      <stop stop-color="#AB85FF"/>
      <stop offset=".5" stop-color="#EBA3E3"/>
      <stop offset="1" stop-color="#FFDBE4"/>
    </linearGradient>
    <linearGradient id="paint5_linear" x1="33.3" y1="78.4" x2="100.4" y2="9.1" gradientUnits="userSpaceOnUse">
      <stop stop-color="#AB85FF"/>
      <stop offset=".5" stop-color="#EBA3E3"/>
      <stop offset="1" stop-color="#FFDBE4"/>
    </linearGradient>
    <linearGradient id="paint6_linear" x1="39.8" y1="35.3" x2="41.4" y2="22.1" gradientUnits="userSpaceOnUse">
      <stop stop-color="#AB85FF"/>
      <stop offset=".5" stop-color="#EBA3E3"/>
      <stop offset="1" stop-color="#FFDBE4"/>
    </linearGradient>
    <linearGradient id="paint7_linear" x1="39.8" y1="48" x2="41.4" y2="34.8" gradientUnits="userSpaceOnUse">
      <stop stop-color="#AB85FF"/>
      <stop offset=".5" stop-color="#EBA3E3"/>
      <stop offset="1" stop-color="#FFDBE4"/>
    </linearGradient>
    <linearGradient id="paint8_linear" x1="39.8" y1="60.7" x2="41.4" y2="47.5" gradientUnits="userSpaceOnUse">
      <stop stop-color="#AB85FF"/>
      <stop offset=".5" stop-color="#EBA3E3"/>
      <stop offset="1" stop-color="#FFDBE4"/>
    </linearGradient>
    <linearGradient id="paint9_linear" x1="129.7" y1="39.2" x2="163.2" y2="4.5" gradientUnits="userSpaceOnUse">
      <stop stop-color="#AB85FF"/>
      <stop offset=".5" stop-color="#EBA3E3"/>
      <stop offset="1" stop-color="#FFDBE4"/>
    </linearGradient>
    <linearGradient id="paint10_linear" x1="132.9" y1="17.7" x2="133.7" y2="11.1" gradientUnits="userSpaceOnUse">
      <stop stop-color="#AB85FF"/>
      <stop offset=".5" stop-color="#EBA3E3"/>
      <stop offset="1" stop-color="#FFDBE4"/>
    </linearGradient>
    <linearGradient id="paint11_linear" x1="132.9" y1="24" x2="133.7" y2="17.4" gradientUnits="userSpaceOnUse">
      <stop stop-color="#AB85FF"/>
      <stop offset=".5" stop-color="#EBA3E3"/>
      <stop offset="1" stop-color="#FFDBE4"/>
    </linearGradient>
    <linearGradient id="paint12_linear" x1="132.9" y1="30.4" x2="133.7" y2="23.7" gradientUnits="userSpaceOnUse">
      <stop stop-color="#AB85FF"/>
      <stop offset=".5" stop-color="#EBA3E3"/>
      <stop offset="1" stop-color="#FFDBE4"/>
    </linearGradient>
    <linearGradient id="paint13_linear" x1="188.5" y1="79.3" x2="242.3" y2="23.7" gradientUnits="userSpaceOnUse">
      <stop stop-color="#AB85FF"/>
      <stop offset=".5" stop-color="#EBA3E3"/>
      <stop offset="1" stop-color="#FFDBE4"/>
    </linearGradient>
    <linearGradient id="paint14_linear" x1="193.6" y1="44.8" x2="194.9" y2="34.1" gradientUnits="userSpaceOnUse">
      <stop stop-color="#AB85FF"/>
      <stop offset=".5" stop-color="#EBA3E3"/>
      <stop offset="1" stop-color="#FFDBE4"/>
    </linearGradient>
    <linearGradient id="paint15_linear" x1="193.6" y1="54.9" x2="194.9" y2="44.3" gradientUnits="userSpaceOnUse">
      <stop stop-color="#AB85FF"/>
      <stop offset=".5" stop-color="#EBA3E3"/>
      <stop offset="1" stop-color="#FFDBE4"/>
    </linearGradient>
    <linearGradient id="paint16_linear" x1="193.6" y1="65.1" x2="194.9" y2="54.5" gradientUnits="userSpaceOnUse">
      <stop stop-color="#AB85FF"/>
      <stop offset=".5" stop-color="#EBA3E3"/>
      <stop offset="1" stop-color="#FFDBE4"/>
    </linearGradient>
  </defs>
</svg>
