<svg width="262" height="116" fill="none" xmlns="http://www.w3.org/2000/svg">
  <path d="M84.9 30.3l6.2 19 .1.4h20.4L95.4 61.5l-.3.2.1.4 6.2 19-16.2-11.7-.3-.2-.3.2-16.2 11.8L74.6 62v-.4l-.2-.2L58 49.7h20.5v-.3L85 30.3z" fill="url(#paint0_linear)" stroke="url(#paint1_linear)"/>
  <path d="M136.2 58.6c0 2.6-1.4 5-4 7.4a35.2 35.2 0 01-10.9 6.1C112 75.7 99.1 78 85 78c-14.3 0-27.2-2.2-36.5-5.8a35.2 35.2 0 01-11-6.1c-2.5-2.3-3.8-4.8-3.8-7.4 0-2.5 1.3-5 3.9-7.3 2.6-2.3 6.3-4.4 11-6.1 9.2-3.6 22.1-5.8 36.4-5.8 14.2 0 27.1 2.2 36.4 5.8 4.7 1.7 8.4 3.8 11 6.1 2.5 2.3 3.9 4.8 3.9 7.3z" stroke="url(#paint2_linear)"/>
  <path d="M146.1 68.8l10-20 19 10 11.5-25.6 20.5 9 23-13.5m0 0l-5 8.5m5-8.5h-10" stroke="url(#paint3_linear)"/>
  <defs>
    <linearGradient id="paint0_linear" x1="45.5" y1="94.1" x2="114" y2="5.5" gradientUnits="userSpaceOnUse">
      <stop stop-color="#AB85FF"/>
      <stop offset=".5" stop-color="#EBA3E3"/>
      <stop offset="1" stop-color="#FFDBE4"/>
    </linearGradient>
    <linearGradient id="paint1_linear" x1="45.5" y1="94.1" x2="114" y2="5.5" gradientUnits="userSpaceOnUse">
      <stop stop-color="#AB85FF"/>
      <stop offset=".5" stop-color="#EBA3E3"/>
      <stop offset="1" stop-color="#FFDBE4"/>
    </linearGradient>
    <linearGradient id="paint2_linear" x1="16.2" y1="82.3" x2="41.7" y2="-4.2" gradientUnits="userSpaceOnUse">
      <stop stop-color="#AB85FF"/>
      <stop offset=".5" stop-color="#EBA3E3"/>
      <stop offset="1" stop-color="#FFDBE4"/>
    </linearGradient>
    <linearGradient id="paint3_linear" x1="132.4" y1="24.7" x2="163.4" y2="108.7" gradientUnits="userSpaceOnUse">
      <stop stop-color="#AB85FF"/>
      <stop offset=".5" stop-color="#EBA3E3"/>
      <stop offset="1" stop-color="#FFDBE4"/>
    </linearGradient>
  </defs>
</svg>
