<svg width="261" height="117" fill="none" xmlns="http://www.w3.org/2000/svg">
  <path d="M232.6 33.6h-50v7h50v-7z" stroke="url(#paint0_linear)"/>
  <path d="M232.6 51.6h-50v7h50v-7z" stroke="url(#paint1_linear)"/>
  <path d="M232.6 69.6h-50v7h50v-7z" stroke="url(#paint2_linear)"/>
  <path d="M238.6 15.6h-63v79h63v-79z" stroke="url(#paint3_linear)"/>
  <path d="M150.5 33.6h-50v7h50v-7z" stroke="url(#paint4_linear)"/>
  <path d="M150.5 51.6h-50v7h50v-7z" stroke="url(#paint5_linear)"/>
  <path d="M150.5 69.6h-50v7h50v-7z" stroke="url(#paint6_linear)"/>
  <path d="M156.5 15.6h-63v79h63v-79z" stroke="url(#paint7_linear)"/>
  <path d="M68.4 33.6h-50v7h50v-7z" stroke="url(#paint8_linear)"/>
  <path d="M68.4 51.6h-50v7h50v-7z" stroke="url(#paint9_linear)"/>
  <path d="M68.4 69.6h-50v7h50v-7z" stroke="url(#paint10_linear)"/>
  <path d="M74.4 15.6h-63v79h63v-79z" stroke="url(#paint11_linear)"/>
  <path d="M67.3 88l14.1 13.2" stroke="url(#paint12_linear)" stroke-width="2" stroke-linecap="round"/>
  <path d="M67.3 101.2L81.4 88" stroke="url(#paint13_linear)" stroke-width="2" stroke-linecap="round"/>
  <path d="M150.5 89.4l6.8 11.8 10.2-19.7" stroke="url(#paint14_linear)" stroke-width="2" stroke-linecap="round"/>
  <path d="M232.6 89.4l6.8 11.8 10.2-19.7" stroke="url(#paint15_linear)" stroke-width="2" stroke-linecap="round"/>
  <defs>
    <linearGradient id="paint0_linear" x1="173.8" y1="41.9" x2="176" y2="23.1" gradientUnits="userSpaceOnUse">
      <stop stop-color="#AB85FF"/>
      <stop offset=".5" stop-color="#EBA3E3"/>
      <stop offset="1" stop-color="#FFDBE4"/>
    </linearGradient>
    <linearGradient id="paint1_linear" x1="173.8" y1="59.9" x2="176" y2="41.1" gradientUnits="userSpaceOnUse">
      <stop stop-color="#AB85FF"/>
      <stop offset=".5" stop-color="#EBA3E3"/>
      <stop offset="1" stop-color="#FFDBE4"/>
    </linearGradient>
    <linearGradient id="paint2_linear" x1="173.8" y1="77.9" x2="176" y2="59.1" gradientUnits="userSpaceOnUse">
      <stop stop-color="#AB85FF"/>
      <stop offset=".5" stop-color="#EBA3E3"/>
      <stop offset="1" stop-color="#FFDBE4"/>
    </linearGradient>
    <linearGradient id="paint3_linear" x1="164.6" y1="103.1" x2="259.9" y2="4.6" gradientUnits="userSpaceOnUse">
      <stop stop-color="#AB85FF"/>
      <stop offset=".5" stop-color="#EBA3E3"/>
      <stop offset="1" stop-color="#FFDBE4"/>
    </linearGradient>
    <linearGradient id="paint4_linear" x1="91.7" y1="41.9" x2="93.9" y2="23.1" gradientUnits="userSpaceOnUse">
      <stop stop-color="#AB85FF"/>
      <stop offset=".5" stop-color="#EBA3E3"/>
      <stop offset="1" stop-color="#FFDBE4"/>
    </linearGradient>
    <linearGradient id="paint5_linear" x1="91.7" y1="59.9" x2="93.9" y2="41.1" gradientUnits="userSpaceOnUse">
      <stop stop-color="#AB85FF"/>
      <stop offset=".5" stop-color="#EBA3E3"/>
      <stop offset="1" stop-color="#FFDBE4"/>
    </linearGradient>
    <linearGradient id="paint6_linear" x1="91.7" y1="77.9" x2="93.9" y2="59.1" gradientUnits="userSpaceOnUse">
      <stop stop-color="#AB85FF"/>
      <stop offset=".5" stop-color="#EBA3E3"/>
      <stop offset="1" stop-color="#FFDBE4"/>
    </linearGradient>
    <linearGradient id="paint7_linear" x1="82.6" y1="103.1" x2="177.8" y2="4.6" gradientUnits="userSpaceOnUse">
      <stop stop-color="#AB85FF"/>
      <stop offset=".5" stop-color="#EBA3E3"/>
      <stop offset="1" stop-color="#FFDBE4"/>
    </linearGradient>
    <linearGradient id="paint8_linear" x1="9.6" y1="41.9" x2="11.9" y2="23.1" gradientUnits="userSpaceOnUse">
      <stop stop-color="#AB85FF"/>
      <stop offset=".5" stop-color="#EBA3E3"/>
      <stop offset="1" stop-color="#FFDBE4"/>
    </linearGradient>
    <linearGradient id="paint9_linear" x1="9.6" y1="59.9" x2="11.9" y2="41.1" gradientUnits="userSpaceOnUse">
      <stop stop-color="#AB85FF"/>
      <stop offset=".5" stop-color="#EBA3E3"/>
      <stop offset="1" stop-color="#FFDBE4"/>
    </linearGradient>
    <linearGradient id="paint10_linear" x1="9.6" y1="77.9" x2="11.9" y2="59.1" gradientUnits="userSpaceOnUse">
      <stop stop-color="#AB85FF"/>
      <stop offset=".5" stop-color="#EBA3E3"/>
      <stop offset="1" stop-color="#FFDBE4"/>
    </linearGradient>
    <linearGradient id="paint11_linear" x1=".5" y1="103.1" x2="95.7" y2="4.6" gradientUnits="userSpaceOnUse">
      <stop stop-color="#AB85FF"/>
      <stop offset=".5" stop-color="#EBA3E3"/>
      <stop offset="1" stop-color="#FFDBE4"/>
    </linearGradient>
    <linearGradient id="paint12_linear" x1="65" y1="102.5" x2="79.9" y2="81.9" gradientUnits="userSpaceOnUse">
      <stop stop-color="#AB85FF"/>
      <stop offset=".5" stop-color="#EBA3E3"/>
      <stop offset="1" stop-color="#FFDBE4"/>
    </linearGradient>
    <linearGradient id="paint13_linear" x1="65" y1="86.7" x2="79.9" y2="107.3" gradientUnits="userSpaceOnUse">
      <stop stop-color="#AB85FF"/>
      <stop offset=".5" stop-color="#EBA3E3"/>
      <stop offset="1" stop-color="#FFDBE4"/>
    </linearGradient>
    <linearGradient id="paint14_linear" x1="147.7" y1="103.1" x2="171" y2="77" gradientUnits="userSpaceOnUse">
      <stop stop-color="#AB85FF"/>
      <stop offset=".5" stop-color="#EBA3E3"/>
      <stop offset="1" stop-color="#FFDBE4"/>
    </linearGradient>
    <linearGradient id="paint15_linear" x1="229.8" y1="103.1" x2="253.1" y2="77" gradientUnits="userSpaceOnUse">
      <stop stop-color="#AB85FF"/>
      <stop offset=".5" stop-color="#EBA3E3"/>
      <stop offset="1" stop-color="#FFDBE4"/>
    </linearGradient>
  </defs>
</svg>
