<svg width="341" height="180" viewBox="0 0 341 180" fill="none" xmlns="http://www.w3.org/2000/svg">
<rect width="341" height="180" fill="#F5F5F5"/>
<circle cx="253.375" cy="44.375" r="1.375" fill="#D4D4D4"/>
<circle cx="259.125" cy="44.375" r="1.375" fill="#D4D4D4"/>
<circle cx="264.875" cy="44.375" r="1.375" fill="#D4D4D4"/>
<circle cx="270.625" cy="44.375" r="1.375" fill="#D4D4D4"/>
<circle cx="276.375" cy="44.375" r="1.375" fill="#D4D4D4"/>
<circle cx="282.125" cy="44.375" r="1.375" fill="#D4D4D4"/>
<circle cx="287.875" cy="44.375" r="1.375" fill="#D4D4D4"/>
<circle cx="293.625" cy="44.375" r="1.375" fill="#D4D4D4"/>
<circle cx="299.375" cy="44.375" r="1.375" fill="#D4D4D4"/>
<circle cx="253.375" cy="50.125" r="1.375" fill="#D4D4D4"/>
<circle cx="259.125" cy="50.125" r="1.375" fill="#D4D4D4"/>
<circle cx="253.375" cy="55.875" r="1.375" fill="#D4D4D4"/>
<circle cx="259.125" cy="55.875" r="1.375" fill="#D4D4D4"/>
<circle cx="264.875" cy="55.875" r="1.375" fill="#D4D4D4"/>
<circle cx="270.625" cy="55.875" r="1.375" fill="#D4D4D4"/>
<circle cx="276.375" cy="55.875" r="1.375" fill="#D4D4D4"/>
<circle cx="282.125" cy="55.875" r="1.375" fill="#D4D4D4"/>
<circle cx="287.875" cy="55.875" r="1.375" fill="#D4D4D4"/>
<circle cx="293.625" cy="55.875" r="1.375" fill="#D4D4D4"/>
<circle cx="299.375" cy="55.875" r="1.375" fill="#D4D4D4"/>
<circle cx="264.875" cy="50.125" r="1.375" fill="#D4D4D4"/>
<circle cx="270.625" cy="50.125" r="1.375" fill="#D4D4D4"/>
<circle cx="276.375" cy="50.125" r="1.375" fill="#D4D4D4"/>
<circle cx="282.125" cy="50.125" r="1.375" fill="#D4D4D4"/>
<circle cx="287.875" cy="50.125" r="1.375" fill="#D4D4D4"/>
<circle cx="293.625" cy="50.125" r="1.375" fill="#D4D4D4"/>
<circle cx="299.375" cy="50.125" r="1.375" fill="#D4D4D4"/>
<circle cx="43.375" cy="136.875" r="1.375" fill="#D4D4D4"/>
<circle cx="49.125" cy="136.875" r="1.375" fill="#D4D4D4"/>
<circle cx="54.875" cy="136.875" r="1.375" fill="#D4D4D4"/>
<circle cx="60.625" cy="136.875" r="1.375" fill="#D4D4D4"/>
<circle cx="66.375" cy="136.875" r="1.375" fill="#D4D4D4"/>
<circle cx="72.125" cy="136.875" r="1.375" fill="#D4D4D4"/>
<circle cx="77.875" cy="136.875" r="1.375" fill="#D4D4D4"/>
<circle cx="83.625" cy="136.875" r="1.375" fill="#D4D4D4"/>
<circle cx="89.375" cy="136.875" r="1.375" fill="#D4D4D4"/>
<circle cx="43.375" cy="142.625" r="1.375" fill="#D4D4D4"/>
<circle cx="49.125" cy="142.625" r="1.375" fill="#D4D4D4"/>
<circle cx="43.375" cy="148.375" r="1.375" fill="#D4D4D4"/>
<circle cx="49.125" cy="148.375" r="1.375" fill="#D4D4D4"/>
<circle cx="54.875" cy="148.375" r="1.375" fill="#D4D4D4"/>
<circle cx="60.625" cy="148.375" r="1.375" fill="#D4D4D4"/>
<circle cx="66.375" cy="148.375" r="1.375" fill="#D4D4D4"/>
<circle cx="72.125" cy="148.375" r="1.375" fill="#D4D4D4"/>
<circle cx="77.875" cy="148.375" r="1.375" fill="#D4D4D4"/>
<circle cx="83.625" cy="148.375" r="1.375" fill="#D4D4D4"/>
<circle cx="89.375" cy="148.375" r="1.375" fill="#D4D4D4"/>
<circle cx="54.875" cy="142.625" r="1.375" fill="#D4D4D4"/>
<circle cx="60.625" cy="142.625" r="1.375" fill="#D4D4D4"/>
<circle cx="66.375" cy="142.625" r="1.375" fill="#D4D4D4"/>
<circle cx="72.125" cy="142.625" r="1.375" fill="#D4D4D4"/>
<circle cx="77.875" cy="142.625" r="1.375" fill="#D4D4D4"/>
<circle cx="83.625" cy="142.625" r="1.375" fill="#D4D4D4"/>
<circle cx="89.375" cy="142.625" r="1.375" fill="#D4D4D4"/>
<g clip-path="url(#clip0)">
<rect x="137" y="21" width="139" height="139" rx="69.5" fill="#AB85FF"/>
<path d="M124 90.0003L124.248 91.1102L124.497 92.219L124.745 93.3259L124.994 94.4297L125.242 95.5296L125.49 96.6245L125.739 97.7134L125.987 98.7954L126.236 99.8695L126.484 100.935L126.732 101.99L126.981 103.035L127.229 104.067L127.478 105.088L127.726 106.094L127.975 107.086L128.223 108.063L128.471 109.024L128.72 109.967L128.968 110.892L129.217 111.799L129.465 112.686L129.713 113.552L129.962 114.398L130.21 115.221L130.459 116.022L130.707 116.799L130.955 117.552L131.204 118.281L131.452 118.984L131.701 119.661L131.949 120.311L132.197 120.934L132.446 121.529L132.694 122.095L132.943 122.633L133.191 123.141L133.439 123.62L133.688 124.068L133.936 124.486L134.185 124.873L134.433 125.228L134.682 125.552L134.93 125.843L135.178 126.102L135.427 126.329L135.675 126.523L135.924 126.685L136.172 126.813L136.42 126.908L136.669 126.97L136.917 126.999L137.166 126.994L137.414 126.956L137.662 126.885L137.911 126.78L138.159 126.643L138.408 126.472L138.656 126.269L138.904 126.033L139.153 125.765L139.401 125.464L139.65 125.132L139.898 124.768L140.146 124.372L140.395 123.946L140.643 123.489L140.892 123.002L141.14 122.485L141.389 121.939L141.637 121.365L141.885 120.762L142.134 120.131L142.382 119.474L142.631 118.789L142.879 118.079L143.127 117.344L143.376 116.584L143.624 115.8L143.873 114.993L144.121 114.163L144.369 113.312L144.618 112.439L144.866 111.547L145.115 110.635L145.363 109.704L145.611 108.756L145.86 107.791L146.108 106.81L146.357 105.814L146.605 104.803L146.854 103.779L147.102 102.743L147.35 101.695L147.599 100.637L147.847 99.5693L148.096 98.4929L148.344 97.4089L148.592 96.3182L148.841 95.2218L149.089 94.1207L149.338 93.0159L149.586 91.9084L149.834 90.7992L150.083 89.6892L150.331 88.5796L150.58 87.4712L150.828 86.3651L151.076 85.2623L151.325 84.1637L151.573 83.0704L151.822 81.9833L152.07 80.9034L152.318 79.8317L152.567 78.7692L152.815 77.7168L153.064 76.6754L153.312 75.646L153.561 74.6295L153.809 73.6269L154.057 72.639L154.306 71.6667L154.554 70.711L154.803 69.7726L155.051 68.8524L155.299 67.9512L155.548 67.0698L155.796 66.2091L156.045 65.3699L156.293 64.5527L156.541 63.7585L156.79 62.9879L157.038 62.2416L157.287 61.5203L157.535 60.8246L157.783 60.1552L158.032 59.5126L158.28 58.8975L158.529 58.3103L158.777 57.7517L159.025 57.2221L159.274 56.722L159.522 56.2519L159.771 55.8121L160.019 55.403L160.268 55.0252L160.516 54.6788L160.764 54.3641L161.013 54.0816L161.261 53.8314L161.51 53.6137L161.758 53.4288L162.006 53.2767L162.255 53.1578L162.503 53.072L162.752 53.0194L163 53.0001L163.248 53.0141L163.497 53.0614L163.745 53.1419L163.994 53.2556L164.242 53.4023L164.49 53.582L164.739 53.7945L164.987 54.0396L165.236 54.317L165.484 54.6265L165.732 54.9679L165.981 55.3408L166.229 55.7449L166.478 56.1798L166.726 56.6451L166.975 57.1405L167.223 57.6654L167.471 58.2194L167.72 58.8021L167.968 59.4128L168.217 60.051L168.465 60.7162L168.713 61.4078L168.962 62.125L169.21 62.8674L169.459 63.6342L169.707 64.4247L169.955 65.2382L170.204 66.074L170.452 66.9314L170.701 67.8095L170.949 68.7075L171.197 69.6248L171.446 70.5603L171.694 71.5134L171.943 72.4831L172.191 73.4686L172.439 74.4689L172.688 75.4832L172.936 76.5106L173.185 77.5501L173.433 78.6009L173.682 79.6618L173.93 80.7321L174.178 81.8108L174.427 82.8968L174.675 83.9892L174.924 85.087L175.172 86.1892L175.42 87.2949L175.669 88.4029L175.917 89.5125L176.166 90.6224L176.414 91.7318L176.662 92.8397L176.911 93.945L177.159 95.0467L177.408 96.1439L177.656 97.2356L177.904 98.3208L178.153 99.3984L178.401 100.468L178.65 101.527L178.898 102.577L179.146 103.615L179.395 104.641L179.643 105.654L179.892 106.652L180.14 107.636L180.389 108.603L180.637 109.554L180.885 110.488L181.134 111.403L181.382 112.298L181.631 113.174L181.879 114.029L182.127 114.862L182.376 115.673L182.624 116.46L182.873 117.224L183.121 117.964L183.369 118.678L183.618 119.366L183.866 120.028L184.115 120.663L184.363 121.271L184.611 121.85L184.86 122.4L185.108 122.922L185.357 123.413L185.605 123.875L185.854 124.306L186.102 124.707L186.35 125.076L186.599 125.413L186.847 125.719L187.096 125.992L187.344 126.234L187.592 126.442L187.841 126.618L188.089 126.761L188.338 126.87L188.586 126.947L188.834 126.99L189.083 127L189.331 126.977L189.58 126.92L189.828 126.83L190.076 126.707L190.325 126.551L190.573 126.362L190.822 126.141L191.07 125.887L191.318 125.6L191.567 125.282L191.815 124.931L192.064 124.55L192.312 124.137L192.561 123.694L192.809 123.22L193.057 122.716L193.306 122.183L193.554 121.621L193.803 121.03L194.051 120.412L194.299 119.766L194.548 119.093L194.796 118.394L195.045 117.67L195.293 116.921L195.541 116.147L195.79 115.35L196.038 114.53L196.287 113.688L196.535 112.825L196.783 111.941L197.032 111.038L197.28 110.116L197.529 109.175L197.777 108.217L198.025 107.243L198.274 106.253L198.522 105.249L198.771 104.231L199.019 103.2L199.268 102.157L199.516 101.103L199.764 100.04L200.013 98.967L200.261 97.8862L200.51 96.7983L200.758 95.7043L201.006 94.6052L201.255 93.5019L201.503 92.3955L201.752 91.2869L202 90.1771L202.248 89.0672L202.497 87.9581L202.745 86.8509L202.994 85.7465L203.242 84.6459L203.49 83.5502L203.739 82.4602L203.987 81.3771L204.236 80.3017L204.484 79.235L204.732 78.178L204.981 77.1317L205.229 76.0969L205.478 75.0746L205.726 74.0658L205.975 73.0713L206.223 72.0921L206.471 71.129L206.72 70.1828L206.968 69.2545L207.217 68.3449L207.465 67.4547L207.713 66.5848L207.962 65.736L208.21 64.9091L208.459 64.1047L208.707 63.3236L208.955 62.5666L209.204 61.8342L209.452 61.1272L209.701 60.4461L209.949 59.7917L210.197 59.1644L210.446 58.5649L210.694 57.9937L210.943 57.4513L211.191 56.9381L211.439 56.4548L211.688 56.0016L211.936 55.579L212.185 55.1874L212.433 54.8271L212.682 54.4985L212.93 54.2018L213.178 53.9373L213.427 53.7053L213.675 53.506L213.924 53.3395L214.172 53.206L214.42 53.1056L214.669 53.0384L214.917 53.0045L215.166 53.0038L215.414 53.0365L215.662 53.1024L215.911 53.2015L216.159 53.3338L216.408 53.499L216.656 53.6971L216.904 53.9279L217.153 54.1911L217.401 54.4865L217.65 54.8139L217.898 55.173L218.146 55.5634L218.395 55.9848L218.643 56.4369L218.892 56.9191L219.14 57.4311L219.389 57.9724L219.637 58.5425L219.885 59.141L220.134 59.7672L220.382 60.4206L220.631 61.1006L220.879 61.8067L221.127 62.5381L221.376 63.2942L221.624 64.0744L221.873 64.8779L222.121 65.704L222.369 66.5519L222.618 67.421L222.866 68.3104L223.115 69.2193L223.363 70.1469L223.611 71.0924L223.86 72.0549L224.108 73.0336L224.357 74.0275L224.605 75.0358L224.853 76.0575L225.102 77.0918L225.35 78.1377L225.599 79.1943L225.847 80.2607L226.096 81.3357L226.344 82.4186L226.592 83.5083L226.841 84.6039L227.089 85.7043L227.338 86.8085L227.586 87.9157L227.834 89.0247L228.083 90.1346L228.331 91.2444L228.58 92.353L228.828 93.4596L229.076 94.563L229.325 95.6623L229.573 96.7566L229.822 97.8447L230.07 98.9258L230.318 99.9988L230.567 101.063L230.815 102.117L231.064 103.16L231.312 104.192L231.561 105.21L231.809 106.215L232.057 107.205L232.306 108.18L232.554 109.139L232.803 110.08L233.051 111.003L233.299 111.907L233.548 112.792L233.796 113.656L234.045 114.499L234.293 115.319L234.541 116.117L234.79 116.892L235.038 117.642L235.287 118.367L235.535 119.067L235.783 119.741L236.032 120.388L236.28 121.007L236.529 121.599L236.777 122.162L237.025 122.696L237.274 123.201L237.522 123.676L237.771 124.121L238.019 124.535L238.268 124.917L238.516 125.269L238.764 125.589L239.013 125.876L239.261 126.132L239.51 126.354L239.758 126.545L240.006 126.702L240.255 126.826L240.503 126.917L240.752 126.975L241 127L241.248 126.991L241.497 126.949L241.745 126.874L241.994 126.765L242.242 126.624L242.49 126.449L242.739 126.242L242.987 126.002L243.236 125.73L243.484 125.426L243.732 125.089L243.981 124.721L244.229 124.322L244.478 123.892L244.726 123.432L244.975 122.941L245.223 122.421L245.471 121.871L245.72 121.293L245.968 120.687L246.217 120.053L246.465 119.392L246.713 118.705L246.962 117.992L247.21 117.253L247.459 116.49L247.707 115.703L247.955 114.894L248.204 114.061L248.452 113.207L248.701 112.332L248.949 111.437L249.197 110.523L249.446 109.591L249.694 108.64L249.943 107.673L250.191 106.69L250.439 105.692L250.688 104.68L250.936 103.654L251.185 102.617L251.433 101.568L251.682 100.508L251.93 99.4395L252.178 98.3622L252.427 97.2773L252.675 96.1858L252.924 95.0888L253.172 93.9872L253.42 92.8821L253.669 91.7743L253.917 90.6649L254.166 89.555L254.414 88.4454L254.662 87.3372L254.911 86.2315L255.159 85.1291L255.408 84.0311L255.656 82.9385L255.904 81.8522L256.153 80.7733L256.401 79.7027L256.65 78.6413L256.898 77.5902L257.146 76.5502L257.395 75.5223L257.643 74.5075L257.892 73.5066L258.14 72.5205L258.389 71.5502L258.637 70.5965L258.885 69.6603L259.134 68.7423L259.382 67.8435L259.631 66.9646L259.879 66.1065L260.127 65.2698L260.376 64.4554L260.624 63.664L260.873 62.8963L261.121 62.153L261.369 61.4348L261.618 60.7422L261.866 60.076L262.115 59.4367L262.363 58.8249L262.611 58.2412L262.86 57.6861L263.108 57.16L263.357 56.6635L263.605 56.197L263.854 55.7609L264.102 55.3557L264.35 54.9816L264.599 54.639L264.847 54.3282L265.096 54.0496L265.344 53.8033L265.592 53.5896L265.841 53.4086L266.089 53.2606L266.338 53.1456L266.586 53.0638L266.834 53.0153L267.083 53L267.331 53.018L267.58 53.0693L267.828 53.1539L268.076 53.2716L268.325 53.4223L268.573 53.606L268.822 53.8224L269.07 54.0714L269.318 54.3527L269.567 54.6661L269.815 55.0113L270.064 55.388L270.312 55.7958L270.561 56.2345L270.809 56.7035L271.057 57.2024L271.306 57.7309L271.554 58.2884L271.803 58.8745L272.051 59.4886L272.299 60.1301L272.548 60.7985L272.796 61.4932L273.045 62.2135L273.293 62.9589L273.541 63.7286L273.79 64.5219L274.038 65.3382L274.287 66.1766L274.535 67.0365L274.783 67.9171L275.032 68.8175L275.28 69.737L275.529 70.6747L275.777 71.6298L276.025 72.6015L276.274 73.5888L276.522 74.5909L276.771 75.6068L277.019 76.6357L277.268 77.6767L277.516 78.7287L277.764 79.7909L278.013 80.8622L278.261 81.9418L278.51 83.0286L278.758 84.1217L279.006 85.2201L279.255 86.3228L279.503 87.4288L279.752 88.5371L280 89.6468L124 90.0003Z" stroke="black"/>
</g>
<rect width="9" height="49" transform="translate(86 111)" fill="#31D67B"/>
<rect width="9" height="87" transform="translate(103 73)" fill="#31D67B"/>
<rect width="9" height="117" transform="translate(120 43)" fill="#31D67B"/>
<defs>
<clipPath id="clip0">
<rect x="137" y="21" width="139" height="139" rx="69.5" fill="white"/>
</clipPath>
</defs>
</svg>
