<svg width="341" height="180" viewBox="0 0 341 180" fill="none" xmlns="http://www.w3.org/2000/svg">
<rect width="341" height="180" fill="#F5F5F5"/>
<path d="M44.431 141.75L116.262 29.9251L188.092 141.75H44.431Z" stroke="black"/>
<rect width="19.5276" height="87.874" transform="matrix(-1 0 0 1 89.8633 53.125)" fill="#4AE991"/>
<rect width="12.5534" height="57.1879" transform="matrix(-1 0 0 1 110.523 83.8125)" fill="#4AE991"/>
<rect width="6.97413" height="32.081" transform="matrix(-1 0 0 1 125.605 108.918)" fill="#4AE991"/>
<path d="M110.523 113.126H161.435M161.435 113.126L160.04 113.799M161.435 113.126L160.04 112.453" stroke="black"/>
<path d="M110.523 101.944H181.66M181.66 101.944L179.711 102.641M181.66 101.944L179.711 101.246" stroke="black"/>
<path d="M110.523 124.26H142.604M142.604 124.26L141.726 124.957M142.604 124.26L141.726 123.562" stroke="black"/>
<path d="M110.523 90.7833H133.538M133.538 90.7833L132.908 91.4808M133.538 90.7833L132.908 90.0859" stroke="black"/>
<circle cx="250.353" cy="113.373" r="31.8765" fill="#B491FF"/>
<circle cx="295.482" cy="62.1307" r="13.2557" fill="#A57CFE"/>
<circle cx="238.055" cy="57.4459" r="8.57086" fill="#8052E4"/>
</svg>
