<svg width="342" height="180" viewBox="0 0 342 180" fill="none" xmlns="http://www.w3.org/2000/svg">
<rect width="341" height="180" transform="translate(0.908203)" fill="#F5F5F5"/>
<path d="M218.669 81.828L150.582 81.828M150.582 81.828L152.447 80.6307M150.582 81.828L152.447 83.0254" stroke="black"/>
<path d="M218.669 101.724L139.402 101.724M139.402 101.724L141.574 100.69M139.402 101.724L141.574 102.758" stroke="black"/>
<path d="M218.669 62.021L175.765 62.021M175.765 62.021L176.94 60.7803M175.765 62.021L176.94 63.2617" stroke="black"/>
<path d="M218.669 121.576L187.89 121.576M187.89 121.576L188.733 120.335M187.89 121.576L188.733 122.816" stroke="black"/>
<rect width="57" height="113" transform="translate(228.314 36.5)" fill="#31D67B"/>
<rect x="218.814" y="31" width="56" height="110" stroke="black"/>
<circle cx="261.991" cy="77.8596" r="3.10184" fill="#D4D4D4"/>
<circle cx="274.398" cy="77.8596" r="3.10184" fill="#D4D4D4"/>
<circle cx="286.805" cy="77.8596" r="3.10184" fill="#D4D4D4"/>
<circle cx="299.213" cy="77.8596" r="3.10184" fill="#D4D4D4"/>
<circle cx="261.991" cy="90.2679" r="3.10184" fill="#D4D4D4"/>
<circle cx="274.398" cy="90.2679" r="3.10184" fill="#D4D4D4"/>
<circle cx="286.805" cy="90.2679" r="3.10184" fill="#D4D4D4"/>
<circle cx="299.213" cy="90.2679" r="3.10184" fill="#D4D4D4"/>
<circle cx="299.213" cy="102.674" r="3.10184" fill="#D4D4D4"/>
<circle cx="286.805" cy="102.674" r="3.10184" fill="#D4D4D4"/>
<circle cx="274.398" cy="102.674" r="3.10184" fill="#D4D4D4"/>
<circle cx="261.991" cy="102.674" r="3.10184" fill="#D4D4D4"/>
<rect x="78.3501" y="56.8398" width="13" height="98" transform="rotate(22.7183 78.3501 56.8398)" fill="#AB85FF"/>
<rect x="101.555" y="45.9238" width="13" height="98" transform="rotate(22.7183 101.555 45.9238)" fill="#AB85FF"/>
<rect x="127.411" y="27.7422" width="13" height="98" transform="rotate(22.7183 127.411 27.7422)" fill="#AB85FF"/>
</svg>
