<svg width="342" height="180" viewBox="0 0 342 180" fill="none" xmlns="http://www.w3.org/2000/svg">
<rect width="341" height="180" transform="translate(0.908203)" fill="#F5F5F5"/>
<path d="M86.6465 37.125C73.1465 38.125 47.3465 48.825 46.1465 77.625C46.1465 113.625 73.6465 123.125 87.1465 123.125C106.646 123.125 187.646 123.125 233.646 123.125" stroke="black"/>
<path d="M86.4429 37.125H114.172" stroke="black"/>
<path d="M240.872 65.0312L289.195 140.419H192.549L240.872 65.0312Z" fill="#31D67B"/>
<path d="M89.7586 123.125L89.7586 72.3113M89.7586 72.3113L89.1603 73.7034M89.7586 72.3113L90.3569 73.7034" stroke="black"/>
<path d="M99.7402 123.125L99.7402 84.125M99.7402 84.125L99.2402 85.1935M99.7402 84.125L100.24 85.1935" stroke="black"/>
<path d="M79.8605 123.125V91.1054M79.8605 91.1054L79.2405 91.9826M79.8605 91.1054L80.4805 91.9826" stroke="black"/>
<path d="M109.62 123.125V100.154M109.62 100.154L109 100.784M109.62 100.154L110.24 100.784" stroke="black"/>
<circle cx="122.333" cy="44.6763" r="22.1685" fill="#A57CFE"/>
<mask id="mask0" mask-type="alpha" maskUnits="userSpaceOnUse" x="100" y="22" width="45" height="45">
<circle cx="122.333" cy="44.6763" r="22.1685" fill="#A57CFE"/>
</mask>
<g mask="url(#mask0)">
<path d="M142.947 19.3633V72.1319M142.947 19.3633V72.1319" stroke="#B491FF"/>
<path d="M139.638 19.3633V72.1319M139.638 19.3633V72.1319" stroke="#B491FF"/>
<path d="M136.329 19.3633V72.1319M136.329 19.3633V72.1319" stroke="#B491FF"/>
<path d="M133.02 19.3633V72.1319M133.02 19.3633V72.1319" stroke="#B491FF"/>
<path d="M129.711 19.3633V72.1319M129.711 19.3633V72.1319" stroke="#B491FF"/>
<path d="M126.402 19.3633V72.1319M126.402 19.3633V72.1319" stroke="#B491FF"/>
<path d="M122.996 19.9688V72.1238M122.996 19.9688V72.1238" stroke="#B491FF"/>
<path d="M120.018 19.6621V72.4307M120.018 19.6621V72.4307" stroke="#B491FF"/>
<path d="M116.708 19.6621V72.4307M116.708 19.6621V72.4307" stroke="#B491FF"/>
<path d="M113.4 19.6621V72.4307M113.4 19.6621V72.4307" stroke="#B491FF"/>
<path d="M110.091 19.6621V72.4307M110.091 19.6621V72.4307" stroke="#B491FF"/>
<path d="M106.782 19.6621V72.4307M106.782 19.6621V72.4307" stroke="#B491FF"/>
<path d="M103.473 19.6621V72.4307M103.473 19.6621V72.4307" stroke="#B491FF"/>
<path d="M100.165 19.6621V72.4307M100.165 19.6621V72.4307" stroke="#B491FF"/>
</g>
<path d="M110.24 32.7775C110.24 34.34 109.932 35.8873 109.334 37.3309C108.736 38.7745 107.86 40.0862 106.755 41.1911C105.65 42.296 104.338 43.1724 102.895 43.7704C101.451 44.3683 99.904 44.6761 98.3415 44.6761C96.7789 44.6761 95.2317 44.3683 93.7881 43.7704C92.3445 43.1724 91.0328 42.296 89.9279 41.1911C88.823 40.0862 87.9466 38.7745 87.3486 37.3309C86.7506 35.8873 86.4429 34.34 86.4429 32.7775L98.3415 32.7775H110.24Z" fill="#8052E4"/>
<path d="M159.516 60.288C159.516 58.0808 159.081 55.8952 158.237 53.856C157.392 51.8168 156.154 49.964 154.593 48.4032C153.033 46.8425 151.18 45.6045 149.141 44.7598C147.101 43.9151 144.916 43.4804 142.709 43.4804C140.501 43.4804 138.316 43.9151 136.277 44.7598C134.237 45.6045 132.384 46.8425 130.824 48.4032C129.263 49.964 128.025 51.8168 127.18 53.856C126.336 55.8952 125.901 58.0808 125.901 60.2881L142.709 60.288H159.516Z" fill="#8052E4"/>
<mask id="mask1" mask-type="alpha" maskUnits="userSpaceOnUse" x="221" y="60" width="66" height="56">
<path d="M269.994 114.289L261.994 60.2891" stroke="black"/>
<path d="M265.494 114.289L257.494 60.2891" stroke="black"/>
<path d="M260.494 114.289L252.494 60.2891" stroke="black"/>
<path d="M255.494 114.289L247.494 60.2891" stroke="black"/>
<path d="M250.494 115.289L242.494 61.2891" stroke="black"/>
<path d="M245.494 115.289L237.494 61.2891" stroke="black"/>
<path d="M240.494 115.289L232.494 61.2891" stroke="black"/>
<path d="M235.494 115.289L227.494 61.2891" stroke="black"/>
<path d="M230.494 115.289L222.494 61.2891" stroke="black"/>
<path d="M275.494 114.289L267.494 60.2891" stroke="black"/>
<path d="M281.494 114.289L273.494 60.2891" stroke="black"/>
<path d="M286.494 114.289L278.494 60.2891" stroke="black"/>
</mask>
<g mask="url(#mask1)">
<path d="M256.994 60.2891L286.872 112.039H227.116L256.994 60.2891Z" fill="black"/>
</g>
</svg>
