<svg width="342" height="180" viewBox="0 0 342 180" fill="none" xmlns="http://www.w3.org/2000/svg">
<rect width="341" height="180" transform="translate(0.908203)" fill="#F5F5F5"/>
<path d="M45.3378 141.75L117.168 29.9251L188.999 141.75H45.3378Z" stroke="black"/>
<rect width="19.5276" height="87.874" transform="matrix(-1 0 0 1 90.7734 53.125)" fill="#4AE991"/>
<rect width="12.5534" height="57.1879" transform="matrix(-1 0 0 1 111.434 83.8105)" fill="#4AE991"/>
<rect width="6.97413" height="32.081" transform="matrix(-1 0 0 1 126.516 108.918)" fill="#4AE991"/>
<path d="M111.434 113.128H162.345M162.345 113.128L160.95 113.801M162.345 113.128L160.95 112.455" stroke="black"/>
<path d="M111.434 101.944H182.57M182.57 101.944L180.621 102.641M182.57 101.944L180.621 101.246" stroke="black"/>
<path d="M111.434 124.262H143.515M143.515 124.262L142.636 124.959M143.515 124.262L142.636 123.564" stroke="black"/>
<path d="M111.434 90.7853H134.449M134.449 90.7853L133.818 91.4827M134.449 90.7853L133.818 90.0879" stroke="black"/>
<circle cx="251.26" cy="113.373" r="31.8765" fill="#B491FF"/>
<circle cx="296.392" cy="62.1326" r="13.2557" fill="#A57CFE"/>
<circle cx="238.963" cy="57.4478" r="8.57086" fill="#8052E4"/>
</svg>
