<svg width="20" height="21" viewBox="0 0 20 21" fill="none" xmlns="http://www.w3.org/2000/svg">
<g clip-path="url(#clip0)">
<path d="M0.585497 16.7383H3.51518V18.4961C3.51518 18.8197 3.77752 19.082 4.10111 19.082H19.4136C19.7372 19.082 19.9995 18.8197 19.9995 18.4961V3.26172C19.9995 2.93812 19.7372 2.67578 19.4136 2.67578H16.4839V2.08984C16.4839 1.76625 16.2216 1.50391 15.898 1.50391C15.5744 1.50391 15.312 1.76625 15.312 2.08984V2.67578H12.3433V2.08984C12.3433 1.76625 12.0809 1.50391 11.7573 1.50391C11.4338 1.50391 11.1714 1.76625 11.1714 2.08984V2.67578H8.24173V2.08984C8.24173 1.76625 7.97939 1.50391 7.6558 1.50391C7.3322 1.50391 7.06986 1.76625 7.06986 2.08984V2.67578H4.10111C3.77752 2.67578 3.51518 2.93812 3.51518 3.26172V6.77733C3.51518 11.0957 1.72046 14.4178 0.21038 15.7022C0.0208496 15.8601 -0.0494237 16.1198 0.0345215 16.3518C0.118545 16.5838 0.338779 16.7383 0.585497 16.7383ZM18.8276 17.9101H4.68705V16.7383H15.898C16.035 16.7383 16.1678 16.6902 16.2731 16.6024C16.9775 16.0158 18.0685 14.619 18.8276 12.83V17.9101ZM4.68705 3.84765H7.06986V4.43359C7.06986 4.75718 7.3322 5.01952 7.6558 5.01952C7.97939 5.01952 8.24173 4.75718 8.24173 4.43359V3.84765H11.1714V4.43359C11.1714 4.75718 11.4338 5.01952 11.7573 5.01952C12.0809 5.01952 12.3433 4.75718 12.3433 4.43359V3.84765H15.312V4.43359C15.312 4.75718 15.5744 5.01952 15.898 5.01952C16.2216 5.01952 16.4839 4.75718 16.4839 4.43359V3.84765H18.8276V6.1914H4.68705V3.84765ZM4.67701 7.36288H18.8173C18.6852 11.0799 17.2586 14.0044 15.6682 15.5664H1.91827C3.72033 13.2703 4.58033 10.2805 4.67701 7.36288Z" fill="url(#paint0_linear)"/>
</g>
<defs>
<linearGradient id="paint0_linear" x1="-3.25382" y1="20.8375" x2="16.2115" y2="-7.79153" gradientUnits="userSpaceOnUse">
<stop stop-color="#AB85FF"/>
<stop offset="0.526042" stop-color="#EBA3E3"/>
<stop offset="1" stop-color="#FFDBE4"/>
</linearGradient>
<clipPath id="clip0">
<rect width="20" height="20" fill="white" transform="translate(0 0.292969)"/>
</clipPath>
</defs>
</svg>
