<svg width="20" height="21" viewBox="0 0 20 21" fill="none" xmlns="http://www.w3.org/2000/svg">
<g clip-path="url(#clip0_1201_3567)">
<path d="M0.585985 17.0195H3.51567V18.7773C3.51567 19.1009 3.77801 19.3632 4.1016 19.3632H19.4141C19.7377 19.3632 20 19.1009 20 18.7773V3.54297C20 3.21937 19.7377 2.95703 19.4141 2.95703H16.4844V2.37109C16.4844 2.0475 16.222 1.78516 15.8985 1.78516C15.5749 1.78516 15.3125 2.0475 15.3125 2.37109V2.95703H12.3438V2.37109C12.3438 2.0475 12.0814 1.78516 11.7578 1.78516C11.4342 1.78516 11.1719 2.0475 11.1719 2.37109V2.95703H8.24222V2.37109C8.24222 2.0475 7.97988 1.78516 7.65628 1.78516C7.33269 1.78516 7.07035 2.0475 7.07035 2.37109V2.95703H4.1016C3.77801 2.95703 3.51567 3.21937 3.51567 3.54297V7.05858C3.51567 11.3769 1.72094 14.699 0.210869 15.9834C0.0213379 16.1414 -0.0489354 16.4011 0.0350098 16.6331C0.119033 16.865 0.339267 17.0195 0.585985 17.0195ZM18.8281 18.1914H4.68754V17.0195H15.8985C16.0355 17.0195 16.1683 16.9715 16.2736 16.8837C16.9779 16.297 18.069 14.9002 18.8281 13.1112V18.1914ZM4.68754 4.1289H7.07035V4.71484C7.07035 5.03843 7.33269 5.30077 7.65628 5.30077C7.97988 5.30077 8.24222 5.03843 8.24222 4.71484V4.1289H11.1719V4.71484C11.1719 5.03843 11.4342 5.30077 11.7578 5.30077C12.0814 5.30077 12.3438 5.03843 12.3438 4.71484V4.1289H15.3125V4.71484C15.3125 5.03843 15.5749 5.30077 15.8985 5.30077C16.222 5.30077 16.4844 5.03843 16.4844 4.71484V4.1289H18.8281V6.47265H4.68754V4.1289ZM4.6775 7.64413H18.8177C18.6857 11.3611 17.2591 14.2856 15.6687 15.8476H1.91876C3.72082 13.5515 4.58082 10.5618 4.6775 7.64413Z" fill="white"/>
</g>
<defs>
<clipPath id="clip0_1201_3567">
<rect width="20" height="20" fill="white" transform="translate(0 0.574219)"/>
</clipPath>
</defs>
</svg>
