<svg width="20" height="21" viewBox="0 0 20 21" fill="none" xmlns="http://www.w3.org/2000/svg">
<g clip-path="url(#clip0)">
<path d="M2.91114 19.0983H1.49401L2.4961 18.0962C3.03641 17.5559 3.37382 16.8532 3.46453 16.0908C2.05459 15.1655 1.02358 13.9482 0.471684 12.5522C-0.079823 11.1572 -0.149128 9.62154 0.271282 8.11122C0.775712 6.29899 1.95883 4.64721 3.60263 3.4601C5.38892 2.17014 7.61264 1.48828 10.0334 1.48828C13.083 1.48828 15.6534 2.36444 17.4667 4.02198C19.1003 5.51527 20 7.5295 20 9.6937C20 10.7451 19.7859 11.7682 19.3637 12.7345C18.9268 13.7344 18.287 14.6247 17.4621 15.3806C15.6463 17.0447 13.0775 17.9243 10.0334 17.9243C8.90333 17.9243 7.72413 17.7735 6.67132 17.4966C5.67479 18.5189 4.32441 19.0983 2.91114 19.0983ZM10.0334 2.66228C5.17936 2.66228 2.20087 5.5571 1.40228 8.42605C0.647628 11.1372 1.76007 13.699 4.3781 15.2789L4.67062 15.4554L4.66162 15.797C4.64378 16.4729 4.48263 17.124 4.19417 17.7126C4.89658 17.475 5.53395 17.0441 6.03305 16.4544L6.28124 16.1612L6.64929 16.2713C7.68214 16.5802 8.88396 16.7503 10.0334 16.7503C16.0745 16.7503 18.826 13.0924 18.826 9.6937C18.826 7.8632 18.062 6.15666 16.6746 4.88851C15.0814 3.43212 12.7849 2.66228 10.0334 2.66228Z" fill="url(#paint0_linear)"/>
</g>
<defs>
<linearGradient id="paint0_linear" x1="-3.25334" y1="20.857" x2="16.2604" y2="-7.7911" gradientUnits="userSpaceOnUse">
<stop stop-color="#AB85FF"/>
<stop offset="0.526042" stop-color="#EBA3E3"/>
<stop offset="1" stop-color="#FFDBE4"/>
</linearGradient>
<clipPath id="clip0">
<rect width="20" height="20" fill="white" transform="translate(0 0.292969)"/>
</clipPath>
</defs>
</svg>
