<svg width="20" height="21" viewBox="0 0 20 21" fill="none" xmlns="http://www.w3.org/2000/svg">
<path d="M19.8729 10.1838C19.6942 9.93942 15.4371 4.19922 9.9999 4.19922C4.56274 4.19922 0.305391 9.93943 0.126914 10.1836C-0.0423048 10.4155 -0.0423048 10.73 0.126914 10.9618C0.305391 11.2063 4.56274 16.9465 9.9999 16.9465C15.4371 16.9465 19.6942 11.2062 19.8729 10.962C20.0423 10.7302 20.0423 10.4155 19.8729 10.1838ZM9.9999 15.6278C5.99486 15.6278 2.52606 11.8179 1.49922 10.5724C2.52473 9.32579 5.98626 5.51789 9.9999 5.51789C14.0048 5.51789 17.4733 9.32712 18.5006 10.5733C17.4751 11.8199 14.0135 15.6278 9.9999 15.6278Z" fill="white"/>
<path d="M9.99902 6.61816C7.8177 6.61816 6.04297 8.39289 6.04297 10.5742C6.04297 12.7556 7.8177 14.5303 9.99902 14.5303C12.1804 14.5303 13.9551 12.7556 13.9551 10.5742C13.9551 8.39289 12.1804 6.61816 9.99902 6.61816ZM9.99902 13.2116C8.54473 13.2116 7.36168 12.0285 7.36168 10.5742C7.36168 9.11997 8.54477 7.93688 9.99902 7.93688C11.4533 7.93688 12.6364 9.11997 12.6364 10.5742C12.6364 12.0285 11.4533 13.2116 9.99902 13.2116Z" fill="white"/>
</svg>
