<svg width="260" height="115" viewBox="0 0 260 115" fill="none" xmlns="http://www.w3.org/2000/svg">
<path d="M245.5 61.5C245 60.5022 244 61.9519 243 62.9961C239.167 66.9961 236.833 65.5 233 61.5" stroke="url(#paint0_linear)" stroke-linecap="round"/>
<path d="M163.887 60.8189C163.713 60.605 163.398 60.573 163.184 60.7476C162.97 60.9222 162.938 61.2372 163.113 61.4511L163.887 60.8189ZM163.61 61.2699L163.223 61.586L163.223 61.5863L163.61 61.2699ZM163.72 61.4045L163.333 61.721L163.333 61.7215L163.72 61.4045ZM163.83 61.5387L163.443 61.8557L163.444 61.8564L163.83 61.5387ZM163.94 61.6725L163.554 61.9902L163.555 61.991L163.94 61.6725ZM164.05 61.8057L163.665 62.1242L163.666 62.1252L164.05 61.8057ZM164.16 61.9381L163.776 62.2577L163.777 62.2589L164.16 61.9381ZM164.27 62.0697L163.887 62.3905L163.888 62.3919L164.27 62.0697ZM164.38 62.2003L163.998 62.5225L163.999 62.524L164.38 62.2003ZM164.49 62.3299L164.109 62.6536L164.111 62.6553L164.49 62.3299ZM164.6 62.4582L164.221 62.7837L164.223 62.7856L164.6 62.4582ZM164.711 62.5853L164.333 62.9127L164.334 62.9148L164.711 62.5853ZM164.821 62.7109L164.444 63.0404L164.447 63.0427L164.821 62.7109ZM164.931 62.835L164.557 63.1668L164.559 63.1692L164.931 62.835ZM165.041 62.9574L164.669 63.2917L164.671 63.2943L165.041 62.9574ZM165.151 63.0781L164.781 63.415L164.784 63.4179L165.151 63.0781ZM165.261 63.1969L164.894 63.5367L164.897 63.5397L165.261 63.1969ZM165.371 63.3137L165.007 63.6565L165.01 63.6598L165.371 63.3137ZM165.481 63.4284L165.12 63.7745L165.123 63.778L165.481 63.4284ZM165.591 63.541L165.233 63.8905L165.237 63.8942L165.591 63.541ZM165.701 63.6512L165.347 64.0044L165.351 64.0083L165.701 63.6512ZM165.811 63.7591L165.461 64.1162L165.465 64.1202L165.811 63.7591ZM165.921 63.8645L165.575 64.2256L165.58 64.2298L165.921 63.8645ZM166.031 63.9673L165.69 64.3327L165.695 64.3371L166.031 63.9673ZM166.141 64.0674L165.805 64.4373L165.81 64.4419L166.141 64.0674ZM166.251 64.1648L165.92 64.5393L165.925 64.5441L166.251 64.1648ZM166.361 64.2594L166.035 64.6387L166.041 64.6437L166.361 64.2594ZM166.471 64.351L166.151 64.7353L166.158 64.7404L166.471 64.351ZM166.581 64.4396L166.268 64.8291L166.275 64.8344L166.581 64.4396ZM166.691 64.525L166.385 64.92L166.392 64.9254L166.691 64.525ZM166.801 64.6074L166.502 65.0078L166.51 65.0134L166.801 64.6074ZM166.911 64.6864L166.62 65.0926L166.628 65.0983L166.911 64.6864ZM167.022 64.7622L166.738 65.1741L166.747 65.18L167.022 64.7622ZM167.132 64.8346L166.857 65.2524L166.866 65.2583L167.132 64.8346ZM167.242 64.9035L166.976 65.3274L166.986 65.3333L167.242 64.9035ZM167.352 64.9689L167.096 65.3988L167.107 65.4048L167.352 64.9689ZM167.462 65.0307L167.217 65.4668L167.228 65.4727L167.462 65.0307ZM167.572 65.0889L167.338 65.5311L167.35 65.5369L167.572 65.0889ZM167.682 65.1435L167.46 65.5916L167.472 65.5974L167.682 65.1435ZM167.792 65.1943L167.582 65.6482L167.589 65.6512L167.595 65.654L167.792 65.1943ZM167.902 65.2413L167.705 65.7011L167.712 65.704L167.719 65.7067L167.902 65.2413ZM168.012 65.2845L167.829 65.7499L167.836 65.7527L167.844 65.7553L168.012 65.2845ZM168.122 65.3238L167.954 65.7946L167.961 65.7973L167.969 65.7997L168.122 65.3238ZM168.232 65.3593L168.079 65.8352L168.086 65.8377L168.094 65.8399L168.232 65.3593ZM168.342 65.3908L168.204 65.8715L168.212 65.8738L168.221 65.8758L168.342 65.3908ZM168.452 65.4184L168.331 65.9034L168.339 65.9055L168.347 65.9073L168.452 65.4184ZM168.562 65.442L168.457 65.9309L168.466 65.9327L168.474 65.9343L168.562 65.442ZM168.672 65.4616L168.585 65.9539L168.593 65.9554L168.602 65.9567L168.672 65.4616ZM168.782 65.4772L168.712 65.9723L168.721 65.9736L168.73 65.9745L168.782 65.4772ZM168.892 65.4888L168.84 65.9861L168.849 65.987L168.858 65.9876L168.892 65.4888ZM169.002 65.4963L168.968 65.9952L168.977 65.9958L168.987 65.9961L169.002 65.4963ZM169.112 65.4998L169.097 65.9996L169.106 65.9999L169.115 65.9998L169.112 65.4998ZM169.222 65.4993L169.225 65.9992L169.234 65.9992L169.243 65.9988L169.222 65.4993ZM169.333 65.4946L169.353 65.9942L169.363 65.9938L169.372 65.9931L169.333 65.4946ZM169.443 65.486L169.482 65.9844L169.491 65.9837L169.5 65.9827L169.443 65.486ZM169.553 65.4733L169.61 65.97L169.619 65.9689L169.628 65.9676L169.553 65.4733ZM169.663 65.4566L169.738 65.9509L169.747 65.9495L169.755 65.9479L169.663 65.4566ZM169.773 65.4358L169.865 65.9272L169.874 65.9256L169.882 65.9237L169.773 65.4358ZM169.883 65.4111L169.992 65.8989L170.001 65.8971L170.009 65.8949L169.883 65.4111ZM169.993 65.3824L170.119 65.8662L170.127 65.8641L170.135 65.8618L169.993 65.3824ZM170.103 65.3498L170.245 65.8291L170.253 65.8268L170.26 65.8243L170.103 65.3498ZM170.213 65.3132L170.371 65.7877L170.378 65.7852L170.385 65.7825L170.213 65.3132ZM170.323 65.2728L170.495 65.7421L170.503 65.7395L170.51 65.7366L170.323 65.2728ZM170.433 65.2285L170.62 65.6923L170.626 65.6896L170.633 65.6867L170.433 65.2285ZM170.543 65.1804L170.743 65.6386L170.75 65.6357L170.756 65.6327L170.543 65.1804ZM170.653 65.1285L170.866 65.581L170.878 65.5749L170.653 65.1285ZM170.763 65.073L170.989 65.5195L171 65.5133L170.763 65.073ZM170.873 65.0138L171.11 65.4542L171.121 65.448L170.873 65.0138ZM170.983 64.9509L171.231 65.3852L171.242 65.379L170.983 64.9509ZM171.093 64.8845L171.352 65.3127L171.361 65.3066L171.093 64.8845ZM171.203 64.8146L171.471 65.2368L171.481 65.2307L171.203 64.8146ZM171.313 64.7413L171.591 65.1575L171.599 65.1515L171.313 64.7413ZM171.423 64.6646L171.709 65.0749L171.717 65.0691L171.423 64.6646ZM171.533 64.5846L171.828 64.9891L171.835 64.9834L171.533 64.5846ZM171.644 64.5014L171.945 64.9003L171.952 64.8947L171.644 64.5014ZM171.754 64.415L172.062 64.8084L172.069 64.803L171.754 64.415ZM171.864 64.3256L172.179 64.7137L172.185 64.7085L171.864 64.3256ZM171.974 64.2332L172.295 64.6161L172.301 64.6111L171.974 64.2332ZM172.084 64.1378L172.411 64.5158L172.417 64.5109L172.084 64.1378ZM172.194 64.0397L172.527 64.4128L172.532 64.4082L172.194 64.0397ZM172.304 63.9388L172.642 64.3073L172.646 64.3029L172.304 63.9388ZM172.414 63.8352L172.757 64.1994L172.761 64.1952L172.414 63.8352ZM172.524 63.7291L172.871 64.0891L172.875 64.0851L172.524 63.7291ZM172.634 63.6206L172.985 63.9765L172.989 63.9727L172.634 63.6206ZM172.744 63.5096L173.099 63.8618L173.102 63.8582L172.744 63.5096ZM172.854 63.3965L173.213 63.7451L173.216 63.7416L172.854 63.3965ZM172.964 63.2811L173.326 63.6263L173.329 63.6231L172.964 63.2811ZM173.074 63.1638L173.439 63.5058L173.442 63.5027L173.074 63.1638ZM173.184 63.0444L173.552 63.3834L173.554 63.3806L173.184 63.0444ZM173.294 62.9233L173.664 63.2594L173.667 63.2568L173.294 62.9233ZM173.404 62.8004L173.777 63.1339L173.779 63.1315L173.404 62.8004ZM173.514 62.6759L173.889 63.007L173.891 63.0047L173.514 62.6759ZM173.624 62.5498L174.001 62.8787L174.003 62.8766L173.624 62.5498ZM173.734 62.4224L174.113 62.7492L174.114 62.7473L173.734 62.4224ZM173.844 62.2937L174.225 62.6186L174.226 62.617L173.844 62.2937ZM173.955 62.1638L174.336 62.4871L174.337 62.4856L173.955 62.1638ZM174.065 62.0329L174.447 62.3547L174.448 62.3533L174.065 62.0329ZM174.175 61.9011L174.558 62.2215L174.559 62.2203L174.175 61.9011ZM174.285 61.7684L174.67 62.0877L174.67 62.0867L174.285 61.7684ZM174.395 61.6351L174.78 61.9533L174.781 61.9525L174.395 61.6351ZM174.505 61.5012L174.891 61.8186L174.892 61.818L174.505 61.5012ZM174.615 61.3668L175.002 61.6836L175.002 61.6831L174.615 61.3668ZM174.725 61.2321L175.112 61.5484L175.112 61.5482L174.725 61.2321ZM174.835 61.0972L175.222 61.4133L175.222 61.4131L174.835 61.0972ZM174.945 60.9622L174.557 60.6462L174.557 60.6463L174.945 60.9622ZM175.055 60.8272L174.668 60.5111L174.668 60.5113L175.055 60.8272ZM175.165 60.6924L174.778 60.3759L174.778 60.3762L175.165 60.6924ZM175.275 60.5579L174.889 60.2408L174.888 60.2413L175.275 60.5579ZM175.385 60.4238L174.999 60.1059L174.999 60.1066L175.385 60.4238ZM175.495 60.2902L175.11 59.9714L175.109 59.9723L175.495 60.2902ZM175.605 60.1572L175.221 59.8373L175.22 59.8384L175.605 60.1572ZM175.715 60.025L175.332 59.7039L175.331 59.7051L175.715 60.025ZM175.825 59.8937L175.443 59.5711L175.442 59.5725L175.825 59.8937ZM175.935 59.7633L175.555 59.4391L175.553 59.4408L175.935 59.7633ZM176.045 59.6341L175.666 59.3081L175.665 59.3099L176.045 59.6341ZM176.156 59.5061L175.778 59.1781L175.776 59.1801L176.156 59.5061ZM176.266 59.3794L175.89 59.0493L175.888 59.0515L176.266 59.3794ZM176.376 59.2542L176.002 58.9218L176 58.9241L176.376 59.2542ZM176.486 59.1306L176.114 58.7956L176.112 58.7982L176.486 59.1306ZM176.596 59.0087L176.227 58.671L176.225 58.6737L176.596 59.0087ZM176.706 58.8885L176.34 58.5479L176.337 58.5508L176.706 58.8885ZM176.816 58.7703L176.453 58.4265L176.45 58.4296L176.816 58.7703ZM176.926 58.654L176.566 58.307L176.563 58.3103L176.926 58.654ZM177.036 58.5399L176.679 58.1893L176.676 58.1929L177.036 58.5399ZM177.146 58.428L176.793 58.0737L176.789 58.0774L177.146 58.428ZM177.256 58.3184L176.907 57.9602L176.903 57.9641L177.256 58.3184ZM177.366 58.2112L177.021 57.8489L177.017 57.853L177.366 58.2112ZM177.476 58.1065L177.136 57.7399L177.131 57.7442L177.476 58.1065ZM177.586 58.0044L177.251 57.6333L177.246 57.6379L177.586 58.0044ZM177.696 57.9051L177.366 57.5292L177.361 57.534L177.696 57.9051ZM177.806 57.8085L177.482 57.4278L177.476 57.4327L177.806 57.8085ZM177.916 57.7147L177.598 57.329L177.592 57.3341L177.916 57.7147ZM178.026 57.624L177.715 57.233L177.708 57.2383L178.026 57.624ZM178.136 57.5363L177.832 57.1398L177.825 57.1453L178.136 57.5363ZM178.246 57.4516L177.949 57.0496L177.942 57.0553L178.246 57.4516ZM178.356 57.3702L178.067 56.9625L178.059 56.9683L178.356 57.3702ZM178.467 57.2921L178.185 56.8785L178.177 56.8844L178.467 57.2921ZM178.577 57.2173L178.304 56.7977L178.295 56.8038L178.577 57.2173ZM178.687 57.1459L178.424 56.7203L178.414 56.7264L178.687 57.1459ZM178.797 57.0779L178.544 56.6463L178.534 56.6525L178.797 57.0779ZM178.907 57.0135L178.665 56.5758L178.654 56.582L178.907 57.0135ZM179.017 56.9527L178.786 56.5088L178.775 56.5151L179.017 56.9527ZM179.127 56.8955L178.908 56.4456L178.896 56.4518L179.127 56.8955ZM179.237 56.842L179.031 56.3862L179.018 56.3923L179.237 56.842ZM179.347 56.7923L179.154 56.3309L179.148 56.3337L179.141 56.3366L179.347 56.7923ZM179.457 56.7463L179.278 56.2794L179.271 56.282L179.264 56.2849L179.457 56.7463ZM179.567 56.7042L179.403 56.2319L179.395 56.2345L179.388 56.2372L179.567 56.7042ZM179.677 56.6659L179.528 56.1886L179.52 56.191L179.513 56.1936L179.677 56.6659ZM179.787 56.6315L179.654 56.1496L179.646 56.1518L179.638 56.1543L179.787 56.6315ZM179.897 56.6011L179.78 56.115L179.772 56.117L179.764 56.1192L179.897 56.6011ZM180.007 56.5746L179.907 56.0848L179.899 56.0865L179.89 56.0885L180.007 56.5746ZM180.117 56.5521L180.034 56.0591L180.026 56.0605L180.017 56.0623L180.117 56.5521ZM180.227 56.5337L180.162 56.0379L180.153 56.0391L180.144 56.0406L180.227 56.5337ZM180.337 56.5192L180.29 56.0214L180.281 56.0223L180.272 56.0235L180.337 56.5192ZM180.447 56.5088L180.418 56.0096L180.409 56.0101L180.4 56.011L180.447 56.5088ZM180.557 56.5024L180.547 56.0025L180.538 56.0027L180.528 56.0032L180.557 56.5024ZM180.667 56.5L180.675 56.0001L180.666 55.9999L180.657 56.0001L180.667 56.5ZM180.778 56.5017L180.804 56.0024L180.794 56.0019L180.785 56.0018L180.778 56.5017ZM180.888 56.5075L180.932 56.0094L180.923 56.0086L180.914 56.0081L180.888 56.5075ZM180.998 56.5173L181.06 56.0212L181.051 56.02L181.042 56.0192L180.998 56.5173ZM181.108 56.5311L181.188 56.0375L181.179 56.0361L181.17 56.035L181.108 56.5311ZM181.218 56.5489L181.315 56.0585L181.306 56.0568L181.298 56.0554L181.218 56.5489ZM181.328 56.5708L181.442 56.084L181.434 56.0821L181.425 56.0804L181.328 56.5708ZM181.438 56.5966L181.569 56.114L181.56 56.1118L181.552 56.1099L181.438 56.5966ZM181.548 56.6264L181.694 56.1484L181.687 56.146L181.679 56.1438L181.548 56.6264ZM181.658 56.6602L181.82 56.1871L181.812 56.1845L181.804 56.1821L181.658 56.6602ZM181.768 56.6978L181.944 56.23L181.937 56.2273L181.93 56.2247L181.768 56.6978ZM181.878 56.7393L182.069 56.2771L182.062 56.2742L182.054 56.2715L181.878 56.7393ZM181.988 56.7847L182.192 56.3281L182.185 56.3252L182.179 56.3224L181.988 56.7847ZM182.098 56.8338L182.315 56.383L182.302 56.3773L182.098 56.8338ZM182.208 56.8867L182.437 56.4419L182.425 56.4361L182.208 56.8867ZM182.318 56.9433L182.558 56.5046L182.547 56.4987L182.318 56.9433ZM182.428 57.0036L182.679 56.5709L182.668 56.565L182.428 57.0036ZM182.538 57.0674L182.799 56.6409L182.789 56.6349L182.538 57.0674ZM182.648 57.1348L182.919 56.7143L182.909 56.7084L182.648 57.1348ZM182.758 57.2057L183.038 56.7911L183.029 56.7853L182.758 57.2057ZM182.868 57.2799L183.157 56.8713L183.148 56.8655L182.868 57.2799ZM182.978 57.3576L183.275 56.9546L183.267 56.949L182.978 57.3576ZM183.089 57.4385L183.392 57.0411L183.385 57.0356L183.089 57.4385ZM183.199 57.5226L183.509 57.1307L183.502 57.1253L183.199 57.5226ZM183.309 57.6098L183.626 57.2232L183.619 57.218L183.309 57.6098ZM183.419 57.7001L183.742 57.3186L183.736 57.3135L183.419 57.7001ZM183.529 57.7933L183.858 57.4168L183.852 57.4119L183.529 57.7933ZM183.639 57.8895L183.973 57.5176L183.968 57.513L183.639 57.8895ZM183.749 57.9884L184.088 57.6211L184.083 57.6166L183.749 57.9884ZM183.859 58.0901L184.203 57.7271L184.198 57.7228L183.859 58.0901ZM183.969 58.1944L184.317 57.8355L184.313 57.8314L183.969 58.1944ZM184.079 58.3012L184.431 57.9463L184.427 57.9423L184.079 58.3012ZM184.189 58.4104L184.545 58.0592L184.541 58.0555L184.189 58.4104ZM184.299 58.5219L184.658 58.1743L184.655 58.1708L184.299 58.5219ZM184.409 58.6357L184.772 58.2914L184.768 58.2881L184.409 58.6357ZM184.519 58.7516L184.885 58.4105L184.882 58.4074L184.519 58.7516ZM184.629 58.8696L184.997 58.5314L184.995 58.5284L184.629 58.8696ZM184.739 58.9894L185.11 58.654L185.108 58.6513L184.739 58.9894ZM184.849 59.1111L185.222 58.7782L185.22 58.7757L184.849 59.1111ZM184.959 59.2344L185.335 58.904L185.332 58.9016L184.959 59.2344ZM185.069 59.3594L185.447 59.0311L185.445 59.0289L185.069 59.3594ZM185.179 59.4858L185.558 59.1595L185.557 59.1576L185.179 59.4858ZM185.289 59.6136L185.67 59.2892L185.668 59.2873L185.289 59.6136ZM185.4 59.7427L185.781 59.4198L185.78 59.4182L185.4 59.7427ZM185.51 59.8728L185.893 59.5515L185.891 59.55L185.51 59.8728ZM185.62 60.004L186.004 59.684L186.003 59.6827L185.62 60.004ZM185.73 60.1361L186.115 59.8171L186.114 59.816L185.73 60.1361ZM185.84 60.269L186.226 59.9509L186.225 59.95L185.84 60.269ZM185.95 60.4025L186.336 60.0852L186.336 60.0845L185.95 60.4025ZM186.06 60.5365L186.447 60.2199L186.446 60.2193L186.06 60.5365ZM186.17 60.671L186.557 60.3547L186.557 60.3543L186.17 60.671ZM186.28 60.8058L186.667 60.4898L186.667 60.4895L186.28 60.8058ZM186.39 60.9407L186.777 60.6248L186.777 60.6247L186.39 60.9407ZM186.5 61.0757L186.112 61.3916L186.113 61.3917L186.5 61.0757ZM186.61 61.2106L186.223 61.5267L186.223 61.5269L186.61 61.2106ZM186.72 61.3454L186.333 61.6617L186.333 61.6621L186.72 61.3454ZM186.83 61.4798L186.443 61.7965L186.444 61.7971L186.83 61.4798ZM186.94 61.6138L186.554 61.9311L186.554 61.9319L186.94 61.6138ZM187.05 61.7472L186.664 62.0654L186.665 62.0663L187.05 61.7472ZM187.16 61.88L186.775 62.1991L186.776 62.2002L187.16 61.88ZM187.27 62.012L186.886 62.3322L186.887 62.3335L187.27 62.012ZM187.38 62.1431L186.997 62.4646L186.999 62.4661L187.38 62.1431ZM187.49 62.2731L187.109 62.5961L187.11 62.5978L187.49 62.2731ZM187.6 62.402L187.22 62.7267L187.222 62.7285L187.6 62.402ZM187.711 62.5296L187.332 62.8561L187.334 62.8582L187.711 62.5296ZM187.821 62.6559L187.444 62.9844L187.446 62.9866L187.821 62.6559ZM187.931 62.7806L187.556 63.1114L187.558 63.1138L187.931 62.7806ZM188.041 62.9038L187.668 63.237L187.67 63.2395L188.041 62.9038ZM188.151 63.0253L187.78 63.361L187.783 63.3638L188.151 63.0253ZM188.261 63.1449L187.893 63.4834L187.896 63.4864L188.261 63.1449ZM188.371 63.2626L188.006 63.6041L188.009 63.6072L188.371 63.2626ZM188.481 63.3782L188.119 63.7229L188.122 63.7263L188.481 63.3782ZM188.591 63.4918L188.232 63.8398L188.235 63.8433L188.591 63.4918ZM188.701 63.603L188.345 63.9546L188.349 63.9584L188.701 63.603ZM188.811 63.712L188.459 64.0673L188.463 64.0713L188.811 63.712ZM188.921 63.8185L188.573 64.1778L188.578 64.1819L188.921 63.8185ZM189.031 63.9224L188.688 64.2859L188.692 64.2903L189.031 63.9224ZM189.141 64.0238L188.802 64.3916L188.807 64.3961L189.141 64.0238ZM189.251 64.1224L188.917 64.4948L188.923 64.4995L189.251 64.1224ZM189.361 64.2182L189.033 64.5953L189.039 64.6002L189.361 64.2182ZM189.471 64.3111L189.149 64.6932L189.155 64.6983L189.471 64.3111ZM189.581 64.401L189.265 64.7882L189.272 64.7935L189.581 64.401ZM189.691 64.4879L189.382 64.8804L189.389 64.8858L189.691 64.4879ZM189.801 64.5716L189.499 64.9696L189.506 64.9751L189.801 64.5716ZM189.911 64.6521L189.616 65.0557L189.624 65.0614L189.911 64.6521ZM190.022 64.7293L189.734 65.1387L189.743 65.1445L190.022 64.7293ZM190.132 64.8032L189.853 65.2184L189.862 65.2243L190.132 64.8032ZM190.242 64.8736L189.972 65.2948L189.982 65.3008L190.242 64.8736ZM190.352 64.9406L190.092 65.3678L190.102 65.3738L190.352 64.9406ZM190.462 65.004L190.212 65.4373L190.223 65.4433L190.462 65.004ZM190.572 65.0638L190.333 65.5033L190.345 65.5092L190.572 65.0638ZM190.682 65.1199L190.454 65.5655L190.467 65.5713L190.682 65.1199ZM190.792 65.1724L190.577 65.6239L190.59 65.6296L190.792 65.1724ZM190.902 65.2211L190.7 65.6783L190.706 65.6813L190.713 65.684L190.902 65.2211ZM191.012 65.266L190.823 65.7289L190.83 65.7318L190.837 65.7344L191.012 65.266ZM191.122 65.307L190.947 65.7755L190.955 65.7782L190.962 65.7807L191.122 65.307ZM191.232 65.3442L191.072 65.8179L191.08 65.8205L191.087 65.8228L191.232 65.3442ZM191.342 65.3775L191.197 65.8561L191.205 65.8585L191.213 65.8606L191.342 65.3775ZM191.452 65.4068L191.323 65.8899L191.332 65.8921L191.34 65.894L191.452 65.4068ZM191.562 65.4321L191.45 65.9194L191.458 65.9213L191.467 65.923L191.562 65.4321ZM191.672 65.4535L191.577 65.9443L191.586 65.946L191.594 65.9474L191.672 65.4535ZM191.782 65.4709L191.704 65.9648L191.713 65.9662L191.722 65.9672L191.782 65.4709ZM191.892 65.4842L191.832 65.9806L191.841 65.9817L191.85 65.9824L191.892 65.4842ZM192.002 65.4935L191.96 65.9917L191.969 65.9925L191.979 65.993L192.002 65.4935ZM192.112 65.4988L192.089 65.9982L192.098 65.9987L192.107 65.9988L192.112 65.4988ZM192.222 65.5L192.217 66L192.226 66.0001L192.235 65.9998L192.222 65.5ZM192.333 65.4972L192.345 65.997L192.355 65.9968L192.364 65.9962L192.333 65.4972ZM192.443 65.4903L192.474 65.9893L192.483 65.9887L192.492 65.9878L192.443 65.4903ZM192.553 65.4794L192.602 65.9769L192.611 65.976L192.62 65.9748L192.553 65.4794ZM192.663 65.4644L192.73 65.9598L192.739 65.9586L192.748 65.9571L192.663 65.4644ZM192.773 65.4454L192.858 65.9382L192.866 65.9367L192.875 65.9349L192.773 65.4454ZM192.883 65.4224L192.985 65.9119L192.993 65.9101L193.002 65.9081L192.883 65.4224ZM192.993 65.3955L193.112 65.8811L193.12 65.8791L193.128 65.8769L192.993 65.3955ZM193.103 65.3646L193.238 65.846L193.246 65.8437L193.254 65.8413L193.103 65.3646ZM193.213 65.3297L193.364 65.8064L193.371 65.804L193.379 65.8014L193.213 65.3297ZM193.323 65.291L193.489 65.7627L193.496 65.7601L193.503 65.7573L193.323 65.291ZM193.433 65.2484L193.613 65.7147L193.62 65.712L193.627 65.7091L193.433 65.2484ZM193.543 65.202L193.737 65.6627L193.744 65.6599L193.751 65.6569L193.543 65.202ZM193.653 65.1518L193.861 65.6069L193.873 65.6008L193.653 65.1518ZM193.763 65.0979L193.983 65.547L193.995 65.5408L193.763 65.0979ZM193.873 65.0402L194.105 65.4833L194.116 65.4771L193.873 65.0402ZM193.983 64.979L194.227 65.416L194.237 65.4098L193.983 64.979ZM194.093 64.9141L194.347 65.345L194.357 65.3389L194.093 64.9141ZM194.203 64.8458L194.467 65.2706L194.477 65.2645L194.203 64.8458ZM194.313 64.7739L194.587 65.1927L194.596 65.1867L194.313 64.7739ZM194.423 64.6987L194.706 65.1116L194.714 65.1057L194.423 64.6987ZM194.533 64.6202L194.824 65.0272L194.832 65.0214L194.533 64.6202ZM194.644 64.5384L194.942 64.9397L194.949 64.9341L194.644 64.5384ZM194.754 64.4534L195.059 64.8492L195.066 64.8437L194.754 64.4534ZM194.864 64.3653L195.176 64.7557L195.183 64.7504L194.864 64.3653ZM194.974 64.2741L195.293 64.6593L195.299 64.6542L194.974 64.2741ZM195.084 64.1801L195.409 64.5602L195.414 64.5553L195.084 64.1801ZM195.194 64.0831L195.524 64.4584L195.53 64.4537L195.194 64.0831ZM195.304 63.9834L195.64 64.354L195.644 64.3495L195.304 63.9834ZM195.414 63.881L195.754 64.2471L195.759 64.2428L195.414 63.881ZM195.524 63.776L195.869 64.1378L195.873 64.1337L195.524 63.776ZM195.634 63.6686L195.983 64.0263L195.987 64.0224L195.634 63.6686ZM195.744 63.5587L196.097 63.9125L196.101 63.9088L195.744 63.5587ZM195.854 63.4465L196.211 63.7966L196.214 63.7931L195.854 63.4465ZM195.964 63.3321L196.324 63.6787L196.328 63.6755L195.964 63.3321ZM196.074 63.2156L196.438 63.559L196.441 63.5559L196.074 63.2156ZM196.184 63.0971L196.551 63.4374L196.553 63.4345L196.184 63.0971ZM196.294 62.9767L196.663 63.3141L196.666 63.3114L196.294 62.9767ZM196.404 62.8546L196.776 63.1893L196.778 63.1868L196.404 62.8546ZM196.514 62.7308L196.888 63.0629L196.89 63.0606L196.514 62.7308ZM196.624 62.6054L197 62.9352L197.002 62.9331L196.624 62.6054ZM196.734 62.4786L197.112 62.8063L197.114 62.8043L196.734 62.4786ZM196.844 62.3504L197.224 62.6762L197.225 62.6744L196.844 62.3504ZM196.955 62.2211L197.335 62.545L197.337 62.5434L196.955 62.2211ZM197.065 62.0906L197.447 62.413L197.448 62.4115L197.065 62.0906ZM197.175 61.9591L197.558 62.2801L197.559 62.2789L197.175 61.9591ZM197.285 61.8268L197.669 62.1466L197.67 62.1455L197.285 61.8268ZM197.395 61.6938L197.78 62.0124L197.781 62.0115L197.395 61.6938ZM197.505 61.5601L197.891 61.8779L197.891 61.8772L197.505 61.5601ZM197.615 61.4259L198.001 61.743L198.002 61.7424L197.615 61.4259ZM197.725 61.2913L198.112 61.6079L198.112 61.6075L197.725 61.2913ZM197.835 61.1565L198.222 61.4727L198.222 61.4725L197.835 61.1565ZM197.945 61.0215L198.332 61.3375L198.333 61.3375L197.945 61.0215ZM198.055 60.8866L197.668 60.5705L197.667 60.5706L198.055 60.8866ZM198.165 60.7517L197.778 60.4353L197.778 60.4356L198.165 60.7517ZM198.275 60.617L197.888 60.3001L197.888 60.3006L198.275 60.617ZM198.385 60.4827L197.999 60.1651L197.998 60.1658L198.385 60.4827ZM198.495 60.3488L198.11 60.0305L198.109 60.0313L198.495 60.3488ZM198.605 60.2156L198.221 59.8962L198.22 59.8972L198.605 60.2156ZM198.715 60.083L198.332 59.7624L198.331 59.7636L198.715 60.083ZM198.825 59.9513L198.443 59.6294L198.442 59.6307L198.825 59.9513ZM198.935 59.8205L198.554 59.497L198.553 59.4986L198.935 59.8205ZM199.045 59.6907L198.666 59.3656L198.664 59.3673L199.045 59.6907ZM199.156 59.5622L198.777 59.2351L198.776 59.237L199.156 59.5622ZM199.266 59.4349L198.889 59.1058L198.887 59.1079L199.266 59.4349ZM199.376 59.3091L199.001 58.9777L198.999 58.9799L199.376 59.3091ZM199.486 59.1848L199.113 58.8509L199.111 58.8534L199.486 59.1848ZM199.596 59.0621L199.226 58.7256L199.223 58.7282L199.596 59.0621ZM199.706 58.9411L199.338 58.6018L199.336 58.6046L199.706 58.9411ZM199.816 58.822L199.451 58.4796L199.449 58.4827L199.816 58.822ZM199.926 58.7049L199.564 58.3593L199.561 58.3625L199.926 58.7049ZM200.036 58.5898L199.678 58.2408L199.675 58.2442L200.036 58.5898ZM200.146 58.4769L199.791 58.1243L199.788 58.1279L200.146 58.4769ZM200.256 58.3663L199.905 58.0098L199.901 58.0137L200.256 58.3663ZM200.366 58.258L200.019 57.8975L200.015 57.9016L200.366 58.258ZM200.476 58.1522L200.134 57.7875L200.13 57.7918L200.476 58.1522ZM200.586 58.049L200.249 57.6799L200.244 57.6843L200.586 58.049ZM200.696 57.9484L200.364 57.5747L200.359 57.5793L200.696 57.9484ZM200.806 57.8506L200.479 57.472L200.474 57.4769L200.806 57.8506ZM200.916 57.7556L200.595 57.3721L200.59 57.3771L200.916 57.7556ZM201.026 57.6635L200.712 57.2748L200.705 57.28L201.026 57.6635ZM201.136 57.5744L200.828 57.1804L200.822 57.1858L201.136 57.5744ZM201.246 57.4884L200.946 57.0889L200.939 57.0945L201.246 57.4884ZM201.356 57.4056L201.063 57.0004L201.056 57.0061L201.356 57.4056ZM201.467 57.326L201.182 56.915L201.173 56.9209L201.467 57.326ZM201.577 57.2497L201.3 56.8328L201.292 56.8388L201.577 57.2497ZM201.687 57.1768L201.42 56.7539L201.41 56.76L201.687 57.1768ZM201.797 57.1073L201.54 56.6784L201.53 56.6845L201.797 57.1073ZM201.907 57.0414L201.66 56.6063L201.65 56.6125L201.907 57.0414ZM202.017 56.979L201.781 56.5378L201.77 56.544L202.017 56.979ZM202.127 56.9202L201.903 56.473L201.891 56.4792L202.127 56.9202ZM202.237 56.8651L202.025 56.4119L202.013 56.418L202.237 56.8651ZM202.347 56.8137L202.148 56.3548L202.142 56.3576L202.135 56.3606L202.347 56.8137ZM202.457 56.766L202.272 56.3015L202.265 56.3042L202.258 56.3072L202.457 56.766ZM202.567 56.7222L202.396 56.2523L202.389 56.2549L202.382 56.2577L202.567 56.7222ZM202.677 56.6822L202.521 56.2071L202.514 56.2096L202.506 56.2123L202.677 56.6822ZM202.787 56.6462L202.647 56.1662L202.639 56.1685L202.631 56.1711L202.787 56.6462ZM202.897 56.614L202.773 56.1297L202.765 56.1317L202.757 56.1341L202.897 56.614ZM203.007 56.5858L202.9 56.0975L202.891 56.0993L202.883 56.1015L203.007 56.5858ZM203.117 56.5615L203.027 56.0698L203.018 56.0714L203.01 56.0732L203.117 56.5615ZM203.227 56.5413L203.154 56.0466L203.146 56.0479L203.137 56.0495L203.227 56.5413ZM203.337 56.5251L203.282 56.0281L203.273 56.0291L203.264 56.0304L203.337 56.5251ZM203.447 56.5128L203.41 56.0142L203.401 56.0149L203.392 56.0159L203.447 56.5128ZM203.557 56.5047L203.539 56.005L203.53 56.0054L203.52 56.006L203.557 56.5047ZM203.667 56.5005L203.667 56.0005L203.658 56.0005L203.649 56.0009L203.667 56.5005ZM203.778 56.5005L203.796 56.0008L203.786 56.0005L203.777 56.0005L203.778 56.5005ZM203.888 56.5044L203.924 56.0058L203.915 56.0051L203.906 56.0048L203.888 56.5044ZM203.998 56.5125L204.052 56.0154L204.043 56.0144L204.034 56.0138L203.998 56.5125ZM204.108 56.5245L204.18 56.0298L204.171 56.0285L204.162 56.0275L204.108 56.5245ZM204.218 56.5406L204.308 56.0487L204.299 56.0471L204.29 56.0459L204.218 56.5406ZM204.328 56.5607L204.435 56.0723L204.426 56.0704L204.418 56.0688L204.328 56.5607ZM204.438 56.5848L204.561 56.1003L204.553 56.0982L204.545 56.0964L204.438 56.5848ZM204.548 56.6128L204.688 56.1327L204.679 56.1304L204.671 56.1284L204.548 56.6128ZM204.658 56.6449L204.813 56.1696L204.805 56.167L204.798 56.1648L204.658 56.6449ZM204.768 56.6808L204.938 56.2106L204.931 56.2079L204.923 56.2055L204.768 56.6808ZM204.878 56.7206L205.062 56.2559L205.055 56.2531L205.048 56.2505L204.878 56.7206ZM204.988 56.7643L205.186 56.3052L205.179 56.3023L205.172 56.2995L204.988 56.7643ZM205.098 56.8118L205.309 56.3585L205.303 56.3555L205.296 56.3527L205.098 56.8118ZM205.208 56.863L205.432 56.4156L205.419 56.4098L205.208 56.863ZM205.318 56.918L205.553 56.4766L205.542 56.4707L205.318 56.918ZM205.428 56.9766L205.675 56.5413L205.663 56.5354L205.428 56.9766ZM205.538 57.0389L205.795 56.6097L205.785 56.6038L205.538 57.0389ZM205.648 57.1047L205.915 56.6816L205.905 56.6757L205.648 57.1047ZM205.758 57.1741L206.034 56.7569L206.025 56.7511L205.758 57.1741ZM205.868 57.2469L206.153 56.8356L206.144 56.8298L205.868 57.2469ZM205.978 57.323L206.271 56.9176L206.263 56.9119L205.978 57.323ZM206.089 57.4025L206.389 57.0027L206.381 56.9971L206.089 57.4025ZM206.199 57.4852L206.506 57.091L206.499 57.0855L206.199 57.4852ZM206.309 57.5711L206.623 57.1822L206.616 57.1769L206.309 57.5711ZM206.419 57.66L206.739 57.2763L206.733 57.2712L206.419 57.66ZM206.529 57.752L206.855 57.3733L206.849 57.3683L206.529 57.752ZM206.639 57.8469L206.971 57.473L206.965 57.4682L206.639 57.8469ZM206.749 57.9446L207.086 57.5753L207.081 57.5707L206.749 57.9446ZM206.859 58.0451L207.201 57.6802L207.196 57.6758L206.859 58.0451ZM206.969 58.1482L207.315 57.7876L207.311 57.7834L206.969 58.1482ZM207.079 58.2539L207.429 57.8973L207.425 57.8933L207.079 58.2539ZM207.189 58.3621L207.543 58.0093L207.539 58.0055L207.189 58.3621ZM207.299 58.4726L207.657 58.1235L207.653 58.1199L207.299 58.4726ZM207.409 58.5854L207.77 58.2397L207.767 58.2363L207.409 58.5854ZM207.519 58.7004L207.883 58.3579L207.88 58.3547L207.519 58.7004ZM207.629 58.8175L207.996 58.478L207.993 58.475L207.629 58.8175ZM207.739 58.9365L208.109 58.5999L208.106 58.5971L207.739 58.9365ZM207.849 59.0574L208.221 58.7234L208.219 58.7208L207.849 59.0574ZM207.959 59.18L208.334 58.8485L208.331 58.8461L207.959 59.18ZM208.069 59.3043L208.446 58.9751L208.444 58.9728L208.069 59.3043ZM208.179 59.4301L208.558 59.103L208.556 59.1009L208.179 59.4301ZM208.289 59.5573L208.669 59.2321L208.668 59.2302L208.289 59.5573ZM208.4 59.6858L208.781 59.3623L208.779 59.3606L208.4 59.6858ZM208.51 59.8155L208.892 59.4935L208.891 59.492L208.51 59.8155ZM208.62 59.9462L209.003 59.6256L209.002 59.6243L208.62 59.9462ZM208.73 60.0779L209.114 59.7585L209.113 59.7573L208.73 60.0779ZM208.84 60.2105L209.225 59.8921L209.224 59.891L208.84 60.2105ZM208.95 60.3437L209.336 60.0262L209.335 60.0253L208.95 60.3437ZM209.06 60.4775L209.447 60.1606L209.446 60.16L209.06 60.4775ZM209.17 60.6119L209.557 60.2954L209.557 60.2949L209.17 60.6119ZM209.28 60.7465L209.667 60.4304L209.667 60.4301L209.28 60.7465ZM209.39 60.8814L209.777 60.5654L209.777 60.5653L209.39 60.8814ZM209.5 61.0164L209.112 61.3323L209.112 61.3323L209.5 61.0164ZM209.61 61.1513L209.223 61.4673L209.223 61.4675L209.61 61.1513ZM209.72 61.2862L209.333 61.6023L209.333 61.6027L209.72 61.2862ZM209.83 61.4208L209.443 61.7373L209.444 61.7378L209.83 61.4208ZM209.94 61.555L209.554 61.872L209.554 61.8727L209.94 61.555ZM210.05 61.6887L209.664 62.0064L209.665 62.0073L210.05 61.6887ZM210.16 61.8217L209.775 62.1404L209.776 62.1414L210.16 61.8217ZM210.27 61.9541L209.886 62.2738L209.887 62.275L210.27 61.9541ZM210.38 62.0856L209.997 62.4065L209.998 62.4079L210.38 62.0856ZM210.49 62.2161L210.108 62.5384L210.11 62.54L210.49 62.2161ZM210.6 62.3455L210.22 62.6694L210.221 62.6712L210.6 62.3455ZM210.711 62.4737L210.331 62.7994L210.333 62.8013L210.711 62.4737ZM210.821 62.6006L210.443 62.9282L210.445 62.9303L210.821 62.6006ZM210.931 62.726L210.555 63.0557L210.557 63.0581L210.931 62.726ZM211.041 62.8499L210.667 63.182L210.669 63.1845L211.041 62.8499ZM211.151 62.9721L210.779 63.3067L210.782 63.3094L211.151 62.9721ZM211.261 63.0925L210.892 63.4298L210.894 63.4327L211.261 63.0925ZM211.371 63.2111L211.004 63.5513L211.007 63.5543L211.371 63.2111ZM211.481 63.3277L211.117 63.6709L211.12 63.6742L211.481 63.3277ZM211.591 63.4421L211.23 63.7887L211.234 63.7921L211.591 63.4421ZM211.701 63.5544L211.344 63.9044L211.348 63.9081L211.701 63.5544ZM211.811 63.6644L211.458 64.0181L211.461 64.0219L211.811 63.6644ZM211.921 63.772L211.572 64.1295L211.576 64.1336L211.921 63.772ZM212.031 63.8771L211.686 64.2387L211.69 64.2429L212.031 63.8771ZM212.141 63.9796L211.8 64.3455L211.805 64.3499L212.141 63.9796ZM212.251 64.0794L211.915 64.4498L211.92 64.4544L212.251 64.0794ZM212.361 64.1764L212.031 64.5515L212.036 64.5563L212.361 64.1764ZM212.471 64.2706L212.146 64.6505L212.152 64.6555L212.471 64.2706ZM212.581 64.3618L212.262 64.7468L212.269 64.752L212.581 64.3618ZM212.691 64.4501L212.379 64.8402L212.385 64.8456L212.691 64.4501ZM212.801 64.5352L212.495 64.9308L212.503 64.9362L212.801 64.5352ZM212.911 64.6171L212.613 65.0182L212.621 65.0238L212.911 64.6171ZM213.022 64.6958L212.731 65.1026L212.739 65.1083L213.022 64.6958ZM213.132 64.7711L212.849 65.1838L212.858 65.1896L213.132 64.7711ZM213.242 64.8431L212.968 65.2617L212.977 65.2676L213.242 64.8431ZM213.352 64.9116L213.087 65.3362L213.097 65.3421L213.352 64.9116ZM213.462 64.9766L213.207 65.4072L213.218 65.4132L213.462 64.9766ZM213.572 65.038L213.328 65.4747L213.339 65.4807L213.572 65.038ZM213.682 65.0957L213.449 65.5386L213.461 65.5445L213.682 65.0957ZM213.792 65.1498L213.571 65.5987L213.584 65.6045L213.792 65.1498ZM213.902 65.2001L213.694 65.6548L213.7 65.6578L213.707 65.6606L213.902 65.2001ZM214.012 65.2467L213.817 65.7072L213.824 65.7101L213.831 65.7128L214.012 65.2467ZM214.122 65.2895L213.941 65.7555L213.948 65.7583L213.955 65.7609L214.122 65.2895ZM214.232 65.3283L214.065 65.7998L214.073 65.8024L214.081 65.8048L214.232 65.3283ZM214.342 65.3633L214.191 65.8398L214.198 65.8423L214.206 65.8445L214.342 65.3633ZM214.452 65.3944L214.316 65.8756L214.324 65.8779L214.333 65.8799L214.452 65.3944ZM214.562 65.4215L214.443 65.907L214.451 65.909L214.459 65.9108L214.562 65.4215ZM214.672 65.4446L214.569 65.9339L214.578 65.9357L214.587 65.9372L214.672 65.4446ZM214.782 65.4637L214.697 65.9564L214.705 65.9579L214.714 65.9591L214.782 65.4637ZM214.892 65.4789L214.824 65.9742L214.833 65.9754L214.842 65.9763L214.892 65.4789ZM215.002 65.4899L214.952 65.9874L214.961 65.9883L214.97 65.9889L215.002 65.4899ZM215.112 65.497L215.081 65.996L215.09 65.9965L215.099 65.9968L215.112 65.497ZM215.222 65.5L215.209 65.9998L215.218 66L215.227 65.9999L215.222 65.5ZM215.333 65.4989L215.337 65.9989L215.347 65.9988L215.356 65.9984L215.333 65.4989ZM215.443 65.4938L215.466 65.9933L215.475 65.9928L215.484 65.9921L215.443 65.4938ZM215.553 65.4847L215.594 65.9829L215.603 65.9822L215.612 65.9811L215.553 65.4847ZM215.663 65.4715L215.722 65.9679L215.731 65.9668L215.74 65.9655L215.663 65.4715ZM215.773 65.4543L215.85 65.9483L215.859 65.9469L215.867 65.9452L215.773 65.4543ZM215.883 65.433L215.977 65.924L215.986 65.9224L215.994 65.9204L215.883 65.433ZM215.993 65.4078L216.104 65.8952L216.113 65.8933L216.121 65.8911L215.993 65.4078ZM216.103 65.3787L216.231 65.862L216.239 65.8598L216.247 65.8574L216.103 65.3787ZM216.213 65.3455L216.357 65.8243L216.365 65.822L216.372 65.8194L216.213 65.3455ZM216.323 65.3085L216.482 65.7824L216.49 65.7799L216.497 65.7772L216.323 65.3085ZM216.433 65.2676L216.607 65.7363L216.614 65.7336L216.621 65.7308L216.433 65.2676ZM216.543 65.2229L216.731 65.686L216.738 65.6833L216.745 65.6803L216.543 65.2229ZM216.653 65.1743L216.855 65.632L216.868 65.6259L216.653 65.1743ZM216.763 65.122L216.978 65.5738L216.99 65.5676L216.763 65.122ZM216.873 65.066L217.1 65.5118L217.112 65.5056L216.873 65.066ZM216.983 65.0063L217.222 65.446L217.232 65.4398L216.983 65.0063ZM217.093 64.9431L217.343 65.3767L217.353 65.3704L217.093 64.9431ZM217.203 64.8762L217.463 65.3037L217.473 65.2976L217.203 64.8762ZM217.313 64.8059L217.583 65.2274L217.592 65.2213L217.313 64.8059ZM217.423 64.7322L217.702 65.1477L217.71 65.1417L217.423 64.7322ZM217.533 64.6551L217.82 65.0647L217.828 65.0589L217.533 64.6551ZM217.644 64.5747L217.939 64.9785L217.946 64.9729L217.644 64.5747ZM217.754 64.4911L218.056 64.8893L218.063 64.8838L217.754 64.4911ZM217.864 64.4044L218.173 64.7971L218.18 64.7917L217.864 64.4044ZM217.974 64.3146L218.29 64.702L218.296 64.6968L217.974 64.3146ZM218.084 64.2218L218.406 64.6041L218.412 64.5991L218.084 64.2218ZM218.194 64.1261L218.522 64.5034L218.527 64.4986L218.194 64.1261ZM218.304 64.0276L218.637 64.4002L218.642 64.3956L218.304 64.0276ZM218.414 63.9264L218.752 64.2944L218.757 64.29L218.414 63.9264ZM218.524 63.8225L218.867 64.1862L218.871 64.182L218.524 63.8225ZM218.634 63.7161L218.982 64.0756L218.986 64.0716L218.634 63.7161ZM218.744 63.6073L219.096 63.9628L219.099 63.959L218.744 63.6073ZM218.854 63.4961L219.209 63.8478L219.213 63.8442L218.854 63.4961ZM218.964 63.3826L219.323 63.7308L219.326 63.7274L218.964 63.3826ZM219.074 63.267L219.436 63.6118L219.439 63.6086L219.074 63.267ZM219.184 63.1494L219.549 63.491L219.552 63.488L219.184 63.1494ZM219.294 63.0299L219.662 63.3685L219.665 63.3657L219.294 63.0299ZM219.404 62.9085L219.775 63.2443L219.777 63.2417L219.404 62.9085ZM219.514 62.7854L219.887 63.1186L219.889 63.1162L219.514 62.7854ZM219.624 62.6607L219.999 62.9915L220.001 62.9893L219.624 62.6607ZM219.734 62.5345L220.111 62.8631L220.113 62.8611L219.734 62.5345ZM219.844 62.4069L220.223 62.7335L220.225 62.7316L219.844 62.4069ZM219.955 62.2781L220.335 62.6028L220.336 62.6011L219.955 62.2781ZM220.065 62.1481L220.446 62.4711L220.447 62.4696L220.065 62.1481ZM220.175 62.017L220.558 62.3386L220.559 62.3373L220.175 62.017ZM220.285 61.8851L220.669 62.2053L220.67 62.2042L220.285 61.8851ZM220.395 61.7523L220.78 62.0714L220.78 62.0705L220.395 61.7523ZM220.505 61.6189L220.891 61.9371L220.891 61.9363L220.505 61.6189ZM220.615 61.4849L221.001 61.8023L221.002 61.8017L220.615 61.4849ZM220.725 61.3505L221.112 61.6673L221.112 61.6668L220.725 61.3505ZM220.835 61.2158L221.222 61.5321L221.222 61.5318L220.835 61.2158ZM220.945 61.0809L221.332 61.3969L221.333 61.3968L220.945 61.0809ZM221.055 60.9459L220.668 60.6299L220.667 60.6299L221.055 60.9459ZM221.165 60.8109L220.778 60.4947L220.778 60.4949L221.165 60.8109ZM221.275 60.6762L220.888 60.3595L220.888 60.3599L221.275 60.6762ZM221.385 60.5417L220.999 60.2244L220.998 60.225L221.385 60.5417ZM221.495 60.4076L221.109 60.0896L221.109 60.0904L221.495 60.4076ZM221.605 60.2741L221.22 59.9551L221.219 59.9561L221.605 60.2741ZM221.715 60.1412L221.331 59.8212L221.33 59.8223L221.715 60.1412ZM221.825 60.0091L221.442 59.6878L221.441 59.689L221.825 60.0091ZM221.935 59.8778L221.554 59.5551L221.552 59.5565L221.935 59.8778ZM222.045 59.7476L221.665 59.4232L221.664 59.4249L222.045 59.7476ZM222.156 59.6185L221.777 59.2923L221.775 59.2942L222.156 59.6185ZM222.266 59.4907L221.888 59.1625L221.887 59.1645L222.266 59.4907ZM222.376 59.3642L222 59.0338L221.998 59.036L222.376 59.3642ZM222.486 59.2392L222.112 58.9064L222.11 58.9088L222.486 59.2392ZM222.596 59.1158L222.225 58.7805L222.222 58.783L222.596 59.1158ZM222.706 58.994L222.337 58.656L222.335 58.6587L222.706 58.994ZM222.816 58.8741L222.45 58.5331L222.447 58.5361L222.816 58.8741ZM222.926 58.7561L222.563 58.412L222.56 58.4151L222.926 58.7561ZM223.036 58.6401L222.676 58.2926L222.673 58.296L223.036 58.6401ZM223.146 58.5262L222.79 58.1752L222.786 58.1788L223.146 58.5262ZM223.256 58.4146L222.904 58.0598L222.9 58.0636L223.256 58.4146ZM223.366 58.3053L223.018 57.9466L223.014 57.9506L223.366 58.3053ZM223.476 58.1984L223.132 57.8356L223.128 57.8397L223.476 58.1984ZM223.586 58.094L223.247 57.7269L223.242 57.7312L223.586 58.094ZM223.696 57.9923L223.362 57.6206L223.357 57.6252L223.696 57.9923ZM223.806 57.8932L223.477 57.5168L223.472 57.5216L223.806 57.8932ZM223.916 57.797L223.593 57.4157L223.587 57.4206L223.916 57.797ZM224.026 57.7036L223.709 57.3172L223.703 57.3223L224.026 57.7036ZM224.136 57.6132L223.825 57.2215L223.819 57.2269L224.136 57.6132ZM224.246 57.5258L223.942 57.1287L223.936 57.1342L224.246 57.5258ZM224.356 57.4416L224.06 57.0389L224.053 57.0446L224.356 57.4416ZM224.467 57.3606L224.178 56.9522L224.17 56.958L224.467 57.3606ZM224.577 57.2828L224.296 56.8685L224.288 56.8745L224.577 57.2828ZM224.687 57.2084L224.415 56.7882L224.407 56.7942L224.687 57.2084ZM224.797 57.1374L224.535 56.7112L224.526 56.7173L224.797 57.1374ZM224.907 57.0699L224.655 56.6376L224.645 56.6437L224.907 57.0699ZM225.017 57.0059L224.776 56.5675L224.765 56.5737L225.017 57.0059ZM225.127 56.9456L224.898 56.501L224.886 56.5072L225.127 56.9456ZM225.237 56.8888L225.02 56.4382L225.008 56.4444L225.237 56.8888ZM225.347 56.8358L225.142 56.3793L225.13 56.3854L225.347 56.8358ZM225.457 56.7865L225.266 56.3244L225.259 56.3272L225.253 56.3302L225.457 56.7865ZM225.567 56.741L225.39 56.2734L225.383 56.2761L225.376 56.2789L225.567 56.741ZM225.677 56.6993L225.515 56.2264L225.507 56.229L225.5 56.2317L225.677 56.6993ZM225.787 56.6615L225.64 56.1837L225.632 56.1861L225.625 56.1887L225.787 56.6615ZM225.897 56.6277L225.766 56.1452L225.758 56.1474L225.75 56.1498L225.897 56.6277ZM226.007 56.5977L225.892 56.1111L225.884 56.113L225.876 56.1153L226.007 56.5977ZM226.117 56.5717L226.019 56.0814L226.011 56.0831L226.002 56.0851L226.117 56.5717ZM226.227 56.5497L226.147 56.0563L226.138 56.0577L226.129 56.0594L226.227 56.5497ZM226.337 56.5317L226.274 56.0357L226.265 56.0368L226.257 56.0383L226.337 56.5317ZM226.447 56.5177L226.402 56.0197L226.393 56.0206L226.384 56.0217L226.447 56.5177ZM226.557 56.5078L226.531 56.0085L226.521 56.009L226.512 56.0098L226.557 56.5078ZM226.667 56.5019L226.659 56.0019L226.65 56.0021L226.641 56.0026L226.667 56.5019ZM226.778 56.5L226.787 56.0001L226.778 55.9999L226.769 56.0001L226.778 56.5ZM226.888 56.5022L226.916 56.003L226.907 56.0025L226.898 56.0023L226.888 56.5022ZM226.998 56.5084L227.044 56.0106L227.035 56.0098L227.026 56.0092L226.998 56.5084ZM227.108 56.5187L227.172 56.0229L227.163 56.0217L227.154 56.0209L227.108 56.5187ZM227.218 56.533L227.3 56.0398L227.291 56.0384L227.282 56.0372L227.218 56.533ZM227.328 56.5514L227.427 56.0614L227.419 56.0596L227.41 56.0582L227.328 56.5514ZM227.438 56.5737L227.554 56.0874L227.546 56.0854L227.537 56.0837L227.438 56.5737ZM227.548 56.6L227.68 56.1179L227.672 56.1157L227.664 56.1137L227.548 56.6ZM227.658 56.6303L227.806 56.1529L227.798 56.1504L227.791 56.1482L227.658 56.6303ZM227.768 56.6645L227.932 56.1921L227.924 56.1894L227.916 56.1871L227.768 56.6645ZM227.878 56.7026L228.056 56.2355L228.049 56.2327L228.042 56.2302L227.878 56.7026ZM227.988 56.7446L228.18 56.283L228.173 56.2801L228.166 56.2775L227.988 56.7446ZM228.098 56.7904L228.304 56.3346L228.297 56.3316L228.29 56.3288L228.098 56.7904ZM228.208 56.84L228.426 56.3899L228.414 56.3842L228.208 56.84ZM228.318 56.8934L228.548 56.4493L228.536 56.4435L228.318 56.8934ZM228.428 56.9504L228.67 56.5124L228.658 56.5065L228.428 56.9504ZM228.538 57.0111L228.791 56.5792L228.78 56.5733L228.538 57.0111ZM228.648 57.0754L228.911 56.6496L228.9 56.6436L228.648 57.0754ZM228.758 57.1432L229.03 56.7234L229.021 56.7175L228.758 57.1432ZM228.868 57.2145L229.149 56.8006L229.14 56.7948L228.868 57.2145ZM228.978 57.2891L229.268 56.8812L229.259 56.8754L228.978 57.2891ZM229.089 57.3672L229.386 56.9649L229.378 56.9593L229.089 57.3672ZM229.199 57.4485L229.503 57.0518L229.496 57.0463L229.199 57.4485ZM229.309 57.533L229.62 57.1417L229.613 57.1364L229.309 57.533ZM229.419 57.6206L229.737 57.2346L229.73 57.2294L229.419 57.6206ZM229.529 57.7112L229.853 57.3303L229.847 57.3253L229.529 57.7112ZM229.639 57.8048L229.968 57.4288L229.963 57.424L229.639 57.8048ZM229.749 57.9013L230.084 57.53L230.078 57.5254L229.749 57.9013ZM229.859 58.0006L230.199 57.6338L230.194 57.6293L229.859 58.0006ZM229.969 58.1026L230.313 57.7401L230.309 57.7358L229.969 58.1026ZM230.079 58.2071L230.428 57.8488L230.423 57.8447L230.079 58.2071ZM230.189 58.3142L230.542 57.9598L230.538 57.9559L230.189 58.3142ZM230.299 58.4237L230.655 58.073L230.652 58.0693L230.299 58.4237ZM230.409 58.5356L230.769 58.1884L230.765 58.1849L230.409 58.5356ZM230.519 58.6496L230.882 58.3057L230.879 58.3024L230.519 58.6496ZM230.629 58.7658L230.995 58.425L230.992 58.4219L230.629 58.7658ZM230.739 58.884L231.108 58.5461L231.105 58.5432L230.739 58.884ZM230.849 59.004L231.22 58.6689L231.218 58.6662L230.849 59.004ZM230.959 59.1259L231.333 58.7934L231.33 58.7908L230.959 59.1259ZM231.069 59.2495L231.445 58.9193L231.443 58.9169L231.069 59.2495ZM231.179 59.3746L231.557 59.0466L231.555 59.0444L231.179 59.3746ZM231.289 59.5012L231.669 59.1752L231.667 59.1732L231.289 59.5012ZM231.4 59.6292L231.78 59.3049L231.779 59.3031L231.4 59.6292ZM231.51 59.7583L231.892 59.4357L231.89 59.4341L231.51 59.7583ZM231.62 59.8886L232.003 59.5675L232.002 59.566L231.62 59.8886ZM231.73 60.0199L232.114 59.7L232.113 59.6988L231.73 60.0199ZM231.84 60.1521L232.225 59.8333L232.224 59.8322L231.84 60.1521ZM231.95 60.2851L232.336 59.9672L232.335 59.9662L231.95 60.2851ZM232.06 60.4187L232.446 60.1015L232.446 60.1008L232.06 60.4187ZM232.17 60.5528L232.557 60.2362L232.556 60.2356L232.17 60.5528ZM232.28 60.6873L232.667 60.3711L232.667 60.3707L232.28 60.6873ZM232.39 60.8221L232.815 60.5591L232.798 60.5312L232.777 60.5059L232.39 60.8221ZM232.075 61.263C232.22 61.4979 232.528 61.5705 232.763 61.4252C232.998 61.28 233.07 60.9718 232.925 60.737L232.075 61.263ZM163.113 61.4511L163.223 61.586L163.997 60.9538L163.887 60.8189L163.113 61.4511ZM163.223 61.5863L163.333 61.721L164.107 61.088L163.997 60.9534L163.223 61.5863ZM163.333 61.7215L163.443 61.8557L164.217 61.2218L164.107 61.0875L163.333 61.7215ZM163.444 61.8564L163.554 61.9902L164.326 61.3549L164.216 61.2211L163.444 61.8564ZM163.555 61.991L163.665 62.1242L164.436 61.4872L164.326 61.354L163.555 61.991ZM163.666 62.1252L163.776 62.2577L164.545 61.6186L164.435 61.4861L163.666 62.1252ZM163.777 62.2589L163.887 62.3905L164.654 61.749L164.544 61.6174L163.777 62.2589ZM163.888 62.3919L163.998 62.5225L164.763 61.8782L164.653 61.7476L163.888 62.3919ZM163.999 62.524L164.109 62.6536L164.872 62.0062L164.761 61.8766L163.999 62.524ZM164.111 62.6553L164.221 62.7837L164.98 62.1328L164.87 62.0044L164.111 62.6553ZM164.223 62.7856L164.333 62.9127L165.088 62.2579L164.978 62.1309L164.223 62.7856ZM164.334 62.9148L164.444 63.0404L165.197 62.3814L165.087 62.2558L164.334 62.9148ZM164.447 63.0427L164.557 63.1668L165.305 62.5032L165.195 62.3791L164.447 63.0427ZM164.559 63.1692L164.669 63.2917L165.413 62.6231L165.302 62.5007L164.559 63.1692ZM164.671 63.2943L164.781 63.415L165.52 62.7411L165.41 62.6205L164.671 63.2943ZM164.784 63.4179L164.894 63.5367L165.628 62.8571L165.518 62.7383L164.784 63.4179ZM164.897 63.5397L165.007 63.6565L165.735 62.9708L165.625 62.854L164.897 63.5397ZM165.01 63.6598L165.12 63.7745L165.842 63.0823L165.732 62.9676L165.01 63.6598ZM165.123 63.778L165.233 63.8905L165.948 63.1914L165.838 63.0788L165.123 63.778ZM165.237 63.8942L165.347 64.0044L166.055 63.298L165.945 63.1877L165.237 63.8942ZM165.351 64.0083L165.461 64.1162L166.161 63.402L166.051 63.2942L165.351 64.0083ZM165.465 64.1202L165.575 64.2256L166.267 63.5034L166.157 63.398L165.465 64.1202ZM165.58 64.2298L165.69 64.3327L166.372 63.6019L166.262 63.4991L165.58 64.2298ZM165.695 64.3371L165.805 64.4372L166.478 63.6976L166.368 63.5975L165.695 64.3371ZM165.81 64.4419L165.92 64.5393L166.583 63.7904L166.472 63.693L165.81 64.4419ZM165.925 64.5441L166.035 64.6386L166.687 63.8801L166.577 63.7856L165.925 64.5441ZM166.041 64.6437L166.151 64.7353L166.791 63.9667L166.681 63.8751L166.041 64.6437ZM166.158 64.7404L166.268 64.829L166.895 64.0501L166.785 63.9615L166.158 64.7404ZM166.275 64.8344L166.385 64.9199L166.998 64.1302L166.888 64.0447L166.275 64.8344ZM166.392 64.9254L166.502 65.0077L167.101 64.207L166.991 64.1247L166.392 64.9254ZM166.51 65.0134L166.62 65.0925L167.203 64.2804L167.093 64.2013L166.51 65.0134ZM166.628 65.0983L166.738 65.174L167.305 64.3503L167.195 64.2746L166.628 65.0983ZM166.747 65.18L166.857 65.2523L167.406 64.4168L167.296 64.3444L166.747 65.18ZM166.866 65.2583L166.976 65.3272L167.507 64.4797L167.397 64.4108L166.866 65.2583ZM166.986 65.3333L167.096 65.3987L167.607 64.5391L167.497 64.4737L166.986 65.3333ZM167.107 65.4048L167.217 65.4666L167.707 64.5948L167.597 64.533L167.107 65.4048ZM167.228 65.4727L167.338 65.5309L167.806 64.6469L167.695 64.5887L167.228 65.4727ZM167.35 65.5369L167.46 65.5915L167.904 64.6954L167.794 64.6409L167.35 65.5369ZM167.472 65.5974L167.582 65.6482L168.001 64.7403L167.891 64.6895L167.472 65.5974ZM167.595 65.654L167.705 65.7011L168.098 64.7815L167.988 64.7345L167.595 65.654ZM167.719 65.7067L167.829 65.7499L168.195 64.8191L168.085 64.7759L167.719 65.7067ZM167.844 65.7553L167.954 65.7946L168.29 64.853L168.18 64.8137L167.844 65.7553ZM167.969 65.7997L168.079 65.8352L168.385 64.8834L168.275 64.8479L167.969 65.7997ZM168.094 65.8399L168.204 65.8715L168.48 64.9102L168.37 64.8786L168.094 65.8399ZM168.221 65.8758L168.331 65.9034L168.574 64.9334L168.464 64.9058L168.221 65.8758ZM168.347 65.9073L168.457 65.9309L168.667 64.9532L168.557 64.9295L168.347 65.9073ZM168.474 65.9343L168.585 65.9539L168.76 64.9694L168.65 64.9498L168.474 65.9343ZM168.602 65.9567L168.712 65.9723L168.852 64.9822L168.742 64.9666L168.602 65.9567ZM168.73 65.9745L168.84 65.9861L168.945 64.9915L168.835 64.98L168.73 65.9745ZM168.858 65.9876L168.968 65.9952L169.037 64.9975L168.926 64.99L168.858 65.9876ZM168.987 65.9961L169.097 65.9996L169.128 65.0001L169.018 64.9966L168.987 65.9961ZM169.115 65.9998L169.225 65.9992L169.22 64.9993L169.11 64.9998L169.115 65.9998ZM169.243 65.9988L169.353 65.9942L169.312 64.9951L169.202 64.9997L169.243 65.9988ZM169.372 65.9931L169.482 65.9844L169.403 64.9875L169.293 64.9962L169.372 65.9931ZM169.5 65.9827L169.61 65.97L169.495 64.9766L169.385 64.9893L169.5 65.9827ZM169.628 65.9676L169.738 65.9509L169.588 64.9622L169.478 64.9789L169.628 65.9676ZM169.755 65.9479L169.865 65.9272L169.68 64.9445L169.57 64.9652L169.755 65.9479ZM169.882 65.9237L169.992 65.8989L169.773 64.9233L169.663 64.948L169.882 65.9237ZM170.009 65.8949L170.119 65.8662L169.867 64.8986L169.757 64.9273L170.009 65.8949ZM170.135 65.8618L170.245 65.8291L169.961 64.8704L169.851 64.903L170.135 65.8618ZM170.26 65.8243L170.371 65.7877L170.055 64.8387L169.945 64.8752L170.26 65.8243ZM170.385 65.7825L170.495 65.7421L170.151 64.8034L170.04 64.8439L170.385 65.7825ZM170.51 65.7366L170.62 65.6923L170.246 64.7646L170.136 64.8089L170.51 65.7366ZM170.633 65.6867L170.743 65.6386L170.343 64.7222L170.233 64.7703L170.633 65.6867ZM170.756 65.6327L170.866 65.5809L170.44 64.6762L170.33 64.7281L170.756 65.6327ZM170.878 65.5749L170.989 65.5193L170.538 64.6267L170.428 64.6822L170.878 65.5749ZM171 65.5133L171.11 65.454L170.636 64.5735L170.526 64.6327L171 65.5133ZM171.121 65.448L171.231 65.3851L170.735 64.5167L170.625 64.5796L171.121 65.448ZM171.242 65.379L171.352 65.3126L170.835 64.4564L170.725 64.5228L171.242 65.379ZM171.361 65.3066L171.471 65.2367L170.935 64.3926L170.825 64.4625L171.361 65.3066ZM171.481 65.2307L171.591 65.1574L171.036 64.3252L170.926 64.3985L171.481 65.2307ZM171.599 65.1515L171.709 65.0748L171.138 64.2544L171.028 64.3311L171.599 65.1515ZM171.717 65.0691L171.827 64.9891L171.24 64.1802L171.129 64.2602L171.717 65.0691ZM171.835 64.9834L171.945 64.9002L171.342 64.1026L171.232 64.1858L171.835 64.9834ZM171.952 64.8947L172.062 64.8084L171.445 64.0217L171.335 64.1081L171.952 64.8947ZM172.069 64.803L172.179 64.7136L171.548 63.9376L171.438 64.027L172.069 64.803ZM172.185 64.7085L172.295 64.616L171.652 63.8503L171.542 63.9427L172.185 64.7085ZM172.301 64.6111L172.411 64.5157L171.756 63.7599L171.646 63.8553L172.301 64.6111ZM172.417 64.5109L172.527 64.4128L171.861 63.6665L171.751 63.7647L172.417 64.5109ZM172.532 64.4082L172.642 64.3073L171.966 63.5702L171.856 63.6711L172.532 64.4082ZM172.646 64.3029L172.757 64.1994L172.071 63.4711L171.961 63.5746L172.646 64.3029ZM172.761 64.1952L172.871 64.0891L172.177 63.3692L172.067 63.4753L172.761 64.1952ZM172.875 64.0851L172.985 63.9765L172.283 63.2646L172.173 63.3731L172.875 64.0851ZM172.989 63.9727L173.099 63.8618L172.389 63.1575L172.279 63.2684L172.989 63.9727ZM173.102 63.8582L173.213 63.745L172.496 63.0479L172.386 63.1611L173.102 63.8582ZM173.216 63.7416L173.326 63.6263L172.602 62.936L172.492 63.0513L173.216 63.7416ZM173.329 63.6231L173.439 63.5057L172.709 62.8218L172.599 62.9392L173.329 63.6231ZM173.442 63.5027L173.552 63.3834L172.817 62.7055L172.707 62.8248L173.442 63.5027ZM173.554 63.3806L173.664 63.2594L172.924 62.5871L172.814 62.7083L173.554 63.3806ZM173.667 63.2568L173.777 63.1339L173.032 62.4668L172.922 62.5897L173.667 63.2568ZM173.779 63.1315L173.889 63.007L173.14 62.3447L173.03 62.4693L173.779 63.1315ZM173.891 63.0047L174.001 62.8787L173.248 62.221L173.138 62.347L173.891 63.0047ZM174.003 62.8766L174.113 62.7492L173.356 62.0956L173.246 62.223L174.003 62.8766ZM174.114 62.7473L174.225 62.6186L173.464 61.9688L173.354 62.0975L174.114 62.7473ZM174.226 62.617L174.336 62.4871L173.573 61.8406L173.463 61.9705L174.226 62.617ZM174.337 62.4856L174.447 62.3547L173.682 61.7112L173.572 61.8421L174.337 62.4856ZM174.448 62.3533L174.558 62.2215L173.791 61.5807L173.681 61.7125L174.448 62.3533ZM174.559 62.2203L174.67 62.0877L173.9 61.4492L173.79 61.5818L174.559 62.2203ZM174.67 62.0867L174.78 61.9533L174.009 61.3168L173.899 61.4502L174.67 62.0867ZM174.781 61.9525L174.891 61.8186L174.118 61.1837L174.008 61.3176L174.781 61.9525ZM174.892 61.818L175.002 61.6836L174.228 61.05L174.118 61.1844L174.892 61.818ZM175.002 61.6831L175.112 61.5484L174.338 60.9158L174.228 61.0505L175.002 61.6831ZM175.112 61.5482L175.222 61.4133L174.447 60.7811L174.337 60.9161L175.112 61.5482ZM175.222 61.4131L175.333 61.2781L174.557 60.6463L174.447 60.7813L175.222 61.4131ZM175.332 61.2782L175.443 61.1432L174.668 60.5113L174.557 60.6462L175.332 61.2782ZM175.442 61.1434L175.552 61.0086L174.778 60.3762L174.668 60.5111L175.442 61.1434ZM175.552 61.009L175.662 60.8745L174.888 60.2413L174.778 60.3759L175.552 61.009ZM175.662 60.8751L175.772 60.7409L174.999 60.1066L174.889 60.2408L175.662 60.8751ZM175.771 60.7417L175.881 60.6081L175.109 59.9723L174.999 60.1059L175.771 60.7417ZM175.88 60.609L175.99 60.476L175.22 59.8384L175.11 59.9714L175.88 60.609ZM175.99 60.4771L176.1 60.3449L175.331 59.7051L175.221 59.8373L175.99 60.4771ZM176.099 60.3461L176.209 60.2148L175.442 59.5725L175.332 59.7039L176.099 60.3461ZM176.207 60.2162L176.317 60.0859L175.553 59.4408L175.443 59.5711L176.207 60.2162ZM176.316 60.0875L176.426 59.9583L175.665 59.3099L175.555 59.4391L176.316 60.0875ZM176.425 59.9601L176.535 59.8321L175.776 59.1801L175.666 59.3081L176.425 59.9601ZM176.533 59.834L176.643 59.7074L175.888 59.0515L175.778 59.1781L176.533 59.834ZM176.641 59.7095L176.751 59.5843L176 58.9241L175.89 59.0493L176.641 59.7095ZM176.749 59.5867L176.859 59.4631L176.112 58.7982L176.002 58.9218L176.749 59.5867ZM176.857 59.4656L176.967 59.3437L176.225 58.6737L176.114 58.7956L176.857 59.4656ZM176.964 59.3464L177.074 59.2262L176.337 58.5508L176.227 58.671L176.964 59.3464ZM177.072 59.2292L177.182 59.1109L176.45 58.4296L176.34 58.5479L177.072 59.2292ZM177.179 59.114L177.289 58.9978L176.563 58.3103L176.453 58.4265L177.179 59.114ZM177.286 59.0011L177.396 58.887L176.676 58.1929L176.566 58.307L177.286 59.0011ZM177.392 58.8905L177.502 58.7786L176.789 58.0774L176.679 58.1893L177.392 58.8905ZM177.499 58.7823L177.609 58.6727L176.903 57.9641L176.793 58.0737L177.499 58.7823ZM177.605 58.6766L177.715 58.5694L177.017 57.853L176.907 57.9602L177.605 58.6766ZM177.711 58.5735L177.821 58.4688L177.131 57.7442L177.021 57.8489L177.711 58.5735ZM177.816 58.4731L177.926 58.371L177.246 57.6379L177.136 57.7399L177.816 58.4731ZM177.921 58.3755L178.031 58.2761L177.361 57.534L177.251 57.6334L177.921 58.3755ZM178.026 58.2808L178.136 58.1842L177.476 57.4327L177.366 57.5293L178.026 58.2808ZM178.13 58.1891L178.24 58.0954L177.592 57.3341L177.482 57.4278L178.13 58.1891ZM178.234 58.1005L178.344 58.0097L177.708 57.2383L177.598 57.329L178.234 58.1005ZM178.338 58.015L178.448 57.9272L177.825 57.1453L177.715 57.233L178.338 58.015ZM178.441 57.9326L178.551 57.848L177.942 57.0553L177.832 57.1399L178.441 57.9326ZM178.544 57.8536L178.654 57.7722L178.059 56.9683L177.949 57.0497L178.544 57.8536ZM178.646 57.7779L178.756 57.6997L178.177 56.8844L178.067 56.9626L178.646 57.7779ZM178.748 57.7056L178.858 57.6308L178.295 56.8038L178.185 56.8786L178.748 57.7056ZM178.849 57.6367L178.959 57.5653L178.414 56.7264L178.304 56.7978L178.849 57.6367ZM178.949 57.5713L179.059 57.5034L178.534 56.6525L178.424 56.7204L178.949 57.5713ZM179.049 57.5094L179.159 57.445L178.654 56.582L178.544 56.6464L179.049 57.5094ZM179.149 57.4511L179.259 57.3903L178.775 56.5151L178.665 56.5759L179.149 57.4511ZM179.247 57.3964L179.357 57.3392L178.896 56.4518L178.786 56.509L179.247 57.3964ZM179.345 57.3452L179.455 57.2917L179.018 56.3923L178.908 56.4458L179.345 57.3452ZM179.443 57.2976L179.553 57.2479L179.141 56.3366L179.031 56.3864L179.443 57.2976ZM179.54 57.2536L179.65 57.2077L179.264 56.2849L179.154 56.3309L179.54 57.2536ZM179.636 57.2133L179.746 57.1711L179.388 56.2372L179.278 56.2794L179.636 57.2133ZM179.731 57.1764L179.841 57.1382L179.513 56.1936L179.403 56.2319L179.731 57.1764ZM179.826 57.1432L179.936 57.1088L179.638 56.1543L179.528 56.1886L179.826 57.1432ZM179.92 57.1135L180.03 57.083L179.764 56.1192L179.654 56.1496L179.92 57.1135ZM180.014 57.0872L180.124 57.0608L179.89 56.0885L179.78 56.115L180.014 57.0872ZM180.107 57.0645L180.217 57.042L180.017 56.0623L179.907 56.0848L180.107 57.0645ZM180.2 57.0452L180.31 57.0267L180.144 56.0406L180.034 56.0591L180.2 57.0452ZM180.292 57.0294L180.403 57.0149L180.272 56.0235L180.162 56.0379L180.292 57.0294ZM180.385 57.017L180.495 57.0065L180.4 56.011L180.29 56.0214L180.385 57.017ZM180.476 57.0079L180.586 57.0015L180.528 56.0032L180.418 56.0096L180.476 57.0079ZM180.568 57.0022L180.678 56.9999L180.657 56.0001L180.547 56.0025L180.568 57.0022ZM180.66 56.9999L180.77 57.0017L180.785 56.0018L180.675 56.0001L180.66 56.9999ZM180.751 57.001L180.861 57.0068L180.914 56.0081L180.804 56.0024L180.751 57.001ZM180.843 57.0055L180.953 57.0153L181.042 56.0192L180.932 56.0094L180.843 57.0055ZM180.935 57.0134L181.045 57.0272L181.17 56.035L181.06 56.0212L180.935 57.0134ZM181.028 57.0246L181.138 57.0425L181.298 56.0554L181.188 56.0375L181.028 57.0246ZM181.12 57.0394L181.23 57.0612L181.425 56.0804L181.315 56.0585L181.12 57.0394ZM181.213 57.0575L181.323 57.0834L181.552 56.1099L181.442 56.084L181.213 57.0575ZM181.307 57.0792L181.417 57.109L181.679 56.1438L181.569 56.114L181.307 57.0792ZM181.401 57.1045L181.511 57.1382L181.804 56.1821L181.694 56.1484L181.401 57.1045ZM181.496 57.1333L181.606 57.1709L181.93 56.2247L181.82 56.1871L181.496 57.1333ZM181.591 57.1656L181.701 57.2072L182.054 56.2715L181.944 56.23L181.591 57.1656ZM181.687 57.2016L181.798 57.247L182.179 56.3224L182.069 56.2771L181.687 57.2016ZM181.784 57.2412L181.894 57.2904L182.302 56.3773L182.192 56.3281L181.784 57.2412ZM181.881 57.2845L181.992 57.3374L182.425 56.4361L182.315 56.3832L181.881 57.2845ZM181.979 57.3314L182.09 57.388L182.547 56.4987L182.437 56.4421L181.979 57.3314ZM182.078 57.3819L182.188 57.4421L182.668 56.565L182.558 56.5047L182.078 57.3819ZM182.177 57.4361L182.287 57.4999L182.789 56.6349L182.679 56.5711L182.177 57.4361ZM182.277 57.4938L182.387 57.5612L182.909 56.7084L182.799 56.641L182.277 57.4938ZM182.378 57.5552L182.488 57.626L183.029 56.7853L182.919 56.7144L182.378 57.5552ZM182.479 57.6201L182.589 57.6944L183.148 56.8655L183.038 56.7912L182.479 57.6201ZM182.58 57.6885L182.69 57.7661L183.267 56.949L183.157 56.8713L182.58 57.6885ZM182.682 57.7604L182.792 57.8413L183.385 57.0356L183.275 56.9547L182.682 57.7604ZM182.785 57.8357L182.895 57.9198L183.502 57.1253L183.392 57.0412L182.785 57.8357ZM182.888 57.9144L182.998 58.0016L183.619 57.218L183.509 57.1307L182.888 57.9144ZM182.991 57.9964L183.102 58.0866L183.736 57.3135L183.626 57.2233L182.991 57.9964ZM183.095 58.0815L183.205 58.1748L183.852 57.4119L183.742 57.3186L183.095 58.0815ZM183.2 58.1699L183.31 58.266L183.968 57.513L183.858 57.4168L183.2 58.1699ZM183.304 58.2613L183.415 58.3602L184.083 57.6166L183.973 57.5177L183.304 58.2613ZM183.41 58.3557L183.52 58.4574L184.198 57.7228L184.088 57.6211L183.41 58.3557ZM183.515 58.453L183.625 58.5573L184.313 57.8314L184.203 57.7271L183.515 58.453ZM183.621 58.5532L183.731 58.66L184.427 57.9423L184.317 57.8355L183.621 58.5532ZM183.727 58.656L183.837 58.7653L184.541 58.0555L184.431 57.9463L183.727 58.656ZM183.833 58.7615L183.943 58.8731L184.655 58.1708L184.545 58.0592L183.833 58.7615ZM183.94 58.8695L184.05 58.9833L184.768 58.2881L184.658 58.1743L183.94 58.8695ZM184.046 58.98L184.157 59.0959L184.882 58.4074L184.772 58.2915L184.046 58.98ZM184.154 59.0927L184.264 59.2107L184.995 58.5284L184.885 58.4105L184.154 59.0927ZM184.261 59.2077L184.371 59.3276L185.108 58.6513L184.997 58.5314L184.261 59.2077ZM184.368 59.3248L184.478 59.4465L185.22 58.7757L185.11 58.654L184.368 59.3248ZM184.476 59.4439L184.586 59.5673L185.332 58.9016L185.222 58.7782L184.476 59.4439ZM184.584 59.5649L184.694 59.6899L185.445 59.0289L185.335 58.904L184.584 59.5649ZM184.692 59.6877L184.802 59.8141L185.557 59.1576L185.447 59.0311L184.692 59.6877ZM184.801 59.8121L184.911 59.9399L185.668 59.2873L185.558 59.1596L184.801 59.8121ZM184.909 59.9381L185.019 60.0671L185.78 59.4182L185.67 59.2892L184.909 59.9381ZM185.018 60.0655L185.128 60.1956L185.891 59.55L185.781 59.4198L185.018 60.0655ZM185.127 60.1942L185.237 60.3254L186.003 59.6827L185.893 59.5515L185.127 60.1942ZM185.235 60.3241L185.346 60.4562L186.114 59.816L186.004 59.684L185.235 60.3241ZM185.345 60.455L185.455 60.5879L186.225 59.95L186.115 59.8171L185.345 60.455ZM185.454 60.587L185.564 60.7205L186.336 60.0845L186.226 59.9509L185.454 60.587ZM185.563 60.7197L185.673 60.8538L186.446 60.2193L186.336 60.0852L185.563 60.7197ZM185.673 60.8532L185.783 60.9877L186.557 60.3543L186.447 60.2199L185.673 60.8532ZM185.783 60.9872L185.893 61.122L186.667 60.4895L186.557 60.3547L185.783 60.9872ZM185.892 61.1218L186.002 61.2567L186.777 60.6247L186.667 60.4898L185.892 61.1218ZM186.002 61.2566L186.112 61.3916L186.888 60.7598L186.777 60.6248L186.002 61.2566ZM186.113 61.3917L186.223 61.5267L186.998 60.8946L186.887 60.7597L186.113 61.3917ZM186.223 61.5269L186.333 61.6617L187.107 61.0291L186.997 60.8943L186.223 61.5269ZM186.333 61.6621L186.443 61.7965L187.217 61.1631L187.107 61.0286L186.333 61.6621ZM186.444 61.7971L186.554 61.9311L187.327 61.2965L187.217 61.1625L186.444 61.7971ZM186.554 61.9319L186.664 62.0654L187.436 61.4291L187.326 61.2957L186.554 61.9319ZM186.665 62.0663L186.775 62.1991L187.545 61.5609L187.435 61.4282L186.665 62.0663ZM186.776 62.2002L186.886 62.3322L187.654 61.6918L187.544 61.5598L186.776 62.2002ZM186.887 62.3335L186.997 62.4646L187.763 61.8215L187.653 61.6905L186.887 62.3335ZM186.999 62.4661L187.109 62.5961L187.872 61.9501L187.762 61.8201L186.999 62.4661ZM187.11 62.5978L187.22 62.7267L187.981 62.0773L187.871 61.9484L187.11 62.5978ZM187.222 62.7285L187.332 62.8561L188.089 62.2031L187.979 62.0755L187.222 62.7285ZM187.334 62.8582L187.444 62.9844L188.197 62.3273L188.087 62.2011L187.334 62.8582ZM187.446 62.9866L187.556 63.1114L188.306 62.4499L188.196 62.3251L187.446 62.9866ZM187.558 63.1138L187.668 63.2369L188.414 62.5707L188.303 62.4475L187.558 63.1138ZM187.67 63.2395L187.78 63.361L188.521 62.6895L188.411 62.5681L187.67 63.2395ZM187.783 63.3638L187.893 63.4834L188.629 62.8064L188.519 62.6867L187.783 63.3638ZM187.896 63.4864L188.006 63.6041L188.736 62.9211L188.626 62.8034L187.896 63.4864ZM188.009 63.6072L188.119 63.7229L188.843 63.0336L188.733 62.9179L188.009 63.6072ZM188.122 63.7263L188.232 63.8398L188.95 63.1437L188.84 63.0302L188.122 63.7263ZM188.235 63.8433L188.345 63.9546L189.056 63.2515L188.946 63.1402L188.235 63.8433ZM188.349 63.9584L188.459 64.0673L189.163 63.3566L189.053 63.2477L188.349 63.9584ZM188.463 64.0713L188.573 64.1778L189.269 63.4592L189.159 63.3527L188.463 64.0713ZM188.578 64.1819L188.688 64.2859L189.374 63.559L189.264 63.455L188.578 64.1819ZM188.692 64.2903L188.802 64.3916L189.48 63.6559L189.37 63.5546L188.692 64.2903ZM188.807 64.3961L188.918 64.4947L189.585 63.75L189.475 63.6514L188.807 64.3961ZM188.923 64.4995L189.033 64.5953L189.69 63.841L189.579 63.7452L188.923 64.4995ZM189.039 64.6002L189.149 64.6931L189.794 63.929L189.684 63.8361L189.039 64.6002ZM189.155 64.6983L189.265 64.7882L189.898 64.0138L189.788 63.9239L189.155 64.6983ZM189.272 64.7935L189.382 64.8803L190.001 64.0954L189.891 64.0085L189.272 64.7935ZM189.389 64.8858L189.499 64.9695L190.104 64.1736L189.994 64.0899L189.389 64.8858ZM189.506 64.9751L189.616 65.0556L190.207 64.2485L190.097 64.168L189.506 64.9751ZM189.624 65.0614L189.734 65.1386L190.309 64.32L190.199 64.2428L189.624 65.0614ZM189.743 65.1445L189.853 65.2183L190.41 64.388L190.3 64.3142L189.743 65.1445ZM189.862 65.2243L189.972 65.2947L190.511 64.4525L190.401 64.3821L189.862 65.2243ZM189.982 65.3008L190.092 65.3677L190.612 64.5134L190.502 64.4465L189.982 65.3008ZM190.102 65.3738L190.212 65.4372L190.711 64.5708L190.601 64.5073L190.102 65.3738ZM190.223 65.4433L190.333 65.5031L190.811 64.6245L190.7 64.5647L190.223 65.4433ZM190.345 65.5092L190.455 65.5653L190.909 64.6746L190.799 64.6184L190.345 65.5092ZM190.467 65.5713L190.577 65.6238L191.007 64.721L190.897 64.6686L190.467 65.5713ZM190.59 65.6296L190.7 65.6783L191.104 64.7638L190.994 64.7151L190.59 65.6296ZM190.713 65.684L190.823 65.7289L191.201 64.803L191.091 64.7581L190.713 65.684ZM190.837 65.7344L190.947 65.7755L191.297 64.8386L191.187 64.7975L190.837 65.7344ZM190.962 65.7807L191.072 65.8179L191.392 64.8705L191.282 64.8333L190.962 65.7807ZM191.087 65.8228L191.197 65.8561L191.487 64.8988L191.377 64.8656L191.087 65.8228ZM191.213 65.8606L191.323 65.8899L191.581 64.9236L191.471 64.8943L191.213 65.8606ZM191.34 65.894L191.45 65.9194L191.674 64.9449L191.564 64.9196L191.34 65.894ZM191.467 65.923L191.577 65.9443L191.768 64.9627L191.658 64.9413L191.467 65.923ZM191.594 65.9474L191.704 65.9648L191.86 64.977L191.75 64.9596L191.594 65.9474ZM191.722 65.9672L191.832 65.9806L191.953 64.9879L191.842 64.9745L191.722 65.9672ZM191.85 65.9824L191.96 65.9917L192.045 64.9953L191.934 64.986L191.85 65.9824ZM191.979 65.993L192.089 65.9982L192.136 64.9994L192.026 64.9941L191.979 65.993ZM192.107 65.9988L192.217 66L192.228 65L192.118 64.9988L192.107 65.9988ZM192.235 65.9998L192.345 65.997L192.32 64.9973L192.21 65.0002L192.235 65.9998ZM192.364 65.9962L192.474 65.9893L192.411 64.9913L192.301 64.9981L192.364 65.9962ZM192.492 65.9878L192.602 65.9769L192.503 64.9818L192.393 64.9927L192.492 65.9878ZM192.62 65.9748L192.73 65.9598L192.595 64.969L192.485 64.9839L192.62 65.9748ZM192.748 65.9571L192.858 65.9382L192.688 64.9527L192.578 64.9717L192.748 65.9571ZM192.875 65.9349L192.985 65.9119L192.781 64.933L192.671 64.956L192.875 65.9349ZM193.002 65.9081L193.112 65.8811L192.874 64.9099L192.764 64.9368L193.002 65.9081ZM193.128 65.8769L193.238 65.846L192.968 64.8832L192.858 64.9141L193.128 65.8769ZM193.254 65.8413L193.364 65.8064L193.062 64.8531L192.952 64.8879L193.254 65.8413ZM193.379 65.8014L193.489 65.7627L193.157 64.8194L193.047 64.8581L193.379 65.8014ZM193.503 65.7573L193.613 65.7147L193.253 64.7821L193.142 64.8247L193.503 65.7573ZM193.627 65.7091L193.737 65.6627L193.349 64.7413L193.239 64.7877L193.627 65.7091ZM193.751 65.6569L193.861 65.6067L193.446 64.6969L193.336 64.7471L193.751 65.6569ZM193.873 65.6008L193.983 65.5468L193.543 64.6489L193.433 64.7028L193.873 65.6008ZM193.995 65.5408L194.105 65.4832L193.641 64.5973L193.531 64.6549L193.995 65.5408ZM194.116 65.4771L194.226 65.4158L193.74 64.5421L193.63 64.6034L194.116 65.4771ZM194.237 65.4098L194.347 65.3449L193.839 64.4834L193.729 64.5482L194.237 65.4098ZM194.357 65.3389L194.467 65.2705L193.94 64.421L193.829 64.4894L194.357 65.3389ZM194.477 65.2645L194.587 65.1927L194.04 64.3552L193.93 64.4271L194.477 65.2645ZM194.596 65.1867L194.706 65.1115L194.141 64.2859L194.031 64.3612L194.596 65.1867ZM194.714 65.1057L194.824 65.0271L194.243 64.2132L194.133 64.2918L194.714 65.1057ZM194.832 65.0214L194.942 64.9396L194.345 64.1371L194.235 64.2189L194.832 65.0214ZM194.949 64.9341L195.059 64.8491L194.448 64.0577L194.338 64.1426L194.949 64.9341ZM195.066 64.8437L195.176 64.7556L194.551 63.9749L194.441 64.063L195.066 64.8437ZM195.183 64.7504L195.293 64.6593L194.655 63.889L194.545 63.9802L195.183 64.7504ZM195.299 64.6542L195.409 64.5601L194.759 63.8L194.649 63.8941L195.299 64.6542ZM195.414 64.5553L195.524 64.4583L194.863 63.7079L194.753 63.8049L195.414 64.5553ZM195.53 64.4537L195.64 64.354L194.968 63.6129L194.858 63.7126L195.53 64.4537ZM195.644 64.3495L195.754 64.2471L195.073 63.515L194.963 63.6174L195.644 64.3495ZM195.759 64.2428L195.869 64.1378L195.179 63.4143L195.069 63.5193L195.759 64.2428ZM195.873 64.1337L195.983 64.0262L195.285 63.3109L195.175 63.4184L195.873 64.1337ZM195.987 64.0224L196.097 63.9125L195.391 63.2049L195.281 63.3147L195.987 64.0224ZM196.101 63.9088L196.211 63.7966L195.497 63.0963L195.387 63.2085L196.101 63.9088ZM196.214 63.7931L196.324 63.6787L195.604 62.9855L195.494 63.0998L196.214 63.7931ZM196.328 63.6755L196.438 63.559L195.711 62.8722L195.601 62.9887L196.328 63.6755ZM196.441 63.5559L196.551 63.4374L195.818 62.7568L195.708 62.8753L196.441 63.5559ZM196.553 63.4345L196.663 63.3141L195.925 62.6394L195.815 62.7597L196.553 63.4345ZM196.666 63.3114L196.776 63.1893L196.033 62.5199L195.923 62.6421L196.666 63.3114ZM196.778 63.1868L196.888 63.0629L196.141 62.3986L196.031 62.5224L196.778 63.1868ZM196.89 63.0606L197 62.9352L196.249 62.2756L196.139 62.4009L196.89 63.0606ZM197.002 62.9331L197.112 62.8063L196.357 62.1509L196.247 62.2777L197.002 62.9331ZM197.114 62.8043L197.224 62.6762L196.465 62.0247L196.355 62.1528L197.114 62.8043ZM197.225 62.6744L197.335 62.545L196.574 61.8971L196.464 62.0264L197.225 62.6744ZM197.337 62.5434L197.447 62.413L196.682 61.7682L196.572 61.8987L197.337 62.5434ZM197.448 62.4115L197.558 62.2801L196.791 61.6382L196.681 61.7696L197.448 62.4115ZM197.559 62.2789L197.669 62.1466L196.9 61.5071L196.79 61.6394L197.559 62.2789ZM197.67 62.1455L197.78 62.0124L197.009 61.3751L196.899 61.5082L197.67 62.1455ZM197.781 62.0115L197.891 61.8779L197.119 61.2423L197.009 61.376L197.781 62.0115ZM197.891 61.8772L198.001 61.743L197.228 61.1088L197.118 61.243L197.891 61.8772ZM198.002 61.7424L198.112 61.6079L197.338 60.9748L197.228 61.1094L198.002 61.7424ZM198.112 61.6075L198.222 61.4727L197.448 60.8404L197.338 60.9752L198.112 61.6075ZM198.222 61.4725L198.332 61.3375L197.557 60.7056L197.447 60.8406L198.222 61.4725ZM198.333 61.3375L198.443 61.2025L197.667 60.5706L197.557 60.7056L198.333 61.3375ZM198.442 61.2026L198.552 61.0677L197.778 60.4356L197.668 60.5705L198.442 61.2026ZM198.552 61.0681L198.662 60.9334L197.888 60.3006L197.778 60.4353L198.552 61.0681ZM198.662 60.9339L198.772 60.7996L197.998 60.1658L197.888 60.3001L198.662 60.9339ZM198.771 60.8002L198.881 60.6664L198.109 60.0313L197.999 60.1651L198.771 60.8002ZM198.881 60.6672L198.991 60.5339L198.22 59.8972L198.11 60.0305L198.881 60.6672ZM198.99 60.5349L199.1 60.4024L198.331 59.7636L198.221 59.8962L198.99 60.5349ZM199.099 60.4036L199.209 60.2718L198.442 59.6307L198.332 59.7624L199.099 60.4036ZM199.208 60.2732L199.318 60.1424L198.553 59.4986L198.443 59.6294L199.208 60.2732ZM199.317 60.1439L199.427 60.0142L198.664 59.3673L198.554 59.497L199.317 60.1439ZM199.425 60.0159L199.535 59.8874L198.776 59.237L198.666 59.3656L199.425 60.0159ZM199.534 59.8892L199.644 59.762L198.887 59.1079L198.777 59.2351L199.534 59.8892ZM199.642 59.7641L199.752 59.6382L198.999 58.9799L198.889 59.1058L199.642 59.7641ZM199.75 59.6405L199.86 59.5161L199.111 58.8534L199.001 58.9777L199.75 59.6405ZM199.858 59.5186L199.968 59.3959L199.223 58.7282L199.113 58.8509L199.858 59.5186ZM199.966 59.3986L200.076 59.2776L199.336 58.6046L199.226 58.7256L199.966 59.3986ZM200.073 59.2804L200.183 59.1613L199.449 58.4827L199.339 58.6018L200.073 59.2804ZM200.18 59.1644L200.29 59.0472L199.561 58.3625L199.451 58.4797L200.18 59.1644ZM200.287 59.0505L200.397 58.9354L199.675 58.2442L199.564 58.3593L200.287 59.0505ZM200.394 58.9388L200.504 58.8259L199.788 58.1279L199.678 58.2408L200.394 58.9388ZM200.5 58.8295L200.61 58.7189L199.901 58.0137L199.791 58.1243L200.5 58.8295ZM200.607 58.7227L200.717 58.6144L200.015 57.9016L199.905 58.0098L200.607 58.7227ZM200.713 58.6185L200.823 58.5127L200.13 57.7918L200.02 57.8975L200.713 58.6185ZM200.818 58.5169L200.928 58.4136L200.244 57.6843L200.134 57.7875L200.818 58.5169ZM200.923 58.4181L201.033 58.3175L200.359 57.5793L200.249 57.6799L200.923 58.4181ZM201.028 58.3221L201.138 58.2243L200.474 57.4769L200.364 57.5747L201.028 58.3221ZM201.133 58.2291L201.243 58.1341L200.59 57.3771L200.479 57.4721L201.133 58.2291ZM201.237 58.1391L201.347 58.047L200.705 57.28L200.595 57.3721L201.237 58.1391ZM201.341 58.0522L201.451 57.9631L200.822 57.1858L200.712 57.2749L201.341 58.0522ZM201.444 57.9684L201.554 57.8824L200.939 57.0945L200.829 57.1804L201.444 57.9684ZM201.547 57.8879L201.657 57.8051L201.056 57.0061L200.946 57.089L201.547 57.8879ZM201.649 57.8108L201.76 57.7312L201.173 56.9209L201.063 57.0005L201.649 57.8108ZM201.751 57.7369L201.861 57.6606L201.292 56.8388L201.182 56.9151L201.751 57.7369ZM201.853 57.6665L201.963 57.5936L201.41 56.76L201.3 56.8329L201.853 57.6665ZM201.954 57.5996L202.064 57.5301L201.53 56.6845L201.42 56.754L201.954 57.5996ZM202.054 57.5362L202.164 57.4702L201.65 56.6125L201.54 56.6785L202.054 57.5362ZM202.153 57.4763L202.263 57.4139L201.77 56.544L201.66 56.6064L202.153 57.4763ZM202.252 57.42L202.362 57.3612L201.891 56.4792L201.781 56.5379L202.252 57.42ZM202.351 57.3672L202.461 57.3121L202.013 56.418L201.903 56.4731L202.351 57.3672ZM202.448 57.3181L202.558 57.2667L202.135 56.3606L202.025 56.412L202.448 57.3181ZM202.545 57.2725L202.656 57.2249L202.258 56.3072L202.148 56.3548L202.545 57.2725ZM202.642 57.2306L202.752 57.1867L202.382 56.2577L202.272 56.3015L202.642 57.2306ZM202.738 57.1922L202.848 57.1522L202.506 56.2123L202.396 56.2523L202.738 57.1922ZM202.833 57.1574L202.943 57.1213L202.631 56.1711L202.521 56.2071L202.833 57.1574ZM202.927 57.1261L203.037 57.0939L202.757 56.1341L202.647 56.1662L202.927 57.1261ZM203.021 57.0983L203.131 57.0701L202.883 56.1015L202.773 56.1297L203.021 57.0983ZM203.115 57.0741L203.225 57.0498L203.01 56.0732L202.9 56.0975L203.115 57.0741ZM203.208 57.0533L203.318 57.033L203.137 56.0495L203.027 56.0698L203.208 57.0533ZM203.3 57.0359L203.41 57.0197L203.264 56.0304L203.154 56.0466L203.3 57.0359ZM203.392 57.022L203.503 57.0098L203.392 56.0159L203.282 56.0281L203.392 57.022ZM203.484 57.0115L203.594 57.0033L203.52 56.006L203.41 56.0142L203.484 57.0115ZM203.576 57.0043L203.686 57.0002L203.649 56.0009L203.539 56.005L203.576 57.0043ZM203.668 57.0005L203.778 57.0005L203.777 56.0005L203.667 56.0005L203.668 57.0005ZM203.759 57.0001L203.87 57.0041L203.906 56.0048L203.796 56.0008L203.759 57.0001ZM203.851 57.0031L203.961 57.0111L204.034 56.0138L203.924 56.0058L203.851 57.0031ZM203.943 57.0095L204.053 57.0215L204.162 56.0275L204.052 56.0154L203.943 57.0095ZM204.035 57.0193L204.145 57.0353L204.29 56.0459L204.18 56.0298L204.035 57.0193ZM204.128 57.0325L204.238 57.0526L204.418 56.0688L204.308 56.0487L204.128 57.0325ZM204.221 57.0491L204.331 57.0732L204.545 56.0964L204.435 56.0723L204.221 57.0491ZM204.314 57.0693L204.424 57.0973L204.671 56.1284L204.561 56.1003L204.314 57.0693ZM204.408 57.0929L204.518 57.125L204.798 56.1648L204.688 56.1327L204.408 57.0929ZM204.503 57.1202L204.613 57.1561L204.923 56.2055L204.813 56.1696L204.503 57.1202ZM204.598 57.151L204.708 57.1908L205.048 56.2505L204.938 56.2106L204.598 57.151ZM204.694 57.1854L204.804 57.229L205.172 56.2995L205.062 56.2559L204.694 57.1854ZM204.79 57.2234L204.9 57.2709L205.296 56.3527L205.186 56.3052L204.79 57.2234ZM204.887 57.265L204.997 57.3163L205.419 56.4098L205.309 56.3585L204.887 57.265ZM204.985 57.3103L205.095 57.3653L205.542 56.4707L205.432 56.4157L204.985 57.3103ZM205.083 57.3592L205.193 57.4179L205.663 56.5354L205.553 56.4767L205.083 57.3592ZM205.182 57.4118L205.292 57.4741L205.785 56.6038L205.674 56.5415L205.182 57.4118ZM205.282 57.468L205.392 57.5338L205.905 56.6757L205.795 56.6098L205.282 57.468ZM205.382 57.5278L205.492 57.5971L206.025 56.7511L205.915 56.6817L205.382 57.5278ZM205.483 57.5911L205.593 57.6639L206.144 56.8298L206.034 56.757L205.483 57.5911ZM205.584 57.658L205.694 57.7342L206.263 56.9119L206.153 56.8357L205.584 57.658ZM205.686 57.7284L205.796 57.8079L206.381 56.9971L206.271 56.9177L205.686 57.7284ZM205.788 57.8022L205.898 57.8849L206.499 57.0855L206.389 57.0028L205.788 57.8022ZM205.891 57.8794L206.001 57.9653L206.616 57.1769L206.506 57.091L205.891 57.8794ZM205.994 57.9599L206.104 58.0489L206.733 57.2712L206.623 57.1822L205.994 57.9599ZM206.098 58.0437L206.208 58.1357L206.849 57.3683L206.739 57.2764L206.098 58.0437ZM206.202 58.1307L206.312 58.2256L206.965 57.4682L206.855 57.3733L206.202 58.1307ZM206.307 58.2207L206.417 58.3185L207.081 57.5707L206.971 57.473L206.307 58.2207ZM206.412 58.3139L206.522 58.4143L207.196 57.6758L207.086 57.5753L206.412 58.3139ZM206.517 58.4099L206.627 58.513L207.311 57.7834L207.201 57.6802L206.517 58.4099ZM206.623 58.5088L206.733 58.6145L207.425 57.8933L207.315 57.7876L206.623 58.5088ZM206.728 58.6105L206.839 58.7187L207.539 58.0055L207.429 57.8973L206.728 58.6105ZM206.835 58.7148L206.945 58.8254L207.653 58.1199L207.543 58.0093L206.835 58.7148ZM206.941 58.8218L207.051 58.9346L207.767 58.2363L207.657 58.1235L206.941 58.8218ZM207.048 58.9311L207.158 59.0461L207.88 58.3547L207.77 58.2397L207.048 58.9311ZM207.155 59.0429L207.265 59.16L207.993 58.475L207.883 58.358L207.155 59.0429ZM207.262 59.1569L207.372 59.2759L208.106 58.5971L207.996 58.4781L207.262 59.1569ZM207.37 59.2731L207.48 59.394L208.219 58.7208L208.109 58.5999L207.37 59.2731ZM207.477 59.3913L207.587 59.514L208.331 58.8461L208.221 58.7234L207.477 59.3913ZM207.585 59.5115L207.695 59.6358L208.444 58.9728L208.334 58.8485L207.585 59.5115ZM207.693 59.6335L207.803 59.7593L208.556 59.1009L208.446 58.9751L207.693 59.6335ZM207.801 59.7572L207.911 59.8844L208.668 59.2302L208.558 59.103L207.801 59.7572ZM207.91 59.8825L208.02 60.011L208.779 59.3606L208.669 59.2321L207.91 59.8825ZM208.018 60.0093L208.128 60.139L208.891 59.492L208.781 59.3623L208.018 60.0093ZM208.127 60.1374L208.237 60.2682L209.002 59.6243L208.892 59.4935L208.127 60.1374ZM208.236 60.2668L208.346 60.3985L209.113 59.7573L209.003 59.6256L208.236 60.2668ZM208.345 60.3974L208.455 60.5299L209.224 59.891L209.114 59.7585L208.345 60.3974ZM208.454 60.5289L208.564 60.6621L209.335 60.0253L209.225 59.8921L208.454 60.5289ZM208.564 60.6613L208.674 60.7951L209.446 60.16L209.336 60.0262L208.564 60.6613ZM208.673 60.7945L208.783 60.9288L209.557 60.2949L209.447 60.1606L208.673 60.7945ZM208.783 60.9283L208.893 61.0629L209.667 60.4301L209.557 60.2954L208.783 60.9283ZM208.892 61.0626L209.003 61.1975L209.777 60.5653L209.667 60.4304L208.892 61.0626ZM209.002 61.1973L209.112 61.3323L209.888 60.7004L209.777 60.5654L209.002 61.1973ZM209.112 61.3323L209.223 61.4673L209.998 60.8354L209.888 60.7004L209.112 61.3323ZM209.223 61.4675L209.333 61.6023L210.107 60.97L209.997 60.8352L209.223 61.4675ZM209.333 61.6027L209.443 61.7373L210.217 61.1042L210.107 60.9697L209.333 61.6027ZM209.444 61.7378L209.554 61.872L210.327 61.2379L210.217 61.1037L209.444 61.7378ZM209.554 61.8727L209.664 62.0064L210.436 61.3709L210.326 61.2372L209.554 61.8727ZM209.665 62.0073L209.775 62.1404L210.546 61.5031L210.436 61.37L209.665 62.0073ZM209.776 62.1414L209.886 62.2738L210.655 61.6344L210.545 61.5021L209.776 62.1414ZM209.887 62.275L209.997 62.4065L210.764 61.7647L210.654 61.6332L209.887 62.275ZM209.998 62.4079L210.108 62.5384L210.873 61.8938L210.763 61.7632L209.998 62.4079ZM210.11 62.54L210.22 62.6694L210.981 62.0216L210.871 61.8922L210.11 62.54ZM210.221 62.6712L210.331 62.7994L211.09 62.148L210.98 62.0198L210.221 62.6712ZM210.333 62.8013L210.443 62.9282L211.198 62.2729L211.088 62.1461L210.333 62.8013ZM210.445 62.9303L210.555 63.0557L211.306 62.3963L211.196 62.2708L210.445 62.9303ZM210.557 63.0581L210.667 63.1819L211.414 62.5178L211.304 62.3939L210.557 63.0581ZM210.669 63.1845L210.779 63.3067L211.522 62.6375L211.412 62.5153L210.669 63.1845ZM210.782 63.3094L210.892 63.4298L211.63 62.7553L211.52 62.6348L210.782 63.3094ZM210.894 63.4327L211.004 63.5512L211.737 62.8709L211.627 62.7524L210.894 63.4327ZM211.007 63.5543L211.117 63.6709L211.844 62.9844L211.734 62.8679L211.007 63.5543ZM211.12 63.6742L211.23 63.7887L211.951 63.0956L211.841 62.9812L211.12 63.6742ZM211.234 63.7921L211.344 63.9044L212.058 63.2044L211.948 63.0922L211.234 63.7921ZM211.348 63.9081L211.458 64.0181L212.164 63.3107L212.054 63.2007L211.348 63.9081ZM211.461 64.0219L211.572 64.1295L212.271 63.4144L212.161 63.3069L211.461 64.0219ZM211.576 64.1336L211.686 64.2387L212.376 63.5155L212.266 63.4104L211.576 64.1336ZM211.69 64.2429L211.8 64.3454L212.482 63.6137L212.372 63.5112L211.69 64.2429ZM211.805 64.3499L211.915 64.4497L212.587 63.709L212.477 63.6092L211.805 64.3499ZM211.92 64.4544L212.031 64.5514L212.692 63.8014L212.582 63.7044L211.92 64.4544ZM212.036 64.5563L212.146 64.6505L212.796 63.8907L212.686 63.7965L212.036 64.5563ZM212.152 64.6555L212.262 64.7467L212.9 63.9769L212.79 63.8857L212.152 64.6555ZM212.269 64.752L212.379 64.8402L213.004 64.0599L212.894 63.9717L212.269 64.752ZM212.385 64.8456L212.496 64.9307L213.107 64.1397L212.997 64.0545L212.385 64.8456ZM212.503 64.9362L212.613 65.0182L213.21 64.2161L213.1 64.1341L212.503 64.9362ZM212.621 65.0238L212.731 65.1025L213.312 64.289L213.202 64.2104L212.621 65.0238ZM212.739 65.1083L212.849 65.1837L213.414 64.3586L213.304 64.2832L212.739 65.1083ZM212.858 65.1896L212.968 65.2616L213.515 64.4246L213.405 64.3527L212.858 65.1896ZM212.977 65.2676L213.087 65.3361L213.616 64.4871L213.506 64.4186L212.977 65.2676ZM213.097 65.3421L213.208 65.4071L213.716 64.546L213.606 64.481L213.097 65.3421ZM213.218 65.4132L213.328 65.4746L213.815 64.6013L213.705 64.5399L213.218 65.4132ZM213.339 65.4807L213.449 65.5384L213.914 64.653L213.804 64.5952L213.339 65.4807ZM213.461 65.5445L213.571 65.5985L214.012 64.7011L213.902 64.647L213.461 65.5445ZM213.584 65.6045L213.694 65.6548L214.11 64.7455L214 64.6951L213.584 65.6045ZM213.707 65.6606L213.817 65.7072L214.207 64.7862L214.097 64.7397L213.707 65.6606ZM213.831 65.7128L213.941 65.7555L214.303 64.8234L214.193 64.7806L213.831 65.7128ZM213.955 65.7609L214.065 65.7998L214.399 64.8569L214.289 64.818L213.955 65.7609ZM214.081 65.8048L214.191 65.8398L214.494 64.8868L214.384 64.8518L214.081 65.8048ZM214.206 65.8445L214.316 65.8756L214.588 64.9132L214.478 64.8821L214.206 65.8445ZM214.333 65.8799L214.443 65.907L214.682 64.936L214.572 64.9089L214.333 65.8799ZM214.459 65.9108L214.569 65.9339L214.775 64.9553L214.665 64.9322L214.459 65.9108ZM214.587 65.9372L214.697 65.9564L214.868 64.9711L214.758 64.952L214.587 65.9372ZM214.714 65.9591L214.824 65.9742L214.96 64.9835L214.85 64.9684L214.714 65.9591ZM214.842 65.9763L214.952 65.9874L215.052 64.9924L214.942 64.9814L214.842 65.9763ZM214.97 65.9889L215.081 65.996L215.144 64.998L215.034 64.991L214.97 65.9889ZM215.099 65.9968L215.209 65.9998L215.236 65.0002L215.126 64.9972L215.099 65.9968ZM215.227 65.9999L215.337 65.9989L215.328 64.9989L215.218 65L215.227 65.9999ZM215.356 65.9984L215.466 65.9933L215.419 64.9943L215.309 64.9994L215.356 65.9984ZM215.484 65.9921L215.594 65.9829L215.511 64.9864L215.401 64.9955L215.484 65.9921ZM215.612 65.9811L215.722 65.9679L215.603 64.975L215.493 64.9882L215.612 65.9811ZM215.74 65.9655L215.85 65.9483L215.695 64.9603L215.585 64.9775L215.74 65.9655ZM215.867 65.9452L215.977 65.924L215.788 64.9421L215.678 64.9633L215.867 65.9452ZM215.994 65.9204L216.104 65.8952L215.881 64.9205L215.771 64.9457L215.994 65.9204ZM216.121 65.8911L216.231 65.862L215.975 64.8954L215.865 64.9245L216.121 65.8911ZM216.247 65.8574L216.357 65.8243L216.069 64.8667L215.959 64.8999L216.247 65.8574ZM216.372 65.8194L216.482 65.7824L216.164 64.8346L216.053 64.8716L216.372 65.8194ZM216.497 65.7772L216.607 65.7363L216.259 64.7989L216.149 64.8398L216.497 65.7772ZM216.621 65.7308L216.731 65.686L216.355 64.7597L216.245 64.8044L216.621 65.7308ZM216.745 65.6803L216.855 65.6318L216.451 64.7169L216.341 64.7654L216.745 65.6803ZM216.868 65.6259L216.978 65.5736L216.549 64.6704L216.438 64.7227L216.868 65.6259ZM216.99 65.5676L217.1 65.5116L216.646 64.6204L216.536 64.6764L216.99 65.5676ZM217.112 65.5056L217.222 65.4459L216.745 64.5668L216.635 64.6265L217.112 65.5056ZM217.232 65.4398L217.343 65.3765L216.844 64.5096L216.734 64.5729L217.232 65.4398ZM217.353 65.3704L217.463 65.3036L216.944 64.4489L216.834 64.5157L217.353 65.3704ZM217.473 65.2976L217.583 65.2273L217.044 64.3846L216.934 64.4549L217.473 65.2976ZM217.592 65.2213L217.702 65.1476L217.145 64.3168L217.035 64.3906L217.592 65.2213ZM217.71 65.1417L217.82 65.0646L217.247 64.2456L217.137 64.3227L217.71 65.1417ZM217.828 65.0589L217.938 64.9785L217.349 64.171L217.239 64.2513L217.828 65.0589ZM217.946 64.9729L218.056 64.8893L217.451 64.093L217.341 64.1766L217.946 64.9729ZM218.063 64.8838L218.173 64.7971L217.554 64.0117L217.444 64.0984L218.063 64.8838ZM218.18 64.7917L218.29 64.7019L217.658 63.9272L217.548 64.017L218.18 64.7917ZM218.296 64.6968L218.406 64.604L217.761 63.8395L217.651 63.9323L218.296 64.6968ZM218.412 64.5991L218.522 64.5034L217.866 63.7488L217.756 63.8445L218.412 64.5991ZM218.527 64.4986L218.637 64.4001L217.97 63.655L217.86 63.7535L218.527 64.4986ZM218.642 64.3956L218.752 64.2944L218.075 63.5584L217.965 63.6596L218.642 64.3956ZM218.757 64.29L218.867 64.1861L218.181 63.4589L218.071 63.5627L218.757 64.29ZM218.871 64.182L218.982 64.0756L218.286 63.3566L218.176 63.463L218.871 64.182ZM218.986 64.0716L219.096 63.9628L218.392 63.2518L218.282 63.3606L218.986 64.0716ZM219.099 63.959L219.209 63.8478L218.499 63.1443L218.389 63.2555L219.099 63.959ZM219.213 63.8442L219.323 63.7308L218.605 63.0345L218.495 63.1479L219.213 63.8442ZM219.326 63.7274L219.436 63.6118L218.712 62.9223L218.602 63.0378L219.326 63.7274ZM219.439 63.6086L219.549 63.491L218.819 62.8078L218.709 62.9254L219.439 63.6086ZM219.552 63.488L219.662 63.3685L218.926 62.6913L218.816 62.8108L219.552 63.488ZM219.665 63.3657L219.775 63.2443L219.034 62.5727L218.924 62.694L219.665 63.3657ZM219.777 63.2417L219.887 63.1186L219.142 62.4522L219.032 62.5753L219.777 63.2417ZM219.889 63.1162L219.999 62.9915L219.25 62.3299L219.139 62.4546L219.889 63.1162ZM220.001 62.9893L220.111 62.8631L219.358 62.2059L219.248 62.3321L220.001 62.9893ZM220.113 62.8611L220.223 62.7335L219.466 62.0803L219.356 62.2079L220.113 62.8611ZM220.225 62.7316L220.335 62.6028L219.574 61.9533L219.464 62.0822L220.225 62.7316ZM220.336 62.6011L220.446 62.4711L219.683 61.825L219.573 61.955L220.336 62.6011ZM220.447 62.4696L220.558 62.3386L219.792 61.6955L219.682 61.8265L220.447 62.4696ZM220.559 62.3373L220.669 62.2053L219.901 61.5648L219.791 61.6968L220.559 62.3373ZM220.67 62.2042L220.78 62.0714L220.01 61.4332L219.9 61.566L220.67 62.2042ZM220.78 62.0705L220.891 61.9371L220.119 61.3008L220.009 61.4342L220.78 62.0705ZM220.891 61.9363L221.001 61.8023L220.228 61.1676L220.118 61.3016L220.891 61.9363ZM221.002 61.8017L221.112 61.6673L220.338 61.0338L220.228 61.1682L221.002 61.8017ZM221.112 61.6668L221.222 61.5321L220.448 60.8995L220.338 61.0342L221.112 61.6668ZM221.222 61.5318L221.332 61.3969L220.558 60.7648L220.447 60.8998L221.222 61.5318ZM221.333 61.3968L221.443 61.2618L220.667 60.6299L220.557 60.7649L221.333 61.3968ZM221.443 61.2619L221.553 61.1269L220.778 60.4949L220.668 60.6299L221.443 61.2619ZM221.552 61.1272L221.662 60.9924L220.888 60.3599L220.778 60.4947L221.552 61.1272ZM221.662 60.9928L221.772 60.8583L220.998 60.225L220.888 60.3595L221.662 60.9928ZM221.772 60.8589L221.882 60.7248L221.109 60.0904L220.999 60.2244L221.772 60.8589ZM221.881 60.7256L221.991 60.592L221.219 59.9561L221.109 60.0896L221.881 60.7256ZM221.99 60.593L222.1 60.4601L221.33 59.8223L221.22 59.9551L221.99 60.593ZM222.099 60.4612L222.21 60.3291L221.441 59.689L221.331 59.8212L222.099 60.4612ZM222.208 60.3303L222.319 60.1991L221.552 59.5565L221.442 59.6878L222.208 60.3303ZM222.317 60.2006L222.427 60.0704L221.664 59.4249L221.554 59.5551L222.317 60.2006ZM222.426 60.072L222.536 59.9429L221.775 59.2942L221.665 59.4232L222.426 60.072ZM222.534 59.9447L222.644 59.8169L221.887 59.1645L221.777 59.2923L222.534 59.9447ZM222.643 59.8189L222.753 59.6924L221.998 59.036L221.888 59.1625L222.643 59.8189ZM222.751 59.6946L222.861 59.5696L222.11 58.9088L222 59.0338L222.751 59.6946ZM222.859 59.5719L222.969 59.4485L222.222 58.783L222.112 58.9065L222.859 59.5719ZM222.967 59.4511L223.077 59.3294L222.335 58.6587L222.225 58.7805L222.967 59.4511ZM223.074 59.3321L223.184 59.2122L222.447 58.5361L222.337 58.656L223.074 59.3321ZM223.181 59.2151L223.292 59.0971L222.56 58.4151L222.45 58.5331L223.181 59.2151ZM223.289 59.1002L223.399 58.9843L222.673 58.296L222.563 58.412L223.289 59.1002ZM223.395 58.9876L223.505 58.8737L222.786 58.1788L222.676 58.2926L223.395 58.9876ZM223.502 58.8772L223.612 58.7656L222.9 58.0636L222.79 58.1752L223.502 58.8772ZM223.608 58.7693L223.718 58.66L223.014 57.9506L222.904 58.0599L223.608 58.7693ZM223.714 58.6639L223.824 58.5571L223.128 57.8397L223.018 57.9466L223.714 58.6639ZM223.82 58.5612L223.93 58.4568L223.242 57.7312L223.132 57.8356L223.82 58.5612ZM223.926 58.4611L224.036 58.3594L223.357 57.6252L223.247 57.7269L223.926 58.4611ZM224.031 58.3639L224.141 58.2649L223.472 57.5216L223.362 57.6206L224.031 58.3639ZM224.135 58.2696L224.245 58.1733L223.587 57.4206L223.477 57.5169L224.135 58.2696ZM224.24 58.1782L224.35 58.0849L223.703 57.3223L223.593 57.4157L224.24 58.1782ZM224.344 58.09L224.454 57.9996L223.819 57.2269L223.709 57.3173L224.344 58.09ZM224.447 58.0048L224.557 57.9175L223.936 57.1342L223.826 57.2216L224.447 58.0048ZM224.55 57.9229L224.66 57.8387L224.053 57.0446L223.943 57.1288L224.55 57.9229ZM224.653 57.8443L224.763 57.7632L224.17 56.958L224.06 57.039L224.653 57.8443ZM224.755 57.769L224.865 57.6912L224.288 56.8745L224.178 56.9522L224.755 57.769ZM224.857 57.6971L224.967 57.6227L224.407 56.7942L224.297 56.8686L224.857 57.6971ZM224.958 57.6286L225.068 57.5576L224.526 56.7173L224.416 56.7883L224.958 57.6286ZM225.058 57.5636L225.168 57.4961L224.645 56.6437L224.535 56.7113L225.058 57.5636ZM225.158 57.5022L225.268 57.4382L224.765 56.5737L224.655 56.6377L225.158 57.5022ZM225.257 57.4443L225.367 57.3839L224.886 56.5072L224.776 56.5676L225.257 57.4443ZM225.356 57.39L225.466 57.3332L225.008 56.4444L224.898 56.5012L225.356 57.39ZM225.454 57.3392L225.564 57.2862L225.13 56.3854L225.02 56.4384L225.454 57.3392ZM225.551 57.2921L225.661 57.2428L225.253 56.3302L225.143 56.3795L225.551 57.2921ZM225.648 57.2486L225.758 57.2031L225.376 56.2789L225.266 56.3244L225.648 57.2486ZM225.744 57.2086L225.854 57.1669L225.5 56.2317L225.39 56.2734L225.744 57.2086ZM225.839 57.1722L225.949 57.1344L225.625 56.1887L225.515 56.2264L225.839 57.1722ZM225.934 57.1394L226.044 57.1055L225.75 56.1498L225.64 56.1837L225.934 57.1394ZM226.028 57.1101L226.139 57.0801L225.876 56.1153L225.766 56.1452L226.028 57.1101ZM226.122 57.0843L226.232 57.0583L226.002 56.0851L225.892 56.1111L226.122 57.0843ZM226.215 57.062L226.325 57.04L226.129 56.0594L226.019 56.0814L226.215 57.062ZM226.308 57.0431L226.418 57.0251L226.257 56.0383L226.147 56.0563L226.308 57.0431ZM226.4 57.0277L226.51 57.0137L226.384 56.0217L226.274 56.0357L226.4 57.0277ZM226.492 57.0157L226.602 57.0057L226.512 56.0098L226.402 56.0197L226.492 57.0157ZM226.584 57.007L226.694 57.0011L226.641 56.0026L226.531 56.0085L226.584 57.007ZM226.676 57.0018L226.786 56.9999L226.769 56.0001L226.659 56.0019L226.676 57.0018ZM226.768 56.9999L226.878 57.0021L226.898 56.0023L226.787 56.0001L226.768 56.9999ZM226.859 57.0014L226.969 57.0076L227.026 56.0092L226.916 56.003L226.859 57.0014ZM226.951 57.0063L227.061 57.0165L227.154 56.0209L227.044 56.0106L226.951 57.0063ZM227.043 57.0145L227.153 57.0289L227.282 56.0372L227.172 56.0229L227.043 57.0145ZM227.136 57.0262L227.246 57.0446L227.41 56.0582L227.3 56.0398L227.136 57.0262ZM227.228 57.0414L227.338 57.0637L227.537 56.0837L227.427 56.0614L227.228 57.0414ZM227.321 57.06L227.432 57.0863L227.664 56.1137L227.554 56.0874L227.321 57.06ZM227.415 57.0821L227.525 57.1124L227.791 56.1482L227.68 56.1179L227.415 57.0821ZM227.509 57.1078L227.619 57.142L227.916 56.1871L227.806 56.1529L227.509 57.1078ZM227.604 57.137L227.714 57.1751L228.042 56.2302L227.932 56.1921L227.604 57.137ZM227.7 57.1698L227.81 57.2118L228.166 56.2775L228.056 56.2355L227.7 57.1698ZM227.796 57.2062L227.906 57.252L228.29 56.3288L228.18 56.283L227.796 57.2062ZM227.893 57.2463L228.003 57.2959L228.414 56.3842L228.304 56.3346L227.893 57.2463ZM227.99 57.29L228.1 57.3433L228.536 56.4435L228.426 56.3901L227.99 57.29ZM228.088 57.3373L228.198 57.3943L228.658 56.5065L228.548 56.4495L228.088 57.3373ZM228.187 57.3883L228.297 57.4489L228.78 56.5733L228.67 56.5126L228.187 57.3883ZM228.286 57.4429L228.396 57.5071L228.9 56.6436L228.79 56.5793L228.286 57.4429ZM228.386 57.5011L228.496 57.5689L229.021 56.7175L228.911 56.6497L228.386 57.5011ZM228.487 57.5628L228.597 57.6341L229.14 56.7948L229.03 56.7235L228.487 57.5628ZM228.588 57.6282L228.698 57.7029L229.259 56.8754L229.149 56.8007L228.588 57.6282ZM228.689 57.697L228.799 57.7751L229.378 56.9593L229.268 56.8813L228.689 57.697ZM228.791 57.7693L228.901 57.8506L229.496 57.0463L229.386 56.965L228.791 57.7693ZM228.894 57.8451L229.004 57.9296L229.613 57.1364L229.503 57.0519L228.894 57.8451ZM228.997 57.9241L229.107 58.0117L229.73 57.2294L229.62 57.1418L228.997 57.9241ZM229.101 58.0065L229.211 58.0971L229.847 57.3253L229.737 57.2346L229.101 58.0065ZM229.205 58.0921L229.315 58.1857L229.963 57.424L229.853 57.3304L229.205 58.0921ZM229.309 58.1808L229.419 58.2773L230.078 57.5254L229.968 57.4289L229.309 58.1808ZM229.414 58.2726L229.524 58.3718L230.194 57.6293L230.084 57.5301L229.414 58.2726ZM229.519 58.3673L229.629 58.4693L230.309 57.7358L230.199 57.6338L229.519 58.3673ZM229.624 58.465L229.735 58.5696L230.423 57.8447L230.313 57.7401L229.624 58.465ZM229.73 58.5655L229.84 58.6726L230.538 57.9559L230.428 57.8488L229.73 58.5655ZM229.836 58.6687L229.946 58.7782L230.652 58.0693L230.542 57.9598L229.836 58.6687ZM229.943 58.7744L230.053 58.8863L230.765 58.1849L230.655 58.0731L229.943 58.7744ZM230.049 58.8828L230.159 58.9968L230.879 58.3024L230.769 58.1884L230.049 58.8828ZM230.156 58.9935L230.266 59.1097L230.992 58.4219L230.882 58.3058L230.156 58.9935ZM230.263 59.1065L230.373 59.2247L231.105 58.5432L230.995 58.425L230.263 59.1065ZM230.371 59.2218L230.481 59.3419L231.218 58.6662L231.108 58.5461L230.371 59.2218ZM230.478 59.3391L230.588 59.461L231.33 58.7908L231.22 58.6689L230.478 59.3391ZM230.586 59.4585L230.696 59.582L231.443 58.9169L231.333 58.7934L230.586 59.4585ZM230.694 59.5797L230.804 59.7048L231.555 59.0444L231.445 58.9193L230.694 59.5797ZM230.802 59.7026L230.912 59.8292L231.667 59.1732L231.557 59.0466L230.802 59.7026ZM230.91 59.8273L231.02 59.9552L231.779 59.3031L231.669 59.1752L230.91 59.8273ZM231.019 59.9534L231.129 60.0826L231.89 59.4341L231.78 59.3049L231.019 59.9534ZM231.128 60.081L231.238 60.2113L232.002 59.566L231.892 59.4357L231.128 60.081ZM231.236 60.2098L231.346 60.3411L232.113 59.6988L232.003 59.5675L231.236 60.2098ZM231.345 60.3399L231.455 60.472L232.224 59.8322L232.114 59.7L231.345 60.3399ZM231.455 60.471L231.565 60.6039L232.335 59.9662L232.225 59.8333L231.455 60.471ZM231.564 60.603L231.674 60.7366L232.446 60.1008L232.336 59.9672L231.564 60.603ZM231.673 60.7358L231.783 60.8699L232.556 60.2356L232.446 60.1015L231.673 60.7358ZM231.783 60.8694L231.893 61.0039L232.667 60.3707L232.557 60.2362L231.783 60.8694ZM231.893 61.0035L232.003 61.1383L232.777 60.5059L232.667 60.3711L231.893 61.0035ZM231.965 61.0851L232.075 61.263L232.925 60.737L232.815 60.5591L231.965 61.0851Z" fill="url(#paint1_linear)"/>
<path d="M232.796 27.5H163.5V87.5H232.796M232.796 27.5V87.5M232.796 27.5L245.5 31.2736V82.9717L232.796 87.5" stroke="url(#paint2_linear)"/>
<path d="M47.7254 34.5H103.5V83.5H47.7254M47.7254 34.5V83.5M47.7254 34.5L37.5 37.5818V79.8019L47.7254 83.5" stroke="url(#paint3_linear)"/>
<path d="M70.7254 39.5H126.5V87.5H70.7254M70.7254 39.5V87.5M70.7254 39.5L60.5 42.5189V83.8774L70.7254 87.5" stroke="url(#paint4_linear)"/>
<path d="M24.7254 31.5H80.5V79.5H24.7254M24.7254 31.5V79.5M24.7254 31.5L14.5 34.5189V75.8774L24.7254 79.5" stroke="url(#paint5_linear)"/>
<defs>
<linearGradient id="paint0_linear" x1="247.533" y1="65.7687" x2="245.113" y2="56.4271" gradientUnits="userSpaceOnUse">
<stop stop-color="#AB85FF"/>
<stop offset="0.526042" stop-color="#EBA3E3"/>
<stop offset="1" stop-color="#FFDBE4"/>
</linearGradient>
<linearGradient id="paint1_linear" x1="152.276" y1="66.3988" x2="154.417" y2="45.1805" gradientUnits="userSpaceOnUse">
<stop stop-color="#AB85FF"/>
<stop offset="0.526042" stop-color="#EBA3E3"/>
<stop offset="1" stop-color="#FFDBE4"/>
</linearGradient>
<linearGradient id="paint2_linear" x1="258.839" y1="93.4922" x2="197.581" y2="-14.7286" gradientUnits="userSpaceOnUse">
<stop stop-color="#AB85FF"/>
<stop offset="0.526042" stop-color="#EBA3E3"/>
<stop offset="1" stop-color="#FFDBE4"/>
</linearGradient>
<linearGradient id="paint3_linear" x1="26.764" y1="88.3936" x2="77.1631" y2="0.641612" gradientUnits="userSpaceOnUse">
<stop stop-color="#AB85FF"/>
<stop offset="0.526042" stop-color="#EBA3E3"/>
<stop offset="1" stop-color="#FFDBE4"/>
</linearGradient>
<linearGradient id="paint4_linear" x1="49.764" y1="92.2937" x2="98.6165" y2="5.46248" gradientUnits="userSpaceOnUse">
<stop stop-color="#AB85FF"/>
<stop offset="0.526042" stop-color="#EBA3E3"/>
<stop offset="1" stop-color="#FFDBE4"/>
</linearGradient>
<linearGradient id="paint5_linear" x1="3.76399" y1="84.2937" x2="52.6165" y2="-2.53752" gradientUnits="userSpaceOnUse">
<stop stop-color="#AB85FF"/>
<stop offset="0.526042" stop-color="#EBA3E3"/>
<stop offset="1" stop-color="#FFDBE4"/>
</linearGradient>
</defs>
</svg>
