<svg width="260" height="115" fill="none" xmlns="http://www.w3.org/2000/svg">
  <mask id="a" fill="#fff">
    <path d="M112.5 56.1a40.5 40.5 0 01-79.3-16.4L73 47.9l39.6 8.2z"/>
  </mask>
  <path d="M112.5 56.1a40.5 40.5 0 01-79.3-16.4L73 47.9l39.6 8.2z" stroke="url(#paint0_linear)" stroke-width="4" mask="url(#a)"/>
  <mask id="b" fill="#fff">
    <path d="M235 48.5a40.5 40.5 0 01-81 0h81z"/>
  </mask>
  <path d="M235 48.5a40.5 40.5 0 01-81 0h81z" stroke="url(#paint1_linear)" stroke-width="4" mask="url(#b)"/>
  <circle cx="84.4" cy="37.4" r="14" fill="url(#paint2_linear)"/>
  <circle cx="193" cy="35" r="14" fill="url(#paint3_linear)"/>
  <defs>
    <linearGradient id="paint0_linear" x1="10.5" y1="84.5" x2="126.4" y2="-14.6" gradientUnits="userSpaceOnUse">
      <stop stop-color="#AB85FF"/>
      <stop offset=".5" stop-color="#EBA3E3"/>
      <stop offset="1" stop-color="#FFDBE4"/>
    </linearGradient>
    <linearGradient id="paint1_linear" x1="140.8" y1="97.1" x2="234.2" y2="-23.6" gradientUnits="userSpaceOnUse">
      <stop stop-color="#AB85FF"/>
      <stop offset=".5" stop-color="#EBA3E3"/>
      <stop offset="1" stop-color="#FFDBE4"/>
    </linearGradient>
    <linearGradient id="paint2_linear" x1="65.8" y1="54.2" x2="98.1" y2="12.5" gradientUnits="userSpaceOnUse">
      <stop stop-color="#AB85FF"/>
      <stop offset=".5" stop-color="#EBA3E3"/>
      <stop offset="1" stop-color="#FFDBE4"/>
    </linearGradient>
    <linearGradient id="paint3_linear" x1="174.4" y1="51.8" x2="206.7" y2="10.1" gradientUnits="userSpaceOnUse">
      <stop stop-color="#AB85FF"/>
      <stop offset=".5" stop-color="#EBA3E3"/>
      <stop offset="1" stop-color="#FFDBE4"/>
    </linearGradient>
  </defs>
</svg>
