<svg width="260" height="115" viewBox="0 0 260 115" fill="none" xmlns="http://www.w3.org/2000/svg">
<path d="M12.7852 59.1674L13.1054 59.8728L13.4257 60.577L13.7459 61.2793L14.0662 61.979L14.3865 62.6756L14.7067 63.3683L15.027 64.0567L15.3472 64.74L15.6675 65.4177L15.9878 66.0891L16.308 66.7536L16.6283 67.4107L16.9486 68.0597L17.2688 68.7001L17.5891 69.3313L17.9093 69.9527L18.2296 70.5638L18.5499 71.1639L18.8701 71.7527L19.1904 72.3294L19.5106 72.8937L19.8309 73.445L20.1512 73.9828L20.4714 74.5067L20.7917 75.0161L21.112 75.5106L21.4322 75.9898L21.7525 76.4532L22.0727 76.9004L22.393 77.331L22.7133 77.7446L23.0335 78.1409L23.3538 78.5194L23.674 78.88L23.9943 79.2221L24.3146 79.5455L24.6348 79.85L24.9551 80.1352L25.2754 80.401L25.5956 80.647L25.9159 80.873L26.2361 81.0788L26.5564 81.2643L26.8767 81.4293L27.1969 81.5736L27.5172 81.6971L27.8374 81.7997L28.1577 81.8813L28.478 81.9418L28.7982 81.9811L29.1185 81.9994L29.4387 81.9964L29.759 81.9722L30.0793 81.9269L30.3995 81.8605L30.7198 81.773L31.0401 81.6646L31.3603 81.5352L31.6806 81.3851L32.0008 81.2144L32.3211 81.0232L32.6414 80.8117L32.9616 80.58L33.2819 80.3285L33.6021 80.0573L33.9224 79.7666L34.2427 79.4568L34.5629 79.1281L34.8832 78.7808L35.2035 78.4152L35.5237 78.0316L35.844 77.6304L36.1642 77.212L36.4845 76.7767L36.8048 76.3249L37.125 75.8571L37.4453 75.3736L37.7655 74.8748L38.0858 74.3613L38.4061 73.8335L38.7263 73.2919L39.0466 72.7369L39.3669 72.169L39.6871 71.5889L40.0074 70.9969L40.3276 70.3936L40.6479 69.7796L40.9682 69.1554L41.2884 68.5216L41.6087 67.8787L41.9289 67.2274L42.2492 66.5681L42.5695 65.9016L42.8897 65.2284L43.21 64.549L43.5303 63.8643L43.8505 63.1746L44.1708 62.4807L44.491 61.7832L44.8113 61.0827L45.1316 60.3798L45.4518 59.6752L45.7721 58.9695L46.0923 58.2634L46.4126 57.5574L46.7329 56.8523L47.0531 56.1486L47.3734 55.447L47.6937 54.748L48.0139 54.0525L48.3342 53.3609L48.6544 52.6739L48.9747 51.9921L49.295 51.3161L49.6152 50.6466L49.9355 49.984L50.2557 49.3291L50.576 48.6825L50.8963 48.0446L51.2165 47.4161L51.5368 46.7976L51.8571 46.1895L52.1773 45.5925L52.4976 45.0071L52.8178 44.4337L53.1381 43.873L53.4584 43.3255L53.7786 42.7915L54.0989 42.2717L54.4191 41.7664L54.7394 41.2761L55.0597 40.8013L55.3799 40.3424L55.7002 39.8999L56.0205 39.474L56.3407 39.0652L56.661 38.6738L56.9812 38.3003L57.3015 37.9449L57.6218 37.608L57.942 37.2898L58.2623 36.9907L58.5825 36.7109L58.9028 36.4507L59.2231 36.2103L59.5433 35.9899L59.8636 35.7897L60.1839 35.61L60.5041 35.4508L60.8244 35.3123L61.1446 35.1946L61.4649 35.0979L61.7852 35.0222L62.1054 34.9677L62.4257 34.9342L62.7459 34.9219L63.0662 34.9308L63.3865 34.9609L63.7067 35.0121L64.027 35.0845L64.3472 35.1778L64.6675 35.2922L64.9878 35.4273L65.308 35.5832L65.6283 35.7597L65.9486 35.9567L66.2688 36.1738L66.5891 36.4111L66.9093 36.6681L67.2296 36.9448L67.5499 37.2409L67.8701 37.556L68.1904 37.89L68.5106 38.2425L68.8309 38.6131L69.1512 39.0017L69.4714 39.4077L69.7917 39.8309L70.112 40.2709L70.4322 40.7272L70.7525 41.1995L71.0727 41.6873L71.393 42.1902L71.7133 42.7078L72.0335 43.2395L72.3538 43.7849L72.674 44.3436L72.9943 44.9149L73.3146 45.4985L73.6348 46.0937L73.9551 46.7L74.2754 47.3169L74.5956 47.9439L74.9159 48.5803L75.2361 49.2256L75.5564 49.8792L75.8767 50.5405L76.1969 51.209L76.5172 51.884L76.8374 52.5649L77.1577 53.2511L77.478 53.9421L77.7982 54.637L78.1185 55.3354L78.4387 56.0367L78.759 56.7401L79.0793 57.4451L79.3995 58.1509L79.7198 58.8571L80.0401 59.5629L80.3603 60.2677L80.6806 60.9709L81.0008 61.6718L81.3211 62.3698L81.6414 63.0643L81.9616 63.7547L82.2819 64.4403L82.6021 65.1206L82.9224 65.7948L83.2427 66.4624L83.5629 67.1229L83.8832 67.7755L84.2035 68.4198L84.5237 69.0551L84.844 69.6808L85.1642 70.2965L85.4845 70.9015L85.8048 71.4953L86.125 72.0774L86.4453 72.6473L86.7655 73.2044L87.0858 73.7482L87.4061 74.2782L87.7263 74.794L88.0466 75.2951L88.3669 75.7811L88.6871 76.2515L89.0074 76.7058L89.3276 77.1438L89.6479 77.5649L89.9682 77.9689L90.2884 78.3553L90.6087 78.7237L90.9289 79.074L91.2492 79.4057L91.5695 79.7186L91.8897 80.0123L92.21 80.2866L92.5303 80.5413L92.8505 80.7761L93.1708 80.9908L93.491 81.1853L93.8113 81.3593L94.1316 81.5127L94.4518 81.6454L94.7721 81.7572L95.0923 81.848L95.4126 81.9178L95.7329 81.9664L96.0531 81.994L96.3734 82.0003L96.6936 81.9855L97.0139 81.9495L97.3342 81.8923L97.6544 81.8141L97.9747 81.7148L98.295 81.5946L98.6152 81.4536L98.9355 81.292L99.2557 81.1097L99.576 80.9071L99.8963 80.6843L100.217 80.4415L100.537 80.1789L100.857 79.8967L101.177 79.5953L101.498 79.2749L101.818 78.9357L102.138 78.5781L102.458 78.2024L102.779 77.8089L103.099 77.398L103.419 76.9701L103.739 76.5255L104.06 76.0646L104.38 75.588L104.7 75.0959L105.02 74.5888L105.341 74.0672L105.661 73.5316L105.981 72.9824L106.301 72.4202L106.622 71.8453L106.942 71.2585L107.262 70.6601L107.583 70.0507L107.903 69.431L108.223 68.8013L108.543 68.1623L108.864 67.5146L109.184 66.8588L109.504 66.1954L109.824 65.525L110.145 64.8483L110.465 64.1659L110.785 63.4783L111.105 62.7862L111.426 62.0902L111.746 61.3909L112.066 60.689L112.386 59.9851L112.707 59.2798L113.027 58.5738L113.347 57.8676L113.668 57.1621L113.988 56.4576L114.308 55.755L114.628 55.0549L114.949 54.3577L115.269 53.6643L115.589 52.9752L115.909 52.2911L116.23 51.6124L116.55 50.94L116.87 50.2743L117.19 49.616L117.511 48.9656L117.831 48.3238L118.151 47.6912L118.471 47.0682L118.792 46.4554L119.112 45.8535L119.432 45.2629L119.752 44.6842L120.073 44.1179L120.393 43.5645L120.713 43.0245L121.034 42.4984L121.354 41.9866L121.674 41.4897L121.994 41.0081L122.315 40.5422L122.635 40.0923L122.955 39.6591L123.275 39.2427L123.596 38.8436L123.916 38.4622L124.236 38.0988L124.556 37.7538L124.877 37.4273L125.197 37.1198L125.517 36.8315L125.837 36.5626L126.158 36.3135L126.478 36.0843L126.798 35.8752L127.118 35.6865L127.439 35.5182L127.759 35.3706L128.079 35.2438L128.4 35.1379L128.72 35.0529L129.04 34.989L129.36 34.9463L129.681 34.9247L130.001 34.9243L130.321 34.9451L130.641 34.987L130.962 35.0501L131.282 35.1342L131.602 35.2393L131.922 35.3654L132.243 35.5122L132.563 35.6796L132.883 35.8676L133.203 36.0759L133.524 36.3043L133.844 36.5527L134.164 36.8208L134.485 37.1084L134.805 37.4152L135.125 37.7409L135.445 38.0853L135.766 38.448L136.086 38.8287L136.406 39.2271L136.726 39.6428L137.047 40.0754L137.367 40.5246L137.687 40.99L138.007 41.471L138.328 41.9673L138.648 42.4785L138.968 43.0041L139.288 43.5436L139.609 44.0965L139.929 44.6623L140.249 45.2405L140.569 45.8307L140.89 46.4322L141.21 47.0445L141.53 47.6671L141.851 48.2994L142.171 48.9409L142.491 49.591L142.811 50.249L143.132 50.9144L143.452 51.5866L143.772 52.265L144.092 52.9489L144.413 53.6379L144.733 54.3311L145.053 55.0281L145.373 55.7282L145.694 56.4307L146.014 57.1351L146.334 57.8406L146.654 58.5467L146.975 59.2528L147.295 59.9581L147.615 60.6621L147.935 61.3641L148.256 62.0634L148.576 62.7596L148.896 63.4518L149.217 64.1396L149.537 64.8223L149.857 65.4992L150.177 66.1699L150.498 66.8335L150.818 67.4897L151.138 68.1377L151.458 68.777L151.779 69.407L152.099 70.0272L152.419 70.637L152.739 71.2358L153.06 71.8231L153.38 72.3984L153.7 72.9611L154.02 73.5108L154.341 74.047L154.661 74.5691L154.981 75.0767L155.302 75.5694L155.622 76.0467L155.942 76.5081L156.262 76.9534L156.583 77.3819L156.903 77.7935L157.223 78.1876L157.543 78.564L157.864 78.9223L158.184 79.2622L158.504 79.5834L158.824 79.8856L159.145 80.1684L159.465 80.4318L159.785 80.6754L160.105 80.8989L160.426 81.1023L160.746 81.2854L161.066 81.4478L161.386 81.5896L161.707 81.7106L162.027 81.8107L162.347 81.8897L162.668 81.9477L162.988 81.9845L163.308 82.0001L163.628 81.9946L163.949 81.9679L164.269 81.92L164.589 81.851L164.909 81.761L165.23 81.65L165.55 81.5182L165.87 81.3656L166.19 81.1923L166.511 80.9987L166.831 80.7847L167.151 80.5506L167.471 80.2967L167.792 80.0231L168.112 79.7302L168.432 79.418L168.752 79.087L169.073 78.7375L169.393 78.3697L169.713 77.984L170.034 77.5807L170.354 77.1602L170.674 76.7229L170.994 76.2692L171.315 75.7994L171.635 75.314L171.955 74.8135L172.275 74.2982L172.596 73.7687L172.916 73.2254L173.236 72.6688L173.556 72.0995L173.877 71.5179L174.197 70.9245L174.517 70.3199L174.837 69.7046L175.158 69.0792L175.478 68.4443L175.798 67.8003L176.118 67.148L176.439 66.4879L176.759 65.8205L177.079 65.1465L177.4 64.4665L177.72 63.7811L178.04 63.0909L178.36 62.3965L178.681 61.6986L179.001 60.9978L179.321 60.2946L179.641 59.5899L179.962 58.8841L180.282 58.178L180.602 57.4721L180.922 56.7671L181.243 56.0636L181.563 55.3622L181.883 54.6637L182.203 53.9686L182.524 53.2775L182.844 52.5911L183.164 51.91L183.485 51.2347L183.805 50.566L184.125 49.9044L184.445 49.2505L184.766 48.6048L185.086 47.9681L185.406 47.3407L185.726 46.7234L186.047 46.1167L186.367 45.521L186.687 44.937L187.007 44.3652L187.328 43.8061L187.648 43.2601L187.968 42.7279L188.288 42.2098L188.609 41.7063L188.929 41.2179L189.249 40.745L189.569 40.288L189.89 39.8474L190.21 39.4236L190.53 39.0169L190.851 38.6277L191.171 38.2563L191.491 37.9031L191.811 37.5685L192.132 37.2526L192.452 36.9558L192.772 36.6784L193.092 36.4205L193.413 36.1825L193.733 35.9646L194.053 35.7669L194.373 35.5896L194.694 35.4329L195.014 35.297L195.334 35.1818L195.654 35.0877L195.975 35.0145L196.295 34.9625L196.615 34.9316L196.935 34.9219L197.256 34.9333L197.576 34.966L197.896 35.0198L198.217 35.0947L198.537 35.1906L198.857 35.3074L199.177 35.4451L199.498 35.6035L199.818 35.7825L200.138 35.9819L200.458 36.2015L200.779 36.4411L201.099 36.7006L201.419 36.9796L201.739 37.278L202.06 37.5954L202.38 37.9316L202.7 38.2863L203.02 38.6592L203.341 39.0499L203.661 39.458L203.981 39.8832L204.302 40.3252L204.622 40.7835L204.942 41.2577L205.262 41.7473L205.583 42.2521L205.903 42.7714L206.223 43.3048L206.543 43.8518L206.864 44.412L207.184 44.9849L207.504 45.5699L207.824 46.1664L208.145 46.7741L208.465 47.3923L208.785 48.0204L209.105 48.6579L209.426 49.3042L209.746 49.9588L210.066 50.6211L210.386 51.2903L210.707 51.9661L211.027 52.6477L211.347 53.3345L211.668 54.0259L211.988 54.7214L212.308 55.4201L212.628 56.1217L212.949 56.8253L213.269 57.5304L213.589 58.2364" stroke="url(#paint0_linear)" stroke-width="2"/>
<path d="M46.4121 57.2455L46.7324 57.9509L47.0526 58.6551L47.3729 59.3574L47.6932 60.0571L48.0134 60.7537L48.3337 61.4464L48.6539 62.1348L48.9742 62.8181L49.2945 63.4958L49.6147 64.1672L49.935 64.8318L50.2552 65.4888L50.5755 66.1379L50.8958 66.7783L51.216 67.4094L51.5363 68.0308L51.8566 68.6419L52.1768 69.2421L52.4971 69.8308L52.8173 70.4076L53.1376 70.9718L53.4579 71.5231L53.7781 72.061L54.0984 72.5848L54.4186 73.0942L54.7389 73.5887L55.0592 74.0679L55.3794 74.5313L55.6997 74.9785L56.02 75.4091L56.3402 75.8227L56.6605 76.219L56.9807 76.5976L57.301 76.9581L57.6213 77.3002L57.9415 77.6237L58.2618 77.9281L58.582 78.2134L58.9023 78.4791L59.2226 78.7251L59.5428 78.9511L59.8631 79.1569L60.1834 79.3424L60.5036 79.5074L60.8239 79.6517L61.1441 79.7752L61.4644 79.8778L61.7847 79.9594L62.1049 80.0199L62.4252 80.0593L62.7454 80.0775L63.0657 80.0745L63.386 80.0504L63.7062 80.0051L64.0265 79.9386L64.3467 79.8512L64.667 79.7427L64.9873 79.6134L65.3075 79.4632L65.6278 79.2925L65.9481 79.1013L66.2683 78.8898L66.5886 78.6581L66.9088 78.4066L67.2291 78.1354L67.5494 77.8447L67.8696 77.5349L68.1899 77.2062L68.5101 76.8589L68.8304 76.4933L69.1507 76.1097L69.4709 75.7085L69.7912 75.2901L70.1115 74.8548L70.4317 74.403L70.752 73.9352L71.0722 73.4517L71.3925 72.9529L71.7128 72.4394L72.033 71.9116L72.3533 71.37L72.6735 70.815L72.9938 70.2472L73.3141 69.667L73.6343 69.075L73.9546 68.4717L74.2749 67.8577L74.5951 67.2335L74.9154 66.5997L75.2356 65.9568L75.5559 65.3055L75.8762 64.6462L76.1964 63.9797L76.5167 63.3065L76.8369 62.6272L77.1572 61.9424L77.4775 61.2527L77.7977 60.5588L78.118 59.8613L78.4383 59.1608L78.7585 58.4579L79.0788 57.7533L79.399 57.0477L79.7193 56.3415L80.0396 55.6356L80.3598 54.9304L80.6801 54.2267L81.0003 53.5251L81.3206 52.8262L81.6409 52.1306L81.9611 51.439L82.2814 50.752L82.6017 50.0702L82.9219 49.3942L83.2422 48.7247L83.5624 48.0622L83.8827 47.4073L84.203 46.7606L84.5232 46.1227L84.8435 45.4942L85.1637 44.8757L85.484 44.2676L85.8043 43.6706L86.1245 43.0852L86.4448 42.5119L86.7651 41.9512L87.0853 41.4036L87.4056 40.8696L87.7258 40.3498L88.0461 39.8445L88.3664 39.3543L88.6866 38.8795L89.0069 38.4206L89.3271 37.978L89.6474 37.5521L89.9677 37.1433L90.2879 36.7519L90.6082 36.3784L90.9285 36.023L91.2487 35.6861L91.569 35.3679L91.8892 35.0688L92.2095 34.789L92.5298 34.5288L92.85 34.2884L93.1703 34.068L93.4905 33.8679L93.8108 33.6881L94.1311 33.5289L94.4513 33.3904L94.7716 33.2728L95.0918 33.1761L95.4121 33.1004L95.7324 33.0458L96.0526 33.0123L96.3729 33L96.6932 33.009L97.0134 33.039L97.3337 33.0903L97.6539 33.1626L97.9742 33.256L98.2945 33.3703L98.6147 33.5055L98.935 33.6614L99.2552 33.8379L99.5755 34.0348L99.8958 34.252L100.216 34.4892L100.536 34.7463L100.857 35.023L101.177 35.319L101.497 35.6341L101.817 35.9681L102.138 36.3206L102.458 36.6913L102.778 37.0798L103.098 37.4858L103.419 37.909L103.739 38.349L104.059 38.8053L104.379 39.2776L104.7 39.7654L105.02 40.2683L105.34 40.7859L105.66 41.3176L105.981 41.8631L106.301 42.4217L106.621 42.9931L106.942 43.5766L107.262 44.1718L107.582 44.7781L107.902 45.3951L108.223 46.022L108.543 46.6584L108.863 47.3037L109.183 47.9573L109.504 48.6187L109.824 49.2871L110.144 49.9621L110.464 50.643L110.785 51.3293L111.105 52.0202L111.425 52.7152L111.745 53.4136L112.066 54.1148L112.386 54.8182L112.706 55.5232L113.026 56.2291L113.347 56.9352L113.667 57.641L113.987 58.3458L114.308 59.049L114.628 59.7499L114.948 60.448L115.268 61.1425L115.589 61.8328L115.909 62.5185L116.229 63.1987L116.549 63.8729L116.87 64.5406L117.19 65.201L117.51 65.8536L117.83 66.4979L118.151 67.1332L118.471 67.759L118.791 68.3746L119.111 68.9797L119.432 69.5735L119.752 70.1556L120.072 70.7254L120.393 71.2825L120.713 71.8263L121.033 72.3563L121.353 72.8721L121.674 73.3733L121.994 73.8592L122.314 74.3296L122.634 74.784L122.955 75.2219L123.275 75.6431L123.595 76.047L123.915 76.4334L124.236 76.8019L124.556 77.1521L124.876 77.4838L125.196 77.7967L125.517 78.0904L125.837 78.3647L126.157 78.6194L126.477 78.8542L126.798 79.069L127.118 79.2634L127.438 79.4374L127.759 79.5908L128.079 79.7235L128.399 79.8353L128.719 79.9261L129.04 79.9959L129.36 80.0446L129.68 80.0721L130 80.0784L130.321 80.0636L130.641 80.0276L130.961 79.9704L131.281 79.8922L131.602 79.7929L131.922 79.6728L132.242 79.5318L132.562 79.3701L132.883 79.1878L133.203 78.9852L133.523 78.7624L133.843 78.5196L134.164 78.257L134.484 77.9749L134.804 77.6734L135.125 77.353L135.445 77.0138L135.765 76.6562L136.085 76.2805L136.406 75.887L136.726 75.4761L137.046 75.0482L137.366 74.6036L137.687 74.1428L138.007 73.6661L138.327 73.174L138.647 72.6669L138.968 72.1453L139.288 71.6097L139.608 71.0605L139.928 70.4983L140.249 69.9235L140.569 69.3366L140.889 68.7382L141.209 68.1289L141.53 67.5091L141.85 66.8794L142.17 66.2405L142.491 65.5928L142.811 64.9369L143.131 64.2735L143.451 63.6032L143.772 62.9265L144.092 62.244L144.412 61.5564L144.732 60.8643L145.053 60.1683L145.373 59.469L145.693 58.7671L146.013 58.0632L146.334 57.3579L146.654 56.6519L146.974 55.9458L147.294 55.2402L147.615 54.5358L147.935 53.8332L148.255 53.133L148.576 52.4359L148.896 51.7424L149.216 51.0533L149.536 50.3692L149.857 49.6906L150.177 49.0181L150.497 48.3524L150.817 47.6941L151.138 47.0438L151.458 46.402L151.778 45.7693L152.098 45.1463L152.419 44.5336L152.739 43.9316L153.059 43.341L153.379 42.7623L153.7 42.196L154.02 41.6426L154.34 41.1026L154.66 40.5765L154.981 40.0648L155.301 39.5678L155.621 39.0862L155.942 38.6203L156.262 38.1705L156.582 37.7372L156.902 37.3208L157.223 36.9218L157.543 36.5404L157.863 36.177L158.183 35.8319L158.504 35.5054L158.824 35.1979L159.144 34.9096L159.464 34.6407L159.785 34.3916L160.105 34.1624L160.425 33.9533L160.745 33.7646L161.066 33.5963L161.386 33.4487L161.706 33.3219L162.026 33.216L162.347 33.131L162.667 33.0672L162.987 33.0244L163.308 33.0028L163.628 33.0024L163.948 33.0232L164.268 33.0651L164.589 33.1282L164.909 33.2123L165.229 33.3175L165.549 33.4435L165.87 33.5903L166.19 33.7578L166.51 33.9457L166.83 34.154L167.151 34.3825L167.471 34.6308L167.791 34.8989L168.111 35.1865L168.432 35.4933L168.752 35.819L169.072 36.1634L169.392 36.5261L169.713 36.9068L170.033 37.3052L170.353 37.7209L170.674 38.1536L170.994 38.6028L171.314 39.0681L171.634 39.5491L171.955 40.0455L172.275 40.5566L172.595 41.0822L172.915 41.6217L173.236 42.1746L173.556 42.7404L173.876 43.3187L174.196 43.9088L174.517 44.5103L174.837 45.1226L175.157 45.7452L175.477 46.3776L175.798 47.019L176.118 47.6691L176.438 48.3271L176.759 48.9925L177.079 49.6647L177.399 50.3431L177.719 51.0271L178.04 51.716L178.36 52.4092L178.68 53.1062L179 53.8063L179.321 54.5088L179.641 55.2132L179.961 55.9187L180.281 56.6249L180.602 57.3309L180.922 58.0362L181.242 58.7402L181.562 59.4422L181.883 60.1416L182.203 60.8377L182.523 61.53L182.843 62.2178L183.164 62.9004L183.484 63.5774L183.804 64.248L184.125 64.9117L184.445 65.5678L184.765 66.2158L185.085 66.8551L185.406 67.4852L185.726 68.1053L186.046 68.7151L186.366 69.3139L186.687 69.9012L187.007 70.4765L187.327 71.0392L187.647 71.5889L187.968 72.1251L188.288 72.6472L188.608 73.1548L188.928 73.6475L189.249 74.1248L189.569 74.5863L189.889 75.0315L190.21 75.4601L190.53 75.8716L190.85 76.2658L191.17 76.6421L191.491 77.0005L191.811 77.3403L192.131 77.6615L192.451 77.9637L192.772 78.2466L193.092 78.5099L193.412 78.7535L193.732 78.9771L194.053 79.1805L194.373 79.3635L194.693 79.526L195.013 79.6678L195.334 79.7887L195.654 79.8888L195.974 79.9678L196.294 80.0258L196.615 80.0626L196.935 80.0783L197.255 80.0727L197.576 80.046L197.896 79.9982L198.216 79.9292L198.536 79.8392L198.857 79.7282L199.177 79.5963L199.497 79.4437L199.817 79.2705L200.138 79.0768L200.458 78.8628L200.778 78.6288L201.098 78.3748L201.419 78.1013L201.739 77.8083L202.059 77.4962L202.379 77.1652L202.7 76.8156L203.02 76.4478L203.34 76.0621L203.66 75.6588L203.981 75.2384L204.301 74.801L204.621 74.3473L204.942 73.8775L205.262 73.3921L205.582 72.8916L205.902 72.3763L206.223 71.8468L206.543 71.3035L206.863 70.747L207.183 70.1776L207.504 69.596L207.824 69.0026L208.144 68.398L208.464 67.7827L208.785 67.1573L209.105 66.5224L209.425 65.8785L209.745 65.2261L210.066 64.566L210.386 63.8986L210.706 63.2246L211.026 62.5446L211.347 61.8592L211.667 61.169L211.987 60.4746L212.308 59.7767L212.628 59.0759L212.948 58.3728L213.268 57.668L213.589 56.9622L213.909 56.2561L214.229 55.5502L214.549 54.8452L214.87 54.1417L215.19 53.4404L215.51 52.7418L215.83 52.0467L216.151 51.3556L216.471 50.6692L216.791 49.9881L217.111 49.3129L217.432 48.6441L217.752 47.9825L218.072 47.3286L218.393 46.683L218.713 46.0462L219.033 45.4189L219.353 44.8016L219.674 44.1948L219.994 43.5992L220.314 43.0152L220.634 42.4433L220.955 41.8842L221.275 41.3383L221.595 40.806L221.915 40.2879L222.236 39.7844L222.556 39.296L222.876 38.8231L223.196 38.3662L223.517 37.9256L223.837 37.5017L224.157 37.095L224.477 36.7058L224.798 36.3344L225.118 35.9813L225.438 35.6466L225.759 35.3307L226.079 35.0339L226.399 34.7565L226.719 34.4987L227.04 34.2607L227.36 34.0427L227.68 33.845L228 33.6677L228.321 33.5111L228.641 33.3751L228.961 33.26L229.281 33.1658L229.602 33.0926L229.922 33.0406L230.242 33.0097L230.562 33L230.883 33.0115L231.203 33.0441L231.523 33.0979L231.843 33.1728L232.164 33.2687L232.484 33.3855L232.804 33.5232L233.125 33.6816L233.445 33.8606L233.765 34.06L234.085 34.2796L234.406 34.5192L234.726 34.7787L235.046 35.0577L235.366 35.3561L235.687 35.6736L236.007 36.0098L236.327 36.3645L236.647 36.7373L236.968 37.128L237.288 37.5361L237.608 37.9614L237.928 38.4033L238.249 38.8616L238.569 39.3358L238.889 39.8255L239.21 40.3302L239.53 40.8495L239.85 41.3829L240.17 41.93L240.491 42.4902L240.811 43.063L241.131 43.648L241.451 44.2446L241.772 44.8522L242.092 45.4704L242.412 46.0985L242.732 46.736L243.053 47.3824L243.373 48.0369L243.693 48.6992L244.013 49.3685L244.334 50.0442L244.654 50.7258L244.974 51.4126L245.294 52.1041L245.615 52.7995L245.935 53.4983L246.255 54.1998L246.576 54.9034L246.896 55.6085L247.216 56.3145" stroke="url(#paint1_linear)" stroke-width="2"/>
<defs>
<linearGradient id="paint0_linear" x1="-19.879" y1="86.702" x2="-0.19118" y2="-21.8489" gradientUnits="userSpaceOnUse">
<stop stop-color="#AB85FF"/>
<stop offset="0.526042" stop-color="#EBA3E3"/>
<stop offset="1" stop-color="#FFDBE4"/>
</linearGradient>
<linearGradient id="paint1_linear" x1="13.748" y1="84.7801" x2="33.4358" y2="-23.7707" gradientUnits="userSpaceOnUse">
<stop stop-color="#AB85FF"/>
<stop offset="0.526042" stop-color="#EBA3E3"/>
<stop offset="1" stop-color="#FFDBE4"/>
</linearGradient>
</defs>
</svg>
