<svg width="171" height="76" viewBox="0 0 171 76" fill="none" xmlns="http://www.w3.org/2000/svg">
<rect x="0.0117188" y="17.373" width="85.3129" height="14.2189" fill="url(#paint0_linear)"/>
<rect x="22.6328" y="41.1201" width="62.6926" height="7.27558" fill="url(#paint1_linear)"/>
<path d="M85.3242 61.8511V1.21484L114.295 1.21484V61.8511H85.3242Z" stroke="url(#paint2_linear)" stroke-width="1.46032"/>
<path d="M133.832 42.3131V25.4697L170.214 25.4697V42.3131H133.832Z" stroke="url(#paint3_linear)" stroke-width="1.46032"/>
<path d="M133.497 30.1855L124.401 30.1855V68.9254H102.168V62.188" stroke="url(#paint4_linear)" stroke-width="1.46032"/>
<path d="M95.0938 62.188V74.3152H129.117V37.2598H133.497" stroke="url(#paint5_linear)" stroke-width="1.46032"/>
<defs>
<linearGradient id="paint0_linear" x1="-13.8659" y1="33.012" x2="-9.57107" y2="-0.297959" gradientUnits="userSpaceOnUse">
<stop stop-color="#AB85FF"/>
<stop offset="0.526042" stop-color="#EBA3E3"/>
<stop offset="1" stop-color="#FFDBE4"/>
</linearGradient>
<linearGradient id="paint1_linear" x1="12.4348" y1="49.1223" x2="13.978" y2="31.9334" gradientUnits="userSpaceOnUse">
<stop stop-color="#AB85FF"/>
<stop offset="0.526042" stop-color="#EBA3E3"/>
<stop offset="1" stop-color="#FFDBE4"/>
</linearGradient>
<linearGradient id="paint2_linear" x1="117.188" y1="-8.64866" x2="56.4845" y2="13.7878" gradientUnits="userSpaceOnUse">
<stop stop-color="#AB85FF"/>
<stop offset="0.526042" stop-color="#EBA3E3"/>
<stop offset="1" stop-color="#FFDBE4"/>
</linearGradient>
<linearGradient id="paint3_linear" x1="173.847" y1="22.7299" x2="150.998" y2="60.9098" gradientUnits="userSpaceOnUse">
<stop stop-color="#AB85FF"/>
<stop offset="0.526042" stop-color="#EBA3E3"/>
<stop offset="1" stop-color="#FFDBE4"/>
</linearGradient>
<linearGradient id="paint4_linear" x1="136.625" y1="23.8839" x2="83.0008" y2="57.4316" gradientUnits="userSpaceOnUse">
<stop stop-color="#AB85FF"/>
<stop offset="0.526042" stop-color="#EBA3E3"/>
<stop offset="1" stop-color="#FFDBE4"/>
</linearGradient>
<linearGradient id="paint5_linear" x1="137.332" y1="31.2321" x2="81.6574" y2="75.8678" gradientUnits="userSpaceOnUse">
<stop stop-color="#AB85FF"/>
<stop offset="0.526042" stop-color="#EBA3E3"/>
<stop offset="1" stop-color="#FFDBE4"/>
</linearGradient>
</defs>
</svg>
