<svg width="251" height="92" viewBox="0 0 251 92" fill="none" xmlns="http://www.w3.org/2000/svg">
<path d="M172.619 49.7169L192.906 30.296M192.906 30.296L184.999 33.287M192.906 30.296L189.88 37.3846" stroke="url(#paint0_linear)"/>
<circle r="13.5" transform="matrix(1 0 0 -1 14 26.7168)" stroke="url(#paint1_linear)"/>
<path d="M152.149 51.0653L131.111 35.1024" stroke="url(#paint2_linear)"/>
<circle r="13.5" transform="matrix(1 0 0 -1 61 63.7168)" stroke="url(#paint3_linear)"/>
<circle r="13.5" transform="matrix(1 0 0 -1 118.949 29.834)" stroke="url(#paint4_linear)"/>
<circle r="19.5" transform="matrix(-1 0 0 1 61.5 63.834)" stroke="url(#paint5_linear)"/>
<path d="M46.5 76.834L23 90.334L20.5 86.334L44 72.834" stroke="url(#paint6_linear)"/>
<circle r="13.5" transform="matrix(1 0 0 -1 163 58.834)" stroke="url(#paint7_linear)"/>
<path d="M23.5 36.7162L46.5 51.3525" stroke="url(#paint8_linear)"/>
<path d="M75 50.2588L106.054 33.093" stroke="url(#paint9_linear)"/>
<path d="M53.041 63.3511H60.9994M68.9578 63.3511H60.9994M60.9994 63.3511V71.0684V56.5986" stroke="url(#paint10_linear)"/>
<g clip-path="url(#clip0)">
<path d="M249.738 15.2868C250.174 15.2868 250.527 14.9334 250.527 14.4974V11.4252C250.527 9.41162 248.889 7.77344 246.876 7.77344H204.179C202.166 7.77334 200.527 9.41143 200.527 11.4251V39.0936C200.527 41.1073 202.166 42.7455 204.179 42.7455H246.876C248.889 42.7455 250.527 41.1073 250.527 39.0936V17.0586C250.527 16.6225 250.174 16.2692 249.738 16.2692C249.302 16.2692 248.948 16.6225 248.948 17.0586V39.0934C248.948 40.2365 248.019 41.1664 246.876 41.1664H204.179C203.036 41.1664 202.106 40.2365 202.106 39.0934V11.4251C202.106 10.2821 203.036 9.35225 204.179 9.35235H246.876C248.018 9.35235 248.948 10.2822 248.948 11.4252V14.4974C248.948 14.9334 249.302 15.2868 249.738 15.2868Z" fill="url(#paint11_linear)"/>
<path d="M221.627 23.5537C220.541 23.5537 219.992 25.1692 219.992 26.1923C219.992 26.9596 220.372 27.4711 221.012 27.4711H221.025C222.045 27.4711 222.633 25.923 222.633 24.8058C222.633 24.1865 222.372 23.5537 221.627 23.5537Z" fill="url(#paint12_linear)"/>
<path d="M228.338 23.7051C227.632 23.7051 226.979 24.5128 226.743 25.8051L226.508 27.232C226.717 27.4204 226.992 27.5416 227.371 27.5416C228.378 27.5416 229.162 26.0744 229.162 24.7819C229.162 24.2571 228.94 23.7051 228.338 23.7051Z" fill="url(#paint13_linear)"/>
<path d="M245.297 20.7187C245.297 20.7187 245.297 20.7187 245.297 20.7187C245.297 20.7187 245.296 20.7187 245.296 20.7187H245.296H243.308C242.85 20.7187 242.425 20.9161 242.131 21.2447C241.84 20.92 241.418 20.7187 240.954 20.7187H240.781L241.012 19.6358C241.167 18.9089 240.794 18.1725 240.116 17.8672C239.679 17.6704 239.111 17.5664 238.474 17.5664C237.416 17.5664 236.427 17.9031 235.678 18.5147C235.211 17.9768 234.517 17.6469 233.715 17.6469C232.185 17.6469 230.986 18.8549 230.986 20.3969C230.986 20.6591 231.023 20.9132 231.092 21.1547C230.528 20.7672 229.843 20.5506 229.073 20.5506C228.618 20.5506 228.172 20.6291 227.751 20.7792C227.556 20.6929 227.34 20.6449 227.113 20.6449H227.112H225.425C224.969 20.6449 224.554 20.8403 224.264 21.1554C223.594 20.7328 222.78 20.4938 221.876 20.4938C220.621 20.4938 219.458 20.9099 218.526 21.679C218.508 21.6586 218.491 21.6376 218.473 21.6178C217.9 20.9941 217.079 20.6481 216.158 20.642L216.33 19.7275C216.353 19.62 216.365 19.5084 216.365 19.3939C216.365 18.5219 215.658 17.8149 214.786 17.8149H214.786H212.903C212.142 17.8149 211.488 18.3583 211.35 19.107L211.07 20.6237C210.673 20.539 210.24 20.4936 209.794 20.4936C207.25 20.4936 205.404 22.1144 205.404 24.3476C205.404 24.7126 205.471 25.2317 205.757 25.7822C205.48 25.9739 205.269 26.2514 205.16 26.5765L204.702 27.9361C204.484 28.5833 204.707 29.2975 205.254 29.7059C205.922 30.2032 206.993 30.5113 208.12 30.5302C208.125 30.5303 208.129 30.5303 208.134 30.5304L208.188 30.5306C208.907 30.5306 209.573 30.4147 210.162 30.1919C210.438 30.4089 210.781 30.5306 211.138 30.5306H213.021C213.403 30.5306 213.758 30.3937 214.034 30.1625C214.316 30.3985 214.674 30.5306 215.047 30.5306H216.93C217.486 30.5306 217.983 30.2405 218.265 29.7932C218.972 30.2718 219.84 30.5306 220.778 30.5306H220.791C221.373 30.5306 221.927 30.4417 222.443 30.2761L222.265 31.2384C222.179 31.6996 222.303 32.1747 222.603 32.5355C222.903 32.8962 223.348 33.1047 223.817 33.1047H225.7C226.463 33.1047 227.116 32.5599 227.253 31.81L227.477 30.5871C228.369 30.5783 229.211 30.337 229.954 29.8914C230.254 30.2323 230.685 30.4297 231.14 30.4297H233.023C233.247 30.4297 233.461 30.3814 233.656 30.2957C233.854 30.3824 234.069 30.4302 234.29 30.4302H236.173C236.287 30.4302 236.399 30.4165 236.507 30.3932C236.514 30.4754 236.526 30.5579 236.547 30.6405L236.966 32.2961C237.145 33.0062 237.784 33.4883 238.495 33.4883C238.578 33.4883 238.663 33.4817 238.747 33.4681C239.475 33.3511 240.672 32.8765 241.65 31.9245C242.605 30.9999 243.463 29.7006 244.428 27.7124L246.699 23.0221C246.812 22.805 246.875 22.5588 246.875 22.2977C246.875 21.426 246.169 20.7192 245.297 20.7187ZM209.425 28.7767C209.422 28.7777 209.419 28.7784 209.416 28.7792C209.369 28.7938 209.321 28.8074 209.273 28.82C209.264 28.8223 209.256 28.8243 209.247 28.8266C209.203 28.8378 209.158 28.8484 209.112 28.8581C209.103 28.8602 209.094 28.8621 209.084 28.8641C209.034 28.8745 208.983 28.884 208.931 28.8926C208.928 28.8932 208.924 28.8939 208.921 28.8944C208.865 28.9035 208.808 28.9116 208.75 28.9185C208.742 28.9195 208.734 28.9202 208.726 28.9209C208.679 28.9264 208.632 28.931 208.583 28.935C208.564 28.9366 208.545 28.9377 208.526 28.9391C208.488 28.9417 208.45 28.944 208.412 28.9457C208.39 28.9467 208.368 28.9476 208.346 28.9484C208.308 28.9495 208.27 28.9501 208.232 28.9506C208.217 28.9507 208.203 28.9515 208.188 28.9515C208.174 28.9515 208.16 28.9514 208.147 28.9513C207.349 28.9379 206.578 28.7225 206.198 28.4399L206.656 27.0803C207.022 27.2687 207.715 27.538 208.33 27.538C208.853 27.538 209.127 27.2688 209.127 26.9457C209.127 26.6228 208.918 26.3939 208.33 26.0976C207.597 25.7207 206.983 25.1689 206.983 24.3477C206.983 22.9745 208.146 22.0726 209.794 22.0726C209.888 22.0726 209.979 22.0751 210.067 22.08C210.068 22.08 210.068 22.08 210.069 22.0801C210.334 22.0946 210.574 22.1293 210.783 22.1764C210.783 22.1764 210.783 22.1765 210.783 22.1765C211.059 22.2387 211.279 22.3223 211.428 22.4091L210.984 23.7821C210.866 23.7277 210.707 23.6655 210.518 23.613C210.464 23.5981 210.408 23.5843 210.349 23.5713C210.343 23.5699 210.337 23.5686 210.33 23.5671C210.279 23.5561 210.225 23.5466 210.17 23.5378C210.156 23.5356 210.144 23.5332 210.13 23.5312C210.079 23.5238 210.026 23.5183 209.972 23.5133C209.954 23.5117 209.938 23.5094 209.92 23.508C209.85 23.5028 209.777 23.4996 209.702 23.4996C209.205 23.4996 208.879 23.7151 208.879 24.0784C208.879 24.3474 209.14 24.5762 209.65 24.8186C209.698 24.8433 209.746 24.869 209.795 24.8954C209.8 24.8984 209.806 24.9017 209.811 24.9047C209.855 24.9292 209.9 24.9547 209.943 24.9809C209.945 24.982 209.947 24.9831 209.949 24.984C210.548 25.3421 211.089 25.8498 211.089 26.6358C211.089 27.7302 210.433 28.4625 209.425 28.7767ZM217.623 25.1821L216.93 28.9514H215.047L215.714 25.3438C215.766 25.0879 215.793 24.8052 215.793 24.536C215.793 24.0917 215.623 23.7821 215.152 23.7821C214.485 23.7821 213.818 24.6168 213.583 25.9361L213.021 28.9513H211.893H211.138L212.551 21.2987L212.903 19.3936H214.786L214.067 23.2166H214.093C214.629 22.6109 215.296 22.2204 216.133 22.2204C216.202 22.2204 216.268 22.2243 216.334 22.2305C216.353 22.2322 216.371 22.2355 216.39 22.2377C216.436 22.2435 216.482 22.2503 216.526 22.2593C216.545 22.2631 216.564 22.2676 216.583 22.2722C216.627 22.2827 216.67 22.2947 216.712 22.3085C216.727 22.3135 216.742 22.3183 216.757 22.3235C216.806 22.3413 216.854 22.3612 216.9 22.3834C216.905 22.3862 216.912 22.3888 216.917 22.3916C217.439 22.6527 217.741 23.2057 217.741 23.9973C217.741 24.307 217.689 24.8185 217.623 25.1821ZM233.715 19.2257C233.764 19.2257 233.81 19.2292 233.856 19.2343C233.867 19.2356 233.879 19.2371 233.89 19.2387C233.932 19.2448 233.973 19.2523 234.013 19.2627C234.016 19.2635 234.019 19.2639 234.021 19.2645C234.065 19.2761 234.106 19.2907 234.146 19.3073C234.154 19.3103 234.161 19.3137 234.168 19.3168C234.206 19.3335 234.243 19.3523 234.278 19.3734C234.279 19.3742 234.28 19.3747 234.281 19.3754C234.319 19.3987 234.355 19.425 234.389 19.4534C234.391 19.4555 234.394 19.4576 234.396 19.4597C234.498 19.5478 234.58 19.6588 234.636 19.7899L234.636 19.79C234.691 19.92 234.722 20.069 234.722 20.2352C234.723 20.9756 234.173 21.4064 233.533 21.4064H233.519C233.463 21.4064 233.409 21.4011 233.355 21.3928C233.355 21.3928 233.355 21.3927 233.355 21.3927C233.327 21.3883 233.3 21.3827 233.273 21.3763C233.271 21.3759 233.269 21.3753 233.268 21.3749C233.241 21.3683 233.216 21.3609 233.191 21.3522C233.189 21.3516 233.187 21.3508 233.185 21.35C233.16 21.3411 233.135 21.3316 233.111 21.3208C233.11 21.3203 233.109 21.3196 233.108 21.3192C232.986 21.2639 232.881 21.1833 232.795 21.0812C232.792 21.0772 232.788 21.0733 232.785 21.0692C232.773 21.0543 232.762 21.0385 232.751 21.0228C232.744 21.0142 232.738 21.0057 232.732 20.9968C232.723 20.9823 232.714 20.9674 232.705 20.9524C232.699 20.9411 232.692 20.9296 232.686 20.918C232.679 20.9037 232.672 20.8893 232.665 20.8744C232.659 20.8608 232.653 20.8471 232.647 20.8329C232.641 20.8187 232.636 20.8045 232.63 20.7898C232.625 20.7742 232.62 20.7581 232.615 20.7419C232.611 20.7278 232.606 20.7138 232.603 20.6994C232.598 20.6815 232.594 20.6628 232.59 20.6442C232.588 20.6308 232.585 20.6174 232.582 20.6035C232.579 20.582 232.576 20.5599 232.574 20.5376C232.572 20.5259 232.571 20.5144 232.57 20.5024C232.567 20.4679 232.565 20.4327 232.565 20.3968C232.565 19.6969 233.101 19.2257 233.715 19.2257ZM222.794 28.3793V28.3794C222.793 28.3799 222.793 28.3805 222.792 28.381C222.728 28.4219 222.662 28.4604 222.595 28.4972C222.58 28.5055 222.565 28.5135 222.55 28.5216C222.49 28.5534 222.43 28.5835 222.368 28.6119C222.358 28.6169 222.347 28.6223 222.336 28.627C222.264 28.6595 222.19 28.6898 222.115 28.7177C222.104 28.7218 222.093 28.7255 222.081 28.7296C222.018 28.7524 221.954 28.7732 221.89 28.7926C221.87 28.7985 221.851 28.8042 221.831 28.8098C221.763 28.8287 221.695 28.8461 221.626 28.8613C221.617 28.8634 221.607 28.8659 221.597 28.868C221.519 28.8845 221.44 28.8983 221.36 28.9099C221.34 28.9128 221.319 28.9152 221.299 28.9177C221.237 28.9258 221.174 28.9324 221.111 28.9375C221.087 28.9394 221.064 28.9413 221.041 28.9429C220.958 28.948 220.875 28.9514 220.791 28.9514H220.778C220.725 28.9514 220.672 28.95 220.62 28.9478C220.603 28.947 220.587 28.9455 220.57 28.9447C220.535 28.9425 220.5 28.9406 220.465 28.9375C220.446 28.9358 220.428 28.9334 220.409 28.9314C220.377 28.9279 220.345 28.9245 220.314 28.9202C220.295 28.9177 220.276 28.9145 220.257 28.9116C220.226 28.9068 220.196 28.9019 220.166 28.8963C220.148 28.8929 220.13 28.8891 220.111 28.8853C220.081 28.8789 220.051 28.8727 220.022 28.8656C220.004 28.8614 219.987 28.857 219.97 28.8525C219.94 28.8448 219.91 28.8367 219.881 28.8281C219.865 28.8235 219.849 28.8186 219.833 28.8137C219.802 28.8041 219.772 28.7941 219.743 28.7838C219.728 28.7788 219.714 28.7739 219.7 28.7687C219.669 28.7571 219.638 28.7449 219.607 28.7323C219.596 28.7274 219.584 28.7227 219.572 28.7177C219.539 28.7034 219.506 28.6884 219.474 28.6729C219.466 28.6688 219.457 28.665 219.448 28.6608C219.412 28.6427 219.376 28.6237 219.34 28.6039C219.336 28.6019 219.333 28.6001 219.329 28.5981C219.087 28.462 218.874 28.2891 218.696 28.0841C218.695 28.0839 218.695 28.0837 218.695 28.0835C218.288 27.6159 218.058 26.9811 218.058 26.2322C218.058 25.0258 218.492 23.9294 219.239 23.1654L219.239 23.1653C219.261 23.1424 219.285 23.1205 219.308 23.0982C219.328 23.078 219.349 23.0574 219.37 23.0377C219.393 23.0161 219.417 22.9956 219.441 22.9745C219.463 22.9552 219.485 22.9356 219.507 22.9167C219.531 22.8967 219.556 22.8776 219.58 22.858C219.604 22.8395 219.627 22.8207 219.651 22.8027C219.675 22.7842 219.7 22.7664 219.725 22.7485C219.75 22.7309 219.775 22.713 219.8 22.6959C219.825 22.6787 219.851 22.6624 219.876 22.6458C219.902 22.6293 219.928 22.6128 219.954 22.5968C219.98 22.581 220.007 22.5658 220.033 22.5507C220.06 22.5354 220.087 22.52 220.114 22.5053C220.141 22.4908 220.168 22.4771 220.195 22.4635C220.223 22.4491 220.252 22.4352 220.28 22.4218C220.308 22.409 220.335 22.3965 220.362 22.3844C220.392 22.3713 220.422 22.3588 220.452 22.3466C220.479 22.3354 220.507 22.3241 220.535 22.3136C220.566 22.302 220.597 22.2908 220.628 22.28C220.656 22.2702 220.684 22.2604 220.713 22.2515C220.745 22.241 220.778 22.2315 220.81 22.222C220.839 22.2139 220.867 22.2056 220.895 22.198C220.929 22.189 220.963 22.181 220.998 22.1731C221.026 22.1664 221.054 22.1596 221.083 22.1537C221.119 22.1462 221.155 22.1399 221.191 22.1334C221.219 22.1284 221.246 22.1231 221.275 22.1188C221.313 22.1126 221.352 22.108 221.392 22.1032C221.418 22.1 221.444 22.0962 221.471 22.0934C221.515 22.0889 221.559 22.0859 221.604 22.0828C221.627 22.0813 221.649 22.079 221.672 22.0778C221.739 22.0743 221.808 22.0725 221.877 22.0725C221.929 22.0725 221.98 22.0737 222.03 22.0758C222.048 22.0766 222.065 22.078 222.082 22.0789C222.115 22.0809 222.147 22.0827 222.18 22.0856C222.201 22.0874 222.221 22.0899 222.242 22.0921C222.27 22.095 222.297 22.098 222.325 22.1016C222.347 22.1045 222.369 22.1082 222.391 22.1115C222.416 22.1153 222.44 22.1192 222.465 22.1235C222.488 22.1276 222.511 22.1324 222.534 22.137C222.556 22.1416 222.579 22.1462 222.601 22.1513C222.625 22.1568 222.648 22.1625 222.672 22.1687C222.692 22.1737 222.712 22.179 222.731 22.1845C222.756 22.1912 222.78 22.1984 222.805 22.2059C222.822 22.2113 222.84 22.2169 222.857 22.2227C222.883 22.2311 222.908 22.2397 222.933 22.2486C222.948 22.2541 222.963 22.2598 222.978 22.2656C223.004 22.2759 223.03 22.286 223.056 22.297C223.068 22.302 223.08 22.3072 223.091 22.3122C223.119 22.3246 223.148 22.3371 223.175 22.3505C223.182 22.3536 223.188 22.3571 223.195 22.3603C223.41 22.4665 223.602 22.5993 223.77 22.7547C223.77 22.7549 223.77 22.755 223.77 22.7552C224.307 23.2525 224.596 23.9787 224.596 24.7916C224.596 26.3698 223.898 27.6732 222.794 28.3793ZM229.194 28.5047C229.188 28.5084 229.182 28.5122 229.176 28.5158C229.139 28.5387 229.101 28.5608 229.063 28.5823C229.054 28.5874 229.045 28.5924 229.036 28.5974C228.925 28.6583 228.811 28.7131 228.693 28.7613C228.673 28.7693 228.654 28.7775 228.635 28.7852C228.605 28.7966 228.575 28.8076 228.544 28.8182C228.519 28.8273 228.493 28.836 228.467 28.8444C228.439 28.8535 228.411 28.8625 228.383 28.8709C228.35 28.8807 228.317 28.8896 228.284 28.8983C228.261 28.9041 228.239 28.9107 228.216 28.9161C228.161 28.9293 228.106 28.9409 228.05 28.9513C228.03 28.955 228.01 28.9579 227.989 28.9612C227.949 28.9679 227.908 28.9742 227.867 28.9795C227.845 28.9824 227.823 28.985 227.801 28.9873C227.759 28.9918 227.717 28.9955 227.674 28.9986C227.654 28.9999 227.635 29.0016 227.615 29.0027C227.552 29.006 227.49 29.0082 227.426 29.0082C226.917 29.0082 226.472 28.8737 226.25 28.739H226.211L225.701 31.5256H223.818L225.06 24.8218C225.203 24.041 225.347 22.8969 225.426 22.2237H227.112L226.995 23.2334H227.021C227.544 22.5199 228.302 22.1295 229.074 22.1295C229.117 22.1295 229.16 22.1307 229.202 22.1328C229.213 22.1333 229.223 22.1346 229.234 22.1353C229.265 22.1375 229.296 22.1395 229.327 22.1428C229.339 22.1442 229.351 22.1461 229.363 22.1478C229.391 22.1513 229.42 22.1547 229.447 22.1592C229.458 22.1611 229.47 22.1637 229.481 22.1658C229.509 22.1709 229.536 22.176 229.563 22.1819C229.574 22.1843 229.583 22.1872 229.593 22.1897C229.621 22.1964 229.649 22.2031 229.676 22.2109C229.684 22.2133 229.692 22.2163 229.7 22.2188C229.728 22.2274 229.756 22.236 229.784 22.2458C229.79 22.2483 229.796 22.2509 229.803 22.2533C229.832 22.264 229.86 22.2747 229.888 22.2865C229.893 22.2887 229.897 22.291 229.902 22.2932C229.931 22.3058 229.96 22.319 229.988 22.3329C229.991 22.3348 229.995 22.3369 229.999 22.3388C230.027 22.3535 230.056 22.3686 230.083 22.3848C230.086 22.3864 230.089 22.3881 230.092 22.39C230.12 22.4066 230.148 22.4238 230.175 22.442C230.177 22.4431 230.178 22.4443 230.18 22.4452C230.208 22.4642 230.235 22.4838 230.262 22.5043C230.263 22.5048 230.264 22.5055 230.265 22.506C230.292 22.5271 230.319 22.5488 230.346 22.5714C230.346 22.5715 230.346 22.5717 230.346 22.5718C230.877 23.0276 231.14 23.7889 231.14 24.6335C231.14 26.2348 230.407 27.7482 229.194 28.5047ZM233.023 28.8506H232.713H231.193H231.139L232.294 22.5989C232.294 22.5988 232.294 22.5988 232.294 22.5988L232.356 22.2679H233.065H234.225L233.023 28.8506ZM237.114 23.7493V23.7492L236.173 28.8511H234.628H234.29L235.231 23.7492H234.407L234.669 22.2685H235.506L235.558 21.9319C235.687 21.2219 235.942 20.4909 236.452 19.9493C236.459 19.9412 236.467 19.9332 236.475 19.9251C236.529 19.8697 236.584 19.8157 236.643 19.7647C237.166 19.3203 237.846 19.1454 238.474 19.1454C238.919 19.1454 239.259 19.2128 239.468 19.3069L239.167 20.7188L239.141 20.8416C239.016 20.7924 238.877 20.7579 238.72 20.7429H238.72C238.662 20.7373 238.602 20.7339 238.539 20.7339C237.924 20.7339 237.545 21.2858 237.428 21.9455L237.375 22.2686H237.401H238.631L238.356 23.7493H237.671H237.114ZM238.229 26.4059L238.593 28.1377C238.492 28.2472 238.375 28.3509 238.243 28.4455C238.238 28.4492 238.232 28.4528 238.228 28.4565C238.148 28.5149 238.016 28.5946 237.811 28.6746L238.229 26.4059ZM243.007 27.0224C242.158 28.7724 241.399 29.9705 240.549 30.7916C239.804 31.5186 238.915 31.8416 238.497 31.9089L238.078 30.2533C238.379 30.159 238.797 29.9975 239.163 29.7284C239.595 29.4188 239.961 29.0284 240.209 28.5841C240.262 28.4898 240.262 28.4092 240.235 28.2745L238.98 22.2977H240.209H240.955L241.347 25.165C241.438 25.8515 241.504 26.3227 241.556 26.74H241.582C241.726 26.3362 241.87 25.9053 242.145 25.1919L243.308 22.2977H245.296L243.007 27.0224Z" fill="url(#paint14_linear)"/>
</g>
<defs>
<linearGradient id="paint0_linear" x1="170.62" y1="52.8458" x2="198.809" y2="27.8343" gradientUnits="userSpaceOnUse">
<stop stop-color="#AB85FF"/>
<stop offset="0.526042" stop-color="#EBA3E3"/>
<stop offset="1" stop-color="#FFDBE4"/>
</linearGradient>
<linearGradient id="paint1_linear" x1="-4.55467" y1="30.7963" x2="27.7184" y2="-10.9219" gradientUnits="userSpaceOnUse">
<stop stop-color="#AB85FF"/>
<stop offset="0.526042" stop-color="#EBA3E3"/>
<stop offset="1" stop-color="#FFDBE4"/>
</linearGradient>
<linearGradient id="paint2_linear" x1="155.233" y1="52.3964" x2="124.79" y2="34.7419" gradientUnits="userSpaceOnUse">
<stop stop-color="#AB85FF"/>
<stop offset="0.526042" stop-color="#EBA3E3"/>
<stop offset="1" stop-color="#FFDBE4"/>
</linearGradient>
<linearGradient id="paint3_linear" x1="-4.55467" y1="30.7963" x2="27.7184" y2="-10.9219" gradientUnits="userSpaceOnUse">
<stop stop-color="#AB85FF"/>
<stop offset="0.526042" stop-color="#EBA3E3"/>
<stop offset="1" stop-color="#FFDBE4"/>
</linearGradient>
<linearGradient id="paint4_linear" x1="-4.55467" y1="30.7963" x2="27.7184" y2="-10.9219" gradientUnits="userSpaceOnUse">
<stop stop-color="#AB85FF"/>
<stop offset="0.526042" stop-color="#EBA3E3"/>
<stop offset="1" stop-color="#FFDBE4"/>
</linearGradient>
<linearGradient id="paint5_linear" x1="-6.50667" y1="43.9948" x2="39.5977" y2="-15.6028" gradientUnits="userSpaceOnUse">
<stop stop-color="#AB85FF"/>
<stop offset="0.526042" stop-color="#EBA3E3"/>
<stop offset="1" stop-color="#FFDBE4"/>
</linearGradient>
<linearGradient id="paint6_linear" x1="50.7293" y1="92.0817" x2="33.6568" y2="59.2933" gradientUnits="userSpaceOnUse">
<stop stop-color="#AB85FF"/>
<stop offset="0.526042" stop-color="#EBA3E3"/>
<stop offset="1" stop-color="#FFDBE4"/>
</linearGradient>
<linearGradient id="paint7_linear" x1="-4.55467" y1="30.7963" x2="27.7184" y2="-10.9219" gradientUnits="userSpaceOnUse">
<stop stop-color="#AB85FF"/>
<stop offset="0.526042" stop-color="#EBA3E3"/>
<stop offset="1" stop-color="#FFDBE4"/>
</linearGradient>
<linearGradient id="paint8_linear" x1="19.7587" y1="35.2544" x2="33.5713" y2="63.3125" gradientUnits="userSpaceOnUse">
<stop stop-color="#AB85FF"/>
<stop offset="0.526042" stop-color="#EBA3E3"/>
<stop offset="1" stop-color="#FFDBE4"/>
</linearGradient>
<linearGradient id="paint9_linear" x1="69.9485" y1="31.3786" x2="84.7278" y2="65.9407" gradientUnits="userSpaceOnUse">
<stop stop-color="#AB85FF"/>
<stop offset="0.526042" stop-color="#EBA3E3"/>
<stop offset="1" stop-color="#FFDBE4"/>
</linearGradient>
<linearGradient id="paint10_linear" x1="50.4519" y1="55.1535" x2="66.6673" y2="78.2108" gradientUnits="userSpaceOnUse">
<stop stop-color="#AB85FF"/>
<stop offset="0.526042" stop-color="#EBA3E3"/>
<stop offset="1" stop-color="#FFDBE4"/>
</linearGradient>
<linearGradient id="paint11_linear" x1="192.394" y1="46.2381" x2="227.254" y2="-18.1887" gradientUnits="userSpaceOnUse">
<stop stop-color="#AB85FF"/>
<stop offset="0.526042" stop-color="#EBA3E3"/>
<stop offset="1" stop-color="#FFDBE4"/>
</linearGradient>
<linearGradient id="paint12_linear" x1="219.563" y1="27.8623" x2="224.184" y2="23.8348" gradientUnits="userSpaceOnUse">
<stop stop-color="#AB85FF"/>
<stop offset="0.526042" stop-color="#EBA3E3"/>
<stop offset="1" stop-color="#FFDBE4"/>
</linearGradient>
<linearGradient id="paint13_linear" x1="226.076" y1="27.9247" x2="230.616" y2="23.8641" gradientUnits="userSpaceOnUse">
<stop stop-color="#AB85FF"/>
<stop offset="0.526042" stop-color="#EBA3E3"/>
<stop offset="1" stop-color="#FFDBE4"/>
</linearGradient>
<linearGradient id="paint14_linear" x1="197.746" y1="35.0784" x2="207.933" y2="0.128477" gradientUnits="userSpaceOnUse">
<stop stop-color="#AB85FF"/>
<stop offset="0.526042" stop-color="#EBA3E3"/>
<stop offset="1" stop-color="#FFDBE4"/>
</linearGradient>
<clipPath id="clip0">
<rect width="50" height="50" fill="white" transform="translate(200.527 0.259766)"/>
</clipPath>
</defs>
</svg>
