<svg width="227" height="83" viewBox="0 0 227 83" fill="none" xmlns="http://www.w3.org/2000/svg">
<path d="M12.3181 14.0752H75.3852V68.682H12.3181M12.3181 14.0752V68.682M12.3181 14.0752L0.755859 17.5096V64.5607L12.3181 68.682" stroke="url(#paint0_linear)"/>
<path d="M211.227 1.33398H129.317V73.688H211.227M211.227 1.33398V73.688M211.227 1.33398L226.244 5.88455V68.2273L211.227 73.688" stroke="url(#paint1_linear)"/>
<path d="M98.4843 37.7383H150.015V82.3339H98.4843L89.0371 78.9682V40.543L98.4843 37.7383Z" fill="white"/>
<path d="M98.4843 37.7383H150.015V82.3339H98.4843M98.4843 37.7383V82.3339M98.4843 37.7383L89.0371 40.543V78.9682L98.4843 82.3339" stroke="url(#paint2_linear)"/>
<g clip-path="url(#clip0)">
<path d="M50.5278 46.9395L50.5279 46.9364C50.5441 44.7193 49.6789 42.9992 47.9469 41.7722C46.5791 40.8065 44.9061 40.2941 43.1954 39.7782L43.1946 39.778C41.4435 39.2471 40.2235 38.8184 39.449 38.2788C39.0471 37.9989 38.7439 37.676 38.5472 37.2765C38.3519 36.8799 38.2804 36.446 38.2804 35.9737C38.2804 34.7608 39.0874 33.9842 40.0561 33.5375C41.0186 33.0936 42.2331 32.9213 43.3213 32.9213C44.742 32.9213 46.3569 33.3082 47.5299 33.9265L49.1526 31.4134C47.8527 30.6793 46.1741 30.1707 44.5027 30.001L44.0532 29.9554V29.5036V26.8789H41.0676V29.7227V30.1246L40.675 30.211C37.2964 30.9542 35.2929 33.113 35.2929 35.9737C35.2929 38.0209 36.1316 39.6186 37.8001 40.7606L37.8008 40.7611C39.0992 41.6532 40.6961 42.1406 42.33 42.636C44.0458 43.1546 45.3477 43.5965 46.2095 44.207C46.6543 44.5221 46.9994 44.893 47.2273 45.356C47.4541 45.8167 47.5479 46.3344 47.5435 46.9184L47.5436 46.9182L47.0436 46.9154L47.5435 46.9192L50.5278 46.9395ZM50.5278 46.9395C50.5243 49.9292 48.2582 52.1538 44.4824 52.6943L44.0532 52.7557V53.1892V55.879H41.0675V53.119V52.7052L40.661 52.6278C38.6407 52.2434 36.7377 51.3118 35.3524 50.0105L37.5274 47.9532C38.835 49.1065 40.8323 49.8366 42.6766 49.8366C43.7241 49.8366 44.8937 49.6743 45.8216 49.2549C46.7527 48.8341 47.5427 48.0961 47.5435 46.9326M50.5278 46.9395L47.5435 46.931M47.5435 46.931H47.0435L47.5435 46.9338L47.5435 46.9326M47.5435 46.931C47.5435 46.9315 47.5435 46.932 47.5435 46.9326M47.5435 46.931L47.5435 46.9326" fill="url(#paint3_linear)" stroke="url(#paint4_linear)"/>
</g>
<g clip-path="url(#clip1)">
<path d="M185.083 45.245L185.083 45.2481C185.08 47.7114 184.161 49.8094 182.531 51.403C180.895 53.0023 178.52 54.1147 175.583 54.5442L175.156 54.6067V55.0389V59.5363H170.044V54.929V54.5169L169.64 54.4382C166.395 53.8072 163.335 52.2473 161.153 50.0573L164.879 46.4565C166.822 48.3074 169.919 49.5032 172.778 49.5032C174.364 49.5032 176.117 49.2512 177.494 48.6154C178.877 47.9768 179.973 46.8963 179.974 45.2359C179.974 45.2354 179.974 45.2349 179.974 45.2344L179.974 45.2137C179.974 45.2135 179.974 45.2134 179.974 45.2133C179.981 44.3309 179.842 43.5673 179.518 42.8959C179.194 42.2218 178.699 41.6743 178.045 41.201C176.765 40.2745 174.813 39.5931 172.172 38.7777C169.675 38.0042 167.186 37.2303 165.155 35.8047L165.154 35.8042C162.522 33.9635 161.19 31.3723 161.19 28.0679C161.19 23.4113 164.392 19.9451 169.654 18.7625L170.044 18.6748V18.2747V13.5361H175.156V17.9314V18.3822L175.604 18.4288C178.306 18.7091 181.027 19.5727 183.091 20.8258L180.308 25.2292C178.541 24.2174 175.997 23.5692 173.767 23.5692C172.119 23.5692 170.297 23.8367 168.868 24.5103C167.43 25.1879 166.304 26.3276 166.304 28.0679C166.304 28.7784 166.409 29.4105 166.684 29.9801C166.96 30.553 167.389 31.0252 167.977 31.4439C169.125 32.2605 170.953 32.9216 173.647 33.7559L173.648 33.7562C176.263 34.562 178.871 35.3755 181.009 36.9179C183.74 38.8942 185.109 41.6784 185.083 45.245Z" fill="url(#paint5_linear)" stroke="url(#paint6_linear)"/>
</g>
<g clip-path="url(#clip2)">
<path d="M127.796 63.9284L127.796 63.9255C127.807 62.4104 127.246 61.2524 126.136 60.4272C125.251 59.771 124.165 59.4197 123.02 59.0572L123.019 59.057C121.856 58.687 121.015 58.3794 120.472 57.9825C120.186 57.7732 119.965 57.5279 119.822 57.2222C119.68 56.9203 119.631 56.5952 119.631 56.2525C119.631 55.3354 120.218 54.7469 120.903 54.4149C121.577 54.0886 122.417 53.9658 123.158 53.9658C124.074 53.9658 125.107 54.2103 125.901 54.6124L126.825 53.1107C126.001 52.6514 124.963 52.3311 123.926 52.2206L123.479 52.1729V51.7234V50.0361H121.822V51.8768V52.2744L121.435 52.3639C119.252 52.8681 117.973 54.3216 117.973 56.2525C117.973 57.647 118.514 58.7194 119.581 59.4862L119.582 59.4867C120.421 60.0924 121.458 60.4263 122.552 60.7746C123.691 61.1359 124.588 61.4528 125.189 61.9002C125.504 62.1343 125.752 62.4131 125.916 62.7624C126.078 63.1087 126.143 63.4922 126.14 63.9148L126.14 63.9144L125.64 63.9117L126.14 63.9153L127.796 63.9284ZM127.796 63.9284C127.795 64.9594 127.422 65.827 126.767 66.4858C126.106 67.1496 125.133 67.6243 123.905 67.8089L123.479 67.8729V68.3033V70.0362H121.822V68.2542V67.8443L121.42 67.7639C120.155 67.5111 118.961 66.9118 118.072 66.0766L119.302 64.8545C120.205 65.6266 121.513 66.1065 122.728 66.1065C123.442 66.1065 124.252 65.9909 124.902 65.6821C125.562 65.3689 126.14 64.8073 126.14 63.9226M127.796 63.9284L126.14 63.9226M126.14 63.9226H125.64L126.14 63.9253L126.14 63.9226Z" fill="url(#paint7_linear)" stroke="url(#paint8_linear)"/>
</g>
<defs>
<linearGradient id="paint0_linear" x1="-11.3839" y1="74.1356" x2="44.3678" y2="-24.3577" gradientUnits="userSpaceOnUse">
<stop stop-color="#AB85FF"/>
<stop offset="0.526042" stop-color="#EBA3E3"/>
<stop offset="1" stop-color="#FFDBE4"/>
</linearGradient>
<linearGradient id="paint1_linear" x1="242.011" y1="80.914" x2="167.387" y2="-48.3107" gradientUnits="userSpaceOnUse">
<stop stop-color="#AB85FF"/>
<stop offset="0.526042" stop-color="#EBA3E3"/>
<stop offset="1" stop-color="#FFDBE4"/>
</linearGradient>
<linearGradient id="paint2_linear" x1="79.1181" y1="86.7876" x2="124.637" y2="6.33203" gradientUnits="userSpaceOnUse">
<stop stop-color="#AB85FF"/>
<stop offset="0.526042" stop-color="#EBA3E3"/>
<stop offset="1" stop-color="#FFDBE4"/>
</linearGradient>
<linearGradient id="paint3_linear" x1="31.9681" y1="59.3751" x2="65.6373" y2="35.5923" gradientUnits="userSpaceOnUse">
<stop stop-color="#AB85FF"/>
<stop offset="0.526042" stop-color="#EBA3E3"/>
<stop offset="1" stop-color="#FFDBE4"/>
</linearGradient>
<linearGradient id="paint4_linear" x1="31.9681" y1="59.3751" x2="65.6373" y2="35.5923" gradientUnits="userSpaceOnUse">
<stop stop-color="#AB85FF"/>
<stop offset="0.526042" stop-color="#EBA3E3"/>
<stop offset="1" stop-color="#FFDBE4"/>
</linearGradient>
<linearGradient id="paint5_linear" x1="156.358" y1="64.7302" x2="208.718" y2="28.5318" gradientUnits="userSpaceOnUse">
<stop stop-color="#AB85FF"/>
<stop offset="0.526042" stop-color="#EBA3E3"/>
<stop offset="1" stop-color="#FFDBE4"/>
</linearGradient>
<linearGradient id="paint6_linear" x1="156.358" y1="64.7302" x2="208.718" y2="28.5318" gradientUnits="userSpaceOnUse">
<stop stop-color="#AB85FF"/>
<stop offset="0.526042" stop-color="#EBA3E3"/>
<stop offset="1" stop-color="#FFDBE4"/>
</linearGradient>
<linearGradient id="paint7_linear" x1="115.589" y1="72.6335" x2="138.752" y2="57.0511" gradientUnits="userSpaceOnUse">
<stop stop-color="#AB85FF"/>
<stop offset="0.526042" stop-color="#EBA3E3"/>
<stop offset="1" stop-color="#FFDBE4"/>
</linearGradient>
<linearGradient id="paint8_linear" x1="115.589" y1="72.6335" x2="138.752" y2="57.0511" gradientUnits="userSpaceOnUse">
<stop stop-color="#AB85FF"/>
<stop offset="0.526042" stop-color="#EBA3E3"/>
<stop offset="1" stop-color="#FFDBE4"/>
</linearGradient>
<clipPath id="clip0">
<rect width="30" height="30" fill="white" transform="translate(27.832 26.3789)"/>
</clipPath>
<clipPath id="clip1">
<rect width="46" height="47" fill="white" transform="translate(150.016 13.0361)"/>
</clipPath>
<clipPath id="clip2">
<rect width="20" height="21" fill="white" transform="translate(112.832 49.5361)"/>
</clipPath>
</defs>
</svg>
