<svg width="196" height="85" viewBox="0 0 196 85" fill="none" xmlns="http://www.w3.org/2000/svg">
<g clip-path="url(#clip0)">
<path d="M141.405 31.536H137.987C137.7 30.6447 137.325 29.7838 136.869 28.9638L139.284 26.6638C139.801 26.1716 140.086 25.516 140.086 24.8177C140.086 24.1203 139.801 23.4647 139.284 22.9725L136.7 20.5116C135.668 19.5281 133.86 19.5255 132.826 20.5116L130.411 22.8116C129.55 22.3777 128.646 22.0212 127.71 21.7473V18.4925C127.71 17.0542 126.481 15.8838 124.971 15.8838H121.318C119.808 15.8838 118.579 17.0542 118.579 18.4925V21.7481C117.643 22.022 116.74 22.3786 115.879 22.8125L113.463 20.5125C112.394 19.4951 110.656 19.4951 109.588 20.5125L107.003 22.9734C105.935 23.9907 105.935 25.6464 107.003 26.6638L109.418 28.9647C108.962 29.7838 108.588 30.6455 108.3 31.5368H104.884C103.373 31.5368 102.145 32.7073 102.145 34.1455V37.6238C102.145 39.0612 103.373 40.2316 104.884 40.2316H108.302C108.59 41.1229 108.964 41.9838 109.42 42.8038L107.005 45.1047C105.936 46.122 105.936 47.7777 107.005 48.7951L109.589 51.2568C110.657 52.2734 112.395 52.2734 113.464 51.2568L115.879 48.9568C116.74 49.3907 117.644 49.7473 118.58 50.0212V53.2751C118.58 54.7134 119.809 55.8838 121.319 55.8838H124.972C126.482 55.8838 127.711 54.7134 127.711 53.2751V50.0194C128.647 49.7455 129.551 49.389 130.411 48.9551L132.826 51.256C133.862 52.2412 135.67 52.2394 136.701 51.256L139.285 48.7951C139.802 48.3029 140.087 47.6473 140.087 46.9499C140.087 46.2516 139.802 45.5968 139.285 45.1047L136.87 42.8038C137.326 41.9847 137.7 41.1229 137.988 40.2316H141.405C142.916 40.2316 144.145 39.0612 144.145 37.6229V34.1447C144.145 32.7064 142.916 31.536 141.405 31.536ZM142.318 37.6229C142.318 38.102 141.909 38.4925 141.405 38.4925H137.297C136.88 38.4925 136.517 38.7612 136.413 39.1447C136.09 40.3316 135.598 41.4647 134.948 42.5116C134.737 42.8534 134.795 43.2881 135.089 43.5681L137.992 46.3342C138.164 46.4977 138.259 46.716 138.259 46.9499C138.259 47.1838 138.164 47.402 137.992 47.5655L135.409 50.0264C135.065 50.3534 134.46 50.3534 134.116 50.0264L131.212 47.2612C130.918 46.9803 130.462 46.9264 130.102 47.1273C129.004 47.7447 127.815 48.2142 126.568 48.5212C126.166 48.6194 125.884 48.9655 125.884 49.362V53.2751C125.884 53.7542 125.475 54.1447 124.971 54.1447H121.318C120.815 54.1447 120.405 53.7542 120.405 53.2751V49.362C120.405 48.9655 120.123 48.6194 119.721 48.5203C118.474 48.2134 117.285 47.7447 116.185 47.1264C116.041 47.0447 115.881 47.0055 115.721 47.0055C115.485 47.0055 115.251 47.0925 115.075 47.2603L112.172 50.0255C111.815 50.3647 111.236 50.3647 110.879 50.0255L108.295 47.5647C107.938 47.2247 107.938 46.6725 108.295 46.3334L111.198 43.5681C111.493 43.2873 111.551 42.8525 111.339 42.5116C110.691 41.4647 110.198 40.3325 109.875 39.1447C109.772 38.7612 109.409 38.4925 108.992 38.4925H104.884C104.381 38.4925 103.971 38.102 103.971 37.6229V34.1447C103.971 33.6655 104.381 33.2751 104.884 33.2751H108.992C109.409 33.2751 109.772 33.0064 109.876 32.6229C110.198 31.436 110.691 30.3029 111.34 29.256C111.552 28.9142 111.494 28.4794 111.199 28.1994L108.296 25.4342C107.94 25.0951 107.94 24.5429 108.296 24.2029L110.88 21.742C111.237 21.402 111.815 21.4029 112.172 21.742L115.076 24.5073C115.371 24.7881 115.826 24.8438 116.185 24.6412C117.285 24.0238 118.473 23.5542 119.721 23.2473C120.123 23.1481 120.405 22.802 120.405 22.4055V18.4925C120.405 18.0134 120.815 17.6229 121.318 17.6229H124.971C125.475 17.6229 125.884 18.0134 125.884 18.4925V22.4055C125.884 22.802 126.166 23.1481 126.568 23.2473C127.816 23.5542 129.005 24.0238 130.103 24.6412C130.463 24.8429 130.919 24.789 131.213 24.5073L134.117 21.742C134.461 21.4134 135.066 21.4142 135.409 21.742L137.993 24.2029C138.165 24.3664 138.26 24.5855 138.26 24.8186C138.26 25.0516 138.165 25.2707 137.993 25.4342L135.09 28.1994C134.796 28.4803 134.737 28.9151 134.949 29.256C135.598 30.3029 136.091 31.4351 136.414 32.6229C136.517 33.0064 136.88 33.2751 137.297 33.2751H141.405C141.909 33.2751 142.318 33.6655 142.318 34.1447V37.6229Z" fill="url(#paint0_linear)"/>
<path d="M123.145 28.0576C118.615 28.0576 114.928 31.5689 114.928 35.8837C114.928 40.1985 118.615 43.7098 123.145 43.7098C127.677 43.7098 131.363 40.1985 131.363 35.8837C131.363 31.5689 127.677 28.0576 123.145 28.0576ZM123.145 41.9707C119.621 41.9707 116.754 39.2402 116.754 35.8837C116.754 32.5272 119.621 29.7967 123.145 29.7967C126.669 29.7967 129.536 32.5272 129.536 35.8837C129.536 39.2402 126.669 41.9707 123.145 41.9707Z" fill="url(#paint1_linear)"/>
</g>
<path d="M162.379 1.09277H83.6056V70.6756H162.379M162.379 1.09277V70.6756M162.379 1.09277L176.82 5.46905V65.4241L162.379 70.6756" stroke="url(#paint2_linear)"/>
<path d="M149.932 43.8916H195.073V83.7662H149.932L141.656 80.7568V46.3994L149.932 43.8916Z" fill="white"/>
<path d="M149.932 43.8916H195.073V83.7662H149.932M149.932 43.8916V83.7662M149.932 43.8916L141.656 46.3994V80.7568L149.932 83.7662" stroke="url(#paint3_linear)"/>
<path d="M18.843 47.4837C12.8954 47.0431 1.52868 42.329 1 29.6406C1 13.7801 13.1157 9.59474 19.0633 9.59474C27.6544 9.59474 63.3405 9.59473 83.6067 9.59473" stroke="url(#paint4_linear)"/>
<path d="M18.7539 47.4834H22.4807" stroke="url(#paint5_linear)"/>
<g clip-path="url(#clip1)">
<path d="M71.691 37.5105C72.1272 37.5105 72.4805 37.157 72.4805 36.721V33.6488C72.4805 31.6353 70.8424 29.9971 68.8288 29.9971H26.1321C24.1187 29.997 22.4805 31.6351 22.4805 33.6487V61.3172C22.4805 63.3309 24.1187 64.9691 26.1321 64.9691H68.8289C70.8425 64.9691 72.4806 63.3309 72.4805 61.3172V39.2822C72.4805 38.8461 72.1271 38.4928 71.691 38.4928C71.255 38.4928 70.9016 38.8461 70.9016 39.2822V61.317C70.9016 62.4601 69.9717 63.39 68.8288 63.39H26.1321C24.9893 63.39 24.0594 62.4601 24.0594 61.317V33.6487C24.0594 32.5058 24.9893 31.5759 26.1321 31.576H68.8287C69.9716 31.576 70.9015 32.5059 70.9015 33.6488V36.721C70.9016 37.157 71.2549 37.5105 71.691 37.5105Z" fill="url(#paint6_linear)"/>
<path d="M43.5797 45.7773C42.4943 45.7773 41.9453 47.3928 41.9453 48.4159C41.9453 49.1832 42.3247 49.6948 42.9652 49.6948H42.9782C43.9981 49.6948 44.5865 48.1466 44.5865 47.0294C44.5865 46.4102 44.3249 45.7773 43.5797 45.7773Z" fill="url(#paint7_linear)"/>
<path d="M50.2914 45.9287C49.5855 45.9287 48.9316 46.7364 48.6965 48.0287L48.4609 49.4557C48.6702 49.644 48.9449 49.7652 49.324 49.7652C50.3308 49.7652 51.1153 48.298 51.1153 47.0056C51.1152 46.4808 50.8929 45.9287 50.2914 45.9287Z" fill="url(#paint8_linear)"/>
<path d="M67.2504 42.9423C67.2502 42.9423 67.2502 42.9423 67.2502 42.9423C67.2502 42.9423 67.2496 42.9423 67.2491 42.9423H67.2487H65.2612C64.8033 42.9423 64.3784 43.1398 64.0843 43.4684C63.7934 43.1437 63.3713 42.9423 62.9075 42.9423H62.7341L62.9648 41.8595C63.1197 41.1325 62.7467 40.3961 62.0688 40.0908C61.632 39.894 61.064 39.79 60.4267 39.79C59.3691 39.79 58.3803 40.1268 57.6315 40.7384C57.1645 40.2004 56.4704 39.8705 55.6683 39.8705C54.1376 39.8705 52.9388 41.0785 52.9388 42.6205C52.9388 42.8827 52.9762 43.1368 53.0447 43.3783C52.481 42.9908 51.7957 42.7742 51.0266 42.7742C50.5706 42.7742 50.1252 42.8527 49.704 43.0028C49.5089 42.9165 49.2929 42.8686 49.0658 42.8686H49.0654H47.3785C46.9219 42.8686 46.5071 43.064 46.2169 43.379C45.5467 42.9565 44.7333 42.7174 43.8293 42.7174C42.5743 42.7174 41.4111 43.1335 40.4792 43.9026C40.4615 43.8822 40.4443 43.8612 40.426 43.8414C39.8535 43.2177 39.0323 42.8717 38.1107 42.8656L38.2827 41.9512C38.306 41.8437 38.3181 41.732 38.3181 41.6175C38.3181 40.7455 37.6114 40.0386 36.7394 40.0386H36.739H34.856C34.0947 40.0386 33.4416 40.5819 33.3033 41.3307L33.0233 42.8474C32.6265 42.7626 32.1936 42.7172 31.7473 42.7172C29.2032 42.7172 27.357 44.338 27.357 46.5712C27.357 46.9363 27.4238 47.4553 27.7101 48.0059C27.4332 48.1976 27.2221 48.475 27.1127 48.8001L26.655 50.1597C26.4369 50.807 26.6599 51.5211 27.2076 51.9295C27.8748 52.4268 28.9459 52.7349 30.0732 52.7538C30.0777 52.7539 30.0823 52.7539 30.087 52.754L30.1407 52.7542C30.8601 52.7542 31.526 52.6383 32.115 52.4156C32.3909 52.6326 32.7337 52.7542 33.0908 52.7542H34.9738C35.3561 52.7542 35.7108 52.6173 35.9872 52.3862C36.2691 52.6221 36.627 52.7542 37.0006 52.7542H38.8834C39.4389 52.7542 39.9359 52.4641 40.2182 52.0168C40.925 52.4954 41.7935 52.7542 42.7314 52.7542H42.7445C43.3257 52.7542 43.8798 52.6654 44.3962 52.4997L44.218 53.4621C44.1325 53.9232 44.2566 54.3984 44.5566 54.7591C44.8566 55.1199 45.3014 55.3284 45.7705 55.3284H47.6535C48.4158 55.3284 49.0695 54.7835 49.2066 54.0336L49.4305 52.8108C50.3222 52.8019 51.1643 52.5607 51.9075 52.1151C52.2069 52.4559 52.6377 52.6534 53.0927 52.6534H54.9757C55.2 52.6534 55.4145 52.605 55.6095 52.5194C55.8071 52.606 56.0219 52.6538 56.243 52.6538H58.1258C58.2402 52.6538 58.3518 52.6402 58.4599 52.6168C58.4672 52.6991 58.4793 52.7816 58.5002 52.8641L58.9189 54.5198C59.0984 55.2298 59.737 55.712 60.4483 55.712C60.5316 55.712 60.6157 55.7053 60.7001 55.6917C61.4286 55.5748 62.6253 55.1001 63.6027 54.1481C64.5585 53.2236 65.4157 51.9243 66.3811 49.9361L68.6525 45.2457C68.7647 45.0286 68.8281 44.7824 68.8281 44.5213C68.8279 43.6496 68.1218 42.9429 67.2504 42.9423ZM31.3776 51.0003C31.3748 51.0013 31.3719 51.0021 31.369 51.0029C31.3222 51.0174 31.2743 51.031 31.2258 51.0436C31.2174 51.0459 31.209 51.048 31.2003 51.0502C31.1559 51.0615 31.1108 51.072 31.065 51.0818C31.056 51.0838 31.0467 51.0858 31.0375 51.0877C30.9869 51.0982 30.9357 51.1076 30.8839 51.1162C30.8807 51.1168 30.8772 51.1175 30.874 51.118C30.8177 51.1272 30.7607 51.1352 30.7029 51.1421C30.6949 51.1431 30.6869 51.1438 30.679 51.1446C30.6319 51.15 30.5847 51.1546 30.5365 51.1586C30.5176 51.1602 30.4983 51.1614 30.4792 51.1627C30.4416 51.1654 30.4035 51.1676 30.3653 51.1694C30.3434 51.1703 30.3213 51.1712 30.2991 51.172C30.2615 51.1732 30.2234 51.1738 30.1854 51.1743C30.1704 51.1743 30.1559 51.1751 30.1408 51.1751C30.127 51.1751 30.1135 51.175 30.0997 51.1749C29.3022 51.1616 28.5309 50.9461 28.1515 50.6635L28.6094 49.3039C28.9753 49.4923 29.6684 49.7616 30.2828 49.7616C30.8059 49.7616 31.0805 49.4924 31.0805 49.1694C31.0805 48.8464 30.8712 48.6175 30.2828 48.3212C29.5505 47.9444 28.9359 47.3925 28.9359 46.5713C28.9359 45.1982 30.0996 44.2962 31.7472 44.2962C31.8407 44.2962 31.932 44.2987 32.0204 44.3036C32.0208 44.3036 32.0213 44.3036 32.0217 44.3037C32.2867 44.3183 32.5272 44.3529 32.7361 44.4C32.7361 44.4 32.7363 44.4001 32.7365 44.4001C33.0118 44.4623 33.2322 44.5459 33.3814 44.6327L32.9371 46.0058C32.8193 45.9513 32.66 45.8892 32.471 45.8366C32.4173 45.8217 32.3607 45.8079 32.3021 45.7949C32.2959 45.7936 32.29 45.7922 32.2836 45.7907C32.232 45.7797 32.1779 45.7702 32.123 45.7614C32.1095 45.7592 32.0968 45.7569 32.0829 45.7548C32.0319 45.7475 31.9787 45.7419 31.925 45.7369C31.9075 45.7354 31.8909 45.733 31.8732 45.7317C31.8027 45.7264 31.7302 45.7233 31.6556 45.7233C31.1586 45.7233 30.8317 45.9387 30.8317 46.3021C30.832 46.571 31.0935 46.7998 31.6036 47.0422C31.6515 47.0669 31.6996 47.0926 31.7478 47.1191C31.7533 47.122 31.7587 47.1253 31.764 47.1283C31.8084 47.1529 31.8526 47.1783 31.8966 47.2045C31.8984 47.2056 31.9001 47.2068 31.902 47.2076C32.5015 47.5657 33.0417 48.0735 33.0417 48.8594C33.0417 49.9538 32.3866 50.6862 31.3776 51.0003ZM39.5764 47.4058L38.8833 51.175H37.0005L37.6672 47.5674C37.7194 47.3115 37.7457 47.0288 37.7457 46.7596C37.7457 46.3154 37.5757 46.0058 37.1049 46.0058C36.4382 46.0058 35.7712 46.8405 35.536 48.1597L34.9737 51.1749H33.8465H33.0907L34.5042 43.5224L34.856 41.6172H36.7391L36.0199 45.4402H36.046C36.5822 44.8345 37.2489 44.4441 38.0857 44.4441C38.1547 44.4441 38.2216 44.448 38.2867 44.4541C38.3059 44.4559 38.3241 44.4591 38.3429 44.4613C38.3893 44.4671 38.435 44.4739 38.4794 44.4829C38.4985 44.4867 38.5172 44.4912 38.5359 44.4958C38.5804 44.5064 38.6235 44.5184 38.6654 44.5321C38.6805 44.5371 38.6954 44.5419 38.7103 44.5472C38.7594 44.565 38.8069 44.5849 38.8527 44.607C38.8585 44.6099 38.8647 44.6124 38.8706 44.6152C39.392 44.8764 39.694 45.4293 39.694 46.2209C39.694 46.5307 39.6418 47.0421 39.5764 47.4058ZM55.6686 41.4493C55.7167 41.4493 55.7631 41.4528 55.8088 41.4579C55.8203 41.4593 55.8319 41.4607 55.8431 41.4623C55.8852 41.4685 55.9264 41.476 55.9661 41.4863C55.9689 41.4871 55.9718 41.4875 55.9745 41.4881C56.0178 41.4997 56.0592 41.5144 56.0996 41.531C56.1067 41.5339 56.114 41.5373 56.1211 41.5404C56.1593 41.5571 56.1962 41.5759 56.2311 41.5971C56.2322 41.5979 56.2334 41.5983 56.2343 41.599C56.2725 41.6224 56.3081 41.6486 56.342 41.6771C56.3443 41.6791 56.3468 41.6813 56.349 41.6833C56.4516 41.7714 56.5331 41.8824 56.5889 42.0136L56.5891 42.0137C56.6444 42.1437 56.6754 42.2926 56.6754 42.4588C56.6756 43.1992 56.1265 43.63 55.4857 43.63H55.4725C55.4162 43.63 55.3617 43.6247 55.3084 43.6164C55.3082 43.6164 55.308 43.6163 55.308 43.6163C55.28 43.6119 55.253 43.6064 55.2262 43.5999C55.2244 43.5995 55.2225 43.5989 55.2206 43.5985C55.1946 43.5919 55.1691 43.5845 55.1439 43.5758C55.1417 43.5752 55.14 43.5744 55.1379 43.5736C55.1128 43.5648 55.0881 43.5552 55.0644 43.5444C55.0633 43.544 55.0622 43.5433 55.0612 43.5429C54.9395 43.4875 54.8336 43.4069 54.7485 43.3048C54.745 43.3008 54.7414 43.297 54.7379 43.2929C54.726 43.2779 54.7147 43.2621 54.7037 43.2464C54.6974 43.2378 54.6913 43.2293 54.6853 43.2204C54.676 43.206 54.6672 43.191 54.6585 43.176C54.6519 43.1648 54.6454 43.1532 54.6392 43.1416C54.6319 43.1274 54.6247 43.1129 54.618 43.0981C54.6117 43.0845 54.6057 43.0707 54.5999 43.0566C54.5942 43.0423 54.5887 43.0281 54.5833 43.0134C54.5778 42.9979 54.5728 42.9817 54.568 42.9655C54.5637 42.9515 54.5594 42.9374 54.5557 42.9231C54.5512 42.9051 54.5473 42.8864 54.5434 42.8679C54.5408 42.8544 54.5376 42.841 54.5354 42.8272C54.5317 42.8057 54.5291 42.7835 54.5268 42.7612C54.5255 42.7495 54.5238 42.738 54.5227 42.7261C54.5201 42.6915 54.5184 42.6564 54.5184 42.6204C54.518 41.9205 55.054 41.4493 55.6686 41.4493ZM44.7476 50.603V50.6031C44.7465 50.6035 44.7457 50.6041 44.7449 50.6046C44.6809 50.6455 44.6151 50.684 44.5482 50.7208C44.5331 50.7291 44.518 50.7371 44.503 50.7452C44.4435 50.777 44.3829 50.8072 44.3215 50.8356C44.3108 50.8406 44.3003 50.8459 44.2896 50.8506C44.2171 50.8831 44.1436 50.9134 44.0685 50.9413C44.0572 50.9454 44.0456 50.9492 44.0344 50.9533C43.9714 50.976 43.9075 50.9968 43.843 51.0162C43.8234 51.0221 43.8039 51.0279 43.7841 51.0334C43.7166 51.0524 43.6485 51.0698 43.5791 51.0849C43.5696 51.087 43.5602 51.0895 43.5506 51.0916C43.4725 51.1081 43.3934 51.1219 43.3129 51.1335C43.2928 51.1365 43.2722 51.1388 43.2519 51.1413C43.1898 51.1494 43.1271 51.156 43.0638 51.1612C43.0403 51.163 43.0171 51.165 42.9937 51.1665C42.9114 51.1716 42.8284 51.175 42.7443 51.175H42.7311C42.6779 51.175 42.6252 51.1737 42.5732 51.1714C42.5566 51.1706 42.5402 51.1692 42.5236 51.1683C42.4882 51.1661 42.453 51.1642 42.4183 51.1612C42.3993 51.1594 42.3809 51.1571 42.3621 51.155C42.3302 51.1515 42.2985 51.1482 42.2672 51.1439C42.2481 51.1413 42.2292 51.1381 42.2103 51.1352C42.1796 51.1304 42.1492 51.1255 42.1193 51.12C42.1007 51.1165 42.0826 51.1127 42.0644 51.1089C42.0344 51.1026 42.0044 51.0963 41.9747 51.0892C41.9574 51.085 41.9402 51.0806 41.9232 51.0761C41.893 51.0684 41.8632 51.0603 41.8337 51.0517C41.8177 51.0471 41.8018 51.0422 41.7861 51.0373C41.7556 51.0278 41.7256 51.0177 41.6958 51.0075C41.6816 51.0025 41.6674 50.9975 41.6535 50.9923C41.6221 50.9807 41.5912 50.9685 41.5606 50.9559C41.5488 50.951 41.5371 50.9463 41.5256 50.9413C41.4922 50.927 41.4596 50.912 41.4271 50.8965C41.4187 50.8924 41.41 50.8886 41.4016 50.8844C41.3648 50.8663 41.3286 50.8473 41.2933 50.8276C41.2896 50.8255 41.286 50.8238 41.2823 50.8217C41.0398 50.6857 40.8274 50.5127 40.6486 50.3077C40.6485 50.3076 40.6485 50.3074 40.6483 50.3072C40.2414 49.8396 40.0113 49.2047 40.0113 48.4558C40.0113 47.2494 40.4451 46.153 41.1919 45.3891L41.1921 45.389C41.2146 45.366 41.238 45.3442 41.261 45.3218C41.2815 45.3017 41.3019 45.2811 41.3231 45.2613C41.3465 45.2398 41.3705 45.2193 41.3944 45.1982C41.4162 45.1788 41.438 45.1592 41.4605 45.1403C41.4844 45.1203 41.509 45.1012 41.5334 45.0817C41.5569 45.0631 41.5798 45.0444 41.6037 45.0264C41.6281 45.0078 41.6533 44.9901 41.6783 44.9722C41.7029 44.9545 41.7277 44.9366 41.7528 44.9195C41.778 44.9024 41.8037 44.886 41.8295 44.8694C41.8552 44.8529 41.8811 44.8364 41.9074 44.8204C41.9333 44.8046 41.9599 44.7895 41.9863 44.7743C42.0133 44.759 42.0403 44.7437 42.0675 44.7289C42.0943 44.7145 42.1212 44.7007 42.1484 44.6871C42.1765 44.6728 42.2049 44.6588 42.2335 44.6454C42.2607 44.6326 42.288 44.6201 42.3155 44.608C42.3451 44.5949 42.3748 44.5824 42.4048 44.5702C42.4323 44.559 42.4601 44.5478 42.4883 44.5372C42.519 44.5256 42.55 44.5145 42.5813 44.5036C42.6095 44.4939 42.6374 44.484 42.6658 44.4751C42.6982 44.4647 42.7308 44.4551 42.7635 44.4456C42.7917 44.4375 42.8198 44.4292 42.8483 44.4216C42.8821 44.4126 42.9164 44.4046 42.9509 44.3967C42.9791 44.3901 43.0072 44.3832 43.0359 44.3774C43.0717 44.3698 43.1078 44.3635 43.144 44.357C43.172 44.3521 43.1994 44.3467 43.2277 44.3424C43.2663 44.3362 43.3056 44.3317 43.3446 44.3269C43.3712 44.3236 43.3973 44.3198 43.424 44.317C43.4681 44.3125 43.5124 44.3096 43.5571 44.3065C43.5797 44.3049 43.6021 44.3026 43.6249 44.3015C43.6926 44.298 43.7609 44.2961 43.8299 44.2961C43.8817 44.2961 43.9329 44.2974 43.9835 44.2994C44.001 44.3002 44.0183 44.3017 44.0355 44.3026C44.0682 44.3045 44.1006 44.3064 44.1327 44.3092C44.1536 44.311 44.1741 44.3135 44.1946 44.3157C44.2227 44.3187 44.2503 44.3216 44.2777 44.3252C44.3001 44.3281 44.3221 44.3318 44.3443 44.3352C44.3689 44.339 44.3936 44.3428 44.4178 44.3472C44.4412 44.3513 44.4642 44.3561 44.4872 44.3607C44.5094 44.3652 44.5317 44.3698 44.5536 44.3749C44.5778 44.3804 44.6013 44.3861 44.625 44.3923C44.6449 44.3974 44.665 44.4026 44.6846 44.4081C44.709 44.4149 44.7335 44.422 44.7577 44.4295C44.7754 44.435 44.7929 44.4405 44.8104 44.4463C44.8359 44.4547 44.8609 44.4633 44.8859 44.4723C44.9009 44.4777 44.9158 44.4834 44.9307 44.4893C44.9572 44.4995 44.9835 44.5097 45.0094 44.5206C45.0211 44.5256 45.0326 44.5309 45.0442 44.5359C45.0726 44.5483 45.1007 44.5608 45.1282 44.5741C45.1349 44.5773 45.1412 44.5808 45.1478 44.5839C45.3628 44.6901 45.555 44.823 45.7229 44.9783C45.7231 44.9785 45.7233 44.9786 45.7235 44.9788C46.2603 45.4761 46.5495 46.2024 46.5495 47.0153C46.5491 48.5935 45.8514 49.8968 44.7476 50.603ZM51.1467 50.7283C51.1408 50.7321 51.1348 50.7359 51.129 50.7394C51.0919 50.7623 51.0542 50.7844 51.0162 50.8059C51.0072 50.8111 50.9979 50.816 50.9887 50.821C50.8781 50.882 50.764 50.9368 50.6462 50.9849C50.6266 50.9929 50.6074 51.0011 50.5876 51.0088C50.5578 51.0202 50.5277 51.0313 50.4972 51.0418C50.4717 51.0509 50.446 51.0596 50.4203 51.068C50.3923 51.0772 50.3645 51.0862 50.3361 51.0946C50.3032 51.1043 50.2701 51.1132 50.2368 51.1219C50.2142 51.1278 50.1918 51.1343 50.169 51.1398C50.1143 51.153 50.0587 51.1645 50.0029 51.1749C49.9829 51.1786 49.9627 51.1816 49.9426 51.1848C49.9023 51.1915 49.8616 51.1979 49.8205 51.2032C49.7986 51.206 49.7763 51.2086 49.7541 51.211C49.7122 51.2155 49.6699 51.2192 49.6273 51.2222C49.6075 51.2236 49.5878 51.2252 49.5679 51.2263C49.5056 51.2296 49.4431 51.2319 49.3796 51.2319C48.8698 51.2319 48.4253 51.0973 48.203 50.9626H48.1637L47.6538 53.7493H45.7708L47.013 47.0454C47.1565 46.2647 47.3003 45.1205 47.3787 44.4474H49.0656L48.948 45.457H48.9741C49.4971 44.7436 50.2553 44.3531 51.0269 44.3531C51.0704 44.3531 51.1132 44.3543 51.1554 44.3565C51.1661 44.3569 51.1763 44.3582 51.1868 44.3589C51.2181 44.3611 51.2493 44.3631 51.2798 44.3664C51.2921 44.3678 51.304 44.3697 51.3162 44.3714C51.3445 44.3749 51.3728 44.3783 51.4003 44.3828C51.4116 44.3848 51.4228 44.3873 51.434 44.3895C51.4619 44.3945 51.4895 44.3996 51.5164 44.4056C51.5268 44.4079 51.5364 44.4109 51.5464 44.4133C51.5743 44.42 51.6017 44.4268 51.6286 44.4345C51.637 44.4369 51.6449 44.44 51.6533 44.4424C51.6815 44.451 51.7094 44.4597 51.7368 44.4694C51.7434 44.4719 51.7494 44.4745 51.7561 44.477C51.7847 44.4876 51.813 44.4984 51.8409 44.5102C51.8458 44.5123 51.8503 44.5147 51.8553 44.5168C51.884 44.5294 51.9129 44.5426 51.9409 44.5566C51.9446 44.5584 51.948 44.5606 51.9517 44.5624C51.9803 44.5772 52.0086 44.5922 52.0365 44.6084C52.0391 44.6101 52.0418 44.6117 52.0447 44.6136C52.0731 44.6302 52.1008 44.6475 52.128 44.6656C52.1296 44.6667 52.131 44.6679 52.1328 44.6689C52.161 44.6878 52.1886 44.7074 52.2154 44.7279C52.2162 44.7284 52.2168 44.7291 52.2177 44.7296C52.2453 44.7507 52.2724 44.7725 52.2988 44.795C52.299 44.7951 52.2992 44.7953 52.2992 44.7954C52.8302 45.2512 53.0929 46.0125 53.0929 46.8571C53.0927 48.4584 52.36 49.9718 51.1467 50.7283ZM54.9756 51.0743H54.6661H53.1465H53.0926L54.2475 44.8226C54.2475 44.8225 54.2475 44.8225 54.2475 44.8225L54.3087 44.4915H55.0186H56.1786L54.9756 51.0743ZM59.0671 45.973V45.9729L58.1258 51.0747H56.5808H56.243L57.1844 45.9729H56.3606L56.622 44.4921H57.4587L57.5112 44.1556C57.6399 43.4455 57.8947 42.7146 58.4048 42.173C58.4124 42.1648 58.4205 42.1568 58.4283 42.1487C58.4818 42.0934 58.537 42.0394 58.5962 41.9883C59.1193 41.5439 59.7994 41.369 60.4269 41.369C60.8716 41.369 61.2117 41.4364 61.4207 41.5306L61.1198 42.9424L61.0937 43.0652C60.9693 43.016 60.8305 42.9816 60.6731 42.9665H60.6729C60.6151 42.9609 60.5553 42.9575 60.4921 42.9575C59.8776 42.9575 59.4986 43.5094 59.3809 44.1692L59.3285 44.4922H59.3545H60.5836L60.3092 45.973H59.6246H59.0671ZM60.1826 48.6295L60.5462 50.3614C60.4455 50.4708 60.3277 50.5745 60.1959 50.6692C60.1908 50.6728 60.1856 50.6764 60.1807 50.6801C60.1013 50.7385 59.9691 50.8182 59.7639 50.8983L60.1826 48.6295ZM64.9606 49.246C64.1109 50.996 63.3523 52.1942 62.5025 53.0153C61.757 53.7422 60.8681 54.0653 60.4497 54.1326L60.031 52.4769C60.3319 52.3827 60.7503 52.2211 61.1164 51.952C61.5479 51.6424 61.914 51.252 62.1625 50.8077C62.2147 50.7134 62.2147 50.6328 62.1885 50.4982L60.9333 44.5213H62.1623H62.9078L63.3001 47.3886C63.3916 48.0751 63.4569 48.5463 63.5093 48.9636H63.5354C63.6791 48.5598 63.823 48.1289 64.0977 47.4155L65.2614 44.5213H67.2489L64.9606 49.246Z" fill="url(#paint9_linear)"/>
</g>
<defs>
<linearGradient id="paint0_linear" x1="95.3125" y1="59.8786" x2="140.805" y2="-1.86824" gradientUnits="userSpaceOnUse">
<stop stop-color="#AB85FF"/>
<stop offset="0.526042" stop-color="#EBA3E3"/>
<stop offset="1" stop-color="#FFDBE4"/>
</linearGradient>
<linearGradient id="paint1_linear" x1="112.254" y1="45.273" x2="130.056" y2="21.1112" gradientUnits="userSpaceOnUse">
<stop stop-color="#AB85FF"/>
<stop offset="0.526042" stop-color="#EBA3E3"/>
<stop offset="1" stop-color="#FFDBE4"/>
</linearGradient>
<linearGradient id="paint2_linear" x1="191.983" y1="77.6248" x2="120.218" y2="-46.6505" gradientUnits="userSpaceOnUse">
<stop stop-color="#AB85FF"/>
<stop offset="0.526042" stop-color="#EBA3E3"/>
<stop offset="1" stop-color="#FFDBE4"/>
</linearGradient>
<linearGradient id="paint3_linear" x1="132.967" y1="87.7484" x2="174.092" y2="16.5322" gradientUnits="userSpaceOnUse">
<stop stop-color="#AB85FF"/>
<stop offset="0.526042" stop-color="#EBA3E3"/>
<stop offset="1" stop-color="#FFDBE4"/>
</linearGradient>
<linearGradient id="paint4_linear" x1="-12.4374" y1="51.2676" x2="16.0001" y2="-28.8781" gradientUnits="userSpaceOnUse">
<stop stop-color="#AB85FF"/>
<stop offset="0.526042" stop-color="#EBA3E3"/>
<stop offset="1" stop-color="#FFDBE4"/>
</linearGradient>
<linearGradient id="paint5_linear" x1="18.1477" y1="48.5833" x2="18.6216" y2="46.3001" gradientUnits="userSpaceOnUse">
<stop stop-color="#AB85FF"/>
<stop offset="0.526042" stop-color="#EBA3E3"/>
<stop offset="1" stop-color="#FFDBE4"/>
</linearGradient>
<linearGradient id="paint6_linear" x1="14.3471" y1="68.4617" x2="49.2074" y2="4.03497" gradientUnits="userSpaceOnUse">
<stop stop-color="#AB85FF"/>
<stop offset="0.526042" stop-color="#EBA3E3"/>
<stop offset="1" stop-color="#FFDBE4"/>
</linearGradient>
<linearGradient id="paint7_linear" x1="41.5157" y1="50.086" x2="46.1368" y2="46.0585" gradientUnits="userSpaceOnUse">
<stop stop-color="#AB85FF"/>
<stop offset="0.526042" stop-color="#EBA3E3"/>
<stop offset="1" stop-color="#FFDBE4"/>
</linearGradient>
<linearGradient id="paint8_linear" x1="48.0292" y1="50.1484" x2="52.5693" y2="46.0878" gradientUnits="userSpaceOnUse">
<stop stop-color="#AB85FF"/>
<stop offset="0.526042" stop-color="#EBA3E3"/>
<stop offset="1" stop-color="#FFDBE4"/>
</linearGradient>
<linearGradient id="paint9_linear" x1="19.6986" y1="57.3021" x2="29.8862" y2="22.3521" gradientUnits="userSpaceOnUse">
<stop stop-color="#AB85FF"/>
<stop offset="0.526042" stop-color="#EBA3E3"/>
<stop offset="1" stop-color="#FFDBE4"/>
</linearGradient>
<clipPath id="clip0">
<rect width="42" height="40" fill="white" transform="translate(102.145 15.8838)"/>
</clipPath>
<clipPath id="clip1">
<rect width="50" height="50" fill="white" transform="translate(22.4805 22.4834)"/>
</clipPath>
</defs>
</svg>
