<svg width="186" height="78" viewBox="0 0 186 78" fill="none" xmlns="http://www.w3.org/2000/svg">
<g clip-path="url(#clip0)">
<path d="M68.9762 29.0271C69.4123 29.0271 69.7656 28.6736 69.7656 28.2376V25.1654C69.7656 23.1519 68.1275 21.5137 66.114 21.5137H23.4173C21.4038 21.5136 19.7656 23.1517 19.7656 25.1653V52.8338C19.7656 54.8475 21.4038 56.4857 23.4173 56.4857H66.1141C68.1276 56.4857 69.7657 54.8475 69.7656 52.8338V30.7988C69.7656 30.3627 69.4122 30.0094 68.9762 30.0094C68.5401 30.0094 68.1867 30.3627 68.1867 30.7988V52.8337C68.1867 53.9767 67.2568 54.9066 66.114 54.9066H23.4173C22.2744 54.9066 21.3445 53.9767 21.3445 52.8337V25.1653C21.3445 24.0224 22.2744 23.0925 23.4173 23.0926H66.1139C67.2567 23.0926 68.1866 24.0225 68.1866 25.1654V28.2376C68.1867 28.6736 68.54 29.0271 68.9762 29.0271Z" fill="url(#paint0_linear)"/>
<path d="M40.8648 37.2939C39.7795 37.2939 39.2305 38.9094 39.2305 39.9325C39.2305 40.6998 39.6099 41.2114 40.2504 41.2114H40.2634C41.2832 41.2114 41.8717 39.6632 41.8717 38.546C41.8717 37.9268 41.6101 37.2939 40.8648 37.2939Z" fill="url(#paint1_linear)"/>
<path d="M47.5766 37.4453C46.8706 37.4453 46.2168 38.253 45.9816 39.5453L45.7461 40.9723C45.9554 41.1606 46.2301 41.2818 46.6092 41.2818C47.6159 41.2818 48.4005 39.8146 48.4005 38.5222C48.4004 37.9974 48.178 37.4453 47.5766 37.4453Z" fill="url(#paint2_linear)"/>
<path d="M64.5355 34.4589C64.5353 34.4589 64.5353 34.4589 64.5353 34.4589C64.5353 34.4589 64.5347 34.4589 64.5342 34.4589H64.5339H62.5463C62.0884 34.4589 61.6635 34.6564 61.3695 34.985C61.0786 34.6603 60.6565 34.4589 60.1926 34.4589H60.0193L60.25 33.3761C60.4048 32.6491 60.0319 31.9127 59.354 31.6074C58.9171 31.4106 58.3492 31.3066 57.7119 31.3066C56.6542 31.3066 55.6655 31.6434 54.9166 32.255C54.4497 31.717 53.7555 31.3871 52.9535 31.3871C51.4228 31.3871 50.224 32.5951 50.224 34.1371C50.224 34.3993 50.2614 34.6534 50.3298 34.8949C49.7661 34.5074 49.0809 34.2908 48.3118 34.2908C47.8558 34.2908 47.4104 34.3693 46.9892 34.5194C46.7941 34.4331 46.5781 34.3852 46.3509 34.3852H46.3505H44.6637C44.2071 34.3852 43.7922 34.5806 43.5021 34.8956C42.8319 34.4731 42.0185 34.234 41.1145 34.234C39.8595 34.234 38.6963 34.6501 37.7644 35.4192C37.7467 35.3988 37.7294 35.3778 37.7111 35.358C37.1387 34.7343 36.3175 34.3883 35.3958 34.3822L35.5679 33.4678C35.5911 33.3603 35.6032 33.2486 35.6032 33.1341C35.6032 32.2621 34.8966 31.5552 34.0245 31.5552H34.0241H32.1411C31.3799 31.5552 30.7268 32.0985 30.5885 32.8473L30.3085 34.364C29.9116 34.2792 29.4787 34.2338 29.0324 34.2338C26.4884 34.2338 24.6422 35.8546 24.6422 38.0878C24.6422 38.4529 24.709 38.9719 24.9953 39.5225C24.7183 39.7142 24.5072 39.9916 24.3978 40.3167L23.9401 41.6763C23.7221 42.3236 23.9451 43.0377 24.4928 43.4461C25.16 43.9434 26.231 44.2515 27.3584 44.2704C27.3629 44.2705 27.3675 44.2705 27.3722 44.2706L27.4259 44.2708C28.1452 44.2708 28.8111 44.1549 29.4002 43.9322C29.6761 44.1492 30.0188 44.2708 30.376 44.2708H32.259C32.6412 44.2708 32.996 44.1339 33.2724 43.9028C33.5543 44.1387 33.9121 44.2708 34.2857 44.2708H36.1686C36.724 44.2708 37.221 43.9807 37.5033 43.5334C38.2102 44.012 39.0786 44.2708 40.0165 44.2708H40.0297C40.6109 44.2708 41.165 44.182 41.6814 44.0163L41.5031 44.9787C41.4177 45.4398 41.5417 45.915 41.8417 46.2757C42.1417 46.6365 42.5865 46.845 43.0557 46.845H44.9387C45.701 46.845 46.3546 46.3001 46.4917 45.5502L46.7157 44.3274C47.6074 44.3185 48.4494 44.0773 49.1926 43.6317C49.492 43.9725 49.9229 44.17 50.3779 44.17H52.2609C52.4852 44.17 52.6996 44.1216 52.8947 44.036C53.0922 44.1226 53.3071 44.1704 53.5282 44.1704H55.411C55.5253 44.1704 55.637 44.1568 55.7451 44.1334C55.7524 44.2157 55.7645 44.2982 55.7854 44.3807L56.2041 46.0364C56.3835 46.7464 57.0221 47.2286 57.7335 47.2286C57.8167 47.2286 57.9008 47.2219 57.9853 47.2083C58.7137 47.0914 59.9105 46.6167 60.8878 45.6647C61.8436 44.7402 62.7008 43.4409 63.6663 41.4527L65.9377 36.7623C66.0499 36.5452 66.1133 36.299 66.1133 36.0379C66.1131 35.1662 65.407 34.4595 64.5355 34.4589ZM28.6628 42.5169C28.66 42.5179 28.657 42.5187 28.6542 42.5195C28.6073 42.534 28.5595 42.5476 28.5109 42.5602C28.5025 42.5625 28.4941 42.5646 28.4854 42.5668C28.441 42.5781 28.396 42.5886 28.3502 42.5984C28.3411 42.6004 28.3318 42.6024 28.3227 42.6043C28.2721 42.6148 28.2209 42.6243 28.169 42.6328C28.1658 42.6334 28.1624 42.6341 28.1592 42.6346C28.1028 42.6438 28.0459 42.6518 27.9881 42.6587C27.9801 42.6597 27.9721 42.6604 27.9642 42.6612C27.9171 42.6666 27.8698 42.6712 27.8217 42.6752C27.8027 42.6768 27.7835 42.678 27.7644 42.6793C27.7268 42.682 27.6887 42.6842 27.6505 42.686C27.6285 42.6869 27.6064 42.6878 27.5843 42.6886C27.5467 42.6898 27.5086 42.6904 27.4706 42.6909C27.4556 42.691 27.441 42.6917 27.426 42.6917C27.4122 42.6917 27.3986 42.6916 27.3849 42.6915C26.5874 42.6782 25.816 42.4627 25.4366 42.1801L25.8945 40.8205C26.2604 41.0089 26.9535 41.2783 27.568 41.2783C28.091 41.2783 28.3656 41.009 28.3656 40.686C28.3656 40.363 28.1563 40.1341 27.568 39.8378C26.8356 39.461 26.2211 38.9091 26.2211 38.0879C26.2211 36.7148 27.3848 35.8128 29.0323 35.8128C29.1259 35.8128 29.2172 35.8153 29.3056 35.8202C29.306 35.8202 29.3064 35.8202 29.3068 35.8203C29.5719 35.8349 29.8124 35.8695 30.0213 35.9166C30.0213 35.9166 30.0215 35.9167 30.0217 35.9167C30.297 35.9789 30.5174 36.0625 30.6666 36.1493L30.2223 37.5224C30.1045 37.4679 29.9451 37.4058 29.7562 37.3532C29.7024 37.3383 29.6459 37.3245 29.5873 37.3115C29.5811 37.3102 29.5752 37.3088 29.5687 37.3073C29.5172 37.2963 29.4631 37.2868 29.4082 37.278C29.3946 37.2758 29.3819 37.2735 29.3681 37.2714C29.3171 37.2641 29.2639 37.2585 29.2102 37.2535C29.1927 37.252 29.1761 37.2496 29.1584 37.2483C29.0879 37.243 29.0153 37.2399 28.9407 37.2399C28.4437 37.2399 28.1169 37.4553 28.1169 37.8187C28.1172 38.0876 28.3786 38.3164 28.8888 38.5588C28.9366 38.5835 28.9848 38.6092 29.0329 38.6357C29.0385 38.6386 29.0438 38.6419 29.0491 38.6449C29.0936 38.6695 29.1378 38.6949 29.1817 38.7211C29.1836 38.7222 29.1853 38.7234 29.1871 38.7242C29.7866 39.0823 30.3269 39.5901 30.3269 40.376C30.3269 41.4704 29.6718 42.2028 28.6628 42.5169ZM36.8615 38.9224L36.1685 42.6916H34.2857L34.9524 39.084C35.0046 38.8281 35.0309 38.5454 35.0309 38.2762C35.0309 37.832 34.8608 37.5224 34.39 37.5224C33.7233 37.5224 33.0564 38.3571 32.8212 39.6763L32.2589 42.6915H31.1316H30.3759L31.7894 35.039L32.1411 33.1338H34.0242L33.3051 36.9569H33.3312C33.8674 36.3511 34.5341 35.9607 35.3708 35.9607C35.4399 35.9607 35.5067 35.9646 35.5719 35.9707C35.591 35.9725 35.6093 35.9757 35.628 35.9779C35.6744 35.9837 35.7201 35.9905 35.7646 35.9995C35.7837 36.0033 35.8024 36.0078 35.8211 36.0124C35.8655 36.023 35.9087 36.035 35.9506 36.0487C35.9656 36.0537 35.9806 36.0585 35.9954 36.0638C36.0445 36.0816 36.0921 36.1015 36.1379 36.1236C36.1437 36.1265 36.1498 36.129 36.1558 36.1318C36.6772 36.393 36.9791 36.9459 36.9791 37.7375C36.9791 38.0473 36.927 38.5587 36.8615 38.9224ZM52.9538 32.9659C53.0019 32.9659 53.0483 32.9694 53.094 32.9745C53.1054 32.9759 53.117 32.9773 53.1283 32.9789C53.1704 32.9851 53.2116 32.9926 53.2512 33.0029C53.254 33.0037 53.257 33.0041 53.2596 33.0047C53.303 33.0163 53.3444 33.031 53.3847 33.0476C53.3918 33.0505 53.3992 33.0539 53.4063 33.057C53.4445 33.0737 53.4814 33.0925 53.5163 33.1137C53.5173 33.1145 53.5186 33.1149 53.5195 33.1156C53.5577 33.139 53.5933 33.1652 53.6272 33.1937C53.6294 33.1957 53.632 33.1979 53.6341 33.1999C53.7368 33.288 53.8183 33.399 53.8741 33.5302L53.8743 33.5303C53.9295 33.6603 53.9606 33.8092 53.9606 33.9754C53.9608 34.7158 53.4117 35.1466 52.7708 35.1466H52.7577C52.7013 35.1466 52.6468 35.1413 52.5936 35.133C52.5934 35.133 52.5932 35.1329 52.5932 35.1329C52.5652 35.1285 52.5381 35.123 52.5114 35.1165C52.5095 35.1161 52.5077 35.1155 52.5058 35.1151C52.4797 35.1085 52.4542 35.1011 52.429 35.0924C52.4269 35.0918 52.4251 35.091 52.4231 35.0902C52.398 35.0814 52.3733 35.0718 52.3496 35.061C52.3485 35.0606 52.3473 35.0599 52.3463 35.0595C52.2247 35.0041 52.1188 34.9235 52.0336 34.8214C52.0301 34.8174 52.0265 34.8136 52.0231 34.8095C52.0112 34.7945 51.9998 34.7787 51.9888 34.763C51.9826 34.7544 51.9765 34.7459 51.9705 34.737C51.9612 34.7226 51.9524 34.7076 51.9437 34.6926C51.9371 34.6814 51.9305 34.6698 51.9244 34.6582C51.917 34.644 51.9099 34.6295 51.9032 34.6147C51.8968 34.6011 51.8909 34.5873 51.8851 34.5732C51.8793 34.5589 51.8739 34.5447 51.8685 34.53C51.8629 34.5145 51.8579 34.4983 51.8532 34.4821C51.8489 34.4681 51.8446 34.454 51.8409 34.4397C51.8364 34.4217 51.8325 34.403 51.8286 34.3845C51.8259 34.371 51.8228 34.3576 51.8205 34.3438C51.8168 34.3223 51.8143 34.3001 51.812 34.2778C51.8107 34.2661 51.8089 34.2546 51.8079 34.2427C51.8052 34.2081 51.8036 34.173 51.8036 34.137C51.8032 33.4371 52.3392 32.9659 52.9538 32.9659ZM42.0327 42.1196V42.1197C42.0317 42.1201 42.0309 42.1207 42.0301 42.1212C41.966 42.1621 41.9002 42.2006 41.8333 42.2374C41.8183 42.2457 41.8031 42.2537 41.7881 42.2618C41.7286 42.2936 41.6681 42.3238 41.6067 42.3522C41.5959 42.3572 41.5855 42.3625 41.5747 42.3672C41.5023 42.3997 41.4287 42.43 41.3536 42.4579C41.3424 42.462 41.3308 42.4658 41.3196 42.4699C41.2566 42.4926 41.1927 42.5134 41.1281 42.5328C41.1085 42.5387 41.0891 42.5445 41.0693 42.55C41.0018 42.569 40.9336 42.5864 40.8643 42.6015C40.8548 42.6036 40.8453 42.6061 40.8358 42.6082C40.7576 42.6247 40.6785 42.6385 40.5981 42.6501C40.5779 42.6531 40.5573 42.6554 40.537 42.6579C40.4749 42.666 40.4122 42.6726 40.3489 42.6778C40.3255 42.6796 40.3023 42.6816 40.2788 42.6831C40.1966 42.6882 40.1136 42.6916 40.0294 42.6916H40.0162C39.963 42.6916 39.9104 42.6903 39.8583 42.688C39.8417 42.6872 39.8253 42.6858 39.8087 42.6849C39.7734 42.6827 39.7382 42.6808 39.7034 42.6778C39.6845 42.676 39.666 42.6737 39.6473 42.6716C39.6153 42.6681 39.5836 42.6648 39.5524 42.6605C39.5332 42.6579 39.5144 42.6547 39.4954 42.6518C39.4648 42.647 39.4344 42.6421 39.4044 42.6366C39.3859 42.6331 39.3678 42.6293 39.3495 42.6255C39.3195 42.6192 39.2896 42.6129 39.2599 42.6058C39.2426 42.6016 39.2253 42.5972 39.2083 42.5927C39.1781 42.585 39.1484 42.5769 39.1189 42.5683C39.1028 42.5637 39.0869 42.5588 39.0712 42.5539C39.0407 42.5444 39.0108 42.5343 38.981 42.5241C38.9667 42.5191 38.9526 42.5141 38.9387 42.5089C38.9072 42.4973 38.8764 42.4851 38.8457 42.4725C38.834 42.4676 38.8223 42.4629 38.8108 42.4579C38.7774 42.4436 38.7447 42.4286 38.7122 42.4131C38.7038 42.409 38.6951 42.4052 38.6867 42.401C38.6499 42.3829 38.6138 42.3639 38.5784 42.3442C38.5747 42.3421 38.5711 42.3404 38.5675 42.3383C38.3249 42.2023 38.1125 42.0293 37.9338 41.8243C37.9336 41.8242 37.9336 41.824 37.9334 41.8238C37.5266 41.3562 37.2965 40.7213 37.2965 39.9724C37.2965 38.766 37.7303 37.6696 38.4771 36.9057L38.4773 36.9056C38.4997 36.8826 38.5232 36.8608 38.5461 36.8384C38.5666 36.8183 38.587 36.7977 38.6082 36.7779C38.6317 36.7564 38.6557 36.7359 38.6796 36.7148C38.7014 36.6954 38.7232 36.6758 38.7456 36.6569C38.7695 36.6369 38.7942 36.6178 38.8186 36.5983C38.842 36.5797 38.865 36.561 38.8889 36.543C38.9133 36.5244 38.9385 36.5067 38.9635 36.4888C38.9881 36.4711 39.0129 36.4532 39.0379 36.4361C39.0632 36.419 39.0889 36.4026 39.1147 36.386C39.1403 36.3695 39.1662 36.353 39.1926 36.337C39.2185 36.3212 39.245 36.3061 39.2715 36.2909C39.2985 36.2756 39.3254 36.2603 39.3527 36.2455C39.3794 36.2311 39.4064 36.2173 39.4335 36.2037C39.4616 36.1894 39.4901 36.1754 39.5187 36.162C39.5458 36.1492 39.5732 36.1367 39.6007 36.1246C39.6303 36.1115 39.66 36.099 39.69 36.0868C39.7175 36.0756 39.7452 36.0644 39.7735 36.0538C39.8041 36.0422 39.8352 36.0311 39.8664 36.0202C39.8946 36.0105 39.9226 36.0006 39.951 35.9917C39.9833 35.9813 40.0159 35.9717 40.0487 35.9622C40.0769 35.9541 40.105 35.9458 40.1334 35.9382C40.1673 35.9292 40.2016 35.9212 40.2361 35.9133C40.2643 35.9067 40.2924 35.8998 40.321 35.894C40.3569 35.8864 40.393 35.8801 40.4291 35.8736C40.4571 35.8687 40.4846 35.8633 40.5128 35.859C40.5515 35.8528 40.5907 35.8483 40.6298 35.8435C40.6564 35.8402 40.6824 35.8364 40.7092 35.8336C40.7532 35.8291 40.7976 35.8262 40.8422 35.8231C40.8649 35.8215 40.8872 35.8193 40.9101 35.8181C40.9778 35.8146 41.046 35.8127 41.1151 35.8127C41.1668 35.8127 41.2181 35.814 41.2687 35.816C41.2862 35.8168 41.3034 35.8183 41.3206 35.8192C41.3533 35.8211 41.3858 35.823 41.4179 35.8258C41.4388 35.8276 41.4593 35.8301 41.4798 35.8323C41.5078 35.8353 41.5355 35.8382 41.5628 35.8418C41.5853 35.8447 41.6072 35.8484 41.6294 35.8518C41.654 35.8556 41.6787 35.8594 41.703 35.8638C41.7264 35.8679 41.7493 35.8727 41.7724 35.8773C41.7946 35.8818 41.8168 35.8864 41.8388 35.8915C41.8629 35.897 41.8864 35.9027 41.9102 35.9089C41.9301 35.914 41.9501 35.9193 41.9697 35.9247C41.9942 35.9315 42.0187 35.9386 42.0429 35.9461C42.0606 35.9516 42.078 35.9571 42.0955 35.9629C42.121 35.9713 42.146 35.9799 42.171 35.9889C42.1861 35.9943 42.201 36 42.2158 36.0059C42.2424 36.0161 42.2687 36.0263 42.2946 36.0372C42.3063 36.0422 42.3178 36.0475 42.3293 36.0525C42.3577 36.0649 42.3859 36.0774 42.4134 36.0907C42.42 36.0939 42.4264 36.0974 42.4329 36.1005C42.648 36.2068 42.8402 36.3396 43.008 36.4949C43.0082 36.4951 43.0084 36.4952 43.0086 36.4954C43.5454 36.9927 43.8347 37.719 43.8347 38.5319C43.8343 40.1101 43.1365 41.4134 42.0327 42.1196ZM48.4319 42.245C48.4259 42.2487 48.42 42.2525 48.4142 42.256C48.3771 42.2789 48.3394 42.301 48.3014 42.3225C48.2923 42.3277 48.283 42.3326 48.2739 42.3376C48.1632 42.3986 48.0492 42.4534 47.9314 42.5015C47.9118 42.5095 47.8925 42.5177 47.8728 42.5254C47.843 42.5368 47.8128 42.5479 47.7824 42.5584C47.7569 42.5675 47.7312 42.5762 47.7055 42.5846C47.6775 42.5938 47.6496 42.6028 47.6212 42.6112C47.5883 42.6209 47.5552 42.6298 47.522 42.6385C47.4993 42.6444 47.477 42.6509 47.4541 42.6564C47.3994 42.6696 47.3439 42.6811 47.288 42.6915C47.2681 42.6952 47.2479 42.6982 47.2278 42.7014C47.1874 42.7081 47.1467 42.7145 47.1057 42.7198C47.0837 42.7226 47.0615 42.7252 47.0393 42.7276C46.9974 42.7321 46.955 42.7358 46.9124 42.7388C46.8926 42.7402 46.873 42.7418 46.8531 42.7429C46.7908 42.7462 46.7283 42.7485 46.6648 42.7485C46.1549 42.7485 45.7105 42.6139 45.4881 42.4792H45.4489L44.939 45.2659H43.056L44.2982 38.562C44.4416 37.7813 44.5855 36.6371 44.6639 35.964H46.3507L46.2331 36.9736H46.2592C46.7823 36.2602 47.5405 35.8697 48.312 35.8697C48.3556 35.8697 48.3984 35.8709 48.4406 35.8731C48.4513 35.8735 48.4615 35.8748 48.472 35.8755C48.5033 35.8777 48.5345 35.8797 48.565 35.883C48.5773 35.8844 48.5892 35.8863 48.6014 35.888C48.6296 35.8915 48.6579 35.8949 48.6855 35.8994C48.6967 35.9014 48.7079 35.9039 48.7192 35.9061C48.747 35.9111 48.7746 35.9162 48.8016 35.9222C48.8119 35.9245 48.8215 35.9275 48.8316 35.9299C48.8594 35.9366 48.8869 35.9434 48.9138 35.9511C48.9222 35.9535 48.93 35.9566 48.9384 35.959C48.9666 35.9676 48.9946 35.9763 49.0219 35.986C49.0285 35.9885 49.0346 35.9911 49.0412 35.9936C49.0699 36.0042 49.0982 36.015 49.126 36.0268C49.131 36.0289 49.1355 36.0313 49.1405 36.0334C49.1692 36.046 49.1981 36.0592 49.226 36.0732C49.2297 36.075 49.2331 36.0772 49.2369 36.079C49.2655 36.0938 49.2938 36.1088 49.3216 36.125C49.3243 36.1267 49.327 36.1283 49.3298 36.1302C49.3582 36.1468 49.386 36.1641 49.4131 36.1822C49.4148 36.1833 49.4161 36.1845 49.4179 36.1855C49.4461 36.2044 49.4738 36.224 49.5005 36.2445C49.5014 36.245 49.502 36.2457 49.5029 36.2462C49.5304 36.2673 49.5576 36.2891 49.5839 36.3116C49.5841 36.3117 49.5843 36.3119 49.5843 36.312C50.1154 36.7678 50.3781 37.5291 50.3781 38.3737C50.3779 39.975 49.6452 41.4884 48.4319 42.245ZM52.2608 42.5909H51.9512H50.4317H50.3778L51.5327 36.3392C51.5327 36.3391 51.5327 36.3391 51.5327 36.3391L51.5939 36.0081H52.3038H53.4637L52.2608 42.5909ZM56.3523 37.4896V37.4895L55.411 42.5913H53.866H53.5282L54.4696 37.4895H53.6457L53.9072 36.0087H54.7439L54.7963 35.6722C54.925 34.9621 55.1798 34.2312 55.69 33.6896C55.6976 33.6815 55.7056 33.6734 55.7134 33.6653C55.7669 33.61 55.8221 33.556 55.8814 33.5049C56.4044 33.0606 57.0845 32.8856 57.7121 32.8856C58.1568 32.8856 58.4968 32.953 58.7058 33.0472L58.4049 34.459L58.3789 34.5818C58.2544 34.5326 58.1157 34.4982 57.9583 34.4831H57.9581C57.9002 34.4775 57.8405 34.4741 57.7773 34.4741C57.1627 34.4741 56.7837 35.026 56.6661 35.6858L56.6136 36.0088H56.6397H57.8688L57.5944 37.4896H56.9097H56.3523ZM57.4677 40.1461L57.8314 41.878C57.7306 41.9874 57.6128 42.0911 57.4811 42.1858C57.4759 42.1894 57.4708 42.193 57.4659 42.1967C57.3865 42.2551 57.2542 42.3348 57.0491 42.4149L57.4677 40.1461ZM62.2458 40.7626C61.3961 42.5126 60.6375 43.7108 59.7877 44.5319C59.0421 45.2588 58.1533 45.5819 57.7348 45.6492L57.3162 43.9935C57.617 43.8993 58.0355 43.7377 58.4015 43.4686C58.8331 43.159 59.1992 42.7686 59.4476 42.3243C59.4999 42.23 59.4999 42.1494 59.4737 42.0148L58.2185 36.0379H59.4474H60.1929L60.5852 38.9052C60.6767 39.5917 60.7421 40.0629 60.7945 40.4802H60.8206C60.9642 40.0764 61.1082 39.6455 61.3829 38.9322L62.5465 36.0379H64.534L62.2458 40.7626Z" fill="url(#paint3_linear)"/>
</g>
<rect x="1.32422" y="0.5" width="184" height="77" stroke="url(#paint4_linear)"/>
<rect x="89.9375" y="30.9785" width="52" height="2" stroke="url(#paint5_linear)"/>
<rect x="89.9375" y="41.9785" width="52" height="2" stroke="url(#paint6_linear)"/>
<rect x="89.9375" y="52.9785" width="52" height="2" stroke="url(#paint7_linear)"/>
<path d="M141.848 55.478C141.575 55.478 141.308 55.3697 141.11 55.1738C140.865 54.928 140.756 54.5738 140.825 54.2322L142.298 46.8655C142.34 46.6634 142.435 46.478 142.583 46.3342L164.681 24.2363C166.713 22.2051 170.017 22.2051 172.046 24.2363C173.031 25.2197 173.573 26.528 173.573 27.9197C173.573 29.3113 173.031 30.6197 172.048 31.603L149.95 53.7009C149.806 53.8467 149.621 53.9447 149.417 53.9863L142.052 55.4572C141.985 55.4717 141.917 55.478 141.848 55.478ZM144.281 47.5842L143.177 53.1092L148.7 52.0051L170.573 30.1301C171.165 29.5384 171.49 28.7551 171.49 27.9197C171.49 27.0842 171.165 26.3009 170.575 25.7092C169.358 24.4905 167.373 24.4905 166.156 25.7092L144.281 47.5842ZM149.215 52.9634H149.235H149.215Z" fill="url(#paint8_linear)"/>
<path d="M168.364 34.8554C168.097 34.8554 167.83 34.7533 167.626 34.5512L161.734 28.6575C161.328 28.2512 161.328 27.5908 161.734 27.1846C162.141 26.7783 162.801 26.7783 163.207 27.1846L169.099 33.0783C169.505 33.4846 169.505 34.145 169.099 34.5512C168.897 34.7533 168.63 34.8554 168.364 34.8554Z" fill="url(#paint9_linear)"/>
<rect x="90.168" y="19.9785" width="52" height="2" stroke="url(#paint10_linear)"/>
<defs>
<linearGradient id="paint0_linear" x1="11.6323" y1="59.9783" x2="46.4926" y2="-4.44843" gradientUnits="userSpaceOnUse">
<stop stop-color="#AB85FF"/>
<stop offset="0.526042" stop-color="#EBA3E3"/>
<stop offset="1" stop-color="#FFDBE4"/>
</linearGradient>
<linearGradient id="paint1_linear" x1="38.8008" y1="41.6026" x2="43.4219" y2="37.5751" gradientUnits="userSpaceOnUse">
<stop stop-color="#AB85FF"/>
<stop offset="0.526042" stop-color="#EBA3E3"/>
<stop offset="1" stop-color="#FFDBE4"/>
</linearGradient>
<linearGradient id="paint2_linear" x1="45.3143" y1="41.665" x2="49.8545" y2="37.6044" gradientUnits="userSpaceOnUse">
<stop stop-color="#AB85FF"/>
<stop offset="0.526042" stop-color="#EBA3E3"/>
<stop offset="1" stop-color="#FFDBE4"/>
</linearGradient>
<linearGradient id="paint3_linear" x1="16.9838" y1="48.8187" x2="27.1713" y2="13.8687" gradientUnits="userSpaceOnUse">
<stop stop-color="#AB85FF"/>
<stop offset="0.526042" stop-color="#EBA3E3"/>
<stop offset="1" stop-color="#FFDBE4"/>
</linearGradient>
<linearGradient id="paint4_linear" x1="-29.2691" y1="85.7898" x2="25.4946" y2="-82.1124" gradientUnits="userSpaceOnUse">
<stop stop-color="#AB85FF"/>
<stop offset="0.526042" stop-color="#EBA3E3"/>
<stop offset="1" stop-color="#FFDBE4"/>
</linearGradient>
<linearGradient id="paint5_linear" x1="80.8162" y1="33.7781" x2="81.1284" y2="26.647" gradientUnits="userSpaceOnUse">
<stop stop-color="#AB85FF"/>
<stop offset="0.526042" stop-color="#EBA3E3"/>
<stop offset="1" stop-color="#FFDBE4"/>
</linearGradient>
<linearGradient id="paint6_linear" x1="80.8162" y1="44.7781" x2="81.1284" y2="37.647" gradientUnits="userSpaceOnUse">
<stop stop-color="#AB85FF"/>
<stop offset="0.526042" stop-color="#EBA3E3"/>
<stop offset="1" stop-color="#FFDBE4"/>
</linearGradient>
<linearGradient id="paint7_linear" x1="80.8162" y1="55.7781" x2="81.1284" y2="48.647" gradientUnits="userSpaceOnUse">
<stop stop-color="#AB85FF"/>
<stop offset="0.526042" stop-color="#EBA3E3"/>
<stop offset="1" stop-color="#FFDBE4"/>
</linearGradient>
<linearGradient id="paint8_linear" x1="135.474" y1="58.7502" x2="173.239" y2="9.92874" gradientUnits="userSpaceOnUse">
<stop stop-color="#AB85FF"/>
<stop offset="0.526042" stop-color="#EBA3E3"/>
<stop offset="1" stop-color="#FFDBE4"/>
</linearGradient>
<linearGradient id="paint9_linear" x1="160.133" y1="35.6519" x2="169.326" y2="23.7706" gradientUnits="userSpaceOnUse">
<stop stop-color="#AB85FF"/>
<stop offset="0.526042" stop-color="#EBA3E3"/>
<stop offset="1" stop-color="#FFDBE4"/>
</linearGradient>
<linearGradient id="paint10_linear" x1="81.0466" y1="22.7781" x2="81.3589" y2="15.647" gradientUnits="userSpaceOnUse">
<stop stop-color="#AB85FF"/>
<stop offset="0.526042" stop-color="#EBA3E3"/>
<stop offset="1" stop-color="#FFDBE4"/>
</linearGradient>
<clipPath id="clip0">
<rect width="50" height="50" fill="white" transform="translate(19.7656 14)"/>
</clipPath>
</defs>
</svg>
