<svg width="215" height="84" viewBox="0 0 215 84" fill="none" xmlns="http://www.w3.org/2000/svg">
<path d="M31.8262 50.3467H92.105" stroke="url(#paint0_linear)" stroke-width="2"/>
<rect x="1.5957" y="40.2949" width="127" height="36.7496" stroke="url(#paint1_linear)" stroke-width="2"/>
<path d="M189.059 26.6425C165.287 -1.76752 129.776 -12.879 90.255 26.6425M90.255 26.6425C91.9986 17.3433 92.6781 12.9421 92.7999 11.9039L90.255 26.6425ZM90.255 26.6425C91.9999 25.9293 100.44 24.2475 106.442 23.6813" stroke="url(#paint2_linear)"/>
<g clip-path="url(#clip0)">
<path d="M213.267 48.697C213.703 48.697 214.057 48.3436 214.057 47.9075V44.8354C214.057 42.8218 212.419 41.1836 210.405 41.1836H167.708C165.695 41.1835 164.057 42.8216 164.057 44.8353V72.5038C164.057 74.5174 165.695 76.1556 167.708 76.1556H210.405C212.419 76.1556 214.057 74.5174 214.057 72.5038V50.4688C214.057 50.0326 213.703 49.6793 213.267 49.6793C212.831 49.6793 212.478 50.0326 212.478 50.4688V72.5036C212.478 73.6466 211.548 74.5765 210.405 74.5765H167.708C166.565 74.5765 165.636 73.6466 165.636 72.5036V44.8353C165.636 43.6923 166.565 42.7624 167.708 42.7625H210.405C211.548 42.7625 212.478 43.6924 212.478 44.8354V47.9075C212.478 48.3436 212.831 48.697 213.267 48.697Z" fill="url(#paint3_linear)"/>
<path d="M185.156 56.9639C184.071 56.9639 183.521 58.5793 183.521 59.6025C183.521 60.3697 183.901 60.8813 184.541 60.8813H184.554C185.574 60.8813 186.163 59.3331 186.163 58.2159C186.163 57.5967 185.901 56.9639 185.156 56.9639Z" fill="url(#paint4_linear)"/>
<path d="M191.868 57.1152C191.162 57.1152 190.508 57.9229 190.273 59.2152L190.037 60.6422C190.246 60.8306 190.521 60.9517 190.9 60.9517C191.907 60.9517 192.692 59.4846 192.692 58.1921C192.691 57.6673 192.469 57.1152 191.868 57.1152Z" fill="url(#paint5_linear)"/>
<path d="M208.827 54.1288C208.826 54.1288 208.826 54.1288 208.826 54.1288C208.826 54.1288 208.826 54.1288 208.825 54.1288H208.825H206.837C206.379 54.1288 205.955 54.3263 205.661 54.6549C205.37 54.3302 204.948 54.1288 204.484 54.1288H204.31L204.541 53.046C204.696 52.319 204.323 51.5826 203.645 51.2773C203.208 51.0806 202.64 50.9766 202.003 50.9766C200.945 50.9766 199.956 51.3133 199.208 51.9249C198.741 51.3869 198.047 51.057 197.244 51.057C195.714 51.057 194.515 52.265 194.515 53.807C194.515 54.0692 194.552 54.3233 194.621 54.5649C194.057 54.1774 193.372 53.9608 192.603 53.9608C192.147 53.9608 191.701 54.0393 191.28 54.1894C191.085 54.103 190.869 54.0551 190.642 54.0551H190.642H188.955C188.498 54.0551 188.083 54.2505 187.793 54.5655C187.123 54.143 186.309 53.9039 185.405 53.9039C184.151 53.9039 182.987 54.32 182.055 55.0892C182.038 55.0688 182.02 55.0478 182.002 55.0279C181.43 54.4042 180.609 54.0582 179.687 54.0522L179.859 53.1377C179.882 53.0302 179.894 52.9186 179.894 52.804C179.894 51.932 179.188 51.2251 178.316 51.2251H178.315H176.432C175.671 51.2251 175.018 51.7685 174.879 52.5172L174.6 54.0339C174.203 53.9491 173.77 53.9037 173.323 53.9037C170.779 53.9037 168.933 55.5245 168.933 57.7577C168.933 58.1228 169 58.6418 169.286 59.1924C169.009 59.3841 168.798 59.6615 168.689 59.9866L168.231 61.3462C168.013 61.9935 168.236 62.7077 168.784 63.1161C169.451 63.6133 170.522 63.9214 171.649 63.9404C171.654 63.9405 171.658 63.9405 171.663 63.9406L171.717 63.9408C172.436 63.9408 173.102 63.8248 173.691 63.6021C173.967 63.8191 174.31 63.9408 174.667 63.9408H176.55C176.932 63.9408 177.287 63.8038 177.563 63.5727C177.845 63.8086 178.203 63.9408 178.577 63.9408H180.46C181.015 63.9408 181.512 63.6506 181.794 63.2034C182.501 63.682 183.37 63.9408 184.308 63.9408H184.321C184.902 63.9408 185.456 63.8519 185.972 63.6863L185.794 64.6486C185.709 65.1097 185.833 65.5849 186.133 65.9456C186.433 66.3064 186.878 66.5149 187.347 66.5149H189.23C189.992 66.5149 190.646 65.9701 190.783 65.2202L191.007 63.9973C191.898 63.9884 192.74 63.7472 193.484 63.3016C193.783 63.6424 194.214 63.8399 194.669 63.8399H196.552C196.776 63.8399 196.991 63.7915 197.186 63.7059C197.383 63.7925 197.598 63.8404 197.819 63.8404H199.702C199.816 63.8404 199.928 63.8267 200.036 63.8034C200.043 63.8856 200.056 63.9681 200.076 64.0506L200.495 65.7063C200.675 66.4164 201.313 66.8985 202.024 66.8985C202.108 66.8985 202.192 66.8918 202.276 66.8783C203.005 66.7613 204.202 66.2867 205.179 65.3346C206.135 64.4101 206.992 63.1108 207.957 61.1226L210.229 56.4322C210.341 56.2152 210.404 55.969 210.404 55.7078C210.404 54.8361 209.698 54.1294 208.827 54.1288ZM172.954 62.1868C172.951 62.1878 172.948 62.1886 172.945 62.1894C172.898 62.2039 172.85 62.2175 172.802 62.2301C172.794 62.2325 172.785 62.2345 172.776 62.2368C172.732 62.248 172.687 62.2585 172.641 62.2683C172.632 62.2703 172.623 62.2723 172.614 62.2743C172.563 62.2847 172.512 62.2942 172.46 62.3028C172.457 62.3034 172.453 62.304 172.45 62.3045C172.394 62.3137 172.337 62.3217 172.279 62.3286C172.271 62.3296 172.263 62.3303 172.255 62.3311C172.208 62.3366 172.161 62.3411 172.113 62.3451C172.094 62.3467 172.075 62.3479 172.055 62.3492C172.018 62.3519 171.98 62.3541 171.941 62.3559C171.92 62.3569 171.897 62.3577 171.875 62.3585C171.838 62.3597 171.8 62.3603 171.762 62.3608C171.747 62.3609 171.732 62.3617 171.717 62.3617C171.703 62.3617 171.69 62.3616 171.676 62.3615C170.878 62.3481 170.107 62.1326 169.728 61.85L170.186 60.4905C170.551 60.6788 171.245 60.9482 171.859 60.9482C172.382 60.9482 172.657 60.6789 172.657 60.3559C172.657 60.0329 172.447 59.804 171.859 59.5077C171.127 59.1309 170.512 58.579 170.512 57.7578C170.512 56.3847 171.676 55.4827 173.323 55.4827C173.417 55.4827 173.508 55.4853 173.597 55.4901C173.597 55.4901 173.597 55.4901 173.598 55.4902C173.863 55.5048 174.103 55.5395 174.312 55.5865C174.312 55.5865 174.312 55.5866 174.313 55.5866C174.588 55.6488 174.808 55.7324 174.958 55.8193L174.513 57.1923C174.396 57.1378 174.236 57.0757 174.047 57.0232C173.993 57.0082 173.937 56.9945 173.878 56.9815C173.872 56.9801 173.866 56.9787 173.86 56.9773C173.808 56.9662 173.754 56.9568 173.699 56.948C173.686 56.9457 173.673 56.9434 173.659 56.9413C173.608 56.934 173.555 56.9284 173.501 56.9235C173.484 56.9219 173.467 56.9195 173.449 56.9182C173.379 56.9129 173.306 56.9098 173.232 56.9098C172.735 56.9098 172.408 57.1252 172.408 57.4886C172.408 57.7575 172.67 57.9863 173.18 58.2287C173.228 58.2534 173.276 58.2791 173.324 58.3056C173.329 58.3085 173.335 58.3118 173.34 58.3149C173.385 58.3394 173.429 58.3649 173.473 58.391C173.475 58.3921 173.476 58.3933 173.478 58.3942C174.078 58.7523 174.618 59.26 174.618 60.0459C174.618 61.1404 173.963 61.8727 172.954 62.1868ZM181.153 58.5923L180.459 62.3616H178.577L179.243 58.7539C179.296 58.4981 179.322 58.2154 179.322 57.9461C179.322 57.5019 179.152 57.1923 178.681 57.1923C178.014 57.1923 177.347 58.027 177.112 59.3462L176.55 62.3615H175.423H174.667L176.08 54.7089L176.432 52.8037H178.315L177.596 56.6268H177.622C178.158 56.021 178.825 55.6306 179.662 55.6306C179.731 55.6306 179.798 55.6345 179.863 55.6406C179.882 55.6424 179.9 55.6456 179.919 55.6479C179.965 55.6536 180.011 55.6605 180.056 55.6694C180.075 55.6733 180.093 55.6777 180.112 55.6823C180.157 55.6929 180.2 55.7049 180.242 55.7187C180.257 55.7236 180.272 55.7284 180.286 55.7337C180.336 55.7515 180.383 55.7714 180.429 55.7936C180.435 55.7964 180.441 55.7989 180.447 55.8018C180.968 56.0629 181.27 56.6158 181.27 57.4074C181.27 57.7172 181.218 58.2286 181.153 58.5923ZM197.245 52.6358C197.293 52.6358 197.339 52.6394 197.385 52.6444C197.396 52.6458 197.408 52.6473 197.419 52.6488C197.461 52.655 197.503 52.6625 197.542 52.6729C197.545 52.6736 197.548 52.674 197.551 52.6746C197.594 52.6862 197.635 52.7009 197.676 52.7175C197.683 52.7204 197.69 52.7238 197.697 52.727C197.735 52.7437 197.772 52.7624 197.807 52.7836C197.808 52.7844 197.81 52.7849 197.81 52.7856C197.849 52.8089 197.884 52.8352 197.918 52.8636C197.92 52.8656 197.923 52.8678 197.925 52.8698C198.028 52.9579 198.109 53.069 198.165 53.2001L198.165 53.2002C198.221 53.3302 198.252 53.4791 198.252 53.6453C198.252 54.3858 197.703 54.8165 197.062 54.8165H197.049C196.992 54.8165 196.938 54.8112 196.885 54.8029C196.884 54.8029 196.884 54.8028 196.884 54.8028C196.856 54.7984 196.829 54.7929 196.802 54.7864C196.801 54.786 196.799 54.7855 196.797 54.7851C196.771 54.7784 196.745 54.771 196.72 54.7623C196.718 54.7617 196.716 54.7609 196.714 54.7602C196.689 54.7513 196.664 54.7417 196.641 54.731C196.639 54.7305 196.638 54.7298 196.637 54.7294C196.516 54.674 196.41 54.5935 196.325 54.4913C196.321 54.4873 196.318 54.4835 196.314 54.4794C196.302 54.4645 196.291 54.4486 196.28 54.4329C196.274 54.4243 196.268 54.4158 196.261 54.4069C196.252 54.3925 196.243 54.3775 196.235 54.3625C196.228 54.3513 196.222 54.3398 196.215 54.3281C196.208 54.3139 196.201 54.2994 196.194 54.2846C196.188 54.271 196.182 54.2572 196.176 54.2431C196.17 54.2288 196.165 54.2147 196.16 54.1999C196.154 54.1844 196.149 54.1683 196.144 54.1521C196.14 54.138 196.136 54.1239 196.132 54.1096C196.127 54.0916 196.123 54.073 196.12 54.0544C196.117 54.0409 196.114 54.0275 196.112 54.0137C196.108 53.9922 196.105 53.97 196.103 53.9478C196.102 53.936 196.1 53.9245 196.099 53.9126C196.096 53.878 196.095 53.8429 196.095 53.8069C196.094 53.107 196.63 52.6358 197.245 52.6358ZM186.324 61.7895V61.7896C186.323 61.7901 186.322 61.7907 186.321 61.7911C186.257 61.8321 186.191 61.8705 186.124 61.9074C186.109 61.9157 186.094 61.9237 186.079 61.9318C186.02 61.9635 185.959 61.9937 185.898 62.0221C185.887 62.0271 185.876 62.0325 185.866 62.0371C185.793 62.0697 185.72 62.0999 185.645 62.1279C185.633 62.132 185.622 62.1357 185.611 62.1398C185.548 62.1625 185.484 62.1833 185.419 62.2028C185.4 62.2086 185.38 62.2144 185.36 62.22C185.293 62.2389 185.225 62.2563 185.155 62.2714C185.146 62.2736 185.136 62.276 185.127 62.2782C185.049 62.2947 184.97 62.3084 184.889 62.3201C184.869 62.323 184.848 62.3253 184.828 62.3279C184.766 62.336 184.703 62.3425 184.64 62.3477C184.617 62.3495 184.593 62.3515 184.57 62.3531C184.488 62.3581 184.405 62.3616 184.32 62.3616H184.307C184.254 62.3616 184.201 62.3602 184.149 62.3579C184.133 62.3572 184.116 62.3557 184.1 62.3548C184.064 62.3527 184.029 62.3507 183.994 62.3477C183.976 62.3459 183.957 62.3436 183.938 62.3415C183.906 62.338 183.875 62.3347 183.843 62.3304C183.824 62.3279 183.805 62.3246 183.786 62.3217C183.756 62.3169 183.725 62.312 183.695 62.3065C183.677 62.3031 183.659 62.2992 183.641 62.2954C183.611 62.2891 183.581 62.2828 183.551 62.2757C183.534 62.2715 183.516 62.2671 183.499 62.2626C183.469 62.2549 183.439 62.2468 183.41 62.2382C183.394 62.2336 183.378 62.2287 183.362 62.2239C183.332 62.2143 183.302 62.2042 183.272 62.194C183.258 62.189 183.244 62.184 183.23 62.1788C183.198 62.1672 183.167 62.155 183.137 62.1424C183.125 62.1375 183.113 62.1328 183.102 62.1279C183.068 62.1135 183.036 62.0986 183.003 62.083C182.995 62.0789 182.986 62.0751 182.978 62.0709C182.941 62.0529 182.905 62.0338 182.869 62.0141C182.866 62.012 182.862 62.0103 182.859 62.0082C182.616 61.8722 182.404 61.6993 182.225 61.4943C182.225 61.4941 182.225 61.4939 182.224 61.4937C181.818 61.0261 181.588 60.3912 181.588 59.6423C181.588 58.436 182.021 57.3396 182.768 56.5756L182.768 56.5755C182.791 56.5526 182.814 56.5307 182.837 56.5083C182.858 56.4882 182.878 56.4676 182.899 56.4479C182.923 56.4263 182.947 56.4058 182.971 56.3847C182.992 56.3653 183.014 56.3457 183.037 56.3269C183.061 56.3068 183.085 56.2877 183.11 56.2682C183.133 56.2496 183.156 56.2309 183.18 56.2129C183.204 56.1944 183.23 56.1766 183.255 56.1587C183.279 56.141 183.304 56.1232 183.329 56.1061C183.354 56.0889 183.38 56.0726 183.406 56.056C183.431 56.0395 183.457 56.023 183.484 56.0069C183.509 55.9911 183.536 55.976 183.563 55.9609C183.589 55.9455 183.616 55.9302 183.644 55.9154C183.67 55.901 183.697 55.8872 183.725 55.8736C183.753 55.8593 183.781 55.8453 183.81 55.8319C183.837 55.8192 183.864 55.8067 183.892 55.7945C183.921 55.7815 183.951 55.769 183.981 55.7568C184.009 55.7455 184.036 55.7343 184.064 55.7237C184.095 55.7121 184.126 55.701 184.157 55.6902C184.186 55.6804 184.214 55.6705 184.242 55.6616C184.274 55.6512 184.307 55.6416 184.34 55.6321C184.368 55.624 184.396 55.6157 184.424 55.6081C184.458 55.5991 184.493 55.5911 184.527 55.5832C184.555 55.5766 184.583 55.5697 184.612 55.5639C184.648 55.5564 184.684 55.55 184.72 55.5436C184.748 55.5386 184.776 55.5332 184.804 55.5289C184.842 55.5228 184.882 55.5182 184.921 55.5134C184.947 55.5102 184.973 55.5064 185 55.5035C185.044 55.499 185.089 55.4961 185.133 55.493C185.156 55.4914 185.178 55.4892 185.201 55.488C185.269 55.4845 185.337 55.4826 185.406 55.4826C185.458 55.4826 185.509 55.4839 185.56 55.4859C185.577 55.4867 185.594 55.4882 185.612 55.4891C185.644 55.491 185.677 55.4929 185.709 55.4957C185.73 55.4976 185.75 55.5 185.771 55.5023C185.799 55.5052 185.826 55.5081 185.854 55.5117C185.876 55.5147 185.898 55.5184 185.92 55.5217C185.945 55.5255 185.97 55.5293 185.994 55.5337C186.017 55.5378 186.04 55.5426 186.063 55.5472C186.086 55.5518 186.108 55.5564 186.13 55.5614C186.154 55.5669 186.177 55.5727 186.201 55.5788C186.221 55.5839 186.241 55.5892 186.261 55.5946C186.285 55.6014 186.31 55.6085 186.334 55.616C186.352 55.6215 186.369 55.6271 186.387 55.6328C186.412 55.6412 186.437 55.6498 186.462 55.6588C186.477 55.6643 186.492 55.6699 186.507 55.6758C186.533 55.686 186.56 55.6962 186.586 55.7071C186.597 55.7121 186.609 55.7174 186.62 55.7224C186.649 55.7348 186.677 55.7473 186.704 55.7607C186.711 55.7638 186.717 55.7673 186.724 55.7704C186.939 55.8767 187.131 56.0095 187.299 56.1649C187.299 56.1651 187.299 56.1652 187.3 56.1653C187.836 56.6626 188.126 57.3889 188.126 58.2018C188.125 59.78 187.428 61.0833 186.324 61.7895ZM192.723 61.9149C192.717 61.9186 192.711 61.9224 192.705 61.9259C192.668 61.9489 192.63 61.9709 192.592 61.9924C192.583 61.9976 192.574 62.0026 192.565 62.0076C192.454 62.0685 192.34 62.1233 192.222 62.1714C192.203 62.1794 192.184 62.1876 192.164 62.1953C192.134 62.2068 192.104 62.2178 192.073 62.2284C192.048 62.2374 192.022 62.2461 191.997 62.2545C191.968 62.2637 191.941 62.2727 191.912 62.2811C191.879 62.2909 191.846 62.2997 191.813 62.3084C191.79 62.3143 191.768 62.3208 191.745 62.3263C191.69 62.3395 191.635 62.351 191.579 62.3615C191.559 62.3652 191.539 62.3681 191.519 62.3713C191.478 62.3781 191.438 62.3844 191.397 62.3897C191.375 62.3925 191.352 62.3952 191.33 62.3975C191.288 62.402 191.246 62.4057 191.203 62.4087C191.184 62.4101 191.164 62.4117 191.144 62.4128C191.082 62.4161 191.019 62.4184 190.956 62.4184C190.446 62.4184 190.001 62.2838 189.779 62.1492H189.74L189.23 64.9358H187.347L188.589 58.232C188.733 57.4512 188.876 56.307 188.955 55.6339H190.642L190.524 56.6436H190.55C191.073 55.9301 191.831 55.5397 192.603 55.5397C192.647 55.5397 192.689 55.5408 192.732 55.543C192.742 55.5435 192.752 55.5447 192.763 55.5454C192.794 55.5477 192.826 55.5496 192.856 55.5529C192.868 55.5543 192.88 55.5563 192.892 55.5579C192.921 55.5614 192.949 55.5649 192.976 55.5693C192.988 55.5713 192.999 55.5738 193.01 55.576C193.038 55.5811 193.066 55.5861 193.093 55.5921C193.103 55.5944 193.113 55.5974 193.123 55.5998C193.15 55.6066 193.178 55.6133 193.205 55.621C193.213 55.6235 193.221 55.6265 193.229 55.6289C193.258 55.6375 193.286 55.6462 193.313 55.656C193.32 55.6584 193.326 55.661 193.332 55.6635C193.361 55.6741 193.389 55.6849 193.417 55.6967C193.422 55.6988 193.427 55.7012 193.431 55.7033C193.46 55.7159 193.489 55.7291 193.517 55.7431C193.521 55.7449 193.524 55.7471 193.528 55.7489C193.556 55.7637 193.585 55.7787 193.613 55.7949C193.615 55.7966 193.618 55.7983 193.621 55.8001C193.649 55.8167 193.677 55.834 193.704 55.8522C193.706 55.8532 193.707 55.8544 193.709 55.8554C193.737 55.8743 193.765 55.894 193.792 55.9145C193.792 55.915 193.793 55.9156 193.794 55.9161C193.821 55.9372 193.849 55.959 193.875 55.9816C193.875 55.9817 193.875 55.9818 193.875 55.9819C194.406 56.4377 194.669 57.199 194.669 58.0437C194.669 59.6449 193.936 61.1583 192.723 61.9149ZM196.552 62.2608H196.242H194.723H194.669L195.824 56.0091C195.824 56.009 195.824 56.009 195.824 56.009L195.885 55.678H196.595H197.755L196.552 62.2608ZM200.643 57.1595V57.1594L199.702 62.2613H198.157H197.819L198.761 57.1594H197.937L198.198 55.6786H199.035L199.087 55.3421C199.216 54.632 199.471 53.9011 199.981 53.3595C199.989 53.3514 199.997 53.3434 200.004 53.3353C200.058 53.2799 200.113 53.2259 200.172 53.1748C200.695 52.7305 201.376 52.5556 202.003 52.5556C202.448 52.5556 202.788 52.623 202.997 52.7171L202.696 54.1289L202.67 54.2518C202.545 54.2025 202.407 54.1681 202.249 54.153H202.249C202.191 54.1475 202.131 54.1441 202.068 54.1441C201.454 54.1441 201.075 54.6959 200.957 55.3557L200.905 55.6787H200.931H202.16L201.885 57.1595H201.201H200.643ZM201.759 59.816L202.122 61.5479C202.022 61.6574 201.904 61.7611 201.772 61.8557C201.767 61.8593 201.762 61.8629 201.757 61.8666C201.677 61.925 201.545 62.0047 201.34 62.0848L201.759 59.816ZM206.537 60.4325C205.687 62.1826 204.928 63.3807 204.079 64.2018C203.333 64.9287 202.444 65.2518 202.026 65.3191L201.607 63.6634C201.908 63.5692 202.327 63.4077 202.693 63.1385C203.124 62.8289 203.49 62.4385 203.739 61.9943C203.791 61.8999 203.791 61.8194 203.765 61.6847L202.51 55.7078H203.738H204.484L204.876 58.5751C204.968 59.2616 205.033 59.7328 205.086 60.1501H205.112C205.255 59.7463 205.399 59.3155 205.674 58.6021L206.838 55.7078H208.825L206.537 60.4325Z" fill="url(#paint6_linear)"/>
</g>
<defs>
<linearGradient id="paint0_linear" x1="22.0208" y1="51.4465" x2="22.0514" y2="49.0653" gradientUnits="userSpaceOnUse">
<stop stop-color="#AB85FF"/>
<stop offset="0.526042" stop-color="#EBA3E3"/>
<stop offset="1" stop-color="#FFDBE4"/>
</linearGradient>
<linearGradient id="paint1_linear" x1="-20.3883" y1="81.9144" x2="-0.0420121" y2="-5.6433" gradientUnits="userSpaceOnUse">
<stop stop-color="#AB85FF"/>
<stop offset="0.526042" stop-color="#EBA3E3"/>
<stop offset="1" stop-color="#FFDBE4"/>
</linearGradient>
<linearGradient id="paint2_linear" x1="205.131" y1="29.2034" x2="193.345" y2="-29.5003" gradientUnits="userSpaceOnUse">
<stop stop-color="#AB85FF"/>
<stop offset="0.526042" stop-color="#EBA3E3"/>
<stop offset="1" stop-color="#FFDBE4"/>
</linearGradient>
<linearGradient id="paint3_linear" x1="155.923" y1="79.6483" x2="190.784" y2="15.2215" gradientUnits="userSpaceOnUse">
<stop stop-color="#AB85FF"/>
<stop offset="0.526042" stop-color="#EBA3E3"/>
<stop offset="1" stop-color="#FFDBE4"/>
</linearGradient>
<linearGradient id="paint4_linear" x1="183.092" y1="61.2725" x2="187.713" y2="57.245" gradientUnits="userSpaceOnUse">
<stop stop-color="#AB85FF"/>
<stop offset="0.526042" stop-color="#EBA3E3"/>
<stop offset="1" stop-color="#FFDBE4"/>
</linearGradient>
<linearGradient id="paint5_linear" x1="189.605" y1="61.3349" x2="194.146" y2="57.2743" gradientUnits="userSpaceOnUse">
<stop stop-color="#AB85FF"/>
<stop offset="0.526042" stop-color="#EBA3E3"/>
<stop offset="1" stop-color="#FFDBE4"/>
</linearGradient>
<linearGradient id="paint6_linear" x1="161.275" y1="68.4886" x2="171.462" y2="33.5386" gradientUnits="userSpaceOnUse">
<stop stop-color="#AB85FF"/>
<stop offset="0.526042" stop-color="#EBA3E3"/>
<stop offset="1" stop-color="#FFDBE4"/>
</linearGradient>
<clipPath id="clip0">
<rect width="50" height="50" fill="white" transform="translate(164.057 33.6699)"/>
</clipPath>
</defs>
</svg>
