<svg width="252" height="99" viewBox="0 0 252 99" fill="none" xmlns="http://www.w3.org/2000/svg">
<path d="M196.505 75.121C196.505 78.1558 194.787 81.1142 191.529 83.8697C188.273 86.6232 183.532 89.1255 177.631 91.2367C165.831 95.4576 149.498 98.0779 131.432 98.0779C113.367 98.0779 97.033 95.4576 85.2336 91.2367C79.3317 89.1255 74.591 86.6232 71.3353 83.8697C68.0773 81.1142 66.3594 78.1558 66.3594 75.121C66.3594 72.0862 68.0773 69.1277 71.3353 66.3723C74.591 63.6187 79.3317 61.1164 85.2336 59.0052C97.033 54.7843 113.367 52.1641 131.432 52.1641C149.498 52.1641 165.831 54.7843 177.631 59.0052C183.532 61.1164 188.273 63.6187 191.529 66.3723C194.787 69.1277 196.505 72.0862 196.505 75.121Z" stroke="url(#paint0_linear)"/>
<path d="M105.844 69.7891L113.307 75.1202" stroke="url(#paint1_linear)"/>
<path d="M113.844 69.7891L105.314 75.1202" stroke="url(#paint2_linear)"/>
<path d="M45.6016 42.8582C58.7516 36.9939 89.3167 33.1555 106.376 64.7157M106.376 64.7157C106.376 54.48 106.376 53.3426 106.376 54.0534V64.7157ZM106.376 64.7157C103.533 62.761 97.5266 58.7448 96.2472 58.3183" stroke="url(#paint3_linear)"/>
<path d="M205.535 20.4675C192.385 14.6033 161.82 10.7649 144.76 42.3251M144.76 42.3251C144.76 32.0893 144.76 30.952 144.76 31.6628V42.3251ZM144.76 42.3251C147.604 40.3704 153.61 36.3542 154.89 35.9277" stroke="url(#paint4_linear)"/>
<rect x="0.179382" y="23.9059" width="36.734" height="50.8645" fill="white"/>
<rect x="4.12469" y="30.7224" width="28.3424" height="2.87011" stroke="url(#paint5_linear)" stroke-width="0.358764"/>
<rect x="4.12469" y="37.5388" width="28.3424" height="2.87011" stroke="url(#paint6_linear)" stroke-width="0.358764"/>
<rect x="4.12469" y="44.3552" width="28.3424" height="2.87011" stroke="url(#paint7_linear)" stroke-width="0.358764"/>
<rect x="4.12469" y="51.1716" width="28.3424" height="2.87011" stroke="url(#paint8_linear)" stroke-width="0.358764"/>
<rect x="4.12469" y="57.988" width="28.3424" height="2.87011" stroke="url(#paint9_linear)" stroke-width="0.358764"/>
<rect x="4.12469" y="64.8044" width="28.3424" height="2.87011" stroke="url(#paint10_linear)" stroke-width="0.358764"/>
<rect x="0.179382" y="23.9059" width="36.734" height="50.8645" stroke="url(#paint11_linear)" stroke-width="0.358764"/>
<rect x="214.226" y="0.22821" width="36.734" height="50.8645" fill="white"/>
<rect x="218.172" y="7.04462" width="28.3424" height="2.87011" stroke="url(#paint12_linear)" stroke-width="0.358764"/>
<rect x="218.172" y="13.861" width="28.3424" height="2.87011" stroke="url(#paint13_linear)" stroke-width="0.358764"/>
<rect x="218.172" y="20.6774" width="28.3424" height="2.87011" stroke="url(#paint14_linear)" stroke-width="0.358764"/>
<rect x="218.172" y="27.4938" width="28.3424" height="2.87011" stroke="url(#paint15_linear)" stroke-width="0.358764"/>
<rect x="218.172" y="34.3102" width="28.3424" height="2.87011" stroke="url(#paint16_linear)" stroke-width="0.358764"/>
<rect x="218.172" y="41.1266" width="28.3424" height="2.87011" stroke="url(#paint17_linear)" stroke-width="0.358764"/>
<rect x="214.226" y="0.22821" width="36.734" height="50.8645" stroke="url(#paint18_linear)" stroke-width="0.358764"/>
<defs>
<linearGradient id="paint0_linear" x1="44.5264" y1="103.263" x2="73.2463" y2="-0.518698" gradientUnits="userSpaceOnUse">
<stop stop-color="#AB85FF"/>
<stop offset="0.526042" stop-color="#EBA3E3"/>
<stop offset="1" stop-color="#FFDBE4"/>
</linearGradient>
<linearGradient id="paint1_linear" x1="104.63" y1="75.6526" x2="110.004" y2="65.9259" gradientUnits="userSpaceOnUse">
<stop stop-color="#AB85FF"/>
<stop offset="0.526042" stop-color="#EBA3E3"/>
<stop offset="1" stop-color="#FFDBE4"/>
</linearGradient>
<linearGradient id="paint2_linear" x1="115.231" y1="75.6526" x2="110.256" y2="65.3617" gradientUnits="userSpaceOnUse">
<stop stop-color="#AB85FF"/>
<stop offset="0.526042" stop-color="#EBA3E3"/>
<stop offset="1" stop-color="#FFDBE4"/>
</linearGradient>
<linearGradient id="paint3_linear" x1="35.7155" y1="67.297" x2="53.9894" y2="11.7531" gradientUnits="userSpaceOnUse">
<stop stop-color="#AB85FF"/>
<stop offset="0.526042" stop-color="#EBA3E3"/>
<stop offset="1" stop-color="#FFDBE4"/>
</linearGradient>
<linearGradient id="paint4_linear" x1="215.421" y1="44.9064" x2="197.147" y2="-10.6376" gradientUnits="userSpaceOnUse">
<stop stop-color="#AB85FF"/>
<stop offset="0.526042" stop-color="#EBA3E3"/>
<stop offset="1" stop-color="#FFDBE4"/>
</linearGradient>
<linearGradient id="paint5_linear" x1="-0.723409" y1="34.0943" x2="-0.0591947" y2="26.4622" gradientUnits="userSpaceOnUse">
<stop stop-color="#AB85FF"/>
<stop offset="0.526042" stop-color="#EBA3E3"/>
<stop offset="1" stop-color="#FFDBE4"/>
</linearGradient>
<linearGradient id="paint6_linear" x1="-0.723409" y1="40.9107" x2="-0.0591947" y2="33.2787" gradientUnits="userSpaceOnUse">
<stop stop-color="#AB85FF"/>
<stop offset="0.526042" stop-color="#EBA3E3"/>
<stop offset="1" stop-color="#FFDBE4"/>
</linearGradient>
<linearGradient id="paint7_linear" x1="-0.723409" y1="47.7271" x2="-0.0591947" y2="40.0951" gradientUnits="userSpaceOnUse">
<stop stop-color="#AB85FF"/>
<stop offset="0.526042" stop-color="#EBA3E3"/>
<stop offset="1" stop-color="#FFDBE4"/>
</linearGradient>
<linearGradient id="paint8_linear" x1="-0.723409" y1="54.5435" x2="-0.0591947" y2="46.9115" gradientUnits="userSpaceOnUse">
<stop stop-color="#AB85FF"/>
<stop offset="0.526042" stop-color="#EBA3E3"/>
<stop offset="1" stop-color="#FFDBE4"/>
</linearGradient>
<linearGradient id="paint9_linear" x1="-0.723409" y1="61.3599" x2="-0.0591947" y2="53.7279" gradientUnits="userSpaceOnUse">
<stop stop-color="#AB85FF"/>
<stop offset="0.526042" stop-color="#EBA3E3"/>
<stop offset="1" stop-color="#FFDBE4"/>
</linearGradient>
<linearGradient id="paint10_linear" x1="-0.723409" y1="68.1763" x2="-0.0591947" y2="60.5443" gradientUnits="userSpaceOnUse">
<stop stop-color="#AB85FF"/>
<stop offset="0.526042" stop-color="#EBA3E3"/>
<stop offset="1" stop-color="#FFDBE4"/>
</linearGradient>
<linearGradient id="paint11_linear" x1="-6.03375" y1="80.0655" x2="54.8299" y2="23.093" gradientUnits="userSpaceOnUse">
<stop stop-color="#AB85FF"/>
<stop offset="0.526042" stop-color="#EBA3E3"/>
<stop offset="1" stop-color="#FFDBE4"/>
</linearGradient>
<linearGradient id="paint12_linear" x1="213.323" y1="10.4166" x2="213.988" y2="2.78451" gradientUnits="userSpaceOnUse">
<stop stop-color="#AB85FF"/>
<stop offset="0.526042" stop-color="#EBA3E3"/>
<stop offset="1" stop-color="#FFDBE4"/>
</linearGradient>
<linearGradient id="paint13_linear" x1="213.323" y1="17.233" x2="213.988" y2="9.60092" gradientUnits="userSpaceOnUse">
<stop stop-color="#AB85FF"/>
<stop offset="0.526042" stop-color="#EBA3E3"/>
<stop offset="1" stop-color="#FFDBE4"/>
</linearGradient>
<linearGradient id="paint14_linear" x1="213.323" y1="24.0494" x2="213.988" y2="16.4173" gradientUnits="userSpaceOnUse">
<stop stop-color="#AB85FF"/>
<stop offset="0.526042" stop-color="#EBA3E3"/>
<stop offset="1" stop-color="#FFDBE4"/>
</linearGradient>
<linearGradient id="paint15_linear" x1="213.323" y1="30.8658" x2="213.988" y2="23.2337" gradientUnits="userSpaceOnUse">
<stop stop-color="#AB85FF"/>
<stop offset="0.526042" stop-color="#EBA3E3"/>
<stop offset="1" stop-color="#FFDBE4"/>
</linearGradient>
<linearGradient id="paint16_linear" x1="213.323" y1="37.6822" x2="213.988" y2="30.0501" gradientUnits="userSpaceOnUse">
<stop stop-color="#AB85FF"/>
<stop offset="0.526042" stop-color="#EBA3E3"/>
<stop offset="1" stop-color="#FFDBE4"/>
</linearGradient>
<linearGradient id="paint17_linear" x1="213.323" y1="44.4986" x2="213.988" y2="36.8665" gradientUnits="userSpaceOnUse">
<stop stop-color="#AB85FF"/>
<stop offset="0.526042" stop-color="#EBA3E3"/>
<stop offset="1" stop-color="#FFDBE4"/>
</linearGradient>
<linearGradient id="paint18_linear" x1="208.013" y1="56.3878" x2="268.877" y2="-0.584727" gradientUnits="userSpaceOnUse">
<stop stop-color="#AB85FF"/>
<stop offset="0.526042" stop-color="#EBA3E3"/>
<stop offset="1" stop-color="#FFDBE4"/>
</linearGradient>
</defs>
</svg>
