<svg width="242" height="79" viewBox="0 0 242 79" fill="none" xmlns="http://www.w3.org/2000/svg">
<path d="M175.652 39.1468L202.364 47.8179M202.364 47.8179L193.943 48.5613M202.364 47.8179L196.558 42.7494" stroke="url(#paint0_linear)"/>
<circle cx="14.4453" cy="64.8555" r="13.5" stroke="url(#paint1_linear)"/>
<path d="M152.595 40.507L131.556 56.4698" stroke="url(#paint2_linear)"/>
<circle cx="61.4453" cy="27.8555" r="13.5" stroke="url(#paint3_linear)"/>
<circle cx="119.395" cy="61.7383" r="13.5" stroke="url(#paint4_linear)"/>
<circle cx="61.9453" cy="27.7383" r="19.5" transform="rotate(-180 61.9453 27.7383)" stroke="url(#paint5_linear)"/>
<path d="M46.9453 14.7383L23.4453 1.23828L20.9453 5.23828L44.4453 18.7383" stroke="url(#paint6_linear)"/>
<circle cx="163.445" cy="32.7383" r="13.5" stroke="url(#paint7_linear)"/>
<path d="M23.9453 54.8551L46.9453 40.2188" stroke="url(#paint8_linear)"/>
<path d="M75.4453 41.3125L106.5 58.4783" stroke="url(#paint9_linear)"/>
<path d="M53.4883 28.2212H61.4467M69.4051 28.2212H61.4467M61.4467 28.2212V20.5039V34.9737" stroke="url(#paint10_linear)"/>
<g clip-path="url(#clip0)">
<path d="M238.93 56.26H236.244C236.019 55.547 235.724 54.8583 235.366 54.2023L237.263 52.3623C237.669 51.9685 237.893 51.444 237.893 50.8854C237.893 50.3275 237.669 49.803 237.263 49.4092L235.233 47.4405C234.422 46.6538 233.001 46.6517 232.189 47.4405L230.291 49.2805C229.615 48.9334 228.904 48.6482 228.169 48.4291V45.8252C228.169 44.6746 227.203 43.7383 226.017 43.7383H223.147C221.961 43.7383 220.995 44.6746 220.995 45.8252V48.4298C220.26 48.6489 219.55 48.9341 218.873 49.2812L216.975 47.4412C216.135 46.6273 214.77 46.6273 213.93 47.4412L211.899 49.4099C211.061 50.2238 211.061 51.5484 211.899 52.3623L213.797 54.203C213.439 54.8583 213.145 55.5477 212.919 56.2607H210.234C209.048 56.2607 208.082 57.1971 208.082 58.3477V61.1303C208.082 62.2802 209.048 63.2165 210.234 63.2165H212.92C213.146 63.9296 213.44 64.6183 213.798 65.2743L211.901 67.115C211.061 67.9289 211.061 69.2534 211.901 70.0673L213.931 72.0367C214.77 72.8499 216.136 72.8499 216.976 72.0367L218.874 70.1967C219.55 70.5438 220.26 70.8291 220.996 71.0482V73.6513C220.996 74.8019 221.961 75.7383 223.148 75.7383H226.018C227.204 75.7383 228.17 74.8019 228.17 73.6513V71.0468C228.905 70.8277 229.616 70.5425 230.292 70.1953L232.189 72.036C233.003 72.8242 234.423 72.8228 235.234 72.036L237.264 70.0673C237.67 69.6736 237.894 69.1491 237.894 68.5912C237.894 68.0325 237.67 67.5087 237.264 67.115L235.367 65.2743C235.725 64.619 236.019 63.9296 236.245 63.2165H238.93C240.116 63.2165 241.082 62.2802 241.082 61.1296V58.347C241.082 57.1964 240.116 56.26 238.93 56.26ZM239.647 61.1296C239.647 61.5129 239.326 61.8252 238.93 61.8252H235.702C235.374 61.8252 235.089 62.0402 235.007 62.347C234.753 63.2965 234.367 64.203 233.856 65.0405C233.691 65.3139 233.736 65.6618 233.967 65.8858L236.248 68.0986C236.383 68.2294 236.458 68.404 236.458 68.5912C236.458 68.7783 236.383 68.9529 236.248 69.0837L234.218 71.0524C233.948 71.3139 233.473 71.3139 233.202 71.0524L230.921 68.8402C230.69 68.6155 230.331 68.5724 230.049 68.7331C229.186 69.227 228.251 69.6026 227.272 69.8482C226.956 69.9268 226.734 70.2037 226.734 70.5209V73.6513C226.734 74.0346 226.413 74.347 226.017 74.347H223.147C222.752 74.347 222.43 74.0346 222.43 73.6513V70.5209C222.43 70.2037 222.208 69.9268 221.892 69.8475C220.913 69.6019 219.978 69.227 219.114 68.7324C219.001 68.667 218.875 68.6357 218.75 68.6357C218.564 68.6357 218.38 68.7052 218.242 68.8395L215.96 71.0517C215.68 71.323 215.225 71.323 214.945 71.0517L212.914 69.083C212.634 68.811 212.634 68.3692 212.914 68.0979L215.196 65.8858C215.427 65.6611 215.473 65.3132 215.306 65.0405C214.797 64.203 214.409 63.2972 214.156 62.347C214.075 62.0402 213.79 61.8252 213.462 61.8252H210.234C209.839 61.8252 209.517 61.5129 209.517 61.1296V58.347C209.517 57.9637 209.839 57.6513 210.234 57.6513H213.462C213.79 57.6513 214.075 57.4364 214.157 57.1296C214.41 56.18 214.797 55.2736 215.307 54.436C215.473 54.1626 215.428 53.8148 215.196 53.5908L212.915 51.3786C212.635 51.1073 212.635 50.6656 212.915 50.3936L214.945 48.4249C215.226 48.1529 215.681 48.1536 215.961 48.4249L218.242 50.6371C218.474 50.8618 218.832 50.9063 219.114 50.7442C219.978 50.2503 220.912 49.8746 221.892 49.6291C222.208 49.5498 222.43 49.2729 222.43 48.9557V45.8252C222.43 45.4419 222.752 45.1296 223.147 45.1296H226.017C226.413 45.1296 226.734 45.4419 226.734 45.8252V48.9557C226.734 49.2729 226.956 49.5498 227.272 49.6291C228.252 49.8746 229.187 50.2503 230.049 50.7442C230.332 50.9056 230.691 50.8625 230.922 50.6371L233.203 48.4249C233.473 48.1619 233.949 48.1626 234.219 48.4249L236.249 50.3936C236.384 50.5244 236.458 50.6997 236.458 50.8861C236.458 51.0725 236.384 51.2478 236.249 51.3786L233.968 53.5908C233.737 53.8155 233.691 54.1633 233.857 54.436C234.367 55.2736 234.754 56.1793 235.008 57.1296C235.089 57.4364 235.374 57.6513 235.702 57.6513H238.93C239.326 57.6513 239.647 57.9637 239.647 58.347V61.1296Z" fill="url(#paint11_linear)"/>
<path d="M224.582 53.4766C221.022 53.4766 218.125 56.2856 218.125 59.7374C218.125 63.1893 221.022 65.9983 224.582 65.9983C228.142 65.9983 231.038 63.1893 231.038 59.7374C231.038 56.2856 228.142 53.4766 224.582 53.4766ZM224.582 64.607C221.812 64.607 219.56 62.4226 219.56 59.7374C219.56 57.0522 221.812 54.8679 224.582 54.8679C227.35 54.8679 229.603 57.0522 229.603 59.7374C229.603 62.4226 227.35 64.607 224.582 64.607Z" fill="url(#paint12_linear)"/>
</g>
<defs>
<linearGradient id="paint0_linear" x1="172.492" y1="37.1977" x2="208.75" y2="47.4688" gradientUnits="userSpaceOnUse">
<stop stop-color="#AB85FF"/>
<stop offset="0.526042" stop-color="#EBA3E3"/>
<stop offset="1" stop-color="#FFDBE4"/>
</linearGradient>
<linearGradient id="paint1_linear" x1="-4.10936" y1="81.6518" x2="28.1637" y2="39.9335" gradientUnits="userSpaceOnUse">
<stop stop-color="#AB85FF"/>
<stop offset="0.526042" stop-color="#EBA3E3"/>
<stop offset="1" stop-color="#FFDBE4"/>
</linearGradient>
<linearGradient id="paint2_linear" x1="155.678" y1="39.1758" x2="125.235" y2="56.8303" gradientUnits="userSpaceOnUse">
<stop stop-color="#AB85FF"/>
<stop offset="0.526042" stop-color="#EBA3E3"/>
<stop offset="1" stop-color="#FFDBE4"/>
</linearGradient>
<linearGradient id="paint3_linear" x1="42.8906" y1="44.6518" x2="75.1637" y2="2.93353" gradientUnits="userSpaceOnUse">
<stop stop-color="#AB85FF"/>
<stop offset="0.526042" stop-color="#EBA3E3"/>
<stop offset="1" stop-color="#FFDBE4"/>
</linearGradient>
<linearGradient id="paint4_linear" x1="100.84" y1="78.5346" x2="133.113" y2="36.8163" gradientUnits="userSpaceOnUse">
<stop stop-color="#AB85FF"/>
<stop offset="0.526042" stop-color="#EBA3E3"/>
<stop offset="1" stop-color="#FFDBE4"/>
</linearGradient>
<linearGradient id="paint5_linear" x1="35.4386" y1="51.7331" x2="81.543" y2="-7.86449" gradientUnits="userSpaceOnUse">
<stop stop-color="#AB85FF"/>
<stop offset="0.526042" stop-color="#EBA3E3"/>
<stop offset="1" stop-color="#FFDBE4"/>
</linearGradient>
<linearGradient id="paint6_linear" x1="51.1746" y1="-0.509434" x2="34.1021" y2="32.2789" gradientUnits="userSpaceOnUse">
<stop stop-color="#AB85FF"/>
<stop offset="0.526042" stop-color="#EBA3E3"/>
<stop offset="1" stop-color="#FFDBE4"/>
</linearGradient>
<linearGradient id="paint7_linear" x1="144.891" y1="49.5346" x2="177.164" y2="7.81634" gradientUnits="userSpaceOnUse">
<stop stop-color="#AB85FF"/>
<stop offset="0.526042" stop-color="#EBA3E3"/>
<stop offset="1" stop-color="#FFDBE4"/>
</linearGradient>
<linearGradient id="paint8_linear" x1="20.204" y1="56.3168" x2="34.0166" y2="28.2588" gradientUnits="userSpaceOnUse">
<stop stop-color="#AB85FF"/>
<stop offset="0.526042" stop-color="#EBA3E3"/>
<stop offset="1" stop-color="#FFDBE4"/>
</linearGradient>
<linearGradient id="paint9_linear" x1="70.3938" y1="60.1927" x2="85.1731" y2="25.6306" gradientUnits="userSpaceOnUse">
<stop stop-color="#AB85FF"/>
<stop offset="0.526042" stop-color="#EBA3E3"/>
<stop offset="1" stop-color="#FFDBE4"/>
</linearGradient>
<linearGradient id="paint10_linear" x1="50.8991" y1="36.4188" x2="67.1146" y2="13.3615" gradientUnits="userSpaceOnUse">
<stop stop-color="#AB85FF"/>
<stop offset="0.526042" stop-color="#EBA3E3"/>
<stop offset="1" stop-color="#FFDBE4"/>
</linearGradient>
<linearGradient id="paint11_linear" x1="202.714" y1="78.9341" x2="239.297" y2="30.1663" gradientUnits="userSpaceOnUse">
<stop stop-color="#AB85FF"/>
<stop offset="0.526042" stop-color="#EBA3E3"/>
<stop offset="1" stop-color="#FFDBE4"/>
</linearGradient>
<linearGradient id="paint12_linear" x1="216.024" y1="67.2488" x2="230.34" y2="48.1658" gradientUnits="userSpaceOnUse">
<stop stop-color="#AB85FF"/>
<stop offset="0.526042" stop-color="#EBA3E3"/>
<stop offset="1" stop-color="#FFDBE4"/>
</linearGradient>
<clipPath id="clip0">
<rect width="33" height="32" fill="white" transform="translate(208.082 43.7383)"/>
</clipPath>
</defs>
</svg>
