<svg width="253" height="105" viewBox="0 0 253 105" fill="none" xmlns="http://www.w3.org/2000/svg">
<rect x="-0.326584" y="0.326584" width="66.8779" height="92.6041" transform="matrix(-1 0 0 1 67.7726 0.863281)" fill="white"/>
<rect x="-0.326584" y="0.326584" width="51.6002" height="5.22534" transform="matrix(-1 0 0 1 60.5871 13.2734)" stroke="url(#paint0_linear)" stroke-width="0.653167"/>
<rect x="-0.326584" y="0.326584" width="51.6002" height="5.22534" transform="matrix(-1 0 0 1 60.5871 25.6836)" stroke="url(#paint1_linear)" stroke-width="0.653167"/>
<rect x="-0.326584" y="0.326584" width="51.6002" height="5.22534" transform="matrix(-1 0 0 1 60.5871 38.0938)" stroke="url(#paint2_linear)" stroke-width="0.653167"/>
<rect x="-0.326584" y="0.326584" width="51.6002" height="5.22534" transform="matrix(-1 0 0 1 60.5871 50.5039)" stroke="url(#paint3_linear)" stroke-width="0.653167"/>
<rect x="-0.326584" y="0.326584" width="51.6002" height="5.22534" transform="matrix(-1 0 0 1 60.5871 62.9141)" stroke="url(#paint4_linear)" stroke-width="0.653167"/>
<rect x="-0.326584" y="0.326584" width="51.6002" height="5.22534" transform="matrix(-1 0 0 1 60.5871 75.3242)" stroke="url(#paint5_linear)" stroke-width="0.653167"/>
<rect x="-0.326584" y="0.326584" width="66.8779" height="92.6041" transform="matrix(-1 0 0 1 67.7726 0.863281)" stroke="url(#paint6_linear)" stroke-width="0.653167"/>
<path d="M79.2448 95.9134L63.245 81.2012L63.2344 102.937L68.0895 98.2913L70.9411 104.792L75.3902 102.84L72.5386 96.3396L79.2448 95.9134Z" fill="url(#paint7_linear)"/>
<rect x="-0.326584" y="0.326584" width="66.8779" height="92.6041" transform="matrix(-1 0 0 1 154.198 0.863281)" fill="white"/>
<rect x="-0.326584" y="0.326584" width="51.6002" height="5.22534" transform="matrix(-1 0 0 1 147.013 13.2734)" stroke="url(#paint8_linear)" stroke-width="0.653167"/>
<rect x="-0.326584" y="0.326584" width="51.6002" height="5.22534" transform="matrix(-1 0 0 1 147.013 25.6836)" stroke="url(#paint9_linear)" stroke-width="0.653167"/>
<rect x="-0.326584" y="0.326584" width="51.6002" height="5.22534" transform="matrix(-1 0 0 1 147.013 38.0938)" stroke="url(#paint10_linear)" stroke-width="0.653167"/>
<rect x="-0.326584" y="0.326584" width="51.6002" height="5.22534" transform="matrix(-1 0 0 1 147.013 50.5039)" stroke="url(#paint11_linear)" stroke-width="0.653167"/>
<rect x="-0.326584" y="0.326584" width="51.6002" height="5.22534" transform="matrix(-1 0 0 1 147.013 62.9141)" stroke="url(#paint12_linear)" stroke-width="0.653167"/>
<rect x="-0.326584" y="0.326584" width="51.6002" height="5.22534" transform="matrix(-1 0 0 1 147.013 75.3242)" stroke="url(#paint13_linear)" stroke-width="0.653167"/>
<rect x="-0.326584" y="0.326584" width="66.8779" height="92.6041" transform="matrix(-1 0 0 1 154.198 0.863281)" stroke="url(#paint14_linear)" stroke-width="0.653167"/>
<path d="M165.674 95.9134L149.675 81.2012L149.664 102.937L154.519 98.2913L157.371 104.792L161.82 102.84L158.968 96.3396L165.674 95.9134Z" fill="url(#paint15_linear)"/>
<rect x="-0.326584" y="0.326584" width="66.8779" height="92.6041" transform="matrix(-1 0 0 1 240.628 0.863281)" fill="white"/>
<rect x="-0.326584" y="0.326584" width="51.6002" height="5.22534" transform="matrix(-1 0 0 1 233.443 13.2734)" stroke="url(#paint16_linear)" stroke-width="0.653167"/>
<rect x="-0.326584" y="0.326584" width="51.6002" height="5.22534" transform="matrix(-1 0 0 1 233.443 25.6836)" stroke="url(#paint17_linear)" stroke-width="0.653167"/>
<rect x="-0.326584" y="0.326584" width="51.6002" height="5.22534" transform="matrix(-1 0 0 1 233.443 38.0938)" stroke="url(#paint18_linear)" stroke-width="0.653167"/>
<rect x="-0.326584" y="0.326584" width="51.6002" height="5.22534" transform="matrix(-1 0 0 1 233.443 50.5039)" stroke="url(#paint19_linear)" stroke-width="0.653167"/>
<rect x="-0.326584" y="0.326584" width="51.6002" height="5.22534" transform="matrix(-1 0 0 1 233.443 62.9141)" stroke="url(#paint20_linear)" stroke-width="0.653167"/>
<rect x="-0.326584" y="0.326584" width="51.6002" height="5.22534" transform="matrix(-1 0 0 1 233.443 75.3242)" stroke="url(#paint21_linear)" stroke-width="0.653167"/>
<rect x="-0.326584" y="0.326584" width="66.8779" height="92.6041" transform="matrix(-1 0 0 1 240.628 0.863281)" stroke="url(#paint22_linear)" stroke-width="0.653167"/>
<path d="M252.104 95.9134L236.104 81.2012L236.094 102.937L240.949 98.2913L243.801 104.792L248.25 102.84L245.398 96.3396L252.104 95.9134Z" fill="url(#paint23_linear)"/>
<defs>
<linearGradient id="paint0_linear" x1="-8.49989" y1="6.46559" x2="-7.29061" y2="-7.42937" gradientUnits="userSpaceOnUse">
<stop stop-color="#AB85FF"/>
<stop offset="0.526042" stop-color="#EBA3E3"/>
<stop offset="1" stop-color="#FFDBE4"/>
</linearGradient>
<linearGradient id="paint1_linear" x1="-8.49989" y1="6.46559" x2="-7.29061" y2="-7.42937" gradientUnits="userSpaceOnUse">
<stop stop-color="#AB85FF"/>
<stop offset="0.526042" stop-color="#EBA3E3"/>
<stop offset="1" stop-color="#FFDBE4"/>
</linearGradient>
<linearGradient id="paint2_linear" x1="-8.49989" y1="6.46559" x2="-7.29061" y2="-7.42937" gradientUnits="userSpaceOnUse">
<stop stop-color="#AB85FF"/>
<stop offset="0.526042" stop-color="#EBA3E3"/>
<stop offset="1" stop-color="#FFDBE4"/>
</linearGradient>
<linearGradient id="paint3_linear" x1="-8.49989" y1="6.46559" x2="-7.29061" y2="-7.42937" gradientUnits="userSpaceOnUse">
<stop stop-color="#AB85FF"/>
<stop offset="0.526042" stop-color="#EBA3E3"/>
<stop offset="1" stop-color="#FFDBE4"/>
</linearGradient>
<linearGradient id="paint4_linear" x1="-8.49989" y1="6.46559" x2="-7.29061" y2="-7.42937" gradientUnits="userSpaceOnUse">
<stop stop-color="#AB85FF"/>
<stop offset="0.526042" stop-color="#EBA3E3"/>
<stop offset="1" stop-color="#FFDBE4"/>
</linearGradient>
<linearGradient id="paint5_linear" x1="-8.49989" y1="6.46559" x2="-7.29061" y2="-7.42937" gradientUnits="userSpaceOnUse">
<stop stop-color="#AB85FF"/>
<stop offset="0.526042" stop-color="#EBA3E3"/>
<stop offset="1" stop-color="#FFDBE4"/>
</linearGradient>
<linearGradient id="paint6_linear" x1="-10.9851" y1="102.571" x2="99.8234" y2="-1.15345" gradientUnits="userSpaceOnUse">
<stop stop-color="#AB85FF"/>
<stop offset="0.526042" stop-color="#EBA3E3"/>
<stop offset="1" stop-color="#FFDBE4"/>
</linearGradient>
<linearGradient id="paint7_linear" x1="60.63" y1="107.148" x2="88.4825" y2="82.7125" gradientUnits="userSpaceOnUse">
<stop stop-color="#AB85FF"/>
<stop offset="0.526042" stop-color="#EBA3E3"/>
<stop offset="1" stop-color="#FFDBE4"/>
</linearGradient>
<linearGradient id="paint8_linear" x1="-8.49989" y1="6.46559" x2="-7.29061" y2="-7.42937" gradientUnits="userSpaceOnUse">
<stop stop-color="#AB85FF"/>
<stop offset="0.526042" stop-color="#EBA3E3"/>
<stop offset="1" stop-color="#FFDBE4"/>
</linearGradient>
<linearGradient id="paint9_linear" x1="-8.49989" y1="6.46559" x2="-7.29061" y2="-7.42937" gradientUnits="userSpaceOnUse">
<stop stop-color="#AB85FF"/>
<stop offset="0.526042" stop-color="#EBA3E3"/>
<stop offset="1" stop-color="#FFDBE4"/>
</linearGradient>
<linearGradient id="paint10_linear" x1="-8.49989" y1="6.46559" x2="-7.29061" y2="-7.42937" gradientUnits="userSpaceOnUse">
<stop stop-color="#AB85FF"/>
<stop offset="0.526042" stop-color="#EBA3E3"/>
<stop offset="1" stop-color="#FFDBE4"/>
</linearGradient>
<linearGradient id="paint11_linear" x1="-8.49989" y1="6.46559" x2="-7.29061" y2="-7.42937" gradientUnits="userSpaceOnUse">
<stop stop-color="#AB85FF"/>
<stop offset="0.526042" stop-color="#EBA3E3"/>
<stop offset="1" stop-color="#FFDBE4"/>
</linearGradient>
<linearGradient id="paint12_linear" x1="-8.49989" y1="6.46559" x2="-7.29061" y2="-7.42937" gradientUnits="userSpaceOnUse">
<stop stop-color="#AB85FF"/>
<stop offset="0.526042" stop-color="#EBA3E3"/>
<stop offset="1" stop-color="#FFDBE4"/>
</linearGradient>
<linearGradient id="paint13_linear" x1="-8.49989" y1="6.46559" x2="-7.29061" y2="-7.42937" gradientUnits="userSpaceOnUse">
<stop stop-color="#AB85FF"/>
<stop offset="0.526042" stop-color="#EBA3E3"/>
<stop offset="1" stop-color="#FFDBE4"/>
</linearGradient>
<linearGradient id="paint14_linear" x1="-10.9851" y1="102.571" x2="99.8234" y2="-1.15345" gradientUnits="userSpaceOnUse">
<stop stop-color="#AB85FF"/>
<stop offset="0.526042" stop-color="#EBA3E3"/>
<stop offset="1" stop-color="#FFDBE4"/>
</linearGradient>
<linearGradient id="paint15_linear" x1="147.06" y1="107.148" x2="174.912" y2="82.7125" gradientUnits="userSpaceOnUse">
<stop stop-color="#AB85FF"/>
<stop offset="0.526042" stop-color="#EBA3E3"/>
<stop offset="1" stop-color="#FFDBE4"/>
</linearGradient>
<linearGradient id="paint16_linear" x1="-8.49989" y1="6.46559" x2="-7.29061" y2="-7.42937" gradientUnits="userSpaceOnUse">
<stop stop-color="#AB85FF"/>
<stop offset="0.526042" stop-color="#EBA3E3"/>
<stop offset="1" stop-color="#FFDBE4"/>
</linearGradient>
<linearGradient id="paint17_linear" x1="-8.49989" y1="6.46559" x2="-7.29061" y2="-7.42937" gradientUnits="userSpaceOnUse">
<stop stop-color="#AB85FF"/>
<stop offset="0.526042" stop-color="#EBA3E3"/>
<stop offset="1" stop-color="#FFDBE4"/>
</linearGradient>
<linearGradient id="paint18_linear" x1="-8.49989" y1="6.46559" x2="-7.29061" y2="-7.42937" gradientUnits="userSpaceOnUse">
<stop stop-color="#AB85FF"/>
<stop offset="0.526042" stop-color="#EBA3E3"/>
<stop offset="1" stop-color="#FFDBE4"/>
</linearGradient>
<linearGradient id="paint19_linear" x1="-8.49989" y1="6.46559" x2="-7.29061" y2="-7.42937" gradientUnits="userSpaceOnUse">
<stop stop-color="#AB85FF"/>
<stop offset="0.526042" stop-color="#EBA3E3"/>
<stop offset="1" stop-color="#FFDBE4"/>
</linearGradient>
<linearGradient id="paint20_linear" x1="-8.49989" y1="6.46559" x2="-7.29061" y2="-7.42937" gradientUnits="userSpaceOnUse">
<stop stop-color="#AB85FF"/>
<stop offset="0.526042" stop-color="#EBA3E3"/>
<stop offset="1" stop-color="#FFDBE4"/>
</linearGradient>
<linearGradient id="paint21_linear" x1="-8.49989" y1="6.46559" x2="-7.29061" y2="-7.42937" gradientUnits="userSpaceOnUse">
<stop stop-color="#AB85FF"/>
<stop offset="0.526042" stop-color="#EBA3E3"/>
<stop offset="1" stop-color="#FFDBE4"/>
</linearGradient>
<linearGradient id="paint22_linear" x1="-10.9851" y1="102.571" x2="99.8234" y2="-1.15345" gradientUnits="userSpaceOnUse">
<stop stop-color="#AB85FF"/>
<stop offset="0.526042" stop-color="#EBA3E3"/>
<stop offset="1" stop-color="#FFDBE4"/>
</linearGradient>
<linearGradient id="paint23_linear" x1="233.489" y1="107.148" x2="261.342" y2="82.7125" gradientUnits="userSpaceOnUse">
<stop stop-color="#AB85FF"/>
<stop offset="0.526042" stop-color="#EBA3E3"/>
<stop offset="1" stop-color="#FFDBE4"/>
</linearGradient>
</defs>
</svg>
