<svg width="217" height="98" viewBox="0 0 217 98" fill="none" xmlns="http://www.w3.org/2000/svg">
<path d="M2.04688 95.686L0.546875 81.0419L48.5469 64.8958V62.6429H60.5469L68.5469 65.6468H74.0469V75.4096H76.5469V67.1488H83.0469V65.6468V64.8958H91.5469V40.8645L94.0469 38.987V24.7184C95.7135 22.09 102.147 16.8331 114.547 16.8331C115.347 6.61975 115.547 2.06381 115.547 1.0625L118.547 16.8331H125.047C128.214 18.0847 135.847 22.6907 141.047 31.1017C141.047 39.5127 141.047 42.8671 141.047 43.4929L144.547 45.7458V65.6468L152.547 68.6507V74.2831H156.047L165.547 92.3066V87.8007L168.547 87.0498V74.2831L170.547 73.5321V69.4017V67.1488H172.047V62.6429L176.047 60.0145L180.547 62.6429V67.1488H183.047V71.2792L185.047 72.7811V87.8007H188.047V92.3066V96.8125L193.547 92.3066V85.1723H198.047L201.547 78.038L205.047 85.1723H210.047V90.4292L216.547 96.0615" stroke="url(#paint0_linear)"/>
<defs>
<linearGradient id="paint0_linear" x1="-34.5891" y1="106.375" x2="35.3821" y2="-97.6676" gradientUnits="userSpaceOnUse">
<stop stop-color="#AB85FF"/>
<stop offset="0.526042" stop-color="#EBA3E3"/>
<stop offset="1" stop-color="#FFDBE4"/>
</linearGradient>
</defs>
</svg>
