<svg width="209" height="83" viewBox="0 0 209 83" fill="none" xmlns="http://www.w3.org/2000/svg">
<g clip-path="url(#clip0)">
<path d="M183.891 32.8299H180.636C180.363 31.9386 180.005 31.0777 179.571 30.2577L181.871 27.9577C182.363 27.4656 182.635 26.8099 182.635 26.1116C182.635 25.4143 182.363 24.7586 181.871 24.2664L179.41 21.8056C178.427 20.8221 176.705 20.8195 175.72 21.8056L173.42 24.1056C172.601 23.6716 171.739 23.3151 170.848 23.0412V19.7864C170.848 18.3482 169.677 17.1777 168.239 17.1777H164.761C163.323 17.1777 162.152 18.3482 162.152 19.7864V23.0421C161.261 23.316 160.4 23.6725 159.58 24.1064L157.279 21.8064C156.262 20.789 154.606 20.789 153.589 21.8064L151.127 24.2673C150.11 25.2847 150.11 26.9403 151.127 27.9577L153.427 30.2586C152.993 31.0777 152.637 31.9395 152.363 32.8308H149.109C147.67 32.8308 146.5 34.0012 146.5 35.4395V38.9177C146.5 40.3551 147.67 41.5256 149.109 41.5256H152.364C152.638 42.4169 152.995 43.2777 153.429 44.0977L151.129 46.3986C150.111 47.416 150.111 49.0716 151.129 50.089L153.59 52.5508C154.607 53.5673 156.263 53.5673 157.28 52.5508L159.581 50.2508C160.4 50.6847 161.262 51.0412 162.153 51.3151V54.569C162.153 56.0073 163.323 57.1777 164.762 57.1777H168.24C169.678 57.1777 170.849 56.0073 170.849 54.569V51.3134C171.74 51.0395 172.602 50.683 173.421 50.249L175.721 52.5499C176.707 53.5351 178.429 53.5334 179.411 52.5499L181.872 50.089C182.364 49.5969 182.636 48.9412 182.636 48.2438C182.636 47.5456 182.364 46.8908 181.872 46.3986L179.572 44.0977C180.006 43.2786 180.363 42.4169 180.637 41.5256H183.891C185.33 41.5256 186.5 40.3551 186.5 38.9169V35.4386C186.5 34.0003 185.33 32.8299 183.891 32.8299ZM184.761 38.9169C184.761 39.396 184.371 39.7864 183.891 39.7864H179.978C179.582 39.7864 179.236 40.0551 179.137 40.4386C178.829 41.6256 178.36 42.7586 177.742 43.8056C177.541 44.1473 177.596 44.5821 177.876 44.8621L180.641 47.6282C180.804 47.7916 180.895 48.0099 180.895 48.2438C180.895 48.4777 180.804 48.696 180.641 48.8595L178.18 51.3203C177.853 51.6473 177.277 51.6473 176.949 51.3203L174.183 48.5551C173.903 48.2743 173.469 48.2203 173.126 48.4212C172.081 49.0386 170.948 49.5082 169.76 49.8151C169.377 49.9134 169.109 50.2595 169.109 50.656V54.569C169.109 55.0482 168.719 55.4386 168.239 55.4386H164.761C164.282 55.4386 163.891 55.0482 163.891 54.569V50.656C163.891 50.2595 163.623 49.9134 163.239 49.8143C162.052 49.5073 160.919 49.0386 159.872 48.4203C159.735 48.3386 159.583 48.2995 159.43 48.2995C159.205 48.2995 158.983 48.3864 158.815 48.5543L156.05 51.3195C155.71 51.6586 155.158 51.6586 154.818 51.3195L152.357 48.8586C152.017 48.5186 152.017 47.9664 152.357 47.6273L155.123 44.8621C155.403 44.5812 155.458 44.1464 155.257 43.8056C154.639 42.7586 154.17 41.6264 153.863 40.4386C153.764 40.0551 153.418 39.7864 153.022 39.7864H149.109C148.63 39.7864 148.239 39.396 148.239 38.9169V35.4386C148.239 34.9595 148.63 34.569 149.109 34.569H153.022C153.418 34.569 153.764 34.3003 153.863 33.9169C154.17 32.7299 154.639 31.5969 155.257 30.5499C155.459 30.2082 155.404 29.7734 155.123 29.4934L152.358 26.7282C152.019 26.389 152.019 25.8369 152.358 25.4969L154.819 23.036C155.159 22.696 155.71 22.6969 156.05 23.036L158.816 25.8012C159.097 26.0821 159.53 26.1377 159.872 25.9351C160.919 25.3177 162.051 24.8482 163.239 24.5412C163.623 24.4421 163.891 24.096 163.891 23.6995V19.7864C163.891 19.3073 164.282 18.9169 164.761 18.9169H168.239C168.719 18.9169 169.109 19.3073 169.109 19.7864V23.6995C169.109 24.096 169.377 24.4421 169.761 24.5412C170.949 24.8482 172.082 25.3177 173.127 25.9351C173.47 26.1369 173.904 26.083 174.184 25.8012L176.95 23.036C177.277 22.7073 177.854 22.7082 178.181 23.036L180.642 25.4969C180.805 25.6603 180.896 25.8795 180.896 26.1125C180.896 26.3456 180.805 26.5647 180.642 26.7282L177.877 29.4934C177.597 29.7743 177.541 30.209 177.743 30.5499C178.361 31.5969 178.83 32.729 179.137 33.9169C179.236 34.3003 179.582 34.569 179.978 34.569H183.891C184.371 34.569 184.761 34.9595 184.761 35.4386V38.9169Z" fill="url(#paint0_linear)"/>
<path d="M166.5 29.3516C162.185 29.3516 158.674 32.8629 158.674 37.1776C158.674 41.4924 162.185 45.0037 166.5 45.0037C170.816 45.0037 174.326 41.4924 174.326 37.1776C174.326 32.8629 170.816 29.3516 166.5 29.3516ZM166.5 43.2646C163.143 43.2646 160.413 40.5342 160.413 37.1776C160.413 33.8211 163.143 31.0907 166.5 31.0907C169.856 31.0907 172.587 33.8211 172.587 37.1776C172.587 40.5342 169.856 43.2646 166.5 43.2646Z" fill="url(#paint1_linear)"/>
</g>
<g clip-path="url(#clip1)">
<path d="M46.3478 37.5667H43.6619C43.4367 36.8536 43.1418 36.1649 42.7838 35.5089L44.6813 33.6689C45.0874 33.2752 45.3112 32.7507 45.3112 32.1921C45.3112 31.6341 45.0874 31.1096 44.6813 30.7159L42.6511 28.7472C41.8397 27.9604 40.4193 27.9583 39.6065 28.7472L37.709 30.5872C37.0332 30.2401 36.3223 29.9548 35.587 29.7357V27.1319C35.587 25.9813 34.6213 25.0449 33.4348 25.0449H30.5652C29.3787 25.0449 28.413 25.9813 28.413 27.1319V29.7364C27.6777 29.9555 26.9675 30.2407 26.291 30.5879L24.3928 28.7479C23.5534 27.934 22.1875 27.934 21.3482 28.7479L19.3172 30.7166C18.4786 31.5305 18.4786 32.855 19.3172 33.6689L21.2147 35.5096C20.8568 36.1649 20.5626 36.8543 20.3367 37.5674H17.6522C16.4656 37.5674 15.5 38.5037 15.5 39.6543V42.4369C15.5 43.5868 16.4656 44.5232 17.6522 44.5232H20.3381C20.5641 45.2362 20.8582 45.9249 21.2162 46.5809L19.3187 48.4216C18.4793 49.2355 18.4793 50.5601 19.3187 51.374L21.3489 53.3434C22.1882 54.1566 23.5542 54.1566 24.3935 53.3434L26.2917 51.5034C26.9675 51.8505 27.6784 52.1357 28.4138 52.3548V54.958C28.4138 56.1086 29.3794 57.0449 30.5659 57.0449H33.4355C34.6221 57.0449 35.5877 56.1086 35.5877 54.958V52.3534C36.323 52.1343 37.0339 51.8491 37.7097 51.502L39.6072 53.3427C40.4207 54.1308 41.8412 54.1294 42.6518 53.3427L44.682 51.374C45.0881 50.9802 45.3119 50.4557 45.3119 49.8978C45.3119 49.3392 45.0881 48.8154 44.682 48.4216L42.7845 46.5809C43.1425 45.9256 43.4367 45.2362 43.6626 44.5232H46.3478C47.5344 44.5232 48.5 43.5868 48.5 42.4362V39.6536C48.5 38.503 47.5344 37.5667 46.3478 37.5667ZM47.0652 42.4362C47.0652 42.8195 46.7438 43.1319 46.3478 43.1319H43.1196C42.7924 43.1319 42.5069 43.3468 42.4251 43.6536C42.1712 44.6032 41.7845 45.5096 41.2744 46.3472C41.1087 46.6206 41.1539 46.9684 41.3849 47.1924L43.6662 49.4053C43.8011 49.5361 43.8757 49.7107 43.8757 49.8978C43.8757 50.0849 43.8011 50.2595 43.6662 50.3903L41.636 52.359C41.3663 52.6206 40.8906 52.6206 40.6202 52.359L38.3389 50.1468C38.1079 49.9221 37.7492 49.879 37.4665 50.0397C36.6042 50.5336 35.6695 50.9093 34.6895 51.1548C34.3738 51.2334 34.1522 51.5103 34.1522 51.8275V54.958C34.1522 55.3413 33.8308 55.6536 33.4348 55.6536H30.5652C30.1699 55.6536 29.8478 55.3413 29.8478 54.958V51.8275C29.8478 51.5103 29.6262 51.2334 29.3098 51.1541C28.3305 50.9086 27.3958 50.5336 26.532 50.039C26.4187 49.9736 26.2932 49.9423 26.1676 49.9423C25.9818 49.9423 25.7982 50.0119 25.6597 50.1461L23.3784 52.3583C23.0979 52.6296 22.6431 52.6296 22.3626 52.3583L20.3323 50.3896C20.0518 50.1176 20.0518 49.6759 20.3323 49.4046L22.6137 47.1924C22.8454 46.9677 22.8906 46.6199 22.7241 46.3472C22.2148 45.5096 21.8274 44.6039 21.5742 43.6536C21.4931 43.3468 21.2076 43.1319 20.8804 43.1319H17.6522C17.2569 43.1319 16.9348 42.8195 16.9348 42.4362V39.6536C16.9348 39.2703 17.2569 38.958 17.6522 38.958H20.8804C21.2076 38.958 21.4931 38.743 21.5749 38.4362C21.8281 37.4867 22.2148 36.5802 22.7248 35.7427C22.8913 35.4693 22.8461 35.1214 22.6144 34.8974L20.3331 32.6853C20.0533 32.414 20.0533 31.9722 20.3331 31.7002L22.3633 29.7315C22.6438 29.4595 23.0986 29.4602 23.3791 29.7315L25.6604 31.9437C25.8921 32.1684 26.2501 32.2129 26.532 32.0508C27.3958 31.5569 28.3298 31.1813 29.3098 30.9357C29.6262 30.8564 29.8478 30.5795 29.8478 30.2623V27.1319C29.8478 26.7486 30.1699 26.4362 30.5652 26.4362H33.4348C33.8308 26.4362 34.1522 26.7486 34.1522 27.1319V30.2623C34.1522 30.5795 34.3738 30.8564 34.6902 30.9357C35.6702 31.1813 36.6049 31.5569 37.4672 32.0508C37.7499 32.2122 38.1086 32.1691 38.3396 31.9437L40.6209 29.7315C40.8913 29.4686 41.367 29.4693 41.6367 29.7315L43.6669 31.7002C43.8018 31.831 43.8764 32.0063 43.8764 32.1927C43.8764 32.3792 43.8018 32.5545 43.6669 32.6853L41.3856 34.8974C41.1546 35.1221 41.1087 35.47 41.2752 35.7427C41.7852 36.5802 42.1719 37.486 42.4258 38.4362C42.5069 38.743 42.7924 38.958 43.1196 38.958H46.3478C46.7438 38.958 47.0652 39.2703 47.0652 39.6536V42.4362Z" fill="url(#paint2_linear)"/>
<path d="M31.9995 34.7832C28.4398 34.7832 25.543 37.5922 25.543 41.0441C25.543 44.4959 28.4398 47.3049 31.9995 47.3049C35.5599 47.3049 38.456 44.4959 38.456 41.0441C38.456 37.5922 35.5599 34.7832 31.9995 34.7832ZM31.9995 45.9136C29.2304 45.9136 26.9778 43.7293 26.9778 41.0441C26.9778 38.3589 29.2304 36.1745 31.9995 36.1745C34.7679 36.1745 37.0212 38.3589 37.0212 41.0441C37.0212 43.7293 34.7679 45.9136 31.9995 45.9136Z" fill="url(#paint3_linear)"/>
</g>
<path d="M64.0393 13.7422H0.972234V68.349H64.0393M64.0393 13.7422V68.349M64.0393 13.7422L75.6016 17.1766V64.2277L64.0393 68.349" stroke="url(#paint4_linear)"/>
<path d="M126.115 1H208.025V73.354H126.115M126.115 1V73.354M126.115 1L111.098 5.55057V67.8934L126.115 73.354" stroke="url(#paint5_linear)"/>
<path d="M98.7011 37.4043H150.232V81.9999H98.7011L89.2539 78.6342V40.2091L98.7011 37.4043Z" fill="white"/>
<path d="M98.7011 37.4043H150.232V81.9999H98.7011M98.7011 37.4043V81.9999M98.7011 37.4043L89.2539 40.2091V78.6342L98.7011 81.9999" stroke="url(#paint6_linear)"/>
<g clip-path="url(#clip2)">
<path d="M132.598 57.3118H130.726C130.569 56.8216 130.363 56.3481 130.114 55.8971L131.436 54.6321C131.719 54.3614 131.875 54.0008 131.875 53.6168C131.875 53.2332 131.719 52.8726 131.436 52.6019L130.021 51.2484C129.456 50.7075 128.466 50.7061 127.899 51.2484L126.577 52.5134C126.106 52.2748 125.61 52.0787 125.098 51.928V50.1379C125.098 49.3469 124.425 48.7031 123.598 48.7031H121.598C120.771 48.7031 120.098 49.3469 120.098 50.1379V51.9285C119.585 52.0792 119.09 52.2753 118.619 52.5139L117.296 51.2489C116.711 50.6893 115.759 50.6893 115.174 51.2489L113.758 52.6024C113.174 53.162 113.174 54.0726 113.758 54.6321L115.081 55.8976C114.831 56.3481 114.626 56.8221 114.469 57.3123H112.598C111.771 57.3123 111.098 57.956 111.098 58.7471V60.6601C111.098 61.4507 111.771 62.0944 112.598 62.0944H114.47C114.627 62.5846 114.832 63.0581 115.082 63.5091L113.759 64.7746C113.174 65.3342 113.174 66.2448 113.759 66.8043L115.174 68.1583C115.759 68.7174 116.711 68.7174 117.296 68.1583L118.619 66.8933C119.09 67.132 119.586 67.328 120.098 67.4787V69.2683C120.098 70.0594 120.771 70.7031 121.598 70.7031H123.598C124.425 70.7031 125.098 70.0594 125.098 69.2683V67.4777C125.611 67.3271 126.106 67.131 126.577 66.8923L127.9 68.1578C128.467 68.6997 129.457 68.6987 130.022 68.1578L131.437 66.8043C131.72 66.5336 131.876 66.173 131.876 65.7895C131.876 65.4054 131.72 65.0453 131.437 64.7746L130.114 63.5091C130.364 63.0586 130.569 62.5846 130.726 62.0944H132.598C133.425 62.0944 134.098 61.4507 134.098 60.6596V58.7466C134.098 57.9556 133.425 57.3118 132.598 57.3118ZM133.098 60.6596C133.098 60.9232 132.874 61.1379 132.598 61.1379H130.348C130.12 61.1379 129.921 61.2857 129.864 61.4966C129.687 62.1494 129.417 62.7726 129.062 63.3484C128.946 63.5364 128.978 63.7755 129.139 63.9295L130.729 65.4509C130.823 65.5408 130.875 65.6608 130.875 65.7895C130.875 65.9181 130.823 66.0382 130.729 66.1281L129.314 67.4816C129.126 67.6614 128.794 67.6614 128.606 67.4816L127.016 65.9607C126.855 65.8062 126.605 65.7766 126.408 65.887C125.807 66.2266 125.155 66.4849 124.472 66.6537C124.252 66.7077 124.098 66.8981 124.098 67.1162V69.2683C124.098 69.5319 123.874 69.7466 123.598 69.7466H121.598C121.322 69.7466 121.098 69.5319 121.098 69.2683V67.1162C121.098 66.8981 120.943 66.7077 120.723 66.6532C120.04 66.4844 119.389 66.2266 118.787 65.8866C118.708 65.8416 118.62 65.8201 118.533 65.8201C118.403 65.8201 118.275 65.8679 118.179 65.9602L116.589 67.4811C116.393 67.6676 116.076 67.6676 115.881 67.4811L114.466 66.1276C114.27 65.9406 114.27 65.6369 114.466 65.4504L116.056 63.9295C116.217 63.775 116.249 63.5359 116.133 63.3484C115.778 62.7726 115.508 62.1499 115.331 61.4966C115.275 61.2857 115.076 61.1379 114.848 61.1379H112.598C112.322 61.1379 112.098 60.9232 112.098 60.6596V58.7466C112.098 58.4831 112.322 58.2683 112.598 58.2683H114.848C115.076 58.2683 115.275 58.1206 115.332 57.9096C115.508 57.2568 115.778 56.6336 116.133 56.0578C116.249 55.8699 116.218 55.6307 116.056 55.4767L114.466 53.9559C114.271 53.7693 114.271 53.4656 114.466 53.2786L115.881 51.9252C116.077 51.7382 116.394 51.7386 116.589 51.9252L118.179 53.446C118.341 53.6005 118.59 53.6311 118.787 53.5197C119.389 53.1801 120.04 52.9219 120.723 52.753C120.943 52.6985 121.098 52.5082 121.098 52.2901V50.1379C121.098 49.8744 121.322 49.6596 121.598 49.6596H123.598C123.874 49.6596 124.098 49.8744 124.098 50.1379V52.2901C124.098 52.5082 124.252 52.6985 124.473 52.753C125.156 52.9219 125.807 53.1801 126.408 53.5197C126.605 53.6306 126.855 53.601 127.016 53.446L128.606 51.9252C128.795 51.7444 129.126 51.7449 129.314 51.9252L130.729 53.2786C130.823 53.3686 130.875 53.4891 130.875 53.6173C130.875 53.7454 130.823 53.866 130.729 53.9559L129.139 55.4767C128.978 55.6312 128.946 55.8703 129.062 56.0578C129.418 56.6336 129.687 57.2563 129.864 57.9096C129.921 58.1206 130.12 58.2683 130.348 58.2683H132.598C132.874 58.2683 133.098 58.4831 133.098 58.7466V60.6596Z" fill="url(#paint7_linear)"/>
<path d="M122.598 55.3984C120.117 55.3984 118.098 57.3297 118.098 59.7028C118.098 62.0759 120.117 64.0071 122.598 64.0071C125.079 64.0071 127.098 62.0759 127.098 59.7028C127.098 57.3297 125.079 55.3984 122.598 55.3984ZM122.598 63.0506C120.668 63.0506 119.098 61.5489 119.098 59.7028C119.098 57.8567 120.668 56.355 122.598 56.355C124.527 56.355 126.098 57.8567 126.098 59.7028C126.098 61.5489 124.527 63.0506 122.598 63.0506Z" fill="url(#paint8_linear)"/>
</g>
<defs>
<linearGradient id="paint0_linear" x1="139.993" y1="61.1725" x2="186.098" y2="1.57496" gradientUnits="userSpaceOnUse">
<stop stop-color="#AB85FF"/>
<stop offset="0.526042" stop-color="#EBA3E3"/>
<stop offset="1" stop-color="#FFDBE4"/>
</linearGradient>
<linearGradient id="paint1_linear" x1="156.128" y1="46.5669" x2="174.169" y2="23.2461" gradientUnits="userSpaceOnUse">
<stop stop-color="#AB85FF"/>
<stop offset="0.526042" stop-color="#EBA3E3"/>
<stop offset="1" stop-color="#FFDBE4"/>
</linearGradient>
<linearGradient id="paint2_linear" x1="10.132" y1="60.2407" x2="46.7153" y2="11.4729" gradientUnits="userSpaceOnUse">
<stop stop-color="#AB85FF"/>
<stop offset="0.526042" stop-color="#EBA3E3"/>
<stop offset="1" stop-color="#FFDBE4"/>
</linearGradient>
<linearGradient id="paint3_linear" x1="23.4424" y1="48.5555" x2="37.7577" y2="29.4724" gradientUnits="userSpaceOnUse">
<stop stop-color="#AB85FF"/>
<stop offset="0.526042" stop-color="#EBA3E3"/>
<stop offset="1" stop-color="#FFDBE4"/>
</linearGradient>
<linearGradient id="paint4_linear" x1="87.7413" y1="73.8026" x2="31.9896" y2="-24.6907" gradientUnits="userSpaceOnUse">
<stop stop-color="#AB85FF"/>
<stop offset="0.526042" stop-color="#EBA3E3"/>
<stop offset="1" stop-color="#FFDBE4"/>
</linearGradient>
<linearGradient id="paint5_linear" x1="95.3308" y1="80.58" x2="169.955" y2="-48.6447" gradientUnits="userSpaceOnUse">
<stop stop-color="#AB85FF"/>
<stop offset="0.526042" stop-color="#EBA3E3"/>
<stop offset="1" stop-color="#FFDBE4"/>
</linearGradient>
<linearGradient id="paint6_linear" x1="79.3349" y1="86.4536" x2="124.854" y2="5.99805" gradientUnits="userSpaceOnUse">
<stop stop-color="#AB85FF"/>
<stop offset="0.526042" stop-color="#EBA3E3"/>
<stop offset="1" stop-color="#FFDBE4"/>
</linearGradient>
<linearGradient id="paint7_linear" x1="107.356" y1="72.9003" x2="132.409" y2="39.0433" gradientUnits="userSpaceOnUse">
<stop stop-color="#AB85FF"/>
<stop offset="0.526042" stop-color="#EBA3E3"/>
<stop offset="1" stop-color="#FFDBE4"/>
</linearGradient>
<linearGradient id="paint8_linear" x1="116.634" y1="64.8669" x2="126.437" y2="51.6185" gradientUnits="userSpaceOnUse">
<stop stop-color="#AB85FF"/>
<stop offset="0.526042" stop-color="#EBA3E3"/>
<stop offset="1" stop-color="#FFDBE4"/>
</linearGradient>
<clipPath id="clip0">
<rect width="40" height="40" fill="white" transform="translate(146.5 17.1777)"/>
</clipPath>
<clipPath id="clip1">
<rect width="33" height="32" fill="white" transform="translate(15.5 25.0449)"/>
</clipPath>
<clipPath id="clip2">
<rect width="23" height="22" fill="white" transform="translate(111.098 48.7031)"/>
</clipPath>
</defs>
</svg>
