<svg width="172" height="76" viewBox="0 0 172 76" fill="none" xmlns="http://www.w3.org/2000/svg">
<rect x="0.5" y="17.4004" width="85.3129" height="14.2189" fill="url(#paint0_linear)"/>
<rect x="23.1211" y="41.1484" width="62.6926" height="7.27558" fill="url(#paint1_linear)"/>
<path d="M85.8125 61.8784V1.24219L114.783 1.24219V61.8784H85.8125Z" stroke="url(#paint2_linear)" stroke-width="1.46032"/>
<path d="M134.32 42.3395V25.4961L170.702 25.4961V42.3395H134.32Z" stroke="url(#paint3_linear)" stroke-width="1.46032"/>
<path d="M133.985 30.2129L124.89 30.2129V68.9527H102.656V62.2153" stroke="url(#paint4_linear)" stroke-width="1.46032"/>
<path d="M95.582 62.2153V74.3426H129.606V37.2871H133.985" stroke="url(#paint5_linear)" stroke-width="1.46032"/>
<defs>
<linearGradient id="paint0_linear" x1="-13.3776" y1="33.0394" x2="-9.08279" y2="-0.270615" gradientUnits="userSpaceOnUse">
<stop stop-color="#AB85FF"/>
<stop offset="0.526042" stop-color="#EBA3E3"/>
<stop offset="1" stop-color="#FFDBE4"/>
</linearGradient>
<linearGradient id="paint1_linear" x1="12.9231" y1="49.1506" x2="14.4663" y2="31.9617" gradientUnits="userSpaceOnUse">
<stop stop-color="#AB85FF"/>
<stop offset="0.526042" stop-color="#EBA3E3"/>
<stop offset="1" stop-color="#FFDBE4"/>
</linearGradient>
<linearGradient id="paint2_linear" x1="117.676" y1="-8.62131" x2="56.9728" y2="13.8151" gradientUnits="userSpaceOnUse">
<stop stop-color="#AB85FF"/>
<stop offset="0.526042" stop-color="#EBA3E3"/>
<stop offset="1" stop-color="#FFDBE4"/>
</linearGradient>
<linearGradient id="paint3_linear" x1="174.335" y1="22.7562" x2="151.486" y2="60.9362" gradientUnits="userSpaceOnUse">
<stop stop-color="#AB85FF"/>
<stop offset="0.526042" stop-color="#EBA3E3"/>
<stop offset="1" stop-color="#FFDBE4"/>
</linearGradient>
<linearGradient id="paint4_linear" x1="137.114" y1="23.9112" x2="83.4891" y2="57.459" gradientUnits="userSpaceOnUse">
<stop stop-color="#AB85FF"/>
<stop offset="0.526042" stop-color="#EBA3E3"/>
<stop offset="1" stop-color="#FFDBE4"/>
</linearGradient>
<linearGradient id="paint5_linear" x1="137.82" y1="31.2594" x2="82.1457" y2="75.8951" gradientUnits="userSpaceOnUse">
<stop stop-color="#AB85FF"/>
<stop offset="0.526042" stop-color="#EBA3E3"/>
<stop offset="1" stop-color="#FFDBE4"/>
</linearGradient>
</defs>
</svg>
