<svg width="341" height="180" fill="none" xmlns="http://www.w3.org/2000/svg">
  <g clip-path="url(#clip0)">
    <path d="M66.5 34.3L138.3 146l71.9-111.8H66.5zM96.3 34v73m0 0l-1-2m1 2l1-2M112.3 34v102m0 0l-1-2.8m1 2.8l1-2.8M80.3 34v46m0 0l-1-1.3m1 1.3l1-1.3M128.3 34v33m0 0l-1-.9m1 .9l1-.9" stroke="#000"/>
    <circle cx="172.7" cy="95.1" r="31.9" fill="#B491FF"/>
    <circle cx="227.8" cy="70.3" r="13.3" fill="#A57CFE"/>
    <circle cx="259.6" cy="76.4" r="8.6" fill="#8052E4"/>
    <circle cx="218.8" cy="104.4" r="2.8" fill="#31D67B"/>
    <circle cx="230.1" cy="104.4" r="2.8" fill="#31D67B"/>
    <circle cx="241.4" cy="104.4" r="2.8" fill="#31D67B"/>
    <circle cx="252.7" cy="104.4" r="2.8" fill="#31D67B"/>
    <circle cx="218.8" cy="115.7" r="2.8" fill="#31D67B"/>
    <circle cx="230.1" cy="115.7" r="2.8" fill="#31D67B"/>
    <circle cx="241.4" cy="115.7" r="2.8" fill="#31D67B"/>
    <circle cx="252.7" cy="115.7" r="2.8" fill="#31D67B"/>
    <circle cx="252.7" cy="127" r="2.8" fill="#31D67B"/>
    <circle cx="241.4" cy="127" r="2.8" fill="#31D67B"/>
    <circle cx="230.1" cy="127" r="2.8" fill="#31D67B"/>
    <circle cx="218.8" cy="127" r="2.8" fill="#31D67B"/>
    <circle cx="218.8" cy="127" r="2.8" fill="#31D67B"/>
    <circle cx="230.1" cy="127" r="2.8" fill="#31D67B"/>
    <circle cx="241.4" cy="127" r="2.8" fill="#31D67B"/>
    <circle cx="252.7" cy="127" r="2.8" fill="#31D67B"/>
    <circle cx="218.8" cy="138.3" r="2.8" fill="#31D67B"/>
    <circle cx="230.1" cy="138.3" r="2.8" fill="#31D67B"/>
    <circle cx="241.4" cy="138.3" r="2.8" fill="#31D67B"/>
    <circle cx="252.7" cy="138.3" r="2.8" fill="#31D67B"/>
    <circle cx="252.7" cy="149.6" r="2.8" fill="#31D67B"/>
    <circle cx="241.4" cy="149.6" r="2.8" fill="#31D67B"/>
    <circle cx="230.1" cy="149.6" r="2.8" fill="#31D67B"/>
    <circle cx="218.8" cy="149.6" r="2.8" fill="#31D67B"/>
  </g>
  <defs>
    <clipPath id="clip0">
      <path fill="#fff" d="M0 0h341v180H0z"/>
    </clipPath>
  </defs>
</svg>
