<svg width="341" height="180" fill="none" xmlns="http://www.w3.org/2000/svg">
  <g clip-path="url(#clip0)">
    <rect x="138" y="20.5" width="139" height="139" rx="69.5" fill="#AB85FF"/>
    <path d="M137.7 49.41l-.68-.73.68.73zm15.48 0l-.69.73.69-.73zm0 23.44l-.68-.73.68.73zm-15.48 0l-.69.73.69-.73zm3.72-3.52l-.68.74.02.01.66-.75zm8.08 0l.66.75.02-.01-.68-.74zm0-16.36l-.68.74.02.01.66-.75zm-8.08 0l.67.75v-.01l-.67-.74zm-5.8 12.68v-9.04h-2v9.04h2zm0-9.04c0-2.6.91-4.74 2.76-6.47L137 48.68a10.45 10.45 0 00-3.4 7.93h2zm2.75-6.46a10 10 0 017.09-2.62v-2a12 12 0 00-8.44 3.15l1.35 1.47zm7.09-2.62c2.86 0 5.19.88 7.03 2.61l1.37-1.46a11.86 11.86 0 00-8.4-3.15v2zm7.04 2.62a8.4 8.4 0 012.8 6.46h2c0-3.15-1.16-5.82-3.45-7.93l-1.35 1.47zm2.8 6.46v9.04h2v-9.04h-2zm0 9.04a8.4 8.4 0 01-2.8 6.47l1.35 1.47a10.39 10.39 0 003.45-7.94h-2zm-2.8 6.47a9.86 9.86 0 01-7.04 2.61v2c3.32 0 6.14-1.04 8.4-3.15l-1.37-1.46zm-7.04 2.61a10 10 0 01-7.09-2.61l-1.35 1.47a12 12 0 008.44 3.14v-2zm-7.08-2.6a8.45 8.45 0 01-2.76-6.48h-2c0 3.15 1.13 5.82 3.4 7.93l1.36-1.46zm.44-15.6v9.2h2v-9.2h-2zm0 9.2c0 1.7.65 3.17 1.92 4.34l1.36-1.47a3.72 3.72 0 01-1.28-2.87h-2zm1.94 4.35a6.9 6.9 0 004.7 1.7v-2a4.9 4.9 0 01-3.38-1.2l-1.32 1.5zm4.7 1.7a6.9 6.9 0 004.7-1.7l-1.32-1.5c-.9.78-2 1.2-3.38 1.2v2zm4.72-1.71a5.75 5.75 0 001.96-4.34h-2c0 1.09-.42 2.03-1.32 2.87l1.36 1.47zm1.96-4.34v-9.2h-2v9.2h2zm0-9.2c0-1.7-.68-3.17-1.98-4.31l-1.32 1.5c.88.78 1.3 1.7 1.3 2.81h2zm-1.96-4.3a6.72 6.72 0 00-4.72-1.74v2c1.4 0 2.5.42 3.36 1.22l1.36-1.47zm-4.72-1.74c-1.85 0-3.45.57-4.72 1.75l1.36 1.47a4.72 4.72 0 013.36-1.22v-2zm-4.71 1.74a5.6 5.6 0 00-1.93 4.3h2a3.6 3.6 0 011.27-2.81l-1.34-1.5zm36.34 1.26h1v-1.61l-1.45.72.45.9zm-4.84 2.4l-.9.43.43.92.91-.45-.44-.9zm-2.16-4.56l-.45-.9-.88.44.42.89.9-.43zm8.48-4.2v-1h-.24l-.2.1.44.9zm3.72 0h1v-1h-1v1zm0 28v1h1v-1h-1zm-5.2 0h-1v1h1v-1zm-.45-22.53L171.8 55l.89 1.79 4.84-2.4-.89-1.8zm-3.49 2.86l-2.16-4.56-1.8.86 2.15 4.56 1.81-.86zm-2.62-3.23l8.48-4.2-.89-1.8-8.48 4.2.89 1.8zm8.04-4.1h3.72v-2h-3.72v2zm2.72-1v28h2v-28h-2zm1 27h-5.2v2h5.2v-2zm-4.2 1V53.5h-2v21.64h2zm23.6-25.72l-.69-.73.68.73zm15.47 0l-.68.73.68-.73zm0 23.44l-.68-.73.68.73zm-15.48 0l-.68.73.68-.73zm3.72-3.52l-.68.74h.01l.01.01.66-.75zm8.08 0l.66.75h.01l.01-.01-.68-.74zm0-16.36l-.68.74h.01l.01.01.66-.75zm-8.08 0l.67.75.01-.01-.68-.74zm-5.8 12.68v-9.04h-2v9.04h2zm0-9.04c0-2.6.92-4.74 2.76-6.47L201 48.68a10.45 10.45 0 00-3.4 7.93h2zm2.76-6.46a10.01 10.01 0 017.08-2.62v-2a12 12 0 00-8.44 3.15l1.36 1.47zm7.08-2.62c2.87 0 5.19.88 7.04 2.61l1.36-1.46a11.86 11.86 0 00-8.4-3.15v2zm7.04 2.62a8.4 8.4 0 012.8 6.46h2c0-3.15-1.15-5.82-3.44-7.93l-1.36 1.47zm2.8 6.46v9.04h2v-9.04h-2zm0 9.04a8.4 8.4 0 01-2.8 6.47l1.36 1.47a10.39 10.39 0 003.44-7.94h-2zm-2.8 6.47a9.87 9.87 0 01-7.04 2.61v2c3.32 0 6.15-1.04 8.4-3.15l-1.36-1.46zm-7.04 2.61c-2.87 0-5.2-.88-7.08-2.61L201 73.59a12 12 0 008.44 3.14v-2zm-7.08-2.6a8.45 8.45 0 01-2.76-6.48h-2c0 3.15 1.14 5.82 3.4 7.93l1.36-1.46zm.44-15.6v9.2h2v-9.2h-2zm0 9.2c0 1.7.66 3.17 1.92 4.34l1.36-1.47a3.72 3.72 0 01-1.28-2.87h-2zm1.94 4.35a6.9 6.9 0 004.7 1.7v-2a4.9 4.9 0 01-3.38-1.2l-1.32 1.5zm4.7 1.7a6.9 6.9 0 004.7-1.7l-1.32-1.5c-.9.78-2 1.2-3.38 1.2v2zm4.72-1.71a5.75 5.75 0 001.96-4.34h-2c0 1.09-.41 2.03-1.32 2.87l1.36 1.47zm1.96-4.34v-9.2h-2v9.2h2zm0-9.2c0-1.7-.68-3.17-1.98-4.31l-1.32 1.5c.89.78 1.3 1.7 1.3 2.81h2zm-1.96-4.3a6.72 6.72 0 00-4.72-1.74v2c1.4 0 2.5.42 3.36 1.22l1.36-1.47zm-4.72-1.74c-1.84 0-3.44.57-4.72 1.75l1.36 1.47a4.72 4.72 0 013.36-1.22v-2zm-4.7 1.74a5.6 5.6 0 00-1.94 4.3h2c0-1.12.41-2.04 1.27-2.81l-1.34-1.5zm36.33 1.26h1v-1.61l-1.44.72.44.9zm-4.84 2.4l-.9.43.43.92.92-.45-.45-.9zm-2.16-4.56l-.44-.9-.88.44.42.89.9-.43zm8.48-4.2v-1h-.23l-.21.1.44.9zm3.72 0h1v-1h-1v1zm0 28v1h1v-1h-1zm-5.2 0h-1v1h1v-1zm-.44-22.53l-4.84 2.4.89 1.79 4.83-2.4-.88-1.8zm-3.5 2.86l-2.16-4.56-1.8.86 2.16 4.56 1.8-.86zm-2.62-3.23l8.48-4.2-.88-1.8-8.48 4.2.88 1.8zm8.04-4.1h3.72v-2h-3.72v2zm2.72-1v28h2v-28h-2zm1 27h-5.2v2h5.2v-2zm-4.2 1V53.5h-2v21.64h2zm23.6-25.72l-.68-.73.68.73zm15.47 0l-.68.73.69-.73zm0 23.44l-.67-.73.67.73zm-15.47 0l-.69.73.69-.73zm3.71-3.52l-.67.74.02.01.65-.75zm8.08 0l.67.75.01-.01-.68-.74zm0-16.36l-.67.74.01.01.66-.75zm-8.07 0l.66.75.01-.01-.68-.74zm-5.8 12.68v-9.04h-2v9.04h2zm0-9.04c0-2.6.91-4.74 2.76-6.47l-1.37-1.46a10.45 10.45 0 00-3.4 7.93h2zm2.75-6.46a10 10 0 017.09-2.62v-2a12 12 0 00-8.44 3.15l1.35 1.47zm7.09-2.62c2.86 0 5.18.88 7.03 2.61l1.37-1.46a11.86 11.86 0 00-8.4-3.15v2zm7.04 2.62a8.4 8.4 0 012.8 6.46h2c0-3.15-1.16-5.82-3.45-7.93l-1.35 1.47zm2.8 6.46v9.04h2v-9.04h-2zm0 9.04a8.4 8.4 0 01-2.8 6.47l1.35 1.47a10.39 10.39 0 003.44-7.94h-2zm-2.8 6.47a9.87 9.87 0 01-7.05 2.61v2c3.32 0 6.15-1.04 8.4-3.15l-1.36-1.46zm-7.05 2.61a10 10 0 01-7.08-2.61L265 73.59a12 12 0 008.44 3.14v-2zm-7.07-2.6a8.45 8.45 0 01-2.77-6.48h-2c0 3.15 1.14 5.82 3.4 7.93l1.37-1.46zm.44-15.6v9.2h2v-9.2h-2zm0 9.2c0 1.7.65 3.17 1.92 4.34l1.35-1.47a3.73 3.73 0 01-1.27-2.87h-2zm1.94 4.35a6.9 6.9 0 004.7 1.7v-2a4.9 4.9 0 01-3.38-1.2l-1.32 1.5zm4.7 1.7a6.9 6.9 0 004.7-1.7l-1.32-1.5c-.9.78-2 1.2-3.38 1.2v2zm4.71-1.71a5.75 5.75 0 001.97-4.34h-2c0 1.09-.42 2.03-1.32 2.87l1.35 1.47zm1.97-4.34v-9.2h-2v9.2h2zm0-9.2c0-1.7-.68-3.17-1.99-4.31l-1.31 1.5c.88.78 1.3 1.7 1.3 2.81h2zm-1.97-4.3a6.72 6.72 0 00-4.71-1.74v2c1.4 0 2.5.42 3.36 1.22l1.35-1.47zm-4.71-1.74c-1.85 0-3.45.57-4.72 1.75l1.35 1.47a4.72 4.72 0 013.37-1.22v-2zm-4.71 1.74a5.6 5.6 0 00-1.94 4.3h2a3.6 3.6 0 011.27-2.81l-1.33-1.5zM137.7 109.4l-.68-.73.68.73zm15.48 0l-.69.73.69-.73zm0 23.44l-.68-.73.68.73zm-15.48 0l-.69.73.69-.73zm3.72-3.52l-.68.74.02.01.66-.75zm8.08 0l.66.75.02-.02-.68-.73zm0-16.36l-.68.74.02.01.66-.75zm-8.08 0l.67.75v-.01l-.67-.74zm-5.8 12.68v-9.04h-2v9.04h2zm0-9.04c0-2.6.91-4.74 2.76-6.47l-1.37-1.46a10.45 10.45 0 00-3.4 7.93h2zm2.75-6.46a10 10 0 017.09-2.62v-2a12 12 0 00-8.44 3.15l1.35 1.47zm7.09-2.62c2.86 0 5.19.88 7.03 2.61l1.37-1.46a11.86 11.86 0 00-8.4-3.15v2zm7.04 2.62a8.4 8.4 0 012.8 6.46h2c0-3.15-1.16-5.82-3.45-7.93l-1.35 1.47zm2.8 6.46v9.04h2v-9.04h-2zm0 9.04a8.4 8.4 0 01-2.8 6.47l1.35 1.47a10.39 10.39 0 003.45-7.94h-2zm-2.8 6.47a9.86 9.86 0 01-7.04 2.61v2c3.32 0 6.14-1.04 8.4-3.15l-1.37-1.46zm-7.04 2.61a10 10 0 01-7.09-2.61l-1.35 1.47a12 12 0 008.44 3.14v-2zm-7.08-2.6a8.45 8.45 0 01-2.76-6.48h-2c0 3.15 1.13 5.82 3.4 7.93l1.36-1.46zm.44-15.6v9.2h2v-9.2h-2zm0 9.2c0 1.7.65 3.17 1.92 4.34l1.36-1.47a3.72 3.72 0 01-1.28-2.87h-2zm1.94 4.35a6.9 6.9 0 004.7 1.7v-2a4.9 4.9 0 01-3.38-1.2l-1.32 1.5zm4.7 1.7a6.9 6.9 0 004.7-1.7l-1.32-1.5c-.9.78-2 1.2-3.38 1.2v2zm4.72-1.72a5.75 5.75 0 001.96-4.33h-2c0 1.09-.42 2.03-1.32 2.87l1.36 1.47zm1.96-4.33v-9.2h-2v9.2h2zm0-9.2c0-1.7-.68-3.17-1.98-4.31l-1.32 1.5c.88.78 1.3 1.7 1.3 2.81h2zm-1.96-4.3a6.72 6.72 0 00-4.72-1.74v2c1.4 0 2.5.42 3.36 1.22l1.36-1.47zm-4.72-1.74c-1.85 0-3.45.57-4.72 1.75l1.36 1.47a4.72 4.72 0 013.36-1.22v-2zm-4.71 1.74a5.6 5.6 0 00-1.93 4.3h2a3.6 3.6 0 011.27-2.81l-1.34-1.5zm36.34 1.26h1v-1.61l-1.45.72.45.9zm-4.84 2.4l-.9.43.43.92.91-.45-.44-.9zm-2.16-4.56l-.45-.9-.88.44.42.89.9-.43zm8.48-4.2v-1h-.24l-.2.1.44.9zm3.72 0h1v-1h-1v1zm0 28v1h1v-1h-1zm-5.2 0h-1v1h1v-1zm-.45-22.53l-4.84 2.4.89 1.79 4.84-2.4-.89-1.8zm-3.49 2.86l-2.16-4.56-1.8.86 2.15 4.56 1.81-.86zm-2.62-3.23l8.48-4.2-.89-1.8-8.48 4.2.89 1.8zm8.04-4.1h3.72v-2h-3.72v2zm2.72-1v28h2v-28h-2zm1 27h-5.2v2h5.2v-2zm-4.2 1V113.5h-2v21.64h2zm23.6-25.72l-.69-.73.68.73zm15.47 0l-.68.73.68-.73zm0 23.44l-.68-.73.68.73zm-15.48 0l-.68.73.68-.73zm3.72-3.52l-.68.74h.01l.01.01.66-.75zm8.08 0l.66.75h.01l.01-.02-.68-.73zm0-16.36l-.68.74h.01l.01.01.66-.75zm-8.08 0l.67.75.01-.01-.68-.74zm-5.8 12.68v-9.04h-2v9.04h2zm0-9.04c0-2.6.92-4.74 2.76-6.47l-1.36-1.46a10.45 10.45 0 00-3.4 7.93h2zm2.76-6.46a10.01 10.01 0 017.08-2.62v-2a12 12 0 00-8.44 3.15l1.36 1.47zm7.08-2.62c2.87 0 5.19.88 7.04 2.61l1.36-1.46a11.86 11.86 0 00-8.4-3.15v2zm7.04 2.62a8.4 8.4 0 012.8 6.46h2c0-3.15-1.15-5.82-3.44-7.93l-1.36 1.47zm2.8 6.46v9.04h2v-9.04h-2zm0 9.04a8.4 8.4 0 01-2.8 6.47l1.36 1.47a10.4 10.4 0 003.44-7.94h-2zm-2.8 6.47a9.87 9.87 0 01-7.04 2.61v2c3.32 0 6.15-1.04 8.4-3.15l-1.36-1.46zm-7.04 2.61c-2.87 0-5.2-.88-7.08-2.61l-1.36 1.47a12 12 0 008.44 3.14v-2zm-7.08-2.6a8.45 8.45 0 01-2.76-6.48h-2c0 3.15 1.14 5.82 3.4 7.93l1.36-1.46zm.44-15.6v9.2h2v-9.2h-2zm0 9.2c0 1.7.66 3.17 1.92 4.34l1.36-1.47a3.72 3.72 0 01-1.28-2.87h-2zm1.94 4.35a6.9 6.9 0 004.7 1.7v-2a4.9 4.9 0 01-3.38-1.2l-1.32 1.5zm4.7 1.7a6.9 6.9 0 004.7-1.7l-1.32-1.5c-.9.78-2 1.2-3.38 1.2v2zm4.72-1.72a5.75 5.75 0 001.96-4.33h-2c0 1.09-.41 2.03-1.32 2.87l1.36 1.47zm1.96-4.33v-9.2h-2v9.2h2zm0-9.2c0-1.7-.68-3.17-1.98-4.31l-1.32 1.5c.89.78 1.3 1.7 1.3 2.81h2zm-1.96-4.3a6.71 6.71 0 00-4.72-1.74v2c1.4 0 2.5.42 3.36 1.22l1.36-1.47zm-4.72-1.74c-1.84 0-3.44.57-4.72 1.75l1.36 1.47a4.72 4.72 0 013.36-1.22v-2zm-4.7 1.74a5.6 5.6 0 00-1.94 4.3h2c0-1.12.41-2.04 1.27-2.81l-1.34-1.5zm36.33 1.26h1v-1.61l-1.44.72.44.9zm-4.84 2.4l-.9.43.43.92.92-.45-.45-.9zm-2.16-4.56l-.44-.9-.88.44.42.89.9-.43zm8.48-4.2v-1h-.23l-.21.1.44.9zm3.72 0h1v-1h-1v1zm0 28v1h1v-1h-1zm-5.2 0h-1v1h1v-1zm-.44-22.53l-4.84 2.4.89 1.79 4.83-2.4-.88-1.8zm-3.5 2.86l-2.16-4.56-1.8.86 2.16 4.56 1.8-.86zm-2.62-3.23l8.48-4.2-.88-1.8-8.48 4.2.88 1.8zm8.04-4.1h3.72v-2h-3.72v2zm2.72-1v28h2v-28h-2zm1 27h-5.2v2h5.2v-2zm-4.2 1V113.5h-2v21.64h2zm23.6-25.72l-.68-.73.68.73zm15.47 0l-.68.73.69-.73zm0 23.44l-.67-.73.67.73zm-15.47 0l-.69.73.69-.73zm3.71-3.52l-.67.74.02.01.65-.75zm8.08 0l.67.75.01-.02-.68-.73zm0-16.36l-.67.74.01.01.66-.75zm-8.07 0l.66.75.01-.01-.68-.74zm-5.8 12.68v-9.04h-2v9.04h2zm0-9.04c0-2.6.91-4.74 2.76-6.47l-1.37-1.46a10.45 10.45 0 00-3.4 7.93h2zm2.75-6.46a10 10 0 017.09-2.62v-2a12 12 0 00-8.44 3.15l1.35 1.47zm7.09-2.62c2.86 0 5.18.88 7.03 2.61l1.37-1.46a11.86 11.86 0 00-8.4-3.15v2zm7.04 2.62a8.4 8.4 0 012.8 6.46h2c0-3.15-1.16-5.82-3.45-7.93l-1.35 1.47zm2.8 6.46v9.04h2v-9.04h-2zm0 9.04a8.4 8.4 0 01-2.8 6.47l1.35 1.47a10.39 10.39 0 003.44-7.94h-2zm-2.8 6.47a9.87 9.87 0 01-7.05 2.61v2c3.32 0 6.15-1.04 8.4-3.15l-1.36-1.46zm-7.05 2.61a10 10 0 01-7.08-2.61l-1.35 1.47a12 12 0 008.44 3.14v-2zm-7.07-2.6a8.45 8.45 0 01-2.77-6.48h-2c0 3.15 1.14 5.82 3.4 7.93l1.37-1.46zm.44-15.6v9.2h2v-9.2h-2zm0 9.2c0 1.7.65 3.17 1.92 4.34l1.35-1.47a3.73 3.73 0 01-1.27-2.87h-2zm1.94 4.35a6.9 6.9 0 004.7 1.7v-2a4.9 4.9 0 01-3.38-1.2l-1.32 1.5zm4.7 1.7a6.9 6.9 0 004.7-1.7l-1.32-1.5c-.9.78-2 1.2-3.38 1.2v2zm4.71-1.72a5.75 5.75 0 001.97-4.33h-2c0 1.09-.42 2.03-1.32 2.87l1.35 1.47zm1.97-4.33v-9.2h-2v9.2h2zm0-9.2c0-1.7-.68-3.17-1.99-4.31l-1.31 1.5c.88.78 1.3 1.7 1.3 2.81h2zm-1.97-4.3a6.71 6.71 0 00-4.71-1.74v2c1.4 0 2.5.42 3.36 1.22l1.35-1.47zm-4.71-1.74c-1.85 0-3.45.57-4.72 1.75l1.35 1.47a4.72 4.72 0 013.37-1.22v-2zm-4.71 1.74a5.6 5.6 0 00-1.94 4.3h2a3.6 3.6 0 011.27-2.81l-1.33-1.5z" fill="#000"/>
  </g>
  <circle cx="38.38" cy="130.51" r="1.38" fill="#D4D4D4"/>
  <circle cx="44.13" cy="130.51" r="1.38" fill="#D4D4D4"/>
  <circle cx="49.88" cy="130.51" r="1.38" fill="#D4D4D4"/>
  <circle cx="55.63" cy="130.51" r="1.38" fill="#D4D4D4"/>
  <circle cx="61.38" cy="130.51" r="1.38" fill="#D4D4D4"/>
  <circle cx="67.13" cy="130.51" r="1.38" fill="#D4D4D4"/>
  <circle cx="72.88" cy="130.51" r="1.38" fill="#D4D4D4"/>
  <circle cx="78.63" cy="130.51" r="1.38" fill="#D4D4D4"/>
  <circle cx="84.38" cy="130.51" r="1.38" fill="#D4D4D4"/>
  <circle cx="38.38" cy="136.26" r="1.38" fill="#D4D4D4"/>
  <circle cx="44.13" cy="136.26" r="1.38" fill="#D4D4D4"/>
  <circle cx="38.38" cy="142.01" r="1.38" fill="#D4D4D4"/>
  <circle cx="44.13" cy="142.01" r="1.38" fill="#D4D4D4"/>
  <circle cx="49.88" cy="142.01" r="1.38" fill="#D4D4D4"/>
  <circle cx="55.63" cy="142.01" r="1.38" fill="#D4D4D4"/>
  <circle cx="61.38" cy="142.01" r="1.38" fill="#D4D4D4"/>
  <circle cx="67.13" cy="142.01" r="1.38" fill="#D4D4D4"/>
  <circle cx="72.88" cy="142.01" r="1.38" fill="#D4D4D4"/>
  <circle cx="78.63" cy="142.01" r="1.38" fill="#D4D4D4"/>
  <circle cx="84.38" cy="142.01" r="1.38" fill="#D4D4D4"/>
  <circle cx="49.88" cy="136.26" r="1.38" fill="#D4D4D4"/>
  <circle cx="55.63" cy="136.26" r="1.38" fill="#D4D4D4"/>
  <circle cx="61.38" cy="136.26" r="1.38" fill="#D4D4D4"/>
  <circle cx="67.13" cy="136.26" r="1.38" fill="#D4D4D4"/>
  <circle cx="72.88" cy="136.26" r="1.38" fill="#D4D4D4"/>
  <circle cx="78.63" cy="136.26" r="1.38" fill="#D4D4D4"/>
  <circle cx="84.38" cy="136.26" r="1.38" fill="#D4D4D4"/>
  <path fill="#31D67B" d="M81 104.63h9v49h-9zM98 66.63h9v87h-9zM115 36.63h9v117h-9z"/>
  <circle cx="281.01" cy="31.66" r="10.66" stroke="#000"/>
  <path d="M53.25 95.13V73.18m0 0l-.32.6m.32-.6l.33.6M58.66 95.13V64.46m0 0l-.34.84m.34-.84l.34.84M47.87 95.13V81.3m0 0l-.34.38m.34-.38l.33.38M64.06 95.13v-9.92m0 0l-.34.27m.34-.27l.33.27" stroke="#000"/>
  <circle cx="55.96" cy="98.97" r="10.66" fill="#F5F5F5" stroke="#000"/>
  <circle cx="292.17" cy="31.66" r="5.08" stroke="#000"/>
  <defs>
    <clipPath id="clip0">
      <rect x="138" y="20.5" width="139" height="139" rx="69.5" fill="#fff"/>
    </clipPath>
  </defs>
</svg>
