<svg width="341" height="180" fill="none" xmlns="http://www.w3.org/2000/svg">
  <path d="M229.38 44.87l58.2 90.62h-116.4l58.2-90.62z" fill="#A57CFE"/>
  <path d="M88 135.13L29.78 44.52h116.4L88 135.12z" fill="#31D67B"/>
  <path d="M199.53 126.6l35.03-54.53H164.5l35.02 54.52z" fill="#8052E4"/>
  <path d="M167.66 118.23a31.88 31.88 0 110-63.75v3.56a28.3 28.3 0 100 56.62v3.57zM130.87 105.96a19.61 19.61 0 010-39.21v2.2a17.42 17.42 0 000 34.81v2.2zM101.78 97.5a11.15 11.15 0 110-22.3v1.25a9.9 9.9 0 000 19.8v1.25z" fill="#D4D4D4"/>
  <path d="M253.6 135.13v-73m0 0l-.96 2m.96-2l.97 2M269.64 135.13v-102m0 0l-1 2.8m1-2.8l1 2.8M237.64 135.13v-46m0 0l-1 1.26m1-1.26l1 1.26M285.64 135.13v-33m0 0l-1 .9m1-.9l1 .9" stroke="#000"/>
</svg>
