<svg width="342" height="180" viewBox="0 0 342 180" fill="none" xmlns="http://www.w3.org/2000/svg">
<rect width="341" height="180" transform="translate(0.171875)" fill="#F5F5F5"/>
<path d="M135.193 65.4805L81.1328 126.48H235.82L286.133 65.4805H135.193Z" fill="#8052E4"/>
<mask id="mask0" mask-type="alpha" maskUnits="userSpaceOnUse" x="81" y="65" width="206" height="62">
<path d="M135.193 65.4805L81.1328 126.48H235.82L286.133 65.4805H135.193Z" fill="#8052E4"/>
</mask>
<g mask="url(#mask0)">
<path d="M412.547 67.6606C313.858 28.4985 243.367 28.4985 201.071 67.6606C158.776 106.823 88.2846 106.823 -10.404 67.6606" stroke="#AB85FF" stroke-width="2"/>
<path d="M400.186 142.658C324.53 83.7495 257.692 68.1952 199.67 95.9953C141.648 123.795 74.8094 108.241 -0.846385 49.3326" stroke="#AB85FF" stroke-width="2"/>
<path d="M408.378 116.765C305.564 83.109 235.29 86.9553 197.556 128.304C159.823 169.653 89.549 173.499 -13.2653 139.843" stroke="#AB85FF" stroke-width="2"/>
</g>
<path d="M83.4469 31.418L37.9766 82.7255H168.085L210.404 31.418H83.4469Z" fill="#31D67B"/>
<mask id="mask1" mask-type="alpha" maskUnits="userSpaceOnUse" x="37" y="31" width="174" height="52">
<path d="M83.4469 31.418L37.9766 82.7255H168.085L210.404 31.418H83.4469Z" fill="#31D67B"/>
</mask>
<g mask="url(#mask1)">
<path d="M316.734 33.2515C233.727 0.311992 174.436 0.311992 138.861 33.2515C103.286 66.1911 43.995 66.1911 -39.0126 33.2515" stroke="#4AE991"/>
<path d="M306.333 96.3346C242.699 46.7861 186.48 33.7033 137.678 57.0862C88.875 80.469 32.6565 67.3862 -30.9782 17.8378" stroke="#4AE991"/>
<path d="M313.225 74.5541C226.747 46.2456 167.639 49.4807 135.901 84.2595C104.163 119.038 45.0556 122.274 -41.4223 93.965" stroke="#4AE991"/>
</g>
<path d="M81.5195 121.117L124.98 121.117M124.98 121.117L123.789 120.473M124.98 121.117L123.789 121.762" stroke="black" stroke-width="1.97979"/>
<path d="M81.5195 131.824H142.245M142.245 131.824L140.581 131.156M142.245 131.824L140.581 132.492" stroke="black" stroke-width="1.97979"/>
<path d="M81.5195 110.453H108.905M108.905 110.453L108.155 109.785M108.905 110.453L108.155 111.121" stroke="black" stroke-width="1.97979"/>
<path d="M81.5195 142.512H101.166M101.166 142.512L100.628 141.844M101.166 142.512L100.628 143.18" stroke="black" stroke-width="1.97979"/>
<circle cx="73.9256" cy="126.481" r="21.1119" transform="rotate(90 73.9256 126.481)" fill="#F5F5F5" stroke="black" stroke-width="1.97979"/>
<path d="M278.033 57.0714C278.033 52.206 276.101 47.54 272.66 44.0996C269.22 40.6593 264.554 38.7266 259.689 38.7266C254.823 38.7266 250.157 40.6593 246.717 44.0996C243.277 47.54 241.344 52.206 241.344 57.0714L259.689 57.0714H278.033Z" fill="#8052E4"/>
<path d="M250.953 57.0697C250.953 53.8262 249.711 50.7154 247.499 48.4219C245.288 46.1283 242.288 44.8398 239.16 44.8398C236.033 44.8398 233.033 46.1283 230.821 48.4219C228.61 50.7154 227.367 53.8262 227.367 57.0697L239.16 57.0697H250.953Z" fill="#8052E4"/>
<path d="M303.366 57.0697C303.366 53.8262 301.571 50.7154 298.377 48.4219C295.182 46.1283 290.849 44.8398 286.331 44.8398C281.814 44.8398 277.481 46.1283 274.286 48.4219C271.092 50.7154 269.297 53.8262 269.297 57.0697L286.331 57.0697H303.366Z" fill="#8052E4"/>
</svg>
