<svg width="342" height="180" viewBox="0 0 342 180" fill="none" xmlns="http://www.w3.org/2000/svg">
<rect width="341" height="180" transform="translate(0.171875)" fill="#F5F5F5"/>
<path d="M68.6719 133C55.1719 132 29.3719 121.3 28.1719 92.5C28.1719 56.5 55.6719 47 69.1719 47C88.6719 47 169.672 47 215.672 47" stroke="black"/>
<path d="M68.4688 133H140.672" stroke="black"/>
<path d="M157.672 47L201.172 95.5" stroke="black"/>
<path d="M162.172 47L205.672 95.5" stroke="black"/>
<path d="M167.172 47L210.672 95.5" stroke="black"/>
<path d="M172.172 47L215.672 95.5" stroke="black"/>
<path d="M177.172 47L220.672 95.5" stroke="black"/>
<path d="M182.172 47L225.672 95.5" stroke="black"/>
<circle cx="77.1719" cy="90" r="38" fill="#AB85FF"/>
<circle cx="127.672" cy="115.5" r="9.5" fill="#8052E4"/>
<g clip-path="url(#clip0)">
<rect width="142" height="39" transform="translate(171.172 94)" fill="#31D67B"/>
<path d="M116.008 82.5447C192.511 38.8289 247.155 38.8289 279.942 82.5447C312.729 126.261 367.374 126.261 443.877 82.5447" stroke="#4AE991" stroke-width="2"/>
<path d="M111.769 159.209C170.417 93.4505 222.23 76.0876 267.208 107.12C312.186 138.153 363.999 120.79 422.647 55.0316" stroke="#4AE991" stroke-width="2"/>
<path d="M119.24 137.361C198.941 99.7916 253.417 104.085 282.668 150.242C311.919 196.399 366.394 200.692 446.096 163.123" stroke="#4AE991" stroke-width="2"/>
</g>
<path d="M209.507 109.13L208.883 109.911L210.507 111.211V109.13H209.507ZM209.507 107.9V106.9H208.507V107.9H209.507ZM213.227 107.9H214.227V106.9H213.227V107.9ZM213.227 123.5V124.5H214.227V123.5H213.227ZM209.507 123.5H208.507V124.5H209.507V123.5ZM209.507 122.27H210.507V120.189L208.883 121.489L209.507 122.27ZM199.337 121.61L198.598 122.284L198.605 122.291L198.612 122.298L199.337 121.61ZM199.337 109.82L198.603 109.141L198.602 109.142L199.337 109.82ZM208.217 112.49L207.485 113.171L207.486 113.172L208.217 112.49ZM202.247 118.91L202.979 118.229H202.979L202.247 118.91ZM208.217 118.91L207.486 118.228L207.485 118.229L208.217 118.91ZM204.767 108.45C206.296 108.45 207.656 108.93 208.883 109.911L210.132 108.349C208.558 107.09 206.759 106.45 204.767 106.45V108.45ZM210.507 109.13V107.9H208.507V109.13H210.507ZM209.507 108.9H213.227V106.9H209.507V108.9ZM212.227 107.9V123.5H214.227V107.9H212.227ZM213.227 122.5H209.507V124.5H213.227V122.5ZM210.507 123.5V122.27H208.507V123.5H210.507ZM208.883 121.489C207.656 122.47 206.296 122.95 204.767 122.95V124.95C206.759 124.95 208.558 124.31 210.132 123.051L208.883 121.489ZM204.767 122.95C202.903 122.95 201.355 122.284 200.063 120.922L198.612 122.298C200.28 124.056 202.351 124.95 204.767 124.95V122.95ZM200.076 120.936C198.822 119.56 198.177 117.839 198.177 115.7H196.177C196.177 118.281 196.972 120.5 198.598 122.284L200.076 120.936ZM198.177 115.7C198.177 113.561 198.822 111.852 200.072 110.498L198.602 109.142C196.972 110.908 196.177 113.119 196.177 115.7H198.177ZM200.072 110.499C201.342 109.124 202.885 108.45 204.767 108.45V106.45C202.33 106.45 200.253 107.356 198.603 109.141L200.072 110.499ZM208.949 111.809C207.959 110.744 206.704 110.2 205.247 110.2V112.2C206.151 112.2 206.875 112.516 207.485 113.171L208.949 111.809ZM205.247 110.2C203.776 110.2 202.509 110.741 201.515 111.809L202.979 113.171C203.586 112.519 204.318 112.2 205.247 112.2V110.2ZM201.515 111.809C200.527 112.871 200.047 114.192 200.047 115.7H202.047C202.047 114.648 202.368 113.829 202.979 113.171L201.515 111.809ZM200.047 115.7C200.047 117.208 200.527 118.529 201.515 119.591L202.979 118.229C202.368 117.571 202.047 116.752 202.047 115.7H200.047ZM201.515 119.591C202.509 120.659 203.776 121.2 205.247 121.2V119.2C204.318 119.2 203.586 118.881 202.979 118.229L201.515 119.591ZM205.247 121.2C206.704 121.2 207.959 120.656 208.949 119.591L207.485 118.229C206.875 118.884 206.151 119.2 205.247 119.2V121.2ZM208.949 119.592C209.95 118.517 210.447 117.2 210.447 115.7H208.447C208.447 116.72 208.124 117.543 207.486 118.228L208.949 119.592ZM210.447 115.7C210.447 114.2 209.95 112.883 208.949 111.808L207.486 113.172C208.124 113.857 208.447 114.68 208.447 115.7H210.447ZM222.409 123.5H221.409V124.5H222.409V123.5ZM222.409 101V100H221.409V101H222.409ZM226.159 101H227.159V100H226.159V101ZM226.159 109.13H225.159V111.211L226.784 109.911L226.159 109.13ZM236.299 109.82L235.565 110.499L235.574 110.508L236.299 109.82ZM236.299 121.61L237.025 122.298L237.034 122.289L236.299 121.61ZM226.159 122.27L226.784 121.489L225.159 120.189V122.27H226.159ZM226.159 123.5V124.5H227.159V123.5H226.159ZM233.359 112.49L232.627 113.171L232.628 113.172L233.359 112.49ZM227.419 118.91L228.152 118.229L227.419 118.91ZM233.359 118.91L232.628 118.228L232.627 118.229L233.359 118.91ZM223.409 123.5V101H221.409V123.5H223.409ZM222.409 102H226.159V100H222.409V102ZM225.159 101V109.13H227.159V101H225.159ZM226.784 109.911C228.013 108.928 229.364 108.45 230.869 108.45V106.45C228.895 106.45 227.106 107.092 225.535 108.349L226.784 109.911ZM230.869 108.45C232.752 108.45 234.295 109.124 235.565 110.499L237.034 109.141C235.384 107.356 233.307 106.45 230.869 106.45V108.45ZM235.574 110.508C236.836 111.839 237.489 113.542 237.489 115.7H239.489C239.489 113.098 238.683 110.881 237.025 109.132L235.574 110.508ZM237.489 115.7C237.489 117.835 236.837 119.555 235.565 120.931L237.034 122.289C238.682 120.505 239.489 118.285 239.489 115.7H237.489ZM235.574 120.922C234.282 122.284 232.734 122.95 230.869 122.95V124.95C233.285 124.95 235.357 124.056 237.025 122.298L235.574 120.922ZM230.869 122.95C229.364 122.95 228.013 122.472 226.784 121.489L225.535 123.051C227.106 124.308 228.895 124.95 230.869 124.95V122.95ZM225.159 122.27V123.5H227.159V122.27H225.159ZM226.159 122.5H222.409V124.5H226.159V122.5ZM234.092 111.809C233.101 110.744 231.846 110.2 230.389 110.2V112.2C231.293 112.2 232.017 112.516 232.627 113.171L234.092 111.809ZM230.389 110.2C228.933 110.2 227.677 110.744 226.687 111.809L228.152 113.171C228.761 112.516 229.486 112.2 230.389 112.2V110.2ZM226.687 111.809C225.699 112.871 225.219 114.192 225.219 115.7H227.219C227.219 114.648 227.54 113.829 228.152 113.171L226.687 111.809ZM225.219 115.7C225.219 117.208 225.699 118.529 226.687 119.591L228.152 118.229C227.54 117.571 227.219 116.752 227.219 115.7H225.219ZM226.687 119.591C227.677 120.656 228.933 121.2 230.389 121.2V119.2C229.486 119.2 228.761 118.884 228.152 118.229L226.687 119.591ZM230.389 121.2C231.846 121.2 233.101 120.656 234.092 119.591L232.627 118.229C232.017 118.884 231.293 119.2 230.389 119.2V121.2ZM234.091 119.592C235.092 118.517 235.589 117.2 235.589 115.7H233.589C233.589 116.72 233.266 117.543 232.628 118.228L234.091 119.592ZM235.589 115.7C235.589 114.2 235.092 112.883 234.091 111.808L232.628 113.172C233.266 113.857 233.589 114.68 233.589 115.7H235.589ZM262.461 112.61L262.745 113.569L263.779 113.263L263.396 112.255L262.461 112.61ZM258.711 113.72L257.795 114.12L258.148 114.93L258.995 114.679L258.711 113.72ZM257.121 111.89L256.572 112.726L256.586 112.735L256.6 112.743L257.121 111.89ZM251.631 112.49L252.347 113.189L251.631 112.49ZM251.631 118.91L252.347 118.211L251.631 118.91ZM257.121 119.54L257.654 120.387L257.66 120.383L257.121 119.54ZM258.711 117.68L258.995 116.721L258.148 116.47L257.795 117.28L258.711 117.68ZM262.461 118.79L263.396 119.145L263.779 118.137L262.745 117.831L262.461 118.79ZM259.491 122.57L260.046 123.402L260.054 123.396L259.491 122.57ZM248.841 121.61L248.13 122.313L248.137 122.319L248.143 122.326L248.841 121.61ZM248.841 109.82L248.134 109.113L248.841 109.82ZM259.491 108.86L258.928 109.687L258.937 109.692L259.491 108.86ZM262.178 111.651L258.428 112.761L258.995 114.679L262.745 113.569L262.178 111.651ZM259.628 113.32C259.207 112.354 258.54 111.585 257.643 111.037L256.6 112.743C257.143 113.075 257.536 113.526 257.795 114.12L259.628 113.32ZM257.671 111.054C256.799 110.482 255.816 110.2 254.751 110.2V112.2C255.447 112.2 256.044 112.378 256.572 112.726L257.671 111.054ZM254.751 110.2C253.252 110.2 251.951 110.732 250.916 111.791L252.347 113.189C252.992 112.528 253.771 112.2 254.751 112.2V110.2ZM250.916 111.791C249.881 112.851 249.371 114.178 249.371 115.7H251.371C251.371 114.662 251.702 113.849 252.347 113.189L250.916 111.791ZM249.371 115.7C249.371 117.222 249.881 118.549 250.916 119.609L252.347 118.211C251.702 117.551 251.371 116.738 251.371 115.7H249.371ZM250.916 119.609C251.951 120.668 253.252 121.2 254.751 121.2V119.2C253.771 119.2 252.992 118.872 252.347 118.211L250.916 119.609ZM254.751 121.2C255.807 121.2 256.784 120.933 257.654 120.387L256.589 118.693C256.059 119.027 255.456 119.2 254.751 119.2V121.2ZM257.66 120.383C258.546 119.816 259.208 119.042 259.628 118.08L257.795 117.28C257.534 117.878 257.137 118.344 256.583 118.697L257.66 120.383ZM258.428 118.639L262.178 119.749L262.745 117.831L258.995 116.721L258.428 118.639ZM261.527 118.435C260.998 119.826 260.137 120.92 258.929 121.744L260.054 123.396C261.606 122.34 262.725 120.914 263.396 119.145L261.527 118.435ZM258.937 121.738C257.733 122.54 256.349 122.95 254.751 122.95V124.95C256.714 124.95 258.49 124.44 260.046 123.402L258.937 121.738ZM254.751 122.95C252.659 122.95 250.943 122.263 249.54 120.894L248.143 122.326C249.94 124.077 252.164 124.95 254.751 124.95V122.95ZM249.553 120.907C248.19 119.527 247.501 117.815 247.501 115.7H245.501C245.501 118.305 246.373 120.533 248.13 122.313L249.553 120.907ZM247.501 115.7C247.501 113.585 248.19 111.886 249.549 110.527L248.134 109.113C246.373 110.874 245.501 113.095 245.501 115.7H247.501ZM249.549 110.527C250.93 109.146 252.64 108.45 254.751 108.45V106.45C252.143 106.45 249.913 107.334 248.134 109.113L249.549 110.527ZM254.751 108.45C256.345 108.45 257.726 108.867 258.929 109.686L260.054 108.034C258.497 106.973 256.718 106.45 254.751 106.45V108.45ZM258.937 109.692C260.14 110.494 260.999 111.576 261.527 112.965L263.396 112.255C262.724 110.484 261.603 109.066 260.046 108.028L258.937 109.692ZM282.527 109.13L281.902 109.911L283.527 111.211V109.13H282.527ZM282.527 101V100H281.527V101H282.527ZM286.247 101H287.247V100H286.247V101ZM286.247 123.5V124.5H287.247V123.5H286.247ZM282.527 123.5H281.527V124.5H282.527V123.5ZM282.527 122.27H283.527V120.189L281.902 121.489L282.527 122.27ZM272.357 121.61L271.618 122.284L271.624 122.291L271.631 122.298L272.357 121.61ZM272.357 109.82L271.622 109.141L271.622 109.142L272.357 109.82ZM281.237 112.49L280.505 113.171L280.505 113.172L281.237 112.49ZM275.267 118.91L275.999 118.229L275.267 118.91ZM281.237 118.91L280.505 118.228L280.505 118.229L281.237 118.91ZM277.787 108.45C279.315 108.45 280.676 108.93 281.902 109.911L283.151 108.349C281.578 107.09 279.778 106.45 277.787 106.45V108.45ZM283.527 109.13V101H281.527V109.13H283.527ZM282.527 102H286.247V100H282.527V102ZM285.247 101V123.5H287.247V101H285.247ZM286.247 122.5H282.527V124.5H286.247V122.5ZM283.527 123.5V122.27H281.527V123.5H283.527ZM281.902 121.489C280.676 122.47 279.315 122.95 277.787 122.95V124.95C279.778 124.95 281.578 124.31 283.151 123.051L281.902 121.489ZM277.787 122.95C275.923 122.95 274.374 122.284 273.082 120.922L271.631 122.298C273.299 124.056 275.371 124.95 277.787 124.95V122.95ZM273.096 120.936C271.842 119.56 271.197 117.839 271.197 115.7H269.197C269.197 118.281 269.992 120.5 271.618 122.284L273.096 120.936ZM271.197 115.7C271.197 113.561 271.842 111.852 273.092 110.498L271.622 109.142C269.992 110.908 269.197 113.119 269.197 115.7H271.197ZM273.091 110.499C274.361 109.124 275.904 108.45 277.787 108.45V106.45C275.349 106.45 273.273 107.356 271.622 109.141L273.091 110.499ZM281.969 111.809C280.979 110.744 279.723 110.2 278.267 110.2V112.2C279.17 112.2 279.895 112.516 280.505 113.171L281.969 111.809ZM278.267 110.2C276.796 110.2 275.528 110.741 274.535 111.809L275.999 113.171C276.605 112.519 277.338 112.2 278.267 112.2V110.2ZM274.535 111.809C273.546 112.871 273.067 114.192 273.067 115.7H275.067C275.067 114.648 275.387 113.829 275.999 113.171L274.535 111.809ZM273.067 115.7C273.067 117.208 273.546 118.529 274.535 119.591L275.999 118.229C275.387 117.571 275.067 116.752 275.067 115.7H273.067ZM274.535 119.591C275.528 120.659 276.796 121.2 278.267 121.2V119.2C277.338 119.2 276.605 118.881 275.999 118.229L274.535 119.591ZM278.267 121.2C279.723 121.2 280.979 120.656 281.969 119.591L280.505 118.229C279.895 118.884 279.17 119.2 278.267 119.2V121.2ZM281.968 119.592C282.97 118.517 283.467 117.2 283.467 115.7H281.467C281.467 116.72 281.144 117.543 280.505 118.228L281.968 119.592ZM283.467 115.7C283.467 114.2 282.97 112.883 281.968 111.808L280.505 113.172C281.144 113.857 281.467 114.68 281.467 115.7H283.467Z" fill="black"/>
<circle cx="89.5469" cy="84.375" r="1.375" fill="#D4D4D4"/>
<circle cx="95.2969" cy="84.375" r="1.375" fill="#D4D4D4"/>
<circle cx="101.047" cy="84.375" r="1.375" fill="#D4D4D4"/>
<circle cx="106.797" cy="84.375" r="1.375" fill="#D4D4D4"/>
<circle cx="112.547" cy="84.375" r="1.375" fill="#D4D4D4"/>
<circle cx="118.297" cy="84.375" r="1.375" fill="#D4D4D4"/>
<circle cx="124.047" cy="84.375" r="1.375" fill="#D4D4D4"/>
<circle cx="129.797" cy="84.375" r="1.375" fill="#D4D4D4"/>
<circle cx="135.547" cy="84.375" r="1.375" fill="#D4D4D4"/>
<circle cx="89.5469" cy="90.125" r="1.375" fill="#D4D4D4"/>
<circle cx="95.2969" cy="90.125" r="1.375" fill="#D4D4D4"/>
<circle cx="89.5469" cy="95.875" r="1.375" fill="#D4D4D4"/>
<circle cx="95.2969" cy="95.875" r="1.375" fill="#D4D4D4"/>
<circle cx="101.047" cy="95.875" r="1.375" fill="#D4D4D4"/>
<circle cx="106.797" cy="95.875" r="1.375" fill="#D4D4D4"/>
<circle cx="112.547" cy="95.875" r="1.375" fill="#D4D4D4"/>
<circle cx="118.297" cy="95.875" r="1.375" fill="#D4D4D4"/>
<circle cx="124.047" cy="95.875" r="1.375" fill="#D4D4D4"/>
<circle cx="129.797" cy="95.875" r="1.375" fill="#D4D4D4"/>
<circle cx="135.547" cy="95.875" r="1.375" fill="#D4D4D4"/>
<circle cx="101.047" cy="90.125" r="1.375" fill="#D4D4D4"/>
<circle cx="106.797" cy="90.125" r="1.375" fill="#D4D4D4"/>
<circle cx="112.547" cy="90.125" r="1.375" fill="#D4D4D4"/>
<circle cx="118.297" cy="90.125" r="1.375" fill="#D4D4D4"/>
<circle cx="124.047" cy="90.125" r="1.375" fill="#D4D4D4"/>
<circle cx="129.797" cy="90.125" r="1.375" fill="#D4D4D4"/>
<circle cx="135.547" cy="90.125" r="1.375" fill="#D4D4D4"/>
<path d="M287.838 86.3448C287.838 81.4795 285.905 76.8134 282.465 73.3731C279.025 69.9328 274.359 68 269.493 68C264.628 68 259.962 69.9328 256.522 73.3731C253.081 76.8134 251.148 81.4795 251.148 86.3448L269.493 86.3448H287.838Z" fill="#D4D4D4"/>
<path d="M260.758 86.3432C260.758 83.0996 259.516 79.9889 257.304 77.6953C255.092 75.4018 252.093 74.1133 248.965 74.1133C245.837 74.1133 242.838 75.4018 240.626 77.6953C238.414 79.9889 237.172 83.0996 237.172 86.3432L248.965 86.3432H260.758Z" fill="#D4D4D4"/>
<path d="M313.171 86.3432C313.171 83.0996 311.376 79.9889 308.181 77.6953C304.987 75.4018 300.654 74.1133 296.136 74.1133C291.618 74.1133 287.285 75.4018 284.091 77.6953C280.896 79.9889 279.102 83.0996 279.102 86.3432L296.136 86.3432H313.171Z" fill="#D4D4D4"/>
<defs>
<clipPath id="clip0">
<rect width="142" height="39" fill="white" transform="translate(171.172 94)"/>
</clipPath>
</defs>
</svg>
