<svg width="342" height="180" viewBox="0 0 342 180" fill="none" xmlns="http://www.w3.org/2000/svg">
<rect width="341" height="180" transform="translate(0.171875)" fill="#F5F5F5"/>
<path d="M61.2254 24.0156L21.2031 69.1758H135.722L172.971 24.0156H61.2254Z" fill="#31D67B"/>
<mask id="mask0" mask-type="alpha" maskUnits="userSpaceOnUse" x="21" y="24" width="152" height="46">
<path d="M61.2254 24.0156L21.2031 69.1758H135.722L172.971 24.0156H61.2254Z" fill="#31D67B"/>
</mask>
<g mask="url(#mask0)">
<path d="M266.559 25.6275C193.496 -3.36541 141.309 -3.36541 109.997 25.6275C78.6846 54.6204 26.4973 54.6204 -46.5648 25.6275" stroke="#4AE991" stroke-width="2"/>
<path d="M257.406 81.153C201.396 37.5412 151.913 26.0259 108.958 46.6071C66.0027 67.1884 16.5199 55.6731 -39.4903 12.0613" stroke="#4AE991" stroke-width="2"/>
<path d="M263.472 61.9821C187.355 37.0654 135.329 39.913 107.394 70.5248C79.4592 101.137 27.4333 103.984 -48.6833 79.0674" stroke="#4AE991" stroke-width="2"/>
</g>
<path d="M128.796 90.7148L70.9531 155.983H236.464L290.298 90.7148H128.796Z" fill="#AB85FF"/>
<mask id="mask1" mask-type="alpha" maskUnits="userSpaceOnUse" x="70" y="90" width="221" height="66">
<path d="M128.796 90.7148L70.9531 155.983H236.464L290.298 90.7148H128.796Z" fill="#AB85FF"/>
</mask>
<g mask="url(#mask1)">
<path d="M425.559 93.0441C319.964 51.1416 244.54 51.1416 199.285 93.0441C154.03 134.947 78.6056 134.947 -26.9888 93.0441" stroke="#C9AEFF"/>
<path d="M412.332 173.294C331.382 110.264 259.866 93.6209 197.784 123.366C135.702 153.112 64.1862 136.469 -16.7637 73.4383" stroke="#C9AEFF"/>
<path d="M421.095 145.588C311.086 109.576 235.894 113.692 195.521 157.934C155.147 202.176 79.9555 206.292 -30.0535 170.28" stroke="#C9AEFF"/>
</g>
<path d="M264.967 60.6065C264.967 55.7412 263.034 51.0751 259.594 47.6348C256.154 44.1945 251.488 42.2617 246.622 42.2617C241.757 42.2617 237.091 44.1945 233.65 47.6348C230.21 51.0751 228.277 55.7412 228.277 60.6065L246.622 60.6065H264.967Z" fill="#8052E4"/>
<path d="M237.887 60.6049C237.887 57.3613 236.645 54.2506 234.433 51.9571C232.221 49.6635 229.222 48.375 226.094 48.375C222.966 48.375 219.967 49.6635 217.755 51.957C215.543 54.2506 214.301 57.3613 214.301 60.6049L226.094 60.6049H237.887Z" fill="#8052E4"/>
<path d="M290.299 60.6049C290.299 57.3613 288.505 54.2506 285.31 51.9571C282.116 49.6635 277.783 48.375 273.265 48.375C268.747 48.375 264.414 49.6635 261.22 51.957C258.025 54.2506 256.23 57.3613 256.23 60.6049L273.265 60.6049H290.299Z" fill="#8052E4"/>
<path d="M97.4289 111.032L92.0689 112.592C91.8556 111.845 91.3222 111.205 90.4689 110.672C89.6156 110.138 88.6422 109.872 87.5489 109.872C86.3756 109.872 85.3756 110.165 84.5489 110.752C83.7222 111.312 83.3089 112.005 83.3089 112.832C83.3089 113.872 84.1622 114.752 85.8689 115.472C86.5622 115.765 88.0956 116.258 90.4689 116.952C92.2022 117.432 93.5889 117.952 94.6289 118.512C95.4556 118.938 96.1222 119.432 96.6289 119.992C97.8822 121.298 98.5089 122.992 98.5089 125.072C98.5089 127.765 97.5356 129.925 95.5889 131.552C93.6689 133.152 91.1756 133.952 88.1089 133.952C85.3356 133.952 82.9622 133.312 80.9889 132.032C79.0156 130.698 77.7356 129.072 77.1489 127.152L82.5089 125.552C82.7222 126.458 83.3489 127.232 84.3889 127.872C85.4556 128.485 86.6956 128.792 88.1089 128.792C89.5489 128.792 90.7489 128.498 91.7089 127.912C92.6689 127.298 93.1489 126.512 93.1489 125.552C93.1489 124.858 92.8156 124.205 92.1489 123.592C91.8822 123.378 91.4956 123.152 90.9889 122.912C90.5622 122.698 89.8156 122.418 88.7489 122.072C85.4156 121.085 83.1622 120.285 81.9889 119.672C79.2956 118.232 77.9489 116.085 77.9489 113.232C77.9489 110.698 78.8289 108.658 80.5889 107.112C82.4022 105.538 84.6956 104.752 87.4689 104.752C89.9222 104.752 92.0556 105.352 93.8689 106.552C95.6822 107.725 96.8689 109.218 97.4289 111.032ZM102.402 105.352H123.042V110.312H107.762V116.712H120.842V121.672H107.762V128.392H123.242V133.352H102.402V105.352ZM139.992 104.752C144.205 104.752 147.685 106.152 150.432 108.952C153.232 111.698 154.632 115.165 154.632 119.352C154.632 123.512 153.232 126.992 150.432 129.792C147.659 132.565 144.179 133.952 139.992 133.952C135.859 133.952 132.379 132.565 129.552 129.792C126.779 126.965 125.392 123.485 125.392 119.352C125.392 115.192 126.779 111.725 129.552 108.952C132.352 106.152 135.832 104.752 139.992 104.752ZM133.552 112.632C131.845 114.418 130.992 116.658 130.992 119.352C130.992 122.045 131.845 124.285 133.552 126.072C135.259 127.858 137.405 128.752 139.992 128.752C142.579 128.752 144.725 127.858 146.432 126.072C148.165 124.258 149.032 122.018 149.032 119.352C149.032 116.685 148.165 114.445 146.432 112.632C144.699 110.818 142.552 109.912 139.992 109.912C137.432 109.912 135.285 110.818 133.552 112.632Z" fill="#F5F5F5"/>
<path d="M97.4289 111.032L97.7084 111.992L98.6843 111.708L98.3844 110.736L97.4289 111.032ZM92.0689 112.592L91.1074 112.866L91.3835 113.833L92.3484 113.552L92.0689 112.592ZM84.5489 110.752L85.1098 111.579L85.1188 111.573L85.1277 111.567L84.5489 110.752ZM85.8689 115.472L86.2585 114.551L86.2576 114.55L85.8689 115.472ZM90.4689 116.952L90.1885 117.912L90.202 117.915L90.4689 116.952ZM94.6289 118.512L94.1548 119.392L94.1625 119.396L94.1703 119.4L94.6289 118.512ZM96.6289 119.992L95.8874 120.662L95.8971 120.673L95.9072 120.684L96.6289 119.992ZM95.5889 131.552L96.2291 132.32L96.2301 132.319L95.5889 131.552ZM80.9889 132.032L80.429 132.86L80.4368 132.865L80.4447 132.871L80.9889 132.032ZM77.1489 127.152L76.8629 126.193L75.8984 126.481L76.1926 127.444L77.1489 127.152ZM82.5089 125.552L83.4823 125.323L83.2394 124.29L82.2229 124.593L82.5089 125.552ZM84.3889 127.872L83.8648 128.723L83.8775 128.731L83.8904 128.738L84.3889 127.872ZM91.7089 127.912L92.2304 128.765L92.2389 128.76L92.2473 128.754L91.7089 127.912ZM92.1489 123.592L92.826 122.856L92.8006 122.832L92.7736 122.811L92.1489 123.592ZM90.9889 122.912L90.5417 123.806L90.5512 123.811L90.5608 123.815L90.9889 122.912ZM88.7489 122.072L89.058 121.121L89.0454 121.116L89.0327 121.113L88.7489 122.072ZM81.9889 119.672L81.5174 120.553L81.5257 120.558L81.9889 119.672ZM80.5889 107.112L79.9335 106.356L79.9288 106.36L80.5889 107.112ZM93.8689 106.552L93.317 107.386L93.3257 107.391L93.8689 106.552ZM97.1495 110.071L91.7895 111.631L92.3484 113.552L97.7084 111.992L97.1495 110.071ZM93.0304 112.317C92.731 111.269 91.9983 110.448 90.9989 109.824L89.9389 111.52C90.6462 111.962 90.9802 112.421 91.1074 112.866L93.0304 112.317ZM90.9989 109.824C89.9729 109.182 88.8128 108.872 87.5489 108.872V110.872C88.4717 110.872 89.2582 111.094 89.9389 111.52L90.9989 109.824ZM87.5489 108.872C86.2019 108.872 84.9915 109.211 83.9702 109.936L85.1277 111.567C85.7596 111.119 86.5492 110.872 87.5489 110.872V108.872ZM83.9881 109.924C82.952 110.625 82.3089 111.601 82.3089 112.832H84.3089C84.3089 112.408 84.4925 111.998 85.1098 111.579L83.9881 109.924ZM82.3089 112.832C82.3089 114.526 83.7107 115.646 85.4802 116.393L86.2576 114.55C84.6137 113.857 84.3089 113.217 84.3089 112.832H82.3089ZM85.4793 116.393C86.2361 116.713 87.8283 117.222 90.1885 117.911L90.7493 115.992C88.3629 115.295 86.8883 114.817 86.2585 114.551L85.4793 116.393ZM90.202 117.915C91.8966 118.385 93.2052 118.881 94.1548 119.392L95.103 117.631C93.9726 117.022 92.5079 116.479 90.7358 115.988L90.202 117.915ZM94.1703 119.4C94.9142 119.784 95.4774 120.209 95.8874 120.662L97.3704 119.321C96.7671 118.654 95.9969 118.092 95.0875 117.623L94.1703 119.4ZM95.9072 120.684C96.9552 121.776 97.5089 123.208 97.5089 125.072H99.5089C99.5089 122.775 98.8092 120.82 97.3506 119.299L95.9072 120.684ZM97.5089 125.072C97.5089 127.489 96.6514 129.361 94.9477 130.784L96.2301 132.319C98.4197 130.489 99.5089 128.04 99.5089 125.072H97.5089ZM94.9487 130.783C93.2466 132.202 90.9966 132.952 88.1089 132.952V134.952C91.3545 134.952 94.0912 134.101 96.2291 132.32L94.9487 130.783ZM88.1089 132.952C85.4935 132.952 83.3172 132.35 81.5331 131.193L80.4447 132.871C82.6073 134.273 85.1776 134.952 88.1089 134.952V132.952ZM81.5488 131.203C79.7283 129.973 78.6131 128.521 78.1053 126.859L76.1926 127.444C76.858 129.622 78.3029 131.424 80.429 132.86L81.5488 131.203ZM77.4349 128.11L82.7949 126.51L82.2229 124.593L76.8629 126.193L77.4349 128.11ZM81.5355 125.781C81.827 127.02 82.6715 127.989 83.8648 128.723L84.913 127.02C84.0263 126.474 83.6175 125.897 83.4823 125.323L81.5355 125.781ZM83.8904 128.738C85.1301 129.451 86.547 129.792 88.1089 129.792V127.792C86.8441 127.792 85.7811 127.519 84.8874 127.005L83.8904 128.738ZM88.1089 129.792C89.6822 129.792 91.075 129.471 92.2304 128.765L91.1875 127.058C90.4228 127.526 89.4157 127.792 88.1089 127.792V129.792ZM92.2473 128.754C93.4325 127.997 94.1489 126.921 94.1489 125.552H92.1489C92.1489 126.102 91.9053 126.599 91.1705 127.069L92.2473 128.754ZM94.1489 125.552C94.1489 124.499 93.6319 123.597 92.826 122.856L91.4719 124.327C91.9992 124.813 92.1489 125.217 92.1489 125.552H94.1489ZM92.7736 122.811C92.4203 122.528 91.9552 122.263 91.417 122.008L90.5608 123.815C91.036 124.04 91.3442 124.228 91.5242 124.372L92.7736 122.811ZM91.4361 122.017C90.9361 121.767 90.126 121.468 89.058 121.121L88.4398 123.023C89.5052 123.369 90.1884 123.629 90.5417 123.806L91.4361 122.017ZM89.0327 121.113C85.6929 120.124 83.528 119.348 82.4522 118.785L81.5257 120.558C82.7964 121.222 85.1382 122.046 88.4651 123.03L89.0327 121.113ZM82.4604 118.79C81.2358 118.135 80.3695 117.348 79.806 116.45C79.2448 115.555 78.9489 114.495 78.9489 113.232H76.9489C76.9489 114.822 77.3264 116.261 78.1118 117.513C78.895 118.761 80.0486 119.768 81.5174 120.553L82.4604 118.79ZM78.9489 113.232C78.9489 110.959 79.7241 109.203 81.249 107.863L79.9288 106.36C77.9337 108.114 76.9489 110.437 76.9489 113.232H78.9489ZM81.2443 107.867C82.8479 106.476 84.8967 105.752 87.4689 105.752V103.752C84.4944 103.752 81.9566 104.601 79.9336 106.356L81.2443 107.867ZM87.4689 105.752C89.752 105.752 91.6878 106.307 93.317 107.385L94.4208 105.718C92.4233 104.396 90.0925 103.752 87.4689 103.752V105.752ZM93.3257 107.391C94.9708 108.456 95.9922 109.768 96.4734 111.327L98.3844 110.736C97.7456 108.668 96.3937 106.994 94.4122 105.712L93.3257 107.391ZM102.402 105.352V104.352H101.402V105.352H102.402ZM123.042 105.352H124.042V104.352H123.042V105.352ZM123.042 110.312V111.312H124.042V110.312H123.042ZM107.762 110.312V109.312H106.762V110.312H107.762ZM107.762 116.712H106.762V117.712H107.762V116.712ZM120.842 116.712H121.842V115.712H120.842V116.712ZM120.842 121.672V122.672H121.842V121.672H120.842ZM107.762 121.672V120.672H106.762V121.672H107.762ZM107.762 128.392H106.762V129.392H107.762V128.392ZM123.242 128.392H124.242V127.392H123.242V128.392ZM123.242 133.352V134.352H124.242V133.352H123.242ZM102.402 133.352H101.402V134.352H102.402V133.352ZM102.402 106.352H123.042V104.352H102.402V106.352ZM122.042 105.352V110.312H124.042V105.352H122.042ZM123.042 109.312H107.762V111.312H123.042V109.312ZM106.762 110.312V116.712H108.762V110.312H106.762ZM107.762 117.712H120.842V115.712H107.762V117.712ZM119.842 116.712V121.672H121.842V116.712H119.842ZM120.842 120.672H107.762V122.672H120.842V120.672ZM106.762 121.672V128.392H108.762V121.672H106.762ZM107.762 129.392H123.242V127.392H107.762V129.392ZM122.242 128.392V133.352H124.242V128.392H122.242ZM123.242 132.352H102.402V134.352H123.242V132.352ZM103.402 133.352V105.352H101.402V133.352H103.402ZM150.432 108.952L149.718 109.652L149.725 109.659L149.732 109.665L150.432 108.952ZM150.432 129.792L149.725 129.084L150.432 129.792ZM129.552 129.792L128.838 130.492L128.845 130.499L128.852 130.505L129.552 129.792ZM129.552 108.952L130.259 109.659L129.552 108.952ZM133.552 112.632L132.829 111.941L132.829 111.941L133.552 112.632ZM133.552 126.072L134.275 125.381L133.552 126.072ZM146.432 126.072L145.709 125.381L145.709 125.381L146.432 126.072ZM146.432 112.632L145.709 113.323L146.432 112.632ZM139.992 105.752C143.959 105.752 147.174 107.059 149.718 109.652L151.146 108.251C148.196 105.244 144.452 103.752 139.992 103.752V105.752ZM149.732 109.665C152.326 112.21 153.632 115.413 153.632 119.352H155.632C155.632 114.916 154.138 111.186 151.132 108.238L149.732 109.665ZM153.632 119.352C153.632 123.261 152.327 126.482 149.725 129.084L151.139 130.499C154.137 127.501 155.632 123.762 155.632 119.352H153.632ZM149.725 129.084C147.153 131.657 143.933 132.952 139.992 132.952V134.952C144.424 134.952 148.165 133.473 151.139 130.499L149.725 129.084ZM139.992 132.952C136.108 132.952 132.883 131.659 130.252 129.078L128.852 130.505C131.874 133.471 135.61 134.952 139.992 134.952V132.952ZM130.266 129.091C127.685 126.46 126.392 123.236 126.392 119.352H124.392C124.392 123.734 125.873 127.469 128.838 130.492L130.266 129.091ZM126.392 119.352C126.392 115.439 127.686 112.232 130.259 109.659L128.845 108.244C125.872 111.218 124.392 114.944 124.392 119.352H126.392ZM130.259 109.659C132.861 107.056 136.082 105.752 139.992 105.752V103.752C135.582 103.752 131.843 105.247 128.845 108.244L130.259 109.659ZM132.829 111.941C130.928 113.931 129.992 116.426 129.992 119.352H131.992C131.992 116.89 132.763 114.905 134.275 113.322L132.829 111.941ZM129.992 119.352C129.992 122.277 130.928 124.772 132.829 126.762L134.275 125.381C132.763 123.798 131.992 121.813 131.992 119.352H129.992ZM132.829 126.762C134.734 128.757 137.147 129.752 139.992 129.752V127.752C137.664 127.752 135.783 126.96 134.275 125.381L132.829 126.762ZM139.992 129.752C142.837 129.752 145.25 128.757 147.155 126.762L145.709 125.381C144.201 126.96 142.32 127.752 139.992 127.752V129.752ZM147.155 126.763C149.078 124.751 150.032 122.258 150.032 119.352H148.032C148.032 121.779 147.253 123.766 145.709 125.381L147.155 126.763ZM150.032 119.352C150.032 116.445 149.078 113.953 147.155 111.941L145.709 113.323C147.253 114.937 148.032 116.924 148.032 119.352H150.032ZM147.155 111.941C145.229 109.925 142.819 108.912 139.992 108.912V110.912C142.285 110.912 144.169 111.711 145.709 113.323L147.155 111.941ZM139.992 108.912C137.165 108.912 134.755 109.925 132.829 111.941L134.275 113.323C135.815 111.711 137.699 110.912 139.992 110.912V108.912Z" fill="black"/>
<path d="M143.487 38.0864L139.849 39.1451C139.704 38.6383 139.342 38.204 138.763 37.842C138.184 37.4801 137.523 37.2991 136.781 37.2991C135.985 37.2991 135.306 37.4982 134.745 37.8963C134.184 38.2764 133.904 38.7469 133.904 39.308C133.904 40.0138 134.483 40.611 135.641 41.0997C136.112 41.2988 137.152 41.6336 138.763 42.1041C139.939 42.4299 140.88 42.7828 141.586 43.1628C142.147 43.4524 142.6 43.7872 142.944 44.1673C143.794 45.0541 144.219 46.2033 144.219 47.615C144.219 49.4428 143.559 50.9088 142.238 52.0128C140.935 53.0986 139.243 53.6416 137.161 53.6416C135.279 53.6416 133.668 53.2072 132.329 52.3385C130.99 51.4336 130.121 50.3296 129.723 49.0266L133.361 47.9407C133.505 48.556 133.931 49.0809 134.637 49.5152C135.361 49.9315 136.202 50.1396 137.161 50.1396C138.139 50.1396 138.953 49.9405 139.604 49.5424C140.256 49.1261 140.582 48.5922 140.582 47.9407C140.582 47.4702 140.356 47.0268 139.903 46.6105C139.722 46.4657 139.46 46.3119 139.116 46.149C138.826 46.0042 138.32 45.8142 137.596 45.5789C135.333 44.9093 133.804 44.3664 133.008 43.9501C131.18 42.9728 130.266 41.5159 130.266 39.5794C130.266 37.8601 130.863 36.4756 132.058 35.426C133.288 34.3582 134.845 33.8243 136.727 33.8243C138.392 33.8243 139.84 34.2315 141.07 35.0459C142.301 35.8422 143.106 36.8557 143.487 38.0864ZM146.862 34.2315H160.869V37.5977H150.499V41.9412H159.376V45.3075H150.499V49.8681H161.005V53.2344H146.862V34.2315ZM172.373 33.8243C175.232 33.8243 177.594 34.7744 179.458 36.6747C181.359 38.5388 182.309 40.8915 182.309 43.7329C182.309 46.5562 181.359 48.918 179.458 50.8183C177.576 52.7005 175.214 53.6416 172.373 53.6416C169.568 53.6416 167.206 52.7005 165.288 50.8183C163.405 48.8999 162.464 46.5381 162.464 43.7329C162.464 40.9096 163.405 38.5569 165.288 36.6747C167.188 34.7744 169.55 33.8243 172.373 33.8243ZM168.002 39.1722C166.844 40.3848 166.265 41.905 166.265 43.7329C166.265 45.5608 166.844 47.0811 168.002 48.2936C169.161 49.5062 170.618 50.1125 172.373 50.1125C174.129 50.1125 175.585 49.5062 176.744 48.2936C177.92 47.063 178.508 45.5427 178.508 43.7329C178.508 41.9231 177.92 40.4029 176.744 39.1722C175.567 37.9416 174.11 37.3262 172.373 37.3262C170.636 37.3262 169.179 37.9416 168.002 39.1722Z" fill="#F5F5F5"/>
<path d="M143.487 38.0864L143.676 38.738L144.339 38.5452L144.135 37.8861L143.487 38.0864ZM139.849 39.1451L139.196 39.3315L139.384 39.9873L140.038 39.7967L139.849 39.1451ZM134.745 37.8963L135.126 38.4582L135.132 38.4541L135.138 38.4498L134.745 37.8963ZM135.641 41.0997L135.905 40.4746L135.905 40.4744L135.641 41.0997ZM138.763 42.1041L138.573 42.7556L138.582 42.7582L138.763 42.1041ZM141.586 43.1628L141.264 43.7605L141.275 43.7659L141.586 43.1628ZM142.944 44.1673L142.44 44.6226L142.447 44.6299L142.454 44.6371L142.944 44.1673ZM142.238 52.0128L142.672 52.5341L142.673 52.5335L142.238 52.0128ZM132.329 52.3385L131.949 52.901L131.96 52.9079L132.329 52.3385ZM129.723 49.0266L129.529 48.3763L128.874 48.5717L129.074 49.2249L129.723 49.0266ZM133.361 47.9407L134.021 47.7853L133.856 47.0845L133.167 47.2904L133.361 47.9407ZM134.637 49.5152L134.281 50.0932L134.29 50.0985L134.298 50.1036L134.637 49.5152ZM139.604 49.5424L139.958 50.1216L139.97 50.1143L139.604 49.5424ZM139.903 46.6105L140.363 46.1111L140.345 46.0952L140.327 46.0806L139.903 46.6105ZM139.116 46.149L138.812 46.756L138.819 46.7593L138.825 46.7624L139.116 46.149ZM137.596 45.5789L137.805 44.9335L137.797 44.9307L137.788 44.9282L137.596 45.5789ZM133.008 43.9501L132.688 44.5486L132.693 44.5516L133.008 43.9501ZM132.058 35.426L131.613 34.9133L131.61 34.9162L132.058 35.426ZM141.07 35.0459L140.696 35.6119L140.702 35.6157L141.07 35.0459ZM143.297 37.4347L139.659 38.4935L140.038 39.7967L143.676 38.738L143.297 37.4347ZM140.501 38.9586C140.298 38.2473 139.801 37.6904 139.123 37.2665L138.403 38.4176C138.883 38.7176 139.11 39.0294 139.196 39.3315L140.501 38.9586ZM139.123 37.2665C138.426 36.8313 137.639 36.6204 136.781 36.6204V37.9778C137.407 37.9778 137.941 38.1288 138.403 38.4176L139.123 37.2665ZM136.781 36.6204C135.867 36.6204 135.046 36.8509 134.352 37.3429L135.138 38.4498C135.567 38.1454 136.103 37.9778 136.781 37.9778V36.6204ZM134.365 37.3344C133.661 37.8108 133.225 38.4731 133.225 39.308H134.582C134.582 39.0208 134.707 38.742 135.126 38.4582L134.365 37.3344ZM133.225 39.308C133.225 40.4579 134.176 41.2184 135.377 41.725L135.905 40.4744C134.789 40.0037 134.582 39.5697 134.582 39.308H133.225ZM135.377 41.7247C135.89 41.942 136.971 42.2876 138.573 42.7556L138.953 41.4527C137.334 40.9795 136.333 40.6555 135.905 40.4746L135.377 41.7247ZM138.582 42.7582C139.732 43.0767 140.62 43.4134 141.264 43.7604L141.908 42.5653C141.141 42.1522 140.147 41.7831 138.944 41.4501L138.582 42.7582ZM141.275 43.7659C141.78 44.0265 142.162 44.3151 142.44 44.6226L143.447 43.712C143.037 43.2593 142.515 42.8783 141.897 42.5598L141.275 43.7659ZM142.454 44.6371C143.165 45.3786 143.541 46.3503 143.541 47.615H144.898C144.898 46.0563 144.423 44.7296 143.433 43.6975L142.454 44.6371ZM143.541 47.615C143.541 49.2559 142.959 50.5258 141.803 51.492L142.673 52.5335C144.159 51.2918 144.898 49.6298 144.898 47.615H143.541ZM141.803 51.4914C140.648 52.4541 139.121 52.9629 137.161 52.9629V54.3203C139.364 54.3203 141.221 53.7432 142.672 52.5341L141.803 51.4914ZM137.161 52.9629C135.386 52.9629 133.909 52.5545 132.698 51.7691L131.96 52.9079C133.427 53.8599 135.172 54.3203 137.161 54.3203V52.9629ZM132.709 51.7762C131.474 50.9414 130.717 49.9563 130.372 48.8283L129.074 49.2249C129.526 50.703 130.506 51.9259 131.949 52.9009L132.709 51.7762ZM129.917 49.6769L133.555 48.591L133.167 47.2904L129.529 48.3763L129.917 49.6769ZM132.7 48.0962C132.898 48.937 133.471 49.5949 134.281 50.0932L134.992 48.9372C134.391 48.5669 134.113 48.1751 134.021 47.7853L132.7 48.0962ZM134.298 50.1036C135.14 50.5873 136.101 50.8183 137.161 50.8183V49.4609C136.303 49.4609 135.581 49.2756 134.975 48.9269L134.298 50.1036ZM137.161 50.8183C138.229 50.8183 139.174 50.6006 139.958 50.1215L139.251 48.9633C138.732 49.2804 138.048 49.4609 137.161 49.4609V50.8183ZM139.97 50.1143C140.774 49.6004 141.26 48.87 141.26 47.9407H139.903C139.903 48.3145 139.738 48.6519 139.239 48.9705L139.97 50.1143ZM141.26 47.9407C141.26 47.2266 140.91 46.6143 140.363 46.1111L139.444 47.11C139.802 47.4393 139.903 47.7137 139.903 47.9407H141.26ZM140.327 46.0806C140.087 45.8887 139.772 45.7087 139.406 45.5357L138.825 46.7624C139.148 46.9151 139.357 47.0427 139.479 47.1405L140.327 46.0806ZM139.419 45.542C139.08 45.3723 138.53 45.169 137.805 44.9335L137.386 46.2244C138.109 46.4594 138.573 46.6362 138.812 46.756L139.419 45.542ZM137.788 44.9282C135.522 44.2572 134.052 43.7303 133.322 43.3486L132.693 44.5516C133.556 45.0024 135.145 45.5614 137.403 46.2297L137.788 44.9282ZM133.328 43.3516C132.497 42.9073 131.909 42.3734 131.526 41.7638C131.145 41.1566 130.945 40.4366 130.945 39.5794H129.587C129.587 40.6587 129.843 41.6354 130.376 42.4851C130.908 43.3324 131.691 44.0157 132.688 44.5486L133.328 43.3516ZM130.945 39.5794C130.945 38.0375 131.471 36.8452 132.506 35.9358L131.61 34.9162C130.256 36.106 129.587 37.6828 129.587 39.5794H130.945ZM132.502 35.9386C133.591 34.9943 134.981 34.503 136.727 34.503V33.1456C134.708 33.1456 132.986 33.7221 131.613 34.9133L132.502 35.9386ZM136.727 34.503C138.276 34.503 139.59 34.8801 140.696 35.6119L141.445 34.4799C140.089 33.5828 138.507 33.1456 136.727 33.1456V34.503ZM140.702 35.6157C141.818 36.3381 142.511 37.229 142.838 38.2866L144.135 37.8861C143.701 36.4824 142.784 35.3463 141.439 34.4761L140.702 35.6157ZM146.862 34.2315V33.5528H146.183V34.2315H146.862ZM160.869 34.2315H161.548V33.5528H160.869V34.2315ZM160.869 37.5977V38.2764H161.548V37.5977H160.869ZM150.499 37.5977V36.919H149.821V37.5977H150.499ZM150.499 41.9412H149.821V42.6199H150.499V41.9412ZM159.376 41.9412H160.055V41.2626H159.376V41.9412ZM159.376 45.3075V45.9861H160.055V45.3075H159.376ZM150.499 45.3075V44.6288H149.821V45.3075H150.499ZM150.499 49.8681H149.821V50.5468H150.499V49.8681ZM161.005 49.8681H161.684V49.1895H161.005V49.8681ZM161.005 53.2344V53.913H161.684V53.2344H161.005ZM146.862 53.2344H146.183V53.913H146.862V53.2344ZM146.862 34.9102H160.869V33.5528H146.862V34.9102ZM160.191 34.2315V37.5977H161.548V34.2315H160.191ZM160.869 36.919H150.499V38.2764H160.869V36.919ZM149.821 37.5977V41.9412H151.178V37.5977H149.821ZM150.499 42.6199H159.376V41.2626H150.499V42.6199ZM158.698 41.9412V45.3075H160.055V41.9412H158.698ZM159.376 44.6288H150.499V45.9861H159.376V44.6288ZM149.821 45.3075V49.8681H151.178V45.3075H149.821ZM150.499 50.5468H161.005V49.1895H150.499V50.5468ZM160.327 49.8681V53.2344H161.684V49.8681H160.327ZM161.005 52.5557H146.862V53.913H161.005V52.5557ZM147.54 53.2344V34.2315H146.183V53.2344H147.54ZM179.458 36.6747L178.974 37.1501L178.983 37.1592L179.458 36.6747ZM179.458 50.8183L178.978 50.3384L179.458 50.8183ZM165.288 50.8183L164.803 51.2937L164.812 51.3027L165.288 50.8183ZM165.288 36.6747L165.768 37.1546L165.288 36.6747ZM168.002 39.1722L167.512 38.7033L167.512 38.7035L168.002 39.1722ZM168.002 48.2936L168.493 47.8248L168.002 48.2936ZM176.744 48.2936L176.253 47.8247L176.253 47.8248L176.744 48.2936ZM176.744 39.1722L176.253 39.6412L176.744 39.1722ZM172.373 34.503C175.065 34.503 177.248 35.3901 178.974 37.15L179.943 36.1995C177.941 34.1587 175.4 33.1456 172.373 33.1456V34.503ZM178.983 37.1592C180.744 38.8864 181.63 41.0602 181.63 43.7329H182.987C182.987 40.7229 181.973 38.1912 179.934 36.1902L178.983 37.1592ZM181.63 43.7329C181.63 46.3863 180.745 48.5724 178.978 50.3384L179.938 51.2982C181.973 49.2636 182.987 46.7261 182.987 43.7329H181.63ZM178.978 50.3384C177.233 52.0841 175.048 52.9629 172.373 52.9629V54.3203C175.381 54.3203 177.92 53.3169 179.938 51.2982L178.978 50.3384ZM172.373 52.9629C169.737 52.9629 167.548 52.0856 165.763 50.3339L164.812 51.3027C166.864 53.3153 169.399 54.3203 172.373 54.3203V52.9629ZM165.772 50.343C164.02 48.5575 163.143 46.369 163.143 43.7329H161.786C161.786 46.7072 162.791 49.2423 164.803 51.2936L165.772 50.343ZM163.143 43.7329C163.143 41.0775 164.021 38.9012 165.768 37.1546L164.808 36.1948C162.79 38.2126 161.786 40.7418 161.786 43.7329H163.143ZM165.768 37.1546C167.534 35.3886 169.72 34.503 172.373 34.503V33.1456C169.38 33.1456 166.842 34.1603 164.808 36.1948L165.768 37.1546ZM167.512 38.7035C166.221 40.0542 165.586 41.7476 165.586 43.7329H166.944C166.944 42.0625 167.467 40.7154 168.493 39.641L167.512 38.7035ZM165.586 43.7329C165.586 45.7182 166.221 47.4117 167.512 48.7624L168.493 47.8248C167.467 46.7505 166.944 45.4034 166.944 43.7329H165.586ZM167.512 48.7624C168.805 50.1159 170.442 50.7911 172.373 50.7911V49.4338C170.793 49.4338 169.517 48.8965 168.493 47.8248L167.512 48.7624ZM172.373 50.7911C174.304 50.7911 175.942 50.1159 177.234 48.7624L176.253 47.8248C175.229 48.8965 173.953 49.4338 172.373 49.4338V50.7911ZM177.234 48.7626C178.539 47.3971 179.187 45.7053 179.187 43.7329H177.83C177.83 45.3802 177.301 46.7288 176.253 47.8247L177.234 48.7626ZM179.187 43.7329C179.187 41.7606 178.539 40.0687 177.234 38.7033L176.253 39.6412C177.301 40.7371 177.83 42.0857 177.83 43.7329H179.187ZM177.234 38.7033C175.927 37.3356 174.291 36.6476 172.373 36.6476V38.0049C173.929 38.0049 175.208 38.5476 176.253 39.6412L177.234 38.7033ZM172.373 36.6476C170.455 36.6476 168.819 37.3356 167.512 38.7033L168.493 39.6412C169.538 38.5476 170.817 38.0049 172.373 38.0049V36.6476Z" fill="black"/>
<path d="M281.438 67.1096C281.438 63.9694 280.19 60.9578 277.97 58.7374C275.75 56.517 272.738 55.2695 269.598 55.2695C266.458 55.2695 263.446 56.517 261.226 58.7374C259.005 60.9578 257.758 63.9694 257.758 67.1096L269.598 67.1096H281.438Z" fill="#D4D4D4"/>
<path d="M263.961 67.1082C263.961 65.0148 263.159 63.0071 261.732 61.5268C260.304 60.0465 258.368 59.2148 256.35 59.2148C254.331 59.2148 252.395 60.0465 250.968 61.5268C249.54 63.007 248.738 65.0148 248.738 67.1082L256.35 67.1082H263.961Z" fill="#D4D4D4"/>
<path d="M297.789 67.1082C297.789 65.0148 296.631 63.0071 294.569 61.5268C292.507 60.0465 289.711 59.2148 286.795 59.2148C283.879 59.2148 281.083 60.0465 279.021 61.5268C276.959 63.007 275.801 65.0148 275.801 67.1082L286.795 67.1082H297.789Z" fill="#D4D4D4"/>
</svg>
