<svg width="230" height="97" viewBox="0 0 230 97" fill="none" xmlns="http://www.w3.org/2000/svg">
<path d="M173.07 55.091L193.357 35.67M193.357 35.67L185.45 38.661M193.357 35.67L190.331 42.7587" stroke="url(#paint0_linear)"/>
<circle r="13.5" transform="matrix(1 0 0 -1 14.4492 32.0918)" stroke="url(#paint1_linear)"/>
<path d="M152.599 56.4403L131.56 40.4774" stroke="url(#paint2_linear)"/>
<circle r="13.5" transform="matrix(1 0 0 -1 61.4492 69.0918)" stroke="url(#paint3_linear)"/>
<circle r="13.5" transform="matrix(1 0 0 -1 119.398 35.209)" stroke="url(#paint4_linear)"/>
<circle r="19.5" transform="matrix(-1 0 0 1 61.9492 69.209)" stroke="url(#paint5_linear)"/>
<path d="M46.9492 82.209L23.4492 95.709L20.9492 91.709L44.4492 78.209" stroke="url(#paint6_linear)"/>
<circle r="13.5" transform="matrix(1 0 0 -1 163.449 64.209)" stroke="url(#paint7_linear)"/>
<path d="M23.9492 42.0922L46.9492 56.7285" stroke="url(#paint8_linear)"/>
<path d="M75.4492 55.6348L106.504 38.469" stroke="url(#paint9_linear)"/>
<path d="M53.4922 68.7261H61.4506M69.409 68.7261H61.4506M61.4506 68.7261V76.4434V61.9736" stroke="url(#paint10_linear)"/>
<path d="M158.421 18.0491C158.421 16.1611 158.981 14.6011 160.101 13.3691C161.221 12.1211 162.629 11.4971 164.325 11.4971C165.605 11.4971 166.757 11.8811 167.781 12.6491V11.8091H171.357V24.2891H167.781V23.4251C166.789 24.2091 165.637 24.6011 164.325 24.6011C162.629 24.6011 161.221 23.9771 160.101 22.7291C158.981 21.4651 158.421 19.9051 158.421 18.0491ZM164.949 15.0491C164.165 15.0491 163.501 15.3371 162.957 15.9131C162.429 16.4891 162.165 17.1931 162.165 18.0251C162.165 18.8891 162.429 19.6091 162.957 20.1851C163.501 20.7611 164.165 21.0491 164.949 21.0491C165.717 21.0491 166.373 20.7611 166.917 20.1851C167.461 19.6091 167.733 18.8891 167.733 18.0251C167.733 17.1771 167.461 16.4731 166.917 15.9131C166.373 15.3371 165.717 15.0491 164.949 15.0491ZM173.383 24.2891V6.28906H176.983V12.6491C177.975 11.8811 179.119 11.4971 180.415 11.4971C182.095 11.4971 183.503 12.1211 184.639 13.3691C185.775 14.6331 186.343 16.1931 186.343 18.0491C186.343 19.8891 185.775 21.4491 184.639 22.7291C183.503 23.9771 182.095 24.6011 180.415 24.6011C179.151 24.6011 178.007 24.2171 176.983 23.4491V24.2891H173.383ZM179.815 15.0491C179.031 15.0491 178.367 15.3371 177.823 15.9131C177.295 16.4891 177.031 17.1931 177.031 18.0251C177.031 18.8891 177.295 19.6091 177.823 20.1851C178.367 20.7611 179.031 21.0491 179.815 21.0491C180.583 21.0491 181.231 20.7611 181.759 20.1851C182.303 19.6091 182.575 18.8891 182.575 18.0251C182.575 17.1771 182.303 16.4731 181.759 15.9131C181.231 15.3371 180.583 15.0491 179.815 15.0491ZM200.561 15.7931L196.937 16.8491C196.713 16.3051 196.361 15.8731 195.881 15.5531C195.401 15.2171 194.857 15.0491 194.249 15.0491C193.417 15.0491 192.721 15.3371 192.161 15.9131C191.601 16.4731 191.321 17.1771 191.321 18.0251C191.321 18.8891 191.601 19.6091 192.161 20.1851C192.721 20.7611 193.417 21.0491 194.249 21.0491C194.857 21.0491 195.401 20.8891 195.881 20.5691C196.361 20.2331 196.713 19.7931 196.937 19.2491L200.561 20.3051C200.081 21.6171 199.273 22.6651 198.137 23.4491C197.001 24.2171 195.705 24.6011 194.249 24.6011C192.329 24.6011 190.737 23.9771 189.473 22.7291C188.209 21.4651 187.577 19.9051 187.577 18.0491C187.577 16.1771 188.209 14.6171 189.473 13.3691C190.737 12.1211 192.329 11.4971 194.249 11.4971C195.705 11.4971 197.001 11.8891 198.137 12.6731C199.273 13.4411 200.081 14.4811 200.561 15.7931ZM201.546 18.0491C201.546 16.1611 202.106 14.6011 203.226 13.3691C204.346 12.1211 205.754 11.4971 207.45 11.4971C208.73 11.4971 209.882 11.8811 210.906 12.6491V6.28906H214.482V24.2891H210.906V23.4251C209.914 24.2091 208.762 24.6011 207.45 24.6011C205.754 24.6011 204.346 23.9771 203.226 22.7291C202.106 21.4651 201.546 19.9051 201.546 18.0491ZM208.074 15.0491C207.29 15.0491 206.626 15.3371 206.082 15.9131C205.554 16.4891 205.29 17.1931 205.29 18.0251C205.29 18.8891 205.554 19.6091 206.082 20.1851C206.626 20.7611 207.29 21.0491 208.074 21.0491C208.842 21.0491 209.498 20.7611 210.042 20.1851C210.586 19.6091 210.858 18.8891 210.858 18.0251C210.858 17.1771 210.586 16.4731 210.042 15.9131C209.498 15.3371 208.842 15.0491 208.074 15.0491ZM229.204 19.3451H219.916C220.124 20.0011 220.5 20.5291 221.044 20.9291C221.588 21.3291 222.228 21.5291 222.964 21.5291C223.988 21.5291 224.812 21.1611 225.436 20.4251L228.916 21.2171C228.34 22.2731 227.524 23.1051 226.468 23.7131C225.428 24.3051 224.252 24.6011 222.94 24.6011C220.988 24.6011 219.364 23.9771 218.068 22.7291C216.772 21.4811 216.124 19.9211 216.124 18.0491C216.124 16.1931 216.756 14.6411 218.02 13.3931C219.284 12.1291 220.86 11.4971 222.748 11.4971C224.62 11.4971 226.188 12.1291 227.452 13.3931C228.716 14.6411 229.348 16.1931 229.348 18.0491C229.348 18.4971 229.3 18.9291 229.204 19.3451ZM219.94 16.6811H225.676C225.452 16.0411 225.076 15.5291 224.548 15.1451C224.02 14.7611 223.42 14.5691 222.748 14.5691C222.108 14.5691 221.532 14.7611 221.02 15.1451C220.508 15.5291 220.148 16.0411 219.94 16.6811Z" fill="url(#paint11_linear)"/>
<defs>
<linearGradient id="paint0_linear" x1="171.071" y1="58.2199" x2="199.26" y2="33.2084" gradientUnits="userSpaceOnUse">
<stop stop-color="#AB85FF"/>
<stop offset="0.526042" stop-color="#EBA3E3"/>
<stop offset="1" stop-color="#FFDBE4"/>
</linearGradient>
<linearGradient id="paint1_linear" x1="-4.55467" y1="30.7963" x2="27.7184" y2="-10.9219" gradientUnits="userSpaceOnUse">
<stop stop-color="#AB85FF"/>
<stop offset="0.526042" stop-color="#EBA3E3"/>
<stop offset="1" stop-color="#FFDBE4"/>
</linearGradient>
<linearGradient id="paint2_linear" x1="155.682" y1="57.7714" x2="125.239" y2="40.1169" gradientUnits="userSpaceOnUse">
<stop stop-color="#AB85FF"/>
<stop offset="0.526042" stop-color="#EBA3E3"/>
<stop offset="1" stop-color="#FFDBE4"/>
</linearGradient>
<linearGradient id="paint3_linear" x1="-4.55467" y1="30.7963" x2="27.7184" y2="-10.9219" gradientUnits="userSpaceOnUse">
<stop stop-color="#AB85FF"/>
<stop offset="0.526042" stop-color="#EBA3E3"/>
<stop offset="1" stop-color="#FFDBE4"/>
</linearGradient>
<linearGradient id="paint4_linear" x1="-4.55467" y1="30.7963" x2="27.7184" y2="-10.9219" gradientUnits="userSpaceOnUse">
<stop stop-color="#AB85FF"/>
<stop offset="0.526042" stop-color="#EBA3E3"/>
<stop offset="1" stop-color="#FFDBE4"/>
</linearGradient>
<linearGradient id="paint5_linear" x1="-6.50667" y1="43.9948" x2="39.5977" y2="-15.6028" gradientUnits="userSpaceOnUse">
<stop stop-color="#AB85FF"/>
<stop offset="0.526042" stop-color="#EBA3E3"/>
<stop offset="1" stop-color="#FFDBE4"/>
</linearGradient>
<linearGradient id="paint6_linear" x1="51.1786" y1="97.4567" x2="34.106" y2="64.6683" gradientUnits="userSpaceOnUse">
<stop stop-color="#AB85FF"/>
<stop offset="0.526042" stop-color="#EBA3E3"/>
<stop offset="1" stop-color="#FFDBE4"/>
</linearGradient>
<linearGradient id="paint7_linear" x1="-4.55467" y1="30.7963" x2="27.7184" y2="-10.9219" gradientUnits="userSpaceOnUse">
<stop stop-color="#AB85FF"/>
<stop offset="0.526042" stop-color="#EBA3E3"/>
<stop offset="1" stop-color="#FFDBE4"/>
</linearGradient>
<linearGradient id="paint8_linear" x1="20.2079" y1="40.6304" x2="34.0205" y2="68.6885" gradientUnits="userSpaceOnUse">
<stop stop-color="#AB85FF"/>
<stop offset="0.526042" stop-color="#EBA3E3"/>
<stop offset="1" stop-color="#FFDBE4"/>
</linearGradient>
<linearGradient id="paint9_linear" x1="70.3977" y1="36.7546" x2="85.177" y2="71.3167" gradientUnits="userSpaceOnUse">
<stop stop-color="#AB85FF"/>
<stop offset="0.526042" stop-color="#EBA3E3"/>
<stop offset="1" stop-color="#FFDBE4"/>
</linearGradient>
<linearGradient id="paint10_linear" x1="50.9031" y1="60.5285" x2="67.1185" y2="83.5858" gradientUnits="userSpaceOnUse">
<stop stop-color="#AB85FF"/>
<stop offset="0.526042" stop-color="#EBA3E3"/>
<stop offset="1" stop-color="#FFDBE4"/>
</linearGradient>
<linearGradient id="paint11_linear" x1="146.085" y1="39.8844" x2="174.932" y2="-34.695" gradientUnits="userSpaceOnUse">
<stop stop-color="#AB85FF"/>
<stop offset="0.526042" stop-color="#EBA3E3"/>
<stop offset="1" stop-color="#FFDBE4"/>
</linearGradient>
</defs>
</svg>
