<svg width="341" height="180" viewBox="0 0 341 180" fill="none" xmlns="http://www.w3.org/2000/svg">
<rect x="139" y="30" width="129" height="89.5833" fill="#A57CFE"/>
<mask id="mask0" mask-type="alpha" maskUnits="userSpaceOnUse" x="139" y="30" width="129" height="90">
<rect width="129" height="89.5833" transform="matrix(-1 0 0 1 268 30)" fill="#31D67B"/>
</mask>
<g mask="url(#mask0)">
<path d="M425.531 52.679C326.843 13.5168 256.351 13.5168 214.056 52.679C171.761 91.8411 101.269 91.8411 2.58041 52.679" stroke="#4AE991" stroke-width="2"/>
<path d="M413.169 127.678C337.513 68.769 270.674 53.2148 212.652 81.0149C154.631 108.815 87.7918 93.2607 12.136 34.3521" stroke="#4AE991" stroke-width="2"/>
<path d="M421.358 101.785C318.544 68.1285 248.27 71.9748 210.537 113.324C172.803 154.672 102.53 158.519 -0.284879 124.863" stroke="#4AE991" stroke-width="2"/>
</g>
<circle cx="98.5" cy="73.5" r="30.5" fill="#31D67B"/>
<circle cx="104.375" cy="52.375" r="1.375" fill="#D4D4D4"/>
<circle cx="110.125" cy="52.375" r="1.375" fill="#D4D4D4"/>
<circle cx="115.875" cy="52.375" r="1.375" fill="#D4D4D4"/>
<circle cx="121.375" cy="52.375" r="1.375" fill="#D4D4D4"/>
<circle cx="127.375" cy="52.375" r="1.375" fill="#D4D4D4"/>
<circle cx="133.125" cy="52.375" r="1.375" fill="#D4D4D4"/>
<circle cx="138.875" cy="52.375" r="1.375" fill="#D4D4D4"/>
<circle cx="144.625" cy="52.375" r="1.375" fill="#D4D4D4"/>
<circle cx="150.375" cy="52.375" r="1.375" fill="#D4D4D4"/>
<circle cx="104.375" cy="58.125" r="1.375" fill="#D4D4D4"/>
<circle cx="110.125" cy="58.125" r="1.375" fill="#D4D4D4"/>
<circle cx="104.375" cy="63.875" r="1.375" fill="#D4D4D4"/>
<circle cx="110.125" cy="63.875" r="1.375" fill="#D4D4D4"/>
<circle cx="115.875" cy="63.875" r="1.375" fill="#D4D4D4"/>
<circle cx="121.625" cy="63.875" r="1.375" fill="#D4D4D4"/>
<circle cx="127.375" cy="63.875" r="1.375" fill="#D4D4D4"/>
<circle cx="133.125" cy="63.875" r="1.375" fill="#D4D4D4"/>
<circle cx="138.875" cy="63.875" r="1.375" fill="#D4D4D4"/>
<circle cx="144.625" cy="63.875" r="1.375" fill="#D4D4D4"/>
<circle cx="150.375" cy="63.875" r="1.375" fill="#D4D4D4"/>
<circle cx="115.875" cy="58.125" r="1.375" fill="#D4D4D4"/>
<circle cx="121.375" cy="58.125" r="1.375" fill="#D4D4D4"/>
<circle cx="127.375" cy="58.125" r="1.375" fill="#D4D4D4"/>
<circle cx="133.125" cy="58.125" r="1.375" fill="#D4D4D4"/>
<circle cx="138.875" cy="58.125" r="1.375" fill="#D4D4D4"/>
<circle cx="144.625" cy="58.125" r="1.375" fill="#D4D4D4"/>
<circle cx="150.375" cy="58.125" r="1.375" fill="#D4D4D4"/>
<path d="M89.5 89L56 109.5" stroke="black"/>
<path d="M92.5 99L59 119.5" stroke="black"/>
<path d="M86 79L52 99" stroke="black"/>
<path d="M229.965 150L229.965 77M229.965 77L229 79M229.965 77L230.93 79" stroke="black"/>
<path d="M246 150L246 48M246 48L245 50.7945M246 48L247 50.7945" stroke="black"/>
<path d="M214 150V104M214 104L213 105.26M214 104L215 105.26" stroke="black"/>
<path d="M262 150V117M262 117L261 117.904M262 117L263 117.904" stroke="black"/>
</svg>
