<svg fill="none" xmlns="http://www.w3.org/2000/svg" viewBox="0 0 341 180">
  <path d="M249.5 27H138v99h111.5l20.5-7.5V33.2L249.5 27z" fill="#A57CFE"/>
  <path d="M249.5 27v99l20.5-7.5V33.2L249.5 27z" fill="#8052E4"/>
  <path d="M160 115h73m0 0l-2-1m2 1l-2 1M160 131h102m0 0l-2.8-1m2.8 1l-2.8 1M160 99h46m0 0l-1.3-1m1.3 1l-1.3 1M160 147h33m0 0l-.9-1m.9 1l-.9 1" stroke="#000"/>
  <path d="M84.8 86h75.5v67H84.8L71 148V90.1L84.8 86z" fill="#4AE991"/>
  <path d="M84.8 86v67L71 148V90.1L84.8 86z" fill="#31D67B"/>
  <circle cx="115.4" cy="43.4" r="1.4" fill="#D4D4D4"/>
  <circle cx="121.1" cy="43.4" r="1.4" fill="#D4D4D4"/>
  <circle cx="126.9" cy="43.4" r="1.4" fill="#D4D4D4"/>
  <circle cx="132.4" cy="43.4" r="1.4" fill="#D4D4D4"/>
  <circle cx="138.4" cy="43.4" r="1.4" fill="#D4D4D4"/>
  <circle cx="144.1" cy="43.4" r="1.4" fill="#D4D4D4"/>
  <circle cx="149.9" cy="43.4" r="1.4" fill="#D4D4D4"/>
  <circle cx="155.6" cy="43.4" r="1.4" fill="#D4D4D4"/>
  <circle cx="161.4" cy="43.4" r="1.4" fill="#D4D4D4"/>
  <circle cx="115.4" cy="49.1" r="1.4" fill="#D4D4D4"/>
  <circle cx="121.1" cy="49.1" r="1.4" fill="#D4D4D4"/>
  <circle cx="115.4" cy="54.9" r="1.4" fill="#D4D4D4"/>
  <circle cx="121.1" cy="54.9" r="1.4" fill="#D4D4D4"/>
  <circle cx="126.9" cy="54.9" r="1.4" fill="#D4D4D4"/>
  <circle cx="132.6" cy="54.9" r="1.4" fill="#D4D4D4"/>
  <circle cx="138.4" cy="54.9" r="1.4" fill="#D4D4D4"/>
  <circle cx="144.1" cy="54.9" r="1.4" fill="#D4D4D4"/>
  <circle cx="149.9" cy="54.9" r="1.4" fill="#D4D4D4"/>
  <circle cx="155.6" cy="54.9" r="1.4" fill="#D4D4D4"/>
  <circle cx="161.4" cy="54.9" r="1.4" fill="#D4D4D4"/>
  <circle cx="126.9" cy="49.1" r="1.4" fill="#D4D4D4"/>
  <circle cx="132.4" cy="49.1" r="1.4" fill="#D4D4D4"/>
  <circle cx="138.4" cy="49.1" r="1.4" fill="#D4D4D4"/>
  <circle cx="144.1" cy="49.1" r="1.4" fill="#D4D4D4"/>
  <circle cx="149.9" cy="49.1" r="1.4" fill="#D4D4D4"/>
  <circle cx="155.6" cy="49.1" r="1.4" fill="#D4D4D4"/>
  <circle cx="161.4" cy="49.1" r="1.4" fill="#D4D4D4"/>
</svg>
