<svg width="342" height="180" viewBox="0 0 342 180" fill="none" xmlns="http://www.w3.org/2000/svg">
<rect width="341" height="180" transform="translate(0.00195312)" fill="#F5F5F5"/>
<path d="M126.279 29L199.025 142.25H53.5332L126.279 29Z" fill="#31D67B"/>
<path d="M212.057 88.9035L275.355 88.9035M275.355 88.9035L273.621 87.2834M275.355 88.9035L273.621 90.5234" stroke="black"/>
<path d="M210.279 117.499L298.724 117.499M298.724 117.499L296.301 115.82M298.724 117.499L296.301 119.178" stroke="black"/>
<path d="M212.057 63.4991L251.944 63.4991M251.944 63.4991L250.851 61.8203M251.944 63.4991L250.851 65.1777" stroke="black"/>
<rect width="112" height="7" transform="translate(130.279 60)" fill="#AB85FF"/>
<rect width="112" height="12" transform="translate(144.279 82)" fill="#AB85FF"/>
<rect width="112" height="19" transform="translate(161.279 108)" fill="#AB85FF"/>
<mask id="mask0" mask-type="alpha" maskUnits="userSpaceOnUse" x="57" y="71" width="66" height="57">
<path d="M74.7793 73L82.7793 127" stroke="black"/>
<path d="M79.2793 73L87.2793 127" stroke="black"/>
<path d="M84.2793 73L92.2793 127" stroke="black"/>
<path d="M89.2793 73L97.2793 127" stroke="black"/>
<path d="M94.2793 72L102.279 126" stroke="black"/>
<path d="M99.2793 72L107.279 126" stroke="black"/>
<path d="M104.279 72L112.279 126" stroke="black"/>
<path d="M109.279 72L117.279 126" stroke="black"/>
<path d="M114.279 72L122.279 126" stroke="black"/>
<path d="M69.2793 73L77.2793 127" stroke="black"/>
<path d="M63.2793 73L71.2793 127" stroke="black"/>
<path d="M58.2793 73L66.2793 127" stroke="black"/>
</mask>
<g mask="url(#mask0)">
<path d="M85.7793 127L55.9014 75.25H115.657L85.7793 127Z" fill="black"/>
</g>
<path d="M216.946 47.3448C216.946 42.4795 215.013 37.8134 211.572 34.3731C208.132 30.9328 203.466 29 198.601 29C193.735 29 189.069 30.9328 185.629 34.3731C182.189 37.8134 180.256 42.4795 180.256 47.3448L198.601 47.3448H216.946Z" fill="#D4D4D4"/>
<path d="M189.866 47.3451C189.866 44.1016 188.623 40.9908 186.411 38.6973C184.2 36.4037 181.2 35.1152 178.072 35.1152C174.945 35.1152 171.945 36.4037 169.733 38.6973C167.522 40.9908 166.279 44.1016 166.279 47.3451L178.072 47.3451H189.866Z" fill="#D4D4D4"/>
<path d="M242.28 47.3451C242.28 44.1016 240.485 40.9908 237.291 38.6973C234.096 36.4037 229.763 35.1152 225.245 35.1152C220.728 35.1152 216.395 36.4037 213.2 38.6973C210.006 40.9908 208.211 44.1016 208.211 47.3451L225.245 47.3451H242.28Z" fill="#D4D4D4"/>
</svg>
