<svg width="342" height="180" viewBox="0 0 342 180" fill="none" xmlns="http://www.w3.org/2000/svg">
<rect width="341" height="180" transform="translate(0.00195312)" fill="#F5F5F5"/>
<path d="M210.163 141.75L138.332 29.9251L66.5013 141.75H210.163Z" stroke="black"/>
<path d="M96.2967 142L96.2967 69M96.2967 69L95.3316 71M96.2967 69L97.2617 71" stroke="black"/>
<path d="M112.332 142L112.332 40M112.332 40L111.332 42.7945M112.332 40L113.332 42.7945" stroke="black"/>
<path d="M80.332 142L80.332 96M80.332 96L79.332 97.2603M80.332 96L81.332 97.2603" stroke="black"/>
<path d="M128.332 142V109M128.332 109L127.332 109.904M128.332 109L129.332 109.904" stroke="black"/>
<circle cx="170.208" cy="59.1226" r="31.8765" fill="#B491FF"/>
<circle cx="225.342" cy="34.2654" r="13.2557" fill="#A57CFE"/>
<circle cx="257.169" cy="40.438" r="8.57086" fill="#8052E4"/>
<circle cx="218.803" cy="71.8209" r="2.82092" fill="#31D67B"/>
<circle cx="230.087" cy="71.8209" r="2.82092" fill="#31D67B"/>
<circle cx="241.372" cy="71.8209" r="2.82092" fill="#31D67B"/>
<circle cx="252.655" cy="71.8209" r="2.82092" fill="#31D67B"/>
<circle cx="218.803" cy="83.1041" r="2.82092" fill="#31D67B"/>
<circle cx="230.087" cy="83.1041" r="2.82092" fill="#31D67B"/>
<circle cx="241.372" cy="83.1041" r="2.82092" fill="#31D67B"/>
<circle cx="252.655" cy="83.1041" r="2.82092" fill="#31D67B"/>
<circle cx="252.655" cy="94.3893" r="2.82092" fill="#31D67B"/>
<circle cx="241.372" cy="94.3893" r="2.82092" fill="#31D67B"/>
<circle cx="230.087" cy="94.3893" r="2.82092" fill="#31D67B"/>
<circle cx="218.803" cy="94.3893" r="2.82092" fill="#31D67B"/>
<circle cx="218.803" cy="94.3873" r="2.82092" fill="#31D67B"/>
<circle cx="230.087" cy="94.3873" r="2.82092" fill="#31D67B"/>
<circle cx="241.372" cy="94.3873" r="2.82092" fill="#31D67B"/>
<circle cx="252.655" cy="94.3873" r="2.82092" fill="#31D67B"/>
<circle cx="218.803" cy="105.671" r="2.82092" fill="#31D67B"/>
<circle cx="230.087" cy="105.671" r="2.82092" fill="#31D67B"/>
<circle cx="241.372" cy="105.671" r="2.82092" fill="#31D67B"/>
<circle cx="252.655" cy="105.671" r="2.82092" fill="#31D67B"/>
<circle cx="252.655" cy="116.956" r="2.82092" fill="#31D67B"/>
<circle cx="241.372" cy="116.956" r="2.82092" fill="#31D67B"/>
<circle cx="230.087" cy="116.956" r="2.82092" fill="#31D67B"/>
<circle cx="218.803" cy="116.956" r="2.82092" fill="#31D67B"/>
</svg>
