<svg width="342" height="180" viewBox="0 0 342 180" fill="none" xmlns="http://www.w3.org/2000/svg">
<rect width="341" height="180" transform="translate(0.00195312)" fill="#F5F5F5"/>
<circle cx="45.1016" cy="93.5391" r="1.375" fill="#D4D4D4"/>
<circle cx="50.8516" cy="93.5391" r="1.375" fill="#D4D4D4"/>
<circle cx="56.6016" cy="93.5391" r="1.375" fill="#D4D4D4"/>
<circle cx="62.3516" cy="93.5391" r="1.375" fill="#D4D4D4"/>
<circle cx="68.1016" cy="93.5391" r="1.375" fill="#D4D4D4"/>
<circle cx="73.8516" cy="93.5391" r="1.375" fill="#D4D4D4"/>
<circle cx="79.6016" cy="93.5391" r="1.375" fill="#D4D4D4"/>
<circle cx="85.3516" cy="93.5391" r="1.375" fill="#D4D4D4"/>
<circle cx="91.1016" cy="93.5391" r="1.375" fill="#D4D4D4"/>
<circle cx="45.1016" cy="99.2891" r="1.375" fill="#D4D4D4"/>
<circle cx="50.8516" cy="99.2891" r="1.375" fill="#D4D4D4"/>
<circle cx="45.1016" cy="105.039" r="1.375" fill="#D4D4D4"/>
<circle cx="50.8516" cy="105.039" r="1.375" fill="#D4D4D4"/>
<circle cx="56.6016" cy="105.039" r="1.375" fill="#D4D4D4"/>
<circle cx="62.3516" cy="105.039" r="1.375" fill="#D4D4D4"/>
<circle cx="68.1016" cy="105.039" r="1.375" fill="#D4D4D4"/>
<circle cx="73.8516" cy="105.039" r="1.375" fill="#D4D4D4"/>
<circle cx="79.6016" cy="105.039" r="1.375" fill="#D4D4D4"/>
<circle cx="85.3516" cy="105.039" r="1.375" fill="#D4D4D4"/>
<circle cx="91.1016" cy="105.039" r="1.375" fill="#D4D4D4"/>
<circle cx="56.6016" cy="99.2891" r="1.375" fill="#D4D4D4"/>
<circle cx="62.3516" cy="99.2891" r="1.375" fill="#D4D4D4"/>
<circle cx="68.1016" cy="99.2891" r="1.375" fill="#D4D4D4"/>
<circle cx="73.8516" cy="99.2891" r="1.375" fill="#D4D4D4"/>
<circle cx="79.6016" cy="99.2891" r="1.375" fill="#D4D4D4"/>
<circle cx="85.3516" cy="99.2891" r="1.375" fill="#D4D4D4"/>
<circle cx="91.1016" cy="99.2891" r="1.375" fill="#D4D4D4"/>
<rect x="205.656" y="65.1641" width="84" height="84" fill="#31D67B"/>
<path d="M215.656 85.1641L215.656 90.1641" stroke="black"/>
<rect x="213.156" y="83.6641" width="68" height="8" stroke="black"/>
<rect x="213.156" y="102.664" width="68" height="8" stroke="black"/>
<rect x="213.156" y="121.664" width="68" height="8" stroke="black"/>
<path d="M261.656 51.8359C261.656 46.2664 259.444 40.925 255.505 36.9867C251.567 33.0484 246.226 30.8359 240.656 30.8359C235.087 30.8359 229.745 33.0484 225.807 36.9867C221.869 40.925 219.656 46.2664 219.656 51.8359L240.656 51.8359H261.656Z" fill="#8052E4"/>
<path d="M230.656 51.8359C230.656 48.1229 229.234 44.562 226.702 41.9364C224.17 39.3109 220.737 37.8359 217.156 37.8359C213.576 37.8359 210.142 39.3109 207.61 41.9364C205.079 44.562 203.656 48.1229 203.656 51.8359L217.156 51.8359H230.656Z" fill="#8052E4"/>
<path d="M290.656 51.8359C290.656 48.1229 288.602 44.562 284.945 41.9364C281.288 39.3109 276.328 37.8359 271.156 37.8359C265.985 37.8359 261.025 39.3109 257.368 41.9364C253.711 44.562 251.656 48.1229 251.656 51.8359L271.156 51.8359H290.656Z" fill="#8052E4"/>
<path d="M205.656 124.599H167.124M167.124 124.599L168.179 125.109M167.124 124.599L168.179 124.09" stroke="black"/>
<path d="M205.656 116.135H151.816M151.816 116.135L153.291 116.663M151.816 116.135L153.291 115.607" stroke="black"/>
<path d="M205.656 133.026H181.375M181.375 133.026L182.041 133.554M181.375 133.026L182.041 132.498" stroke="black"/>
<path d="M205.656 107.69H188.237M188.237 107.69L188.715 108.218M188.237 107.69L188.715 107.162" stroke="black"/>
<path d="M63.3248 80.1141C65.0848 80.1141 66.6648 80.6741 68.0648 81.7941V80.5641H71.7848V96.1641H68.0648V94.9341C66.6648 96.0541 65.0848 96.6141 63.3248 96.6141C61.1848 96.6141 59.3748 95.8341 57.8948 94.2741C56.4548 92.6941 55.7348 90.7241 55.7348 88.3641C55.7348 86.0041 56.4548 84.0441 57.8948 82.4841C59.3548 80.9041 61.1648 80.1141 63.3248 80.1141ZM66.7748 85.1541C65.9748 84.2941 64.9848 83.8641 63.8048 83.8641C62.6048 83.8641 61.6048 84.2941 60.8048 85.1541C60.0048 86.0141 59.6048 87.0841 59.6048 88.3641C59.6048 89.6441 60.0048 90.7141 60.8048 91.5741C61.6048 92.4341 62.6048 92.8641 63.8048 92.8641C64.9848 92.8641 65.9748 92.4341 66.7748 91.5741C67.5948 90.6941 68.0048 89.6241 68.0048 88.3641C68.0048 87.1041 67.5948 86.0341 66.7748 85.1541ZM80.967 96.1641V73.6641H84.717V81.7941C86.117 80.6741 87.687 80.1141 89.427 80.1141C91.587 80.1141 93.397 80.9041 94.857 82.4841C96.317 84.0241 97.047 85.9841 97.047 88.3641C97.047 90.7241 96.317 92.6941 94.857 94.2741C93.377 95.8341 91.567 96.6141 89.427 96.6141C87.687 96.6141 86.117 96.0541 84.717 94.9341V96.1641H80.967ZM91.917 85.1541C91.117 84.2941 90.127 83.8641 88.947 83.8641C87.767 83.8641 86.777 84.2941 85.977 85.1541C85.177 86.0141 84.777 87.0841 84.777 88.3641C84.777 89.6441 85.177 90.7141 85.977 91.5741C86.777 92.4341 87.767 92.8641 88.947 92.8641C90.127 92.8641 91.117 92.4341 91.917 91.5741C92.737 90.6941 93.147 89.6241 93.147 88.3641C93.147 87.1041 92.737 86.0341 91.917 85.1541ZM121.019 85.2741L117.269 86.3841C116.929 85.6041 116.399 84.9941 115.679 84.5541C114.979 84.0941 114.189 83.8641 113.309 83.8641C112.069 83.8641 111.029 84.2941 110.189 85.1541C109.349 86.0141 108.929 87.0841 108.929 88.3641C108.929 89.6441 109.349 90.7141 110.189 91.5741C111.029 92.4341 112.069 92.8641 113.309 92.8641C114.189 92.8641 114.979 92.6441 115.679 92.2041C116.399 91.7441 116.929 91.1241 117.269 90.3441L121.019 91.4541C120.419 93.0341 119.429 94.2941 118.049 95.2341C116.669 96.1541 115.089 96.6141 113.309 96.6141C110.969 96.6141 108.999 95.8341 107.399 94.2741C105.839 92.6941 105.059 90.7241 105.059 88.3641C105.059 86.0041 105.839 84.0441 107.399 82.4841C108.979 80.9041 110.949 80.1141 113.309 80.1141C115.089 80.1141 116.669 80.5841 118.049 81.5241C119.429 82.4441 120.419 83.6941 121.019 85.2741ZM136.344 80.1141C138.104 80.1141 139.684 80.6741 141.084 81.7941V73.6641H144.804V96.1641H141.084V94.9341C139.684 96.0541 138.104 96.6141 136.344 96.6141C134.204 96.6141 132.394 95.8341 130.914 94.2741C129.474 92.6941 128.754 90.7241 128.754 88.3641C128.754 86.0041 129.474 84.0441 130.914 82.4841C132.374 80.9041 134.184 80.1141 136.344 80.1141ZM139.794 85.1541C138.994 84.2941 138.004 83.8641 136.824 83.8641C135.624 83.8641 134.624 84.2941 133.824 85.1541C133.024 86.0141 132.624 87.0841 132.624 88.3641C132.624 89.6441 133.024 90.7141 133.824 91.5741C134.624 92.4341 135.624 92.8641 136.824 92.8641C138.004 92.8641 138.994 92.4341 139.794 91.5741C140.614 90.6941 141.024 89.6241 141.024 88.3641C141.024 87.1041 140.614 86.0341 139.794 85.1541ZM169.676 89.7441H157.286C157.566 90.7641 158.116 91.5941 158.936 92.2341C159.776 92.8541 160.746 93.1641 161.846 93.1641C163.386 93.1641 164.606 92.6141 165.506 91.5141L169.136 92.5641C168.416 93.8241 167.406 94.8141 166.106 95.5341C164.826 96.2541 163.406 96.6141 161.846 96.6141C159.446 96.6141 157.436 95.8341 155.816 94.2741C154.216 92.6741 153.416 90.7041 153.416 88.3641C153.416 86.0041 154.196 84.0441 155.756 82.4841C157.336 80.9041 159.286 80.1141 161.606 80.1141C163.926 80.1141 165.866 80.9041 167.426 82.4841C169.006 84.0641 169.796 86.0241 169.796 88.3641C169.796 88.7441 169.756 89.2041 169.676 89.7441ZM157.316 86.8341H165.926C165.626 85.8541 165.076 85.0641 164.276 84.4641C163.476 83.8641 162.566 83.5641 161.546 83.5641C160.566 83.5641 159.686 83.8641 158.906 84.4641C158.126 85.0641 157.596 85.8541 157.316 86.8341Z" fill="#AB85FF"/>
<path d="M68.0648 81.7941L67.4401 82.5749L69.0648 83.8747V81.7941H68.0648ZM68.0648 80.5641V79.5641H67.0648V80.5641H68.0648ZM71.7848 80.5641H72.7848V79.5641H71.7848V80.5641ZM71.7848 96.1641V97.1641H72.7848V96.1641H71.7848ZM68.0648 96.1641H67.0648V97.1641H68.0648V96.1641ZM68.0648 94.9341H69.0648V92.8534L67.4401 94.1532L68.0648 94.9341ZM57.8948 94.2741L57.1558 94.9477L57.1625 94.9551L57.1694 94.9623L57.8948 94.2741ZM57.8948 82.4841L57.1604 81.8054L57.16 81.8058L57.8948 82.4841ZM66.7748 85.1541L66.0427 85.8352L66.0432 85.8358L66.7748 85.1541ZM60.8048 91.5741L61.537 90.893L60.8048 91.5741ZM66.7748 91.5741L66.0432 90.8923L66.0427 90.893L66.7748 91.5741ZM63.3248 81.1141C64.8532 81.1141 66.2139 81.5939 67.4401 82.5749L68.6895 81.0132C67.1158 79.7542 65.3165 79.1141 63.3248 79.1141V81.1141ZM69.0648 81.7941V80.5641H67.0648V81.7941H69.0648ZM68.0648 81.5641H71.7848V79.5641H68.0648V81.5641ZM70.7848 80.5641V96.1641H72.7848V80.5641H70.7848ZM71.7848 95.1641H68.0648V97.1641H71.7848V95.1641ZM69.0648 96.1641V94.9341H67.0648V96.1641H69.0648ZM67.4401 94.1532C66.2139 95.1342 64.8532 95.6141 63.3248 95.6141V97.6141C65.3165 97.6141 67.1158 96.9739 68.6895 95.7149L67.4401 94.1532ZM63.3248 95.6141C61.4607 95.6141 59.9125 94.9479 58.6203 93.5858L57.1694 94.9623C58.8372 96.7203 60.909 97.6141 63.3248 97.6141V95.6141ZM58.6339 93.6005C57.3798 92.2244 56.7348 90.5029 56.7348 88.3641H54.7348C54.7348 90.9452 55.5299 93.1638 57.1558 94.9477L58.6339 93.6005ZM56.7348 88.3641C56.7348 86.2251 57.3797 84.5165 58.6296 83.1623L57.16 81.8058C55.53 83.5717 54.7348 85.783 54.7348 88.3641H56.7348ZM58.6293 83.1627C59.8991 81.7885 61.4425 81.1141 63.3248 81.1141V79.1141C60.8872 79.1141 58.8106 80.0196 57.1604 81.8054L58.6293 83.1627ZM67.507 84.473C66.5169 83.4085 65.2611 82.8641 63.8048 82.8641V84.8641C64.7085 84.8641 65.4328 85.1796 66.0427 85.8352L67.507 84.473ZM63.8048 82.8641C62.3339 82.8641 61.0664 83.4046 60.0727 84.473L61.537 85.8352C62.1433 85.1835 62.8758 84.8641 63.8048 84.8641V82.8641ZM60.0727 84.473C59.0844 85.5353 58.6048 86.8561 58.6048 88.3641H60.6048C60.6048 87.3121 60.9253 86.4928 61.537 85.8352L60.0727 84.473ZM58.6048 88.3641C58.6048 89.8721 59.0844 91.1928 60.0727 92.2552L61.537 90.893C60.9253 90.2353 60.6048 89.4161 60.6048 88.3641H58.6048ZM60.0727 92.2552C61.0664 93.3235 62.3339 93.8641 63.8048 93.8641V91.8641C62.8758 91.8641 62.1433 91.5446 61.537 90.893L60.0727 92.2552ZM63.8048 93.8641C65.2611 93.8641 66.5169 93.3196 67.507 92.2552L66.0427 90.893C65.4328 91.5485 64.7085 91.8641 63.8048 91.8641V93.8641ZM67.5065 92.2558C68.5078 91.1812 69.0048 89.8638 69.0048 88.3641H67.0048C67.0048 89.3843 66.6819 90.2069 66.0432 90.8923L67.5065 92.2558ZM69.0048 88.3641C69.0048 86.8643 68.5078 85.5469 67.5065 84.4723L66.0432 85.8358C66.6819 86.5212 67.0048 87.3438 67.0048 88.3641H69.0048ZM80.967 96.1641H79.967V97.1641H80.967V96.1641ZM80.967 73.6641V72.6641H79.967V73.6641H80.967ZM84.717 73.6641H85.717V72.6641H84.717V73.6641ZM84.717 81.7941H83.717V83.8747L85.3416 82.5749L84.717 81.7941ZM94.857 82.4841L94.1224 83.1628L94.1312 83.1721L94.857 82.4841ZM94.857 94.2741L95.5825 94.9624L95.5914 94.9527L94.857 94.2741ZM84.717 94.9341L85.3416 94.1532L83.717 92.8534V94.9341H84.717ZM84.717 96.1641V97.1641H85.717V96.1641H84.717ZM91.917 85.1541L91.1848 85.8352L91.1853 85.8358L91.917 85.1541ZM85.977 91.5741L86.7091 90.893L85.977 91.5741ZM91.917 91.5741L91.1853 90.8923L91.1848 90.893L91.917 91.5741ZM81.967 96.1641V73.6641H79.967V96.1641H81.967ZM80.967 74.6641H84.717V72.6641H80.967V74.6641ZM83.717 73.6641V81.7941H85.717V73.6641H83.717ZM85.3416 82.5749C86.5702 81.5921 87.9214 81.1141 89.427 81.1141V79.1141C87.4525 79.1141 85.6637 79.756 84.0923 81.0132L85.3416 82.5749ZM89.427 81.1141C91.3093 81.1141 92.8527 81.7885 94.1225 83.1627L95.5914 81.8054C93.9412 80.0196 91.8646 79.1141 89.427 79.1141V81.1141ZM94.1312 83.1721C95.3932 84.5032 96.047 86.2063 96.047 88.3641H98.047C98.047 85.7618 97.2407 83.5449 95.5827 81.7961L94.1312 83.1721ZM96.047 88.3641C96.047 90.499 95.3946 92.2188 94.1225 93.5954L95.5914 94.9527C97.2393 93.1694 98.047 90.9491 98.047 88.3641H96.047ZM94.1315 93.5858C92.8393 94.9479 91.2911 95.6141 89.427 95.6141V97.6141C91.8428 97.6141 93.9146 96.7203 95.5824 94.9623L94.1315 93.5858ZM89.427 95.6141C87.9214 95.6141 86.5702 95.136 85.3416 94.1532L84.0923 95.7149C85.6637 96.9721 87.4525 97.6141 89.427 97.6141V95.6141ZM83.717 94.9341V96.1641H85.717V94.9341H83.717ZM84.717 95.1641H80.967V97.1641H84.717V95.1641ZM92.6491 84.473C91.659 83.4085 90.4032 82.8641 88.947 82.8641V84.8641C89.8507 84.8641 90.5749 85.1796 91.1848 85.8352L92.6491 84.473ZM88.947 82.8641C87.4907 82.8641 86.2349 83.4085 85.2448 84.473L86.7091 85.8352C87.319 85.1796 88.0432 84.8641 88.947 84.8641V82.8641ZM85.2448 84.473C84.2565 85.5353 83.777 86.8561 83.777 88.3641H85.777C85.777 87.3121 86.0974 86.4928 86.7091 85.8352L85.2448 84.473ZM83.777 88.3641C83.777 89.8721 84.2565 91.1928 85.2448 92.2552L86.7091 90.893C86.0974 90.2353 85.777 89.4161 85.777 88.3641H83.777ZM85.2448 92.2552C86.2349 93.3196 87.4907 93.8641 88.947 93.8641V91.8641C88.0432 91.8641 87.319 91.5485 86.7091 90.893L85.2448 92.2552ZM88.947 93.8641C90.4032 93.8641 91.659 93.3196 92.6491 92.2552L91.1848 90.893C90.5749 91.5485 89.8507 91.8641 88.947 91.8641V93.8641ZM92.6486 92.2558C93.6499 91.1812 94.147 89.8638 94.147 88.3641H92.147C92.147 89.3843 91.824 90.2069 91.1853 90.8923L92.6486 92.2558ZM94.147 88.3641C94.147 86.8643 93.6499 85.5469 92.6486 84.4723L91.1853 85.8358C91.824 86.5212 92.147 87.3438 92.147 88.3641H94.147ZM121.019 85.2741L121.303 86.2329L122.337 85.9269L121.954 84.9191L121.019 85.2741ZM117.269 86.3841L116.352 86.7836L116.705 87.5938L117.553 87.3429L117.269 86.3841ZM115.679 84.5541L115.13 85.3898L115.144 85.3988L115.158 85.4073L115.679 84.5541ZM110.189 85.1541L110.904 85.8528L110.189 85.1541ZM110.189 91.5741L110.904 90.8753L110.189 91.5741ZM115.679 92.2041L116.211 93.0507L116.217 93.0468L115.679 92.2041ZM117.269 90.3441L117.553 89.3852L116.705 89.1344L116.352 89.9445L117.269 90.3441ZM121.019 91.4541L121.954 91.8091L122.337 90.8012L121.303 90.4952L121.019 91.4541ZM118.049 95.2341L118.604 96.0662L118.612 96.0605L118.049 95.2341ZM107.399 94.2741L106.687 94.9767L106.694 94.9834L106.701 94.9901L107.399 94.2741ZM107.399 82.4841L106.692 81.777L107.399 82.4841ZM118.049 81.5241L117.486 82.3506L117.494 82.3561L118.049 81.5241ZM120.735 84.3152L116.985 85.4252L117.553 87.3429L121.303 86.2329L120.735 84.3152ZM118.186 85.9845C117.764 85.0179 117.097 84.2488 116.201 83.7008L115.158 85.4073C115.701 85.7393 116.094 86.1902 116.352 86.7836L118.186 85.9845ZM116.228 83.7184C115.357 83.1456 114.374 82.8641 113.309 82.8641V84.8641C114.004 84.8641 114.601 85.0425 115.13 85.3898L116.228 83.7184ZM113.309 82.8641C111.809 82.8641 110.508 83.396 109.474 84.4553L110.904 85.8528C111.55 85.1921 112.329 84.8641 113.309 84.8641V82.8641ZM109.474 84.4553C108.439 85.5151 107.929 86.8416 107.929 88.3641H109.929C109.929 87.3265 110.26 86.513 110.904 85.8528L109.474 84.4553ZM107.929 88.3641C107.929 89.8865 108.439 91.213 109.474 92.2728L110.904 90.8753C110.26 90.2151 109.929 89.4016 109.929 88.3641H107.929ZM109.474 92.2728C110.508 93.3321 111.809 93.8641 113.309 93.8641V91.8641C112.329 91.8641 111.55 91.536 110.904 90.8753L109.474 92.2728ZM113.309 93.8641C114.365 93.8641 115.341 93.5974 116.211 93.0507L115.147 91.3574C114.617 91.6907 114.013 91.8641 113.309 91.8641V93.8641ZM116.217 93.0468C117.104 92.4804 117.766 91.7064 118.186 90.7436L116.352 89.9445C116.092 90.5417 115.694 91.0078 115.141 91.3614L116.217 93.0468ZM116.985 91.3029L120.735 92.4129L121.303 90.4952L117.553 89.3852L116.985 91.3029ZM120.084 91.0991C119.556 92.49 118.695 93.5844 117.486 94.4076L118.612 96.0605C120.164 95.0037 121.282 93.5781 121.954 91.8091L120.084 91.0991ZM117.494 94.402C116.291 95.2044 114.907 95.6141 113.309 95.6141V97.6141C115.271 97.6141 117.047 97.1037 118.604 96.0661L117.494 94.402ZM113.309 95.6141C111.216 95.6141 109.501 94.9267 108.097 93.5581L106.701 94.9901C108.497 96.7415 110.722 97.6141 113.309 97.6141V95.6141ZM108.111 93.5715C106.748 92.1913 106.059 90.4794 106.059 88.3641H104.059C104.059 90.9688 104.93 93.1969 106.687 94.9767L108.111 93.5715ZM106.059 88.3641C106.059 86.2488 106.748 84.5496 108.106 83.1912L106.692 81.777C104.93 83.5385 104.059 85.7593 104.059 88.3641H106.059ZM108.106 83.1912C109.487 81.8101 111.198 81.1141 113.309 81.1141V79.1141C110.7 79.1141 108.471 79.998 106.692 81.777L108.106 83.1912ZM113.309 81.1141C114.902 81.1141 116.283 81.5312 117.486 82.3505L118.612 80.6976C117.055 79.6369 115.276 79.1141 113.309 79.1141V81.1141ZM117.494 82.3561C118.698 83.1582 119.557 84.2398 120.084 85.6291L121.954 84.9191C121.281 83.1483 120.161 81.7299 118.604 80.692L117.494 82.3561ZM141.084 81.7941L140.46 82.5749L142.084 83.8747V81.7941H141.084ZM141.084 73.6641V72.6641H140.084V73.6641H141.084ZM144.804 73.6641H145.804V72.6641H144.804V73.6641ZM144.804 96.1641V97.1641H145.804V96.1641H144.804ZM141.084 96.1641H140.084V97.1641H141.084V96.1641ZM141.084 94.9341H142.084V92.8534L140.46 94.1532L141.084 94.9341ZM130.914 94.2741L130.175 94.9477L130.182 94.9551L130.189 94.9623L130.914 94.2741ZM130.914 82.4841L130.18 81.8054L130.18 81.8058L130.914 82.4841ZM139.794 85.1541L139.062 85.8352L139.063 85.8358L139.794 85.1541ZM133.824 91.5741L134.557 90.893L133.824 91.5741ZM139.794 91.5741L139.063 90.8923L139.062 90.893L139.794 91.5741ZM136.344 81.1141C137.873 81.1141 139.233 81.5939 140.46 82.5749L141.709 81.0132C140.135 79.7542 138.336 79.1141 136.344 79.1141V81.1141ZM142.084 81.7941V73.6641H140.084V81.7941H142.084ZM141.084 74.6641H144.804V72.6641H141.084V74.6641ZM143.804 73.6641V96.1641H145.804V73.6641H143.804ZM144.804 95.1641H141.084V97.1641H144.804V95.1641ZM142.084 96.1641V94.9341H140.084V96.1641H142.084ZM140.46 94.1532C139.233 95.1342 137.873 95.6141 136.344 95.6141V97.6141C138.336 97.6141 140.135 96.9739 141.709 95.7149L140.46 94.1532ZM136.344 95.6141C134.48 95.6141 132.932 94.9479 131.64 93.5858L130.189 94.9623C131.857 96.7203 133.929 97.6141 136.344 97.6141V95.6141ZM131.653 93.6005C130.399 92.2244 129.754 90.5029 129.754 88.3641H127.754C127.754 90.9452 128.549 93.1638 130.175 94.9477L131.653 93.6005ZM129.754 88.3641C129.754 86.2251 130.399 84.5165 131.649 83.1623L130.18 81.8058C128.55 83.5717 127.754 85.783 127.754 88.3641H129.754ZM131.649 83.1627C132.919 81.7885 134.462 81.1141 136.344 81.1141V79.1141C133.907 79.1141 131.83 80.0196 130.18 81.8054L131.649 83.1627ZM140.527 84.473C139.536 83.4085 138.281 82.8641 136.824 82.8641V84.8641C137.728 84.8641 138.452 85.1796 139.062 85.8352L140.527 84.473ZM136.824 82.8641C135.353 82.8641 134.086 83.4046 133.092 84.473L134.557 85.8352C135.163 85.1835 135.895 84.8641 136.824 84.8641V82.8641ZM133.092 84.473C132.104 85.5353 131.624 86.8561 131.624 88.3641H133.624C133.624 87.3121 133.945 86.4928 134.557 85.8352L133.092 84.473ZM131.624 88.3641C131.624 89.8721 132.104 91.1928 133.092 92.2552L134.557 90.893C133.945 90.2353 133.624 89.4161 133.624 88.3641H131.624ZM133.092 92.2552C134.086 93.3235 135.353 93.8641 136.824 93.8641V91.8641C135.895 91.8641 135.163 91.5446 134.557 90.893L133.092 92.2552ZM136.824 93.8641C138.281 93.8641 139.536 93.3196 140.527 92.2552L139.062 90.893C138.452 91.5485 137.728 91.8641 136.824 91.8641V93.8641ZM140.526 92.2558C141.527 91.1812 142.024 89.8638 142.024 88.3641H140.024C140.024 89.3843 139.701 90.2069 139.063 90.8923L140.526 92.2558ZM142.024 88.3641C142.024 86.8643 141.527 85.5469 140.526 84.4723L139.063 85.8358C139.701 86.5212 140.024 87.3438 140.024 88.3641H142.024ZM169.676 89.7441V90.7441H170.539L170.666 89.8906L169.676 89.7441ZM157.286 89.7441V88.7441H155.975L156.322 90.0088L157.286 89.7441ZM158.936 92.2341L158.321 93.0224L158.332 93.0307L158.343 93.0386L158.936 92.2341ZM165.506 91.5141L165.784 90.5534L165.15 90.3701L164.733 90.8808L165.506 91.5141ZM169.136 92.5641L170.005 93.0602L170.635 91.9566L169.414 91.6034L169.136 92.5641ZM166.106 95.5341L165.622 94.6593L165.616 94.6625L166.106 95.5341ZM155.816 94.2741L155.109 94.9812L155.116 94.9878L155.123 94.9944L155.816 94.2741ZM155.756 82.4841L155.049 81.777L155.756 82.4841ZM167.426 82.4841L166.715 83.1867L166.719 83.1912L167.426 82.4841ZM157.316 86.8341L156.355 86.5593L155.991 87.8341H157.316V86.8341ZM165.926 86.8341V87.8341H167.278L166.883 86.5413L165.926 86.8341ZM164.276 84.4641L164.876 83.6641L164.276 84.4641ZM169.676 88.7441H157.286V90.7441H169.676V88.7441ZM156.322 90.0088C156.658 91.2326 157.328 92.2476 158.321 93.0224L159.552 91.4457C158.904 90.9406 158.475 90.2956 158.251 89.4793L156.322 90.0088ZM158.343 93.0386C159.364 93.7926 160.545 94.1641 161.846 94.1641V92.1641C160.948 92.1641 160.189 91.9155 159.53 91.4295L158.343 93.0386ZM161.846 94.1641C163.658 94.1641 165.173 93.5007 166.28 92.1473L164.733 90.8808C164.04 91.7274 163.115 92.1641 161.846 92.1641V94.1641ZM165.229 92.4747L168.859 93.5247L169.414 91.6034L165.784 90.5534L165.229 92.4747ZM168.268 92.0679C167.641 93.165 166.766 94.0257 165.622 94.6593L166.591 96.4089C168.047 95.6024 169.192 94.4831 170.005 93.0602L168.268 92.0679ZM165.616 94.6625C164.495 95.293 163.246 95.6141 161.846 95.6141V97.6141C163.567 97.6141 165.158 97.2151 166.597 96.4056L165.616 94.6625ZM161.846 95.6141C159.686 95.6141 157.93 94.9215 156.51 93.5537L155.123 94.9944C156.943 96.7467 159.207 97.6141 161.846 97.6141V95.6141ZM156.524 93.567C155.118 92.1615 154.416 90.449 154.416 88.3641H152.416C152.416 90.9592 153.315 93.1866 155.109 94.9812L156.524 93.567ZM154.416 88.3641C154.416 86.2488 155.105 84.5496 156.464 83.1912L155.049 81.777C153.288 83.5385 152.416 85.7593 152.416 88.3641H154.416ZM156.464 83.1912C157.848 81.8066 159.54 81.1141 161.606 81.1141V79.1141C159.033 79.1141 156.825 80.0016 155.049 81.777L156.464 83.1912ZM161.606 81.1141C163.672 81.1141 165.352 81.8063 166.715 83.1867L168.138 81.7815C166.381 80.0018 164.181 79.1141 161.606 79.1141V81.1141ZM166.719 83.1912C168.102 84.574 168.796 86.2753 168.796 88.3641H170.796C170.796 85.7728 169.911 83.5541 168.134 81.777L166.719 83.1912ZM168.796 88.3641C168.796 88.6789 168.763 89.087 168.687 89.5975L170.666 89.8906C170.75 89.3211 170.796 88.8092 170.796 88.3641H168.796ZM157.316 87.8341H165.926V85.8341H157.316V87.8341ZM166.883 86.5413C166.522 85.3642 165.85 84.3945 164.876 83.6641L163.676 85.2641C164.303 85.7336 164.731 86.3439 164.97 87.1268L166.883 86.5413ZM164.876 83.6641C163.9 82.9315 162.778 82.5641 161.546 82.5641V84.5641C162.355 84.5641 163.053 84.7967 163.676 85.2641L164.876 83.6641ZM161.546 82.5641C160.345 82.5641 159.251 82.9376 158.297 83.6714L159.516 85.2567C160.122 84.7905 160.788 84.5641 161.546 84.5641V82.5641ZM158.297 83.6714C157.341 84.4069 156.692 85.3814 156.355 86.5593L158.278 87.1088C158.501 86.3268 158.912 85.7213 159.516 85.2567L158.297 83.6714Z" fill="black"/>
</svg>
