<svg width="342" height="180" viewBox="0 0 342 180" fill="none" xmlns="http://www.w3.org/2000/svg">
<rect width="341" height="180" transform="translate(0.00195312)" fill="#F5F5F5"/>
<path d="M226.588 128.172L281.084 156.756V74.9678L226.588 48.3654L226.588 128.172Z" fill="#D4D4D4"/>
<mask id="mask0" mask-type="alpha" maskUnits="userSpaceOnUse" x="226" y="48" width="56" height="109">
<path d="M226.588 128.172L281.084 156.756V74.9678L226.588 48.3654L226.588 128.172Z" fill="#AB85FF"/>
</mask>
<g mask="url(#mask0)">
<path d="M228.535 -18.4746C193.548 33.7053 193.548 70.9767 228.535 93.3396C263.522 115.702 263.522 152.974 228.535 205.154" stroke="#31D67B"/>
<path d="M295.536 -11.9374C242.909 28.0644 229.013 63.4043 253.849 94.0823C278.685 124.76 264.789 160.1 212.161 200.102" stroke="#31D67B"/>
<path d="M272.405 -16.2688C242.337 38.0926 245.773 75.2488 282.714 95.1997C319.654 115.151 323.09 152.307 293.022 206.668" stroke="#31D67B"/>
</g>
<path d="M97.3809 57.1448L165.475 57.1448M165.475 57.1448L163.609 56.2446M165.475 57.1448L163.609 58.0449" stroke="black"/>
<path d="M97.3809 72.1024L192.526 72.1024M192.526 72.1024L189.919 71.1696M192.526 72.1024L189.919 73.0352" stroke="black"/>
<path d="M97.3809 42.2528L140.289 42.2528M140.289 42.2528L139.114 41.32M140.289 42.2528L139.114 43.1855" stroke="black"/>
<path d="M97.3809 87.0262H128.163M128.163 87.0262L127.32 86.0934M128.163 87.0262L127.32 87.959" stroke="black"/>
<path d="M105.246 118.544L40.1712 152.676L40.1712 55.0114L105.246 23.2451L105.246 118.544Z" fill="#D4D4D4"/>
<mask id="mask1" mask-type="alpha" maskUnits="userSpaceOnUse" x="40" y="23" width="66" height="130">
<path d="M105.246 118.544L40.1712 152.676L40.1712 55.0114L105.246 23.2451L105.246 118.544Z" fill="#D4D4D4"/>
</mask>
<g mask="url(#mask1)">
<path d="M102.922 -56.5703C144.7 5.73858 144.7 50.2449 102.922 76.9487C61.144 103.653 61.144 148.159 102.922 210.468" stroke="#8052E4"/>
<path d="M22.9132 -48.7651C85.7569 -0.998411 102.35 41.2015 72.6931 77.8346C43.0359 114.468 59.6292 156.668 122.473 204.434" stroke="#8052E4"/>
<path d="M50.5347 -53.9361C86.4392 10.9778 82.3359 55.3465 38.2249 79.1702C-5.88604 102.994 -9.98929 147.363 25.9152 212.276" stroke="#8052E4"/>
</g>
<circle cx="264.159" cy="44.0846" r="2.82092" fill="#31D67B"/>
<circle cx="275.442" cy="44.0846" r="2.82092" fill="#31D67B"/>
<circle cx="286.727" cy="44.0846" r="2.82092" fill="#31D67B"/>
<circle cx="298.01" cy="44.0846" r="2.82092" fill="#31D67B"/>
<circle cx="264.159" cy="55.3678" r="2.82092" fill="#31D67B"/>
<circle cx="275.442" cy="55.3678" r="2.82092" fill="#31D67B"/>
<circle cx="286.727" cy="55.3678" r="2.82092" fill="#31D67B"/>
<circle cx="298.01" cy="55.3678" r="2.82092" fill="#31D67B"/>
<circle cx="298.01" cy="66.653" r="2.82092" fill="#31D67B"/>
<circle cx="286.727" cy="66.653" r="2.82092" fill="#31D67B"/>
<circle cx="275.442" cy="66.653" r="2.82092" fill="#31D67B"/>
<circle cx="264.159" cy="66.653" r="2.82092" fill="#31D67B"/>
<circle cx="264.159" cy="66.653" r="2.82092" fill="#31D67B"/>
<circle cx="275.442" cy="66.653" r="2.82092" fill="#31D67B"/>
<circle cx="286.727" cy="66.653" r="2.82092" fill="#31D67B"/>
<circle cx="298.01" cy="66.653" r="2.82092" fill="#31D67B"/>
<circle cx="264.159" cy="77.9362" r="2.82092" fill="#31D67B"/>
<circle cx="275.442" cy="77.9362" r="2.82092" fill="#31D67B"/>
<circle cx="286.727" cy="77.9362" r="2.82092" fill="#31D67B"/>
<circle cx="298.01" cy="77.9362" r="2.82092" fill="#31D67B"/>
<circle cx="298.01" cy="89.2213" r="2.82092" fill="#31D67B"/>
<circle cx="286.727" cy="89.2213" r="2.82092" fill="#31D67B"/>
<circle cx="275.442" cy="89.2213" r="2.82092" fill="#31D67B"/>
<circle cx="264.159" cy="89.2213" r="2.82092" fill="#31D67B"/>
<path d="M162.744 115.501V110.676C162.744 109.139 163.292 107.858 164.388 106.834C165.498 105.809 166.879 105.297 168.529 105.297C170.18 105.297 171.554 105.809 172.65 106.834C173.76 107.858 174.315 109.139 174.315 110.676V115.501C174.315 117.038 173.76 118.319 172.65 119.344C171.554 120.368 170.18 120.881 168.529 120.881C166.879 120.881 165.498 120.368 164.388 119.344C163.292 118.319 162.744 117.038 162.744 115.501ZM165.519 110.634V115.544C165.519 116.298 165.804 116.938 166.373 117.465C166.957 117.977 167.676 118.234 168.529 118.234C169.383 118.234 170.102 117.977 170.686 117.465C171.269 116.924 171.561 116.284 171.561 115.544V110.634C171.561 109.879 171.269 109.246 170.686 108.734C170.116 108.207 169.398 107.944 168.529 107.944C167.661 107.944 166.943 108.207 166.373 108.734C165.804 109.246 165.519 109.879 165.519 110.634ZM185.41 109.011L182.827 110.292L181.674 107.858L186.2 105.617H188.186V120.561H185.41V109.011ZM196.893 115.501V110.676C196.893 109.139 197.441 107.858 198.537 106.834C199.647 105.809 201.027 105.297 202.678 105.297C204.329 105.297 205.703 105.809 206.798 106.834C207.908 107.858 208.464 109.139 208.464 110.676V115.501C208.464 117.038 207.908 118.319 206.798 119.344C205.703 120.368 204.329 120.881 202.678 120.881C201.027 120.881 199.647 120.368 198.537 119.344C197.441 118.319 196.893 117.038 196.893 115.501ZM199.668 110.634V115.544C199.668 116.298 199.953 116.938 200.522 117.465C201.106 117.977 201.824 118.234 202.678 118.234C203.532 118.234 204.251 117.977 204.834 117.465C205.418 116.924 205.71 116.284 205.71 115.544V110.634C205.71 109.879 205.418 109.246 204.834 108.734C204.265 108.207 203.546 107.944 202.678 107.944C201.81 107.944 201.091 108.207 200.522 108.734C199.953 109.246 199.668 109.879 199.668 110.634ZM219.559 109.011L216.976 110.292L215.823 107.858L220.349 105.617H222.334V120.561H219.559V109.011ZM231.042 115.501V110.676C231.042 109.139 231.589 107.858 232.685 106.834C233.795 105.809 235.176 105.297 236.827 105.297C238.478 105.297 239.851 105.809 240.947 106.834C242.057 107.858 242.612 109.139 242.612 110.676V115.501C242.612 117.038 242.057 118.319 240.947 119.344C239.851 120.368 238.478 120.881 236.827 120.881C235.176 120.881 233.795 120.368 232.685 119.344C231.589 118.319 231.042 117.038 231.042 115.501ZM233.817 110.634V115.544C233.817 116.298 234.101 116.938 234.671 117.465C235.254 117.977 235.973 118.234 236.827 118.234C237.681 118.234 238.4 117.977 238.983 117.465C239.567 116.924 239.858 116.284 239.858 115.544V110.634C239.858 109.879 239.567 109.246 238.983 108.734C238.414 108.207 237.695 107.944 236.827 107.944C235.959 107.944 235.24 108.207 234.671 108.734C234.101 109.246 233.817 109.879 233.817 110.634ZM162.744 141.501V136.676C162.744 135.139 163.292 133.858 164.388 132.834C165.498 131.809 166.879 131.297 168.529 131.297C170.18 131.297 171.554 131.809 172.65 132.834C173.76 133.858 174.315 135.139 174.315 136.676V141.501C174.315 143.038 173.76 144.319 172.65 145.344C171.554 146.368 170.18 146.881 168.529 146.881C166.879 146.881 165.498 146.368 164.388 145.344C163.292 144.319 162.744 143.038 162.744 141.501ZM165.519 136.634V141.544C165.519 142.298 165.804 142.938 166.373 143.465C166.957 143.977 167.676 144.234 168.529 144.234C169.383 144.234 170.102 143.977 170.686 143.465C171.269 142.924 171.561 142.284 171.561 141.544V136.634C171.561 135.879 171.269 135.246 170.686 134.734C170.116 134.207 169.398 133.944 168.529 133.944C167.661 133.944 166.943 134.207 166.373 134.734C165.804 135.246 165.519 135.879 165.519 136.634ZM185.41 135.011L182.827 136.292L181.674 133.858L186.2 131.617H188.186V146.561H185.41V135.011ZM196.893 141.501V136.676C196.893 135.139 197.441 133.858 198.537 132.834C199.647 131.809 201.027 131.297 202.678 131.297C204.329 131.297 205.703 131.809 206.798 132.834C207.908 133.858 208.464 135.139 208.464 136.676V141.501C208.464 143.038 207.908 144.319 206.798 145.344C205.703 146.368 204.329 146.881 202.678 146.881C201.027 146.881 199.647 146.368 198.537 145.344C197.441 144.319 196.893 143.038 196.893 141.501ZM199.668 136.634V141.544C199.668 142.298 199.953 142.938 200.522 143.465C201.106 143.977 201.824 144.234 202.678 144.234C203.532 144.234 204.251 143.977 204.834 143.465C205.418 142.924 205.71 142.284 205.71 141.544V136.634C205.71 135.879 205.418 135.246 204.834 134.734C204.265 134.207 203.546 133.944 202.678 133.944C201.81 133.944 201.091 134.207 200.522 134.734C199.953 135.246 199.668 135.879 199.668 136.634ZM219.559 135.011L216.976 136.292L215.823 133.858L220.349 131.617H222.334V146.561H219.559V135.011ZM231.042 141.501V136.676C231.042 135.139 231.589 133.858 232.685 132.834C233.795 131.809 235.176 131.297 236.827 131.297C238.478 131.297 239.851 131.809 240.947 132.834C242.057 133.858 242.612 135.139 242.612 136.676V141.501C242.612 143.038 242.057 144.319 240.947 145.344C239.851 146.368 238.478 146.881 236.827 146.881C235.176 146.881 233.795 146.368 232.685 145.344C231.589 144.319 231.042 143.038 231.042 141.501ZM233.817 136.634V141.544C233.817 142.298 234.101 142.938 234.671 143.465C235.254 143.977 235.973 144.234 236.827 144.234C237.681 144.234 238.4 143.977 238.983 143.465C239.567 142.924 239.858 142.284 239.858 141.544V136.634C239.858 135.879 239.567 135.246 238.983 134.734C238.414 134.207 237.695 133.944 236.827 133.944C235.959 133.944 235.24 134.207 234.671 134.734C234.101 135.246 233.817 135.879 233.817 136.634Z" fill="#AB85FF"/>
<path d="M164.388 106.834L164.026 106.442L164.023 106.444L164.388 106.834ZM172.65 106.834L172.285 107.224L172.288 107.226L172.65 106.834ZM172.65 119.344L172.288 118.952L172.285 118.954L172.65 119.344ZM164.388 119.344L164.023 119.734L164.026 119.736L164.388 119.344ZM166.373 117.465L166.011 117.857L166.021 117.866L166.373 117.465ZM170.686 117.465L171.038 117.866L171.043 117.861L171.048 117.856L170.686 117.465ZM170.686 108.734L170.323 109.126L170.334 109.135L170.686 108.734ZM166.373 108.734L166.73 109.13L166.736 109.125L166.373 108.734ZM163.278 115.501V110.676H162.21V115.501H163.278ZM163.278 110.676C163.278 109.283 163.767 108.145 164.752 107.224L164.023 106.444C162.817 107.572 162.21 108.996 162.21 110.676H163.278ZM164.75 107.226C165.752 106.301 166.999 105.83 168.529 105.83V104.763C166.758 104.763 165.244 105.317 164.026 106.442L164.75 107.226ZM168.529 105.83C170.06 105.83 171.298 106.301 172.285 107.224L173.014 106.444C171.809 105.317 170.301 104.763 168.529 104.763V105.83ZM172.288 107.226C173.286 108.148 173.781 109.285 173.781 110.676H174.849C174.849 108.993 174.233 107.569 173.012 106.442L172.288 107.226ZM173.781 110.676V115.501H174.849V110.676H173.781ZM173.781 115.501C173.781 116.892 173.286 118.03 172.288 118.952L173.012 119.736C174.233 118.608 174.849 117.184 174.849 115.501H173.781ZM172.285 118.954C171.298 119.877 170.06 120.347 168.529 120.347V121.414C170.301 121.414 171.809 120.86 173.014 119.734L172.285 118.954ZM168.529 120.347C166.999 120.347 165.752 119.876 164.75 118.952L164.026 119.736C165.244 120.86 166.758 121.414 168.529 121.414V120.347ZM164.752 118.954C163.767 118.033 163.278 116.894 163.278 115.501H162.21C162.21 117.182 162.817 118.605 164.023 119.734L164.752 118.954ZM164.986 110.634V115.544H166.053V110.634H164.986ZM164.986 115.544C164.986 116.451 165.336 117.232 166.011 117.857L166.736 117.073C166.272 116.644 166.053 116.145 166.053 115.544H164.986ZM166.021 117.866C166.712 118.473 167.56 118.767 168.529 118.767V117.7C167.791 117.7 167.202 117.482 166.725 117.064L166.021 117.866ZM168.529 118.767C169.499 118.767 170.347 118.473 171.038 117.866L170.334 117.064C169.857 117.482 169.268 117.7 168.529 117.7V118.767ZM171.048 117.856C171.732 117.223 172.095 116.444 172.095 115.544H171.027C171.027 116.123 170.807 116.625 170.323 117.074L171.048 117.856ZM172.095 115.544V110.634H171.027V115.544H172.095ZM172.095 110.634C172.095 109.721 171.733 108.943 171.038 108.333L170.334 109.135C170.806 109.549 171.027 110.038 171.027 110.634H172.095ZM171.048 108.342C170.368 107.713 169.515 107.41 168.529 107.41V108.477C169.281 108.477 169.865 108.701 170.323 109.125L171.048 108.342ZM168.529 107.41C167.544 107.41 166.691 107.713 166.011 108.342L166.736 109.125C167.194 108.701 167.778 108.477 168.529 108.477V107.41ZM166.016 108.337C165.337 108.949 164.986 109.725 164.986 110.634H166.053C166.053 110.033 166.272 109.543 166.73 109.13L166.016 108.337ZM185.41 109.011H185.944V108.151L185.173 108.533L185.41 109.011ZM182.827 110.292L182.345 110.521L182.578 111.012L183.064 110.77L182.827 110.292ZM181.674 107.858L181.438 107.38L180.968 107.613L181.192 108.087L181.674 107.858ZM186.2 105.617V105.083H186.075L185.963 105.139L186.2 105.617ZM188.186 105.617H188.719V105.083H188.186V105.617ZM188.186 120.561V121.094H188.719V120.561H188.186ZM185.41 120.561H184.877V121.094H185.41V120.561ZM185.173 108.533L182.59 109.814L183.064 110.77L185.647 109.489L185.173 108.533ZM183.31 110.064L182.157 107.63L181.192 108.087L182.345 110.521L183.31 110.064ZM181.911 108.337L186.437 106.095L185.963 105.139L181.438 107.38L181.911 108.337ZM186.2 106.151H188.186V105.083H186.2V106.151ZM187.652 105.617V120.561H188.719V105.617H187.652ZM188.186 120.027H185.41V121.094H188.186V120.027ZM185.944 120.561V109.011H184.877V120.561H185.944ZM198.537 106.834L198.175 106.442L198.172 106.444L198.537 106.834ZM206.798 106.834L206.434 107.224L206.436 107.226L206.798 106.834ZM206.798 119.344L206.436 118.952L206.434 118.954L206.798 119.344ZM198.537 119.344L198.172 119.734L198.175 119.736L198.537 119.344ZM200.522 117.465L200.159 117.857L200.17 117.866L200.522 117.465ZM204.834 117.465L205.186 117.866L205.192 117.861L205.197 117.856L204.834 117.465ZM204.834 108.734L204.472 109.126L204.482 109.135L204.834 108.734ZM200.522 108.734L200.879 109.13L200.884 109.125L200.522 108.734ZM197.427 115.501V110.676H196.359V115.501H197.427ZM197.427 110.676C197.427 109.283 197.916 108.145 198.901 107.224L198.172 106.444C196.965 107.572 196.359 108.996 196.359 110.676H197.427ZM198.899 107.226C199.901 106.301 201.148 105.83 202.678 105.83V104.763C200.907 104.763 199.393 105.317 198.175 106.442L198.899 107.226ZM202.678 105.83C204.209 105.83 205.447 106.301 206.434 107.224L207.163 106.444C205.958 105.317 204.45 104.763 202.678 104.763V105.83ZM206.436 107.226C207.435 108.148 207.93 109.285 207.93 110.676H208.997C208.997 108.993 208.382 107.569 207.16 106.442L206.436 107.226ZM207.93 110.676V115.501H208.997V110.676H207.93ZM207.93 115.501C207.93 116.892 207.435 118.03 206.436 118.952L207.16 119.736C208.382 118.608 208.997 117.184 208.997 115.501H207.93ZM206.434 118.954C205.447 119.877 204.209 120.347 202.678 120.347V121.414C204.45 121.414 205.958 120.86 207.163 119.734L206.434 118.954ZM202.678 120.347C201.148 120.347 199.901 119.876 198.899 118.952L198.175 119.736C199.393 120.86 200.907 121.414 202.678 121.414V120.347ZM198.901 118.954C197.916 118.033 197.427 116.894 197.427 115.501H196.359C196.359 117.182 196.965 118.605 198.172 119.734L198.901 118.954ZM199.134 110.634V115.544H200.202V110.634H199.134ZM199.134 115.544C199.134 116.451 199.485 117.232 200.16 117.857L200.884 117.073C200.421 116.644 200.202 116.145 200.202 115.544H199.134ZM200.17 117.866C200.861 118.473 201.709 118.767 202.678 118.767V117.7C201.94 117.7 201.35 117.482 200.874 117.064L200.17 117.866ZM202.678 118.767C203.648 118.767 204.496 118.473 205.186 117.866L204.482 117.064C204.006 117.482 203.416 117.7 202.678 117.7V118.767ZM205.197 117.856C205.88 117.223 206.243 116.444 206.243 115.544H205.176C205.176 116.123 204.955 116.625 204.472 117.074L205.197 117.856ZM206.243 115.544V110.634H205.176V115.544H206.243ZM206.243 110.634C206.243 109.721 205.882 108.943 205.186 108.333L204.482 109.135C204.954 109.549 205.176 110.038 205.176 110.634H206.243ZM205.197 108.342C204.517 107.713 203.663 107.41 202.678 107.41V108.477C203.429 108.477 204.013 108.701 204.472 109.125L205.197 108.342ZM202.678 107.41C201.693 107.41 200.84 107.713 200.16 108.342L200.884 109.125C201.343 108.701 201.927 108.477 202.678 108.477V107.41ZM200.165 108.337C199.485 108.949 199.134 109.725 199.134 110.634H200.202C200.202 110.033 200.42 109.543 200.879 109.13L200.165 108.337ZM219.559 109.011H220.093V108.151L219.322 108.533L219.559 109.011ZM216.976 110.292L216.494 110.521L216.726 111.012L217.213 110.77L216.976 110.292ZM215.823 107.858L215.586 107.38L215.116 107.613L215.341 108.087L215.823 107.858ZM220.349 105.617V105.083H220.224L220.112 105.139L220.349 105.617ZM222.334 105.617H222.868V105.083H222.334V105.617ZM222.334 120.561V121.094H222.868V120.561H222.334ZM219.559 120.561H219.025V121.094H219.559V120.561ZM219.322 108.533L216.739 109.814L217.213 110.77L219.796 109.489L219.322 108.533ZM217.458 110.064L216.305 107.63L215.341 108.087L216.494 110.521L217.458 110.064ZM216.06 108.337L220.586 106.095L220.112 105.139L215.586 107.38L216.06 108.337ZM220.349 106.151H222.334V105.083H220.349V106.151ZM221.801 105.617V120.561H222.868V105.617H221.801ZM222.334 120.027H219.559V121.094H222.334V120.027ZM220.093 120.561V109.011H219.025V120.561H220.093ZM232.685 106.834L232.323 106.442L232.321 106.444L232.685 106.834ZM240.947 106.834L240.583 107.224L240.585 107.226L240.947 106.834ZM240.947 119.344L240.585 118.952L240.583 118.954L240.947 119.344ZM232.685 119.344L232.321 119.734L232.323 119.736L232.685 119.344ZM234.671 117.465L234.308 117.857L234.319 117.866L234.671 117.465ZM238.983 117.465L239.335 117.866L239.341 117.861L239.346 117.856L238.983 117.465ZM238.983 108.734L238.621 109.126L238.631 109.135L238.983 108.734ZM234.671 108.734L235.028 109.13L235.033 109.125L234.671 108.734ZM231.575 115.501V110.676H230.508V115.501H231.575ZM231.575 110.676C231.575 109.283 232.065 108.145 233.05 107.224L232.321 106.444C231.114 107.572 230.508 108.996 230.508 110.676H231.575ZM233.047 107.226C234.049 106.301 235.297 105.83 236.827 105.83V104.763C235.055 104.763 233.542 105.317 232.323 106.442L233.047 107.226ZM236.827 105.83C238.357 105.83 239.596 106.301 240.583 107.224L241.312 106.444C240.107 105.317 238.598 104.763 236.827 104.763V105.83ZM240.585 107.226C241.584 108.148 242.079 109.285 242.079 110.676H243.146C243.146 108.993 242.531 107.569 241.309 106.442L240.585 107.226ZM242.079 110.676V115.501H243.146V110.676H242.079ZM242.079 115.501C242.079 116.892 241.584 118.03 240.585 118.952L241.309 119.736C242.531 118.608 243.146 117.184 243.146 115.501H242.079ZM240.583 118.954C239.596 119.877 238.357 120.347 236.827 120.347V121.414C238.598 121.414 240.107 120.86 241.312 119.734L240.583 118.954ZM236.827 120.347C235.297 120.347 234.049 119.876 233.047 118.952L232.323 119.736C233.542 120.86 235.055 121.414 236.827 121.414V120.347ZM233.05 118.954C232.065 118.033 231.575 116.894 231.575 115.501H230.508C230.508 117.182 231.114 118.605 232.321 119.734L233.05 118.954ZM233.283 110.634V115.544H234.35V110.634H233.283ZM233.283 115.544C233.283 116.451 233.633 117.232 234.308 117.857L235.033 117.073C234.57 116.644 234.35 116.145 234.35 115.544H233.283ZM234.319 117.866C235.009 118.473 235.857 118.767 236.827 118.767V117.7C236.089 117.7 235.499 117.482 235.023 117.064L234.319 117.866ZM236.827 118.767C237.796 118.767 238.644 118.473 239.335 117.866L238.631 117.064C238.155 117.482 237.565 117.7 236.827 117.7V118.767ZM239.346 117.856C240.029 117.223 240.392 116.444 240.392 115.544H239.325C239.325 116.123 239.104 116.625 238.62 117.074L239.346 117.856ZM240.392 115.544V110.634H239.325V115.544H240.392ZM240.392 110.634C240.392 109.721 240.03 108.943 239.335 108.333L238.631 109.135C239.103 109.549 239.325 110.038 239.325 110.634H240.392ZM239.345 108.342C238.665 107.713 237.812 107.41 236.827 107.41V108.477C237.578 108.477 238.162 108.701 238.621 109.125L239.345 108.342ZM236.827 107.41C235.842 107.41 234.988 107.713 234.308 108.342L235.033 109.125C235.492 108.701 236.076 108.477 236.827 108.477V107.41ZM234.314 108.337C233.634 108.949 233.283 109.725 233.283 110.634H234.35C234.35 110.033 234.569 109.543 235.028 109.13L234.314 108.337ZM164.388 132.834L164.026 132.442L164.023 132.444L164.388 132.834ZM172.65 132.834L172.285 133.224L172.288 133.226L172.65 132.834ZM172.65 145.344L172.288 144.952L172.285 144.954L172.65 145.344ZM164.388 145.344L164.023 145.734L164.026 145.736L164.388 145.344ZM166.373 143.465L166.011 143.857L166.021 143.866L166.373 143.465ZM170.686 143.465L171.038 143.866L171.043 143.861L171.048 143.856L170.686 143.465ZM170.686 134.734L170.323 135.126L170.334 135.135L170.686 134.734ZM166.373 134.734L166.73 135.13L166.736 135.125L166.373 134.734ZM163.278 141.501V136.676H162.21V141.501H163.278ZM163.278 136.676C163.278 135.283 163.767 134.145 164.752 133.224L164.023 132.444C162.817 133.572 162.21 134.996 162.21 136.676H163.278ZM164.75 133.226C165.752 132.301 166.999 131.83 168.529 131.83V130.763C166.758 130.763 165.244 131.317 164.026 132.442L164.75 133.226ZM168.529 131.83C170.06 131.83 171.298 132.301 172.285 133.224L173.014 132.444C171.809 131.317 170.301 130.763 168.529 130.763V131.83ZM172.288 133.226C173.286 134.148 173.781 135.285 173.781 136.676H174.849C174.849 134.993 174.233 133.569 173.012 132.442L172.288 133.226ZM173.781 136.676V141.501H174.849V136.676H173.781ZM173.781 141.501C173.781 142.892 173.286 144.03 172.288 144.952L173.012 145.736C174.233 144.608 174.849 143.184 174.849 141.501H173.781ZM172.285 144.954C171.298 145.877 170.06 146.347 168.529 146.347V147.414C170.301 147.414 171.809 146.86 173.014 145.734L172.285 144.954ZM168.529 146.347C166.999 146.347 165.752 145.876 164.75 144.952L164.026 145.736C165.244 146.86 166.758 147.414 168.529 147.414V146.347ZM164.752 144.954C163.767 144.033 163.278 142.894 163.278 141.501H162.21C162.21 143.182 162.817 144.605 164.023 145.734L164.752 144.954ZM164.986 136.634V141.544H166.053V136.634H164.986ZM164.986 141.544C164.986 142.451 165.336 143.232 166.011 143.857L166.736 143.073C166.272 142.644 166.053 142.145 166.053 141.544H164.986ZM166.021 143.866C166.712 144.473 167.56 144.767 168.529 144.767V143.7C167.791 143.7 167.202 143.482 166.725 143.064L166.021 143.866ZM168.529 144.767C169.499 144.767 170.347 144.473 171.038 143.866L170.334 143.064C169.857 143.482 169.268 143.7 168.529 143.7V144.767ZM171.048 143.856C171.732 143.223 172.095 142.444 172.095 141.544H171.027C171.027 142.123 170.807 142.625 170.323 143.074L171.048 143.856ZM172.095 141.544V136.634H171.027V141.544H172.095ZM172.095 136.634C172.095 135.721 171.733 134.943 171.038 134.333L170.334 135.135C170.806 135.549 171.027 136.038 171.027 136.634H172.095ZM171.048 134.342C170.368 133.713 169.515 133.41 168.529 133.41V134.477C169.281 134.477 169.865 134.701 170.323 135.125L171.048 134.342ZM168.529 133.41C167.544 133.41 166.691 133.713 166.011 134.342L166.736 135.125C167.194 134.701 167.778 134.477 168.529 134.477V133.41ZM166.016 134.337C165.337 134.949 164.986 135.725 164.986 136.634H166.053C166.053 136.033 166.272 135.543 166.73 135.13L166.016 134.337ZM185.41 135.011H185.944V134.151L185.173 134.533L185.41 135.011ZM182.827 136.292L182.345 136.521L182.578 137.012L183.064 136.77L182.827 136.292ZM181.674 133.858L181.438 133.38L180.968 133.613L181.192 134.087L181.674 133.858ZM186.2 131.617V131.083H186.075L185.963 131.139L186.2 131.617ZM188.186 131.617H188.719V131.083H188.186V131.617ZM188.186 146.561V147.094H188.719V146.561H188.186ZM185.41 146.561H184.877V147.094H185.41V146.561ZM185.173 134.533L182.59 135.814L183.064 136.77L185.647 135.489L185.173 134.533ZM183.31 136.064L182.157 133.63L181.192 134.087L182.345 136.521L183.31 136.064ZM181.911 134.337L186.437 132.095L185.963 131.139L181.438 133.38L181.911 134.337ZM186.2 132.151H188.186V131.083H186.2V132.151ZM187.652 131.617V146.561H188.719V131.617H187.652ZM188.186 146.027H185.41V147.094H188.186V146.027ZM185.944 146.561V135.011H184.877V146.561H185.944ZM198.537 132.834L198.175 132.442L198.172 132.444L198.537 132.834ZM206.798 132.834L206.434 133.224L206.436 133.226L206.798 132.834ZM206.798 145.344L206.436 144.952L206.434 144.954L206.798 145.344ZM198.537 145.344L198.172 145.734L198.175 145.736L198.537 145.344ZM200.522 143.465L200.159 143.857L200.17 143.866L200.522 143.465ZM204.834 143.465L205.186 143.866L205.192 143.861L205.197 143.856L204.834 143.465ZM204.834 134.734L204.472 135.126L204.482 135.135L204.834 134.734ZM200.522 134.734L200.879 135.13L200.884 135.125L200.522 134.734ZM197.427 141.501V136.676H196.359V141.501H197.427ZM197.427 136.676C197.427 135.283 197.916 134.145 198.901 133.224L198.172 132.444C196.965 133.572 196.359 134.996 196.359 136.676H197.427ZM198.899 133.226C199.901 132.301 201.148 131.83 202.678 131.83V130.763C200.907 130.763 199.393 131.317 198.175 132.442L198.899 133.226ZM202.678 131.83C204.209 131.83 205.447 132.301 206.434 133.224L207.163 132.444C205.958 131.317 204.45 130.763 202.678 130.763V131.83ZM206.436 133.226C207.435 134.148 207.93 135.285 207.93 136.676H208.997C208.997 134.993 208.382 133.569 207.16 132.442L206.436 133.226ZM207.93 136.676V141.501H208.997V136.676H207.93ZM207.93 141.501C207.93 142.892 207.435 144.03 206.436 144.952L207.16 145.736C208.382 144.608 208.997 143.184 208.997 141.501H207.93ZM206.434 144.954C205.447 145.877 204.209 146.347 202.678 146.347V147.414C204.45 147.414 205.958 146.86 207.163 145.734L206.434 144.954ZM202.678 146.347C201.148 146.347 199.901 145.876 198.899 144.952L198.175 145.736C199.393 146.86 200.907 147.414 202.678 147.414V146.347ZM198.901 144.954C197.916 144.033 197.427 142.894 197.427 141.501H196.359C196.359 143.182 196.965 144.605 198.172 145.734L198.901 144.954ZM199.134 136.634V141.544H200.202V136.634H199.134ZM199.134 141.544C199.134 142.451 199.485 143.232 200.16 143.857L200.884 143.073C200.421 142.644 200.202 142.145 200.202 141.544H199.134ZM200.17 143.866C200.861 144.473 201.709 144.767 202.678 144.767V143.7C201.94 143.7 201.35 143.482 200.874 143.064L200.17 143.866ZM202.678 144.767C203.648 144.767 204.496 144.473 205.186 143.866L204.482 143.064C204.006 143.482 203.416 143.7 202.678 143.7V144.767ZM205.197 143.856C205.88 143.223 206.243 142.444 206.243 141.544H205.176C205.176 142.123 204.955 142.625 204.472 143.074L205.197 143.856ZM206.243 141.544V136.634H205.176V141.544H206.243ZM206.243 136.634C206.243 135.721 205.882 134.943 205.186 134.333L204.482 135.135C204.954 135.549 205.176 136.038 205.176 136.634H206.243ZM205.197 134.342C204.517 133.713 203.663 133.41 202.678 133.41V134.477C203.429 134.477 204.013 134.701 204.472 135.125L205.197 134.342ZM202.678 133.41C201.693 133.41 200.84 133.713 200.16 134.342L200.884 135.125C201.343 134.701 201.927 134.477 202.678 134.477V133.41ZM200.165 134.337C199.485 134.949 199.134 135.725 199.134 136.634H200.202C200.202 136.033 200.42 135.543 200.879 135.13L200.165 134.337ZM219.559 135.011H220.093V134.151L219.322 134.533L219.559 135.011ZM216.976 136.292L216.494 136.521L216.726 137.012L217.213 136.77L216.976 136.292ZM215.823 133.858L215.586 133.38L215.116 133.613L215.341 134.087L215.823 133.858ZM220.349 131.617V131.083H220.224L220.112 131.139L220.349 131.617ZM222.334 131.617H222.868V131.083H222.334V131.617ZM222.334 146.561V147.094H222.868V146.561H222.334ZM219.559 146.561H219.025V147.094H219.559V146.561ZM219.322 134.533L216.739 135.814L217.213 136.77L219.796 135.489L219.322 134.533ZM217.458 136.064L216.305 133.63L215.341 134.087L216.494 136.521L217.458 136.064ZM216.06 134.337L220.586 132.095L220.112 131.139L215.586 133.38L216.06 134.337ZM220.349 132.151H222.334V131.083H220.349V132.151ZM221.801 131.617V146.561H222.868V131.617H221.801ZM222.334 146.027H219.559V147.094H222.334V146.027ZM220.093 146.561V135.011H219.025V146.561H220.093ZM232.685 132.834L232.323 132.442L232.321 132.444L232.685 132.834ZM240.947 132.834L240.583 133.224L240.585 133.226L240.947 132.834ZM240.947 145.344L240.585 144.952L240.583 144.954L240.947 145.344ZM232.685 145.344L232.321 145.734L232.323 145.736L232.685 145.344ZM234.671 143.465L234.308 143.857L234.319 143.866L234.671 143.465ZM238.983 143.465L239.335 143.866L239.341 143.861L239.346 143.856L238.983 143.465ZM238.983 134.734L238.621 135.126L238.631 135.135L238.983 134.734ZM234.671 134.734L235.028 135.13L235.033 135.125L234.671 134.734ZM231.575 141.501V136.676H230.508V141.501H231.575ZM231.575 136.676C231.575 135.283 232.065 134.145 233.05 133.224L232.321 132.444C231.114 133.572 230.508 134.996 230.508 136.676H231.575ZM233.047 133.226C234.049 132.301 235.297 131.83 236.827 131.83V130.763C235.055 130.763 233.542 131.317 232.323 132.442L233.047 133.226ZM236.827 131.83C238.357 131.83 239.596 132.301 240.583 133.224L241.312 132.444C240.107 131.317 238.598 130.763 236.827 130.763V131.83ZM240.585 133.226C241.584 134.148 242.079 135.285 242.079 136.676H243.146C243.146 134.993 242.531 133.569 241.309 132.442L240.585 133.226ZM242.079 136.676V141.501H243.146V136.676H242.079ZM242.079 141.501C242.079 142.892 241.584 144.03 240.585 144.952L241.309 145.736C242.531 144.608 243.146 143.184 243.146 141.501H242.079ZM240.583 144.954C239.596 145.877 238.357 146.347 236.827 146.347V147.414C238.598 147.414 240.107 146.86 241.312 145.734L240.583 144.954ZM236.827 146.347C235.297 146.347 234.049 145.876 233.047 144.952L232.323 145.736C233.542 146.86 235.055 147.414 236.827 147.414V146.347ZM233.05 144.954C232.065 144.033 231.575 142.894 231.575 141.501H230.508C230.508 143.182 231.114 144.605 232.321 145.734L233.05 144.954ZM233.283 136.634V141.544H234.35V136.634H233.283ZM233.283 141.544C233.283 142.451 233.633 143.232 234.308 143.857L235.033 143.073C234.57 142.644 234.35 142.145 234.35 141.544H233.283ZM234.319 143.866C235.009 144.473 235.857 144.767 236.827 144.767V143.7C236.089 143.7 235.499 143.482 235.023 143.064L234.319 143.866ZM236.827 144.767C237.796 144.767 238.644 144.473 239.335 143.866L238.631 143.064C238.155 143.482 237.565 143.7 236.827 143.7V144.767ZM239.346 143.856C240.029 143.223 240.392 142.444 240.392 141.544H239.325C239.325 142.123 239.104 142.625 238.62 143.074L239.346 143.856ZM240.392 141.544V136.634H239.325V141.544H240.392ZM240.392 136.634C240.392 135.721 240.03 134.943 239.335 134.333L238.631 135.135C239.103 135.549 239.325 136.038 239.325 136.634H240.392ZM239.345 134.342C238.665 133.713 237.812 133.41 236.827 133.41V134.477C237.578 134.477 238.162 134.701 238.621 135.125L239.345 134.342ZM236.827 133.41C235.842 133.41 234.988 133.713 234.308 134.342L235.033 135.125C235.492 134.701 236.076 134.477 236.827 134.477V133.41ZM234.314 134.337C233.634 134.949 233.283 135.725 233.283 136.634H234.35C234.35 136.033 234.569 135.543 235.028 135.13L234.314 134.337Z" fill="black"/>
<path d="M131.429 123.344L149.375 95.4062H113.483L131.429 123.344Z" fill="#31D67B"/>
</svg>
