<svg width="342" height="180" viewBox="0 0 342 180" fill="none" xmlns="http://www.w3.org/2000/svg">
<rect width="341" height="180" transform="translate(0.00195312)" fill="#F5F5F5"/>
<path d="M261.002 121C274.502 120 300.302 109.3 301.502 80.5C301.502 44.5 274.002 35 260.502 35C241.002 35 160.002 35 114.002 35" stroke="black"/>
<path d="M261.205 121H189.001" stroke="black"/>
<path d="M77.502 56C64.002 57 38.202 67.7 37.002 96.5C37.002 132.5 64.502 142 78.002 142C97.502 142 178.502 142 224.502 142" stroke="black"/>
<path d="M77.2988 56H149.502" stroke="black"/>
<path d="M209.502 35.5V120.5M209.502 35.5V120.5" stroke="black"/>
<path d="M214.002 35V121M214.002 35V121" stroke="black"/>
<path d="M219.002 35V121M219.002 35V121" stroke="black"/>
<path d="M224.002 35V121M224.002 35V121" stroke="black"/>
<path d="M229.002 35V121M229.002 35V121" stroke="black"/>
<path d="M234.002 35V121M234.002 35V121" stroke="black"/>
<path d="M239.002 35V121M239.002 35V121" stroke="black"/>
<path d="M244.002 35V121M244.002 35V121" stroke="black"/>
<circle cx="288.002" cy="44" r="17" fill="#A57CFE"/>
<circle cx="225.002" cy="142" r="11" fill="#8052E4"/>
<circle cx="82.502" cy="98.5" r="35.5" fill="#31D67B"/>
<circle cx="96.377" cy="93.375" r="1.375" fill="#D4D4D4"/>
<circle cx="102.127" cy="93.375" r="1.375" fill="#D4D4D4"/>
<circle cx="107.877" cy="93.375" r="1.375" fill="#D4D4D4"/>
<circle cx="113.377" cy="93.375" r="1.375" fill="#D4D4D4"/>
<circle cx="119.377" cy="93.375" r="1.375" fill="#D4D4D4"/>
<circle cx="125.127" cy="93.375" r="1.375" fill="#D4D4D4"/>
<circle cx="130.877" cy="93.375" r="1.375" fill="#D4D4D4"/>
<circle cx="136.627" cy="93.375" r="1.375" fill="#D4D4D4"/>
<circle cx="142.377" cy="93.375" r="1.375" fill="#D4D4D4"/>
<circle cx="96.377" cy="99.125" r="1.375" fill="#D4D4D4"/>
<circle cx="102.127" cy="99.125" r="1.375" fill="#D4D4D4"/>
<circle cx="96.377" cy="104.875" r="1.375" fill="#D4D4D4"/>
<circle cx="102.127" cy="104.875" r="1.375" fill="#D4D4D4"/>
<circle cx="107.877" cy="104.875" r="1.375" fill="#D4D4D4"/>
<circle cx="113.627" cy="104.875" r="1.375" fill="#D4D4D4"/>
<circle cx="119.377" cy="104.875" r="1.375" fill="#D4D4D4"/>
<circle cx="125.127" cy="104.875" r="1.375" fill="#D4D4D4"/>
<circle cx="130.877" cy="104.875" r="1.375" fill="#D4D4D4"/>
<circle cx="136.627" cy="104.875" r="1.375" fill="#D4D4D4"/>
<circle cx="142.377" cy="104.875" r="1.375" fill="#D4D4D4"/>
<circle cx="107.877" cy="99.125" r="1.375" fill="#D4D4D4"/>
<circle cx="113.377" cy="99.125" r="1.375" fill="#D4D4D4"/>
<circle cx="119.377" cy="99.125" r="1.375" fill="#D4D4D4"/>
<circle cx="125.127" cy="99.125" r="1.375" fill="#D4D4D4"/>
<circle cx="130.877" cy="99.125" r="1.375" fill="#D4D4D4"/>
<circle cx="136.627" cy="99.125" r="1.375" fill="#D4D4D4"/>
<circle cx="142.377" cy="99.125" r="1.375" fill="#D4D4D4"/>
<circle cx="96.377" cy="93.375" r="1.375" fill="#D4D4D4"/>
<circle cx="102.127" cy="93.375" r="1.375" fill="#D4D4D4"/>
<circle cx="107.877" cy="93.375" r="1.375" fill="#D4D4D4"/>
<circle cx="113.377" cy="93.375" r="1.375" fill="#D4D4D4"/>
<circle cx="119.377" cy="93.375" r="1.375" fill="#D4D4D4"/>
<circle cx="125.127" cy="93.375" r="1.375" fill="#D4D4D4"/>
<circle cx="130.877" cy="93.375" r="1.375" fill="#D4D4D4"/>
<circle cx="136.627" cy="93.375" r="1.375" fill="#D4D4D4"/>
<circle cx="142.377" cy="93.375" r="1.375" fill="#D4D4D4"/>
<circle cx="96.377" cy="99.125" r="1.375" fill="#D4D4D4"/>
<circle cx="102.127" cy="99.125" r="1.375" fill="#D4D4D4"/>
<circle cx="96.377" cy="104.875" r="1.375" fill="#D4D4D4"/>
<circle cx="102.127" cy="104.875" r="1.375" fill="#D4D4D4"/>
<circle cx="107.877" cy="104.875" r="1.375" fill="#D4D4D4"/>
<circle cx="113.627" cy="104.875" r="1.375" fill="#D4D4D4"/>
<circle cx="119.377" cy="104.875" r="1.375" fill="#D4D4D4"/>
<circle cx="125.127" cy="104.875" r="1.375" fill="#D4D4D4"/>
<circle cx="130.877" cy="104.875" r="1.375" fill="#D4D4D4"/>
<circle cx="136.627" cy="104.875" r="1.375" fill="#D4D4D4"/>
<circle cx="142.377" cy="104.875" r="1.375" fill="#D4D4D4"/>
<circle cx="107.877" cy="99.125" r="1.375" fill="#D4D4D4"/>
<circle cx="113.377" cy="99.125" r="1.375" fill="#D4D4D4"/>
<circle cx="119.377" cy="99.125" r="1.375" fill="#D4D4D4"/>
<circle cx="125.127" cy="99.125" r="1.375" fill="#D4D4D4"/>
<circle cx="130.877" cy="99.125" r="1.375" fill="#D4D4D4"/>
<circle cx="136.627" cy="99.125" r="1.375" fill="#D4D4D4"/>
<circle cx="142.377" cy="99.125" r="1.375" fill="#D4D4D4"/>
<path d="M119.002 35V56" stroke="black"/>
<path d="M122.002 35V56" stroke="black"/>
<path d="M125.002 35V56" stroke="black"/>
<path d="M128.002 35V56" stroke="black"/>
<path d="M131.002 35V56" stroke="black"/>
</svg>
