<svg width="342" height="180" viewBox="0 0 342 180" fill="none" xmlns="http://www.w3.org/2000/svg">
<rect width="341" height="180" transform="translate(0.00195312)" fill="#F5F5F5"/>
<rect width="169" height="27" transform="translate(42.5684 38.6445)" fill="#AB85FF"/>
<g clip-path="url(#clip0)">
<path d="M71.4156 56.6445C71.5473 56.6445 71.679 56.695 71.78 56.7955L81.097 66.1114C81.2978 66.3105 81.2978 66.64 81.097 66.8391L72.5148 75.4208L81.4729 84.3792C81.6723 84.5783 81.6723 84.9059 81.4729 85.1068L72.9244 93.6527L81.9256 102.654C82.1262 102.855 82.1262 103.181 81.9256 103.382L73.3445 111.964L82.3026 120.922C82.503 121.122 82.503 121.449 82.3026 121.649L73.4579 130.494C73.2573 130.695 72.9305 130.695 72.7303 130.494C72.5297 130.293 72.5297 129.967 72.7303 129.766L81.2107 121.286L72.2578 112.334C72.0576 112.133 72.0576 111.806 72.2578 111.606C72.2725 111.591 72.2899 111.586 72.305 111.575C72.3226 111.55 72.3331 111.522 72.3548 111.501L80.8351 103.02L71.8825 94.0673C71.7547 93.9396 71.7176 93.7636 71.7512 93.5998C71.7482 93.4642 71.7971 93.3275 71.8996 93.2248L80.3801 84.7415L71.4271 75.7915C71.2278 75.5902 71.2278 75.2626 71.4271 75.0635C71.4418 75.0475 71.4584 75.0426 71.4738 75.0334C71.4911 75.0093 71.5004 74.9812 71.524 74.959L80.0042 66.4797L71.0528 57.5288C70.8522 57.3276 70.8522 56.999 71.0528 56.801C71.1507 56.6934 71.2839 56.6445 71.4156 56.6445Z" fill="black"/>
<path d="M85.3068 56.6447C85.4385 56.6447 85.57 56.6952 85.6709 56.7957L94.9873 66.1116C95.1863 66.3107 95.1863 66.6402 94.9873 66.8394L86.4067 75.421L95.3656 84.3794C95.5636 84.5785 95.5636 84.9061 95.3656 85.107L86.8164 93.6529L95.8185 102.654C96.0184 102.855 96.0184 103.181 95.8185 103.382L87.2374 111.963L96.1958 120.921C96.3966 121.121 96.3966 121.448 96.1958 121.648L87.3505 130.492C87.1503 130.693 86.8224 130.693 86.6229 130.492C86.4225 130.291 86.4225 129.965 86.6229 129.764L95.1031 121.284L86.1516 112.332C85.951 112.131 85.951 111.804 86.1516 111.604C86.1652 111.59 86.1812 111.585 86.1968 111.574C86.2144 111.549 86.2236 111.521 86.2471 111.499L94.7283 103.017L85.7761 94.0651C85.6496 93.9383 85.6123 93.7633 85.6452 93.5996C85.6419 93.464 85.6894 93.3252 85.7932 93.2212L94.2768 84.7387L85.3189 75.7891C85.1196 75.59 85.1196 75.2605 85.3189 75.0613C85.3336 75.0474 85.3501 75.0402 85.3645 75.0332C85.383 75.0092 85.3924 74.9791 85.4159 74.9588L93.8958 66.4771L84.9438 57.5264C84.7427 57.3255 84.7427 56.9989 84.9438 56.7988C85.0417 56.6936 85.1734 56.6447 85.3068 56.6447Z" fill="black"/>
<path d="M99.198 56.6445C99.3319 56.6445 99.4627 56.695 99.5623 56.7955L108.88 66.1114C109.081 66.3105 109.081 66.64 108.88 66.8391L100.298 75.4208L109.256 84.3792C109.457 84.5783 109.457 84.9059 109.256 85.1068L100.708 93.6527L109.71 102.654C109.907 102.855 109.907 103.181 109.71 103.382L101.126 111.964L110.085 120.922C110.284 121.122 110.284 121.449 110.085 121.649L101.238 130.494C101.037 130.695 100.709 130.695 100.511 130.494C100.31 130.293 100.31 129.967 100.511 129.766L108.989 121.286L100.038 112.334C99.8372 112.133 99.8372 111.806 100.038 111.606C100.053 111.591 100.067 111.586 100.087 111.575C100.107 111.55 100.112 111.522 100.135 111.501L108.617 103.02L99.6626 94.0673C99.5358 93.9396 99.5016 93.7636 99.5321 93.5998C99.5297 93.4642 99.5779 93.3275 99.6824 93.2248L108.164 84.7415L99.2105 75.7915C99.0116 75.5902 99.0116 75.2626 99.2105 75.0635C99.2243 75.0475 99.2406 75.0426 99.2562 75.0334C99.275 75.0093 99.2808 74.9812 99.3066 74.959L107.788 66.4797L98.8367 57.5288C98.6352 57.3276 98.6352 56.999 98.8367 56.801C98.9346 56.6934 99.0656 56.6445 99.198 56.6445Z" fill="black"/>
</g>
<path d="M249.642 65.6445L291.898 131.429H207.385L249.642 65.6445Z" fill="#8052E4"/>
<rect width="65.0586" height="4.06616" transform="translate(159.314 80.8457)" fill="#31D67B"/>
<rect width="65.0586" height="6.97056" transform="translate(167.447 93.625)" fill="#31D67B"/>
<rect width="65.0586" height="11.0367" transform="translate(177.322 108.729)" fill="#31D67B"/>
<defs>
<clipPath id="clip0">
<rect width="74" height="74" fill="white" transform="matrix(1 0 0 -1 53.5684 130.645)"/>
</clipPath>
</defs>
</svg>
