<svg width="227" height="111" viewBox="0 0 227 111" fill="none" xmlns="http://www.w3.org/2000/svg">
<path d="M52.4603 52.8881L50.8102 51.931V54.7151L51.505 60.1094L54.0235 67.8527L54.892 70.0278V71.4199L55.4131 73.595L54.892 75.8571L55.4131 78.5542L54.892 80.5553L51.505 81.4254L48.9865 82.9914L46.3811 85.6015L45.4258 87.9507L47.2495 90.2998L49.6812 91.7788C50.1734 92.2429 51.1576 93.2405 51.1576 93.5189C51.1576 93.7973 51.3892 94.679 51.505 95.085L50.8971 96.564L50.376 98.7391L50.0286 99.8702L48.9865 100.914V102.654V104.829C49.5944 105.235 50.8797 106.082 51.1576 106.221C51.4355 106.361 51.7945 105.931 51.9392 105.699L51.505 103.872L52.3735 102.654L54.2841 104.22H56.8894L58.3658 102.654L59.929 101.349L61.1449 99.1742L64.1845 98.7391H65.8346L68.2662 98.2171H69.7426L70.6979 97.8691L71.8269 96.8251H73.6507L74.5192 97.8691H79.2957L83.8985 98.7391H87.025L89.8909 100.479H92.8436L95.1885 101.349L96.6649 100.914H99.0097V102.654L99.7913 103.002V104.22H101.962H103.613L104.134 103.872H105.089L105.61 105.612L106.218 106.831L107.086 105.96L108.389 103.872L109.084 104.655H110.908L112.731 102.654L114.208 105.264L114.989 105.612L116.292 104.22L118.116 104.655L118.897 106.831L119.94 107.614L120.547 107.266V106.395L120.895 105.264L121.763 104.22H122.371H123.5L124.282 103.872L125.15 102.654L126.192 104.22V105.612L127.148 107.266L128.103 108.745L128.798 108.049H130.795V106.831L131.316 106.395L132.88 105.264L133.227 106.395L134.53 106.831H135.572L136.093 105.96L137.222 105.264H139.827L140.956 105.96L142.78 109.093L145.038 109.702L145.906 108.745V106.831L145.559 105.264L144.517 102.654L143.909 101.349L144.517 100.479L145.559 99.5222L146.341 97.2601L147.122 95.868L149.293 94.65V93.4319L149.728 92.2138L150.683 91.3438L152.507 92.3879L153.896 92.2138L154.504 91.3438L155.46 90.8218H157.283H160.583V89.0817L159.802 88.2117L159.107 87.1676L157.978 85.8626L157.631 83.1654L157.978 82.1214V80.5553L157.283 79.5113C156.936 79.2503 156.172 78.6934 155.894 78.5542C155.616 78.415 156.357 77.9742 156.762 77.7712L157.283 76.2921L155.894 75.5091L156.241 74.465L154.938 73.421L153.636 71.7679L152.767 70.8109L153.636 70.0278L153.896 68.2878V67.1567L154.938 67.6787L156.241 67.1567H157.978L160.583 68.9838H163.015L165.707 68.2878L166.489 67.1567L167.271 66.3737L167.878 64.8946V64.0246H169.181L170.136 63.3285L171.613 62.4585V61.1534L171.092 59.6744H170.136L167.878 58.2823L167.271 57.3253V56.5422V55.4982L166.489 54.5411H165.273L163.797 53.4971L161.712 52.9751L159.107 53.4971H157.631L157.978 52.9751L158.586 51.496L159.107 49.9299V48.7989L158.586 47.6678L157.283 47.2328L156.241 46.7108L154.331 46.2757L152.333 44.9707L151.204 44.6227V42.5346L150.683 41.1425L149.641 39.6634L148.425 39.4894V38.7934L149.033 37.9234L149.38 37.1403V36.0093L149.033 35.3132H146.949L146.601 34.8782L144.256 33.6602L143.735 32.7031L144.256 31.7461V30.615L145.212 29.919L146.254 28.3529L146.601 26.6128L146.254 25.0468L143.735 22.4367L144.604 21.2186L145.212 20.0005V17.6514V16.5204L144.256 14.9543L142.693 15.3893H142.259L141.043 14.6063L140.522 13.0402L137.396 11.4742L136.961 11.0391L135.224 10.6911H134.356L133.748 11.0391L132.011 10.6911L130.795 11.0391L130.187 12.1702H129.493H128.277L127.235 13.0402L126.8 14.0843H126.019L125.585 13.0402V11.4742L126.019 9.99509L125.585 9.03805L123.066 7.994L120.374 7.38497C120.026 7.58798 119.262 7.994 118.984 7.994C118.706 7.994 118.058 8.69003 117.768 9.03805L116.813 8.51602L116.466 7.03695L115.945 6.25392H112.21L111.602 7.03695L110.386 5.29688H109.171L107.26 6.25392L105.263 7.38497L105.523 9.03805H103.96L103.265 9.99509V12.5182L102.484 13.0402H101.528H100.226H99.3571L97.8807 12.1702H96.3175L93.1042 15.3893L92.3226 14.9543H91.3673L90.5856 15.9114L91.3673 16.9554L89.4566 19.3045L89.9777 21.8276L88.3276 23.1327V23.8287L90.5856 24.0897L92.3226 23.8287L93.1042 24.6118L91.8015 25.6558L91.3673 27.1349H90.7593L89.4566 27.4829H88.3276H86.6776L85.896 28.3529V29.919L85.1143 30.789L82.2484 31.7461L79.8167 34.1822V39.4894L78.5141 41.4905L77.3851 44.4487L77.0377 45.7537H74.606L72.6085 46.6238L71.8269 48.1028L70.6979 49.1469L69.2216 48.4508L68.0926 49.1469L66.7899 49.7559L68.0926 51.409L66.7899 52.54V51.409H65.9214L61.9265 54.1931L60.7107 52.8881L59.4948 52.54L58.8869 52.8881H57.3237L56.2815 52.54L55.4131 52.8881L54.892 53.6711L54.3709 52.8881H52.4603Z" stroke="url(#paint0_linear)" stroke-width="0.751113"/>
<path d="M134.561 25.6213C142.88 25.8786 161.938 23.0482 171.613 9.66797M171.613 9.66797L170.792 16.2285M171.613 9.66797C170.365 10.2384 167.398 11.3935 165.515 11.4505" stroke="url(#paint1_linear)" stroke-width="0.751113"/>
<path d="M35.4844 79.8049C43.804 80.0622 62.862 77.2318 72.5369 63.8516M72.5369 63.8516L71.7159 70.4121M72.5369 63.8516C71.2886 64.422 68.3214 65.5771 66.4387 65.6341" stroke="url(#paint2_linear)" stroke-width="0.751113"/>
<rect x="184.241" y="0.206061" width="42.1972" height="58.4293" fill="white"/>
<rect x="188.774" y="8.03809" width="32.5576" height="3.29697" stroke="url(#paint3_linear)" stroke-width="0.412121"/>
<rect x="188.774" y="15.8662" width="32.5576" height="3.29697" stroke="url(#paint4_linear)" stroke-width="0.412121"/>
<rect x="188.774" y="23.6982" width="32.5576" height="3.29697" stroke="url(#paint5_linear)" stroke-width="0.412121"/>
<rect x="188.774" y="31.5264" width="32.5576" height="3.29697" stroke="url(#paint6_linear)" stroke-width="0.412121"/>
<rect x="188.774" y="39.3584" width="32.5576" height="3.29697" stroke="url(#paint7_linear)" stroke-width="0.412121"/>
<rect x="188.774" y="47.1865" width="32.5576" height="3.29697" stroke="url(#paint8_linear)" stroke-width="0.412121"/>
<rect x="184.241" y="0.206061" width="42.1972" height="58.4293" stroke="url(#paint9_linear)" stroke-width="0.412121"/>
<rect x="0.170381" y="60.6508" width="27.6914" height="38.3435" fill="white"/>
<rect x="3.14499" y="65.7876" width="21.3655" height="2.1636" stroke="url(#paint10_linear)" stroke-width="0.270449"/>
<rect x="3.14499" y="70.9282" width="21.3655" height="2.1636" stroke="url(#paint11_linear)" stroke-width="0.270449"/>
<rect x="3.14499" y="76.0649" width="21.3655" height="2.1636" stroke="url(#paint12_linear)" stroke-width="0.270449"/>
<rect x="3.14499" y="81.2055" width="21.3655" height="2.1636" stroke="url(#paint13_linear)" stroke-width="0.270449"/>
<rect x="3.14499" y="86.3423" width="21.3655" height="2.1636" stroke="url(#paint14_linear)" stroke-width="0.270449"/>
<rect x="3.14499" y="91.4829" width="21.3655" height="2.1636" stroke="url(#paint15_linear)" stroke-width="0.270449"/>
<rect x="0.170381" y="60.6508" width="27.6914" height="38.3435" stroke="url(#paint16_linear)" stroke-width="0.270449"/>
<defs>
<linearGradient id="paint0_linear" x1="24.8993" y1="120.128" x2="137.798" y2="-56.2595" gradientUnits="userSpaceOnUse">
<stop stop-color="#AB85FF"/>
<stop offset="0.526042" stop-color="#EBA3E3"/>
<stop offset="1" stop-color="#FFDBE4"/>
</linearGradient>
<linearGradient id="paint1_linear" x1="128.533" y1="27.2317" x2="139.945" y2="-6.99516" gradientUnits="userSpaceOnUse">
<stop stop-color="#AB85FF"/>
<stop offset="0.526042" stop-color="#EBA3E3"/>
<stop offset="1" stop-color="#FFDBE4"/>
</linearGradient>
<linearGradient id="paint2_linear" x1="29.4572" y1="81.4153" x2="40.8686" y2="47.1884" gradientUnits="userSpaceOnUse">
<stop stop-color="#AB85FF"/>
<stop offset="0.526042" stop-color="#EBA3E3"/>
<stop offset="1" stop-color="#FFDBE4"/>
</linearGradient>
<linearGradient id="paint3_linear" x1="183.205" y1="11.9115" x2="183.968" y2="3.14441" gradientUnits="userSpaceOnUse">
<stop stop-color="#AB85FF"/>
<stop offset="0.526042" stop-color="#EBA3E3"/>
<stop offset="1" stop-color="#FFDBE4"/>
</linearGradient>
<linearGradient id="paint4_linear" x1="183.205" y1="19.7397" x2="183.968" y2="10.9725" gradientUnits="userSpaceOnUse">
<stop stop-color="#AB85FF"/>
<stop offset="0.526042" stop-color="#EBA3E3"/>
<stop offset="1" stop-color="#FFDBE4"/>
</linearGradient>
<linearGradient id="paint5_linear" x1="183.205" y1="27.5717" x2="183.968" y2="18.8046" gradientUnits="userSpaceOnUse">
<stop stop-color="#AB85FF"/>
<stop offset="0.526042" stop-color="#EBA3E3"/>
<stop offset="1" stop-color="#FFDBE4"/>
</linearGradient>
<linearGradient id="paint6_linear" x1="183.205" y1="35.3998" x2="183.968" y2="26.6327" gradientUnits="userSpaceOnUse">
<stop stop-color="#AB85FF"/>
<stop offset="0.526042" stop-color="#EBA3E3"/>
<stop offset="1" stop-color="#FFDBE4"/>
</linearGradient>
<linearGradient id="paint7_linear" x1="183.205" y1="43.2319" x2="183.968" y2="34.4647" gradientUnits="userSpaceOnUse">
<stop stop-color="#AB85FF"/>
<stop offset="0.526042" stop-color="#EBA3E3"/>
<stop offset="1" stop-color="#FFDBE4"/>
</linearGradient>
<linearGradient id="paint8_linear" x1="183.205" y1="51.06" x2="183.968" y2="42.2928" gradientUnits="userSpaceOnUse">
<stop stop-color="#AB85FF"/>
<stop offset="0.526042" stop-color="#EBA3E3"/>
<stop offset="1" stop-color="#FFDBE4"/>
</linearGradient>
<linearGradient id="paint9_linear" x1="177.104" y1="64.7179" x2="247.02" y2="-0.727778" gradientUnits="userSpaceOnUse">
<stop stop-color="#AB85FF"/>
<stop offset="0.526042" stop-color="#EBA3E3"/>
<stop offset="1" stop-color="#FFDBE4"/>
</linearGradient>
<linearGradient id="paint10_linear" x1="-0.509685" y1="68.3295" x2="-0.0089757" y2="62.5761" gradientUnits="userSpaceOnUse">
<stop stop-color="#AB85FF"/>
<stop offset="0.526042" stop-color="#EBA3E3"/>
<stop offset="1" stop-color="#FFDBE4"/>
</linearGradient>
<linearGradient id="paint11_linear" x1="-0.509685" y1="73.4701" x2="-0.0089757" y2="67.7168" gradientUnits="userSpaceOnUse">
<stop stop-color="#AB85FF"/>
<stop offset="0.526042" stop-color="#EBA3E3"/>
<stop offset="1" stop-color="#FFDBE4"/>
</linearGradient>
<linearGradient id="paint12_linear" x1="-0.509685" y1="78.6068" x2="-0.0089757" y2="72.8535" gradientUnits="userSpaceOnUse">
<stop stop-color="#AB85FF"/>
<stop offset="0.526042" stop-color="#EBA3E3"/>
<stop offset="1" stop-color="#FFDBE4"/>
</linearGradient>
<linearGradient id="paint13_linear" x1="-0.509685" y1="83.7474" x2="-0.0089757" y2="77.9941" gradientUnits="userSpaceOnUse">
<stop stop-color="#AB85FF"/>
<stop offset="0.526042" stop-color="#EBA3E3"/>
<stop offset="1" stop-color="#FFDBE4"/>
</linearGradient>
<linearGradient id="paint14_linear" x1="-0.509685" y1="88.8842" x2="-0.0089757" y2="83.1308" gradientUnits="userSpaceOnUse">
<stop stop-color="#AB85FF"/>
<stop offset="0.526042" stop-color="#EBA3E3"/>
<stop offset="1" stop-color="#FFDBE4"/>
</linearGradient>
<linearGradient id="paint15_linear" x1="-0.509685" y1="94.0248" x2="-0.0089757" y2="88.2715" gradientUnits="userSpaceOnUse">
<stop stop-color="#AB85FF"/>
<stop offset="0.526042" stop-color="#EBA3E3"/>
<stop offset="1" stop-color="#FFDBE4"/>
</linearGradient>
<linearGradient id="paint16_linear" x1="-4.5133" y1="102.986" x2="41.3679" y2="60.038" gradientUnits="userSpaceOnUse">
<stop stop-color="#AB85FF"/>
<stop offset="0.526042" stop-color="#EBA3E3"/>
<stop offset="1" stop-color="#FFDBE4"/>
</linearGradient>
</defs>
</svg>
