<svg width="169" height="35" fill="none" xmlns="http://www.w3.org/2000/svg"><path d="M38.24 5.5h10.63v2.43h-7.6v2.71h3.65c1.6 0 2.8.33 3.63 1a3.45 3.45 0 011.26 2.88c0 1.32-.46 2.34-1.39 3.07-.93.72-2.24 1.09-3.93 1.09h-6.25V5.5zm6.08 10.92a3 3 0 001.79-.45c.41-.32.62-.77.62-1.36 0-1.15-.8-1.73-2.41-1.73h-3.05v3.54h3.05zM55.84 8.4c1.57 0 2.77.38 3.61 1.13.84.74 1.26 1.86 1.26 3.37v5.78h-2.74v-1.26c-.56.94-1.58 1.4-3.09 1.4-.78 0-1.46-.12-2.03-.39a2.84 2.84 0 01-1.75-2.67c0-.94.35-1.68 1.05-2.22.72-.54 1.81-.8 3.3-.8h2.33c0-.65-.2-1.14-.59-1.48-.38-.35-.97-.52-1.75-.52a5.03 5.03 0 00-2.91.94l-1.06-2.05a6.37 6.37 0 011.98-.9 9 9 0 012.39-.33zm-.23 8.45c.5 0 .95-.11 1.34-.34.39-.24.66-.58.83-1.03v-1.04h-2.02c-1.2 0-1.8.4-1.8 1.19 0 .37.14.68.43.9.3.21.7.32 1.22.32zm17.8-8.3L68.83 19.3a5.25 5.25 0 01-1.73 2.46c-.68.48-1.5.72-2.46.72-.53 0-1.05-.08-1.57-.25a3.45 3.45 0 01-1.26-.67l1.08-2.1a2.55 2.55 0 001.65.65c.4 0 .73-.1.98-.3.25-.2.48-.51.68-.96l.04-.1-4.39-10.2h3.03l2.84 6.87 2.86-6.87h2.83zm10.02 7.3h-6.11l-1.17 2.83h-3.12L78.9 5.5h3l5.9 13.17h-3.2l-1.17-2.83zm-.96-2.31L80.4 8.5l-2.1 5.04h4.18zM95.28 8.4c.95 0 1.8.22 2.56.66a4.56 4.56 0 011.83 1.83c.44.77.66 1.68.66 2.73 0 1.04-.22 1.95-.66 2.74a4.73 4.73 0 01-1.83 1.83c-.76.42-1.61.64-2.56.64-1.29 0-2.3-.41-3.04-1.23v4.73H89.3V8.55h2.8v1.17c.73-.88 1.8-1.32 3.18-1.32zm-.5 8.02c.75 0 1.36-.25 1.84-.75.49-.52.73-1.2.73-2.05 0-.86-.24-1.54-.73-2.04a2.4 2.4 0 00-1.84-.77c-.76 0-1.38.26-1.87.77-.47.5-.71 1.18-.71 2.04 0 .85.24 1.53.71 2.05.5.5 1.11.75 1.87.75zm17.45-2.77l-.06.8h-7.66c.14.62.46 1.12.98 1.48.51.36 1.15.55 1.92.55.53 0 .99-.08 1.4-.23.4-.16.79-.41 1.14-.75l1.56 1.69c-.95 1.1-2.34 1.64-4.18 1.64a6.69 6.69 0 01-3.03-.66 4.96 4.96 0 01-2.74-4.55c0-1 .23-1.89.7-2.68a4.94 4.94 0 011.93-1.86 5.68 5.68 0 012.77-.68c.99 0 1.89.22 2.69.64a4.6 4.6 0 011.88 1.85c.46.79.7 1.7.7 2.76zm-5.25-3.03a2.4 2.4 0 00-2.5 2.1h4.98a2.45 2.45 0 00-2.48-2.1zm7.5-2.07h2.91v3.95h4.4V8.55h2.94v10.13h-2.93v-3.79h-4.4v3.79h-2.92V8.55zm24.4 7.72v4.59h-2.72v-2.18h-7.11v2.18h-2.73v-4.6h.41c.63 0 1.06-.37 1.3-1.1.24-.73.39-1.76.45-3.1l.13-3.5h8.83v7.7h1.45zm-7.75-4.01a17.1 17.1 0 01-.24 2.52 2.78 2.78 0 01-.66 1.49h4.27v-5.3h-3.3l-.06 1.29zm13.54-3.86c1.57 0 2.77.38 3.61 1.13.84.74 1.26 1.86 1.26 3.37v5.78h-2.75v-1.26c-.55.94-1.58 1.4-3.08 1.4-.78 0-1.46-.12-2.03-.39a2.84 2.84 0 01-1.75-2.67c0-.94.35-1.68 1.05-2.22.72-.54 1.81-.8 3.3-.8h2.33c0-.65-.2-1.14-.59-1.48-.39-.35-.97-.52-1.75-.52a5.03 5.03 0 00-2.91.94l-1.06-2.05a6.37 6.37 0 011.98-.9 9 9 0 012.39-.33zm-.23 8.45c.5 0 .95-.11 1.34-.34.39-.24.66-.58.83-1.03v-1.04h-2.02c-1.2 0-1.8.4-1.8 1.19 0 .37.14.68.43.9.3.21.7.32 1.22.32z" fill="#000"/><path d="M27.63 9.43c.74 2.08.68 3.8.64 5.2-.03.8-.16 3.18-1.28 6.08-1.18 3.04-3.14 5.88-3.56 5.68-.48-.22 1.65-3.76 1.83-9.49.12-3.57-.6-5.99-1.14-7.39a11.2 11.2 0 00-2.56-4.3c-1.51-1.5-2.94-1.9-2.83-2.17.14-.38 3.08-.22 5.46 1.46a9.62 9.62 0 013.44 4.93zM6.57 27.87c-1.04-2.1-1.13-3.95-1.22-5.52a18.46 18.46 0 012.28-9.87c1.09-1.93 2.58-3.73 2.84-3.58.18.1-.38 1.12-.96 2.75-.2.55-1.26 3.64-1.36 7.4-.05 2.11-.1 3.81.67 5.9a13.32 13.32 0 003.8 5.38c1.74 1.49 3.02 1.77 2.92 2.12-.17.57-3.77.72-6.38-1.23-1.46-1.07-2.14-2.44-2.6-3.35z" fill="#FEC600"/><path d="M2.22 18.8c.14-1.3.56-4.73 3.08-8.11a16.3 16.3 0 015.63-4.71c.88-.48 1.88-.92 1.97-.78.13.2-1.7 1.33-3.52 3.46-1.11 1.3-1.87 2.65-2.15 3.16 0 0-.39.7-.71 1.38a22.21 22.21 0 00-1.84 6.97c-.44 5.62 2.29 9.51 1.66 9.84-.5.26-2.57-2.11-3.58-4.95-.92-2.58-.7-4.79-.54-6.27zM31.34 13c.73 5.4-2.15 9.64-3.11 11.04-3 4.41-7.28 6.56-7.45 6.35-.15-.18 2.58-1.99 5.07-5.87.82-1.28 2.62-4.1 3.22-7.65 1.07-6.43-2.43-11.4-1.9-11.66.1-.04.32-.04 1.06.8 2.6 2.92 3.03 6.45 3.1 7z" fill="#FEC600"/><path d="M30.5 26.91c-5.03 7.19-15.41 7.46-15.58 6.98-.14-.41 7.74-1.23 12.9-7.69 4.67-5.86 4.22-12.75 4.77-12.67.6.07 1.94 7.6-2.1 13.38zM3.27 8.6a15.32 15.32 0 016.77-5.32c4.5-1.92 8.92-1.4 8.95-1.19 0 .13-1.87.17-4.35.96-.23.07-5.04 1.63-8.3 5.02-5.38 5.58-4.44 13.96-5.25 13.9-.52-.04-.84-3.52-.36-6.62.22-1.44.66-4.04 2.54-6.74z" fill="#FEC600"/><path d="M24.11 17c-.49.12-.62-5.8-4.9-8.46-3.06-1.93-6.56-1.09-6.6-1.79-.06-.58 2.32-1.61 4.68-1.28 2.1.3 3.44 1.58 3.99 2.1 3.6 3.5 3.32 9.32 2.83 9.44zM9.5 18.86c.07-.01.1.53.5 1.7.3.86 2.26 6.61 6.15 7.78 1.82.54 3.25.48 3.25.48.78-.04 1.3-.17 1.37-.03.1.26-1.19 1.26-2.51 1.57-2.23.53-4.7-.83-6.16-2.4-3.18-3.38-2.8-9.07-2.6-9.1z" fill="#FEC600"/><path d="M20.95 11.4c-.19.25-2.04-1.7-5.45-2.2-2.21-.32-3.71.18-3.78-.09-.07-.32 1.98-1.57 4.2-1.36 3.13.31 5.25 3.37 5.03 3.65zM12.78 24.35c.08-.1.47.2 1.38.66 0 0 1.56.76 3.1 1.11 2.52.57 4.31-.35 4.47.08.12.31-.72.96-1.49 1.3-2.06.95-4.2-.03-4.6-.23-1.9-.93-3.02-2.73-2.86-2.92z" fill="#FEC600"/><path d="M16.2 10.52c.04.3-2.32.18-4.31 2.02-1.33 1.23-1.64 2.54-1.9 2.45-.34-.12-.38-2.41.96-3.76 1.78-1.85 5.21-1.07 5.25-.7zM17.31 24.88c0-.25 2.01-.03 3.94-1.49 1.44-1.1 1.85-2.4 2.11-2.3.3.14.17 2.15-1.09 3.31-1.77 1.65-4.93.8-4.96.48z" fill="#FEC600"/><path d="M42.57 28.45H39.4l-.68 1.52h-.63l2.6-5.7h.6l2.6 5.7h-.63l-.69-1.52zm-.22-.5L41 24.9l-1.37 3.06h2.73zm4.7-2.3c.4 0 .76.1 1.09.28.32.18.58.44.76.77.19.33.28.7.28 1.13 0 .43-.1.8-.28 1.14-.18.33-.44.59-.76.77a2.2 2.2 0 01-1.1.27c-.34 0-.65-.07-.94-.21-.27-.15-.5-.36-.68-.64v2.39h-.58v-5.86h.56v.84c.17-.28.4-.5.68-.65.29-.15.61-.22.97-.22zM47 29.5a1.47 1.47 0 001.38-.8c.14-.26.21-.55.21-.87 0-.33-.07-.62-.2-.86a1.47 1.47 0 00-.58-.6 1.6 1.6 0 00-.81-.21 1.54 1.54 0 00-1.4.8c-.13.25-.2.54-.2.87 0 .32.07.61.2.87.15.25.34.45.58.6.24.13.51.2.82.2zm7.16-1.5h-3.59c.04.45.2.81.52 1.09.3.27.7.4 1.17.4.26 0 .5-.04.73-.13.22-.1.42-.24.58-.43l.32.38c-.19.23-.42.4-.71.52-.28.12-.6.18-.94.18-.44 0-.83-.1-1.17-.28-.34-.19-.6-.45-.79-.78-.19-.33-.28-.7-.28-1.12 0-.42.09-.8.27-1.13a2.01 2.01 0 011.82-1.04 1.95 1.95 0 011.8 1.05c.18.32.27.7.27 1.12V28zm-2.07-1.85c-.41 0-.76.13-1.04.4-.28.26-.44.6-.48 1.03h3.04c-.04-.43-.2-.77-.48-1.03-.28-.27-.62-.4-1.04-.4zm3.35-.46h.58v1.9h2.7v-1.9h.57v4.28h-.58v-1.89h-2.69v1.89h-.58v-4.28zm9.67 3.77V31h-.55v-1.03h-3.83V31h-.55v-1.54h.25c.29-.01.48-.22.58-.63.1-.4.18-.98.22-1.71l.05-1.43h3.16v3.77h.67zm-3.36-2.3c-.02.6-.07 1.1-.15 1.5-.08.39-.21.66-.4.8h2.66V26.2h-2.06l-.05.95zm5.96-1.5c.55 0 .98.14 1.28.42.3.28.45.69.45 1.24v2.65h-.55v-.67c-.13.22-.33.4-.58.52-.25.13-.55.19-.9.19-.47 0-.85-.12-1.14-.34a1.1 1.1 0 01-.42-.9c0-.37.13-.66.4-.89.26-.22.68-.33 1.25-.33h1.36v-.26c0-.37-.1-.65-.3-.84-.21-.2-.52-.29-.91-.29a2.24 2.24 0 00-1.43.5l-.26-.43a2.97 2.97 0 011.74-.58zm-.2 3.9c.32 0 .6-.08.83-.23.23-.15.4-.37.52-.65v-.7h-1.34c-.73 0-1.1.26-1.1.77 0 .25.1.44.28.6.2.13.46.2.8.2zm7.39.45c-.43 0-.8-.1-1.14-.28-.33-.18-.6-.44-.78-.77a2.26 2.26 0 01-.29-1.13c0-.42.1-.8.29-1.13.19-.33.45-.58.78-.77.33-.18.71-.27 1.14-.27.37 0 .7.07.98.21.3.15.52.35.7.63l-.44.3a1.32 1.32 0 00-.54-.48 1.67 1.67 0 00-1.55.05c-.24.14-.43.33-.57.59-.13.25-.2.54-.2.87 0 .33.07.62.2.88a1.54 1.54 0 001.42.79c.25 0 .49-.06.7-.16.22-.1.4-.26.54-.47l.43.3c-.17.27-.4.48-.69.63-.3.14-.62.2-.98.2zm5.72-3.81h-1.62v3.77h-.57V26.2h-1.62v-.51h3.81v.51zm3.04-.54c.4 0 .77.09 1.1.27.32.18.57.44.76.77.18.33.28.7.28 1.13 0 .43-.1.8-.28 1.14-.19.33-.44.59-.77.77a2.2 2.2 0 01-1.09.27c-.34 0-.66-.07-.94-.21-.28-.15-.5-.36-.68-.64v2.39h-.58v-5.86h.55v.84c.17-.28.4-.5.68-.65.3-.15.62-.22.97-.22zm-.04 3.84c.3 0 .57-.07.82-.2.24-.15.43-.35.57-.6.14-.26.2-.55.2-.87 0-.33-.06-.62-.2-.86a1.47 1.47 0 00-.57-.6 1.6 1.6 0 00-.82-.21 1.54 1.54 0 00-1.4.8c-.12.25-.2.54-.2.87 0 .32.08.61.21.87.14.25.33.45.57.6.24.13.52.2.82.2zm5.18.5a2.08 2.08 0 01-1.9-1.06c-.18-.32-.28-.7-.28-1.11 0-.42.1-.8.29-1.13.19-.33.45-.58.78-.77.33-.18.7-.27 1.11-.27.41 0 .79.09 1.12.27.33.19.59.44.77.77.19.34.28.71.28 1.13 0 .42-.09.79-.28 1.12-.18.33-.44.6-.77.78-.33.19-.7.28-1.12.28zm0-.5c.3 0 .58-.07.82-.2.24-.15.43-.35.57-.6.13-.26.2-.55.2-.87 0-.33-.07-.62-.2-.87a1.41 1.41 0 00-.57-.59 1.57 1.57 0 00-.82-.21c-.3 0-.58.07-.82.21-.24.14-.43.33-.57.59-.14.25-.2.54-.2.87 0 .32.06.61.2.87.14.25.33.45.57.6.24.13.52.2.82.2zm3.4-3.81h.59v3.4l2.85-3.4h.52v4.28h-.58v-3.4l-2.85 3.4h-.52v-4.28zm8.62.51h-1.62v3.77h-.57V26.2h-1.62v-.51h3.81v.51zm4.38 1.8h-3.58c.03.45.2.81.51 1.09.31.27.7.4 1.18.4.26 0 .5-.04.73-.13.22-.1.41-.24.58-.43l.32.38c-.19.23-.43.4-.72.52-.28.12-.59.18-.93.18-.44 0-.83-.1-1.17-.28-.34-.19-.6-.45-.8-.78-.18-.33-.28-.7-.28-1.12 0-.42.1-.8.27-1.13a2.01 2.01 0 011.83-1.04 1.95 1.95 0 011.8 1.05c.18.32.27.7.27 1.12V28zm-2.06-1.85c-.42 0-.76.13-1.05.4-.27.26-.43.6-.47 1.03h3.04c-.04-.43-.2-.77-.48-1.03-.28-.27-.63-.4-1.05-.4zm6.76-.46v4.28h-.58V26.2h-2.05l-.06 1.06a7.84 7.84 0 01-.3 2.05c-.17.48-.46.71-.88.71-.1 0-.25-.02-.41-.06l.04-.5.2.04c.23 0 .4-.1.5-.31.12-.21.2-.46.24-.77.03-.3.07-.7.1-1.2l.07-1.53h3.13zm3.48 1.51c.54 0 .94.13 1.22.36.28.23.42.57.42 1 0 .46-.15.81-.45 1.06-.3.24-.73.36-1.3.36l-1.73-.01v-4.28h.58v1.5l1.26.01zm-.14 2.34c.4 0 .69-.08.89-.24.2-.17.3-.41.3-.73s-.1-.55-.3-.7c-.2-.15-.5-.23-.9-.24l-1.11-.01v1.9l1.12.02zm2.89-3.85h.58v1.9h2.69v-1.9h.58v4.28h-.58v-1.89h-2.7v1.89h-.57v-4.28zm7.25 4.32c-.4 0-.78-.1-1.11-.28-.33-.19-.6-.45-.78-.78-.2-.33-.29-.7-.29-1.12 0-.42.1-.8.29-1.13.19-.33.45-.58.78-.77.33-.18.7-.27 1.11-.27.42 0 .79.09 1.12.27.33.19.59.44.77.77.2.34.29.71.29 1.13 0 .42-.1.79-.29 1.12-.18.33-.44.6-.77.78-.33.19-.7.28-1.12.28zm0-.51c.3 0 .58-.07.82-.2.24-.15.43-.35.57-.6.13-.26.2-.55.2-.87 0-.33-.07-.62-.2-.87a1.4 1.4 0 00-.57-.59 1.57 1.57 0 00-.82-.21c-.3 0-.57.07-.82.21-.24.14-.43.33-.57.59-.13.25-.2.54-.2.87 0 .32.07.61.2.87.14.25.33.45.57.6.25.13.52.2.82.2zm3.41-3.81h.58v3.4l2.86-3.4h.5v4.28h-.57v-3.4l-2.85 3.4h-.52v-4.28zm1.95-.62c-.37 0-.67-.1-.88-.28a.99.99 0 01-.34-.78h.42c0 .21.08.38.23.51.14.13.33.2.57.2.23 0 .42-.07.57-.2.15-.13.23-.3.23-.5h.42c0 .33-.12.59-.34.77-.22.19-.51.28-.88.28zm8.8 1.13h-1.63v3.77h-.57V26.2h-1.62v-.51h3.81v.51zm4.37 1.8h-3.58c.04.45.2.81.52 1.09.3.27.7.4 1.17.4.26 0 .5-.04.73-.13.22-.1.42-.24.58-.43l.32.38c-.19.23-.42.4-.71.52-.28.12-.6.18-.94.18-.44 0-.83-.1-1.17-.28-.34-.19-.6-.45-.79-.78-.19-.33-.28-.7-.28-1.12 0-.42.08-.8.26-1.13a2 2 0 011.83-1.04 1.96 1.96 0 011.8 1.05c.18.32.27.7.27 1.12V28zm-2.06-1.85c-.42 0-.76.13-1.05.4-.27.26-.43.6-.47 1.03h3.04c-.04-.43-.2-.77-.48-1.03-.28-.27-.63-.4-1.04-.4zm5.9 3.82l-1.35-1.8-1.37 1.8h-.65l1.7-2.2-1.62-2.08h.65l1.29 1.67 1.28-1.67h.64l-1.61 2.08 1.7 2.2h-.65zm1.61-4.28h.58v1.9h2.7v-1.9h.57v4.28h-.57v-1.89h-2.7v1.89h-.58v-4.28zm5.5 0h.57v3.4l2.86-3.4h.51v4.28h-.58v-3.4l-2.84 3.4h-.52v-4.28zm7.15 2.37h-.98v1.9h-.57V25.7h.57v1.88h.99l1.5-1.88h.63l-1.68 2.07 1.8 2.2h-.68l-1.58-1.9zm3.17-2.37h.58v3.4l2.86-3.4h.51v4.28h-.58v-3.4l-2.84 3.4h-.53v-4.28z" fill="#616161"/></svg>