<svg width="160" height="47" fill="none" xmlns="http://www.w3.org/2000/svg"><g clip-path="url(#clip0)"><path d="M37.52 24.54c-1.02-.97-2.5-1.49-4.4-1.58a7.05 7.05 0 003.69-1.46 3.3 3.3 0 001.27-2.53c0-1.16-.54-2.11-1.6-2.84-.99-.67-2.52-1.04-4.6-1.08v-2.48h-2.45v2.5c-.2 0-.4 0-.62.02-.66.03-1.27.05-1.88.05v-2.57h-2.45v2.57l-.61-.03a52.8 52.8 0 00-2.56-.06c-.05 0-.1.07-.14.2-.04.12-.06.24-.07.35a1 1 0 00.07.33c.04.13.09.2.14.22 1 .12 1.64.34 1.95.63.31.3.49.8.49 1.49v3.87c-.2 0-.42.05-.6.12a13.58 13.58 0 00-1.71-1.75l-3.92-3.34-1.32-1.14-.94-.87-1.57-1.5-.58-.55a.38.38 0 00-.46-.06.23.23 0 00-.07.1.38.38 0 00.07.44l.57.56 1.53 1.54.9.9 1.18 1.25 3.5 3.8c.45.5.95.97 1.49 1.4H20.5l-1.73.12h-.02l-.32.06-1.49.15-.6.03a.13.13 0 01-.12-.07l-.03-.08a.73.73 0 00-.26-.28h-.01a.69.69 0 00-.87.15l-.03.03c-.4.2-.84.29-1.28.27l-.62.06-.6-.03a.36.36 0 00-.3.17.42.42 0 00-.07.23c0 .09.03.17.07.23a.36.36 0 00.3.17l.6-.02.6.03c.44-.01.88.08 1.28.28l.03.03a.69.69 0 00.86.15h.03c.1-.08.2-.18.25-.29l.05-.07a.13.13 0 01.12-.08l.6.03 1.49.15.3.05h.02l1.74.14c.61.02 1.21.01 1.73-.02a1.71 1.71 0 001.52.92v3.76c0 .69-.16 1.19-.47 1.48-.31.3-.97.52-1.96.63-.05.02-.1.1-.14.22-.04.12-.06.23-.06.34 0 .12.02.24.06.35.05.13.1.2.14.2.83 0 1.7-.02 2.64-.06l.53-.02v2.6h2.46v-2.64c.67 0 1.4.02 2.21.06h.28v2.57h2.45v-2.52c2.7 0 4.57-.47 5.6-1.42a4.51 4.51 0 001.54-3.44c0-1.11-.5-2.15-1.51-3.12zm-13.86.09a.9.9 0 01-.56-.2l-.03-.01a.74.74 0 01-.08-.08l-.02-.03-.03-.02-.03-.04-.03-.04-.06-.12-.03-.06a.33.33 0 01-.03-.17l-.02-.12v-.04a.92.92 0 01.84-.93h.17a.94.94 0 01.93.93.92.92 0 01-.93.93h-.09zm5.1-7.2c0-.48.1-.78.32-.94.26-.16.56-.23.87-.22h.3c.9 0 1.56.23 1.97.7.4.47.61 1.25.6 2.33 0 1.11-.2 1.94-.62 2.45-.43.5-1.12.77-2.1.77h-1.35v-5.09zm3.98 12.95c-.62.57-1.44.9-2.29.92-.44.02-.88-.12-1.24-.38a1.48 1.48 0 01-.45-1.21v-5.99h1.9c1.04 0 1.83.31 2.36.94.52.63.8 1.55.8 2.76 0 1.36-.37 2.35-1.08 2.96z" fill="#DC0042"/><path d="M20.57 44.25c-3.72.02-7.37-.99-10.56-2.9a22.5 22.5 0 0032.85-5.72 22.2 22.2 0 00-9.2-31.87 22.55 22.55 0 00-23.65 2.5 20.66 20.66 0 0125.9 3.9 20.41 20.41 0 014.87 17.52 20.39 20.39 0 01-11.07 14.45 20.68 20.68 0 01-9.14 2.12z" fill="#DC0042"/><path d="M24.17 39.03a.83.83 0 00.47-.93.83.83 0 00-.8-.66.84.84 0 00-.83.63.83.83 0 00.43.94v1.86h.06-.62c-3.13.01-6.2-.84-8.89-2.44l.94-1.63-.63-.35-.92 1.6a17.27 17.27 0 01-5.24-5.44l1.6-.92-.35-.62-1.61.92a16.93 16.93 0 01-2.1-7.82h1.9v-.03l.08.14a.84.84 0 001.4-.89.83.83 0 00-.8-.46.84.84 0 00-.45.17.8.8 0 00-.28.35H5.66c.06-2.78.8-5.51 2.15-7.94l1.57.9.37-.63-1.57-.89c1.32-2.15 3.1-4 5.22-5.38l.9 1.58.63-.36-.91-1.6a17.2 17.2 0 018.86-2.45h.56v1.7a.83.83 0 00-.45.94.83.83 0 00.82.65.84.84 0 00.81-.65.83.83 0 00-.45-.93V6.73c2.66.2 5.25 1.01 7.54 2.37a18.83 18.83 0 00-27.5 4.8 18.57 18.57 0 007.7 26.66 18.87 18.87 0 0019.8-2.1 17.16 17.16 0 01-7.54 2.38v-1.81zM8.12 23.33a.52.52 0 01.8.67.52.52 0 01-.53.2.52.52 0 01-.43-.54c.01-.12.07-.24.16-.33zM24.29 9.25a.52.52 0 01-.32.48.53.53 0 01-.69-.28.52.52 0 01.12-.56.52.52 0 01.89.36zm-.95 28.94a.52.52 0 01.3-.5.53.53 0 01.7.24l.05.2a.52.52 0 01-.49.55.53.53 0 01-.56-.48v-.01z" fill="#DC0042"/><path d="M55.07 14.99c.42 0 .82.06 1.21.18.37.1.72.3 1.02.53a2.58 2.58 0 01.93 2.06 2.66 2.66 0 01-.93 2.06c-.3.25-.64.44-1 .55-.4.13-.8.2-1.2.19h-3.63V11.4h5.83v1.59h-4.1v2h1.87zm.08 3.98a1.31 1.31 0 00.97-.36 1.17 1.17 0 00.34-.85 1.14 1.14 0 00-.34-.84 1.34 1.34 0 00-.99-.34H53.2v2.38h1.96zm7.94.08c-.2.52-.55.98-1 1.32-.38.26-.84.4-1.3.4-.42 0-.83-.1-1.2-.27l.47-1.48a.98.98 0 001.07.07 1 1 0 00.36-.42l.32-.65-3.03-6.64h1.87L62.63 16h.1l2-4.63h1.86l-3.5 7.67zm7.15-3.29l-2.8-4.38h2.16l1.79 3h.1l1.8-3h2.15l-2.8 4.37 3.04 4.8H73.5l-2-3.3h-.11l-2.02 3.3h-2.16l3.02-4.79zm6.83-4.38h5.65V13H78.8v7.54h-1.74l.01-9.17zm9 0h1.98l3.47 9.17H89.6l-.76-2.2h-3.56l-.76 2.2H82.6l3.47-9.17zm2.2 5.39l-.82-2.3-.33-1.1h-.1l-.34 1.1-.82 2.3h2.42zm4.42 2.34a.98.98 0 00.77-.3c.18-.22.29-.5.32-.8.06-.5.1-1 .08-1.5v-5.13h6.55v9.17h-1.74v-7.54H95.6v4.2c.01.61-.05 1.21-.21 1.8-.12.43-.34.81-.65 1.12-.22.22-.5.4-.82.48-.35.1-.72.15-1.08.15-.1 0-.21-.02-.32-.05-.1-.03-.19-.07-.27-.12v-1.54c.06.03.14.05.2.06h.24zm11.8 1.44v-7.54h-2.58v-1.63h6.9V13h-2.58v7.54h-1.74zm7.64-7.54v2.13h3.7v1.66h-3.7v2.12h4.1v1.64h-5.84V11.4h5.86v1.63l-4.12-.02zm5.97 7.54v-9.17h3.25c.42 0 .83.08 1.23.22a2.85 2.85 0 011.8 3.56 2.84 2.84 0 01-1.8 1.82c-.4.15-.81.22-1.23.21h-1.51v3.36h-1.74zm3.28-5a1.32 1.32 0 001.03-.38c.22-.24.35-.56.34-.9a1.22 1.22 0 00-.34-.88 1.28 1.28 0 00-.43-.26c-.2-.08-.4-.1-.6-.1h-1.54v2.51h1.53v.01zm12.55 3.53a4.57 4.57 0 01-3.6 1.68 4.72 4.72 0 01-4.54-2.9 4.99 4.99 0 010-3.78 4.63 4.63 0 012.56-2.54c.6-.25 1.25-.38 1.9-.37a4.7 4.7 0 011.97.38c.57.27 1.08.65 1.5 1.12l-1.22 1.17c-.27-.3-.6-.56-.95-.75a3.24 3.24 0 00-2.49-.05 2.9 2.9 0 00-1.64 1.62 3.57 3.57 0 000 2.6 3 3 0 002.95 1.86c.44-.02.88-.13 1.28-.32.41-.22.78-.52 1.06-.89l1.22 1.17zm8.94-7.6L139.3 16l3.8 4.45v.1h-2.19l-3.48-4.09h-.1v4.1h-1.75v-9.18h1.74v4.3h.1l3.3-4.3h2.15v.1zm8.79 9.07h-1.73v-4.5l.1-1.77h-.1l-3.68 6.27h-1.95v-9.17h1.72V16l-.1 1.77h.09l3.75-6.4h1.9v9.2zm3.85-7.54v2.13h3.7v1.66h-3.7v2.12h4.11v1.64h-5.86V11.4h5.86v1.63l-4.1-.02zm-94.3 21.4v-7.54h-2.58v-1.64h6.89v1.64h-2.58v7.54h-1.73zm7.96-7.54V29h3.7v1.64h-3.69v2.13h4.1v1.64h-5.86v-9.17h5.87v1.63H69.17zm8.62 2.74l-2.8-4.38h2.16l1.8 3h.1l1.8-3h2.14l-2.8 4.38 3.04 4.8h-2.17l-2.01-3.3h-.1l-2.02 3.3h-2.17l3.03-4.8zm7.15-4.38h1.75v3.67h3.88v-3.67h1.74v9.17h-1.74v-3.85h-3.88v3.85h-1.75v-9.16zM99 34.62c-1.29 0-2.53-.5-3.45-1.4a4.74 4.74 0 01-1-1.52 5 5 0 010-3.76c.23-.57.57-1.08 1-1.53a4.7 4.7 0 011.53-1c1.23-.5 2.6-.5 3.83 0a4.71 4.71 0 012.54 2.54c.5 1.2.5 2.56 0 3.76a4.65 4.65 0 01-4.45 2.9v.01zm0-1.65a2.99 2.99 0 002.84-1.86c.33-.83.33-1.75 0-2.57a2.9 2.9 0 00-1.63-1.64c-.77-.3-1.64-.3-2.4 0a2.95 2.95 0 00-1.65 1.64 3.6 3.6 0 000 2.57 2.88 2.88 0 001.64 1.63c.37.15.78.23 1.2.23zm6.6 0a.98.98 0 00.78-.3c.18-.22.28-.5.31-.8.07-.5.1-1 .08-1.5v-5.14h6.56v9.17h-1.74v-7.53h-3.08v4.2c.02.6-.06 1.21-.2 1.8-.13.43-.35.81-.66 1.12-.23.22-.5.39-.8.47-.36.1-.73.15-1.1.15-.1 0-.2-.02-.3-.05-.1-.03-.2-.07-.29-.12v-1.53l.22.06h.22zm14.42 1.65c-1.28 0-2.52-.5-3.44-1.4a4.97 4.97 0 01-1.02-5.28 4.62 4.62 0 012.55-2.53 5.1 5.1 0 013.83 0 4.7 4.7 0 012.54 2.54 5 5 0 010 3.76 4.68 4.68 0 01-4.46 2.91zm0-1.65c.82 0 1.6-.3 2.2-.87.27-.28.5-.62.65-.99.31-.83.31-1.74 0-2.57a2.97 2.97 0 00-1.65-1.64 3.12 3.12 0 00-3.38.65c-.29.27-.51.6-.66.99a3.61 3.61 0 000 2.57 2.9 2.9 0 001.64 1.63c.38.16.8.24 1.2.23zm6.92-7.74h5.65v1.64h-3.91v7.54h-1.75v-9.18zm14.84 9.18h-1.73v-4.5l.1-1.77h-.1l-3.67 6.27h-1.96v-9.17h1.71v4.62l-.1 1.76h.11l3.76-6.39h1.88v9.18zm9.82 0h-1.72v-4.5l.1-1.77h-.1l-3.67 6.27h-1.96v-9.17h1.71v4.62l-.1 1.76h.1l3.76-6.39h1.9l-.02 9.18z" fill="#161616"/></g><defs><clipPath id="clip0"><path fill="#fff" transform="translate(.65 .77)" d="M0 0h159v46H0z"/></clipPath></defs></svg>