<svg width="176" height="106" viewBox="0 0 176 106" fill="none" xmlns="http://www.w3.org/2000/svg">
<path d="M17.0726 48.3881L15.4225 47.431V50.2151L16.1173 55.6094L18.6358 63.3527L19.5043 65.5278V66.9199L20.0254 69.095L19.5043 71.3571L20.0254 74.0542L19.5043 76.0553L16.1173 76.9254L13.5988 78.4914L10.9934 81.1015L10.0381 83.4507L11.8618 85.7998L14.2935 87.2788C14.7857 87.7429 15.7699 88.7405 15.7699 89.0189C15.7699 89.2973 16.0015 90.179 16.1173 90.585L15.5094 92.064L14.9883 94.2391L14.6409 95.3702L13.5988 96.4142V98.1543V100.329C14.2067 100.735 15.492 101.582 15.7699 101.721C16.0478 101.861 16.4068 101.431 16.5515 101.199L16.1173 99.3724L16.9858 98.1543L18.8964 99.7204H21.5017L22.9781 98.1543L24.5413 96.8493L25.7572 94.6742L28.7968 94.2391H30.4469L32.8786 93.7171H34.3549L35.3102 93.3691L36.4392 92.3251H38.263L39.1315 93.3691H43.908L48.5108 94.2391H51.6373L54.5032 95.9792H57.4559L59.8008 96.8493L61.2772 96.4142H63.622V98.1543L64.4036 98.5023V99.7204H66.5748H68.2248L68.7459 99.3724H69.7012L70.2223 101.112L70.8302 102.331L71.6987 101.46L73.0014 99.3724L73.6961 100.155H75.5199L77.3436 98.1543L78.82 100.764L79.6016 101.112L80.9043 99.7204L82.7281 100.155L83.5097 102.331L84.5518 103.114L85.1598 102.766V101.895L85.5072 100.764L86.3756 99.7204H86.9835H88.1125L88.8941 99.3724L89.7626 98.1543L90.8048 99.7204V101.112L91.7601 102.766L92.7154 104.245L93.4101 103.549H95.4076V102.331L95.9287 101.895L97.4919 100.764L97.8393 101.895L99.142 102.331H100.184L100.705 101.46L101.834 100.764H104.44L105.569 101.46L107.392 104.593L109.65 105.202L110.519 104.245V102.331L110.171 100.764L109.129 98.1543L108.521 96.8493L109.129 95.9792L110.171 95.0222L110.953 92.7601L111.735 91.368L113.906 90.15V88.9319L114.34 87.7138L115.295 86.8438L117.119 87.8879L118.509 87.7138L119.117 86.8438L120.072 86.3218H121.896H125.196V84.5817L124.414 83.7117L123.719 82.6676L122.59 81.3626L122.243 78.6654L122.59 77.6214V76.0553L121.896 75.0113C121.548 74.7503 120.784 74.1934 120.506 74.0542C120.228 73.915 120.969 73.4742 121.375 73.2712L121.896 71.7921L120.506 71.0091L120.853 69.965L119.551 68.921L118.248 67.2679L117.38 66.3109L118.248 65.5278L118.509 63.7878V62.6567L119.551 63.1787L120.853 62.6567H122.59L125.196 64.4838H127.627L130.32 63.7878L131.101 62.6567L131.883 61.8737L132.491 60.3946V59.5246H133.793L134.749 58.8285L136.225 57.9585V56.6534L135.704 55.1744H134.749L132.491 53.7823L131.883 52.8253V52.0422V50.9982L131.101 50.0411H129.885L128.409 48.9971L126.325 48.4751L123.719 48.9971H122.243L122.59 48.4751L123.198 46.996L123.719 45.4299V44.2989L123.198 43.1678L121.896 42.7328L120.853 42.2108L118.943 41.7757L116.945 40.4707L115.816 40.1227V38.0346L115.295 36.6425L114.253 35.1634L113.037 34.9894V34.2934L113.645 33.4234L113.993 32.6403V31.5093L113.645 30.8132H111.561L111.214 30.3782L108.869 29.1602L108.348 28.2031L108.869 27.2461V26.115L109.824 25.419L110.866 23.8529L111.214 22.1128L110.866 20.5468L108.348 17.9367L109.216 16.7186L109.824 15.5005V13.1514V12.0204L108.869 10.4543L107.305 10.8893H106.871L105.655 10.1063L105.134 8.54023L102.008 6.97416L101.574 6.53914L99.8367 6.19112H98.9683L98.3604 6.53914L96.6234 6.19112L95.4076 6.53914L94.7997 7.67019H94.1049H92.8891L91.8469 8.54023L91.4127 9.58428H90.6311L90.1968 8.54023V6.97416L90.6311 5.49509L90.1968 4.53805L87.6783 3.494L84.9861 2.88497C84.6387 3.08798 83.8745 3.494 83.5965 3.494C83.3186 3.494 82.6702 4.19003 82.3807 4.53805L81.4254 4.01602L81.078 2.53695L80.5569 1.75392H76.8226L76.2146 2.53695L74.9988 0.796875H73.783L71.8724 1.75392L69.8749 2.88497L70.1354 4.53805H68.5722L67.8774 5.49509V8.01821L67.0958 8.54023H66.1405H64.8378H63.9694L62.493 7.67019H60.9298L57.7165 10.8893L56.9349 10.4543H55.9796L55.1979 11.4114L55.9796 12.4554L54.0689 14.8045L54.59 17.3276L52.94 18.6327V19.3287L55.1979 19.5897L56.9349 19.3287L57.7165 20.1118L56.4138 21.1558L55.9796 22.6349H55.3716L54.0689 22.9829H52.94H51.2899L50.5083 23.8529V25.419L49.7267 26.289L46.8607 27.2461L44.4291 29.6822V34.9894L43.1264 36.9905L41.9974 39.9487L41.65 41.2537H39.2183L37.2208 42.1238L36.4392 43.6028L35.3102 44.6469L33.8339 43.9508L32.7049 44.6469L31.4022 45.2559L32.7049 46.909L31.4022 48.04V46.909H30.5337L26.5388 49.6931L25.323 48.3881L24.1071 48.04L23.4992 48.3881H21.936L20.8938 48.04L20.0254 48.3881L19.5043 49.1711L18.9832 48.3881H17.0726Z" stroke="url(#paint0_linear)" stroke-width="0.751113"/>
<path d="M99.1729 21.1213C107.492 21.3786 126.55 18.5482 136.225 5.16797M136.225 5.16797L135.404 11.7285M136.225 5.16797C134.977 5.73839 132.01 6.89349 130.127 6.95054" stroke="url(#paint1_linear)" stroke-width="0.751113"/>
<path d="M0.0976562 75.3049C8.41728 75.5622 27.4753 72.7318 37.1501 59.3516M37.1501 59.3516L36.3291 65.9121M37.1501 59.3516C35.9019 59.922 32.9347 61.0771 31.052 61.1341" stroke="url(#paint2_linear)" stroke-width="0.751113"/>
<path d="M97.9006 60.5759C97.9006 58.5306 98.5073 56.8406 99.7206 55.5059C100.934 54.1539 102.459 53.4779 104.297 53.4779C105.683 53.4779 106.931 53.8939 108.041 54.7259V53.8159H111.915V67.3359H108.041V66.3999C106.966 67.2493 105.718 67.6739 104.297 67.6739C102.459 67.6739 100.934 66.9979 99.7206 65.6459C98.5073 64.2766 97.9006 62.5866 97.9006 60.5759ZM104.973 57.3259C104.123 57.3259 103.404 57.6379 102.815 58.2619C102.243 58.8859 101.957 59.6486 101.957 60.5499C101.957 61.4859 102.243 62.2659 102.815 62.8899C103.404 63.5139 104.123 63.8259 104.973 63.8259C105.805 63.8259 106.515 63.5139 107.105 62.8899C107.694 62.2659 107.989 61.4859 107.989 60.5499C107.989 59.6313 107.694 58.8686 107.105 58.2619C106.515 57.6379 105.805 57.3259 104.973 57.3259ZM114.11 67.3359V47.8359H118.01V54.7259C119.084 53.8939 120.324 53.4779 121.728 53.4779C123.548 53.4779 125.073 54.1539 126.304 55.5059C127.534 56.8753 128.15 58.5653 128.15 60.5759C128.15 62.5693 127.534 64.2593 126.304 65.6459C125.073 66.9979 123.548 67.6739 121.728 67.6739C120.358 67.6739 119.119 67.2579 118.01 66.4259V67.3359H114.11ZM121.078 57.3259C120.228 57.3259 119.509 57.6379 118.92 58.2619C118.348 58.8859 118.062 59.6486 118.062 60.5499C118.062 61.4859 118.348 62.2659 118.92 62.8899C119.509 63.5139 120.228 63.8259 121.078 63.8259C121.91 63.8259 122.612 63.5139 123.184 62.8899C123.773 62.2659 124.068 61.4859 124.068 60.5499C124.068 59.6313 123.773 58.8686 123.184 58.2619C122.612 57.6379 121.91 57.3259 121.078 57.3259ZM143.553 58.1319L139.627 59.2759C139.384 58.6866 139.003 58.2186 138.483 57.8719C137.963 57.5079 137.373 57.3259 136.715 57.3259C135.813 57.3259 135.059 57.6379 134.453 58.2619C133.846 58.8686 133.543 59.6313 133.543 60.5499C133.543 61.4859 133.846 62.2659 134.453 62.8899C135.059 63.5139 135.813 63.8259 136.715 63.8259C137.373 63.8259 137.963 63.6526 138.483 63.3059C139.003 62.9419 139.384 62.4653 139.627 61.8759L143.553 63.0199C143.033 64.4413 142.157 65.5766 140.927 66.4259C139.696 67.2579 138.292 67.6739 136.715 67.6739C134.635 67.6739 132.91 66.9979 131.541 65.6459C130.171 64.2766 129.487 62.5866 129.487 60.5759C129.487 58.5479 130.171 56.8579 131.541 55.5059C132.91 54.1539 134.635 53.4779 136.715 53.4779C138.292 53.4779 139.696 53.9026 140.927 54.7519C142.157 55.5839 143.033 56.7106 143.553 58.1319ZM144.619 60.5759C144.619 58.5306 145.226 56.8406 146.439 55.5059C147.653 54.1539 149.178 53.4779 151.015 53.4779C152.402 53.4779 153.65 53.8939 154.759 54.7259V47.8359H158.633V67.3359H154.759V66.3999C153.685 67.2493 152.437 67.6739 151.015 67.6739C149.178 67.6739 147.653 66.9979 146.439 65.6459C145.226 64.2766 144.619 62.5866 144.619 60.5759ZM151.691 57.3259C150.842 57.3259 150.123 57.6379 149.533 58.2619C148.961 58.8859 148.675 59.6486 148.675 60.5499C148.675 61.4859 148.961 62.2659 149.533 62.8899C150.123 63.5139 150.842 63.8259 151.691 63.8259C152.523 63.8259 153.234 63.5139 153.823 62.8899C154.413 62.2659 154.707 61.4859 154.707 60.5499C154.707 59.6313 154.413 58.8686 153.823 58.2619C153.234 57.6379 152.523 57.3259 151.691 57.3259ZM174.582 61.9799H164.52C164.746 62.6906 165.153 63.2626 165.742 63.6959C166.332 64.1293 167.025 64.3459 167.822 64.3459C168.932 64.3459 169.824 63.9473 170.5 63.1499L174.27 64.0079C173.646 65.1519 172.762 66.0533 171.618 66.7119C170.492 67.3533 169.218 67.6739 167.796 67.6739C165.682 67.6739 163.922 66.9979 162.518 65.6459C161.114 64.2939 160.412 62.6039 160.412 60.5759C160.412 58.5653 161.097 56.8839 162.466 55.5319C163.836 54.1626 165.543 53.4779 167.588 53.4779C169.616 53.4779 171.315 54.1626 172.684 55.5319C174.054 56.8839 174.738 58.5653 174.738 60.5759C174.738 61.0613 174.686 61.5293 174.582 61.9799ZM164.546 59.0939H170.76C170.518 58.4006 170.11 57.8459 169.538 57.4299C168.966 57.0139 168.316 56.8059 167.588 56.8059C166.895 56.8059 166.271 57.0139 165.716 57.4299C165.162 57.8459 164.772 58.4006 164.546 59.0939Z" fill="url(#paint3_linear)"/>
<defs>
<linearGradient id="paint0_linear" x1="-10.4884" y1="115.628" x2="102.41" y2="-60.7595" gradientUnits="userSpaceOnUse">
<stop stop-color="#AB85FF"/>
<stop offset="0.526042" stop-color="#EBA3E3"/>
<stop offset="1" stop-color="#FFDBE4"/>
</linearGradient>
<linearGradient id="paint1_linear" x1="93.1456" y1="22.7317" x2="104.557" y2="-11.4952" gradientUnits="userSpaceOnUse">
<stop stop-color="#AB85FF"/>
<stop offset="0.526042" stop-color="#EBA3E3"/>
<stop offset="1" stop-color="#FFDBE4"/>
</linearGradient>
<linearGradient id="paint2_linear" x1="-5.92955" y1="76.9153" x2="5.48188" y2="42.6884" gradientUnits="userSpaceOnUse">
<stop stop-color="#AB85FF"/>
<stop offset="0.526042" stop-color="#EBA3E3"/>
<stop offset="1" stop-color="#FFDBE4"/>
</linearGradient>
<linearGradient id="paint3_linear" x1="84.5366" y1="84.2308" x2="115.788" y2="3.43658" gradientUnits="userSpaceOnUse">
<stop stop-color="#AB85FF"/>
<stop offset="0.526042" stop-color="#EBA3E3"/>
<stop offset="1" stop-color="#FFDBE4"/>
</linearGradient>
</defs>
</svg>
