<svg width="172" height="75" viewBox="0 0 172 75" fill="none" xmlns="http://www.w3.org/2000/svg">
<rect x="0.644531" y="17.1562" width="85.3129" height="14.2189" fill="url(#paint0_linear)"/>
<rect x="23.2656" y="40.9062" width="62.6926" height="7.27558" fill="url(#paint1_linear)"/>
<path d="M85.957 61.6362V1L114.928 1V61.6362H85.957Z" stroke="url(#paint2_linear)" stroke-width="1.46032"/>
<path d="M134.467 42.0973V25.2539L170.849 25.2539V42.0973H134.467Z" stroke="url(#paint3_linear)" stroke-width="1.46032"/>
<path d="M134.13 29.9687L125.034 29.9688V68.7086H102.801V61.9712" stroke="url(#paint4_linear)" stroke-width="1.46032"/>
<path d="M95.7266 61.9712V74.0984H129.75V37.043H134.13" stroke="url(#paint5_linear)" stroke-width="1.46032"/>
<defs>
<linearGradient id="paint0_linear" x1="-13.233" y1="32.7952" x2="-8.93826" y2="-0.514755" gradientUnits="userSpaceOnUse">
<stop stop-color="#AB85FF"/>
<stop offset="0.526042" stop-color="#EBA3E3"/>
<stop offset="1" stop-color="#FFDBE4"/>
</linearGradient>
<linearGradient id="paint1_linear" x1="13.0676" y1="48.9084" x2="14.6108" y2="31.7195" gradientUnits="userSpaceOnUse">
<stop stop-color="#AB85FF"/>
<stop offset="0.526042" stop-color="#EBA3E3"/>
<stop offset="1" stop-color="#FFDBE4"/>
</linearGradient>
<linearGradient id="paint2_linear" x1="117.821" y1="-8.8635" x2="57.1174" y2="13.573" gradientUnits="userSpaceOnUse">
<stop stop-color="#AB85FF"/>
<stop offset="0.526042" stop-color="#EBA3E3"/>
<stop offset="1" stop-color="#FFDBE4"/>
</linearGradient>
<linearGradient id="paint3_linear" x1="174.482" y1="22.514" x2="151.633" y2="60.694" gradientUnits="userSpaceOnUse">
<stop stop-color="#AB85FF"/>
<stop offset="0.526042" stop-color="#EBA3E3"/>
<stop offset="1" stop-color="#FFDBE4"/>
</linearGradient>
<linearGradient id="paint4_linear" x1="137.258" y1="23.6671" x2="83.6336" y2="57.2148" gradientUnits="userSpaceOnUse">
<stop stop-color="#AB85FF"/>
<stop offset="0.526042" stop-color="#EBA3E3"/>
<stop offset="1" stop-color="#FFDBE4"/>
</linearGradient>
<linearGradient id="paint5_linear" x1="137.965" y1="31.0153" x2="82.2903" y2="75.651" gradientUnits="userSpaceOnUse">
<stop stop-color="#AB85FF"/>
<stop offset="0.526042" stop-color="#EBA3E3"/>
<stop offset="1" stop-color="#FFDBE4"/>
</linearGradient>
</defs>
</svg>
