<svg width="209" height="83" viewBox="0 0 209 83" fill="none" xmlns="http://www.w3.org/2000/svg">
<path d="M64.2893 13.7422H1.22223V68.349H64.2893M64.2893 13.7422V68.349M64.2893 13.7422L75.8516 17.1766V64.2277L64.2893 68.349" stroke="url(#paint0_linear)"/>
<path d="M126.364 1H208.274V73.354H126.364M126.364 1V73.354M126.364 1L111.347 5.55057V67.8934L126.364 73.354" stroke="url(#paint1_linear)"/>
<path d="M98.9511 37.4043H150.482V81.9999H98.9511L89.5039 78.6342V40.2091L98.9511 37.4043Z" fill="white"/>
<path d="M98.9511 37.4043H150.482V81.9999H98.9511M98.9511 37.4043V81.9999M98.9511 37.4043L89.5039 40.2091V78.6342L98.9511 81.9999" stroke="url(#paint2_linear)"/>
<path d="M33.5139 32.5043C36.4153 32.5043 38.6564 33.6519 40.237 35.9471V32.7966H42.2507V49.6855H40.237V46.5351C39.4792 47.6177 38.5156 48.4622 37.3464 49.0685C36.1772 49.6747 34.8997 49.9779 33.5139 49.9779C31.1322 49.9779 29.1401 49.1442 27.5378 47.477C25.9572 45.8314 25.1669 43.7528 25.1669 41.2411C25.1669 38.7294 25.9572 36.6508 27.5378 35.0052C29.1401 33.3379 31.1322 32.5043 33.5139 32.5043ZM38.3208 36.4667C37.0866 35.1676 35.5493 34.518 33.7088 34.518C31.8683 34.518 30.331 35.1676 29.0968 36.4667C27.8626 37.7442 27.2455 39.3357 27.2455 41.2411C27.2455 43.1465 27.8626 44.7488 29.0968 46.0479C30.331 47.3254 31.8683 47.9642 33.7088 47.9642C35.5493 47.9642 37.0866 47.3254 38.3208 46.0479C39.555 44.7488 40.172 43.1465 40.172 41.2411C40.172 39.3357 39.555 37.7442 38.3208 36.4667Z" fill="black"/>
<path d="M33.5139 32.5043C36.4153 32.5043 38.6564 33.6519 40.237 35.9471V32.7966H42.2507V49.6855H40.237V46.5351C39.4792 47.6177 38.5156 48.4622 37.3464 49.0685C36.1772 49.6747 34.8997 49.9779 33.5139 49.9779C31.1322 49.9779 29.1401 49.1442 27.5378 47.477C25.9572 45.8314 25.1669 43.7528 25.1669 41.2411C25.1669 38.7294 25.9572 36.6508 27.5378 35.0052C29.1401 33.3379 31.1322 32.5043 33.5139 32.5043ZM38.3208 36.4667C37.0866 35.1676 35.5493 34.518 33.7088 34.518C31.8683 34.518 30.331 35.1676 29.0968 36.4667C27.8626 37.7442 27.2455 39.3357 27.2455 41.2411C27.2455 43.1465 27.8626 44.7488 29.0968 46.0479C30.331 47.3254 31.8683 47.9642 33.7088 47.9642C35.5493 47.9642 37.0866 47.3254 38.3208 46.0479C39.555 44.7488 40.172 43.1465 40.172 41.2411C40.172 39.3357 39.555 37.7442 38.3208 36.4667Z" fill="url(#paint3_linear)"/>
<path d="M161.173 43.9844V19.6254H166.044V28.2322C167.387 27.1929 168.935 26.6732 170.689 26.6732C172.962 26.6732 174.868 27.5177 176.405 29.2066C177.943 30.9171 178.711 33.0282 178.711 35.5399C178.711 38.03 177.943 40.1411 176.405 41.8733C174.868 43.5622 172.962 44.4066 170.689 44.4066C168.978 44.4066 167.43 43.8869 166.044 42.8476V43.9844H161.173ZM169.877 31.4801C168.816 31.4801 167.917 31.8698 167.181 32.6493C166.467 33.4288 166.109 34.3815 166.109 35.5074C166.109 36.6767 166.467 37.651 167.181 38.4305C167.917 39.21 168.816 39.5998 169.877 39.5998C170.916 39.5998 171.793 39.21 172.508 38.4305C173.244 37.651 173.612 36.6767 173.612 35.5074C173.612 34.3599 173.244 33.4072 172.508 32.6493C171.793 31.8698 170.916 31.4801 169.877 31.4801Z" fill="black"/>
<path d="M161.173 43.9844V19.6254H166.044V28.2322C167.387 27.1929 168.935 26.6732 170.689 26.6732C172.962 26.6732 174.868 27.5177 176.405 29.2066C177.943 30.9171 178.711 33.0282 178.711 35.5399C178.711 38.03 177.943 40.1411 176.405 41.8733C174.868 43.5622 172.962 44.4066 170.689 44.4066C168.978 44.4066 167.43 43.8869 166.044 42.8476V43.9844H161.173ZM169.877 31.4801C168.816 31.4801 167.917 31.8698 167.181 32.6493C166.467 33.4288 166.109 34.3815 166.109 35.5074C166.109 36.6767 166.467 37.651 167.181 38.4305C167.917 39.21 168.816 39.5998 169.877 39.5998C170.916 39.5998 171.793 39.21 172.508 38.4305C173.244 37.651 173.612 36.6767 173.612 35.5074C173.612 34.3599 173.244 33.4072 172.508 32.6493C171.793 31.8698 170.916 31.4801 169.877 31.4801Z" fill="url(#paint4_linear)"/>
<path d="M129.032 56.8181L126.617 57.5808C125.918 56.1613 124.774 55.4516 123.185 55.4516C122.104 55.4516 121.204 55.8223 120.484 56.5638C119.763 57.3053 119.403 58.2375 119.403 59.3604C119.403 60.4833 119.763 61.4154 120.484 62.157C121.204 62.8985 122.104 63.2692 123.185 63.2692C124.774 63.2692 125.918 62.5595 126.617 61.14L129.032 61.9027C128.566 63.068 127.803 64.0002 126.744 64.6993C125.706 65.3773 124.519 65.7162 123.185 65.7162C121.384 65.7162 119.88 65.1124 118.672 63.9048C117.464 62.6548 116.861 61.14 116.861 59.3604C116.861 57.5596 117.464 56.0554 118.672 54.8478C119.88 53.619 121.384 53.0046 123.185 53.0046C124.519 53.0046 125.706 53.3541 126.744 54.0533C127.803 54.7312 128.566 55.6528 129.032 56.8181Z" fill="black"/>
<path d="M129.032 56.8181L126.617 57.5808C125.918 56.1613 124.774 55.4516 123.185 55.4516C122.104 55.4516 121.204 55.8223 120.484 56.5638C119.763 57.3053 119.403 58.2375 119.403 59.3604C119.403 60.4833 119.763 61.4154 120.484 62.157C121.204 62.8985 122.104 63.2692 123.185 63.2692C124.774 63.2692 125.918 62.5595 126.617 61.14L129.032 61.9027C128.566 63.068 127.803 64.0002 126.744 64.6993C125.706 65.3773 124.519 65.7162 123.185 65.7162C121.384 65.7162 119.88 65.1124 118.672 63.9048C117.464 62.6548 116.861 61.14 116.861 59.3604C116.861 57.5596 117.464 56.0554 118.672 54.8478C119.88 53.619 121.384 53.0046 123.185 53.0046C124.519 53.0046 125.706 53.3541 126.744 54.0533C127.803 54.7312 128.566 55.6528 129.032 56.8181Z" fill="url(#paint5_linear)"/>
<defs>
<linearGradient id="paint0_linear" x1="87.9913" y1="73.8026" x2="32.2396" y2="-24.6907" gradientUnits="userSpaceOnUse">
<stop stop-color="#AB85FF"/>
<stop offset="0.526042" stop-color="#EBA3E3"/>
<stop offset="1" stop-color="#FFDBE4"/>
</linearGradient>
<linearGradient id="paint1_linear" x1="95.5799" y1="80.58" x2="170.204" y2="-48.6447" gradientUnits="userSpaceOnUse">
<stop stop-color="#AB85FF"/>
<stop offset="0.526042" stop-color="#EBA3E3"/>
<stop offset="1" stop-color="#FFDBE4"/>
</linearGradient>
<linearGradient id="paint2_linear" x1="79.5849" y1="86.4536" x2="125.104" y2="5.99805" gradientUnits="userSpaceOnUse">
<stop stop-color="#AB85FF"/>
<stop offset="0.526042" stop-color="#EBA3E3"/>
<stop offset="1" stop-color="#FFDBE4"/>
</linearGradient>
<linearGradient id="paint3_linear" x1="19.9768" y1="70.269" x2="70.4055" y2="40.9346" gradientUnits="userSpaceOnUse">
<stop stop-color="#AB85FF"/>
<stop offset="0.526042" stop-color="#EBA3E3"/>
<stop offset="1" stop-color="#FFDBE4"/>
</linearGradient>
<linearGradient id="paint4_linear" x1="156.242" y1="64.5678" x2="206.671" y2="35.2335" gradientUnits="userSpaceOnUse">
<stop stop-color="#AB85FF"/>
<stop offset="0.526042" stop-color="#EBA3E3"/>
<stop offset="1" stop-color="#FFDBE4"/>
</linearGradient>
<linearGradient id="paint5_linear" x1="113.25" y1="72.3658" x2="149.924" y2="51.0331" gradientUnits="userSpaceOnUse">
<stop stop-color="#AB85FF"/>
<stop offset="0.526042" stop-color="#EBA3E3"/>
<stop offset="1" stop-color="#FFDBE4"/>
</linearGradient>
</defs>
</svg>
