<svg width="341" height="180" viewBox="0 0 341 180" fill="none" xmlns="http://www.w3.org/2000/svg">
<rect width="341" height="180" transform="translate(0.179688)" fill="#F5F5F5"/>
<path d="M69.2144 41.8894C54.2849 42.9953 25.7529 54.8283 24.4258 86.678C24.4258 126.49 54.8378 136.996 69.7673 136.996C91.3322 136.996 180.909 136.996 231.78 136.996" stroke="black"/>
<path d="M68.9883 41.8906H148.838" stroke="black"/>
<path d="M272.145 136.993C287.075 135.888 315.607 124.055 316.934 92.2048C316.934 52.3927 286.522 41.8867 271.592 41.8867C250.027 41.8867 160.45 41.8867 109.579 41.8867" stroke="black"/>
<path d="M272.371 136.992H192.522" stroke="black"/>
<path d="M199.824 136.994L228.772 120.281V153.707L199.824 136.994Z" fill="#AB85FF"/>
<path d="M218.137 136.994L247.085 120.281V153.707L218.137 136.994Z" fill="#AB85FF"/>
<path d="M237.434 136.994L266.382 120.281V153.707L237.434 136.994Z" fill="#AB85FF"/>
<path d="M70.2858 80.8914C72.0458 80.8914 73.6258 81.4514 75.0258 82.5714V81.3414H78.7458V96.9414H75.0258V95.7114C73.6258 96.8314 72.0458 97.3914 70.2858 97.3914C68.1458 97.3914 66.3358 96.6114 64.8558 95.0514C63.4158 93.4714 62.6958 91.5014 62.6958 89.1414C62.6958 86.7814 63.4158 84.8214 64.8558 83.2614C66.3158 81.6814 68.1258 80.8914 70.2858 80.8914ZM73.7358 85.9314C72.9358 85.0714 71.9458 84.6414 70.7658 84.6414C69.5658 84.6414 68.5658 85.0714 67.7658 85.9314C66.9658 86.7914 66.5658 87.8614 66.5658 89.1414C66.5658 90.4214 66.9658 91.4914 67.7658 92.3514C68.5658 93.2114 69.5658 93.6414 70.7658 93.6414C71.9458 93.6414 72.9358 93.2114 73.7358 92.3514C74.5558 91.4714 74.9658 90.4014 74.9658 89.1414C74.9658 87.8814 74.5558 86.8114 73.7358 85.9314ZM87.9279 96.9414V74.4414H91.6779V82.5714C93.0779 81.4514 94.6479 80.8914 96.3879 80.8914C98.5479 80.8914 100.358 81.6814 101.818 83.2614C103.278 84.8014 104.008 86.7614 104.008 89.1414C104.008 91.5014 103.278 93.4714 101.818 95.0514C100.338 96.6114 98.5279 97.3914 96.3879 97.3914C94.6479 97.3914 93.0779 96.8314 91.6779 95.7114V96.9414H87.9279ZM98.8779 85.9314C98.0779 85.0714 97.0879 84.6414 95.9079 84.6414C94.7279 84.6414 93.7379 85.0714 92.9379 85.9314C92.1379 86.7914 91.7379 87.8614 91.7379 89.1414C91.7379 90.4214 92.1379 91.4914 92.9379 92.3514C93.7379 93.2114 94.7279 93.6414 95.9079 93.6414C97.0879 93.6414 98.0779 93.2114 98.8779 92.3514C99.6979 91.4714 100.108 90.4014 100.108 89.1414C100.108 87.8814 99.6979 86.8114 98.8779 85.9314ZM127.98 86.0514L124.23 87.1614C123.89 86.3814 123.36 85.7714 122.64 85.3314C121.94 84.8714 121.15 84.6414 120.27 84.6414C119.03 84.6414 117.99 85.0714 117.15 85.9314C116.31 86.7914 115.89 87.8614 115.89 89.1414C115.89 90.4214 116.31 91.4914 117.15 92.3514C117.99 93.2114 119.03 93.6414 120.27 93.6414C121.15 93.6414 121.94 93.4214 122.64 92.9814C123.36 92.5214 123.89 91.9014 124.23 91.1214L127.98 92.2314C127.38 93.8114 126.39 95.0714 125.01 96.0114C123.63 96.9314 122.05 97.3914 120.27 97.3914C117.93 97.3914 115.96 96.6114 114.36 95.0514C112.8 93.4714 112.02 91.5014 112.02 89.1414C112.02 86.7814 112.8 84.8214 114.36 83.2614C115.94 81.6814 117.91 80.8914 120.27 80.8914C122.05 80.8914 123.63 81.3614 125.01 82.3014C126.39 83.2214 127.38 84.4714 127.98 86.0514ZM143.305 80.8914C145.065 80.8914 146.645 81.4514 148.045 82.5714V74.4414H151.765V96.9414H148.045V95.7114C146.645 96.8314 145.065 97.3914 143.305 97.3914C141.165 97.3914 139.355 96.6114 137.875 95.0514C136.435 93.4714 135.715 91.5014 135.715 89.1414C135.715 86.7814 136.435 84.8214 137.875 83.2614C139.335 81.6814 141.145 80.8914 143.305 80.8914ZM146.755 85.9314C145.955 85.0714 144.965 84.6414 143.785 84.6414C142.585 84.6414 141.585 85.0714 140.785 85.9314C139.985 86.7914 139.585 87.8614 139.585 89.1414C139.585 90.4214 139.985 91.4914 140.785 92.3514C141.585 93.2114 142.585 93.6414 143.785 93.6414C144.965 93.6414 145.955 93.2114 146.755 92.3514C147.575 91.4714 147.985 90.4014 147.985 89.1414C147.985 87.8814 147.575 86.8114 146.755 85.9314ZM176.637 90.5214H164.247C164.527 91.5414 165.077 92.3714 165.897 93.0114C166.737 93.6314 167.707 93.9414 168.807 93.9414C170.347 93.9414 171.567 93.3914 172.467 92.2914L176.097 93.3414C175.377 94.6014 174.367 95.5914 173.067 96.3114C171.787 97.0314 170.367 97.3914 168.807 97.3914C166.407 97.3914 164.397 96.6114 162.777 95.0514C161.177 93.4514 160.377 91.4814 160.377 89.1414C160.377 86.7814 161.157 84.8214 162.717 83.2614C164.297 81.6814 166.247 80.8914 168.567 80.8914C170.887 80.8914 172.827 81.6814 174.387 83.2614C175.967 84.8414 176.757 86.8014 176.757 89.1414C176.757 89.5214 176.717 89.9814 176.637 90.5214ZM164.277 87.6114H172.887C172.587 86.6314 172.037 85.8414 171.237 85.2414C170.437 84.6414 169.527 84.3414 168.507 84.3414C167.527 84.3414 166.647 84.6414 165.867 85.2414C165.087 85.8414 164.557 86.6314 164.277 87.6114Z" fill="#31D67B"/>
<path d="M75.0258 82.5714L74.4011 83.3523L76.0258 84.652V82.5714H75.0258ZM75.0258 81.3414V80.3414H74.0258V81.3414H75.0258ZM78.7458 81.3414H79.7458V80.3414H78.7458V81.3414ZM78.7458 96.9414V97.9414H79.7458V96.9414H78.7458ZM75.0258 96.9414H74.0258V97.9414H75.0258V96.9414ZM75.0258 95.7114H76.0258V93.6308L74.4011 94.9305L75.0258 95.7114ZM64.8558 95.0514L64.1167 95.725L64.1234 95.7324L64.1303 95.7397L64.8558 95.0514ZM64.8558 83.2614L64.1213 82.5827L64.121 82.5831L64.8558 83.2614ZM73.7358 85.9314L73.0036 86.6125L73.0042 86.6131L73.7358 85.9314ZM67.7658 92.3514L68.498 91.6703L67.7658 92.3514ZM73.7358 92.3514L73.0042 91.6697L73.0036 91.6703L73.7358 92.3514ZM70.2858 81.8914C71.8141 81.8914 73.1748 82.3712 74.4011 83.3523L75.6505 81.7905C74.0768 80.5316 72.2774 79.8914 70.2858 79.8914V81.8914ZM76.0258 82.5714V81.3414H74.0258V82.5714H76.0258ZM75.0258 82.3414H78.7458V80.3414H75.0258V82.3414ZM77.7458 81.3414V96.9414H79.7458V81.3414H77.7458ZM78.7458 95.9414H75.0258V97.9414H78.7458V95.9414ZM76.0258 96.9414V95.7114H74.0258V96.9414H76.0258ZM74.4011 94.9305C73.1748 95.9116 71.8141 96.3914 70.2858 96.3914V98.3914C72.2774 98.3914 74.0768 97.7512 75.6505 96.4923L74.4011 94.9305ZM70.2858 96.3914C68.4216 96.3914 66.8735 95.7252 65.5812 94.3631L64.1303 95.7397C65.7981 97.4976 67.8699 98.3914 70.2858 98.3914V96.3914ZM65.5949 94.3778C64.3407 93.0017 63.6958 91.2802 63.6958 89.1414H61.6958C61.6958 91.7226 62.4909 93.9411 64.1167 95.725L65.5949 94.3778ZM63.6958 89.1414C63.6958 87.0024 64.3406 85.2938 65.5906 83.9397L64.121 82.5831C62.4909 84.349 61.6958 86.5604 61.6958 89.1414H63.6958ZM65.5902 83.9401C66.8601 82.5659 68.4034 81.8914 70.2858 81.8914V79.8914C67.8482 79.8914 65.7715 80.7969 64.1213 82.5827L65.5902 83.9401ZM74.468 85.2503C73.4778 84.1859 72.2221 83.6414 70.7658 83.6414V85.6414C71.6695 85.6414 72.3938 85.957 73.0036 86.6125L74.468 85.2503ZM70.7658 83.6414C69.2948 83.6414 68.0274 84.182 67.0336 85.2503L68.498 86.6125C69.1042 85.9608 69.8367 85.6414 70.7658 85.6414V83.6414ZM67.0336 85.2503C66.0453 86.3127 65.5658 87.6334 65.5658 89.1414H67.5658C67.5658 88.0894 67.8862 87.2701 68.498 86.6125L67.0336 85.2503ZM65.5658 89.1414C65.5658 90.6494 66.0453 91.9701 67.0336 93.0325L68.498 91.6703C67.8862 91.0127 67.5658 90.1934 67.5658 89.1414H65.5658ZM67.0336 93.0325C68.0274 94.1008 69.2948 94.6414 70.7658 94.6414V92.6414C69.8367 92.6414 69.1042 92.322 68.498 91.6703L67.0336 93.0325ZM70.7658 94.6414C72.2221 94.6414 73.4778 94.097 74.468 93.0325L73.0036 91.6703C72.3938 92.3259 71.6695 92.6414 70.7658 92.6414V94.6414ZM74.4674 93.0331C75.4687 91.9586 75.9658 90.6412 75.9658 89.1414H73.9658C73.9658 90.1616 73.6429 90.9843 73.0042 91.6697L74.4674 93.0331ZM75.9658 89.1414C75.9658 87.6416 75.4687 86.3243 74.4674 85.2497L73.0042 86.6131C73.6429 87.2986 73.9658 88.1212 73.9658 89.1414H75.9658ZM87.9279 96.9414H86.9279V97.9414H87.9279V96.9414ZM87.9279 74.4414V73.4414H86.9279V74.4414H87.9279ZM91.6779 74.4414H92.6779V73.4414H91.6779V74.4414ZM91.6779 82.5714H90.6779V84.652L92.3026 83.3523L91.6779 82.5714ZM101.818 83.2614L101.083 83.9401L101.092 83.9494L101.818 83.2614ZM101.818 95.0514L102.543 95.7397L102.552 95.7301L101.818 95.0514ZM91.6779 95.7114L92.3026 94.9305L90.6779 93.6308V95.7114H91.6779ZM91.6779 96.9414V97.9414H92.6779V96.9414H91.6779ZM98.8779 85.9314L98.1457 86.6125L98.1463 86.6131L98.8779 85.9314ZM92.9379 92.3514L93.6701 91.6703L92.9379 92.3514ZM98.8779 92.3514L98.1463 91.6697L98.1457 91.6703L98.8779 92.3514ZM88.9279 96.9414V74.4414H86.9279V96.9414H88.9279ZM87.9279 75.4414H91.6779V73.4414H87.9279V75.4414ZM90.6779 74.4414V82.5714H92.6779V74.4414H90.6779ZM92.3026 83.3523C93.5311 82.3695 94.8823 81.8914 96.3879 81.8914V79.8914C94.4135 79.8914 92.6247 80.5334 91.0532 81.7905L92.3026 83.3523ZM96.3879 81.8914C98.2703 81.8914 99.8136 82.5659 101.083 83.9401L102.552 82.5827C100.902 80.7969 98.8255 79.8914 96.3879 79.8914V81.8914ZM101.092 83.9494C102.354 85.2805 103.008 86.9837 103.008 89.1414H105.008C105.008 86.5391 104.202 84.3223 102.544 82.5734L101.092 83.9494ZM103.008 89.1414C103.008 91.2764 102.356 92.9961 101.083 94.3727L102.552 95.7301C104.2 93.9467 105.008 91.7265 105.008 89.1414H103.008ZM101.092 94.3631C99.8002 95.7252 98.252 96.3914 96.3879 96.3914V98.3914C98.8037 98.3914 100.876 97.4976 102.543 95.7397L101.092 94.3631ZM96.3879 96.3914C94.8823 96.3914 93.5311 95.9134 92.3026 94.9305L91.0532 96.4923C92.6247 97.7495 94.4135 98.3914 96.3879 98.3914V96.3914ZM90.6779 95.7114V96.9414H92.6779V95.7114H90.6779ZM91.6779 95.9414H87.9279V97.9414H91.6779V95.9414ZM99.6101 85.2503C98.6199 84.1859 97.3642 83.6414 95.9079 83.6414V85.6414C96.8116 85.6414 97.5359 85.957 98.1457 86.6125L99.6101 85.2503ZM95.9079 83.6414C94.4516 83.6414 93.1959 84.1859 92.2057 85.2503L93.6701 86.6125C94.2799 85.957 95.0042 85.6414 95.9079 85.6414V83.6414ZM92.2057 85.2503C91.2175 86.3127 90.7379 87.6334 90.7379 89.1414H92.7379C92.7379 88.0894 93.0583 87.2701 93.6701 86.6125L92.2057 85.2503ZM90.7379 89.1414C90.7379 90.6494 91.2175 91.9701 92.2057 93.0325L93.6701 91.6703C93.0583 91.0127 92.7379 90.1934 92.7379 89.1414H90.7379ZM92.2057 93.0325C93.1959 94.097 94.4516 94.6414 95.9079 94.6414V92.6414C95.0042 92.6414 94.2799 92.3259 93.6701 91.6703L92.2057 93.0325ZM95.9079 94.6414C97.3642 94.6414 98.6199 94.097 99.6101 93.0325L98.1457 91.6703C97.5359 92.3259 96.8116 92.6414 95.9079 92.6414V94.6414ZM99.6095 93.0331C100.611 91.9586 101.108 90.6412 101.108 89.1414H99.1079C99.1079 90.1616 98.785 90.9843 98.1463 91.6697L99.6095 93.0331ZM101.108 89.1414C101.108 87.6416 100.611 86.3243 99.6095 85.2497L98.1463 86.6131C98.785 87.2986 99.1079 88.1212 99.1079 89.1414H101.108ZM127.98 86.0514L128.264 87.0103L129.298 86.7043L128.915 85.6964L127.98 86.0514ZM124.23 87.1614L123.313 87.561L123.666 88.3711L124.514 88.1203L124.23 87.1614ZM122.64 85.3314L122.091 86.1671L122.105 86.1761L122.119 86.1847L122.64 85.3314ZM117.15 85.9314L117.865 86.6301L117.15 85.9314ZM117.15 92.3514L117.865 91.6527L117.15 92.3514ZM122.64 92.9814L123.172 93.8281L123.178 93.8241L122.64 92.9814ZM124.23 91.1214L124.514 90.1625L123.666 89.9117L123.313 90.7218L124.23 91.1214ZM127.98 92.2314L128.915 92.5864L129.298 91.5785L128.264 91.2725L127.98 92.2314ZM125.01 96.0114L125.565 96.8435L125.573 96.8379L125.01 96.0114ZM114.36 95.0514L113.648 95.754L113.655 95.7608L113.662 95.7674L114.36 95.0514ZM114.36 83.2614L113.653 82.5543L114.36 83.2614ZM125.01 82.3014L124.447 83.1279L124.455 83.1335L125.01 82.3014ZM127.696 85.0925L123.946 86.2025L124.514 88.1203L128.264 87.0103L127.696 85.0925ZM125.147 86.7618C124.725 85.7953 124.058 85.0262 123.161 84.4781L122.119 86.1847C122.662 86.5167 123.055 86.9675 123.313 87.561L125.147 86.7618ZM123.189 84.4957C122.318 83.9229 121.335 83.6414 120.27 83.6414V85.6414C120.965 85.6414 121.562 85.8199 122.091 86.1671L123.189 84.4957ZM120.27 83.6414C118.77 83.6414 117.469 84.1733 116.435 85.2327L117.865 86.6301C118.511 85.9695 119.29 85.6414 120.27 85.6414V83.6414ZM116.435 85.2327C115.4 86.2924 114.89 87.6189 114.89 89.1414H116.89C116.89 88.1039 117.22 87.2904 117.865 86.6301L116.435 85.2327ZM114.89 89.1414C114.89 90.6639 115.4 91.9904 116.435 93.0501L117.865 91.6527C117.22 90.9924 116.89 90.1789 116.89 89.1414H114.89ZM116.435 93.0501C117.469 94.1095 118.77 94.6414 120.27 94.6414V92.6414C119.29 92.6414 118.511 92.3133 117.865 91.6527L116.435 93.0501ZM120.27 94.6414C121.326 94.6414 122.302 94.3748 123.172 93.828L122.108 92.1348C121.578 92.468 120.974 92.6414 120.27 92.6414V94.6414ZM123.178 93.8241C124.065 93.2577 124.727 92.4838 125.147 91.521L123.313 90.7218C123.053 91.319 122.655 91.7851 122.102 92.1387L123.178 93.8241ZM123.946 92.0803L127.696 93.1903L128.264 91.2725L124.514 90.1625L123.946 92.0803ZM127.045 91.8764C126.517 93.2674 125.655 94.3618 124.447 95.1849L125.573 96.8379C127.125 95.781 128.243 94.3555 128.915 92.5864L127.045 91.8764ZM124.455 95.1794C123.252 95.9817 121.868 96.3914 120.27 96.3914V98.3914C122.232 98.3914 124.008 97.8811 125.565 96.8435L124.455 95.1794ZM120.27 96.3914C118.177 96.3914 116.462 95.704 115.058 94.3354L113.662 95.7674C115.458 97.5188 117.683 98.3914 120.27 98.3914V96.3914ZM115.072 94.3488C113.709 92.9686 113.02 91.2567 113.02 89.1414H111.02C111.02 91.7461 111.891 93.9742 113.648 95.754L115.072 94.3488ZM113.02 89.1414C113.02 87.0261 113.709 85.327 115.067 83.9685L113.653 82.5543C111.891 84.3158 111.02 86.5367 111.02 89.1414H113.02ZM115.067 83.9685C116.448 82.5874 118.159 81.8914 120.27 81.8914V79.8914C117.661 79.8914 115.432 80.7754 113.653 82.5543L115.067 83.9685ZM120.27 81.8914C121.863 81.8914 123.244 82.3086 124.447 83.1279L125.573 81.4749C124.016 80.4143 122.237 79.8914 120.27 79.8914V81.8914ZM124.455 83.1335C125.658 83.9356 126.518 85.0172 127.045 86.4064L128.915 85.6964C128.242 83.9256 127.122 82.5072 125.565 81.4694L124.455 83.1335ZM148.045 82.5714L147.421 83.3523L149.045 84.652V82.5714H148.045ZM148.045 74.4414V73.4414H147.045V74.4414H148.045ZM151.765 74.4414H152.765V73.4414H151.765V74.4414ZM151.765 96.9414V97.9414H152.765V96.9414H151.765ZM148.045 96.9414H147.045V97.9414H148.045V96.9414ZM148.045 95.7114H149.045V93.6308L147.421 94.9305L148.045 95.7114ZM137.875 95.0514L137.136 95.725L137.143 95.7324L137.15 95.7397L137.875 95.0514ZM137.875 83.2614L137.141 82.5827L137.141 82.5831L137.875 83.2614ZM146.755 85.9314L146.023 86.6125L146.024 86.6131L146.755 85.9314ZM140.785 92.3514L141.518 91.6703L140.785 92.3514ZM146.755 92.3514L146.024 91.6697L146.023 91.6703L146.755 92.3514ZM143.305 81.8914C144.834 81.8914 146.194 82.3712 147.421 83.3523L148.67 81.7905C147.096 80.5316 145.297 79.8914 143.305 79.8914V81.8914ZM149.045 82.5714V74.4414H147.045V82.5714H149.045ZM148.045 75.4414H151.765V73.4414H148.045V75.4414ZM150.765 74.4414V96.9414H152.765V74.4414H150.765ZM151.765 95.9414H148.045V97.9414H151.765V95.9414ZM149.045 96.9414V95.7114H147.045V96.9414H149.045ZM147.421 94.9305C146.194 95.9116 144.834 96.3914 143.305 96.3914V98.3914C145.297 98.3914 147.096 97.7512 148.67 96.4923L147.421 94.9305ZM143.305 96.3914C141.441 96.3914 139.893 95.7252 138.601 94.3631L137.15 95.7397C138.818 97.4976 140.889 98.3914 143.305 98.3914V96.3914ZM138.614 94.3778C137.36 93.0017 136.715 91.2802 136.715 89.1414H134.715C134.715 91.7226 135.51 93.9411 137.136 95.725L138.614 94.3778ZM136.715 89.1414C136.715 87.0024 137.36 85.2938 138.61 83.9397L137.141 82.5831C135.51 84.349 134.715 86.5604 134.715 89.1414H136.715ZM138.61 83.9401C139.88 82.5659 141.423 81.8914 143.305 81.8914V79.8914C140.868 79.8914 138.791 80.7969 137.141 82.5827L138.61 83.9401ZM147.488 85.2503C146.497 84.1859 145.242 83.6414 143.785 83.6414V85.6414C144.689 85.6414 145.413 85.957 146.023 86.6125L147.488 85.2503ZM143.785 83.6414C142.314 83.6414 141.047 84.182 140.053 85.2503L141.518 86.6125C142.124 85.9608 142.856 85.6414 143.785 85.6414V83.6414ZM140.053 85.2503C139.065 86.3127 138.585 87.6334 138.585 89.1414H140.585C140.585 88.0894 140.906 87.2701 141.518 86.6125L140.053 85.2503ZM138.585 89.1414C138.585 90.6494 139.065 91.9701 140.053 93.0325L141.518 91.6703C140.906 91.0127 140.585 90.1934 140.585 89.1414H138.585ZM140.053 93.0325C141.047 94.1008 142.314 94.6414 143.785 94.6414V92.6414C142.856 92.6414 142.124 92.322 141.518 91.6703L140.053 93.0325ZM143.785 94.6414C145.242 94.6414 146.497 94.097 147.488 93.0325L146.023 91.6703C145.413 92.3259 144.689 92.6414 143.785 92.6414V94.6414ZM147.487 93.0331C148.488 91.9586 148.985 90.6412 148.985 89.1414H146.985C146.985 90.1616 146.662 90.9843 146.024 91.6697L147.487 93.0331ZM148.985 89.1414C148.985 87.6416 148.488 86.3243 147.487 85.2497L146.024 86.6131C146.662 87.2986 146.985 88.1212 146.985 89.1414H148.985ZM176.637 90.5214V91.5214H177.5L177.627 90.668L176.637 90.5214ZM164.247 90.5214V89.5214H162.936L163.283 90.7861L164.247 90.5214ZM165.897 93.0114L165.282 93.7997L165.293 93.808L165.304 93.816L165.897 93.0114ZM172.467 92.2914L172.745 91.3308L172.111 91.1474L171.693 91.6582L172.467 92.2914ZM176.097 93.3414L176.966 93.8375L177.596 92.734L176.375 92.3808L176.097 93.3414ZM173.067 96.3114L172.583 95.4366L172.577 95.4398L173.067 96.3114ZM162.777 95.0514L162.07 95.7585L162.077 95.7652L162.084 95.7717L162.777 95.0514ZM162.717 83.2614L162.01 82.5543L162.717 83.2614ZM174.387 83.2614L173.676 83.964L173.68 83.9685L174.387 83.2614ZM164.277 87.6114L163.316 87.3367L162.952 88.6114H164.277V87.6114ZM172.887 87.6114V88.6114H174.239L173.844 87.3187L172.887 87.6114ZM171.237 85.2414L171.837 84.4414L171.237 85.2414ZM176.637 89.5214H164.247V91.5214H176.637V89.5214ZM163.283 90.7861C163.619 92.0099 164.289 93.0249 165.282 93.7997L166.513 92.2231C165.865 91.7179 165.436 91.0729 165.212 90.2567L163.283 90.7861ZM165.304 93.816C166.325 94.57 167.506 94.9414 168.807 94.9414V92.9414C167.909 92.9414 167.15 92.6928 166.491 92.2068L165.304 93.816ZM168.807 94.9414C170.619 94.9414 172.134 94.278 173.241 92.9246L171.693 91.6582C171.001 92.5048 170.076 92.9414 168.807 92.9414V94.9414ZM172.19 93.252L175.82 94.302L176.375 92.3808L172.745 91.3308L172.19 93.252ZM175.229 92.8453C174.602 93.9423 173.727 94.8031 172.583 95.4366L173.552 97.1862C175.008 96.3797 176.153 95.2605 176.966 93.8375L175.229 92.8453ZM172.577 95.4398C171.456 96.0704 170.207 96.3914 168.807 96.3914V98.3914C170.528 98.3914 172.119 97.9924 173.558 97.183L172.577 95.4398ZM168.807 96.3914C166.647 96.3914 164.891 95.6988 163.471 94.3311L162.084 95.7717C163.903 97.524 166.168 98.3914 168.807 98.3914V96.3914ZM163.485 94.3443C162.079 92.9389 161.377 91.2263 161.377 89.1414H159.377C159.377 91.7365 160.276 93.9639 162.07 95.7585L163.485 94.3443ZM161.377 89.1414C161.377 87.0261 162.066 85.327 163.425 83.9685L162.01 82.5543C160.249 84.3158 159.377 86.5367 159.377 89.1414H161.377ZM163.425 83.9685C164.809 82.5839 166.501 81.8914 168.567 81.8914V79.8914C165.994 79.8914 163.786 80.7789 162.01 82.5543L163.425 83.9685ZM168.567 81.8914C170.633 81.8914 172.313 82.5836 173.676 83.964L175.099 82.5588C173.342 80.7792 171.141 79.8914 168.567 79.8914V81.8914ZM173.68 83.9685C175.063 85.3513 175.757 87.0527 175.757 89.1414H177.757C177.757 86.5501 176.872 84.3315 175.095 82.5543L173.68 83.9685ZM175.757 89.1414C175.757 89.4563 175.724 89.8644 175.648 90.3749L177.627 90.668C177.711 90.0985 177.757 89.5865 177.757 89.1414H175.757ZM164.277 88.6114H172.887V86.6114H164.277V88.6114ZM173.844 87.3187C173.483 86.1415 172.811 85.1719 171.837 84.4414L170.637 86.0414C171.263 86.511 171.692 87.1213 171.931 87.9041L173.844 87.3187ZM171.837 84.4414C170.861 83.7088 169.739 83.3414 168.507 83.3414V85.3414C169.316 85.3414 170.014 85.574 170.637 86.0414L171.837 84.4414ZM168.507 83.3414C167.306 83.3414 166.212 83.7149 165.258 84.4488L166.477 86.034C167.083 85.5679 167.749 85.3414 168.507 85.3414V83.3414ZM165.258 84.4488C164.302 85.1842 163.652 86.1587 163.316 87.3367L165.239 87.8861C165.462 87.1041 165.873 86.4986 166.477 86.034L165.258 84.4488Z" fill="black"/>
<path d="M243.209 56.4755C243.209 61.3408 241.276 66.0069 237.836 69.4472C234.396 72.8876 229.73 74.8203 224.864 74.8203C219.999 74.8203 215.333 72.8876 211.893 69.4472C208.452 66.0069 206.52 61.3408 206.52 56.4755L224.864 56.4755H243.209Z" fill="#8052E4"/>
<path d="M216.129 56.4771C216.129 59.7207 214.887 62.8314 212.675 65.125C210.463 67.4185 207.464 68.707 204.336 68.707C201.208 68.707 198.209 67.4185 195.997 65.125C193.785 62.8314 192.543 59.7207 192.543 56.4771L204.336 56.4771H216.129Z" fill="#8052E4"/>
<path d="M268.542 56.4771C268.542 59.7207 266.747 62.8314 263.552 65.125C260.358 67.4185 256.025 68.707 251.507 68.707C246.989 68.707 242.657 67.4185 239.462 65.125C236.267 62.8314 234.473 59.7207 234.473 56.4771L251.507 56.4771H268.542Z" fill="#8052E4"/>
<path d="M259.68 49.9685C259.68 53.1087 258.433 56.1203 256.212 58.3407C253.992 60.5612 250.98 61.8086 247.84 61.8086C244.7 61.8086 241.688 60.5612 239.468 58.3407C237.247 56.1203 236 53.1087 236 49.9685L247.84 49.9685H259.68Z" fill="#D4D4D4"/>
<path d="M242.203 49.9699C242.203 52.0634 241.401 54.0711 239.974 55.5514C238.547 57.0317 236.611 57.8633 234.592 57.8633C232.573 57.8633 230.637 57.0317 229.21 55.5514C227.782 54.0711 226.98 52.0634 226.98 49.9699L234.592 49.9699H242.203Z" fill="#D4D4D4"/>
<path d="M276.032 49.9699C276.032 52.0634 274.873 54.0711 272.811 55.5514C270.75 57.0317 267.953 57.8633 265.037 57.8633C262.121 57.8633 259.325 57.0317 257.263 55.5514C255.201 54.0711 254.043 52.0634 254.043 49.9699L265.037 49.9699H276.032Z" fill="#D4D4D4"/>
</svg>
