<svg width="342" height="180" viewBox="0 0 342 180" fill="none" xmlns="http://www.w3.org/2000/svg">
<rect width="341" height="180" transform="translate(0.179688)" fill="#F5F5F5"/>
<rect width="197" height="13" transform="translate(107.68 35)" fill="#AB85FF"/>
<rect width="77" height="9" transform="translate(227.68 56)" fill="#A57CFE"/>
<rect width="197" height="12" transform="translate(36.6797 134)" fill="#8052E4"/>
<path d="M137.805 113.965L210.805 113.965M210.805 113.965L208.805 114.93M210.805 113.965L208.805 113" stroke="black"/>
<path d="M103.805 123.965L176.805 123.965M176.805 123.965L174.805 124.93M176.805 123.965L174.805 123" stroke="black"/>
<path d="M63.6797 134C63.6797 127.959 64.8695 121.978 67.1812 116.397C69.4929 110.816 72.8813 105.745 77.1528 101.473C81.4243 97.2016 86.4953 93.8133 92.0763 91.5015C97.6572 89.1898 103.639 88 109.68 88C115.72 88 121.702 89.1898 127.283 91.5015C132.864 93.8133 137.935 97.2016 142.207 101.473C146.478 105.745 149.866 110.816 152.178 116.397C154.49 121.978 155.68 127.959 155.68 134L109.68 134H63.6797Z" fill="#31D67B"/>
<path d="M193.68 84.5L210.93 94.4593V74.5407L193.68 84.5Z" fill="#20D06F"/>
<path d="M186.68 84.5L203.93 94.4593V74.5407L186.68 84.5Z" fill="#31D67B"/>
<path d="M178.68 84.5L195.93 94.4593V74.5407L178.68 84.5Z" fill="#4AE991"/>
<path d="M168.68 84.5L185.93 94.4593V74.5407L168.68 84.5Z" fill="#4BFE9B"/>
<path d="M131.93 39.5L122.43 30" stroke="black"/>
<path d="M125.43 40L115.93 30.5" stroke="black"/>
<path d="M118.93 40L109.43 30.5" stroke="black"/>
<path d="M112.43 40L102.93 30.5" stroke="black"/>
<path d="M105.93 40L96.4297 30.5" stroke="black"/>
<path d="M99.4297 40L89.9297 30.5" stroke="black"/>
<path d="M92.9297 40L83.4297 30.5" stroke="black"/>
</svg>
