<svg width="342" height="180" viewBox="0 0 342 180" fill="none" xmlns="http://www.w3.org/2000/svg">
<rect width="341" height="180" transform="translate(0.179688)" fill="#F5F5F5"/>
<path d="M272.68 133C286.18 132 311.98 121.3 313.18 92.5C313.18 56.5 285.68 47 272.18 47C252.68 47 171.68 47 125.68 47" stroke="black"/>
<path d="M272.883 133H200.679" stroke="black"/>
<path d="M183.68 47L140.18 95.5" stroke="black"/>
<path d="M179.18 47L135.68 95.5" stroke="black"/>
<path d="M174.18 47L130.68 95.5" stroke="black"/>
<path d="M169.18 47L125.68 95.5" stroke="black"/>
<path d="M164.18 47L120.68 95.5" stroke="black"/>
<path d="M159.18 47L115.68 95.5" stroke="black"/>
<g clip-path="url(#clip0)">
<rect width="142" height="39" rx="19.5" transform="matrix(-1 0 0 1 170.18 94)" fill="#AB85FF"/>
<path d="M225.344 82.5447C148.841 38.8289 94.1962 38.8289 61.4093 82.5447C28.6224 126.261 -26.0224 126.261 -102.525 82.5447" stroke="#8052E4" stroke-width="2"/>
<path d="M229.582 159.209C170.934 93.4505 119.121 76.0876 74.1433 107.12C29.1652 138.153 -22.6478 120.79 -81.2957 55.0316" stroke="#8052E4" stroke-width="2"/>
<path d="M222.111 137.361C142.41 99.7916 87.9343 104.085 58.6837 150.242C29.433 196.399 -25.0429 200.692 -104.744 163.123" stroke="#8052E4" stroke-width="2"/>
</g>
<path d="M151.513 38.5089C151.513 33.6435 153.446 28.9775 156.887 25.5371C160.327 22.0968 164.993 20.1641 169.858 20.1641C174.724 20.1641 179.39 22.0968 182.83 25.5371C186.27 28.9775 188.203 33.6435 188.203 38.5089L169.858 38.5089H151.513Z" fill="#D4D4D4"/>
<path d="M178.593 38.5072C178.593 35.2637 179.836 32.1529 182.048 29.8594C184.259 27.5658 187.259 26.2773 190.387 26.2773C193.514 26.2773 196.514 27.5658 198.726 29.8594C200.937 32.1529 202.18 35.2637 202.18 38.5072L190.387 38.5072H178.593Z" fill="#D4D4D4"/>
<path d="M126.181 38.5072C126.181 35.2637 127.976 32.1529 131.17 29.8594C134.365 27.5658 138.698 26.2773 143.216 26.2773C147.733 26.2773 152.066 27.5658 155.261 29.8594C158.455 32.1529 160.25 35.2637 160.25 38.5072L143.216 38.5072H126.181Z" fill="#D4D4D4"/>
<path d="M263.226 120.465L296.032 69.2839H230.419L263.226 120.465Z" fill="#31D67B"/>
<mask id="mask0" mask-type="alpha" maskUnits="userSpaceOnUse" x="258" y="83" width="37" height="30">
<path d="M268.23 83.6602L272.529 112.676" stroke="black"/>
<path d="M270.648 83.6602L274.947 112.676" stroke="black"/>
<path d="M273.332 83.6602L277.631 112.676" stroke="black"/>
<path d="M276.02 83.6602L280.318 112.676" stroke="black"/>
<path d="M278.707 83.1211L283.006 112.137" stroke="black"/>
<path d="M281.395 83.1211L285.693 112.137" stroke="black"/>
<path d="M284.082 83.1211L288.381 112.137" stroke="black"/>
<path d="M286.766 83.1211L291.064 112.137" stroke="black"/>
<path d="M289.453 83.1211L293.752 112.137" stroke="black"/>
<path d="M265.273 83.6602L269.572 112.676" stroke="black"/>
<path d="M262.051 83.6602L266.349 112.676" stroke="black"/>
<path d="M259.363 83.6602L263.662 112.676" stroke="black"/>
</mask>
<g mask="url(#mask0)">
<path d="M275.216 112.676L259.162 84.8688H291.27L275.216 112.676Z" fill="black"/>
</g>
<path d="M49.7897 85.45C51.5497 85.45 53.1297 86.01 54.5297 87.13V85.9H58.2497V101.5H54.5297V100.27C53.1297 101.39 51.5497 101.95 49.7897 101.95C47.6497 101.95 45.8397 101.17 44.3597 99.61C42.9197 98.03 42.1997 96.06 42.1997 93.7C42.1997 91.34 42.9197 89.38 44.3597 87.82C45.8197 86.24 47.6297 85.45 49.7897 85.45ZM53.2397 90.49C52.4397 89.63 51.4497 89.2 50.2697 89.2C49.0697 89.2 48.0697 89.63 47.2697 90.49C46.4697 91.35 46.0697 92.42 46.0697 93.7C46.0697 94.98 46.4697 96.05 47.2697 96.91C48.0697 97.77 49.0697 98.2 50.2697 98.2C51.4497 98.2 52.4397 97.77 53.2397 96.91C54.0597 96.03 54.4697 94.96 54.4697 93.7C54.4697 92.44 54.0597 91.37 53.2397 90.49ZM67.4318 101.5V79H71.1818V87.13C72.5818 86.01 74.1518 85.45 75.8918 85.45C78.0518 85.45 79.8618 86.24 81.3218 87.82C82.7818 89.36 83.5118 91.32 83.5118 93.7C83.5118 96.06 82.7818 98.03 81.3218 99.61C79.8418 101.17 78.0318 101.95 75.8918 101.95C74.1518 101.95 72.5818 101.39 71.1818 100.27V101.5H67.4318ZM78.3818 90.49C77.5818 89.63 76.5918 89.2 75.4118 89.2C74.2318 89.2 73.2418 89.63 72.4418 90.49C71.6418 91.35 71.2418 92.42 71.2418 93.7C71.2418 94.98 71.6418 96.05 72.4418 96.91C73.2418 97.77 74.2318 98.2 75.4118 98.2C76.5918 98.2 77.5818 97.77 78.3818 96.91C79.2018 96.03 79.6118 94.96 79.6118 93.7C79.6118 92.44 79.2018 91.37 78.3818 90.49ZM107.484 90.61L103.734 91.72C103.394 90.94 102.864 90.33 102.144 89.89C101.444 89.43 100.654 89.2 99.7739 89.2C98.5339 89.2 97.4939 89.63 96.6539 90.49C95.8139 91.35 95.3939 92.42 95.3939 93.7C95.3939 94.98 95.8139 96.05 96.6539 96.91C97.4939 97.77 98.5339 98.2 99.7739 98.2C100.654 98.2 101.444 97.98 102.144 97.54C102.864 97.08 103.394 96.46 103.734 95.68L107.484 96.79C106.884 98.37 105.894 99.63 104.514 100.57C103.134 101.49 101.554 101.95 99.7739 101.95C97.4339 101.95 95.4639 101.17 93.8639 99.61C92.3039 98.03 91.5239 96.06 91.5239 93.7C91.5239 91.34 92.3039 89.38 93.8639 87.82C95.4439 86.24 97.4139 85.45 99.7739 85.45C101.554 85.45 103.134 85.92 104.514 86.86C105.894 87.78 106.884 89.03 107.484 90.61ZM122.809 85.45C124.569 85.45 126.149 86.01 127.549 87.13V79H131.269V101.5H127.549V100.27C126.149 101.39 124.569 101.95 122.809 101.95C120.669 101.95 118.859 101.17 117.379 99.61C115.939 98.03 115.219 96.06 115.219 93.7C115.219 91.34 115.939 89.38 117.379 87.82C118.839 86.24 120.649 85.45 122.809 85.45ZM126.259 90.49C125.459 89.63 124.469 89.2 123.289 89.2C122.089 89.2 121.089 89.63 120.289 90.49C119.489 91.35 119.089 92.42 119.089 93.7C119.089 94.98 119.489 96.05 120.289 96.91C121.089 97.77 122.089 98.2 123.289 98.2C124.469 98.2 125.459 97.77 126.259 96.91C127.079 96.03 127.489 94.96 127.489 93.7C127.489 92.44 127.079 91.37 126.259 90.49ZM156.141 95.08H143.751C144.031 96.1 144.581 96.93 145.401 97.57C146.241 98.19 147.211 98.5 148.311 98.5C149.851 98.5 151.071 97.95 151.971 96.85L155.601 97.9C154.881 99.16 153.871 100.15 152.571 100.87C151.291 101.59 149.871 101.95 148.311 101.95C145.911 101.95 143.901 101.17 142.281 99.61C140.681 98.01 139.881 96.04 139.881 93.7C139.881 91.34 140.661 89.38 142.221 87.82C143.801 86.24 145.751 85.45 148.071 85.45C150.391 85.45 152.331 86.24 153.891 87.82C155.471 89.4 156.261 91.36 156.261 93.7C156.261 94.08 156.221 94.54 156.141 95.08ZM143.781 92.17H152.391C152.091 91.19 151.541 90.4 150.741 89.8C149.941 89.2 149.031 88.9 148.011 88.9C147.031 88.9 146.151 89.2 145.371 89.8C144.591 90.4 144.061 91.19 143.781 92.17Z" fill="#AB85FF"/>
<path d="M54.5297 87.13L53.905 87.9109L55.5297 89.2106V87.13H54.5297ZM54.5297 85.9V84.9H53.5297V85.9H54.5297ZM58.2497 85.9H59.2497V84.9H58.2497V85.9ZM58.2497 101.5V102.5H59.2497V101.5H58.2497ZM54.5297 101.5H53.5297V102.5H54.5297V101.5ZM54.5297 100.27H55.5297V98.1894L53.905 99.4891L54.5297 100.27ZM44.3597 99.61L43.6206 100.284L43.6273 100.291L43.6342 100.298L44.3597 99.61ZM44.3597 87.82L43.6252 87.1413L43.6249 87.1417L44.3597 87.82ZM53.2397 90.49L52.5075 91.1711L52.5081 91.1717L53.2397 90.49ZM47.2697 96.91L48.0019 96.2289L47.2697 96.91ZM53.2397 96.91L52.5081 96.2283L52.5075 96.2289L53.2397 96.91ZM49.7897 86.45C51.3181 86.45 52.6787 86.9298 53.905 87.9109L55.1544 86.3491C53.5807 85.0902 51.7813 84.45 49.7897 84.45V86.45ZM55.5297 87.13V85.9H53.5297V87.13H55.5297ZM54.5297 86.9H58.2497V84.9H54.5297V86.9ZM57.2497 85.9V101.5H59.2497V85.9H57.2497ZM58.2497 100.5H54.5297V102.5H58.2497V100.5ZM55.5297 101.5V100.27H53.5297V101.5H55.5297ZM53.905 99.4891C52.6787 100.47 51.3181 100.95 49.7897 100.95V102.95C51.7813 102.95 53.5807 102.31 55.1544 101.051L53.905 99.4891ZM49.7897 100.95C47.9255 100.95 46.3774 100.284 45.0852 98.9217L43.6342 100.298C45.302 102.056 47.3738 102.95 49.7897 102.95V100.95ZM45.0988 98.9364C43.8446 97.5603 43.1997 95.8388 43.1997 93.7H41.1997C41.1997 96.2812 41.9948 98.4997 43.6206 100.284L45.0988 98.9364ZM43.1997 93.7C43.1997 91.561 43.8445 89.8524 45.0945 88.4983L43.6249 87.1417C41.9948 88.9076 41.1997 91.119 41.1997 93.7H43.1997ZM45.0941 88.4987C46.364 87.1245 47.9073 86.45 49.7897 86.45V84.45C47.3521 84.45 45.2754 85.3555 43.6252 87.1413L45.0941 88.4987ZM53.9719 89.8089C52.9817 88.7445 51.726 88.2 50.2697 88.2V90.2C51.1734 90.2 51.8977 90.5155 52.5075 91.1711L53.9719 89.8089ZM50.2697 88.2C48.7988 88.2 47.5313 88.7406 46.5375 89.8089L48.0019 91.1711C48.6081 90.5194 49.3406 90.2 50.2697 90.2V88.2ZM46.5375 89.8089C45.5492 90.8713 45.0697 92.192 45.0697 93.7H47.0697C47.0697 92.648 47.3901 91.8287 48.0019 91.1711L46.5375 89.8089ZM45.0697 93.7C45.0697 95.208 45.5492 96.5287 46.5375 97.5911L48.0019 96.2289C47.3901 95.5713 47.0697 94.752 47.0697 93.7H45.0697ZM46.5375 97.5911C47.5313 98.6594 48.7988 99.2 50.2697 99.2V97.2C49.3406 97.2 48.6081 96.8806 48.0019 96.2289L46.5375 97.5911ZM50.2697 99.2C51.726 99.2 52.9817 98.6555 53.9719 97.5911L52.5075 96.2289C51.8977 96.8845 51.1734 97.2 50.2697 97.2V99.2ZM53.9713 97.5917C54.9726 96.5172 55.4697 95.1998 55.4697 93.7H53.4697C53.4697 94.7202 53.1468 95.5428 52.5081 96.2283L53.9713 97.5917ZM55.4697 93.7C55.4697 92.2002 54.9726 90.8828 53.9713 89.8083L52.5081 91.1717C53.1468 91.8572 53.4697 92.6798 53.4697 93.7H55.4697ZM67.4318 101.5H66.4318V102.5H67.4318V101.5ZM67.4318 79V78H66.4318V79H67.4318ZM71.1818 79H72.1818V78H71.1818V79ZM71.1818 87.13H70.1818V89.2106L71.8065 87.9109L71.1818 87.13ZM81.3218 87.82L80.5873 88.4987L80.5961 88.508L81.3218 87.82ZM81.3218 99.61L82.0473 100.298L82.0562 100.289L81.3218 99.61ZM71.1818 100.27L71.8065 99.4891L70.1818 98.1894V100.27H71.1818ZM71.1818 101.5V102.5H72.1818V101.5H71.1818ZM78.3818 90.49L77.6496 91.1711L77.6502 91.1717L78.3818 90.49ZM72.4418 96.91L73.174 96.2289L72.4418 96.91ZM78.3818 96.91L77.6502 96.2283L77.6496 96.2289L78.3818 96.91ZM68.4318 101.5V79H66.4318V101.5H68.4318ZM67.4318 80H71.1818V78H67.4318V80ZM70.1818 79V87.13H72.1818V79H70.1818ZM71.8065 87.9109C73.035 86.9281 74.3862 86.45 75.8918 86.45V84.45C73.9174 84.45 72.1286 85.0919 70.5571 86.3491L71.8065 87.9109ZM75.8918 86.45C77.7742 86.45 79.3175 87.1245 80.5874 88.4987L82.0562 87.1413C80.4061 85.3555 78.3294 84.45 75.8918 84.45V86.45ZM80.5961 88.508C81.8581 89.8391 82.5118 91.5423 82.5118 93.7H84.5118C84.5118 91.0977 83.7055 88.8809 82.0475 87.132L80.5961 88.508ZM82.5118 93.7C82.5118 95.8349 81.8594 97.5547 80.5874 98.9313L82.0562 100.289C83.7042 98.5053 84.5118 96.2851 84.5118 93.7H82.5118ZM80.5963 98.9217C79.3041 100.284 77.756 100.95 75.8918 100.95V102.95C78.3076 102.95 80.3795 102.056 82.0473 100.298L80.5963 98.9217ZM75.8918 100.95C74.3862 100.95 73.035 100.472 71.8065 99.4891L70.5571 101.051C72.1286 102.308 73.9174 102.95 75.8918 102.95V100.95ZM70.1818 100.27V101.5H72.1818V100.27H70.1818ZM71.1818 100.5H67.4318V102.5H71.1818V100.5ZM79.114 89.8089C78.1238 88.7445 76.8681 88.2 75.4118 88.2V90.2C76.3155 90.2 77.0398 90.5155 77.6496 91.1711L79.114 89.8089ZM75.4118 88.2C73.9555 88.2 72.6998 88.7445 71.7096 89.8089L73.174 91.1711C73.7838 90.5155 74.5081 90.2 75.4118 90.2V88.2ZM71.7096 89.8089C70.7214 90.8713 70.2418 92.192 70.2418 93.7H72.2418C72.2418 92.648 72.5622 91.8287 73.174 91.1711L71.7096 89.8089ZM70.2418 93.7C70.2418 95.208 70.7214 96.5287 71.7096 97.5911L73.174 96.2289C72.5622 95.5713 72.2418 94.752 72.2418 93.7H70.2418ZM71.7096 97.5911C72.6998 98.6555 73.9555 99.2 75.4118 99.2V97.2C74.5081 97.2 73.7838 96.8845 73.174 96.2289L71.7096 97.5911ZM75.4118 99.2C76.8681 99.2 78.1238 98.6555 79.114 97.5911L77.6496 96.2289C77.0398 96.8845 76.3155 97.2 75.4118 97.2V99.2ZM79.1134 97.5917C80.1147 96.5172 80.6118 95.1998 80.6118 93.7H78.6118C78.6118 94.7202 78.2889 95.5428 77.6502 96.2283L79.1134 97.5917ZM80.6118 93.7C80.6118 92.2002 80.1147 90.8828 79.1134 89.8083L77.6502 91.1717C78.2889 91.8572 78.6118 92.6798 78.6118 93.7H80.6118ZM107.484 90.61L107.768 91.5689L108.802 91.2629L108.419 90.255L107.484 90.61ZM103.734 91.72L102.817 92.1196L103.17 92.9297L104.018 92.6789L103.734 91.72ZM102.144 89.89L101.595 90.7257L101.608 90.7347L101.622 90.7433L102.144 89.89ZM96.6539 90.49L97.3693 91.1887L96.6539 90.49ZM96.6539 96.91L97.3693 96.2113L96.6539 96.91ZM102.144 97.54L102.676 98.3867L102.682 98.3827L102.144 97.54ZM103.734 95.68L104.018 94.7211L103.17 94.4703L102.817 95.2804L103.734 95.68ZM107.484 96.79L108.419 97.145L108.802 96.1371L107.768 95.8311L107.484 96.79ZM104.514 100.57L105.069 101.402L105.077 101.396L104.514 100.57ZM93.8639 99.61L93.1523 100.313L93.159 100.319L93.1658 100.326L93.8639 99.61ZM93.8639 87.82L93.1568 87.1129L93.8639 87.82ZM104.514 86.86L103.951 87.6865L103.959 87.692L104.514 86.86ZM107.2 89.6511L103.45 90.7611L104.018 92.6789L107.768 91.5689L107.2 89.6511ZM104.651 91.3204C104.229 90.3539 103.562 89.5847 102.665 89.0367L101.622 90.7433C102.166 91.0753 102.559 91.5261 102.817 92.1196L104.651 91.3204ZM102.693 89.0543C101.821 88.4815 100.839 88.2 99.7739 88.2V90.2C100.469 90.2 101.066 90.3785 101.595 90.7257L102.693 89.0543ZM99.7739 88.2C98.2741 88.2 96.9732 88.7319 95.9385 89.7913L97.3693 91.1887C98.0146 90.5281 98.7937 90.2 99.7739 90.2V88.2ZM95.9385 89.7913C94.9034 90.851 94.3939 92.1775 94.3939 93.7H96.3939C96.3939 92.6625 96.7244 91.849 97.3693 91.1887L95.9385 89.7913ZM94.3939 93.7C94.3939 95.2225 94.9034 96.549 95.9385 97.6087L97.3693 96.2113C96.7244 95.551 96.3939 94.7375 96.3939 93.7H94.3939ZM95.9385 97.6087C96.9732 98.6681 98.2741 99.2 99.7739 99.2V97.2C98.7937 97.2 98.0146 96.8719 97.3693 96.2113L95.9385 97.6087ZM99.7739 99.2C100.83 99.2 101.806 98.9334 102.676 98.3866L101.612 96.6934C101.082 97.0266 100.478 97.2 99.7739 97.2V99.2ZM102.682 98.3827C103.569 97.8163 104.231 97.0424 104.651 96.0796L102.817 95.2804C102.557 95.8776 102.159 96.3437 101.606 96.6973L102.682 98.3827ZM103.45 96.6389L107.2 97.7489L107.768 95.8311L104.018 94.7211L103.45 96.6389ZM106.549 96.435C106.021 97.8259 105.159 98.9204 103.951 99.7435L105.077 101.396C106.628 100.34 107.747 98.9141 108.419 97.145L106.549 96.435ZM103.959 99.7379C102.756 100.54 101.372 100.95 99.7739 100.95V102.95C101.736 102.95 103.512 102.44 105.069 101.402L103.959 99.7379ZM99.7739 100.95C97.6811 100.95 95.9657 100.263 94.562 98.894L93.1658 100.326C94.9621 102.077 97.1867 102.95 99.7739 102.95V100.95ZM94.5755 98.9074C93.2128 97.5272 92.5239 95.8153 92.5239 93.7H90.5239C90.5239 96.3047 91.395 98.5328 93.1523 100.313L94.5755 98.9074ZM92.5239 93.7C92.5239 91.5847 93.2125 89.8856 94.571 88.5271L93.1568 87.1129C91.3953 88.8744 90.5239 91.0953 90.5239 93.7H92.5239ZM94.571 88.5271C95.9521 87.146 97.6626 86.45 99.7739 86.45V84.45C97.1652 84.45 94.9357 85.334 93.1568 87.1129L94.571 88.5271ZM99.7739 86.45C101.367 86.45 102.748 86.8671 103.951 87.6865L105.077 86.0335C103.52 84.9728 101.741 84.45 99.7739 84.45V86.45ZM103.959 87.692C105.162 88.4942 106.021 89.5758 106.549 90.965L108.419 90.255C107.746 88.4842 106.625 87.0658 105.069 86.0279L103.959 87.692ZM127.549 87.13L126.925 87.9109L128.549 89.2106V87.13H127.549ZM127.549 79V78H126.549V79H127.549ZM131.269 79H132.269V78H131.269V79ZM131.269 101.5V102.5H132.269V101.5H131.269ZM127.549 101.5H126.549V102.5H127.549V101.5ZM127.549 100.27H128.549V98.1894L126.925 99.4891L127.549 100.27ZM117.379 99.61L116.64 100.284L116.647 100.291L116.654 100.298L117.379 99.61ZM117.379 87.82L116.645 87.1413L116.644 87.1417L117.379 87.82ZM126.259 90.49L125.527 91.1711L125.528 91.1717L126.259 90.49ZM120.289 96.91L121.021 96.2289L120.289 96.91ZM126.259 96.91L125.528 96.2283L125.527 96.2289L126.259 96.91ZM122.809 86.45C124.338 86.45 125.698 86.9298 126.925 87.9109L128.174 86.3491C126.6 85.0902 124.801 84.45 122.809 84.45V86.45ZM128.549 87.13V79H126.549V87.13H128.549ZM127.549 80H131.269V78H127.549V80ZM130.269 79V101.5H132.269V79H130.269ZM131.269 100.5H127.549V102.5H131.269V100.5ZM128.549 101.5V100.27H126.549V101.5H128.549ZM126.925 99.4891C125.698 100.47 124.338 100.95 122.809 100.95V102.95C124.801 102.95 126.6 102.31 128.174 101.051L126.925 99.4891ZM122.809 100.95C120.945 100.95 119.397 100.284 118.105 98.9217L116.654 100.298C118.322 102.056 120.393 102.95 122.809 102.95V100.95ZM118.118 98.9364C116.864 97.5603 116.219 95.8388 116.219 93.7H114.219C114.219 96.2812 115.014 98.4997 116.64 100.284L118.118 98.9364ZM116.219 93.7C116.219 91.561 116.864 89.8524 118.114 88.4983L116.644 87.1417C115.014 88.9076 114.219 91.119 114.219 93.7H116.219ZM118.114 88.4987C119.383 87.1245 120.927 86.45 122.809 86.45V84.45C120.372 84.45 118.295 85.3555 116.645 87.1413L118.114 88.4987ZM126.991 89.8089C126.001 88.7445 124.746 88.2 123.289 88.2V90.2C124.193 90.2 124.917 90.5155 125.527 91.1711L126.991 89.8089ZM123.289 88.2C121.818 88.2 120.551 88.7406 119.557 89.8089L121.021 91.1711C121.628 90.5194 122.36 90.2 123.289 90.2V88.2ZM119.557 89.8089C118.569 90.8713 118.089 92.192 118.089 93.7H120.089C120.089 92.648 120.41 91.8287 121.021 91.1711L119.557 89.8089ZM118.089 93.7C118.089 95.208 118.569 96.5287 119.557 97.5911L121.021 96.2289C120.41 95.5713 120.089 94.752 120.089 93.7H118.089ZM119.557 97.5911C120.551 98.6594 121.818 99.2 123.289 99.2V97.2C122.36 97.2 121.628 96.8806 121.021 96.2289L119.557 97.5911ZM123.289 99.2C124.746 99.2 126.001 98.6555 126.991 97.5911L125.527 96.2289C124.917 96.8845 124.193 97.2 123.289 97.2V99.2ZM126.991 97.5917C127.992 96.5172 128.489 95.1998 128.489 93.7H126.489C126.489 94.7202 126.166 95.5428 125.528 96.2283L126.991 97.5917ZM128.489 93.7C128.489 92.2002 127.992 90.8828 126.991 89.8083L125.528 91.1717C126.166 91.8572 126.489 92.6798 126.489 93.7H128.489ZM156.141 95.08V96.08H157.004L157.131 95.2265L156.141 95.08ZM143.751 95.08V94.08H142.44L142.787 95.3447L143.751 95.08ZM145.401 97.57L144.786 98.3583L144.797 98.3666L144.807 98.3746L145.401 97.57ZM151.971 96.85L152.249 95.8894L151.615 95.706L151.197 96.2168L151.971 96.85ZM155.601 97.9L156.47 98.3961L157.1 97.2926L155.879 96.9394L155.601 97.9ZM152.571 100.87L152.087 99.9952L152.081 99.9984L152.571 100.87ZM142.281 99.61L141.574 100.317L141.581 100.324L141.588 100.33L142.281 99.61ZM142.221 87.82L141.514 87.1129L142.221 87.82ZM153.891 87.82L153.18 88.5226L153.184 88.5271L153.891 87.82ZM143.781 92.17L142.82 91.8953L142.456 93.17H143.781V92.17ZM152.391 92.17V93.17H153.743L153.348 91.8773L152.391 92.17ZM150.741 89.8L151.341 89L150.741 89.8ZM156.141 94.08H143.751V96.08H156.141V94.08ZM142.787 95.3447C143.123 96.5685 143.793 97.5835 144.786 98.3583L146.017 96.7817C145.369 96.2765 144.94 95.6315 144.716 94.8153L142.787 95.3447ZM144.807 98.3746C145.829 99.1286 147.01 99.5 148.311 99.5V97.5C147.413 97.5 146.654 97.2514 145.995 96.7654L144.807 98.3746ZM148.311 99.5C150.123 99.5 151.638 98.8366 152.745 97.4832L151.197 96.2168C150.505 97.0634 149.58 97.5 148.311 97.5V99.5ZM151.693 97.8106L155.323 98.8606L155.879 96.9394L152.249 95.8894L151.693 97.8106ZM154.733 97.4039C154.106 98.5009 153.231 99.3617 152.087 99.9952L153.056 101.745C154.512 100.938 155.656 99.8191 156.47 98.3961L154.733 97.4039ZM152.081 99.9984C150.96 100.629 149.711 100.95 148.311 100.95V102.95C150.032 102.95 151.623 102.551 153.062 101.742L152.081 99.9984ZM148.311 100.95C146.151 100.95 144.395 100.257 142.975 98.8897L141.588 100.33C143.407 102.083 145.672 102.95 148.311 102.95V100.95ZM142.988 98.9029C141.583 97.4975 140.881 95.7849 140.881 93.7H138.881C138.881 96.2951 139.78 98.5225 141.574 100.317L142.988 98.9029ZM140.881 93.7C140.881 91.5847 141.57 89.8856 142.928 88.5271L141.514 87.1129C139.753 88.8744 138.881 91.0953 138.881 93.7H140.881ZM142.928 88.5271C144.313 87.1425 146.005 86.45 148.071 86.45V84.45C145.497 84.45 143.29 85.3375 141.514 87.1129L142.928 88.5271ZM148.071 86.45C150.137 86.45 151.817 87.1422 153.18 88.5226L154.603 87.1174C152.846 85.3378 150.645 84.45 148.071 84.45V86.45ZM153.184 88.5271C154.567 89.9099 155.261 91.6113 155.261 93.7H157.261C157.261 91.1087 156.376 88.8901 154.598 87.1129L153.184 88.5271ZM155.261 93.7C155.261 94.0149 155.228 94.423 155.152 94.9335L157.131 95.2265C157.215 94.657 157.261 94.1451 157.261 93.7H155.261ZM143.781 93.17H152.391V91.17H143.781V93.17ZM153.348 91.8773C152.987 90.7001 152.315 89.7304 151.341 89L150.141 90.6C150.767 91.0695 151.195 91.6799 151.435 92.4627L153.348 91.8773ZM151.341 89C150.365 88.2674 149.243 87.9 148.011 87.9V89.9C148.82 89.9 149.518 90.1326 150.141 90.6L151.341 89ZM148.011 87.9C146.81 87.9 145.716 88.2735 144.762 89.0074L145.981 90.5926C146.587 90.1265 147.253 89.9 148.011 89.9V87.9ZM144.762 89.0074C143.806 89.7428 143.156 90.7173 142.82 91.8953L144.743 92.4447C144.966 91.6627 145.377 91.0572 145.981 90.5926L144.762 89.0074Z" fill="black"/>
<defs>
<clipPath id="clip0">
<rect width="142" height="39" rx="19.5" transform="matrix(-1 0 0 1 170.18 94)" fill="white"/>
</clipPath>
</defs>
</svg>
