<svg width="342" height="180" viewBox="0 0 342 180" fill="none" xmlns="http://www.w3.org/2000/svg">
<rect width="341" height="180" transform="translate(0.203125)" fill="#F5F5F5"/>
<path d="M148.196 78.8047L87.8105 146.942H260.596L316.796 78.8047H148.196Z" fill="#AB85FF"/>
<mask id="mask0" mask-type="alpha" maskUnits="userSpaceOnUse" x="87" y="78" width="230" height="69">
<path d="M148.196 78.8047L87.8105 146.942H260.596L316.796 78.8047H148.196Z" fill="#AB85FF"/>
</mask>
<g mask="url(#mask0)">
<path d="M458.002 81.2378C347.767 37.4937 269.027 37.4937 221.784 81.2378C174.54 124.982 95.8007 124.982 -14.4345 81.2378" stroke="#8052E4"/>
<path d="M444.194 165.01C359.686 99.2093 285.027 81.8352 220.217 112.888C155.407 143.941 80.7477 126.567 -3.75981 60.7656" stroke="#8052E4"/>
<path d="M453.343 136.089C338.499 98.4955 260.003 102.792 217.855 148.978C175.707 195.165 97.2108 199.461 -17.633 161.867" stroke="#8052E4"/>
</g>
<path d="M68.4782 65.8711L68.4782 113.064M68.4782 113.064L67.9135 111.771M68.4782 113.064L69.043 111.771" stroke="black"/>
<path d="M77.8621 65.8711L77.8621 131.812M77.8621 131.812L77.2768 130.005M77.8621 131.812L78.4473 130.005" stroke="black"/>
<path d="M59.1355 65.8711L59.1355 95.6092M59.1355 95.6092L58.5503 94.7944M59.1355 95.6092L59.7207 94.7944" stroke="black"/>
<path d="M87.2253 65.8711V87.2049M87.2253 87.2049L86.6401 86.6204M87.2253 87.2049L87.8105 86.6204" stroke="black"/>
<path d="M142.987 94.1721C142.987 91.0319 141.739 88.0203 139.519 85.7999C137.298 83.5795 134.287 82.332 131.147 82.332C128.007 82.332 124.995 83.5795 122.775 85.7999C120.554 88.0203 119.307 91.0319 119.307 94.1721L131.147 94.1721H142.987Z" fill="#D4D4D4"/>
<path d="M125.508 94.1707C125.508 92.0773 124.706 90.0696 123.279 88.5893C121.851 87.109 119.915 86.2773 117.897 86.2773C115.878 86.2773 113.942 87.109 112.515 88.5893C111.087 90.0695 110.285 92.0773 110.285 94.1707L117.897 94.1707H125.508Z" fill="#D4D4D4"/>
<path d="M159.336 94.1707C159.336 92.0773 158.178 90.0696 156.116 88.5893C154.054 87.109 151.258 86.2773 148.342 86.2773C145.426 86.2773 142.63 87.109 140.568 88.5893C138.506 90.0695 137.348 92.0773 137.348 94.1707L148.342 94.1707H159.336Z" fill="#D4D4D4"/>
<path d="M98.2287 72.1856C98.2287 65.1165 95.4205 58.3368 90.4218 53.3381C85.4231 48.3395 78.6435 45.5313 71.5743 45.5313C64.5051 45.5312 57.7255 48.3395 52.7268 53.3381C47.7281 58.3368 44.9199 65.1165 44.9199 72.1856L71.5743 72.1856H98.2287Z" fill="#4AE991"/>
<path d="M58.8813 72.1837C58.8813 67.4709 57.076 62.9511 53.8625 59.6187C50.6491 56.2862 46.2908 54.4141 41.7463 54.4141C37.2018 54.4141 32.8435 56.2862 29.63 59.6187C26.4166 62.9511 24.6113 67.4709 24.6113 72.1837L41.7463 72.1837H58.8813Z" fill="#4AE991"/>
<path d="M135.036 72.1837C135.036 67.4709 132.429 62.9511 127.787 59.6187C123.145 56.2862 116.85 54.4141 110.286 54.4141C103.721 54.4141 97.426 56.2862 92.7844 59.6187C88.1428 62.9511 85.5352 67.4709 85.5352 72.1837L110.286 72.1837H135.036Z" fill="#4AE991"/>
<path d="M133.767 48.323C133.767 44.2757 132.159 40.3941 129.297 37.5322C126.436 34.6703 122.554 33.0625 118.507 33.0625C114.459 33.0625 110.578 34.6703 107.716 37.5322C104.854 40.3941 103.246 44.2757 103.246 48.323L118.507 48.323H133.767Z" fill="#20D06F"/>
<path d="M111.24 48.3221C111.24 45.6239 110.206 43.0362 108.366 41.1282C106.527 39.2203 104.031 38.1484 101.429 38.1484C98.8276 38.1484 96.3323 39.2203 94.4925 41.1282C92.6527 43.0362 91.6191 45.6239 91.6191 48.3221L101.429 48.3221H111.24Z" fill="#20D06F"/>
<path d="M154.841 48.3221C154.841 45.6239 153.348 43.0362 150.691 41.1282C148.033 39.2203 144.429 38.1484 140.67 38.1484C136.912 38.1484 133.308 39.2203 130.65 41.1282C127.993 43.0362 126.5 45.6239 126.5 48.3221L140.67 48.3221H154.841Z" fill="#20D06F"/>
<path d="M236.793 29.102L233.163 30.902L231.543 27.482L237.903 24.332H240.693V45.332H236.793V29.102ZM238.382 60.452C238.382 59.672 238.042 59.002 237.362 58.442C236.722 57.882 235.932 57.602 234.992 57.602C234.092 57.602 233.282 57.882 232.562 58.442C231.862 58.982 231.332 59.722 230.972 60.662L227.372 58.952C228.052 57.392 229.072 56.162 230.432 55.262C231.792 54.342 233.312 53.882 234.992 53.882C237.092 53.882 238.842 54.512 240.242 55.772C241.682 57.032 242.402 58.552 242.402 60.332C242.402 61.412 242.042 62.542 241.322 63.722C240.602 64.882 239.462 66.212 237.902 67.712L233.792 71.612H242.582V75.332H227.792V72.422L235.502 65.072C237.422 63.212 238.382 61.672 238.382 60.452ZM238.177 90.182C238.177 89.462 237.837 88.852 237.157 88.352C236.477 87.852 235.607 87.602 234.547 87.602C233.687 87.602 232.927 87.782 232.267 88.142C231.627 88.482 231.157 88.932 230.857 89.492L227.317 87.812C227.937 86.612 228.897 85.662 230.197 84.962C231.497 84.242 232.957 83.882 234.577 83.882C236.757 83.882 238.577 84.472 240.037 85.652C241.477 86.812 242.197 88.282 242.197 90.062C242.197 91.802 241.447 93.262 239.947 94.442C241.807 95.642 242.737 97.272 242.737 99.332C242.737 101.192 241.977 102.732 240.457 103.952C238.937 105.172 237.047 105.782 234.787 105.782C232.927 105.782 231.297 105.352 229.897 104.492C228.497 103.612 227.547 102.472 227.047 101.072L230.797 99.752C231.017 100.432 231.487 100.992 232.207 101.432C232.927 101.852 233.777 102.062 234.757 102.062C235.877 102.062 236.817 101.792 237.577 101.252C238.337 100.692 238.717 99.992 238.717 99.152C238.717 98.352 238.337 97.692 237.577 97.172C236.837 96.632 235.927 96.362 234.847 96.362H233.257V92.852H234.337C235.417 92.852 236.327 92.602 237.067 92.102C237.807 91.602 238.177 90.962 238.177 90.182ZM236.508 135.332V131.312H225.618V127.592L236.688 114.332H240.378V127.592H243.048V131.312H240.378V135.332H236.508ZM236.508 120.122L230.268 127.592H236.508V120.122Z" fill="#31D67B"/>
<path d="M236.793 29.102H237.793V27.49L236.349 28.2061L236.793 29.102ZM233.163 30.902L232.259 31.3301L232.695 32.2502L233.607 31.7979L233.163 30.902ZM231.543 27.482L231.099 26.5859L230.219 27.0221L230.639 27.9101L231.543 27.482ZM237.903 24.332V23.332H237.669L237.459 23.4359L237.903 24.332ZM240.693 24.332H241.693V23.332H240.693V24.332ZM240.693 45.332V46.332H241.693V45.332H240.693ZM236.793 45.332H235.793V46.332H236.793V45.332ZM236.349 28.2061L232.719 30.0061L233.607 31.7979L237.237 29.9979L236.349 28.2061ZM234.067 30.4739L232.447 27.0539L230.639 27.9101L232.259 31.3301L234.067 30.4739ZM231.987 28.3781L238.347 25.2281L237.459 23.4359L231.099 26.5859L231.987 28.3781ZM237.903 25.332H240.693V23.332H237.903V25.332ZM239.693 24.332V45.332H241.693V24.332H239.693ZM240.693 44.332H236.793V46.332H240.693V44.332ZM237.793 45.332V29.102H235.793V45.332H237.793ZM237.362 58.442L236.704 59.1946L236.715 59.2045L236.727 59.214L237.362 58.442ZM232.562 58.442L233.173 59.2338L233.176 59.2314L232.562 58.442ZM230.972 60.662L230.543 61.5653L231.52 62.0291L231.906 61.0197L230.972 60.662ZM227.372 58.952L226.456 58.5524L226.069 59.4399L226.943 59.8553L227.372 58.952ZM230.432 55.262L230.984 56.096L230.993 56.0903L230.432 55.262ZM240.242 55.772L239.573 56.5154L239.584 56.5246L240.242 55.772ZM241.322 63.722L242.172 64.2494L242.176 64.2429L241.322 63.722ZM237.902 67.712L238.591 68.4374L238.596 68.4329L237.902 67.712ZM233.792 71.612L233.104 70.8866L231.286 72.612H233.792V71.612ZM242.582 71.612H243.582V70.612H242.582V71.612ZM242.582 75.332V76.332H243.582V75.332H242.582ZM227.792 75.332H226.792V76.332H227.792V75.332ZM227.792 72.422L227.102 71.6982L226.792 71.9937V72.422H227.792ZM235.502 65.072L236.193 65.7959L236.198 65.7903L235.502 65.072ZM239.382 60.452C239.382 59.3322 238.875 58.3924 237.998 57.6701L236.727 59.214C237.21 59.6117 237.382 60.0118 237.382 60.452H239.382ZM238.021 57.6895C237.179 56.9528 236.147 56.602 234.992 56.602V58.602C235.718 58.602 236.266 58.8113 236.704 59.1946L238.021 57.6895ZM234.992 56.602C233.867 56.602 232.842 56.9581 231.949 57.6527L233.176 59.2314C233.723 58.8059 234.318 58.602 234.992 58.602V56.602ZM231.952 57.6502C231.087 58.3174 230.455 59.217 230.039 60.3044L231.906 61.0197C232.21 60.227 232.638 59.6466 233.173 59.2338L231.952 57.6502ZM231.402 59.7588L227.802 58.0488L226.943 59.8553L230.543 61.5653L231.402 59.7588ZM228.289 59.3516C228.896 57.9605 229.793 56.8847 230.984 56.096L229.881 54.4281C228.352 55.4394 227.209 56.8236 226.456 58.5524L228.289 59.3516ZM230.993 56.0903C232.183 55.285 233.507 54.882 234.992 54.882V52.882C233.118 52.882 231.402 53.3991 229.872 54.4337L230.993 56.0903ZM234.992 54.882C236.876 54.882 238.379 55.44 239.574 56.5153L240.911 55.0287C239.306 53.5841 237.309 52.882 234.992 52.882V54.882ZM239.584 56.5246C240.825 57.6108 241.402 58.864 241.402 60.332H243.402C243.402 58.2401 242.54 56.4533 240.901 55.0195L239.584 56.5246ZM241.402 60.332C241.402 61.1834 241.12 62.1348 240.469 63.2012L242.176 64.2429C242.965 62.9493 243.402 61.6406 243.402 60.332H241.402ZM240.473 63.1947C239.815 64.2552 238.74 65.5195 237.209 66.9912L238.596 68.4329C240.185 66.9046 241.39 65.5089 242.172 64.2494L240.473 63.1947ZM237.214 66.9866L233.104 70.8866L234.481 72.3374L238.591 68.4374L237.214 66.9866ZM233.792 72.612H242.582V70.612H233.792V72.612ZM241.582 71.612V75.332H243.582V71.612H241.582ZM242.582 74.332H227.792V76.332H242.582V74.332ZM228.792 75.332V72.422H226.792V75.332H228.792ZM228.482 73.1458L236.192 65.7958L234.812 64.3482L227.102 71.6982L228.482 73.1458ZM236.198 65.7903C237.192 64.8276 237.973 63.9143 238.511 63.051C239.045 62.1947 239.382 61.3191 239.382 60.452H237.382C237.382 60.805 237.24 61.3094 236.814 61.993C236.392 62.6698 235.733 63.4564 234.807 64.3538L236.198 65.7903ZM237.157 88.352L237.749 87.5464H237.749L237.157 88.352ZM232.267 88.142L232.736 89.0252L232.746 89.0199L232.267 88.142ZM230.857 89.492L230.428 90.3955L231.288 90.8038L231.738 89.9642L230.857 89.492ZM227.317 87.812L226.428 87.353L225.953 88.272L226.888 88.7155L227.317 87.812ZM230.197 84.962L230.671 85.8426L230.681 85.8368L230.197 84.962ZM240.037 85.652L239.408 86.4298L239.409 86.4308L240.037 85.652ZM239.947 94.442L239.328 93.6561L238.227 94.5226L239.405 95.2823L239.947 94.442ZM240.457 103.952L239.831 103.172L240.457 103.952ZM229.897 104.492L229.364 105.339L229.373 105.344L229.897 104.492ZM227.047 101.072L226.715 100.129L225.767 100.462L226.105 101.408L227.047 101.072ZM230.797 99.752L231.748 99.4442L231.432 98.4681L230.465 98.8088L230.797 99.752ZM232.207 101.432L231.685 102.285L231.694 102.291L231.703 102.296L232.207 101.432ZM237.577 101.252L238.156 102.067L238.163 102.062L238.17 102.057L237.577 101.252ZM237.577 97.172L236.987 97.9798L236.999 97.9888L237.012 97.9973L237.577 97.172ZM233.257 96.362H232.257V97.362H233.257V96.362ZM233.257 92.852V91.852H232.257V92.852H233.257ZM239.177 90.182C239.177 89.0864 238.635 88.1979 237.749 87.5464L236.564 89.1577C237.038 89.5061 237.177 89.8377 237.177 90.182H239.177ZM237.749 87.5464C236.858 86.891 235.765 86.602 234.547 86.602V88.602C235.449 88.602 236.096 88.8131 236.564 89.1577L237.749 87.5464ZM234.547 86.602C233.544 86.602 232.615 86.8131 231.788 87.2641L232.746 89.0199C233.239 88.7509 233.83 88.602 234.547 88.602V86.602ZM231.798 87.2589C231.008 87.6785 230.382 88.2612 229.975 89.0198L231.738 89.9642C231.932 89.6028 232.246 89.2856 232.736 89.0251L231.798 87.2589ZM231.285 88.5886L227.745 86.9086L226.888 88.7155L230.428 90.3955L231.285 88.5886ZM228.205 88.271C228.724 87.2668 229.531 86.4563 230.671 85.8425L229.723 84.0816C228.262 84.8678 227.149 85.9573 226.428 87.353L228.205 88.271ZM230.681 85.8368C231.82 85.2062 233.111 84.882 234.577 84.882V82.882C232.803 82.882 231.174 83.2778 229.712 84.0872L230.681 85.8368ZM234.577 84.882C236.567 84.882 238.154 85.4162 239.408 86.4298L240.665 84.8743C238.999 83.5279 236.947 82.882 234.577 82.882V84.882ZM239.409 86.4308C240.624 87.4095 241.197 88.598 241.197 90.062H243.197C243.197 87.9661 242.329 86.2146 240.664 84.8733L239.409 86.4308ZM241.197 90.062C241.197 91.4629 240.614 92.6446 239.328 93.6561L240.565 95.228C242.279 93.8794 243.197 92.1412 243.197 90.062H241.197ZM239.405 95.2823C241.005 96.3146 241.737 97.6409 241.737 99.332H243.737C243.737 96.9032 242.609 94.9695 240.489 93.6017L239.405 95.2823ZM241.737 99.332C241.737 100.872 241.127 102.131 239.831 103.172L241.083 104.732C242.826 103.333 243.737 101.512 243.737 99.332H241.737ZM239.831 103.172C238.516 104.228 236.857 104.782 234.787 104.782V106.782C237.236 106.782 239.358 106.117 241.083 104.732L239.831 103.172ZM234.787 104.782C233.086 104.782 231.643 104.391 230.42 103.64L229.373 105.344C230.951 106.313 232.767 106.782 234.787 106.782V104.782ZM230.429 103.645C229.196 102.871 228.404 101.901 227.988 100.736L226.105 101.408C226.689 103.043 227.797 104.354 229.365 105.339L230.429 103.645ZM227.379 102.015L231.129 100.695L230.465 98.8088L226.715 100.129L227.379 102.015ZM229.845 100.06C230.152 101.007 230.8 101.744 231.685 102.285L232.728 100.579C232.173 100.24 231.882 99.8571 231.748 99.4442L229.845 100.06ZM231.703 102.296C232.601 102.82 233.631 103.062 234.757 103.062V101.062C233.922 101.062 233.253 100.884 232.711 100.568L231.703 102.296ZM234.757 103.062C236.042 103.062 237.195 102.75 238.156 102.067L236.997 100.437C236.438 100.834 235.712 101.062 234.757 101.062V103.062ZM238.17 102.057C239.149 101.335 239.717 100.352 239.717 99.152H237.717C237.717 99.6316 237.524 100.049 236.983 100.447L238.17 102.057ZM239.717 99.152C239.717 97.9681 239.126 97.0205 238.141 96.3467L237.012 97.9973C237.547 98.3636 237.717 98.736 237.717 99.152H239.717ZM238.166 96.3642C237.226 95.6781 236.1 95.362 234.847 95.362V97.362C235.754 97.362 236.447 97.5859 236.987 97.9798L238.166 96.3642ZM234.847 95.362H233.257V97.362H234.847V95.362ZM234.257 96.362V92.852H232.257V96.362H234.257ZM233.257 93.852H234.337V91.852H233.257V93.852ZM234.337 93.852C235.574 93.852 236.689 93.5639 237.627 92.9306L236.507 91.2734C235.964 91.6402 235.259 91.852 234.337 91.852V93.852ZM237.627 92.9306C238.595 92.276 239.177 91.3465 239.177 90.182H237.177C237.177 90.5775 237.018 90.928 236.507 91.2734L237.627 92.9306ZM236.508 135.332H235.508V136.332H236.508V135.332ZM236.508 131.312H237.508V130.312H236.508V131.312ZM225.618 131.312H224.618V132.312H225.618V131.312ZM225.618 127.592L224.851 126.951L224.618 127.229V127.592H225.618ZM236.688 114.332V113.332H236.22L235.921 113.691L236.688 114.332ZM240.378 114.332H241.378V113.332H240.378V114.332ZM240.378 127.592H239.378V128.592H240.378V127.592ZM243.048 127.592H244.048V126.592H243.048V127.592ZM243.048 131.312V132.312H244.048V131.312H243.048ZM240.378 131.312V130.312H239.378V131.312H240.378ZM240.378 135.332V136.332H241.378V135.332H240.378ZM236.508 120.122H237.508V117.365L235.741 119.481L236.508 120.122ZM230.268 127.592L229.501 126.951L228.13 128.592H230.268V127.592ZM236.508 127.592V128.592H237.508V127.592H236.508ZM237.508 135.332V131.312H235.508V135.332H237.508ZM236.508 130.312H225.618V132.312H236.508V130.312ZM226.618 131.312V127.592H224.618V131.312H226.618ZM226.386 128.233L237.456 114.973L235.921 113.691L224.851 126.951L226.386 128.233ZM236.688 115.332H240.378V113.332H236.688V115.332ZM239.378 114.332V127.592H241.378V114.332H239.378ZM240.378 128.592H243.048V126.592H240.378V128.592ZM242.048 127.592V131.312H244.048V127.592H242.048ZM243.048 130.312H240.378V132.312H243.048V130.312ZM239.378 131.312V135.332H241.378V131.312H239.378ZM240.378 134.332H236.508V136.332H240.378V134.332ZM235.741 119.481L229.501 126.951L231.036 128.233L237.276 120.763L235.741 119.481ZM230.268 128.592H236.508V126.592H230.268V128.592ZM237.508 127.592V120.122H235.508V127.592H237.508Z" fill="black"/>
</svg>
