<svg width="342" height="180" viewBox="0 0 342 180" fill="none" xmlns="http://www.w3.org/2000/svg">
<rect width="341" height="180" transform="translate(0.203125)" fill="#F5F5F5"/>
<path d="M235.203 78.5C235.203 87.3642 233.457 96.1417 230.065 104.331C226.673 112.521 221.701 119.962 215.433 126.23C209.165 132.498 201.724 137.47 193.534 140.862C185.345 144.254 176.567 146 167.703 146C158.839 146 150.061 144.254 141.872 140.862C133.683 137.47 126.241 132.498 119.973 126.23C113.705 119.962 108.733 112.521 105.341 104.331C101.949 96.1416 100.203 87.3642 100.203 78.5L167.703 78.5H235.203Z" fill="#AB85FF"/>
<mask id="mask0" mask-type="alpha" maskUnits="userSpaceOnUse" x="100" y="78" width="136" height="68">
<path d="M235.203 78.5C235.203 87.3642 233.457 96.1417 230.065 104.331C226.673 112.521 221.701 119.962 215.433 126.23C209.165 132.498 201.724 137.47 193.534 140.862C185.345 144.254 176.567 146 167.703 146C158.839 146 150.061 144.254 141.872 140.862C133.683 137.47 126.241 132.498 119.973 126.23C113.705 119.962 108.733 112.521 105.341 104.331C101.949 96.1416 100.203 87.3642 100.203 78.5L167.703 78.5H235.203Z" fill="#A57CFE"/>
</mask>
<g mask="url(#mask0)">
<path d="M74.0731 92.6303C114.661 56.1148 148.842 55.7086 176.614 91.4115C204.387 127.114 238.567 126.708 279.156 90.1926" stroke="#B491FF" stroke-width="2"/>
<path d="M77.5097 122.967C112.263 80.8593 146.009 75.4116 178.748 106.623C211.486 137.835 245.232 132.388 279.985 90.2803" stroke="#B491FF" stroke-width="2"/>
<path d="M76.3445 131.098C115.383 92.9294 149.517 91.1052 178.747 125.625C207.977 160.145 242.111 158.321 281.149 120.152" stroke="#B491FF" stroke-width="2"/>
<path d="M75.5206 139.137C118.81 105.868 152.92 108.105 177.849 145.848C202.779 183.591 236.888 185.828 280.178 152.559" stroke="#B491FF" stroke-width="2"/>
<path d="M106.86 52.9389C144.325 28.4261 172.077 32.3754 190.116 64.7866C208.155 97.1979 235.907 101.147 273.371 76.6344" stroke="#B491FF" stroke-width="2"/>
</g>
<path d="M222.203 78.5C222.203 72.6562 221.052 66.8696 218.816 61.4706C216.579 56.0716 213.302 51.166 209.169 47.0337C205.037 42.9015 200.132 39.6237 194.733 37.3874C189.334 35.151 183.547 34 177.703 34C171.859 34 166.073 35.151 160.674 37.3874C155.275 39.6237 150.369 42.9015 146.237 47.0338C142.105 51.166 138.827 56.0716 136.59 61.4706C134.354 66.8696 133.203 72.6562 133.203 78.5L177.703 78.5H222.203Z" fill="#31D67B"/>
<path d="M53.2031 56H172.203" stroke="black"/>
<path d="M113.203 49L172.203 49" stroke="black"/>
<path d="M88.2031 64L172.203 64" stroke="black"/>
<path d="M70.2031 64L83.2031 64" stroke="black"/>
<path d="M80.2031 49L108.203 49" stroke="black"/>
<circle cx="210.578" cy="110.375" r="1.375" fill="#D4D4D4"/>
<circle cx="216.328" cy="110.375" r="1.375" fill="#D4D4D4"/>
<circle cx="222.078" cy="110.375" r="1.375" fill="#D4D4D4"/>
<circle cx="227.828" cy="110.375" r="1.375" fill="#D4D4D4"/>
<circle cx="233.578" cy="110.375" r="1.375" fill="#D4D4D4"/>
<circle cx="239.328" cy="110.375" r="1.375" fill="#D4D4D4"/>
<circle cx="245.078" cy="110.375" r="1.375" fill="#D4D4D4"/>
<circle cx="250.828" cy="110.375" r="1.375" fill="#D4D4D4"/>
<circle cx="256.578" cy="110.375" r="1.375" fill="#D4D4D4"/>
<circle cx="210.578" cy="116.125" r="1.375" fill="#D4D4D4"/>
<circle cx="216.328" cy="116.125" r="1.375" fill="#D4D4D4"/>
<circle cx="210.578" cy="121.875" r="1.375" fill="#D4D4D4"/>
<circle cx="216.328" cy="121.875" r="1.375" fill="#D4D4D4"/>
<circle cx="222.078" cy="121.875" r="1.375" fill="#D4D4D4"/>
<circle cx="227.828" cy="121.875" r="1.375" fill="#D4D4D4"/>
<circle cx="233.578" cy="121.875" r="1.375" fill="#D4D4D4"/>
<circle cx="239.328" cy="121.875" r="1.375" fill="#D4D4D4"/>
<circle cx="245.078" cy="121.875" r="1.375" fill="#D4D4D4"/>
<circle cx="250.828" cy="121.875" r="1.375" fill="#D4D4D4"/>
<circle cx="256.578" cy="121.875" r="1.375" fill="#D4D4D4"/>
<circle cx="222.078" cy="116.125" r="1.375" fill="#D4D4D4"/>
<circle cx="227.828" cy="116.125" r="1.375" fill="#D4D4D4"/>
<circle cx="233.578" cy="116.125" r="1.375" fill="#D4D4D4"/>
<circle cx="239.328" cy="116.125" r="1.375" fill="#D4D4D4"/>
<circle cx="245.078" cy="116.125" r="1.375" fill="#D4D4D4"/>
<circle cx="250.828" cy="116.125" r="1.375" fill="#D4D4D4"/>
<circle cx="256.578" cy="116.125" r="1.375" fill="#D4D4D4"/>
</svg>
