<svg width="237" height="101" viewBox="0 0 237 101" fill="none" xmlns="http://www.w3.org/2000/svg">
<path d="M188.782 76.91C188.782 79.9448 187.064 82.9033 183.806 85.6588C180.551 88.4123 175.81 90.9146 169.908 93.0258C158.109 97.2467 141.775 99.8669 123.709 99.8669C105.644 99.8669 89.3103 97.2467 77.5109 93.0258C71.6091 90.9146 66.8684 88.4123 63.6126 85.6588C60.3547 82.9033 58.6367 79.9448 58.6367 76.91C58.6367 73.8752 60.3547 70.9168 63.6126 68.1613C66.8684 65.4078 71.6091 62.9055 77.5109 60.7943C89.3103 56.5734 105.644 53.9531 123.709 53.9531C141.775 53.9531 158.109 56.5734 169.908 60.7943C175.81 62.9055 180.551 65.4078 183.806 68.1613C187.064 70.9168 188.782 73.8752 188.782 76.91Z" stroke="url(#paint0_linear)"/>
<path d="M98.1211 71.5781L105.585 76.9092" stroke="url(#paint1_linear)"/>
<path d="M106.121 71.5781L97.5913 76.9092" stroke="url(#paint2_linear)"/>
<path d="M37.8789 44.6453C51.029 38.7811 81.5941 34.9426 98.6536 66.5029M98.6536 66.5029C98.6536 56.2671 98.6536 55.1297 98.6536 55.8406V66.5029ZM98.6536 66.5029C95.8104 64.5481 89.804 60.5319 88.5245 60.1055" stroke="url(#paint3_linear)"/>
<path d="M197.812 22.2547C184.662 16.3904 154.097 12.552 137.038 44.1122M137.038 44.1122C137.038 33.8764 137.038 32.7391 137.038 33.4499V44.1122ZM137.038 44.1122C139.881 42.1575 145.887 38.1413 147.167 37.7148" stroke="url(#paint4_linear)"/>
<rect x="205.437" y="0.78508" width="31.1813" height="43.176" fill="white"/>
<rect x="208.789" y="6.57024" width="24.0582" height="2.43627" stroke="url(#paint5_linear)" stroke-width="0.304534"/>
<rect x="208.789" y="12.3554" width="24.0582" height="2.43627" stroke="url(#paint6_linear)" stroke-width="0.304534"/>
<rect x="208.789" y="18.1445" width="24.0582" height="2.43627" stroke="url(#paint7_linear)" stroke-width="0.304534"/>
<rect x="208.789" y="23.9296" width="24.0582" height="2.43627" stroke="url(#paint8_linear)" stroke-width="0.304534"/>
<rect x="208.789" y="29.7148" width="24.0582" height="2.43627" stroke="url(#paint9_linear)" stroke-width="0.304534"/>
<rect x="208.789" y="35.4999" width="24.0582" height="2.43627" stroke="url(#paint10_linear)" stroke-width="0.304534"/>
<rect x="205.437" y="0.78508" width="31.1813" height="43.176" stroke="url(#paint11_linear)" stroke-width="0.304534"/>
<rect x="0.386642" y="28.2499" width="31.1813" height="43.176" fill="white"/>
<rect x="3.7382" y="34.0351" width="24.0582" height="2.43627" stroke="url(#paint12_linear)" stroke-width="0.304534"/>
<rect x="3.7382" y="39.8202" width="24.0582" height="2.43627" stroke="url(#paint13_linear)" stroke-width="0.304534"/>
<rect x="3.7382" y="45.6093" width="24.0582" height="2.43627" stroke="url(#paint14_linear)" stroke-width="0.304534"/>
<rect x="3.7382" y="51.3945" width="24.0582" height="2.43627" stroke="url(#paint15_linear)" stroke-width="0.304534"/>
<rect x="3.7382" y="57.1796" width="24.0582" height="2.43627" stroke="url(#paint16_linear)" stroke-width="0.304534"/>
<rect x="3.7382" y="62.9648" width="24.0582" height="2.43627" stroke="url(#paint17_linear)" stroke-width="0.304534"/>
<rect x="0.386642" y="28.2499" width="31.1813" height="43.176" stroke="url(#paint18_linear)" stroke-width="0.304534"/>
<defs>
<linearGradient id="paint0_linear" x1="36.8037" y1="105.052" x2="65.5236" y2="1.27036" gradientUnits="userSpaceOnUse">
<stop stop-color="#AB85FF"/>
<stop offset="0.526042" stop-color="#EBA3E3"/>
<stop offset="1" stop-color="#FFDBE4"/>
</linearGradient>
<linearGradient id="paint1_linear" x1="96.907" y1="77.4417" x2="102.282" y2="67.715" gradientUnits="userSpaceOnUse">
<stop stop-color="#AB85FF"/>
<stop offset="0.526042" stop-color="#EBA3E3"/>
<stop offset="1" stop-color="#FFDBE4"/>
</linearGradient>
<linearGradient id="paint2_linear" x1="107.509" y1="77.4417" x2="102.533" y2="67.1508" gradientUnits="userSpaceOnUse">
<stop stop-color="#AB85FF"/>
<stop offset="0.526042" stop-color="#EBA3E3"/>
<stop offset="1" stop-color="#FFDBE4"/>
</linearGradient>
<linearGradient id="paint3_linear" x1="27.9929" y1="69.0841" x2="46.2668" y2="13.5402" gradientUnits="userSpaceOnUse">
<stop stop-color="#AB85FF"/>
<stop offset="0.526042" stop-color="#EBA3E3"/>
<stop offset="1" stop-color="#FFDBE4"/>
</linearGradient>
<linearGradient id="paint4_linear" x1="207.699" y1="46.6935" x2="189.425" y2="-8.85046" gradientUnits="userSpaceOnUse">
<stop stop-color="#AB85FF"/>
<stop offset="0.526042" stop-color="#EBA3E3"/>
<stop offset="1" stop-color="#FFDBE4"/>
</linearGradient>
<linearGradient id="paint5_linear" x1="204.674" y1="9.4325" x2="205.238" y2="2.95408" gradientUnits="userSpaceOnUse">
<stop stop-color="#AB85FF"/>
<stop offset="0.526042" stop-color="#EBA3E3"/>
<stop offset="1" stop-color="#FFDBE4"/>
</linearGradient>
<linearGradient id="paint6_linear" x1="204.674" y1="15.2177" x2="205.238" y2="8.73924" gradientUnits="userSpaceOnUse">
<stop stop-color="#AB85FF"/>
<stop offset="0.526042" stop-color="#EBA3E3"/>
<stop offset="1" stop-color="#FFDBE4"/>
</linearGradient>
<linearGradient id="paint7_linear" x1="204.674" y1="21.0067" x2="205.238" y2="14.5283" gradientUnits="userSpaceOnUse">
<stop stop-color="#AB85FF"/>
<stop offset="0.526042" stop-color="#EBA3E3"/>
<stop offset="1" stop-color="#FFDBE4"/>
</linearGradient>
<linearGradient id="paint8_linear" x1="204.674" y1="26.7919" x2="205.238" y2="20.3135" gradientUnits="userSpaceOnUse">
<stop stop-color="#AB85FF"/>
<stop offset="0.526042" stop-color="#EBA3E3"/>
<stop offset="1" stop-color="#FFDBE4"/>
</linearGradient>
<linearGradient id="paint9_linear" x1="204.674" y1="32.577" x2="205.238" y2="26.0986" gradientUnits="userSpaceOnUse">
<stop stop-color="#AB85FF"/>
<stop offset="0.526042" stop-color="#EBA3E3"/>
<stop offset="1" stop-color="#FFDBE4"/>
</linearGradient>
<linearGradient id="paint10_linear" x1="204.674" y1="38.3622" x2="205.238" y2="31.8838" gradientUnits="userSpaceOnUse">
<stop stop-color="#AB85FF"/>
<stop offset="0.526042" stop-color="#EBA3E3"/>
<stop offset="1" stop-color="#FFDBE4"/>
</linearGradient>
<linearGradient id="paint11_linear" x1="200.163" y1="48.4557" x2="251.827" y2="0.0950242" gradientUnits="userSpaceOnUse">
<stop stop-color="#AB85FF"/>
<stop offset="0.526042" stop-color="#EBA3E3"/>
<stop offset="1" stop-color="#FFDBE4"/>
</linearGradient>
<linearGradient id="paint12_linear" x1="-0.37707" y1="36.8973" x2="0.186743" y2="30.4189" gradientUnits="userSpaceOnUse">
<stop stop-color="#AB85FF"/>
<stop offset="0.526042" stop-color="#EBA3E3"/>
<stop offset="1" stop-color="#FFDBE4"/>
</linearGradient>
<linearGradient id="paint13_linear" x1="-0.37707" y1="42.6825" x2="0.186743" y2="36.2041" gradientUnits="userSpaceOnUse">
<stop stop-color="#AB85FF"/>
<stop offset="0.526042" stop-color="#EBA3E3"/>
<stop offset="1" stop-color="#FFDBE4"/>
</linearGradient>
<linearGradient id="paint14_linear" x1="-0.37707" y1="48.4716" x2="0.186743" y2="41.9931" gradientUnits="userSpaceOnUse">
<stop stop-color="#AB85FF"/>
<stop offset="0.526042" stop-color="#EBA3E3"/>
<stop offset="1" stop-color="#FFDBE4"/>
</linearGradient>
<linearGradient id="paint15_linear" x1="-0.37707" y1="54.2567" x2="0.186743" y2="47.7783" gradientUnits="userSpaceOnUse">
<stop stop-color="#AB85FF"/>
<stop offset="0.526042" stop-color="#EBA3E3"/>
<stop offset="1" stop-color="#FFDBE4"/>
</linearGradient>
<linearGradient id="paint16_linear" x1="-0.37707" y1="60.0419" x2="0.186743" y2="53.5635" gradientUnits="userSpaceOnUse">
<stop stop-color="#AB85FF"/>
<stop offset="0.526042" stop-color="#EBA3E3"/>
<stop offset="1" stop-color="#FFDBE4"/>
</linearGradient>
<linearGradient id="paint17_linear" x1="-0.37707" y1="65.827" x2="0.186743" y2="59.3486" gradientUnits="userSpaceOnUse">
<stop stop-color="#AB85FF"/>
<stop offset="0.526042" stop-color="#EBA3E3"/>
<stop offset="1" stop-color="#FFDBE4"/>
</linearGradient>
<linearGradient id="paint18_linear" x1="-4.88733" y1="75.9205" x2="46.7763" y2="27.5599" gradientUnits="userSpaceOnUse">
<stop stop-color="#AB85FF"/>
<stop offset="0.526042" stop-color="#EBA3E3"/>
<stop offset="1" stop-color="#FFDBE4"/>
</linearGradient>
</defs>
</svg>
