<svg width="210" height="83" viewBox="0 0 210 83" fill="none" xmlns="http://www.w3.org/2000/svg">
<path d="M64.5432 13.2422H1.47614V67.849H64.5432M64.5432 13.2422V67.849M64.5432 13.2422L76.1055 16.6766V63.7277L64.5432 67.849" stroke="url(#paint0_linear)"/>
<rect x="144.97" y="20.0641" width="48.8087" height="4.5631" stroke="url(#paint1_linear)" stroke-width="0.8"/>
<rect x="144.97" y="32.8023" width="48.8087" height="4.5631" stroke="url(#paint2_linear)" stroke-width="0.8"/>
<rect x="144.97" y="45.5406" width="48.8087" height="4.5631" stroke="url(#paint3_linear)" stroke-width="0.8"/>
<path d="M126.618 0.5H208.529V72.854H126.618M126.618 0.5V72.854M126.618 0.5L111.602 5.05057V67.3934L126.618 72.854" stroke="url(#paint4_linear)"/>
<path d="M99.205 36.9062H150.735V81.5018H99.205L89.7578 78.1361V39.711L99.205 36.9062Z" fill="white"/>
<path d="M99.205 36.9062H150.735V81.5018H99.205M99.205 36.9062V81.5018M99.205 36.9062L89.7578 39.711V78.1361L99.205 81.5018" stroke="url(#paint5_linear)"/>
<rect x="15.2" y="27.7" width="36.6" height="3.6" stroke="url(#paint6_linear)" stroke-width="0.4"/>
<rect x="15.2" y="37.2" width="36.6" height="3.6" stroke="url(#paint7_linear)" stroke-width="0.4"/>
<rect x="15.2" y="46.7" width="36.6" height="3.6" stroke="url(#paint8_linear)" stroke-width="0.4"/>
<rect x="107.626" y="49.243" width="32.2864" height="3.13367" stroke="url(#paint9_linear)" stroke-width="0.4"/>
<rect x="107.626" y="57.6336" width="32.2864" height="3.13367" stroke="url(#paint10_linear)" stroke-width="0.4"/>
<rect x="107.626" y="66.0281" width="32.2864" height="3.13367" stroke="url(#paint11_linear)" stroke-width="0.4"/>
<defs>
<linearGradient id="paint0_linear" x1="88.2452" y1="73.3026" x2="32.4935" y2="-25.1907" gradientUnits="userSpaceOnUse">
<stop stop-color="#AB85FF"/>
<stop offset="0.526042" stop-color="#EBA3E3"/>
<stop offset="1" stop-color="#FFDBE4"/>
</linearGradient>
<linearGradient id="paint1_linear" x1="136.501" y1="25.5628" x2="137.561" y2="12.8788" gradientUnits="userSpaceOnUse">
<stop stop-color="#AB85FF"/>
<stop offset="0.526042" stop-color="#EBA3E3"/>
<stop offset="1" stop-color="#FFDBE4"/>
</linearGradient>
<linearGradient id="paint2_linear" x1="136.501" y1="38.3011" x2="137.561" y2="25.6171" gradientUnits="userSpaceOnUse">
<stop stop-color="#AB85FF"/>
<stop offset="0.526042" stop-color="#EBA3E3"/>
<stop offset="1" stop-color="#FFDBE4"/>
</linearGradient>
<linearGradient id="paint3_linear" x1="136.501" y1="51.0393" x2="137.561" y2="38.3553" gradientUnits="userSpaceOnUse">
<stop stop-color="#AB85FF"/>
<stop offset="0.526042" stop-color="#EBA3E3"/>
<stop offset="1" stop-color="#FFDBE4"/>
</linearGradient>
<linearGradient id="paint4_linear" x1="95.8347" y1="80.08" x2="170.458" y2="-49.1447" gradientUnits="userSpaceOnUse">
<stop stop-color="#AB85FF"/>
<stop offset="0.526042" stop-color="#EBA3E3"/>
<stop offset="1" stop-color="#FFDBE4"/>
</linearGradient>
<linearGradient id="paint5_linear" x1="79.8388" y1="85.9556" x2="125.358" y2="5.5" gradientUnits="userSpaceOnUse">
<stop stop-color="#AB85FF"/>
<stop offset="0.526042" stop-color="#EBA3E3"/>
<stop offset="1" stop-color="#FFDBE4"/>
</linearGradient>
<linearGradient id="paint6_linear" x1="8.98133" y1="31.8995" x2="9.7725" y2="22.4393" gradientUnits="userSpaceOnUse">
<stop stop-color="#AB85FF"/>
<stop offset="0.526042" stop-color="#EBA3E3"/>
<stop offset="1" stop-color="#FFDBE4"/>
</linearGradient>
<linearGradient id="paint7_linear" x1="8.98133" y1="41.3995" x2="9.7725" y2="31.9393" gradientUnits="userSpaceOnUse">
<stop stop-color="#AB85FF"/>
<stop offset="0.526042" stop-color="#EBA3E3"/>
<stop offset="1" stop-color="#FFDBE4"/>
</linearGradient>
<linearGradient id="paint8_linear" x1="8.98133" y1="50.8995" x2="9.7725" y2="41.4393" gradientUnits="userSpaceOnUse">
<stop stop-color="#AB85FF"/>
<stop offset="0.526042" stop-color="#EBA3E3"/>
<stop offset="1" stop-color="#FFDBE4"/>
</linearGradient>
<linearGradient id="paint9_linear" x1="102.109" y1="52.9295" x2="102.808" y2="44.5722" gradientUnits="userSpaceOnUse">
<stop stop-color="#AB85FF"/>
<stop offset="0.526042" stop-color="#EBA3E3"/>
<stop offset="1" stop-color="#FFDBE4"/>
</linearGradient>
<linearGradient id="paint10_linear" x1="102.109" y1="61.3202" x2="102.808" y2="52.9629" gradientUnits="userSpaceOnUse">
<stop stop-color="#AB85FF"/>
<stop offset="0.526042" stop-color="#EBA3E3"/>
<stop offset="1" stop-color="#FFDBE4"/>
</linearGradient>
<linearGradient id="paint11_linear" x1="102.109" y1="69.7147" x2="102.808" y2="61.3574" gradientUnits="userSpaceOnUse">
<stop stop-color="#AB85FF"/>
<stop offset="0.526042" stop-color="#EBA3E3"/>
<stop offset="1" stop-color="#FFDBE4"/>
</linearGradient>
</defs>
</svg>
