<svg width="183" height="107" viewBox="0 0 183 107" fill="none" xmlns="http://www.w3.org/2000/svg">
<path d="M56.179 48.9584L54.529 48.0013V50.7854L55.2237 56.1797L57.7423 63.923L58.6107 66.0981V67.4902L59.1318 69.6653L58.6107 71.9274L59.1318 74.6245L58.6107 76.6256L55.2237 77.4957L52.7052 79.0617L50.0998 81.6719L49.1445 84.021L50.9683 86.3701L53.4 87.8491C53.8921 88.3132 54.8764 89.3108 54.8764 89.5892C54.8764 89.8676 55.1079 90.7493 55.2237 91.1553L54.6158 92.6344L54.0947 94.8095L53.7474 95.9405L52.7052 96.9846V98.7246V100.9C53.3131 101.306 54.5985 102.153 54.8764 102.292C55.1543 102.431 55.5132 102.002 55.658 101.77L55.2237 99.9427L56.0922 98.7246L58.0028 100.291H60.6082L62.0846 98.7246L63.6478 97.4196L64.8636 95.2445L67.9032 94.8095H69.5533L71.985 94.2874H73.4614L74.4167 93.9394L75.5457 92.8954H77.3694L78.2379 93.9394H83.0144L87.6173 94.8095H90.7437L93.6096 96.5495H96.5624L98.9072 97.4196L100.384 96.9846H102.728V98.7246L103.51 99.0727V100.291H105.681H107.331L107.852 99.9427H108.808L109.329 101.683L109.937 102.901L110.805 102.031L112.108 99.9427L112.803 100.726H114.626L116.45 98.7246L117.926 101.335L118.708 101.683L120.011 100.291L121.835 100.726L122.616 102.901L123.658 103.684L124.266 103.336V102.466L124.614 101.335L125.482 100.291H126.09H127.219L128.001 99.9427L128.869 98.7246L129.911 100.291V101.683L130.867 103.336L131.822 104.815L132.517 104.119H134.514V102.901L135.035 102.466L136.598 101.335L136.946 102.466L138.248 102.901H139.291L139.812 102.031L140.941 101.335H143.546L144.675 102.031L146.499 105.163L148.757 105.772L149.625 104.815V102.901L149.278 101.335L148.236 98.7246L147.628 97.4196L148.236 96.5495L149.278 95.5925L150.059 93.3304L150.841 91.9383L153.012 90.7203V89.5022L153.446 88.2842L154.402 87.4141L156.226 88.4582L157.615 88.2842L158.223 87.4141L159.178 86.8921H161.002H164.302V85.152L163.521 84.282L162.826 83.2379L161.697 81.9329L161.349 79.2357L161.697 78.1917V76.6256L161.002 75.5816C160.655 75.3206 159.89 74.7637 159.612 74.6245C159.335 74.4853 160.076 74.0445 160.481 73.8415L161.002 72.3624L159.612 71.5794L159.96 70.5353L158.657 69.4913L157.354 67.8382L156.486 66.8812L157.354 66.0981L157.615 64.3581V63.227L158.657 63.749L159.96 63.227H161.697L164.302 65.0541H166.734L169.426 64.3581L170.208 63.227L170.989 62.444L171.597 60.9649V60.0949H172.9L173.855 59.3988L175.332 58.5288V57.2237L174.811 55.7447H173.855L171.597 54.3526L170.989 53.3956V52.6125V51.5685L170.208 50.6114H168.992L167.515 49.5674L165.431 49.0454L162.826 49.5674H161.349L161.697 49.0454L162.305 47.5663L162.826 46.0002V44.8692L162.305 43.7381L161.002 43.3031L159.96 42.7811L158.049 42.3461L156.052 41.041L154.923 40.693V38.6049L154.402 37.2128L153.36 35.7338L152.144 35.5597V34.8637L152.752 33.9937L153.099 33.2106V32.0796L152.752 31.3836H150.667L150.32 30.9485L147.975 29.7305L147.454 28.7734L147.975 27.8164V26.6853L148.93 25.9893L149.973 24.4232L150.32 22.6832L149.973 21.1171L147.454 18.507L148.323 17.2889L148.93 16.0709V13.7218V12.5907L147.975 11.0246L146.412 11.4596H145.978L144.762 10.6766L144.241 9.11054L141.114 7.54447L140.68 7.10945L138.943 6.76143H138.075L137.467 7.10945L135.73 6.76143L134.514 7.10945L133.906 8.2405H133.211H131.996L130.953 9.11054L130.519 10.1546H129.738L129.303 9.11054V7.54447L129.738 6.0654L129.303 5.10836L126.785 4.06431L124.093 3.45528C123.745 3.65829 122.981 4.06431 122.703 4.06431C122.425 4.06431 121.777 4.76034 121.487 5.10836L120.532 4.58633L120.184 3.10727L119.663 2.32423H115.929L115.321 3.10727L114.105 1.36719H112.889L110.979 2.32423L108.981 3.45528L109.242 5.10836H107.679L106.984 6.0654V8.58852L106.202 9.11054H105.247H103.944H103.076L101.599 8.2405H100.036L96.8229 11.4596L96.0413 11.0246H95.086L94.3044 11.9817L95.086 13.0257L93.1754 15.3748L93.6965 17.8979L92.0464 19.203V19.899L94.3044 20.16L96.0413 19.899L96.8229 20.6821L95.5202 21.7261L95.086 23.2052H94.4781L93.1754 23.5532H92.0464H90.3963L89.6147 24.4232V25.9893L88.8331 26.8594L85.9672 27.8164L83.5355 30.2525V35.5597L82.2328 37.5608L81.1038 40.519L80.7564 41.824H78.3247L76.3273 42.6941L75.5457 44.1731L74.4167 45.2172L72.9403 44.5212L71.8113 45.2172L70.5086 45.8262L71.8113 47.4793L70.5086 48.6103V47.4793H69.6402L65.6452 50.2634L64.4294 48.9584L63.2136 48.6103L62.6056 48.9584H61.0424L60.0003 48.6103L59.1318 48.9584L58.6107 49.7414L58.0897 48.9584H56.179Z" stroke="url(#paint0_linear)" stroke-width="0.751113"/>
<path d="M125.63 51.9376L126.358 51.9271L129.591 38.4003L133.836 53.81L130.094 67.5314H119.825L109.333 32.6334H120.423L125.63 51.9376ZM141.856 32.6334L150.828 67.5314H140.22L130.602 32.6334H141.856ZM148.127 47.0494L151.722 32.6334H161.803L152.615 64.6189L148.127 47.0494Z" fill="url(#paint1_linear)" stroke="url(#paint2_linear)" stroke-width="0.751113"/>
<path d="M167.943 53.6442H159.13L160.514 45.8612H169.461H169.777L169.831 45.5499L172.073 32.6334H182.166L175.995 67.5314H154.533L157.318 59.1666H167.126H167.443L167.496 58.8544L168.313 54.0831L168.389 53.6442H167.943Z" fill="url(#paint3_linear)" stroke="url(#paint4_linear)" stroke-width="0.751113"/>
<path d="M138.277 21.6916C146.597 21.949 165.655 19.1185 175.33 5.73828M175.33 5.73828L174.509 12.2988M175.33 5.73828C174.082 6.3087 171.114 7.4638 169.232 7.52086" stroke="url(#paint5_linear)" stroke-width="0.751113"/>
<path d="M39.2031 75.8752C47.5228 76.1325 66.5807 73.3021 76.2556 59.9219M76.2556 59.9219L75.4346 66.4824M76.2556 59.9219C75.0073 60.4923 72.0401 61.6474 70.1575 61.7044" stroke="url(#paint6_linear)" stroke-width="0.751113"/>
<path d="M14.4175 67.9062L17.6018 77.7065H27.9064L19.5698 83.7635L22.7541 93.5638L14.4175 87.5068L6.08086 93.5638L9.26517 83.7635L0.928546 77.7065H11.2332L14.4175 67.9062Z" fill="url(#paint7_linear)"/>
<defs>
<linearGradient id="paint0_linear" x1="28.6181" y1="116.199" x2="141.517" y2="-60.1892" gradientUnits="userSpaceOnUse">
<stop stop-color="#AB85FF"/>
<stop offset="0.526042" stop-color="#EBA3E3"/>
<stop offset="1" stop-color="#FFDBE4"/>
</linearGradient>
<linearGradient id="paint1_linear" x1="100.13" y1="71.4673" x2="134.717" y2="4.40304" gradientUnits="userSpaceOnUse">
<stop stop-color="#AB85FF"/>
<stop offset="0.526042" stop-color="#EBA3E3"/>
<stop offset="1" stop-color="#FFDBE4"/>
</linearGradient>
<linearGradient id="paint2_linear" x1="100.13" y1="71.4673" x2="134.717" y2="4.40304" gradientUnits="userSpaceOnUse">
<stop stop-color="#AB85FF"/>
<stop offset="0.526042" stop-color="#EBA3E3"/>
<stop offset="1" stop-color="#FFDBE4"/>
</linearGradient>
<linearGradient id="paint3_linear" x1="149.359" y1="71.4673" x2="191.782" y2="27.469" gradientUnits="userSpaceOnUse">
<stop stop-color="#AB85FF"/>
<stop offset="0.526042" stop-color="#EBA3E3"/>
<stop offset="1" stop-color="#FFDBE4"/>
</linearGradient>
<linearGradient id="paint4_linear" x1="149.359" y1="71.4673" x2="191.782" y2="27.469" gradientUnits="userSpaceOnUse">
<stop stop-color="#AB85FF"/>
<stop offset="0.526042" stop-color="#EBA3E3"/>
<stop offset="1" stop-color="#FFDBE4"/>
</linearGradient>
<linearGradient id="paint5_linear" x1="132.25" y1="23.302" x2="143.662" y2="-10.9248" gradientUnits="userSpaceOnUse">
<stop stop-color="#AB85FF"/>
<stop offset="0.526042" stop-color="#EBA3E3"/>
<stop offset="1" stop-color="#FFDBE4"/>
</linearGradient>
<linearGradient id="paint6_linear" x1="33.1759" y1="77.4856" x2="44.5873" y2="43.2587" gradientUnits="userSpaceOnUse">
<stop stop-color="#AB85FF"/>
<stop offset="0.526042" stop-color="#EBA3E3"/>
<stop offset="1" stop-color="#FFDBE4"/>
</linearGradient>
<linearGradient id="paint7_linear" x1="-4.37987" y1="99.1054" x2="28.3153" y2="56.8415" gradientUnits="userSpaceOnUse">
<stop stop-color="#AB85FF"/>
<stop offset="0.526042" stop-color="#EBA3E3"/>
<stop offset="1" stop-color="#FFDBE4"/>
</linearGradient>
</defs>
</svg>
