<svg width="341" height="180" fill="none" xmlns="http://www.w3.org/2000/svg"><g clip-path="url(#clip0)"><rect x="161" y="30" width="119" height="119" rx="59.5" fill="#AB85FF"/><path d="M148 89l.2 1.1.3 1.1.2 1.1.3 1.1.2 1.1.3 1.1.2 1.1.3 1.1.2 1 .3 1.1.2 1 .3 1.1.2 1 .3 1 .2 1 .3 1 .2 1 .3 1 .2 1 .3.9.2.9.3.9.2.9.3.8.2.8.3.8.2.8.3.8.2.7.3.7.2.7.2.6.3.6.2.6.3.6.2.5.3.5.2.5.3.5.2.4.3.4.2.3.3.4.2.2.3.3.2.2.3.2.2.2.3.1.2.1h.3l.2.1h.5l.3-.1.2-.1.3-.2.2-.1.3-.2.2-.3.3-.2.2-.3.3-.4.2-.3.2-.4.3-.5.2-.4.3-.5.2-.5.3-.6.2-.5.3-.6.2-.7.3-.6.2-.7.3-.7.2-.8.3-.7.2-.8.3-.8.2-.8.3-.9.2-.9.3-.9.2-.9.3-.9.2-1 .3-1 .2-.9.3-1 .2-1 .3-1 .2-1 .3-1.1.2-1 .2-1.1.3-1.1.2-1 .3-1.2.2-1 .3-1.2.2-1 .3-1.2.2-1.1.3-1.1.2-1.1.3-1.1.2-1.1.3-1.1.2-1.1.3-1.1.2-1.1.3-1.1.2-1 .3-1.1.2-1 .3-1.1.2-1 .3-1 .2-1 .3-1 .2-1 .3-1 .2-1 .3-.8.2-1 .2-.8.3-.9.2-.8.3-.8.2-.8.3-.8.2-.8.3-.7.2-.7.3-.6.2-.7.3-.6.2-.6.3-.5.2-.6.3-.5.2-.4.3-.5.2-.4.3-.4.2-.3.3-.3.2-.3.3-.3.2-.2.3-.2.2-.1.3-.1.2-.1h.3l.2-.1h.5l.2.1.3.2.2.1.3.2.2.2.3.2.2.3.3.3.2.4.3.3.2.4.3.5.2.4.3.5.2.6.3.5.2.6.3.6.2.7.3.6.2.7.3.7.2.8.3.7.2.8.3.8.2.9.3.8.2 1 .2.8.3 1 .2.9.3 1 .2.9.3 1 .2 1 .3 1 .2 1 .3 1 .2 1.1.3 1 .2 1.1.3 1.1.2 1.1.3 1 .2 1.2.3 1 .2 1.2.3 1.1.2 1.1.3 1.1.2 1.1.3 1.1.2 1.1.3 1.1.2 1.1.3 1.1.2 1.1.3 1.1.2 1 .3 1.1.2 1 .2 1.1.3 1 .2 1 .3 1 .2 1 .3 1 .2 1 .3.9.2.9.3.9.2.9.3.8.2.9.3.8.2.8.3.7.2.8.3.7.2.7.3.6.2.7.3.6.2.5.3.6.2.5.3.5.2.5.3.4.2.4.3.4.2.3.2.3.3.3.2.2.3.2.2.2.3.2h.2l.3.1h.2l.3.1h.5l.2-.2h.3l.2-.2.3-.2.2-.3.3-.2.2-.3.3-.3.2-.4.3-.4.2-.4.3-.4.2-.5.3-.5.2-.5.3-.6.2-.6.3-.6.2-.6.2-.7.3-.7.2-.7.3-.8.2-.8.3-.8.2-.8.3-.8.2-.9.3-.9.2-.9.3-.9.2-1 .3-.9.2-1 .3-1 .2-1 .3-1 .2-1 .3-1 .2-1.1.3-1 .2-1.1.3-1.1.2-1.1.3-1.1.2-1 .3-1.2.2-1.1.3-1.1.2-1.1.2-1.1.3-1.1.2-1.1.3-1.2.2-1 .3-1.1.2-1.1.3-1.1.2-1.1.3-1 .2-1.1.3-1 .2-1.1.3-1 .2-1 .3-1 .2-1 .3-1 .2-1 .3-.8.2-1 .3-.8.2-1 .3-.8.2-.8.3-.8.2-.8.3-.7.2-.8.3-.7.2-.7.2-.6.3-.6.2-.6.3-.6.2-.5.3-.6.2-.4.3-.5.2-.4.3-.4.2-.4.3-.3.2-.3.3-.3.2-.2.3-.2.2-.2h.3l.2-.2h.3l.2-.1h.5l.3.1.2.1.3.1.2.2.3.2.2.2.3.3.2.3.3.3.2.4.2.4.3.4.2.4.3.5.2.5.3.6.2.5.3.6.2.7.3.6.2.7.3.7.2.7.3.8.2.8.3.8.2.8.3.9.2.8.3 1 .2.8.3 1 .2.9.3 1 .2 1 .3 1 .2 1 .3 1 .2 1 .3 1 .2 1 .2 1.2.3 1 .2 1.1.3 1.1.2 1.1.3 1.1.2 1.1.3 1.1.2 1.1.3 1.1.2 1.1.3 1.2.2 1 .3 1.2.2 1 .3 1.2.2 1 .3 1.1.2 1.1.3 1 .2 1.1.3 1 .2 1 .3 1.1.2 1 .3 1 .2 1 .3 1 .2.9.3.9.2 1 .2.8.3.9.2.8.3.8.2.8.3.8.2.7.3.8.2.7.3.6.2.7.3.6.2.6.3.6.2.5.3.5.2.5.3.4.2.4.3.4.2.4.3.3.2.3.3.2.2.3.3.1.2.2.3.1.2.1h.3l.2.1h.5l.2-.1.3-.1.2-.2.3-.2.2-.2.3-.2.2-.3.3-.3.2-.3.3-.4.2-.4.3-.4.2-.5.3-.5.2-.5.3-.5.2-.6.3-.6.2-.6.3-.7.2-.7.3-.7.2-.7.3-.8.2-.8.3-.8.2-.8.3-.9.2-.9.2-.9.3-.9.2-1 .3-.9.2-1 .3-1 .2-1 .3-1 .2-1 .3-1 .2-1 .3-1 .2-1.2.3-1 .2-1.1.3-1.1.2-1.1.3-1.1.2-1.1.3-1.1.2-1.1.3-1.1.2-1.2.3-1 .2-1.2.3-1 .2-1.2.3-1 .2-1.1.3-1.1.2-1.1.3-1 .2-1.1.2-1 .3-1 .2-1 .3-1 .2-1 .3-1 .2-1 .3-1 .2-.9.3-.9.2-.8.3-.9.2-.8.3-.8.2-.8.3-.8.2-.7.3-.8.2-.7.3-.6.2-.7.3-.6.2-.6.3-.5.2-.5.3-.5.2-.5.3-.4.2-.4.3-.4.2-.4.2-.3.3-.3.2-.2.3-.2.2-.2.3-.1.2-.2h.5l.3-.1h.5l.2.2h.3l.2.2.3.2.2.2.3.3.2.3.3.3.2.3.3.4.2.4.3.4.2.5.3.5.2.5.3.6.2.6.3.6.2.6.2.7.3.7.2.7.3.8.2.7.3.8.2.8.3.9.2.8.3 1 .2.8.3 1 .2.9.3 1 .2.9.3 1 .2 1 .3 1 .2 1 .3 1 .2 1.1.3 1 .2 1.2.3 1 .2 1.1.3 1.1.2 1.1.3 1.1.2 1.1.3 1.1.2 1.1-156 .4z" stroke="#000"/></g><g clip-path="url(#clip1)"><rect x="72" y="30" width="119" height="119" rx="59.5" fill="#31D67B"/><path d="M44 89l.2 1.1.3 1.1.2 1.1.3 1.1.2 1.1.3 1.1.2 1.1.3 1.1.2 1 .3 1.1.2 1 .3 1.1.2 1 .3 1 .2 1 .3 1 .2 1 .3 1 .2 1 .3.9.2.9.3.9.2.9.3.8.2.8.3.8.2.8.3.8.2.7.3.7.2.7.2.6.3.6.2.6.3.6.2.5.3.5.2.5.3.5.2.4.3.4.2.3.3.4.2.2.3.3.2.2.3.2.2.2.3.1.2.1h.3l.2.1h.5l.3-.1.2-.1.3-.2.2-.1.3-.2.2-.3.3-.2.2-.3.2-.4.3-.3.2-.4.3-.5.2-.4.3-.5.2-.5.3-.6.2-.5.3-.6.2-.7.3-.6.2-.7.3-.7.2-.8.3-.7.2-.8.3-.8.2-.8.3-.9.2-.9.3-.9.2-.9.3-.9.2-1 .3-1 .2-.9.3-1 .2-1 .3-1 .2-1 .3-1.1.2-1 .2-1.1.3-1.1.2-1 .3-1.2.2-1 .3-1.2.2-1 .3-1.2.2-1.1.3-1.1.2-1.1.3-1.1.2-1.1.3-1.1.2-1.1.3-1.1.2-1.1.3-1.1.2-1 .3-1.1.2-1 .3-1.1.2-1 .3-1 .2-1 .3-1 .2-1 .3-1 .2-1 .3-.8.2-1 .2-.8.3-.9.2-.8.3-.8.2-.8.3-.8.2-.8.3-.7.2-.7.3-.6.2-.7.3-.6.2-.6.3-.5.2-.6.3-.5.2-.4.3-.5.2-.4.3-.4.2-.3.3-.3.2-.3.3-.3.2-.2.3-.2.2-.1.3-.1.2-.1h.3l.2-.1h.5l.2.1.3.2.2.1.3.2.2.2.3.2.2.3.3.3.2.4.3.3.2.4.3.5.2.4.3.5.2.6.3.5.2.6.3.6.2.7.3.6.2.7.3.7.2.8.3.7.2.8.3.8.2.9.3.8.2 1 .2.8.3 1 .2.9.3 1 .2.9.3 1 .2 1 .3 1 .2 1 .3 1 .2 1.1.3 1 .2 1.1.3 1.1.2 1.1.3 1 .2 1.2.3 1 .2 1.2.3 1.1.2 1.1.3 1.1.2 1.1.3 1.1.2 1.1.3 1.1.2 1.1.3 1.1.2 1.1.3 1.1.2 1 .2 1.1.3 1 .2 1.1.3 1 .2 1 .3 1 .2 1 .3 1 .2 1 .3.9.2.9.3.9.2.9.3.8.2.9.3.8.2.8.3.7.2.8.3.7.2.7.3.6.2.7.3.6.2.5.3.6.2.5.3.5.2.5.3.4.2.4.3.4.2.3.2.3.3.3.2.2.3.2.2.2.3.2h.2l.3.1h.2l.3.1h.5l.2-.2h.3l.2-.2.3-.2.2-.3.3-.2.2-.3.3-.3.2-.4.3-.4.2-.4.3-.4.2-.5.3-.5.2-.5.3-.6.2-.6.3-.6.2-.6.2-.7.3-.7.2-.7.3-.8.2-.8.3-.8.2-.8.3-.8.2-.9.3-.9.2-.9.3-.9.2-1 .3-.9.2-1 .3-1 .2-1 .3-1 .2-1 .3-1 .2-1.1.3-1 .2-1.1.3-1.1.2-1.1.3-1.1.2-1 .3-1.2.2-1.1.3-1.1.2-1.1.2-1.1.3-1.1.2-1.1.3-1.2.2-1 .3-1.1.2-1.1.3-1.1.2-1.1.3-1 .2-1.1.3-1 .2-1.1.3-1 .2-1 .3-1 .2-1 .3-1 .2-1 .3-.8.2-1 .3-.8.2-1 .3-.8.2-.8.3-.8.2-.8.3-.7.2-.8.3-.7.2-.7.2-.6.3-.6.2-.6.3-.6.2-.5.3-.6.2-.4.3-.5.2-.4.3-.4.2-.4.3-.3.2-.3.3-.3.2-.2.3-.2.2-.2h.3l.2-.2h.3l.2-.1h.5l.3.1.2.1.3.1.2.2.3.2.2.2.3.3.2.3.3.3.2.4.2.4.3.4.2.4.3.5.2.5.3.6.2.5.3.6.2.7.3.6.2.7.3.7.2.7.3.8.2.8.3.8.2.8.3.9.2.8.3 1 .2.8.3 1 .2.9.3 1 .2 1 .3 1 .2 1 .3 1 .2 1 .3 1 .2 1 .2 1.2.3 1 .2 1.1.3 1.1.2 1.1.3 1.1.2 1.1.3 1.1.2 1.1.3 1.1.2 1.1.3 1.2.2 1 .3 1.2.2 1 .3 1.2.2 1 .3 1.1.2 1.1.3 1 .2 1.1.3 1 .2 1 .3 1.1.2 1 .3 1 .2 1 .3 1 .2.9.3.9.2 1 .2.8.3.9.2.8.3.8.2.8.3.8.2.7.3.8.2.7.3.6.2.7.3.6.2.6.3.6.2.5.3.5.2.5.3.4.2.4.3.4.2.4.3.3.2.3.3.2.2.3.3.1.2.2.3.1.2.1h.3l.2.1h.5l.2-.1.3-.1.2-.2.3-.2.2-.2.3-.2.2-.3.3-.3.2-.3.3-.4.2-.4.3-.4.2-.5.3-.5.2-.5.3-.5.2-.6.3-.6.2-.6.3-.7.2-.7.3-.7.2-.7.3-.8.2-.8.3-.8.2-.8.3-.9.2-.9.2-.9.3-.9.2-1 .3-.9.2-1 .3-1 .2-1 .3-1 .2-1 .3-1 .2-1 .3-1 .2-1.2.3-1 .2-1.1.3-1.1.2-1.1.3-1.1.2-1.1.3-1.1.2-1.1.3-1.1.2-1.2.3-1 .2-1.2.3-1 .2-1.2.3-1 .2-1.1.3-1.1.2-1.1.3-1 .2-1.1.2-1 .3-1 .2-1 .3-1 .2-1 .3-1 .2-1 .3-1 .2-.9.3-.9.2-.8.3-.9.2-.8.3-.8.2-.8.3-.8.2-.7.3-.8.2-.7.3-.6.2-.7.3-.6.2-.6.3-.5.2-.5.3-.5.2-.5.3-.4.2-.4.3-.4.2-.4.2-.3.3-.3.2-.2.3-.2.2-.2.3-.1.2-.2h.5l.3-.1h.5l.2.2h.3l.2.2.3.2.2.2.3.3.2.3.3.3.2.3.3.4.2.4.3.4.2.5.3.5.2.5.3.6.2.6.3.6.2.6.2.7.3.7.2.7.3.8.2.7.3.8.2.8.3.9.2.8.3 1 .2.8.3 1 .2.9.3 1 .2.9.3 1 .2 1 .3 1 .2 1 .3 1 .2 1.1.3 1 .2 1.2.3 1 .2 1.1.3 1.1.2 1.1.3 1.1.2 1.1.3 1.1-.3 1.5H44z" stroke="#000"/></g><circle cx="241.4" cy="33.4" r="1.4" fill="#D4D4D4"/><circle cx="247.1" cy="33.4" r="1.4" fill="#D4D4D4"/><circle cx="252.9" cy="33.4" r="1.4" fill="#D4D4D4"/><circle cx="258.6" cy="33.4" r="1.4" fill="#D4D4D4"/><circle cx="264.4" cy="33.4" r="1.4" fill="#D4D4D4"/><circle cx="270.1" cy="33.4" r="1.4" fill="#D4D4D4"/><circle cx="275.9" cy="33.4" r="1.4" fill="#D4D4D4"/><circle cx="281.6" cy="33.4" r="1.4" fill="#D4D4D4"/><circle cx="287.4" cy="33.4" r="1.4" fill="#D4D4D4"/><circle cx="241.4" cy="39.1" r="1.4" fill="#D4D4D4"/><circle cx="247.1" cy="39.1" r="1.4" fill="#D4D4D4"/><circle cx="241.4" cy="44.9" r="1.4" fill="#D4D4D4"/><circle cx="247.1" cy="44.9" r="1.4" fill="#D4D4D4"/><circle cx="252.9" cy="44.9" r="1.4" fill="#D4D4D4"/><circle cx="258.6" cy="44.9" r="1.4" fill="#D4D4D4"/><circle cx="264.4" cy="44.9" r="1.4" fill="#D4D4D4"/><circle cx="270.1" cy="44.9" r="1.4" fill="#D4D4D4"/><circle cx="275.9" cy="44.9" r="1.4" fill="#D4D4D4"/><circle cx="281.6" cy="44.9" r="1.4" fill="#D4D4D4"/><circle cx="287.4" cy="44.9" r="1.4" fill="#D4D4D4"/><circle cx="252.9" cy="39.1" r="1.4" fill="#D4D4D4"/><circle cx="258.6" cy="39.1" r="1.4" fill="#D4D4D4"/><circle cx="264.4" cy="39.1" r="1.4" fill="#D4D4D4"/><circle cx="270.1" cy="39.1" r="1.4" fill="#D4D4D4"/><circle cx="275.9" cy="39.1" r="1.4" fill="#D4D4D4"/><circle cx="281.6" cy="39.1" r="1.4" fill="#D4D4D4"/><circle cx="287.4" cy="39.1" r="1.4" fill="#D4D4D4"/><circle cx="45.4" cy="123.4" r="1.4" fill="#D4D4D4"/><circle cx="51.1" cy="123.4" r="1.4" fill="#D4D4D4"/><circle cx="56.9" cy="123.4" r="1.4" fill="#D4D4D4"/><circle cx="62.6" cy="123.4" r="1.4" fill="#D4D4D4"/><circle cx="68.4" cy="123.4" r="1.4" fill="#D4D4D4"/><circle cx="74.1" cy="123.4" r="1.4" fill="#D4D4D4"/><circle cx="79.9" cy="123.4" r="1.4" fill="#D4D4D4"/><circle cx="85.6" cy="123.4" r="1.4" fill="#D4D4D4"/><circle cx="91.4" cy="123.4" r="1.4" fill="#D4D4D4"/><circle cx="45.4" cy="129.1" r="1.4" fill="#D4D4D4"/><circle cx="51.1" cy="129.1" r="1.4" fill="#D4D4D4"/><circle cx="45.4" cy="134.9" r="1.4" fill="#D4D4D4"/><circle cx="51.1" cy="134.9" r="1.4" fill="#D4D4D4"/><circle cx="56.9" cy="134.9" r="1.4" fill="#D4D4D4"/><circle cx="62.6" cy="134.9" r="1.4" fill="#D4D4D4"/><circle cx="68.4" cy="134.9" r="1.4" fill="#D4D4D4"/><circle cx="74.1" cy="134.9" r="1.4" fill="#D4D4D4"/><circle cx="79.9" cy="134.9" r="1.4" fill="#D4D4D4"/><circle cx="85.6" cy="134.9" r="1.4" fill="#D4D4D4"/><circle cx="91.4" cy="134.9" r="1.4" fill="#D4D4D4"/><circle cx="56.9" cy="129.1" r="1.4" fill="#D4D4D4"/><circle cx="62.6" cy="129.1" r="1.4" fill="#D4D4D4"/><circle cx="68.4" cy="129.1" r="1.4" fill="#D4D4D4"/><circle cx="74.1" cy="129.1" r="1.4" fill="#D4D4D4"/><circle cx="79.9" cy="129.1" r="1.4" fill="#D4D4D4"/><circle cx="85.6" cy="129.1" r="1.4" fill="#D4D4D4"/><circle cx="91.4" cy="129.1" r="1.4" fill="#D4D4D4"/><defs><clipPath id="clip0"><rect x="161" y="30" width="119" height="119" rx="59.5" fill="#fff"/></clipPath><clipPath id="clip1"><rect x="72" y="30" width="119" height="119" rx="59.5" fill="#fff"/></clipPath></defs></svg>