<svg width="341" height="180" fill="none" xmlns="http://www.w3.org/2000/svg">
  <circle cx="242.5" cy="90.5" r="43.5" fill="#A57CFE"/>
  <mask id="a" maskUnits="userSpaceOnUse" x="199" y="47" width="87" height="87">
    <circle cx="242.5" cy="90.5" r="43.5" fill="#A57CFE"/>
  </mask>
  <g mask="url(#a)" fill="#31D67B">
    <path d="M232.6 33c.2 0 .3 0 .5.2l11.3 13.2c.3.3.3.8 0 1L234 59.7l10.9 12.8c.2.2.2.7 0 1l-10.4 12.1 11 12.8c.2.3.2.7 0 1L235 111.5l11 12.7c.2.3.2.8 0 1L235 137.8c-.2.3-.6.3-.9 0a.8.8 0 010-1l10.4-12-11-12.8a.8.8 0 010-1h.1v-.2l10.4-12-10.9-12.7a.8.8 0 01-.2-.7c0-.2 0-.3.2-.5l10.4-12-11-12.7a.8.8 0 010-1l.1-.1V59l10.4-12-11-12.7a.8.8 0 010-1l.5-.3zM249.6 33c.1 0 .3 0 .4.2l11.4 13.2c.2.3.2.8 0 1l-10.5 12.2 11 12.8c.2.2.2.7 0 1l-10.5 12.1 11 12.8c.3.3.3.7 0 1L252 111.5l11 12.7c.2.3.2.8 0 1L252 137.8c-.3.3-.7.3-1 0a.8.8 0 010-1l10.4-12-10.9-12.8a.8.8 0 010-1l.1-.2 10.4-12-11-12.7a.8.8 0 01-.1-.7c0-.2 0-.4.2-.5l10.3-12-11-12.7a.8.8 0 010-1l.2-.1V59l10.4-12-11-12.7a.8.8 0 010-1c.2-.2.3-.3.5-.3zM266.5 33c.2 0 .4 0 .5.2l11.3 13.2c.3.3.3.8 0 1L268 59.7l11 12.8c.2.2.2.7 0 1l-10.5 12.1 11 12.8c.2.3.2.7 0 1l-10.5 12.2 11 12.7c.2.3.2.8 0 1L269 137.8c-.2.3-.6.3-.9 0a.8.8 0 010-1l10.4-12-11-12.8a.8.8 0 010-1h.1v-.2l10.4-12-10.9-12.7a.8.8 0 01-.2-.7l.2-.5 10.4-12-11-12.7a.8.8 0 010-1l.1-.1V59L277 47l-11-12.7a.8.8 0 010-1l.5-.3z"/>
  </g>
  <circle cx="205.5" cy="109.5" r="24.5" fill="#8052E4"/>
  <path d="M112 74h59m0 0l-1.6-1m1.6 1l-1.6 1M134 61h32.4m0 0l-1-1m1 1l-1 1M123 80.7h22.9m0 0l-.6-.7m.6.7l-.6.7M109 97h46m0 0l-1.3-1m1.3 1l-1.3 1" stroke="#000"/>
  <path fill="#31D67B" d="M88 127.8V45h24v82.8z"/>
  <circle cx="56.4" cy="110.4" r="1.4" fill="#D4D4D4"/>
  <circle cx="62.1" cy="110.4" r="1.4" fill="#D4D4D4"/>
  <circle cx="67.9" cy="110.4" r="1.4" fill="#D4D4D4"/>
  <circle cx="73.6" cy="110.4" r="1.4" fill="#D4D4D4"/>
  <circle cx="79.4" cy="110.4" r="1.4" fill="#D4D4D4"/>
  <circle cx="85.1" cy="110.4" r="1.4" fill="#D4D4D4"/>
  <circle cx="90.9" cy="110.4" r="1.4" fill="#D4D4D4"/>
  <circle cx="96.6" cy="110.4" r="1.4" fill="#D4D4D4"/>
  <circle cx="102.4" cy="110.4" r="1.4" fill="#D4D4D4"/>
  <circle cx="56.4" cy="116.1" r="1.4" fill="#D4D4D4"/>
  <circle cx="62.1" cy="116.1" r="1.4" fill="#D4D4D4"/>
  <circle cx="56.4" cy="121.9" r="1.4" fill="#D4D4D4"/>
  <circle cx="62.1" cy="121.9" r="1.4" fill="#D4D4D4"/>
  <circle cx="67.9" cy="121.9" r="1.4" fill="#D4D4D4"/>
  <circle cx="73.6" cy="121.9" r="1.4" fill="#D4D4D4"/>
  <circle cx="79.4" cy="121.9" r="1.4" fill="#D4D4D4"/>
  <circle cx="85.1" cy="121.9" r="1.4" fill="#D4D4D4"/>
  <circle cx="90.9" cy="121.9" r="1.4" fill="#D4D4D4"/>
  <circle cx="96.6" cy="121.9" r="1.4" fill="#D4D4D4"/>
  <circle cx="102.4" cy="121.9" r="1.4" fill="#D4D4D4"/>
  <circle cx="67.9" cy="116.1" r="1.4" fill="#D4D4D4"/>
  <circle cx="73.6" cy="116.1" r="1.4" fill="#D4D4D4"/>
  <circle cx="79.4" cy="116.1" r="1.4" fill="#D4D4D4"/>
  <circle cx="85.1" cy="116.1" r="1.4" fill="#D4D4D4"/>
  <circle cx="90.9" cy="116.1" r="1.4" fill="#D4D4D4"/>
  <circle cx="96.6" cy="116.1" r="1.4" fill="#D4D4D4"/>
  <circle cx="102.4" cy="116.1" r="1.4" fill="#D4D4D4"/>
</svg>
