<svg width="341" height="180" viewBox="0 0 341 180" fill="none" xmlns="http://www.w3.org/2000/svg">
<path d="M135.023 65.4819L80.9629 126.482H235.65L285.963 65.4819H135.023Z" fill="#31D67B"/>
<mask id="mask0" mask-type="alpha" maskUnits="userSpaceOnUse" x="80" y="65" width="206" height="62">
<path d="M135.023 65.4819L80.9629 126.482H235.65L285.963 65.4819H135.023Z" fill="#31D67B"/>
</mask>
<g mask="url(#mask0)">
<path d="M412.379 67.6609C313.69 28.4988 243.199 28.4988 200.903 67.6609C158.608 106.823 88.1166 106.823 -10.5719 67.6609" stroke="#4AE991" stroke-width="2"/>
<path d="M400.016 142.66C324.36 83.751 257.522 68.1967 199.5 95.9968C141.478 123.797 74.6395 108.243 -1.01631 49.334" stroke="#4AE991" stroke-width="2"/>
<path d="M408.206 116.767C305.392 83.1104 235.118 86.9567 197.384 128.306C159.651 169.654 89.3772 173.501 -13.4372 139.845" stroke="#4AE991" stroke-width="2"/>
</g>
<path d="M83.2769 31.4165L37.8066 82.724H167.915L210.234 31.4165H83.2769Z" fill="#AB85FF"/>
<mask id="mask1" mask-type="alpha" maskUnits="userSpaceOnUse" x="37" y="31" width="174" height="52">
<path d="M83.2769 31.4165L37.8066 82.724H167.915L210.234 31.4165H83.2769Z" fill="#AB85FF"/>
</mask>
<g mask="url(#mask1)">
<path d="M316.563 33.2491C233.556 0.30955 174.265 0.30955 138.69 33.2491C103.115 66.1886 43.8241 66.1886 -39.1835 33.2491" stroke="#C9AEFF"/>
<path d="M306.164 96.3311C242.53 46.7827 186.311 33.6999 137.509 57.0828C88.7061 80.4656 32.4875 67.3828 -31.1471 17.8344" stroke="#C9AEFF"/>
<path d="M313.054 74.5526C226.576 46.2441 167.468 49.4793 135.73 84.2581C103.993 119.037 44.8847 122.272 -41.5932 93.9636" stroke="#C9AEFF"/>
</g>
<path d="M81.3486 121.115L124.809 121.115M124.809 121.115L123.618 120.471M124.809 121.115L123.618 121.76" stroke="black" stroke-width="1.97979"/>
<path d="M81.3486 131.824H142.074M142.074 131.824L140.41 131.156M142.074 131.824L140.41 132.492" stroke="black" stroke-width="1.97979"/>
<path d="M81.3486 110.453H108.734M108.734 110.453L107.984 109.785M108.734 110.453L107.984 111.121" stroke="black" stroke-width="1.97979"/>
<path d="M81.3486 142.51H100.995M100.995 142.51L100.457 141.842M100.995 142.51L100.457 143.178" stroke="black" stroke-width="1.97979"/>
<circle cx="73.7547" cy="126.482" r="21.1119" transform="rotate(90 73.7547 126.482)" fill="#F5F5F5" stroke="black" stroke-width="1.97979"/>
<path d="M277.86 57.0702C277.86 52.2048 275.927 47.5387 272.487 44.0984C269.046 40.6581 264.38 38.7253 259.515 38.7253C254.649 38.7253 249.983 40.6581 246.543 44.0984C243.103 47.5387 241.17 52.2048 241.17 57.0702L259.515 57.0702H277.86Z" fill="#8052E4"/>
<path d="M250.78 57.0702C250.78 53.8266 249.537 50.7159 247.325 48.4224C245.114 46.1288 242.114 44.8403 238.986 44.8403C235.859 44.8403 232.859 46.1288 230.647 48.4224C228.436 50.7159 227.193 53.8266 227.193 57.0702L238.986 57.0702H250.78Z" fill="#8052E4"/>
<path d="M303.193 57.0702C303.193 53.8266 301.398 50.7159 298.204 48.4224C295.009 46.1288 290.676 44.8403 286.159 44.8403C281.641 44.8403 277.308 46.1288 274.113 48.4224C270.919 50.7159 269.124 53.8266 269.124 57.0702L286.159 57.0702H303.193Z" fill="#8052E4"/>
</svg>
