<svg width="341" height="180" fill="none" xmlns="http://www.w3.org/2000/svg">
  <path d="M125.5 108.1l-67.8 46h194l63.1-46H125.5z" fill="#4AE991"/>
  <mask id="a" maskUnits="userSpaceOnUse" x="57" y="108" width="258" height="47">
    <path d="M125.5 108.1l-67.8 46h194l63.1-46H125.5z" fill="#4AE991"/>
  </mask>
  <g mask="url(#a)" stroke="#000">
    <path d="M473.4 109.8c-123.8-29.6-212.2-29.6-265.3 0-53 29.5-141.5 29.5-265.3 0"/>
    <path d="M458 166.3c-95-44.4-178.8-56.1-251.6-35.2-72.8 21-156.7 9.3-251.6-35.2"/>
    <path d="M468.2 146.8c-129-25.4-217.1-22.5-264.5 8.7-47.3 31.2-135.5 34.1-264.5 8.7"/>
  </g>
  <path fill="#A57CFE" d="M26.2 25.9h67.5v67.5H26.2z"/>
  <path stroke="#4AE991" d="M32.3 40.8h54.4V47H32.3zM32.3 56.1h54.4v6.2H32.3zM32.3 71.4h54.4v6.2H32.3z"/>
  <path d="M93.7 66.7h68m0 0l-1.8.9m1.9-.9l-2-.9M93.7 51.7h95.1m0 0l-2.6 1m2.6-1l-2.6-.9M93.7 81.6h42.9m0 0l-1.2 1m1.2-1l-1.2-1M93.7 36.8h30.7m0 0l-.8 1m.8-1l-.8-1" stroke="#000"/>
  <circle cx="240.9" cy="96.3" r="21.8" fill="#B491FF"/>
  <circle cx="262.7" cy="67.6" r="7.9" fill="#8052E4"/>
  <circle cx="277.6" cy="88.4" r="9.8" stroke="#000"/>
</svg>
