<svg width="341" height="181" fill="none" xmlns="http://www.w3.org/2000/svg">
  <circle cx="253.4" cy="44.9" r="1.4" fill="#D4D4D4"/>
  <circle cx="259.1" cy="44.9" r="1.4" fill="#D4D4D4"/>
  <circle cx="264.9" cy="44.9" r="1.4" fill="#D4D4D4"/>
  <circle cx="270.6" cy="44.9" r="1.4" fill="#D4D4D4"/>
  <circle cx="276.4" cy="44.9" r="1.4" fill="#D4D4D4"/>
  <circle cx="282.1" cy="44.9" r="1.4" fill="#D4D4D4"/>
  <circle cx="287.9" cy="44.9" r="1.4" fill="#D4D4D4"/>
  <circle cx="293.6" cy="44.9" r="1.4" fill="#D4D4D4"/>
  <circle cx="299.4" cy="44.9" r="1.4" fill="#D4D4D4"/>
  <circle cx="253.4" cy="50.6" r="1.4" fill="#D4D4D4"/>
  <circle cx="259.1" cy="50.6" r="1.4" fill="#D4D4D4"/>
  <circle cx="253.4" cy="56.4" r="1.4" fill="#D4D4D4"/>
  <circle cx="259.1" cy="56.4" r="1.4" fill="#D4D4D4"/>
  <circle cx="264.9" cy="56.4" r="1.4" fill="#D4D4D4"/>
  <circle cx="270.6" cy="56.4" r="1.4" fill="#D4D4D4"/>
  <circle cx="276.4" cy="56.4" r="1.4" fill="#D4D4D4"/>
  <circle cx="282.1" cy="56.4" r="1.4" fill="#D4D4D4"/>
  <circle cx="287.9" cy="56.4" r="1.4" fill="#D4D4D4"/>
  <circle cx="293.6" cy="56.4" r="1.4" fill="#D4D4D4"/>
  <circle cx="299.4" cy="56.4" r="1.4" fill="#D4D4D4"/>
  <circle cx="264.9" cy="50.6" r="1.4" fill="#D4D4D4"/>
  <circle cx="270.6" cy="50.6" r="1.4" fill="#D4D4D4"/>
  <circle cx="276.4" cy="50.6" r="1.4" fill="#D4D4D4"/>
  <circle cx="282.1" cy="50.6" r="1.4" fill="#D4D4D4"/>
  <circle cx="287.9" cy="50.6" r="1.4" fill="#D4D4D4"/>
  <circle cx="293.6" cy="50.6" r="1.4" fill="#D4D4D4"/>
  <circle cx="299.4" cy="50.6" r="1.4" fill="#D4D4D4"/>
  <circle cx="43.4" cy="137.4" r="1.4" fill="#D4D4D4"/>
  <circle cx="49.1" cy="137.4" r="1.4" fill="#D4D4D4"/>
  <circle cx="54.9" cy="137.4" r="1.4" fill="#D4D4D4"/>
  <circle cx="60.6" cy="137.4" r="1.4" fill="#D4D4D4"/>
  <circle cx="66.4" cy="137.4" r="1.4" fill="#D4D4D4"/>
  <circle cx="72.1" cy="137.4" r="1.4" fill="#D4D4D4"/>
  <circle cx="77.9" cy="137.4" r="1.4" fill="#D4D4D4"/>
  <circle cx="83.6" cy="137.4" r="1.4" fill="#D4D4D4"/>
  <circle cx="89.4" cy="137.4" r="1.4" fill="#D4D4D4"/>
  <circle cx="43.4" cy="143.1" r="1.4" fill="#D4D4D4"/>
  <circle cx="49.1" cy="143.1" r="1.4" fill="#D4D4D4"/>
  <circle cx="43.4" cy="148.9" r="1.4" fill="#D4D4D4"/>
  <circle cx="49.1" cy="148.9" r="1.4" fill="#D4D4D4"/>
  <circle cx="54.9" cy="148.9" r="1.4" fill="#D4D4D4"/>
  <circle cx="60.6" cy="148.9" r="1.4" fill="#D4D4D4"/>
  <circle cx="66.4" cy="148.9" r="1.4" fill="#D4D4D4"/>
  <circle cx="72.1" cy="148.9" r="1.4" fill="#D4D4D4"/>
  <circle cx="77.9" cy="148.9" r="1.4" fill="#D4D4D4"/>
  <circle cx="83.6" cy="148.9" r="1.4" fill="#D4D4D4"/>
  <circle cx="89.4" cy="148.9" r="1.4" fill="#D4D4D4"/>
  <circle cx="54.9" cy="143.1" r="1.4" fill="#D4D4D4"/>
  <circle cx="60.6" cy="143.1" r="1.4" fill="#D4D4D4"/>
  <circle cx="66.4" cy="143.1" r="1.4" fill="#D4D4D4"/>
  <circle cx="72.1" cy="143.1" r="1.4" fill="#D4D4D4"/>
  <circle cx="77.9" cy="143.1" r="1.4" fill="#D4D4D4"/>
  <circle cx="83.6" cy="143.1" r="1.4" fill="#D4D4D4"/>
  <circle cx="89.4" cy="143.1" r="1.4" fill="#D4D4D4"/>
  <g clip-path="url(#clip0)">
    <rect x="137" y="21.5" width="139" height="139" rx="69.5" fill="#AB85FF"/>
    <path d="M124 90.5l.2 1.1.3 1.1.2 1.1.3 1.1.2 1.1.3 1.1.2 1.1.3 1.1.2 1 .3 1.1.2 1 .3 1.1.2 1 .3 1 .2 1 .3 1 .2 1 .3 1 .2 1 .3.9.2.9.3.9.2.9.3.8.2.8.3.8.2.8.3.8.2.7.3.7.2.7.2.6.3.6.2.6.3.6.2.5.3.5.2.5.3.5.2.4.3.4.2.3.3.4.2.2.3.3.2.2.3.2.2.2.3.1.2.1h.3l.2.1h.5l.3-.1.2-.1.3-.2.2-.1.3-.2.2-.3.3-.2.2-.3.3-.4.2-.3.2-.4.3-.5.2-.4.3-.5.2-.5.3-.6.2-.5.3-.6.2-.7.3-.6.2-.7.3-.7.2-.8.3-.7.2-.8.3-.8.2-.8.3-.9.2-.9.3-.9.2-.9.3-.9.2-1 .3-1 .2-.9.3-1 .2-1 .3-1 .2-1 .3-1.1.2-1 .2-1.1.3-1.1.2-1 .3-1.2.2-1 .3-1.2.2-1 .3-1.2.2-1.1.3-1.1.2-1.1.3-1.1.2-1.1.3-1.1.2-1.1.3-1.1.2-1.1.3-1.1.2-1 .3-1.1.2-1 .3-1.1.2-1 .3-1 .2-1 .3-1 .2-1 .3-1 .2-1 .3-.8.2-1 .2-.8.3-.9.2-.8.3-.8.2-.8.3-.8.2-.8.3-.7.2-.7.3-.6.2-.7.3-.6.2-.6.3-.5.2-.6.3-.5.2-.4.3-.5.2-.4.3-.4.2-.3.3-.3.2-.3.3-.3.2-.2.3-.2.2-.1.3-.1.2-.1h.3l.2-.1h.5l.2.1.3.2.2.1.3.2.2.2.3.2.2.3.3.3.2.4.3.3.2.4.3.5.2.4.3.5.2.6.3.5.2.6.3.6.2.7.3.6.2.7.3.7.2.8.3.7.2.8.3.8.2.9.3.8.2 1 .2.8.3 1 .2.9.3 1 .2.9.3 1 .2 1 .3 1 .2 1 .3 1 .2 1.1.3 1 .2 1.1.3 1.1.2 1.1.3 1 .2 1.2.3 1 .2 1.2.3 1.1.2 1.1.3 1.1.2 1.1.3 1.1.2 1.1.3 1.1.2 1.1.3 1.1.2 1.1.3 1.1.2 1 .3 1.1.2 1 .2 1.1.3 1 .2 1 .3 1 .2 1 .3 1 .2 1 .3.9.2.9.3.9.2.9.3.8.2.9.3.8.2.8.3.7.2.8.3.7.2.7.3.6.2.7.3.6.2.5.3.6.2.5.3.5.2.5.3.4.2.4.3.4.2.3.2.3.3.3.2.2.3.2.2.2.3.2h.2l.3.1h.2l.3.1h.5l.2-.2h.3l.2-.2.3-.2.2-.3.3-.2.2-.3.3-.3.2-.4.3-.4.2-.4.3-.4.2-.5.3-.5.2-.5.3-.6.2-.6.3-.6.2-.6.2-.7.3-.7.2-.7.3-.8.2-.8.3-.8.2-.8.3-.8.2-.9.3-.9.2-.9.3-.9.2-1 .3-.9.2-1 .3-1 .2-1 .3-1 .2-1 .3-1 .2-1.1.3-1 .2-1.1.3-1.1.2-1.1.3-1.1.2-1 .3-1.2.2-1.1.3-1.1.2-1.1.2-1.1.3-1.1.2-1.1.3-1.2.2-1 .3-1.1.2-1.1.3-1.1.2-1.1.3-1 .2-1.1.3-1 .2-1.1.3-1 .2-1 .3-1 .2-1 .3-1 .2-1 .3-.8.2-1 .3-.8.2-1 .3-.8.2-.8.3-.8.2-.8.3-.7.2-.8.3-.7.2-.7.2-.6.3-.6.2-.6.3-.6.2-.5.3-.6.2-.4.3-.5.2-.4.3-.4.2-.4.3-.3.2-.3.3-.3.2-.2.3-.2.2-.2h.3l.2-.2h.3l.2-.1h.5l.3.1.2.1.3.1.2.2.3.2.2.2.3.3.2.3.3.3.2.4.2.4.3.4.2.4.3.5.2.5.3.6.2.5.3.6.2.7.3.6.2.7.3.7.2.7.3.8.2.8.3.8.2.8.3.9.2.8.3 1 .2.8.3 1 .2.9.3 1 .2 1 .3 1 .2 1 .3 1 .2 1 .3 1 .2 1 .2 1.2.3 1 .2 1.1.3 1.1.2 1.1.3 1.1.2 1.1.3 1.1.2 1.1.3 1.1.2 1.1.3 1.2.2 1 .3 1.2.2 1 .3 1.2.2 1 .3 1.1.2 1.1.3 1 .2 1.1.3 1 .2 1 .3 1.1.2 1 .3 1 .2 1 .3 1 .2.9.3.9.2 1 .2.8.3.9.2.8.3.8.2.8.3.8.2.7.3.8.2.7.3.6.2.7.3.6.2.6.3.6.2.5.3.5.2.5.3.4.2.4.3.4.2.4.3.3.2.3.3.2.2.3.3.1.2.2.3.1.2.1h.3l.2.1h.5l.2-.1.3-.1.2-.2.3-.2.2-.2.3-.2.2-.3.3-.3.2-.3.3-.4.2-.4.3-.4.2-.5.3-.5.2-.5.3-.5.2-.6.3-.6.2-.6.3-.7.2-.7.3-.7.2-.7.3-.8.2-.8.3-.8.2-.8.3-.9.2-.9.2-.9.3-.9.2-1 .3-.9.2-1 .3-1 .2-1 .3-1 .2-1 .3-1 .2-1 .3-1 .2-1.2.3-1 .2-1.1.3-1.1.2-1.1.3-1.1.2-1.1.3-1.1.2-1.1.3-1.1.2-1.2.3-1 .2-1.2.3-1 .2-1.2.3-1 .2-1.1.3-1.1.2-1.1.3-1 .2-1.1.2-1 .3-1 .2-1 .3-1 .2-1 .3-1 .2-1 .3-1 .2-.9.3-.9.2-.8.3-.9.2-.8.3-.8.2-.8.3-.8.2-.7.3-.8.2-.7.3-.6.2-.7.3-.6.2-.6.3-.5.2-.5.3-.5.2-.5.3-.4.2-.4.3-.4.2-.4.2-.3.3-.3.2-.2.3-.2.2-.2.3-.1.2-.2h.5l.3-.1h.5l.2.2h.3l.2.2.3.2.2.2.3.3.2.3.3.3.2.3.3.4.2.4.3.4.2.5.3.5.2.5.3.6.2.6.3.6.2.6.2.7.3.7.2.7.3.8.2.7.3.8.2.8.3.9.2.8.3 1 .2.8.3 1 .2.9.3 1 .2.9.3 1 .2 1 .3 1 .2 1 .3 1 .2 1.1.3 1 .2 1.2.3 1 .2 1.1.3 1.1.2 1.1.3 1.1.2 1.1.3 1.1.2 1.1-156 .4z" stroke="#000"/>
  </g>
  <path fill="#31D67B" d="M86 111.5h9v49h-9zM103 73.5h9v87h-9zM120 43.5h9v117h-9z"/>
  <defs>
    <clipPath id="clip0">
      <rect x="137" y="21.5" width="139" height="139" rx="69.5" fill="#fff"/>
    </clipPath>
  </defs>
</svg>
