<svg width="341" height="180" fill="none" xmlns="http://www.w3.org/2000/svg">
  <g clip-path="url(#clip0)">
    <path d="M157.2 49.4l-.6-.7.6.7zm15.5 0l-.7.7.7-.7zm0 23.5l-.7-.8.7.8zm-15.5 0l-.6.7.6-.7zm3.8-3.6l-.7.8.7-.8zm8 0l.7.8-.7-.8zm0-16.3l-.6.7.6-.7zm-8 0l.6.7-.6-.7zm-5.8 12.7v-9h-2v9h2zm0-9c0-2.7.9-4.8 2.7-6.6l-1.3-1.4a10.4 10.4 0 00-3.4 8h2zm2.7-6.6a10 10 0 017.1-2.6v-2a12 12 0 00-8.4 3.2l1.3 1.4zm7.1-2.6c2.9 0 5.2 1 7 2.6l1.4-1.4c-2.3-2.1-5-3.2-8.4-3.2v2zm7 2.6a8.4 8.4 0 012.8 6.5h2c0-3.1-1.1-5.8-3.4-8l-1.4 1.5zm2.8 6.5v9h2v-9h-2zm0 9c0 2.7-.9 4.8-2.8 6.5l1.4 1.5c2.3-2.1 3.4-4.8 3.4-8h-2zm-2.8 6.5a9.9 9.9 0 01-7 2.6v2c3.3 0 6.1-1 8.4-3.1L172 72zm-7 2.6a10 10 0 01-7-2.6l-1.4 1.5a12 12 0 008.4 3.1v-2zm-7-2.6a8.5 8.5 0 01-2.8-6.4h-2c0 3.1 1 5.8 3.4 7.9l1.3-1.5zm.4-15.6v9.2h2v-9.2h-2zm0 9.2c0 1.7.6 3.2 1.9 4.4l1.3-1.5a3.7 3.7 0 01-1.2-2.9h-2zm1.9 4.4a6.9 6.9 0 004.7 1.7v-2a5 5 0 01-3.4-1.2l-1.3 1.5zm4.7 1.7c1.8 0 3.4-.6 4.7-1.7l-1.3-1.5a5 5 0 01-3.4 1.2v2zm4.7-1.7c1.3-1.2 2-2.7 2-4.4h-2c0 1.1-.4 2-1.3 2.9l1.3 1.5zm2-4.4v-9.2h-2v9.2h2zm0-9.2c0-1.7-.7-3.1-2-4.3l-1.3 1.5c.9.8 1.3 1.7 1.3 2.8h2zm-2-4.3a6.7 6.7 0 00-4.7-1.7v2c1.4 0 2.5.4 3.4 1.2l1.3-1.5zm-4.7-1.7c-1.8 0-3.4.6-4.7 1.7l1.3 1.5c.9-.8 2-1.2 3.4-1.2v-2zm-4.7 1.7a5.6 5.6 0 00-2 4.3h2c0-1 .5-2 1.3-2.8l-1.3-1.5zm36.3 1.3h1v-1.6l-1.4.7.4.9zm-4.8 2.4l-1 .4.5 1 1-.5-.5-1zm-2.2-4.6l-.4-.9-.9.5.4.9 1-.5zm8.5-4.2v-1h-.2l-.2.1.4 1zm3.7 0h1v-1h-1v1zm0 28v1h1v-1h-1zm-5.2 0h-1v1h1v-1zm-.4-22.5l-4.9 2.4 1 1.8 4.8-2.4-1-1.8zm-3.5 2.9l-2.2-4.6-1.8.9 2.2 4.5 1.8-.8zm-2.6-3.3l8.5-4.2-1-1.8-8.4 4.2.9 1.8zm8-4h3.7v-2h-3.7v2zm2.7-1v28h2v-28h-2zm1 27h-5.2v2h5.2v-2zm-4.2 1V53.4h-2V75h2zm23.6-25.8l-.7-.7.7.7zm15.5 0l-.7.7.7-.7zm0 23.5l-.7-.8.7.8zm-15.5 0l-.7.7.7-.7zm3.7-3.6l-.6.8.6-.8zm8.1 0l.7.8-.7-.8zm0-16.3l-.7.7.7-.7zm-8 0l.6.7-.7-.7zM219 65.7v-9h-2v9h2zm0-9c0-2.7 1-4.8 2.8-6.6l-1.4-1.4a10.4 10.4 0 00-3.4 8h2zM222 50a10 10 0 017-2.6v-2a12 12 0 00-8.4 3.2L222 50zm7-2.6c3 0 5.3 1 7.1 2.6l1.4-1.4c-2.3-2.1-5.1-3.2-8.4-3.2v2zm7.1 2.6a8.4 8.4 0 012.8 6.5h2c0-3.1-1.1-5.8-3.4-8l-1.4 1.5zm2.8 6.5v9h2v-9h-2zm0 9c0 2.7-1 4.8-2.8 6.5l1.4 1.5c2.3-2.1 3.4-4.8 3.4-8h-2zm-2.8 6.5a9.9 9.9 0 01-7 2.6v2c3.3 0 6.1-1 8.4-3.1L236 72zm-7 2.6a10 10 0 01-7.1-2.6l-1.4 1.5a12 12 0 008.5 3.1v-2zm-7-2.6a8.4 8.4 0 01-2.9-6.4h-2c0 3.1 1.2 5.8 3.4 7.9L222 72zm.3-15.6v9.2h2v-9.2h-2zm0 9.2c0 1.7.7 3.2 2 4.4l1.3-1.5a3.7 3.7 0 01-1.3-2.9h-2zm2 4.4a6.9 6.9 0 004.7 1.7v-2a5 5 0 01-3.4-1.2l-1.3 1.5zm4.7 1.7c1.8 0 3.4-.6 4.7-1.7l-1.3-1.5a5 5 0 01-3.4 1.2v2zm4.7-1.7c1.3-1.2 2-2.7 2-4.4h-2c0 1.1-.5 2-1.4 2.9l1.4 1.5zm2-4.4v-9.2h-2v9.2h2zm0-9.2c0-1.7-.7-3.1-2-4.3l-1.3 1.5c.8.8 1.3 1.7 1.3 2.8h2zm-2-4.3a6.7 6.7 0 00-4.7-1.7v2c1.4 0 2.5.4 3.3 1.2l1.4-1.5zm-4.7-1.7c-1.9 0-3.5.6-4.7 1.7l1.3 1.5c.9-.8 2-1.2 3.4-1.2v-2zm-4.7 1.7a5.6 5.6 0 00-2 4.3h2c0-1 .5-2 1.3-2.8l-1.3-1.5zm36.3 1.3h1v-1.6l-1.4.7.4.9zm-4.8 2.4l-1 .4.5 1 1-.5-.5-1zm-2.2-4.6l-.4-.9-1 .5.5.9 1-.5zm8.5-4.2v-1h-.2l-.3.1.5 1zm3.7 0h1v-1h-1v1zm0 28v1h1v-1h-1zm-5.2 0h-1v1h1v-1zm-.4-22.5l-4.9 2.4 1 1.8 4.8-2.4-1-1.8zm-3.5 2.9l-2.2-4.6-1.8.9 2.2 4.5 1.8-.8zm-2.6-3.3l8.4-4.2-.9-1.8-8.4 4.2.9 1.8zm8-4h3.7v-2h-3.7v2zm2.7-1v28h2v-28h-2zm1 27h-5.2v2h5.2v-2zm-4.2 1V53.4h-2V75h2zm23.6-25.8l-.7-.7.7.7zm15.5 0l-.7.7.7-.7zm0 23.5l-.7-.8.7.8zm-15.5 0l-.7.7.7-.7zm3.7-3.6l-.7.8.7-.8zm8.1 0l.7.8-.7-.8zm0-16.3l-.7.7.7-.7zm-8 0l.6.7-.7-.7zM283 65.7v-9h-2v9h2zm0-9c0-2.7 1-4.8 2.8-6.6l-1.4-1.4a10.4 10.4 0 00-3.4 8h2zM286 50a10 10 0 017-2.6v-2a12 12 0 00-8.4 3.2L286 50zm7-2.6c3 0 5.3 1 7.1 2.6l1.4-1.4c-2.3-2.1-5.1-3.2-8.4-3.2v2zm7.1 2.6a8.4 8.4 0 012.8 6.5h2c0-3.1-1.1-5.8-3.4-8l-1.4 1.5zm2.8 6.5v9h2v-9h-2zm0 9c0 2.7-1 4.8-2.8 6.5l1.4 1.5c2.3-2.1 3.4-4.8 3.4-8h-2zm-2.8 6.5a9.9 9.9 0 01-7 2.6v2c3.3 0 6.1-1 8.4-3.1L300 72zm-7 2.6a10 10 0 01-7.1-2.6l-1.4 1.5a12 12 0 008.5 3.1v-2zm-7.1-2.6a8.5 8.5 0 01-2.8-6.4h-2c0 3.1 1.2 5.8 3.4 7.9L286 72zm.4-15.6v9.2h2v-9.2h-2zm0 9.2c0 1.7.7 3.2 2 4.4l1.3-1.5a3.7 3.7 0 01-1.3-2.9h-2zm2 4.4a7 7 0 004.7 1.7v-2a5 5 0 01-3.4-1.2l-1.3 1.5zm4.7 1.7c1.8 0 3.4-.6 4.7-1.7l-1.4-1.5a5 5 0 01-3.3 1.2v2zm4.7-1.7c1.3-1.2 2-2.7 2-4.4h-2c0 1.1-.5 2-1.4 2.9l1.4 1.5zm2-4.4v-9.2h-2v9.2h2zm0-9.2c0-1.7-.7-3.1-2-4.3l-1.4 1.5c1 .8 1.3 1.7 1.3 2.8h2zm-2-4.3a6.7 6.7 0 00-4.7-1.7v2c1.4 0 2.5.4 3.3 1.2l1.4-1.5zm-4.7-1.7c-1.9 0-3.5.6-4.8 1.7l1.4 1.5c.9-.8 2-1.2 3.4-1.2v-2zm-4.7 1.7a5.6 5.6 0 00-2 4.3h2c0-1 .4-2 1.3-2.8l-1.3-1.5zm-131 57.2l-.7-.7.6.7zm15.4 0l-.7.7.7-.7zm0 23.5l-.7-.8.7.8zm-15.5 0l-.6.7.6-.7zm3.8-3.6l-.7.8.7-.8zm8 0l.7.8-.7-.8zm0-16.3l-.6.7.6-.7zm-8 0l.6.7-.6-.7zm-5.8 12.7v-9h-2v9h2zm0-9c0-2.7.9-4.8 2.7-6.6l-1.3-1.4a10.4 10.4 0 00-3.4 8h2zm2.7-6.6a10 10 0 017.1-2.6v-2a12 12 0 00-8.4 3.2l1.3 1.4zm7.1-2.6c2.9 0 5.2 1 7 2.6l1.4-1.4c-2.3-2.1-5-3.2-8.4-3.2v2zm7 2.6a8.4 8.4 0 012.8 6.5h2c0-3.1-1.1-5.8-3.4-8l-1.4 1.5zm2.8 6.5v9h2v-9h-2zm0 9c0 2.7-.9 4.8-2.8 6.5l1.4 1.5c2.3-2.1 3.4-4.8 3.4-8h-2zm-2.8 6.5a9.9 9.9 0 01-7 2.6v2c3.3 0 6.1-1 8.4-3.1L172 132zm-7 2.6a10 10 0 01-7-2.6l-1.4 1.5a12 12 0 008.4 3.1v-2zm-7-2.6a8.4 8.4 0 01-2.8-6.4h-2c0 3.1 1 5.8 3.4 7.9l1.3-1.5zm.4-15.6v9.2h2v-9.2h-2zm0 9.2c0 1.7.6 3.2 1.9 4.4l1.3-1.5a3.7 3.7 0 01-1.2-2.9h-2zm1.9 4.4a6.9 6.9 0 004.7 1.7v-2a5 5 0 01-3.4-1.2l-1.3 1.5zm4.7 1.7c1.8 0 3.4-.6 4.7-1.7l-1.3-1.5c-1 .8-2 1.2-3.4 1.2v2zm4.7-1.7c1.3-1.2 2-2.7 2-4.4h-2c0 1.1-.4 2-1.3 2.9l1.3 1.5zm2-4.4v-9.2h-2v9.2h2zm0-9.2c0-1.7-.7-3.1-2-4.3l-1.3 1.5c.9.8 1.3 1.7 1.3 2.8h2zm-2-4.3a6.7 6.7 0 00-4.7-1.7v2c1.4 0 2.5.4 3.4 1.2l1.3-1.5zm-4.7-1.7c-1.8 0-3.4.6-4.7 1.7l1.3 1.5c.9-.8 2-1.2 3.4-1.2v-2zm-4.7 1.7a5.6 5.6 0 00-2 4.3h2c0-1 .5-2 1.3-2.8l-1.3-1.5zm36.3 1.3h1v-1.6l-1.4.7.4.9zm-4.8 2.4l-1 .4.5 1 1-.5-.5-1zm-2.2-4.6l-.4-.9-.9.5.4.9 1-.5zm8.5-4.2v-1h-.2l-.2.1.4 1zm3.7 0h1v-1h-1v1zm0 28v1h1v-1h-1zm-5.2 0h-1v1h1v-1zm-.4-22.5l-4.9 2.4 1 1.8 4.8-2.4-1-1.8zm-3.5 2.9l-2.2-4.6-1.8.9 2.2 4.5 1.8-.8zm-2.6-3.3l8.5-4.2-1-1.8-8.4 4.2.9 1.8zm8-4h3.7v-2h-3.7v2zm2.7-1v28h2v-28h-2zm1 27h-5.2v2h5.2v-2zm-4.2 1v-21.7h-2V135h2zm23.6-25.8l-.7-.7.7.7zm15.5 0l-.7.7.7-.7zm0 23.5l-.7-.8.7.8zm-15.5 0l-.7.7.7-.7zm3.7-3.6l-.6.8.6-.8zm8.1 0l.7.8-.7-.8zm0-16.3l-.7.7.7-.7zm-8 0l.6.7-.7-.7zm-5.9 12.7v-9h-2v9h2zm0-9c0-2.7 1-4.8 2.8-6.6l-1.4-1.4a10.4 10.4 0 00-3.4 8h2zm2.8-6.6a10 10 0 017-2.6v-2a12 12 0 00-8.4 3.2l1.4 1.4zm7-2.6c3 0 5.3 1 7.1 2.6l1.4-1.4c-2.3-2.1-5.1-3.2-8.4-3.2v2zm7.1 2.6a8.4 8.4 0 012.8 6.5h2c0-3.1-1.1-5.8-3.4-8l-1.4 1.5zm2.8 6.5v9h2v-9h-2zm0 9c0 2.7-1 4.8-2.8 6.5l1.4 1.5c2.3-2.1 3.4-4.8 3.4-8h-2zm-2.8 6.5a9.9 9.9 0 01-7 2.6v2c3.3 0 6.1-1 8.4-3.1L236 132zm-7 2.6a10 10 0 01-7.1-2.6l-1.4 1.5a12 12 0 008.5 3.1v-2zm-7-2.6a8.4 8.4 0 01-2.9-6.4h-2c0 3.1 1.2 5.8 3.4 7.9l1.4-1.5zm.3-15.6v9.2h2v-9.2h-2zm0 9.2c0 1.7.7 3.2 2 4.4l1.3-1.5a3.7 3.7 0 01-1.3-2.9h-2zm2 4.4a6.9 6.9 0 004.7 1.7v-2c-1.4 0-2.5-.4-3.4-1.2l-1.3 1.5zm4.7 1.7c1.8 0 3.4-.6 4.7-1.7l-1.3-1.5c-1 .8-2 1.2-3.4 1.2v2zm4.7-1.7c1.3-1.2 2-2.7 2-4.4h-2c0 1.1-.5 2-1.4 2.9l1.4 1.5zm2-4.4v-9.2h-2v9.2h2zm0-9.2c0-1.7-.7-3.1-2-4.3l-1.3 1.5c.8.8 1.3 1.7 1.3 2.8h2zm-2-4.3a6.7 6.7 0 00-4.7-1.7v2c1.4 0 2.5.4 3.3 1.2l1.4-1.5zm-4.7-1.7c-1.9 0-3.5.6-4.7 1.7l1.3 1.5c.9-.8 2-1.2 3.4-1.2v-2zm-4.7 1.7a5.6 5.6 0 00-2 4.3h2c0-1 .5-2 1.3-2.8l-1.3-1.5zm36.3 1.3h1v-1.6l-1.4.7.4.9zm-4.8 2.4l-1 .4.5 1 1-.5-.5-1zm-2.2-4.6l-.4-.9-1 .5.5.9 1-.5zm8.5-4.2v-1h-.2l-.3.1.5 1zm3.7 0h1v-1h-1v1zm0 28v1h1v-1h-1zm-5.2 0h-1v1h1v-1zm-.4-22.5l-4.9 2.4 1 1.8 4.8-2.4-1-1.8zm-3.5 2.9l-2.2-4.6-1.8.9 2.2 4.5 1.8-.8zm-2.6-3.3l8.4-4.2-.9-1.8-8.4 4.2.9 1.8zm8-4h3.7v-2h-3.7v2zm2.7-1v28h2v-28h-2zm1 27h-5.2v2h5.2v-2zm-4.2 1v-21.7h-2V135h2zm23.6-25.8l-.7-.7.7.7zm15.5 0l-.7.7.7-.7zm0 23.5l-.7-.8.7.8zm-15.5 0l-.7.7.7-.7zm3.7-3.6l-.7.8.7-.8zm8.1 0l.7.8-.7-.8zm0-16.3l-.7.7.7-.7zm-8 0l.6.7-.7-.7zm-5.9 12.7v-9h-2v9h2zm0-9c0-2.7 1-4.8 2.8-6.6l-1.4-1.4a10.4 10.4 0 00-3.4 8h2zm2.8-6.6a10 10 0 017-2.6v-2a12 12 0 00-8.4 3.2l1.4 1.4zm7-2.6c3 0 5.3 1 7.1 2.6l1.4-1.4c-2.3-2.1-5.1-3.2-8.4-3.2v2zm7.1 2.6a8.4 8.4 0 012.8 6.5h2c0-3.1-1.1-5.8-3.4-8l-1.4 1.5zm2.8 6.5v9h2v-9h-2zm0 9c0 2.7-1 4.8-2.8 6.5l1.4 1.5c2.3-2.1 3.4-4.8 3.4-8h-2zm-2.8 6.5a9.9 9.9 0 01-7 2.6v2c3.3 0 6.1-1 8.4-3.1L300 132zm-7 2.6a10 10 0 01-7.1-2.6l-1.4 1.5a12 12 0 008.5 3.1v-2zm-7.1-2.6a8.4 8.4 0 01-2.8-6.4h-2c0 3.1 1.2 5.8 3.4 7.9l1.4-1.5zm.4-15.6v9.2h2v-9.2h-2zm0 9.2c0 1.7.7 3.2 2 4.4l1.3-1.5a3.7 3.7 0 01-1.3-2.9h-2zm2 4.4a6.9 6.9 0 004.7 1.7v-2c-1.4 0-2.5-.4-3.4-1.2l-1.3 1.5zm4.7 1.7c1.8 0 3.4-.6 4.7-1.7l-1.4-1.5c-.8.8-2 1.2-3.3 1.2v2zm4.7-1.7c1.3-1.2 2-2.7 2-4.4h-2c0 1.1-.5 2-1.4 2.9l1.4 1.5zm2-4.4v-9.2h-2v9.2h2zm0-9.2c0-1.7-.7-3.1-2-4.3l-1.4 1.5c1 .8 1.3 1.7 1.3 2.8h2zm-2-4.3a6.7 6.7 0 00-4.7-1.7v2c1.4 0 2.5.4 3.3 1.2l1.4-1.5zm-4.7-1.7c-1.9 0-3.5.6-4.8 1.7l1.4 1.5c.9-.8 2-1.2 3.4-1.2v-2zm-4.7 1.7a5.6 5.6 0 00-2 4.3h2c0-1 .4-2 1.3-2.8l-1.3-1.5z" fill="#000"/>
  </g>
  <rect x="158.5" y="21.5" width="137" height="137" rx="68.5" stroke="#000" stroke-width="2" stroke-dasharray="7 7"/>
  <path d="M157 90l-36.7 21.2V68.8L156.9 90z" fill="#AB85FF"/>
  <path d="M173.7 90L137 111.2V68.8L173.7 90z" fill="#AB85FF"/>
  <path d="M190.4 90l-36.7 21.2V68.8L190.5 90z" fill="#AB85FF"/>
  <circle cx="66.1" cy="39.5" r="2.8" fill="#31D67B"/>
  <circle cx="77.4" cy="39.5" r="2.8" fill="#31D67B"/>
  <circle cx="88.7" cy="39.5" r="2.8" fill="#31D67B"/>
  <circle cx="99.9" cy="39.5" r="2.8" fill="#31D67B"/>
  <circle cx="66.1" cy="50.8" r="2.8" fill="#31D67B"/>
  <circle cx="77.4" cy="50.8" r="2.8" fill="#31D67B"/>
  <circle cx="88.7" cy="50.8" r="2.8" fill="#31D67B"/>
  <circle cx="99.9" cy="50.8" r="2.8" fill="#31D67B"/>
  <circle cx="99.9" cy="62" r="2.8" fill="#31D67B"/>
  <circle cx="88.7" cy="62" r="2.8" fill="#31D67B"/>
  <circle cx="77.4" cy="62" r="2.8" fill="#31D67B"/>
  <circle cx="66.1" cy="62" r="2.8" fill="#31D67B"/>
  <circle cx="66.1" cy="61.7" r="2.8" fill="#31D67B"/>
  <circle cx="77.4" cy="61.7" r="2.8" fill="#31D67B"/>
  <circle cx="88.7" cy="61.7" r="2.8" fill="#31D67B"/>
  <circle cx="99.9" cy="61.7" r="2.8" fill="#31D67B"/>
  <circle cx="66.1" cy="73" r="2.8" fill="#31D67B"/>
  <circle cx="77.4" cy="73" r="2.8" fill="#31D67B"/>
  <circle cx="88.7" cy="73" r="2.8" fill="#31D67B"/>
  <circle cx="99.9" cy="73" r="2.8" fill="#31D67B"/>
  <circle cx="99.9" cy="84.3" r="2.8" fill="#31D67B"/>
  <circle cx="88.7" cy="84.3" r="2.8" fill="#31D67B"/>
  <circle cx="77.4" cy="84.3" r="2.8" fill="#31D67B"/>
  <circle cx="66.1" cy="84.3" r="2.8" fill="#31D67B"/>
  <circle cx="66.1" cy="83.9" r="2.8" fill="#31D67B"/>
  <circle cx="77.4" cy="83.9" r="2.8" fill="#31D67B"/>
  <circle cx="88.7" cy="83.9" r="2.8" fill="#31D67B"/>
  <circle cx="99.9" cy="83.9" r="2.8" fill="#31D67B"/>
  <circle cx="66.1" cy="95.2" r="2.8" fill="#31D67B"/>
  <circle cx="77.4" cy="95.2" r="2.8" fill="#31D67B"/>
  <circle cx="88.7" cy="95.2" r="2.8" fill="#31D67B"/>
  <circle cx="99.9" cy="95.2" r="2.8" fill="#31D67B"/>
  <circle cx="99.9" cy="106.5" r="2.8" fill="#31D67B"/>
  <circle cx="88.7" cy="106.5" r="2.8" fill="#31D67B"/>
  <circle cx="77.4" cy="106.5" r="2.8" fill="#31D67B"/>
  <circle cx="66.1" cy="106.5" r="2.8" fill="#31D67B"/>
  <circle cx="66.1" cy="106.1" r="2.8" fill="#31D67B"/>
  <circle cx="77.4" cy="106.1" r="2.8" fill="#31D67B"/>
  <circle cx="88.7" cy="106.1" r="2.8" fill="#31D67B"/>
  <circle cx="99.9" cy="106.1" r="2.8" fill="#31D67B"/>
  <circle cx="66.1" cy="117.4" r="2.8" fill="#31D67B"/>
  <circle cx="77.4" cy="117.4" r="2.8" fill="#31D67B"/>
  <circle cx="88.7" cy="117.4" r="2.8" fill="#31D67B"/>
  <circle cx="99.9" cy="117.4" r="2.8" fill="#31D67B"/>
  <circle cx="99.9" cy="128.7" r="2.8" fill="#31D67B"/>
  <circle cx="88.7" cy="128.7" r="2.8" fill="#31D67B"/>
  <circle cx="77.4" cy="128.7" r="2.8" fill="#31D67B"/>
  <circle cx="66.1" cy="128.7" r="2.8" fill="#31D67B"/>
  <circle cx="66.1" cy="128.3" r="2.8" fill="#31D67B"/>
  <circle cx="77.4" cy="128.3" r="2.8" fill="#31D67B"/>
  <circle cx="88.7" cy="128.3" r="2.8" fill="#31D67B"/>
  <circle cx="99.9" cy="128.3" r="2.8" fill="#31D67B"/>
  <circle cx="66.1" cy="139.6" r="2.8" fill="#31D67B"/>
  <circle cx="77.4" cy="139.6" r="2.8" fill="#31D67B"/>
  <circle cx="88.7" cy="139.6" r="2.8" fill="#31D67B"/>
  <circle cx="99.9" cy="139.6" r="2.8" fill="#31D67B"/>
  <circle cx="99.9" cy="150.9" r="2.8" fill="#31D67B"/>
  <circle cx="88.7" cy="150.9" r="2.8" fill="#31D67B"/>
  <circle cx="77.4" cy="150.9" r="2.8" fill="#31D67B"/>
  <circle cx="66.1" cy="150.9" r="2.8" fill="#31D67B"/>
  <path d="M61.2 114.3V70.8m0 0l-.7 1.2m.7-1.2l.6 1.2M71.9 114.3V53.6m0 0l-.7 1.6m.7-1.6l.7 1.6M50.5 114.3V86.9m0 0l-.6.8m.6-.8l.7.8M82.6 114.3V94.7m0 0l-.7.5m.7-.5l.7.5" stroke="#000" stroke-width="2"/>
  <circle cx="66.6" cy="121.9" r="21.1" fill="#F5F5F5" stroke="#000" stroke-width="2"/>
  <defs>
    <clipPath id="clip0"/>
  </defs>
</svg>
