<svg width="341" height="180" fill="none" xmlns="http://www.w3.org/2000/svg">
  <path d="M245.3 137.8c13.5-1 39.3-11.7 40.5-40.5 0-36-27.5-45.5-41-45.5H98.3M245.5 137.8h-72.2" stroke="#000"/>
  <path d="M91 19l48.4 75.4H42.7L91 19z" fill="#31D67B"/>
  <path d="M96 81.9v50.8m0 0l.6-1.4m-.6 1.4l-.6-1.4M86 81.9v39m0 0l.5-1.1m-.5 1l-.5-1M106 81.9v32m0 0l.5-.9m-.6.9l-.6-.9M76.2 81.9v23m0 0l.6-.7m-.6.6l-.7-.6M205.3 52.3v85m0-85v85M209.8 51.8v86m0-86v86M214.8 51.8v86m0-86v86M219.8 51.8v86m0-86v86M224.8 51.8v86m0-86v86M229.8 51.8v86m0-86v86M234.8 51.8v86m0-86v86M239.8 51.8v86m0-86v86" stroke="#000"/>
  <circle cx="170.5" cy="137.8" r="23.2" fill="#A57CFE"/>
  <circle cx="285.8" cy="97.9" r="11.5" fill="#B491FF"/>
</svg>
