<svg width="341" height="180" viewBox="0 0 341 180" fill="none" xmlns="http://www.w3.org/2000/svg">
<circle cx="168.5" cy="90.5" r="58.5" fill="#31D67B"/>
<mask id="mask0" mask-type="alpha" maskUnits="userSpaceOnUse" x="149" y="49" width="35" height="108">
<path d="M164 154L164 51M164 51L165 53.8219M164 51L163 53.8219" stroke="black"/>
<path d="M182 157V86M182 86L183 87.9452M182 86L181 87.9452" stroke="black"/>
<path d="M172 157V96M172 96L173 97.6712M172 96L171 97.6712" stroke="black"/>
<path d="M151 154V74M151 74L152 76.1918M151 74L150 76.1918" stroke="black"/>
</mask>
<g mask="url(#mask0)">
<circle cx="168.5" cy="90.5" r="58.5" fill="black"/>
</g>
<circle cx="112.5" cy="33.5" r="8.5" fill="#8052E4"/>
<circle cx="91.5" cy="131.5" r="14.5" fill="#B491FF"/>
<circle cx="254.5" cy="80.5" r="10.5" fill="#AB85FF"/>
<circle cx="202.375" cy="119.375" r="1.375" fill="#D4D4D4"/>
<circle cx="208.125" cy="119.375" r="1.375" fill="#D4D4D4"/>
<circle cx="213.875" cy="119.375" r="1.375" fill="#D4D4D4"/>
<circle cx="219.625" cy="119.375" r="1.375" fill="#D4D4D4"/>
<circle cx="225.375" cy="119.375" r="1.375" fill="#D4D4D4"/>
<circle cx="231.125" cy="119.375" r="1.375" fill="#D4D4D4"/>
<circle cx="236.875" cy="119.375" r="1.375" fill="#D4D4D4"/>
<circle cx="242.625" cy="119.375" r="1.375" fill="#D4D4D4"/>
<circle cx="248.375" cy="119.375" r="1.375" fill="#D4D4D4"/>
<circle cx="202.375" cy="125.125" r="1.375" fill="#D4D4D4"/>
<circle cx="208.125" cy="125.125" r="1.375" fill="#D4D4D4"/>
<circle cx="202.375" cy="130.875" r="1.375" fill="#D4D4D4"/>
<circle cx="208.125" cy="130.875" r="1.375" fill="#D4D4D4"/>
<circle cx="213.875" cy="130.875" r="1.375" fill="#D4D4D4"/>
<circle cx="219.625" cy="130.875" r="1.375" fill="#D4D4D4"/>
<circle cx="225.375" cy="130.875" r="1.375" fill="#D4D4D4"/>
<circle cx="231.125" cy="130.875" r="1.375" fill="#D4D4D4"/>
<circle cx="236.875" cy="130.875" r="1.375" fill="#D4D4D4"/>
<circle cx="242.625" cy="130.875" r="1.375" fill="#D4D4D4"/>
<circle cx="248.375" cy="130.875" r="1.375" fill="#D4D4D4"/>
<circle cx="213.875" cy="125.125" r="1.375" fill="#D4D4D4"/>
<circle cx="219.625" cy="125.125" r="1.375" fill="#D4D4D4"/>
<circle cx="225.375" cy="125.125" r="1.375" fill="#D4D4D4"/>
<circle cx="231.125" cy="125.125" r="1.375" fill="#D4D4D4"/>
<circle cx="236.875" cy="125.125" r="1.375" fill="#D4D4D4"/>
<circle cx="242.625" cy="125.125" r="1.375" fill="#D4D4D4"/>
<circle cx="248.375" cy="125.125" r="1.375" fill="#D4D4D4"/>
<circle cx="261" cy="74" r="10.5" stroke="black"/>
<circle cx="103.5" cy="36.5" r="5" stroke="black"/>
</svg>
