<svg width="260" height="116" fill="none" xmlns="http://www.w3.org/2000/svg"><path d="M182.44 57.3l26.7 8.67m0 0l-8.41.75m8.42-.75l-5.8-5.07" stroke="url(#paint0_linear)"/><circle cx="21.23" cy="83.01" r="13.5" stroke="url(#paint1_linear)"/><path d="M159.38 58.66l-21.04 15.96" stroke="url(#paint2_linear)"/><circle cx="68.23" cy="46.01" r="13.5" stroke="url(#paint3_linear)"/><circle cx="126.18" cy="79.89" r="13.5" stroke="url(#paint4_linear)"/><circle cx="68.73" cy="45.89" r="19.5" transform="rotate(-180 68.73 45.9)" stroke="url(#paint5_linear)"/><path d="M53.73 32.9l-23.5-13.5-2.5 4 23.5 13.5" stroke="url(#paint6_linear)"/><circle cx="170.23" cy="50.89" r="13.5" stroke="url(#paint7_linear)"/><path d="M30.73 73.01l23-14.64" stroke="url(#paint8_linear)"/><path d="M82.23 59.47l31.05 17.16" stroke="url(#paint9_linear)"/><path d="M234.27 56.05l4.15 12.78h13.45l-10.88 7.9 4.15 12.79-10.87-7.9-10.88 7.9 4.16-12.79-10.88-7.9h13.45l4.15-12.78z" fill="url(#paint10_linear)"/><path d="M60.27 46.37h7.96m7.96 0h-7.96m0 0v-7.71 14.47" stroke="url(#paint11_linear)"/><defs><linearGradient id="paint0_linear" x1="179.28" y1="55.35" x2="215.53" y2="65.62" gradientUnits="userSpaceOnUse"><stop stop-color="#AB85FF"/><stop offset=".53" stop-color="#EBA3E3"/><stop offset="1" stop-color="#FFDBE4"/></linearGradient><linearGradient id="paint1_linear" x1="2.67" y1="99.81" x2="34.95" y2="58.09" gradientUnits="userSpaceOnUse"><stop stop-color="#AB85FF"/><stop offset=".53" stop-color="#EBA3E3"/><stop offset="1" stop-color="#FFDBE4"/></linearGradient><linearGradient id="paint2_linear" x1="162.46" y1="57.33" x2="132.02" y2="74.98" gradientUnits="userSpaceOnUse"><stop stop-color="#AB85FF"/><stop offset=".53" stop-color="#EBA3E3"/><stop offset="1" stop-color="#FFDBE4"/></linearGradient><linearGradient id="paint3_linear" x1="49.67" y1="62.81" x2="81.95" y2="21.09" gradientUnits="userSpaceOnUse"><stop stop-color="#AB85FF"/><stop offset=".53" stop-color="#EBA3E3"/><stop offset="1" stop-color="#FFDBE4"/></linearGradient><linearGradient id="paint4_linear" x1="107.62" y1="96.69" x2="139.9" y2="54.97" gradientUnits="userSpaceOnUse"><stop stop-color="#AB85FF"/><stop offset=".53" stop-color="#EBA3E3"/><stop offset="1" stop-color="#FFDBE4"/></linearGradient><linearGradient id="paint5_linear" x1="42.22" y1="69.89" x2="88.33" y2="10.29" gradientUnits="userSpaceOnUse"><stop stop-color="#AB85FF"/><stop offset=".53" stop-color="#EBA3E3"/><stop offset="1" stop-color="#FFDBE4"/></linearGradient><linearGradient id="paint6_linear" x1="57.96" y1="17.64" x2="40.89" y2="50.43" gradientUnits="userSpaceOnUse"><stop stop-color="#AB85FF"/><stop offset=".53" stop-color="#EBA3E3"/><stop offset="1" stop-color="#FFDBE4"/></linearGradient><linearGradient id="paint7_linear" x1="151.67" y1="67.69" x2="183.95" y2="25.97" gradientUnits="userSpaceOnUse"><stop stop-color="#AB85FF"/><stop offset=".53" stop-color="#EBA3E3"/><stop offset="1" stop-color="#FFDBE4"/></linearGradient><linearGradient id="paint8_linear" x1="26.99" y1="74.47" x2="40.8" y2="46.41" gradientUnits="userSpaceOnUse"><stop stop-color="#AB85FF"/><stop offset=".53" stop-color="#EBA3E3"/><stop offset="1" stop-color="#FFDBE4"/></linearGradient><linearGradient id="paint9_linear" x1="77.18" y1="78.35" x2="91.96" y2="43.79" gradientUnits="userSpaceOnUse"><stop stop-color="#AB85FF"/><stop offset=".53" stop-color="#EBA3E3"/><stop offset="1" stop-color="#FFDBE4"/></linearGradient><linearGradient id="paint10_linear" x1="209.75" y1="96.75" x2="252.4" y2="41.61" gradientUnits="userSpaceOnUse"><stop stop-color="#AB85FF"/><stop offset=".53" stop-color="#EBA3E3"/><stop offset="1" stop-color="#FFDBE4"/></linearGradient><linearGradient id="paint11_linear" x1="57.68" y1="54.57" x2="73.9" y2="31.52" gradientUnits="userSpaceOnUse"><stop stop-color="#AB85FF"/><stop offset=".53" stop-color="#EBA3E3"/><stop offset="1" stop-color="#FFDBE4"/></linearGradient></defs></svg>