<svg width="260" height="116" fill="none" xmlns="http://www.w3.org/2000/svg">
  <path d="M162.5 45.9a12 12 0 019.3 4.5h0c2.4 2.9 3.8 6.8 4 11.2-1.7.9-7 3.3-13.3 3.3-5.9 0-11.4-2.4-13.2-3.3 0-4.4 1.5-8.4 3.9-11.2a12 12 0 019.3-4.5z" stroke="url(#paint0_linear)"/>
  <path d="M168.9 37.3a6.4 6.4 0 11-12.8 0 6.4 6.4 0 0112.8 0z" stroke="url(#paint1_linear)"/>
  <path d="M202.5 59.8a12 12 0 019.3 4.5h0c2.4 2.8 3.8 6.8 4 11.2-1.7.9-7 3.3-13.3 3.3-5.9 0-11.4-2.5-13.2-3.3 0-4.4 1.5-8.4 3.9-11.2a12 12 0 019.3-4.5z" stroke="url(#paint2_linear)"/>
  <path d="M208.9 51.1a6.4 6.4 0 11-12.8 0 6.4 6.4 0 0112.8 0z" stroke="url(#paint3_linear)"/>
  <path d="M122.5 59.8a12 12 0 019.3 4.5h0c2.4 2.8 3.8 6.8 4 11.2-1.7.9-7 3.3-13.3 3.3-5.9 0-11.4-2.5-13.2-3.3 0-4.4 1.5-8.4 3.9-11.2a12 12 0 019.3-4.5z" stroke="url(#paint4_linear)"/>
  <path d="M128.9 51.1a6.4 6.4 0 11-12.8 0 6.4 6.4 0 0112.8 0z" stroke="url(#paint5_linear)"/>
  <g clip-path="url(#clip0)">
    <path d="M85.6 41.2l-21.1-6.4h-1l-21.1 6.4c-.7.2-1.2.8-1.2 1.5V66c0 3 1.3 6.1 3.7 9.2 1.8 2.4 4.4 4.8 7.6 7A68.2 68.2 0 0064 88.9c.2 0 .4 0 .6-.2.3 0 5.6-2.4 11-6.3 3.1-2.3 5.7-4.7 7.5-7a15 15 0 003.7-9.3V42.7c0-.7-.5-1.3-1.2-1.5zM63.4 66V66z" fill="url(#paint6_linear)"/>
  </g>
  <defs>
    <linearGradient id="paint0_linear" x1="144.3" y1="67.4" x2="164.6" y2="31.2" gradientUnits="userSpaceOnUse">
      <stop stop-color="#AB85FF"/>
      <stop offset=".5" stop-color="#EBA3E3"/>
      <stop offset="1" stop-color="#FFDBE4"/>
    </linearGradient>
    <linearGradient id="paint1_linear" x1="153.4" y1="45.5" x2="169.2" y2="25" gradientUnits="userSpaceOnUse">
      <stop stop-color="#AB85FF"/>
      <stop offset=".5" stop-color="#EBA3E3"/>
      <stop offset="1" stop-color="#FFDBE4"/>
    </linearGradient>
    <linearGradient id="paint2_linear" x1="184.3" y1="81.3" x2="204.6" y2="45.1" gradientUnits="userSpaceOnUse">
      <stop stop-color="#AB85FF"/>
      <stop offset=".5" stop-color="#EBA3E3"/>
      <stop offset="1" stop-color="#FFDBE4"/>
    </linearGradient>
    <linearGradient id="paint3_linear" x1="193.4" y1="59.4" x2="209.2" y2="38.9" gradientUnits="userSpaceOnUse">
      <stop stop-color="#AB85FF"/>
      <stop offset=".5" stop-color="#EBA3E3"/>
      <stop offset="1" stop-color="#FFDBE4"/>
    </linearGradient>
    <linearGradient id="paint4_linear" x1="104.3" y1="81.3" x2="124.6" y2="45.1" gradientUnits="userSpaceOnUse">
      <stop stop-color="#AB85FF"/>
      <stop offset=".5" stop-color="#EBA3E3"/>
      <stop offset="1" stop-color="#FFDBE4"/>
    </linearGradient>
    <linearGradient id="paint5_linear" x1="113.4" y1="59.4" x2="129.2" y2="38.9" gradientUnits="userSpaceOnUse">
      <stop stop-color="#AB85FF"/>
      <stop offset=".5" stop-color="#EBA3E3"/>
      <stop offset="1" stop-color="#FFDBE4"/>
    </linearGradient>
    <linearGradient id="paint6_linear" x1="33.8" y1="94.2" x2="97.9" y2="24.3" gradientUnits="userSpaceOnUse">
      <stop stop-color="#AB85FF"/>
      <stop offset=".5" stop-color="#EBA3E3"/>
      <stop offset="1" stop-color="#FFDBE4"/>
    </linearGradient>
    <clipPath id="clip0">
      <path fill="#fff" transform="translate(37 34.8)" d="M0 0h54v54H0z"/>
    </clipPath>
  </defs>
</svg>
