<svg width="260" height="116" fill="none" xmlns="http://www.w3.org/2000/svg">
  <path d="M171.3 20.4H250V90h-78.8m0-69.6V90m0-69.6l-14.5 4.4v60l14.5 5.2" stroke="url(#paint0_linear)"/>
  <path d="M147.3 58.2c.2-.2.2-.5 0-.7l-3.2-3.2a.5.5 0 00-.7.7l2.8 2.8-2.8 2.9a.5.5 0 00.7.7l3.2-3.2zm-39.3.1h39v-1h-39v1z" fill="url(#paint1_linear)"/>
  <path d="M210.5 39.2l4 12.4h13.1L217 59.3l4 12.4-10.5-7.7-10.6 7.7 4-12.4-10.5-7.7h13l4.1-12.4z" fill="url(#paint2_linear)"/>
  <path fill="#fff" d="M67.1 31.6h40.6v55.6H67.1z"/>
  <path stroke="url(#paint3_linear)" stroke-width=".4" d="M71.5 39.1h31.2v3.2H71.5z"/>
  <path stroke="url(#paint4_linear)" stroke-width=".4" d="M71.5 46.6h31.2v3.2H71.5z"/>
  <path stroke="url(#paint5_linear)" stroke-width=".4" d="M71.5 54.1h31.2v3.2H71.5z"/>
  <path stroke="url(#paint6_linear)" stroke-width=".4" d="M71.5 61.6h31.2v3.2H71.5z"/>
  <path stroke="url(#paint7_linear)" stroke-width=".4" d="M71.5 69.1h31.2v3.2H71.5z"/>
  <path stroke="url(#paint8_linear)" stroke-width=".4" d="M71.5 76.6h31.2v3.2H71.5z"/>
  <path stroke="url(#paint9_linear)" stroke-width=".4" d="M67.1 31.6h40.6v55.6H67.1z"/>
  <path fill="#fff" d="M10.2 14.6h62.4V101H10.2z"/>
  <path stroke="url(#paint10_linear)" stroke-width=".6" d="M16.9 26.2H65v4.9H16.9z"/>
  <path stroke="url(#paint11_linear)" stroke-width=".6" d="M16.9 37.8H65v4.9H16.9z"/>
  <path stroke="url(#paint12_linear)" stroke-width=".6" d="M16.9 49.4H65v4.9H16.9z"/>
  <path stroke="url(#paint13_linear)" stroke-width=".6" d="M16.9 61H65v4.9H16.9z"/>
  <path stroke="url(#paint14_linear)" stroke-width=".6" d="M16.9 72.5H65v4.9H16.9z"/>
  <path stroke="url(#paint15_linear)" stroke-width=".6" d="M16.9 84.1H65V89H16.9z"/>
  <path stroke="url(#paint16_linear)" stroke-width=".6" d="M10.2 14.6h62.4V101H10.2z"/>
  <defs>
    <linearGradient id="paint0_linear" x1="141.7" y1="96.9" x2="213.4" y2="-27.4" gradientUnits="userSpaceOnUse">
      <stop stop-color="#AB85FF"/>
      <stop offset=".5" stop-color="#EBA3E3"/>
      <stop offset="1" stop-color="#FFDBE4"/>
    </linearGradient>
    <linearGradient id="paint1_linear" x1="101.7" y1="58.9" x2="101.7" y2="56.6" gradientUnits="userSpaceOnUse">
      <stop stop-color="#AB85FF"/>
      <stop offset=".5" stop-color="#EBA3E3"/>
      <stop offset="1" stop-color="#FFDBE4"/>
    </linearGradient>
    <linearGradient id="paint2_linear" x1="186.6" y1="78.8" x2="228.1" y2="25.1" gradientUnits="userSpaceOnUse">
      <stop stop-color="#AB85FF"/>
      <stop offset=".5" stop-color="#EBA3E3"/>
      <stop offset="1" stop-color="#FFDBE4"/>
    </linearGradient>
    <linearGradient id="paint3_linear" x1="66.1" y1="42.8" x2="66.9" y2="34.4" gradientUnits="userSpaceOnUse">
      <stop stop-color="#AB85FF"/>
      <stop offset=".5" stop-color="#EBA3E3"/>
      <stop offset="1" stop-color="#FFDBE4"/>
    </linearGradient>
    <linearGradient id="paint4_linear" x1="66.1" y1="50.3" x2="66.9" y2="41.9" gradientUnits="userSpaceOnUse">
      <stop stop-color="#AB85FF"/>
      <stop offset=".5" stop-color="#EBA3E3"/>
      <stop offset="1" stop-color="#FFDBE4"/>
    </linearGradient>
    <linearGradient id="paint5_linear" x1="66.1" y1="57.8" x2="66.9" y2="49.4" gradientUnits="userSpaceOnUse">
      <stop stop-color="#AB85FF"/>
      <stop offset=".5" stop-color="#EBA3E3"/>
      <stop offset="1" stop-color="#FFDBE4"/>
    </linearGradient>
    <linearGradient id="paint6_linear" x1="66.1" y1="65.3" x2="66.9" y2="56.9" gradientUnits="userSpaceOnUse">
      <stop stop-color="#AB85FF"/>
      <stop offset=".5" stop-color="#EBA3E3"/>
      <stop offset="1" stop-color="#FFDBE4"/>
    </linearGradient>
    <linearGradient id="paint7_linear" x1="66.1" y1="72.8" x2="66.9" y2="64.4" gradientUnits="userSpaceOnUse">
      <stop stop-color="#AB85FF"/>
      <stop offset=".5" stop-color="#EBA3E3"/>
      <stop offset="1" stop-color="#FFDBE4"/>
    </linearGradient>
    <linearGradient id="paint8_linear" x1="66.1" y1="80.3" x2="66.9" y2="71.9" gradientUnits="userSpaceOnUse">
      <stop stop-color="#AB85FF"/>
      <stop offset=".5" stop-color="#EBA3E3"/>
      <stop offset="1" stop-color="#FFDBE4"/>
    </linearGradient>
    <linearGradient id="paint9_linear" x1="60.3" y1="93" x2="126.9" y2="30" gradientUnits="userSpaceOnUse">
      <stop stop-color="#AB85FF"/>
      <stop offset=".5" stop-color="#EBA3E3"/>
      <stop offset="1" stop-color="#FFDBE4"/>
    </linearGradient>
    <linearGradient id="paint10_linear" x1="8.7" y1="31.9" x2="9.8" y2="19" gradientUnits="userSpaceOnUse">
      <stop stop-color="#AB85FF"/>
      <stop offset=".5" stop-color="#EBA3E3"/>
      <stop offset="1" stop-color="#FFDBE4"/>
    </linearGradient>
    <linearGradient id="paint11_linear" x1="8.7" y1="43.5" x2="9.8" y2="30.6" gradientUnits="userSpaceOnUse">
      <stop stop-color="#AB85FF"/>
      <stop offset=".5" stop-color="#EBA3E3"/>
      <stop offset="1" stop-color="#FFDBE4"/>
    </linearGradient>
    <linearGradient id="paint12_linear" x1="8.7" y1="55.1" x2="9.8" y2="42.1" gradientUnits="userSpaceOnUse">
      <stop stop-color="#AB85FF"/>
      <stop offset=".5" stop-color="#EBA3E3"/>
      <stop offset="1" stop-color="#FFDBE4"/>
    </linearGradient>
    <linearGradient id="paint13_linear" x1="8.7" y1="66.7" x2="9.8" y2="53.7" gradientUnits="userSpaceOnUse">
      <stop stop-color="#AB85FF"/>
      <stop offset=".5" stop-color="#EBA3E3"/>
      <stop offset="1" stop-color="#FFDBE4"/>
    </linearGradient>
    <linearGradient id="paint14_linear" x1="8.7" y1="78.3" x2="9.8" y2="65.3" gradientUnits="userSpaceOnUse">
      <stop stop-color="#AB85FF"/>
      <stop offset=".5" stop-color="#EBA3E3"/>
      <stop offset="1" stop-color="#FFDBE4"/>
    </linearGradient>
    <linearGradient id="paint15_linear" x1="8.7" y1="89.8" x2="9.8" y2="76.9" gradientUnits="userSpaceOnUse">
      <stop stop-color="#AB85FF"/>
      <stop offset=".5" stop-color="#EBA3E3"/>
      <stop offset="1" stop-color="#FFDBE4"/>
    </linearGradient>
    <linearGradient id="paint16_linear" x1="-.3" y1="110" x2="103.1" y2="13.3" gradientUnits="userSpaceOnUse">
      <stop stop-color="#AB85FF"/>
      <stop offset=".5" stop-color="#EBA3E3"/>
      <stop offset="1" stop-color="#FFDBE4"/>
    </linearGradient>
  </defs>
</svg>
