<svg width="260" height="116" fill="none" xmlns="http://www.w3.org/2000/svg">
  <path d="M106.02 48.12c23.77-28.4 59.28-39.52 98.8 0m0 0c-1.75-9.3-2.42-13.7-2.55-14.73l2.55 14.73zm0 0c-1.75-.7-10.19-2.4-16.19-2.96" stroke="url(#paint0_linear)" stroke-width="2"/>
  <path d="M155.42 68.45c-23.77 28.4-59.29 39.52-98.8 0m0 0c1.74 9.3 2.42 13.7 2.54 14.74L56.6 68.45zm0 0c1.74.71 10.18 2.4 16.18 2.96" stroke="url(#paint1_linear)" stroke-width="2"/>
  <path d="M229.96 87.8c-.13-4.39-1.53-8.34-3.94-11.21l3.94 11.21zm0 0c-1.68.88-6.9 3.3-13.24 3.3-5.87 0-11.44-2.45-13.24-3.32.13-4.38 1.53-8.33 3.93-11.19a12.06 12.06 0 019.3-4.5c3.56 0 6.86 1.59 9.31 4.5l3.94 11.21z" fill="url(#paint2_linear)" stroke="url(#paint3_linear)"/>
  <path d="M223.1 63.47a6.37 6.37 0 11-12.76 0 6.37 6.37 0 0112.75 0z" fill="url(#paint4_linear)" stroke="url(#paint5_linear)"/>
  <path d="M24.56 68.45a1.27 1.27 0 01-1.25-1.52l1.8-9c.05-.24.16-.47.35-.64L52.43 30.3a6.36 6.36 0 019 9L34.44 66.27c-.18.18-.4.3-.65.35l-9 1.8-.24.02zm6.24-7.32l19.66-21.4c.72-.71 3.89-3.23 5.66-4.7l3.5-2.92c1.49-1.49 1.12-1.12 0 0L30.8 61.13z" fill="url(#paint6_linear)"/>
  <defs>
    <linearGradient id="paint0_linear" x1="89.94" y1="50.69" x2="101.73" y2="-8.02" gradientUnits="userSpaceOnUse">
      <stop stop-color="#AB85FF"/>
      <stop offset=".53" stop-color="#EBA3E3"/>
      <stop offset="1" stop-color="#FFDBE4"/>
    </linearGradient>
    <linearGradient id="paint1_linear" x1="171.49" y1="65.89" x2="159.7" y2="124.59" gradientUnits="userSpaceOnUse">
      <stop stop-color="#AB85FF"/>
      <stop offset=".53" stop-color="#EBA3E3"/>
      <stop offset="1" stop-color="#FFDBE4"/>
    </linearGradient>
    <linearGradient id="paint2_linear" x1="198.5" y1="93.59" x2="218.85" y2="57.41" gradientUnits="userSpaceOnUse">
      <stop stop-color="#AB85FF"/>
      <stop offset=".53" stop-color="#EBA3E3"/>
      <stop offset="1" stop-color="#FFDBE4"/>
    </linearGradient>
    <linearGradient id="paint3_linear" x1="198.5" y1="93.59" x2="218.85" y2="57.41" gradientUnits="userSpaceOnUse">
      <stop stop-color="#AB85FF"/>
      <stop offset=".53" stop-color="#EBA3E3"/>
      <stop offset="1" stop-color="#FFDBE4"/>
    </linearGradient>
    <linearGradient id="paint4_linear" x1="207.6" y1="71.71" x2="223.45" y2="51.23" gradientUnits="userSpaceOnUse">
      <stop stop-color="#AB85FF"/>
      <stop offset=".53" stop-color="#EBA3E3"/>
      <stop offset="1" stop-color="#FFDBE4"/>
    </linearGradient>
    <linearGradient id="paint5_linear" x1="207.6" y1="71.71" x2="223.45" y2="51.23" gradientUnits="userSpaceOnUse">
      <stop stop-color="#AB85FF"/>
      <stop offset=".53" stop-color="#EBA3E3"/>
      <stop offset="1" stop-color="#FFDBE4"/>
    </linearGradient>
    <linearGradient id="paint6_linear" x1="16.78" y1="72.44" x2="62.88" y2="12.85" gradientUnits="userSpaceOnUse">
      <stop stop-color="#AB85FF"/>
      <stop offset=".53" stop-color="#EBA3E3"/>
      <stop offset="1" stop-color="#FFDBE4"/>
    </linearGradient>
  </defs>
</svg>
