<svg width="261" height="116" fill="none" xmlns="http://www.w3.org/2000/svg">
  <path d="M45.9 13.3h90v79.5h-90m0-79.5v79.5m0-79.5l-16.5 5v68.5l16.5 6" stroke="url(#paint0_linear)"/>
  <path d="M103.7 68c0-4.6-1.5-8.8-4-11.8-2.6-3-6-4.7-9.7-4.7-3.7 0-7.1 1.7-9.7 4.7-2.5 3-4 7.2-4 11.8 1.4.7 7.4 3.5 13.7 3.5 6.9 0 12.4-2.8 13.7-3.5z" fill="url(#paint1_linear)"/>
  <path d="M90 50.3a6.9 6.9 0 100-13.8 6.9 6.9 0 000 13.8z" fill="url(#paint2_linear)"/>
  <path d="M122.7 67.8h39.7v35h-39.7m0-35v35m0-35l-7.3 2.2V100l7.3 2.7" stroke="url(#paint3_linear)"/>
  <path d="M198.6 59.7c0-3.1-1-6-2.8-8a9 9 0 00-13.6 0c-1.8 2-2.8 4.9-2.8 8 1 .5 5.2 2.4 9.6 2.4a22 22 0 009.6-2.4z" fill="url(#paint4_linear)"/>
  <path d="M189 47.7c2.7 0 4.8-2 4.8-4.6 0-2.6-2.1-4.7-4.8-4.7-2.7 0-4.8 2.1-4.8 4.7 0 2.5 2.1 4.6 4.8 4.6z" fill="url(#paint5_linear)"/>
  <path d="M220.6 21.3h-64.2v57h64.2m0-57v57m0-57l11.8 3.5V74l-11.8 4.3" stroke="url(#paint6_linear)"/>
  <defs>
    <linearGradient id="paint0_linear" x1="12.1" y1="100.7" x2="94" y2="-41.3" gradientUnits="userSpaceOnUse">
      <stop stop-color="#AB85FF"/>
      <stop offset=".5" stop-color="#EBA3E3"/>
      <stop offset="1" stop-color="#FFDBE4"/>
    </linearGradient>
    <linearGradient id="paint1_linear" x1="71.8" y1="73.5" x2="92.1" y2="37.3" gradientUnits="userSpaceOnUse">
      <stop stop-color="#AB85FF"/>
      <stop offset=".5" stop-color="#EBA3E3"/>
      <stop offset="1" stop-color="#FFDBE4"/>
    </linearGradient>
    <linearGradient id="paint2_linear" x1="80.9" y1="51.6" x2="96.7" y2="31.1" gradientUnits="userSpaceOnUse">
      <stop stop-color="#AB85FF"/>
      <stop offset=".5" stop-color="#EBA3E3"/>
      <stop offset="1" stop-color="#FFDBE4"/>
    </linearGradient>
    <linearGradient id="paint3_linear" x1="107.7" y1="106.2" x2="143.8" y2="43.7" gradientUnits="userSpaceOnUse">
      <stop stop-color="#AB85FF"/>
      <stop offset=".5" stop-color="#EBA3E3"/>
      <stop offset="1" stop-color="#FFDBE4"/>
    </linearGradient>
    <linearGradient id="paint4_linear" x1="176.2" y1="63.4" x2="189.7" y2="38.6" gradientUnits="userSpaceOnUse">
      <stop stop-color="#AB85FF"/>
      <stop offset=".5" stop-color="#EBA3E3"/>
      <stop offset="1" stop-color="#FFDBE4"/>
    </linearGradient>
    <linearGradient id="paint5_linear" x1="182.6" y1="48.6" x2="193.2" y2="34.4" gradientUnits="userSpaceOnUse">
      <stop stop-color="#AB85FF"/>
      <stop offset=".5" stop-color="#EBA3E3"/>
      <stop offset="1" stop-color="#FFDBE4"/>
    </linearGradient>
    <linearGradient id="paint6_linear" x1="244.7" y1="83.9" x2="185.8" y2="-17.6" gradientUnits="userSpaceOnUse">
      <stop stop-color="#AB85FF"/>
      <stop offset=".5" stop-color="#EBA3E3"/>
      <stop offset="1" stop-color="#FFDBE4"/>
    </linearGradient>
  </defs>
</svg>
