<svg width="261" height="115" fill="none" xmlns="http://www.w3.org/2000/svg">
  <path d="M76 52.9l-1.7-1v2.8l.7 5.4 2.5 7.8.9 2.1v1.4l.5 2.2-.5 2.3.5 2.7-.5 2-3.4.8-2.5 1.6-2.6 2.6-1 2.4 1.8 2.3 2.5 1.5c.5.4 1.5 1.4 1.5 1.7l.3 1.6-.6 1.5-.5 2.1-.4 1.2-1 1V104.8l2.2 1.4c.2.2.6-.3.7-.5l-.4-1.8.9-1.2 1.9 1.5h2.6l1.5-1.5 1.5-1.4 1.2-2.1 3-.5h1.7l2.5-.5h1.4l1-.3 1.1-1h1.9l.8 1h4.8l4.6.8h3.1l2.9 1.8h3l2.3.8 1.5-.4h2.3v1.8l.8.3v1.2H127l.5-.3h1l.5 1.7.6 1.2.9-.8 1.3-2.1.7.8h1.8l1.8-2 1.5 2.6.8.3 1.3-1.4 1.8.5.8 2.1 1 .8.6-.3v-.9l.4-1.1.9-1H147l.8-.4.8-1.2 1 1.5v1.4l1 1.7 1 1.4.7-.7h2v-1.2l.5-.4 1.6-1.1.3 1.1 1.3.4h1l.6-.8 1.1-.7h2.6l1.2.7 1.8 3 2.2.7 1-1v-1.9l-.4-1.5-1-2.6-.7-1.4.6-.8 1-1 .8-2.2.8-1.4 2.2-1.2v-1.3l.4-1.2 1-.9 1.8 1h1.4l.6-1 1-.5h5.1v-1.7l-.8-.9-.7-1-1.1-1.3-.4-2.7.4-1v-1.6l-.7-1c-.4-.3-1.1-1-1.4-1-.3-.2.5-.6.9-.8l.5-1.5-1.4-.8.3-1-1.3-1-1.3-1.7-.8-1 .8-.8.3-1.7v-1.1l1 .5 1.3-.5h1.8L184 69h2.4l2.7-.7.8-1.1.8-.8.6-1.5V64h1.3l1-.7 1.4-.8v-1.3l-.5-1.5h-1l-2.2-1.4-.6-1v-1.8l-.8-1h-1.2l-1.5-1-2-.5-2.7.5h-1.5l.4-.5.6-1.5.5-1.6v-1.1l-.5-1.1-1.3-.5-1-.5-2-.4-2-1.3-1.1-.4v-2l-.5-1.5-1-1.4-1.3-.2v-.7l.6-.9.4-.8v-1l-.4-.8h-2l-.4-.4-2.3-1.2-.6-1 .6-1v-1l1-.8 1-1.5.3-1.8-.3-1.6-2.6-2.6.9-1.2.6-1.2v-3.5l-1-1.5-1.5.4h-.4l-1.3-.8-.5-1.6-3.1-1.5-.4-.5-1.8-.3h-.8l-.7.3-1.7-.3-1.2.3-.6 1.2h-1.9l-1 .8-.5 1h-.8l-.4-1v-1.5l.4-1.5-.4-1-2.5-1-2.7-.6c-.4.2-1.1.6-1.4.6-.3 0-1 .7-1.2 1l-1-.5L140 7l-.6-.7h-3.7l-.6.7-1.2-1.7h-1.2l-2 1-2 1L129 9h-1.5l-.7 1v2.5l-.8.5H122.9l-1.5-.8h-1.6l-3.2 3.2-.8-.4h-1l-.7 1 .8 1-2 2.3.6 2.5-1.7 1.3v.7l2.3.3 1.7-.3.8.8-1.3 1-.4 1.5h-.6l-1.3.4h-2.8l-.8.9v1.5l-.8.9-2.9 1-2.4 2.4v5.3l-1.3 2-1.1 3-.4 1.3h-2.4l-2 .8-.8 1.5-1.1 1-1.5-.6-1.1.6-1.3.7 1.3 1.6-1.3 1.1v-1h-.9l-4 2.7-1.2-1.3-1.2-.4-.6.4h-1.6l-1-.4-.9.4-.5.8-.5-.8h-2z" stroke="url(#paint0_linear)" stroke-width=".8"/>
  <path d="M145.4 55.9h.7l3.3-13.6 4.2 15.4-3.7 13.8h-10.3l-10.5-35h11.1l5.2 19.4zm16.2-19.3l9 34.9H160l-9.6-35h11.2zM168 51l3.6-14.4h10l-9.1 32-4.5-17.6z" fill="url(#paint1_linear)" stroke="url(#paint2_linear)" stroke-width=".8"/>
  <path d="M187.7 57.6H179l1.4-7.8h9.3v-.3l2.3-13h10l-6.1 35h-21.5l2.8-8.4H187.2v-.3l.9-4.8v-.4h-.4z" fill="url(#paint3_linear)" stroke="url(#paint4_linear)" stroke-width=".8"/>
  <path d="M158 25.6c8.4.3 27.4-2.6 37.1-16m0 0l-.8 6.6m.8-6.5c-1.2.5-4.2 1.7-6 1.8" stroke="url(#paint5_linear)" stroke-width=".8"/>
  <path d="M59 79.8c8.3.3 27.4-2.6 37-16m0 0l-.8 6.6M96 64c-1.2.5-4.2 1.7-6 1.7" stroke="url(#paint6_linear)" stroke-width=".8"/>
  <defs>
    <linearGradient id="paint0_linear" x1="48.4" y1="120.1" x2="161.3" y2="-56.3" gradientUnits="userSpaceOnUse">
      <stop stop-color="#AB85FF"/>
      <stop offset=".5" stop-color="#EBA3E3"/>
      <stop offset="1" stop-color="#FFDBE4"/>
    </linearGradient>
    <linearGradient id="paint1_linear" x1="119.9" y1="75.4" x2="154.5" y2="8.3" gradientUnits="userSpaceOnUse">
      <stop stop-color="#AB85FF"/>
      <stop offset=".5" stop-color="#EBA3E3"/>
      <stop offset="1" stop-color="#FFDBE4"/>
    </linearGradient>
    <linearGradient id="paint2_linear" x1="119.9" y1="75.4" x2="154.5" y2="8.3" gradientUnits="userSpaceOnUse">
      <stop stop-color="#AB85FF"/>
      <stop offset=".5" stop-color="#EBA3E3"/>
      <stop offset="1" stop-color="#FFDBE4"/>
    </linearGradient>
    <linearGradient id="paint3_linear" x1="169.1" y1="75.4" x2="211.6" y2="31.4" gradientUnits="userSpaceOnUse">
      <stop stop-color="#AB85FF"/>
      <stop offset=".5" stop-color="#EBA3E3"/>
      <stop offset="1" stop-color="#FFDBE4"/>
    </linearGradient>
    <linearGradient id="paint4_linear" x1="169.1" y1="75.4" x2="211.6" y2="31.4" gradientUnits="userSpaceOnUse">
      <stop stop-color="#AB85FF"/>
      <stop offset=".5" stop-color="#EBA3E3"/>
      <stop offset="1" stop-color="#FFDBE4"/>
    </linearGradient>
    <linearGradient id="paint5_linear" x1="152" y1="27.2" x2="163.4" y2="-7" gradientUnits="userSpaceOnUse">
      <stop stop-color="#AB85FF"/>
      <stop offset=".5" stop-color="#EBA3E3"/>
      <stop offset="1" stop-color="#FFDBE4"/>
    </linearGradient>
    <linearGradient id="paint6_linear" x1="53" y1="81.4" x2="64.4" y2="47.2" gradientUnits="userSpaceOnUse">
      <stop stop-color="#AB85FF"/>
      <stop offset=".5" stop-color="#EBA3E3"/>
      <stop offset="1" stop-color="#FFDBE4"/>
    </linearGradient>
  </defs>
</svg>
