<svg width="260" height="115" fill="none" xmlns="http://www.w3.org/2000/svg">
  <path d="M14 37.4v59.8h25c0-3.8 2-12.5 10.5-13 8.1-.5 11.2 8 12 13H84V71.1c13 1.5 15.5-5 15.5-11.6C98.7 50 88.8 49.8 84 51V26.8H24.5c-7.2 0-10.5 6-10.5 10.6z" stroke="url(#paint0_linear)"/>
  <path d="M154.5 15.6L106.1 30l-.8.2 6 20.8c3.2-1 10.9-1.4 13.4 5.6 2.4 6.6-3.9 11.2-7.8 13.2l5.5 18.7 21.5-6.4c2 11.2 8 11.7 13.3 10 7.7-3 5.4-11.2 3.2-15l20-5.8-14.6-49.6a9 9 0 00-11.3-6.1z" stroke="url(#paint1_linear)"/>
  <path d="M241 41.7l-23.7-25.3-.4-.4-10.7 10.2c1.5 1.6 4.2 6.2.7 9.9-3.3 3.5-8 1-10.4-.7l-9.6 9.1 10.5 11.2c-6.2 4.7-4.6 8.5-2 11.3 4.3 3.8 8.5-.2 10.1-2.7l9.7 10.4 25.5-24.2c3.1-3 2-7 .3-8.8z" stroke="url(#paint2_linear)"/>
  <defs>
    <linearGradient id="paint0_linear" x1="108" y1="108.7" x2="-.2" y2="7.1" gradientUnits="userSpaceOnUse">
      <stop stop-color="#AB85FF"/>
      <stop offset=".5" stop-color="#EBA3E3"/>
      <stop offset="1" stop-color="#FFDBE4"/>
    </linearGradient>
    <linearGradient id="paint1_linear" x1="118.8" y1="111.3" x2="177.2" y2="-3" gradientUnits="userSpaceOnUse">
      <stop stop-color="#AB85FF"/>
      <stop offset=".5" stop-color="#EBA3E3"/>
      <stop offset="1" stop-color="#FFDBE4"/>
    </linearGradient>
    <linearGradient id="paint2_linear" x1="172" y1="49.4" x2="259.2" y2="49.4" gradientUnits="userSpaceOnUse">
      <stop stop-color="#AB85FF"/>
      <stop offset=".5" stop-color="#EBA3E3"/>
      <stop offset="1" stop-color="#FFDBE4"/>
    </linearGradient>
  </defs>
</svg>
