<svg width="341" height="180" viewBox="0 0 341 180" fill="none" xmlns="http://www.w3.org/2000/svg">
<rect width="341" height="180" fill="#F5F5F5"/>
<path d="M121.674 29L194.42 142.25H48.9279L121.674 29Z" fill="#AB85FF"/>
<rect width="59.1042" height="3.69401" transform="translate(162.989 134.053) rotate(-90)" fill="#31D67B"/>
<rect width="59.1042" height="6.33259" transform="translate(174.599 134.053) rotate(-90)" fill="#31D67B"/>
<rect width="59.1042" height="10.0266" transform="translate(188.32 134.053) rotate(-90)" fill="#31D67B"/>
<rect width="59.1042" height="3.69401" transform="translate(206.674 134.053) rotate(-90)" fill="#31D67B"/>
<rect width="59.1042" height="6.33259" transform="translate(218.284 134.053) rotate(-90)" fill="#31D67B"/>
<rect width="59.1042" height="10.0266" transform="translate(232.004 134.053) rotate(-90)" fill="#31D67B"/>
<rect width="59.1042" height="3.69401" transform="translate(250.359 134.053) rotate(-90)" fill="#31D67B"/>
<rect width="59.1042" height="6.33259" transform="translate(261.969 134.053) rotate(-90)" fill="#31D67B"/>
<rect width="59.1042" height="10.0266" transform="translate(275.689 134.053) rotate(-90)" fill="#31D67B"/>
<path d="M162.989 112.535L89.9893 112.535M89.9893 112.535L91.9893 113.5M89.9893 112.535L91.9893 111.57" stroke="black"/>
<path d="M162.989 96.5L60.9893 96.5M60.9893 96.5L63.7838 97.5M60.9893 96.5L63.7838 95.5" stroke="black"/>
<path d="M162.989 128.5H116.989M116.989 128.5L118.25 129.5M116.989 128.5L118.25 127.5" stroke="black"/>
<path d="M162.989 80.5L129.989 80.5M129.989 80.5L130.893 81.5M129.989 80.5L130.893 79.5" stroke="black"/>
<circle cx="256.689" cy="38.2363" r="19" fill="#B491FF"/>
<circle cx="240.004" cy="37" r="7.5" stroke="black"/>
</svg>
