<svg width="341" height="180" viewBox="0 0 341 180" fill="none" xmlns="http://www.w3.org/2000/svg">
<rect width="341" height="180" fill="#F5F5F5"/>
<path d="M61.0545 24.0156L21.0322 69.1758H135.551L172.8 24.0156H61.0545Z" fill="#31D67B"/>
<mask id="mask0" mask-type="alpha" maskUnits="userSpaceOnUse" x="21" y="24" width="152" height="46">
<path d="M61.0545 24.0156L21.0322 69.1758H135.551L172.8 24.0156H61.0545Z" fill="#31D67B"/>
</mask>
<g mask="url(#mask0)">
<path d="M266.39 25.6294C193.328 -3.36346 141.14 -3.36346 109.828 25.6294C78.5156 54.6223 26.3284 54.6223 -46.7337 25.6294" stroke="#4AE991" stroke-width="2"/>
<path d="M257.237 81.153C201.227 37.5412 151.744 26.0259 108.789 46.6071C65.8335 67.1884 16.3507 55.6731 -39.6595 12.0613" stroke="#4AE991" stroke-width="2"/>
<path d="M263.301 61.9841C187.184 37.0674 135.158 39.9149 107.223 70.5267C79.2878 101.139 27.2619 103.986 -48.8547 79.0694" stroke="#4AE991" stroke-width="2"/>
</g>
<path d="M128.626 90.7168L70.7827 155.985H236.294L290.128 90.7168H128.626Z" fill="#AB85FF"/>
<mask id="mask1" mask-type="alpha" maskUnits="userSpaceOnUse" x="70" y="90" width="221" height="66">
<path d="M128.626 90.7168L70.7827 155.985H236.294L290.128 90.7168H128.626Z" fill="#AB85FF"/>
</mask>
<g mask="url(#mask1)">
<path d="M425.39 93.048C319.796 51.1455 244.371 51.1455 199.116 93.048C153.862 134.951 78.4371 134.951 -27.1573 93.048" stroke="#C9AEFF"/>
<path d="M412.162 173.294C331.212 110.264 259.696 93.6209 197.614 123.366C135.532 153.112 64.0165 136.469 -16.9334 73.4383" stroke="#C9AEFF"/>
<path d="M420.926 145.59C310.917 109.578 235.725 113.694 195.351 157.936C154.978 202.178 79.7863 206.294 -30.2227 170.282" stroke="#C9AEFF"/>
</g>
<path d="M264.795 60.6046C264.795 55.7392 262.862 51.0732 259.422 47.6328C255.981 44.1925 251.315 42.2598 246.45 42.2598C241.584 42.2598 236.918 44.1925 233.478 47.6328C230.038 51.0732 228.105 55.7392 228.105 60.6046L246.45 60.6046H264.795Z" fill="#8052E4"/>
<path d="M237.714 60.6049C237.714 57.3613 236.472 54.2506 234.26 51.9571C232.048 49.6635 229.049 48.375 225.921 48.375C222.793 48.375 219.794 49.6635 217.582 51.957C215.37 54.2506 214.128 57.3613 214.128 60.6049L225.921 60.6049H237.714Z" fill="#8052E4"/>
<path d="M290.128 60.6049C290.128 57.3613 288.333 54.2506 285.139 51.9571C281.944 49.6635 277.611 48.375 273.094 48.375C268.576 48.375 264.243 49.6635 261.048 51.957C257.854 54.2506 256.059 57.3613 256.059 60.6049L273.094 60.6049H290.128Z" fill="#8052E4"/>
<path d="M161.755 86.8558L156.395 88.4158C156.182 87.6691 155.649 87.0291 154.795 86.4958C153.942 85.9624 152.969 85.6958 151.875 85.6958C150.702 85.6958 149.702 85.9891 148.875 86.5758C148.049 87.1358 147.635 87.8291 147.635 88.6558C147.635 89.6958 148.489 90.5758 150.195 91.2958C150.889 91.5891 152.422 92.0824 154.795 92.7758C156.529 93.2558 157.915 93.7758 158.955 94.3358C159.782 94.7624 160.449 95.2558 160.955 95.8158C162.209 97.1224 162.835 98.8158 162.835 100.896C162.835 103.589 161.862 105.749 159.915 107.376C157.995 108.976 155.502 109.776 152.435 109.776C149.662 109.776 147.289 109.136 145.315 107.856C143.342 106.522 142.062 104.896 141.475 102.976L146.835 101.376C147.049 102.282 147.675 103.056 148.715 103.696C149.782 104.309 151.022 104.616 152.435 104.616C153.875 104.616 155.075 104.322 156.035 103.736C156.995 103.122 157.475 102.336 157.475 101.376C157.475 100.682 157.142 100.029 156.475 99.4158C156.209 99.2024 155.822 98.9758 155.315 98.7358C154.889 98.5224 154.142 98.2424 153.075 97.8958C149.742 96.9091 147.489 96.1091 146.315 95.4958C143.622 94.0558 142.275 91.9091 142.275 89.0558C142.275 86.5224 143.155 84.4824 144.915 82.9358C146.729 81.3624 149.022 80.5758 151.795 80.5758C154.249 80.5758 156.382 81.1758 158.195 82.3758C160.009 83.5491 161.195 85.0424 161.755 86.8558ZM166.728 81.1758H187.368V86.1358H172.088V92.5358H185.168V97.4958H172.088V104.216H187.568V109.176H166.728V81.1758ZM204.318 80.5758C208.532 80.5758 212.012 81.9758 214.758 84.7758C217.558 87.5224 218.958 90.9891 218.958 95.1758C218.958 99.3358 217.558 102.816 214.758 105.616C211.985 108.389 208.505 109.776 204.318 109.776C200.185 109.776 196.705 108.389 193.878 105.616C191.105 102.789 189.718 99.3091 189.718 95.1758C189.718 91.0158 191.105 87.5491 193.878 84.7758C196.678 81.9758 200.158 80.5758 204.318 80.5758ZM197.878 88.4558C196.172 90.2424 195.318 92.4824 195.318 95.1758C195.318 97.8691 196.172 100.109 197.878 101.896C199.585 103.682 201.732 104.576 204.318 104.576C206.905 104.576 209.052 103.682 210.758 101.896C212.492 100.082 213.358 97.8424 213.358 95.1758C213.358 92.5091 212.492 90.2691 210.758 88.4558C209.025 86.6424 206.878 85.7358 204.318 85.7358C201.758 85.7358 199.612 86.6424 197.878 88.4558Z" fill="#F5F5F5"/>
<path d="M161.755 86.8558L162.035 87.8159L163.011 87.5319L162.711 86.5607L161.755 86.8558ZM156.395 88.4158L155.434 88.6905L155.71 89.6568L156.675 89.3759L156.395 88.4158ZM148.875 86.5758L149.436 87.4037L149.445 87.3976L149.454 87.3913L148.875 86.5758ZM150.195 91.2958L150.585 90.3748L150.584 90.3744L150.195 91.2958ZM154.795 92.7758L154.515 93.7358L154.528 93.7395L154.795 92.7758ZM158.955 94.3358L158.481 95.2163L158.489 95.2204L158.497 95.2244L158.955 94.3358ZM160.955 95.8158L160.214 96.4867L160.224 96.4975L160.234 96.508L160.955 95.8158ZM159.915 107.376L160.556 108.144L160.557 108.143L159.915 107.376ZM145.315 107.856L144.755 108.684L144.763 108.69L144.771 108.695L145.315 107.856ZM141.475 102.976L141.189 102.018L140.225 102.305L140.519 103.268L141.475 102.976ZM146.835 101.376L147.809 101.147L147.566 100.114L146.549 100.418L146.835 101.376ZM148.715 103.696L148.191 104.547L148.204 104.555L148.217 104.563L148.715 103.696ZM156.035 103.736L156.557 104.589L156.565 104.584L156.574 104.578L156.035 103.736ZM156.475 99.4158L157.152 98.6798L157.127 98.6565L157.1 98.6349L156.475 99.4158ZM155.315 98.7358L154.868 99.6302L154.878 99.635L154.887 99.6395L155.315 98.7358ZM153.075 97.8958L153.384 96.9447L153.372 96.9407L153.359 96.9369L153.075 97.8958ZM146.315 95.4958L145.844 96.3777L145.852 96.382L146.315 95.4958ZM144.915 82.9358L144.26 82.1804L144.255 82.1846L144.915 82.9358ZM158.195 82.3758L157.643 83.2098L157.652 83.2154L158.195 82.3758ZM161.476 85.8956L156.116 87.4556L156.675 89.3759L162.035 87.8159L161.476 85.8956ZM157.357 88.1411C157.057 87.0929 156.325 86.2724 155.325 85.6478L154.265 87.3438C154.973 87.7858 155.307 88.2453 155.434 88.6905L157.357 88.1411ZM155.325 85.6478C154.299 85.0066 153.139 84.6958 151.875 84.6958V86.6958C152.798 86.6958 153.585 86.9183 154.265 87.3438L155.325 85.6478ZM151.875 84.6958C150.528 84.6958 149.318 85.0354 148.297 85.7603L149.454 87.3913C150.086 86.9428 150.876 86.6958 151.875 86.6958V84.6958ZM148.314 85.7479C147.278 86.4497 146.635 87.4257 146.635 88.6558H148.635C148.635 88.2326 148.819 87.8219 149.436 87.4037L148.314 85.7479ZM146.635 88.6558C146.635 90.3502 148.037 91.4706 149.807 92.2171L150.584 90.3744C148.94 89.6809 148.635 89.0414 148.635 88.6558H146.635ZM149.806 92.2167C150.563 92.537 152.155 93.0462 154.515 93.7357L155.076 91.8159C152.689 91.1187 151.215 90.6413 150.585 90.3748L149.806 92.2167ZM154.528 93.7395C156.223 94.2088 157.532 94.7049 158.481 95.2163L159.429 93.4553C158.299 92.8466 156.834 92.3028 155.062 91.812L154.528 93.7395ZM158.497 95.2244C159.241 95.6084 159.804 96.0336 160.214 96.4867L161.697 95.1449C161.093 94.478 160.323 93.9165 159.414 93.4472L158.497 95.2244ZM160.234 96.508C161.282 97.6006 161.835 99.0324 161.835 100.896H163.835C163.835 98.5992 163.136 96.6443 161.677 95.1236L160.234 96.508ZM161.835 100.896C161.835 103.314 160.978 105.185 159.274 106.608L160.557 108.143C162.746 106.313 163.835 103.865 163.835 100.896H161.835ZM159.275 106.608C157.573 108.026 155.323 108.776 152.435 108.776V110.776C155.681 110.776 158.418 109.926 160.556 108.144L159.275 106.608ZM152.435 108.776C149.82 108.776 147.644 108.174 145.86 107.017L144.771 108.695C146.934 110.097 149.504 110.776 152.435 110.776V108.776ZM145.875 107.027C144.055 105.797 142.94 104.346 142.432 102.684L140.519 103.268C141.184 105.446 142.629 107.248 144.755 108.684L145.875 107.027ZM141.761 103.934L147.121 102.334L146.549 100.418L141.189 102.018L141.761 103.934ZM145.862 101.605C146.153 102.844 146.998 103.813 148.191 104.547L149.239 102.844C148.353 102.298 147.944 101.721 147.809 101.147L145.862 101.605ZM148.217 104.563C149.457 105.275 150.873 105.616 152.435 105.616V103.616C151.171 103.616 150.107 103.343 149.214 102.829L148.217 104.563ZM152.435 105.616C154.009 105.616 155.401 105.295 156.557 104.589L155.514 102.882C154.749 103.35 153.742 103.616 152.435 103.616V105.616ZM156.574 104.578C157.759 103.821 158.475 102.745 158.475 101.376H156.475C156.475 101.927 156.232 102.424 155.497 102.893L156.574 104.578ZM158.475 101.376C158.475 100.324 157.958 99.4213 157.152 98.6798L155.798 100.152C156.326 100.637 156.475 101.041 156.475 101.376H158.475ZM157.1 98.6349C156.747 98.3523 156.282 98.087 155.743 97.832L154.887 99.6395C155.362 99.8646 155.671 100.053 155.851 100.197L157.1 98.6349ZM155.763 97.8414C155.262 97.5913 154.452 97.2918 153.384 96.9447L152.766 98.8468C153.832 99.1931 154.515 99.4536 154.868 99.6302L155.763 97.8414ZM153.359 96.9369C150.019 95.9483 147.854 95.172 146.779 94.6096L145.852 96.382C147.123 97.0463 149.465 97.8699 152.791 98.8547L153.359 96.9369ZM146.787 94.6139C145.562 93.9592 144.696 93.1726 144.132 92.2744C143.571 91.3797 143.275 90.3188 143.275 89.0558H141.275C141.275 90.6461 141.653 92.0852 142.438 93.3372C143.221 94.5856 144.375 95.5924 145.844 96.3776L146.787 94.6139ZM143.275 89.0558C143.275 86.7837 144.051 85.027 145.575 83.6869L144.255 82.1846C142.26 83.9379 141.275 86.2612 141.275 89.0558H143.275ZM145.571 83.6911C147.174 82.2997 149.223 81.5758 151.795 81.5758V79.5758C148.821 79.5758 146.283 80.4252 144.26 82.1805L145.571 83.6911ZM151.795 81.5758C154.078 81.5758 156.014 82.1315 157.643 83.2097L158.747 81.5418C156.75 80.22 154.419 79.5758 151.795 79.5758V81.5758ZM157.652 83.2154C159.297 84.2798 160.319 85.5925 160.8 87.1509L162.711 86.5607C162.072 84.4924 160.72 82.8184 158.739 81.5362L157.652 83.2154ZM166.728 81.1758V80.1758H165.728V81.1758H166.728ZM187.368 81.1758H188.368V80.1758H187.368V81.1758ZM187.368 86.1358V87.1358H188.368V86.1358H187.368ZM172.088 86.1358V85.1358H171.088V86.1358H172.088ZM172.088 92.5358H171.088V93.5358H172.088V92.5358ZM185.168 92.5358H186.168V91.5358H185.168V92.5358ZM185.168 97.4958V98.4958H186.168V97.4958H185.168ZM172.088 97.4958V96.4958H171.088V97.4958H172.088ZM172.088 104.216H171.088V105.216H172.088V104.216ZM187.568 104.216H188.568V103.216H187.568V104.216ZM187.568 109.176V110.176H188.568V109.176H187.568ZM166.728 109.176H165.728V110.176H166.728V109.176ZM166.728 82.1758H187.368V80.1758H166.728V82.1758ZM186.368 81.1758V86.1358H188.368V81.1758H186.368ZM187.368 85.1358H172.088V87.1358H187.368V85.1358ZM171.088 86.1358V92.5358H173.088V86.1358H171.088ZM172.088 93.5358H185.168V91.5358H172.088V93.5358ZM184.168 92.5358V97.4958H186.168V92.5358H184.168ZM185.168 96.4958H172.088V98.4958H185.168V96.4958ZM171.088 97.4958V104.216H173.088V97.4958H171.088ZM172.088 105.216H187.568V103.216H172.088V105.216ZM186.568 104.216V109.176H188.568V104.216H186.568ZM187.568 108.176H166.728V110.176H187.568V108.176ZM167.728 109.176V81.1758H165.728V109.176H167.728ZM214.758 84.7758L214.045 85.4761L214.051 85.4829L214.058 85.4897L214.758 84.7758ZM214.758 105.616L214.051 104.909L214.758 105.616ZM193.878 105.616L193.165 106.316L193.171 106.323L193.178 106.33L193.878 105.616ZM193.878 84.7758L194.586 85.4829L193.878 84.7758ZM197.878 88.4558L197.156 87.7648L197.155 87.765L197.878 88.4558ZM197.878 101.896L198.602 101.205L197.878 101.896ZM210.758 101.896L210.036 101.205L210.035 101.205L210.758 101.896ZM210.758 88.4558L210.036 89.1468L210.758 88.4558ZM204.318 81.5758C208.285 81.5758 211.501 82.883 214.045 85.4761L215.472 84.0755C212.523 81.0686 208.778 79.5758 204.318 79.5758V81.5758ZM214.058 85.4897C216.653 88.0346 217.958 91.2375 217.958 95.1758H219.958C219.958 90.7407 218.464 87.0103 215.459 84.0619L214.058 85.4897ZM217.958 95.1758C217.958 99.0855 216.654 102.307 214.051 104.909L215.466 106.323C218.463 103.325 219.958 99.5861 219.958 95.1758H217.958ZM214.051 104.909C211.479 107.481 208.26 108.776 204.318 108.776V110.776C208.751 110.776 212.491 109.297 215.466 106.323L214.051 104.909ZM204.318 108.776C200.434 108.776 197.21 107.483 194.579 104.902L193.178 106.33C196.201 109.295 199.936 110.776 204.318 110.776V108.776ZM194.592 104.915C192.011 102.285 190.718 99.0599 190.718 95.1758H188.718C188.718 99.5583 190.199 103.294 193.165 106.316L194.592 104.915ZM190.718 95.1758C190.718 91.2631 192.012 88.0564 194.586 85.4829L193.171 84.0687C190.198 87.0418 188.718 90.7684 188.718 95.1758H190.718ZM194.586 85.4829C197.188 82.8807 200.409 81.5758 204.318 81.5758V79.5758C199.908 79.5758 196.169 81.0708 193.171 84.0687L194.586 85.4829ZM197.155 87.765C195.254 89.7553 194.318 92.2505 194.318 95.1758H196.318C196.318 92.7144 197.089 90.7296 198.602 89.1465L197.155 87.765ZM194.318 95.1758C194.318 98.1011 195.254 100.596 197.155 102.587L198.602 101.205C197.089 99.622 196.318 97.6372 196.318 95.1758H194.318ZM197.155 102.587C199.06 104.581 201.473 105.576 204.318 105.576V103.576C201.991 103.576 200.11 102.784 198.602 101.205L197.155 102.587ZM204.318 105.576C207.164 105.576 209.577 104.581 211.482 102.587L210.035 101.205C208.527 102.784 206.646 103.576 204.318 103.576V105.576ZM211.481 102.587C213.405 100.575 214.358 98.082 214.358 95.1758H212.358C212.358 97.6029 211.579 99.5901 210.036 101.205L211.481 102.587ZM214.358 95.1758C214.358 92.2696 213.405 89.7767 211.481 87.7648L210.036 89.1468C211.579 90.7615 212.358 92.7486 212.358 95.1758H214.358ZM211.481 87.7648C209.555 85.7496 207.145 84.7358 204.318 84.7358V86.7358C206.612 86.7358 208.495 87.5353 210.036 89.1468L211.481 87.7648ZM204.318 84.7358C201.492 84.7358 199.082 85.7496 197.156 87.7648L198.601 89.1468C200.142 87.5353 202.025 86.7358 204.318 86.7358V84.7358Z" fill="black"/>
</svg>
