<svg width="341" height="180" viewBox="0 0 341 180" fill="none" xmlns="http://www.w3.org/2000/svg">
<rect width="341" height="180" fill="#F5F5F5"/>
<path d="M152 89.5C152 98.3642 153.746 107.142 157.138 115.331C160.53 123.521 165.502 130.962 171.77 137.23C178.038 143.498 185.479 148.47 193.669 151.862C201.858 155.254 210.636 157 219.5 157C228.364 157 237.142 155.254 245.331 151.862C253.521 148.47 260.962 143.498 267.23 137.23C273.498 130.962 278.47 123.521 281.862 115.331C285.254 107.142 287 98.3642 287 89.5L219.5 89.5H152Z" fill="#AB85FF"/>
<circle cx="145.375" cy="119.375" r="1.375" fill="#D4D4D4"/>
<circle cx="151.125" cy="119.375" r="1.375" fill="#D4D4D4"/>
<circle cx="156.875" cy="119.375" r="1.375" fill="#D4D4D4"/>
<circle cx="162.375" cy="119.375" r="1.375" fill="#D4D4D4"/>
<circle cx="168.375" cy="119.375" r="1.375" fill="#D4D4D4"/>
<circle cx="174.125" cy="119.375" r="1.375" fill="#D4D4D4"/>
<circle cx="179.875" cy="119.375" r="1.375" fill="#D4D4D4"/>
<circle cx="185.625" cy="119.375" r="1.375" fill="#D4D4D4"/>
<circle cx="191.375" cy="119.375" r="1.375" fill="#D4D4D4"/>
<circle cx="145.375" cy="125.125" r="1.375" fill="#D4D4D4"/>
<circle cx="151.125" cy="125.125" r="1.375" fill="#D4D4D4"/>
<circle cx="145.375" cy="130.875" r="1.375" fill="#D4D4D4"/>
<circle cx="151.125" cy="130.875" r="1.375" fill="#D4D4D4"/>
<circle cx="156.875" cy="130.875" r="1.375" fill="#D4D4D4"/>
<circle cx="162.625" cy="130.875" r="1.375" fill="#D4D4D4"/>
<circle cx="168.375" cy="130.875" r="1.375" fill="#D4D4D4"/>
<circle cx="174.125" cy="130.875" r="1.375" fill="#D4D4D4"/>
<circle cx="179.875" cy="130.875" r="1.375" fill="#D4D4D4"/>
<circle cx="185.625" cy="130.875" r="1.375" fill="#D4D4D4"/>
<circle cx="191.375" cy="130.875" r="1.375" fill="#D4D4D4"/>
<circle cx="156.875" cy="125.125" r="1.375" fill="#D4D4D4"/>
<circle cx="162.375" cy="125.125" r="1.375" fill="#D4D4D4"/>
<circle cx="168.375" cy="125.125" r="1.375" fill="#D4D4D4"/>
<circle cx="174.125" cy="125.125" r="1.375" fill="#D4D4D4"/>
<circle cx="179.875" cy="125.125" r="1.375" fill="#D4D4D4"/>
<circle cx="185.625" cy="125.125" r="1.375" fill="#D4D4D4"/>
<circle cx="191.375" cy="125.125" r="1.375" fill="#D4D4D4"/>
<path d="M139 119.5V113L145.5 113" stroke="#31D67B"/>
<path d="M198.5 129V135.5L192 135.5" stroke="#31D67B"/>
<rect width="169" height="27" transform="translate(43 33)" fill="#31D67B"/>
<rect x="267.5" y="74.5" width="30" height="30" stroke="black"/>
<circle cx="244" cy="115" r="10" fill="#B491FF"/>
<g clip-path="url(#clip0)">
<path d="M71.8472 51C71.9789 51 72.1106 51.0505 72.2117 51.151L81.5287 60.4668C81.7294 60.666 81.7294 60.9955 81.5287 61.1946L72.9464 69.7763L81.9045 78.7347C82.104 78.9338 82.104 79.2613 81.9045 79.4623L73.3561 88.0081L82.3573 97.0093C82.5579 97.2105 82.5579 97.5367 82.3573 97.7371L73.7762 106.319L82.7342 115.277C82.9346 115.478 82.9346 115.804 82.7342 116.005L73.8895 124.849C73.6889 125.05 73.3621 125.05 73.1619 124.849C72.9613 124.649 72.9613 124.323 73.1619 124.122L81.6424 115.641L72.6894 106.689C72.4892 106.488 72.4892 106.162 72.6894 105.962C72.7041 105.947 72.7216 105.942 72.7367 105.93C72.7543 105.906 72.7648 105.878 72.7864 105.856L81.2667 97.3751L72.3142 88.4227C72.1863 88.2951 72.1492 88.1191 72.1828 87.9552C72.1799 87.8197 72.2287 87.683 72.3312 87.5803L80.8117 79.0969L71.8588 70.147C71.6595 69.9456 71.6595 69.6181 71.8588 69.419C71.8735 69.403 71.89 69.3981 71.9054 69.3889C71.9227 69.3648 71.9321 69.3367 71.9556 69.3145L80.4359 60.8351L71.4844 51.8843C71.2838 51.6831 71.2838 51.3545 71.4844 51.1565C71.5823 51.0488 71.7155 51 71.8472 51Z" fill="black"/>
<path d="M85.7389 51.0002C85.8706 51.0002 86.0022 51.0507 86.103 51.1512L95.4195 60.467C95.6184 60.6662 95.6184 60.9957 95.4195 61.1948L86.8389 69.7765L95.7977 78.7349C95.9957 78.934 95.9957 79.2615 95.7977 79.4625L87.2485 88.0083L96.2507 97.0096C96.4505 97.2107 96.4505 97.5369 96.2507 97.7373L87.6695 106.318L96.628 115.276C96.8287 115.477 96.8287 115.804 96.628 116.004L87.7827 124.847C87.5825 125.048 87.2546 125.048 87.0551 124.847C86.8547 124.647 86.8547 124.321 87.0551 124.12L95.5352 115.64L86.5837 106.687C86.3831 106.486 86.3831 106.16 86.5837 105.96C86.5973 105.946 86.6133 105.941 86.6289 105.929C86.6465 105.905 86.6557 105.876 86.6792 105.854L95.1605 97.3729L86.2083 88.4205C86.0817 88.2938 86.0444 88.1187 86.0773 87.9551C86.074 87.8195 86.1216 87.6806 86.2253 87.5767L94.7089 79.0942L85.7511 70.1446C85.5517 69.9455 85.5517 69.6159 85.7511 69.4168C85.7657 69.4029 85.7823 69.3957 85.7966 69.3887C85.8152 69.3646 85.8245 69.3345 85.848 69.3143L94.328 60.8326L85.376 51.8819C85.1748 51.6809 85.1748 51.3543 85.376 51.1543C85.4739 51.049 85.6056 51.0002 85.7389 51.0002Z" fill="black"/>
<path d="M99.6306 51C99.7645 51 99.8953 51.0505 99.9949 51.151L109.313 60.4668C109.514 60.666 109.514 60.9955 109.313 61.1946L100.731 69.7763L109.688 78.7347C109.889 78.9338 109.889 79.2613 109.688 79.4623L101.141 88.0081L110.143 97.0093C110.34 97.2105 110.34 97.5367 110.143 97.7371L101.559 106.319L110.517 115.277C110.717 115.478 110.717 115.804 110.517 116.005L101.671 124.849C101.47 125.05 101.141 125.05 100.943 124.849C100.743 124.649 100.743 124.323 100.943 124.122L109.422 115.641L100.471 106.689C100.27 106.488 100.27 106.162 100.471 105.962C100.485 105.947 100.5 105.942 100.519 105.93C100.539 105.906 100.545 105.878 100.568 105.856L109.049 97.3751L100.095 88.4227C99.9684 88.2951 99.9343 88.1191 99.9648 87.9552C99.9624 87.8197 100.01 87.683 100.115 87.5803L108.597 79.0969L99.6431 70.147C99.4442 69.9456 99.4442 69.6181 99.6431 69.419C99.6569 69.403 99.6732 69.3981 99.6888 69.3889C99.7076 69.3648 99.7135 69.3367 99.7392 69.3145L108.221 60.8351L99.2693 51.8843C99.0678 51.6831 99.0678 51.3545 99.2693 51.1565C99.3672 51.0488 99.4982 51 99.6306 51Z" fill="black"/>
</g>
<circle cx="267" cy="136" r="16" fill="#8052E4"/>
<defs>
<clipPath id="clip0">
<rect width="74" height="74" fill="white" transform="matrix(1 0 0 -1 54 125)"/>
</clipPath>
</defs>
</svg>
