<svg width="183" height="106" viewBox="0 0 183 106" fill="none" xmlns="http://www.w3.org/2000/svg">
<path d="M55.9437 48.4779L54.2936 47.5209V50.305L54.9884 55.6992L57.5069 63.4426L58.3754 65.6177V67.0097L58.8965 69.1848L58.3754 71.4469L58.8965 74.1441L58.3754 76.1452L54.9884 77.0152L52.4699 78.5813L49.8645 81.1914L48.9092 83.5405L50.7329 85.8896L53.1646 87.3687C53.6568 87.8327 54.641 88.8303 54.641 89.1087C54.641 89.3872 54.8726 90.2688 54.9884 90.6748L54.3805 92.1539L53.8594 94.329L53.512 95.46L52.4699 96.5041V98.2442V100.419C53.0778 100.825 54.3631 101.672 54.641 101.811C54.9189 101.951 55.2779 101.521 55.4226 101.289L54.9884 99.4622L55.8569 98.2442L57.7675 99.8102H60.3728L61.8492 98.2442L63.4124 96.9391L64.6283 94.764L67.6679 94.329H69.318L71.7496 93.807H73.226L74.1813 93.4589L75.3103 92.4149H77.1341L78.0026 93.4589H82.7791L87.3819 94.329H90.5084L93.3743 96.0691H96.327L98.6719 96.9391L100.148 96.5041H102.493V98.2442L103.275 98.5922V99.8102H105.446H107.096L107.617 99.4622H108.572L109.093 101.202L109.701 102.42L110.57 101.55L111.872 99.4622L112.567 100.245H114.391L116.215 98.2442L117.691 100.854L118.473 101.202L119.775 99.8102L121.599 100.245L122.381 102.42L123.423 103.203L124.031 102.855V101.985L124.378 100.854L125.247 99.8102H125.855H126.984L127.765 99.4622L128.634 98.2442L129.676 99.8102V101.202L130.631 102.855L131.586 104.334L132.281 103.638H134.279V102.42L134.8 101.985L136.363 100.854L136.71 101.985L138.013 102.42H139.055L139.576 101.55L140.705 100.854H143.311L144.44 101.55L146.263 104.682L148.521 105.291L149.39 104.334V102.42L149.042 100.854L148 98.2442L147.392 96.9391L148 96.0691L149.042 95.112L149.824 92.8499L150.606 91.4579L152.777 90.2398V89.0217L153.211 87.8037L154.166 86.9337L155.99 87.9777L157.38 87.8037L157.988 86.9337L158.943 86.4116H160.767H164.067V84.6715L163.285 83.8015L162.59 82.7575L161.461 81.4524L161.114 78.7553L161.461 77.7112V76.1452L160.767 75.1011C160.419 74.8401 159.655 74.2833 159.377 74.1441C159.099 74.0049 159.84 73.564 160.246 73.361L160.767 71.882L159.377 71.0989L159.725 70.0549L158.422 69.0108L157.119 67.3578L156.251 66.4007L157.119 65.6177L157.38 63.8776V62.7465L158.422 63.2686L159.725 62.7465H161.461L164.067 64.5736H166.499L169.191 63.8776L169.972 62.7465L170.754 61.9635L171.362 60.4844V59.6144H172.665L173.62 58.9184L175.096 58.0483V56.7433L174.575 55.2642H173.62L171.362 53.8721L170.754 52.9151V52.1321V51.088L169.972 50.131H168.757L167.28 49.0869L165.196 48.5649L162.59 49.0869H161.114L161.461 48.5649L162.069 47.0858L162.59 45.5198V44.3887L162.069 43.2577L160.767 42.8226L159.725 42.3006L157.814 41.8656L155.816 40.5605L154.687 40.2125V38.1244L154.166 36.7324L153.124 35.2533L151.908 35.0793V34.3833L152.516 33.5132L152.864 32.7302V31.5991L152.516 30.9031H150.432L150.085 30.4681L147.74 29.25L147.219 28.293L147.74 27.3359V26.2049L148.695 25.5088L149.737 23.9428L150.085 22.2027L149.737 20.6366L147.219 18.0265L148.087 16.8084L148.695 15.5904V13.2413V12.1102L147.74 10.5442L146.177 10.9792H145.742L144.526 10.1961L144.005 8.63007L140.879 7.064L140.445 6.62898L138.708 6.28097H137.839L137.231 6.62898L135.495 6.28097L134.279 6.62898L133.671 7.76003H132.976H131.76L130.718 8.63007L130.284 9.67412H129.502L129.068 8.63007V7.064L129.502 5.58493L129.068 4.62789L126.549 3.58384L123.857 2.97481C123.51 3.17782 122.746 3.58384 122.468 3.58384C122.19 3.58384 121.541 4.27987 121.252 4.62789L120.296 4.10587L119.949 2.6268L119.428 1.84376H115.694L115.086 2.6268L113.87 0.886719H112.654L110.743 1.84376L108.746 2.97481L109.007 4.62789H107.443L106.749 5.58493V8.10805L105.967 8.63007H105.012H103.709H102.84L101.364 7.76003H99.8009L96.5876 10.9792L95.806 10.5442H94.8507L94.069 11.5012L94.8507 12.5453L92.94 14.8944L93.4611 17.4175L91.811 18.7225V19.4186L94.069 19.6796L95.806 19.4186L96.5876 20.2016L95.2849 21.2456L94.8507 22.7247H94.2427L92.94 23.0727H91.811H90.161L89.3794 23.9428V25.5088L88.5977 26.3789L85.7318 27.3359L83.3001 29.772V35.0793L81.9975 37.0804L80.8685 40.0385L80.5211 41.3436H78.0894L76.0919 42.2136L75.3103 43.6927L74.1813 44.7367L72.705 44.0407L71.576 44.7367L70.2733 45.3457L71.576 46.9988L70.2733 48.1299V46.9988H69.4048L65.4099 49.783L64.1941 48.4779L62.9782 48.1299L62.3703 48.4779H60.8071L59.7649 48.1299L58.8965 48.4779L58.3754 49.2609L57.8543 48.4779H55.9437Z" stroke="url(#paint0_linear)" stroke-width="0.751113"/>
<path d="M125.395 51.4571L126.123 51.4466L129.356 37.9198L133.601 53.3296L129.859 67.051H119.591L109.098 32.1529H120.189L125.395 51.4571ZM141.621 32.1529L150.593 67.051H139.985L130.367 32.1529H141.621ZM147.892 46.5689L151.487 32.1529H161.568L152.38 64.1384L147.892 46.5689Z" fill="url(#paint1_linear)" stroke="url(#paint2_linear)" stroke-width="0.751113"/>
<path d="M167.708 53.1637H158.895L160.279 45.3807H169.226H169.542L169.596 45.0694L171.838 32.1529H181.931L175.76 67.051H154.298L157.083 58.6861H166.891H167.208L167.261 58.374L168.078 53.6026L168.154 53.1637H167.708Z" fill="url(#paint3_linear)" stroke="url(#paint4_linear)" stroke-width="0.751113"/>
<path d="M138.044 21.2112C146.364 21.4685 165.422 18.638 175.096 5.25781M175.096 5.25781L174.275 11.8184M175.096 5.25781C173.848 5.82823 170.881 6.98334 168.998 7.04039" stroke="url(#paint5_linear)" stroke-width="0.751113"/>
<path d="M38.9688 75.3958C47.2884 75.6531 66.3463 72.8226 76.0212 59.4424M76.0212 59.4424L75.2002 66.0029M76.0212 59.4424C74.773 60.0128 71.8057 61.1679 69.9231 61.225" stroke="url(#paint6_linear)" stroke-width="0.751113"/>
<path d="M14.1831 67.4268L17.3674 77.2271H27.6721L19.3354 83.284L22.5197 93.0843L14.1831 87.0273L5.84649 93.0843L9.0308 83.284L0.694171 77.2271H10.9988L14.1831 67.4268Z" fill="url(#paint7_linear)"/>
<defs>
<linearGradient id="paint0_linear" x1="28.3827" y1="115.718" x2="141.281" y2="-60.6696" gradientUnits="userSpaceOnUse">
<stop stop-color="#AB85FF"/>
<stop offset="0.526042" stop-color="#EBA3E3"/>
<stop offset="1" stop-color="#FFDBE4"/>
</linearGradient>
<linearGradient id="paint1_linear" x1="99.8949" y1="70.9868" x2="134.482" y2="3.92257" gradientUnits="userSpaceOnUse">
<stop stop-color="#AB85FF"/>
<stop offset="0.526042" stop-color="#EBA3E3"/>
<stop offset="1" stop-color="#FFDBE4"/>
</linearGradient>
<linearGradient id="paint2_linear" x1="99.8949" y1="70.9868" x2="134.482" y2="3.92257" gradientUnits="userSpaceOnUse">
<stop stop-color="#AB85FF"/>
<stop offset="0.526042" stop-color="#EBA3E3"/>
<stop offset="1" stop-color="#FFDBE4"/>
</linearGradient>
<linearGradient id="paint3_linear" x1="149.124" y1="70.9868" x2="191.547" y2="26.9886" gradientUnits="userSpaceOnUse">
<stop stop-color="#AB85FF"/>
<stop offset="0.526042" stop-color="#EBA3E3"/>
<stop offset="1" stop-color="#FFDBE4"/>
</linearGradient>
<linearGradient id="paint4_linear" x1="149.124" y1="70.9868" x2="191.547" y2="26.9886" gradientUnits="userSpaceOnUse">
<stop stop-color="#AB85FF"/>
<stop offset="0.526042" stop-color="#EBA3E3"/>
<stop offset="1" stop-color="#FFDBE4"/>
</linearGradient>
<linearGradient id="paint5_linear" x1="132.017" y1="22.8216" x2="143.428" y2="-11.4053" gradientUnits="userSpaceOnUse">
<stop stop-color="#AB85FF"/>
<stop offset="0.526042" stop-color="#EBA3E3"/>
<stop offset="1" stop-color="#FFDBE4"/>
</linearGradient>
<linearGradient id="paint6_linear" x1="32.9415" y1="77.0061" x2="44.353" y2="42.7793" gradientUnits="userSpaceOnUse">
<stop stop-color="#AB85FF"/>
<stop offset="0.526042" stop-color="#EBA3E3"/>
<stop offset="1" stop-color="#FFDBE4"/>
</linearGradient>
<linearGradient id="paint7_linear" x1="-4.61424" y1="98.6259" x2="28.081" y2="56.362" gradientUnits="userSpaceOnUse">
<stop stop-color="#AB85FF"/>
<stop offset="0.526042" stop-color="#EBA3E3"/>
<stop offset="1" stop-color="#FFDBE4"/>
</linearGradient>
</defs>
</svg>
