<svg width="236" height="81" viewBox="0 0 236 81" fill="none" xmlns="http://www.w3.org/2000/svg">
<path d="M31.6289 49.9854H91.9077" stroke="url(#paint0_linear)" stroke-width="2"/>
<rect x="1.39844" y="39.9336" width="127" height="36.7496" stroke="url(#paint1_linear)" stroke-width="2"/>
<path d="M188.859 26.2812C165.087 -2.12885 129.577 -13.2403 90.0558 26.2812M90.0558 26.2812C91.7994 16.982 92.4789 12.5808 92.6007 11.5426L90.0558 26.2812ZM90.0558 26.2812C91.8006 25.5679 100.241 23.8862 106.243 23.3199" stroke="url(#paint2_linear)"/>
<path d="M169.119 49.3386L164.409 50.4486C164.269 49.9686 163.939 49.5786 163.419 49.2786C162.919 48.9586 162.319 48.7986 161.619 48.7986C160.899 48.7986 160.299 48.9586 159.819 49.2786C159.339 49.5986 159.099 50.0086 159.099 50.5086C159.099 51.1486 159.679 51.7086 160.839 52.1886C161.259 52.3486 162.309 52.6786 163.989 53.1786C165.269 53.5586 166.319 53.9986 167.139 54.4986C168.959 55.4586 169.919 57.1186 170.019 59.4786C170.019 61.5186 169.289 63.1486 167.829 64.3686C166.369 65.5886 164.479 66.1986 162.159 66.1986C160.039 66.1986 158.209 65.6986 156.669 64.6986C155.169 63.7186 154.189 62.4286 153.729 60.8286L158.499 59.6886C158.659 60.3086 159.079 60.8186 159.759 61.2186C160.439 61.6186 161.239 61.8186 162.159 61.8186C163.019 61.8186 163.749 61.6386 164.349 61.2786C164.949 60.8986 165.249 60.4386 165.249 59.8986C165.249 59.5186 165.069 59.1786 164.709 58.8786C164.249 58.4786 163.379 58.0686 162.099 57.6486L161.799 57.5586C160.779 57.2586 160.249 57.0986 160.209 57.0786L158.739 56.5386C158.019 56.2186 157.539 55.9886 157.299 55.8486C156.159 55.0286 155.449 54.3886 155.169 53.9286C154.609 52.9886 154.329 51.9686 154.329 50.8686C154.329 48.9486 154.989 47.3986 156.309 46.2186C157.649 45.0186 159.389 44.4186 161.529 44.4186C163.409 44.4186 165.049 44.8886 166.449 45.8286C167.829 46.7486 168.719 47.9186 169.119 49.3386ZM172.346 44.8086H188.036V49.1886H177.116V53.0286H186.296V57.4086H177.116V61.4286H188.186V65.8086H172.346V44.8086ZM190.392 44.8086H200.232C202.372 44.8086 204.172 45.4886 205.632 46.8486C207.092 48.1886 207.822 49.8586 207.822 51.8586C207.822 53.1786 207.482 54.3886 206.802 55.4886C206.122 56.5686 205.202 57.4086 204.042 58.0086L208.572 65.8086H203.292L199.242 58.9086H195.162V65.8086H190.392V44.8086ZM200.232 49.1886H195.162V54.5286H200.232C200.992 54.5286 201.622 54.2786 202.122 53.7786C202.622 53.2586 202.872 52.6186 202.872 51.8586C202.872 51.0986 202.622 50.4686 202.122 49.9686C201.622 49.4486 200.992 49.1886 200.232 49.1886ZM215.288 65.8086H210.578V44.8086H215.288L222.338 57.2886L229.358 44.8086H234.068V65.8086H229.358V53.6886L223.898 63.5586H220.748L215.288 53.6886V65.8086Z" fill="url(#paint3_linear)"/>
<defs>
<linearGradient id="paint0_linear" x1="21.8235" y1="51.0852" x2="21.8541" y2="48.704" gradientUnits="userSpaceOnUse">
<stop stop-color="#AB85FF"/>
<stop offset="0.526042" stop-color="#EBA3E3"/>
<stop offset="1" stop-color="#FFDBE4"/>
</linearGradient>
<linearGradient id="paint1_linear" x1="-20.5856" y1="81.5531" x2="-0.239278" y2="-6.00463" gradientUnits="userSpaceOnUse">
<stop stop-color="#AB85FF"/>
<stop offset="0.526042" stop-color="#EBA3E3"/>
<stop offset="1" stop-color="#FFDBE4"/>
</linearGradient>
<linearGradient id="paint2_linear" x1="204.931" y1="28.8421" x2="193.145" y2="-29.8616" gradientUnits="userSpaceOnUse">
<stop stop-color="#AB85FF"/>
<stop offset="0.526042" stop-color="#EBA3E3"/>
<stop offset="1" stop-color="#FFDBE4"/>
</linearGradient>
<linearGradient id="paint3_linear" x1="139.358" y1="85.3027" x2="177.584" y2="-5.83642" gradientUnits="userSpaceOnUse">
<stop stop-color="#AB85FF"/>
<stop offset="0.526042" stop-color="#EBA3E3"/>
<stop offset="1" stop-color="#FFDBE4"/>
</linearGradient>
</defs>
</svg>
