<svg width="241" height="79" viewBox="0 0 241 79" fill="none" xmlns="http://www.w3.org/2000/svg">
<path d="M175.386 38.8655L202.098 47.5367M202.098 47.5367L193.678 48.2801M202.098 47.5367L196.292 42.4681" stroke="url(#paint0_linear)"/>
<circle cx="14.1797" cy="64.5742" r="13.5" stroke="url(#paint1_linear)"/>
<path d="M152.329 40.2257L131.29 56.1886" stroke="url(#paint2_linear)"/>
<circle cx="61.1797" cy="27.5742" r="13.5" stroke="url(#paint3_linear)"/>
<circle cx="119.129" cy="61.457" r="13.5" stroke="url(#paint4_linear)"/>
<circle cx="61.6797" cy="27.457" r="19.5" transform="rotate(-180 61.6797 27.457)" stroke="url(#paint5_linear)"/>
<path d="M46.6797 14.457L23.1797 0.957031L20.6797 4.95703L44.1797 18.457" stroke="url(#paint6_linear)"/>
<circle cx="163.18" cy="32.457" r="13.5" stroke="url(#paint7_linear)"/>
<path d="M23.6797 54.5748L46.6797 39.9385" stroke="url(#paint8_linear)"/>
<path d="M75.1797 41.0322L106.234 58.198" stroke="url(#paint9_linear)"/>
<path d="M53.2227 27.94H61.1811M69.1394 27.94H61.1811M61.1811 27.94V20.2227V34.6924" stroke="url(#paint10_linear)"/>
<g clip-path="url(#clip0)">
<path d="M238.664 55.9788H235.978C235.753 55.2657 235.458 54.577 235.1 53.921L236.998 52.081C237.404 51.6873 237.628 51.1628 237.628 50.6042C237.628 50.0462 237.404 49.5217 236.998 49.128L234.968 47.1593C234.156 46.3725 232.736 46.3704 231.923 47.1593L230.025 48.9993C229.35 48.6522 228.639 48.3669 227.903 48.1478V45.544C227.903 44.3934 226.938 43.457 225.751 43.457H222.882C221.695 43.457 220.729 44.3934 220.729 45.544V48.1485C219.994 48.3676 219.284 48.6529 218.607 49L216.709 47.16C215.87 46.3461 214.504 46.3461 213.665 47.16L211.634 49.1287C210.795 49.9426 210.795 51.2671 211.634 52.081L213.531 53.9217C213.173 54.577 212.879 55.2664 212.653 55.9795H209.969C208.782 55.9795 207.816 56.9158 207.816 58.0664V60.849C207.816 61.9989 208.782 62.9353 209.969 62.9353H212.654C212.88 63.6483 213.175 64.337 213.533 64.993L211.635 66.8337C210.796 67.6476 210.796 68.9722 211.635 69.7861L213.665 71.7555C214.505 72.5687 215.871 72.5687 216.71 71.7555L218.608 69.9155C219.284 70.2626 219.995 70.5478 220.73 70.7669V73.3701C220.73 74.5207 221.696 75.457 222.882 75.457H225.752C226.938 75.457 227.904 74.5207 227.904 73.3701V70.7656C228.639 70.5464 229.35 70.2612 230.026 69.9141L231.924 71.7548C232.737 72.5429 234.158 72.5416 234.968 71.7548L236.998 69.7861C237.404 69.3923 237.628 68.8678 237.628 68.3099C237.628 67.7513 237.404 67.2275 236.998 66.8337L235.101 64.993C235.459 64.3377 235.753 63.6483 235.979 62.9353H238.664C239.851 62.9353 240.816 61.9989 240.816 60.8483V58.0657C240.816 56.9151 239.851 55.9788 238.664 55.9788ZM239.382 60.8483C239.382 61.2316 239.06 61.544 238.664 61.544H235.436C235.109 61.544 234.823 61.7589 234.742 62.0657C234.488 63.0153 234.101 63.9217 233.591 64.7593C233.425 65.0327 233.47 65.3805 233.701 65.6045L235.983 67.8174C236.117 67.9482 236.192 68.1228 236.192 68.3099C236.192 68.497 236.117 68.6716 235.983 68.8024L233.952 70.7711C233.683 71.0327 233.207 71.0327 232.937 70.7711L230.655 68.5589C230.424 68.3342 230.066 68.2911 229.783 68.4518C228.921 68.9457 227.986 69.3214 227.006 69.5669C226.69 69.6456 226.469 69.9224 226.469 70.2396V73.3701C226.469 73.7534 226.147 74.0657 225.751 74.0657H222.882C222.486 74.0657 222.164 73.7534 222.164 73.3701V70.2396C222.164 69.9224 221.943 69.6456 221.626 69.5662C220.647 69.3207 219.712 68.9457 218.848 68.4511C218.735 68.3857 218.61 68.3544 218.484 68.3544C218.298 68.3544 218.115 68.424 217.976 68.5582L215.695 70.7704C215.414 71.0417 214.959 71.0417 214.679 70.7704L212.649 68.8017C212.368 68.5297 212.368 68.088 212.649 67.8167L214.93 65.6045C215.162 65.3798 215.207 65.032 215.041 64.7593C214.531 63.9217 214.144 63.016 213.891 62.0657C213.809 61.7589 213.524 61.544 213.197 61.544H209.969C209.573 61.544 209.251 61.2316 209.251 60.8483V58.0657C209.251 57.6824 209.573 57.3701 209.969 57.3701H213.197C213.524 57.3701 213.809 57.1551 213.891 56.8483C214.145 55.8988 214.531 54.9923 215.041 54.1548C215.208 53.8814 215.162 53.5336 214.931 53.3096L212.649 51.0974C212.37 50.8261 212.37 50.3843 212.649 50.1123L214.68 48.1436C214.96 47.8716 215.415 47.8723 215.696 48.1436L217.977 50.3558C218.209 50.5805 218.567 50.625 218.848 50.4629C219.712 49.969 220.646 49.5934 221.626 49.3478C221.943 49.2685 222.164 48.9916 222.164 48.6744V45.544C222.164 45.1607 222.486 44.8483 222.882 44.8483H225.751C226.147 44.8483 226.469 45.1607 226.469 45.544V48.6744C226.469 48.9916 226.69 49.2685 227.007 49.3478C227.987 49.5934 228.921 49.969 229.784 50.4629C230.066 50.6243 230.425 50.5812 230.656 50.3558L232.937 48.1436C233.208 47.8807 233.683 47.8814 233.953 48.1436L235.983 50.1123C236.118 50.2431 236.193 50.4184 236.193 50.6049C236.193 50.7913 236.118 50.9666 235.983 51.0974L233.702 53.3096C233.471 53.5342 233.425 53.8821 233.592 54.1548C234.102 54.9923 234.488 55.8981 234.742 56.8483C234.823 57.1551 235.109 57.3701 235.436 57.3701H238.664C239.06 57.3701 239.382 57.6824 239.382 58.0657V60.8483Z" fill="url(#paint11_linear)"/>
<path d="M224.316 53.1963C220.757 53.1963 217.86 56.0053 217.86 59.4572C217.86 62.909 220.757 65.718 224.316 65.718C227.877 65.718 230.773 62.909 230.773 59.4572C230.773 56.0053 227.877 53.1963 224.316 53.1963ZM224.316 64.3267C221.547 64.3267 219.295 62.1424 219.295 59.4572C219.295 56.7719 221.547 54.5876 224.316 54.5876C227.085 54.5876 229.338 56.7719 229.338 59.4572C229.338 62.1424 227.085 64.3267 224.316 64.3267Z" fill="url(#paint12_linear)"/>
</g>
<defs>
<linearGradient id="paint0_linear" x1="172.226" y1="36.9164" x2="208.485" y2="47.1875" gradientUnits="userSpaceOnUse">
<stop stop-color="#AB85FF"/>
<stop offset="0.526042" stop-color="#EBA3E3"/>
<stop offset="1" stop-color="#FFDBE4"/>
</linearGradient>
<linearGradient id="paint1_linear" x1="-4.37498" y1="81.3706" x2="27.8981" y2="39.6523" gradientUnits="userSpaceOnUse">
<stop stop-color="#AB85FF"/>
<stop offset="0.526042" stop-color="#EBA3E3"/>
<stop offset="1" stop-color="#FFDBE4"/>
</linearGradient>
<linearGradient id="paint2_linear" x1="155.412" y1="38.8946" x2="124.969" y2="56.5491" gradientUnits="userSpaceOnUse">
<stop stop-color="#AB85FF"/>
<stop offset="0.526042" stop-color="#EBA3E3"/>
<stop offset="1" stop-color="#FFDBE4"/>
</linearGradient>
<linearGradient id="paint3_linear" x1="42.625" y1="44.3706" x2="74.8981" y2="2.65228" gradientUnits="userSpaceOnUse">
<stop stop-color="#AB85FF"/>
<stop offset="0.526042" stop-color="#EBA3E3"/>
<stop offset="1" stop-color="#FFDBE4"/>
</linearGradient>
<linearGradient id="paint4_linear" x1="100.574" y1="78.2534" x2="132.847" y2="36.5351" gradientUnits="userSpaceOnUse">
<stop stop-color="#AB85FF"/>
<stop offset="0.526042" stop-color="#EBA3E3"/>
<stop offset="1" stop-color="#FFDBE4"/>
</linearGradient>
<linearGradient id="paint5_linear" x1="35.173" y1="51.4518" x2="81.2774" y2="-8.14574" gradientUnits="userSpaceOnUse">
<stop stop-color="#AB85FF"/>
<stop offset="0.526042" stop-color="#EBA3E3"/>
<stop offset="1" stop-color="#FFDBE4"/>
</linearGradient>
<linearGradient id="paint6_linear" x1="50.909" y1="-0.790684" x2="33.8365" y2="31.9977" gradientUnits="userSpaceOnUse">
<stop stop-color="#AB85FF"/>
<stop offset="0.526042" stop-color="#EBA3E3"/>
<stop offset="1" stop-color="#FFDBE4"/>
</linearGradient>
<linearGradient id="paint7_linear" x1="144.625" y1="49.2534" x2="176.898" y2="7.53509" gradientUnits="userSpaceOnUse">
<stop stop-color="#AB85FF"/>
<stop offset="0.526042" stop-color="#EBA3E3"/>
<stop offset="1" stop-color="#FFDBE4"/>
</linearGradient>
<linearGradient id="paint8_linear" x1="19.9384" y1="56.0366" x2="33.751" y2="27.9785" gradientUnits="userSpaceOnUse">
<stop stop-color="#AB85FF"/>
<stop offset="0.526042" stop-color="#EBA3E3"/>
<stop offset="1" stop-color="#FFDBE4"/>
</linearGradient>
<linearGradient id="paint9_linear" x1="70.1282" y1="59.9124" x2="84.9075" y2="25.3503" gradientUnits="userSpaceOnUse">
<stop stop-color="#AB85FF"/>
<stop offset="0.526042" stop-color="#EBA3E3"/>
<stop offset="1" stop-color="#FFDBE4"/>
</linearGradient>
<linearGradient id="paint10_linear" x1="50.6335" y1="36.1375" x2="66.849" y2="13.0802" gradientUnits="userSpaceOnUse">
<stop stop-color="#AB85FF"/>
<stop offset="0.526042" stop-color="#EBA3E3"/>
<stop offset="1" stop-color="#FFDBE4"/>
</linearGradient>
<linearGradient id="paint11_linear" x1="202.448" y1="78.6529" x2="239.032" y2="29.885" gradientUnits="userSpaceOnUse">
<stop stop-color="#AB85FF"/>
<stop offset="0.526042" stop-color="#EBA3E3"/>
<stop offset="1" stop-color="#FFDBE4"/>
</linearGradient>
<linearGradient id="paint12_linear" x1="215.759" y1="66.9686" x2="230.075" y2="47.8855" gradientUnits="userSpaceOnUse">
<stop stop-color="#AB85FF"/>
<stop offset="0.526042" stop-color="#EBA3E3"/>
<stop offset="1" stop-color="#FFDBE4"/>
</linearGradient>
<clipPath id="clip0">
<rect width="33" height="32" fill="white" transform="translate(207.816 43.457)"/>
</clipPath>
</defs>
</svg>
