<svg width="204" height="90" viewBox="0 0 204 90" fill="none" xmlns="http://www.w3.org/2000/svg">
<rect x="1.1875" y="1.07422" width="184" height="77" stroke="url(#paint0_linear)"/>
<rect x="29.6875" y="10.0742" width="63" height="79" fill="white"/>
<rect x="36.6875" y="28.0742" width="50" height="7" stroke="url(#paint1_linear)"/>
<rect x="36.6875" y="46.0742" width="50" height="7" stroke="url(#paint2_linear)"/>
<rect x="36.6875" y="64.0742" width="50" height="7" stroke="url(#paint3_linear)"/>
<rect x="29.6875" y="10.0742" width="63" height="79" stroke="url(#paint4_linear)"/>
<rect x="119.93" y="37.0742" width="52" height="2" stroke="url(#paint5_linear)"/>
<rect x="119.93" y="48.0742" width="52" height="2" stroke="url(#paint6_linear)"/>
<rect x="119.93" y="59.0742" width="52" height="2" stroke="url(#paint7_linear)"/>
<path d="M171.84 61.5737C171.567 61.5737 171.301 61.4654 171.103 61.2695C170.857 61.0237 170.748 60.6695 170.817 60.3279L172.29 52.9612C172.332 52.7591 172.428 52.5737 172.576 52.4299L194.673 30.332C196.705 28.3008 200.009 28.3008 202.038 30.332C203.023 31.3154 203.565 32.6237 203.565 34.0154C203.565 35.407 203.023 36.7154 202.04 37.6987L179.942 59.7966C179.798 59.9424 179.613 60.0404 179.409 60.082L172.044 61.5529C171.978 61.5674 171.909 61.5737 171.84 61.5737ZM174.273 53.6799L173.169 59.2049L178.692 58.1008L200.565 36.2258C201.157 35.6341 201.482 34.8508 201.482 34.0154C201.482 33.1799 201.157 32.3966 200.567 31.8049C199.351 30.5862 197.365 30.5862 196.148 31.8049L174.273 53.6799ZM179.207 59.0591H179.228H179.207Z" fill="url(#paint8_linear)"/>
<path d="M198.357 40.9511C198.09 40.9511 197.823 40.849 197.619 40.6469L191.728 34.7532C191.321 34.3469 191.321 33.6865 191.728 33.2803C192.134 32.874 192.794 32.874 193.2 33.2803L199.092 39.174C199.498 39.5803 199.498 40.2407 199.092 40.6469C198.89 40.849 198.623 40.9511 198.357 40.9511Z" fill="url(#paint9_linear)"/>
<rect x="120.16" y="26.0742" width="52" height="2" stroke="url(#paint10_linear)"/>
<defs>
<linearGradient id="paint0_linear" x1="-29.4059" y1="86.364" x2="25.3579" y2="-81.5382" gradientUnits="userSpaceOnUse">
<stop stop-color="#AB85FF"/>
<stop offset="0.526042" stop-color="#EBA3E3"/>
<stop offset="1" stop-color="#FFDBE4"/>
</linearGradient>
<linearGradient id="paint1_linear" x1="27.8915" y1="36.3732" x2="30.17" y2="17.5969" gradientUnits="userSpaceOnUse">
<stop stop-color="#AB85FF"/>
<stop offset="0.526042" stop-color="#EBA3E3"/>
<stop offset="1" stop-color="#FFDBE4"/>
</linearGradient>
<linearGradient id="paint2_linear" x1="27.8915" y1="54.3732" x2="30.17" y2="35.5969" gradientUnits="userSpaceOnUse">
<stop stop-color="#AB85FF"/>
<stop offset="0.526042" stop-color="#EBA3E3"/>
<stop offset="1" stop-color="#FFDBE4"/>
</linearGradient>
<linearGradient id="paint3_linear" x1="27.8915" y1="72.3732" x2="30.17" y2="53.5969" gradientUnits="userSpaceOnUse">
<stop stop-color="#AB85FF"/>
<stop offset="0.526042" stop-color="#EBA3E3"/>
<stop offset="1" stop-color="#FFDBE4"/>
</linearGradient>
<linearGradient id="paint4_linear" x1="18.7768" y1="97.5638" x2="113.987" y2="-0.896029" gradientUnits="userSpaceOnUse">
<stop stop-color="#AB85FF"/>
<stop offset="0.526042" stop-color="#EBA3E3"/>
<stop offset="1" stop-color="#FFDBE4"/>
</linearGradient>
<linearGradient id="paint5_linear" x1="110.808" y1="39.8738" x2="111.121" y2="32.7427" gradientUnits="userSpaceOnUse">
<stop stop-color="#AB85FF"/>
<stop offset="0.526042" stop-color="#EBA3E3"/>
<stop offset="1" stop-color="#FFDBE4"/>
</linearGradient>
<linearGradient id="paint6_linear" x1="110.808" y1="50.8738" x2="111.121" y2="43.7427" gradientUnits="userSpaceOnUse">
<stop stop-color="#AB85FF"/>
<stop offset="0.526042" stop-color="#EBA3E3"/>
<stop offset="1" stop-color="#FFDBE4"/>
</linearGradient>
<linearGradient id="paint7_linear" x1="110.808" y1="61.8738" x2="111.121" y2="54.7427" gradientUnits="userSpaceOnUse">
<stop stop-color="#AB85FF"/>
<stop offset="0.526042" stop-color="#EBA3E3"/>
<stop offset="1" stop-color="#FFDBE4"/>
</linearGradient>
<linearGradient id="paint8_linear" x1="165.467" y1="64.8459" x2="203.231" y2="16.0244" gradientUnits="userSpaceOnUse">
<stop stop-color="#AB85FF"/>
<stop offset="0.526042" stop-color="#EBA3E3"/>
<stop offset="1" stop-color="#FFDBE4"/>
</linearGradient>
<linearGradient id="paint9_linear" x1="190.126" y1="41.7476" x2="199.319" y2="29.8663" gradientUnits="userSpaceOnUse">
<stop stop-color="#AB85FF"/>
<stop offset="0.526042" stop-color="#EBA3E3"/>
<stop offset="1" stop-color="#FFDBE4"/>
</linearGradient>
<linearGradient id="paint10_linear" x1="111.039" y1="28.8738" x2="111.351" y2="21.7427" gradientUnits="userSpaceOnUse">
<stop stop-color="#AB85FF"/>
<stop offset="0.526042" stop-color="#EBA3E3"/>
<stop offset="1" stop-color="#FFDBE4"/>
</linearGradient>
</defs>
</svg>
