<svg width="198" height="52" viewBox="0 0 198 52" fill="none" xmlns="http://www.w3.org/2000/svg">
<path d="M33.747 36.0846C33.675 31.4757 32.2392 27.2849 29.6863 24.2507C27.1482 21.235 23.7086 19.5742 19.9998 19.5742C16.2911 19.5742 12.8514 21.235 10.3133 24.2507C7.76285 27.2817 6.32793 31.4666 6.25293 36.0698C7.69512 36.7923 13.6631 39.5742 19.9998 39.5742C26.852 39.5742 32.4096 36.8086 33.747 36.0846Z" fill="url(#paint0_linear)"/>
<path d="M20 18.3242C23.797 18.3242 26.875 15.2462 26.875 11.4492C26.875 7.65226 23.797 4.57422 20 4.57422C16.203 4.57422 13.125 7.65226 13.125 11.4492C13.125 15.2462 16.203 18.3242 20 18.3242Z" fill="url(#paint1_linear)"/>
<path d="M113 49.1045L123 29.068L142 39.0862L153.5 13.5397L174 22.5561L197 9.03143M197 9.03143L192 17.547M197 9.03143H187" stroke="url(#paint2_linear)"/>
<path d="M53.9998 29.0742C57.5507 29.0742 60.8538 30.6617 63.3037 33.5726L63.3037 33.5727C65.7149 36.4385 67.1126 40.3953 67.2402 44.7873C65.5622 45.6595 60.34 48.0742 53.9998 48.0742C48.1354 48.0742 42.5686 45.6377 40.7602 44.7622C40.8927 40.38 42.289 36.433 44.6959 33.5726C47.1458 30.6617 50.4489 29.0742 53.9998 29.0742Z" stroke="url(#paint3_linear)"/>
<path d="M60.375 20.4492C60.375 23.97 57.5208 26.8242 54 26.8242C50.4792 26.8242 47.625 23.97 47.625 20.4492C47.625 16.9284 50.4792 14.0742 54 14.0742C57.5208 14.0742 60.375 16.9284 60.375 20.4492Z" stroke="url(#paint4_linear)"/>
<path d="M87.9998 18.0742C91.5507 18.0742 94.8538 19.6617 97.3037 22.5726L97.3037 22.5727C99.7149 25.4385 101.113 29.3953 101.24 33.7873C99.5622 34.6595 94.34 37.0742 87.9998 37.0742C82.1354 37.0742 76.5686 34.6377 74.7602 33.7622C74.8927 29.38 76.289 25.433 78.6959 22.5726C81.1458 19.6617 84.4489 18.0742 87.9998 18.0742Z" stroke="url(#paint5_linear)"/>
<path d="M94.375 9.44922C94.375 12.97 91.5208 15.8242 88 15.8242C84.4792 15.8242 81.625 12.97 81.625 9.44922C81.625 5.9284 84.4792 3.07422 88 3.07422C91.5208 3.07422 94.375 5.9284 94.375 9.44922Z" stroke="url(#paint6_linear)"/>
<defs>
<linearGradient id="paint0_linear" x1="1.78056" y1="41.5716" x2="22.1381" y2="5.39567" gradientUnits="userSpaceOnUse">
<stop stop-color="#AB85FF"/>
<stop offset="0.526042" stop-color="#EBA3E3"/>
<stop offset="1" stop-color="#FFDBE4"/>
</linearGradient>
<linearGradient id="paint1_linear" x1="10.8883" y1="19.6974" x2="26.7367" y2="-0.789234" gradientUnits="userSpaceOnUse">
<stop stop-color="#AB85FF"/>
<stop offset="0.526042" stop-color="#EBA3E3"/>
<stop offset="1" stop-color="#FFDBE4"/>
</linearGradient>
<linearGradient id="paint2_linear" x1="99.336" y1="5.02936" x2="130.335" y2="89.0267" gradientUnits="userSpaceOnUse">
<stop stop-color="#AB85FF"/>
<stop offset="0.526042" stop-color="#EBA3E3"/>
<stop offset="1" stop-color="#FFDBE4"/>
</linearGradient>
<linearGradient id="paint3_linear" x1="35.7806" y1="50.5716" x2="56.1381" y2="14.3957" gradientUnits="userSpaceOnUse">
<stop stop-color="#AB85FF"/>
<stop offset="0.526042" stop-color="#EBA3E3"/>
<stop offset="1" stop-color="#FFDBE4"/>
</linearGradient>
<linearGradient id="paint4_linear" x1="44.8883" y1="28.6974" x2="60.7367" y2="8.21077" gradientUnits="userSpaceOnUse">
<stop stop-color="#AB85FF"/>
<stop offset="0.526042" stop-color="#EBA3E3"/>
<stop offset="1" stop-color="#FFDBE4"/>
</linearGradient>
<linearGradient id="paint5_linear" x1="69.7806" y1="39.5716" x2="90.1381" y2="3.39567" gradientUnits="userSpaceOnUse">
<stop stop-color="#AB85FF"/>
<stop offset="0.526042" stop-color="#EBA3E3"/>
<stop offset="1" stop-color="#FFDBE4"/>
</linearGradient>
<linearGradient id="paint6_linear" x1="78.8883" y1="17.6974" x2="94.7367" y2="-2.78923" gradientUnits="userSpaceOnUse">
<stop stop-color="#AB85FF"/>
<stop offset="0.526042" stop-color="#EBA3E3"/>
<stop offset="1" stop-color="#FFDBE4"/>
</linearGradient>
</defs>
</svg>
