<svg width="260" height="115" fill="none" xmlns="http://www.w3.org/2000/svg">
  <path d="M25.5 28.6l3.6 11v.3h12l-9.4 6.8-.2.2v.4l3.6 11-9.3-6.8-.3-.2-.3.2-9.3 6.8 3.5-11 .1-.4-.2-.2L9.9 40h11.9l.1-.3 3.6-11z" fill="url(#paint0_linear)" stroke="url(#paint1_linear)"/>
  <path d="M77.5 28.6l3.6 11v.3h12l-9.4 6.8-.2.2v.4l3.6 11-9.3-6.8-.3-.2-.3.2-9.3 6.8 3.5-11 .1-.4-.2-.2-9.4-6.8h11.9l.1-.3 3.6-11z" fill="url(#paint2_linear)" stroke="url(#paint3_linear)"/>
  <path d="M129.5 28.6l3.6 11v.3h12l-9.4 6.8-.2.2v.4l3.6 11-9.3-6.8-.3-.2-.3.2-9.3 6.8 3.5-11 .1-.4-.2-.2-9.4-6.8h11.9l.1-.3 3.6-11z" fill="url(#paint4_linear)" stroke="url(#paint5_linear)"/>
  <path d="M181.5 28.6l3.6 11v.3h12l-9.4 6.8-.2.2v.4l3.6 11-9.3-6.8-.3-.2-.3.2-9.3 6.8 3.5-11 .1-.4-.2-.2-9.4-6.8h11.9l.1-.3 3.6-11z" fill="url(#paint6_linear)" stroke="url(#paint7_linear)"/>
  <path d="M233.5 28.6l3.6 11v.3h12l-9.4 6.8-.2.2v.4l3.6 11-9.3-6.8-.3-.2-.3.2-9.3 6.8 3.5-11 .1-.4-.2-.2-9.4-6.8h11.9l.1-.3 3.6-11z" stroke="url(#paint8_linear)"/>
  <path d="M11.5 80.5C23 85.7 137.1 98.1 152 70m0 0v9.5V70zm0 0c-2.5 1.7-8.9 3.1-10 3.5" stroke="url(#paint9_linear)"/>
  <defs>
    <linearGradient id="paint0_linear" x1="1.6" y1="66.6" x2="43.1" y2="13" gradientUnits="userSpaceOnUse">
      <stop stop-color="#AB85FF"/>
      <stop offset=".5" stop-color="#EBA3E3"/>
      <stop offset="1" stop-color="#FFDBE4"/>
    </linearGradient>
    <linearGradient id="paint1_linear" x1="1.6" y1="66.6" x2="43.1" y2="13" gradientUnits="userSpaceOnUse">
      <stop stop-color="#AB85FF"/>
      <stop offset=".5" stop-color="#EBA3E3"/>
      <stop offset="1" stop-color="#FFDBE4"/>
    </linearGradient>
    <linearGradient id="paint2_linear" x1="53.6" y1="66.6" x2="95.1" y2="13" gradientUnits="userSpaceOnUse">
      <stop stop-color="#AB85FF"/>
      <stop offset=".5" stop-color="#EBA3E3"/>
      <stop offset="1" stop-color="#FFDBE4"/>
    </linearGradient>
    <linearGradient id="paint3_linear" x1="53.6" y1="66.6" x2="95.1" y2="13" gradientUnits="userSpaceOnUse">
      <stop stop-color="#AB85FF"/>
      <stop offset=".5" stop-color="#EBA3E3"/>
      <stop offset="1" stop-color="#FFDBE4"/>
    </linearGradient>
    <linearGradient id="paint4_linear" x1="105.6" y1="66.6" x2="147.1" y2="13" gradientUnits="userSpaceOnUse">
      <stop stop-color="#AB85FF"/>
      <stop offset=".5" stop-color="#EBA3E3"/>
      <stop offset="1" stop-color="#FFDBE4"/>
    </linearGradient>
    <linearGradient id="paint5_linear" x1="105.6" y1="66.6" x2="147.1" y2="13" gradientUnits="userSpaceOnUse">
      <stop stop-color="#AB85FF"/>
      <stop offset=".5" stop-color="#EBA3E3"/>
      <stop offset="1" stop-color="#FFDBE4"/>
    </linearGradient>
    <linearGradient id="paint6_linear" x1="157.6" y1="66.6" x2="199.1" y2="13" gradientUnits="userSpaceOnUse">
      <stop stop-color="#AB85FF"/>
      <stop offset=".5" stop-color="#EBA3E3"/>
      <stop offset="1" stop-color="#FFDBE4"/>
    </linearGradient>
    <linearGradient id="paint7_linear" x1="157.6" y1="66.6" x2="199.1" y2="13" gradientUnits="userSpaceOnUse">
      <stop stop-color="#AB85FF"/>
      <stop offset=".5" stop-color="#EBA3E3"/>
      <stop offset="1" stop-color="#FFDBE4"/>
    </linearGradient>
    <linearGradient id="paint8_linear" x1="209.6" y1="66.6" x2="251.1" y2="13" gradientUnits="userSpaceOnUse">
      <stop stop-color="#AB85FF"/>
      <stop offset=".5" stop-color="#EBA3E3"/>
      <stop offset="1" stop-color="#FFDBE4"/>
    </linearGradient>
    <linearGradient id="paint9_linear" x1="-11.4" y1="68.2" x2="-7.3" y2="110.1" gradientUnits="userSpaceOnUse">
      <stop stop-color="#AB85FF"/>
      <stop offset=".5" stop-color="#EBA3E3"/>
      <stop offset="1" stop-color="#FFDBE4"/>
    </linearGradient>
  </defs>
</svg>
