<svg width="341" height="180" viewBox="0 0 341 180" fill="none" xmlns="http://www.w3.org/2000/svg">
<rect width="341" height="180" fill="#F5F5F5"/>
<rect x="61.9121" y="25.5" width="176" height="12" stroke="#A57CFE"/>
<rect width="114" height="13" transform="translate(93.4121 51)" fill="#A57CFE"/>
<rect width="114" height="13" transform="translate(93.4121 102)" fill="#A57CFE"/>
<rect x="61.9121" y="76.5" width="176" height="12" stroke="#A57CFE"/>
<rect x="61.9121" y="127.5" width="176" height="12" stroke="#A57CFE"/>
<g clip-path="url(#clip0)">
<rect width="68" height="13" transform="translate(139.412 102)" fill="#31D67B"/>
<rect width="68" height="13" transform="translate(139.412 51)" fill="#31D67B"/>
<rect width="100" height="13" transform="translate(138.412 76)" fill="#31D67B"/>
<rect width="100" height="13" transform="translate(138.412 127)" fill="#31D67B"/>
</g>
<rect x="138.912" y="44.5" width="110" height="110" stroke="black"/>
<path d="M159.878 101.39V94.61C159.878 92.45 160.648 90.65 162.188 89.21C163.748 87.77 165.688 87.05 168.008 87.05C170.328 87.05 172.258 87.77 173.798 89.21C175.358 90.65 176.138 92.45 176.138 94.61V101.39C176.138 103.55 175.358 105.35 173.798 106.79C172.258 108.23 170.328 108.95 168.008 108.95C165.688 108.95 163.748 108.23 162.188 106.79C160.648 105.35 159.878 103.55 159.878 101.39ZM163.778 94.55V101.45C163.778 102.51 164.178 103.41 164.978 104.15C165.798 104.87 166.808 105.23 168.008 105.23C169.208 105.23 170.218 104.87 171.038 104.15C171.858 103.39 172.268 102.49 172.268 101.45V94.55C172.268 93.49 171.858 92.6 171.038 91.88C170.238 91.14 169.228 90.77 168.008 90.77C166.788 90.77 165.778 91.14 164.978 91.88C164.178 92.6 163.778 93.49 163.778 94.55ZM189.996 92.27L186.366 94.07L184.746 90.65L191.106 87.5H193.896V108.5H189.996V92.27ZM214.987 93.62C214.987 92.84 214.647 92.17 213.967 91.61C213.327 91.05 212.537 90.77 211.597 90.77C210.697 90.77 209.887 91.05 209.167 91.61C208.467 92.15 207.937 92.89 207.577 93.83L203.977 92.12C204.657 90.56 205.677 89.33 207.037 88.43C208.397 87.51 209.917 87.05 211.597 87.05C213.697 87.05 215.447 87.68 216.847 88.94C218.287 90.2 219.007 91.72 219.007 93.5C219.007 94.58 218.647 95.71 217.927 96.89C217.207 98.05 216.067 99.38 214.507 100.88L210.397 104.78H219.187V108.5H204.397V105.59L212.107 98.24C214.027 96.38 214.987 94.84 214.987 93.62ZM238.36 93.35C238.36 92.63 238.02 92.02 237.34 91.52C236.66 91.02 235.79 90.77 234.73 90.77C233.87 90.77 233.11 90.95 232.45 91.31C231.81 91.65 231.34 92.1 231.04 92.66L227.5 90.98C228.12 89.78 229.08 88.83 230.38 88.13C231.68 87.41 233.14 87.05 234.76 87.05C236.94 87.05 238.76 87.64 240.22 88.82C241.66 89.98 242.38 91.45 242.38 93.23C242.38 94.97 241.63 96.43 240.13 97.61C241.99 98.81 242.92 100.44 242.92 102.5C242.92 104.36 242.16 105.9 240.64 107.12C239.12 108.34 237.23 108.95 234.97 108.95C233.11 108.95 231.48 108.52 230.08 107.66C228.68 106.78 227.73 105.64 227.23 104.24L230.98 102.92C231.2 103.6 231.67 104.16 232.39 104.6C233.11 105.02 233.96 105.23 234.94 105.23C236.06 105.23 237 104.96 237.76 104.42C238.52 103.86 238.9 103.16 238.9 102.32C238.9 101.52 238.52 100.86 237.76 100.34C237.02 99.8 236.11 99.53 235.03 99.53H233.44V96.02H234.52C235.6 96.02 236.51 95.77 237.25 95.27C237.99 94.77 238.36 94.13 238.36 93.35ZM261.998 108.5V104.48H251.108V100.76L262.178 87.5H265.868V100.76H268.538V104.48H265.868V108.5H261.998ZM261.998 93.29L255.758 100.76H261.998V93.29ZM292.315 101.81C292.315 103.83 291.545 105.53 290.005 106.91C288.465 108.27 286.555 108.95 284.275 108.95C282.435 108.95 280.815 108.47 279.415 107.51C278.015 106.53 277.015 105.22 276.415 103.58L280.285 102.53C280.625 103.37 281.155 104.03 281.875 104.51C282.595 104.99 283.405 105.23 284.305 105.23C285.445 105.23 286.385 104.9 287.125 104.24C287.905 103.58 288.295 102.77 288.295 101.81C288.295 100.77 287.865 99.91 287.005 99.23C286.185 98.55 285.135 98.21 283.855 98.21H278.005L279.085 87.5H290.515V91.07H282.295L281.965 94.67H284.065C286.405 94.67 288.365 95.35 289.945 96.71C291.525 98.05 292.315 99.75 292.315 101.81Z" fill="#AB85FF"/>
<path d="M162.188 89.21L161.51 88.4752L161.505 88.4796L162.188 89.21ZM173.798 89.21L173.115 89.9404L173.12 89.9448L173.798 89.21ZM173.798 106.79L173.12 106.055L173.115 106.06L173.798 106.79ZM162.188 106.79L161.505 107.52L161.51 107.525L162.188 106.79ZM164.978 104.15L164.299 104.884L164.308 104.893L164.318 104.901L164.978 104.15ZM171.038 104.15L171.698 104.901L171.708 104.893L171.718 104.883L171.038 104.15ZM171.038 91.88L170.359 92.6141L170.368 92.6229L170.378 92.6314L171.038 91.88ZM164.978 91.88L165.647 92.6234L165.657 92.6141L164.978 91.88ZM160.878 101.39V94.61H158.878V101.39H160.878ZM160.878 94.61C160.878 92.7192 161.539 91.1861 162.871 89.9404L161.505 88.4796C159.757 90.1138 158.878 92.1808 158.878 94.61H160.878ZM162.866 89.9448C164.224 88.6918 165.914 88.05 168.008 88.05V86.05C165.462 86.05 163.272 86.8482 161.51 88.4752L162.866 89.9448ZM168.008 88.05C170.102 88.05 171.779 88.6917 173.115 89.9404L174.481 88.4796C172.736 86.8483 170.554 86.05 168.008 86.05V88.05ZM173.12 89.9448C174.471 91.1918 175.138 92.7236 175.138 94.61H177.138C177.138 92.1764 176.245 90.1082 174.476 88.4752L173.12 89.9448ZM175.138 94.61V101.39H177.138V94.61H175.138ZM175.138 101.39C175.138 103.276 174.471 104.808 173.12 106.055L174.476 107.525C176.245 105.892 177.138 103.824 177.138 101.39H175.138ZM173.115 106.06C171.779 107.308 170.102 107.95 168.008 107.95V109.95C170.554 109.95 172.736 109.152 174.481 107.52L173.115 106.06ZM168.008 107.95C165.914 107.95 164.224 107.308 162.866 106.055L161.51 107.525C163.272 109.152 165.462 109.95 168.008 109.95V107.95ZM162.871 106.06C161.539 104.814 160.878 103.281 160.878 101.39H158.878C158.878 103.819 159.757 105.886 161.505 107.52L162.871 106.06ZM162.778 94.55V101.45H164.778V94.55H162.778ZM162.778 101.45C162.778 102.797 163.301 103.961 164.299 104.884L165.657 103.416C165.055 102.859 164.778 102.223 164.778 101.45H162.778ZM164.318 104.901C165.339 105.798 166.591 106.23 168.008 106.23V104.23C167.025 104.23 166.257 103.942 165.638 103.399L164.318 104.901ZM168.008 106.23C169.425 106.23 170.677 105.798 171.698 104.901L170.378 103.399C169.759 103.942 168.991 104.23 168.008 104.23V106.23ZM171.718 104.883C172.725 103.95 173.268 102.791 173.268 101.45H171.268C171.268 102.189 170.991 102.83 170.358 103.417L171.718 104.883ZM173.268 101.45V94.55H171.268V101.45H173.268ZM173.268 94.55C173.268 93.1927 172.727 92.032 171.698 91.1286L170.378 92.6314C170.989 93.168 171.268 93.7873 171.268 94.55H173.268ZM171.717 91.1459C170.71 90.2141 169.447 89.77 168.008 89.77V91.77C169.009 91.77 169.766 92.0659 170.359 92.6141L171.717 91.1459ZM168.008 89.77C166.569 89.77 165.306 90.2141 164.299 91.1459L165.657 92.6141C166.25 92.0659 167.007 91.77 168.008 91.77V89.77ZM164.309 91.1367C163.302 92.043 162.778 93.2016 162.778 94.55H164.778C164.778 93.7784 165.054 93.157 165.647 92.6233L164.309 91.1367ZM189.996 92.27H190.996V90.6579L189.552 91.3741L189.996 92.27ZM186.366 94.07L185.462 94.4981L185.898 95.4182L186.81 94.9659L186.366 94.07ZM184.746 90.65L184.302 89.7539L183.421 90.19L183.842 91.0781L184.746 90.65ZM191.106 87.5V86.5H190.872L190.662 86.6039L191.106 87.5ZM193.896 87.5H194.896V86.5H193.896V87.5ZM193.896 108.5V109.5H194.896V108.5H193.896ZM189.996 108.5H188.996V109.5H189.996V108.5ZM189.552 91.3741L185.922 93.1741L186.81 94.9659L190.44 93.1659L189.552 91.3741ZM187.27 93.6419L185.65 90.2219L183.842 91.0781L185.462 94.4981L187.27 93.6419ZM185.19 91.5461L191.55 88.3961L190.662 86.6039L184.302 89.7539L185.19 91.5461ZM191.106 88.5H193.896V86.5H191.106V88.5ZM192.896 87.5V108.5H194.896V87.5H192.896ZM193.896 107.5H189.996V109.5H193.896V107.5ZM190.996 108.5V92.27H188.996V108.5H190.996ZM213.967 91.61L213.309 92.3626L213.32 92.3724L213.332 92.3819L213.967 91.61ZM209.167 91.61L209.778 92.4018L209.781 92.3994L209.167 91.61ZM207.577 93.83L207.148 94.7333L208.125 95.197L208.511 94.1876L207.577 93.83ZM203.977 92.12L203.061 91.7204L202.674 92.6079L203.548 93.0233L203.977 92.12ZM207.037 88.43L207.589 89.264L207.598 89.2583L207.037 88.43ZM216.847 88.94L216.178 89.6834L216.189 89.6926L216.847 88.94ZM217.927 96.89L218.777 97.4174L218.781 97.4109L217.927 96.89ZM214.507 100.88L215.196 101.605L215.201 101.601L214.507 100.88ZM210.397 104.78L209.709 104.055L207.891 105.78H210.397V104.78ZM219.187 104.78H220.187V103.78H219.187V104.78ZM219.187 108.5V109.5H220.187V108.5H219.187ZM204.397 108.5H203.397V109.5H204.397V108.5ZM204.397 105.59L203.707 104.866L203.397 105.162V105.59H204.397ZM212.107 98.24L212.797 98.9638L212.803 98.9582L212.107 98.24ZM215.987 93.62C215.987 92.5002 215.48 91.5603 214.603 90.8381L213.332 92.3819C213.815 92.7796 213.987 93.1798 213.987 93.62H215.987ZM214.626 90.8574C213.784 90.1207 212.752 89.77 211.597 89.77V91.77C212.323 91.77 212.871 91.9793 213.309 92.3626L214.626 90.8574ZM211.597 89.77C210.472 89.77 209.446 90.1261 208.553 90.8206L209.781 92.3994C210.328 91.9739 210.923 91.77 211.597 91.77V89.77ZM208.557 90.8182C207.692 91.4854 207.06 92.385 206.644 93.4724L208.511 94.1876C208.815 93.395 209.243 92.8146 209.778 92.4018L208.557 90.8182ZM208.006 92.9267L204.406 91.2167L203.548 93.0233L207.148 94.7333L208.006 92.9267ZM204.894 92.5196C205.501 91.1284 206.397 90.0526 207.589 89.2639L206.486 87.5961C204.957 88.6074 203.814 89.9916 203.061 91.7204L204.894 92.5196ZM207.598 89.2583C208.788 88.4529 210.112 88.05 211.597 88.05V86.05C209.723 86.05 208.007 86.5671 206.477 87.6017L207.598 89.2583ZM211.597 88.05C213.481 88.05 214.984 88.6079 216.178 89.6833L217.516 88.1967C215.911 86.7521 213.914 86.05 211.597 86.05V88.05ZM216.189 89.6926C217.43 90.7788 218.007 92.0319 218.007 93.5H220.007C220.007 91.4081 219.145 89.6212 217.506 88.1874L216.189 89.6926ZM218.007 93.5C218.007 94.3514 217.724 95.3027 217.074 96.3691L218.781 97.4109C219.57 96.1173 220.007 94.8086 220.007 93.5H218.007ZM217.078 96.3626C216.42 97.4232 215.345 98.6875 213.814 100.159L215.201 101.601C216.79 100.073 217.995 98.6768 218.777 97.4174L217.078 96.3626ZM213.819 100.155L209.709 104.055L211.086 105.505L215.196 101.605L213.819 100.155ZM210.397 105.78H219.187V103.78H210.397V105.78ZM218.187 104.78V108.5H220.187V104.78H218.187ZM219.187 107.5H204.397V109.5H219.187V107.5ZM205.397 108.5V105.59H203.397V108.5H205.397ZM205.087 106.314L212.797 98.9638L211.417 97.5162L203.707 104.866L205.087 106.314ZM212.803 98.9582C213.797 97.9956 214.578 97.0822 215.116 96.219C215.65 95.3626 215.987 94.4871 215.987 93.62H213.987C213.987 93.9729 213.845 94.4774 213.419 95.161C212.997 95.8378 212.338 96.6244 211.412 97.5218L212.803 98.9582ZM237.34 91.52L237.932 90.7143V90.7143L237.34 91.52ZM232.45 91.31L232.919 92.1932L232.929 92.1879L232.45 91.31ZM231.04 92.66L230.611 93.5634L231.471 93.9718L231.921 93.1322L231.04 92.66ZM227.5 90.98L226.611 90.521L226.137 91.4399L227.071 91.8834L227.5 90.98ZM230.38 88.13L230.854 89.0105L230.864 89.0048L230.38 88.13ZM240.22 88.82L239.591 89.5977L239.592 89.5988L240.22 88.82ZM240.13 97.61L239.511 96.824L238.41 97.6905L239.588 98.4503L240.13 97.61ZM240.64 107.12L240.014 106.34L240.64 107.12ZM230.08 107.66L229.548 108.507L229.556 108.512L230.08 107.66ZM227.23 104.24L226.898 103.297L225.95 103.63L226.288 104.576L227.23 104.24ZM230.98 102.92L231.931 102.612L231.615 101.636L230.648 101.977L230.98 102.92ZM232.39 104.6L231.868 105.453L231.877 105.459L231.886 105.464L232.39 104.6ZM237.76 104.42L238.339 105.235L238.346 105.23L238.353 105.225L237.76 104.42ZM237.76 100.34L237.17 101.148L237.183 101.157L237.195 101.165L237.76 100.34ZM233.44 99.53H232.44V100.53H233.44V99.53ZM233.44 96.02V95.02H232.44V96.02H233.44ZM239.36 93.35C239.36 92.2544 238.818 91.3659 237.932 90.7143L236.747 92.3256C237.221 92.6741 237.36 93.0056 237.36 93.35H239.36ZM237.932 90.7143C237.041 90.0589 235.948 89.77 234.73 89.77V91.77C235.632 91.77 236.279 91.9811 236.747 92.3257L237.932 90.7143ZM234.73 89.77C233.727 89.77 232.798 89.9811 231.971 90.4321L232.929 92.1879C233.422 91.9189 234.013 91.77 234.73 91.77V89.77ZM231.981 90.4269C231.191 90.8464 230.565 91.4292 230.158 92.1878L231.921 93.1322C232.115 92.7708 232.429 92.4536 232.919 92.1931L231.981 90.4269ZM231.469 91.7566L227.929 90.0766L227.071 91.8834L230.611 93.5634L231.469 91.7566ZM228.388 91.439C228.907 90.4347 229.714 89.6242 230.854 89.0105L229.906 87.2495C228.446 88.0358 227.332 89.1253 226.611 90.521L228.388 91.439ZM230.864 89.0048C232.003 88.3742 233.294 88.05 234.76 88.05V86.05C232.986 86.05 231.357 86.4458 229.895 87.2552L230.864 89.0048ZM234.76 88.05C236.75 88.05 238.337 88.5841 239.591 89.5977L240.848 88.0423C239.182 86.6959 237.13 86.05 234.76 86.05V88.05ZM239.592 89.5988C240.807 90.5775 241.38 91.7659 241.38 93.23H243.38C243.38 91.1341 242.512 89.3825 240.847 88.0412L239.592 89.5988ZM241.38 93.23C241.38 94.6309 240.797 95.8126 239.511 96.824L240.748 98.396C242.462 97.0474 243.38 95.3091 243.38 93.23H241.38ZM239.588 98.4503C241.188 99.4825 241.92 100.809 241.92 102.5H243.92C243.92 100.071 242.792 98.1375 240.672 96.7697L239.588 98.4503ZM241.92 102.5C241.92 104.04 241.31 105.299 240.014 106.34L241.266 107.9C243.009 106.501 243.92 104.68 243.92 102.5H241.92ZM240.014 106.34C238.699 107.396 237.04 107.95 234.97 107.95V109.95C237.419 109.95 239.541 109.284 241.266 107.9L240.014 106.34ZM234.97 107.95C233.27 107.95 231.826 107.559 230.603 106.808L229.556 108.512C231.134 109.481 232.95 109.95 234.97 109.95V107.95ZM230.612 106.813C229.379 106.039 228.588 105.069 228.172 103.904L226.288 104.576C226.872 106.211 227.98 107.521 229.548 108.507L230.612 106.813ZM227.562 105.183L231.312 103.863L230.648 101.977L226.898 103.297L227.562 105.183ZM230.028 103.228C230.335 104.175 230.983 104.912 231.868 105.453L232.911 103.747C232.356 103.408 232.065 103.025 231.931 102.612L230.028 103.228ZM231.886 105.464C232.784 105.988 233.814 106.23 234.94 106.23V104.23C234.105 104.23 233.436 104.052 232.894 103.736L231.886 105.464ZM234.94 106.23C236.225 106.23 237.378 105.918 238.339 105.235L237.181 103.605C236.622 104.002 235.895 104.23 234.94 104.23V106.23ZM238.353 105.225C239.332 104.503 239.9 103.52 239.9 102.32H237.9C237.9 102.8 237.707 103.217 237.167 103.615L238.353 105.225ZM239.9 102.32C239.9 101.136 239.309 100.188 238.324 99.5147L237.195 101.165C237.73 101.532 237.9 101.904 237.9 102.32H239.9ZM238.349 99.5322C237.409 98.8461 236.283 98.53 235.03 98.53V100.53C235.937 100.53 236.631 100.754 237.17 101.148L238.349 99.5322ZM235.03 98.53H233.44V100.53H235.03V98.53ZM234.44 99.53V96.02H232.44V99.53H234.44ZM233.44 97.02H234.52V95.02H233.44V97.02ZM234.52 97.02C235.757 97.02 236.872 96.7319 237.81 96.0986L236.69 94.4414C236.147 94.8081 235.443 95.02 234.52 95.02V97.02ZM237.81 96.0986C238.778 95.444 239.36 94.5145 239.36 93.35H237.36C237.36 93.7455 237.201 94.096 236.69 94.4414L237.81 96.0986ZM261.998 108.5H260.998V109.5H261.998V108.5ZM261.998 104.48H262.998V103.48H261.998V104.48ZM251.108 104.48H250.108V105.48H251.108V104.48ZM251.108 100.76L250.34 100.119L250.108 100.397V100.76H251.108ZM262.178 87.5V86.5H261.71L261.41 86.8591L262.178 87.5ZM265.868 87.5H266.868V86.5H265.868V87.5ZM265.868 100.76H264.868V101.76H265.868V100.76ZM268.538 100.76H269.538V99.76H268.538V100.76ZM268.538 104.48V105.48H269.538V104.48H268.538ZM265.868 104.48V103.48H264.868V104.48H265.868ZM265.868 108.5V109.5H266.868V108.5H265.868ZM261.998 93.29H262.998V90.533L261.23 92.6489L261.998 93.29ZM255.758 100.76L254.99 100.119L253.62 101.76H255.758V100.76ZM261.998 100.76V101.76H262.998V100.76H261.998ZM262.998 108.5V104.48H260.998V108.5H262.998ZM261.998 103.48H251.108V105.48H261.998V103.48ZM252.108 104.48V100.76H250.108V104.48H252.108ZM251.876 101.401L262.946 88.1409L261.41 86.8591L250.34 100.119L251.876 101.401ZM262.178 88.5H265.868V86.5H262.178V88.5ZM264.868 87.5V100.76H266.868V87.5H264.868ZM265.868 101.76H268.538V99.76H265.868V101.76ZM267.538 100.76V104.48H269.538V100.76H267.538ZM268.538 103.48H265.868V105.48H268.538V103.48ZM264.868 104.48V108.5H266.868V104.48H264.868ZM265.868 107.5H261.998V109.5H265.868V107.5ZM261.23 92.6489L254.99 100.119L256.525 101.401L262.765 93.9311L261.23 92.6489ZM255.758 101.76H261.998V99.76H255.758V101.76ZM262.998 100.76V93.29H260.998V100.76H262.998ZM290.005 106.91L290.666 107.66L290.672 107.655L290.005 106.91ZM279.415 107.51L278.841 108.329L278.849 108.335L279.415 107.51ZM276.415 103.58L276.153 102.615L275.101 102.9L275.475 103.924L276.415 103.58ZM280.285 102.53L281.211 102.155L280.879 101.333L280.023 101.565L280.285 102.53ZM281.875 104.51L281.32 105.342L281.875 104.51ZM287.125 104.24L286.479 103.477L286.469 103.485L286.459 103.494L287.125 104.24ZM287.005 99.23L286.366 99.9998L286.375 100.007L286.384 100.014L287.005 99.23ZM278.005 98.21L277.01 98.1097L276.899 99.21H278.005V98.21ZM279.085 87.5V86.5H278.18L278.09 87.3997L279.085 87.5ZM290.515 87.5H291.515V86.5H290.515V87.5ZM290.515 91.07V92.07H291.515V91.07H290.515ZM282.295 91.07V90.07H281.382L281.299 90.9787L282.295 91.07ZM281.965 94.67L280.969 94.5787L280.869 95.67H281.965V94.67ZM289.945 96.71L289.292 97.4679L289.298 97.4727L289.945 96.71ZM291.315 101.81C291.315 103.538 290.671 104.97 289.337 106.165L290.672 107.655C292.418 106.09 293.315 104.122 293.315 101.81H291.315ZM289.343 106.16C288.006 107.341 286.34 107.95 284.275 107.95V109.95C286.77 109.95 288.923 109.199 290.666 107.66L289.343 106.16ZM284.275 107.95C282.619 107.95 281.199 107.521 279.98 106.685L278.849 108.335C280.43 109.419 282.25 109.95 284.275 109.95V107.95ZM279.988 106.691C278.76 105.831 277.885 104.689 277.354 103.236L275.475 103.924C276.144 105.751 277.269 107.229 278.841 108.329L279.988 106.691ZM276.676 104.545L280.546 103.495L280.023 101.565L276.153 102.615L276.676 104.545ZM279.358 102.905C279.769 103.922 280.425 104.745 281.32 105.342L282.429 103.678C281.885 103.315 281.48 102.818 281.211 102.155L279.358 102.905ZM281.32 105.342C282.211 105.936 283.215 106.23 284.305 106.23V104.23C283.594 104.23 282.978 104.044 282.429 103.678L281.32 105.342ZM284.305 106.23C285.651 106.23 286.84 105.834 287.79 104.986L286.459 103.494C285.929 103.966 285.238 104.23 284.305 104.23V106.23ZM287.77 105.003C288.759 104.167 289.295 103.085 289.295 101.81H287.295C287.295 102.455 287.051 102.993 286.479 103.477L287.77 105.003ZM289.295 101.81C289.295 100.446 288.71 99.3034 287.625 98.4456L286.384 100.014C287.019 100.517 287.295 101.094 287.295 101.81H289.295ZM287.643 98.4602C286.609 97.6029 285.319 97.21 283.855 97.21V99.21C284.95 99.21 285.76 99.4971 286.366 99.9998L287.643 98.4602ZM283.855 97.21H278.005V99.21H283.855V97.21ZM278.999 98.3103L280.079 87.6003L278.09 87.3997L277.01 98.1097L278.999 98.3103ZM279.085 88.5H290.515V86.5H279.085V88.5ZM289.515 87.5V91.07H291.515V87.5H289.515ZM290.515 90.07H282.295V92.07H290.515V90.07ZM281.299 90.9787L280.969 94.5787L282.96 94.7613L283.29 91.1613L281.299 90.9787ZM281.965 95.67H284.065V93.67H281.965V95.67ZM284.065 95.67C286.196 95.67 287.916 96.2834 289.292 97.4679L290.597 95.9521C288.813 94.4166 286.613 93.67 284.065 93.67V95.67ZM289.298 97.4727C290.655 98.6239 291.315 100.046 291.315 101.81H293.315C293.315 99.4543 292.394 97.4761 290.591 95.9473L289.298 97.4727Z" fill="black"/>
<path d="M93.4121 106.5L47.4121 106.5M47.4121 106.5L48.6724 107.5M47.4121 106.5L48.6724 105.5" stroke="black"/>
<path d="M93.4121 58.5L60.4121 58.5M60.4121 58.5L61.3162 59.5M60.4121 58.5L61.3162 57.5" stroke="black"/>
<defs>
<clipPath id="clip0">
</clipPath>
</defs>
</svg>
