<svg width="341" height="180" viewBox="0 0 341 180" fill="none" xmlns="http://www.w3.org/2000/svg">
<rect width="341" height="180" fill="#F5F5F5"/>
<g clip-path="url(#clip0)">
<rect x="138" y="20.5" width="139" height="139" rx="69.5" fill="#AB85FF"/>
<path d="M137.696 49.4118L137.018 48.677L137.013 48.6814L137.696 49.4118ZM153.176 49.4118L152.493 50.1423L152.498 50.1466L153.176 49.4118ZM153.176 72.8518L152.498 72.117L152.493 72.1214L153.176 72.8518ZM137.696 72.8518L137.013 73.5823L137.018 73.5866L137.696 72.8518ZM141.416 69.3318L140.737 70.0659L140.747 70.0747L140.757 70.0833L141.416 69.3318ZM149.496 69.3318L150.156 70.0833L150.166 70.0744L150.176 70.0653L149.496 69.3318ZM149.496 52.9718L148.817 53.7059L148.827 53.7147L148.837 53.7233L149.496 52.9718ZM141.416 52.9718L142.086 53.7152L142.096 53.7059L141.416 52.9718ZM135.616 65.6518V56.6118H133.616V65.6518H135.616ZM135.616 56.6118C135.616 54.001 136.534 51.868 138.379 50.1423L137.013 48.6814C134.752 50.7957 133.616 53.4627 133.616 56.6118H135.616ZM138.375 50.1466C140.252 48.4136 142.589 47.5318 145.456 47.5318V45.5318C142.137 45.5318 139.301 46.5701 137.018 48.677L138.375 50.1466ZM145.456 47.5318C148.324 47.5318 150.645 48.4135 152.493 50.1423L153.859 48.6814C151.602 46.5702 148.776 45.5318 145.456 45.5318V47.5318ZM152.498 50.1466C154.369 51.8736 155.296 54.0054 155.296 56.6118H157.296C157.296 53.4583 156.144 50.7901 153.855 48.677L152.498 50.1466ZM155.296 56.6118V65.6518H157.296V56.6118H155.296ZM155.296 65.6518C155.296 68.2583 154.369 70.3901 152.498 72.117L153.855 73.5866C156.144 71.4736 157.296 68.8054 157.296 65.6518H155.296ZM152.493 72.1214C150.645 73.8502 148.324 74.7318 145.456 74.7318V76.7318C148.776 76.7318 151.602 75.6935 153.859 73.5823L152.493 72.1214ZM145.456 74.7318C142.589 74.7318 140.252 73.8501 138.375 72.117L137.018 73.5866C139.301 75.6936 142.137 76.7318 145.456 76.7318V74.7318ZM138.379 72.1214C136.534 70.3957 135.616 68.2627 135.616 65.6518H133.616C133.616 68.801 134.752 71.468 137.013 73.5823L138.379 72.1214ZM138.816 56.5318V65.7318H140.816V56.5318H138.816ZM138.816 65.7318C138.816 67.4327 139.473 68.896 140.737 70.0659L142.096 68.5977C141.227 67.7943 140.816 66.8577 140.816 65.7318H138.816ZM140.757 70.0833C142.051 71.2199 143.64 71.7718 145.456 71.7718V69.7718C144.073 69.7718 142.968 69.3638 142.076 68.5804L140.757 70.0833ZM145.456 71.7718C147.273 71.7718 148.862 71.2199 150.156 70.0833L148.837 68.5804C147.945 69.3638 146.84 69.7718 145.456 69.7718V71.7718ZM150.176 70.0653C151.457 68.8786 152.136 67.4194 152.136 65.7318H150.136C150.136 66.8176 149.723 67.7584 148.817 68.5984L150.176 70.0653ZM152.136 65.7318V56.5318H150.136V65.7318H152.136ZM152.136 56.5318C152.136 54.8212 151.459 53.3639 150.156 52.2204L148.837 53.7233C149.721 54.4998 150.136 55.4158 150.136 56.5318H152.136ZM150.176 52.2377C148.902 51.0593 147.302 50.4918 145.456 50.4918V52.4918C146.864 52.4918 147.958 52.9111 148.817 53.7059L150.176 52.2377ZM145.456 50.4918C143.611 50.4918 142.011 51.0593 140.737 52.2377L142.096 53.7059C142.955 52.9111 144.049 52.4918 145.456 52.4918V50.4918ZM140.748 52.2285C139.474 53.3749 138.816 54.8301 138.816 56.5318H140.816C140.816 55.4069 141.226 54.4888 142.085 53.7151L140.748 52.2285ZM177.086 53.4918H178.086V51.8798L176.642 52.5959L177.086 53.4918ZM172.246 55.8918L171.342 56.3199L171.778 57.24L172.69 56.7877L172.246 55.8918ZM170.086 51.3318L169.642 50.4357L168.762 50.8719L169.182 51.7599L170.086 51.3318ZM178.566 47.1318V46.1318H178.332L178.122 46.2357L178.566 47.1318ZM182.286 47.1318H183.286V46.1318H182.286V47.1318ZM182.286 75.1318V76.1318H183.286V75.1318H182.286ZM177.086 75.1318H176.086V76.1318H177.086V75.1318ZM176.642 52.5959L171.802 54.9959L172.69 56.7877L177.53 54.3877L176.642 52.5959ZM173.15 55.4637L170.99 50.9037L169.182 51.7599L171.342 56.3199L173.15 55.4637ZM170.53 52.2279L179.01 48.0279L178.122 46.2357L169.642 50.4357L170.53 52.2279ZM178.566 48.1318H182.286V46.1318H178.566V48.1318ZM181.286 47.1318V75.1318H183.286V47.1318H181.286ZM182.286 74.1318H177.086V76.1318H182.286V74.1318ZM178.086 75.1318V53.4918H176.086V75.1318H178.086ZM201.681 49.4118L201.003 48.677L200.998 48.6814L201.681 49.4118ZM217.161 49.4118L216.478 50.1423L216.483 50.1466L217.161 49.4118ZM217.161 72.8518L216.483 72.117L216.478 72.1214L217.161 72.8518ZM201.681 72.8518L200.998 73.5823L201.003 73.5866L201.681 72.8518ZM205.401 69.3318L204.722 70.0659L204.731 70.0747L204.741 70.0833L205.401 69.3318ZM213.481 69.3318L214.141 70.0833L214.151 70.0744L214.161 70.0653L213.481 69.3318ZM213.481 52.9718L212.802 53.7059L212.811 53.7147L212.821 53.7233L213.481 52.9718ZM205.401 52.9718L206.07 53.7152L206.08 53.7059L205.401 52.9718ZM199.601 65.6518V56.6118H197.601V65.6518H199.601ZM199.601 56.6118C199.601 54.001 200.518 51.868 202.364 50.1423L200.998 48.6814C198.737 50.7957 197.601 53.4627 197.601 56.6118H199.601ZM202.359 50.1466C204.237 48.4136 206.574 47.5318 209.441 47.5318V45.5318C206.121 45.5318 203.285 46.5701 201.003 48.677L202.359 50.1466ZM209.441 47.5318C212.308 47.5318 214.629 48.4135 216.478 50.1423L217.844 48.6814C215.586 46.5702 212.76 45.5318 209.441 45.5318V47.5318ZM216.483 50.1466C218.353 51.8736 219.281 54.0054 219.281 56.6118H221.281C221.281 53.4583 220.128 50.7901 217.839 48.677L216.483 50.1466ZM219.281 56.6118V65.6518H221.281V56.6118H219.281ZM219.281 65.6518C219.281 68.2583 218.353 70.3901 216.483 72.117L217.839 73.5866C220.128 71.4736 221.281 68.8054 221.281 65.6518H219.281ZM216.478 72.1214C214.629 73.8502 212.308 74.7318 209.441 74.7318V76.7318C212.76 76.7318 215.586 75.6935 217.844 73.5823L216.478 72.1214ZM209.441 74.7318C206.574 74.7318 204.237 73.8501 202.359 72.117L201.003 73.5866C203.285 75.6936 206.121 76.7318 209.441 76.7318V74.7318ZM202.364 72.1214C200.518 70.3957 199.601 68.2627 199.601 65.6518H197.601C197.601 68.801 198.737 71.468 200.998 73.5823L202.364 72.1214ZM202.801 56.5318V65.7318H204.801V56.5318H202.801ZM202.801 65.7318C202.801 67.4327 203.457 68.896 204.722 70.0659L206.08 68.5977C205.211 67.7943 204.801 66.8577 204.801 65.7318H202.801ZM204.741 70.0833C206.036 71.2199 207.624 71.7718 209.441 71.7718V69.7718C208.058 69.7718 206.953 69.3638 206.061 68.5804L204.741 70.0833ZM209.441 71.7718C211.258 71.7718 212.846 71.2199 214.141 70.0833L212.821 68.5804C211.929 69.3638 210.824 69.7718 209.441 69.7718V71.7718ZM214.161 70.0653C215.441 68.8786 216.121 67.4194 216.121 65.7318H214.121C214.121 66.8176 213.707 67.7584 212.801 68.5984L214.161 70.0653ZM216.121 65.7318V56.5318H214.121V65.7318H216.121ZM216.121 56.5318C216.121 54.8212 215.443 53.3639 214.141 52.2204L212.821 53.7233C213.705 54.4998 214.121 55.4158 214.121 56.5318H216.121ZM214.16 52.2377C212.886 51.0593 211.287 50.4918 209.441 50.4918V52.4918C210.848 52.4918 211.943 52.9111 212.802 53.7059L214.16 52.2377ZM209.441 50.4918C207.595 50.4918 205.996 51.0593 204.722 52.2377L206.08 53.7059C206.939 52.9111 208.033 52.4918 209.441 52.4918V50.4918ZM204.732 52.2285C203.458 53.3749 202.801 54.8301 202.801 56.5318H204.801C204.801 55.4069 205.21 54.4888 206.07 53.7151L204.732 52.2285ZM241.071 53.4918H242.071V51.8798L240.626 52.5959L241.071 53.4918ZM236.231 55.8918L235.327 56.3199L235.763 57.24L236.675 56.7877L236.231 55.8918ZM234.071 51.3318L233.627 50.4357L232.746 50.8719L233.167 51.7599L234.071 51.3318ZM242.551 47.1318V46.1318H242.316L242.107 46.2357L242.551 47.1318ZM246.271 47.1318H247.271V46.1318H246.271V47.1318ZM246.271 75.1318V76.1318H247.271V75.1318H246.271ZM241.071 75.1318H240.071V76.1318H241.071V75.1318ZM240.626 52.5959L235.786 54.9959L236.675 56.7877L241.515 54.3877L240.626 52.5959ZM237.134 55.4637L234.974 50.9037L233.167 51.7599L235.327 56.3199L237.134 55.4637ZM234.514 52.2279L242.994 48.0279L242.107 46.2357L233.627 50.4357L234.514 52.2279ZM242.551 48.1318H246.271V46.1318H242.551V48.1318ZM245.271 47.1318V75.1318H247.271V47.1318H245.271ZM246.271 74.1318H241.071V76.1318H246.271V74.1318ZM242.071 75.1318V53.4918H240.071V75.1318H242.071ZM265.665 49.4118L264.987 48.677L264.982 48.6814L265.665 49.4118ZM281.145 49.4118L280.462 50.1423L280.467 50.1466L281.145 49.4118ZM281.145 72.8518L280.467 72.117L280.462 72.1214L281.145 72.8518ZM265.665 72.8518L264.982 73.5823L264.987 73.5866L265.665 72.8518ZM269.385 69.3318L268.706 70.0659L268.716 70.0747L268.725 70.0833L269.385 69.3318ZM277.465 69.3318L278.125 70.0833L278.135 70.0744L278.145 70.0653L277.465 69.3318ZM277.465 52.9718L276.786 53.7059L276.796 53.7147L276.805 53.7233L277.465 52.9718ZM269.385 52.9718L270.054 53.7152L270.064 53.7059L269.385 52.9718ZM263.585 65.6518V56.6118H261.585V65.6518H263.585ZM263.585 56.6118C263.585 54.001 264.503 51.868 266.348 50.1423L264.982 48.6814C262.721 50.7957 261.585 53.4627 261.585 56.6118H263.585ZM266.344 50.1466C268.221 48.4136 270.558 47.5318 273.425 47.5318V45.5318C270.106 45.5318 267.27 46.5701 264.987 48.677L266.344 50.1466ZM273.425 47.5318C276.293 47.5318 278.613 48.4135 280.462 50.1423L281.828 48.6814C279.57 46.5702 276.745 45.5318 273.425 45.5318V47.5318ZM280.467 50.1466C282.338 51.8736 283.265 54.0054 283.265 56.6118H285.265C285.265 53.4583 284.113 50.7901 281.824 48.677L280.467 50.1466ZM283.265 56.6118V65.6518H285.265V56.6118H283.265ZM283.265 65.6518C283.265 68.2583 282.338 70.3901 280.467 72.117L281.824 73.5866C284.113 71.4736 285.265 68.8054 285.265 65.6518H283.265ZM280.462 72.1214C278.613 73.8502 276.293 74.7318 273.425 74.7318V76.7318C276.745 76.7318 279.57 75.6935 281.828 73.5823L280.462 72.1214ZM273.425 74.7318C270.558 74.7318 268.221 73.8501 266.344 72.117L264.987 73.5866C267.27 75.6936 270.106 76.7318 273.425 76.7318V74.7318ZM266.348 72.1214C264.503 70.3957 263.585 68.2627 263.585 65.6518H261.585C261.585 68.801 262.721 71.468 264.982 73.5823L266.348 72.1214ZM266.785 56.5318V65.7318H268.785V56.5318H266.785ZM266.785 65.7318C266.785 67.4327 267.441 68.896 268.706 70.0659L270.064 68.5977C269.196 67.7943 268.785 66.8577 268.785 65.7318H266.785ZM268.725 70.0833C270.02 71.2199 271.608 71.7718 273.425 71.7718V69.7718C272.042 69.7718 270.937 69.3638 270.045 68.5804L268.725 70.0833ZM273.425 71.7718C275.242 71.7718 276.831 71.2199 278.125 70.0833L276.805 68.5804C275.913 69.3638 274.809 69.7718 273.425 69.7718V71.7718ZM278.145 70.0653C279.425 68.8786 280.105 67.4194 280.105 65.7318H278.105C278.105 66.8176 277.692 67.7584 276.785 68.5984L278.145 70.0653ZM280.105 65.7318V56.5318H278.105V65.7318H280.105ZM280.105 56.5318C280.105 54.8212 279.427 53.3639 278.125 52.2204L276.805 53.7233C277.69 54.4998 278.105 55.4158 278.105 56.5318H280.105ZM278.144 52.2377C276.87 51.0593 275.271 50.4918 273.425 50.4918V52.4918C274.833 52.4918 275.927 52.9111 276.786 53.7059L278.144 52.2377ZM273.425 50.4918C271.579 50.4918 269.98 51.0593 268.706 52.2377L270.064 53.7059C270.924 52.9111 272.018 52.4918 273.425 52.4918V50.4918ZM268.716 52.2285C267.443 53.3749 266.785 54.8301 266.785 56.5318H268.785C268.785 55.4069 269.195 54.4888 270.054 53.7151L268.716 52.2285ZM137.696 109.412L137.018 108.677L137.013 108.681L137.696 109.412ZM153.176 109.412L152.493 110.142L152.498 110.147L153.176 109.412ZM153.176 132.852L152.498 132.117L152.493 132.121L153.176 132.852ZM137.696 132.852L137.013 133.582L137.018 133.587L137.696 132.852ZM141.416 129.332L140.737 130.066L140.747 130.075L140.757 130.083L141.416 129.332ZM149.496 129.332L150.156 130.083L150.166 130.074L150.176 130.065L149.496 129.332ZM149.496 112.972L148.817 113.706L148.827 113.715L148.837 113.723L149.496 112.972ZM141.416 112.972L142.086 113.715L142.096 113.706L141.416 112.972ZM135.616 125.652V116.612H133.616V125.652H135.616ZM135.616 116.612C135.616 114.001 136.534 111.868 138.379 110.142L137.013 108.681C134.752 110.796 133.616 113.463 133.616 116.612H135.616ZM138.375 110.147C140.252 108.414 142.589 107.532 145.456 107.532V105.532C142.137 105.532 139.301 106.57 137.018 108.677L138.375 110.147ZM145.456 107.532C148.324 107.532 150.645 108.413 152.493 110.142L153.859 108.681C151.602 106.57 148.776 105.532 145.456 105.532V107.532ZM152.498 110.147C154.369 111.874 155.296 114.005 155.296 116.612H157.296C157.296 113.458 156.144 110.79 153.855 108.677L152.498 110.147ZM155.296 116.612V125.652H157.296V116.612H155.296ZM155.296 125.652C155.296 128.258 154.369 130.39 152.498 132.117L153.855 133.587C156.144 131.474 157.296 128.805 157.296 125.652H155.296ZM152.493 132.121C150.645 133.85 148.324 134.732 145.456 134.732V136.732C148.776 136.732 151.602 135.693 153.859 133.582L152.493 132.121ZM145.456 134.732C142.589 134.732 140.252 133.85 138.375 132.117L137.018 133.587C139.301 135.694 142.137 136.732 145.456 136.732V134.732ZM138.379 132.121C136.534 130.396 135.616 128.263 135.616 125.652H133.616C133.616 128.801 134.752 131.468 137.013 133.582L138.379 132.121ZM138.816 116.532V125.732H140.816V116.532H138.816ZM138.816 125.732C138.816 127.433 139.473 128.896 140.737 130.066L142.096 128.598C141.227 127.794 140.816 126.858 140.816 125.732H138.816ZM140.757 130.083C142.051 131.22 143.64 131.772 145.456 131.772V129.772C144.073 129.772 142.968 129.364 142.076 128.58L140.757 130.083ZM145.456 131.772C147.273 131.772 148.862 131.22 150.156 130.083L148.837 128.58C147.945 129.364 146.84 129.772 145.456 129.772V131.772ZM150.176 130.065C151.457 128.879 152.136 127.419 152.136 125.732H150.136C150.136 126.818 149.723 127.758 148.817 128.598L150.176 130.065ZM152.136 125.732V116.532H150.136V125.732H152.136ZM152.136 116.532C152.136 114.821 151.459 113.364 150.156 112.22L148.837 113.723C149.721 114.5 150.136 115.416 150.136 116.532H152.136ZM150.176 112.238C148.902 111.059 147.302 110.492 145.456 110.492V112.492C146.864 112.492 147.958 112.911 148.817 113.706L150.176 112.238ZM145.456 110.492C143.611 110.492 142.011 111.059 140.737 112.238L142.096 113.706C142.955 112.911 144.049 112.492 145.456 112.492V110.492ZM140.748 112.229C139.474 113.375 138.816 114.83 138.816 116.532H140.816C140.816 115.407 141.226 114.489 142.085 113.715L140.748 112.229ZM177.086 113.492H178.086V111.88L176.642 112.596L177.086 113.492ZM172.246 115.892L171.342 116.32L171.778 117.24L172.69 116.788L172.246 115.892ZM170.086 111.332L169.642 110.436L168.762 110.872L169.182 111.76L170.086 111.332ZM178.566 107.132V106.132H178.332L178.122 106.236L178.566 107.132ZM182.286 107.132H183.286V106.132H182.286V107.132ZM182.286 135.132V136.132H183.286V135.132H182.286ZM177.086 135.132H176.086V136.132H177.086V135.132ZM176.642 112.596L171.802 114.996L172.69 116.788L177.53 114.388L176.642 112.596ZM173.15 115.464L170.99 110.904L169.182 111.76L171.342 116.32L173.15 115.464ZM170.53 112.228L179.01 108.028L178.122 106.236L169.642 110.436L170.53 112.228ZM178.566 108.132H182.286V106.132H178.566V108.132ZM181.286 107.132V135.132H183.286V107.132H181.286ZM182.286 134.132H177.086V136.132H182.286V134.132ZM178.086 135.132V113.492H176.086V135.132H178.086ZM201.681 109.412L201.003 108.677L200.998 108.681L201.681 109.412ZM217.161 109.412L216.478 110.142L216.483 110.147L217.161 109.412ZM217.161 132.852L216.483 132.117L216.478 132.121L217.161 132.852ZM201.681 132.852L200.998 133.582L201.003 133.587L201.681 132.852ZM205.401 129.332L204.722 130.066L204.731 130.075L204.741 130.083L205.401 129.332ZM213.481 129.332L214.141 130.083L214.151 130.074L214.161 130.065L213.481 129.332ZM213.481 112.972L212.802 113.706L212.811 113.715L212.821 113.723L213.481 112.972ZM205.401 112.972L206.07 113.715L206.08 113.706L205.401 112.972ZM199.601 125.652V116.612H197.601V125.652H199.601ZM199.601 116.612C199.601 114.001 200.518 111.868 202.364 110.142L200.998 108.681C198.737 110.796 197.601 113.463 197.601 116.612H199.601ZM202.359 110.147C204.237 108.414 206.574 107.532 209.441 107.532V105.532C206.121 105.532 203.285 106.57 201.003 108.677L202.359 110.147ZM209.441 107.532C212.308 107.532 214.629 108.413 216.478 110.142L217.844 108.681C215.586 106.57 212.76 105.532 209.441 105.532V107.532ZM216.483 110.147C218.353 111.874 219.281 114.005 219.281 116.612H221.281C221.281 113.458 220.128 110.79 217.839 108.677L216.483 110.147ZM219.281 116.612V125.652H221.281V116.612H219.281ZM219.281 125.652C219.281 128.258 218.353 130.39 216.483 132.117L217.839 133.587C220.128 131.474 221.281 128.805 221.281 125.652H219.281ZM216.478 132.121C214.629 133.85 212.308 134.732 209.441 134.732V136.732C212.76 136.732 215.586 135.693 217.844 133.582L216.478 132.121ZM209.441 134.732C206.574 134.732 204.237 133.85 202.359 132.117L201.003 133.587C203.285 135.694 206.121 136.732 209.441 136.732V134.732ZM202.364 132.121C200.518 130.396 199.601 128.263 199.601 125.652H197.601C197.601 128.801 198.737 131.468 200.998 133.582L202.364 132.121ZM202.801 116.532V125.732H204.801V116.532H202.801ZM202.801 125.732C202.801 127.433 203.457 128.896 204.722 130.066L206.08 128.598C205.211 127.794 204.801 126.858 204.801 125.732H202.801ZM204.741 130.083C206.036 131.22 207.624 131.772 209.441 131.772V129.772C208.058 129.772 206.953 129.364 206.061 128.58L204.741 130.083ZM209.441 131.772C211.258 131.772 212.846 131.22 214.141 130.083L212.821 128.58C211.929 129.364 210.824 129.772 209.441 129.772V131.772ZM214.161 130.065C215.441 128.879 216.121 127.419 216.121 125.732H214.121C214.121 126.818 213.707 127.758 212.801 128.598L214.161 130.065ZM216.121 125.732V116.532H214.121V125.732H216.121ZM216.121 116.532C216.121 114.821 215.443 113.364 214.141 112.22L212.821 113.723C213.705 114.5 214.121 115.416 214.121 116.532H216.121ZM214.16 112.238C212.886 111.059 211.287 110.492 209.441 110.492V112.492C210.848 112.492 211.943 112.911 212.802 113.706L214.16 112.238ZM209.441 110.492C207.595 110.492 205.996 111.059 204.722 112.238L206.08 113.706C206.939 112.911 208.033 112.492 209.441 112.492V110.492ZM204.732 112.229C203.458 113.375 202.801 114.83 202.801 116.532H204.801C204.801 115.407 205.21 114.489 206.07 113.715L204.732 112.229ZM241.071 113.492H242.071V111.88L240.626 112.596L241.071 113.492ZM236.231 115.892L235.327 116.32L235.763 117.24L236.675 116.788L236.231 115.892ZM234.071 111.332L233.627 110.436L232.746 110.872L233.167 111.76L234.071 111.332ZM242.551 107.132V106.132H242.316L242.107 106.236L242.551 107.132ZM246.271 107.132H247.271V106.132H246.271V107.132ZM246.271 135.132V136.132H247.271V135.132H246.271ZM241.071 135.132H240.071V136.132H241.071V135.132ZM240.626 112.596L235.786 114.996L236.675 116.788L241.515 114.388L240.626 112.596ZM237.134 115.464L234.974 110.904L233.167 111.76L235.327 116.32L237.134 115.464ZM234.514 112.228L242.994 108.028L242.107 106.236L233.627 110.436L234.514 112.228ZM242.551 108.132H246.271V106.132H242.551V108.132ZM245.271 107.132V135.132H247.271V107.132H245.271ZM246.271 134.132H241.071V136.132H246.271V134.132ZM242.071 135.132V113.492H240.071V135.132H242.071ZM265.665 109.412L264.987 108.677L264.982 108.681L265.665 109.412ZM281.145 109.412L280.462 110.142L280.467 110.147L281.145 109.412ZM281.145 132.852L280.467 132.117L280.462 132.121L281.145 132.852ZM265.665 132.852L264.982 133.582L264.987 133.587L265.665 132.852ZM269.385 129.332L268.706 130.066L268.716 130.075L268.725 130.083L269.385 129.332ZM277.465 129.332L278.125 130.083L278.135 130.074L278.145 130.065L277.465 129.332ZM277.465 112.972L276.786 113.706L276.796 113.715L276.805 113.723L277.465 112.972ZM269.385 112.972L270.054 113.715L270.064 113.706L269.385 112.972ZM263.585 125.652V116.612H261.585V125.652H263.585ZM263.585 116.612C263.585 114.001 264.503 111.868 266.348 110.142L264.982 108.681C262.721 110.796 261.585 113.463 261.585 116.612H263.585ZM266.344 110.147C268.221 108.414 270.558 107.532 273.425 107.532V105.532C270.106 105.532 267.27 106.57 264.987 108.677L266.344 110.147ZM273.425 107.532C276.293 107.532 278.613 108.413 280.462 110.142L281.828 108.681C279.57 106.57 276.745 105.532 273.425 105.532V107.532ZM280.467 110.147C282.338 111.874 283.265 114.005 283.265 116.612H285.265C285.265 113.458 284.113 110.79 281.824 108.677L280.467 110.147ZM283.265 116.612V125.652H285.265V116.612H283.265ZM283.265 125.652C283.265 128.258 282.338 130.39 280.467 132.117L281.824 133.587C284.113 131.474 285.265 128.805 285.265 125.652H283.265ZM280.462 132.121C278.613 133.85 276.293 134.732 273.425 134.732V136.732C276.745 136.732 279.57 135.693 281.828 133.582L280.462 132.121ZM273.425 134.732C270.558 134.732 268.221 133.85 266.344 132.117L264.987 133.587C267.27 135.694 270.106 136.732 273.425 136.732V134.732ZM266.348 132.121C264.503 130.396 263.585 128.263 263.585 125.652H261.585C261.585 128.801 262.721 131.468 264.982 133.582L266.348 132.121ZM266.785 116.532V125.732H268.785V116.532H266.785ZM266.785 125.732C266.785 127.433 267.441 128.896 268.706 130.066L270.064 128.598C269.196 127.794 268.785 126.858 268.785 125.732H266.785ZM268.725 130.083C270.02 131.22 271.608 131.772 273.425 131.772V129.772C272.042 129.772 270.937 129.364 270.045 128.58L268.725 130.083ZM273.425 131.772C275.242 131.772 276.831 131.22 278.125 130.083L276.805 128.58C275.913 129.364 274.809 129.772 273.425 129.772V131.772ZM278.145 130.065C279.425 128.879 280.105 127.419 280.105 125.732H278.105C278.105 126.818 277.692 127.758 276.785 128.598L278.145 130.065ZM280.105 125.732V116.532H278.105V125.732H280.105ZM280.105 116.532C280.105 114.821 279.427 113.364 278.125 112.22L276.805 113.723C277.69 114.5 278.105 115.416 278.105 116.532H280.105ZM278.144 112.238C276.87 111.059 275.271 110.492 273.425 110.492V112.492C274.833 112.492 275.927 112.911 276.786 113.706L278.144 112.238ZM273.425 110.492C271.579 110.492 269.98 111.059 268.706 112.238L270.064 113.706C270.924 112.911 272.018 112.492 273.425 112.492V110.492ZM268.716 112.229C267.443 113.375 266.785 114.83 266.785 116.532H268.785C268.785 115.407 269.195 114.489 270.054 113.715L268.716 112.229Z" fill="black"/>
</g>
<circle cx="38.375" cy="130.507" r="1.375" fill="#D4D4D4"/>
<circle cx="44.125" cy="130.507" r="1.375" fill="#D4D4D4"/>
<circle cx="49.875" cy="130.507" r="1.375" fill="#D4D4D4"/>
<circle cx="55.625" cy="130.507" r="1.375" fill="#D4D4D4"/>
<circle cx="61.375" cy="130.507" r="1.375" fill="#D4D4D4"/>
<circle cx="67.125" cy="130.507" r="1.375" fill="#D4D4D4"/>
<circle cx="72.875" cy="130.507" r="1.375" fill="#D4D4D4"/>
<circle cx="78.625" cy="130.507" r="1.375" fill="#D4D4D4"/>
<circle cx="84.375" cy="130.507" r="1.375" fill="#D4D4D4"/>
<circle cx="38.375" cy="136.257" r="1.375" fill="#D4D4D4"/>
<circle cx="44.125" cy="136.257" r="1.375" fill="#D4D4D4"/>
<circle cx="38.375" cy="142.007" r="1.375" fill="#D4D4D4"/>
<circle cx="44.125" cy="142.007" r="1.375" fill="#D4D4D4"/>
<circle cx="49.875" cy="142.007" r="1.375" fill="#D4D4D4"/>
<circle cx="55.625" cy="142.007" r="1.375" fill="#D4D4D4"/>
<circle cx="61.375" cy="142.007" r="1.375" fill="#D4D4D4"/>
<circle cx="67.125" cy="142.007" r="1.375" fill="#D4D4D4"/>
<circle cx="72.875" cy="142.007" r="1.375" fill="#D4D4D4"/>
<circle cx="78.625" cy="142.007" r="1.375" fill="#D4D4D4"/>
<circle cx="84.375" cy="142.007" r="1.375" fill="#D4D4D4"/>
<circle cx="49.875" cy="136.257" r="1.375" fill="#D4D4D4"/>
<circle cx="55.625" cy="136.257" r="1.375" fill="#D4D4D4"/>
<circle cx="61.375" cy="136.257" r="1.375" fill="#D4D4D4"/>
<circle cx="67.125" cy="136.257" r="1.375" fill="#D4D4D4"/>
<circle cx="72.875" cy="136.257" r="1.375" fill="#D4D4D4"/>
<circle cx="78.625" cy="136.257" r="1.375" fill="#D4D4D4"/>
<circle cx="84.375" cy="136.257" r="1.375" fill="#D4D4D4"/>
<rect width="9" height="49" transform="translate(81 104.632)" fill="#31D67B"/>
<rect width="9" height="87" transform="translate(98 66.6318)" fill="#31D67B"/>
<rect width="9" height="117" transform="translate(115 36.6318)" fill="#31D67B"/>
<circle cx="281.009" cy="31.6637" r="10.6637" stroke="black"/>
<path d="M53.2506 95.1318L53.2506 73.18M53.2506 73.18L52.9251 73.7814M53.2506 73.18L53.5762 73.7814" stroke="black"/>
<path d="M58.6588 95.1318L58.6588 64.4594M58.6588 64.4594L58.3214 65.2997M58.6588 64.4594L58.9961 65.2997" stroke="black"/>
<path d="M47.8638 95.1318V81.2992M47.8638 81.2992L47.5265 81.6781M47.8638 81.2992L48.2012 81.6781" stroke="black"/>
<path d="M64.0572 95.1318V85.2084M64.0572 85.2084L63.7199 85.4803M64.0572 85.2084L64.3945 85.4803" stroke="black"/>
<circle cx="55.9605" cy="98.9681" r="10.6637" fill="#F5F5F5" stroke="black"/>
<circle cx="292.174" cy="31.6636" r="5.08182" stroke="black"/>
<defs>
<clipPath id="clip0">
<rect x="138" y="20.5" width="139" height="139" rx="69.5" fill="white"/>
</clipPath>
</defs>
</svg>
