<svg width="341" height="180" viewBox="0 0 341 180" fill="none" xmlns="http://www.w3.org/2000/svg">
<rect width="341" height="180" fill="#F5F5F5"/>
<rect width="17.7681" height="79.9565" transform="matrix(-1 0 0 1 95.0449 47.9478)" fill="#AB85FF"/>
<rect width="11.4224" height="52.0352" transform="matrix(-1 0 0 1 113.844 75.8687)" fill="#AB85FF"/>
<rect width="6.34575" height="29.1905" transform="matrix(-1 0 0 1 127.566 98.7139)" fill="#AB85FF"/>
<path d="M113.844 102.543H160.168M160.168 102.543L158.899 103.155M160.168 102.543L158.899 101.931" stroke="black"/>
<path d="M113.844 92.368H178.57M178.57 92.368L176.797 93.0025M178.57 92.368L176.797 91.7334" stroke="black"/>
<path d="M113.844 112.675H143.034M143.034 112.675L142.234 113.309M143.034 112.675L142.234 112.04" stroke="black"/>
<path d="M113.844 82.2151H134.785M134.785 82.2151L134.211 82.8497M134.785 82.2151L134.211 81.5806" stroke="black"/>
<path d="M69.0347 32.7976C54.1052 33.9035 25.5732 45.7365 24.2461 77.5862C24.2461 117.398 54.6581 127.904 69.5877 127.904C91.1525 127.904 180.73 127.904 231.601 127.904" stroke="black"/>
<path d="M68.8086 32.7974H148.658" stroke="black"/>
<path d="M271.965 127.904C286.895 126.798 315.427 114.965 316.754 83.1155C316.754 43.3034 286.342 32.7974 271.412 32.7974C249.847 32.7974 160.27 32.7974 109.399 32.7974" stroke="black"/>
<path d="M272.191 127.904H192.342" stroke="black"/>
<path d="M199.645 127.904L228.592 111.191V144.617L199.645 127.904Z" fill="#31D67B"/>
<path d="M217.957 127.904L246.905 111.191V144.617L217.957 127.904Z" fill="#31D67B"/>
<path d="M237.256 127.904L266.204 111.191V144.617L237.256 127.904Z" fill="#31D67B"/>
</svg>
