<svg width="341" height="180" viewBox="0 0 341 180" fill="none" xmlns="http://www.w3.org/2000/svg">
<rect width="341" height="180" fill="#F5F5F5"/>
<rect x="54.1016" y="42.1926" width="157.296" height="30.2721" fill="#C9AEFF"/>
<rect x="133.041" y="89.5051" width="99.9788" height="19.2412" fill="#31D67B"/>
<rect x="133.041" y="89.5051" width="99.9788" height="19.2412" fill="#A57CFE"/>
<rect x="211.396" y="124.698" width="71.321" height="13.7259" fill="#31D67B"/>
<rect x="211.396" y="124.698" width="71.321" height="13.7259" fill="#8052E4"/>
<path d="M187.723 113.246L178.223 103.746" stroke="black"/>
<path d="M181.223 113.746L171.723 104.246" stroke="black"/>
<path d="M174.723 113.746L165.223 104.246" stroke="black"/>
<path d="M168.223 113.746L158.723 104.246" stroke="black"/>
<path d="M161.723 113.746L152.223 104.246" stroke="black"/>
<path d="M155.223 113.746L145.723 104.246" stroke="black"/>
<path d="M148.723 113.746L139.223 104.246" stroke="black"/>
<path d="M279.758 108.497C279.758 105.356 278.511 102.345 276.29 100.124C274.07 97.9039 271.058 96.6565 267.918 96.6565C264.778 96.6565 261.766 97.9039 259.546 100.124C257.326 102.345 256.078 105.356 256.078 108.497L267.918 108.497H279.758Z" fill="#D4D4D4"/>
<path d="M262.28 108.497C262.28 106.403 261.478 104.395 260.05 102.915C258.623 101.435 256.687 100.603 254.668 100.603C252.649 100.603 250.713 101.435 249.286 102.915C247.859 104.395 247.057 106.403 247.057 108.497L254.668 108.497H262.28Z" fill="#D4D4D4"/>
<path d="M296.108 108.497C296.108 106.403 294.949 104.395 292.888 102.915C290.826 101.435 288.029 100.603 285.113 100.603C282.198 100.603 279.401 101.435 277.339 102.915C275.277 104.395 274.119 106.403 274.119 108.497L285.113 108.497H296.108Z" fill="#D4D4D4"/>
<path d="M102.414 134.671C102.414 127.602 99.606 120.822 94.6074 115.823C89.6087 110.825 82.829 108.016 75.7599 108.016C68.6907 108.016 61.911 110.825 56.9124 115.823C51.9137 120.822 49.1055 127.602 49.1055 134.671L75.7599 134.671H102.414Z" fill="#4AE991"/>
<path d="M63.0668 134.671C63.0668 129.958 61.2615 125.438 58.0481 122.106C54.8347 118.773 50.4763 116.901 45.9318 116.901C41.3874 116.901 37.029 118.773 33.8156 122.106C30.6022 125.438 28.7969 129.958 28.7969 134.671L45.9318 134.671H63.0668Z" fill="#4AE991"/>
<path d="M139.222 134.671C139.222 129.958 136.614 125.438 131.972 122.106C127.331 118.773 121.035 116.901 114.471 116.901C107.907 116.901 101.612 118.773 96.97 122.106C92.3283 125.438 89.7207 129.958 89.7207 134.671L114.471 134.671H139.222Z" fill="#4AE991"/>
<path d="M229.871 33.9356C229.871 29.8882 228.263 26.0066 225.401 23.1447C222.539 20.2828 218.657 18.675 214.61 18.675C210.563 18.675 206.681 20.2828 203.819 23.1447C200.957 26.0066 199.35 29.8882 199.35 33.9356L214.61 33.9356H229.871Z" fill="#31D67B"/>
<path d="M207.343 33.9354C207.343 31.2372 206.31 28.6495 204.47 26.7415C202.63 24.8336 200.135 23.7617 197.533 23.7617C194.931 23.7617 192.436 24.8336 190.596 26.7415C188.756 28.6495 187.723 31.2372 187.723 33.9354L197.533 33.9354H207.343Z" fill="#31D67B"/>
<path d="M250.944 33.9354C250.944 31.2372 249.451 28.6495 246.794 26.7415C244.137 24.8336 240.532 23.7617 236.774 23.7617C233.016 23.7617 229.411 24.8336 226.754 26.7415C224.096 28.6495 222.604 31.2372 222.604 33.9354L236.774 33.9354H250.944Z" fill="#31D67B"/>
<path d="M58.209 53.6766L87.9348 53.6766M87.9348 53.6766L87.1204 53.2358M87.9348 53.6766L87.1204 54.1174" stroke="black" stroke-width="1.97979"/>
<path d="M58.209 61.0015L99.7437 61.0015M99.7437 61.0015L98.6057 60.5447M99.7437 61.0015L98.6057 61.4583" stroke="black" stroke-width="1.97979"/>
<path d="M58.209 46.384L76.9403 46.384M76.9403 46.384L76.4271 45.9272M76.9403 46.384L76.4271 46.8408" stroke="black" stroke-width="1.97979"/>
<path d="M58.209 68.3101H71.6467M71.6467 68.3101L71.2785 67.8533M71.6467 68.3101L71.2785 68.7668" stroke="black" stroke-width="1.97979"/>
<circle cx="53.0157" cy="57.3473" r="14.1272" transform="rotate(90 53.0157 57.3473)" fill="#F5F5F5" stroke="black" stroke-width="1.97979"/>
</svg>
