<svg width="259" height="105" viewBox="0 0 259 105" fill="none" xmlns="http://www.w3.org/2000/svg">
<rect x="-0.326584" y="0.326584" width="66.8779" height="92.6041" transform="matrix(-1 0 0 1 67.4171 0.660889)" fill="white"/>
<rect x="-0.326584" y="0.326584" width="51.6002" height="5.22534" transform="matrix(-1 0 0 1 60.2336 13.071)" stroke="url(#paint0_linear)" stroke-width="0.653167"/>
<rect x="-0.326584" y="0.326584" width="51.6002" height="5.22534" transform="matrix(-1 0 0 1 60.2336 25.4812)" stroke="url(#paint1_linear)" stroke-width="0.653167"/>
<rect x="-0.326584" y="0.326584" width="51.6002" height="5.22534" transform="matrix(-1 0 0 1 60.2336 37.8915)" stroke="url(#paint2_linear)" stroke-width="0.653167"/>
<rect x="-0.326584" y="0.326584" width="51.6002" height="5.22534" transform="matrix(-1 0 0 1 60.2336 50.3015)" stroke="url(#paint3_linear)" stroke-width="0.653167"/>
<rect x="-0.326584" y="0.326584" width="51.6002" height="5.22534" transform="matrix(-1 0 0 1 60.2336 62.7114)" stroke="url(#paint4_linear)" stroke-width="0.653167"/>
<rect x="-0.326584" y="0.326584" width="51.6002" height="5.22534" transform="matrix(-1 0 0 1 60.2336 75.1211)" stroke="url(#paint5_linear)" stroke-width="0.653167"/>
<rect x="-0.326584" y="0.326584" width="66.8779" height="92.6041" transform="matrix(-1 0 0 1 67.4171 0.660889)" stroke="url(#paint6_linear)" stroke-width="0.653167"/>
<g clip-path="url(#clip0)">
<path d="M77.5069 83.8003L68.268 81.0286C68.1388 80.9898 68.0008 80.9898 67.8714 81.0286L58.6324 83.8003C58.3405 83.8879 58.1406 84.1565 58.1406 84.4613V94.6242C58.1406 95.946 58.6757 97.2992 59.7311 98.646C60.5372 99.6746 61.6523 100.708 63.0456 101.716C65.3861 103.41 67.6907 104.45 67.7877 104.493C67.8774 104.533 67.9735 104.553 68.0697 104.553C68.1658 104.553 68.2619 104.533 68.3516 104.493C68.4486 104.45 70.7532 103.41 73.0937 101.716C74.487 100.708 75.6021 99.6746 76.4082 98.646C77.4635 97.2992 77.9986 95.9461 77.9986 94.6242V84.4613C77.9987 84.1565 77.7988 83.8879 77.5069 83.8003ZM67.7877 94.6242C67.7877 96.9635 67.7877 98.646 67.7877 101.166C67.7877 102.678 67.7944 101.549 67.7877 103.079C67.7877 103.568 67.7877 103.101 67.7877 101.166C67.7877 96.6838 67.7877 96.9635 67.7877 94.6242Z" fill="url(#paint7_linear)"/>
</g>
<rect x="-0.326584" y="0.326584" width="66.8779" height="92.6041" transform="matrix(-1 0 0 1 156.726 0.660889)" fill="white"/>
<rect x="-0.326584" y="0.326584" width="51.6002" height="5.22534" transform="matrix(-1 0 0 1 149.542 13.071)" stroke="url(#paint8_linear)" stroke-width="0.653167"/>
<rect x="-0.326584" y="0.326584" width="51.6002" height="5.22534" transform="matrix(-1 0 0 1 149.542 25.4812)" stroke="url(#paint9_linear)" stroke-width="0.653167"/>
<rect x="-0.326584" y="0.326584" width="51.6002" height="5.22534" transform="matrix(-1 0 0 1 149.542 37.8915)" stroke="url(#paint10_linear)" stroke-width="0.653167"/>
<rect x="-0.326584" y="0.326584" width="51.6002" height="5.22534" transform="matrix(-1 0 0 1 149.542 50.3015)" stroke="url(#paint11_linear)" stroke-width="0.653167"/>
<rect x="-0.326584" y="0.326584" width="51.6002" height="5.22534" transform="matrix(-1 0 0 1 149.542 62.7114)" stroke="url(#paint12_linear)" stroke-width="0.653167"/>
<rect x="-0.326584" y="0.326584" width="51.6002" height="5.22534" transform="matrix(-1 0 0 1 149.542 75.1211)" stroke="url(#paint13_linear)" stroke-width="0.653167"/>
<rect x="-0.326584" y="0.326584" width="66.8779" height="92.6041" transform="matrix(-1 0 0 1 156.726 0.660889)" stroke="url(#paint14_linear)" stroke-width="0.653167"/>
<g clip-path="url(#clip1)">
<path d="M166.816 83.8003L157.577 81.0286C157.447 80.9898 157.309 80.9898 157.18 81.0286L147.941 83.8003C147.649 83.8879 147.449 84.1565 147.449 84.4613V94.6242C147.449 95.946 147.984 97.2992 149.04 98.646C149.846 99.6746 150.961 100.708 152.354 101.716C154.695 103.41 156.999 104.45 157.096 104.493C157.186 104.533 157.282 104.553 157.378 104.553C157.474 104.553 157.571 104.533 157.66 104.493C157.757 104.45 160.062 103.41 162.402 101.716C163.796 100.708 164.911 99.6746 165.717 98.646C166.772 97.2992 167.307 95.9461 167.307 94.6242V84.4613C167.307 84.1565 167.107 83.8879 166.816 83.8003ZM157.096 94.6242C157.096 96.9635 157.096 98.646 157.096 101.166C157.096 102.678 157.103 101.549 157.096 103.079C157.096 103.568 157.096 103.101 157.096 101.166C157.096 96.6838 157.096 96.9635 157.096 94.6242Z" fill="url(#paint15_linear)"/>
</g>
<rect x="-0.326584" y="0.326584" width="66.8779" height="92.6041" transform="matrix(-1 0 0 1 246.034 0.660889)" fill="white"/>
<rect x="-0.326584" y="0.326584" width="51.6002" height="5.22534" transform="matrix(-1 0 0 1 238.851 13.071)" stroke="url(#paint16_linear)" stroke-width="0.653167"/>
<rect x="-0.326584" y="0.326584" width="51.6002" height="5.22534" transform="matrix(-1 0 0 1 238.851 25.4812)" stroke="url(#paint17_linear)" stroke-width="0.653167"/>
<rect x="-0.326584" y="0.326584" width="51.6002" height="5.22534" transform="matrix(-1 0 0 1 238.851 37.8915)" stroke="url(#paint18_linear)" stroke-width="0.653167"/>
<rect x="-0.326584" y="0.326584" width="51.6002" height="5.22534" transform="matrix(-1 0 0 1 238.851 50.3015)" stroke="url(#paint19_linear)" stroke-width="0.653167"/>
<rect x="-0.326584" y="0.326584" width="51.6002" height="5.22534" transform="matrix(-1 0 0 1 238.851 62.7114)" stroke="url(#paint20_linear)" stroke-width="0.653167"/>
<rect x="-0.326584" y="0.326584" width="51.6002" height="5.22534" transform="matrix(-1 0 0 1 238.851 75.1211)" stroke="url(#paint21_linear)" stroke-width="0.653167"/>
<rect x="-0.326584" y="0.326584" width="66.8779" height="92.6041" transform="matrix(-1 0 0 1 246.034 0.660889)" stroke="url(#paint22_linear)" stroke-width="0.653167"/>
<g clip-path="url(#clip2)">
<path d="M256.124 83.8003L246.885 81.0286C246.756 80.9898 246.618 80.9898 246.489 81.0286L237.25 83.8003C236.958 83.8879 236.758 84.1565 236.758 84.4613V94.6242C236.758 95.946 237.293 97.2992 238.348 98.646C239.154 99.6746 240.269 100.708 241.663 101.716C244.003 103.41 246.308 104.45 246.405 104.493C246.495 104.533 246.591 104.553 246.687 104.553C246.783 104.553 246.879 104.533 246.969 104.493C247.066 104.45 249.37 103.41 251.711 101.716C253.104 100.708 254.219 99.6746 255.025 98.646C256.081 97.2992 256.616 95.9461 256.616 94.6242V84.4613C256.616 84.1565 256.416 83.8879 256.124 83.8003ZM246.405 94.6242C246.405 96.9635 246.405 98.646 246.405 101.166C246.405 102.678 246.412 101.549 246.405 103.079C246.405 103.568 246.405 103.101 246.405 101.166C246.405 96.6838 246.405 96.9635 246.405 94.6242Z" fill="url(#paint23_linear)"/>
</g>
<defs>
<linearGradient id="paint0_linear" x1="-8.49989" y1="6.46559" x2="-7.29061" y2="-7.42937" gradientUnits="userSpaceOnUse">
<stop stop-color="#AB85FF"/>
<stop offset="0.526042" stop-color="#EBA3E3"/>
<stop offset="1" stop-color="#FFDBE4"/>
</linearGradient>
<linearGradient id="paint1_linear" x1="-8.49989" y1="6.46559" x2="-7.29061" y2="-7.42937" gradientUnits="userSpaceOnUse">
<stop stop-color="#AB85FF"/>
<stop offset="0.526042" stop-color="#EBA3E3"/>
<stop offset="1" stop-color="#FFDBE4"/>
</linearGradient>
<linearGradient id="paint2_linear" x1="-8.49989" y1="6.46559" x2="-7.29061" y2="-7.42937" gradientUnits="userSpaceOnUse">
<stop stop-color="#AB85FF"/>
<stop offset="0.526042" stop-color="#EBA3E3"/>
<stop offset="1" stop-color="#FFDBE4"/>
</linearGradient>
<linearGradient id="paint3_linear" x1="-8.49989" y1="6.46559" x2="-7.29061" y2="-7.42937" gradientUnits="userSpaceOnUse">
<stop stop-color="#AB85FF"/>
<stop offset="0.526042" stop-color="#EBA3E3"/>
<stop offset="1" stop-color="#FFDBE4"/>
</linearGradient>
<linearGradient id="paint4_linear" x1="-8.49989" y1="6.46559" x2="-7.29061" y2="-7.42937" gradientUnits="userSpaceOnUse">
<stop stop-color="#AB85FF"/>
<stop offset="0.526042" stop-color="#EBA3E3"/>
<stop offset="1" stop-color="#FFDBE4"/>
</linearGradient>
<linearGradient id="paint5_linear" x1="-8.49989" y1="6.46559" x2="-7.29061" y2="-7.42937" gradientUnits="userSpaceOnUse">
<stop stop-color="#AB85FF"/>
<stop offset="0.526042" stop-color="#EBA3E3"/>
<stop offset="1" stop-color="#FFDBE4"/>
</linearGradient>
<linearGradient id="paint6_linear" x1="-10.9851" y1="102.571" x2="99.8234" y2="-1.15345" gradientUnits="userSpaceOnUse">
<stop stop-color="#AB85FF"/>
<stop offset="0.526042" stop-color="#EBA3E3"/>
<stop offset="1" stop-color="#FFDBE4"/>
</linearGradient>
<linearGradient id="paint7_linear" x1="54.9104" y1="106.906" x2="82.8546" y2="76.4509" gradientUnits="userSpaceOnUse">
<stop stop-color="#AB85FF"/>
<stop offset="0.526042" stop-color="#EBA3E3"/>
<stop offset="1" stop-color="#FFDBE4"/>
</linearGradient>
<linearGradient id="paint8_linear" x1="-8.49989" y1="6.46559" x2="-7.29061" y2="-7.42937" gradientUnits="userSpaceOnUse">
<stop stop-color="#AB85FF"/>
<stop offset="0.526042" stop-color="#EBA3E3"/>
<stop offset="1" stop-color="#FFDBE4"/>
</linearGradient>
<linearGradient id="paint9_linear" x1="-8.49989" y1="6.46559" x2="-7.29061" y2="-7.42937" gradientUnits="userSpaceOnUse">
<stop stop-color="#AB85FF"/>
<stop offset="0.526042" stop-color="#EBA3E3"/>
<stop offset="1" stop-color="#FFDBE4"/>
</linearGradient>
<linearGradient id="paint10_linear" x1="-8.49989" y1="6.46559" x2="-7.29061" y2="-7.42937" gradientUnits="userSpaceOnUse">
<stop stop-color="#AB85FF"/>
<stop offset="0.526042" stop-color="#EBA3E3"/>
<stop offset="1" stop-color="#FFDBE4"/>
</linearGradient>
<linearGradient id="paint11_linear" x1="-8.49989" y1="6.46559" x2="-7.29061" y2="-7.42937" gradientUnits="userSpaceOnUse">
<stop stop-color="#AB85FF"/>
<stop offset="0.526042" stop-color="#EBA3E3"/>
<stop offset="1" stop-color="#FFDBE4"/>
</linearGradient>
<linearGradient id="paint12_linear" x1="-8.49989" y1="6.46559" x2="-7.29061" y2="-7.42937" gradientUnits="userSpaceOnUse">
<stop stop-color="#AB85FF"/>
<stop offset="0.526042" stop-color="#EBA3E3"/>
<stop offset="1" stop-color="#FFDBE4"/>
</linearGradient>
<linearGradient id="paint13_linear" x1="-8.49989" y1="6.46559" x2="-7.29061" y2="-7.42937" gradientUnits="userSpaceOnUse">
<stop stop-color="#AB85FF"/>
<stop offset="0.526042" stop-color="#EBA3E3"/>
<stop offset="1" stop-color="#FFDBE4"/>
</linearGradient>
<linearGradient id="paint14_linear" x1="-10.9851" y1="102.571" x2="99.8234" y2="-1.15345" gradientUnits="userSpaceOnUse">
<stop stop-color="#AB85FF"/>
<stop offset="0.526042" stop-color="#EBA3E3"/>
<stop offset="1" stop-color="#FFDBE4"/>
</linearGradient>
<linearGradient id="paint15_linear" x1="144.219" y1="106.906" x2="172.163" y2="76.4509" gradientUnits="userSpaceOnUse">
<stop stop-color="#AB85FF"/>
<stop offset="0.526042" stop-color="#EBA3E3"/>
<stop offset="1" stop-color="#FFDBE4"/>
</linearGradient>
<linearGradient id="paint16_linear" x1="-8.49989" y1="6.46559" x2="-7.29061" y2="-7.42937" gradientUnits="userSpaceOnUse">
<stop stop-color="#AB85FF"/>
<stop offset="0.526042" stop-color="#EBA3E3"/>
<stop offset="1" stop-color="#FFDBE4"/>
</linearGradient>
<linearGradient id="paint17_linear" x1="-8.49989" y1="6.46559" x2="-7.29061" y2="-7.42937" gradientUnits="userSpaceOnUse">
<stop stop-color="#AB85FF"/>
<stop offset="0.526042" stop-color="#EBA3E3"/>
<stop offset="1" stop-color="#FFDBE4"/>
</linearGradient>
<linearGradient id="paint18_linear" x1="-8.49989" y1="6.46559" x2="-7.29061" y2="-7.42937" gradientUnits="userSpaceOnUse">
<stop stop-color="#AB85FF"/>
<stop offset="0.526042" stop-color="#EBA3E3"/>
<stop offset="1" stop-color="#FFDBE4"/>
</linearGradient>
<linearGradient id="paint19_linear" x1="-8.49989" y1="6.46559" x2="-7.29061" y2="-7.42937" gradientUnits="userSpaceOnUse">
<stop stop-color="#AB85FF"/>
<stop offset="0.526042" stop-color="#EBA3E3"/>
<stop offset="1" stop-color="#FFDBE4"/>
</linearGradient>
<linearGradient id="paint20_linear" x1="-8.49989" y1="6.46559" x2="-7.29061" y2="-7.42937" gradientUnits="userSpaceOnUse">
<stop stop-color="#AB85FF"/>
<stop offset="0.526042" stop-color="#EBA3E3"/>
<stop offset="1" stop-color="#FFDBE4"/>
</linearGradient>
<linearGradient id="paint21_linear" x1="-8.49989" y1="6.46559" x2="-7.29061" y2="-7.42937" gradientUnits="userSpaceOnUse">
<stop stop-color="#AB85FF"/>
<stop offset="0.526042" stop-color="#EBA3E3"/>
<stop offset="1" stop-color="#FFDBE4"/>
</linearGradient>
<linearGradient id="paint22_linear" x1="-10.9851" y1="102.571" x2="99.8234" y2="-1.15345" gradientUnits="userSpaceOnUse">
<stop stop-color="#AB85FF"/>
<stop offset="0.526042" stop-color="#EBA3E3"/>
<stop offset="1" stop-color="#FFDBE4"/>
</linearGradient>
<linearGradient id="paint23_linear" x1="233.528" y1="106.906" x2="261.472" y2="76.4509" gradientUnits="userSpaceOnUse">
<stop stop-color="#AB85FF"/>
<stop offset="0.526042" stop-color="#EBA3E3"/>
<stop offset="1" stop-color="#FFDBE4"/>
</linearGradient>
<clipPath id="clip0">
<rect width="23.5537" height="23.5537" fill="white" transform="translate(56.293 80.9995)"/>
</clipPath>
<clipPath id="clip1">
<rect width="23.5537" height="23.5537" fill="white" transform="translate(145.602 80.9995)"/>
</clipPath>
<clipPath id="clip2">
<rect width="23.5537" height="23.5537" fill="white" transform="translate(234.91 80.9995)"/>
</clipPath>
</defs>
</svg>
