<svg width="217" height="98" viewBox="0 0 217 98" fill="none" xmlns="http://www.w3.org/2000/svg">
<path d="M31.9453 49.9004H92.2241" stroke="url(#paint0_linear)" stroke-width="2"/>
<rect x="1.71484" y="39.8484" width="127" height="36.7496" stroke="url(#paint1_linear)" stroke-width="2"/>
<path d="M189.176 26.1957C165.404 -2.2143 129.894 -13.3258 90.3722 26.1957M90.3722 26.1957C92.1158 16.8966 92.7953 12.4953 92.9171 11.4571L90.3722 26.1957ZM90.3722 26.1957C92.1171 25.4825 100.557 23.8007 106.56 23.2345" stroke="url(#paint2_linear)"/>
<rect x="-0.186871" y="0.186871" width="38.2675" height="52.988" transform="matrix(-1 0 0 1 215.915 44.1067)" fill="white"/>
<rect x="-0.186871" y="0.186871" width="29.5256" height="2.98993" transform="matrix(-1 0 0 1 211.802 51.2078)" stroke="url(#paint3_linear)" stroke-width="0.373742"/>
<rect x="-0.186871" y="0.186871" width="29.5256" height="2.98993" transform="matrix(-1 0 0 1 211.802 58.3088)" stroke="url(#paint4_linear)" stroke-width="0.373742"/>
<rect x="-0.186871" y="0.186871" width="29.5256" height="2.98993" transform="matrix(-1 0 0 1 211.802 65.41)" stroke="url(#paint5_linear)" stroke-width="0.373742"/>
<rect x="-0.186871" y="0.186871" width="29.5256" height="2.98993" transform="matrix(-1 0 0 1 211.802 72.511)" stroke="url(#paint6_linear)" stroke-width="0.373742"/>
<rect x="-0.186871" y="0.186871" width="29.5256" height="2.98993" transform="matrix(-1 0 0 1 211.802 79.6119)" stroke="url(#paint7_linear)" stroke-width="0.373742"/>
<rect x="-0.186871" y="0.186871" width="29.5256" height="2.98993" transform="matrix(-1 0 0 1 211.802 86.7128)" stroke="url(#paint8_linear)" stroke-width="0.373742"/>
<rect x="-0.186871" y="0.186871" width="38.2675" height="52.988" transform="matrix(-1 0 0 1 215.915 44.1067)" stroke="url(#paint9_linear)" stroke-width="0.373742"/>
<rect x="-0.186871" y="0.186871" width="38.2675" height="52.988" transform="matrix(-1 0 0 1 192.915 38.7291)" fill="white"/>
<rect x="-0.186871" y="0.186871" width="29.5256" height="2.98993" transform="matrix(-1 0 0 1 188.802 45.8302)" stroke="url(#paint10_linear)" stroke-width="0.373742"/>
<rect x="-0.186871" y="0.186871" width="29.5256" height="2.98993" transform="matrix(-1 0 0 1 188.802 52.9313)" stroke="url(#paint11_linear)" stroke-width="0.373742"/>
<rect x="-0.186871" y="0.186871" width="29.5256" height="2.98993" transform="matrix(-1 0 0 1 188.802 60.0324)" stroke="url(#paint12_linear)" stroke-width="0.373742"/>
<rect x="-0.186871" y="0.186871" width="29.5256" height="2.98993" transform="matrix(-1 0 0 1 188.802 67.1335)" stroke="url(#paint13_linear)" stroke-width="0.373742"/>
<rect x="-0.186871" y="0.186871" width="29.5256" height="2.98993" transform="matrix(-1 0 0 1 188.802 74.2344)" stroke="url(#paint14_linear)" stroke-width="0.373742"/>
<rect x="-0.186871" y="0.186871" width="29.5256" height="2.98993" transform="matrix(-1 0 0 1 188.802 81.3352)" stroke="url(#paint15_linear)" stroke-width="0.373742"/>
<rect x="-0.186871" y="0.186871" width="38.2675" height="52.988" transform="matrix(-1 0 0 1 192.915 38.7291)" stroke="url(#paint16_linear)" stroke-width="0.373742"/>
<defs>
<linearGradient id="paint0_linear" x1="22.14" y1="51.0002" x2="22.1705" y2="48.619" gradientUnits="userSpaceOnUse">
<stop stop-color="#AB85FF"/>
<stop offset="0.526042" stop-color="#EBA3E3"/>
<stop offset="1" stop-color="#FFDBE4"/>
</linearGradient>
<linearGradient id="paint1_linear" x1="-20.2692" y1="81.4679" x2="0.0771285" y2="-6.0898" gradientUnits="userSpaceOnUse">
<stop stop-color="#AB85FF"/>
<stop offset="0.526042" stop-color="#EBA3E3"/>
<stop offset="1" stop-color="#FFDBE4"/>
</linearGradient>
<linearGradient id="paint2_linear" x1="205.248" y1="28.7566" x2="193.462" y2="-29.9471" gradientUnits="userSpaceOnUse">
<stop stop-color="#AB85FF"/>
<stop offset="0.526042" stop-color="#EBA3E3"/>
<stop offset="1" stop-color="#FFDBE4"/>
</linearGradient>
<linearGradient id="paint3_linear" x1="-4.86363" y1="3.69961" x2="-4.17169" y2="-4.25108" gradientUnits="userSpaceOnUse">
<stop stop-color="#AB85FF"/>
<stop offset="0.526042" stop-color="#EBA3E3"/>
<stop offset="1" stop-color="#FFDBE4"/>
</linearGradient>
<linearGradient id="paint4_linear" x1="-4.86363" y1="3.69961" x2="-4.17169" y2="-4.25108" gradientUnits="userSpaceOnUse">
<stop stop-color="#AB85FF"/>
<stop offset="0.526042" stop-color="#EBA3E3"/>
<stop offset="1" stop-color="#FFDBE4"/>
</linearGradient>
<linearGradient id="paint5_linear" x1="-4.86363" y1="3.69961" x2="-4.17169" y2="-4.25108" gradientUnits="userSpaceOnUse">
<stop stop-color="#AB85FF"/>
<stop offset="0.526042" stop-color="#EBA3E3"/>
<stop offset="1" stop-color="#FFDBE4"/>
</linearGradient>
<linearGradient id="paint6_linear" x1="-4.86363" y1="3.69961" x2="-4.17169" y2="-4.25108" gradientUnits="userSpaceOnUse">
<stop stop-color="#AB85FF"/>
<stop offset="0.526042" stop-color="#EBA3E3"/>
<stop offset="1" stop-color="#FFDBE4"/>
</linearGradient>
<linearGradient id="paint7_linear" x1="-4.86363" y1="3.69961" x2="-4.17169" y2="-4.25108" gradientUnits="userSpaceOnUse">
<stop stop-color="#AB85FF"/>
<stop offset="0.526042" stop-color="#EBA3E3"/>
<stop offset="1" stop-color="#FFDBE4"/>
</linearGradient>
<linearGradient id="paint8_linear" x1="-4.86363" y1="3.69961" x2="-4.17169" y2="-4.25108" gradientUnits="userSpaceOnUse">
<stop stop-color="#AB85FF"/>
<stop offset="0.526042" stop-color="#EBA3E3"/>
<stop offset="1" stop-color="#FFDBE4"/>
</linearGradient>
<linearGradient id="paint9_linear" x1="-6.28565" y1="58.691" x2="57.1189" y2="-0.660004" gradientUnits="userSpaceOnUse">
<stop stop-color="#AB85FF"/>
<stop offset="0.526042" stop-color="#EBA3E3"/>
<stop offset="1" stop-color="#FFDBE4"/>
</linearGradient>
<linearGradient id="paint10_linear" x1="-4.86363" y1="3.69961" x2="-4.17169" y2="-4.25108" gradientUnits="userSpaceOnUse">
<stop stop-color="#AB85FF"/>
<stop offset="0.526042" stop-color="#EBA3E3"/>
<stop offset="1" stop-color="#FFDBE4"/>
</linearGradient>
<linearGradient id="paint11_linear" x1="-4.86363" y1="3.69961" x2="-4.17169" y2="-4.25108" gradientUnits="userSpaceOnUse">
<stop stop-color="#AB85FF"/>
<stop offset="0.526042" stop-color="#EBA3E3"/>
<stop offset="1" stop-color="#FFDBE4"/>
</linearGradient>
<linearGradient id="paint12_linear" x1="-4.86363" y1="3.69961" x2="-4.17169" y2="-4.25108" gradientUnits="userSpaceOnUse">
<stop stop-color="#AB85FF"/>
<stop offset="0.526042" stop-color="#EBA3E3"/>
<stop offset="1" stop-color="#FFDBE4"/>
</linearGradient>
<linearGradient id="paint13_linear" x1="-4.86363" y1="3.69961" x2="-4.17169" y2="-4.25108" gradientUnits="userSpaceOnUse">
<stop stop-color="#AB85FF"/>
<stop offset="0.526042" stop-color="#EBA3E3"/>
<stop offset="1" stop-color="#FFDBE4"/>
</linearGradient>
<linearGradient id="paint14_linear" x1="-4.86363" y1="3.69961" x2="-4.17169" y2="-4.25108" gradientUnits="userSpaceOnUse">
<stop stop-color="#AB85FF"/>
<stop offset="0.526042" stop-color="#EBA3E3"/>
<stop offset="1" stop-color="#FFDBE4"/>
</linearGradient>
<linearGradient id="paint15_linear" x1="-4.86363" y1="3.69961" x2="-4.17169" y2="-4.25108" gradientUnits="userSpaceOnUse">
<stop stop-color="#AB85FF"/>
<stop offset="0.526042" stop-color="#EBA3E3"/>
<stop offset="1" stop-color="#FFDBE4"/>
</linearGradient>
<linearGradient id="paint16_linear" x1="-6.28565" y1="58.691" x2="57.1189" y2="-0.660004" gradientUnits="userSpaceOnUse">
<stop stop-color="#AB85FF"/>
<stop offset="0.526042" stop-color="#EBA3E3"/>
<stop offset="1" stop-color="#FFDBE4"/>
</linearGradient>
</defs>
</svg>
