<svg width="1123" height="278" viewBox="0 0 1123 278" fill="none" xmlns="http://www.w3.org/2000/svg">
<path d="M51.2852 8.73535H1116.66" stroke="#DBDBDB" stroke-opacity="0.5"/>
<path d="M51.2852 32.626H1116.66" stroke="#DBDBDB" stroke-opacity="0.5"/>
<path d="M51.2852 57.2637H1116.66" stroke="#DBDBDB" stroke-opacity="0.5"/>
<path d="M51.2852 84.7188H1116.66" stroke="#DBDBDB" stroke-opacity="0.5"/>
<path d="M51.2852 108.86H1116.66" stroke="#DBDBDB" stroke-opacity="0.5"/>
<path d="M51.2852 134.244H1116.66" stroke="#DBDBDB" stroke-opacity="0.5"/>
<path d="M51.2852 161.323H1116.66" stroke="#DBDBDB" stroke-opacity="0.5"/>
<path d="M51.2852 188.561H1116.66" stroke="#DBDBDB" stroke-opacity="0.5"/>
<path d="M51.2852 214.699H1116.66" stroke="#DBDBDB" stroke-opacity="0.5"/>
<path d="M51.2852 240.838H1116.66" stroke="#DBDBDB" stroke-opacity="0.5"/>
<path d="M9.11738 7.23893C9.11738 6.67893 8.88871 6.19826 8.43138 5.79693C7.99271 5.3956 7.44671 5.19493 6.79338 5.19493C6.26138 5.19493 5.77604 5.3536 5.33738 5.67093C4.90804 5.97893 4.58604 6.4036 4.37138 6.94493L3.54538 6.55293C3.82538 5.8716 4.25471 5.33026 4.83338 4.92893C5.41204 4.5276 6.06538 4.32693 6.79338 4.32693C7.69871 4.32693 8.46404 4.6116 9.08938 5.18093C9.72404 5.74093 10.0414 6.42226 10.0414 7.22493C10.0414 7.78493 9.87338 8.3076 9.53738 8.79293C9.22938 9.2596 8.72538 9.82893 8.02538 10.5009L5.01538 13.3849H10.2094V14.2529H3.60138V13.6089L7.38138 9.92693L8.05338 9.26893C8.22138 9.0916 8.38938 8.89093 8.55738 8.66693C8.93071 8.20026 9.11738 7.72426 9.11738 7.23893ZM11.9312 12.7129L12.7572 12.2929C12.9905 12.6663 13.3172 12.9649 13.7372 13.1889C14.1572 13.4036 14.6192 13.5109 15.1232 13.5109C15.9258 13.5109 16.5838 13.2683 17.0972 12.7829C17.6292 12.2883 17.8952 11.6816 17.8952 10.9629V9.45093C17.6338 9.89893 17.2698 10.2536 16.8032 10.5149C16.3458 10.7669 15.8418 10.8929 15.2912 10.8929C14.2925 10.8929 13.4618 10.5803 12.7992 9.95493C12.1272 9.3296 11.7912 8.5456 11.7912 7.60293C11.7912 6.67893 12.1225 5.8996 12.7852 5.26493C13.4478 4.6396 14.2832 4.32693 15.2912 4.32693C16.2805 4.32693 17.1112 4.63493 17.7832 5.25093C18.4552 5.8576 18.7912 6.6136 18.7912 7.51893V10.9489C18.7912 11.9289 18.4365 12.7456 17.7272 13.3989C17.0365 14.0523 16.1638 14.3789 15.1092 14.3789C14.4372 14.3789 13.8165 14.2296 13.2472 13.9309C12.6872 13.6323 12.2485 13.2263 11.9312 12.7129ZM17.1112 9.33893C17.6058 8.87226 17.8532 8.29826 17.8532 7.61693C17.8532 6.9356 17.6058 6.3616 17.1112 5.89493C16.6165 5.42826 16.0098 5.19493 15.2912 5.19493C14.5538 5.19493 13.9425 5.4236 13.4572 5.88093C12.9625 6.3476 12.7152 6.91693 12.7152 7.58893C12.7152 8.2796 12.9625 8.85826 13.4572 9.32493C13.9518 9.7916 14.5632 10.0249 15.2912 10.0249C16.0192 10.0249 16.6258 9.79626 17.1112 9.33893ZM20.5321 10.9349V7.77093C20.5321 6.80026 20.8774 5.9836 21.5681 5.32093C22.2774 4.65826 23.1454 4.32693 24.1721 4.32693C25.2174 4.32693 26.0854 4.65826 26.7761 5.32093C27.4761 5.97426 27.8261 6.79093 27.8261 7.77093V10.9349C27.8261 11.9149 27.4761 12.7363 26.7761 13.3989C26.0947 14.0523 25.2267 14.3789 24.1721 14.3789C23.1267 14.3789 22.2587 14.0523 21.5681 13.3989C20.8774 12.7363 20.5321 11.9149 20.5321 10.9349ZM21.4281 7.75693V10.9489C21.4281 11.6769 21.6894 12.2883 22.2121 12.7829C22.7347 13.2683 23.3881 13.5109 24.1721 13.5109C24.9561 13.5109 25.6094 13.2683 26.1321 12.7829C26.6641 12.2883 26.9301 11.6769 26.9301 10.9489V7.75693C26.9301 7.02893 26.6641 6.42226 26.1321 5.93693C25.5907 5.44226 24.9374 5.19493 24.1721 5.19493C23.4067 5.19493 22.7534 5.44226 22.2121 5.93693C21.6894 6.4316 21.4281 7.03826 21.4281 7.75693ZM29.7333 10.9349V7.77093C29.7333 6.80026 30.0786 5.9836 30.7693 5.32093C31.4786 4.65826 32.3466 4.32693 33.3733 4.32693C34.4186 4.32693 35.2866 4.65826 35.9772 5.32093C36.6773 5.97426 37.0273 6.79093 37.0273 7.77093V10.9349C37.0273 11.9149 36.6773 12.7363 35.9772 13.3989C35.2959 14.0523 34.4279 14.3789 33.3733 14.3789C32.3279 14.3789 31.4599 14.0523 30.7693 13.3989C30.0786 12.7363 29.7333 11.9149 29.7333 10.9349ZM30.6292 7.75693V10.9489C30.6292 11.6769 30.8906 12.2883 31.4133 12.7829C31.9359 13.2683 32.5893 13.5109 33.3733 13.5109C34.1573 13.5109 34.8106 13.2683 35.3333 12.7829C35.8653 12.2883 36.1313 11.6769 36.1313 10.9489V7.75693C36.1313 7.02893 35.8653 6.42226 35.3333 5.93693C34.7919 5.44226 34.1386 5.19493 33.3733 5.19493C32.6079 5.19493 31.9546 5.44226 31.4133 5.93693C30.8906 6.4316 30.6292 7.03826 30.6292 7.75693Z" fill="white"/>
<path d="M9.61738 33.2594C9.61738 32.6994 9.38871 32.2188 8.93138 31.8174C8.49271 31.4161 7.94671 31.2154 7.29338 31.2154C6.76138 31.2154 6.27604 31.3741 5.83738 31.6914C5.40804 31.9994 5.08604 32.4241 4.87138 32.9654L4.04538 32.5734C4.32538 31.8921 4.75471 31.3508 5.33338 30.9494C5.91204 30.5481 6.56538 30.3474 7.29338 30.3474C8.19871 30.3474 8.96404 30.6321 9.58938 31.2014C10.224 31.7614 10.5414 32.4428 10.5414 33.2454C10.5414 33.8054 10.3734 34.3281 10.0374 34.8134C9.72938 35.2801 9.22538 35.8494 8.52538 36.5214L5.51538 39.4054H10.7094V40.2734H4.10138V39.6294L7.88138 35.9474L8.55338 35.2894C8.72138 35.1121 8.88938 34.9114 9.05738 34.6874C9.43071 34.2208 9.61738 33.7448 9.61738 33.2594ZM17.8492 33.0074C17.8492 32.5128 17.6252 32.0881 17.1772 31.7334C16.7385 31.3881 16.1832 31.2154 15.5112 31.2154C14.9885 31.2154 14.5172 31.3321 14.0972 31.5654C13.6865 31.7894 13.3878 32.0974 13.2012 32.4894L12.3892 32.0974C12.6505 31.5561 13.0565 31.1314 13.6072 30.8234C14.1672 30.5061 14.8018 30.3474 15.5112 30.3474C16.4352 30.3474 17.2098 30.6041 17.8352 31.1174C18.4605 31.6214 18.7732 32.2468 18.7732 32.9934C18.7732 33.4694 18.6285 33.9081 18.3392 34.3094C18.0498 34.7014 17.6532 35.0048 17.1492 35.2194C17.7185 35.4434 18.1665 35.7701 18.4932 36.1994C18.8292 36.6194 18.9972 37.0954 18.9972 37.6274C18.9972 38.4208 18.6658 39.0834 18.0032 39.6154C17.3405 40.1381 16.5145 40.3994 15.5252 40.3994C14.7692 40.3994 14.0972 40.2361 13.5092 39.9094C12.9212 39.5828 12.5012 39.1441 12.2492 38.5934L13.1172 38.2574C13.2945 38.6494 13.5978 38.9621 14.0272 39.1954C14.4565 39.4194 14.9558 39.5314 15.5252 39.5314C16.2438 39.5314 16.8505 39.3494 17.3452 38.9854C17.8305 38.6121 18.0732 38.1501 18.0732 37.5994C18.0732 37.0581 17.8352 36.6054 17.3592 36.2414C16.8925 35.8774 16.3045 35.6954 15.5952 35.6954H14.8672V34.8414H15.4132C16.1132 34.8414 16.6918 34.6688 17.1492 34.3234C17.6158 33.9688 17.8492 33.5301 17.8492 33.0074ZM20.7586 36.9554V33.7914C20.7586 32.8208 21.104 32.0041 21.7946 31.3414C22.504 30.6788 23.372 30.3474 24.3986 30.3474C25.444 30.3474 26.312 30.6788 27.0026 31.3414C27.7026 31.9948 28.0526 32.8114 28.0526 33.7914V36.9554C28.0526 37.9354 27.7026 38.7568 27.0026 39.4194C26.3213 40.0728 25.4533 40.3994 24.3986 40.3994C23.3533 40.3994 22.4853 40.0728 21.7946 39.4194C21.104 38.7568 20.7586 37.9354 20.7586 36.9554ZM21.6546 33.7774V36.9694C21.6546 37.6974 21.916 38.3088 22.4386 38.8034C22.9613 39.2888 23.6146 39.5314 24.3986 39.5314C25.1826 39.5314 25.836 39.2888 26.3586 38.8034C26.8906 38.3088 27.1566 37.6974 27.1566 36.9694V33.7774C27.1566 33.0494 26.8906 32.4428 26.3586 31.9574C25.8173 31.4628 25.164 31.2154 24.3986 31.2154C23.6333 31.2154 22.98 31.4628 22.4386 31.9574C21.916 32.4521 21.6546 33.0588 21.6546 33.7774ZM29.9598 36.9554V33.7914C29.9598 32.8208 30.3051 32.0041 30.9958 31.3414C31.7051 30.6788 32.5731 30.3474 33.5998 30.3474C34.6451 30.3474 35.5131 30.6788 36.2038 31.3414C36.9038 31.9948 37.2538 32.8114 37.2538 33.7914V36.9554C37.2538 37.9354 36.9038 38.7568 36.2038 39.4194C35.5225 40.0728 34.6545 40.3994 33.5998 40.3994C32.5545 40.3994 31.6865 40.0728 30.9958 39.4194C30.3051 38.7568 29.9598 37.9354 29.9598 36.9554ZM30.8558 33.7774V36.9694C30.8558 37.6974 31.1171 38.3088 31.6398 38.8034C32.1625 39.2888 32.8158 39.5314 33.5998 39.5314C34.3838 39.5314 35.0371 39.2888 35.5598 38.8034C36.0918 38.3088 36.3578 37.6974 36.3578 36.9694V33.7774C36.3578 33.0494 36.0918 32.4428 35.5598 31.9574C35.0185 31.4628 34.3651 31.2154 33.5998 31.2154C32.8345 31.2154 32.1811 31.4628 31.6398 31.9574C31.1171 32.4521 30.8558 33.0588 30.8558 33.7774Z" fill="white"/>
<path d="M8.13538 57.655L6.00738 58.831L5.61538 58.033L8.42938 56.493H9.03138V66.293H8.13538V57.655ZM12.9906 66.293L16.5186 57.333H11.1706V56.493H17.4706V57.361L13.9566 66.293H12.9906ZM19.1415 62.975V59.811C19.1415 58.8403 19.4868 58.0236 20.1775 57.361C20.8868 56.6983 21.7548 56.367 22.7815 56.367C23.8268 56.367 24.6948 56.6983 25.3855 57.361C26.0855 58.0143 26.4355 58.831 26.4355 59.811V62.975C26.4355 63.955 26.0855 64.7763 25.3855 65.439C24.7041 66.0923 23.8361 66.419 22.7815 66.419C21.7361 66.419 20.8681 66.0923 20.1775 65.439C19.4868 64.7763 19.1415 63.955 19.1415 62.975ZM20.0375 59.797V62.989C20.0375 63.717 20.2988 64.3283 20.8215 64.823C21.3441 65.3083 21.9975 65.551 22.7815 65.551C23.5655 65.551 24.2188 65.3083 24.7415 64.823C25.2735 64.3283 25.5395 63.717 25.5395 62.989V59.797C25.5395 59.069 25.2735 58.4623 24.7415 57.977C24.2001 57.4823 23.5468 57.235 22.7815 57.235C22.0161 57.235 21.3628 57.4823 20.8215 57.977C20.2988 58.4716 20.0375 59.0783 20.0375 59.797ZM28.3426 62.975V59.811C28.3426 58.8403 28.688 58.0236 29.3786 57.361C30.088 56.6983 30.956 56.367 31.9826 56.367C33.028 56.367 33.896 56.6983 34.5866 57.361C35.2866 58.0143 35.6366 58.831 35.6366 59.811V62.975C35.6366 63.955 35.2866 64.7763 34.5866 65.439C33.9053 66.0923 33.0373 66.419 31.9826 66.419C30.9373 66.419 30.0693 66.0923 29.3786 65.439C28.688 64.7763 28.3426 63.955 28.3426 62.975ZM29.2386 59.797V62.989C29.2386 63.717 29.5 64.3283 30.0226 64.823C30.5453 65.3083 31.1986 65.551 31.9826 65.551C32.7666 65.551 33.42 65.3083 33.9426 64.823C34.4746 64.3283 34.7406 63.717 34.7406 62.989V59.797C34.7406 59.069 34.4746 58.4623 33.9426 57.977C33.4013 57.4823 32.748 57.235 31.9826 57.235C31.2173 57.235 30.564 57.4823 30.0226 57.977C29.5 58.4716 29.2386 59.0783 29.2386 59.797Z" fill="white"/>
<path d="M7.13538 83.6745L5.00738 84.8505L4.61538 84.0525L7.42938 82.5125H8.03138V92.3125H7.13538V83.6745ZM16.0506 92.3125V90.2125H10.4646V89.3445L16.1206 82.5125H16.9466V89.3305H18.4446V90.2125H16.9466V92.3125H16.0506ZM16.0506 83.8845L11.5706 89.3305H16.0506V83.8845ZM19.9872 88.9945V85.8305C19.9872 84.8598 20.3325 84.0432 21.0232 83.3805C21.7325 82.7178 22.6005 82.3865 23.6272 82.3865C24.6725 82.3865 25.5405 82.7178 26.2312 83.3805C26.9312 84.0338 27.2812 84.8505 27.2812 85.8305V88.9945C27.2812 89.9745 26.9312 90.7958 26.2312 91.4585C25.5498 92.1118 24.6818 92.4385 23.6272 92.4385C22.5818 92.4385 21.7138 92.1118 21.0232 91.4585C20.3325 90.7958 19.9872 89.9745 19.9872 88.9945ZM20.8832 85.8165V89.0085C20.8832 89.7365 21.1445 90.3478 21.6672 90.8425C22.1898 91.3278 22.8432 91.5705 23.6272 91.5705C24.4112 91.5705 25.0645 91.3278 25.5872 90.8425C26.1192 90.3478 26.3852 89.7365 26.3852 89.0085V85.8165C26.3852 85.0885 26.1192 84.4818 25.5872 83.9965C25.0458 83.5018 24.3925 83.2545 23.6272 83.2545C22.8618 83.2545 22.2085 83.5018 21.6672 83.9965C21.1445 84.4912 20.8832 85.0978 20.8832 85.8165ZM29.1883 88.9945V85.8305C29.1883 84.8598 29.5337 84.0432 30.2243 83.3805C30.9337 82.7178 31.8017 82.3865 32.8283 82.3865C33.8737 82.3865 34.7417 82.7178 35.4323 83.3805C36.1323 84.0338 36.4823 84.8505 36.4823 85.8305V88.9945C36.4823 89.9745 36.1323 90.7958 35.4323 91.4585C34.751 92.1118 33.883 92.4385 32.8283 92.4385C31.783 92.4385 30.915 92.1118 30.2243 91.4585C29.5337 90.7958 29.1883 89.9745 29.1883 88.9945ZM30.0843 85.8165V89.0085C30.0843 89.7365 30.3457 90.3478 30.8683 90.8425C31.391 91.3278 32.0443 91.5705 32.8283 91.5705C33.6123 91.5705 34.2657 91.3278 34.7883 90.8425C35.3203 90.3478 35.5863 89.7365 35.5863 89.0085V85.8165C35.5863 85.0885 35.3203 84.4818 34.7883 83.9965C34.247 83.5018 33.5937 83.2545 32.8283 83.2545C32.063 83.2545 31.4097 83.5018 30.8683 83.9965C30.3457 84.4912 30.0843 85.0978 30.0843 85.8165Z" fill="white"/>
<path d="M9.13538 109.695L7.00738 110.871L6.61538 110.073L9.42938 108.533H10.0314V118.333H9.13538V109.695ZM15.0826 109.695L12.9546 110.871L12.5626 110.073L15.3766 108.533H15.9786V118.333H15.0826V109.695ZM18.7059 115.015V111.851C18.7059 110.88 19.0512 110.064 19.7419 109.401C20.4512 108.738 21.3192 108.407 22.3459 108.407C23.3912 108.407 24.2592 108.738 24.9499 109.401C25.6499 110.054 25.9999 110.871 25.9999 111.851V115.015C25.9999 115.995 25.6499 116.816 24.9499 117.479C24.2686 118.132 23.4006 118.459 22.3459 118.459C21.3006 118.459 20.4326 118.132 19.7419 117.479C19.0512 116.816 18.7059 115.995 18.7059 115.015ZM19.6019 111.837V115.029C19.6019 115.757 19.8632 116.368 20.3859 116.863C20.9086 117.348 21.5619 117.591 22.3459 117.591C23.1299 117.591 23.7832 117.348 24.3059 116.863C24.8379 116.368 25.1039 115.757 25.1039 115.029V111.837C25.1039 111.109 24.8379 110.502 24.3059 110.017C23.7646 109.522 23.1112 109.275 22.3459 109.275C21.5806 109.275 20.9272 109.522 20.3859 110.017C19.8632 110.512 19.6019 111.118 19.6019 111.837ZM27.9071 115.015V111.851C27.9071 110.88 28.2524 110.064 28.9431 109.401C29.6524 108.738 30.5204 108.407 31.5471 108.407C32.5924 108.407 33.4604 108.738 34.1511 109.401C34.8511 110.054 35.2011 110.871 35.2011 111.851V115.015C35.2011 115.995 34.8511 116.816 34.1511 117.479C33.4697 118.132 32.6017 118.459 31.5471 118.459C30.5017 118.459 29.6337 118.132 28.9431 117.479C28.2524 116.816 27.9071 115.995 27.9071 115.015ZM28.8031 111.837V115.029C28.8031 115.757 29.0644 116.368 29.5871 116.863C30.1097 117.348 30.7631 117.591 31.5471 117.591C32.3311 117.591 32.9844 117.348 33.5071 116.863C34.0391 116.368 34.3051 115.757 34.3051 115.029V111.837C34.3051 111.109 34.0391 110.502 33.5071 110.017C32.9657 109.522 32.3124 109.275 31.5471 109.275C30.7817 109.275 30.1284 109.522 29.5871 110.017C29.0644 110.512 28.8031 111.118 28.8031 111.837Z" fill="white"/>
<path d="M7.65738 141.708C7.65738 141.157 7.82071 140.662 8.14738 140.224C8.48338 139.785 8.94538 139.454 9.53338 139.23C9.04804 139.006 8.66071 138.698 8.37138 138.306C8.09138 137.904 7.95138 137.466 7.95138 136.99C7.95138 136.271 8.25471 135.664 8.86138 135.17C9.48671 134.675 10.252 134.428 11.1574 134.428C12.072 134.428 12.8327 134.675 13.4394 135.17C14.0554 135.655 14.3634 136.262 14.3634 136.99C14.3634 137.466 14.2187 137.904 13.9294 138.306C13.6494 138.698 13.2667 139.006 12.7814 139.23C13.3507 139.463 13.8034 139.804 14.1394 140.252C14.4754 140.69 14.6434 141.176 14.6434 141.708C14.6434 142.501 14.312 143.164 13.6494 143.696C12.9867 144.218 12.156 144.48 11.1574 144.48C10.1587 144.48 9.32338 144.214 8.65138 143.682C7.98871 143.15 7.65738 142.492 7.65738 141.708ZM13.7194 141.638C13.7194 141.078 13.4767 140.611 12.9914 140.238C12.4967 139.855 11.8854 139.664 11.1574 139.664C10.4294 139.664 9.81804 139.855 9.32338 140.238C8.83804 140.611 8.59538 141.078 8.59538 141.638C8.59538 142.207 8.83804 142.678 9.32338 143.052C9.80871 143.425 10.42 143.612 11.1574 143.612C11.8947 143.612 12.506 143.425 12.9914 143.052C13.4767 142.678 13.7194 142.207 13.7194 141.638ZM11.1574 135.296C10.5134 135.296 9.97204 135.464 9.53338 135.8C9.09471 136.136 8.87538 136.556 8.87538 137.06C8.87538 137.564 9.09471 137.984 9.53338 138.32C9.97204 138.656 10.5134 138.824 11.1574 138.824C11.8014 138.824 12.338 138.656 12.7674 138.32C13.206 137.984 13.4254 137.564 13.4254 137.06C13.4254 136.556 13.206 136.136 12.7674 135.8C12.338 135.464 11.8014 135.296 11.1574 135.296ZM16.411 141.036V137.872C16.411 136.901 16.7563 136.084 17.447 135.422C18.1563 134.759 19.0243 134.428 20.051 134.428C21.0963 134.428 21.9643 134.759 22.655 135.422C23.355 136.075 23.705 136.892 23.705 137.872V141.036C23.705 142.016 23.355 142.837 22.655 143.5C21.9737 144.153 21.1057 144.48 20.051 144.48C19.0057 144.48 18.1377 144.153 17.447 143.5C16.7563 142.837 16.411 142.016 16.411 141.036ZM17.307 137.858V141.05C17.307 141.778 17.5683 142.389 18.091 142.884C18.6137 143.369 19.267 143.612 20.051 143.612C20.835 143.612 21.4883 143.369 22.011 142.884C22.543 142.389 22.809 141.778 22.809 141.05V137.858C22.809 137.13 22.543 136.523 22.011 136.038C21.4697 135.543 20.8163 135.296 20.051 135.296C19.2857 135.296 18.6323 135.543 18.091 136.038C17.5683 136.532 17.307 137.139 17.307 137.858ZM25.6122 141.036V137.872C25.6122 136.901 25.9575 136.084 26.6482 135.422C27.3575 134.759 28.2255 134.428 29.2522 134.428C30.2975 134.428 31.1655 134.759 31.8562 135.422C32.5562 136.075 32.9062 136.892 32.9062 137.872V141.036C32.9062 142.016 32.5562 142.837 31.8562 143.5C31.1748 144.153 30.3068 144.48 29.2522 144.48C28.2068 144.48 27.3388 144.153 26.6482 143.5C25.9575 142.837 25.6122 142.016 25.6122 141.036ZM26.5082 137.858V141.05C26.5082 141.778 26.7695 142.389 27.2922 142.884C27.8148 143.369 28.4682 143.612 29.2522 143.612C30.0362 143.612 30.6895 143.369 31.2122 142.884C31.7442 142.389 32.0102 141.778 32.0102 141.05V137.858C32.0102 137.13 31.7442 136.523 31.2122 136.038C30.6708 135.543 30.0175 135.296 29.2522 135.296C28.4868 135.296 27.8335 135.543 27.2922 136.038C26.7695 136.532 26.5082 137.139 26.5082 137.858Z" fill="white"/>
<path d="M13.4674 165.081C14.1674 165.678 14.5174 166.43 14.5174 167.335C14.5174 168.24 14.172 168.996 13.4814 169.603C12.8 170.2 11.9507 170.499 10.9334 170.499C10.1774 170.499 9.50071 170.322 8.90338 169.967C8.30604 169.603 7.86738 169.113 7.58738 168.497L8.46938 168.217C8.69338 168.646 9.02471 168.992 9.46338 169.253C9.91138 169.505 10.4014 169.631 10.9334 169.631C11.6707 169.631 12.3007 169.412 12.8234 168.973C13.3367 168.544 13.5934 167.998 13.5934 167.335C13.5934 166.672 13.332 166.122 12.8094 165.683C12.296 165.235 11.6474 165.011 10.8634 165.011H8.30138L8.74938 160.573H13.7614V161.413H9.50538L9.22538 164.171H10.8914C11.918 164.171 12.7767 164.474 13.4674 165.081ZM16.2879 167.055V163.891C16.2879 162.92 16.6333 162.104 17.3239 161.441C18.0333 160.778 18.9013 160.447 19.9279 160.447C20.9733 160.447 21.8413 160.778 22.5319 161.441C23.2319 162.094 23.5819 162.911 23.5819 163.891V167.055C23.5819 168.035 23.2319 168.856 22.5319 169.519C21.8506 170.172 20.9826 170.499 19.9279 170.499C18.8826 170.499 18.0146 170.172 17.3239 169.519C16.6333 168.856 16.2879 168.035 16.2879 167.055ZM17.1839 163.877V167.069C17.1839 167.797 17.4453 168.408 17.9679 168.903C18.4906 169.388 19.1439 169.631 19.9279 169.631C20.7119 169.631 21.3653 169.388 21.8879 168.903C22.4199 168.408 22.6859 167.797 22.6859 167.069V163.877C22.6859 163.149 22.4199 162.542 21.8879 162.057C21.3466 161.562 20.6933 161.315 19.9279 161.315C19.1626 161.315 18.5093 161.562 17.9679 162.057C17.4453 162.552 17.1839 163.158 17.1839 163.877ZM25.4891 167.055V163.891C25.4891 162.92 25.8344 162.104 26.5251 161.441C27.2344 160.778 28.1024 160.447 29.1291 160.447C30.1744 160.447 31.0424 160.778 31.7331 161.441C32.4331 162.094 32.7831 162.911 32.7831 163.891V167.055C32.7831 168.035 32.4331 168.856 31.7331 169.519C31.0518 170.172 30.1838 170.499 29.1291 170.499C28.0838 170.499 27.2158 170.172 26.5251 169.519C25.8344 168.856 25.4891 168.035 25.4891 167.055ZM26.3851 163.877V167.069C26.3851 167.797 26.6464 168.408 27.1691 168.903C27.6918 169.388 28.3451 169.631 29.1291 169.631C29.9131 169.631 30.5664 169.388 31.0891 168.903C31.6211 168.408 31.8871 167.797 31.8871 167.069V163.877C31.8871 163.149 31.6211 162.542 31.0891 162.057C30.5478 161.562 29.8944 161.315 29.1291 161.315C28.3638 161.315 27.7104 161.562 27.1691 162.057C26.6464 162.552 26.3851 163.158 26.3851 163.877Z" fill="white"/>
<path d="M14.4995 189.127C14.4995 188.632 14.2755 188.207 13.8275 187.853C13.3889 187.507 12.8335 187.335 12.1615 187.335C11.6389 187.335 11.1675 187.451 10.7475 187.685C10.3369 187.909 10.0382 188.217 9.85155 188.609L9.03955 188.217C9.30088 187.675 9.70688 187.251 10.2575 186.943C10.8175 186.625 11.4522 186.467 12.1615 186.467C13.0855 186.467 13.8602 186.723 14.4855 187.237C15.1109 187.741 15.4235 188.366 15.4235 189.113C15.4235 189.589 15.2789 190.027 14.9895 190.429C14.7002 190.821 14.3035 191.124 13.7995 191.339C14.3689 191.563 14.8169 191.889 15.1435 192.319C15.4795 192.739 15.6475 193.215 15.6475 193.747C15.6475 194.54 15.3162 195.203 14.6535 195.735C13.9909 196.257 13.1649 196.519 12.1755 196.519C11.4195 196.519 10.7475 196.355 10.1595 196.029C9.57155 195.702 9.15155 195.263 8.89955 194.713L9.76755 194.377C9.94488 194.769 10.2482 195.081 10.6775 195.315C11.1069 195.539 11.6062 195.651 12.1755 195.651C12.8942 195.651 13.5009 195.469 13.9955 195.105C14.4809 194.731 14.7235 194.269 14.7235 193.719C14.7235 193.177 14.4855 192.725 14.0095 192.361C13.5429 191.997 12.9549 191.815 12.2455 191.815H11.5175V190.961H12.0635C12.7635 190.961 13.3422 190.788 13.7995 190.443C14.2662 190.088 14.4995 189.649 14.4995 189.127ZM17.409 193.075V189.911C17.409 188.94 17.7544 188.123 18.445 187.461C19.1544 186.798 20.0224 186.467 21.049 186.467C22.0944 186.467 22.9624 186.798 23.653 187.461C24.353 188.114 24.703 188.931 24.703 189.911V193.075C24.703 194.055 24.353 194.876 23.653 195.539C22.9717 196.192 22.1037 196.519 21.049 196.519C20.0037 196.519 19.1357 196.192 18.445 195.539C17.7544 194.876 17.409 194.055 17.409 193.075ZM18.305 189.897V193.089C18.305 193.817 18.5664 194.428 19.089 194.923C19.6117 195.408 20.265 195.651 21.049 195.651C21.833 195.651 22.4864 195.408 23.009 194.923C23.541 194.428 23.807 193.817 23.807 193.089V189.897C23.807 189.169 23.541 188.562 23.009 188.077C22.4677 187.582 21.8144 187.335 21.049 187.335C20.2837 187.335 19.6304 187.582 19.089 188.077C18.5664 188.571 18.305 189.178 18.305 189.897ZM26.6102 193.075V189.911C26.6102 188.94 26.9555 188.123 27.6462 187.461C28.3555 186.798 29.2235 186.467 30.2502 186.467C31.2955 186.467 32.1635 186.798 32.8542 187.461C33.5542 188.114 33.9042 188.931 33.9042 189.911V193.075C33.9042 194.055 33.5542 194.876 32.8542 195.539C32.1729 196.192 31.3049 196.519 30.2502 196.519C29.2049 196.519 28.3369 196.192 27.6462 195.539C26.9555 194.876 26.6102 194.055 26.6102 193.075ZM27.5062 189.897V193.089C27.5062 193.817 27.7675 194.428 28.2902 194.923C28.8129 195.408 29.4662 195.651 30.2502 195.651C31.0342 195.651 31.6875 195.408 32.2102 194.923C32.7422 194.428 33.0082 193.817 33.0082 193.089V189.897C33.0082 189.169 32.7422 188.562 32.2102 188.077C31.6689 187.582 31.0155 187.335 30.2502 187.335C29.4849 187.335 28.8315 187.582 28.2902 188.077C27.7675 188.571 27.5062 189.178 27.5062 189.897Z" fill="white"/>
<path d="M12.7858 211.727L10.6578 212.903L10.2658 212.105L13.0798 210.565H13.6818V220.365H12.7858V211.727ZM16.409 217.047V213.883C16.409 212.913 16.7544 212.096 17.445 211.433C18.1544 210.771 19.0224 210.439 20.049 210.439C21.0944 210.439 21.9624 210.771 22.653 211.433C23.353 212.087 23.703 212.903 23.703 213.883V217.047C23.703 218.027 23.353 218.849 22.653 219.511C21.9717 220.165 21.1037 220.491 20.049 220.491C19.0037 220.491 18.1357 220.165 17.445 219.511C16.7544 218.849 16.409 218.027 16.409 217.047ZM17.305 213.869V217.061C17.305 217.789 17.5664 218.401 18.089 218.895C18.6117 219.381 19.265 219.623 20.049 219.623C20.833 219.623 21.4864 219.381 22.009 218.895C22.541 218.401 22.807 217.789 22.807 217.061V213.869C22.807 213.141 22.541 212.535 22.009 212.049C21.4677 211.555 20.8144 211.307 20.049 211.307C19.2837 211.307 18.6304 211.555 18.089 212.049C17.5664 212.544 17.305 213.151 17.305 213.869ZM25.6102 217.047V213.883C25.6102 212.913 25.9555 212.096 26.6462 211.433C27.3555 210.771 28.2235 210.439 29.2502 210.439C30.2955 210.439 31.1635 210.771 31.8542 211.433C32.5542 212.087 32.9042 212.903 32.9042 213.883V217.047C32.9042 218.027 32.5542 218.849 31.8542 219.511C31.1729 220.165 30.3049 220.491 29.2502 220.491C28.2049 220.491 27.3369 220.165 26.6462 219.511C25.9555 218.849 25.6102 218.027 25.6102 217.047ZM26.5062 213.869V217.061C26.5062 217.789 26.7675 218.401 27.2902 218.895C27.8129 219.381 28.4662 219.623 29.2502 219.623C30.0342 219.623 30.6875 219.381 31.2102 218.895C31.7422 218.401 32.0082 217.789 32.0082 217.061V213.869C32.0082 213.141 31.7422 212.535 31.2102 212.049C30.6689 211.555 30.0155 211.307 29.2502 211.307C28.4849 211.307 27.8315 211.555 27.2902 212.049C26.7675 212.544 26.5062 213.151 26.5062 213.869Z" fill="white"/>
<path d="M17.6375 241.02V237.856C17.6375 236.885 17.9829 236.069 18.6735 235.406C19.3829 234.743 20.2509 234.412 21.2775 234.412C22.3229 234.412 23.1909 234.743 23.8815 235.406C24.5815 236.059 24.9315 236.876 24.9315 237.856V241.02C24.9315 242 24.5815 242.821 23.8815 243.484C23.2002 244.137 22.3322 244.464 21.2775 244.464C20.2322 244.464 19.3642 244.137 18.6735 243.484C17.9829 242.821 17.6375 242 17.6375 241.02ZM18.5335 237.842V241.034C18.5335 241.762 18.7949 242.373 19.3175 242.868C19.8402 243.353 20.4935 243.596 21.2775 243.596C22.0615 243.596 22.7149 243.353 23.2375 242.868C23.7695 242.373 24.0355 241.762 24.0355 241.034V237.842C24.0355 237.114 23.7695 236.507 23.2375 236.022C22.6962 235.527 22.0429 235.28 21.2775 235.28C20.5122 235.28 19.8589 235.527 19.3175 236.022C18.7949 236.517 18.5335 237.123 18.5335 237.842Z" fill="white"/>
<path d="M50.9473 236.3C59.6805 237.642 81.1342 239.521 97.0837 236.3C117.021 232.273 130.691 229.396 141.514 228.246C152.336 227.095 170.563 236.3 175.69 236.3C180.816 236.3 209.866 228.246 214.423 228.246C218.98 228.246 222.397 228.246 235.498 228.246C245.979 228.246 261.131 233.615 267.396 236.3C274.421 233.615 289.953 228.246 295.877 228.246C301.8 228.246 319.99 224.794 328.344 223.068C334.8 219.808 348.736 213.173 352.837 212.713C357.963 212.138 367.077 212.713 376.191 212.713C383.482 212.713 397.836 207.344 404.102 204.66C412.076 201.208 429.05 193.845 433.151 192.004C438.278 189.703 446.252 187.402 455.936 192.004C463.682 195.685 471.695 196.606 474.733 196.605C478.34 199.29 486.466 204.66 490.112 204.66C493.757 204.66 503.782 204.66 508.339 204.66C515.554 197.948 531.921 184.64 539.668 185.1C549.351 185.675 565.869 182.799 572.705 179.348C579.54 175.896 595.489 164.966 604.033 164.966C610.868 164.966 627.007 164.966 634.222 164.966C638.779 162.281 650.399 154.496 660.424 144.831C670.449 135.166 678.651 120.478 681.499 114.341C684.157 108.589 690.271 95.7022 693.461 90.1795C696.651 84.6569 703.144 74.839 705.992 70.6204C710.359 74.072 720.004 81.2054 723.65 82.1259C727.295 83.0463 732.004 87.8785 733.903 90.1795L757.826 74.6473C759.725 69.6616 764.548 58.4245 768.649 53.3621C773.775 47.0341 785.737 38.9802 790.294 38.4049C794.851 37.8296 808.521 36.1037 812.508 33.8026C815.698 31.9617 826.369 18.8455 831.305 12.5176C839.28 13.0929 856.026 14.8188 859.216 17.1199C862.406 19.421 875.355 44.5414 881.431 56.8139L900.228 78.6744C906.873 72.5382 921.645 59.5754 927.569 56.8139C933.492 54.0525 947.125 43.3906 953.201 38.4049L961.175 33.8026L989.656 53.3621L1020.41 38.4049L1033.52 26.8996L1063.13 45.3084H1085.35L1103.76 26.8996" stroke="white" stroke-width="2"/>
<path d="M32.2086 268.679V265.967C32.2086 265.135 32.5046 264.435 33.0966 263.867C33.7046 263.299 34.4486 263.015 35.3286 263.015C36.2246 263.015 36.9686 263.299 37.5606 263.867C38.1606 264.427 38.4606 265.127 38.4606 265.967V268.679C38.4606 269.519 38.1606 270.223 37.5606 270.791C36.9766 271.351 36.2326 271.631 35.3286 271.631C34.4326 271.631 33.6886 271.351 33.0966 270.791C32.5046 270.223 32.2086 269.519 32.2086 268.679ZM32.9766 265.955V268.691C32.9766 269.315 33.2006 269.839 33.6486 270.263C34.0966 270.679 34.6566 270.887 35.3286 270.887C36.0006 270.887 36.5606 270.679 37.0086 270.263C37.4646 269.839 37.6926 269.315 37.6926 268.691V265.955C37.6926 265.331 37.4646 264.811 37.0086 264.395C36.5446 263.971 35.9846 263.759 35.3286 263.759C34.6726 263.759 34.1126 263.971 33.6486 264.395C33.2006 264.819 32.9766 265.339 32.9766 265.955ZM40.0473 270.203L40.7553 269.843C40.9553 270.163 41.2353 270.419 41.5953 270.611C41.9553 270.795 42.3513 270.887 42.7833 270.887C43.4713 270.887 44.0353 270.679 44.4753 270.263C44.9313 269.839 45.1593 269.319 45.1593 268.703V267.407C44.9353 267.791 44.6233 268.095 44.2233 268.319C43.8313 268.535 43.3993 268.643 42.9273 268.643C42.0713 268.643 41.3593 268.375 40.7913 267.839C40.2153 267.303 39.9273 266.631 39.9273 265.823C39.9273 265.031 40.2113 264.363 40.7793 263.819C41.3473 263.283 42.0633 263.015 42.9273 263.015C43.7753 263.015 44.4873 263.279 45.0633 263.807C45.6393 264.327 45.9273 264.975 45.9273 265.751V268.691C45.9273 269.531 45.6233 270.231 45.0153 270.791C44.4233 271.351 43.6753 271.631 42.7713 271.631C42.1953 271.631 41.6633 271.503 41.1753 271.247C40.6953 270.991 40.3193 270.643 40.0473 270.203ZM44.4873 267.311C44.9113 266.911 45.1233 266.419 45.1233 265.835C45.1233 265.251 44.9113 264.759 44.4873 264.359C44.0633 263.959 43.5433 263.759 42.9273 263.759C42.2953 263.759 41.7713 263.955 41.3553 264.347C40.9313 264.747 40.7193 265.235 40.7193 265.811C40.7193 266.403 40.9313 266.899 41.3553 267.299C41.7793 267.699 42.3033 267.899 42.9273 267.899C43.5513 267.899 44.0713 267.703 44.4873 267.311ZM47.2635 271.031C47.2635 270.863 47.3195 270.723 47.4315 270.611C47.5515 270.499 47.6955 270.443 47.8635 270.443C48.0315 270.443 48.1715 270.499 48.2835 270.611C48.4035 270.723 48.4635 270.863 48.4635 271.031C48.4795 271.279 48.3835 271.451 48.1755 271.547C47.9675 271.651 47.7595 271.651 47.5515 271.547C47.3435 271.451 47.2475 271.279 47.2635 271.031ZM49.939 268.679V265.967C49.939 265.135 50.235 264.435 50.827 263.867C51.435 263.299 52.179 263.015 53.059 263.015C53.955 263.015 54.699 263.299 55.291 263.867C55.891 264.427 56.191 265.127 56.191 265.967V268.679C56.191 269.519 55.891 270.223 55.291 270.791C54.707 271.351 53.963 271.631 53.059 271.631C52.163 271.631 51.419 271.351 50.827 270.791C50.235 270.223 49.939 269.519 49.939 268.679ZM50.707 265.955V268.691C50.707 269.315 50.931 269.839 51.379 270.263C51.827 270.679 52.387 270.887 53.059 270.887C53.731 270.887 54.291 270.679 54.739 270.263C55.195 269.839 55.423 269.315 55.423 268.691V265.955C55.423 265.331 55.195 264.811 54.739 264.395C54.275 263.971 53.715 263.759 53.059 263.759C52.403 263.759 51.843 263.971 51.379 264.395C50.931 264.819 50.707 265.339 50.707 265.955ZM63.6218 264.419L62.9258 264.779C62.4858 264.099 61.8218 263.759 60.9338 263.759C60.2698 263.759 59.7138 263.971 59.2658 264.395C58.8178 264.819 58.5938 265.339 58.5938 265.955V267.287C58.8178 266.951 59.1298 266.687 59.5298 266.495C59.9298 266.295 60.3698 266.195 60.8498 266.195C61.6898 266.195 62.4018 266.455 62.9858 266.975C63.5618 267.495 63.8498 268.143 63.8498 268.919C63.8498 269.695 63.5618 270.339 62.9858 270.851C62.4018 271.371 61.6898 271.631 60.8498 271.631C60.0018 271.631 59.2818 271.371 58.6898 270.851C58.1138 270.323 57.8258 269.679 57.8258 268.919V265.967C57.8258 265.135 58.1218 264.435 58.7138 263.867C59.3218 263.299 60.0658 263.015 60.9458 263.015C61.5138 263.015 62.0338 263.139 62.5058 263.387C62.9778 263.635 63.3498 263.979 63.6218 264.419ZM60.8498 266.939C60.2178 266.939 59.6858 267.131 59.2538 267.515C58.8298 267.891 58.6178 268.355 58.6178 268.907C58.6178 269.467 58.8298 269.939 59.2538 270.323C59.6938 270.699 60.2258 270.887 60.8498 270.887C61.4738 270.887 61.9978 270.699 62.4218 270.323C62.8458 269.947 63.0578 269.483 63.0578 268.931C63.0578 268.371 62.8458 267.899 62.4218 267.515C61.9978 267.131 61.4738 266.939 60.8498 266.939ZM68.7136 268.751V268.055H71.7856V268.751H68.7136ZM78.8607 264.119L77.0367 265.127L76.7007 264.443L79.1127 263.123H79.6287V271.523H78.8607V264.119ZM86.5024 271.523V269.723H81.7144V268.979L86.5624 263.123H87.2704V268.967H88.5544V269.723H87.2704V271.523H86.5024ZM86.5024 264.299L82.6624 268.967H86.5024V264.299ZM89.7205 271.031C89.7205 270.863 89.7765 270.723 89.8885 270.611C90.0085 270.499 90.1525 270.443 90.3205 270.443C90.4885 270.443 90.6285 270.499 90.7405 270.611C90.8605 270.723 90.9205 270.863 90.9205 271.031C90.9365 271.279 90.8405 271.451 90.6325 271.547C90.4245 271.651 90.2165 271.651 90.0085 271.547C89.8005 271.451 89.7045 271.279 89.7205 271.031ZM92.3961 268.679V265.967C92.3961 265.135 92.6921 264.435 93.2841 263.867C93.8921 263.299 94.6361 263.015 95.5161 263.015C96.4121 263.015 97.1561 263.299 97.7481 263.867C98.3481 264.427 98.6481 265.127 98.6481 265.967V268.679C98.6481 269.519 98.3481 270.223 97.7481 270.791C97.1641 271.351 96.4201 271.631 95.5161 271.631C94.6201 271.631 93.8761 271.351 93.2841 270.791C92.6921 270.223 92.3961 269.519 92.3961 268.679ZM93.1641 265.955V268.691C93.1641 269.315 93.3881 269.839 93.8361 270.263C94.2841 270.679 94.8441 270.887 95.5161 270.887C96.1881 270.887 96.7481 270.679 97.1961 270.263C97.6521 269.839 97.8801 269.315 97.8801 268.691V265.955C97.8801 265.331 97.6521 264.811 97.1961 264.395C96.7321 263.971 96.1721 263.759 95.5161 263.759C94.8601 263.759 94.3001 263.971 93.8361 264.395C93.3881 264.819 93.1641 265.339 93.1641 265.955ZM106.079 264.419L105.383 264.779C104.943 264.099 104.279 263.759 103.391 263.759C102.727 263.759 102.171 263.971 101.723 264.395C101.275 264.819 101.051 265.339 101.051 265.955V267.287C101.275 266.951 101.587 266.687 101.987 266.495C102.387 266.295 102.827 266.195 103.307 266.195C104.147 266.195 104.859 266.455 105.443 266.975C106.019 267.495 106.307 268.143 106.307 268.919C106.307 269.695 106.019 270.339 105.443 270.851C104.859 271.371 104.147 271.631 103.307 271.631C102.459 271.631 101.739 271.371 101.147 270.851C100.571 270.323 100.283 269.679 100.283 268.919V265.967C100.283 265.135 100.579 264.435 101.171 263.867C101.779 263.299 102.523 263.015 103.403 263.015C103.971 263.015 104.491 263.139 104.963 263.387C105.435 263.635 105.807 263.979 106.079 264.419ZM103.307 266.939C102.675 266.939 102.143 267.131 101.711 267.515C101.287 267.891 101.075 268.355 101.075 268.907C101.075 269.467 101.287 269.939 101.711 270.323C102.151 270.699 102.683 270.887 103.307 270.887C103.931 270.887 104.455 270.699 104.879 270.323C105.303 269.947 105.515 269.483 105.515 268.931C105.515 268.371 105.303 267.899 104.879 267.515C104.455 267.131 103.931 266.939 103.307 266.939Z" fill="white"/>
<path d="M124.613 264.119L122.789 265.127L122.453 264.443L124.865 263.123H125.381V271.523H124.613V264.119ZM132.314 265.295C132.314 264.871 132.122 264.507 131.738 264.203C131.362 263.907 130.886 263.759 130.31 263.759C129.862 263.759 129.458 263.859 129.098 264.059C128.746 264.251 128.49 264.515 128.33 264.851L127.634 264.515C127.858 264.051 128.206 263.687 128.678 263.423C129.158 263.151 129.702 263.015 130.31 263.015C131.102 263.015 131.766 263.235 132.302 263.675C132.838 264.107 133.106 264.643 133.106 265.283C133.106 265.691 132.982 266.067 132.734 266.411C132.486 266.747 132.146 267.007 131.714 267.191C132.202 267.383 132.586 267.663 132.866 268.031C133.154 268.391 133.298 268.799 133.298 269.255C133.298 269.935 133.014 270.503 132.446 270.959C131.878 271.407 131.17 271.631 130.322 271.631C129.674 271.631 129.098 271.491 128.594 271.211C128.09 270.931 127.73 270.555 127.514 270.083L128.258 269.795C128.41 270.131 128.67 270.399 129.038 270.599C129.406 270.791 129.834 270.887 130.322 270.887C130.938 270.887 131.458 270.731 131.882 270.419C132.298 270.099 132.506 269.703 132.506 269.231C132.506 268.767 132.302 268.379 131.894 268.067C131.494 267.755 130.99 267.599 130.382 267.599H129.758V266.867H130.226C130.826 266.867 131.322 266.719 131.714 266.423C132.114 266.119 132.314 265.743 132.314 265.295ZM134.652 271.031C134.652 270.863 134.708 270.723 134.82 270.611C134.94 270.499 135.084 270.443 135.252 270.443C135.42 270.443 135.56 270.499 135.672 270.611C135.792 270.723 135.852 270.863 135.852 271.031C135.868 271.279 135.772 271.451 135.564 271.547C135.356 271.651 135.148 271.651 134.94 271.547C134.732 271.451 134.636 271.279 134.652 271.031ZM137.328 268.679V265.967C137.328 265.135 137.624 264.435 138.216 263.867C138.824 263.299 139.568 263.015 140.448 263.015C141.344 263.015 142.088 263.299 142.68 263.867C143.28 264.427 143.58 265.127 143.58 265.967V268.679C143.58 269.519 143.28 270.223 142.68 270.791C142.096 271.351 141.352 271.631 140.448 271.631C139.552 271.631 138.808 271.351 138.216 270.791C137.624 270.223 137.328 269.519 137.328 268.679ZM138.096 265.955V268.691C138.096 269.315 138.32 269.839 138.768 270.263C139.216 270.679 139.776 270.887 140.448 270.887C141.12 270.887 141.68 270.679 142.128 270.263C142.584 269.839 142.812 269.315 142.812 268.691V265.955C142.812 265.331 142.584 264.811 142.128 264.395C141.664 263.971 141.104 263.759 140.448 263.759C139.792 263.759 139.232 263.971 138.768 264.395C138.32 264.819 138.096 265.339 138.096 265.955ZM146.27 271.523L149.294 263.843H144.71V263.123H150.11V263.867L147.098 271.523H146.27ZM154.989 268.751V268.055H158.061V268.751H154.989ZM165.136 264.119L163.312 265.127L162.976 264.443L165.388 263.123H165.904V271.523H165.136V264.119ZM168.194 270.203L168.902 269.843C169.102 270.163 169.382 270.419 169.742 270.611C170.102 270.795 170.498 270.887 170.93 270.887C171.618 270.887 172.182 270.679 172.622 270.263C173.078 269.839 173.306 269.319 173.306 268.703V267.407C173.082 267.791 172.77 268.095 172.37 268.319C171.978 268.535 171.546 268.643 171.074 268.643C170.218 268.643 169.506 268.375 168.938 267.839C168.362 267.303 168.074 266.631 168.074 265.823C168.074 265.031 168.358 264.363 168.926 263.819C169.494 263.283 170.21 263.015 171.074 263.015C171.922 263.015 172.634 263.279 173.21 263.807C173.786 264.327 174.074 264.975 174.074 265.751V268.691C174.074 269.531 173.77 270.231 173.162 270.791C172.57 271.351 171.822 271.631 170.918 271.631C170.342 271.631 169.81 271.503 169.322 271.247C168.842 270.991 168.466 270.643 168.194 270.203ZM172.634 267.311C173.058 266.911 173.27 266.419 173.27 265.835C173.27 265.251 173.058 264.759 172.634 264.359C172.21 263.959 171.69 263.759 171.074 263.759C170.442 263.759 169.918 263.955 169.502 264.347C169.078 264.747 168.866 265.235 168.866 265.811C168.866 266.403 169.078 266.899 169.502 267.299C169.926 267.699 170.45 267.899 171.074 267.899C171.698 267.899 172.218 267.703 172.634 267.311ZM175.41 271.031C175.41 270.863 175.466 270.723 175.578 270.611C175.698 270.499 175.842 270.443 176.01 270.443C176.178 270.443 176.318 270.499 176.43 270.611C176.55 270.723 176.61 270.863 176.61 271.031C176.626 271.279 176.53 271.451 176.322 271.547C176.114 271.651 175.906 271.651 175.698 271.547C175.49 271.451 175.394 271.279 175.41 271.031ZM178.086 268.679V265.967C178.086 265.135 178.382 264.435 178.974 263.867C179.582 263.299 180.326 263.015 181.206 263.015C182.102 263.015 182.846 263.299 183.438 263.867C184.038 264.427 184.338 265.127 184.338 265.967V268.679C184.338 269.519 184.038 270.223 183.438 270.791C182.854 271.351 182.11 271.631 181.206 271.631C180.31 271.631 179.566 271.351 178.974 270.791C178.382 270.223 178.086 269.519 178.086 268.679ZM178.854 265.955V268.691C178.854 269.315 179.078 269.839 179.526 270.263C179.974 270.679 180.534 270.887 181.206 270.887C181.878 270.887 182.438 270.679 182.886 270.263C183.342 269.839 183.57 269.315 183.57 268.691V265.955C183.57 265.331 183.342 264.811 182.886 264.395C182.422 263.971 181.862 263.759 181.206 263.759C180.55 263.759 179.99 263.971 179.526 264.395C179.078 264.819 178.854 265.339 178.854 265.955ZM187.028 271.523L190.052 263.843H185.468V263.123H190.868V263.867L187.856 271.523H187.028Z" fill="white"/>
<path d="M222.912 264.119L221.088 265.127L220.752 264.443L223.164 263.123H223.68V271.523H222.912V264.119ZM227.073 271.523L230.097 263.843H225.513V263.123H230.913V263.867L227.901 271.523H227.073ZM232.189 271.031C232.189 270.863 232.245 270.723 232.357 270.611C232.477 270.499 232.621 270.443 232.789 270.443C232.957 270.443 233.097 270.499 233.209 270.611C233.329 270.723 233.389 270.863 233.389 271.031C233.405 271.279 233.309 271.451 233.101 271.547C232.893 271.651 232.685 271.651 232.477 271.547C232.269 271.451 232.173 271.279 232.189 271.031ZM234.865 268.679V265.967C234.865 265.135 235.161 264.435 235.753 263.867C236.361 263.299 237.105 263.015 237.985 263.015C238.881 263.015 239.625 263.299 240.217 263.867C240.817 264.427 241.117 265.127 241.117 265.967V268.679C241.117 269.519 240.817 270.223 240.217 270.791C239.633 271.351 238.889 271.631 237.985 271.631C237.089 271.631 236.345 271.351 235.753 270.791C235.161 270.223 234.865 269.519 234.865 268.679ZM235.633 265.955V268.691C235.633 269.315 235.857 269.839 236.305 270.263C236.753 270.679 237.313 270.887 237.985 270.887C238.657 270.887 239.217 270.679 239.665 270.263C240.121 269.839 240.349 269.315 240.349 268.691V265.955C240.349 265.331 240.121 264.811 239.665 264.395C239.201 263.971 238.641 263.759 237.985 263.759C237.329 263.759 236.769 263.971 236.305 264.395C235.857 264.819 235.633 265.339 235.633 265.955ZM242.62 269.255C242.62 268.783 242.76 268.359 243.04 267.983C243.328 267.607 243.724 267.323 244.228 267.131C243.812 266.939 243.48 266.675 243.232 266.339C242.992 265.995 242.872 265.619 242.872 265.211C242.872 264.595 243.132 264.075 243.652 263.651C244.188 263.227 244.844 263.015 245.62 263.015C246.404 263.015 247.056 263.227 247.576 263.651C248.104 264.067 248.368 264.587 248.368 265.211C248.368 265.619 248.244 265.995 247.996 266.339C247.756 266.675 247.428 266.939 247.012 267.131C247.5 267.331 247.888 267.623 248.176 268.007C248.464 268.383 248.608 268.799 248.608 269.255C248.608 269.935 248.324 270.503 247.756 270.959C247.188 271.407 246.476 271.631 245.62 271.631C244.764 271.631 244.048 271.403 243.472 270.947C242.904 270.491 242.62 269.927 242.62 269.255ZM247.816 269.195C247.816 268.715 247.608 268.315 247.192 267.995C246.768 267.667 246.244 267.503 245.62 267.503C244.996 267.503 244.472 267.667 244.048 267.995C243.632 268.315 243.424 268.715 243.424 269.195C243.424 269.683 243.632 270.087 244.048 270.407C244.464 270.727 244.988 270.887 245.62 270.887C246.252 270.887 246.776 270.727 247.192 270.407C247.608 270.087 247.816 269.683 247.816 269.195ZM245.62 263.759C245.068 263.759 244.604 263.903 244.228 264.191C243.852 264.479 243.664 264.839 243.664 265.271C243.664 265.703 243.852 266.063 244.228 266.351C244.604 266.639 245.068 266.783 245.62 266.783C246.172 266.783 246.632 266.639 247 266.351C247.376 266.063 247.564 265.703 247.564 265.271C247.564 264.839 247.376 264.479 247 264.191C246.632 263.903 246.172 263.759 245.62 263.759ZM253.569 268.751V268.055H256.641V268.751H253.569ZM266.272 265.511C266.272 265.031 266.076 264.619 265.684 264.275C265.308 263.931 264.84 263.759 264.28 263.759C263.824 263.759 263.408 263.895 263.032 264.167C262.664 264.431 262.388 264.795 262.204 265.259L261.496 264.923C261.736 264.339 262.104 263.875 262.6 263.531C263.096 263.187 263.656 263.015 264.28 263.015C265.056 263.015 265.712 263.259 266.248 263.747C266.792 264.227 267.064 264.811 267.064 265.499C267.064 265.979 266.92 266.427 266.632 266.843C266.368 267.243 265.936 267.731 265.336 268.307L262.756 270.779H267.208V271.523H261.544V270.971L264.784 267.815L265.36 267.251C265.504 267.099 265.648 266.927 265.792 266.735C266.112 266.335 266.272 265.927 266.272 265.511ZM273.328 265.295C273.328 264.871 273.136 264.507 272.752 264.203C272.376 263.907 271.9 263.759 271.324 263.759C270.876 263.759 270.472 263.859 270.112 264.059C269.76 264.251 269.504 264.515 269.344 264.851L268.648 264.515C268.872 264.051 269.22 263.687 269.692 263.423C270.172 263.151 270.716 263.015 271.324 263.015C272.116 263.015 272.78 263.235 273.316 263.675C273.852 264.107 274.12 264.643 274.12 265.283C274.12 265.691 273.996 266.067 273.748 266.411C273.5 266.747 273.16 267.007 272.728 267.191C273.216 267.383 273.6 267.663 273.88 268.031C274.168 268.391 274.312 268.799 274.312 269.255C274.312 269.935 274.028 270.503 273.46 270.959C272.892 271.407 272.184 271.631 271.336 271.631C270.688 271.631 270.112 271.491 269.608 271.211C269.104 270.931 268.744 270.555 268.528 270.083L269.272 269.795C269.424 270.131 269.684 270.399 270.052 270.599C270.42 270.791 270.848 270.887 271.336 270.887C271.952 270.887 272.472 270.731 272.896 270.419C273.312 270.099 273.52 269.703 273.52 269.231C273.52 268.767 273.316 268.379 272.908 268.067C272.508 267.755 272.004 267.599 271.396 267.599H270.772V266.867H271.24C271.84 266.867 272.336 266.719 272.728 266.423C273.128 266.119 273.328 265.743 273.328 265.295ZM275.666 271.031C275.666 270.863 275.722 270.723 275.834 270.611C275.954 270.499 276.098 270.443 276.266 270.443C276.434 270.443 276.574 270.499 276.686 270.611C276.806 270.723 276.866 270.863 276.866 271.031C276.882 271.279 276.786 271.451 276.578 271.547C276.37 271.651 276.162 271.651 275.954 271.547C275.746 271.451 275.65 271.279 275.666 271.031ZM278.341 268.679V265.967C278.341 265.135 278.637 264.435 279.229 263.867C279.837 263.299 280.581 263.015 281.461 263.015C282.357 263.015 283.101 263.299 283.693 263.867C284.293 264.427 284.593 265.127 284.593 265.967V268.679C284.593 269.519 284.293 270.223 283.693 270.791C283.109 271.351 282.365 271.631 281.461 271.631C280.565 271.631 279.821 271.351 279.229 270.791C278.637 270.223 278.341 269.519 278.341 268.679ZM279.109 265.955V268.691C279.109 269.315 279.333 269.839 279.781 270.263C280.229 270.679 280.789 270.887 281.461 270.887C282.133 270.887 282.693 270.679 283.141 270.263C283.597 269.839 283.825 269.315 283.825 268.691V265.955C283.825 265.331 283.597 264.811 283.141 264.395C282.677 263.971 282.117 263.759 281.461 263.759C280.805 263.759 280.245 263.971 279.781 264.395C279.333 264.819 279.109 265.339 279.109 265.955ZM286.096 269.255C286.096 268.783 286.236 268.359 286.516 267.983C286.804 267.607 287.2 267.323 287.704 267.131C287.288 266.939 286.956 266.675 286.708 266.339C286.468 265.995 286.348 265.619 286.348 265.211C286.348 264.595 286.608 264.075 287.128 263.651C287.664 263.227 288.32 263.015 289.096 263.015C289.88 263.015 290.532 263.227 291.052 263.651C291.58 264.067 291.844 264.587 291.844 265.211C291.844 265.619 291.72 265.995 291.472 266.339C291.232 266.675 290.904 266.939 290.488 267.131C290.976 267.331 291.364 267.623 291.652 268.007C291.94 268.383 292.084 268.799 292.084 269.255C292.084 269.935 291.8 270.503 291.232 270.959C290.664 271.407 289.952 271.631 289.096 271.631C288.24 271.631 287.524 271.403 286.948 270.947C286.38 270.491 286.096 269.927 286.096 269.255ZM291.292 269.195C291.292 268.715 291.084 268.315 290.668 267.995C290.244 267.667 289.72 267.503 289.096 267.503C288.472 267.503 287.948 267.667 287.524 267.995C287.108 268.315 286.9 268.715 286.9 269.195C286.9 269.683 287.108 270.087 287.524 270.407C287.94 270.727 288.464 270.887 289.096 270.887C289.728 270.887 290.252 270.727 290.668 270.407C291.084 270.087 291.292 269.683 291.292 269.195ZM289.096 263.759C288.544 263.759 288.08 263.903 287.704 264.191C287.328 264.479 287.14 264.839 287.14 265.271C287.14 265.703 287.328 266.063 287.704 266.351C288.08 266.639 288.544 266.783 289.096 266.783C289.648 266.783 290.108 266.639 290.476 266.351C290.852 266.063 291.04 265.703 291.04 265.271C291.04 264.839 290.852 264.479 290.476 264.191C290.108 263.903 289.648 263.759 289.096 263.759Z" fill="white"/>
<path d="M326.766 265.511C326.766 265.031 326.57 264.619 326.178 264.275C325.802 263.931 325.334 263.759 324.774 263.759C324.318 263.759 323.902 263.895 323.526 264.167C323.158 264.431 322.882 264.795 322.698 265.259L321.99 264.923C322.23 264.339 322.598 263.875 323.094 263.531C323.59 263.187 324.15 263.015 324.774 263.015C325.55 263.015 326.206 263.259 326.742 263.747C327.286 264.227 327.558 264.811 327.558 265.499C327.558 265.979 327.414 266.427 327.126 266.843C326.862 267.243 326.43 267.731 325.83 268.307L323.25 270.779H327.702V271.523H322.038V270.971L325.278 267.815L325.854 267.251C325.998 267.099 326.142 266.927 326.286 266.735C326.606 266.335 326.766 265.927 326.766 265.511ZM331.218 264.119L329.394 265.127L329.058 264.443L331.47 263.123H331.986V271.523H331.218V264.119ZM334.168 271.031C334.168 270.863 334.224 270.723 334.336 270.611C334.456 270.499 334.6 270.443 334.768 270.443C334.936 270.443 335.076 270.499 335.188 270.611C335.308 270.723 335.368 270.863 335.368 271.031C335.384 271.279 335.288 271.451 335.08 271.547C334.872 271.651 334.664 271.651 334.456 271.547C334.248 271.451 334.152 271.279 334.168 271.031ZM336.843 268.679V265.967C336.843 265.135 337.139 264.435 337.731 263.867C338.339 263.299 339.083 263.015 339.963 263.015C340.859 263.015 341.603 263.299 342.195 263.867C342.795 264.427 343.095 265.127 343.095 265.967V268.679C343.095 269.519 342.795 270.223 342.195 270.791C341.611 271.351 340.867 271.631 339.963 271.631C339.067 271.631 338.323 271.351 337.731 270.791C337.139 270.223 336.843 269.519 336.843 268.679ZM337.611 265.955V268.691C337.611 269.315 337.835 269.839 338.283 270.263C338.731 270.679 339.291 270.887 339.963 270.887C340.635 270.887 341.195 270.679 341.643 270.263C342.099 269.839 342.327 269.315 342.327 268.691V265.955C342.327 265.331 342.099 264.811 341.643 264.395C341.179 263.971 340.619 263.759 339.963 263.759C339.307 263.759 338.747 263.971 338.283 264.395C337.835 264.819 337.611 265.339 337.611 265.955ZM344.682 270.203L345.39 269.843C345.59 270.163 345.87 270.419 346.23 270.611C346.59 270.795 346.986 270.887 347.418 270.887C348.106 270.887 348.67 270.679 349.11 270.263C349.566 269.839 349.794 269.319 349.794 268.703V267.407C349.57 267.791 349.258 268.095 348.858 268.319C348.466 268.535 348.034 268.643 347.562 268.643C346.706 268.643 345.994 268.375 345.426 267.839C344.85 267.303 344.562 266.631 344.562 265.823C344.562 265.031 344.846 264.363 345.414 263.819C345.982 263.283 346.698 263.015 347.562 263.015C348.41 263.015 349.122 263.279 349.698 263.807C350.274 264.327 350.562 264.975 350.562 265.751V268.691C350.562 269.531 350.258 270.231 349.65 270.791C349.058 271.351 348.31 271.631 347.406 271.631C346.83 271.631 346.298 271.503 345.81 271.247C345.33 270.991 344.954 270.643 344.682 270.203ZM349.122 267.311C349.546 266.911 349.758 266.419 349.758 265.835C349.758 265.251 349.546 264.759 349.122 264.359C348.698 263.959 348.178 263.759 347.562 263.759C346.93 263.759 346.406 263.955 345.99 264.347C345.566 264.747 345.354 265.235 345.354 265.811C345.354 266.403 345.566 266.899 345.99 267.299C346.414 267.699 346.938 267.899 347.562 267.899C348.186 267.899 348.706 267.703 349.122 267.311ZM355.501 268.751V268.055H358.573V268.751H355.501ZM368.204 265.511C368.204 265.031 368.008 264.619 367.616 264.275C367.24 263.931 366.772 263.759 366.212 263.759C365.756 263.759 365.34 263.895 364.964 264.167C364.596 264.431 364.32 264.795 364.136 265.259L363.428 264.923C363.668 264.339 364.036 263.875 364.532 263.531C365.028 263.187 365.588 263.015 366.212 263.015C366.988 263.015 367.644 263.259 368.18 263.747C368.724 264.227 368.996 264.811 368.996 265.499C368.996 265.979 368.852 266.427 368.564 266.843C368.3 267.243 367.868 267.731 367.268 268.307L364.688 270.779H369.14V271.523H363.476V270.971L366.716 267.815L367.292 267.251C367.436 267.099 367.58 266.927 367.724 266.735C368.044 266.335 368.204 265.927 368.204 265.511ZM371.72 271.523L374.744 263.843H370.16V263.123H375.56V263.867L372.548 271.523H371.72ZM376.836 271.031C376.836 270.863 376.892 270.723 377.004 270.611C377.124 270.499 377.268 270.443 377.436 270.443C377.604 270.443 377.744 270.499 377.856 270.611C377.976 270.723 378.036 270.863 378.036 271.031C378.052 271.279 377.956 271.451 377.748 271.547C377.54 271.651 377.332 271.651 377.124 271.547C376.916 271.451 376.82 271.279 376.836 271.031ZM379.511 268.679V265.967C379.511 265.135 379.807 264.435 380.399 263.867C381.007 263.299 381.751 263.015 382.631 263.015C383.527 263.015 384.271 263.299 384.863 263.867C385.463 264.427 385.763 265.127 385.763 265.967V268.679C385.763 269.519 385.463 270.223 384.863 270.791C384.279 271.351 383.535 271.631 382.631 271.631C381.735 271.631 380.991 271.351 380.399 270.791C379.807 270.223 379.511 269.519 379.511 268.679ZM380.279 265.955V268.691C380.279 269.315 380.503 269.839 380.951 270.263C381.399 270.679 381.959 270.887 382.631 270.887C383.303 270.887 383.863 270.679 384.311 270.263C384.767 269.839 384.995 269.315 384.995 268.691V265.955C384.995 265.331 384.767 264.811 384.311 264.395C383.847 263.971 383.287 263.759 382.631 263.759C381.975 263.759 381.415 263.971 380.951 264.395C380.503 264.819 380.279 265.339 380.279 265.955ZM387.35 270.203L388.058 269.843C388.258 270.163 388.538 270.419 388.898 270.611C389.258 270.795 389.654 270.887 390.086 270.887C390.774 270.887 391.338 270.679 391.778 270.263C392.234 269.839 392.462 269.319 392.462 268.703V267.407C392.238 267.791 391.926 268.095 391.526 268.319C391.134 268.535 390.702 268.643 390.23 268.643C389.374 268.643 388.662 268.375 388.094 267.839C387.518 267.303 387.23 266.631 387.23 265.823C387.23 265.031 387.514 264.363 388.082 263.819C388.65 263.283 389.366 263.015 390.23 263.015C391.078 263.015 391.79 263.279 392.366 263.807C392.942 264.327 393.23 264.975 393.23 265.751V268.691C393.23 269.531 392.926 270.231 392.318 270.791C391.726 271.351 390.978 271.631 390.074 271.631C389.498 271.631 388.966 271.503 388.478 271.247C387.998 270.991 387.622 270.643 387.35 270.203ZM391.79 267.311C392.214 266.911 392.426 266.419 392.426 265.835C392.426 265.251 392.214 264.759 391.79 264.359C391.366 263.959 390.846 263.759 390.23 263.759C389.598 263.759 389.074 263.955 388.658 264.347C388.234 264.747 388.022 265.235 388.022 265.811C388.022 266.403 388.234 266.899 388.658 267.299C389.082 267.699 389.606 267.899 390.23 267.899C390.854 267.899 391.374 267.703 391.79 267.311Z" fill="white"/>
<path d="M434.396 265.511C434.396 265.031 434.2 264.619 433.808 264.275C433.432 263.931 432.964 263.759 432.404 263.759C431.948 263.759 431.532 263.895 431.156 264.167C430.788 264.431 430.512 264.795 430.328 265.259L429.62 264.923C429.86 264.339 430.228 263.875 430.724 263.531C431.22 263.187 431.78 263.015 432.404 263.015C433.18 263.015 433.836 263.259 434.372 263.747C434.916 264.227 435.188 264.811 435.188 265.499C435.188 265.979 435.044 266.427 434.756 266.843C434.492 267.243 434.06 267.731 433.46 268.307L430.88 270.779H435.332V271.523H429.668V270.971L432.908 267.815L433.484 267.251C433.628 267.099 433.772 266.927 433.916 266.735C434.236 266.335 434.396 265.927 434.396 265.511ZM442.652 264.419L441.956 264.779C441.516 264.099 440.852 263.759 439.964 263.759C439.3 263.759 438.744 263.971 438.296 264.395C437.848 264.819 437.624 265.339 437.624 265.955V267.287C437.848 266.951 438.16 266.687 438.56 266.495C438.96 266.295 439.4 266.195 439.88 266.195C440.72 266.195 441.432 266.455 442.016 266.975C442.592 267.495 442.88 268.143 442.88 268.919C442.88 269.695 442.592 270.339 442.016 270.851C441.432 271.371 440.72 271.631 439.88 271.631C439.032 271.631 438.312 271.371 437.72 270.851C437.144 270.323 436.856 269.679 436.856 268.919V265.967C436.856 265.135 437.152 264.435 437.744 263.867C438.352 263.299 439.096 263.015 439.976 263.015C440.544 263.015 441.064 263.139 441.536 263.387C442.008 263.635 442.38 263.979 442.652 264.419ZM439.88 266.939C439.248 266.939 438.716 267.131 438.284 267.515C437.86 267.891 437.648 268.355 437.648 268.907C437.648 269.467 437.86 269.939 438.284 270.323C438.724 270.699 439.256 270.887 439.88 270.887C440.504 270.887 441.028 270.699 441.452 270.323C441.876 269.947 442.088 269.483 442.088 268.931C442.088 268.371 441.876 267.899 441.452 267.515C441.028 267.131 440.504 266.939 439.88 266.939ZM444.141 271.031C444.141 270.863 444.197 270.723 444.309 270.611C444.429 270.499 444.573 270.443 444.741 270.443C444.909 270.443 445.049 270.499 445.161 270.611C445.281 270.723 445.341 270.863 445.341 271.031C445.357 271.279 445.261 271.451 445.053 271.547C444.845 271.651 444.637 271.651 444.429 271.547C444.221 271.451 444.125 271.279 444.141 271.031ZM448.809 264.119L446.985 265.127L446.649 264.443L449.061 263.123H449.577V271.523H448.809V264.119ZM451.915 268.679V265.967C451.915 265.135 452.211 264.435 452.803 263.867C453.411 263.299 454.155 263.015 455.035 263.015C455.931 263.015 456.675 263.299 457.267 263.867C457.867 264.427 458.167 265.127 458.167 265.967V268.679C458.167 269.519 457.867 270.223 457.267 270.791C456.683 271.351 455.939 271.631 455.035 271.631C454.139 271.631 453.395 271.351 452.803 270.791C452.211 270.223 451.915 269.519 451.915 268.679ZM452.683 265.955V268.691C452.683 269.315 452.907 269.839 453.355 270.263C453.803 270.679 454.363 270.887 455.035 270.887C455.707 270.887 456.267 270.679 456.715 270.263C457.171 269.839 457.399 269.315 457.399 268.691V265.955C457.399 265.331 457.171 264.811 456.715 264.395C456.251 263.971 455.691 263.759 455.035 263.759C454.379 263.759 453.819 263.971 453.355 264.395C452.907 264.819 452.683 265.339 452.683 265.955ZM463.248 268.751V268.055H466.32V268.751H463.248ZM471.403 268.679V265.967C471.403 265.135 471.699 264.435 472.291 263.867C472.899 263.299 473.643 263.015 474.523 263.015C475.419 263.015 476.163 263.299 476.755 263.867C477.355 264.427 477.655 265.127 477.655 265.967V268.679C477.655 269.519 477.355 270.223 476.755 270.791C476.171 271.351 475.427 271.631 474.523 271.631C473.627 271.631 472.883 271.351 472.291 270.791C471.699 270.223 471.403 269.519 471.403 268.679ZM472.171 265.955V268.691C472.171 269.315 472.395 269.839 472.843 270.263C473.291 270.679 473.851 270.887 474.523 270.887C475.195 270.887 475.755 270.679 476.203 270.263C476.659 269.839 476.887 269.315 476.887 268.691V265.955C476.887 265.331 476.659 264.811 476.203 264.395C475.739 263.971 475.179 263.759 474.523 263.759C473.867 263.759 473.307 263.971 472.843 264.395C472.395 264.819 472.171 265.339 472.171 265.955ZM481.282 264.119L479.458 265.127L479.122 264.443L481.534 263.123H482.05V271.523H481.282V264.119ZM484.231 271.031C484.231 270.863 484.287 270.723 484.399 270.611C484.519 270.499 484.663 270.443 484.831 270.443C484.999 270.443 485.139 270.499 485.251 270.611C485.371 270.723 485.431 270.863 485.431 271.031C485.447 271.279 485.351 271.451 485.143 271.547C484.935 271.651 484.727 271.651 484.519 271.547C484.311 271.451 484.215 271.279 484.231 271.031ZM488.899 264.119L487.075 265.127L486.739 264.443L489.151 263.123H489.667V271.523H488.899V264.119ZM493.996 264.119L492.172 265.127L491.836 264.443L494.248 263.123H494.764V271.523H493.996V264.119Z" fill="white"/>
<path d="M537.076 265.295C537.076 264.871 536.884 264.507 536.5 264.203C536.124 263.907 535.648 263.759 535.072 263.759C534.624 263.759 534.22 263.859 533.86 264.059C533.508 264.251 533.252 264.515 533.092 264.851L532.396 264.515C532.62 264.051 532.968 263.687 533.44 263.423C533.92 263.151 534.464 263.015 535.072 263.015C535.864 263.015 536.528 263.235 537.064 263.675C537.6 264.107 537.868 264.643 537.868 265.283C537.868 265.691 537.744 266.067 537.496 266.411C537.248 266.747 536.908 267.007 536.476 267.191C536.964 267.383 537.348 267.663 537.628 268.031C537.916 268.391 538.06 268.799 538.06 269.255C538.06 269.935 537.776 270.503 537.208 270.959C536.64 271.407 535.932 271.631 535.084 271.631C534.436 271.631 533.86 271.491 533.356 271.211C532.852 270.931 532.492 270.555 532.276 270.083L533.02 269.795C533.172 270.131 533.432 270.399 533.8 270.599C534.168 270.791 534.596 270.887 535.084 270.887C535.7 270.887 536.22 270.731 536.644 270.419C537.06 270.099 537.268 269.703 537.268 269.231C537.268 268.767 537.064 268.379 536.656 268.067C536.256 267.755 535.752 267.599 535.144 267.599H534.52V266.867H534.988C535.588 266.867 536.084 266.719 536.476 266.423C536.876 266.119 537.076 265.743 537.076 265.295ZM539.57 268.679V265.967C539.57 265.135 539.866 264.435 540.458 263.867C541.066 263.299 541.81 263.015 542.69 263.015C543.586 263.015 544.33 263.299 544.922 263.867C545.522 264.427 545.822 265.127 545.822 265.967V268.679C545.822 269.519 545.522 270.223 544.922 270.791C544.338 271.351 543.594 271.631 542.69 271.631C541.794 271.631 541.05 271.351 540.458 270.791C539.866 270.223 539.57 269.519 539.57 268.679ZM540.338 265.955V268.691C540.338 269.315 540.562 269.839 541.01 270.263C541.458 270.679 542.018 270.887 542.69 270.887C543.362 270.887 543.922 270.679 544.37 270.263C544.826 269.839 545.054 269.315 545.054 268.691V265.955C545.054 265.331 544.826 264.811 544.37 264.395C543.906 263.971 543.346 263.759 542.69 263.759C542.034 263.759 541.474 263.971 541.01 264.395C540.562 264.819 540.338 265.339 540.338 265.955ZM547.301 271.031C547.301 270.863 547.357 270.723 547.469 270.611C547.589 270.499 547.733 270.443 547.901 270.443C548.069 270.443 548.209 270.499 548.321 270.611C548.441 270.723 548.501 270.863 548.501 271.031C548.517 271.279 548.421 271.451 548.213 271.547C548.005 271.651 547.797 271.651 547.589 271.547C547.381 271.451 547.285 271.279 547.301 271.031ZM551.968 264.119L550.144 265.127L549.808 264.443L552.22 263.123H552.736V271.523H551.968V264.119ZM557.066 264.119L555.242 265.127L554.906 264.443L557.318 263.123H557.834V271.523H557.066V264.119ZM563.618 268.751V268.055H566.69V268.751H563.618ZM571.773 268.679V265.967C571.773 265.135 572.069 264.435 572.661 263.867C573.269 263.299 574.013 263.015 574.893 263.015C575.789 263.015 576.533 263.299 577.125 263.867C577.725 264.427 578.025 265.127 578.025 265.967V268.679C578.025 269.519 577.725 270.223 577.125 270.791C576.541 271.351 575.797 271.631 574.893 271.631C573.997 271.631 573.253 271.351 572.661 270.791C572.069 270.223 571.773 269.519 571.773 268.679ZM572.541 265.955V268.691C572.541 269.315 572.765 269.839 573.213 270.263C573.661 270.679 574.221 270.887 574.893 270.887C575.565 270.887 576.125 270.679 576.573 270.263C577.029 269.839 577.257 269.315 577.257 268.691V265.955C577.257 265.331 577.029 264.811 576.573 264.395C576.109 263.971 575.549 263.759 574.893 263.759C574.237 263.759 573.677 263.971 573.213 264.395C572.765 264.819 572.541 265.339 572.541 265.955ZM585.456 264.419L584.76 264.779C584.32 264.099 583.656 263.759 582.768 263.759C582.104 263.759 581.548 263.971 581.1 264.395C580.652 264.819 580.428 265.339 580.428 265.955V267.287C580.652 266.951 580.964 266.687 581.364 266.495C581.764 266.295 582.204 266.195 582.684 266.195C583.524 266.195 584.236 266.455 584.82 266.975C585.396 267.495 585.684 268.143 585.684 268.919C585.684 269.695 585.396 270.339 584.82 270.851C584.236 271.371 583.524 271.631 582.684 271.631C581.836 271.631 581.116 271.371 580.524 270.851C579.948 270.323 579.66 269.679 579.66 268.919V265.967C579.66 265.135 579.956 264.435 580.548 263.867C581.156 263.299 581.9 263.015 582.78 263.015C583.348 263.015 583.868 263.139 584.34 263.387C584.812 263.635 585.184 263.979 585.456 264.419ZM582.684 266.939C582.052 266.939 581.52 267.131 581.088 267.515C580.664 267.891 580.452 268.355 580.452 268.907C580.452 269.467 580.664 269.939 581.088 270.323C581.528 270.699 582.06 270.887 582.684 270.887C583.308 270.887 583.832 270.699 584.256 270.323C584.68 269.947 584.892 269.483 584.892 268.931C584.892 268.371 584.68 267.899 584.256 267.515C583.832 267.131 583.308 266.939 582.684 266.939ZM586.945 271.031C586.945 270.863 587.001 270.723 587.113 270.611C587.233 270.499 587.377 270.443 587.545 270.443C587.713 270.443 587.853 270.499 587.965 270.611C588.085 270.723 588.145 270.863 588.145 271.031C588.161 271.279 588.065 271.451 587.857 271.547C587.649 271.651 587.441 271.651 587.233 271.547C587.025 271.451 586.929 271.279 586.945 271.031ZM591.613 264.119L589.789 265.127L589.453 264.443L591.865 263.123H592.381V271.523H591.613V264.119ZM599.266 265.511C599.266 265.031 599.07 264.619 598.678 264.275C598.302 263.931 597.834 263.759 597.274 263.759C596.818 263.759 596.402 263.895 596.026 264.167C595.658 264.431 595.382 264.795 595.198 265.259L594.49 264.923C594.73 264.339 595.098 263.875 595.594 263.531C596.09 263.187 596.65 263.015 597.274 263.015C598.05 263.015 598.706 263.259 599.242 263.747C599.786 264.227 600.058 264.811 600.058 265.499C600.058 265.979 599.914 266.427 599.626 266.843C599.362 267.243 598.93 267.731 598.33 268.307L595.75 270.779H600.202V271.523H594.538V270.971L597.778 267.815L598.354 267.251C598.498 267.099 598.642 266.927 598.786 266.735C599.106 266.335 599.266 265.927 599.266 265.511Z" fill="white"/>
<path d="M627.124 268.679V265.967C627.124 265.135 627.42 264.435 628.012 263.867C628.62 263.299 629.364 263.015 630.244 263.015C631.14 263.015 631.884 263.299 632.476 263.867C633.076 264.427 633.376 265.127 633.376 265.967V268.679C633.376 269.519 633.076 270.223 632.476 270.791C631.892 271.351 631.148 271.631 630.244 271.631C629.348 271.631 628.604 271.351 628.012 270.791C627.42 270.223 627.124 269.519 627.124 268.679ZM627.892 265.955V268.691C627.892 269.315 628.116 269.839 628.564 270.263C629.012 270.679 629.572 270.887 630.244 270.887C630.916 270.887 631.476 270.679 631.924 270.263C632.38 269.839 632.608 269.315 632.608 268.691V265.955C632.608 265.331 632.38 264.811 631.924 264.395C631.46 263.971 630.9 263.759 630.244 263.759C629.588 263.759 629.028 263.971 628.564 264.395C628.116 264.819 627.892 265.339 627.892 265.955ZM639.546 271.523V269.723H634.758V268.979L639.606 263.123H640.314V268.967H641.598V269.723H640.314V271.523H639.546ZM639.546 264.299L635.706 268.967H639.546V264.299ZM642.764 271.031C642.764 270.863 642.82 270.723 642.932 270.611C643.052 270.499 643.196 270.443 643.364 270.443C643.532 270.443 643.672 270.499 643.784 270.611C643.904 270.723 643.964 270.863 643.964 271.031C643.98 271.279 643.884 271.451 643.676 271.547C643.468 271.651 643.26 271.651 643.052 271.547C642.844 271.451 642.748 271.279 642.764 271.031ZM645.44 268.679V265.967C645.44 265.135 645.736 264.435 646.328 263.867C646.936 263.299 647.68 263.015 648.56 263.015C649.456 263.015 650.2 263.299 650.792 263.867C651.392 264.427 651.692 265.127 651.692 265.967V268.679C651.692 269.519 651.392 270.223 650.792 270.791C650.208 271.351 649.464 271.631 648.56 271.631C647.664 271.631 646.92 271.351 646.328 270.791C645.736 270.223 645.44 269.519 645.44 268.679ZM646.208 265.955V268.691C646.208 269.315 646.432 269.839 646.88 270.263C647.328 270.679 647.888 270.887 648.56 270.887C649.232 270.887 649.792 270.679 650.24 270.263C650.696 269.839 650.924 269.315 650.924 268.691V265.955C650.924 265.331 650.696 264.811 650.24 264.395C649.776 263.971 649.216 263.759 648.56 263.759C647.904 263.759 647.344 263.971 646.88 264.395C646.432 264.819 646.208 265.339 646.208 265.955ZM655.319 264.119L653.495 265.127L653.159 264.443L655.571 263.123H656.087V271.523H655.319V264.119ZM661.871 268.751V268.055H664.943V268.751H661.871ZM672.018 264.119L670.194 265.127L669.858 264.443L672.27 263.123H672.786V271.523H672.018V264.119ZM675.124 268.679V265.967C675.124 265.135 675.42 264.435 676.012 263.867C676.62 263.299 677.364 263.015 678.244 263.015C679.14 263.015 679.884 263.299 680.476 263.867C681.076 264.427 681.376 265.127 681.376 265.967V268.679C681.376 269.519 681.076 270.223 680.476 270.791C679.892 271.351 679.148 271.631 678.244 271.631C677.348 271.631 676.604 271.351 676.012 270.791C675.42 270.223 675.124 269.519 675.124 268.679ZM675.892 265.955V268.691C675.892 269.315 676.116 269.839 676.564 270.263C677.012 270.679 677.572 270.887 678.244 270.887C678.916 270.887 679.476 270.679 679.924 270.263C680.38 269.839 680.608 269.315 680.608 268.691V265.955C680.608 265.331 680.38 264.811 679.924 264.395C679.46 263.971 678.9 263.759 678.244 263.759C677.588 263.759 677.028 263.971 676.564 264.395C676.116 264.819 675.892 265.339 675.892 265.955ZM682.854 271.031C682.854 270.863 682.91 270.723 683.022 270.611C683.142 270.499 683.286 270.443 683.454 270.443C683.622 270.443 683.762 270.499 683.874 270.611C683.994 270.723 684.054 270.863 684.054 271.031C684.07 271.279 683.974 271.451 683.766 271.547C683.558 271.651 683.35 271.651 683.142 271.547C682.934 271.451 682.838 271.279 682.854 271.031ZM685.53 268.679V265.967C685.53 265.135 685.826 264.435 686.418 263.867C687.026 263.299 687.77 263.015 688.65 263.015C689.546 263.015 690.29 263.299 690.882 263.867C691.482 264.427 691.782 265.127 691.782 265.967V268.679C691.782 269.519 691.482 270.223 690.882 270.791C690.298 271.351 689.554 271.631 688.65 271.631C687.754 271.631 687.01 271.351 686.418 270.791C685.826 270.223 685.53 269.519 685.53 268.679ZM686.298 265.955V268.691C686.298 269.315 686.522 269.839 686.97 270.263C687.418 270.679 687.978 270.887 688.65 270.887C689.322 270.887 689.882 270.679 690.33 270.263C690.786 269.839 691.014 269.315 691.014 268.691V265.955C691.014 265.331 690.786 264.811 690.33 264.395C689.866 263.971 689.306 263.759 688.65 263.759C687.994 263.759 687.434 263.971 686.97 264.395C686.522 264.819 686.298 265.339 686.298 265.955ZM695.409 264.119L693.585 265.127L693.249 264.443L695.661 263.123H696.177V271.523H695.409V264.119Z" fill="white"/>
<path d="M734.498 268.679V265.967C734.498 265.135 734.794 264.435 735.386 263.867C735.994 263.299 736.738 263.015 737.618 263.015C738.514 263.015 739.258 263.299 739.85 263.867C740.45 264.427 740.75 265.127 740.75 265.967V268.679C740.75 269.519 740.45 270.223 739.85 270.791C739.266 271.351 738.522 271.631 737.618 271.631C736.722 271.631 735.978 271.351 735.386 270.791C734.794 270.223 734.498 269.519 734.498 268.679ZM735.266 265.955V268.691C735.266 269.315 735.49 269.839 735.938 270.263C736.386 270.679 736.946 270.887 737.618 270.887C738.29 270.887 738.85 270.679 739.298 270.263C739.754 269.839 739.982 269.315 739.982 268.691V265.955C739.982 265.331 739.754 264.811 739.298 264.395C738.834 263.971 738.274 263.759 737.618 263.759C736.962 263.759 736.402 263.971 735.938 264.395C735.49 264.819 735.266 265.339 735.266 265.955ZM742.252 269.255C742.252 268.783 742.392 268.359 742.672 267.983C742.96 267.607 743.356 267.323 743.86 267.131C743.444 266.939 743.112 266.675 742.864 266.339C742.624 265.995 742.504 265.619 742.504 265.211C742.504 264.595 742.764 264.075 743.284 263.651C743.82 263.227 744.476 263.015 745.252 263.015C746.036 263.015 746.688 263.227 747.208 263.651C747.736 264.067 748 264.587 748 265.211C748 265.619 747.876 265.995 747.628 266.339C747.388 266.675 747.06 266.939 746.644 267.131C747.132 267.331 747.52 267.623 747.808 268.007C748.096 268.383 748.24 268.799 748.24 269.255C748.24 269.935 747.956 270.503 747.388 270.959C746.82 271.407 746.108 271.631 745.252 271.631C744.396 271.631 743.68 271.403 743.104 270.947C742.536 270.491 742.252 269.927 742.252 269.255ZM747.448 269.195C747.448 268.715 747.24 268.315 746.824 267.995C746.4 267.667 745.876 267.503 745.252 267.503C744.628 267.503 744.104 267.667 743.68 267.995C743.264 268.315 743.056 268.715 743.056 269.195C743.056 269.683 743.264 270.087 743.68 270.407C744.096 270.727 744.62 270.887 745.252 270.887C745.884 270.887 746.408 270.727 746.824 270.407C747.24 270.087 747.448 269.683 747.448 269.195ZM745.252 263.759C744.7 263.759 744.236 263.903 743.86 264.191C743.484 264.479 743.296 264.839 743.296 265.271C743.296 265.703 743.484 266.063 743.86 266.351C744.236 266.639 744.7 266.783 745.252 266.783C745.804 266.783 746.264 266.639 746.632 266.351C747.008 266.063 747.196 265.703 747.196 265.271C747.196 264.839 747.008 264.479 746.632 264.191C746.264 263.903 745.804 263.759 745.252 263.759ZM749.599 271.031C749.599 270.863 749.655 270.723 749.767 270.611C749.887 270.499 750.031 270.443 750.199 270.443C750.367 270.443 750.507 270.499 750.619 270.611C750.739 270.723 750.799 270.863 750.799 271.031C750.815 271.279 750.719 271.451 750.511 271.547C750.303 271.651 750.095 271.651 749.887 271.547C749.679 271.451 749.583 271.279 749.599 271.031ZM752.275 268.679V265.967C752.275 265.135 752.571 264.435 753.163 263.867C753.771 263.299 754.515 263.015 755.395 263.015C756.291 263.015 757.035 263.299 757.627 263.867C758.227 264.427 758.527 265.127 758.527 265.967V268.679C758.527 269.519 758.227 270.223 757.627 270.791C757.043 271.351 756.299 271.631 755.395 271.631C754.499 271.631 753.755 271.351 753.163 270.791C752.571 270.223 752.275 269.519 752.275 268.679ZM753.043 265.955V268.691C753.043 269.315 753.267 269.839 753.715 270.263C754.163 270.679 754.723 270.887 755.395 270.887C756.067 270.887 756.627 270.679 757.075 270.263C757.531 269.839 757.759 269.315 757.759 268.691V265.955C757.759 265.331 757.531 264.811 757.075 264.395C756.611 263.971 756.051 263.759 755.395 263.759C754.739 263.759 754.179 263.971 753.715 264.395C753.267 264.819 753.043 265.339 753.043 265.955ZM764.71 265.511C764.71 265.031 764.514 264.619 764.122 264.275C763.746 263.931 763.278 263.759 762.718 263.759C762.262 263.759 761.846 263.895 761.47 264.167C761.102 264.431 760.826 264.795 760.642 265.259L759.934 264.923C760.174 264.339 760.542 263.875 761.038 263.531C761.534 263.187 762.094 263.015 762.718 263.015C763.494 263.015 764.15 263.259 764.686 263.747C765.23 264.227 765.502 264.811 765.502 265.499C765.502 265.979 765.358 266.427 765.07 266.843C764.806 267.243 764.374 267.731 763.774 268.307L761.194 270.779H765.646V271.523H759.982V270.971L763.222 267.815L763.798 267.251C763.942 267.099 764.086 266.927 764.23 266.735C764.55 266.335 764.71 265.927 764.71 265.511ZM770.616 268.751V268.055H773.688V268.751H770.616ZM780.763 264.119L778.939 265.127L778.603 264.443L781.015 263.123H781.531V271.523H780.763V264.119ZM788.405 271.523V269.723H783.617V268.979L788.465 263.123H789.173V268.967H790.457V269.723H789.173V271.523H788.405ZM788.405 264.299L784.565 268.967H788.405V264.299ZM791.623 271.031C791.623 270.863 791.679 270.723 791.791 270.611C791.911 270.499 792.055 270.443 792.223 270.443C792.391 270.443 792.531 270.499 792.643 270.611C792.763 270.723 792.823 270.863 792.823 271.031C792.839 271.279 792.743 271.451 792.535 271.547C792.327 271.651 792.119 271.651 791.911 271.547C791.703 271.451 791.607 271.279 791.623 271.031ZM794.298 268.679V265.967C794.298 265.135 794.594 264.435 795.186 263.867C795.794 263.299 796.538 263.015 797.418 263.015C798.314 263.015 799.058 263.299 799.65 263.867C800.25 264.427 800.55 265.127 800.55 265.967V268.679C800.55 269.519 800.25 270.223 799.65 270.791C799.066 271.351 798.322 271.631 797.418 271.631C796.522 271.631 795.778 271.351 795.186 270.791C794.594 270.223 794.298 269.519 794.298 268.679ZM795.066 265.955V268.691C795.066 269.315 795.29 269.839 795.738 270.263C796.186 270.679 796.746 270.887 797.418 270.887C798.09 270.887 798.65 270.679 799.098 270.263C799.554 269.839 799.782 269.315 799.782 268.691V265.955C799.782 265.331 799.554 264.811 799.098 264.395C798.634 263.971 798.074 263.759 797.418 263.759C796.762 263.759 796.202 263.971 795.738 264.395C795.29 264.819 795.066 265.339 795.066 265.955ZM806.733 265.511C806.733 265.031 806.537 264.619 806.145 264.275C805.769 263.931 805.301 263.759 804.741 263.759C804.285 263.759 803.869 263.895 803.493 264.167C803.125 264.431 802.849 264.795 802.665 265.259L801.957 264.923C802.197 264.339 802.565 263.875 803.061 263.531C803.557 263.187 804.117 263.015 804.741 263.015C805.517 263.015 806.173 263.259 806.709 263.747C807.253 264.227 807.525 264.811 807.525 265.499C807.525 265.979 807.381 266.427 807.093 266.843C806.829 267.243 806.397 267.731 805.797 268.307L803.217 270.779H807.669V271.523H802.005V270.971L805.245 267.815L805.821 267.251C805.965 267.099 806.109 266.927 806.253 266.735C806.573 266.335 806.733 265.927 806.733 265.511Z" fill="white"/>
<path d="M840.932 264.119L839.108 265.127L838.772 264.443L841.184 263.123H841.7V271.523H840.932V264.119ZM848.886 266.987C849.486 267.499 849.786 268.143 849.786 268.919C849.786 269.695 849.49 270.343 848.898 270.863C848.314 271.375 847.586 271.631 846.714 271.631C846.066 271.631 845.486 271.479 844.974 271.175C844.462 270.863 844.086 270.443 843.846 269.915L844.602 269.675C844.794 270.043 845.078 270.339 845.454 270.563C845.838 270.779 846.258 270.887 846.714 270.887C847.346 270.887 847.886 270.699 848.334 270.323C848.774 269.955 848.994 269.487 848.994 268.919C848.994 268.351 848.77 267.879 848.322 267.503C847.882 267.119 847.326 266.927 846.654 266.927H844.458L844.842 263.123H849.138V263.843H845.49L845.25 266.207H846.678C847.558 266.207 848.294 266.467 848.886 266.987ZM851.147 271.031C851.147 270.863 851.203 270.723 851.315 270.611C851.435 270.499 851.579 270.443 851.747 270.443C851.915 270.443 852.055 270.499 852.167 270.611C852.287 270.723 852.347 270.863 852.347 271.031C852.363 271.279 852.267 271.451 852.059 271.547C851.851 271.651 851.643 271.651 851.435 271.547C851.227 271.451 851.131 271.279 851.147 271.031ZM853.823 268.679V265.967C853.823 265.135 854.119 264.435 854.711 263.867C855.319 263.299 856.063 263.015 856.943 263.015C857.839 263.015 858.583 263.299 859.175 263.867C859.775 264.427 860.075 265.127 860.075 265.967V268.679C860.075 269.519 859.775 270.223 859.175 270.791C858.591 271.351 857.847 271.631 856.943 271.631C856.047 271.631 855.303 271.351 854.711 270.791C854.119 270.223 853.823 269.519 853.823 268.679ZM854.591 265.955V268.691C854.591 269.315 854.815 269.839 855.263 270.263C855.711 270.679 856.271 270.887 856.943 270.887C857.615 270.887 858.175 270.679 858.623 270.263C859.079 269.839 859.307 269.315 859.307 268.691V265.955C859.307 265.331 859.079 264.811 858.623 264.395C858.159 263.971 857.599 263.759 856.943 263.759C856.287 263.759 855.727 263.971 855.263 264.395C854.815 264.819 854.591 265.339 854.591 265.955ZM866.306 265.295C866.306 264.871 866.114 264.507 865.73 264.203C865.354 263.907 864.878 263.759 864.302 263.759C863.854 263.759 863.45 263.859 863.09 264.059C862.738 264.251 862.482 264.515 862.322 264.851L861.626 264.515C861.85 264.051 862.198 263.687 862.67 263.423C863.15 263.151 863.694 263.015 864.302 263.015C865.094 263.015 865.758 263.235 866.294 263.675C866.83 264.107 867.098 264.643 867.098 265.283C867.098 265.691 866.974 266.067 866.726 266.411C866.478 266.747 866.138 267.007 865.706 267.191C866.194 267.383 866.578 267.663 866.858 268.031C867.146 268.391 867.29 268.799 867.29 269.255C867.29 269.935 867.006 270.503 866.438 270.959C865.87 271.407 865.162 271.631 864.314 271.631C863.666 271.631 863.09 271.491 862.586 271.211C862.082 270.931 861.722 270.555 861.506 270.083L862.25 269.795C862.402 270.131 862.662 270.399 863.03 270.599C863.398 270.791 863.826 270.887 864.314 270.887C864.93 270.887 865.45 270.731 865.874 270.419C866.29 270.099 866.498 269.703 866.498 269.231C866.498 268.767 866.294 268.379 865.886 268.067C865.486 267.755 864.982 267.599 864.374 267.599H863.75V266.867H864.218C864.818 266.867 865.314 266.719 865.706 266.423C866.106 266.119 866.306 265.743 866.306 265.295ZM872.246 268.751V268.055H875.318V268.751H872.246ZM884.949 265.511C884.949 265.031 884.753 264.619 884.361 264.275C883.985 263.931 883.517 263.759 882.957 263.759C882.501 263.759 882.085 263.895 881.709 264.167C881.341 264.431 881.065 264.795 880.881 265.259L880.173 264.923C880.413 264.339 880.781 263.875 881.277 263.531C881.773 263.187 882.333 263.015 882.957 263.015C883.733 263.015 884.389 263.259 884.925 263.747C885.469 264.227 885.741 264.811 885.741 265.499C885.741 265.979 885.597 266.427 885.309 266.843C885.045 267.243 884.613 267.731 884.013 268.307L881.433 270.779H885.885V271.523H880.221V270.971L883.461 267.815L884.037 267.251C884.181 267.099 884.325 266.927 884.469 266.735C884.789 266.335 884.949 265.927 884.949 265.511ZM889.401 264.119L887.577 265.127L887.241 264.443L889.653 263.123H890.169V271.523H889.401V264.119ZM892.35 271.031C892.35 270.863 892.406 270.723 892.518 270.611C892.638 270.499 892.782 270.443 892.95 270.443C893.118 270.443 893.258 270.499 893.37 270.611C893.49 270.723 893.55 270.863 893.55 271.031C893.566 271.279 893.47 271.451 893.262 271.547C893.054 271.651 892.846 271.651 892.638 271.547C892.43 271.451 892.334 271.279 892.35 271.031ZM895.026 268.679V265.967C895.026 265.135 895.322 264.435 895.914 263.867C896.522 263.299 897.266 263.015 898.146 263.015C899.042 263.015 899.786 263.299 900.378 263.867C900.978 264.427 901.278 265.127 901.278 265.967V268.679C901.278 269.519 900.978 270.223 900.378 270.791C899.794 271.351 899.05 271.631 898.146 271.631C897.25 271.631 896.506 271.351 895.914 270.791C895.322 270.223 895.026 269.519 895.026 268.679ZM895.794 265.955V268.691C895.794 269.315 896.018 269.839 896.466 270.263C896.914 270.679 897.474 270.887 898.146 270.887C898.818 270.887 899.378 270.679 899.826 270.263C900.282 269.839 900.51 269.315 900.51 268.691V265.955C900.51 265.331 900.282 264.811 899.826 264.395C899.362 263.971 898.802 263.759 898.146 263.759C897.49 263.759 896.93 263.971 896.466 264.395C896.018 264.819 895.794 265.339 895.794 265.955ZM907.509 265.295C907.509 264.871 907.317 264.507 906.933 264.203C906.557 263.907 906.081 263.759 905.505 263.759C905.057 263.759 904.653 263.859 904.293 264.059C903.941 264.251 903.685 264.515 903.525 264.851L902.829 264.515C903.053 264.051 903.401 263.687 903.873 263.423C904.353 263.151 904.897 263.015 905.505 263.015C906.297 263.015 906.961 263.235 907.497 263.675C908.033 264.107 908.301 264.643 908.301 265.283C908.301 265.691 908.177 266.067 907.929 266.411C907.681 266.747 907.341 267.007 906.909 267.191C907.397 267.383 907.781 267.663 908.061 268.031C908.349 268.391 908.493 268.799 908.493 269.255C908.493 269.935 908.209 270.503 907.641 270.959C907.073 271.407 906.365 271.631 905.517 271.631C904.869 271.631 904.293 271.491 903.789 271.211C903.285 270.931 902.925 270.555 902.709 270.083L903.453 269.795C903.605 270.131 903.865 270.399 904.233 270.599C904.601 270.791 905.029 270.887 905.517 270.887C906.133 270.887 906.653 270.731 907.077 270.419C907.493 270.099 907.701 269.703 907.701 269.231C907.701 268.767 907.497 268.379 907.089 268.067C906.689 267.755 906.185 267.599 905.577 267.599H904.953V266.867H905.421C906.021 266.867 906.517 266.719 906.909 266.423C907.309 266.119 907.509 265.743 907.509 265.295Z" fill="white"/>
<path d="M942.372 264.119L940.548 265.127L940.212 264.443L942.624 263.123H943.14V271.523H942.372V264.119ZM945.43 270.203L946.138 269.843C946.338 270.163 946.618 270.419 946.978 270.611C947.338 270.795 947.734 270.887 948.166 270.887C948.854 270.887 949.418 270.679 949.858 270.263C950.314 269.839 950.542 269.319 950.542 268.703V267.407C950.318 267.791 950.006 268.095 949.606 268.319C949.214 268.535 948.782 268.643 948.31 268.643C947.454 268.643 946.742 268.375 946.174 267.839C945.598 267.303 945.31 266.631 945.31 265.823C945.31 265.031 945.594 264.363 946.162 263.819C946.73 263.283 947.446 263.015 948.31 263.015C949.158 263.015 949.87 263.279 950.446 263.807C951.022 264.327 951.31 264.975 951.31 265.751V268.691C951.31 269.531 951.006 270.231 950.398 270.791C949.806 271.351 949.058 271.631 948.154 271.631C947.578 271.631 947.046 271.503 946.558 271.247C946.078 270.991 945.702 270.643 945.43 270.203ZM949.87 267.311C950.294 266.911 950.506 266.419 950.506 265.835C950.506 265.251 950.294 264.759 949.87 264.359C949.446 263.959 948.926 263.759 948.31 263.759C947.678 263.759 947.154 263.955 946.738 264.347C946.314 264.747 946.102 265.235 946.102 265.811C946.102 266.403 946.314 266.899 946.738 267.299C947.162 267.699 947.686 267.899 948.31 267.899C948.934 267.899 949.454 267.703 949.87 267.311ZM952.646 271.031C952.646 270.863 952.702 270.723 952.814 270.611C952.934 270.499 953.078 270.443 953.246 270.443C953.414 270.443 953.554 270.499 953.666 270.611C953.786 270.723 953.846 270.863 953.846 271.031C953.862 271.279 953.766 271.451 953.558 271.547C953.35 271.651 953.142 271.651 952.934 271.547C952.726 271.451 952.63 271.279 952.646 271.031ZM955.322 268.679V265.967C955.322 265.135 955.618 264.435 956.21 263.867C956.818 263.299 957.562 263.015 958.442 263.015C959.338 263.015 960.082 263.299 960.674 263.867C961.274 264.427 961.574 265.127 961.574 265.967V268.679C961.574 269.519 961.274 270.223 960.674 270.791C960.09 271.351 959.346 271.631 958.442 271.631C957.546 271.631 956.802 271.351 956.21 270.791C955.618 270.223 955.322 269.519 955.322 268.679ZM956.09 265.955V268.691C956.09 269.315 956.314 269.839 956.762 270.263C957.21 270.679 957.77 270.887 958.442 270.887C959.114 270.887 959.674 270.679 960.122 270.263C960.578 269.839 960.806 269.315 960.806 268.691V265.955C960.806 265.331 960.578 264.811 960.122 264.395C959.658 263.971 959.098 263.759 958.442 263.759C957.786 263.759 957.226 263.971 956.762 264.395C956.314 264.819 956.09 265.339 956.09 265.955ZM967.745 271.523V269.723H962.957V268.979L967.805 263.123H968.513V268.967H969.797V269.723H968.513V271.523H967.745ZM967.745 264.299L963.905 268.967H967.745V264.299ZM974.565 268.751V268.055H977.637V268.751H974.565ZM987.268 265.511C987.268 265.031 987.072 264.619 986.68 264.275C986.304 263.931 985.836 263.759 985.276 263.759C984.82 263.759 984.404 263.895 984.028 264.167C983.66 264.431 983.384 264.795 983.2 265.259L982.492 264.923C982.732 264.339 983.1 263.875 983.596 263.531C984.092 263.187 984.652 263.015 985.276 263.015C986.052 263.015 986.708 263.259 987.244 263.747C987.788 264.227 988.06 264.811 988.06 265.499C988.06 265.979 987.916 266.427 987.628 266.843C987.364 267.243 986.932 267.731 986.332 268.307L983.752 270.779H988.204V271.523H982.54V270.971L985.78 267.815L986.356 267.251C986.5 267.099 986.644 266.927 986.788 266.735C987.108 266.335 987.268 265.927 987.268 265.511ZM994.576 266.987C995.176 267.499 995.476 268.143 995.476 268.919C995.476 269.695 995.18 270.343 994.588 270.863C994.004 271.375 993.276 271.631 992.404 271.631C991.756 271.631 991.176 271.479 990.664 271.175C990.152 270.863 989.776 270.443 989.536 269.915L990.292 269.675C990.484 270.043 990.768 270.339 991.144 270.563C991.528 270.779 991.948 270.887 992.404 270.887C993.036 270.887 993.576 270.699 994.024 270.323C994.464 269.955 994.684 269.487 994.684 268.919C994.684 268.351 994.46 267.879 994.012 267.503C993.572 267.119 993.016 266.927 992.344 266.927H990.148L990.532 263.123H994.828V263.843H991.18L990.94 266.207H992.368C993.248 266.207 993.984 266.467 994.576 266.987ZM996.838 271.031C996.838 270.863 996.894 270.723 997.006 270.611C997.126 270.499 997.27 270.443 997.438 270.443C997.606 270.443 997.746 270.499 997.858 270.611C997.978 270.723 998.038 270.863 998.038 271.031C998.054 271.279 997.958 271.451 997.75 271.547C997.542 271.651 997.334 271.651 997.126 271.547C996.918 271.451 996.822 271.279 996.838 271.031ZM999.513 268.679V265.967C999.513 265.135 999.809 264.435 1000.4 263.867C1001.01 263.299 1001.75 263.015 1002.63 263.015C1003.53 263.015 1004.27 263.299 1004.87 263.867C1005.47 264.427 1005.77 265.127 1005.77 265.967V268.679C1005.77 269.519 1005.47 270.223 1004.87 270.791C1004.28 271.351 1003.54 271.631 1002.63 271.631C1001.74 271.631 1000.99 271.351 1000.4 270.791C999.809 270.223 999.513 269.519 999.513 268.679ZM1000.28 265.955V268.691C1000.28 269.315 1000.51 269.839 1000.95 270.263C1001.4 270.679 1001.96 270.887 1002.63 270.887C1003.31 270.887 1003.87 270.679 1004.31 270.263C1004.77 269.839 1005 269.315 1005 268.691V265.955C1005 265.331 1004.77 264.811 1004.31 264.395C1003.85 263.971 1003.29 263.759 1002.63 263.759C1001.98 263.759 1001.42 263.971 1000.95 264.395C1000.51 264.819 1000.28 265.339 1000.28 265.955ZM1011.94 271.523V269.723H1007.15V268.979L1012 263.123H1012.7V268.967H1013.99V269.723H1012.7V271.523H1011.94ZM1011.94 264.299L1008.1 268.967H1011.94V264.299Z" fill="white"/>
<path d="M1045.03 265.511C1045.03 265.031 1044.83 264.619 1044.44 264.275C1044.06 263.931 1043.59 263.759 1043.03 263.759C1042.58 263.759 1042.16 263.895 1041.79 264.167C1041.42 264.431 1041.14 264.795 1040.96 265.259L1040.25 264.923C1040.49 264.339 1040.86 263.875 1041.35 263.531C1041.85 263.187 1042.41 263.015 1043.03 263.015C1043.81 263.015 1044.47 263.259 1045 263.747C1045.55 264.227 1045.82 264.811 1045.82 265.499C1045.82 265.979 1045.67 266.427 1045.39 266.843C1045.12 267.243 1044.69 267.731 1044.09 268.307L1041.51 270.779H1045.96V271.523H1040.3V270.971L1043.54 267.815L1044.11 267.251C1044.26 267.099 1044.4 266.927 1044.55 266.735C1044.87 266.335 1045.03 265.927 1045.03 265.511ZM1052.02 271.523V269.723H1047.23V268.979L1052.08 263.123H1052.79V268.967H1054.07V269.723H1052.79V271.523H1052.02ZM1052.02 264.299L1048.18 268.967H1052.02V264.299ZM1055.24 271.031C1055.24 270.863 1055.3 270.723 1055.41 270.611C1055.53 270.499 1055.67 270.443 1055.84 270.443C1056.01 270.443 1056.15 270.499 1056.26 270.611C1056.38 270.723 1056.44 270.863 1056.44 271.031C1056.46 271.279 1056.36 271.451 1056.15 271.547C1055.94 271.651 1055.74 271.651 1055.53 271.547C1055.32 271.451 1055.22 271.279 1055.24 271.031ZM1057.92 268.679V265.967C1057.92 265.135 1058.21 264.435 1058.8 263.867C1059.41 263.299 1060.16 263.015 1061.04 263.015C1061.93 263.015 1062.68 263.299 1063.27 263.867C1063.87 264.427 1064.17 265.127 1064.17 265.967V268.679C1064.17 269.519 1063.87 270.223 1063.27 270.791C1062.68 271.351 1061.94 271.631 1061.04 271.631C1060.14 271.631 1059.4 271.351 1058.8 270.791C1058.21 270.223 1057.92 269.519 1057.92 268.679ZM1058.68 265.955V268.691C1058.68 269.315 1058.91 269.839 1059.36 270.263C1059.8 270.679 1060.36 270.887 1061.04 270.887C1061.71 270.887 1062.27 270.679 1062.72 270.263C1063.17 269.839 1063.4 269.315 1063.4 268.691V265.955C1063.4 265.331 1063.17 264.811 1062.72 264.395C1062.25 263.971 1061.69 263.759 1061.04 263.759C1060.38 263.759 1059.82 263.971 1059.36 264.395C1058.91 264.819 1058.68 265.339 1058.68 265.955ZM1070.65 266.987C1071.25 267.499 1071.55 268.143 1071.55 268.919C1071.55 269.695 1071.25 270.343 1070.66 270.863C1070.08 271.375 1069.35 271.631 1068.48 271.631C1067.83 271.631 1067.25 271.479 1066.74 271.175C1066.23 270.863 1065.85 270.443 1065.61 269.915L1066.37 269.675C1066.56 270.043 1066.84 270.339 1067.22 270.563C1067.6 270.779 1068.02 270.887 1068.48 270.887C1069.11 270.887 1069.65 270.699 1070.1 270.323C1070.54 269.955 1070.76 269.487 1070.76 268.919C1070.76 268.351 1070.53 267.879 1070.09 267.503C1069.65 267.119 1069.09 266.927 1068.42 266.927H1066.22L1066.61 263.123H1070.9V263.843H1067.25L1067.01 266.207H1068.44C1069.32 266.207 1070.06 266.467 1070.65 266.987ZM1076.51 268.751V268.055H1079.59V268.751H1076.51ZM1089.27 265.295C1089.27 264.871 1089.07 264.507 1088.69 264.203C1088.31 263.907 1087.84 263.759 1087.26 263.759C1086.81 263.759 1086.41 263.859 1086.05 264.059C1085.7 264.251 1085.44 264.515 1085.28 264.851L1084.59 264.515C1084.81 264.051 1085.16 263.687 1085.63 263.423C1086.11 263.151 1086.65 263.015 1087.26 263.015C1088.05 263.015 1088.72 263.235 1089.25 263.675C1089.79 264.107 1090.06 264.643 1090.06 265.283C1090.06 265.691 1089.93 266.067 1089.69 266.411C1089.44 266.747 1089.1 267.007 1088.67 267.191C1089.15 267.383 1089.54 267.663 1089.82 268.031C1090.11 268.391 1090.25 268.799 1090.25 269.255C1090.25 269.935 1089.97 270.503 1089.4 270.959C1088.83 271.407 1088.12 271.631 1087.27 271.631C1086.63 271.631 1086.05 271.491 1085.55 271.211C1085.04 270.931 1084.68 270.555 1084.47 270.083L1085.21 269.795C1085.36 270.131 1085.62 270.399 1085.99 270.599C1086.36 270.791 1086.79 270.887 1087.27 270.887C1087.89 270.887 1088.41 270.731 1088.83 270.419C1089.25 270.099 1089.46 269.703 1089.46 269.231C1089.46 268.767 1089.25 268.379 1088.85 268.067C1088.45 267.755 1087.94 267.599 1087.33 267.599H1086.71V266.867H1087.18C1087.78 266.867 1088.27 266.719 1088.67 266.423C1089.07 266.119 1089.27 265.743 1089.27 265.295ZM1091.76 268.679V265.967C1091.76 265.135 1092.06 264.435 1092.65 263.867C1093.26 263.299 1094 263.015 1094.88 263.015C1095.78 263.015 1096.52 263.299 1097.11 263.867C1097.71 264.427 1098.01 265.127 1098.01 265.967V268.679C1098.01 269.519 1097.71 270.223 1097.11 270.791C1096.53 271.351 1095.78 271.631 1094.88 271.631C1093.98 271.631 1093.24 271.351 1092.65 270.791C1092.06 270.223 1091.76 269.519 1091.76 268.679ZM1092.53 265.955V268.691C1092.53 269.315 1092.75 269.839 1093.2 270.263C1093.65 270.679 1094.21 270.887 1094.88 270.887C1095.55 270.887 1096.11 270.679 1096.56 270.263C1097.02 269.839 1097.24 269.315 1097.24 268.691V265.955C1097.24 265.331 1097.02 264.811 1096.56 264.395C1096.1 263.971 1095.54 263.759 1094.88 263.759C1094.22 263.759 1093.66 263.971 1093.2 264.395C1092.75 264.819 1092.53 265.339 1092.53 265.955ZM1099.49 271.031C1099.49 270.863 1099.55 270.723 1099.66 270.611C1099.78 270.499 1099.92 270.443 1100.09 270.443C1100.26 270.443 1100.4 270.499 1100.51 270.611C1100.63 270.723 1100.69 270.863 1100.69 271.031C1100.71 271.279 1100.61 271.451 1100.4 271.547C1100.19 271.651 1099.99 271.651 1099.78 271.547C1099.57 271.451 1099.47 271.279 1099.49 271.031ZM1102.17 268.679V265.967C1102.17 265.135 1102.46 264.435 1103.05 263.867C1103.66 263.299 1104.41 263.015 1105.29 263.015C1106.18 263.015 1106.93 263.299 1107.52 263.867C1108.12 264.427 1108.42 265.127 1108.42 265.967V268.679C1108.42 269.519 1108.12 270.223 1107.52 270.791C1106.93 271.351 1106.19 271.631 1105.29 271.631C1104.39 271.631 1103.65 271.351 1103.05 270.791C1102.46 270.223 1102.17 269.519 1102.17 268.679ZM1102.93 265.955V268.691C1102.93 269.315 1103.16 269.839 1103.61 270.263C1104.05 270.679 1104.61 270.887 1105.29 270.887C1105.96 270.887 1106.52 270.679 1106.97 270.263C1107.42 269.839 1107.65 269.315 1107.65 268.691V265.955C1107.65 265.331 1107.42 264.811 1106.97 264.395C1106.5 263.971 1105.94 263.759 1105.29 263.759C1104.63 263.759 1104.07 263.971 1103.61 264.395C1103.16 264.819 1102.93 265.339 1102.93 265.955ZM1114.9 266.987C1115.5 267.499 1115.8 268.143 1115.8 268.919C1115.8 269.695 1115.5 270.343 1114.91 270.863C1114.33 271.375 1113.6 271.631 1112.73 271.631C1112.08 271.631 1111.5 271.479 1110.99 271.175C1110.48 270.863 1110.1 270.443 1109.86 269.915L1110.62 269.675C1110.81 270.043 1111.09 270.339 1111.47 270.563C1111.85 270.779 1112.27 270.887 1112.73 270.887C1113.36 270.887 1113.9 270.699 1114.35 270.323C1114.79 269.955 1115.01 269.487 1115.01 268.919C1115.01 268.351 1114.78 267.879 1114.34 267.503C1113.9 267.119 1113.34 266.927 1112.67 266.927H1110.47L1110.86 263.123H1115.15V263.843H1111.5L1111.26 266.207H1112.69C1113.57 266.207 1114.31 266.467 1114.9 266.987Z" fill="white"/>
</svg>
