<svg width="1123" height="248" viewBox="0 0 1123 248" fill="none" xmlns="http://www.w3.org/2000/svg">
<path d="M2.48 6.35841V16.5664H1.424V5.36641H10.816V16.5664H9.76V6.35841H2.48ZM14.5224 20.1664H13.5304V8.24641H14.5224V9.79841C15.301 8.66774 16.405 8.10241 17.8344 8.10241C18.997 8.10241 19.973 8.51307 20.7624 9.33441C21.5517 10.1557 21.9464 11.1797 21.9464 12.4064C21.9464 13.6331 21.5517 14.6571 20.7624 15.4784C19.973 16.2997 18.997 16.7104 17.8344 16.7104C17.1517 16.7104 16.5224 16.5611 15.9464 16.2624C15.3704 15.9637 14.8957 15.5477 14.5224 15.0144V20.1664ZM20.0104 10.0544C19.4024 9.41441 18.645 9.09441 17.7384 9.09441C16.8317 9.09441 16.0744 9.41441 15.4664 10.0544C14.8584 10.6837 14.5544 11.4677 14.5544 12.4064C14.5544 13.3451 14.8584 14.1344 15.4664 14.7744C16.0744 15.4037 16.8317 15.7184 17.7384 15.7184C18.645 15.7184 19.4024 15.4037 20.0104 14.7744C20.6184 14.1344 20.9224 13.3451 20.9224 12.4064C20.9224 11.4677 20.6184 10.6837 20.0104 10.0544ZM24.782 15.4784C23.9607 14.6571 23.55 13.6331 23.55 12.4064C23.55 11.1797 23.9607 10.1557 24.782 9.33441C25.6033 8.51307 26.6273 8.10241 27.854 8.10241C29.0807 8.10241 30.1047 8.51307 30.926 9.33441C31.7473 10.1557 32.158 11.1797 32.158 12.4064C32.158 13.6331 31.7473 14.6571 30.926 15.4784C30.1047 16.2997 29.0807 16.7104 27.854 16.7104C26.6273 16.7104 25.6033 16.2997 24.782 15.4784ZM25.502 10.0384C24.8833 10.6571 24.574 11.4464 24.574 12.4064C24.574 13.3664 24.8833 14.1557 25.502 14.7744C26.1313 15.4037 26.9153 15.7184 27.854 15.7184C28.782 15.7184 29.5607 15.4037 30.19 14.7744C30.8193 14.1451 31.134 13.3557 31.134 12.4064C31.134 11.4571 30.8193 10.6677 30.19 10.0384C29.5607 9.40907 28.782 9.09441 27.854 9.09441C26.9153 9.09441 26.1313 9.40907 25.502 10.0384ZM34.2335 16.5664V8.24641H35.2255V15.6064H40.5695V8.24641H41.5615V15.6064H43.0975V18.9664H42.1055V16.5664H34.2335ZM52.5453 12.7104H45.0893C45.1533 13.5851 45.4999 14.3211 46.1293 14.9184C46.7693 15.4944 47.5479 15.7824 48.4653 15.7824C49.0413 15.7824 49.5693 15.6597 50.0493 15.4144C50.5293 15.1584 50.9186 14.8117 51.2173 14.3744L52.1773 14.6944C51.8039 15.3237 51.2919 15.8197 50.6413 16.1824C49.9906 16.5344 49.2653 16.7104 48.4653 16.7104C47.2173 16.7104 46.1719 16.2997 45.3293 15.4784C44.4973 14.6677 44.0813 13.6437 44.0813 12.4064C44.0813 11.1691 44.4866 10.1451 45.2973 9.33441C46.1186 8.51307 47.1266 8.10241 48.3213 8.10241C49.5159 8.10241 50.5239 8.51307 51.3453 9.33441C52.1559 10.1451 52.5613 11.1691 52.5613 12.4064C52.5613 12.5664 52.5559 12.6677 52.5453 12.7104ZM45.1053 11.8784H51.5373C51.4199 11.0464 51.0573 10.3637 50.4493 9.83041C49.8519 9.29707 49.1373 9.03041 48.3053 9.03041C47.4733 9.03041 46.7586 9.29707 46.1613 9.83041C45.5746 10.3531 45.2226 11.0357 45.1053 11.8784ZM55.5224 12.8064V16.5664H54.5304V8.24641H55.5224V11.8464H61.0584V8.24641H62.0504V16.5664H61.0584V12.8064H55.5224ZM67.0078 16.5664V9.20641H63.6958V8.24641H71.2958V9.20641H67.9998V16.5664H67.0078ZM84.0759 16.5664H82.8119L78.9079 12.2624L82.4759 8.24641H83.7239L80.1559 12.2624L84.0759 16.5664ZM78.4599 8.24641V16.5664H77.4679V8.24641H78.4599ZM85.3023 16.5664H84.8383V15.6064H85.2383C86.1023 15.6064 86.5343 14.7317 86.5343 12.9824V8.24641H92.7423V16.5664H91.7503V9.20641H87.5263V13.1584C87.5263 14.2784 87.3289 15.1264 86.9343 15.7024C86.5396 16.2784 85.9956 16.5664 85.3023 16.5664ZM95.3273 16.5664V8.24641H96.3193V11.8464H98.4473C98.5753 10.7477 99.0286 9.85174 99.8073 9.15841C100.586 8.45441 101.53 8.10241 102.639 8.10241C103.845 8.10241 104.847 8.51307 105.647 9.33441C106.458 10.1451 106.863 11.1691 106.863 12.4064C106.863 13.6437 106.458 14.6677 105.647 15.4784C104.847 16.2997 103.845 16.7104 102.639 16.7104C101.487 16.7104 100.522 16.3424 99.7433 15.6064C98.9646 14.8704 98.5273 13.9371 98.4313 12.8064H96.3193V16.5664H95.3273ZM104.927 10.0544C104.319 9.41441 103.557 9.09441 102.639 9.09441C101.722 9.09441 100.959 9.41441 100.351 10.0544C99.7433 10.6837 99.4393 11.4677 99.4393 12.4064C99.4393 13.3451 99.7433 14.1344 100.351 14.7744C100.959 15.4037 101.722 15.7184 102.639 15.7184C103.557 15.7184 104.319 15.4037 104.927 14.7744C105.535 14.1344 105.839 13.3451 105.839 12.4064C105.839 11.4677 105.535 10.6837 104.927 10.0544ZM108.426 10.8384V8.24641H109.466V10.8384C109.466 11.3291 109.647 11.7237 110.01 12.0224C110.383 12.3104 110.906 12.4544 111.578 12.4544C112.282 12.4544 113.172 12.3797 114.25 12.2304V8.24641H115.242V16.5664H114.25V13.1904C113.172 13.3397 112.26 13.4144 111.514 13.4144C110.575 13.4144 109.823 13.1797 109.258 12.7104C108.703 12.2304 108.426 11.6064 108.426 10.8384ZM125.795 12.7104H118.339C118.403 13.5851 118.75 14.3211 119.379 14.9184C120.019 15.4944 120.798 15.7824 121.715 15.7824C122.291 15.7824 122.819 15.6597 123.299 15.4144C123.779 15.1584 124.169 14.8117 124.467 14.3744L125.427 14.6944C125.054 15.3237 124.542 15.8197 123.891 16.1824C123.241 16.5344 122.515 16.7104 121.715 16.7104C120.467 16.7104 119.422 16.2997 118.579 15.4784C117.747 14.6677 117.331 13.6437 117.331 12.4064C117.331 11.1691 117.737 10.1451 118.547 9.33441C119.369 8.51307 120.377 8.10241 121.571 8.10241C122.766 8.10241 123.774 8.51307 124.595 9.33441C125.406 10.1451 125.811 11.1691 125.811 12.4064C125.811 12.5664 125.806 12.6677 125.795 12.7104ZM118.355 11.8784H124.787C124.67 11.0464 124.307 10.3637 123.699 9.83041C123.102 9.29707 122.387 9.03041 121.555 9.03041C120.723 9.03041 120.009 9.29707 119.411 9.83041C118.825 10.3531 118.473 11.0357 118.355 11.8784ZM134.356 9.89441L128.644 16.5664H127.78V8.24641H128.772V14.9344L134.484 8.24641H135.348V16.5664H134.356V9.89441ZM129.028 4.74241H129.892C129.892 5.16907 130.052 5.52641 130.372 5.81441C130.692 6.09174 131.092 6.23041 131.572 6.23041C132.052 6.23041 132.447 6.09174 132.756 5.81441C133.076 5.52641 133.236 5.16907 133.236 4.74241H134.1C134.1 5.41441 133.86 5.96374 133.38 6.39041C132.89 6.82774 132.287 7.04641 131.572 7.04641C130.858 7.04641 130.25 6.82774 129.748 6.39041C129.268 5.96374 129.028 5.41441 129.028 4.74241ZM142.468 8.24641H146.66C147.268 8.24641 147.791 8.42241 148.228 8.77441C148.676 9.11574 148.943 9.54774 149.028 10.0704C149.049 10.1771 149.06 10.2837 149.06 10.3904C149.06 11.1477 148.735 11.7397 148.084 12.1664C148.5 12.3584 148.831 12.6357 149.076 12.9984C149.321 13.3611 149.444 13.7664 149.444 14.2144C149.444 14.8864 149.209 15.4464 148.74 15.8944C148.281 16.3424 147.695 16.5664 146.98 16.5664H142.468V8.24641ZM143.46 12.6784V15.6064H146.98C147.396 15.6064 147.737 15.4677 148.004 15.1904C148.281 14.9131 148.42 14.5664 148.42 14.1504C148.42 13.7344 148.281 13.3877 148.004 13.1104C147.737 12.8224 147.396 12.6784 146.98 12.6784H143.46ZM146.66 9.20641H143.46V11.8304H146.66C147.055 11.8304 147.38 11.7077 147.636 11.4624C147.903 11.2064 148.036 10.8917 148.036 10.5184C148.036 10.1451 147.903 9.83574 147.636 9.59041C147.38 9.33441 147.055 9.20641 146.66 9.20641ZM159.615 6.35841H155.167V5.36641H165.135V6.35841H160.687V16.5664H159.615V6.35841ZM165.818 10.9664C165.818 9.32374 166.368 7.95841 167.466 6.87041C168.565 5.77174 169.936 5.22241 171.578 5.22241C173.21 5.22241 174.576 5.77174 175.674 6.87041C176.773 7.95841 177.322 9.32374 177.322 10.9664C177.322 12.5984 176.773 13.9637 175.674 15.0624C174.576 16.1611 173.21 16.7104 171.578 16.7104C169.936 16.7104 168.565 16.1611 167.466 15.0624C166.368 13.9637 165.818 12.5984 165.818 10.9664ZM168.25 7.60641C167.365 8.51307 166.922 9.63307 166.922 10.9664C166.922 12.2997 167.365 13.4251 168.25 14.3424C169.146 15.2384 170.256 15.6864 171.578 15.6864C172.912 15.6864 174.016 15.2384 174.89 14.3424C175.786 13.4251 176.234 12.2997 176.234 10.9664C176.234 9.62241 175.786 8.50241 174.89 7.60641C174.016 6.69974 172.912 6.24641 171.578 6.24641C170.256 6.24641 169.146 6.69974 168.25 7.60641ZM180.714 6.35841V16.5664H179.658V5.36641H189.05V16.5664H187.994V6.35841H180.714ZM191.621 12.8704V11.9424H195.717V12.8704H191.621ZM200.619 6.69441L198.187 8.03841L197.739 7.12641L200.955 5.36641H201.643V16.5664H200.619V6.69441ZM204.76 12.7744V9.15841C204.76 8.04907 205.155 7.11574 205.944 6.35841C206.755 5.60107 207.747 5.22241 208.92 5.22241C210.115 5.22241 211.107 5.60107 211.896 6.35841C212.696 7.10507 213.096 8.03841 213.096 9.15841V12.7744C213.096 13.8944 212.696 14.8331 211.896 15.5904C211.117 16.3371 210.125 16.7104 208.92 16.7104C207.725 16.7104 206.733 16.3371 205.944 15.5904C205.155 14.8331 204.76 13.8944 204.76 12.7744ZM205.784 9.14241V12.7904C205.784 13.6224 206.083 14.3211 206.68 14.8864C207.277 15.4411 208.024 15.7184 208.92 15.7184C209.816 15.7184 210.563 15.4411 211.16 14.8864C211.768 14.3211 212.072 13.6224 212.072 12.7904V9.14241C212.072 8.31041 211.768 7.61707 211.16 7.06241C210.541 6.49707 209.795 6.21441 208.92 6.21441C208.045 6.21441 207.299 6.49707 206.68 7.06241C206.083 7.62774 205.784 8.32107 205.784 9.14241ZM221.007 9.20641V16.5664H220.015V8.24641H227.423V16.5664H226.431V9.20641H221.007ZM230.751 15.4784C229.929 14.6571 229.519 13.6331 229.519 12.4064C229.519 11.1797 229.929 10.1557 230.751 9.33441C231.572 8.51307 232.596 8.10241 233.823 8.10241C235.049 8.10241 236.073 8.51307 236.895 9.33441C237.716 10.1557 238.127 11.1797 238.127 12.4064C238.127 13.6331 237.716 14.6571 236.895 15.4784C236.073 16.2997 235.049 16.7104 233.823 16.7104C232.596 16.7104 231.572 16.2997 230.751 15.4784ZM231.471 10.0384C230.852 10.6571 230.543 11.4464 230.543 12.4064C230.543 13.3664 230.852 14.1557 231.471 14.7744C232.1 15.4037 232.884 15.7184 233.823 15.7184C234.751 15.7184 235.529 15.4037 236.159 14.7744C236.788 14.1451 237.103 13.3557 237.103 12.4064C237.103 11.4571 236.788 10.6677 236.159 10.0384C235.529 9.40907 234.751 9.09441 233.823 9.09441C232.884 9.09441 232.1 9.40907 231.471 10.0384ZM251.31 9.89441L245.598 16.5664H244.734V8.24641H245.726V14.9344L251.438 8.24641H252.302V16.5664H251.31V9.89441ZM257.258 16.5664V9.20641H253.946V8.24641H261.546V9.20641H258.25V16.5664H257.258ZM263.501 15.4784C262.679 14.6571 262.269 13.6331 262.269 12.4064C262.269 11.1797 262.679 10.1557 263.501 9.33441C264.322 8.51307 265.346 8.10241 266.573 8.10241C267.799 8.10241 268.823 8.51307 269.645 9.33441C270.466 10.1557 270.877 11.1797 270.877 12.4064C270.877 13.6331 270.466 14.6571 269.645 15.4784C268.823 16.2997 267.799 16.7104 266.573 16.7104C265.346 16.7104 264.322 16.2997 263.501 15.4784ZM264.221 10.0384C263.602 10.6571 263.293 11.4464 263.293 12.4064C263.293 13.3664 263.602 14.1557 264.221 14.7744C264.85 15.4037 265.634 15.7184 266.573 15.7184C267.501 15.7184 268.279 15.4037 268.909 14.7744C269.538 14.1451 269.853 13.3557 269.853 12.4064C269.853 11.4571 269.538 10.6677 268.909 10.0384C268.279 9.40907 267.501 9.09441 266.573 9.09441C265.634 9.09441 264.85 9.40907 264.221 10.0384ZM273.944 9.20641V16.5664H272.952V8.24641H278.264V9.20641H273.944ZM283.1 8.10241C284.529 8.10241 285.633 8.66774 286.411 9.79841V8.24641H287.404V16.5664H286.411V15.0144C286.038 15.5477 285.564 15.9637 284.988 16.2624C284.412 16.5611 283.782 16.7104 283.1 16.7104C281.926 16.7104 280.945 16.2997 280.156 15.4784C279.377 14.6677 278.988 13.6437 278.988 12.4064C278.988 11.1691 279.377 10.1451 280.156 9.33441C280.945 8.51307 281.926 8.10241 283.1 8.10241ZM285.468 10.0544C284.86 9.41441 284.102 9.09441 283.196 9.09441C282.289 9.09441 281.532 9.41441 280.924 10.0544C280.316 10.6837 280.012 11.4677 280.012 12.4064C280.012 13.3451 280.316 14.1344 280.924 14.7744C281.532 15.4037 282.289 15.7184 283.196 15.7184C284.102 15.7184 284.86 15.4037 285.468 14.7744C286.076 14.1344 286.38 13.3451 286.38 12.4064C286.38 11.4677 286.076 10.6837 285.468 10.0544ZM290.991 10.1504V16.5664H289.999V8.24641H290.991L294.415 14.2464L297.855 8.24641H298.847V16.5664H297.855V10.1344L294.719 15.6064H294.111L290.991 10.1504ZM306.96 20.1664H305.968V8.24641H306.96V9.79841C307.739 8.66774 308.843 8.10241 310.272 8.10241C311.435 8.10241 312.411 8.51307 313.2 9.33441C313.989 10.1557 314.384 11.1797 314.384 12.4064C314.384 13.6331 313.989 14.6571 313.2 15.4784C312.411 16.2997 311.435 16.7104 310.272 16.7104C309.589 16.7104 308.96 16.5611 308.384 16.2624C307.808 15.9637 307.333 15.5477 306.96 15.0144V20.1664ZM312.448 10.0544C311.84 9.41441 311.083 9.09441 310.176 9.09441C309.269 9.09441 308.512 9.41441 307.904 10.0544C307.296 10.6837 306.992 11.4677 306.992 12.4064C306.992 13.3451 307.296 14.1344 307.904 14.7744C308.512 15.4037 309.269 15.7184 310.176 15.7184C311.083 15.7184 311.84 15.4037 312.448 14.7744C313.056 14.1344 313.36 13.3451 313.36 12.4064C313.36 11.4677 313.056 10.6837 312.448 10.0544ZM320.1 8.10241C321.529 8.10241 322.633 8.66774 323.411 9.79841V8.24641H324.404V16.5664H323.411V15.0144C323.038 15.5477 322.564 15.9637 321.988 16.2624C321.412 16.5611 320.782 16.7104 320.1 16.7104C318.926 16.7104 317.945 16.2997 317.156 15.4784C316.377 14.6677 315.988 13.6437 315.988 12.4064C315.988 11.1691 316.377 10.1451 317.156 9.33441C317.945 8.51307 318.926 8.10241 320.1 8.10241ZM322.468 10.0544C321.86 9.41441 321.102 9.09441 320.196 9.09441C319.289 9.09441 318.532 9.41441 317.924 10.0544C317.316 10.6837 317.012 11.4677 317.012 12.4064C317.012 13.3451 317.316 14.1344 317.924 14.7744C318.532 15.4037 319.289 15.7184 320.196 15.7184C321.102 15.7184 321.86 15.4037 322.468 14.7744C323.076 14.1344 323.38 13.3451 323.38 12.4064C323.38 11.4677 323.076 10.6837 322.468 10.0544ZM326.535 10.4864C326.535 8.65174 326.919 7.27574 327.687 6.35841C328.466 5.43041 329.666 4.88641 331.287 4.72641C331.372 4.72641 331.484 4.72107 331.623 4.71041C331.772 4.68907 331.98 4.66774 332.247 4.64641C332.514 4.61441 332.748 4.58774 332.951 4.56641L334.487 4.42241V5.41441L333.031 5.55841C332.828 5.57974 332.599 5.60641 332.343 5.63841C332.087 5.65974 331.89 5.68107 331.751 5.70241C331.612 5.71307 331.5 5.71841 331.415 5.71841C329.975 5.86774 328.951 6.36374 328.343 7.20641C327.735 8.04907 327.479 9.28107 327.575 10.9024C327.767 10.0917 328.188 9.42507 328.839 8.90241C329.5 8.36907 330.284 8.10241 331.191 8.10241C332.375 8.10241 333.367 8.51841 334.167 9.35041C334.967 10.1717 335.367 11.1957 335.367 12.4224C335.367 13.6491 334.962 14.6677 334.151 15.4784C333.351 16.2997 332.343 16.7104 331.127 16.7104C329.815 16.7104 328.722 16.1931 327.847 15.1584C326.972 14.1237 326.535 12.5664 326.535 10.4864ZM331.159 15.7184C332.066 15.7184 332.823 15.4037 333.431 14.7744C334.039 14.1344 334.343 13.3451 334.343 12.4064C334.343 11.4677 334.039 10.6837 333.431 10.0544C332.823 9.41441 332.066 9.09441 331.159 9.09441C330.242 9.09441 329.479 9.41441 328.871 10.0544C328.263 10.6837 327.959 11.4677 327.959 12.4064C327.959 13.3451 328.263 14.1344 328.871 14.7744C329.479 15.4037 330.242 15.7184 331.159 15.7184ZM338.204 15.4784C337.383 14.6571 336.972 13.6331 336.972 12.4064C336.972 11.1797 337.383 10.1557 338.204 9.33441C339.025 8.51307 340.049 8.10241 341.276 8.10241C342.503 8.10241 343.527 8.51307 344.348 9.33441C345.169 10.1557 345.58 11.1797 345.58 12.4064C345.58 13.6331 345.169 14.6571 344.348 15.4784C343.527 16.2997 342.503 16.7104 341.276 16.7104C340.049 16.7104 339.025 16.2997 338.204 15.4784ZM338.924 10.0384C338.305 10.6571 337.996 11.4464 337.996 12.4064C337.996 13.3664 338.305 14.1557 338.924 14.7744C339.553 15.4037 340.337 15.7184 341.276 15.7184C342.204 15.7184 342.983 15.4037 343.612 14.7744C344.241 14.1451 344.556 13.3557 344.556 12.4064C344.556 11.4571 344.241 10.6677 343.612 10.0384C342.983 9.40907 342.204 9.09441 341.276 9.09441C340.337 9.09441 339.553 9.40907 338.924 10.0384ZM349.898 16.5664V9.20641H346.586V8.24641H354.186V9.20641H350.89V16.5664H349.898ZM359.827 16.5664H355.827V8.24641H356.819V11.4304H359.827C360.553 11.4304 361.161 11.6757 361.651 12.1664C362.142 12.6571 362.387 13.2651 362.387 13.9904C362.387 14.6304 362.19 15.1904 361.795 15.6704C361.401 16.1397 360.899 16.4277 360.291 16.5344C360.27 16.5344 360.217 16.5397 360.131 16.5504C360.046 16.5611 359.993 16.5664 359.971 16.5664H359.827ZM359.827 12.3904H356.819V15.6064H359.827C360.265 15.6064 360.627 15.4517 360.915 15.1424C361.214 14.8331 361.363 14.4491 361.363 13.9904C361.363 13.5317 361.214 13.1531 360.915 12.8544C360.627 12.5451 360.265 12.3904 359.827 12.3904ZM364.979 16.5664H363.987V8.24641H364.979V16.5664ZM379.789 10.4864L378.797 10.7904C378.53 10.2677 378.141 9.85707 377.629 9.55841C377.127 9.24907 376.557 9.09441 375.917 9.09441C374.978 9.09441 374.194 9.40907 373.565 10.0384C372.946 10.6571 372.637 11.4464 372.637 12.4064C372.637 13.3664 372.946 14.1557 373.565 14.7744C374.194 15.4037 374.978 15.7184 375.917 15.7184C376.557 15.7184 377.127 15.5691 377.629 15.2704C378.141 14.9611 378.53 14.5451 378.797 14.0224L379.789 14.3264C379.447 15.0624 378.93 15.6437 378.237 16.0704C377.543 16.4971 376.77 16.7104 375.917 16.7104C374.69 16.7104 373.666 16.2997 372.845 15.4784C372.023 14.6571 371.613 13.6331 371.613 12.4064C371.613 11.1797 372.023 10.1557 372.845 9.33441C373.666 8.51307 374.69 8.10241 375.917 8.10241C376.77 8.10241 377.543 8.31574 378.237 8.74241C378.93 9.16907 379.447 9.75041 379.789 10.4864ZM382.485 15.4784C381.664 14.6571 381.253 13.6331 381.253 12.4064C381.253 11.1797 381.664 10.1557 382.485 9.33441C383.306 8.51307 384.33 8.10241 385.557 8.10241C386.784 8.10241 387.808 8.51307 388.629 9.33441C389.45 10.1557 389.861 11.1797 389.861 12.4064C389.861 13.6331 389.45 14.6571 388.629 15.4784C387.808 16.2997 386.784 16.7104 385.557 16.7104C384.33 16.7104 383.306 16.2997 382.485 15.4784ZM383.205 10.0384C382.586 10.6571 382.277 11.4464 382.277 12.4064C382.277 13.3664 382.586 14.1557 383.205 14.7744C383.834 15.4037 384.618 15.7184 385.557 15.7184C386.485 15.7184 387.264 15.4037 387.893 14.7744C388.522 14.1451 388.837 13.3557 388.837 12.4064C388.837 11.4571 388.522 10.6677 387.893 10.0384C387.264 9.40907 386.485 9.09441 385.557 9.09441C384.618 9.09441 383.834 9.40907 383.205 10.0384ZM399.617 10.4864L398.625 10.7904C398.358 10.2677 397.969 9.85707 397.457 9.55841C396.955 9.24907 396.385 9.09441 395.745 9.09441C394.806 9.09441 394.022 9.40907 393.393 10.0384C392.774 10.6571 392.465 11.4464 392.465 12.4064C392.465 13.3664 392.774 14.1557 393.393 14.7744C394.022 15.4037 394.806 15.7184 395.745 15.7184C396.385 15.7184 396.955 15.5691 397.457 15.2704C397.969 14.9611 398.358 14.5451 398.625 14.0224L399.617 14.3264C399.275 15.0624 398.758 15.6437 398.065 16.0704C397.371 16.4971 396.598 16.7104 395.745 16.7104C394.518 16.7104 393.494 16.2997 392.673 15.4784C391.851 14.6571 391.441 13.6331 391.441 12.4064C391.441 11.1797 391.851 10.1557 392.673 9.33441C393.494 8.51307 394.518 8.10241 395.745 8.10241C396.598 8.10241 397.371 8.31574 398.065 8.74241C398.758 9.16907 399.275 9.75041 399.617 10.4864ZM403.945 16.5664V9.20641H400.633V8.24641H408.233V9.20641H404.937V16.5664H403.945ZM413.068 8.10241C414.498 8.10241 415.602 8.66774 416.38 9.79841V8.24641H417.372V16.5664H416.38V15.0144C416.007 15.5477 415.532 15.9637 414.956 16.2624C414.38 16.5611 413.751 16.7104 413.068 16.7104C411.895 16.7104 410.914 16.2997 410.124 15.4784C409.346 14.6677 408.956 13.6437 408.956 12.4064C408.956 11.1691 409.346 10.1451 410.124 9.33441C410.914 8.51307 411.895 8.10241 413.068 8.10241ZM415.436 10.0544C414.828 9.41441 414.071 9.09441 413.164 9.09441C412.258 9.09441 411.5 9.41441 410.892 10.0544C410.284 10.6837 409.98 11.4677 409.98 12.4064C409.98 13.3451 410.284 14.1344 410.892 14.7744C411.5 15.4037 412.258 15.7184 413.164 15.7184C414.071 15.7184 414.828 15.4037 415.436 14.7744C416.044 14.1344 416.348 13.3451 416.348 12.4064C416.348 11.4677 416.044 10.6837 415.436 10.0544ZM419.968 8.24641H424.16C424.768 8.24641 425.291 8.42241 425.728 8.77441C426.176 9.11574 426.443 9.54774 426.528 10.0704C426.549 10.1771 426.56 10.2837 426.56 10.3904C426.56 11.1477 426.235 11.7397 425.584 12.1664C426 12.3584 426.331 12.6357 426.576 12.9984C426.821 13.3611 426.944 13.7664 426.944 14.2144C426.944 14.8864 426.709 15.4464 426.24 15.8944C425.781 16.3424 425.195 16.5664 424.48 16.5664H419.968V8.24641ZM420.96 12.6784V15.6064H424.48C424.896 15.6064 425.237 15.4677 425.504 15.1904C425.781 14.9131 425.92 14.5664 425.92 14.1504C425.92 13.7344 425.781 13.3877 425.504 13.1104C425.237 12.8224 424.896 12.6784 424.48 12.6784H420.96ZM424.16 9.20641H420.96V11.8304H424.16C424.555 11.8304 424.88 11.7077 425.136 11.4624C425.403 11.2064 425.536 10.8917 425.536 10.5184C425.536 10.1451 425.403 9.83574 425.136 9.59041C424.88 9.33441 424.555 9.20641 424.16 9.20641ZM435.56 9.89441L429.848 16.5664H428.984V8.24641H429.976V14.9344L435.688 8.24641H436.552V16.5664H435.56V9.89441ZM438.74 16.5664H438.276V15.6064H438.676C439.54 15.6064 439.972 14.7317 439.972 12.9824V8.24641H446.18V16.5664H445.188V9.20641H440.964V13.1584C440.964 14.2784 440.766 15.1264 440.372 15.7024C439.977 16.2784 439.433 16.5664 438.74 16.5664ZM459.552 10.5184C460.352 11.2011 460.752 12.0597 460.752 13.0944C460.752 14.1291 460.357 14.9931 459.568 15.6864C458.789 16.3691 457.819 16.7104 456.656 16.7104C455.792 16.7104 455.019 16.5077 454.336 16.1024C453.653 15.6864 453.152 15.1264 452.832 14.4224L453.84 14.1024C454.096 14.5931 454.475 14.9877 454.976 15.2864C455.488 15.5744 456.048 15.7184 456.656 15.7184C457.499 15.7184 458.219 15.4677 458.816 14.9664C459.403 14.4757 459.696 13.8517 459.696 13.0944C459.696 12.3371 459.397 11.7077 458.8 11.2064C458.213 10.6944 457.472 10.4384 456.576 10.4384H453.648L454.16 5.36641H459.888V6.32641H455.024L454.704 9.47841H456.608C457.781 9.47841 458.763 9.82507 459.552 10.5184ZM462.712 14.8064L463.656 14.3264C463.922 14.7531 464.296 15.0944 464.776 15.3504C465.256 15.5957 465.784 15.7184 466.36 15.7184C467.277 15.7184 468.029 15.4411 468.616 14.8864C469.224 14.3211 469.528 13.6277 469.528 12.8064V11.0784C469.229 11.5904 468.813 11.9957 468.28 12.2944C467.757 12.5824 467.181 12.7264 466.552 12.7264C465.41 12.7264 464.461 12.3691 463.704 11.6544C462.936 10.9397 462.552 10.0437 462.552 8.96641C462.552 7.91041 462.93 7.01974 463.688 6.29441C464.445 5.57974 465.4 5.22241 466.552 5.22241C467.682 5.22241 468.632 5.57441 469.4 6.27841C470.168 6.97174 470.552 7.83574 470.552 8.87041V12.7904C470.552 13.9104 470.146 14.8437 469.336 15.5904C468.546 16.3371 467.549 16.7104 466.344 16.7104C465.576 16.7104 464.866 16.5397 464.216 16.1984C463.576 15.8571 463.074 15.3931 462.712 14.8064ZM468.632 10.9504C469.197 10.4171 469.48 9.76107 469.48 8.98241C469.48 8.20374 469.197 7.54774 468.632 7.01441C468.066 6.48107 467.373 6.21441 466.552 6.21441C465.709 6.21441 465.01 6.47574 464.456 6.99841C463.89 7.53174 463.608 8.18241 463.608 8.95041C463.608 9.73974 463.89 10.4011 464.456 10.9344C465.021 11.4677 465.72 11.7344 466.552 11.7344C467.384 11.7344 468.077 11.4731 468.632 10.9504ZM473.757 16.5664L473.213 16.1024L482.173 5.36641L482.733 5.83041L473.757 16.5664ZM474.781 5.22241C475.549 5.22241 476.184 5.47841 476.685 5.99041C477.197 6.50241 477.453 7.13707 477.453 7.89441C477.453 8.65174 477.197 9.28641 476.685 9.79841C476.184 10.2997 475.549 10.5504 474.781 10.5504C474.034 10.5504 473.4 10.2997 472.877 9.79841C472.376 9.27574 472.125 8.64107 472.125 7.89441C472.125 7.14774 472.376 6.51307 472.877 5.99041C473.389 5.47841 474.024 5.22241 474.781 5.22241ZM473.021 7.89441C473.021 8.38507 473.192 8.80107 473.533 9.14241C473.874 9.48374 474.29 9.65441 474.781 9.65441C475.293 9.65441 475.714 9.48907 476.045 9.15841C476.386 8.81707 476.557 8.39574 476.557 7.89441C476.557 7.39307 476.386 6.97174 476.045 6.63041C475.704 6.28907 475.282 6.11841 474.781 6.11841C474.28 6.11841 473.858 6.28907 473.517 6.63041C473.186 6.97174 473.021 7.39307 473.021 7.89441ZM479.213 15.9424C478.712 15.4197 478.461 14.7851 478.461 14.0384C478.461 13.2917 478.717 12.6624 479.229 12.1504C479.741 11.6384 480.37 11.3824 481.117 11.3824C481.885 11.3824 482.52 11.6384 483.021 12.1504C483.533 12.6517 483.789 13.2811 483.789 14.0384C483.789 14.7957 483.533 15.4304 483.021 15.9424C482.52 16.4544 481.885 16.7104 481.117 16.7104C480.36 16.7104 479.725 16.4544 479.213 15.9424ZM479.853 12.7904C479.522 13.1211 479.357 13.5371 479.357 14.0384C479.357 14.5504 479.522 14.9717 479.853 15.3024C480.194 15.6437 480.616 15.8144 481.117 15.8144C481.629 15.8144 482.05 15.6491 482.381 15.3184C482.722 14.9771 482.893 14.5557 482.893 14.0544C482.893 13.5531 482.722 13.1317 482.381 12.7904C482.04 12.4491 481.618 12.2784 481.117 12.2784C480.616 12.2784 480.194 12.4491 479.853 12.7904ZM485.349 15.9104C485.349 15.6864 485.423 15.4997 485.573 15.3504C485.733 15.2011 485.925 15.1264 486.149 15.1264C486.373 15.1264 486.559 15.2011 486.709 15.3504C486.869 15.4997 486.949 15.6864 486.949 15.9104C486.97 16.2411 486.842 16.4704 486.565 16.5984C486.287 16.7371 486.01 16.7371 485.733 16.5984C485.455 16.4704 485.327 16.2411 485.349 15.9104ZM485.349 8.88641C485.349 8.66241 485.423 8.47574 485.573 8.32641C485.733 8.17707 485.925 8.10241 486.149 8.10241C486.373 8.10241 486.559 8.17707 486.709 8.32641C486.869 8.47574 486.949 8.66241 486.949 8.88641C486.97 9.21707 486.842 9.45174 486.565 9.59041C486.287 9.71841 486.01 9.71841 485.733 9.59041C485.455 9.45174 485.327 9.21707 485.349 8.88641Z" fill="white"/>
<path d="M9.92 200.661L10.224 201.653C9.70133 201.919 9.29067 202.309 8.992 202.821C8.68267 203.322 8.528 203.893 8.528 204.533C8.528 205.471 8.84267 206.255 9.472 206.885C10.0907 207.503 10.88 207.813 11.84 207.813C12.8 207.813 13.5893 207.503 14.208 206.885C14.8373 206.255 15.152 205.471 15.152 204.533C15.152 203.893 15.0027 203.322 14.704 202.821C14.3947 202.309 13.9787 201.919 13.456 201.653L13.76 200.661C14.496 201.002 15.0773 201.519 15.504 202.213C15.9307 202.906 16.144 203.679 16.144 204.533C16.144 205.759 15.7333 206.783 14.912 207.605C14.0907 208.426 13.0667 208.837 11.84 208.837C10.6133 208.837 9.58933 208.426 8.768 207.605C7.94667 206.783 7.536 205.759 7.536 204.533C7.536 203.679 7.74933 202.906 8.176 202.213C8.60267 201.519 9.184 201.002 9.92 200.661ZM19.6 197.708V198.7H7.68V197.708H9.232C8.10133 196.929 7.536 195.825 7.536 194.396C7.536 193.233 7.94667 192.257 8.768 191.468C9.58933 190.679 10.6133 190.284 11.84 190.284C13.0667 190.284 14.0907 190.679 14.912 191.468C15.7333 192.257 16.144 193.233 16.144 194.396C16.144 195.079 15.9947 195.708 15.696 196.284C15.3973 196.86 14.9813 197.335 14.448 197.708H19.6ZM9.488 192.22C8.848 192.828 8.528 193.585 8.528 194.492C8.528 195.399 8.848 196.156 9.488 196.764C10.1173 197.372 10.9013 197.676 11.84 197.676C12.7787 197.676 13.568 197.372 14.208 196.764C14.8373 196.156 15.152 195.399 15.152 194.492C15.152 193.585 14.8373 192.828 14.208 192.22C13.568 191.612 12.7787 191.308 11.84 191.308C10.9013 191.308 10.1173 191.612 9.488 192.22ZM12.144 180.216V187.672C13.0187 187.608 13.7547 187.262 14.352 186.632C14.928 185.992 15.216 185.214 15.216 184.296C15.216 183.72 15.0933 183.192 14.848 182.712C14.592 182.232 14.2453 181.843 13.808 181.544L14.128 180.584C14.7573 180.958 15.2533 181.47 15.616 182.12C15.968 182.771 16.144 183.496 16.144 184.296C16.144 185.544 15.7333 186.59 14.912 187.432C14.1013 188.264 13.0773 188.68 11.84 188.68C10.6027 188.68 9.57867 188.275 8.768 187.464C7.94667 186.643 7.536 185.635 7.536 184.44C7.536 183.246 7.94667 182.238 8.768 181.416C9.57867 180.606 10.6027 180.2 11.84 180.2C12 180.2 12.1013 180.206 12.144 180.216ZM11.312 187.656V181.224C10.48 181.342 9.79733 181.704 9.264 182.312C8.73067 182.91 8.464 183.624 8.464 184.456C8.464 185.288 8.73067 186.003 9.264 186.6C9.78667 187.187 10.4693 187.539 11.312 187.656ZM16 178.525H18.4V179.517H15.04V178.365C14.624 177.779 13.6853 177.485 12.224 177.485H7.68L7.68 171.197H15.04V169.661H18.4V170.653H16V178.525ZM15.04 177.165V172.189H8.64V176.493H12.208C13.4133 176.493 14.3573 176.717 15.04 177.165ZM12.24 166.942H16V167.934H7.68V166.942H11.28L11.28 161.406H7.68V160.414H16V161.406H12.24L12.24 166.942ZM10.224 158.177C9.49867 158.177 8.896 157.937 8.416 157.457C7.92533 156.977 7.68 156.374 7.68 155.649V151.185H16V152.177H12.784V154.737L16 156.977V158.145L12.768 155.921C12.704 156.572 12.4373 157.116 11.968 157.553C11.488 157.969 10.9067 158.177 10.224 158.177ZM8.64 152.177V155.649C8.64 156.076 8.79467 156.433 9.104 156.721C9.40267 157.009 9.776 157.153 10.224 157.153C10.6827 157.153 11.0667 157.009 11.376 156.721C11.6747 156.433 11.824 156.076 11.824 155.649V152.177H8.64ZM10.224 148.943C9.49867 148.943 8.896 148.703 8.416 148.223C7.92533 147.743 7.68 147.14 7.68 146.415L7.68 141.951H16V142.943H12.784V145.503L16 147.743V148.911L12.768 146.687C12.704 147.337 12.4373 147.881 11.968 148.319C11.488 148.735 10.9067 148.943 10.224 148.943ZM8.64 142.943V146.415C8.64 146.841 8.79467 147.199 9.104 147.487C9.40267 147.775 9.776 147.919 10.224 147.919C10.6827 147.919 11.0667 147.775 11.376 147.487C11.6747 147.199 11.824 146.841 11.824 146.415V142.943H8.64ZM8.64 133.833H16V134.825H7.68L7.68 127.417H16V128.409H8.64V133.833ZM14.912 124.089C14.0907 124.91 13.0667 125.321 11.84 125.321C10.6133 125.321 9.58933 124.91 8.768 124.089C7.94667 123.268 7.536 122.244 7.536 121.017C7.536 119.79 7.94667 118.766 8.768 117.945C9.58933 117.124 10.6133 116.713 11.84 116.713C13.0667 116.713 14.0907 117.124 14.912 117.945C15.7333 118.766 16.144 119.79 16.144 121.017C16.144 122.244 15.7333 123.268 14.912 124.089ZM9.472 123.369C10.0907 123.988 10.88 124.297 11.84 124.297C12.8 124.297 13.5893 123.988 14.208 123.369C14.8373 122.74 15.152 121.956 15.152 121.017C15.152 120.089 14.8373 119.31 14.208 118.681C13.5787 118.052 12.7893 117.737 11.84 117.737C10.8907 117.737 10.1013 118.052 9.472 118.681C8.84267 119.31 8.528 120.089 8.528 121.017C8.528 121.956 8.84267 122.74 9.472 123.369ZM13.952 115.305L13.68 114.313C14.6827 113.897 15.184 113.06 15.184 111.801C15.184 111.065 15.024 110.468 14.704 110.009C14.384 109.529 13.984 109.289 13.504 109.289C13.1093 109.289 12.784 109.444 12.528 109.753C12.2613 110.052 12.128 110.43 12.128 110.889V112.921H11.264V111.001C11.264 110.564 11.1467 110.201 10.912 109.913C10.6667 109.614 10.3627 109.465 10 109.465C9.57333 109.465 9.216 109.689 8.928 110.137C8.64 110.574 8.496 111.118 8.496 111.769C8.496 113.017 8.99733 113.849 10 114.265L9.728 115.257C9.024 114.99 8.48533 114.553 8.112 113.945C7.728 113.326 7.536 112.59 7.536 111.737C7.536 110.798 7.76 110.014 8.208 109.385C8.656 108.756 9.216 108.441 9.888 108.441C10.6667 108.441 11.264 108.825 11.68 109.593C11.8613 109.177 12.128 108.852 12.48 108.617C12.8213 108.382 13.2053 108.265 13.632 108.265C14.3467 108.265 14.944 108.601 15.424 109.273C15.904 109.924 16.144 110.761 16.144 111.785C16.144 112.638 15.9573 113.374 15.584 113.993C15.2 114.601 14.656 115.038 13.952 115.305ZM9.328 99.546L16 105.258V106.122H7.68V105.13H14.368L7.68 99.418V98.554H16V99.546H9.328ZM16 95.9657H7.68V94.9737H15.04V89.6297H7.68V88.6377H15.04V87.1017H18.4V88.0937H16V95.9657ZM9.328 78.796L16 84.508V85.372H7.68V84.38H14.368L7.68 78.668V77.804H16V78.796H9.328ZM10.224 75.5677C9.49867 75.5677 8.896 75.3277 8.416 74.8477C7.92533 74.3677 7.68 73.7651 7.68 73.0397L7.68 68.5757H16V69.5677H12.784V72.1277L16 74.3677V75.5357L12.768 73.3117C12.704 73.9624 12.4373 74.5064 11.968 74.9437C11.488 75.3597 10.9067 75.5677 10.224 75.5677ZM8.64 69.5677V73.0397C8.64 73.4664 8.79467 73.8237 9.104 74.1117C9.40267 74.3997 9.776 74.5437 10.224 74.5437C10.6827 74.5437 11.0667 74.3997 11.376 74.1117C11.6747 73.8237 11.824 73.4664 11.824 73.0397V69.5677H8.64Z" fill="white"/>
<path d="M73.6914 57.0488H1116.66" stroke="#DBDBDB" stroke-opacity="0.5"/>
<path d="M73.6914 80.9395H1116.66" stroke="#DBDBDB" stroke-opacity="0.5"/>
<path d="M73.6914 105.576H1116.66" stroke="#DBDBDB" stroke-opacity="0.5"/>
<path d="M73.6914 133.033H1116.66" stroke="#DBDBDB" stroke-opacity="0.5"/>
<path d="M73.6914 157.174H1116.66" stroke="#DBDBDB" stroke-opacity="0.5"/>
<path d="M73.6914 182.558H1116.66" stroke="#DBDBDB" stroke-opacity="0.5"/>
<path d="M73.6914 209.637H1116.66" stroke="#DBDBDB" stroke-opacity="0.5"/>
<path d="M95.1825 240.373V242.753H94.2585V239.505H95.3365C96.2419 239.272 96.6945 237.895 96.6945 235.375V230.573H103.569V239.505H105.235V242.753H104.311V240.373H95.1825ZM96.6945 239.505H102.645V231.441H97.6325V235.319C97.6325 237.307 97.3199 238.702 96.6945 239.505ZM113.594 236.999H107.07C107.126 237.764 107.43 238.408 107.98 238.931C108.54 239.435 109.222 239.687 110.024 239.687C110.528 239.687 110.99 239.58 111.41 239.365C111.83 239.141 112.171 238.838 112.432 238.455L113.272 238.735C112.946 239.286 112.498 239.72 111.928 240.037C111.359 240.345 110.724 240.499 110.024 240.499C108.932 240.499 108.018 240.14 107.28 239.421C106.552 238.712 106.188 237.816 106.188 236.733C106.188 235.65 106.543 234.754 107.252 234.045C107.971 233.326 108.853 232.967 109.898 232.967C110.944 232.967 111.826 233.326 112.544 234.045C113.254 234.754 113.608 235.65 113.608 236.733C113.608 236.873 113.604 236.962 113.594 236.999ZM107.084 236.271H112.712C112.61 235.543 112.292 234.946 111.76 234.479C111.238 234.012 110.612 233.779 109.884 233.779C109.156 233.779 108.531 234.012 108.008 234.479C107.495 234.936 107.187 235.534 107.084 236.271ZM121.113 240.373H120.007L116.591 236.607L119.713 233.093H120.805L117.683 236.607L121.113 240.373ZM116.199 233.093V240.373H115.331V233.093H116.199ZM128.643 231.735L126.515 232.911L126.123 232.113L128.937 230.573H129.539V240.373H128.643V231.735ZM137.558 240.373V238.273H131.972V237.405L137.628 230.573H138.454V237.391H139.952V238.273H138.454V240.373H137.558ZM137.558 231.945L133.078 237.391H137.558V231.945Z" fill="white"/>
<path d="M181.028 240.373V242.753H180.104V239.505H181.182C182.088 239.272 182.54 237.895 182.54 235.375V230.573H189.414V239.505H191.08V242.753H190.156V240.373H181.028ZM182.54 239.505H188.49V231.441H183.478V235.319C183.478 237.307 183.166 238.702 182.54 239.505ZM199.44 236.999H192.916C192.972 237.764 193.275 238.408 193.826 238.931C194.386 239.435 195.067 239.687 195.87 239.687C196.374 239.687 196.836 239.58 197.256 239.365C197.676 239.141 198.017 238.838 198.278 238.455L199.118 238.735C198.791 239.286 198.343 239.72 197.774 240.037C197.205 240.345 196.57 240.499 195.87 240.499C194.778 240.499 193.863 240.14 193.126 239.421C192.398 238.712 192.034 237.816 192.034 236.733C192.034 235.65 192.389 234.754 193.098 234.045C193.817 233.326 194.699 232.967 195.744 232.967C196.789 232.967 197.671 233.326 198.39 234.045C199.099 234.754 199.454 235.65 199.454 236.733C199.454 236.873 199.449 236.962 199.44 236.999ZM192.93 236.271H198.558C198.455 235.543 198.138 234.946 197.606 234.479C197.083 234.012 196.458 233.779 195.73 233.779C195.002 233.779 194.377 234.012 193.854 234.479C193.341 234.936 193.033 235.534 192.93 236.271ZM206.959 240.373H205.853L202.437 236.607L205.559 233.093H206.651L203.529 236.607L206.959 240.373ZM202.045 233.093V240.373H201.177V233.093H202.045ZM217.471 233.359C217.471 232.799 217.242 232.318 216.785 231.917C216.346 231.516 215.8 231.315 215.147 231.315C214.615 231.315 214.13 231.474 213.691 231.791C213.262 232.099 212.94 232.524 212.725 233.065L211.899 232.673C212.179 231.992 212.608 231.45 213.187 231.049C213.766 230.648 214.419 230.447 215.147 230.447C216.052 230.447 216.818 230.732 217.443 231.301C218.078 231.861 218.395 232.542 218.395 233.345C218.395 233.905 218.227 234.428 217.891 234.913C217.583 235.38 217.079 235.949 216.379 236.621L213.369 239.505H218.563V240.373H211.955V239.729L215.735 236.047L216.407 235.389C216.575 235.212 216.743 235.011 216.911 234.787C217.284 234.32 217.471 233.844 217.471 233.359ZM220.187 237.727C220.187 237.176 220.35 236.682 220.677 236.243C221.013 235.804 221.475 235.473 222.063 235.249C221.577 235.025 221.19 234.717 220.901 234.325C220.621 233.924 220.481 233.485 220.481 233.009C220.481 232.29 220.784 231.684 221.391 231.189C222.016 230.694 222.781 230.447 223.687 230.447C224.601 230.447 225.362 230.694 225.969 231.189C226.585 231.674 226.893 232.281 226.893 233.009C226.893 233.485 226.748 233.924 226.459 234.325C226.179 234.717 225.796 235.025 225.311 235.249C225.88 235.482 226.333 235.823 226.669 236.271C227.005 236.71 227.173 237.195 227.173 237.727C227.173 238.52 226.841 239.183 226.179 239.715C225.516 240.238 224.685 240.499 223.687 240.499C222.688 240.499 221.853 240.233 221.181 239.701C220.518 239.169 220.187 238.511 220.187 237.727ZM226.249 237.657C226.249 237.097 226.006 236.63 225.521 236.257C225.026 235.874 224.415 235.683 223.687 235.683C222.959 235.683 222.347 235.874 221.853 236.257C221.367 236.63 221.125 237.097 221.125 237.657C221.125 238.226 221.367 238.698 221.853 239.071C222.338 239.444 222.949 239.631 223.687 239.631C224.424 239.631 225.035 239.444 225.521 239.071C226.006 238.698 226.249 238.226 226.249 237.657ZM223.687 231.315C223.043 231.315 222.501 231.483 222.063 231.819C221.624 232.155 221.405 232.575 221.405 233.079C221.405 233.583 221.624 234.003 222.063 234.339C222.501 234.675 223.043 234.843 223.687 234.843C224.331 234.843 224.867 234.675 225.297 234.339C225.735 234.003 225.955 233.583 225.955 233.079C225.955 232.575 225.735 232.155 225.297 231.819C224.867 231.483 224.331 231.315 223.687 231.315Z" fill="white"/>
<path d="M266.222 236.425L263.772 240.373H262.736L265.2 236.355C264.5 236.206 263.93 235.87 263.492 235.347C263.053 234.824 262.834 234.208 262.834 233.499C262.834 232.668 263.128 231.973 263.716 231.413C264.304 230.853 265.036 230.573 265.914 230.573H270.282V240.373H269.358V236.425H266.222ZM265.914 235.557H269.358V231.441H265.914C265.298 231.441 264.789 231.642 264.388 232.043C263.986 232.435 263.786 232.92 263.786 233.499C263.786 234.078 263.986 234.568 264.388 234.969C264.798 235.361 265.307 235.557 265.914 235.557ZM273.525 237.083V240.373H272.657V233.093H273.525V236.243H278.369V233.093H279.237V240.373H278.369V237.083H273.525ZM281.503 233.093H285.171C285.703 233.093 286.16 233.247 286.543 233.555C286.935 233.854 287.168 234.232 287.243 234.689C287.262 234.782 287.271 234.876 287.271 234.969C287.271 235.632 286.986 236.15 286.417 236.523C286.781 236.691 287.07 236.934 287.285 237.251C287.5 237.568 287.607 237.923 287.607 238.315C287.607 238.903 287.402 239.393 286.991 239.785C286.59 240.177 286.076 240.373 285.451 240.373H281.503V233.093ZM282.371 236.971V239.533H285.451C285.815 239.533 286.114 239.412 286.347 239.169C286.59 238.926 286.711 238.623 286.711 238.259C286.711 237.895 286.59 237.592 286.347 237.349C286.114 237.097 285.815 236.971 285.451 236.971H282.371ZM285.171 233.933H282.371V236.229H285.171C285.516 236.229 285.801 236.122 286.025 235.907C286.258 235.683 286.375 235.408 286.375 235.081C286.375 234.754 286.258 234.484 286.025 234.269C285.801 234.045 285.516 233.933 285.171 233.933ZM295.499 231.735L293.371 232.911L292.979 232.113L295.793 230.573H296.395V240.373H295.499V231.735ZM301.446 231.735L299.318 232.911L298.926 232.113L301.74 230.573H302.342V240.373H301.446V231.735Z" fill="white"/>
<path d="M341.489 236.425L339.039 240.373H338.003L340.467 236.355C339.767 236.206 339.198 235.87 338.759 235.347C338.321 234.824 338.101 234.208 338.101 233.499C338.101 232.668 338.395 231.973 338.983 231.413C339.571 230.853 340.304 230.573 341.181 230.573H345.549V240.373H344.625V236.425H341.489ZM341.181 235.557H344.625V231.441H341.181C340.565 231.441 340.057 231.642 339.655 232.043C339.254 232.435 339.053 232.92 339.053 233.499C339.053 234.078 339.254 234.568 339.655 234.969C340.066 235.361 340.575 235.557 341.181 235.557ZM348.793 237.083V240.373H347.925V233.093H348.793V236.243H353.637V233.093H354.505V240.373H353.637V237.083H348.793ZM356.771 233.093H360.439C360.971 233.093 361.428 233.247 361.811 233.555C362.203 233.854 362.436 234.232 362.511 234.689C362.529 234.782 362.539 234.876 362.539 234.969C362.539 235.632 362.254 236.15 361.685 236.523C362.049 236.691 362.338 236.934 362.553 237.251C362.767 237.568 362.875 237.923 362.875 238.315C362.875 238.903 362.669 239.393 362.259 239.785C361.857 240.177 361.344 240.373 360.719 240.373H356.771V233.093ZM357.639 236.971V239.533H360.719C361.083 239.533 361.381 239.412 361.615 239.169C361.857 238.926 361.979 238.623 361.979 238.259C361.979 237.895 361.857 237.592 361.615 237.349C361.381 237.097 361.083 236.971 360.719 236.971H357.639ZM360.439 233.933H357.639V236.229H360.439C360.784 236.229 361.069 236.122 361.293 235.907C361.526 235.683 361.643 235.408 361.643 235.081C361.643 234.754 361.526 234.484 361.293 234.269C361.069 234.045 360.784 233.933 360.439 233.933ZM373.748 233.359C373.748 232.799 373.52 232.318 373.062 231.917C372.624 231.516 372.078 231.315 371.424 231.315C370.892 231.315 370.407 231.474 369.968 231.791C369.539 232.099 369.217 232.524 369.002 233.065L368.176 232.673C368.456 231.992 368.886 231.45 369.464 231.049C370.043 230.648 370.696 230.447 371.424 230.447C372.33 230.447 373.095 230.732 373.72 231.301C374.355 231.861 374.672 232.542 374.672 233.345C374.672 233.905 374.504 234.428 374.168 234.913C373.86 235.38 373.356 235.949 372.656 236.621L369.646 239.505H374.84V240.373H368.232V239.729L372.012 236.047L372.684 235.389C372.852 235.212 373.02 235.011 373.188 234.787C373.562 234.32 373.748 233.844 373.748 233.359ZM382.274 235.081C382.974 235.678 383.324 236.43 383.324 237.335C383.324 238.24 382.979 238.996 382.288 239.603C381.607 240.2 380.757 240.499 379.74 240.499C378.984 240.499 378.307 240.322 377.71 239.967C377.113 239.603 376.674 239.113 376.394 238.497L377.276 238.217C377.5 238.646 377.831 238.992 378.27 239.253C378.718 239.505 379.208 239.631 379.74 239.631C380.477 239.631 381.107 239.412 381.63 238.973C382.143 238.544 382.4 237.998 382.4 237.335C382.4 236.672 382.139 236.122 381.616 235.683C381.103 235.235 380.454 235.011 379.67 235.011H377.108L377.556 230.573H382.568V231.413H378.312L378.032 234.171H379.698C380.725 234.171 381.583 234.474 382.274 235.081Z" fill="white"/>
<path d="M423.059 231.511V230.447H423.983V231.511C425.374 231.53 426.503 231.903 427.371 232.631C428.248 233.368 428.687 234.316 428.687 235.473C428.687 236.63 428.248 237.578 427.371 238.315C426.503 239.043 425.374 239.416 423.983 239.435V240.499H423.059V239.435C421.659 239.416 420.525 239.043 419.657 238.315C418.78 237.578 418.341 236.63 418.341 235.473C418.341 234.316 418.78 233.368 419.657 232.631C420.525 231.903 421.659 231.53 423.059 231.511ZM423.059 238.539V232.407C421.948 232.407 421.048 232.692 420.357 233.261C419.657 233.84 419.307 234.577 419.307 235.473C419.307 236.369 419.657 237.106 420.357 237.685C421.048 238.254 421.948 238.539 423.059 238.539ZM423.983 232.407V238.539C425.094 238.52 425.994 238.231 426.685 237.671C427.385 237.102 427.735 236.369 427.735 235.473C427.735 234.577 427.385 233.844 426.685 233.275C425.994 232.715 425.094 232.426 423.983 232.407ZM437.598 236.999H431.074C431.13 237.764 431.434 238.408 431.984 238.931C432.544 239.435 433.226 239.687 434.028 239.687C434.532 239.687 434.994 239.58 435.414 239.365C435.834 239.141 436.175 238.838 436.436 238.455L437.276 238.735C436.95 239.286 436.502 239.72 435.932 240.037C435.363 240.345 434.728 240.499 434.028 240.499C432.936 240.499 432.022 240.14 431.284 239.421C430.556 238.712 430.192 237.816 430.192 236.733C430.192 235.65 430.547 234.754 431.256 234.045C431.975 233.326 432.857 232.967 433.902 232.967C434.948 232.967 435.83 233.326 436.548 234.045C437.258 234.754 437.612 235.65 437.612 236.733C437.612 236.873 437.608 236.962 437.598 236.999ZM431.088 236.271H436.716C436.614 235.543 436.296 234.946 435.764 234.479C435.242 234.012 434.616 233.779 433.888 233.779C433.16 233.779 432.535 234.012 432.012 234.479C431.499 234.936 431.191 235.534 431.088 236.271ZM439.335 233.093H443.003C443.535 233.093 443.993 233.247 444.375 233.555C444.767 233.854 445.001 234.232 445.075 234.689C445.094 234.782 445.103 234.876 445.103 234.969C445.103 235.632 444.819 236.15 444.249 236.523C444.613 236.691 444.903 236.934 445.117 237.251C445.332 237.568 445.439 237.923 445.439 238.315C445.439 238.903 445.234 239.393 444.823 239.785C444.422 240.177 443.909 240.373 443.283 240.373H439.335V233.093ZM440.203 236.971V239.533H443.283C443.647 239.533 443.946 239.412 444.179 239.169C444.422 238.926 444.543 238.623 444.543 238.259C444.543 237.895 444.422 237.592 444.179 237.349C443.946 237.097 443.647 236.971 443.283 236.971H440.203ZM443.003 233.933H440.203V236.229H443.003C443.349 236.229 443.633 236.122 443.857 235.907C444.091 235.683 444.207 235.408 444.207 235.081C444.207 234.754 444.091 234.484 443.857 234.269C443.633 234.045 443.349 233.933 443.003 233.933ZM450.853 237.727C450.853 237.176 451.016 236.682 451.343 236.243C451.679 235.804 452.141 235.473 452.729 235.249C452.243 235.025 451.856 234.717 451.567 234.325C451.287 233.924 451.147 233.485 451.147 233.009C451.147 232.29 451.45 231.684 452.057 231.189C452.682 230.694 453.447 230.447 454.353 230.447C455.267 230.447 456.028 230.694 456.635 231.189C457.251 231.674 457.559 232.281 457.559 233.009C457.559 233.485 457.414 233.924 457.125 234.325C456.845 234.717 456.462 235.025 455.977 235.249C456.546 235.482 456.999 235.823 457.335 236.271C457.671 236.71 457.839 237.195 457.839 237.727C457.839 238.52 457.507 239.183 456.845 239.715C456.182 240.238 455.351 240.499 454.353 240.499C453.354 240.499 452.519 240.233 451.847 239.701C451.184 239.169 450.853 238.511 450.853 237.727ZM456.915 237.657C456.915 237.097 456.672 236.63 456.187 236.257C455.692 235.874 455.081 235.683 454.353 235.683C453.625 235.683 453.013 235.874 452.519 236.257C452.033 236.63 451.791 237.097 451.791 237.657C451.791 238.226 452.033 238.698 452.519 239.071C453.004 239.444 453.615 239.631 454.353 239.631C455.09 239.631 455.701 239.444 456.187 239.071C456.672 238.698 456.915 238.226 456.915 237.657ZM454.353 231.315C453.709 231.315 453.167 231.483 452.729 231.819C452.29 232.155 452.071 232.575 452.071 233.079C452.071 233.583 452.29 234.003 452.729 234.339C453.167 234.675 453.709 234.843 454.353 234.843C454.997 234.843 455.533 234.675 455.963 234.339C456.401 234.003 456.621 233.583 456.621 233.079C456.621 232.575 456.401 232.155 455.963 231.819C455.533 231.483 454.997 231.315 454.353 231.315Z" fill="white"/>
<path d="M503.905 231.511V230.447H504.829V231.511C506.219 231.53 507.349 231.903 508.217 232.631C509.094 233.368 509.533 234.316 509.533 235.473C509.533 236.63 509.094 237.578 508.217 238.315C507.349 239.043 506.219 239.416 504.829 239.435V240.499H503.905V239.435C502.505 239.416 501.371 239.043 500.503 238.315C499.625 237.578 499.187 236.63 499.187 235.473C499.187 234.316 499.625 233.368 500.503 232.631C501.371 231.903 502.505 231.53 503.905 231.511ZM503.905 238.539V232.407C502.794 232.407 501.893 232.692 501.203 233.261C500.503 233.84 500.153 234.577 500.153 235.473C500.153 236.369 500.503 237.106 501.203 237.685C501.893 238.254 502.794 238.539 503.905 238.539ZM504.829 232.407V238.539C505.939 238.52 506.84 238.231 507.531 237.671C508.231 237.102 508.581 236.369 508.581 235.473C508.581 234.577 508.231 233.844 507.531 233.275C506.84 232.715 505.939 232.426 504.829 232.407ZM518.444 236.999H511.92C511.976 237.764 512.279 238.408 512.83 238.931C513.39 239.435 514.071 239.687 514.874 239.687C515.378 239.687 515.84 239.58 516.26 239.365C516.68 239.141 517.021 238.838 517.282 238.455L518.122 238.735C517.795 239.286 517.347 239.72 516.778 240.037C516.209 240.345 515.574 240.499 514.874 240.499C513.782 240.499 512.867 240.14 512.13 239.421C511.402 238.712 511.038 237.816 511.038 236.733C511.038 235.65 511.393 234.754 512.102 234.045C512.821 233.326 513.703 232.967 514.748 232.967C515.793 232.967 516.675 233.326 517.394 234.045C518.103 234.754 518.458 235.65 518.458 236.733C518.458 236.873 518.453 236.962 518.444 236.999ZM511.934 236.271H517.562C517.459 235.543 517.142 234.946 516.61 234.479C516.087 234.012 515.462 233.779 514.734 233.779C514.006 233.779 513.381 234.012 512.858 234.479C512.345 234.936 512.037 235.534 511.934 236.271ZM520.181 233.093H523.849C524.381 233.093 524.838 233.247 525.221 233.555C525.613 233.854 525.846 234.232 525.921 234.689C525.94 234.782 525.949 234.876 525.949 234.969C525.949 235.632 525.664 236.15 525.095 236.523C525.459 236.691 525.748 236.934 525.963 237.251C526.178 237.568 526.285 237.923 526.285 238.315C526.285 238.903 526.08 239.393 525.669 239.785C525.268 240.177 524.754 240.373 524.129 240.373H520.181V233.093ZM521.049 236.971V239.533H524.129C524.493 239.533 524.792 239.412 525.025 239.169C525.268 238.926 525.389 238.623 525.389 238.259C525.389 237.895 525.268 237.592 525.025 237.349C524.792 237.097 524.493 236.971 524.129 236.971H521.049ZM523.849 233.933H521.049V236.229H523.849C524.194 236.229 524.479 236.122 524.703 235.907C524.936 235.683 525.053 235.408 525.053 235.081C525.053 234.754 524.936 234.484 524.703 234.269C524.479 234.045 524.194 233.933 523.849 233.933ZM537.158 233.359C537.158 232.799 536.93 232.318 536.472 231.917C536.034 231.516 535.488 231.315 534.834 231.315C534.302 231.315 533.817 231.474 533.378 231.791C532.949 232.099 532.627 232.524 532.412 233.065L531.586 232.673C531.866 231.992 532.296 231.45 532.874 231.049C533.453 230.648 534.106 230.447 534.834 230.447C535.74 230.447 536.505 230.732 537.13 231.301C537.765 231.861 538.082 232.542 538.082 233.345C538.082 233.905 537.914 234.428 537.578 234.913C537.27 235.38 536.766 235.949 536.066 236.621L533.056 239.505H538.25V240.373H531.642V239.729L535.422 236.047L536.094 235.389C536.262 235.212 536.43 235.011 536.598 234.787C536.972 234.32 537.158 233.844 537.158 233.359ZM545.334 233.359C545.334 232.799 545.106 232.318 544.648 231.917C544.21 231.516 543.664 231.315 543.01 231.315C542.478 231.315 541.993 231.474 541.554 231.791C541.125 232.099 540.803 232.524 540.588 233.065L539.762 232.673C540.042 231.992 540.472 231.45 541.05 231.049C541.629 230.648 542.282 230.447 543.01 230.447C543.916 230.447 544.681 230.732 545.306 231.301C545.941 231.861 546.258 232.542 546.258 233.345C546.258 233.905 546.09 234.428 545.754 234.913C545.446 235.38 544.942 235.949 544.242 236.621L541.232 239.505H546.426V240.373H539.818V239.729L543.598 236.047L544.27 235.389C544.438 235.212 544.606 235.011 544.774 234.787C545.148 234.32 545.334 233.844 545.334 233.359Z" fill="white"/>
<path d="M579.988 240.373H579.064V230.573H579.988L584.16 237.839L588.346 230.573H589.27V240.373H588.346V232.323L584.468 239.085H583.866L579.988 232.337V240.373ZM594.818 232.967C596.068 232.967 597.034 233.462 597.716 234.451V233.093H598.584V240.373H597.716V239.015C597.389 239.482 596.974 239.846 596.47 240.107C595.966 240.368 595.415 240.499 594.818 240.499C593.791 240.499 592.932 240.14 592.242 239.421C591.56 238.712 591.22 237.816 591.22 236.733C591.22 235.65 591.56 234.754 592.242 234.045C592.932 233.326 593.791 232.967 594.818 232.967ZM596.89 234.675C596.358 234.115 595.695 233.835 594.902 233.835C594.108 233.835 593.446 234.115 592.914 234.675C592.382 235.226 592.116 235.912 592.116 236.733C592.116 237.554 592.382 238.245 592.914 238.805C593.446 239.356 594.108 239.631 594.902 239.631C595.695 239.631 596.358 239.356 596.89 238.805C597.422 238.245 597.688 237.554 597.688 236.733C597.688 235.912 597.422 235.226 596.89 234.675ZM601.723 243.523H600.855V233.093H601.723V234.451C602.404 233.462 603.37 232.967 604.621 232.967C605.638 232.967 606.492 233.326 607.183 234.045C607.873 234.764 608.219 235.66 608.219 236.733C608.219 237.806 607.873 238.702 607.183 239.421C606.492 240.14 605.638 240.499 604.621 240.499C604.023 240.499 603.473 240.368 602.969 240.107C602.465 239.846 602.049 239.482 601.723 239.015V243.523ZM606.525 234.675C605.993 234.115 605.33 233.835 604.537 233.835C603.743 233.835 603.081 234.115 602.549 234.675C602.017 235.226 601.751 235.912 601.751 236.733C601.751 237.554 602.017 238.245 602.549 238.805C603.081 239.356 603.743 239.631 604.537 239.631C605.33 239.631 605.993 239.356 606.525 238.805C607.057 238.245 607.323 237.554 607.323 236.733C607.323 235.912 607.057 235.226 606.525 234.675ZM613.685 237.727C613.685 237.176 613.848 236.682 614.175 236.243C614.511 235.804 614.973 235.473 615.561 235.249C615.075 235.025 614.688 234.717 614.399 234.325C614.119 233.924 613.979 233.485 613.979 233.009C613.979 232.29 614.282 231.684 614.889 231.189C615.514 230.694 616.279 230.447 617.185 230.447C618.099 230.447 618.86 230.694 619.467 231.189C620.083 231.674 620.391 232.281 620.391 233.009C620.391 233.485 620.246 233.924 619.957 234.325C619.677 234.717 619.294 235.025 618.809 235.249C619.378 235.482 619.831 235.823 620.167 236.271C620.503 236.71 620.671 237.195 620.671 237.727C620.671 238.52 620.339 239.183 619.677 239.715C619.014 240.238 618.183 240.499 617.185 240.499C616.186 240.499 615.351 240.233 614.679 239.701C614.016 239.169 613.685 238.511 613.685 237.727ZM619.747 237.657C619.747 237.097 619.504 236.63 619.019 236.257C618.524 235.874 617.913 235.683 617.185 235.683C616.457 235.683 615.845 235.874 615.351 236.257C614.865 236.63 614.623 237.097 614.623 237.657C614.623 238.226 614.865 238.698 615.351 239.071C615.836 239.444 616.447 239.631 617.185 239.631C617.922 239.631 618.533 239.444 619.019 239.071C619.504 238.698 619.747 238.226 619.747 237.657ZM617.185 231.315C616.541 231.315 615.999 231.483 615.561 231.819C615.122 232.155 614.903 232.575 614.903 233.079C614.903 233.583 615.122 234.003 615.561 234.339C615.999 234.675 616.541 234.843 617.185 234.843C617.829 234.843 618.365 234.675 618.795 234.339C619.233 234.003 619.453 233.583 619.453 233.079C619.453 232.575 619.233 232.155 618.795 231.819C618.365 231.483 617.829 231.315 617.185 231.315Z" fill="white"/>
<path d="M656.256 240.373H655.332V230.573H656.256L660.428 237.839L664.614 230.573H665.538V240.373H664.614V232.323L660.736 239.085H660.134L656.256 232.337V240.373ZM671.085 232.967C672.336 232.967 673.302 233.462 673.983 234.451V233.093H674.851V240.373H673.983V239.015C673.656 239.482 673.241 239.846 672.737 240.107C672.233 240.368 671.682 240.499 671.085 240.499C670.058 240.499 669.2 240.14 668.509 239.421C667.828 238.712 667.487 237.816 667.487 236.733C667.487 235.65 667.828 234.754 668.509 234.045C669.2 233.326 670.058 232.967 671.085 232.967ZM673.157 234.675C672.625 234.115 671.962 233.835 671.169 233.835C670.376 233.835 669.713 234.115 669.181 234.675C668.649 235.226 668.383 235.912 668.383 236.733C668.383 237.554 668.649 238.245 669.181 238.805C669.713 239.356 670.376 239.631 671.169 239.631C671.962 239.631 672.625 239.356 673.157 238.805C673.689 238.245 673.955 237.554 673.955 236.733C673.955 235.912 673.689 235.226 673.157 234.675ZM677.99 243.523H677.122V233.093H677.99V234.451C678.672 233.462 679.638 232.967 680.888 232.967C681.906 232.967 682.76 233.326 683.45 234.045C684.141 234.764 684.486 235.66 684.486 236.733C684.486 237.806 684.141 238.702 683.45 239.421C682.76 240.14 681.906 240.499 680.888 240.499C680.291 240.499 679.74 240.368 679.236 240.107C678.732 239.846 678.317 239.482 677.99 239.015V243.523ZM682.792 234.675C682.26 234.115 681.598 233.835 680.804 233.835C680.011 233.835 679.348 234.115 678.816 234.675C678.284 235.226 678.018 235.912 678.018 236.733C678.018 237.554 678.284 238.245 678.816 238.805C679.348 239.356 680.011 239.631 680.804 239.631C681.598 239.631 682.26 239.356 682.792 238.805C683.324 238.245 683.59 237.554 683.59 236.733C683.59 235.912 683.324 235.226 682.792 234.675ZM695.412 233.359C695.412 232.799 695.184 232.318 694.726 231.917C694.288 231.516 693.742 231.315 693.088 231.315C692.556 231.315 692.071 231.474 691.632 231.791C691.203 232.099 690.881 232.524 690.666 233.065L689.84 232.673C690.12 231.992 690.55 231.45 691.128 231.049C691.707 230.648 692.36 230.447 693.088 230.447C693.994 230.447 694.759 230.732 695.384 231.301C696.019 231.861 696.336 232.542 696.336 233.345C696.336 233.905 696.168 234.428 695.832 234.913C695.524 235.38 695.02 235.949 694.32 236.621L691.31 239.505H696.504V240.373H689.896V239.729L693.676 236.047L694.348 235.389C694.516 235.212 694.684 235.011 694.852 234.787C695.226 234.32 695.412 233.844 695.412 233.359ZM703.588 233.359C703.588 232.799 703.359 232.318 702.902 231.917C702.463 231.516 701.917 231.315 701.264 231.315C700.732 231.315 700.247 231.474 699.808 231.791C699.379 232.099 699.057 232.524 698.842 233.065L698.016 232.673C698.296 231.992 698.725 231.45 699.304 231.049C699.883 230.648 700.536 230.447 701.264 230.447C702.169 230.447 702.935 230.732 703.56 231.301C704.195 231.861 704.512 232.542 704.512 233.345C704.512 233.905 704.344 234.428 704.008 234.913C703.7 235.38 703.196 235.949 702.496 236.621L699.486 239.505H704.68V240.373H698.072V239.729L701.852 236.047L702.524 235.389C702.692 235.212 702.86 235.011 703.028 234.787C703.401 234.32 703.588 233.844 703.588 233.359Z" fill="white"/>
<path d="M740.642 240.373H739.662L744.016 230.573H744.744L749.098 240.373H748.118L747.068 237.979H741.706L740.642 240.373ZM746.676 237.111L744.38 231.917L742.084 237.111H746.676ZM751.404 233.933V240.373H750.536V233.093H757.018V240.373H756.15V233.933H751.404ZM760.154 243.523H759.286V233.093H760.154V234.451C760.836 233.462 761.802 232.967 763.052 232.967C764.07 232.967 764.924 233.326 765.614 234.045C766.305 234.764 766.65 235.66 766.65 236.733C766.65 237.806 766.305 238.702 765.614 239.421C764.924 240.14 764.07 240.499 763.052 240.499C762.455 240.499 761.904 240.368 761.4 240.107C760.896 239.846 760.481 239.482 760.154 239.015V243.523ZM764.956 234.675C764.424 234.115 763.762 233.835 762.968 233.835C762.175 233.835 761.512 234.115 760.98 234.675C760.448 235.226 760.182 235.912 760.182 236.733C760.182 237.554 760.448 238.245 760.98 238.805C761.512 239.356 762.175 239.631 762.968 239.631C763.762 239.631 764.424 239.356 764.956 238.805C765.488 238.245 765.754 237.554 765.754 236.733C765.754 235.912 765.488 235.226 764.956 234.675ZM777.926 235.081C778.626 235.678 778.976 236.43 778.976 237.335C778.976 238.24 778.631 238.996 777.94 239.603C777.259 240.2 776.41 240.499 775.392 240.499C774.636 240.499 773.96 240.322 773.362 239.967C772.765 239.603 772.326 239.113 772.046 238.497L772.928 238.217C773.152 238.646 773.484 238.992 773.922 239.253C774.37 239.505 774.86 239.631 775.392 239.631C776.13 239.631 776.76 239.412 777.282 238.973C777.796 238.544 778.052 237.998 778.052 237.335C778.052 236.672 777.791 236.122 777.268 235.683C776.755 235.235 776.106 235.011 775.322 235.011H772.76L773.208 230.573H778.22V231.413H773.964L773.684 234.171H775.35C776.377 234.171 777.236 234.474 777.926 235.081Z" fill="white"/>
<path d="M824.704 240.373H823.724L828.078 230.573H828.806L833.16 240.373H832.18L831.13 237.979H825.768L824.704 240.373ZM830.738 237.111L828.442 231.917L826.146 237.111H830.738ZM835.467 233.933V240.373H834.599V233.093H841.081V240.373H840.213V233.933H835.467ZM844.217 243.523H843.349V233.093H844.217V234.451C844.898 233.462 845.864 232.967 847.115 232.967C848.132 232.967 848.986 233.326 849.677 234.045C850.368 234.764 850.713 235.66 850.713 236.733C850.713 237.806 850.368 238.702 849.677 239.421C848.986 240.14 848.132 240.499 847.115 240.499C846.518 240.499 845.967 240.368 845.463 240.107C844.959 239.846 844.544 239.482 844.217 239.015V243.523ZM849.019 234.675C848.487 234.115 847.824 233.835 847.031 233.835C846.238 233.835 845.575 234.115 845.043 234.675C844.511 235.226 844.245 235.912 844.245 236.733C844.245 237.554 844.511 238.245 845.043 238.805C845.575 239.356 846.238 239.631 847.031 239.631C847.824 239.631 848.487 239.356 849.019 238.805C849.551 238.245 849.817 237.554 849.817 236.733C849.817 235.912 849.551 235.226 849.019 234.675ZM858.657 231.735L856.529 232.911L856.137 232.113L858.951 230.573H859.553V240.373H858.657V231.735ZM862.224 238.833L863.05 238.413C863.283 238.786 863.61 239.085 864.03 239.309C864.45 239.524 864.912 239.631 865.416 239.631C866.219 239.631 866.877 239.388 867.39 238.903C867.922 238.408 868.188 237.802 868.188 237.083V235.571C867.927 236.019 867.563 236.374 867.096 236.635C866.639 236.887 866.135 237.013 865.584 237.013C864.585 237.013 863.755 236.7 863.092 236.075C862.42 235.45 862.084 234.666 862.084 233.723C862.084 232.799 862.415 232.02 863.078 231.385C863.741 230.76 864.576 230.447 865.584 230.447C866.573 230.447 867.404 230.755 868.076 231.371C868.748 231.978 869.084 232.734 869.084 233.639V237.069C869.084 238.049 868.729 238.866 868.02 239.519C867.329 240.172 866.457 240.499 865.402 240.499C864.73 240.499 864.109 240.35 863.54 240.051C862.98 239.752 862.541 239.346 862.224 238.833ZM867.404 235.459C867.899 234.992 868.146 234.418 868.146 233.737C868.146 233.056 867.899 232.482 867.404 232.015C866.909 231.548 866.303 231.315 865.584 231.315C864.847 231.315 864.235 231.544 863.75 232.001C863.255 232.468 863.008 233.037 863.008 233.709C863.008 234.4 863.255 234.978 863.75 235.445C864.245 235.912 864.856 236.145 865.584 236.145C866.312 236.145 866.919 235.916 867.404 235.459Z" fill="white"/>
<path d="M904.854 240.373H903.93V230.573H904.854L909.026 237.839L913.212 230.573H914.136V240.373H913.212V232.323L909.334 239.085H908.732L904.854 232.337V240.373ZM919.683 232.967C920.933 232.967 921.899 233.462 922.581 234.451V233.093H923.449V240.373H922.581V239.015C922.254 239.482 921.839 239.846 921.335 240.107C920.831 240.368 920.28 240.499 919.683 240.499C918.656 240.499 917.797 240.14 917.107 239.421C916.425 238.712 916.085 237.816 916.085 236.733C916.085 235.65 916.425 234.754 917.107 234.045C917.797 233.326 918.656 232.967 919.683 232.967ZM921.755 234.675C921.223 234.115 920.56 233.835 919.767 233.835C918.973 233.835 918.311 234.115 917.779 234.675C917.247 235.226 916.981 235.912 916.981 236.733C916.981 237.554 917.247 238.245 917.779 238.805C918.311 239.356 918.973 239.631 919.767 239.631C920.56 239.631 921.223 239.356 921.755 238.805C922.287 238.245 922.553 237.554 922.553 236.733C922.553 235.912 922.287 235.226 921.755 234.675ZM925.412 235.319C925.412 234.684 925.622 234.157 926.042 233.737C926.462 233.308 926.989 233.093 927.624 233.093H931.53V240.373H930.662V237.559H928.422L926.462 240.373H925.44L927.386 237.545C926.817 237.489 926.341 237.256 925.958 236.845C925.594 236.425 925.412 235.916 925.412 235.319ZM930.662 233.933H927.624C927.251 233.933 926.938 234.068 926.686 234.339C926.434 234.6 926.308 234.927 926.308 235.319C926.308 235.72 926.434 236.056 926.686 236.327C926.938 236.588 927.251 236.719 927.624 236.719H930.662V233.933ZM942.945 233.107C942.945 232.612 942.721 232.188 942.273 231.833C941.834 231.488 941.279 231.315 940.607 231.315C940.084 231.315 939.613 231.432 939.193 231.665C938.782 231.889 938.484 232.197 938.297 232.589L937.485 232.197C937.746 231.656 938.152 231.231 938.703 230.923C939.263 230.606 939.898 230.447 940.607 230.447C941.531 230.447 942.306 230.704 942.931 231.217C943.556 231.721 943.869 232.346 943.869 233.093C943.869 233.569 943.724 234.008 943.435 234.409C943.146 234.801 942.749 235.104 942.245 235.319C942.814 235.543 943.262 235.87 943.589 236.299C943.925 236.719 944.093 237.195 944.093 237.727C944.093 238.52 943.762 239.183 943.099 239.715C942.436 240.238 941.61 240.499 940.621 240.499C939.865 240.499 939.193 240.336 938.605 240.009C938.017 239.682 937.597 239.244 937.345 238.693L938.213 238.357C938.39 238.749 938.694 239.062 939.123 239.295C939.552 239.519 940.052 239.631 940.621 239.631C941.34 239.631 941.946 239.449 942.441 239.085C942.926 238.712 943.169 238.25 943.169 237.699C943.169 237.158 942.931 236.705 942.455 236.341C941.988 235.977 941.4 235.795 940.691 235.795H939.963V234.941H940.509C941.209 234.941 941.788 234.768 942.245 234.423C942.712 234.068 942.945 233.63 942.945 233.107Z" fill="white"/>
<path d="M985.471 240.373H984.547V230.573H985.471L989.643 237.839L993.829 230.573H994.753V240.373H993.829V232.323L989.951 239.085H989.349L985.471 232.337V240.373ZM1000.3 232.967C1001.55 232.967 1002.52 233.462 1003.2 234.451V233.093H1004.07V240.373H1003.2V239.015C1002.87 239.482 1002.46 239.846 1001.95 240.107C1001.45 240.368 1000.9 240.499 1000.3 240.499C999.273 240.499 998.415 240.14 997.724 239.421C997.043 238.712 996.702 237.816 996.702 236.733C996.702 235.65 997.043 234.754 997.724 234.045C998.415 233.326 999.273 232.967 1000.3 232.967ZM1002.37 234.675C1001.84 234.115 1001.18 233.835 1000.38 233.835C999.591 233.835 998.928 234.115 998.396 234.675C997.864 235.226 997.598 235.912 997.598 236.733C997.598 237.554 997.864 238.245 998.396 238.805C998.928 239.356 999.591 239.631 1000.38 239.631C1001.18 239.631 1001.84 239.356 1002.37 238.805C1002.9 238.245 1003.17 237.554 1003.17 236.733C1003.17 235.912 1002.9 235.226 1002.37 234.675ZM1006.03 235.319C1006.03 234.684 1006.24 234.157 1006.66 233.737C1007.08 233.308 1007.61 233.093 1008.24 233.093H1012.15V240.373H1011.28V237.559H1009.04L1007.08 240.373H1006.06L1008 237.545C1007.43 237.489 1006.96 237.256 1006.58 236.845C1006.21 236.425 1006.03 235.916 1006.03 235.319ZM1011.28 233.933H1008.24C1007.87 233.933 1007.56 234.068 1007.3 234.339C1007.05 234.6 1006.93 234.927 1006.93 235.319C1006.93 235.72 1007.05 236.056 1007.3 236.327C1007.56 236.588 1007.87 236.719 1008.24 236.719H1011.28V233.933ZM1020.52 231.735L1018.4 232.911L1018 232.113L1020.82 230.573H1021.42V240.373H1020.52V231.735ZM1025.38 240.373L1028.91 231.413H1023.56V230.573H1029.86V231.441L1026.35 240.373H1025.38Z" fill="white"/>
<path d="M1065.74 240.373H1064.81V230.573H1065.74L1069.91 237.839L1074.1 230.573H1075.02V240.373H1074.1V232.323L1070.22 239.085H1069.62L1065.74 232.337V240.373ZM1080.57 232.967C1081.82 232.967 1082.78 233.462 1083.47 234.451V233.093H1084.33V240.373H1083.47V239.015C1083.14 239.482 1082.72 239.846 1082.22 240.107C1081.72 240.368 1081.16 240.499 1080.57 240.499C1079.54 240.499 1078.68 240.14 1077.99 239.421C1077.31 238.712 1076.97 237.816 1076.97 236.733C1076.97 235.65 1077.31 234.754 1077.99 234.045C1078.68 233.326 1079.54 232.967 1080.57 232.967ZM1082.64 234.675C1082.11 234.115 1081.44 233.835 1080.65 233.835C1079.86 233.835 1079.2 234.115 1078.66 234.675C1078.13 235.226 1077.87 235.912 1077.87 236.733C1077.87 237.554 1078.13 238.245 1078.66 238.805C1079.2 239.356 1079.86 239.631 1080.65 239.631C1081.44 239.631 1082.11 239.356 1082.64 238.805C1083.17 238.245 1083.44 237.554 1083.44 236.733C1083.44 235.912 1083.17 235.226 1082.64 234.675ZM1086.3 235.319C1086.3 234.684 1086.51 234.157 1086.93 233.737C1087.35 233.308 1087.87 233.093 1088.51 233.093H1092.41V240.373H1091.55V237.559H1089.31L1087.35 240.373H1086.32L1088.27 237.545C1087.7 237.489 1087.23 237.256 1086.84 236.845C1086.48 236.425 1086.3 235.916 1086.3 235.319ZM1091.55 233.933H1088.51C1088.14 233.933 1087.82 234.068 1087.57 234.339C1087.32 234.6 1087.19 234.927 1087.19 235.319C1087.19 235.72 1087.32 236.056 1087.57 236.327C1087.82 236.588 1088.14 236.719 1088.51 236.719H1091.55V233.933ZM1103.83 233.107C1103.83 232.612 1103.61 232.188 1103.16 231.833C1102.72 231.488 1102.16 231.315 1101.49 231.315C1100.97 231.315 1100.5 231.432 1100.08 231.665C1099.67 231.889 1099.37 232.197 1099.18 232.589L1098.37 232.197C1098.63 231.656 1099.04 231.231 1099.59 230.923C1100.15 230.606 1100.78 230.447 1101.49 230.447C1102.42 230.447 1103.19 230.704 1103.82 231.217C1104.44 231.721 1104.75 232.346 1104.75 233.093C1104.75 233.569 1104.61 234.008 1104.32 234.409C1104.03 234.801 1103.63 235.104 1103.13 235.319C1103.7 235.543 1104.15 235.87 1104.47 236.299C1104.81 236.719 1104.98 237.195 1104.98 237.727C1104.98 238.52 1104.65 239.183 1103.98 239.715C1103.32 240.238 1102.49 240.499 1101.51 240.499C1100.75 240.499 1100.08 240.336 1099.49 240.009C1098.9 239.682 1098.48 239.244 1098.23 238.693L1099.1 238.357C1099.27 238.749 1099.58 239.062 1100.01 239.295C1100.44 239.519 1100.94 239.631 1101.51 239.631C1102.22 239.631 1102.83 239.449 1103.33 239.085C1103.81 238.712 1104.05 238.25 1104.05 237.699C1104.05 237.158 1103.82 236.705 1103.34 236.341C1102.87 235.977 1102.28 235.795 1101.58 235.795H1100.85V234.941H1101.39C1102.09 234.941 1102.67 234.768 1103.13 234.423C1103.6 234.068 1103.83 233.63 1103.83 233.107ZM1109.06 231.735L1106.94 232.911L1106.54 232.113L1109.36 230.573H1109.96V240.373H1109.06V231.735Z" fill="white"/>
<path d="M39.0748 53.9284L36.9468 55.1044L36.5548 54.3064L39.3688 52.7664H39.9708V62.5664H39.0748V53.9284ZM42.6981 59.2484V56.0844C42.6981 55.1137 43.0434 54.2971 43.7341 53.6344C44.4434 52.9717 45.3114 52.6404 46.3381 52.6404C47.3834 52.6404 48.2514 52.9717 48.9421 53.6344C49.6421 54.2877 49.9921 55.1044 49.9921 56.0844V59.2484C49.9921 60.2284 49.6421 61.0497 48.9421 61.7124C48.2608 62.3657 47.3928 62.6924 46.3381 62.6924C45.2928 62.6924 44.4248 62.3657 43.7341 61.7124C43.0434 61.0497 42.6981 60.2284 42.6981 59.2484ZM43.5941 56.0704V59.2624C43.5941 59.9904 43.8554 60.6017 44.3781 61.0964C44.9008 61.5817 45.5541 61.8244 46.3381 61.8244C47.1221 61.8244 47.7754 61.5817 48.2981 61.0964C48.8301 60.6017 49.0961 59.9904 49.0961 59.2624V56.0704C49.0961 55.3424 48.8301 54.7357 48.2981 54.2504C47.7568 53.7557 47.1034 53.5084 46.3381 53.5084C45.5728 53.5084 44.9194 53.7557 44.3781 54.2504C43.8554 54.7451 43.5941 55.3517 43.5941 56.0704Z" fill="white"/>
<path d="M42.0568 81.5719C42.0568 81.0119 41.8282 80.5313 41.3708 80.1299C40.9322 79.7286 40.3862 79.5279 39.7328 79.5279C39.2008 79.5279 38.7155 79.6866 38.2768 80.0039C37.8475 80.3119 37.5255 80.7366 37.3108 81.2779L36.4848 80.8859C36.7648 80.2046 37.1942 79.6633 37.7728 79.2619C38.3515 78.8606 39.0048 78.6599 39.7328 78.6599C40.6382 78.6599 41.4035 78.9446 42.0288 79.5139C42.6635 80.0739 42.9808 80.7553 42.9808 81.5579C42.9808 82.1179 42.8128 82.6406 42.4768 83.1259C42.1688 83.5926 41.6648 84.1619 40.9648 84.8339L37.9548 87.7179H43.1488V88.5859H36.5408V87.9419L40.3208 84.2599L40.9928 83.6019C41.1608 83.4246 41.3288 83.2239 41.4968 82.9999C41.8702 82.5333 42.0568 82.0573 42.0568 81.5719ZM44.9266 85.2679V82.1039C44.9266 81.1333 45.2719 80.3166 45.9626 79.6539C46.6719 78.9913 47.5399 78.6599 48.5666 78.6599C49.6119 78.6599 50.4799 78.9913 51.1706 79.6539C51.8706 80.3073 52.2206 81.1239 52.2206 82.1039V85.2679C52.2206 86.2479 51.8706 87.0693 51.1706 87.7319C50.4893 88.3853 49.6213 88.7119 48.5666 88.7119C47.5213 88.7119 46.6533 88.3853 45.9626 87.7319C45.2719 87.0693 44.9266 86.2479 44.9266 85.2679ZM45.8226 82.0899V85.2819C45.8226 86.0099 46.0839 86.6213 46.6066 87.1159C47.1293 87.6013 47.7826 87.8439 48.5666 87.8439C49.3506 87.8439 50.0039 87.6013 50.5266 87.1159C51.0586 86.6213 51.3246 86.0099 51.3246 85.2819V82.0899C51.3246 81.3619 51.0586 80.7553 50.5266 80.2699C49.9853 79.7753 49.3319 79.5279 48.5666 79.5279C47.8013 79.5279 47.1479 79.7753 46.6066 80.2699C46.0839 80.7646 45.8226 81.3713 45.8226 82.0899Z" fill="white"/>
<path d="M42.1128 107.34C42.1128 106.846 41.8888 106.421 41.4408 106.066C41.0022 105.721 40.4468 105.548 39.7748 105.548C39.2522 105.548 38.7808 105.665 38.3608 105.898C37.9502 106.122 37.6515 106.43 37.4648 106.822L36.6528 106.43C36.9142 105.889 37.3202 105.464 37.8708 105.156C38.4308 104.839 39.0655 104.68 39.7748 104.68C40.6988 104.68 41.4735 104.937 42.0988 105.45C42.7242 105.954 43.0368 106.58 43.0368 107.326C43.0368 107.802 42.8922 108.241 42.6028 108.642C42.3135 109.034 41.9168 109.338 41.4128 109.552C41.9822 109.776 42.4302 110.103 42.7568 110.532C43.0928 110.952 43.2608 111.428 43.2608 111.96C43.2608 112.754 42.9295 113.416 42.2668 113.948C41.6042 114.471 40.7782 114.732 39.7888 114.732C39.0328 114.732 38.3608 114.569 37.7728 114.242C37.1848 113.916 36.7648 113.477 36.5128 112.926L37.3808 112.59C37.5582 112.982 37.8615 113.295 38.2908 113.528C38.7202 113.752 39.2195 113.864 39.7888 113.864C40.5075 113.864 41.1142 113.682 41.6088 113.318C42.0942 112.945 42.3368 112.483 42.3368 111.932C42.3368 111.391 42.0988 110.938 41.6228 110.574C41.1562 110.21 40.5682 110.028 39.8588 110.028H39.1308V109.174H39.6768C40.3768 109.174 40.9555 109.002 41.4128 108.656C41.8795 108.302 42.1128 107.863 42.1128 107.34ZM45.0223 111.288V108.124C45.0223 107.154 45.3676 106.337 46.0583 105.674C46.7676 105.012 47.6356 104.68 48.6623 104.68C49.7076 104.68 50.5756 105.012 51.2663 105.674C51.9663 106.328 52.3163 107.144 52.3163 108.124V111.288C52.3163 112.268 51.9663 113.09 51.2663 113.752C50.585 114.406 49.717 114.732 48.6623 114.732C47.617 114.732 46.749 114.406 46.0583 113.752C45.3676 113.09 45.0223 112.268 45.0223 111.288ZM45.9183 108.11V111.302C45.9183 112.03 46.1796 112.642 46.7023 113.136C47.225 113.622 47.8783 113.864 48.6623 113.864C49.4463 113.864 50.0996 113.622 50.6223 113.136C51.1543 112.642 51.4203 112.03 51.4203 111.302V108.11C51.4203 107.382 51.1543 106.776 50.6223 106.29C50.081 105.796 49.4276 105.548 48.6623 105.548C47.897 105.548 47.2436 105.796 46.7023 106.29C46.1796 106.785 45.9183 107.392 45.9183 108.11Z" fill="white"/>
<path d="M42.0428 140.627V138.527H36.4568V137.659L42.1128 130.827H42.9388V137.645H44.4368V138.527H42.9388V140.627H42.0428ZM42.0428 132.199L37.5628 137.645H42.0428V132.199ZM45.9793 137.309V134.145C45.9793 133.174 46.3247 132.358 47.0153 131.695C47.7247 131.032 48.5927 130.701 49.6193 130.701C50.6647 130.701 51.5327 131.032 52.2233 131.695C52.9233 132.348 53.2733 133.165 53.2733 134.145V137.309C53.2733 138.289 52.9233 139.11 52.2233 139.773C51.542 140.426 50.674 140.753 49.6193 140.753C48.574 140.753 47.706 140.426 47.0153 139.773C46.3247 139.11 45.9793 138.289 45.9793 137.309ZM46.8753 134.131V137.323C46.8753 138.051 47.1367 138.662 47.6593 139.157C48.182 139.642 48.8353 139.885 49.6193 139.885C50.4033 139.885 51.0567 139.642 51.5793 139.157C52.1113 138.662 52.3773 138.051 52.3773 137.323V134.131C52.3773 133.403 52.1113 132.796 51.5793 132.311C51.038 131.816 50.3847 131.569 49.6193 131.569C48.854 131.569 48.2007 131.816 47.6593 132.311C47.1367 132.806 46.8753 133.412 46.8753 134.131Z" fill="white"/>
<path d="M42.4068 161.354C43.1068 161.952 43.4568 162.703 43.4568 163.608C43.4568 164.514 43.1115 165.27 42.4208 165.876C41.7395 166.474 40.8902 166.772 39.8728 166.772C39.1168 166.772 38.4402 166.595 37.8428 166.24C37.2455 165.876 36.8068 165.386 36.5268 164.77L37.4088 164.49C37.6328 164.92 37.9642 165.265 38.4028 165.526C38.8508 165.778 39.3408 165.904 39.8728 165.904C40.6102 165.904 41.2402 165.685 41.7628 165.246C42.2762 164.817 42.5328 164.271 42.5328 163.608C42.5328 162.946 42.2715 162.395 41.7488 161.956C41.2355 161.508 40.5868 161.284 39.8028 161.284H37.2408L37.6888 156.846H42.7008V157.686H38.4448L38.1648 160.444H39.8308C40.8575 160.444 41.7162 160.748 42.4068 161.354ZM45.2274 163.328V160.164C45.2274 159.194 45.5727 158.377 46.2634 157.714C46.9727 157.052 47.8407 156.72 48.8674 156.72C49.9127 156.72 50.7807 157.052 51.4714 157.714C52.1714 158.368 52.5214 159.184 52.5214 160.164V163.328C52.5214 164.308 52.1714 165.13 51.4714 165.792C50.7901 166.446 49.9221 166.772 48.8674 166.772C47.8221 166.772 46.9541 166.446 46.2634 165.792C45.5727 165.13 45.2274 164.308 45.2274 163.328ZM46.1234 160.15V163.342C46.1234 164.07 46.3847 164.682 46.9074 165.176C47.4301 165.662 48.0834 165.904 48.8674 165.904C49.6514 165.904 50.3047 165.662 50.8274 165.176C51.3594 164.682 51.6254 164.07 51.6254 163.342V160.15C51.6254 159.422 51.3594 158.816 50.8274 158.33C50.2861 157.836 49.6327 157.588 48.8674 157.588C48.1021 157.588 47.4487 157.836 46.9074 158.33C46.3847 158.825 46.1234 159.432 46.1234 160.15Z" fill="white"/>
<path d="M43.5128 184.378L42.7008 184.798C42.1875 184.005 41.4128 183.608 40.3768 183.608C39.6022 183.608 38.9535 183.855 38.4308 184.35C37.9082 184.845 37.6468 185.451 37.6468 186.17V187.724C37.9082 187.332 38.2722 187.024 38.7388 186.8C39.2055 186.567 39.7188 186.45 40.2788 186.45C41.2588 186.45 42.0895 186.753 42.7708 187.36C43.4428 187.967 43.7788 188.723 43.7788 189.628C43.7788 190.533 43.4428 191.285 42.7708 191.882C42.0895 192.489 41.2588 192.792 40.2788 192.792C39.2895 192.792 38.4495 192.489 37.7588 191.882C37.0868 191.266 36.7508 190.515 36.7508 189.628V186.184C36.7508 185.213 37.0962 184.397 37.7868 183.734C38.4962 183.071 39.3642 182.74 40.3908 182.74C41.0535 182.74 41.6602 182.885 42.2108 183.174C42.7615 183.463 43.1955 183.865 43.5128 184.378ZM40.2788 187.318C39.5415 187.318 38.9208 187.542 38.4168 187.99C37.9222 188.429 37.6748 188.97 37.6748 189.614C37.6748 190.267 37.9222 190.818 38.4168 191.266C38.9302 191.705 39.5508 191.924 40.2788 191.924C41.0068 191.924 41.6182 191.705 42.1128 191.266C42.6075 190.827 42.8548 190.286 42.8548 189.642C42.8548 188.989 42.6075 188.438 42.1128 187.99C41.6182 187.542 41.0068 187.318 40.2788 187.318ZM45.4325 189.348V186.184C45.4325 185.213 45.7778 184.397 46.4685 183.734C47.1778 183.071 48.0458 182.74 49.0725 182.74C50.1178 182.74 50.9858 183.071 51.6765 183.734C52.3765 184.387 52.7265 185.204 52.7265 186.184V189.348C52.7265 190.328 52.3765 191.149 51.6765 191.812C50.9951 192.465 50.1271 192.792 49.0725 192.792C48.0271 192.792 47.1591 192.465 46.4685 191.812C45.7778 191.149 45.4325 190.328 45.4325 189.348ZM46.3285 186.17V189.362C46.3285 190.09 46.5898 190.701 47.1125 191.196C47.6351 191.681 48.2885 191.924 49.0725 191.924C49.8565 191.924 50.5098 191.681 51.0325 191.196C51.5645 190.701 51.8305 190.09 51.8305 189.362V186.17C51.8305 185.442 51.5645 184.835 51.0325 184.35C50.4911 183.855 49.8378 183.608 49.0725 183.608C48.3071 183.608 47.6538 183.855 47.1125 184.35C46.5898 184.845 46.3285 185.451 46.3285 186.17Z" fill="white"/>
<path d="M37.9828 218.687L41.5108 209.727H36.1628V208.887H42.4628V209.755L38.9488 218.687H37.9828ZM44.1336 215.369V212.205C44.1336 211.234 44.479 210.417 45.1696 209.755C45.879 209.092 46.747 208.761 47.7736 208.761C48.819 208.761 49.687 209.092 50.3776 209.755C51.0776 210.408 51.4276 211.225 51.4276 212.205V215.369C51.4276 216.349 51.0776 217.17 50.3776 217.833C49.6963 218.486 48.8283 218.813 47.7736 218.813C46.7283 218.813 45.8603 218.486 45.1696 217.833C44.479 217.17 44.1336 216.349 44.1336 215.369ZM45.0296 212.191V215.383C45.0296 216.111 45.291 216.722 45.8136 217.217C46.3363 217.702 46.9896 217.945 47.7736 217.945C48.5576 217.945 49.211 217.702 49.7336 217.217C50.2656 216.722 50.5316 216.111 50.5316 215.383V212.191C50.5316 211.463 50.2656 210.856 49.7336 210.371C49.1923 209.876 48.539 209.629 47.7736 209.629C47.0083 209.629 46.355 209.876 45.8136 210.371C45.291 210.865 45.0296 211.472 45.0296 212.191Z" fill="white"/>
<path d="M74.2188 164.609C83.2452 167.087 106.926 170.555 129.438 164.609C151.949 158.662 181.292 150.45 193.15 147.088H287.657C292.414 143.305 304.213 138.008 313.355 147.088C327.638 147.088 349.6 137.716 380.707 140.919C406.508 140.919 426.529 140.919 433.315 140.919C438.652 139.165 452.071 134.56 463.05 130.169C469.454 130.169 474.257 131.084 475.859 131.541L491.412 130.169C495.301 128.949 504.496 126.6 510.168 126.966C515.841 127.332 528.543 131.998 534.185 134.286H644.89C647.787 135.658 654.771 138.449 659.529 138.632C664.286 138.815 692.008 135.811 705.275 134.286C712.441 131.922 727.553 127.058 730.664 126.509C733.774 125.96 745.378 126.28 750.792 126.509L784.415 114.386H847.581C884.451 112.57 959.194 108.271 963.201 105.6C967.208 102.928 996.871 102.538 1011.2 102.677C1015.93 101.008 1025.81 97.6685 1027.48 97.6685C1029.15 97.6685 1068.8 97.6685 1088.42 97.6685L1113.05 93.0771" stroke="white" stroke-width="2"/>
<path d="M129.438 164.609C106.926 170.555 83.2452 167.087 74.2188 164.609V209.575L1113.05 210.301V93.0771L1088.42 97.6685H1027.48C1025.81 97.6685 1015.93 101.008 1011.2 102.677C996.871 102.538 967.208 102.928 963.201 105.6C959.194 108.271 884.451 112.57 847.581 114.386H784.415L750.792 126.509C745.378 126.28 733.774 125.96 730.664 126.509C727.553 127.058 712.441 131.922 705.275 134.286C692.008 135.811 664.286 138.815 659.529 138.632C654.771 138.449 647.787 135.658 644.89 134.286H534.185C528.543 131.998 515.841 127.332 510.168 126.966C504.496 126.6 495.301 128.949 491.412 130.169L475.859 131.541C474.257 131.084 469.454 130.169 463.05 130.169C452.071 134.56 438.652 139.165 433.315 140.919H380.707C349.6 137.716 327.638 147.088 313.355 147.088C304.213 138.008 292.414 143.305 287.657 147.088H193.15C181.292 150.45 151.949 158.662 129.438 164.609Z" fill="url(#paint0_linear_2202_539)"/>
<defs>
<linearGradient id="paint0_linear_2202_539" x1="593.633" y1="93.0771" x2="593.633" y2="210.301" gradientUnits="userSpaceOnUse">
<stop stop-color="white"/>
<stop offset="1" stop-color="white" stop-opacity="0"/>
</linearGradient>
</defs>
</svg>
