<svg width="1118" height="176" viewBox="0 0 1118 176" fill="none" xmlns="http://www.w3.org/2000/svg">
<path d="M8.97203 145.884H16.332V146.876H8.01203V139.468H16.332V140.46H8.97203V145.884ZM19.932 135.884V136.876H8.01203V135.884H9.56403C8.43336 135.105 7.86803 134.001 7.86803 132.572C7.86803 131.409 8.2787 130.433 9.10003 129.644C9.92136 128.855 10.9454 128.46 12.172 128.46C13.3987 128.46 14.4227 128.855 15.244 129.644C16.0654 130.433 16.476 131.409 16.476 132.572C16.476 133.255 16.3267 133.884 16.028 134.46C15.7294 135.036 15.3134 135.511 14.78 135.884H19.932ZM9.82003 130.396C9.18003 131.004 8.86003 131.761 8.86003 132.668C8.86003 133.575 9.18003 134.332 9.82003 134.94C10.4494 135.548 11.2334 135.852 12.172 135.852C13.1107 135.852 13.9 135.548 14.54 134.94C15.1694 134.332 15.484 133.575 15.484 132.668C15.484 131.761 15.1694 131.004 14.54 130.396C13.9 129.788 13.1107 129.484 12.172 129.484C11.2334 129.484 10.4494 129.788 9.82003 130.396ZM15.244 125.624C14.4227 126.446 13.3987 126.856 12.172 126.856C10.9454 126.856 9.92136 126.446 9.10003 125.624C8.2787 124.803 7.86803 123.779 7.86803 122.552C7.86803 121.326 8.2787 120.302 9.10003 119.48C9.92136 118.659 10.9454 118.248 12.172 118.248C13.3987 118.248 14.4227 118.659 15.244 119.48C16.0654 120.302 16.476 121.326 16.476 122.552C16.476 123.779 16.0654 124.803 15.244 125.624ZM9.80403 124.904C10.4227 125.523 11.212 125.832 12.172 125.832C13.132 125.832 13.9214 125.523 14.54 124.904C15.1694 124.275 15.484 123.491 15.484 122.552C15.484 121.624 15.1694 120.846 14.54 120.216C13.9107 119.587 13.1214 119.272 12.172 119.272C11.2227 119.272 10.4334 119.587 9.80403 120.216C9.1747 120.846 8.86003 121.624 8.86003 122.552C8.86003 123.491 9.1747 124.275 9.80403 124.904ZM8.97203 115.181H16.332V116.173H8.01203L8.01203 110.861H8.97203V115.181ZM12.572 108.228H16.332V109.22H8.01203V108.228H11.612L11.612 102.692H8.01203V101.7H16.332V102.692H12.572L12.572 108.228ZM15.244 98.3742C14.4227 99.1956 13.3987 99.6062 12.172 99.6062C10.9454 99.6062 9.92136 99.1956 9.10003 98.3742C8.2787 97.5529 7.86803 96.5289 7.86803 95.3022C7.86803 94.0756 8.2787 93.0516 9.10003 92.2302C9.92136 91.4089 10.9454 90.9983 12.172 90.9983C13.3987 90.9983 14.4227 91.4089 15.244 92.2302C16.0654 93.0516 16.476 94.0756 16.476 95.3022C16.476 96.5289 16.0654 97.5529 15.244 98.3742ZM9.80403 97.6542C10.4227 98.2729 11.212 98.5822 12.172 98.5822C13.132 98.5822 13.9214 98.2729 14.54 97.6542C15.1694 97.0249 15.484 96.2409 15.484 95.3022C15.484 94.3742 15.1694 93.5956 14.54 92.9662C13.9107 92.3369 13.1214 92.0222 12.172 92.0222C11.2227 92.0222 10.4334 92.3369 9.80403 92.9662C9.1747 93.5956 8.86003 94.3742 8.86003 95.3022C8.86003 96.2409 9.1747 97.0249 9.80403 97.6542ZM14.284 89.5902L14.012 88.5982C15.0147 88.1822 15.516 87.3449 15.516 86.0862C15.516 85.3502 15.356 84.7529 15.036 84.2942C14.716 83.8142 14.316 83.5742 13.836 83.5742C13.4414 83.5742 13.116 83.7289 12.86 84.0382C12.5934 84.3369 12.46 84.7156 12.46 85.1742V87.2062H11.596V85.2862C11.596 84.8489 11.4787 84.4862 11.244 84.1982C10.9987 83.8996 10.6947 83.7502 10.332 83.7502C9.90536 83.7502 9.54803 83.9742 9.26003 84.4222C8.97203 84.8596 8.82803 85.4036 8.82803 86.0542C8.82803 87.3022 9.32936 88.1342 10.332 88.5502L10.06 89.5422C9.35603 89.2756 8.81736 88.8382 8.44403 88.2302C8.06003 87.6116 7.86803 86.8756 7.86803 86.0222C7.86803 85.0836 8.09203 84.2996 8.54003 83.6702C8.98803 83.0409 9.54803 82.7262 10.22 82.7262C10.9987 82.7262 11.596 83.1102 12.012 83.8782C12.1934 83.4622 12.46 83.1369 12.812 82.9022C13.1534 82.6676 13.5374 82.5502 13.964 82.5502C14.6787 82.5502 15.276 82.8862 15.756 83.5582C16.236 84.2089 16.476 85.0462 16.476 86.0702C16.476 86.9236 16.2894 87.6596 15.916 88.2782C15.532 88.8862 14.988 89.3236 14.284 89.5902ZM16.332 73.5079H8.97203L8.97203 76.8199H8.01203V69.2199H8.97203V72.5159H16.332V73.5079ZM19.932 66.587V67.579H8.01203V66.587H9.56403C8.43336 65.8083 7.86803 64.7043 7.86803 63.275C7.86803 62.1123 8.2787 61.1363 9.10003 60.347C9.92136 59.5577 10.9454 59.163 12.172 59.163C13.3987 59.163 14.4227 59.5577 15.244 60.347C16.0654 61.1363 16.476 62.1123 16.476 63.275C16.476 63.9577 16.3267 64.587 16.028 65.163C15.7294 65.739 15.3134 66.2137 14.78 66.587H19.932ZM9.82003 61.099C9.18003 61.707 8.86003 62.4643 8.86003 63.371C8.86003 64.2777 9.18003 65.035 9.82003 65.643C10.4494 66.251 11.2334 66.555 12.172 66.555C13.1107 66.555 13.9 66.251 14.54 65.643C15.1694 65.035 15.484 64.2777 15.484 63.371C15.484 62.4643 15.1694 61.707 14.54 61.099C13.9 60.491 13.1107 60.187 12.172 60.187C11.2334 60.187 10.4494 60.491 9.82003 61.099ZM7.86803 53.4474C7.86803 52.018 8.43336 50.914 9.56403 50.1354H8.01203V49.1434H16.332V50.1354H14.78C15.3134 50.5087 15.7294 50.9834 16.028 51.5594C16.3267 52.1354 16.476 52.7647 16.476 53.4474C16.476 54.6207 16.0654 55.602 15.244 56.3914C14.4334 57.17 13.4094 57.5594 12.172 57.5594C10.9347 57.5594 9.9107 57.17 9.10003 56.3914C8.2787 55.602 7.86803 54.6207 7.86803 53.4474ZM9.82003 51.0794C9.18003 51.6874 8.86003 52.4447 8.86003 53.3514C8.86003 54.258 9.18003 55.0154 9.82003 55.6234C10.4494 56.2314 11.2334 56.5354 12.172 56.5354C13.1107 56.5354 13.9 56.2314 14.54 55.6234C15.1694 55.0154 15.484 54.258 15.484 53.3514C15.484 52.4447 15.1694 51.6874 14.54 51.0794C13.9 50.4714 13.1107 50.1674 12.172 50.1674C11.2334 50.1674 10.4494 50.4714 9.82003 51.0794ZM16.476 40.5477C16.476 40.7504 16.4654 40.9477 16.444 41.1397H19.932V42.1317H16.444C16.4654 42.3024 16.476 42.4944 16.476 42.7077C16.476 43.9344 16.0654 44.9584 15.244 45.7797C14.4227 46.6011 13.3987 47.0117 12.172 47.0117C10.9454 47.0117 9.92136 46.6011 9.10003 45.7797C8.2787 44.9584 7.86803 43.9344 7.86803 42.7077C7.86803 42.4944 7.8787 42.3024 7.90003 42.1317H4.33203V41.1397H7.90003C7.8787 40.9477 7.86803 40.7504 7.86803 40.5477C7.86803 39.3211 8.2787 38.2971 9.10003 37.4757C9.92136 36.6544 10.9454 36.2437 12.172 36.2437C13.3987 36.2437 14.4227 36.6544 15.244 37.4757C16.0654 38.2971 16.476 39.3211 16.476 40.5477ZM8.86003 42.7077C8.86003 43.6464 9.1747 44.4304 9.80403 45.0597C10.4227 45.6784 11.212 45.9877 12.172 45.9877C13.132 45.9877 13.9214 45.6784 14.54 45.0597C15.1694 44.4304 15.484 43.6464 15.484 42.7077C15.484 42.5157 15.468 42.3237 15.436 42.1317H8.90803C8.87603 42.3237 8.86003 42.5157 8.86003 42.7077ZM8.86003 40.5477C8.86003 40.7397 8.87603 40.9371 8.90803 41.1397H15.436C15.468 40.9371 15.484 40.7397 15.484 40.5477C15.484 39.6197 15.1694 38.8411 14.54 38.2117C13.9107 37.5824 13.1214 37.2677 12.172 37.2677C11.2227 37.2677 10.4334 37.5824 9.80403 38.2117C9.1747 38.8411 8.86003 39.6197 8.86003 40.5477ZM9.66003 27.5342L16.332 33.2462V34.1102H8.01203V33.1182H14.7L8.01203 27.4062V26.5422H16.332V27.5342H9.66003ZM16.332 17.346V18.61L12.028 22.514L8.01203 18.946V17.698L12.028 21.266L16.332 17.346ZM8.01203 22.962H16.332V23.954H8.01203V22.962ZM7.86803 12.4942C7.86803 11.0649 8.43336 9.96092 9.56403 9.18225H8.01203V8.19025H16.332V9.18225H14.78C15.3134 9.55558 15.7294 10.0302 16.028 10.6062C16.3267 11.1822 16.476 11.8116 16.476 12.4942C16.476 13.6676 16.0654 14.6489 15.244 15.4382C14.4334 16.2169 13.4094 16.6062 12.172 16.6062C10.9347 16.6062 9.9107 16.2169 9.10003 15.4382C8.2787 14.6489 7.86803 13.6676 7.86803 12.4942ZM9.82003 10.1262C9.18003 10.7342 8.86003 11.4916 8.86003 12.3982C8.86003 13.3049 9.18003 14.0622 9.82003 14.6702C10.4494 15.2782 11.2334 15.5822 12.172 15.5822C13.1107 15.5822 13.9 15.2782 14.54 14.6702C15.1694 14.0622 15.484 13.3049 15.484 12.3982C15.484 11.4916 15.1694 10.7342 14.54 10.1262C13.9 9.51825 13.1107 9.21425 12.172 9.21425C11.2334 9.21425 10.4494 9.51825 9.82003 10.1262Z" fill="black"/>
<path d="M74.0234 13.9336H1116.99" stroke="#DBDBDB"/>
<path d="M74.0234 37.8242H1116.99" stroke="#DBDBDB"/>
<path d="M74.0234 62.4609H1116.99" stroke="#DBDBDB"/>
<path d="M74.0234 89.918H1116.99" stroke="#DBDBDB"/>
<path d="M74.0234 114.059H1116.99" stroke="#DBDBDB"/>
<path d="M74.0234 139.442H1116.99" stroke="#DBDBDB"/>
<path d="M95.5146 168.796V171.176H94.5906V167.928H95.6686C96.5739 167.695 97.0266 166.318 97.0266 163.798V158.996H103.901V167.928H105.567V171.176H104.643V168.796H95.5146ZM97.0266 167.928H102.977V159.864H97.9646V163.742C97.9646 165.73 97.6519 167.125 97.0266 167.928ZM113.926 165.422H107.402C107.458 166.187 107.762 166.831 108.312 167.354C108.872 167.858 109.554 168.11 110.356 168.11C110.86 168.11 111.322 168.003 111.742 167.788C112.162 167.564 112.503 167.261 112.764 166.878L113.604 167.158C113.278 167.709 112.83 168.143 112.26 168.46C111.691 168.768 111.056 168.922 110.356 168.922C109.264 168.922 108.35 168.563 107.612 167.844C106.884 167.135 106.52 166.239 106.52 165.156C106.52 164.073 106.875 163.177 107.584 162.468C108.303 161.749 109.185 161.39 110.23 161.39C111.276 161.39 112.158 161.749 112.876 162.468C113.586 163.177 113.94 164.073 113.94 165.156C113.94 165.296 113.936 165.385 113.926 165.422ZM107.416 164.694H113.044C112.942 163.966 112.624 163.369 112.092 162.902C111.57 162.435 110.944 162.202 110.216 162.202C109.488 162.202 108.863 162.435 108.34 162.902C107.827 163.359 107.519 163.957 107.416 164.694ZM121.445 168.796H120.339L116.923 165.03L120.045 161.516H121.137L118.015 165.03L121.445 168.796ZM116.531 161.516V168.796H115.663V161.516H116.531ZM131.957 161.782C131.957 161.222 131.729 160.741 131.271 160.34C130.833 159.939 130.287 159.738 129.633 159.738C129.101 159.738 128.616 159.897 128.177 160.214C127.748 160.522 127.426 160.947 127.211 161.488L126.385 161.096C126.665 160.415 127.095 159.873 127.673 159.472C128.252 159.071 128.905 158.87 129.633 158.87C130.539 158.87 131.304 159.155 131.929 159.724C132.564 160.284 132.881 160.965 132.881 161.768C132.881 162.328 132.713 162.851 132.377 163.336C132.069 163.803 131.565 164.372 130.865 165.044L127.855 167.928H133.049V168.796H126.441V168.152L130.221 164.47L130.893 163.812C131.061 163.635 131.229 163.434 131.397 163.21C131.771 162.743 131.957 162.267 131.957 161.782ZM137.151 160.158L135.023 161.334L134.631 160.536L137.445 158.996H138.047V168.796H137.151V160.158Z" fill="black"/>
<path d="M184.286 164.848L181.836 168.796H180.8L183.264 164.778C182.564 164.629 181.995 164.293 181.556 163.77C181.118 163.247 180.898 162.631 180.898 161.922C180.898 161.091 181.192 160.396 181.78 159.836C182.368 159.276 183.101 158.996 183.978 158.996H188.346V168.796H187.422V164.848H184.286ZM183.978 163.98H187.422V159.864H183.978C183.362 159.864 182.854 160.065 182.452 160.466C182.051 160.858 181.85 161.343 181.85 161.922C181.85 162.501 182.051 162.991 182.452 163.392C182.863 163.784 183.372 163.98 183.978 163.98ZM191.59 165.506V168.796H190.722V161.516H191.59V164.666H196.434V161.516H197.302V168.796H196.434V165.506H191.59ZM199.568 161.516H203.236C203.768 161.516 204.225 161.67 204.608 161.978C205 162.277 205.233 162.655 205.308 163.112C205.326 163.205 205.336 163.299 205.336 163.392C205.336 164.055 205.051 164.573 204.482 164.946C204.846 165.114 205.135 165.357 205.35 165.674C205.564 165.991 205.672 166.346 205.672 166.738C205.672 167.326 205.466 167.816 205.056 168.208C204.654 168.6 204.141 168.796 203.516 168.796H199.568V161.516ZM200.436 165.394V167.956H203.516C203.88 167.956 204.178 167.835 204.412 167.592C204.654 167.349 204.776 167.046 204.776 166.682C204.776 166.318 204.654 166.015 204.412 165.772C204.178 165.52 203.88 165.394 203.516 165.394H200.436ZM203.236 162.356H200.436V164.652H203.236C203.581 164.652 203.866 164.545 204.09 164.33C204.323 164.106 204.44 163.831 204.44 163.504C204.44 163.177 204.323 162.907 204.09 162.692C203.866 162.468 203.581 162.356 203.236 162.356ZM216.531 168.796V166.696H210.945V165.828L216.601 158.996H217.427V165.814H218.925V166.696H217.427V168.796H216.531ZM216.531 160.368L212.051 165.814H216.531V160.368Z" fill="black"/>
<path d="M266.554 164.848L264.104 168.796H263.068L265.532 164.778C264.832 164.629 264.263 164.293 263.824 163.77C263.385 163.247 263.166 162.631 263.166 161.922C263.166 161.091 263.46 160.396 264.048 159.836C264.636 159.276 265.369 158.996 266.246 158.996H270.614V168.796H269.69V164.848H266.554ZM266.246 163.98H269.69V159.864H266.246C265.63 159.864 265.121 160.065 264.72 160.466C264.319 160.858 264.118 161.343 264.118 161.922C264.118 162.501 264.319 162.991 264.72 163.392C265.131 163.784 265.639 163.98 266.246 163.98ZM273.857 165.506V168.796H272.989V161.516H273.857V164.666H278.701V161.516H279.569V168.796H278.701V165.506H273.857ZM281.835 161.516H285.503C286.035 161.516 286.493 161.67 286.875 161.978C287.267 162.277 287.501 162.655 287.575 163.112C287.594 163.205 287.603 163.299 287.603 163.392C287.603 164.055 287.319 164.573 286.749 164.946C287.113 165.114 287.403 165.357 287.617 165.674C287.832 165.991 287.939 166.346 287.939 166.738C287.939 167.326 287.734 167.816 287.323 168.208C286.922 168.6 286.409 168.796 285.783 168.796H281.835V161.516ZM282.703 165.394V167.956H285.783C286.147 167.956 286.446 167.835 286.679 167.592C286.922 167.349 287.043 167.046 287.043 166.682C287.043 166.318 286.922 166.015 286.679 165.772C286.446 165.52 286.147 165.394 285.783 165.394H282.703ZM285.503 162.356H282.703V164.652H285.503C285.849 164.652 286.133 164.545 286.357 164.33C286.591 164.106 286.707 163.831 286.707 163.504C286.707 163.177 286.591 162.907 286.357 162.692C286.133 162.468 285.849 162.356 285.503 162.356ZM295.831 160.158L293.703 161.334L293.311 160.536L296.125 158.996H296.727V168.796H295.831V160.158ZM299.3 166.15C299.3 165.599 299.463 165.105 299.79 164.666C300.126 164.227 300.588 163.896 301.176 163.672C300.691 163.448 300.303 163.14 300.014 162.748C299.734 162.347 299.594 161.908 299.594 161.432C299.594 160.713 299.897 160.107 300.504 159.612C301.129 159.117 301.895 158.87 302.8 158.87C303.715 158.87 304.475 159.117 305.082 159.612C305.698 160.097 306.006 160.704 306.006 161.432C306.006 161.908 305.861 162.347 305.572 162.748C305.292 163.14 304.909 163.448 304.424 163.672C304.993 163.905 305.446 164.246 305.782 164.694C306.118 165.133 306.286 165.618 306.286 166.15C306.286 166.943 305.955 167.606 305.292 168.138C304.629 168.661 303.799 168.922 302.8 168.922C301.801 168.922 300.966 168.656 300.294 168.124C299.631 167.592 299.3 166.934 299.3 166.15ZM305.362 166.08C305.362 165.52 305.119 165.053 304.634 164.68C304.139 164.297 303.528 164.106 302.8 164.106C302.072 164.106 301.461 164.297 300.966 164.68C300.481 165.053 300.238 165.52 300.238 166.08C300.238 166.649 300.481 167.121 300.966 167.494C301.451 167.867 302.063 168.054 302.8 168.054C303.537 168.054 304.149 167.867 304.634 167.494C305.119 167.121 305.362 166.649 305.362 166.08ZM302.8 159.738C302.156 159.738 301.615 159.906 301.176 160.242C300.737 160.578 300.518 160.998 300.518 161.502C300.518 162.006 300.737 162.426 301.176 162.762C301.615 163.098 302.156 163.266 302.8 163.266C303.444 163.266 303.981 163.098 304.41 162.762C304.849 162.426 305.068 162.006 305.068 161.502C305.068 160.998 304.849 160.578 304.41 160.242C303.981 159.906 303.444 159.738 302.8 159.738Z" fill="black"/>
<path d="M343.123 159.934V158.87H344.047V159.934C345.438 159.953 346.567 160.326 347.435 161.054C348.313 161.791 348.751 162.739 348.751 163.896C348.751 165.053 348.313 166.001 347.435 166.738C346.567 167.466 345.438 167.839 344.047 167.858V168.922H343.123V167.858C341.723 167.839 340.589 167.466 339.721 166.738C338.844 166.001 338.405 165.053 338.405 163.896C338.405 162.739 338.844 161.791 339.721 161.054C340.589 160.326 341.723 159.953 343.123 159.934ZM343.123 166.962V160.83C342.013 160.83 341.112 161.115 340.421 161.684C339.721 162.263 339.371 163 339.371 163.896C339.371 164.792 339.721 165.529 340.421 166.108C341.112 166.677 342.013 166.962 343.123 166.962ZM344.047 160.83V166.962C345.158 166.943 346.059 166.654 346.749 166.094C347.449 165.525 347.799 164.792 347.799 163.896C347.799 163 347.449 162.267 346.749 161.698C346.059 161.138 345.158 160.849 344.047 160.83ZM357.663 165.422H351.139C351.195 166.187 351.498 166.831 352.049 167.354C352.609 167.858 353.29 168.11 354.093 168.11C354.597 168.11 355.059 168.003 355.479 167.788C355.899 167.564 356.239 167.261 356.501 166.878L357.341 167.158C357.014 167.709 356.566 168.143 355.997 168.46C355.427 168.768 354.793 168.922 354.093 168.922C353.001 168.922 352.086 168.563 351.349 167.844C350.621 167.135 350.257 166.239 350.257 165.156C350.257 164.073 350.611 163.177 351.321 162.468C352.039 161.749 352.921 161.39 353.967 161.39C355.012 161.39 355.894 161.749 356.613 162.468C357.322 163.177 357.677 164.073 357.677 165.156C357.677 165.296 357.672 165.385 357.663 165.422ZM351.153 164.694H356.781C356.678 163.966 356.361 163.369 355.829 162.902C355.306 162.435 354.681 162.202 353.953 162.202C353.225 162.202 352.599 162.435 352.077 162.902C351.563 163.359 351.255 163.957 351.153 164.694ZM359.4 161.516H363.068C363.6 161.516 364.057 161.67 364.44 161.978C364.832 162.277 365.065 162.655 365.14 163.112C365.158 163.205 365.168 163.299 365.168 163.392C365.168 164.055 364.883 164.573 364.314 164.946C364.678 165.114 364.967 165.357 365.182 165.674C365.396 165.991 365.504 166.346 365.504 166.738C365.504 167.326 365.298 167.816 364.888 168.208C364.486 168.6 363.973 168.796 363.348 168.796H359.4V161.516ZM360.268 165.394V167.956H363.348C363.712 167.956 364.01 167.835 364.244 167.592C364.486 167.349 364.608 167.046 364.608 166.682C364.608 166.318 364.486 166.015 364.244 165.772C364.01 165.52 363.712 165.394 363.348 165.394H360.268ZM363.068 162.356H360.268V164.652H363.068C363.413 164.652 363.698 164.545 363.922 164.33C364.155 164.106 364.272 163.831 364.272 163.504C364.272 163.177 364.155 162.907 363.922 162.692C363.698 162.468 363.413 162.356 363.068 162.356ZM373.395 160.158L371.267 161.334L370.875 160.536L373.689 158.996H374.291V168.796H373.395V160.158Z" fill="black"/>
<path d="M423.391 159.934V158.87H424.315V159.934C425.706 159.953 426.835 160.326 427.703 161.054C428.58 161.791 429.019 162.739 429.019 163.896C429.019 165.053 428.58 166.001 427.703 166.738C426.835 167.466 425.706 167.839 424.315 167.858V168.922H423.391V167.858C421.991 167.839 420.857 167.466 419.989 166.738C419.112 166.001 418.673 165.053 418.673 163.896C418.673 162.739 419.112 161.791 419.989 161.054C420.857 160.326 421.991 159.953 423.391 159.934ZM423.391 166.962V160.83C422.28 160.83 421.38 161.115 420.689 161.684C419.989 162.263 419.639 163 419.639 163.896C419.639 164.792 419.989 165.529 420.689 166.108C421.38 166.677 422.28 166.962 423.391 166.962ZM424.315 160.83V166.962C425.426 166.943 426.326 166.654 427.017 166.094C427.717 165.525 428.067 164.792 428.067 163.896C428.067 163 427.717 162.267 427.017 161.698C426.326 161.138 425.426 160.849 424.315 160.83ZM437.93 165.422H431.406C431.462 166.187 431.766 166.831 432.316 167.354C432.876 167.858 433.558 168.11 434.36 168.11C434.864 168.11 435.326 168.003 435.746 167.788C436.166 167.564 436.507 167.261 436.768 166.878L437.608 167.158C437.282 167.709 436.834 168.143 436.264 168.46C435.695 168.768 435.06 168.922 434.36 168.922C433.268 168.922 432.354 168.563 431.616 167.844C430.888 167.135 430.524 166.239 430.524 165.156C430.524 164.073 430.879 163.177 431.588 162.468C432.307 161.749 433.189 161.39 434.234 161.39C435.28 161.39 436.162 161.749 436.88 162.468C437.59 163.177 437.944 164.073 437.944 165.156C437.944 165.296 437.94 165.385 437.93 165.422ZM431.42 164.694H437.048C436.946 163.966 436.628 163.369 436.096 162.902C435.574 162.435 434.948 162.202 434.22 162.202C433.492 162.202 432.867 162.435 432.344 162.902C431.831 163.359 431.523 163.957 431.42 164.694ZM439.667 161.516H443.335C443.867 161.516 444.325 161.67 444.707 161.978C445.099 162.277 445.333 162.655 445.407 163.112C445.426 163.205 445.435 163.299 445.435 163.392C445.435 164.055 445.151 164.573 444.581 164.946C444.945 165.114 445.235 165.357 445.449 165.674C445.664 165.991 445.771 166.346 445.771 166.738C445.771 167.326 445.566 167.816 445.155 168.208C444.754 168.6 444.241 168.796 443.615 168.796H439.667V161.516ZM440.535 165.394V167.956H443.615C443.979 167.956 444.278 167.835 444.511 167.592C444.754 167.349 444.875 167.046 444.875 166.682C444.875 166.318 444.754 166.015 444.511 165.772C444.278 165.52 443.979 165.394 443.615 165.394H440.535ZM443.335 162.356H440.535V164.652H443.335C443.681 164.652 443.965 164.545 444.189 164.33C444.423 164.106 444.539 163.831 444.539 163.504C444.539 163.177 444.423 162.907 444.189 162.692C443.965 162.468 443.681 162.356 443.335 162.356ZM453.663 160.158L451.535 161.334L451.143 160.536L453.957 158.996H454.559V168.796H453.663V160.158ZM462.942 163.504C463.642 164.101 463.992 164.853 463.992 165.758C463.992 166.663 463.647 167.419 462.956 168.026C462.275 168.623 461.425 168.922 460.408 168.922C459.652 168.922 458.975 168.745 458.378 168.39C457.781 168.026 457.342 167.536 457.062 166.92L457.944 166.64C458.168 167.069 458.499 167.415 458.938 167.676C459.386 167.928 459.876 168.054 460.408 168.054C461.145 168.054 461.775 167.835 462.298 167.396C462.811 166.967 463.068 166.421 463.068 165.758C463.068 165.095 462.807 164.545 462.284 164.106C461.771 163.658 461.122 163.434 460.338 163.434H457.776L458.224 158.996H463.236V159.836H458.98L458.7 162.594H460.366C461.393 162.594 462.251 162.897 462.942 163.504Z" fill="black"/>
<path d="M500.891 168.796H499.967V158.996H500.891L505.063 166.262L509.249 158.996H510.173V168.796H509.249V160.746L505.371 167.508H504.769L500.891 160.76V168.796ZM515.72 161.39C516.971 161.39 517.937 161.885 518.618 162.874V161.516H519.486V168.796H518.618V167.438C518.291 167.905 517.876 168.269 517.372 168.53C516.868 168.791 516.317 168.922 515.72 168.922C514.693 168.922 513.835 168.563 513.144 167.844C512.463 167.135 512.122 166.239 512.122 165.156C512.122 164.073 512.463 163.177 513.144 162.468C513.835 161.749 514.693 161.39 515.72 161.39ZM517.792 163.098C517.26 162.538 516.597 162.258 515.804 162.258C515.011 162.258 514.348 162.538 513.816 163.098C513.284 163.649 513.018 164.335 513.018 165.156C513.018 165.977 513.284 166.668 513.816 167.228C514.348 167.779 515.011 168.054 515.804 168.054C516.597 168.054 517.26 167.779 517.792 167.228C518.324 166.668 518.59 165.977 518.59 165.156C518.59 164.335 518.324 163.649 517.792 163.098ZM522.625 171.946H521.757V161.516H522.625V162.874C523.306 161.885 524.272 161.39 525.523 161.39C526.54 161.39 527.394 161.749 528.085 162.468C528.776 163.187 529.121 164.083 529.121 165.156C529.121 166.229 528.776 167.125 528.085 167.844C527.394 168.563 526.54 168.922 525.523 168.922C524.926 168.922 524.375 168.791 523.871 168.53C523.367 168.269 522.952 167.905 522.625 167.438V171.946ZM527.427 163.098C526.895 162.538 526.232 162.258 525.439 162.258C524.646 162.258 523.983 162.538 523.451 163.098C522.919 163.649 522.653 164.335 522.653 165.156C522.653 165.977 522.919 166.668 523.451 167.228C523.983 167.779 524.646 168.054 525.439 168.054C526.232 168.054 526.895 167.779 527.427 167.228C527.959 166.668 528.225 165.977 528.225 165.156C528.225 164.335 527.959 163.649 527.427 163.098ZM537.065 160.158L534.937 161.334L534.545 160.536L537.359 158.996H537.961V168.796H537.065V160.158Z" fill="black"/>
<path d="M580.32 168.796H579.396V158.996H580.32L584.492 166.262L588.678 158.996H589.602V168.796H588.678V160.746L584.8 167.508H584.198L580.32 160.76V168.796ZM595.15 161.39C596.4 161.39 597.366 161.885 598.048 162.874V161.516H598.916V168.796H598.048V167.438C597.721 167.905 597.306 168.269 596.802 168.53C596.298 168.791 595.747 168.922 595.15 168.922C594.123 168.922 593.264 168.563 592.574 167.844C591.892 167.135 591.552 166.239 591.552 165.156C591.552 164.073 591.892 163.177 592.574 162.468C593.264 161.749 594.123 161.39 595.15 161.39ZM597.222 163.098C596.69 162.538 596.027 162.258 595.234 162.258C594.44 162.258 593.778 162.538 593.246 163.098C592.714 163.649 592.448 164.335 592.448 165.156C592.448 165.977 592.714 166.668 593.246 167.228C593.778 167.779 594.44 168.054 595.234 168.054C596.027 168.054 596.69 167.779 597.222 167.228C597.754 166.668 598.02 165.977 598.02 165.156C598.02 164.335 597.754 163.649 597.222 163.098ZM602.055 171.946H601.187V161.516H602.055V162.874C602.736 161.885 603.702 161.39 604.953 161.39C605.97 161.39 606.824 161.749 607.515 162.468C608.205 163.187 608.551 164.083 608.551 165.156C608.551 166.229 608.205 167.125 607.515 167.844C606.824 168.563 605.97 168.922 604.953 168.922C604.355 168.922 603.805 168.791 603.301 168.53C602.797 168.269 602.381 167.905 602.055 167.438V171.946ZM606.857 163.098C606.325 162.538 605.662 162.258 604.869 162.258C604.075 162.258 603.413 162.538 602.881 163.098C602.349 163.649 602.083 164.335 602.083 165.156C602.083 165.977 602.349 166.668 602.881 167.228C603.413 167.779 604.075 168.054 604.869 168.054C605.662 168.054 606.325 167.779 606.857 167.228C607.389 166.668 607.655 165.977 607.655 165.156C607.655 164.335 607.389 163.649 606.857 163.098ZM616.495 160.158L614.367 161.334L613.975 160.536L616.789 158.996H617.391V168.796H616.495V160.158ZM625.774 163.504C626.474 164.101 626.824 164.853 626.824 165.758C626.824 166.663 626.479 167.419 625.788 168.026C625.107 168.623 624.257 168.922 623.24 168.922C622.484 168.922 621.807 168.745 621.21 168.39C620.613 168.026 620.174 167.536 619.894 166.92L620.776 166.64C621 167.069 621.331 167.415 621.77 167.676C622.218 167.928 622.708 168.054 623.24 168.054C623.977 168.054 624.607 167.835 625.13 167.396C625.643 166.967 625.9 166.421 625.9 165.758C625.9 165.095 625.639 164.545 625.116 164.106C624.603 163.658 623.954 163.434 623.17 163.434H620.608L621.056 158.996H626.068V159.836H621.812L621.532 162.594H623.198C624.225 162.594 625.083 162.897 625.774 163.504Z" fill="black"/>
<path d="M656.588 168.796H655.664V158.996H656.588L660.76 166.262L664.946 158.996H665.87V168.796H664.946V160.746L661.068 167.508H660.466L656.588 160.76V168.796ZM671.417 161.39C672.668 161.39 673.634 161.885 674.315 162.874V161.516H675.183V168.796H674.315V167.438C673.988 167.905 673.573 168.269 673.069 168.53C672.565 168.791 672.014 168.922 671.417 168.922C670.39 168.922 669.532 168.563 668.841 167.844C668.16 167.135 667.819 166.239 667.819 165.156C667.819 164.073 668.16 163.177 668.841 162.468C669.532 161.749 670.39 161.39 671.417 161.39ZM673.489 163.098C672.957 162.538 672.294 162.258 671.501 162.258C670.708 162.258 670.045 162.538 669.513 163.098C668.981 163.649 668.715 164.335 668.715 165.156C668.715 165.977 668.981 166.668 669.513 167.228C670.045 167.779 670.708 168.054 671.501 168.054C672.294 168.054 672.957 167.779 673.489 167.228C674.021 166.668 674.287 165.977 674.287 165.156C674.287 164.335 674.021 163.649 673.489 163.098ZM678.322 171.946H677.454V161.516H678.322V162.874C679.004 161.885 679.97 161.39 681.22 161.39C682.238 161.39 683.092 161.749 683.782 162.468C684.473 163.187 684.818 164.083 684.818 165.156C684.818 166.229 684.473 167.125 683.782 167.844C683.092 168.563 682.238 168.922 681.22 168.922C680.623 168.922 680.072 168.791 679.568 168.53C679.064 168.269 678.649 167.905 678.322 167.438V171.946ZM683.124 163.098C682.592 162.538 681.93 162.258 681.136 162.258C680.343 162.258 679.68 162.538 679.148 163.098C678.616 163.649 678.35 164.335 678.35 165.156C678.35 165.977 678.616 166.668 679.148 167.228C679.68 167.779 680.343 168.054 681.136 168.054C681.93 168.054 682.592 167.779 683.124 167.228C683.656 166.668 683.922 165.977 683.922 165.156C683.922 164.335 683.656 163.649 683.124 163.098ZM695.744 161.782C695.744 161.222 695.516 160.741 695.058 160.34C694.62 159.939 694.074 159.738 693.42 159.738C692.888 159.738 692.403 159.897 691.964 160.214C691.535 160.522 691.213 160.947 690.998 161.488L690.172 161.096C690.452 160.415 690.882 159.873 691.46 159.472C692.039 159.071 692.692 158.87 693.42 158.87C694.326 158.87 695.091 159.155 695.716 159.724C696.351 160.284 696.668 160.965 696.668 161.768C696.668 162.328 696.5 162.851 696.164 163.336C695.856 163.803 695.352 164.372 694.652 165.044L691.642 167.928H696.836V168.796H690.228V168.152L694.008 164.47L694.68 163.812C694.848 163.635 695.016 163.434 695.184 163.21C695.558 162.743 695.744 162.267 695.744 161.782ZM698.558 167.256L699.384 166.836C699.617 167.209 699.944 167.508 700.364 167.732C700.784 167.947 701.246 168.054 701.75 168.054C702.553 168.054 703.211 167.811 703.724 167.326C704.256 166.831 704.522 166.225 704.522 165.506V163.994C704.261 164.442 703.897 164.797 703.43 165.058C702.973 165.31 702.469 165.436 701.918 165.436C700.919 165.436 700.089 165.123 699.426 164.498C698.754 163.873 698.418 163.089 698.418 162.146C698.418 161.222 698.749 160.443 699.412 159.808C700.075 159.183 700.91 158.87 701.918 158.87C702.907 158.87 703.738 159.178 704.41 159.794C705.082 160.401 705.418 161.157 705.418 162.062V165.492C705.418 166.472 705.063 167.289 704.354 167.942C703.663 168.595 702.791 168.922 701.736 168.922C701.064 168.922 700.443 168.773 699.874 168.474C699.314 168.175 698.875 167.769 698.558 167.256ZM703.738 163.882C704.233 163.415 704.48 162.841 704.48 162.16C704.48 161.479 704.233 160.905 703.738 160.438C703.243 159.971 702.637 159.738 701.918 159.738C701.181 159.738 700.569 159.967 700.084 160.424C699.589 160.891 699.342 161.46 699.342 162.132C699.342 162.823 699.589 163.401 700.084 163.868C700.579 164.335 701.19 164.568 701.918 164.568C702.646 164.568 703.253 164.339 703.738 163.882Z" fill="black"/>
<path d="M740.974 168.796H739.994L744.348 158.996H745.076L749.43 168.796H748.45L747.4 166.402H742.038L740.974 168.796ZM747.008 165.534L744.712 160.34L742.416 165.534H747.008ZM751.736 162.356V168.796H750.868V161.516H757.35V168.796H756.482V162.356H751.736ZM760.486 171.946H759.618V161.516H760.486V162.874C761.168 161.885 762.134 161.39 763.384 161.39C764.402 161.39 765.256 161.749 765.946 162.468C766.637 163.187 766.982 164.083 766.982 165.156C766.982 166.229 766.637 167.125 765.946 167.844C765.256 168.563 764.402 168.922 763.384 168.922C762.787 168.922 762.236 168.791 761.732 168.53C761.228 168.269 760.813 167.905 760.486 167.438V171.946ZM765.288 163.098C764.756 162.538 764.094 162.258 763.3 162.258C762.507 162.258 761.844 162.538 761.312 163.098C760.78 163.649 760.514 164.335 760.514 165.156C760.514 165.977 760.78 166.668 761.312 167.228C761.844 167.779 762.507 168.054 763.3 168.054C764.094 168.054 764.756 167.779 765.288 167.228C765.82 166.668 766.086 165.977 766.086 165.156C766.086 164.335 765.82 163.649 765.288 163.098ZM774.926 160.158L772.798 161.334L772.406 160.536L775.22 158.996H775.822V168.796H774.926V160.158ZM783.856 161.782C783.856 161.222 783.627 160.741 783.17 160.34C782.731 159.939 782.185 159.738 781.532 159.738C781 159.738 780.514 159.897 780.076 160.214C779.646 160.522 779.324 160.947 779.11 161.488L778.284 161.096C778.564 160.415 778.993 159.873 779.572 159.472C780.15 159.071 780.804 158.87 781.532 158.87C782.437 158.87 783.202 159.155 783.828 159.724C784.462 160.284 784.78 160.965 784.78 161.768C784.78 162.328 784.612 162.851 784.276 163.336C783.968 163.803 783.464 164.372 782.764 165.044L779.754 167.928H784.948V168.796H778.34V168.152L782.12 164.47L782.792 163.812C782.96 163.635 783.128 163.434 783.296 163.21C783.669 162.743 783.856 162.267 783.856 161.782Z" fill="black"/>
<path d="M825.036 168.796H824.056L828.41 158.996H829.138L833.492 168.796H832.512L831.462 166.402H826.1L825.036 168.796ZM831.07 165.534L828.774 160.34L826.478 165.534H831.07ZM835.799 162.356V168.796H834.931V161.516H841.413V168.796H840.545V162.356H835.799ZM844.549 171.946H843.681V161.516H844.549V162.874C845.23 161.885 846.196 161.39 847.447 161.39C848.464 161.39 849.318 161.749 850.009 162.468C850.7 163.187 851.045 164.083 851.045 165.156C851.045 166.229 850.7 167.125 850.009 167.844C849.318 168.563 848.464 168.922 847.447 168.922C846.85 168.922 846.299 168.791 845.795 168.53C845.291 168.269 844.876 167.905 844.549 167.438V171.946ZM849.351 163.098C848.819 162.538 848.156 162.258 847.363 162.258C846.57 162.258 845.907 162.538 845.375 163.098C844.843 163.649 844.577 164.335 844.577 165.156C844.577 165.977 844.843 166.668 845.375 167.228C845.907 167.779 846.57 168.054 847.363 168.054C848.156 168.054 848.819 167.779 849.351 167.228C849.883 166.668 850.149 165.977 850.149 165.156C850.149 164.335 849.883 163.649 849.351 163.098ZM861.971 161.782C861.971 161.222 861.742 160.741 861.285 160.34C860.846 159.939 860.3 159.738 859.647 159.738C859.115 159.738 858.63 159.897 858.191 160.214C857.762 160.522 857.44 160.947 857.225 161.488L856.399 161.096C856.679 160.415 857.108 159.873 857.687 159.472C858.266 159.071 858.919 158.87 859.647 158.87C860.552 158.87 861.318 159.155 861.943 159.724C862.578 160.284 862.895 160.965 862.895 161.768C862.895 162.328 862.727 162.851 862.391 163.336C862.083 163.803 861.579 164.372 860.879 165.044L857.869 167.928H863.063V168.796H856.455V168.152L860.235 164.47L860.907 163.812C861.075 163.635 861.243 163.434 861.411 163.21C861.784 162.743 861.971 162.267 861.971 161.782ZM871.603 160.508L870.791 160.928C870.277 160.135 869.503 159.738 868.467 159.738C867.692 159.738 867.043 159.985 866.521 160.48C865.998 160.975 865.737 161.581 865.737 162.3V163.854C865.998 163.462 866.362 163.154 866.829 162.93C867.295 162.697 867.809 162.58 868.369 162.58C869.349 162.58 870.179 162.883 870.861 163.49C871.533 164.097 871.869 164.853 871.869 165.758C871.869 166.663 871.533 167.415 870.861 168.012C870.179 168.619 869.349 168.922 868.369 168.922C867.379 168.922 866.539 168.619 865.849 168.012C865.177 167.396 864.841 166.645 864.841 165.758V162.314C864.841 161.343 865.186 160.527 865.877 159.864C866.586 159.201 867.454 158.87 868.481 158.87C869.143 158.87 869.75 159.015 870.301 159.304C870.851 159.593 871.285 159.995 871.603 160.508ZM868.369 163.448C867.631 163.448 867.011 163.672 866.507 164.12C866.012 164.559 865.765 165.1 865.765 165.744C865.765 166.397 866.012 166.948 866.507 167.396C867.02 167.835 867.641 168.054 868.369 168.054C869.097 168.054 869.708 167.835 870.203 167.396C870.697 166.957 870.945 166.416 870.945 165.772C870.945 165.119 870.697 164.568 870.203 164.12C869.708 163.672 869.097 163.448 868.369 163.448Z" fill="black"/>
<path d="M905.186 168.796H904.262V158.996H905.186L909.358 166.262L913.544 158.996H914.468V168.796H913.544V160.746L909.666 167.508H909.064L905.186 160.76V168.796ZM920.015 161.39C921.265 161.39 922.231 161.885 922.913 162.874V161.516H923.781V168.796H922.913V167.438C922.586 167.905 922.171 168.269 921.667 168.53C921.163 168.791 920.612 168.922 920.015 168.922C918.988 168.922 918.129 168.563 917.439 167.844C916.757 167.135 916.417 166.239 916.417 165.156C916.417 164.073 916.757 163.177 917.439 162.468C918.129 161.749 918.988 161.39 920.015 161.39ZM922.087 163.098C921.555 162.538 920.892 162.258 920.099 162.258C919.305 162.258 918.643 162.538 918.111 163.098C917.579 163.649 917.313 164.335 917.313 165.156C917.313 165.977 917.579 166.668 918.111 167.228C918.643 167.779 919.305 168.054 920.099 168.054C920.892 168.054 921.555 167.779 922.087 167.228C922.619 166.668 922.885 165.977 922.885 165.156C922.885 164.335 922.619 163.649 922.087 163.098ZM925.744 163.742C925.744 163.107 925.954 162.58 926.374 162.16C926.794 161.731 927.321 161.516 927.956 161.516H931.862V168.796H930.994V165.982H928.754L926.794 168.796H925.772L927.718 165.968C927.149 165.912 926.673 165.679 926.29 165.268C925.926 164.848 925.744 164.339 925.744 163.742ZM930.994 162.356H927.956C927.583 162.356 927.27 162.491 927.018 162.762C926.766 163.023 926.64 163.35 926.64 163.742C926.64 164.143 926.766 164.479 927.018 164.75C927.27 165.011 927.583 165.142 927.956 165.142H930.994V162.356ZM940.239 160.158L938.111 161.334L937.719 160.536L940.533 158.996H941.135V168.796H940.239V160.158ZM943.862 165.478V162.314C943.862 161.343 944.207 160.527 944.898 159.864C945.607 159.201 946.475 158.87 947.502 158.87C948.547 158.87 949.415 159.201 950.106 159.864C950.806 160.517 951.156 161.334 951.156 162.314V165.478C951.156 166.458 950.806 167.279 950.106 167.942C949.425 168.595 948.557 168.922 947.502 168.922C946.457 168.922 945.589 168.595 944.898 167.942C944.207 167.279 943.862 166.458 943.862 165.478ZM944.758 162.3V165.492C944.758 166.22 945.019 166.831 945.542 167.326C946.065 167.811 946.718 168.054 947.502 168.054C948.286 168.054 948.939 167.811 949.462 167.326C949.994 166.831 950.26 166.22 950.26 165.492V162.3C950.26 161.572 949.994 160.965 949.462 160.48C948.921 159.985 948.267 159.738 947.502 159.738C946.737 159.738 946.083 159.985 945.542 160.48C945.019 160.975 944.758 161.581 944.758 162.3Z" fill="black"/>
<path d="M985.803 168.796H984.879V158.996H985.803L989.975 166.262L994.161 158.996H995.085V168.796H994.161V160.746L990.283 167.508H989.681L985.803 160.76V168.796ZM1000.63 161.39C1001.88 161.39 1002.85 161.885 1003.53 162.874V161.516H1004.4V168.796H1003.53V167.438C1003.2 167.905 1002.79 168.269 1002.28 168.53C1001.78 168.791 1001.23 168.922 1000.63 168.922C999.605 168.922 998.747 168.563 998.056 167.844C997.375 167.135 997.034 166.239 997.034 165.156C997.034 164.073 997.375 163.177 998.056 162.468C998.747 161.749 999.605 161.39 1000.63 161.39ZM1002.7 163.098C1002.17 162.538 1001.51 162.258 1000.72 162.258C999.923 162.258 999.26 162.538 998.728 163.098C998.196 163.649 997.93 164.335 997.93 165.156C997.93 165.977 998.196 166.668 998.728 167.228C999.26 167.779 999.923 168.054 1000.72 168.054C1001.51 168.054 1002.17 167.779 1002.7 167.228C1003.24 166.668 1003.5 165.977 1003.5 165.156C1003.5 164.335 1003.24 163.649 1002.7 163.098ZM1006.36 163.742C1006.36 163.107 1006.57 162.58 1006.99 162.16C1007.41 161.731 1007.94 161.516 1008.57 161.516H1012.48V168.796H1011.61V165.982H1009.37L1007.41 168.796H1006.39L1008.34 165.968C1007.77 165.912 1007.29 165.679 1006.91 165.268C1006.54 164.848 1006.36 164.339 1006.36 163.742ZM1011.61 162.356H1008.57C1008.2 162.356 1007.89 162.491 1007.64 162.762C1007.38 163.023 1007.26 163.35 1007.26 163.742C1007.26 164.143 1007.38 164.479 1007.64 164.75C1007.89 165.011 1008.2 165.142 1008.57 165.142H1011.61V162.356ZM1023.84 161.782C1023.84 161.222 1023.61 160.741 1023.15 160.34C1022.71 159.939 1022.17 159.738 1021.51 159.738C1020.98 159.738 1020.5 159.897 1020.06 160.214C1019.63 160.522 1019.31 160.947 1019.09 161.488L1018.27 161.096C1018.55 160.415 1018.98 159.873 1019.55 159.472C1020.13 159.071 1020.79 158.87 1021.51 158.87C1022.42 158.87 1023.18 159.155 1023.81 159.724C1024.44 160.284 1024.76 160.965 1024.76 161.768C1024.76 162.328 1024.59 162.851 1024.26 163.336C1023.95 163.803 1023.45 164.372 1022.75 165.044L1019.74 167.928H1024.93V168.796H1018.32V168.152L1022.1 164.47L1022.77 163.812C1022.94 163.635 1023.11 163.434 1023.28 163.21C1023.65 162.743 1023.84 162.267 1023.84 161.782ZM1032 168.796V166.696H1026.41V165.828L1032.07 158.996H1032.9V165.814H1034.39V166.696H1032.9V168.796H1032ZM1032 160.368L1027.52 165.814H1032V160.368Z" fill="black"/>
<path d="M1065.97 168.796H1065.15V158.996H1066.07V167.2L1072.57 158.996H1073.39V168.796H1072.47V160.592L1065.97 168.796ZM1075.77 168.796V161.516H1076.63V164.666H1078.5C1078.61 163.705 1079.01 162.921 1079.69 162.314C1080.37 161.698 1081.19 161.39 1082.16 161.39C1083.22 161.39 1084.1 161.749 1084.8 162.468C1085.51 163.177 1085.86 164.073 1085.86 165.156C1085.86 166.239 1085.51 167.135 1084.8 167.844C1084.1 168.563 1083.22 168.922 1082.16 168.922C1081.16 168.922 1080.31 168.6 1079.63 167.956C1078.95 167.312 1078.57 166.495 1078.48 165.506H1076.63V168.796H1075.77ZM1084.17 163.098C1083.63 162.538 1082.97 162.258 1082.16 162.258C1081.36 162.258 1080.69 162.538 1080.16 163.098C1079.63 163.649 1079.36 164.335 1079.36 165.156C1079.36 165.977 1079.63 166.668 1080.16 167.228C1080.69 167.779 1081.36 168.054 1082.16 168.054C1082.97 168.054 1083.63 167.779 1084.17 167.228C1084.7 166.668 1084.96 165.977 1084.96 165.156C1084.96 164.335 1084.7 163.649 1084.17 163.098ZM1088.56 165.506V168.796H1087.69V161.516H1088.56V164.666H1093.4V161.516H1094.27V168.796H1093.4V165.506H1088.56ZM1101.55 168.796L1105.08 159.836H1099.73V158.996H1106.03V159.864L1102.52 168.796H1101.55Z" fill="black"/>
<path d="M33.9992 37.3048L33.1872 37.7248C32.6738 36.9314 31.8992 36.5348 30.8632 36.5348C30.0885 36.5348 29.4398 36.7821 28.9172 37.2768C28.3945 37.7714 28.1332 38.3781 28.1332 39.0968V40.6508C28.3945 40.2588 28.7585 39.9508 29.2252 39.7268C29.6918 39.4934 30.2052 39.3768 30.7652 39.3768C31.7452 39.3768 32.5758 39.6801 33.2572 40.2868C33.9292 40.8934 34.2652 41.6494 34.2652 42.5548C34.2652 43.4601 33.9292 44.2114 33.2572 44.8088C32.5758 45.4154 31.7452 45.7188 30.7652 45.7188C29.7758 45.7188 28.9358 45.4154 28.2452 44.8088C27.5732 44.1928 27.2372 43.4414 27.2372 42.5548V39.1108C27.2372 38.1401 27.5825 37.3234 28.2732 36.6608C28.9825 35.9981 29.8505 35.6668 30.8772 35.6668C31.5398 35.6668 32.1465 35.8114 32.6972 36.1008C33.2478 36.3901 33.6818 36.7914 33.9992 37.3048ZM30.7652 40.2448C30.0278 40.2448 29.4072 40.4688 28.9032 40.9168C28.4085 41.3554 28.1612 41.8968 28.1612 42.5408C28.1612 43.1941 28.4085 43.7448 28.9032 44.1928C29.4165 44.6314 30.0372 44.8508 30.7652 44.8508C31.4932 44.8508 32.1045 44.6314 32.5992 44.1928C33.0938 43.7541 33.3412 43.2128 33.3412 42.5688C33.3412 41.9154 33.0938 41.3648 32.5992 40.9168C32.1045 40.4688 31.4932 40.2448 30.7652 40.2448ZM35.9188 42.2748V39.1108C35.9188 38.1401 36.2641 37.3234 36.9548 36.6608C37.6641 35.9981 38.5321 35.6668 39.5588 35.6668C40.6041 35.6668 41.4721 35.9981 42.1628 36.6608C42.8628 37.3141 43.2128 38.1308 43.2128 39.1108V42.2748C43.2128 43.2548 42.8628 44.0761 42.1628 44.7388C41.4815 45.3921 40.6135 45.7188 39.5588 45.7188C38.5135 45.7188 37.6455 45.3921 36.9548 44.7388C36.2641 44.0761 35.9188 43.2548 35.9188 42.2748ZM36.8148 39.0968V42.2888C36.8148 43.0168 37.0761 43.6281 37.5988 44.1228C38.1215 44.6081 38.7748 44.8508 39.5588 44.8508C40.3428 44.8508 40.9961 44.6081 41.5188 44.1228C42.0508 43.6281 42.3168 43.0168 42.3168 42.2888V39.0968C42.3168 38.3688 42.0508 37.7621 41.5188 37.2768C40.9775 36.7821 40.3241 36.5348 39.5588 36.5348C38.7935 36.5348 38.1401 36.7821 37.5988 37.2768C37.0761 37.7714 36.8148 38.3781 36.8148 39.0968ZM45.12 42.2748V39.1108C45.12 38.1401 45.4653 37.3234 46.156 36.6608C46.8653 35.9981 47.7333 35.6668 48.76 35.6668C49.8053 35.6668 50.6733 35.9981 51.364 36.6608C52.064 37.3141 52.414 38.1308 52.414 39.1108V42.2748C52.414 43.2548 52.064 44.0761 51.364 44.7388C50.6826 45.3921 49.8146 45.7188 48.76 45.7188C47.7146 45.7188 46.8466 45.3921 46.156 44.7388C45.4653 44.0761 45.12 43.2548 45.12 42.2748ZM46.016 39.0968V42.2888C46.016 43.0168 46.2773 43.6281 46.8 44.1228C47.3226 44.6081 47.976 44.8508 48.76 44.8508C49.544 44.8508 50.1973 44.6081 50.72 44.1228C51.252 43.6281 51.518 43.0168 51.518 42.2888V39.0968C51.518 38.3688 51.252 37.7621 50.72 37.2768C50.1786 36.7821 49.5253 36.5348 48.76 36.5348C47.9946 36.5348 47.3413 36.7821 46.8 37.2768C46.2773 37.7714 46.016 38.3781 46.016 39.0968Z" fill="black"/>
<path d="M28.4692 18.3076L31.9972 9.34762H26.6492V8.50762H32.9492V9.37562L29.4352 18.3076H28.4692ZM34.62 14.9896V11.8256C34.62 10.855 34.9653 10.0383 35.656 9.37562C36.3653 8.71295 37.2333 8.38162 38.26 8.38162C39.3053 8.38162 40.1733 8.71295 40.864 9.37562C41.564 10.029 41.914 10.8456 41.914 11.8256V14.9896C41.914 15.9696 41.564 16.791 40.864 17.4536C40.1826 18.107 39.3146 18.4336 38.26 18.4336C37.2146 18.4336 36.3466 18.107 35.656 17.4536C34.9653 16.791 34.62 15.9696 34.62 14.9896ZM35.516 11.8116V15.0036C35.516 15.7316 35.7773 16.343 36.3 16.8376C36.8226 17.323 37.476 17.5656 38.26 17.5656C39.044 17.5656 39.6973 17.323 40.22 16.8376C40.752 16.343 41.018 15.7316 41.018 15.0036V11.8116C41.018 11.0836 40.752 10.4769 40.22 9.99162C39.6786 9.49695 39.0253 9.24962 38.26 9.24962C37.4946 9.24962 36.8413 9.49695 36.3 9.99162C35.7773 10.4863 35.516 11.093 35.516 11.8116ZM43.8211 14.9896V11.8256C43.8211 10.855 44.1665 10.0383 44.8571 9.37562C45.5665 8.71295 46.4345 8.38162 47.4611 8.38162C48.5065 8.38162 49.3745 8.71295 50.0651 9.37562C50.7651 10.029 51.1151 10.8456 51.1151 11.8256V14.9896C51.1151 15.9696 50.7651 16.791 50.0651 17.4536C49.3838 18.107 48.5158 18.4336 47.4611 18.4336C46.4158 18.4336 45.5478 18.107 44.8571 17.4536C44.1665 16.791 43.8211 15.9696 43.8211 14.9896ZM44.7171 11.8116V15.0036C44.7171 15.7316 44.9785 16.343 45.5011 16.8376C46.0238 17.323 46.6771 17.5656 47.4611 17.5656C48.2451 17.5656 48.8985 17.323 49.4211 16.8376C49.9531 16.343 50.2191 15.7316 50.2191 15.0036V11.8116C50.2191 11.0836 49.9531 10.4769 49.4211 9.99162C48.8798 9.49695 48.2265 9.24962 47.4611 9.24962C46.6958 9.24962 46.0425 9.49695 45.5011 9.99162C44.9785 10.4863 44.7171 11.093 44.7171 11.8116Z" fill="black"/>
<path d="M32.5292 94.751V92.651H26.9432V91.783L32.5992 84.951H33.4252V91.769H34.9232V92.651H33.4252V94.751H32.5292ZM32.5292 86.323L28.0492 91.769H32.5292V86.323ZM36.4657 91.433V88.269C36.4657 87.2983 36.811 86.4816 37.5017 85.819C38.211 85.1563 39.079 84.825 40.1057 84.825C41.151 84.825 42.019 85.1563 42.7097 85.819C43.4097 86.4723 43.7597 87.289 43.7597 88.269V91.433C43.7597 92.413 43.4097 93.2343 42.7097 93.897C42.0283 94.5503 41.1603 94.877 40.1057 94.877C39.0603 94.877 38.1923 94.5503 37.5017 93.897C36.811 93.2343 36.4657 92.413 36.4657 91.433ZM37.3617 88.255V91.447C37.3617 92.175 37.623 92.7863 38.1457 93.281C38.6683 93.7663 39.3217 94.009 40.1057 94.009C40.8897 94.009 41.543 93.7663 42.0657 93.281C42.5977 92.7863 42.8637 92.175 42.8637 91.447V88.255C42.8637 87.527 42.5977 86.9203 42.0657 86.435C41.5243 85.9403 40.871 85.693 40.1057 85.693C39.3403 85.693 38.687 85.9403 38.1457 86.435C37.623 86.9296 37.3617 87.5363 37.3617 88.255ZM45.6668 91.433V88.269C45.6668 87.2983 46.0122 86.4816 46.7028 85.819C47.4122 85.1563 48.2802 84.825 49.3068 84.825C50.3522 84.825 51.2202 85.1563 51.9108 85.819C52.6108 86.4723 52.9608 87.289 52.9608 88.269V91.433C52.9608 92.413 52.6108 93.2343 51.9108 93.897C51.2295 94.5503 50.3615 94.877 49.3068 94.877C48.2615 94.877 47.3935 94.5503 46.7028 93.897C46.0122 93.2343 45.6668 92.413 45.6668 91.433ZM46.5628 88.255V91.447C46.5628 92.175 46.8242 92.7863 47.3468 93.281C47.8695 93.7663 48.5228 94.009 49.3068 94.009C50.0908 94.009 50.7442 93.7663 51.2668 93.281C51.7988 92.7863 52.0648 92.175 52.0648 91.447V88.255C52.0648 87.527 51.7988 86.9203 51.2668 86.435C50.7255 85.9403 50.0722 85.693 49.3068 85.693C48.5415 85.693 47.8882 85.9403 47.3468 86.435C46.8242 86.9296 46.5628 87.5363 46.5628 88.255Z" fill="black"/>
<path d="M32.8932 64.8799C33.5932 65.4772 33.9432 66.2285 33.9432 67.1339C33.9432 68.0392 33.5978 68.7952 32.9072 69.4019C32.2258 69.9992 31.3765 70.2979 30.3592 70.2979C29.6032 70.2979 28.9265 70.1205 28.3292 69.7659C27.7318 69.4019 27.2932 68.9119 27.0132 68.2959L27.8952 68.0159C28.1192 68.4452 28.4505 68.7905 28.8892 69.0519C29.3372 69.3039 29.8272 69.4299 30.3592 69.4299C31.0965 69.4299 31.7265 69.2105 32.2492 68.7719C32.7625 68.3425 33.0192 67.7965 33.0192 67.1339C33.0192 66.4712 32.7578 65.9205 32.2352 65.4819C31.7218 65.0339 31.0732 64.8099 30.2892 64.8099H27.7272L28.1752 60.3719H33.1872V61.2119H28.9312L28.6512 63.9699H30.3172C31.3438 63.9699 32.2025 64.2732 32.8932 64.8799ZM35.7137 66.8539V63.6899C35.7137 62.7192 36.0591 61.9025 36.7497 61.2399C37.4591 60.5772 38.3271 60.2459 39.3537 60.2459C40.3991 60.2459 41.2671 60.5772 41.9577 61.2399C42.6577 61.8932 43.0077 62.7099 43.0077 63.6899V66.8539C43.0077 67.8339 42.6577 68.6552 41.9577 69.3179C41.2764 69.9712 40.4084 70.2979 39.3537 70.2979C38.3084 70.2979 37.4404 69.9712 36.7497 69.3179C36.0591 68.6552 35.7137 67.8339 35.7137 66.8539ZM36.6097 63.6759V66.8679C36.6097 67.5959 36.8711 68.2072 37.3937 68.7019C37.9164 69.1872 38.5697 69.4299 39.3537 69.4299C40.1377 69.4299 40.7911 69.1872 41.3137 68.7019C41.8457 68.2072 42.1117 67.5959 42.1117 66.8679V63.6759C42.1117 62.9479 41.8457 62.3412 41.3137 61.8559C40.7724 61.3612 40.1191 61.1139 39.3537 61.1139C38.5884 61.1139 37.9351 61.3612 37.3937 61.8559C36.8711 62.3505 36.6097 62.9572 36.6097 63.6759ZM44.9149 66.8539V63.6899C44.9149 62.7192 45.2602 61.9025 45.9509 61.2399C46.6602 60.5772 47.5282 60.2459 48.5549 60.2459C49.6002 60.2459 50.4682 60.5772 51.1589 61.2399C51.8589 61.8932 52.2089 62.7099 52.2089 63.6899V66.8539C52.2089 67.8339 51.8589 68.6552 51.1589 69.3179C50.4776 69.9712 49.6096 70.2979 48.5549 70.2979C47.5096 70.2979 46.6416 69.9712 45.9509 69.3179C45.2602 68.6552 44.9149 67.8339 44.9149 66.8539ZM45.8109 63.6759V66.8679C45.8109 67.5959 46.0722 68.2072 46.5949 68.7019C47.1176 69.1872 47.7709 69.4299 48.5549 69.4299C49.3389 69.4299 49.9922 69.1872 50.5149 68.7019C51.0469 68.2072 51.3129 67.5959 51.3129 66.8679V63.6759C51.3129 62.9479 51.0469 62.3412 50.5149 61.8559C49.9736 61.3612 49.3202 61.1139 48.5549 61.1139C47.7896 61.1139 47.1362 61.3612 46.5949 61.8559C46.0722 62.3505 45.8109 62.9572 45.8109 63.6759Z" fill="black"/>
<path d="M32.5432 136.895C32.5432 136.335 32.3145 135.855 31.8572 135.453C31.4185 135.052 30.8725 134.851 30.2192 134.851C29.6872 134.851 29.2018 135.01 28.7632 135.327C28.3338 135.635 28.0118 136.06 27.7972 136.601L26.9712 136.209C27.2512 135.528 27.6805 134.987 28.2592 134.585C28.8378 134.184 29.4912 133.983 30.2192 133.983C31.1245 133.983 31.8898 134.268 32.5152 134.837C33.1498 135.397 33.4672 136.079 33.4672 136.881C33.4672 137.441 33.2992 137.964 32.9632 138.449C32.6552 138.916 32.1512 139.485 31.4512 140.157L28.4412 143.041H33.6352V143.909H27.0272V143.265L30.8072 139.583L31.4792 138.925C31.6472 138.748 31.8152 138.547 31.9832 138.323C32.3565 137.857 32.5432 137.381 32.5432 136.895ZM35.4129 140.591V137.427C35.4129 136.457 35.7583 135.64 36.4489 134.977C37.1583 134.315 38.0263 133.983 39.0529 133.983C40.0983 133.983 40.9663 134.315 41.6569 134.977C42.3569 135.631 42.7069 136.447 42.7069 137.427V140.591C42.7069 141.571 42.3569 142.393 41.6569 143.055C40.9756 143.709 40.1076 144.035 39.0529 144.035C38.0076 144.035 37.1396 143.709 36.4489 143.055C35.7583 142.393 35.4129 141.571 35.4129 140.591ZM36.3089 137.413V140.605C36.3089 141.333 36.5703 141.945 37.0929 142.439C37.6156 142.925 38.2689 143.167 39.0529 143.167C39.8369 143.167 40.4903 142.925 41.0129 142.439C41.5449 141.945 41.8109 141.333 41.8109 140.605V137.413C41.8109 136.685 41.5449 136.079 41.0129 135.593C40.4716 135.099 39.8183 134.851 39.0529 134.851C38.2876 134.851 37.6343 135.099 37.0929 135.593C36.5703 136.088 36.3089 136.695 36.3089 137.413ZM44.6141 140.591V137.427C44.6141 136.457 44.9594 135.64 45.6501 134.977C46.3594 134.315 47.2274 133.983 48.2541 133.983C49.2994 133.983 50.1674 134.315 50.8581 134.977C51.5581 135.631 51.9081 136.447 51.9081 137.427V140.591C51.9081 141.571 51.5581 142.393 50.8581 143.055C50.1768 143.709 49.3088 144.035 48.2541 144.035C47.2088 144.035 46.3408 143.709 45.6501 143.055C44.9594 142.393 44.6141 141.571 44.6141 140.591ZM45.5101 137.413V140.605C45.5101 141.333 45.7714 141.945 46.2941 142.439C46.8168 142.925 47.4701 143.167 48.2541 143.167C49.0381 143.167 49.6914 142.925 50.2141 142.439C50.7461 141.945 51.0121 141.333 51.0121 140.605V137.413C51.0121 136.685 50.7461 136.079 50.2141 135.593C49.6728 135.099 49.0194 134.851 48.2541 134.851C47.4888 134.851 46.8354 135.099 46.2941 135.593C45.7714 136.088 45.5101 136.695 45.5101 137.413Z" fill="black"/>
<path d="M32.5992 112.66C32.5992 112.165 32.3752 111.74 31.9272 111.386C31.4885 111.04 30.9332 110.868 30.2612 110.868C29.7385 110.868 29.2672 110.984 28.8472 111.218C28.4365 111.442 28.1378 111.75 27.9512 112.142L27.1392 111.75C27.4005 111.208 27.8065 110.784 28.3572 110.476C28.9172 110.158 29.5518 110 30.2612 110C31.1852 110 31.9598 110.256 32.5852 110.77C33.2105 111.274 33.5232 111.899 33.5232 112.646C33.5232 113.122 33.3785 113.56 33.0892 113.962C32.7998 114.354 32.4032 114.657 31.8992 114.872C32.4685 115.096 32.9165 115.422 33.2432 115.852C33.5792 116.272 33.7472 116.748 33.7472 117.28C33.7472 118.073 33.4158 118.736 32.7532 119.268C32.0905 119.79 31.2645 120.052 30.2752 120.052C29.5192 120.052 28.8472 119.888 28.2592 119.562C27.6712 119.235 27.2512 118.796 26.9992 118.246L27.8672 117.91C28.0445 118.302 28.3478 118.614 28.7772 118.848C29.2065 119.072 29.7058 119.184 30.2752 119.184C30.9938 119.184 31.6005 119.002 32.0952 118.638C32.5805 118.264 32.8232 117.802 32.8232 117.252C32.8232 116.71 32.5852 116.258 32.1092 115.894C31.6425 115.53 31.0545 115.348 30.3452 115.348H29.6172V114.494H30.1632C30.8632 114.494 31.4418 114.321 31.8992 113.976C32.3658 113.621 32.5992 113.182 32.5992 112.66ZM35.5086 116.608V113.444C35.5086 112.473 35.854 111.656 36.5446 110.994C37.254 110.331 38.122 110 39.1486 110C40.194 110 41.062 110.331 41.7526 110.994C42.4526 111.647 42.8026 112.464 42.8026 113.444V116.608C42.8026 117.588 42.4526 118.409 41.7526 119.072C41.0713 119.725 40.2033 120.052 39.1486 120.052C38.1033 120.052 37.2353 119.725 36.5446 119.072C35.854 118.409 35.5086 117.588 35.5086 116.608ZM36.4046 113.43V116.622C36.4046 117.35 36.666 117.961 37.1886 118.456C37.7113 118.941 38.3646 119.184 39.1486 119.184C39.9326 119.184 40.586 118.941 41.1086 118.456C41.6406 117.961 41.9066 117.35 41.9066 116.622V113.43C41.9066 112.702 41.6406 112.095 41.1086 111.61C40.5673 111.115 39.914 110.868 39.1486 110.868C38.3833 110.868 37.73 111.115 37.1886 111.61C36.666 112.104 36.4046 112.711 36.4046 113.43ZM44.7098 116.608V113.444C44.7098 112.473 45.0551 111.656 45.7458 110.994C46.4551 110.331 47.3231 110 48.3498 110C49.3951 110 50.2631 110.331 50.9538 110.994C51.6538 111.647 52.0038 112.464 52.0038 113.444V116.608C52.0038 117.588 51.6538 118.409 50.9538 119.072C50.2725 119.725 49.4045 120.052 48.3498 120.052C47.3045 120.052 46.4365 119.725 45.7458 119.072C45.0551 118.409 44.7098 117.588 44.7098 116.608ZM45.6058 113.43V116.622C45.6058 117.35 45.8671 117.961 46.3898 118.456C46.9125 118.941 47.5658 119.184 48.3498 119.184C49.1338 119.184 49.7871 118.941 50.3098 118.456C50.8418 117.961 51.1078 117.35 51.1078 116.622V113.43C51.1078 112.702 50.8418 112.095 50.3098 111.61C49.7685 111.115 49.1151 110.868 48.3498 110.868C47.5845 110.868 46.9311 111.115 46.3898 111.61C45.8671 112.104 45.6058 112.711 45.6058 113.43Z" fill="black"/>
<path d="M74.0234 119.623L138.349 98.7396C144.418 96.1961 162.381 92.6352 185.684 98.7396C208.987 104.844 239.356 106.37 251.628 106.37C263.36 100.078 290.224 87.4144 303.817 87.0931C317.41 86.7718 329.17 86.9592 333.35 87.0931C338.07 91.243 349.452 99.9445 357.22 101.551C364.987 103.157 381.763 90.9753 389.18 84.6835C393.9 77.0529 407.952 66.8521 426.4 87.0931C444.849 107.334 458.631 103.291 463.216 98.7396C467.936 93.7865 484.496 86.852 512.977 98.7396C541.459 110.627 562.065 113.599 568.807 113.599H613.714C617.355 110.922 624.557 101.39 624.233 84.6835C623.909 67.9767 640.011 65.9419 648.102 67.0129C654.036 66.2096 669.787 62.3542 685.322 53.3582C700.858 44.3622 707.708 53.3581 709.192 58.9806H741.153C746.682 66.745 759.277 82.7557 765.426 84.6835C773.113 87.0931 797.387 89.5026 811.547 78.2577C825.707 67.0129 854.026 55.7679 861.309 53.3582C868.591 50.9485 885.178 44.1212 896.91 37.6955C908.643 31.2698 935.344 15.6071 938.581 11.9927C941.817 8.3782 1032.84 -2.86682 1056.71 2.75567C1075.81 7.25366 1104.86 23.3715 1116.99 30.8681" stroke="#59A370" stroke-width="2" stroke-linecap="round" stroke-linejoin="round"/>
<path d="M138.349 98.7396L74.0234 119.623V139.135H1116.99V30.8681C1104.86 23.3715 1075.81 7.25366 1056.71 2.75567C1032.84 -2.86682 941.817 8.3782 938.581 11.9927C935.344 15.6071 908.643 31.2698 896.91 37.6955C885.178 44.1212 868.591 50.9485 861.309 53.3582C854.026 55.7679 825.707 67.0129 811.547 78.2577C797.387 89.5026 773.113 87.0931 765.426 84.6835C759.277 82.7557 746.682 66.745 741.153 58.9806H709.192C707.708 53.3582 700.858 44.3622 685.322 53.3582C669.787 62.3542 654.036 66.2096 648.102 67.0129C640.011 65.9419 623.909 67.9767 624.233 84.6835C624.557 101.39 617.355 110.922 613.714 113.599H568.807C562.065 113.599 541.459 110.627 512.977 98.7396C484.496 86.852 467.936 93.7865 463.216 98.7396C458.631 103.291 444.849 107.334 426.4 87.0931C407.952 66.8521 393.9 77.0529 389.18 84.6835C381.763 90.9753 364.987 103.157 357.22 101.551C349.452 99.9445 338.07 91.243 333.35 87.0931C329.17 86.9592 317.41 86.7718 303.817 87.0931C290.224 87.4144 263.36 100.078 251.628 106.37C239.356 106.37 208.987 104.844 185.684 98.7396C162.381 92.6352 144.418 96.1961 138.349 98.7396Z" fill="url(#paint0_linear_1201_42834)"/>
<defs>
<linearGradient id="paint0_linear_1201_42834" x1="595.509" y1="1.20898" x2="595.509" y2="139.135" gradientUnits="userSpaceOnUse">
<stop stop-color="#59A370"/>
<stop offset="1" stop-color="#59A370" stop-opacity="0"/>
</linearGradient>
</defs>
</svg>
