<svg width="1108" height="193" viewBox="0 0 1108 193" fill="none" xmlns="http://www.w3.org/2000/svg">
<path d="M39.2852 6.62012H1104.66" stroke="#DBDBDB"/>
<path d="M39.2852 31.2793H1104.66" stroke="#DBDBDB"/>
<path d="M39.2852 57.207H1104.66" stroke="#DBDBDB"/>
<path d="M39.2852 84.8682H1104.66" stroke="#DBDBDB"/>
<path d="M39.2852 112.688H1104.66" stroke="#DBDBDB"/>
<path d="M39.2852 139.389H1104.66" stroke="#DBDBDB"/>
<path d="M39.2852 166.09H1104.66" stroke="#DBDBDB"/>
<path d="M38.4746 157.928L58.2402 105.409L82.8862 103.423C95.7355 109.972 125.289 123.439 140.708 124.921C156.128 111.874 162.206 106.477 163.318 105.409C175.797 106.971 201.718 111.578 205.573 117.508C209.428 123.439 219.04 144.442 223.364 154.203L247.828 132.705L268.214 124.921L286.005 132.705L310.098 105.409L328.26 117.508L349.017 108.612H370.515L390.901 122.697L411.287 101.57C420.677 105.153 446.425 108.761 474.298 94.5275C492.682 103.233 509.14 121.382 515.07 129.369H557.325L575.857 151.608L598.467 136.782L619.965 142.342L638.869 162.357C655.054 132.829 690.019 72.5847 700.398 67.8403C716.113 89.1901 723.008 96.0101 724.49 96.7514L743.023 88.597L765.262 64.1338L782.683 104.535L807.146 125.292L827.903 121.956L844.953 131.593L869.416 121.956L889.061 125.292L928.35 104.535H947.254L969.123 6.31152L989.879 8.90614L1012.49 22.991L1033.25 107.5L1053.63 88.597L1072.91 125.292L1106.64 22.991" stroke="#59A370" stroke-width="2" stroke-linecap="round" stroke-linejoin="round"/>
<path d="M9.57337 5.77645L8.76138 6.19645C8.24804 5.40312 7.47338 5.00645 6.43738 5.00645C5.66271 5.00645 5.01404 5.25379 4.49138 5.74845C3.96871 6.24312 3.70737 6.84979 3.70737 7.56845V9.12245C3.96871 8.73045 4.33271 8.42245 4.79938 8.19845C5.26604 7.96512 5.77938 7.84845 6.33938 7.84845C7.31938 7.84845 8.15004 8.15179 8.83138 8.75845C9.50338 9.36512 9.83938 10.1211 9.83938 11.0265C9.83938 11.9318 9.50338 12.6831 8.83138 13.2805C8.15004 13.8871 7.31938 14.1905 6.33938 14.1905C5.35004 14.1905 4.51004 13.8871 3.81938 13.2805C3.14738 12.6645 2.81138 11.9131 2.81138 11.0265V7.58245C2.81138 6.61179 3.15671 5.79512 3.84738 5.13245C4.55671 4.46979 5.42471 4.13845 6.45138 4.13845C7.11404 4.13845 7.72071 4.28312 8.27138 4.57245C8.82204 4.86179 9.25604 5.26312 9.57337 5.77645ZM6.33938 8.71645C5.60204 8.71645 4.98138 8.94045 4.47738 9.38845C3.98271 9.82712 3.73538 10.3685 3.73538 11.0125C3.73538 11.6658 3.98271 12.2165 4.47738 12.6645C4.99071 13.1031 5.61138 13.3225 6.33938 13.3225C7.06738 13.3225 7.67871 13.1031 8.17338 12.6645C8.66804 12.2258 8.91538 11.6845 8.91538 11.0405C8.91538 10.3871 8.66804 9.83645 8.17338 9.38845C7.67871 8.94045 7.06738 8.71645 6.33938 8.71645ZM11.493 10.7465V7.58245C11.493 6.61179 11.8383 5.79512 12.529 5.13245C13.2383 4.46979 14.1063 4.13845 15.133 4.13845C16.1783 4.13845 17.0463 4.46979 17.737 5.13245C18.437 5.78579 18.787 6.60245 18.787 7.58245V10.7465C18.787 11.7265 18.437 12.5478 17.737 13.2105C17.0557 13.8638 16.1877 14.1905 15.133 14.1905C14.0877 14.1905 13.2197 13.8638 12.529 13.2105C11.8383 12.5478 11.493 11.7265 11.493 10.7465ZM12.389 7.56845V10.7605C12.389 11.4885 12.6503 12.0998 13.173 12.5945C13.6957 13.0798 14.349 13.3225 15.133 13.3225C15.917 13.3225 16.5703 13.0798 17.093 12.5945C17.625 12.0998 17.891 11.4885 17.891 10.7605V7.56845C17.891 6.84045 17.625 6.23379 17.093 5.74845C16.5517 5.25379 15.8983 5.00645 15.133 5.00645C14.3677 5.00645 13.7143 5.25379 13.173 5.74845C12.6503 6.24312 12.389 6.84979 12.389 7.56845ZM20.6942 10.7465V7.58245C20.6942 6.61179 21.0395 5.79512 21.7302 5.13245C22.4395 4.46979 23.3075 4.13845 24.3342 4.13845C25.3795 4.13845 26.2475 4.46979 26.9382 5.13245C27.6382 5.78579 27.9882 6.60245 27.9882 7.58245V10.7465C27.9882 11.7265 27.6382 12.5478 26.9382 13.2105C26.2569 13.8638 25.3889 14.1905 24.3342 14.1905C23.2889 14.1905 22.4209 13.8638 21.7302 13.2105C21.0395 12.5478 20.6942 11.7265 20.6942 10.7465ZM21.5902 7.56845V10.7605C21.5902 11.4885 21.8515 12.0998 22.3742 12.5945C22.8969 13.0798 23.5502 13.3225 24.3342 13.3225C25.1182 13.3225 25.7715 13.0798 26.2942 12.5945C26.8262 12.0998 27.0922 11.4885 27.0922 10.7605V7.56845C27.0922 6.84045 26.8262 6.23379 26.2942 5.74845C25.7529 5.25379 25.0995 5.00645 24.3342 5.00645C23.5689 5.00645 22.9155 5.25379 22.3742 5.74845C21.8515 6.24312 21.5902 6.84979 21.5902 7.56845Z" fill="black"/>
<path d="M7.96738 34.792C8.66738 35.3893 9.01738 36.1407 9.01738 37.046C9.01738 37.9513 8.67204 38.7073 7.98138 39.314C7.30004 39.9113 6.45071 40.21 5.43338 40.21C4.67738 40.21 4.00071 40.0327 3.40338 39.678C2.80604 39.314 2.36738 38.824 2.08738 38.208L2.96938 37.928C3.19338 38.3573 3.52471 38.7027 3.96338 38.964C4.41138 39.216 4.90138 39.342 5.43338 39.342C6.17071 39.342 6.80071 39.1227 7.32338 38.684C7.83671 38.2547 8.09338 37.7087 8.09338 37.046C8.09338 36.3833 7.83204 35.8327 7.30938 35.394C6.79604 34.946 6.14738 34.722 5.36338 34.722H2.80138L3.24938 30.284H8.26138V31.124H4.00538L3.72538 33.882H5.39138C6.41804 33.882 7.27671 34.1853 7.96738 34.792ZM10.7879 36.766V33.602C10.7879 32.6313 11.1333 31.8147 11.8239 31.152C12.5333 30.4893 13.4013 30.158 14.4279 30.158C15.4733 30.158 16.3413 30.4893 17.0319 31.152C17.7319 31.8053 18.0819 32.622 18.0819 33.602V36.766C18.0819 37.746 17.7319 38.5673 17.0319 39.23C16.3506 39.8833 15.4826 40.21 14.4279 40.21C13.3826 40.21 12.5146 39.8833 11.8239 39.23C11.1333 38.5673 10.7879 37.746 10.7879 36.766ZM11.6839 33.588V36.78C11.6839 37.508 11.9453 38.1193 12.4679 38.614C12.9906 39.0993 13.6439 39.342 14.4279 39.342C15.2119 39.342 15.8653 39.0993 16.3879 38.614C16.9199 38.1193 17.1859 37.508 17.1859 36.78V33.588C17.1859 32.86 16.9199 32.2533 16.3879 31.768C15.8466 31.2733 15.1933 31.026 14.4279 31.026C13.6626 31.026 13.0093 31.2733 12.4679 31.768C11.9453 32.2627 11.6839 32.8693 11.6839 33.588ZM19.9891 36.766V33.602C19.9891 32.6313 20.3344 31.8147 21.0251 31.152C21.7344 30.4893 22.6024 30.158 23.6291 30.158C24.6744 30.158 25.5424 30.4893 26.2331 31.152C26.9331 31.8053 27.2831 32.622 27.2831 33.602V36.766C27.2831 37.746 26.9331 38.5673 26.2331 39.23C25.5518 39.8833 24.6838 40.21 23.6291 40.21C22.5838 40.21 21.7158 39.8833 21.0251 39.23C20.3344 38.5673 19.9891 37.746 19.9891 36.766ZM20.8851 33.588V36.78C20.8851 37.508 21.1464 38.1193 21.6691 38.614C22.1918 39.0993 22.8451 39.342 23.6291 39.342C24.4131 39.342 25.0664 39.0993 25.5891 38.614C26.1211 38.1193 26.3871 37.508 26.3871 36.78V33.588C26.3871 32.86 26.1211 32.2533 25.5891 31.768C25.0478 31.2733 24.3944 31.026 23.6291 31.026C22.8638 31.026 22.2104 31.2733 21.6691 31.768C21.1464 32.2627 20.8851 32.8693 20.8851 33.588Z" fill="black"/>
<path d="M6.60338 66.1035V64.0035H1.01738V63.1355L6.67338 56.3035H7.49938V63.1215H8.99738V64.0035H7.49938V66.1035H6.60338ZM6.60338 57.6755L2.12338 63.1215H6.60338V57.6755ZM10.5399 62.7855V59.6215C10.5399 58.6508 10.8852 57.8342 11.5759 57.1715C12.2852 56.5088 13.1532 56.1775 14.1799 56.1775C15.2252 56.1775 16.0932 56.5088 16.7839 57.1715C17.4839 57.8248 17.8339 58.6415 17.8339 59.6215V62.7855C17.8339 63.7655 17.4839 64.5868 16.7839 65.2495C16.1026 65.9028 15.2346 66.2295 14.1799 66.2295C13.1346 66.2295 12.2666 65.9028 11.5759 65.2495C10.8852 64.5868 10.5399 63.7655 10.5399 62.7855ZM11.4359 59.6075V62.7995C11.4359 63.5275 11.6972 64.1388 12.2199 64.6335C12.7426 65.1188 13.3959 65.3615 14.1799 65.3615C14.9639 65.3615 15.6172 65.1188 16.1399 64.6335C16.6719 64.1388 16.9379 63.5275 16.9379 62.7995V59.6075C16.9379 58.8795 16.6719 58.2728 16.1399 57.7875C15.5986 57.2928 14.9452 57.0455 14.1799 57.0455C13.4146 57.0455 12.7612 57.2928 12.2199 57.7875C11.6972 58.2822 11.4359 58.8888 11.4359 59.6075ZM19.7411 62.7855V59.6215C19.7411 58.6508 20.0864 57.8342 20.7771 57.1715C21.4864 56.5088 22.3544 56.1775 23.3811 56.1775C24.4264 56.1775 25.2944 56.5088 25.9851 57.1715C26.6851 57.8248 27.0351 58.6415 27.0351 59.6215V62.7855C27.0351 63.7655 26.6851 64.5868 25.9851 65.2495C25.3037 65.9028 24.4357 66.2295 23.3811 66.2295C22.3357 66.2295 21.4677 65.9028 20.7771 65.2495C20.0864 64.5868 19.7411 63.7655 19.7411 62.7855ZM20.6371 59.6075V62.7995C20.6371 63.5275 20.8984 64.1388 21.4211 64.6335C21.9437 65.1188 22.5971 65.3615 23.3811 65.3615C24.1651 65.3615 24.8184 65.1188 25.3411 64.6335C25.8731 64.1388 26.1391 63.5275 26.1391 62.7995V59.6075C26.1391 58.8795 25.8731 58.2728 25.3411 57.7875C24.7997 57.2928 24.1464 57.0455 23.3811 57.0455C22.6157 57.0455 21.9624 57.2928 21.4211 57.7875C20.8984 58.2822 20.6371 58.8888 20.6371 59.6075Z" fill="black"/>
<path d="M7.67338 84.858C7.67338 84.3634 7.44938 83.9387 7.00138 83.584C6.56271 83.2387 6.00738 83.066 5.33538 83.066C4.81271 83.066 4.34138 83.1827 3.92138 83.416C3.51071 83.64 3.21204 83.948 3.02538 84.34L2.21338 83.948C2.47471 83.4067 2.88071 82.982 3.43138 82.674C3.99138 82.3567 4.62604 82.198 5.33538 82.198C6.25938 82.198 7.03404 82.4547 7.65938 82.968C8.28471 83.472 8.59738 84.0974 8.59738 84.844C8.59738 85.32 8.45271 85.7587 8.16338 86.16C7.87404 86.552 7.47738 86.8554 6.97338 87.07C7.54271 87.294 7.99071 87.6207 8.31738 88.05C8.65338 88.47 8.82138 88.946 8.82138 89.478C8.82138 90.2714 8.49004 90.934 7.82738 91.466C7.16471 91.9887 6.33871 92.25 5.34938 92.25C4.59338 92.25 3.92138 92.0867 3.33338 91.76C2.74538 91.4334 2.32538 90.9947 2.07338 90.444L2.94138 90.108C3.11871 90.5 3.42204 90.8127 3.85138 91.046C4.28071 91.27 4.78004 91.382 5.34938 91.382C6.06804 91.382 6.67471 91.2 7.16938 90.836C7.65471 90.4627 7.89738 90.0007 7.89738 89.45C7.89738 88.9087 7.65938 88.456 7.18338 88.092C6.71671 87.728 6.12871 87.546 5.41938 87.546H4.69138V86.692H5.23738C5.93738 86.692 6.51604 86.5194 6.97338 86.174C7.44004 85.8194 7.67338 85.3807 7.67338 84.858ZM10.5829 88.806V85.642C10.5829 84.6714 10.9282 83.8547 11.6189 83.192C12.3282 82.5294 13.1962 82.198 14.2229 82.198C15.2682 82.198 16.1362 82.5294 16.8269 83.192C17.5269 83.8454 17.8769 84.662 17.8769 85.642V88.806C17.8769 89.786 17.5269 90.6074 16.8269 91.27C16.1455 91.9234 15.2775 92.25 14.2229 92.25C13.1775 92.25 12.3095 91.9234 11.6189 91.27C10.9282 90.6074 10.5829 89.786 10.5829 88.806ZM11.4789 85.628V88.82C11.4789 89.548 11.7402 90.1594 12.2629 90.654C12.7855 91.1394 13.4389 91.382 14.2229 91.382C15.0069 91.382 15.6602 91.1394 16.1829 90.654C16.7149 90.1594 16.9809 89.548 16.9809 88.82V85.628C16.9809 84.9 16.7149 84.2934 16.1829 83.808C15.6415 83.3134 14.9882 83.066 14.2229 83.066C13.4575 83.066 12.8042 83.3134 12.2629 83.808C11.7402 84.3027 11.4789 84.9094 11.4789 85.628ZM19.784 88.806V85.642C19.784 84.6714 20.1294 83.8547 20.82 83.192C21.5294 82.5294 22.3974 82.198 23.424 82.198C24.4694 82.198 25.3374 82.5294 26.028 83.192C26.728 83.8454 27.078 84.662 27.078 85.642V88.806C27.078 89.786 26.728 90.6074 26.028 91.27C25.3467 91.9234 24.4787 92.25 23.424 92.25C22.3787 92.25 21.5107 91.9234 20.82 91.27C20.1294 90.6074 19.784 89.786 19.784 88.806ZM20.68 85.628V88.82C20.68 89.548 20.9414 90.1594 21.464 90.654C21.9867 91.1394 22.64 91.382 23.424 91.382C24.208 91.382 24.8614 91.1394 25.384 90.654C25.916 90.1594 26.182 89.548 26.182 88.82V85.628C26.182 84.9 25.916 84.2934 25.384 83.808C24.8427 83.3134 24.1894 83.066 23.424 83.066C22.6587 83.066 22.0054 83.3134 21.464 83.808C20.9414 84.3027 20.68 84.9094 20.68 85.628Z" fill="black"/>
<path d="M7.11738 111.131C7.11738 110.571 6.88871 110.09 6.43138 109.689C5.99271 109.287 5.44671 109.087 4.79338 109.087C4.26138 109.087 3.77604 109.245 3.33738 109.563C2.90804 109.871 2.58604 110.295 2.37138 110.837L1.54538 110.445C1.82538 109.763 2.25471 109.222 2.83338 108.821C3.41204 108.419 4.06538 108.219 4.79338 108.219C5.69871 108.219 6.46404 108.503 7.08938 109.073C7.72404 109.633 8.04138 110.314 8.04138 111.117C8.04138 111.677 7.87338 112.199 7.53738 112.685C7.22938 113.151 6.72538 113.721 6.02538 114.393L3.01538 117.277H8.20938V118.145H1.60138V117.501L5.38138 113.819L6.05338 113.161C6.22138 112.983 6.38938 112.783 6.55738 112.559C6.93071 112.092 7.11738 111.616 7.11738 111.131ZM9.98716 114.827V111.663C9.98716 110.692 10.3325 109.875 11.0232 109.213C11.7325 108.55 12.6005 108.219 13.6272 108.219C14.6725 108.219 15.5405 108.55 16.2312 109.213C16.9312 109.866 17.2812 110.683 17.2812 111.663V114.827C17.2812 115.807 16.9312 116.628 16.2312 117.291C15.5498 117.944 14.6818 118.271 13.6272 118.271C12.5818 118.271 11.7138 117.944 11.0232 117.291C10.3325 116.628 9.98716 115.807 9.98716 114.827ZM10.8832 111.649V114.841C10.8832 115.569 11.1445 116.18 11.6672 116.675C12.1898 117.16 12.8432 117.403 13.6272 117.403C14.4112 117.403 15.0645 117.16 15.5872 116.675C16.1192 116.18 16.3852 115.569 16.3852 114.841V111.649C16.3852 110.921 16.1192 110.314 15.5872 109.829C15.0458 109.334 14.3925 109.087 13.6272 109.087C12.8618 109.087 12.2085 109.334 11.6672 109.829C11.1445 110.323 10.8832 110.93 10.8832 111.649ZM19.1883 114.827V111.663C19.1883 110.692 19.5337 109.875 20.2243 109.213C20.9337 108.55 21.8017 108.219 22.8283 108.219C23.8737 108.219 24.7417 108.55 25.4323 109.213C26.1323 109.866 26.4823 110.683 26.4823 111.663V114.827C26.4823 115.807 26.1323 116.628 25.4323 117.291C24.751 117.944 23.883 118.271 22.8283 118.271C21.783 118.271 20.915 117.944 20.2243 117.291C19.5337 116.628 19.1883 115.807 19.1883 114.827ZM20.0843 111.649V114.841C20.0843 115.569 20.3457 116.18 20.8683 116.675C21.391 117.16 22.0443 117.403 22.8283 117.403C23.6123 117.403 24.2657 117.16 24.7883 116.675C25.3203 116.18 25.5863 115.569 25.5863 114.841V111.649C25.5863 110.921 25.3203 110.314 24.7883 109.829C24.247 109.334 23.5937 109.087 22.8283 109.087C22.063 109.087 21.4097 109.334 20.8683 109.829C20.3457 110.323 20.0843 110.93 20.0843 111.649Z" fill="black"/>
<path d="M7.13538 133.478L5.00738 134.654L4.61538 133.856L7.42938 132.316H8.03138V142.116H7.13538V133.478ZM10.7586 138.798V135.634C10.7586 134.664 11.104 133.847 11.7946 133.184C12.504 132.522 13.372 132.19 14.3986 132.19C15.444 132.19 16.312 132.522 17.0026 133.184C17.7026 133.838 18.0526 134.654 18.0526 135.634V138.798C18.0526 139.778 17.7026 140.6 17.0026 141.262C16.3213 141.916 15.4533 142.242 14.3986 142.242C13.3533 142.242 12.4853 141.916 11.7946 141.262C11.104 140.6 10.7586 139.778 10.7586 138.798ZM11.6546 135.62V138.812C11.6546 139.54 11.916 140.152 12.4386 140.646C12.9613 141.132 13.6146 141.374 14.3986 141.374C15.1826 141.374 15.836 141.132 16.3586 140.646C16.8906 140.152 17.1566 139.54 17.1566 138.812V135.62C17.1566 134.892 16.8906 134.286 16.3586 133.8C15.8173 133.306 15.164 133.058 14.3986 133.058C13.6333 133.058 12.98 133.306 12.4386 133.8C11.916 134.295 11.6546 134.902 11.6546 135.62ZM19.9598 138.798V135.634C19.9598 134.664 20.3051 133.847 20.9958 133.184C21.7051 132.522 22.5731 132.19 23.5998 132.19C24.6451 132.19 25.5131 132.522 26.2038 133.184C26.9038 133.838 27.2538 134.654 27.2538 135.634V138.798C27.2538 139.778 26.9038 140.6 26.2038 141.262C25.5225 141.916 24.6545 142.242 23.5998 142.242C22.5545 142.242 21.6865 141.916 20.9958 141.262C20.3051 140.6 19.9598 139.778 19.9598 138.798ZM20.8558 135.62V138.812C20.8558 139.54 21.1171 140.152 21.6398 140.646C22.1625 141.132 22.8158 141.374 23.5998 141.374C24.3838 141.374 25.0371 141.132 25.5598 140.646C26.0918 140.152 26.3578 139.54 26.3578 138.812V135.62C26.3578 134.892 26.0918 134.286 25.5598 133.8C25.0185 133.306 24.3651 133.058 23.5998 133.058C22.8345 133.058 22.1811 133.306 21.6398 133.8C21.1171 134.295 20.8558 134.902 20.8558 135.62Z" fill="black"/>
<path d="M4.31138 162.77V159.606C4.31138 158.635 4.65671 157.819 5.34738 157.156C6.05671 156.493 6.92471 156.162 7.95138 156.162C8.99671 156.162 9.86471 156.493 10.5554 157.156C11.2554 157.809 11.6054 158.626 11.6054 159.606V162.77C11.6054 163.75 11.2554 164.571 10.5554 165.234C9.87404 165.887 9.00604 166.214 7.95138 166.214C6.90604 166.214 6.03804 165.887 5.34738 165.234C4.65671 164.571 4.31138 163.75 4.31138 162.77ZM5.20737 159.592V162.784C5.20737 163.512 5.46871 164.123 5.99138 164.618C6.51404 165.103 7.16738 165.346 7.95138 165.346C8.73538 165.346 9.38871 165.103 9.91138 164.618C10.4434 164.123 10.7094 163.512 10.7094 162.784V159.592C10.7094 158.864 10.4434 158.257 9.91138 157.772C9.37004 157.277 8.71671 157.03 7.95138 157.03C7.18604 157.03 6.53271 157.277 5.99138 157.772C5.46871 158.267 5.20737 158.873 5.20737 159.592Z" fill="black"/>
<path d="M20.2086 183.431V180.719C20.2086 179.887 20.5046 179.187 21.0966 178.619C21.7046 178.051 22.4486 177.767 23.3286 177.767C24.2246 177.767 24.9686 178.051 25.5606 178.619C26.1606 179.179 26.4606 179.879 26.4606 180.719V183.431C26.4606 184.271 26.1606 184.975 25.5606 185.543C24.9766 186.103 24.2326 186.383 23.3286 186.383C22.4326 186.383 21.6886 186.103 21.0966 185.543C20.5046 184.975 20.2086 184.271 20.2086 183.431ZM20.9766 180.707V183.443C20.9766 184.067 21.2006 184.591 21.6486 185.015C22.0966 185.431 22.6566 185.639 23.3286 185.639C24.0006 185.639 24.5606 185.431 25.0086 185.015C25.4646 184.591 25.6926 184.067 25.6926 183.443V180.707C25.6926 180.083 25.4646 179.563 25.0086 179.147C24.5446 178.723 23.9846 178.511 23.3286 178.511C22.6726 178.511 22.1126 178.723 21.6486 179.147C21.2006 179.571 20.9766 180.091 20.9766 180.707ZM28.0473 184.955L28.7553 184.595C28.9553 184.915 29.2353 185.171 29.5953 185.363C29.9553 185.547 30.3513 185.639 30.7833 185.639C31.4713 185.639 32.0353 185.431 32.4753 185.015C32.9313 184.591 33.1593 184.071 33.1593 183.455V182.159C32.9353 182.543 32.6233 182.847 32.2233 183.071C31.8313 183.287 31.3993 183.395 30.9273 183.395C30.0713 183.395 29.3593 183.127 28.7913 182.591C28.2153 182.055 27.9273 181.383 27.9273 180.575C27.9273 179.783 28.2113 179.115 28.7793 178.571C29.3473 178.035 30.0633 177.767 30.9273 177.767C31.7753 177.767 32.4873 178.031 33.0633 178.559C33.6393 179.079 33.9273 179.727 33.9273 180.503V183.443C33.9273 184.283 33.6233 184.983 33.0153 185.543C32.4233 186.103 31.6753 186.383 30.7713 186.383C30.1953 186.383 29.6633 186.255 29.1753 185.999C28.6953 185.743 28.3193 185.395 28.0473 184.955ZM32.4873 182.063C32.9113 181.663 33.1233 181.171 33.1233 180.587C33.1233 180.003 32.9113 179.511 32.4873 179.111C32.0633 178.711 31.5433 178.511 30.9273 178.511C30.2953 178.511 29.7713 178.707 29.3553 179.099C28.9313 179.499 28.7193 179.987 28.7193 180.563C28.7193 181.155 28.9313 181.651 29.3553 182.051C29.7793 182.451 30.3033 182.651 30.9273 182.651C31.5513 182.651 32.0713 182.455 32.4873 182.063ZM35.2635 185.783C35.2635 185.615 35.3195 185.475 35.4315 185.363C35.5515 185.251 35.6955 185.195 35.8635 185.195C36.0315 185.195 36.1715 185.251 36.2835 185.363C36.4035 185.475 36.4635 185.615 36.4635 185.783C36.4795 186.031 36.3835 186.203 36.1755 186.299C35.9675 186.403 35.7595 186.403 35.5515 186.299C35.3435 186.203 35.2475 186.031 35.2635 185.783ZM37.939 183.431V180.719C37.939 179.887 38.235 179.187 38.827 178.619C39.435 178.051 40.179 177.767 41.059 177.767C41.955 177.767 42.699 178.051 43.291 178.619C43.891 179.179 44.191 179.879 44.191 180.719V183.431C44.191 184.271 43.891 184.975 43.291 185.543C42.707 186.103 41.963 186.383 41.059 186.383C40.163 186.383 39.419 186.103 38.827 185.543C38.235 184.975 37.939 184.271 37.939 183.431ZM38.707 180.707V183.443C38.707 184.067 38.931 184.591 39.379 185.015C39.827 185.431 40.387 185.639 41.059 185.639C41.731 185.639 42.291 185.431 42.739 185.015C43.195 184.591 43.423 184.067 43.423 183.443V180.707C43.423 180.083 43.195 179.563 42.739 179.147C42.275 178.723 41.715 178.511 41.059 178.511C40.403 178.511 39.843 178.723 39.379 179.147C38.931 179.571 38.707 180.091 38.707 180.707ZM51.6218 179.171L50.9258 179.531C50.4858 178.851 49.8218 178.511 48.9338 178.511C48.2698 178.511 47.7138 178.723 47.2658 179.147C46.8178 179.571 46.5938 180.091 46.5938 180.707V182.039C46.8178 181.703 47.1298 181.439 47.5298 181.247C47.9298 181.047 48.3698 180.947 48.8498 180.947C49.6898 180.947 50.4018 181.207 50.9858 181.727C51.5618 182.247 51.8498 182.895 51.8498 183.671C51.8498 184.447 51.5618 185.091 50.9858 185.603C50.4018 186.123 49.6898 186.383 48.8498 186.383C48.0018 186.383 47.2818 186.123 46.6898 185.603C46.1138 185.075 45.8258 184.431 45.8258 183.671V180.719C45.8258 179.887 46.1218 179.187 46.7138 178.619C47.3218 178.051 48.0658 177.767 48.9458 177.767C49.5138 177.767 50.0338 177.891 50.5058 178.139C50.9778 178.387 51.3498 178.731 51.6218 179.171ZM48.8498 181.691C48.2178 181.691 47.6858 181.883 47.2538 182.267C46.8298 182.643 46.6178 183.107 46.6178 183.659C46.6178 184.219 46.8298 184.691 47.2538 185.075C47.6938 185.451 48.2258 185.639 48.8498 185.639C49.4738 185.639 49.9978 185.451 50.4218 185.075C50.8458 184.699 51.0578 184.235 51.0578 183.683C51.0578 183.123 50.8458 182.651 50.4218 182.267C49.9978 181.883 49.4738 181.691 48.8498 181.691ZM56.7136 183.503V182.807H59.7856V183.503H56.7136ZM66.8607 178.871L65.0367 179.879L64.7007 179.195L67.1127 177.875H67.6287V186.275H66.8607V178.871ZM74.5024 186.275V184.475H69.7144V183.731L74.5624 177.875H75.2704V183.719H76.5544V184.475H75.2704V186.275H74.5024ZM74.5024 179.051L70.6624 183.719H74.5024V179.051ZM77.7205 185.783C77.7205 185.615 77.7765 185.475 77.8885 185.363C78.0085 185.251 78.1525 185.195 78.3205 185.195C78.4885 185.195 78.6285 185.251 78.7405 185.363C78.8605 185.475 78.9205 185.615 78.9205 185.783C78.9365 186.031 78.8405 186.203 78.6325 186.299C78.4245 186.403 78.2165 186.403 78.0085 186.299C77.8005 186.203 77.7045 186.031 77.7205 185.783ZM80.3961 183.431V180.719C80.3961 179.887 80.6921 179.187 81.2841 178.619C81.8921 178.051 82.6361 177.767 83.5161 177.767C84.4121 177.767 85.1561 178.051 85.7481 178.619C86.3481 179.179 86.6481 179.879 86.6481 180.719V183.431C86.6481 184.271 86.3481 184.975 85.7481 185.543C85.1641 186.103 84.4201 186.383 83.5161 186.383C82.6201 186.383 81.8761 186.103 81.2841 185.543C80.6921 184.975 80.3961 184.271 80.3961 183.431ZM81.1641 180.707V183.443C81.1641 184.067 81.3881 184.591 81.8361 185.015C82.2841 185.431 82.8441 185.639 83.5161 185.639C84.1881 185.639 84.7481 185.431 85.1961 185.015C85.6521 184.591 85.8801 184.067 85.8801 183.443V180.707C85.8801 180.083 85.6521 179.563 85.1961 179.147C84.7321 178.723 84.1721 178.511 83.5161 178.511C82.8601 178.511 82.3001 178.723 81.8361 179.147C81.3881 179.571 81.1641 180.091 81.1641 180.707ZM94.0788 179.171L93.3828 179.531C92.9428 178.851 92.2788 178.511 91.3908 178.511C90.7268 178.511 90.1708 178.723 89.7228 179.147C89.2748 179.571 89.0508 180.091 89.0508 180.707V182.039C89.2748 181.703 89.5868 181.439 89.9868 181.247C90.3868 181.047 90.8268 180.947 91.3068 180.947C92.1468 180.947 92.8588 181.207 93.4428 181.727C94.0188 182.247 94.3068 182.895 94.3068 183.671C94.3068 184.447 94.0188 185.091 93.4428 185.603C92.8588 186.123 92.1468 186.383 91.3068 186.383C90.4588 186.383 89.7388 186.123 89.1468 185.603C88.5708 185.075 88.2828 184.431 88.2828 183.671V180.719C88.2828 179.887 88.5788 179.187 89.1708 178.619C89.7788 178.051 90.5228 177.767 91.4028 177.767C91.9708 177.767 92.4908 177.891 92.9628 178.139C93.4348 178.387 93.8068 178.731 94.0788 179.171ZM91.3068 181.691C90.6748 181.691 90.1428 181.883 89.7108 182.267C89.2868 182.643 89.0748 183.107 89.0748 183.659C89.0748 184.219 89.2868 184.691 89.7108 185.075C90.1508 185.451 90.6828 185.639 91.3068 185.639C91.9308 185.639 92.4548 185.451 92.8788 185.075C93.3028 184.699 93.5148 184.235 93.5148 183.683C93.5148 183.123 93.3028 182.651 92.8788 182.267C92.4548 181.883 91.9308 181.691 91.3068 181.691Z" fill="black"/>
<path d="M112.613 178.871L110.789 179.879L110.453 179.195L112.865 177.875H113.381V186.275H112.613V178.871ZM120.314 180.047C120.314 179.623 120.122 179.259 119.738 178.955C119.362 178.659 118.886 178.511 118.31 178.511C117.862 178.511 117.458 178.611 117.098 178.811C116.746 179.003 116.49 179.267 116.33 179.603L115.634 179.267C115.858 178.803 116.206 178.439 116.678 178.175C117.158 177.903 117.702 177.767 118.31 177.767C119.102 177.767 119.766 177.987 120.302 178.427C120.838 178.859 121.106 179.395 121.106 180.035C121.106 180.443 120.982 180.819 120.734 181.163C120.486 181.499 120.146 181.759 119.714 181.943C120.202 182.135 120.586 182.415 120.866 182.783C121.154 183.143 121.298 183.551 121.298 184.007C121.298 184.687 121.014 185.255 120.446 185.711C119.878 186.159 119.17 186.383 118.322 186.383C117.674 186.383 117.098 186.243 116.594 185.963C116.09 185.683 115.73 185.307 115.514 184.835L116.258 184.547C116.41 184.883 116.67 185.151 117.038 185.351C117.406 185.543 117.834 185.639 118.322 185.639C118.938 185.639 119.458 185.483 119.882 185.171C120.298 184.851 120.506 184.455 120.506 183.983C120.506 183.519 120.302 183.131 119.894 182.819C119.494 182.507 118.99 182.351 118.382 182.351H117.758V181.619H118.226C118.826 181.619 119.322 181.471 119.714 181.175C120.114 180.871 120.314 180.495 120.314 180.047ZM122.652 185.783C122.652 185.615 122.708 185.475 122.82 185.363C122.94 185.251 123.084 185.195 123.252 185.195C123.42 185.195 123.56 185.251 123.672 185.363C123.792 185.475 123.852 185.615 123.852 185.783C123.868 186.031 123.772 186.203 123.564 186.299C123.356 186.403 123.148 186.403 122.94 186.299C122.732 186.203 122.636 186.031 122.652 185.783ZM125.328 183.431V180.719C125.328 179.887 125.624 179.187 126.216 178.619C126.824 178.051 127.568 177.767 128.448 177.767C129.344 177.767 130.088 178.051 130.68 178.619C131.28 179.179 131.58 179.879 131.58 180.719V183.431C131.58 184.271 131.28 184.975 130.68 185.543C130.096 186.103 129.352 186.383 128.448 186.383C127.552 186.383 126.808 186.103 126.216 185.543C125.624 184.975 125.328 184.271 125.328 183.431ZM126.096 180.707V183.443C126.096 184.067 126.32 184.591 126.768 185.015C127.216 185.431 127.776 185.639 128.448 185.639C129.12 185.639 129.68 185.431 130.128 185.015C130.584 184.591 130.812 184.067 130.812 183.443V180.707C130.812 180.083 130.584 179.563 130.128 179.147C129.664 178.723 129.104 178.511 128.448 178.511C127.792 178.511 127.232 178.723 126.768 179.147C126.32 179.571 126.096 180.091 126.096 180.707ZM134.27 186.275L137.294 178.595H132.71V177.875H138.11V178.619L135.098 186.275H134.27ZM142.989 183.503V182.807H146.061V183.503H142.989ZM153.136 178.871L151.312 179.879L150.976 179.195L153.388 177.875H153.904V186.275H153.136V178.871ZM156.194 184.955L156.902 184.595C157.102 184.915 157.382 185.171 157.742 185.363C158.102 185.547 158.498 185.639 158.93 185.639C159.618 185.639 160.182 185.431 160.622 185.015C161.078 184.591 161.306 184.071 161.306 183.455V182.159C161.082 182.543 160.77 182.847 160.37 183.071C159.978 183.287 159.546 183.395 159.074 183.395C158.218 183.395 157.506 183.127 156.938 182.591C156.362 182.055 156.074 181.383 156.074 180.575C156.074 179.783 156.358 179.115 156.926 178.571C157.494 178.035 158.21 177.767 159.074 177.767C159.922 177.767 160.634 178.031 161.21 178.559C161.786 179.079 162.074 179.727 162.074 180.503V183.443C162.074 184.283 161.77 184.983 161.162 185.543C160.57 186.103 159.822 186.383 158.918 186.383C158.342 186.383 157.81 186.255 157.322 185.999C156.842 185.743 156.466 185.395 156.194 184.955ZM160.634 182.063C161.058 181.663 161.27 181.171 161.27 180.587C161.27 180.003 161.058 179.511 160.634 179.111C160.21 178.711 159.69 178.511 159.074 178.511C158.442 178.511 157.918 178.707 157.502 179.099C157.078 179.499 156.866 179.987 156.866 180.563C156.866 181.155 157.078 181.651 157.502 182.051C157.926 182.451 158.45 182.651 159.074 182.651C159.698 182.651 160.218 182.455 160.634 182.063ZM163.41 185.783C163.41 185.615 163.466 185.475 163.578 185.363C163.698 185.251 163.842 185.195 164.01 185.195C164.178 185.195 164.318 185.251 164.43 185.363C164.55 185.475 164.61 185.615 164.61 185.783C164.626 186.031 164.53 186.203 164.322 186.299C164.114 186.403 163.906 186.403 163.698 186.299C163.49 186.203 163.394 186.031 163.41 185.783ZM166.086 183.431V180.719C166.086 179.887 166.382 179.187 166.974 178.619C167.582 178.051 168.326 177.767 169.206 177.767C170.102 177.767 170.846 178.051 171.438 178.619C172.038 179.179 172.338 179.879 172.338 180.719V183.431C172.338 184.271 172.038 184.975 171.438 185.543C170.854 186.103 170.11 186.383 169.206 186.383C168.31 186.383 167.566 186.103 166.974 185.543C166.382 184.975 166.086 184.271 166.086 183.431ZM166.854 180.707V183.443C166.854 184.067 167.078 184.591 167.526 185.015C167.974 185.431 168.534 185.639 169.206 185.639C169.878 185.639 170.438 185.431 170.886 185.015C171.342 184.591 171.57 184.067 171.57 183.443V180.707C171.57 180.083 171.342 179.563 170.886 179.147C170.422 178.723 169.862 178.511 169.206 178.511C168.55 178.511 167.99 178.723 167.526 179.147C167.078 179.571 166.854 180.091 166.854 180.707ZM175.028 186.275L178.052 178.595H173.468V177.875H178.868V178.619L175.856 186.275H175.028Z" fill="black"/>
<path d="M210.912 178.871L209.088 179.879L208.752 179.195L211.164 177.875H211.68V186.275H210.912V178.871ZM215.073 186.275L218.097 178.595H213.513V177.875H218.913V178.619L215.901 186.275H215.073ZM220.189 185.783C220.189 185.615 220.245 185.475 220.357 185.363C220.477 185.251 220.621 185.195 220.789 185.195C220.957 185.195 221.097 185.251 221.209 185.363C221.329 185.475 221.389 185.615 221.389 185.783C221.405 186.031 221.309 186.203 221.101 186.299C220.893 186.403 220.685 186.403 220.477 186.299C220.269 186.203 220.173 186.031 220.189 185.783ZM222.865 183.431V180.719C222.865 179.887 223.161 179.187 223.753 178.619C224.361 178.051 225.105 177.767 225.985 177.767C226.881 177.767 227.625 178.051 228.217 178.619C228.817 179.179 229.117 179.879 229.117 180.719V183.431C229.117 184.271 228.817 184.975 228.217 185.543C227.633 186.103 226.889 186.383 225.985 186.383C225.089 186.383 224.345 186.103 223.753 185.543C223.161 184.975 222.865 184.271 222.865 183.431ZM223.633 180.707V183.443C223.633 184.067 223.857 184.591 224.305 185.015C224.753 185.431 225.313 185.639 225.985 185.639C226.657 185.639 227.217 185.431 227.665 185.015C228.121 184.591 228.349 184.067 228.349 183.443V180.707C228.349 180.083 228.121 179.563 227.665 179.147C227.201 178.723 226.641 178.511 225.985 178.511C225.329 178.511 224.769 178.723 224.305 179.147C223.857 179.571 223.633 180.091 223.633 180.707ZM230.62 184.007C230.62 183.535 230.76 183.111 231.04 182.735C231.328 182.359 231.724 182.075 232.228 181.883C231.812 181.691 231.48 181.427 231.232 181.091C230.992 180.747 230.872 180.371 230.872 179.963C230.872 179.347 231.132 178.827 231.652 178.403C232.188 177.979 232.844 177.767 233.62 177.767C234.404 177.767 235.056 177.979 235.576 178.403C236.104 178.819 236.368 179.339 236.368 179.963C236.368 180.371 236.244 180.747 235.996 181.091C235.756 181.427 235.428 181.691 235.012 181.883C235.5 182.083 235.888 182.375 236.176 182.759C236.464 183.135 236.608 183.551 236.608 184.007C236.608 184.687 236.324 185.255 235.756 185.711C235.188 186.159 234.476 186.383 233.62 186.383C232.764 186.383 232.048 186.155 231.472 185.699C230.904 185.243 230.62 184.679 230.62 184.007ZM235.816 183.947C235.816 183.467 235.608 183.067 235.192 182.747C234.768 182.419 234.244 182.255 233.62 182.255C232.996 182.255 232.472 182.419 232.048 182.747C231.632 183.067 231.424 183.467 231.424 183.947C231.424 184.435 231.632 184.839 232.048 185.159C232.464 185.479 232.988 185.639 233.62 185.639C234.252 185.639 234.776 185.479 235.192 185.159C235.608 184.839 235.816 184.435 235.816 183.947ZM233.62 178.511C233.068 178.511 232.604 178.655 232.228 178.943C231.852 179.231 231.664 179.591 231.664 180.023C231.664 180.455 231.852 180.815 232.228 181.103C232.604 181.391 233.068 181.535 233.62 181.535C234.172 181.535 234.632 181.391 235 181.103C235.376 180.815 235.564 180.455 235.564 180.023C235.564 179.591 235.376 179.231 235 178.943C234.632 178.655 234.172 178.511 233.62 178.511ZM241.569 183.503V182.807H244.641V183.503H241.569ZM254.272 180.263C254.272 179.783 254.076 179.371 253.684 179.027C253.308 178.683 252.84 178.511 252.28 178.511C251.824 178.511 251.408 178.647 251.032 178.919C250.664 179.183 250.388 179.547 250.204 180.011L249.496 179.675C249.736 179.091 250.104 178.627 250.6 178.283C251.096 177.939 251.656 177.767 252.28 177.767C253.056 177.767 253.712 178.011 254.248 178.499C254.792 178.979 255.064 179.563 255.064 180.251C255.064 180.731 254.92 181.179 254.632 181.595C254.368 181.995 253.936 182.483 253.336 183.059L250.756 185.531H255.208V186.275H249.544V185.723L252.784 182.567L253.36 182.003C253.504 181.851 253.648 181.679 253.792 181.487C254.112 181.087 254.272 180.679 254.272 180.263ZM261.328 180.047C261.328 179.623 261.136 179.259 260.752 178.955C260.376 178.659 259.9 178.511 259.324 178.511C258.876 178.511 258.472 178.611 258.112 178.811C257.76 179.003 257.504 179.267 257.344 179.603L256.648 179.267C256.872 178.803 257.22 178.439 257.692 178.175C258.172 177.903 258.716 177.767 259.324 177.767C260.116 177.767 260.78 177.987 261.316 178.427C261.852 178.859 262.12 179.395 262.12 180.035C262.12 180.443 261.996 180.819 261.748 181.163C261.5 181.499 261.16 181.759 260.728 181.943C261.216 182.135 261.6 182.415 261.88 182.783C262.168 183.143 262.312 183.551 262.312 184.007C262.312 184.687 262.028 185.255 261.46 185.711C260.892 186.159 260.184 186.383 259.336 186.383C258.688 186.383 258.112 186.243 257.608 185.963C257.104 185.683 256.744 185.307 256.528 184.835L257.272 184.547C257.424 184.883 257.684 185.151 258.052 185.351C258.42 185.543 258.848 185.639 259.336 185.639C259.952 185.639 260.472 185.483 260.896 185.171C261.312 184.851 261.52 184.455 261.52 183.983C261.52 183.519 261.316 183.131 260.908 182.819C260.508 182.507 260.004 182.351 259.396 182.351H258.772V181.619H259.24C259.84 181.619 260.336 181.471 260.728 181.175C261.128 180.871 261.328 180.495 261.328 180.047ZM263.666 185.783C263.666 185.615 263.722 185.475 263.834 185.363C263.954 185.251 264.098 185.195 264.266 185.195C264.434 185.195 264.574 185.251 264.686 185.363C264.806 185.475 264.866 185.615 264.866 185.783C264.882 186.031 264.786 186.203 264.578 186.299C264.37 186.403 264.162 186.403 263.954 186.299C263.746 186.203 263.65 186.031 263.666 185.783ZM266.341 183.431V180.719C266.341 179.887 266.637 179.187 267.229 178.619C267.837 178.051 268.581 177.767 269.461 177.767C270.357 177.767 271.101 178.051 271.693 178.619C272.293 179.179 272.593 179.879 272.593 180.719V183.431C272.593 184.271 272.293 184.975 271.693 185.543C271.109 186.103 270.365 186.383 269.461 186.383C268.565 186.383 267.821 186.103 267.229 185.543C266.637 184.975 266.341 184.271 266.341 183.431ZM267.109 180.707V183.443C267.109 184.067 267.333 184.591 267.781 185.015C268.229 185.431 268.789 185.639 269.461 185.639C270.133 185.639 270.693 185.431 271.141 185.015C271.597 184.591 271.825 184.067 271.825 183.443V180.707C271.825 180.083 271.597 179.563 271.141 179.147C270.677 178.723 270.117 178.511 269.461 178.511C268.805 178.511 268.245 178.723 267.781 179.147C267.333 179.571 267.109 180.091 267.109 180.707ZM274.096 184.007C274.096 183.535 274.236 183.111 274.516 182.735C274.804 182.359 275.2 182.075 275.704 181.883C275.288 181.691 274.956 181.427 274.708 181.091C274.468 180.747 274.348 180.371 274.348 179.963C274.348 179.347 274.608 178.827 275.128 178.403C275.664 177.979 276.32 177.767 277.096 177.767C277.88 177.767 278.532 177.979 279.052 178.403C279.58 178.819 279.844 179.339 279.844 179.963C279.844 180.371 279.72 180.747 279.472 181.091C279.232 181.427 278.904 181.691 278.488 181.883C278.976 182.083 279.364 182.375 279.652 182.759C279.94 183.135 280.084 183.551 280.084 184.007C280.084 184.687 279.8 185.255 279.232 185.711C278.664 186.159 277.952 186.383 277.096 186.383C276.24 186.383 275.524 186.155 274.948 185.699C274.38 185.243 274.096 184.679 274.096 184.007ZM279.292 183.947C279.292 183.467 279.084 183.067 278.668 182.747C278.244 182.419 277.72 182.255 277.096 182.255C276.472 182.255 275.948 182.419 275.524 182.747C275.108 183.067 274.9 183.467 274.9 183.947C274.9 184.435 275.108 184.839 275.524 185.159C275.94 185.479 276.464 185.639 277.096 185.639C277.728 185.639 278.252 185.479 278.668 185.159C279.084 184.839 279.292 184.435 279.292 183.947ZM277.096 178.511C276.544 178.511 276.08 178.655 275.704 178.943C275.328 179.231 275.14 179.591 275.14 180.023C275.14 180.455 275.328 180.815 275.704 181.103C276.08 181.391 276.544 181.535 277.096 181.535C277.648 181.535 278.108 181.391 278.476 181.103C278.852 180.815 279.04 180.455 279.04 180.023C279.04 179.591 278.852 179.231 278.476 178.943C278.108 178.655 277.648 178.511 277.096 178.511Z" fill="black"/>
<path d="M314.766 180.263C314.766 179.783 314.57 179.371 314.178 179.027C313.802 178.683 313.334 178.511 312.774 178.511C312.318 178.511 311.902 178.647 311.526 178.919C311.158 179.183 310.882 179.547 310.698 180.011L309.99 179.675C310.23 179.091 310.598 178.627 311.094 178.283C311.59 177.939 312.15 177.767 312.774 177.767C313.55 177.767 314.206 178.011 314.742 178.499C315.286 178.979 315.558 179.563 315.558 180.251C315.558 180.731 315.414 181.179 315.126 181.595C314.862 181.995 314.43 182.483 313.83 183.059L311.25 185.531H315.702V186.275H310.038V185.723L313.278 182.567L313.854 182.003C313.998 181.851 314.142 181.679 314.286 181.487C314.606 181.087 314.766 180.679 314.766 180.263ZM319.218 178.871L317.394 179.879L317.058 179.195L319.47 177.875H319.986V186.275H319.218V178.871ZM322.168 185.783C322.168 185.615 322.224 185.475 322.336 185.363C322.456 185.251 322.6 185.195 322.768 185.195C322.936 185.195 323.076 185.251 323.188 185.363C323.308 185.475 323.368 185.615 323.368 185.783C323.384 186.031 323.288 186.203 323.08 186.299C322.872 186.403 322.664 186.403 322.456 186.299C322.248 186.203 322.152 186.031 322.168 185.783ZM324.843 183.431V180.719C324.843 179.887 325.139 179.187 325.731 178.619C326.339 178.051 327.083 177.767 327.963 177.767C328.859 177.767 329.603 178.051 330.195 178.619C330.795 179.179 331.095 179.879 331.095 180.719V183.431C331.095 184.271 330.795 184.975 330.195 185.543C329.611 186.103 328.867 186.383 327.963 186.383C327.067 186.383 326.323 186.103 325.731 185.543C325.139 184.975 324.843 184.271 324.843 183.431ZM325.611 180.707V183.443C325.611 184.067 325.835 184.591 326.283 185.015C326.731 185.431 327.291 185.639 327.963 185.639C328.635 185.639 329.195 185.431 329.643 185.015C330.099 184.591 330.327 184.067 330.327 183.443V180.707C330.327 180.083 330.099 179.563 329.643 179.147C329.179 178.723 328.619 178.511 327.963 178.511C327.307 178.511 326.747 178.723 326.283 179.147C325.835 179.571 325.611 180.091 325.611 180.707ZM332.682 184.955L333.39 184.595C333.59 184.915 333.87 185.171 334.23 185.363C334.59 185.547 334.986 185.639 335.418 185.639C336.106 185.639 336.67 185.431 337.11 185.015C337.566 184.591 337.794 184.071 337.794 183.455V182.159C337.57 182.543 337.258 182.847 336.858 183.071C336.466 183.287 336.034 183.395 335.562 183.395C334.706 183.395 333.994 183.127 333.426 182.591C332.85 182.055 332.562 181.383 332.562 180.575C332.562 179.783 332.846 179.115 333.414 178.571C333.982 178.035 334.698 177.767 335.562 177.767C336.41 177.767 337.122 178.031 337.698 178.559C338.274 179.079 338.562 179.727 338.562 180.503V183.443C338.562 184.283 338.258 184.983 337.65 185.543C337.058 186.103 336.31 186.383 335.406 186.383C334.83 186.383 334.298 186.255 333.81 185.999C333.33 185.743 332.954 185.395 332.682 184.955ZM337.122 182.063C337.546 181.663 337.758 181.171 337.758 180.587C337.758 180.003 337.546 179.511 337.122 179.111C336.698 178.711 336.178 178.511 335.562 178.511C334.93 178.511 334.406 178.707 333.99 179.099C333.566 179.499 333.354 179.987 333.354 180.563C333.354 181.155 333.566 181.651 333.99 182.051C334.414 182.451 334.938 182.651 335.562 182.651C336.186 182.651 336.706 182.455 337.122 182.063ZM343.501 183.503V182.807H346.573V183.503H343.501ZM356.204 180.263C356.204 179.783 356.008 179.371 355.616 179.027C355.24 178.683 354.772 178.511 354.212 178.511C353.756 178.511 353.34 178.647 352.964 178.919C352.596 179.183 352.32 179.547 352.136 180.011L351.428 179.675C351.668 179.091 352.036 178.627 352.532 178.283C353.028 177.939 353.588 177.767 354.212 177.767C354.988 177.767 355.644 178.011 356.18 178.499C356.724 178.979 356.996 179.563 356.996 180.251C356.996 180.731 356.852 181.179 356.564 181.595C356.3 181.995 355.868 182.483 355.268 183.059L352.688 185.531H357.14V186.275H351.476V185.723L354.716 182.567L355.292 182.003C355.436 181.851 355.58 181.679 355.724 181.487C356.044 181.087 356.204 180.679 356.204 180.263ZM359.72 186.275L362.744 178.595H358.16V177.875H363.56V178.619L360.548 186.275H359.72ZM364.836 185.783C364.836 185.615 364.892 185.475 365.004 185.363C365.124 185.251 365.268 185.195 365.436 185.195C365.604 185.195 365.744 185.251 365.856 185.363C365.976 185.475 366.036 185.615 366.036 185.783C366.052 186.031 365.956 186.203 365.748 186.299C365.54 186.403 365.332 186.403 365.124 186.299C364.916 186.203 364.82 186.031 364.836 185.783ZM367.511 183.431V180.719C367.511 179.887 367.807 179.187 368.399 178.619C369.007 178.051 369.751 177.767 370.631 177.767C371.527 177.767 372.271 178.051 372.863 178.619C373.463 179.179 373.763 179.879 373.763 180.719V183.431C373.763 184.271 373.463 184.975 372.863 185.543C372.279 186.103 371.535 186.383 370.631 186.383C369.735 186.383 368.991 186.103 368.399 185.543C367.807 184.975 367.511 184.271 367.511 183.431ZM368.279 180.707V183.443C368.279 184.067 368.503 184.591 368.951 185.015C369.399 185.431 369.959 185.639 370.631 185.639C371.303 185.639 371.863 185.431 372.311 185.015C372.767 184.591 372.995 184.067 372.995 183.443V180.707C372.995 180.083 372.767 179.563 372.311 179.147C371.847 178.723 371.287 178.511 370.631 178.511C369.975 178.511 369.415 178.723 368.951 179.147C368.503 179.571 368.279 180.091 368.279 180.707ZM375.35 184.955L376.058 184.595C376.258 184.915 376.538 185.171 376.898 185.363C377.258 185.547 377.654 185.639 378.086 185.639C378.774 185.639 379.338 185.431 379.778 185.015C380.234 184.591 380.462 184.071 380.462 183.455V182.159C380.238 182.543 379.926 182.847 379.526 183.071C379.134 183.287 378.702 183.395 378.23 183.395C377.374 183.395 376.662 183.127 376.094 182.591C375.518 182.055 375.23 181.383 375.23 180.575C375.23 179.783 375.514 179.115 376.082 178.571C376.65 178.035 377.366 177.767 378.23 177.767C379.078 177.767 379.79 178.031 380.366 178.559C380.942 179.079 381.23 179.727 381.23 180.503V183.443C381.23 184.283 380.926 184.983 380.318 185.543C379.726 186.103 378.978 186.383 378.074 186.383C377.498 186.383 376.966 186.255 376.478 185.999C375.998 185.743 375.622 185.395 375.35 184.955ZM379.79 182.063C380.214 181.663 380.426 181.171 380.426 180.587C380.426 180.003 380.214 179.511 379.79 179.111C379.366 178.711 378.846 178.511 378.23 178.511C377.598 178.511 377.074 178.707 376.658 179.099C376.234 179.499 376.022 179.987 376.022 180.563C376.022 181.155 376.234 181.651 376.658 182.051C377.082 182.451 377.606 182.651 378.23 182.651C378.854 182.651 379.374 182.455 379.79 182.063Z" fill="black"/>
<path d="M422.395 180.263C422.395 179.783 422.199 179.371 421.807 179.027C421.431 178.683 420.963 178.511 420.403 178.511C419.947 178.511 419.531 178.647 419.155 178.919C418.787 179.183 418.511 179.547 418.327 180.011L417.619 179.675C417.859 179.091 418.227 178.627 418.723 178.283C419.219 177.939 419.779 177.767 420.403 177.767C421.179 177.767 421.835 178.011 422.371 178.499C422.915 178.979 423.187 179.563 423.187 180.251C423.187 180.731 423.043 181.179 422.755 181.595C422.491 181.995 422.059 182.483 421.459 183.059L418.879 185.531H423.331V186.275H417.667V185.723L420.907 182.567L421.483 182.003C421.627 181.851 421.771 181.679 421.915 181.487C422.235 181.087 422.395 180.679 422.395 180.263ZM430.651 179.171L429.955 179.531C429.515 178.851 428.851 178.511 427.963 178.511C427.299 178.511 426.743 178.723 426.295 179.147C425.847 179.571 425.623 180.091 425.623 180.707V182.039C425.847 181.703 426.159 181.439 426.559 181.247C426.959 181.047 427.399 180.947 427.879 180.947C428.719 180.947 429.431 181.207 430.015 181.727C430.591 182.247 430.879 182.895 430.879 183.671C430.879 184.447 430.591 185.091 430.015 185.603C429.431 186.123 428.719 186.383 427.879 186.383C427.031 186.383 426.311 186.123 425.719 185.603C425.143 185.075 424.855 184.431 424.855 183.671V180.719C424.855 179.887 425.151 179.187 425.743 178.619C426.351 178.051 427.095 177.767 427.975 177.767C428.543 177.767 429.063 177.891 429.535 178.139C430.007 178.387 430.379 178.731 430.651 179.171ZM427.879 181.691C427.247 181.691 426.715 181.883 426.283 182.267C425.859 182.643 425.647 183.107 425.647 183.659C425.647 184.219 425.859 184.691 426.283 185.075C426.723 185.451 427.255 185.639 427.879 185.639C428.503 185.639 429.027 185.451 429.451 185.075C429.875 184.699 430.087 184.235 430.087 183.683C430.087 183.123 429.875 182.651 429.451 182.267C429.027 181.883 428.503 181.691 427.879 181.691ZM432.14 185.783C432.14 185.615 432.196 185.475 432.308 185.363C432.428 185.251 432.572 185.195 432.74 185.195C432.908 185.195 433.048 185.251 433.16 185.363C433.28 185.475 433.34 185.615 433.34 185.783C433.356 186.031 433.26 186.203 433.052 186.299C432.844 186.403 432.636 186.403 432.428 186.299C432.22 186.203 432.124 186.031 432.14 185.783ZM436.808 178.871L434.984 179.879L434.648 179.195L437.06 177.875H437.576V186.275H436.808V178.871ZM439.914 183.431V180.719C439.914 179.887 440.21 179.187 440.802 178.619C441.41 178.051 442.154 177.767 443.034 177.767C443.93 177.767 444.674 178.051 445.266 178.619C445.866 179.179 446.166 179.879 446.166 180.719V183.431C446.166 184.271 445.866 184.975 445.266 185.543C444.682 186.103 443.938 186.383 443.034 186.383C442.138 186.383 441.394 186.103 440.802 185.543C440.21 184.975 439.914 184.271 439.914 183.431ZM440.682 180.707V183.443C440.682 184.067 440.906 184.591 441.354 185.015C441.802 185.431 442.362 185.639 443.034 185.639C443.706 185.639 444.266 185.431 444.714 185.015C445.17 184.591 445.398 184.067 445.398 183.443V180.707C445.398 180.083 445.17 179.563 444.714 179.147C444.25 178.723 443.69 178.511 443.034 178.511C442.378 178.511 441.818 178.723 441.354 179.147C440.906 179.571 440.682 180.091 440.682 180.707ZM451.247 183.503V182.807H454.319V183.503H451.247ZM459.402 183.431V180.719C459.402 179.887 459.698 179.187 460.29 178.619C460.898 178.051 461.642 177.767 462.522 177.767C463.418 177.767 464.162 178.051 464.754 178.619C465.354 179.179 465.654 179.879 465.654 180.719V183.431C465.654 184.271 465.354 184.975 464.754 185.543C464.17 186.103 463.426 186.383 462.522 186.383C461.626 186.383 460.882 186.103 460.29 185.543C459.698 184.975 459.402 184.271 459.402 183.431ZM460.17 180.707V183.443C460.17 184.067 460.394 184.591 460.842 185.015C461.29 185.431 461.85 185.639 462.522 185.639C463.194 185.639 463.754 185.431 464.202 185.015C464.658 184.591 464.886 184.067 464.886 183.443V180.707C464.886 180.083 464.658 179.563 464.202 179.147C463.738 178.723 463.178 178.511 462.522 178.511C461.866 178.511 461.306 178.723 460.842 179.147C460.394 179.571 460.17 180.091 460.17 180.707ZM469.281 178.871L467.457 179.879L467.121 179.195L469.533 177.875H470.049V186.275H469.281V178.871ZM472.23 185.783C472.23 185.615 472.286 185.475 472.398 185.363C472.518 185.251 472.662 185.195 472.83 185.195C472.998 185.195 473.138 185.251 473.25 185.363C473.37 185.475 473.43 185.615 473.43 185.783C473.446 186.031 473.35 186.203 473.142 186.299C472.934 186.403 472.726 186.403 472.518 186.299C472.31 186.203 472.214 186.031 472.23 185.783ZM476.898 178.871L475.074 179.879L474.738 179.195L477.15 177.875H477.666V186.275H476.898V178.871ZM481.996 178.871L480.172 179.879L479.836 179.195L482.248 177.875H482.764V186.275H481.996V178.871Z" fill="black"/>
<path d="M525.076 180.047C525.076 179.623 524.884 179.259 524.5 178.955C524.124 178.659 523.648 178.511 523.072 178.511C522.624 178.511 522.22 178.611 521.86 178.811C521.508 179.003 521.252 179.267 521.092 179.603L520.396 179.267C520.62 178.803 520.968 178.439 521.44 178.175C521.92 177.903 522.464 177.767 523.072 177.767C523.864 177.767 524.528 177.987 525.064 178.427C525.6 178.859 525.868 179.395 525.868 180.035C525.868 180.443 525.744 180.819 525.496 181.163C525.248 181.499 524.908 181.759 524.476 181.943C524.964 182.135 525.348 182.415 525.628 182.783C525.916 183.143 526.06 183.551 526.06 184.007C526.06 184.687 525.776 185.255 525.208 185.711C524.64 186.159 523.932 186.383 523.084 186.383C522.436 186.383 521.86 186.243 521.356 185.963C520.852 185.683 520.492 185.307 520.276 184.835L521.02 184.547C521.172 184.883 521.432 185.151 521.8 185.351C522.168 185.543 522.596 185.639 523.084 185.639C523.7 185.639 524.22 185.483 524.644 185.171C525.06 184.851 525.268 184.455 525.268 183.983C525.268 183.519 525.064 183.131 524.656 182.819C524.256 182.507 523.752 182.351 523.144 182.351H522.52V181.619H522.988C523.588 181.619 524.084 181.471 524.476 181.175C524.876 180.871 525.076 180.495 525.076 180.047ZM527.57 183.431V180.719C527.57 179.887 527.866 179.187 528.458 178.619C529.066 178.051 529.81 177.767 530.69 177.767C531.586 177.767 532.33 178.051 532.922 178.619C533.522 179.179 533.822 179.879 533.822 180.719V183.431C533.822 184.271 533.522 184.975 532.922 185.543C532.338 186.103 531.594 186.383 530.69 186.383C529.794 186.383 529.05 186.103 528.458 185.543C527.866 184.975 527.57 184.271 527.57 183.431ZM528.338 180.707V183.443C528.338 184.067 528.562 184.591 529.01 185.015C529.458 185.431 530.018 185.639 530.69 185.639C531.362 185.639 531.922 185.431 532.37 185.015C532.826 184.591 533.054 184.067 533.054 183.443V180.707C533.054 180.083 532.826 179.563 532.37 179.147C531.906 178.723 531.346 178.511 530.69 178.511C530.034 178.511 529.474 178.723 529.01 179.147C528.562 179.571 528.338 180.091 528.338 180.707ZM535.301 185.783C535.301 185.615 535.357 185.475 535.469 185.363C535.589 185.251 535.733 185.195 535.901 185.195C536.069 185.195 536.209 185.251 536.321 185.363C536.441 185.475 536.501 185.615 536.501 185.783C536.517 186.031 536.421 186.203 536.213 186.299C536.005 186.403 535.797 186.403 535.589 186.299C535.381 186.203 535.285 186.031 535.301 185.783ZM539.968 178.871L538.144 179.879L537.808 179.195L540.22 177.875H540.736V186.275H539.968V178.871ZM545.066 178.871L543.242 179.879L542.906 179.195L545.318 177.875H545.834V186.275H545.066V178.871ZM551.618 183.503V182.807H554.69V183.503H551.618ZM559.773 183.431V180.719C559.773 179.887 560.069 179.187 560.661 178.619C561.269 178.051 562.013 177.767 562.893 177.767C563.789 177.767 564.533 178.051 565.125 178.619C565.725 179.179 566.025 179.879 566.025 180.719V183.431C566.025 184.271 565.725 184.975 565.125 185.543C564.541 186.103 563.797 186.383 562.893 186.383C561.997 186.383 561.253 186.103 560.661 185.543C560.069 184.975 559.773 184.271 559.773 183.431ZM560.541 180.707V183.443C560.541 184.067 560.765 184.591 561.213 185.015C561.661 185.431 562.221 185.639 562.893 185.639C563.565 185.639 564.125 185.431 564.573 185.015C565.029 184.591 565.257 184.067 565.257 183.443V180.707C565.257 180.083 565.029 179.563 564.573 179.147C564.109 178.723 563.549 178.511 562.893 178.511C562.237 178.511 561.677 178.723 561.213 179.147C560.765 179.571 560.541 180.091 560.541 180.707ZM573.456 179.171L572.76 179.531C572.32 178.851 571.656 178.511 570.768 178.511C570.104 178.511 569.548 178.723 569.1 179.147C568.652 179.571 568.428 180.091 568.428 180.707V182.039C568.652 181.703 568.964 181.439 569.364 181.247C569.764 181.047 570.204 180.947 570.684 180.947C571.524 180.947 572.236 181.207 572.82 181.727C573.396 182.247 573.684 182.895 573.684 183.671C573.684 184.447 573.396 185.091 572.82 185.603C572.236 186.123 571.524 186.383 570.684 186.383C569.836 186.383 569.116 186.123 568.524 185.603C567.948 185.075 567.66 184.431 567.66 183.671V180.719C567.66 179.887 567.956 179.187 568.548 178.619C569.156 178.051 569.9 177.767 570.78 177.767C571.348 177.767 571.868 177.891 572.34 178.139C572.812 178.387 573.184 178.731 573.456 179.171ZM570.684 181.691C570.052 181.691 569.52 181.883 569.088 182.267C568.664 182.643 568.452 183.107 568.452 183.659C568.452 184.219 568.664 184.691 569.088 185.075C569.528 185.451 570.06 185.639 570.684 185.639C571.308 185.639 571.832 185.451 572.256 185.075C572.68 184.699 572.892 184.235 572.892 183.683C572.892 183.123 572.68 182.651 572.256 182.267C571.832 181.883 571.308 181.691 570.684 181.691ZM574.945 185.783C574.945 185.615 575.001 185.475 575.113 185.363C575.233 185.251 575.377 185.195 575.545 185.195C575.713 185.195 575.853 185.251 575.965 185.363C576.085 185.475 576.145 185.615 576.145 185.783C576.161 186.031 576.065 186.203 575.857 186.299C575.649 186.403 575.441 186.403 575.233 186.299C575.025 186.203 574.929 186.031 574.945 185.783ZM579.613 178.871L577.789 179.879L577.453 179.195L579.865 177.875H580.381V186.275H579.613V178.871ZM587.266 180.263C587.266 179.783 587.07 179.371 586.678 179.027C586.302 178.683 585.834 178.511 585.274 178.511C584.818 178.511 584.402 178.647 584.026 178.919C583.658 179.183 583.382 179.547 583.198 180.011L582.49 179.675C582.73 179.091 583.098 178.627 583.594 178.283C584.09 177.939 584.65 177.767 585.274 177.767C586.05 177.767 586.706 178.011 587.242 178.499C587.786 178.979 588.058 179.563 588.058 180.251C588.058 180.731 587.914 181.179 587.626 181.595C587.362 181.995 586.93 182.483 586.33 183.059L583.75 185.531H588.202V186.275H582.538V185.723L585.778 182.567L586.354 182.003C586.498 181.851 586.642 181.679 586.786 181.487C587.106 181.087 587.266 180.679 587.266 180.263Z" fill="black"/>
<path d="M615.125 183.431V180.719C615.125 179.887 615.421 179.187 616.013 178.619C616.621 178.051 617.365 177.767 618.245 177.767C619.141 177.767 619.885 178.051 620.477 178.619C621.077 179.179 621.377 179.879 621.377 180.719V183.431C621.377 184.271 621.077 184.975 620.477 185.543C619.893 186.103 619.149 186.383 618.245 186.383C617.349 186.383 616.605 186.103 616.013 185.543C615.421 184.975 615.125 184.271 615.125 183.431ZM615.893 180.707V183.443C615.893 184.067 616.117 184.591 616.565 185.015C617.013 185.431 617.573 185.639 618.245 185.639C618.917 185.639 619.477 185.431 619.925 185.015C620.381 184.591 620.609 184.067 620.609 183.443V180.707C620.609 180.083 620.381 179.563 619.925 179.147C619.461 178.723 618.901 178.511 618.245 178.511C617.589 178.511 617.029 178.723 616.565 179.147C616.117 179.571 615.893 180.091 615.893 180.707ZM627.547 186.275V184.475H622.759V183.731L627.607 177.875H628.315V183.719H629.599V184.475H628.315V186.275H627.547ZM627.547 179.051L623.707 183.719H627.547V179.051ZM630.765 185.783C630.765 185.615 630.821 185.475 630.933 185.363C631.053 185.251 631.197 185.195 631.365 185.195C631.533 185.195 631.673 185.251 631.785 185.363C631.905 185.475 631.965 185.615 631.965 185.783C631.981 186.031 631.885 186.203 631.677 186.299C631.469 186.403 631.261 186.403 631.053 186.299C630.845 186.203 630.749 186.031 630.765 185.783ZM633.441 183.431V180.719C633.441 179.887 633.737 179.187 634.329 178.619C634.937 178.051 635.681 177.767 636.561 177.767C637.457 177.767 638.201 178.051 638.793 178.619C639.393 179.179 639.693 179.879 639.693 180.719V183.431C639.693 184.271 639.393 184.975 638.793 185.543C638.209 186.103 637.465 186.383 636.561 186.383C635.665 186.383 634.921 186.103 634.329 185.543C633.737 184.975 633.441 184.271 633.441 183.431ZM634.209 180.707V183.443C634.209 184.067 634.433 184.591 634.881 185.015C635.329 185.431 635.889 185.639 636.561 185.639C637.233 185.639 637.793 185.431 638.241 185.015C638.697 184.591 638.925 184.067 638.925 183.443V180.707C638.925 180.083 638.697 179.563 638.241 179.147C637.777 178.723 637.217 178.511 636.561 178.511C635.905 178.511 635.345 178.723 634.881 179.147C634.433 179.571 634.209 180.091 634.209 180.707ZM643.32 178.871L641.496 179.879L641.16 179.195L643.572 177.875H644.088V186.275H643.32V178.871ZM649.872 183.503V182.807H652.944V183.503H649.872ZM660.019 178.871L658.195 179.879L657.859 179.195L660.271 177.875H660.787V186.275H660.019V178.871ZM663.125 183.431V180.719C663.125 179.887 663.421 179.187 664.013 178.619C664.621 178.051 665.365 177.767 666.245 177.767C667.141 177.767 667.885 178.051 668.477 178.619C669.077 179.179 669.377 179.879 669.377 180.719V183.431C669.377 184.271 669.077 184.975 668.477 185.543C667.893 186.103 667.149 186.383 666.245 186.383C665.349 186.383 664.605 186.103 664.013 185.543C663.421 184.975 663.125 184.271 663.125 183.431ZM663.893 180.707V183.443C663.893 184.067 664.117 184.591 664.565 185.015C665.013 185.431 665.573 185.639 666.245 185.639C666.917 185.639 667.477 185.431 667.925 185.015C668.381 184.591 668.609 184.067 668.609 183.443V180.707C668.609 180.083 668.381 179.563 667.925 179.147C667.461 178.723 666.901 178.511 666.245 178.511C665.589 178.511 665.029 178.723 664.565 179.147C664.117 179.571 663.893 180.091 663.893 180.707ZM670.855 185.783C670.855 185.615 670.911 185.475 671.023 185.363C671.143 185.251 671.287 185.195 671.455 185.195C671.623 185.195 671.763 185.251 671.875 185.363C671.995 185.475 672.055 185.615 672.055 185.783C672.071 186.031 671.975 186.203 671.767 186.299C671.559 186.403 671.351 186.403 671.143 186.299C670.935 186.203 670.839 186.031 670.855 185.783ZM673.531 183.431V180.719C673.531 179.887 673.827 179.187 674.419 178.619C675.027 178.051 675.771 177.767 676.651 177.767C677.547 177.767 678.291 178.051 678.883 178.619C679.483 179.179 679.783 179.879 679.783 180.719V183.431C679.783 184.271 679.483 184.975 678.883 185.543C678.299 186.103 677.555 186.383 676.651 186.383C675.755 186.383 675.011 186.103 674.419 185.543C673.827 184.975 673.531 184.271 673.531 183.431ZM674.299 180.707V183.443C674.299 184.067 674.523 184.591 674.971 185.015C675.419 185.431 675.979 185.639 676.651 185.639C677.323 185.639 677.883 185.431 678.331 185.015C678.787 184.591 679.015 184.067 679.015 183.443V180.707C679.015 180.083 678.787 179.563 678.331 179.147C677.867 178.723 677.307 178.511 676.651 178.511C675.995 178.511 675.435 178.723 674.971 179.147C674.523 179.571 674.299 180.091 674.299 180.707ZM683.41 178.871L681.586 179.879L681.25 179.195L683.662 177.875H684.178V186.275H683.41V178.871Z" fill="black"/>
<path d="M722.498 183.431V180.719C722.498 179.887 722.794 179.187 723.386 178.619C723.994 178.051 724.738 177.767 725.618 177.767C726.514 177.767 727.258 178.051 727.85 178.619C728.45 179.179 728.75 179.879 728.75 180.719V183.431C728.75 184.271 728.45 184.975 727.85 185.543C727.266 186.103 726.522 186.383 725.618 186.383C724.722 186.383 723.978 186.103 723.386 185.543C722.794 184.975 722.498 184.271 722.498 183.431ZM723.266 180.707V183.443C723.266 184.067 723.49 184.591 723.938 185.015C724.386 185.431 724.946 185.639 725.618 185.639C726.29 185.639 726.85 185.431 727.298 185.015C727.754 184.591 727.982 184.067 727.982 183.443V180.707C727.982 180.083 727.754 179.563 727.298 179.147C726.834 178.723 726.274 178.511 725.618 178.511C724.962 178.511 724.402 178.723 723.938 179.147C723.49 179.571 723.266 180.091 723.266 180.707ZM730.252 184.007C730.252 183.535 730.392 183.111 730.672 182.735C730.96 182.359 731.356 182.075 731.86 181.883C731.444 181.691 731.112 181.427 730.864 181.091C730.624 180.747 730.504 180.371 730.504 179.963C730.504 179.347 730.764 178.827 731.284 178.403C731.82 177.979 732.476 177.767 733.252 177.767C734.036 177.767 734.688 177.979 735.208 178.403C735.736 178.819 736 179.339 736 179.963C736 180.371 735.876 180.747 735.628 181.091C735.388 181.427 735.06 181.691 734.644 181.883C735.132 182.083 735.52 182.375 735.808 182.759C736.096 183.135 736.24 183.551 736.24 184.007C736.24 184.687 735.956 185.255 735.388 185.711C734.82 186.159 734.108 186.383 733.252 186.383C732.396 186.383 731.68 186.155 731.104 185.699C730.536 185.243 730.252 184.679 730.252 184.007ZM735.448 183.947C735.448 183.467 735.24 183.067 734.824 182.747C734.4 182.419 733.876 182.255 733.252 182.255C732.628 182.255 732.104 182.419 731.68 182.747C731.264 183.067 731.056 183.467 731.056 183.947C731.056 184.435 731.264 184.839 731.68 185.159C732.096 185.479 732.62 185.639 733.252 185.639C733.884 185.639 734.408 185.479 734.824 185.159C735.24 184.839 735.448 184.435 735.448 183.947ZM733.252 178.511C732.7 178.511 732.236 178.655 731.86 178.943C731.484 179.231 731.296 179.591 731.296 180.023C731.296 180.455 731.484 180.815 731.86 181.103C732.236 181.391 732.7 181.535 733.252 181.535C733.804 181.535 734.264 181.391 734.632 181.103C735.008 180.815 735.196 180.455 735.196 180.023C735.196 179.591 735.008 179.231 734.632 178.943C734.264 178.655 733.804 178.511 733.252 178.511ZM737.599 185.783C737.599 185.615 737.655 185.475 737.767 185.363C737.887 185.251 738.031 185.195 738.199 185.195C738.367 185.195 738.507 185.251 738.619 185.363C738.739 185.475 738.799 185.615 738.799 185.783C738.815 186.031 738.719 186.203 738.511 186.299C738.303 186.403 738.095 186.403 737.887 186.299C737.679 186.203 737.583 186.031 737.599 185.783ZM740.275 183.431V180.719C740.275 179.887 740.571 179.187 741.163 178.619C741.771 178.051 742.515 177.767 743.395 177.767C744.291 177.767 745.035 178.051 745.627 178.619C746.227 179.179 746.527 179.879 746.527 180.719V183.431C746.527 184.271 746.227 184.975 745.627 185.543C745.043 186.103 744.299 186.383 743.395 186.383C742.499 186.383 741.755 186.103 741.163 185.543C740.571 184.975 740.275 184.271 740.275 183.431ZM741.043 180.707V183.443C741.043 184.067 741.267 184.591 741.715 185.015C742.163 185.431 742.723 185.639 743.395 185.639C744.067 185.639 744.627 185.431 745.075 185.015C745.531 184.591 745.759 184.067 745.759 183.443V180.707C745.759 180.083 745.531 179.563 745.075 179.147C744.611 178.723 744.051 178.511 743.395 178.511C742.739 178.511 742.179 178.723 741.715 179.147C741.267 179.571 741.043 180.091 741.043 180.707ZM752.71 180.263C752.71 179.783 752.514 179.371 752.122 179.027C751.746 178.683 751.278 178.511 750.718 178.511C750.262 178.511 749.846 178.647 749.47 178.919C749.102 179.183 748.826 179.547 748.642 180.011L747.934 179.675C748.174 179.091 748.542 178.627 749.038 178.283C749.534 177.939 750.094 177.767 750.718 177.767C751.494 177.767 752.15 178.011 752.686 178.499C753.23 178.979 753.502 179.563 753.502 180.251C753.502 180.731 753.358 181.179 753.07 181.595C752.806 181.995 752.374 182.483 751.774 183.059L749.194 185.531H753.646V186.275H747.982V185.723L751.222 182.567L751.798 182.003C751.942 181.851 752.086 181.679 752.23 181.487C752.55 181.087 752.71 180.679 752.71 180.263ZM758.616 183.503V182.807H761.688V183.503H758.616ZM768.763 178.871L766.939 179.879L766.603 179.195L769.015 177.875H769.531V186.275H768.763V178.871ZM776.405 186.275V184.475H771.617V183.731L776.465 177.875H777.173V183.719H778.457V184.475H777.173V186.275H776.405ZM776.405 179.051L772.565 183.719H776.405V179.051ZM779.623 185.783C779.623 185.615 779.679 185.475 779.791 185.363C779.911 185.251 780.055 185.195 780.223 185.195C780.391 185.195 780.531 185.251 780.643 185.363C780.763 185.475 780.823 185.615 780.823 185.783C780.839 186.031 780.743 186.203 780.535 186.299C780.327 186.403 780.119 186.403 779.911 186.299C779.703 186.203 779.607 186.031 779.623 185.783ZM782.298 183.431V180.719C782.298 179.887 782.594 179.187 783.186 178.619C783.794 178.051 784.538 177.767 785.418 177.767C786.314 177.767 787.058 178.051 787.65 178.619C788.25 179.179 788.55 179.879 788.55 180.719V183.431C788.55 184.271 788.25 184.975 787.65 185.543C787.066 186.103 786.322 186.383 785.418 186.383C784.522 186.383 783.778 186.103 783.186 185.543C782.594 184.975 782.298 184.271 782.298 183.431ZM783.066 180.707V183.443C783.066 184.067 783.29 184.591 783.738 185.015C784.186 185.431 784.746 185.639 785.418 185.639C786.09 185.639 786.65 185.431 787.098 185.015C787.554 184.591 787.782 184.067 787.782 183.443V180.707C787.782 180.083 787.554 179.563 787.098 179.147C786.634 178.723 786.074 178.511 785.418 178.511C784.762 178.511 784.202 178.723 783.738 179.147C783.29 179.571 783.066 180.091 783.066 180.707ZM794.733 180.263C794.733 179.783 794.537 179.371 794.145 179.027C793.769 178.683 793.301 178.511 792.741 178.511C792.285 178.511 791.869 178.647 791.493 178.919C791.125 179.183 790.849 179.547 790.665 180.011L789.957 179.675C790.197 179.091 790.565 178.627 791.061 178.283C791.557 177.939 792.117 177.767 792.741 177.767C793.517 177.767 794.173 178.011 794.709 178.499C795.253 178.979 795.525 179.563 795.525 180.251C795.525 180.731 795.381 181.179 795.093 181.595C794.829 181.995 794.397 182.483 793.797 183.059L791.217 185.531H795.669V186.275H790.005V185.723L793.245 182.567L793.821 182.003C793.965 181.851 794.109 181.679 794.253 181.487C794.573 181.087 794.733 180.679 794.733 180.263Z" fill="black"/>
<path d="M828.933 178.871L827.109 179.879L826.773 179.195L829.185 177.875H829.701V186.275H828.933V178.871ZM836.887 181.739C837.487 182.251 837.787 182.895 837.787 183.671C837.787 184.447 837.491 185.095 836.899 185.615C836.315 186.127 835.587 186.383 834.715 186.383C834.067 186.383 833.487 186.231 832.975 185.927C832.463 185.615 832.087 185.195 831.847 184.667L832.603 184.427C832.795 184.795 833.079 185.091 833.455 185.315C833.839 185.531 834.259 185.639 834.715 185.639C835.347 185.639 835.887 185.451 836.335 185.075C836.775 184.707 836.995 184.239 836.995 183.671C836.995 183.103 836.771 182.631 836.323 182.255C835.883 181.871 835.327 181.679 834.655 181.679H832.459L832.843 177.875H837.139V178.595H833.491L833.251 180.959H834.679C835.559 180.959 836.295 181.219 836.887 181.739ZM839.148 185.783C839.148 185.615 839.204 185.475 839.316 185.363C839.436 185.251 839.58 185.195 839.748 185.195C839.916 185.195 840.056 185.251 840.168 185.363C840.288 185.475 840.348 185.615 840.348 185.783C840.364 186.031 840.268 186.203 840.06 186.299C839.852 186.403 839.644 186.403 839.436 186.299C839.228 186.203 839.132 186.031 839.148 185.783ZM841.824 183.431V180.719C841.824 179.887 842.12 179.187 842.712 178.619C843.32 178.051 844.064 177.767 844.944 177.767C845.84 177.767 846.584 178.051 847.176 178.619C847.776 179.179 848.076 179.879 848.076 180.719V183.431C848.076 184.271 847.776 184.975 847.176 185.543C846.592 186.103 845.848 186.383 844.944 186.383C844.048 186.383 843.304 186.103 842.712 185.543C842.12 184.975 841.824 184.271 841.824 183.431ZM842.592 180.707V183.443C842.592 184.067 842.816 184.591 843.264 185.015C843.712 185.431 844.272 185.639 844.944 185.639C845.616 185.639 846.176 185.431 846.624 185.015C847.08 184.591 847.308 184.067 847.308 183.443V180.707C847.308 180.083 847.08 179.563 846.624 179.147C846.16 178.723 845.6 178.511 844.944 178.511C844.288 178.511 843.728 178.723 843.264 179.147C842.816 179.571 842.592 180.091 842.592 180.707ZM854.307 180.047C854.307 179.623 854.115 179.259 853.731 178.955C853.355 178.659 852.879 178.511 852.303 178.511C851.855 178.511 851.451 178.611 851.091 178.811C850.739 179.003 850.483 179.267 850.323 179.603L849.627 179.267C849.851 178.803 850.199 178.439 850.671 178.175C851.151 177.903 851.695 177.767 852.303 177.767C853.095 177.767 853.759 177.987 854.295 178.427C854.831 178.859 855.099 179.395 855.099 180.035C855.099 180.443 854.975 180.819 854.727 181.163C854.479 181.499 854.139 181.759 853.707 181.943C854.195 182.135 854.579 182.415 854.859 182.783C855.147 183.143 855.291 183.551 855.291 184.007C855.291 184.687 855.007 185.255 854.439 185.711C853.871 186.159 853.163 186.383 852.315 186.383C851.667 186.383 851.091 186.243 850.587 185.963C850.083 185.683 849.723 185.307 849.507 184.835L850.251 184.547C850.403 184.883 850.663 185.151 851.031 185.351C851.399 185.543 851.827 185.639 852.315 185.639C852.931 185.639 853.451 185.483 853.875 185.171C854.291 184.851 854.499 184.455 854.499 183.983C854.499 183.519 854.295 183.131 853.887 182.819C853.487 182.507 852.983 182.351 852.375 182.351H851.751V181.619H852.219C852.819 181.619 853.315 181.471 853.707 181.175C854.107 180.871 854.307 180.495 854.307 180.047ZM860.247 183.503V182.807H863.319V183.503H860.247ZM872.95 180.263C872.95 179.783 872.754 179.371 872.362 179.027C871.986 178.683 871.518 178.511 870.958 178.511C870.502 178.511 870.086 178.647 869.71 178.919C869.342 179.183 869.066 179.547 868.882 180.011L868.174 179.675C868.414 179.091 868.782 178.627 869.278 178.283C869.774 177.939 870.334 177.767 870.958 177.767C871.734 177.767 872.39 178.011 872.926 178.499C873.47 178.979 873.742 179.563 873.742 180.251C873.742 180.731 873.598 181.179 873.31 181.595C873.046 181.995 872.614 182.483 872.014 183.059L869.434 185.531H873.886V186.275H868.222V185.723L871.462 182.567L872.038 182.003C872.182 181.851 872.326 181.679 872.47 181.487C872.79 181.087 872.95 180.679 872.95 180.263ZM877.402 178.871L875.578 179.879L875.242 179.195L877.654 177.875H878.17V186.275H877.402V178.871ZM880.351 185.783C880.351 185.615 880.407 185.475 880.519 185.363C880.639 185.251 880.783 185.195 880.951 185.195C881.119 185.195 881.259 185.251 881.371 185.363C881.491 185.475 881.551 185.615 881.551 185.783C881.567 186.031 881.471 186.203 881.263 186.299C881.055 186.403 880.847 186.403 880.639 186.299C880.431 186.203 880.335 186.031 880.351 185.783ZM883.027 183.431V180.719C883.027 179.887 883.323 179.187 883.915 178.619C884.523 178.051 885.267 177.767 886.147 177.767C887.043 177.767 887.787 178.051 888.379 178.619C888.979 179.179 889.279 179.879 889.279 180.719V183.431C889.279 184.271 888.979 184.975 888.379 185.543C887.795 186.103 887.051 186.383 886.147 186.383C885.251 186.383 884.507 186.103 883.915 185.543C883.323 184.975 883.027 184.271 883.027 183.431ZM883.795 180.707V183.443C883.795 184.067 884.019 184.591 884.467 185.015C884.915 185.431 885.475 185.639 886.147 185.639C886.819 185.639 887.379 185.431 887.827 185.015C888.283 184.591 888.511 184.067 888.511 183.443V180.707C888.511 180.083 888.283 179.563 887.827 179.147C887.363 178.723 886.803 178.511 886.147 178.511C885.491 178.511 884.931 178.723 884.467 179.147C884.019 179.571 883.795 180.091 883.795 180.707ZM895.51 180.047C895.51 179.623 895.318 179.259 894.934 178.955C894.558 178.659 894.082 178.511 893.506 178.511C893.058 178.511 892.654 178.611 892.294 178.811C891.942 179.003 891.686 179.267 891.526 179.603L890.83 179.267C891.054 178.803 891.402 178.439 891.874 178.175C892.354 177.903 892.898 177.767 893.506 177.767C894.298 177.767 894.962 177.987 895.498 178.427C896.034 178.859 896.302 179.395 896.302 180.035C896.302 180.443 896.178 180.819 895.93 181.163C895.682 181.499 895.342 181.759 894.91 181.943C895.398 182.135 895.782 182.415 896.062 182.783C896.35 183.143 896.494 183.551 896.494 184.007C896.494 184.687 896.21 185.255 895.642 185.711C895.074 186.159 894.366 186.383 893.518 186.383C892.87 186.383 892.294 186.243 891.79 185.963C891.286 185.683 890.926 185.307 890.71 184.835L891.454 184.547C891.606 184.883 891.866 185.151 892.234 185.351C892.602 185.543 893.03 185.639 893.518 185.639C894.134 185.639 894.654 185.483 895.078 185.171C895.494 184.851 895.702 184.455 895.702 183.983C895.702 183.519 895.498 183.131 895.09 182.819C894.69 182.507 894.186 182.351 893.578 182.351H892.954V181.619H893.422C894.022 181.619 894.518 181.471 894.91 181.175C895.31 180.871 895.51 180.495 895.51 180.047Z" fill="black"/>
<path d="M930.372 178.871L928.548 179.879L928.212 179.195L930.624 177.875H931.14V186.275H930.372V178.871ZM933.43 184.955L934.138 184.595C934.338 184.915 934.618 185.171 934.978 185.363C935.338 185.547 935.734 185.639 936.166 185.639C936.854 185.639 937.418 185.431 937.858 185.015C938.314 184.591 938.542 184.071 938.542 183.455V182.159C938.318 182.543 938.006 182.847 937.606 183.071C937.214 183.287 936.782 183.395 936.31 183.395C935.454 183.395 934.742 183.127 934.174 182.591C933.598 182.055 933.31 181.383 933.31 180.575C933.31 179.783 933.594 179.115 934.162 178.571C934.73 178.035 935.446 177.767 936.31 177.767C937.158 177.767 937.87 178.031 938.446 178.559C939.022 179.079 939.31 179.727 939.31 180.503V183.443C939.31 184.283 939.006 184.983 938.398 185.543C937.806 186.103 937.058 186.383 936.154 186.383C935.578 186.383 935.046 186.255 934.558 185.999C934.078 185.743 933.702 185.395 933.43 184.955ZM937.87 182.063C938.294 181.663 938.506 181.171 938.506 180.587C938.506 180.003 938.294 179.511 937.87 179.111C937.446 178.711 936.926 178.511 936.31 178.511C935.678 178.511 935.154 178.707 934.738 179.099C934.314 179.499 934.102 179.987 934.102 180.563C934.102 181.155 934.314 181.651 934.738 182.051C935.162 182.451 935.686 182.651 936.31 182.651C936.934 182.651 937.454 182.455 937.87 182.063ZM940.646 185.783C940.646 185.615 940.702 185.475 940.814 185.363C940.934 185.251 941.078 185.195 941.246 185.195C941.414 185.195 941.554 185.251 941.666 185.363C941.786 185.475 941.846 185.615 941.846 185.783C941.862 186.031 941.766 186.203 941.558 186.299C941.35 186.403 941.142 186.403 940.934 186.299C940.726 186.203 940.63 186.031 940.646 185.783ZM943.322 183.431V180.719C943.322 179.887 943.618 179.187 944.21 178.619C944.818 178.051 945.562 177.767 946.442 177.767C947.338 177.767 948.082 178.051 948.674 178.619C949.274 179.179 949.574 179.879 949.574 180.719V183.431C949.574 184.271 949.274 184.975 948.674 185.543C948.09 186.103 947.346 186.383 946.442 186.383C945.546 186.383 944.802 186.103 944.21 185.543C943.618 184.975 943.322 184.271 943.322 183.431ZM944.09 180.707V183.443C944.09 184.067 944.314 184.591 944.762 185.015C945.21 185.431 945.77 185.639 946.442 185.639C947.114 185.639 947.674 185.431 948.122 185.015C948.578 184.591 948.806 184.067 948.806 183.443V180.707C948.806 180.083 948.578 179.563 948.122 179.147C947.658 178.723 947.098 178.511 946.442 178.511C945.786 178.511 945.226 178.723 944.762 179.147C944.314 179.571 944.09 180.091 944.09 180.707ZM955.745 186.275V184.475H950.957V183.731L955.805 177.875H956.513V183.719H957.797V184.475H956.513V186.275H955.745ZM955.745 179.051L951.905 183.719H955.745V179.051ZM962.565 183.503V182.807H965.637V183.503H962.565ZM975.268 180.263C975.268 179.783 975.072 179.371 974.68 179.027C974.304 178.683 973.836 178.511 973.276 178.511C972.82 178.511 972.404 178.647 972.028 178.919C971.66 179.183 971.384 179.547 971.2 180.011L970.492 179.675C970.732 179.091 971.1 178.627 971.596 178.283C972.092 177.939 972.652 177.767 973.276 177.767C974.052 177.767 974.708 178.011 975.244 178.499C975.788 178.979 976.06 179.563 976.06 180.251C976.06 180.731 975.916 181.179 975.628 181.595C975.364 181.995 974.932 182.483 974.332 183.059L971.752 185.531H976.204V186.275H970.54V185.723L973.78 182.567L974.356 182.003C974.5 181.851 974.644 181.679 974.788 181.487C975.108 181.087 975.268 180.679 975.268 180.263ZM982.576 181.739C983.176 182.251 983.476 182.895 983.476 183.671C983.476 184.447 983.18 185.095 982.588 185.615C982.004 186.127 981.276 186.383 980.404 186.383C979.756 186.383 979.176 186.231 978.664 185.927C978.152 185.615 977.776 185.195 977.536 184.667L978.292 184.427C978.484 184.795 978.768 185.091 979.144 185.315C979.528 185.531 979.948 185.639 980.404 185.639C981.036 185.639 981.576 185.451 982.024 185.075C982.464 184.707 982.684 184.239 982.684 183.671C982.684 183.103 982.46 182.631 982.012 182.255C981.572 181.871 981.016 181.679 980.344 181.679H978.148L978.532 177.875H982.828V178.595H979.18L978.94 180.959H980.368C981.248 180.959 981.984 181.219 982.576 181.739ZM984.838 185.783C984.838 185.615 984.894 185.475 985.006 185.363C985.126 185.251 985.27 185.195 985.438 185.195C985.606 185.195 985.746 185.251 985.858 185.363C985.978 185.475 986.038 185.615 986.038 185.783C986.054 186.031 985.958 186.203 985.75 186.299C985.542 186.403 985.334 186.403 985.126 186.299C984.918 186.203 984.822 186.031 984.838 185.783ZM987.513 183.431V180.719C987.513 179.887 987.809 179.187 988.401 178.619C989.009 178.051 989.753 177.767 990.633 177.767C991.529 177.767 992.273 178.051 992.865 178.619C993.465 179.179 993.765 179.879 993.765 180.719V183.431C993.765 184.271 993.465 184.975 992.865 185.543C992.281 186.103 991.537 186.383 990.633 186.383C989.737 186.383 988.993 186.103 988.401 185.543C987.809 184.975 987.513 184.271 987.513 183.431ZM988.281 180.707V183.443C988.281 184.067 988.505 184.591 988.953 185.015C989.401 185.431 989.961 185.639 990.633 185.639C991.305 185.639 991.865 185.431 992.313 185.015C992.769 184.591 992.997 184.067 992.997 183.443V180.707C992.997 180.083 992.769 179.563 992.313 179.147C991.849 178.723 991.289 178.511 990.633 178.511C989.977 178.511 989.417 178.723 988.953 179.147C988.505 179.571 988.281 180.091 988.281 180.707ZM999.936 186.275V184.475H995.148V183.731L999.996 177.875H1000.7V183.719H1001.99V184.475H1000.7V186.275H999.936ZM999.936 179.051L996.096 183.719H999.936V179.051Z" fill="black"/>
<path d="M1033.03 180.263C1033.03 179.783 1032.83 179.371 1032.44 179.027C1032.06 178.683 1031.59 178.511 1031.03 178.511C1030.58 178.511 1030.16 178.647 1029.79 178.919C1029.42 179.183 1029.14 179.547 1028.96 180.011L1028.25 179.675C1028.49 179.091 1028.86 178.627 1029.35 178.283C1029.85 177.939 1030.41 177.767 1031.03 177.767C1031.81 177.767 1032.47 178.011 1033 178.499C1033.55 178.979 1033.82 179.563 1033.82 180.251C1033.82 180.731 1033.67 181.179 1033.39 181.595C1033.12 181.995 1032.69 182.483 1032.09 183.059L1029.51 185.531H1033.96V186.275H1028.3V185.723L1031.54 182.567L1032.11 182.003C1032.26 181.851 1032.4 181.679 1032.55 181.487C1032.87 181.087 1033.03 180.679 1033.03 180.263ZM1040.02 186.275V184.475H1035.23V183.731L1040.08 177.875H1040.79V183.719H1042.07V184.475H1040.79V186.275H1040.02ZM1040.02 179.051L1036.18 183.719H1040.02V179.051ZM1043.24 185.783C1043.24 185.615 1043.3 185.475 1043.41 185.363C1043.53 185.251 1043.67 185.195 1043.84 185.195C1044.01 185.195 1044.15 185.251 1044.26 185.363C1044.38 185.475 1044.44 185.615 1044.44 185.783C1044.46 186.031 1044.36 186.203 1044.15 186.299C1043.94 186.403 1043.74 186.403 1043.53 186.299C1043.32 186.203 1043.22 186.031 1043.24 185.783ZM1045.92 183.431V180.719C1045.92 179.887 1046.21 179.187 1046.8 178.619C1047.41 178.051 1048.16 177.767 1049.04 177.767C1049.93 177.767 1050.68 178.051 1051.27 178.619C1051.87 179.179 1052.17 179.879 1052.17 180.719V183.431C1052.17 184.271 1051.87 184.975 1051.27 185.543C1050.68 186.103 1049.94 186.383 1049.04 186.383C1048.14 186.383 1047.4 186.103 1046.8 185.543C1046.21 184.975 1045.92 184.271 1045.92 183.431ZM1046.68 180.707V183.443C1046.68 184.067 1046.91 184.591 1047.36 185.015C1047.8 185.431 1048.36 185.639 1049.04 185.639C1049.71 185.639 1050.27 185.431 1050.72 185.015C1051.17 184.591 1051.4 184.067 1051.4 183.443V180.707C1051.4 180.083 1051.17 179.563 1050.72 179.147C1050.25 178.723 1049.69 178.511 1049.04 178.511C1048.38 178.511 1047.82 178.723 1047.36 179.147C1046.91 179.571 1046.68 180.091 1046.68 180.707ZM1058.65 181.739C1059.25 182.251 1059.55 182.895 1059.55 183.671C1059.55 184.447 1059.25 185.095 1058.66 185.615C1058.08 186.127 1057.35 186.383 1056.48 186.383C1055.83 186.383 1055.25 186.231 1054.74 185.927C1054.23 185.615 1053.85 185.195 1053.61 184.667L1054.37 184.427C1054.56 184.795 1054.84 185.091 1055.22 185.315C1055.6 185.531 1056.02 185.639 1056.48 185.639C1057.11 185.639 1057.65 185.451 1058.1 185.075C1058.54 184.707 1058.76 184.239 1058.76 183.671C1058.76 183.103 1058.53 182.631 1058.09 182.255C1057.65 181.871 1057.09 181.679 1056.42 181.679H1054.22L1054.61 177.875H1058.9V178.595H1055.25L1055.01 180.959H1056.44C1057.32 180.959 1058.06 181.219 1058.65 181.739ZM1064.51 183.503V182.807H1067.59V183.503H1064.51ZM1077.27 180.047C1077.27 179.623 1077.07 179.259 1076.69 178.955C1076.31 178.659 1075.84 178.511 1075.26 178.511C1074.81 178.511 1074.41 178.611 1074.05 178.811C1073.7 179.003 1073.44 179.267 1073.28 179.603L1072.59 179.267C1072.81 178.803 1073.16 178.439 1073.63 178.175C1074.11 177.903 1074.65 177.767 1075.26 177.767C1076.05 177.767 1076.72 177.987 1077.25 178.427C1077.79 178.859 1078.06 179.395 1078.06 180.035C1078.06 180.443 1077.93 180.819 1077.69 181.163C1077.44 181.499 1077.1 181.759 1076.67 181.943C1077.15 182.135 1077.54 182.415 1077.82 182.783C1078.11 183.143 1078.25 183.551 1078.25 184.007C1078.25 184.687 1077.97 185.255 1077.4 185.711C1076.83 186.159 1076.12 186.383 1075.27 186.383C1074.63 186.383 1074.05 186.243 1073.55 185.963C1073.04 185.683 1072.68 185.307 1072.47 184.835L1073.21 184.547C1073.36 184.883 1073.62 185.151 1073.99 185.351C1074.36 185.543 1074.79 185.639 1075.27 185.639C1075.89 185.639 1076.41 185.483 1076.83 185.171C1077.25 184.851 1077.46 184.455 1077.46 183.983C1077.46 183.519 1077.25 183.131 1076.85 182.819C1076.45 182.507 1075.94 182.351 1075.33 182.351H1074.71V181.619H1075.18C1075.78 181.619 1076.27 181.471 1076.67 181.175C1077.07 180.871 1077.27 180.495 1077.27 180.047ZM1079.76 183.431V180.719C1079.76 179.887 1080.06 179.187 1080.65 178.619C1081.26 178.051 1082 177.767 1082.88 177.767C1083.78 177.767 1084.52 178.051 1085.11 178.619C1085.71 179.179 1086.01 179.879 1086.01 180.719V183.431C1086.01 184.271 1085.71 184.975 1085.11 185.543C1084.53 186.103 1083.78 186.383 1082.88 186.383C1081.98 186.383 1081.24 186.103 1080.65 185.543C1080.06 184.975 1079.76 184.271 1079.76 183.431ZM1080.53 180.707V183.443C1080.53 184.067 1080.75 184.591 1081.2 185.015C1081.65 185.431 1082.21 185.639 1082.88 185.639C1083.55 185.639 1084.11 185.431 1084.56 185.015C1085.02 184.591 1085.24 184.067 1085.24 183.443V180.707C1085.24 180.083 1085.02 179.563 1084.56 179.147C1084.1 178.723 1083.54 178.511 1082.88 178.511C1082.22 178.511 1081.66 178.723 1081.2 179.147C1080.75 179.571 1080.53 180.091 1080.53 180.707ZM1087.49 185.783C1087.49 185.615 1087.55 185.475 1087.66 185.363C1087.78 185.251 1087.92 185.195 1088.09 185.195C1088.26 185.195 1088.4 185.251 1088.51 185.363C1088.63 185.475 1088.69 185.615 1088.69 185.783C1088.71 186.031 1088.61 186.203 1088.4 186.299C1088.19 186.403 1087.99 186.403 1087.78 186.299C1087.57 186.203 1087.47 186.031 1087.49 185.783ZM1090.17 183.431V180.719C1090.17 179.887 1090.46 179.187 1091.05 178.619C1091.66 178.051 1092.41 177.767 1093.29 177.767C1094.18 177.767 1094.93 178.051 1095.52 178.619C1096.12 179.179 1096.42 179.879 1096.42 180.719V183.431C1096.42 184.271 1096.12 184.975 1095.52 185.543C1094.93 186.103 1094.19 186.383 1093.29 186.383C1092.39 186.383 1091.65 186.103 1091.05 185.543C1090.46 184.975 1090.17 184.271 1090.17 183.431ZM1090.93 180.707V183.443C1090.93 184.067 1091.16 184.591 1091.61 185.015C1092.05 185.431 1092.61 185.639 1093.29 185.639C1093.96 185.639 1094.52 185.431 1094.97 185.015C1095.42 184.591 1095.65 184.067 1095.65 183.443V180.707C1095.65 180.083 1095.42 179.563 1094.97 179.147C1094.5 178.723 1093.94 178.511 1093.29 178.511C1092.63 178.511 1092.07 178.723 1091.61 179.147C1091.16 179.571 1090.93 180.091 1090.93 180.707ZM1102.9 181.739C1103.5 182.251 1103.8 182.895 1103.8 183.671C1103.8 184.447 1103.5 185.095 1102.91 185.615C1102.33 186.127 1101.6 186.383 1100.73 186.383C1100.08 186.383 1099.5 186.231 1098.99 185.927C1098.48 185.615 1098.1 185.195 1097.86 184.667L1098.62 184.427C1098.81 184.795 1099.09 185.091 1099.47 185.315C1099.85 185.531 1100.27 185.639 1100.73 185.639C1101.36 185.639 1101.9 185.451 1102.35 185.075C1102.79 184.707 1103.01 184.239 1103.01 183.671C1103.01 183.103 1102.78 182.631 1102.34 182.255C1101.9 181.871 1101.34 181.679 1100.67 181.679H1098.47L1098.86 177.875H1103.15V178.595H1099.5L1099.26 180.959H1100.69C1101.57 180.959 1102.31 181.219 1102.9 181.739Z" fill="black"/>
</svg>
