<svg width="341" height="180" viewBox="0 0 341 180" fill="none" xmlns="http://www.w3.org/2000/svg">
<rect width="341" height="180" fill="#F5F5F5"/>
<path d="M197 90C197 99.3239 195.164 108.556 191.595 117.171C188.027 125.785 182.798 133.612 176.205 140.205C169.612 146.798 161.785 152.027 153.171 155.595C144.556 159.164 135.324 161 126 161C116.676 161 107.444 159.164 98.8295 155.595C90.2154 152.027 82.3884 146.798 75.7954 140.205C69.2025 133.612 63.9726 125.785 60.4046 117.171C56.8365 108.556 55 99.3238 55 90L126 90H197Z" fill="#AB85FF"/>
<mask id="mask0" mask-type="alpha" maskUnits="userSpaceOnUse" x="55" y="90" width="142" height="71">
<path d="M197 90C197 99.3239 195.164 108.556 191.595 117.171C188.027 125.785 182.798 133.612 176.205 140.205C169.612 146.798 161.785 152.027 153.171 155.595C144.556 159.164 135.324 161 126 161C116.676 161 107.444 159.164 98.8295 155.595C90.2154 152.027 82.3884 146.798 75.7954 140.205C69.2025 133.612 63.9726 125.785 60.4046 117.171C56.8365 108.556 55 99.3238 55 90L126 90H197Z" fill="#AB85FF"/>
</mask>
<g mask="url(#mask0)">
<path d="M-15.166 107.546C61.3367 63.8298 115.982 63.8298 148.768 107.546C181.555 151.261 236.2 151.261 312.703 107.546" stroke="#B491FF" stroke-width="2"/>
<path d="M-5.58227 191.265C53.0656 125.507 104.879 108.144 149.857 139.176C194.835 170.209 246.648 152.846 305.296 87.0878" stroke="#B491FF" stroke-width="2"/>
<path d="M-11.9316 162.361C67.7695 124.792 122.245 129.085 151.496 175.242C180.747 221.399 235.223 225.692 314.924 188.123" stroke="#B491FF" stroke-width="2"/>
</g>
<path d="M160 77C160 69.9086 161.397 62.8867 164.111 56.3351C166.824 49.7835 170.802 43.8306 175.816 38.8162C180.831 33.8019 186.784 29.8243 193.335 27.1105C199.887 24.3968 206.909 23 214 23C221.091 23 228.113 24.3968 234.665 27.1105C241.216 29.8243 247.169 33.8019 252.184 38.8162C257.198 43.8306 261.176 49.7835 263.889 56.3351C266.603 62.8867 268 69.9086 268 77L214 77H160Z" fill="#31D67B"/>
<mask id="path-7-inside-1" fill="white">
<path d="M147 72C147 64.9086 148.397 57.8867 151.111 51.3351C153.824 44.7835 157.802 38.8306 162.816 33.8162C167.831 28.8019 173.784 24.8243 180.335 22.1105C186.887 19.3968 193.909 18 201 18C208.091 18 215.113 19.3968 221.665 22.1105C228.216 24.8243 234.169 28.8019 239.184 33.8162C244.198 38.8306 248.176 44.7835 250.889 51.3351C253.603 57.8867 255 64.9086 255 72L201 72H147Z"/>
</mask>
<path d="M147 72C147 64.9086 148.397 57.8867 151.111 51.3351C153.824 44.7835 157.802 38.8306 162.816 33.8162C167.831 28.8019 173.784 24.8243 180.335 22.1105C186.887 19.3968 193.909 18 201 18C208.091 18 215.113 19.3968 221.665 22.1105C228.216 24.8243 234.169 28.8019 239.184 33.8162C244.198 38.8306 248.176 44.7835 250.889 51.3351C253.603 57.8867 255 64.9086 255 72L201 72H147Z" stroke="black" stroke-width="2" mask="url(#path-7-inside-1)"/>
<circle cx="216.082" cy="128.791" r="10.6637" stroke="black"/>
<circle cx="236.725" cy="117.627" r="5.08182" stroke="black"/>
<circle cx="251.787" cy="123.741" r="2.71295" stroke="black"/>
<path d="M98.7856 90L98.7856 48.463M98.7856 48.463L97.9905 49.601M98.7856 48.463L99.5806 49.601" stroke="black"/>
<path d="M111.995 90L111.995 31.9621M111.995 31.9621L111.171 33.5521M111.995 31.9621L112.819 33.5521" stroke="black"/>
<path d="M85.6332 90L85.6332 63.826M85.6332 63.826L84.8094 64.5431M85.6332 63.826L86.457 64.5431" stroke="black"/>
<path d="M125.176 90V71.223M125.176 71.223L124.352 71.7375M125.176 71.223L126 71.7375" stroke="black"/>
</svg>
