<svg width="186" height="88" viewBox="0 0 186 88" fill="none" xmlns="http://www.w3.org/2000/svg">
<path d="M25.7201 58.8912H4.27986C1.91988 58.8912 0 60.8112 0 63.1711V77.6415C0 80.0014 1.91988 81.9213 4.27986 81.9213H5.95934L5.99221 85.6996C5.99514 86.0479 6.19512 86.3643 6.50836 86.5165C6.63568 86.5784 6.77273 86.6088 6.90914 86.6088C7.1083 86.6088 7.306 86.544 7.46959 86.4177L13.2953 81.9213H25.7201C28.0801 81.9213 30 80.0014 30 77.6415V63.1711C30 60.8112 28.0801 58.8912 25.7201 58.8912ZM28.1658 77.6415C28.1658 78.9901 27.0687 80.0872 25.7201 80.0872H12.9826C12.7798 80.0872 12.5828 80.1544 12.4222 80.2782L7.81025 83.8378L7.78553 80.9963C7.78119 80.4929 7.37186 80.0872 6.86848 80.0872H4.27986C2.93133 80.0872 1.83422 78.9901 1.83422 77.6415V63.1711C1.83422 61.8226 2.93133 60.7255 4.27986 60.7255H25.7202C27.0687 60.7255 28.1658 61.8226 28.1658 63.1711V77.6415H28.1658Z" fill="url(#paint0_linear)"/>
<path d="M85.8669 35.7933H50.1331C46.1998 35.7933 43 38.9932 43 42.9264V67.0437C43 70.9769 46.1998 74.1768 50.1331 74.1768H52.9322L52.987 80.474C52.9919 81.0543 53.3252 81.5818 53.8473 81.8355C54.0595 81.9386 54.2879 81.9893 54.5152 81.9893C54.8472 81.9893 55.1767 81.8813 55.4493 81.6707L65.1588 74.1768H85.8669C89.8002 74.1768 93 70.9769 93 67.0437V42.9264C93 38.9932 89.8002 35.7933 85.8669 35.7933ZM89.943 67.0438C89.943 69.2914 88.1145 71.1199 85.8669 71.1199H64.6376C64.2997 71.1199 63.9713 71.2319 63.7037 71.4383L56.0171 77.3709L55.9759 72.6351C55.9687 71.7961 55.2864 71.1199 54.4475 71.1199H50.1331C47.8855 71.1199 46.057 69.2914 46.057 67.0438V42.9264C46.057 40.6789 47.8855 38.8503 50.1331 38.8503H85.867C88.1146 38.8503 89.9431 40.6789 89.9431 42.9264V67.0438H89.943Z" fill="url(#paint1_linear)"/>
<path d="M174.587 3.29327H117.413C111.12 3.29327 106 8.41312 106 14.7062V53.2939C106 59.587 111.12 64.7069 117.413 64.7069H121.892L121.979 74.7823C121.987 75.7109 122.52 76.5548 123.356 76.9608C123.695 77.1258 124.061 77.2069 124.424 77.2069C124.955 77.2069 125.483 77.034 125.919 76.6972L141.454 64.7069H174.587C180.88 64.7069 186 59.587 186 53.2939V14.7062C186 8.41312 180.88 3.29327 174.587 3.29327ZM181.109 53.2941C181.109 56.8901 178.183 59.8158 174.587 59.8158H140.62C140.08 59.8158 139.554 59.995 139.126 60.3253L126.827 69.8175L126.761 62.2401C126.75 60.8978 125.658 59.8158 124.316 59.8158H117.413C113.817 59.8158 110.891 56.8901 110.891 53.2941V14.7062C110.891 11.1101 113.817 8.18452 117.413 8.18452H174.587C178.183 8.18452 181.109 11.1101 181.109 14.7062V53.2941H181.109Z" fill="url(#paint2_linear)"/>
<defs>
<linearGradient id="paint0_linear" x1="-4.88" y1="89.377" x2="26.3483" y2="45.6851" gradientUnits="userSpaceOnUse">
<stop stop-color="#AB85FF"/>
<stop offset="0.526042" stop-color="#EBA3E3"/>
<stop offset="1" stop-color="#FFDBE4"/>
</linearGradient>
<linearGradient id="paint1_linear" x1="34.8667" y1="86.6029" x2="86.9139" y2="13.7831" gradientUnits="userSpaceOnUse">
<stop stop-color="#AB85FF"/>
<stop offset="0.526042" stop-color="#EBA3E3"/>
<stop offset="1" stop-color="#FFDBE4"/>
</linearGradient>
<linearGradient id="paint2_linear" x1="92.9867" y1="84.5886" x2="176.262" y2="-31.9231" gradientUnits="userSpaceOnUse">
<stop stop-color="#AB85FF"/>
<stop offset="0.526042" stop-color="#EBA3E3"/>
<stop offset="1" stop-color="#FFDBE4"/>
</linearGradient>
</defs>
</svg>
