<svg width="342" height="180" viewBox="0 0 342 180" fill="none" xmlns="http://www.w3.org/2000/svg">
<rect width="341" height="180" transform="translate(0.464844)" fill="#F5F5F5"/>
<path d="M69.4996 41.8874C54.57 42.9933 26.038 54.8264 24.7109 86.676C24.7109 126.488 55.123 136.994 70.0525 136.994C91.6174 136.994 181.195 136.994 232.066 136.994" stroke="black"/>
<path d="M69.2734 41.8867H149.123" stroke="black"/>
<path d="M118.348 95.9941L155.121 136.994" stroke="black"/>
<path d="M122.152 95.9941L158.926 136.994" stroke="black"/>
<path d="M126.379 95.9941L163.152 136.994" stroke="black"/>
<path d="M130.605 95.9941L167.379 136.994" stroke="black"/>
<path d="M134.832 95.9941L171.605 136.994" stroke="black"/>
<path d="M139.059 95.9941L175.832 136.994" stroke="black"/>
<path d="M272.43 136.993C287.36 135.888 315.892 124.055 317.219 92.2048C317.219 52.3927 286.807 41.8867 271.877 41.8867C250.312 41.8867 160.735 41.8867 109.864 41.8867" stroke="black"/>
<path d="M272.656 136.994H192.807" stroke="black"/>
<path d="M200.109 136.994L229.057 120.281V153.707L200.109 136.994Z" fill="#31D67B"/>
<path d="M218.422 136.994L247.37 120.281V153.707L218.422 136.994Z" fill="#31D67B"/>
<path d="M237.719 136.994L266.667 120.281V153.707L237.719 136.994Z" fill="#31D67B"/>
<path d="M70.5709 80.8914C72.3309 80.8914 73.9109 81.4514 75.3109 82.5714V81.3414H79.0309V96.9414H75.3109V95.7114C73.9109 96.8314 72.3309 97.3914 70.5709 97.3914C68.4309 97.3914 66.6209 96.6114 65.1409 95.0514C63.7009 93.4714 62.9809 91.5014 62.9809 89.1414C62.9809 86.7814 63.7009 84.8214 65.1409 83.2614C66.6009 81.6814 68.4109 80.8914 70.5709 80.8914ZM74.0209 85.9314C73.2209 85.0714 72.2309 84.6414 71.0509 84.6414C69.8509 84.6414 68.8509 85.0714 68.0509 85.9314C67.2509 86.7914 66.8509 87.8614 66.8509 89.1414C66.8509 90.4214 67.2509 91.4914 68.0509 92.3514C68.8509 93.2114 69.8509 93.6414 71.0509 93.6414C72.2309 93.6414 73.2209 93.2114 74.0209 92.3514C74.8409 91.4714 75.2509 90.4014 75.2509 89.1414C75.2509 87.8814 74.8409 86.8114 74.0209 85.9314ZM88.213 96.9414V74.4414H91.963V82.5714C93.363 81.4514 94.933 80.8914 96.673 80.8914C98.833 80.8914 100.643 81.6814 102.103 83.2614C103.563 84.8014 104.293 86.7614 104.293 89.1414C104.293 91.5014 103.563 93.4714 102.103 95.0514C100.623 96.6114 98.813 97.3914 96.673 97.3914C94.933 97.3914 93.363 96.8314 91.963 95.7114V96.9414H88.213ZM99.163 85.9314C98.363 85.0714 97.373 84.6414 96.193 84.6414C95.013 84.6414 94.023 85.0714 93.223 85.9314C92.423 86.7914 92.023 87.8614 92.023 89.1414C92.023 90.4214 92.423 91.4914 93.223 92.3514C94.023 93.2114 95.013 93.6414 96.193 93.6414C97.373 93.6414 98.363 93.2114 99.163 92.3514C99.983 91.4714 100.393 90.4014 100.393 89.1414C100.393 87.8814 99.983 86.8114 99.163 85.9314ZM128.265 86.0514L124.515 87.1614C124.175 86.3814 123.645 85.7714 122.925 85.3314C122.225 84.8714 121.435 84.6414 120.555 84.6414C119.315 84.6414 118.275 85.0714 117.435 85.9314C116.595 86.7914 116.175 87.8614 116.175 89.1414C116.175 90.4214 116.595 91.4914 117.435 92.3514C118.275 93.2114 119.315 93.6414 120.555 93.6414C121.435 93.6414 122.225 93.4214 122.925 92.9814C123.645 92.5214 124.175 91.9014 124.515 91.1214L128.265 92.2314C127.665 93.8114 126.675 95.0714 125.295 96.0114C123.915 96.9314 122.335 97.3914 120.555 97.3914C118.215 97.3914 116.245 96.6114 114.645 95.0514C113.085 93.4714 112.305 91.5014 112.305 89.1414C112.305 86.7814 113.085 84.8214 114.645 83.2614C116.225 81.6814 118.195 80.8914 120.555 80.8914C122.335 80.8914 123.915 81.3614 125.295 82.3014C126.675 83.2214 127.665 84.4714 128.265 86.0514ZM143.59 80.8914C145.35 80.8914 146.93 81.4514 148.33 82.5714V74.4414H152.05V96.9414H148.33V95.7114C146.93 96.8314 145.35 97.3914 143.59 97.3914C141.45 97.3914 139.64 96.6114 138.16 95.0514C136.72 93.4714 136 91.5014 136 89.1414C136 86.7814 136.72 84.8214 138.16 83.2614C139.62 81.6814 141.43 80.8914 143.59 80.8914ZM147.04 85.9314C146.24 85.0714 145.25 84.6414 144.07 84.6414C142.87 84.6414 141.87 85.0714 141.07 85.9314C140.27 86.7914 139.87 87.8614 139.87 89.1414C139.87 90.4214 140.27 91.4914 141.07 92.3514C141.87 93.2114 142.87 93.6414 144.07 93.6414C145.25 93.6414 146.24 93.2114 147.04 92.3514C147.86 91.4714 148.27 90.4014 148.27 89.1414C148.27 87.8814 147.86 86.8114 147.04 85.9314ZM176.923 90.5214H164.533C164.813 91.5414 165.363 92.3714 166.183 93.0114C167.023 93.6314 167.993 93.9414 169.093 93.9414C170.633 93.9414 171.853 93.3914 172.753 92.2914L176.383 93.3414C175.663 94.6014 174.653 95.5914 173.353 96.3114C172.073 97.0314 170.653 97.3914 169.093 97.3914C166.693 97.3914 164.683 96.6114 163.063 95.0514C161.463 93.4514 160.663 91.4814 160.663 89.1414C160.663 86.7814 161.443 84.8214 163.003 83.2614C164.583 81.6814 166.533 80.8914 168.853 80.8914C171.173 80.8914 173.113 81.6814 174.673 83.2614C176.253 84.8414 177.043 86.8014 177.043 89.1414C177.043 89.5214 177.003 89.9814 176.923 90.5214ZM164.563 87.6114H173.173C172.873 86.6314 172.323 85.8414 171.523 85.2414C170.723 84.6414 169.813 84.3414 168.793 84.3414C167.813 84.3414 166.933 84.6414 166.153 85.2414C165.373 85.8414 164.843 86.6314 164.563 87.6114Z" fill="#AB85FF"/>
<path d="M75.3109 82.5714L74.6862 83.3523L76.3109 84.652V82.5714H75.3109ZM75.3109 81.3414V80.3414H74.3109V81.3414H75.3109ZM79.0309 81.3414H80.0309V80.3414H79.0309V81.3414ZM79.0309 96.9414V97.9414H80.0309V96.9414H79.0309ZM75.3109 96.9414H74.3109V97.9414H75.3109V96.9414ZM75.3109 95.7114H76.3109V93.6308L74.6862 94.9305L75.3109 95.7114ZM65.1409 95.0514L64.4018 95.725L64.4086 95.7324L64.4155 95.7397L65.1409 95.0514ZM65.1409 83.2614L64.4065 82.5827L64.4061 82.5831L65.1409 83.2614ZM74.0209 85.9314L73.2888 86.6125L73.2893 86.6131L74.0209 85.9314ZM68.0509 92.3514L68.7831 91.6703L68.0509 92.3514ZM74.0209 92.3514L73.2893 91.6697L73.2888 91.6703L74.0209 92.3514ZM70.5709 81.8914C72.0993 81.8914 73.46 82.3712 74.6862 83.3523L75.9356 81.7905C74.3619 80.5316 72.5626 79.8914 70.5709 79.8914V81.8914ZM76.3109 82.5714V81.3414H74.3109V82.5714H76.3109ZM75.3109 82.3414H79.0309V80.3414H75.3109V82.3414ZM78.0309 81.3414V96.9414H80.0309V81.3414H78.0309ZM79.0309 95.9414H75.3109V97.9414H79.0309V95.9414ZM76.3109 96.9414V95.7114H74.3109V96.9414H76.3109ZM74.6862 94.9305C73.46 95.9116 72.0993 96.3914 70.5709 96.3914V98.3914C72.5626 98.3914 74.3619 97.7512 75.9356 96.4923L74.6862 94.9305ZM70.5709 96.3914C68.7068 96.3914 67.1586 95.7252 65.8664 94.3631L64.4155 95.7397C66.0833 97.4976 68.1551 98.3914 70.5709 98.3914V96.3914ZM65.88 94.3778C64.6259 93.0017 63.9809 91.2802 63.9809 89.1414H61.9809C61.9809 91.7226 62.776 93.9411 64.4018 95.725L65.88 94.3778ZM63.9809 89.1414C63.9809 87.0024 64.6258 85.2938 65.8757 83.9397L64.4061 82.5831C62.7761 84.349 61.9809 86.5604 61.9809 89.1414H63.9809ZM65.8754 83.9401C67.1452 82.5659 68.6886 81.8914 70.5709 81.8914V79.8914C68.1333 79.8914 66.0567 80.7969 64.4065 82.5827L65.8754 83.9401ZM74.7531 85.2503C73.7629 84.1859 72.5072 83.6414 71.0509 83.6414V85.6414C71.9546 85.6414 72.6789 85.957 73.2888 86.6125L74.7531 85.2503ZM71.0509 83.6414C69.58 83.6414 68.3125 84.182 67.3188 85.2503L68.7831 86.6125C69.3893 85.9608 70.1219 85.6414 71.0509 85.6414V83.6414ZM67.3188 85.2503C66.3305 86.3127 65.8509 87.6334 65.8509 89.1414H67.8509C67.8509 88.0894 68.1714 87.2701 68.7831 86.6125L67.3188 85.2503ZM65.8509 89.1414C65.8509 90.6494 66.3305 91.9701 67.3188 93.0325L68.7831 91.6703C68.1714 91.0127 67.8509 90.1934 67.8509 89.1414H65.8509ZM67.3188 93.0325C68.3125 94.1008 69.58 94.6414 71.0509 94.6414V92.6414C70.1219 92.6414 69.3893 92.322 68.7831 91.6703L67.3188 93.0325ZM71.0509 94.6414C72.5072 94.6414 73.7629 94.097 74.7531 93.0325L73.2888 91.6703C72.6789 92.3259 71.9546 92.6414 71.0509 92.6414V94.6414ZM74.7525 93.0331C75.7539 91.9586 76.2509 90.6412 76.2509 89.1414H74.2509C74.2509 90.1616 73.928 90.9843 73.2893 91.6697L74.7525 93.0331ZM76.2509 89.1414C76.2509 87.6416 75.7539 86.3243 74.7525 85.2497L73.2893 86.6131C73.928 87.2986 74.2509 88.1212 74.2509 89.1414H76.2509ZM88.213 96.9414H87.213V97.9414H88.213V96.9414ZM88.213 74.4414V73.4414H87.213V74.4414H88.213ZM91.963 74.4414H92.963V73.4414H91.963V74.4414ZM91.963 82.5714H90.963V84.652L92.5877 83.3523L91.963 82.5714ZM102.103 83.2614L101.369 83.9401L101.377 83.9494L102.103 83.2614ZM102.103 95.0514L102.829 95.7397L102.837 95.7301L102.103 95.0514ZM91.963 95.7114L92.5877 94.9305L90.963 93.6308V95.7114H91.963ZM91.963 96.9414V97.9414H92.963V96.9414H91.963ZM99.163 85.9314L98.4309 86.6125L98.4314 86.6131L99.163 85.9314ZM93.223 92.3514L93.9552 91.6703L93.223 92.3514ZM99.163 92.3514L98.4314 91.6697L98.4309 91.6703L99.163 92.3514ZM89.213 96.9414V74.4414H87.213V96.9414H89.213ZM88.213 75.4414H91.963V73.4414H88.213V75.4414ZM90.963 74.4414V82.5714H92.963V74.4414H90.963ZM92.5877 83.3523C93.8163 82.3695 95.1675 81.8914 96.673 81.8914V79.8914C94.6986 79.8914 92.9098 80.5334 91.3384 81.7905L92.5877 83.3523ZM96.673 81.8914C98.5554 81.8914 100.099 82.5659 101.369 83.9401L102.837 82.5827C101.187 80.7969 99.1107 79.8914 96.673 79.8914V81.8914ZM101.377 83.9494C102.639 85.2805 103.293 86.9837 103.293 89.1414H105.293C105.293 86.5391 104.487 84.3223 102.829 82.5734L101.377 83.9494ZM103.293 89.1414C103.293 91.2764 102.641 92.9961 101.369 94.3727L102.837 95.7301C104.485 93.9467 105.293 91.7265 105.293 89.1414H103.293ZM101.378 94.3631C100.085 95.7252 98.5372 96.3914 96.673 96.3914V98.3914C99.0889 98.3914 101.161 97.4976 102.829 95.7397L101.378 94.3631ZM96.673 96.3914C95.1675 96.3914 93.8163 95.9134 92.5877 94.9305L91.3384 96.4923C92.9098 97.7495 94.6986 98.3914 96.673 98.3914V96.3914ZM90.963 95.7114V96.9414H92.963V95.7114H90.963ZM91.963 95.9414H88.213V97.9414H91.963V95.9414ZM99.8952 85.2503C98.9051 84.1859 97.6493 83.6414 96.193 83.6414V85.6414C97.0968 85.6414 97.821 85.957 98.4309 86.6125L99.8952 85.2503ZM96.193 83.6414C94.7368 83.6414 93.481 84.1859 92.4909 85.2503L93.9552 86.6125C94.5651 85.957 95.2893 85.6414 96.193 85.6414V83.6414ZM92.4909 85.2503C91.5026 86.3127 91.023 87.6334 91.023 89.1414H93.023C93.023 88.0894 93.3435 87.2701 93.9552 86.6125L92.4909 85.2503ZM91.023 89.1414C91.023 90.6494 91.5026 91.9701 92.4909 93.0325L93.9552 91.6703C93.3435 91.0127 93.023 90.1934 93.023 89.1414H91.023ZM92.4909 93.0325C93.481 94.097 94.7368 94.6414 96.193 94.6414V92.6414C95.2893 92.6414 94.5651 92.3259 93.9552 91.6703L92.4909 93.0325ZM96.193 94.6414C97.6493 94.6414 98.9051 94.097 99.8952 93.0325L98.4309 91.6703C97.821 92.3259 97.0968 92.6414 96.193 92.6414V94.6414ZM99.8947 93.0331C100.896 91.9586 101.393 90.6412 101.393 89.1414H99.393C99.393 90.1616 99.0701 90.9843 98.4314 91.6697L99.8947 93.0331ZM101.393 89.1414C101.393 87.6416 100.896 86.3243 99.8947 85.2497L98.4314 86.6131C99.0701 87.2986 99.393 88.1212 99.393 89.1414H101.393ZM128.265 86.0514L128.549 87.0103L129.583 86.7043L129.2 85.6964L128.265 86.0514ZM124.515 87.1614L123.598 87.561L123.952 88.3711L124.799 88.1203L124.515 87.1614ZM122.925 85.3314L122.376 86.1671L122.39 86.1761L122.404 86.1847L122.925 85.3314ZM117.435 85.9314L118.151 86.6301L117.435 85.9314ZM117.435 92.3514L118.151 91.6527L117.435 92.3514ZM122.925 92.9814L123.457 93.8281L123.464 93.8241L122.925 92.9814ZM124.515 91.1214L124.799 90.1625L123.952 89.9117L123.598 90.7218L124.515 91.1214ZM128.265 92.2314L129.2 92.5864L129.583 91.5785L128.549 91.2725L128.265 92.2314ZM125.295 96.0114L125.85 96.8435L125.858 96.8379L125.295 96.0114ZM114.645 95.0514L113.934 95.754L113.94 95.7608L113.947 95.7674L114.645 95.0514ZM114.645 83.2614L113.938 82.5543L114.645 83.2614ZM125.295 82.3014L124.732 83.1279L124.74 83.1335L125.295 82.3014ZM127.981 85.0925L124.231 86.2025L124.799 88.1203L128.549 87.0103L127.981 85.0925ZM125.432 86.7618C125.011 85.7953 124.343 85.0262 123.447 84.4781L122.404 86.1847C122.947 86.5167 123.34 86.9675 123.598 87.561L125.432 86.7618ZM123.474 84.4957C122.603 83.9229 121.62 83.6414 120.555 83.6414V85.6414C121.25 85.6414 121.848 85.8199 122.376 86.1671L123.474 84.4957ZM120.555 83.6414C119.055 83.6414 117.754 84.1733 116.72 85.2327L118.151 86.6301C118.796 85.9695 119.575 85.6414 120.555 85.6414V83.6414ZM116.72 85.2327C115.685 86.2924 115.175 87.6189 115.175 89.1414H117.175C117.175 88.1039 117.506 87.2904 118.151 86.6301L116.72 85.2327ZM115.175 89.1414C115.175 90.6639 115.685 91.9904 116.72 93.0501L118.151 91.6527C117.506 90.9924 117.175 90.1789 117.175 89.1414H115.175ZM116.72 93.0501C117.754 94.1095 119.055 94.6414 120.555 94.6414V92.6414C119.575 92.6414 118.796 92.3133 118.151 91.6527L116.72 93.0501ZM120.555 94.6414C121.611 94.6414 122.588 94.3748 123.457 93.828L122.393 92.1348C121.863 92.468 121.26 92.6414 120.555 92.6414V94.6414ZM123.464 93.8241C124.35 93.2577 125.012 92.4838 125.432 91.521L123.598 90.7218C123.338 91.319 122.94 91.7851 122.387 92.1387L123.464 93.8241ZM124.231 92.0803L127.981 93.1903L128.549 91.2725L124.799 90.1625L124.231 92.0803ZM127.33 91.8764C126.802 93.2674 125.941 94.3618 124.732 95.1849L125.858 96.8379C127.41 95.781 128.528 94.3555 129.2 92.5864L127.33 91.8764ZM124.74 95.1794C123.537 95.9817 122.153 96.3914 120.555 96.3914V98.3914C122.517 98.3914 124.293 97.8811 125.85 96.8435L124.74 95.1794ZM120.555 96.3914C118.462 96.3914 116.747 95.704 115.343 94.3354L113.947 95.7674C115.743 97.5188 117.968 98.3914 120.555 98.3914V96.3914ZM115.357 94.3488C113.994 92.9686 113.305 91.2567 113.305 89.1414H111.305C111.305 91.7461 112.176 93.9742 113.934 95.754L115.357 94.3488ZM113.305 89.1414C113.305 87.0261 113.994 85.327 115.352 83.9685L113.938 82.5543C112.177 84.3158 111.305 86.5367 111.305 89.1414H113.305ZM115.352 83.9685C116.733 82.5874 118.444 81.8914 120.555 81.8914V79.8914C117.946 79.8914 115.717 80.7754 113.938 82.5543L115.352 83.9685ZM120.555 81.8914C122.148 81.8914 123.529 82.3086 124.732 83.1279L125.858 81.4749C124.301 80.4143 122.522 79.8914 120.555 79.8914V81.8914ZM124.74 83.1335C125.944 83.9356 126.803 85.0172 127.33 86.4064L129.2 85.6964C128.528 83.9256 127.407 82.5072 125.85 81.4694L124.74 83.1335ZM148.33 82.5714L147.706 83.3523L149.33 84.652V82.5714H148.33ZM148.33 74.4414V73.4414H147.33V74.4414H148.33ZM152.05 74.4414H153.05V73.4414H152.05V74.4414ZM152.05 96.9414V97.9414H153.05V96.9414H152.05ZM148.33 96.9414H147.33V97.9414H148.33V96.9414ZM148.33 95.7114H149.33V93.6308L147.706 94.9305L148.33 95.7114ZM138.16 95.0514L137.421 95.725L137.428 95.7324L137.435 95.7397L138.16 95.0514ZM138.16 83.2614L137.426 82.5827L137.426 82.5831L138.16 83.2614ZM147.04 85.9314L146.308 86.6125L146.309 86.6131L147.04 85.9314ZM141.07 92.3514L141.803 91.6703L141.07 92.3514ZM147.04 92.3514L146.309 91.6697L146.308 91.6703L147.04 92.3514ZM143.59 81.8914C145.119 81.8914 146.479 82.3712 147.706 83.3523L148.955 81.7905C147.381 80.5316 145.582 79.8914 143.59 79.8914V81.8914ZM149.33 82.5714V74.4414H147.33V82.5714H149.33ZM148.33 75.4414H152.05V73.4414H148.33V75.4414ZM151.05 74.4414V96.9414H153.05V74.4414H151.05ZM152.05 95.9414H148.33V97.9414H152.05V95.9414ZM149.33 96.9414V95.7114H147.33V96.9414H149.33ZM147.706 94.9305C146.479 95.9116 145.119 96.3914 143.59 96.3914V98.3914C145.582 98.3914 147.381 97.7512 148.955 96.4923L147.706 94.9305ZM143.59 96.3914C141.726 96.3914 140.178 95.7252 138.886 94.3631L137.435 95.7397C139.103 97.4976 141.175 98.3914 143.59 98.3914V96.3914ZM138.9 94.3778C137.645 93.0017 137 91.2802 137 89.1414H135C135 91.7226 135.796 93.9411 137.421 95.725L138.9 94.3778ZM137 89.1414C137 87.0024 137.645 85.2938 138.895 83.9397L137.426 82.5831C135.796 84.349 135 86.5604 135 89.1414H137ZM138.895 83.9401C140.165 82.5659 141.708 81.8914 143.59 81.8914V79.8914C141.153 79.8914 139.076 80.7969 137.426 82.5827L138.895 83.9401ZM147.773 85.2503C146.782 84.1859 145.527 83.6414 144.07 83.6414V85.6414C144.974 85.6414 145.698 85.957 146.308 86.6125L147.773 85.2503ZM144.07 83.6414C142.6 83.6414 141.332 84.182 140.338 85.2503L141.803 86.6125C142.409 85.9608 143.141 85.6414 144.07 85.6414V83.6414ZM140.338 85.2503C139.35 86.3127 138.87 87.6334 138.87 89.1414H140.87C140.87 88.0894 141.191 87.2701 141.803 86.6125L140.338 85.2503ZM138.87 89.1414C138.87 90.6494 139.35 91.9701 140.338 93.0325L141.803 91.6703C141.191 91.0127 140.87 90.1934 140.87 89.1414H138.87ZM140.338 93.0325C141.332 94.1008 142.6 94.6414 144.07 94.6414V92.6414C143.141 92.6414 142.409 92.322 141.803 91.6703L140.338 93.0325ZM144.07 94.6414C145.527 94.6414 146.782 94.097 147.773 93.0325L146.308 91.6703C145.698 92.3259 144.974 92.6414 144.07 92.6414V94.6414ZM147.772 93.0331C148.773 91.9586 149.27 90.6412 149.27 89.1414H147.27C147.27 90.1616 146.948 90.9843 146.309 91.6697L147.772 93.0331ZM149.27 89.1414C149.27 87.6416 148.773 86.3243 147.772 85.2497L146.309 86.6131C146.948 87.2986 147.27 88.1212 147.27 89.1414H149.27ZM176.923 90.5214V91.5214H177.785L177.912 90.668L176.923 90.5214ZM164.533 90.5214V89.5214H163.221L163.568 90.7861L164.533 90.5214ZM166.183 93.0114L165.567 93.7997L165.578 93.808L165.589 93.816L166.183 93.0114ZM172.753 92.2914L173.03 91.3308L172.397 91.1474L171.979 91.6582L172.753 92.2914ZM176.383 93.3414L177.251 93.8375L177.881 92.734L176.66 92.3808L176.383 93.3414ZM173.353 96.3114L172.868 95.4366L172.862 95.4398L173.353 96.3114ZM163.063 95.0514L162.355 95.7585L162.362 95.7652L162.369 95.7717L163.063 95.0514ZM163.003 83.2614L162.295 82.5543L163.003 83.2614ZM174.673 83.2614L173.961 83.964L173.965 83.9685L174.673 83.2614ZM164.563 87.6114L163.601 87.3367L163.237 88.6114H164.563V87.6114ZM173.173 87.6114V88.6114H174.525L174.129 87.3187L173.173 87.6114ZM171.523 85.2414L172.123 84.4414L171.523 85.2414ZM176.923 89.5214H164.533V91.5214H176.923V89.5214ZM163.568 90.7861C163.904 92.0099 164.575 93.0249 165.567 93.7997L166.798 92.2231C166.151 91.7179 165.721 91.0729 165.497 90.2567L163.568 90.7861ZM165.589 93.816C166.61 94.57 167.791 94.9414 169.093 94.9414V92.9414C168.194 92.9414 167.435 92.6928 166.776 92.2068L165.589 93.816ZM169.093 94.9414C170.904 94.9414 172.419 94.278 173.527 92.9246L171.979 91.6582C171.286 92.5048 170.361 92.9414 169.093 92.9414V94.9414ZM172.475 93.252L176.105 94.302L176.66 92.3808L173.03 91.3308L172.475 93.252ZM175.514 92.8453C174.887 93.9423 174.012 94.8031 172.868 95.4366L173.837 97.1862C175.293 96.3797 176.438 95.2605 177.251 93.8375L175.514 92.8453ZM172.862 95.4398C171.741 96.0704 170.492 96.3914 169.093 96.3914V98.3914C170.813 98.3914 172.404 97.9924 173.843 97.183L172.862 95.4398ZM169.093 96.3914C166.932 96.3914 165.177 95.6988 163.756 94.3311L162.369 95.7717C164.189 97.524 166.453 98.3914 169.093 98.3914V96.3914ZM163.77 94.3443C162.364 92.9389 161.663 91.2263 161.663 89.1414H159.663C159.663 91.7365 160.561 93.9639 162.355 95.7585L163.77 94.3443ZM161.663 89.1414C161.663 87.0261 162.351 85.327 163.71 83.9685L162.295 82.5543C160.534 84.3158 159.663 86.5367 159.663 89.1414H161.663ZM163.71 83.9685C165.094 82.5839 166.786 81.8914 168.853 81.8914V79.8914C166.279 79.8914 164.071 80.7789 162.295 82.5543L163.71 83.9685ZM168.853 81.8914C170.919 81.8914 172.598 82.5836 173.961 83.964L175.384 82.5588C173.627 80.7792 171.427 79.8914 168.853 79.8914V81.8914ZM173.965 83.9685C175.348 85.3513 176.043 87.0527 176.043 89.1414H178.043C178.043 86.5501 177.157 84.3315 175.38 82.5543L173.965 83.9685ZM176.043 89.1414C176.043 89.4563 176.009 89.8644 175.933 90.3749L177.912 90.668C177.996 90.0985 178.043 89.5865 178.043 89.1414H176.043ZM164.563 88.6114H173.173V86.6114H164.563V88.6114ZM174.129 87.3187C173.768 86.1415 173.097 85.1719 172.123 84.4414L170.923 86.0414C171.549 86.511 171.977 87.1213 172.216 87.9041L174.129 87.3187ZM172.123 84.4414C171.146 83.7088 170.024 83.3414 168.793 83.3414V85.3414C169.601 85.3414 170.299 85.574 170.923 86.0414L172.123 84.4414ZM168.793 83.3414C167.591 83.3414 166.497 83.7149 165.543 84.4488L166.762 86.034C167.368 85.5679 168.034 85.3414 168.793 85.3414V83.3414ZM165.543 84.4488C164.587 85.1842 163.938 86.1587 163.601 87.3367L165.524 87.8861C165.748 87.1041 166.158 86.4986 166.762 86.034L165.543 84.4488Z" fill="black"/>
<circle cx="233.738" cy="40.4527" r="10.6637" stroke="black"/>
<circle cx="254.383" cy="29.2889" r="5.08182" stroke="black"/>
<circle cx="269.443" cy="35.4024" r="2.71295" stroke="black"/>
</svg>
