<svg width="342" height="181" viewBox="0 0 342 181" fill="none" xmlns="http://www.w3.org/2000/svg">
<rect width="341" height="180" transform="translate(0.40625 0.5)" fill="#F5F5F5"/>
<path d="M241.132 35.9618L299.337 126.575H182.926L241.132 35.9618Z" fill="#A57CFE"/>
<path d="M265.347 126.22V53.2202M265.347 53.2202L264.382 55.2202M265.347 53.2202L266.312 55.2202" stroke="black"/>
<path d="M281.383 126.22V24.2202M281.383 24.2202L280.383 27.0147M281.383 24.2202L282.383 27.0147" stroke="black"/>
<path d="M249.383 126.22V80.2202M249.383 80.2202L248.383 81.4805M249.383 80.2202L250.383 81.4805" stroke="black"/>
<path d="M297.383 126.22V93.2202M297.383 93.2202L296.383 94.1243M297.383 93.2202L298.383 94.1243" stroke="black"/>
<path d="M107.419 82.76V75.98C107.419 73.82 108.189 72.02 109.729 70.58C111.289 69.14 113.229 68.42 115.549 68.42C117.869 68.42 119.799 69.14 121.339 70.58C122.899 72.02 123.679 73.82 123.679 75.98V82.76C123.679 84.92 122.899 86.72 121.339 88.16C119.799 89.6 117.869 90.32 115.549 90.32C113.229 90.32 111.289 89.6 109.729 88.16C108.189 86.72 107.419 84.92 107.419 82.76ZM111.319 75.92V82.82C111.319 83.88 111.719 84.78 112.519 85.52C113.339 86.24 114.349 86.6 115.549 86.6C116.749 86.6 117.759 86.24 118.579 85.52C119.399 84.76 119.809 83.86 119.809 82.82V75.92C119.809 74.86 119.399 73.97 118.579 73.25C117.779 72.51 116.769 72.14 115.549 72.14C114.329 72.14 113.319 72.51 112.519 73.25C111.719 73.97 111.319 74.86 111.319 75.92ZM137.537 73.64L133.907 75.44L132.287 72.02L138.647 68.87H141.437V89.87H137.537V73.64ZM162.528 74.99C162.528 74.21 162.188 73.54 161.508 72.98C160.868 72.42 160.078 72.14 159.138 72.14C158.238 72.14 157.428 72.42 156.708 72.98C156.008 73.52 155.478 74.26 155.118 75.2L151.518 73.49C152.198 71.93 153.218 70.7 154.578 69.8C155.938 68.88 157.458 68.42 159.138 68.42C161.238 68.42 162.988 69.05 164.388 70.31C165.828 71.57 166.548 73.09 166.548 74.87C166.548 75.95 166.188 77.08 165.468 78.26C164.748 79.42 163.608 80.75 162.048 82.25L157.938 86.15H166.728V89.87H151.938V86.96L159.648 79.61C161.568 77.75 162.528 76.21 162.528 74.99ZM185.901 74.72C185.901 74 185.561 73.39 184.881 72.89C184.201 72.39 183.331 72.14 182.271 72.14C181.411 72.14 180.651 72.32 179.991 72.68C179.351 73.02 178.881 73.47 178.581 74.03L175.041 72.35C175.661 71.15 176.621 70.2 177.921 69.5C179.221 68.78 180.681 68.42 182.301 68.42C184.481 68.42 186.301 69.01 187.761 70.19C189.201 71.35 189.921 72.82 189.921 74.6C189.921 76.34 189.171 77.8 187.671 78.98C189.531 80.18 190.461 81.81 190.461 83.87C190.461 85.73 189.701 87.27 188.181 88.49C186.661 89.71 184.771 90.32 182.511 90.32C180.651 90.32 179.021 89.89 177.621 89.03C176.221 88.15 175.271 87.01 174.771 85.61L178.521 84.29C178.741 84.97 179.211 85.53 179.931 85.97C180.651 86.39 181.501 86.6 182.481 86.6C183.601 86.6 184.541 86.33 185.301 85.79C186.061 85.23 186.441 84.53 186.441 83.69C186.441 82.89 186.061 82.23 185.301 81.71C184.561 81.17 183.651 80.9 182.571 80.9H180.981V77.39H182.061C183.141 77.39 184.051 77.14 184.791 76.64C185.531 76.14 185.901 75.5 185.901 74.72ZM209.539 89.87V85.85H198.649V82.13L209.719 68.87H213.409V82.13H216.079V85.85H213.409V89.87H209.539ZM209.539 74.66L203.299 82.13H209.539V74.66ZM239.856 83.18C239.856 85.2 239.086 86.9 237.546 88.28C236.006 89.64 234.096 90.32 231.816 90.32C229.976 90.32 228.356 89.84 226.956 88.88C225.556 87.9 224.556 86.59 223.956 84.95L227.826 83.9C228.166 84.74 228.696 85.4 229.416 85.88C230.136 86.36 230.946 86.6 231.846 86.6C232.986 86.6 233.926 86.27 234.666 85.61C235.446 84.95 235.836 84.14 235.836 83.18C235.836 82.14 235.406 81.28 234.546 80.6C233.726 79.92 232.676 79.58 231.396 79.58H225.546L226.626 68.87H238.056V72.44H229.836L229.506 76.04H231.606C233.946 76.04 235.906 76.72 237.486 78.08C239.066 79.42 239.856 81.12 239.856 83.18Z" fill="#31D67B"/>
<path d="M109.729 70.58L109.051 69.8452L109.046 69.8496L109.729 70.58ZM121.339 70.58L120.656 71.3104L120.661 71.3148L121.339 70.58ZM121.339 88.16L120.661 87.4252L120.656 87.4296L121.339 88.16ZM109.729 88.16L109.046 88.8904L109.051 88.8948L109.729 88.16ZM112.519 85.52L111.84 86.2541L111.849 86.2629L111.859 86.2714L112.519 85.52ZM118.579 85.52L119.239 86.2714L119.249 86.2626L119.259 86.2534L118.579 85.52ZM118.579 73.25L117.9 73.9841L117.909 73.9929L117.919 74.0014L118.579 73.25ZM112.519 73.25L113.188 73.9934L113.198 73.9841L112.519 73.25ZM108.419 82.76V75.98H106.419V82.76H108.419ZM108.419 75.98C108.419 74.0892 109.08 72.5561 110.412 71.3104L109.046 69.8496C107.298 71.4838 106.419 73.5508 106.419 75.98H108.419ZM110.407 71.3148C111.765 70.0618 113.455 69.42 115.549 69.42V67.42C113.003 67.42 110.813 68.2182 109.051 69.8452L110.407 71.3148ZM115.549 69.42C117.643 69.42 119.32 70.0617 120.656 71.3104L122.022 69.8496C120.277 68.2183 118.095 67.42 115.549 67.42V69.42ZM120.661 71.3148C122.012 72.5618 122.679 74.0936 122.679 75.98H124.679C124.679 73.5464 123.786 71.4782 122.017 69.8452L120.661 71.3148ZM122.679 75.98V82.76H124.679V75.98H122.679ZM122.679 82.76C122.679 84.6464 122.012 86.1782 120.661 87.4252L122.017 88.8948C123.786 87.2618 124.679 85.1936 124.679 82.76H122.679ZM120.656 87.4296C119.32 88.6783 117.643 89.32 115.549 89.32V91.32C118.095 91.32 120.277 90.5217 122.022 88.8904L120.656 87.4296ZM115.549 89.32C113.455 89.32 111.765 88.6782 110.407 87.4252L109.051 88.8948C110.813 90.5218 113.003 91.32 115.549 91.32V89.32ZM110.412 87.4296C109.08 86.1838 108.419 84.6508 108.419 82.76H106.419C106.419 85.1892 107.298 87.2561 109.046 88.8904L110.412 87.4296ZM110.319 75.92V82.82H112.319V75.92H110.319ZM110.319 82.82C110.319 84.1675 110.842 85.3308 111.84 86.2541L113.198 84.7859C112.596 84.2291 112.319 83.5925 112.319 82.82H110.319ZM111.859 86.2714C112.88 87.1681 114.132 87.6 115.549 87.6V85.6C114.566 85.6 113.798 85.3119 113.179 84.7686L111.859 86.2714ZM115.549 87.6C116.966 87.6 118.218 87.1681 119.239 86.2714L117.919 84.7686C117.3 85.3119 116.532 85.6 115.549 85.6V87.6ZM119.259 86.2534C120.266 85.3201 120.809 84.1609 120.809 82.82H118.809C118.809 83.559 118.532 84.1999 117.899 84.7866L119.259 86.2534ZM120.809 82.82V75.92H118.809V82.82H120.809ZM120.809 75.92C120.809 74.5627 120.268 73.402 119.239 72.4986L117.919 74.0014C118.53 74.538 118.809 75.1573 118.809 75.92H120.809ZM119.258 72.5159C118.251 71.5841 116.988 71.14 115.549 71.14V73.14C116.55 73.14 117.307 73.4359 117.9 73.9841L119.258 72.5159ZM115.549 71.14C114.11 71.14 112.847 71.5841 111.84 72.5159L113.198 73.9841C113.791 73.4359 114.548 73.14 115.549 73.14V71.14ZM111.85 72.5067C110.843 73.413 110.319 74.5716 110.319 75.92H112.319C112.319 75.1484 112.595 74.527 113.188 73.9933L111.85 72.5067ZM137.537 73.64H138.537V72.0279L137.093 72.7441L137.537 73.64ZM133.907 75.44L133.003 75.8681L133.439 76.7882L134.351 76.3359L133.907 75.44ZM132.287 72.02L131.843 71.1239L130.962 71.56L131.383 72.4481L132.287 72.02ZM138.647 68.87V67.87H138.413L138.203 67.9739L138.647 68.87ZM141.437 68.87H142.437V67.87H141.437V68.87ZM141.437 89.87V90.87H142.437V89.87H141.437ZM137.537 89.87H136.537V90.87H137.537V89.87ZM137.093 72.7441L133.463 74.5441L134.351 76.3359L137.981 74.5359L137.093 72.7441ZM134.811 75.0119L133.191 71.5919L131.383 72.4481L133.003 75.8681L134.811 75.0119ZM132.731 72.9161L139.091 69.7661L138.203 67.9739L131.843 71.1239L132.731 72.9161ZM138.647 69.87H141.437V67.87H138.647V69.87ZM140.437 68.87V89.87H142.437V68.87H140.437ZM141.437 88.87H137.537V90.87H141.437V88.87ZM138.537 89.87V73.64H136.537V89.87H138.537ZM161.508 72.98L160.85 73.7326L160.861 73.7424L160.873 73.7519L161.508 72.98ZM156.708 72.98L157.319 73.7718L157.322 73.7693L156.708 72.98ZM155.118 75.2L154.689 76.1033L155.666 76.567L156.052 75.5576L155.118 75.2ZM151.518 73.49L150.602 73.0904L150.215 73.9779L151.089 74.3933L151.518 73.49ZM154.578 69.8L155.13 70.634L155.139 70.6283L154.578 69.8ZM164.388 70.31L163.719 71.0534L163.73 71.0626L164.388 70.31ZM165.468 78.26L166.318 78.7874L166.322 78.7809L165.468 78.26ZM162.048 82.25L162.737 82.9754L162.742 82.9708L162.048 82.25ZM157.938 86.15L157.25 85.4246L155.432 87.15H157.938V86.15ZM166.728 86.15H167.728V85.15H166.728V86.15ZM166.728 89.87V90.87H167.728V89.87H166.728ZM151.938 89.87H150.938V90.87H151.938V89.87ZM151.938 86.96L151.248 86.2362L150.938 86.5317V86.96H151.938ZM159.648 79.61L160.338 80.3338L160.344 80.3282L159.648 79.61ZM163.528 74.99C163.528 73.8702 163.021 72.9303 162.144 72.2081L160.873 73.7519C161.356 74.1496 161.528 74.5498 161.528 74.99H163.528ZM162.167 72.2274C161.325 71.4907 160.293 71.14 159.138 71.14V73.14C159.864 73.14 160.412 73.3493 160.85 73.7326L162.167 72.2274ZM159.138 71.14C158.013 71.14 156.987 71.4961 156.094 72.1906L157.322 73.7693C157.869 73.3439 158.464 73.14 159.138 73.14V71.14ZM156.098 72.1882C155.233 72.8554 154.601 73.755 154.185 74.8423L156.052 75.5576C156.356 74.765 156.784 74.1846 157.319 73.7718L156.098 72.1882ZM155.547 74.2967L151.947 72.5867L151.089 74.3933L154.689 76.1033L155.547 74.2967ZM152.435 73.8896C153.042 72.4984 153.939 71.4226 155.13 70.6339L154.027 68.9661C152.498 69.9774 151.355 71.3616 150.602 73.0904L152.435 73.8896ZM155.139 70.6283C156.329 69.8229 157.653 69.42 159.138 69.42V67.42C157.264 67.42 155.548 67.9371 154.018 68.9717L155.139 70.6283ZM159.138 69.42C161.022 69.42 162.525 69.9779 163.719 71.0533L165.057 69.5667C163.452 68.1221 161.455 67.42 159.138 67.42V69.42ZM163.73 71.0626C164.971 72.1488 165.548 73.4019 165.548 74.87H167.548C167.548 72.7781 166.686 70.9912 165.047 69.5574L163.73 71.0626ZM165.548 74.87C165.548 75.7214 165.265 76.6727 164.615 77.7391L166.322 78.7809C167.111 77.4872 167.548 76.1786 167.548 74.87H165.548ZM164.619 77.7326C163.961 78.7931 162.886 80.0575 161.355 81.5292L162.742 82.9708C164.331 81.4425 165.536 80.0468 166.318 78.7874L164.619 77.7326ZM161.36 81.5246L157.25 85.4246L158.627 86.8754L162.737 82.9754L161.36 81.5246ZM157.938 87.15H166.728V85.15H157.938V87.15ZM165.728 86.15V89.87H167.728V86.15H165.728ZM166.728 88.87H151.938V90.87H166.728V88.87ZM152.938 89.87V86.96H150.938V89.87H152.938ZM152.628 87.6838L160.338 80.3338L158.958 78.8862L151.248 86.2362L152.628 87.6838ZM160.344 80.3282C161.338 79.3656 162.119 78.4522 162.657 77.589C163.191 76.7326 163.528 75.8571 163.528 74.99H161.528C161.528 75.3429 161.386 75.8473 160.96 76.531C160.538 77.2078 159.879 77.9944 158.953 78.8918L160.344 80.3282ZM184.881 72.89L185.473 72.0843V72.0843L184.881 72.89ZM179.991 72.68L180.46 73.5632L180.47 73.5579L179.991 72.68ZM178.581 74.03L178.152 74.9334L179.012 75.3418L179.462 74.5022L178.581 74.03ZM175.041 72.35L174.152 71.891L173.678 72.8099L174.612 73.2534L175.041 72.35ZM177.921 69.5L178.395 70.3805L178.405 70.3748L177.921 69.5ZM187.761 70.19L187.132 70.9677L187.133 70.9687L187.761 70.19ZM187.671 78.98L187.052 78.194L185.951 79.0605L187.129 79.8203L187.671 78.98ZM188.181 88.49L187.555 87.7101L188.181 88.49ZM177.621 89.03L177.089 89.8767L177.097 89.8821L177.621 89.03ZM174.771 85.61L174.439 84.6667L173.491 85.0003L173.829 85.9463L174.771 85.61ZM178.521 84.29L179.472 83.9822L179.156 83.0061L178.189 83.3467L178.521 84.29ZM179.931 85.97L179.409 86.8233L179.418 86.8286L179.427 86.8338L179.931 85.97ZM185.301 85.79L185.88 86.6052L185.887 86.6002L185.894 86.5951L185.301 85.79ZM185.301 81.71L184.711 82.5178L184.724 82.5267L184.736 82.5353L185.301 81.71ZM180.981 80.9H179.981V81.9H180.981V80.9ZM180.981 77.39V76.39H179.981V77.39H180.981ZM186.901 74.72C186.901 73.6244 186.359 72.7359 185.473 72.0843L184.288 73.6956C184.762 74.0441 184.901 74.3756 184.901 74.72H186.901ZM185.473 72.0843C184.582 71.4289 183.489 71.14 182.271 71.14V73.14C183.173 73.14 183.82 73.3511 184.288 73.6956L185.473 72.0843ZM182.271 71.14C181.268 71.14 180.339 71.3511 179.512 71.8021L180.47 73.5579C180.963 73.2889 181.554 73.14 182.271 73.14V71.14ZM179.522 71.7969C178.732 72.2164 178.106 72.7992 177.699 73.5578L179.462 74.5022C179.656 74.1408 179.97 73.8236 180.46 73.5631L179.522 71.7969ZM179.01 73.1266L175.47 71.4466L174.612 73.2534L178.152 74.9334L179.01 73.1266ZM175.929 72.809C176.448 71.8047 177.255 70.9942 178.395 70.3805L177.447 68.6195C175.987 69.4057 174.873 70.4953 174.152 71.891L175.929 72.809ZM178.405 70.3748C179.544 69.7442 180.835 69.42 182.301 69.42V67.42C180.527 67.42 178.898 67.8158 177.436 68.6252L178.405 70.3748ZM182.301 69.42C184.291 69.42 185.878 69.9541 187.132 70.9677L188.389 69.4123C186.724 68.0659 184.671 67.42 182.301 67.42V69.42ZM187.133 70.9687C188.348 71.9474 188.921 73.1359 188.921 74.6H190.921C190.921 72.5041 190.053 70.7525 188.388 69.4112L187.133 70.9687ZM188.921 74.6C188.921 76.0009 188.338 77.1826 187.052 78.194L188.289 79.7659C190.003 78.4174 190.921 76.6791 190.921 74.6H188.921ZM187.129 79.8203C188.729 80.8525 189.461 82.1789 189.461 83.87H191.461C191.461 81.4411 190.333 79.5075 188.213 78.1397L187.129 79.8203ZM189.461 83.87C189.461 85.4104 188.851 86.6694 187.555 87.7101L188.807 89.2699C190.55 87.8706 191.461 86.0496 191.461 83.87H189.461ZM187.555 87.7101C186.24 88.7655 184.581 89.32 182.511 89.32V91.32C184.96 91.32 187.082 90.6545 188.807 89.2699L187.555 87.7101ZM182.511 89.32C180.811 89.32 179.367 88.9289 178.144 88.1779L177.097 89.8821C178.675 90.8511 180.491 91.32 182.511 91.32V89.32ZM178.153 88.1834C176.92 87.4085 176.129 86.4386 175.713 85.2737L173.829 85.9463C174.413 87.5814 175.521 88.8915 177.089 89.8766L178.153 88.1834ZM175.103 86.5533L178.853 85.2333L178.189 83.3467L174.439 84.6667L175.103 86.5533ZM177.569 84.5978C177.876 85.5449 178.524 86.2823 179.409 86.8233L180.452 85.1167C179.897 84.7776 179.606 84.3951 179.472 83.9822L177.569 84.5978ZM179.427 86.8338C180.325 87.3576 181.355 87.6 182.481 87.6V85.6C181.646 85.6 180.977 85.4224 180.435 85.1062L179.427 86.8338ZM182.481 87.6C183.766 87.6 184.919 87.288 185.88 86.6052L184.722 84.9748C184.163 85.372 183.436 85.6 182.481 85.6V87.6ZM185.894 86.5951C186.873 85.8734 187.441 84.8905 187.441 83.69H185.441C185.441 84.1695 185.248 84.5866 184.708 84.9849L185.894 86.5951ZM187.441 83.69C187.441 82.5061 186.85 81.5585 185.865 80.8847L184.736 82.5353C185.271 82.9015 185.441 83.2739 185.441 83.69H187.441ZM185.89 80.9022C184.95 80.2161 183.824 79.9 182.571 79.9V81.9C183.478 81.9 184.172 82.1239 184.711 82.5178L185.89 80.9022ZM182.571 79.9H180.981V81.9H182.571V79.9ZM181.981 80.9V77.39H179.981V80.9H181.981ZM180.981 78.39H182.061V76.39H180.981V78.39ZM182.061 78.39C183.298 78.39 184.413 78.1019 185.351 77.4686L184.231 75.8114C183.688 76.1781 182.984 76.39 182.061 76.39V78.39ZM185.351 77.4686C186.319 76.814 186.901 75.8845 186.901 74.72H184.901C184.901 75.1155 184.742 75.466 184.231 75.8114L185.351 77.4686ZM209.539 89.87H208.539V90.87H209.539V89.87ZM209.539 85.85H210.539V84.85H209.539V85.85ZM198.649 85.85H197.649V86.85H198.649V85.85ZM198.649 82.13L197.881 81.4891L197.649 81.7674V82.13H198.649ZM209.719 68.87V67.87H209.251L208.951 68.2291L209.719 68.87ZM213.409 68.87H214.409V67.87H213.409V68.87ZM213.409 82.13H212.409V83.13H213.409V82.13ZM216.079 82.13H217.079V81.13H216.079V82.13ZM216.079 85.85V86.85H217.079V85.85H216.079ZM213.409 85.85V84.85H212.409V85.85H213.409ZM213.409 89.87V90.87H214.409V89.87H213.409ZM209.539 74.66H210.539V71.903L208.771 74.0189L209.539 74.66ZM203.299 82.13L202.531 81.4889L201.161 83.13H203.299V82.13ZM209.539 82.13V83.13H210.539V82.13H209.539ZM210.539 89.87V85.85H208.539V89.87H210.539ZM209.539 84.85H198.649V86.85H209.539V84.85ZM199.649 85.85V82.13H197.649V85.85H199.649ZM199.417 82.7709L210.487 69.5109L208.951 68.2291L197.881 81.4891L199.417 82.7709ZM209.719 69.87H213.409V67.87H209.719V69.87ZM212.409 68.87V82.13H214.409V68.87H212.409ZM213.409 83.13H216.079V81.13H213.409V83.13ZM215.079 82.13V85.85H217.079V82.13H215.079ZM216.079 84.85H213.409V86.85H216.079V84.85ZM212.409 85.85V89.87H214.409V85.85H212.409ZM213.409 88.87H209.539V90.87H213.409V88.87ZM208.771 74.0189L202.531 81.4889L204.066 82.7711L210.306 75.3011L208.771 74.0189ZM203.299 83.13H209.539V81.13H203.299V83.13ZM210.539 82.13V74.66H208.539V82.13H210.539ZM237.546 88.28L238.208 89.0296L238.213 89.0247L237.546 88.28ZM226.956 88.88L226.382 89.6993L226.39 89.7047L226.956 88.88ZM223.956 84.95L223.694 83.9849L222.642 84.2702L223.016 85.2936L223.956 84.95ZM227.826 83.9L228.752 83.5248L228.42 82.7026L227.564 82.9349L227.826 83.9ZM229.416 85.88L228.861 86.712L229.416 85.88ZM234.666 85.61L234.02 84.8466L234.01 84.855L234 84.8637L234.666 85.61ZM234.546 80.6L233.907 81.3698L233.916 81.3772L233.925 81.3844L234.546 80.6ZM225.546 79.58L224.551 79.4797L224.44 80.58H225.546V79.58ZM226.626 68.87V67.87H225.721L225.631 68.7697L226.626 68.87ZM238.056 68.87H239.056V67.87H238.056V68.87ZM238.056 72.44V73.44H239.056V72.44H238.056ZM229.836 72.44V71.44H228.923L228.84 72.3487L229.836 72.44ZM229.506 76.04L228.51 75.9487L228.41 77.04H229.506V76.04ZM237.486 78.08L236.833 78.8379L236.839 78.8426L237.486 78.08ZM238.856 83.18C238.856 84.9082 238.212 86.3398 236.878 87.5353L238.213 89.0247C239.959 87.4602 240.856 85.4918 240.856 83.18H238.856ZM236.884 87.5304C235.547 88.711 233.881 89.32 231.816 89.32V91.32C234.311 91.32 236.464 90.569 238.207 89.0295L236.884 87.5304ZM231.816 89.32C230.16 89.32 228.741 88.8914 227.521 88.0553L226.39 89.7047C227.971 90.7885 229.791 91.32 231.816 91.32V89.32ZM227.529 88.0608C226.301 87.2009 225.426 86.0587 224.895 84.6064L223.016 85.2936C223.685 87.1213 224.811 88.5991 226.382 89.6992L227.529 88.0608ZM224.217 85.9151L228.087 84.8651L227.564 82.9349L223.694 83.9849L224.217 85.9151ZM226.899 84.2752C227.31 85.2921 227.966 86.1152 228.861 86.712L229.97 85.0479C229.426 84.6848 229.021 84.1879 228.752 83.5248L226.899 84.2752ZM228.861 86.712C229.752 87.3061 230.756 87.6 231.846 87.6V85.6C231.135 85.6 230.519 85.4139 229.97 85.0479L228.861 86.712ZM231.846 87.6C233.192 87.6 234.381 87.204 235.331 86.3563L234 84.8637C233.47 85.336 232.779 85.6 231.846 85.6V87.6ZM235.311 86.3734C236.3 85.5373 236.836 84.4551 236.836 83.18H234.836C234.836 83.8249 234.592 84.3627 234.02 84.8466L235.311 86.3734ZM236.836 83.18C236.836 81.8155 236.251 80.6733 235.166 79.8156L233.925 81.3844C234.56 81.8866 234.836 82.4644 234.836 83.18H236.836ZM235.184 79.8302C234.15 78.9729 232.86 78.58 231.396 78.58V80.58C232.491 80.58 233.301 80.8671 233.907 81.3698L235.184 79.8302ZM231.396 78.58H225.546V80.58H231.396V78.58ZM226.541 79.6803L227.62 68.9703L225.631 68.7697L224.551 79.4797L226.541 79.6803ZM226.626 69.87H238.056V67.87H226.626V69.87ZM237.056 68.87V72.44H239.056V68.87H237.056ZM238.056 71.44H229.836V73.44H238.056V71.44ZM228.84 72.3487L228.51 75.9487L230.501 76.1313L230.831 72.5313L228.84 72.3487ZM229.506 77.04H231.606V75.04H229.506V77.04ZM231.606 77.04C233.737 77.04 235.457 77.6534 236.833 78.8379L238.138 77.3221C236.354 75.7866 234.154 75.04 231.606 75.04V77.04ZM236.839 78.8426C238.196 79.9939 238.856 81.4157 238.856 83.18H240.856C240.856 80.8243 239.935 78.8461 238.132 77.3173L236.839 78.8426Z" fill="black"/>
<circle cx="49.653" cy="43.1868" r="2.82092" fill="#31D67B"/>
<circle cx="60.9381" cy="43.1868" r="2.82092" fill="#31D67B"/>
<circle cx="72.2194" cy="43.1868" r="2.82092" fill="#31D67B"/>
<circle cx="83.5045" cy="43.1868" r="2.82092" fill="#31D67B"/>
<circle cx="49.653" cy="54.4705" r="2.82092" fill="#31D67B"/>
<circle cx="60.9381" cy="54.4705" r="2.82092" fill="#31D67B"/>
<circle cx="72.2194" cy="54.4705" r="2.82092" fill="#31D67B"/>
<circle cx="83.5045" cy="54.4705" r="2.82092" fill="#31D67B"/>
<circle cx="83.5045" cy="65.7542" r="2.82092" fill="#31D67B"/>
<circle cx="72.2194" cy="65.7542" r="2.82092" fill="#31D67B"/>
<circle cx="60.9381" cy="65.7542" r="2.82092" fill="#31D67B"/>
<circle cx="49.653" cy="65.7542" r="2.82092" fill="#31D67B"/>
<circle cx="49.653" cy="65.396" r="2.82092" fill="#31D67B"/>
<circle cx="60.9381" cy="65.396" r="2.82092" fill="#31D67B"/>
<circle cx="72.2194" cy="65.396" r="2.82092" fill="#31D67B"/>
<circle cx="83.5045" cy="65.396" r="2.82092" fill="#31D67B"/>
<circle cx="49.653" cy="76.6797" r="2.82092" fill="#31D67B"/>
<circle cx="60.9381" cy="76.6797" r="2.82092" fill="#31D67B"/>
<circle cx="72.2194" cy="76.6797" r="2.82092" fill="#31D67B"/>
<circle cx="83.5045" cy="76.6797" r="2.82092" fill="#31D67B"/>
<circle cx="83.5045" cy="87.9634" r="2.82092" fill="#31D67B"/>
<circle cx="72.2194" cy="87.9634" r="2.82092" fill="#31D67B"/>
<circle cx="60.9381" cy="87.9634" r="2.82092" fill="#31D67B"/>
<circle cx="49.653" cy="87.9634" r="2.82092" fill="#31D67B"/>
<circle cx="49.653" cy="87.6052" r="2.82092" fill="#31D67B"/>
<circle cx="60.9381" cy="87.6052" r="2.82092" fill="#31D67B"/>
<circle cx="72.2194" cy="87.6052" r="2.82092" fill="#31D67B"/>
<circle cx="83.5045" cy="87.6052" r="2.82092" fill="#31D67B"/>
<circle cx="49.653" cy="98.8889" r="2.82092" fill="#31D67B"/>
<circle cx="60.9381" cy="98.8889" r="2.82092" fill="#31D67B"/>
<circle cx="72.2194" cy="98.8889" r="2.82092" fill="#31D67B"/>
<circle cx="83.5045" cy="98.8889" r="2.82092" fill="#31D67B"/>
<circle cx="83.5045" cy="110.173" r="2.82092" fill="#31D67B"/>
<circle cx="72.2194" cy="110.173" r="2.82092" fill="#31D67B"/>
<circle cx="60.9381" cy="110.173" r="2.82092" fill="#31D67B"/>
<circle cx="49.653" cy="110.173" r="2.82092" fill="#31D67B"/>
<circle cx="49.653" cy="109.814" r="2.82092" fill="#31D67B"/>
<circle cx="60.9381" cy="109.814" r="2.82092" fill="#31D67B"/>
<circle cx="72.2194" cy="109.814" r="2.82092" fill="#31D67B"/>
<circle cx="83.5045" cy="109.814" r="2.82092" fill="#31D67B"/>
<circle cx="49.653" cy="121.098" r="2.82092" fill="#31D67B"/>
<circle cx="60.9381" cy="121.098" r="2.82092" fill="#31D67B"/>
<circle cx="72.2194" cy="121.098" r="2.82092" fill="#31D67B"/>
<circle cx="83.5045" cy="121.098" r="2.82092" fill="#31D67B"/>
<circle cx="83.5045" cy="132.382" r="2.82092" fill="#31D67B"/>
<circle cx="72.2194" cy="132.382" r="2.82092" fill="#31D67B"/>
<circle cx="60.9381" cy="132.382" r="2.82092" fill="#31D67B"/>
<circle cx="49.653" cy="132.382" r="2.82092" fill="#31D67B"/>
<path d="M199.336 135.203C199.336 138.343 200.583 141.354 202.803 143.575C205.024 145.795 208.035 147.043 211.176 147.043C214.316 147.043 217.327 145.795 219.548 143.575C221.768 141.354 223.016 138.343 223.016 135.203L211.176 135.203H199.336Z" fill="#D4D4D4"/>
<path d="M216.812 135.203C216.812 137.296 217.614 139.304 219.042 140.784C220.469 142.264 222.405 143.096 224.424 143.096C226.442 143.096 228.378 142.264 229.806 140.784C231.233 139.304 232.035 137.296 232.035 135.203L224.424 135.203H216.812Z" fill="#D4D4D4"/>
<path d="M182.984 135.203C182.984 137.296 184.142 139.304 186.204 140.784C188.266 142.264 191.062 143.096 193.978 143.096C196.894 143.096 199.691 142.264 201.752 140.784C203.814 139.304 204.973 137.296 204.973 135.203L193.978 135.203H182.984Z" fill="#D4D4D4"/>
<rect x="-0.5" y="0.5" width="37" height="72" transform="matrix(-1 0 0 1 70.4727 48.6425)" stroke="black"/>
</svg>
