<svg width="342" height="180" viewBox="0 0 342 180" fill="none" xmlns="http://www.w3.org/2000/svg">
<rect width="341" height="180" transform="translate(0.464844)" fill="#F5F5F5"/>
<rect x="206.121" y="65.1641" width="84" height="84" fill="#31D67B"/>
<path d="M216.121 85.1641L216.121 90.1641" stroke="black"/>
<rect x="213.621" y="83.6641" width="68" height="8" stroke="black"/>
<rect x="213.621" y="102.664" width="68" height="8" stroke="black"/>
<rect x="213.621" y="121.664" width="68" height="8" stroke="black"/>
<path d="M262.121 51.8359C262.121 46.2664 259.909 40.925 255.97 36.9867C252.032 33.0484 246.691 30.8359 241.121 30.8359C235.552 30.8359 230.21 33.0484 226.272 36.9867C222.334 40.925 220.121 46.2664 220.121 51.8359L241.121 51.8359H262.121Z" fill="#8052E4"/>
<path d="M231.121 51.8359C231.121 48.1229 229.699 44.562 227.167 41.9364C224.635 39.3109 221.202 37.8359 217.621 37.8359C214.041 37.8359 210.607 39.3109 208.075 41.9364C205.543 44.562 204.121 48.1229 204.121 51.8359L217.621 51.8359H231.121Z" fill="#8052E4"/>
<path d="M291.121 51.8359C291.121 48.1229 289.067 44.562 285.41 41.9364C281.753 39.3109 276.793 37.8359 271.621 37.8359C266.449 37.8359 261.489 39.3109 257.833 41.9364C254.176 44.562 252.121 48.1229 252.121 51.8359L271.621 51.8359H291.121Z" fill="#8052E4"/>
<path d="M52.0986 92.5541V85.7741C52.0986 83.6141 52.8686 81.8141 54.4086 80.3741C55.9686 78.9341 57.9086 78.2141 60.2286 78.2141C62.5486 78.2141 64.4786 78.9341 66.0186 80.3741C67.5786 81.8141 68.3586 83.6141 68.3586 85.7741V92.5541C68.3586 94.7141 67.5786 96.5141 66.0186 97.9541C64.4786 99.3941 62.5486 100.114 60.2286 100.114C57.9086 100.114 55.9686 99.3941 54.4086 97.9541C52.8686 96.5141 52.0986 94.7141 52.0986 92.5541ZM55.9986 85.7141V92.6141C55.9986 93.6741 56.3986 94.5741 57.1986 95.3141C58.0186 96.0341 59.0286 96.3941 60.2286 96.3941C61.4286 96.3941 62.4386 96.0341 63.2586 95.3141C64.0786 94.5541 64.4886 93.6541 64.4886 92.6141V85.7141C64.4886 84.6541 64.0786 83.7641 63.2586 83.0441C62.4586 82.3041 61.4486 81.9341 60.2286 81.9341C59.0086 81.9341 57.9986 82.3041 57.1986 83.0441C56.3986 83.7641 55.9986 84.6541 55.9986 85.7141ZM82.2165 83.4341L78.5865 85.2341L76.9665 81.8141L83.3265 78.6641H86.1165V99.6641H82.2165V83.4341ZM107.208 84.7841C107.208 84.0041 106.868 83.3341 106.188 82.7741C105.548 82.2141 104.758 81.9341 103.818 81.9341C102.918 81.9341 102.108 82.2141 101.388 82.7741C100.688 83.3141 100.158 84.0541 99.7981 84.9941L96.1981 83.2841C96.8781 81.7241 97.8981 80.4941 99.2581 79.5941C100.618 78.6741 102.138 78.2141 103.818 78.2141C105.918 78.2141 107.668 78.8441 109.068 80.1041C110.508 81.3641 111.228 82.8841 111.228 84.6641C111.228 85.7441 110.868 86.8741 110.148 88.0541C109.428 89.2141 108.288 90.5441 106.728 92.0441L102.618 95.9441H111.408V99.6641H96.6181V96.7541L104.328 89.4041C106.248 87.5441 107.208 86.0041 107.208 84.7841ZM130.58 84.5141C130.58 83.7941 130.24 83.1841 129.56 82.6841C128.88 82.1841 128.01 81.9341 126.95 81.9341C126.09 81.9341 125.33 82.1141 124.67 82.4741C124.03 82.8141 123.56 83.2641 123.26 83.8241L119.72 82.1441C120.34 80.9441 121.3 79.9941 122.6 79.2941C123.9 78.5741 125.36 78.2141 126.98 78.2141C129.16 78.2141 130.98 78.8041 132.44 79.9841C133.88 81.1441 134.6 82.6141 134.6 84.3941C134.6 86.1341 133.85 87.5941 132.35 88.7741C134.21 89.9741 135.14 91.6041 135.14 93.6641C135.14 95.5241 134.38 97.0641 132.86 98.2841C131.34 99.5041 129.45 100.114 127.19 100.114C125.33 100.114 123.7 99.6841 122.3 98.8241C120.9 97.9441 119.95 96.8041 119.45 95.4041L123.2 94.0841C123.42 94.7641 123.89 95.3241 124.61 95.7641C125.33 96.1841 126.18 96.3941 127.16 96.3941C128.28 96.3941 129.22 96.1241 129.98 95.5841C130.74 95.0241 131.12 94.3241 131.12 93.4841C131.12 92.6841 130.74 92.0241 129.98 91.5041C129.24 90.9641 128.33 90.6941 127.25 90.6941H125.66V87.1841H126.74C127.82 87.1841 128.73 86.9341 129.47 86.4341C130.21 85.9341 130.58 85.2941 130.58 84.5141ZM154.219 99.6641V95.6441H143.329V91.9241L154.399 78.6641H158.089V91.9241H160.759V95.6441H158.089V99.6641H154.219ZM154.219 84.4541L147.979 91.9241H154.219V84.4541ZM184.535 92.9741C184.535 94.9941 183.765 96.6941 182.225 98.0741C180.685 99.4341 178.775 100.114 176.495 100.114C174.655 100.114 173.035 99.6341 171.635 98.6741C170.235 97.6941 169.235 96.3841 168.635 94.7441L172.505 93.6941C172.845 94.5341 173.375 95.1941 174.095 95.6741C174.815 96.1541 175.625 96.3941 176.525 96.3941C177.665 96.3941 178.605 96.0641 179.345 95.4041C180.125 94.7441 180.515 93.9341 180.515 92.9741C180.515 91.9341 180.085 91.0741 179.225 90.3941C178.405 89.7141 177.355 89.3741 176.075 89.3741H170.225L171.305 78.6641H182.735V82.2341H174.515L174.185 85.8341H176.285C178.625 85.8341 180.585 86.5141 182.165 87.8741C183.745 89.2141 184.535 90.9141 184.535 92.9741Z" fill="#AB85FF"/>
<path d="M54.4086 80.3741L53.7303 79.6392L53.7256 79.6436L54.4086 80.3741ZM66.0186 80.3741L65.3356 81.1045L65.3403 81.1089L66.0186 80.3741ZM66.0186 97.9541L65.3403 97.2192L65.3356 97.2236L66.0186 97.9541ZM54.4086 97.9541L53.7256 98.6845L53.7303 98.6889L54.4086 97.9541ZM57.1986 95.3141L56.5196 96.0482L56.5291 96.057L56.5388 96.0655L57.1986 95.3141ZM63.2586 95.3141L63.9184 96.0655L63.9285 96.0566L63.9384 96.0475L63.2586 95.3141ZM63.2586 83.0441L62.5796 83.7782L62.5891 83.787L62.5988 83.7955L63.2586 83.0441ZM57.1986 83.0441L57.8676 83.7874L57.8776 83.7782L57.1986 83.0441ZM53.0986 92.5541V85.7741H51.0986V92.5541H53.0986ZM53.0986 85.7741C53.0986 83.8832 53.7594 82.3502 55.0916 81.1045L53.7256 79.6436C51.9778 81.2779 51.0986 83.3449 51.0986 85.7741H53.0986ZM55.0869 81.1089C56.4443 79.8558 58.1346 79.2141 60.2286 79.2141V77.2141C57.6826 77.2141 55.4929 78.0123 53.7303 79.6393L55.0869 81.1089ZM60.2286 79.2141C62.3227 79.2141 64.0001 79.8557 65.3356 81.1045L66.7016 79.6436C64.9571 78.0124 62.7745 77.2141 60.2286 77.2141V79.2141ZM65.3403 81.1089C66.6912 82.3558 67.3586 83.8876 67.3586 85.7741H69.3586C69.3586 83.3405 68.466 81.2723 66.6969 79.6393L65.3403 81.1089ZM67.3586 85.7741V92.5541H69.3586V85.7741H67.3586ZM67.3586 92.5541C67.3586 94.4405 66.6912 95.9723 65.3403 97.2193L66.6969 98.6889C68.466 97.0558 69.3586 94.9876 69.3586 92.5541H67.3586ZM65.3356 97.2236C64.0001 98.4724 62.3227 99.1141 60.2286 99.1141V101.114C62.7745 101.114 64.9571 100.316 66.7016 98.6845L65.3356 97.2236ZM60.2286 99.1141C58.1346 99.1141 56.4443 98.4723 55.0869 97.2193L53.7303 98.6889C55.4929 100.316 57.6826 101.114 60.2286 101.114V99.1141ZM55.0916 97.2236C53.7594 95.9779 53.0986 94.4449 53.0986 92.5541H51.0986C51.0986 94.9832 51.9778 97.0502 53.7256 98.6845L55.0916 97.2236ZM54.9986 85.7141V92.6141H56.9986V85.7141H54.9986ZM54.9986 92.6141C54.9986 93.9615 55.5214 95.1249 56.5196 96.0482L57.8776 94.58C57.2757 94.0232 56.9986 93.3866 56.9986 92.6141H54.9986ZM56.5388 96.0655C57.5599 96.9621 58.8119 97.3941 60.2286 97.3941V95.3941C59.2453 95.3941 58.4772 95.106 57.8584 94.5626L56.5388 96.0655ZM60.2286 97.3941C61.6453 97.3941 62.8972 96.9621 63.9184 96.0655L62.5988 94.5626C61.9799 95.106 61.2119 95.3941 60.2286 95.3941V97.3941ZM63.9384 96.0475C64.9454 95.1141 65.4886 93.955 65.4886 92.6141H63.4886C63.4886 93.3531 63.2118 93.994 62.5788 94.5806L63.9384 96.0475ZM65.4886 92.6141V85.7141H63.4886V92.6141H65.4886ZM65.4886 85.7141C65.4886 84.3567 64.9473 83.1961 63.9184 82.2926L62.5988 83.7955C63.2098 84.332 63.4886 84.9514 63.4886 85.7141H65.4886ZM63.9376 82.31C62.9303 81.3782 61.6678 80.9341 60.2286 80.9341V82.9341C61.2293 82.9341 61.9869 83.23 62.5796 83.7782L63.9376 82.31ZM60.2286 80.9341C58.7893 80.9341 57.5269 81.3782 56.5196 82.31L57.8776 83.7782C58.4703 83.23 59.2278 82.9341 60.2286 82.9341V80.9341ZM56.5296 82.3008C55.5226 83.2071 54.9986 84.3656 54.9986 85.7141H56.9986C56.9986 84.9425 57.2746 84.321 57.8676 83.7874L56.5296 82.3008ZM82.2165 83.4341H83.2165V81.822L81.7722 82.5382L82.2165 83.4341ZM78.5865 85.2341L77.6827 85.6621L78.1186 86.5823L79.0307 86.13L78.5865 85.2341ZM76.9665 81.8141L76.5227 80.9179L75.6421 81.3541L76.0627 82.2421L76.9665 81.8141ZM83.3265 78.6641V77.6641H83.0924L82.8827 77.7679L83.3265 78.6641ZM86.1165 78.6641H87.1165V77.6641H86.1165V78.6641ZM86.1165 99.6641V100.664H87.1165V99.6641H86.1165ZM82.2165 99.6641H81.2165V100.664H82.2165V99.6641ZM81.7722 82.5382L78.1422 84.3382L79.0307 86.13L82.6607 84.33L81.7722 82.5382ZM79.4902 84.806L77.8702 81.386L76.0627 82.2421L77.6827 85.6621L79.4902 84.806ZM77.4103 82.7102L83.7703 79.5602L82.8827 77.7679L76.5227 80.9179L77.4103 82.7102ZM83.3265 79.6641H86.1165V77.6641H83.3265V79.6641ZM85.1165 78.6641V99.6641H87.1165V78.6641H85.1165ZM86.1165 98.6641H82.2165V100.664H86.1165V98.6641ZM83.2165 99.6641V83.4341H81.2165V99.6641H83.2165ZM106.188 82.7741L105.53 83.5266L105.541 83.5365L105.552 83.546L106.188 82.7741ZM101.388 82.7741L101.999 83.5659L102.002 83.5634L101.388 82.7741ZM99.7981 84.9941L99.3691 85.8973L100.345 86.3611L100.732 85.3517L99.7981 84.9941ZM96.1981 83.2841L95.2814 82.8845L94.8946 83.772L95.7691 84.1873L96.1981 83.2841ZM99.2581 79.5941L99.81 80.428L99.8184 80.4223L99.2581 79.5941ZM109.068 80.1041L108.399 80.8474L108.41 80.8566L109.068 80.1041ZM110.148 88.0541L110.998 88.5814L111.002 88.5749L110.148 88.0541ZM106.728 92.0441L107.416 92.7695L107.421 92.7649L106.728 92.0441ZM102.618 95.9441L101.93 95.2187L100.111 96.9441H102.618V95.9441ZM111.408 95.9441H112.408V94.9441H111.408V95.9441ZM111.408 99.6641V100.664H112.408V99.6641H111.408ZM96.6181 99.6641H95.6181V100.664H96.6181V99.6641ZM96.6181 96.7541L95.9281 96.0303L95.6181 96.3258V96.7541H96.6181ZM104.328 89.4041L105.018 90.1279L105.024 90.1223L104.328 89.4041ZM108.208 84.7841C108.208 83.6643 107.701 82.7244 106.824 82.0021L105.552 83.546C106.035 83.9437 106.208 84.3438 106.208 84.7841H108.208ZM106.847 82.0215C106.005 81.2848 104.973 80.9341 103.818 80.9341V82.9341C104.543 82.9341 105.092 83.1433 105.53 83.5266L106.847 82.0215ZM103.818 80.9341C102.693 80.9341 101.667 81.2902 100.774 81.9847L102.002 83.5634C102.549 83.1379 103.144 82.9341 103.818 82.9341V80.9341ZM100.777 81.9823C99.9125 82.6495 99.2807 83.5491 98.8643 84.6364L100.732 85.3517C101.036 84.559 101.464 83.9787 101.999 83.5658L100.777 81.9823ZM100.227 84.0908L96.6272 82.3808L95.7691 84.1873L99.3691 85.8973L100.227 84.0908ZM97.1148 83.6836C97.7212 82.2925 98.6182 81.2167 99.81 80.428L98.7063 78.7601C97.1781 79.7714 96.035 81.1556 95.2814 82.8845L97.1148 83.6836ZM99.8184 80.4223C101.009 79.617 102.333 79.2141 103.818 79.2141V77.2141C101.943 77.2141 100.227 77.7311 98.6978 78.7658L99.8184 80.4223ZM103.818 79.2141C105.702 79.2141 107.204 79.772 108.399 80.8474L109.737 79.3608C108.132 77.9161 106.135 77.2141 103.818 77.2141V79.2141ZM108.41 80.8566C109.651 81.9428 110.228 83.196 110.228 84.6641H112.228C112.228 82.5721 111.365 80.7853 109.727 79.3515L108.41 80.8566ZM110.228 84.6641C110.228 85.5155 109.945 86.4668 109.294 87.5332L111.002 88.5749C111.791 87.2813 112.228 85.9727 112.228 84.6641H110.228ZM109.298 87.5267C108.64 88.5872 107.566 89.8515 106.035 91.3232L107.421 92.7649C109.011 91.2366 110.216 89.8409 110.998 88.5814L109.298 87.5267ZM106.04 91.3187L101.93 95.2187L103.306 96.6695L107.416 92.7695L106.04 91.3187ZM102.618 96.9441H111.408V94.9441H102.618V96.9441ZM110.408 95.9441V99.6641H112.408V95.9441H110.408ZM111.408 98.6641H96.6181V100.664H111.408V98.6641ZM97.6181 99.6641V96.7541H95.6181V99.6641H97.6181ZM97.3081 97.4779L105.018 90.1279L103.638 88.6803L95.9281 96.0303L97.3081 97.4779ZM105.024 90.1223C106.018 89.1597 106.799 88.2463 107.337 87.3831C107.871 86.5267 108.208 85.6511 108.208 84.7841H106.208C106.208 85.137 106.066 85.6414 105.64 86.3251C105.218 87.0018 104.559 87.7885 103.632 88.6858L105.024 90.1223ZM129.56 82.6841L130.153 81.8784V81.8784L129.56 82.6841ZM124.67 82.4741L125.14 83.3572L125.149 83.352L124.67 82.4741ZM123.26 83.8241L122.832 84.7275L123.692 85.1358L124.142 84.2963L123.26 83.8241ZM119.72 82.1441L118.832 81.685L118.357 82.604L119.292 83.0475L119.72 82.1441ZM122.6 79.2941L123.075 80.1746L123.085 80.1689L122.6 79.2941ZM132.44 79.9841L131.812 80.7618L131.813 80.7628L132.44 79.9841ZM132.35 88.7741L131.732 87.9881L130.631 88.8546L131.808 89.6144L132.35 88.7741ZM132.86 98.2841L132.235 97.5042L132.86 98.2841ZM122.3 98.8241L121.768 99.6707L121.777 99.6761L122.3 98.8241ZM119.45 95.4041L119.118 94.4608L118.171 94.7943L118.509 95.7404L119.45 95.4041ZM123.2 94.0841L124.152 93.7762L123.836 92.8002L122.868 93.1408L123.2 94.0841ZM124.61 95.7641L124.089 96.6173L124.098 96.6227L124.107 96.6278L124.61 95.7641ZM129.98 95.5841L130.56 96.3992L130.567 96.3942L130.574 96.3891L129.98 95.5841ZM129.98 91.5041L129.391 92.3119L129.403 92.3208L129.416 92.3294L129.98 91.5041ZM125.66 90.6941H124.66V91.6941H125.66V90.6941ZM125.66 87.1841V86.1841H124.66V87.1841H125.66ZM131.58 84.5141C131.58 83.4184 131.039 82.53 130.153 81.8784L128.968 83.4897C129.442 83.8382 129.58 84.1697 129.58 84.5141H131.58ZM130.153 81.8784C129.261 81.223 128.168 80.9341 126.95 80.9341V82.9341C127.852 82.9341 128.499 83.1451 128.968 83.4897L130.153 81.8784ZM126.95 80.9341C125.947 80.9341 125.018 81.1451 124.192 81.5962L125.149 83.352C125.642 83.083 126.233 82.9341 126.95 82.9341V80.9341ZM124.201 81.5909C123.412 82.0105 122.785 82.5933 122.379 83.3518L124.142 84.2963C124.336 83.9349 124.649 83.6176 125.14 83.3572L124.201 81.5909ZM123.689 82.9206L120.149 81.2406L119.292 83.0475L122.832 84.7275L123.689 82.9206ZM120.609 82.6031C121.128 81.5988 121.935 80.7883 123.075 80.1745L122.126 78.4136C120.666 79.1998 119.553 80.2893 118.832 81.685L120.609 82.6031ZM123.085 80.1689C124.224 79.5383 125.514 79.2141 126.98 79.2141V77.2141C125.207 77.2141 123.577 77.6099 122.116 78.4193L123.085 80.1689ZM126.98 79.2141C128.97 79.2141 130.558 79.7482 131.812 80.7618L133.069 79.2063C131.403 77.8599 129.351 77.2141 126.98 77.2141V79.2141ZM131.813 80.7628C133.028 81.7415 133.6 82.93 133.6 84.3941H135.6C135.6 82.2981 134.733 80.5466 133.068 79.2053L131.813 80.7628ZM133.6 84.3941C133.6 85.7949 133.018 86.9767 131.732 87.9881L132.969 89.56C134.683 88.2114 135.6 86.4732 135.6 84.3941H133.6ZM131.808 89.6144C133.408 90.6466 134.14 91.9729 134.14 93.6641H136.14C136.14 91.2352 135.013 89.3015 132.893 87.9338L131.808 89.6144ZM134.14 93.6641C134.14 95.2045 133.531 96.4635 132.235 97.5042L133.486 99.0639C135.23 97.6646 136.14 95.8437 136.14 93.6641H134.14ZM132.235 97.5042C130.92 98.5596 129.261 99.1141 127.19 99.1141V101.114C129.64 101.114 131.761 100.449 133.486 99.0639L132.235 97.5042ZM127.19 99.1141C125.49 99.1141 124.046 98.723 122.824 97.972L121.777 99.6761C123.355 100.645 125.171 101.114 127.19 101.114V99.1141ZM122.833 97.9774C121.6 97.2026 120.808 96.2327 120.392 95.0677L118.509 95.7404C119.093 97.3754 120.201 98.6855 121.768 99.6707L122.833 97.9774ZM119.783 96.3473L123.533 95.0273L122.868 93.1408L119.118 94.4608L119.783 96.3473ZM122.249 94.3919C122.555 95.339 123.204 96.0764 124.089 96.6173L125.132 94.9108C124.577 94.5717 124.285 94.1891 124.152 93.7762L122.249 94.3919ZM124.107 96.6278C125.005 97.1516 126.035 97.3941 127.16 97.3941V95.3941C126.326 95.3941 125.656 95.2165 125.114 94.9003L124.107 96.6278ZM127.16 97.3941C128.445 97.3941 129.599 97.082 130.56 96.3992L129.401 94.7689C128.842 95.1661 128.116 95.3941 127.16 95.3941V97.3941ZM130.574 96.3891C131.553 95.6675 132.12 94.6845 132.12 93.4841H130.12C130.12 93.9636 129.928 94.3806 129.387 94.779L130.574 96.3891ZM132.12 93.4841C132.12 92.3001 131.53 91.3525 130.545 90.6788L129.416 92.3294C129.951 92.6956 130.12 93.068 130.12 93.4841H132.12ZM130.57 90.6963C129.63 90.0101 128.503 89.6941 127.25 89.6941V91.6941C128.158 91.6941 128.851 91.918 129.391 92.3119L130.57 90.6963ZM127.25 89.6941H125.66V91.6941H127.25V89.6941ZM126.66 90.6941V87.1841H124.66V90.6941H126.66ZM125.66 88.1841H126.74V86.1841H125.66V88.1841ZM126.74 88.1841C127.978 88.1841 129.093 87.8959 130.03 87.2627L128.911 85.6055C128.368 85.9722 127.663 86.1841 126.74 86.1841V88.1841ZM130.03 87.2627C130.999 86.608 131.58 85.6786 131.58 84.5141H129.58C129.58 84.9096 129.422 85.2601 128.911 85.6055L130.03 87.2627ZM154.219 99.6641H153.219V100.664H154.219V99.6641ZM154.219 95.6441H155.219V94.6441H154.219V95.6441ZM143.329 95.6441H142.329V96.6441H143.329V95.6441ZM143.329 91.9241L142.561 91.2832L142.329 91.5615V91.9241H143.329ZM154.399 78.6641V77.6641H153.931L153.631 78.0232L154.399 78.6641ZM158.089 78.6641H159.089V77.6641H158.089V78.6641ZM158.089 91.9241H157.089V92.9241H158.089V91.9241ZM160.759 91.9241H161.759V90.9241H160.759V91.9241ZM160.759 95.6441V96.6441H161.759V95.6441H160.759ZM158.089 95.6441V94.6441H157.089V95.6441H158.089ZM158.089 99.6641V100.664H159.089V99.6641H158.089ZM154.219 84.4541H155.219V81.6971L153.451 83.813L154.219 84.4541ZM147.979 91.9241L147.211 91.283L145.84 92.9241H147.979V91.9241ZM154.219 91.9241V92.9241H155.219V91.9241H154.219ZM155.219 99.6641V95.6441H153.219V99.6641H155.219ZM154.219 94.6441H143.329V96.6441H154.219V94.6441ZM144.329 95.6441V91.9241H142.329V95.6441H144.329ZM144.096 92.5649L155.166 79.3049L153.631 78.0232L142.561 91.2832L144.096 92.5649ZM154.399 79.6641H158.089V77.6641H154.399V79.6641ZM157.089 78.6641V91.9241H159.089V78.6641H157.089ZM158.089 92.9241H160.759V90.9241H158.089V92.9241ZM159.759 91.9241V95.6441H161.759V91.9241H159.759ZM160.759 94.6441H158.089V96.6441H160.759V94.6441ZM157.089 95.6441V99.6641H159.089V95.6441H157.089ZM158.089 98.6641H154.219V100.664H158.089V98.6641ZM153.451 83.813L147.211 91.283L148.746 92.5652L154.986 85.0952L153.451 83.813ZM147.979 92.9241H154.219V90.9241H147.979V92.9241ZM155.219 91.9241V84.4541H153.219V91.9241H155.219ZM182.225 98.0741L182.887 98.8236L182.893 98.8188L182.225 98.0741ZM171.635 98.6741L171.062 99.4933L171.07 99.4988L171.635 98.6741ZM168.635 94.7441L168.373 93.779L167.322 94.0643L167.696 95.0876L168.635 94.7441ZM172.505 93.6941L173.432 93.3189L173.099 92.4967L172.243 92.729L172.505 93.6941ZM174.095 95.6741L173.541 96.5061L174.095 95.6741ZM179.345 95.4041L178.699 94.6407L178.689 94.6491L178.68 94.6578L179.345 95.4041ZM179.225 90.3941L178.587 91.1638L178.596 91.1713L178.605 91.1785L179.225 90.3941ZM170.225 89.3741L169.23 89.2737L169.119 90.3741H170.225V89.3741ZM171.305 78.6641V77.6641H170.401L170.31 78.5637L171.305 78.6641ZM182.735 78.6641H183.735V77.6641H182.735V78.6641ZM182.735 82.2341V83.2341H183.735V82.2341H182.735ZM174.515 82.2341V81.2341H173.603L173.519 82.1428L174.515 82.2341ZM174.185 85.8341L173.189 85.7428L173.089 86.8341H174.185V85.8341ZM182.165 87.8741L181.513 88.632L181.518 88.6367L182.165 87.8741ZM183.535 92.9741C183.535 94.7022 182.892 96.1339 181.558 97.3293L182.893 98.8188C184.639 97.2542 185.535 95.2859 185.535 92.9741H183.535ZM181.563 97.3245C180.227 98.505 178.56 99.1141 176.495 99.1141V101.114C178.99 101.114 181.144 100.363 182.887 98.8236L181.563 97.3245ZM176.495 99.1141C174.839 99.1141 173.42 98.6855 172.201 97.8493L171.07 99.4988C172.65 100.583 174.471 101.114 176.495 101.114V99.1141ZM172.209 97.8548C170.98 96.9949 170.106 95.8527 169.574 94.4005L167.696 95.0876C168.365 96.9154 169.49 98.3932 171.062 99.4933L172.209 97.8548ZM168.897 95.7092L172.767 94.6592L172.243 92.729L168.373 93.779L168.897 95.7092ZM171.578 94.0693C171.99 95.0862 172.645 95.9092 173.541 96.5061L174.65 94.842C174.105 94.4789 173.701 93.982 173.432 93.3189L171.578 94.0693ZM173.541 96.5061C174.432 97.1002 175.436 97.3941 176.525 97.3941V95.3941C175.814 95.3941 175.199 95.208 174.65 94.842L173.541 96.5061ZM176.525 97.3941C177.872 97.3941 179.06 96.9981 180.011 96.1504L178.68 94.6578C178.15 95.13 177.459 95.3941 176.525 95.3941V97.3941ZM179.991 96.1674C180.979 95.3314 181.515 94.2491 181.515 92.9741H179.515C179.515 93.619 179.271 94.1567 178.699 94.6407L179.991 96.1674ZM181.515 92.9741C181.515 91.6096 180.93 90.4674 179.845 89.6096L178.605 91.1785C179.24 91.6807 179.515 92.2585 179.515 92.9741H181.515ZM179.864 89.6243C178.83 88.767 177.539 88.3741 176.075 88.3741V90.3741C177.171 90.3741 177.981 90.6611 178.587 91.1638L179.864 89.6243ZM176.075 88.3741H170.225V90.3741H176.075V88.3741ZM171.22 89.4744L172.3 78.7644L170.31 78.5637L169.23 89.2737L171.22 89.4744ZM171.305 79.6641H182.735V77.6641H171.305V79.6641ZM181.735 78.6641V82.2341H183.735V78.6641H181.735ZM182.735 81.2341H174.515V83.2341H182.735V81.2341ZM173.519 82.1428L173.189 85.7428L175.181 85.9253L175.511 82.3253L173.519 82.1428ZM174.185 86.8341H176.285V84.8341H174.185V86.8341ZM176.285 86.8341C178.417 86.8341 180.137 87.4474 181.513 88.632L182.818 87.1162C181.034 85.5807 178.833 84.8341 176.285 84.8341V86.8341ZM181.518 88.6367C182.876 89.788 183.535 91.2097 183.535 92.9741H185.535C185.535 90.6184 184.615 88.6402 182.812 87.1114L181.518 88.6367Z" fill="black"/>
<path d="M206.121 124.599H167.589M167.589 124.599L168.644 125.109M167.589 124.599L168.644 124.09" stroke="black"/>
<path d="M206.121 116.135H152.281M152.281 116.135L153.756 116.663M152.281 116.135L153.756 115.607" stroke="black"/>
<path d="M206.121 133.026H181.84M181.84 133.026L182.506 133.554M181.84 133.026L182.506 132.498" stroke="black"/>
<path d="M206.121 107.69H188.702M188.702 107.69L189.179 108.218M188.702 107.69L189.179 107.162" stroke="black"/>
</svg>
