<svg width="342" height="180" viewBox="0 0 342 180" fill="none" xmlns="http://www.w3.org/2000/svg">
<rect width="341" height="180" transform="translate(0.464844)" fill="#F5F5F5"/>
<path d="M227.051 128.172L281.547 156.756V74.9678L227.051 48.3654L227.051 128.172Z" fill="#AB85FF"/>
<mask id="mask0" mask-type="alpha" maskUnits="userSpaceOnUse" x="227" y="48" width="55" height="109">
<path d="M227.051 128.172L281.547 156.756V74.9678L227.051 48.3654L227.051 128.172Z" fill="#AB85FF"/>
</mask>
<g mask="url(#mask0)">
<path d="M228.998 -18.4746C194.011 33.7053 194.011 70.9767 228.998 93.3396C263.985 115.702 263.985 152.974 228.998 205.154" stroke="#31D67B"/>
<path d="M296.001 -11.9374C243.373 28.0644 229.478 63.4043 254.314 94.0823C279.15 124.76 265.254 160.1 212.626 200.102" stroke="#31D67B"/>
<path d="M272.866 -16.2688C242.798 38.0926 246.234 75.2488 283.175 95.1997C320.115 115.151 323.551 152.307 293.483 206.668" stroke="#31D67B"/>
</g>
<path d="M120.591 124.308V117.528C120.591 115.368 121.361 113.568 122.901 112.128C124.461 110.688 126.401 109.968 128.721 109.968C131.041 109.968 132.971 110.688 134.511 112.128C136.071 113.568 136.851 115.368 136.851 117.528V124.308C136.851 126.468 136.071 128.268 134.511 129.708C132.971 131.148 131.041 131.868 128.721 131.868C126.401 131.868 124.461 131.148 122.901 129.708C121.361 128.268 120.591 126.468 120.591 124.308ZM124.491 117.468V124.368C124.491 125.428 124.891 126.328 125.691 127.068C126.511 127.788 127.521 128.148 128.721 128.148C129.921 128.148 130.931 127.788 131.751 127.068C132.571 126.308 132.981 125.408 132.981 124.368V117.468C132.981 116.408 132.571 115.518 131.751 114.798C130.951 114.058 129.941 113.688 128.721 113.688C127.501 113.688 126.491 114.058 125.691 114.798C124.891 115.518 124.491 116.408 124.491 117.468ZM150.709 115.188L147.079 116.988L145.459 113.568L151.819 110.418H154.609V131.418H150.709V115.188ZM175.7 116.538C175.7 115.758 175.36 115.088 174.68 114.528C174.04 113.968 173.25 113.688 172.31 113.688C171.41 113.688 170.6 113.968 169.88 114.528C169.18 115.068 168.65 115.808 168.29 116.748L164.69 115.038C165.37 113.478 166.39 112.248 167.75 111.348C169.11 110.428 170.63 109.968 172.31 109.968C174.41 109.968 176.16 110.598 177.56 111.858C179 113.118 179.72 114.638 179.72 116.418C179.72 117.498 179.36 118.628 178.64 119.808C177.92 120.968 176.78 122.298 175.22 123.798L171.11 127.698H179.9V131.418H165.11V128.508L172.82 121.158C174.74 119.298 175.7 117.758 175.7 116.538ZM199.073 116.268C199.073 115.548 198.733 114.938 198.053 114.438C197.373 113.938 196.503 113.688 195.443 113.688C194.583 113.688 193.823 113.868 193.163 114.228C192.523 114.568 192.053 115.018 191.753 115.578L188.213 113.898C188.833 112.698 189.793 111.748 191.093 111.048C192.393 110.328 193.853 109.968 195.473 109.968C197.653 109.968 199.473 110.558 200.933 111.738C202.373 112.898 203.093 114.368 203.093 116.148C203.093 117.888 202.343 119.348 200.843 120.528C202.703 121.728 203.633 123.358 203.633 125.418C203.633 127.278 202.873 128.818 201.353 130.038C199.833 131.258 197.943 131.868 195.683 131.868C193.823 131.868 192.193 131.438 190.793 130.578C189.393 129.698 188.443 128.558 187.943 127.158L191.693 125.838C191.913 126.518 192.383 127.078 193.103 127.518C193.823 127.938 194.673 128.148 195.653 128.148C196.773 128.148 197.713 127.878 198.473 127.338C199.233 126.778 199.613 126.078 199.613 125.238C199.613 124.438 199.233 123.778 198.473 123.258C197.733 122.718 196.823 122.448 195.743 122.448H194.153V118.938H195.233C196.313 118.938 197.223 118.688 197.963 118.188C198.703 117.688 199.073 117.048 199.073 116.268ZM222.711 131.418V127.398H211.821V123.678L222.891 110.418H226.581V123.678H229.251V127.398H226.581V131.418H222.711ZM222.711 116.208L216.471 123.678H222.711V116.208ZM253.027 124.728C253.027 126.748 252.257 128.448 250.717 129.828C249.177 131.188 247.267 131.868 244.987 131.868C243.147 131.868 241.527 131.388 240.127 130.428C238.727 129.448 237.727 128.138 237.127 126.498L240.997 125.448C241.337 126.288 241.867 126.948 242.587 127.428C243.307 127.908 244.117 128.148 245.017 128.148C246.157 128.148 247.097 127.818 247.837 127.158C248.617 126.498 249.007 125.688 249.007 124.728C249.007 123.688 248.577 122.828 247.717 122.148C246.897 121.468 245.847 121.128 244.567 121.128H238.717L239.797 110.418H251.227V113.988H243.007L242.677 117.588H244.777C247.117 117.588 249.077 118.268 250.657 119.628C252.237 120.968 253.027 122.668 253.027 124.728Z" fill="#AB85FF"/>
<path d="M122.901 112.128L122.222 111.393L122.218 111.398L122.901 112.128ZM134.511 112.128L133.828 112.858L133.833 112.863L134.511 112.128ZM134.511 129.708L133.832 128.973L133.828 128.978L134.511 129.708ZM122.901 129.708L122.218 130.438L122.223 130.443L122.901 129.708ZM125.691 127.068L125.012 127.802L125.021 127.811L125.031 127.819L125.691 127.068ZM131.751 127.068L132.411 127.819L132.421 127.811L132.431 127.801L131.751 127.068ZM131.751 114.798L131.072 115.532L131.081 115.541L131.091 115.549L131.751 114.798ZM125.691 114.798L126.36 115.541L126.37 115.532L125.691 114.798ZM121.591 124.308V117.528H119.591V124.308H121.591ZM121.591 117.528C121.591 115.637 122.252 114.104 123.584 112.858L122.218 111.398C120.47 113.032 119.591 115.099 119.591 117.528H121.591ZM123.579 112.863C124.937 111.61 126.627 110.968 128.721 110.968V108.968C126.175 108.968 123.985 109.766 122.223 111.393L123.579 112.863ZM128.721 110.968C130.815 110.968 132.492 111.61 133.828 112.858L135.194 111.398C133.449 109.766 131.267 108.968 128.721 108.968V110.968ZM133.833 112.863C135.183 114.11 135.851 115.642 135.851 117.528H137.851C137.851 115.094 136.958 113.026 135.189 111.393L133.833 112.863ZM135.851 117.528V124.308H137.851V117.528H135.851ZM135.851 124.308C135.851 126.194 135.183 127.726 133.833 128.973L135.189 130.443C136.958 128.81 137.851 126.742 137.851 124.308H135.851ZM133.828 128.978C132.492 130.226 130.815 130.868 128.721 130.868V132.868C131.267 132.868 133.449 132.07 135.194 130.438L133.828 128.978ZM128.721 130.868C126.627 130.868 124.937 130.226 123.579 128.973L122.223 130.443C123.985 132.07 126.175 132.868 128.721 132.868V130.868ZM123.584 128.978C122.252 127.732 121.591 126.199 121.591 124.308H119.591C119.591 126.737 120.47 128.804 122.218 130.438L123.584 128.978ZM123.491 117.468V124.368H125.491V117.468H123.491ZM123.491 124.368C123.491 125.715 124.014 126.879 125.012 127.802L126.37 126.334C125.768 125.777 125.491 125.14 125.491 124.368H123.491ZM125.031 127.819C126.052 128.716 127.304 129.148 128.721 129.148V127.148C127.738 127.148 126.969 126.86 126.351 126.317L125.031 127.819ZM128.721 129.148C130.138 129.148 131.389 128.716 132.411 127.819L131.091 126.317C130.472 126.86 129.704 127.148 128.721 127.148V129.148ZM132.431 127.801C133.438 126.868 133.981 125.709 133.981 124.368H131.981C131.981 125.107 131.704 125.748 131.071 126.335L132.431 127.801ZM133.981 124.368V117.468H131.981V124.368H133.981ZM133.981 117.468C133.981 116.111 133.44 114.95 132.411 114.047L131.091 115.549C131.702 116.086 131.981 116.705 131.981 117.468H133.981ZM132.43 114.064C131.422 113.132 130.16 112.688 128.721 112.688V114.688C129.722 114.688 130.479 114.984 131.072 115.532L132.43 114.064ZM128.721 112.688C127.282 112.688 126.019 113.132 125.012 114.064L126.37 115.532C126.962 114.984 127.72 114.688 128.721 114.688V112.688ZM125.022 114.055C124.015 114.961 123.491 116.12 123.491 117.468H125.491C125.491 116.696 125.767 116.075 126.36 115.541L125.022 114.055ZM150.709 115.188H151.709V113.576L150.264 114.292L150.709 115.188ZM147.079 116.988L146.175 117.416L146.611 118.336L147.523 117.884L147.079 116.988ZM145.459 113.568L145.015 112.672L144.134 113.108L144.555 113.996L145.459 113.568ZM151.819 110.418V109.418H151.585L151.375 109.522L151.819 110.418ZM154.609 110.418H155.609V109.418H154.609V110.418ZM154.609 131.418V132.418H155.609V131.418H154.609ZM150.709 131.418H149.709V132.418H150.709V131.418ZM150.264 114.292L146.634 116.092L147.523 117.884L151.153 116.084L150.264 114.292ZM147.982 116.56L146.362 113.14L144.555 113.996L146.175 117.416L147.982 116.56ZM145.903 114.464L152.263 111.314L151.375 109.522L145.015 112.672L145.903 114.464ZM151.819 111.418H154.609V109.418H151.819V111.418ZM153.609 110.418V131.418H155.609V110.418H153.609ZM154.609 130.418H150.709V132.418H154.609V130.418ZM151.709 131.418V115.188H149.709V131.418H151.709ZM174.68 114.528L174.022 115.281L174.033 115.29L174.045 115.3L174.68 114.528ZM169.88 114.528L170.491 115.32L170.494 115.317L169.88 114.528ZM168.29 116.748L167.861 117.651L168.838 118.115L169.224 117.106L168.29 116.748ZM164.69 115.038L163.774 114.638L163.387 115.526L164.261 115.941L164.69 115.038ZM167.75 111.348L168.302 112.182L168.311 112.176L167.75 111.348ZM177.56 111.858L176.891 112.601L176.902 112.611L177.56 111.858ZM178.64 119.808L179.49 120.335L179.494 120.329L178.64 119.808ZM175.22 123.798L175.909 124.523L175.913 124.519L175.22 123.798ZM171.11 127.698L170.422 126.973L168.604 128.698H171.11V127.698ZM179.9 127.698H180.9V126.698H179.9V127.698ZM179.9 131.418V132.418H180.9V131.418H179.9ZM165.11 131.418H164.11V132.418H165.11V131.418ZM165.11 128.508L164.42 127.784L164.11 128.08V128.508H165.11ZM172.82 121.158L173.51 121.882L173.516 121.876L172.82 121.158ZM176.7 116.538C176.7 115.418 176.193 114.478 175.316 113.756L174.045 115.3C174.528 115.698 174.7 116.098 174.7 116.538H176.7ZM175.339 113.775C174.497 113.039 173.465 112.688 172.31 112.688V114.688C173.036 114.688 173.584 114.897 174.022 115.281L175.339 113.775ZM172.31 112.688C171.185 112.688 170.159 113.044 169.266 113.739L170.494 115.317C171.041 114.892 171.636 114.688 172.31 114.688V112.688ZM169.27 113.736C168.405 114.403 167.773 115.303 167.356 116.39L169.224 117.106C169.528 116.313 169.956 115.733 170.491 115.32L169.27 113.736ZM168.719 115.845L165.119 114.135L164.261 115.941L167.861 117.651L168.719 115.845ZM165.607 115.438C166.213 114.046 167.11 112.971 168.302 112.182L167.198 110.514C165.67 111.525 164.527 112.91 163.774 114.638L165.607 115.438ZM168.311 112.176C169.501 111.371 170.825 110.968 172.31 110.968V108.968C170.436 108.968 168.719 109.485 167.19 110.52L168.311 112.176ZM172.31 110.968C174.194 110.968 175.697 111.526 176.891 112.601L178.229 111.115C176.624 109.67 174.627 108.968 172.31 108.968V110.968ZM176.902 112.611C178.143 113.697 178.72 114.95 178.72 116.418H180.72C180.72 114.326 179.857 112.539 178.219 111.105L176.902 112.611ZM178.72 116.418C178.72 117.269 178.437 118.221 177.787 119.287L179.494 120.329C180.283 119.035 180.72 117.727 180.72 116.418H178.72ZM177.791 119.281C177.132 120.341 176.058 121.605 174.527 123.077L175.913 124.519C177.503 122.99 178.708 121.595 179.49 120.335L177.791 119.281ZM174.532 123.073L170.422 126.973L171.799 128.423L175.909 124.523L174.532 123.073ZM171.11 128.698H179.9V126.698H171.11V128.698ZM178.9 127.698V131.418H180.9V127.698H178.9ZM179.9 130.418H165.11V132.418H179.9V130.418ZM166.11 131.418V128.508H164.11V131.418H166.11ZM165.8 129.232L173.51 121.882L172.13 120.434L164.42 127.784L165.8 129.232ZM173.516 121.876C174.51 120.914 175.291 120 175.829 119.137C176.363 118.281 176.7 117.405 176.7 116.538H174.7C174.7 116.891 174.558 117.395 174.132 118.079C173.71 118.756 173.051 119.542 172.125 120.44L173.516 121.876ZM198.053 114.438L198.645 113.632V113.632L198.053 114.438ZM193.163 114.228L193.632 115.111L193.642 115.106L193.163 114.228ZM191.753 115.578L191.324 116.481L192.184 116.89L192.634 116.05L191.753 115.578ZM188.213 113.898L187.324 113.439L186.849 114.358L187.784 114.801L188.213 113.898ZM191.093 111.048L191.567 111.929L191.577 111.923L191.093 111.048ZM200.933 111.738L200.304 112.516L200.305 112.517L200.933 111.738ZM200.843 120.528L200.224 119.742L199.123 120.609L200.301 121.368L200.843 120.528ZM201.353 130.038L200.727 129.258L201.353 130.038ZM190.793 130.578L190.26 131.425L190.269 131.43L190.793 130.578ZM187.943 127.158L187.611 126.215L186.663 126.548L187.001 127.494L187.943 127.158ZM191.693 125.838L192.644 125.53L192.328 124.554L191.361 124.895L191.693 125.838ZM193.103 127.518L192.581 128.371L192.59 128.377L192.599 128.382L193.103 127.518ZM198.473 127.338L199.052 128.153L199.059 128.148L199.066 128.143L198.473 127.338ZM198.473 123.258L197.883 124.066L197.895 124.075L197.908 124.083L198.473 123.258ZM194.153 122.448H193.153V123.448H194.153V122.448ZM194.153 118.938V117.938H193.153V118.938H194.153ZM200.073 116.268C200.073 115.172 199.531 114.284 198.645 113.632L197.46 115.244C197.934 115.592 198.073 115.924 198.073 116.268H200.073ZM198.645 113.632C197.754 112.977 196.661 112.688 195.443 112.688V114.688C196.345 114.688 196.992 114.899 197.46 115.244L198.645 113.632ZM195.443 112.688C194.44 112.688 193.511 112.899 192.684 113.35L193.642 115.106C194.135 114.837 194.726 114.688 195.443 114.688V112.688ZM192.694 113.345C191.904 113.764 191.278 114.347 190.871 115.106L192.634 116.05C192.828 115.689 193.142 115.372 193.632 115.111L192.694 113.345ZM192.181 114.675L188.641 112.995L187.784 114.801L191.324 116.481L192.181 114.675ZM189.101 114.357C189.62 113.353 190.427 112.542 191.567 111.928L190.619 110.167C189.158 110.954 188.045 112.043 187.324 113.439L189.101 114.357ZM191.577 111.923C192.716 111.292 194.006 110.968 195.473 110.968V108.968C193.699 108.968 192.07 109.364 190.608 110.173L191.577 111.923ZM195.473 110.968C197.463 110.968 199.05 111.502 200.304 112.516L201.561 110.96C199.895 109.614 197.843 108.968 195.473 108.968V110.968ZM200.305 112.517C201.52 113.495 202.093 114.684 202.093 116.148H204.093C204.093 114.052 203.225 112.301 201.56 110.959L200.305 112.517ZM202.093 116.148C202.093 117.549 201.51 118.731 200.224 119.742L201.461 121.314C203.175 119.965 204.093 118.227 204.093 116.148H202.093ZM200.301 121.368C201.901 122.401 202.633 123.727 202.633 125.418H204.633C204.633 122.989 203.505 121.055 201.385 119.688L200.301 121.368ZM202.633 125.418C202.633 126.958 202.023 128.217 200.727 129.258L201.979 130.818C203.722 129.419 204.633 127.598 204.633 125.418H202.633ZM200.727 129.258C199.412 130.313 197.753 130.868 195.683 130.868V132.868C198.132 132.868 200.254 132.202 201.979 130.818L200.727 129.258ZM195.683 130.868C193.982 130.868 192.539 130.477 191.316 129.726L190.269 131.43C191.847 132.399 193.663 132.868 195.683 132.868V130.868ZM191.325 129.731C190.092 128.956 189.3 127.987 188.884 126.822L187.001 127.494C187.585 129.129 188.693 130.439 190.26 131.425L191.325 129.731ZM188.275 128.101L192.025 126.781L191.361 124.895L187.611 126.215L188.275 128.101ZM190.741 126.146C191.048 127.093 191.696 127.83 192.581 128.371L193.624 126.665C193.069 126.326 192.778 125.943 192.644 125.53L190.741 126.146ZM192.599 128.382C193.497 128.906 194.527 129.148 195.653 129.148V127.148C194.818 127.148 194.149 126.97 193.607 126.654L192.599 128.382ZM195.653 129.148C196.938 129.148 198.091 128.836 199.052 128.153L197.893 126.523C197.334 126.92 196.608 127.148 195.653 127.148V129.148ZM199.066 128.143C200.045 127.421 200.613 126.438 200.613 125.238H198.613C198.613 125.718 198.42 126.135 197.879 126.533L199.066 128.143ZM200.613 125.238C200.613 124.054 200.022 123.106 199.037 122.433L197.908 124.083C198.443 124.45 198.613 124.822 198.613 125.238H200.613ZM199.062 122.45C198.122 121.764 196.995 121.448 195.743 121.448V123.448C196.65 123.448 197.343 123.672 197.883 124.066L199.062 122.45ZM195.743 121.448H194.153V123.448H195.743V121.448ZM195.153 122.448V118.938H193.153V122.448H195.153ZM194.153 119.938H195.233V117.938H194.153V119.938ZM195.233 119.938C196.47 119.938 197.585 119.65 198.523 119.017L197.403 117.359C196.86 117.726 196.155 117.938 195.233 117.938V119.938ZM198.523 119.017C199.491 118.362 200.073 117.432 200.073 116.268H198.073C198.073 116.663 197.914 117.014 197.403 117.359L198.523 119.017ZM222.711 131.418H221.711V132.418H222.711V131.418ZM222.711 127.398H223.711V126.398H222.711V127.398ZM211.821 127.398H210.821V128.398H211.821V127.398ZM211.821 123.678L211.053 123.037L210.821 123.315V123.678H211.821ZM222.891 110.418V109.418H222.423L222.123 109.777L222.891 110.418ZM226.581 110.418H227.581V109.418H226.581V110.418ZM226.581 123.678H225.581V124.678H226.581V123.678ZM229.251 123.678H230.251V122.678H229.251V123.678ZM229.251 127.398V128.398H230.251V127.398H229.251ZM226.581 127.398V126.398H225.581V127.398H226.581ZM226.581 131.418V132.418H227.581V131.418H226.581ZM222.711 116.208H223.711V113.451L221.943 115.567L222.711 116.208ZM216.471 123.678L215.703 123.037L214.332 124.678H216.471V123.678ZM222.711 123.678V124.678H223.711V123.678H222.711ZM223.711 131.418V127.398H221.711V131.418H223.711ZM222.711 126.398H211.821V128.398H222.711V126.398ZM212.821 127.398V123.678H210.821V127.398H212.821ZM212.588 124.319L223.658 111.059L222.123 109.777L211.053 123.037L212.588 124.319ZM222.891 111.418H226.581V109.418H222.891V111.418ZM225.581 110.418V123.678H227.581V110.418H225.581ZM226.581 124.678H229.251V122.678H226.581V124.678ZM228.251 123.678V127.398H230.251V123.678H228.251ZM229.251 126.398H226.581V128.398H229.251V126.398ZM225.581 127.398V131.418H227.581V127.398H225.581ZM226.581 130.418H222.711V132.418H226.581V130.418ZM221.943 115.567L215.703 123.037L217.238 124.319L223.478 116.849L221.943 115.567ZM216.471 124.678H222.711V122.678H216.471V124.678ZM223.711 123.678V116.208H221.711V123.678H223.711ZM250.717 129.828L251.379 130.578L251.385 130.573L250.717 129.828ZM240.127 130.428L239.554 131.247L239.562 131.253L240.127 130.428ZM237.127 126.498L236.866 125.533L235.814 125.818L236.188 126.842L237.127 126.498ZM240.997 125.448L241.924 125.073L241.592 124.251L240.736 124.483L240.997 125.448ZM242.587 127.428L242.033 128.26L242.587 127.428ZM247.837 127.158L247.191 126.395L247.182 126.403L247.172 126.412L247.837 127.158ZM247.717 122.148L247.079 122.918L247.088 122.925L247.097 122.932L247.717 122.148ZM238.717 121.128L237.722 121.028L237.612 122.128H238.717V121.128ZM239.797 110.418V109.418H238.893L238.802 110.318L239.797 110.418ZM251.227 110.418H252.227V109.418H251.227V110.418ZM251.227 113.988V114.988H252.227V113.988H251.227ZM243.007 113.988V112.988H242.095L242.012 113.897L243.007 113.988ZM242.677 117.588L241.682 117.497L241.582 118.588H242.677V117.588ZM250.657 119.628L250.005 120.386L250.011 120.391L250.657 119.628ZM252.027 124.728C252.027 126.456 251.384 127.888 250.05 129.083L251.385 130.573C253.131 129.008 254.027 127.04 254.027 124.728H252.027ZM250.055 129.078C248.719 130.259 247.052 130.868 244.987 130.868V132.868C247.482 132.868 249.636 132.117 251.379 130.578L250.055 129.078ZM244.987 130.868C243.332 130.868 241.912 130.439 240.693 129.603L239.562 131.253C241.142 132.337 242.963 132.868 244.987 132.868V130.868ZM240.701 129.609C239.472 128.749 238.598 127.607 238.067 126.154L236.188 126.842C236.857 128.669 237.982 130.147 239.554 131.247L240.701 129.609ZM237.389 127.463L241.259 126.413L240.736 124.483L236.866 125.533L237.389 127.463ZM240.07 125.823C240.482 126.84 241.137 127.663 242.033 128.26L243.142 126.596C242.597 126.233 242.193 125.736 241.924 125.073L240.07 125.823ZM242.033 128.26C242.924 128.854 243.928 129.148 245.017 129.148V127.148C244.306 127.148 243.691 126.962 243.142 126.596L242.033 128.26ZM245.017 129.148C246.364 129.148 247.553 128.752 248.503 127.904L247.172 126.412C246.642 126.884 245.951 127.148 245.017 127.148V129.148ZM248.483 127.921C249.471 127.085 250.007 126.003 250.007 124.728H248.007C248.007 125.373 247.763 125.911 247.191 126.395L248.483 127.921ZM250.007 124.728C250.007 123.364 249.422 122.221 248.338 121.364L247.097 122.932C247.732 123.435 248.007 124.012 248.007 124.728H250.007ZM248.356 121.378C247.322 120.521 246.032 120.128 244.567 120.128V122.128C245.663 122.128 246.473 122.415 247.079 122.918L248.356 121.378ZM244.567 120.128H238.717V122.128H244.567V120.128ZM239.712 121.228L240.792 110.518L238.802 110.318L237.722 121.028L239.712 121.228ZM239.797 111.418H251.227V109.418H239.797V111.418ZM250.227 110.418V113.988H252.227V110.418H250.227ZM251.227 112.988H243.007V114.988H251.227V112.988ZM242.012 113.897L241.682 117.497L243.673 117.679L244.003 114.079L242.012 113.897ZM242.677 118.588H244.777V116.588H242.677V118.588ZM244.777 118.588C246.909 118.588 248.629 119.201 250.005 120.386L251.31 118.87C249.526 117.335 247.326 116.588 244.777 116.588V118.588ZM250.011 120.391C251.368 121.542 252.027 122.964 252.027 124.728H254.027C254.027 122.372 253.107 120.394 251.304 118.865L250.011 120.391Z" fill="black"/>
<path d="M97.8477 57.1448L165.941 57.1448M165.941 57.1448L164.076 56.2446M165.941 57.1448L164.076 58.0449" stroke="black"/>
<path d="M97.8477 72.1024L192.992 72.1024M192.992 72.1024L190.386 71.1696M192.992 72.1024L190.386 73.0352" stroke="black"/>
<path d="M97.8477 42.2528L140.756 42.2528M140.756 42.2528L139.58 41.32M140.756 42.2528L139.58 43.1855" stroke="black"/>
<path d="M97.8477 87.0262H128.63M128.63 87.0262L127.786 86.0934M128.63 87.0262L127.786 87.959" stroke="black"/>
<path d="M105.711 118.544L40.6361 152.676L40.6361 55.0114L105.711 23.2451L105.711 118.544Z" fill="#4AE991"/>
<mask id="mask1" mask-type="alpha" maskUnits="userSpaceOnUse" x="40" y="23" width="66" height="130">
<path d="M105.711 118.544L40.6361 152.676L40.6361 55.0114L105.711 23.2451L105.711 118.544Z" fill="#4AE991"/>
</mask>
<g mask="url(#mask1)">
<path d="M103.385 -56.5703C145.163 5.73858 145.163 50.2449 103.385 76.9487C61.6069 103.653 61.6069 148.159 103.385 210.468" stroke="#A57CFE"/>
<path d="M23.3761 -48.7651C86.2198 -0.998411 102.813 41.2015 73.1559 77.8346C43.4988 114.468 60.0921 156.668 122.936 204.434" stroke="#A57CFE"/>
<path d="M51.0015 -53.9361C86.906 10.9778 82.8027 55.3465 38.6917 79.1702C-5.41924 102.994 -9.5225 147.363 26.382 212.276" stroke="#A57CFE"/>
</g>
<circle cx="264.622" cy="44.0846" r="2.82092" fill="#31D67B"/>
<circle cx="275.907" cy="44.0846" r="2.82092" fill="#31D67B"/>
<circle cx="287.188" cy="44.0846" r="2.82092" fill="#31D67B"/>
<circle cx="298.473" cy="44.0846" r="2.82092" fill="#31D67B"/>
<circle cx="264.622" cy="55.3678" r="2.82092" fill="#31D67B"/>
<circle cx="275.907" cy="55.3678" r="2.82092" fill="#31D67B"/>
<circle cx="287.188" cy="55.3678" r="2.82092" fill="#31D67B"/>
<circle cx="298.473" cy="55.3678" r="2.82092" fill="#31D67B"/>
<circle cx="298.473" cy="66.653" r="2.82092" fill="#31D67B"/>
<circle cx="287.188" cy="66.653" r="2.82092" fill="#31D67B"/>
<circle cx="275.907" cy="66.653" r="2.82092" fill="#31D67B"/>
<circle cx="264.622" cy="66.653" r="2.82092" fill="#31D67B"/>
<circle cx="264.622" cy="66.653" r="2.82092" fill="#31D67B"/>
<circle cx="275.907" cy="66.653" r="2.82092" fill="#31D67B"/>
<circle cx="287.188" cy="66.653" r="2.82092" fill="#31D67B"/>
<circle cx="298.473" cy="66.653" r="2.82092" fill="#31D67B"/>
<circle cx="264.622" cy="77.9362" r="2.82092" fill="#31D67B"/>
<circle cx="275.907" cy="77.9362" r="2.82092" fill="#31D67B"/>
<circle cx="287.188" cy="77.9362" r="2.82092" fill="#31D67B"/>
<circle cx="298.473" cy="77.9362" r="2.82092" fill="#31D67B"/>
<circle cx="298.473" cy="89.2213" r="2.82092" fill="#31D67B"/>
<circle cx="287.188" cy="89.2213" r="2.82092" fill="#31D67B"/>
<circle cx="275.907" cy="89.2213" r="2.82092" fill="#31D67B"/>
<circle cx="264.622" cy="89.2213" r="2.82092" fill="#31D67B"/>
</svg>
