<svg width="342" height="180" viewBox="0 0 342 180" fill="none" xmlns="http://www.w3.org/2000/svg">
<rect width="341" height="180" transform="translate(0.464844)" fill="#F5F5F5"/>
<path d="M69.0859 46.4785C55.5859 47.4785 29.7859 58.1785 28.5859 86.9785C28.5859 122.978 56.0859 132.478 69.5859 132.478C89.0859 132.478 170.086 132.479 216.086 132.479" stroke="black"/>
<path d="M68.8828 46.4785H96.6117" stroke="black"/>
<path d="M72.1986 132.479L72.1986 81.6648M72.1986 81.6648L71.6002 83.0569M72.1986 81.6648L72.7969 83.0569" stroke="black"/>
<path d="M82.1797 132.479L82.1797 93.4785M82.1797 93.4785L81.6797 94.547M82.1797 93.4785L82.6797 94.547" stroke="black"/>
<path d="M62.298 132.479L62.298 100.459M62.298 100.459L61.678 101.336M62.298 100.459L62.918 101.336" stroke="black"/>
<path d="M92.0597 132.479V109.508M92.0597 109.508L91.4397 110.137M92.0597 109.508L92.6797 110.137" stroke="black"/>
<path d="M162.404 86.4492L108.344 147.449H263.03L313.344 86.4492H162.404Z" fill="#A57CFE"/>
<mask id="mask0" mask-type="alpha" maskUnits="userSpaceOnUse" x="108" y="86" width="206" height="62">
<path d="M162.404 86.4492L108.344 147.449H263.03L313.344 86.4492H162.404Z" fill="#A57CFE"/>
</mask>
<g mask="url(#mask0)">
<path d="M439.758 88.6274C341.069 49.4653 270.577 49.4653 228.282 88.6274C185.987 127.79 115.496 127.79 16.807 88.6274" stroke="#4AE991" stroke-width="2"/>
<path d="M427.397 163.627C351.741 104.718 284.903 89.164 226.881 116.964C168.859 144.764 102.02 129.21 26.3646 70.3013" stroke="#4AE991" stroke-width="2"/>
<path d="M435.589 137.734C332.774 104.078 262.501 107.924 224.767 149.273C187.034 190.622 116.76 194.468 13.9456 160.812" stroke="#4AE991" stroke-width="2"/>
</g>
<circle r="3.10184" transform="matrix(-1 0 0 1 294.687 69.2581)" fill="#31D67B"/>
<circle r="3.10184" transform="matrix(-1 0 0 1 282.281 69.2581)" fill="#31D67B"/>
<circle r="3.10184" transform="matrix(-1 0 0 1 269.871 69.2581)" fill="#31D67B"/>
<circle r="3.10184" transform="matrix(-1 0 0 1 257.465 69.2581)" fill="#31D67B"/>
<circle r="3.10184" transform="matrix(-1 0 0 1 294.687 81.6663)" fill="#31D67B"/>
<circle r="3.10184" transform="matrix(-1 0 0 1 282.281 81.6663)" fill="#31D67B"/>
<circle r="3.10184" transform="matrix(-1 0 0 1 269.871 81.6663)" fill="#31D67B"/>
<circle r="3.10184" transform="matrix(-1 0 0 1 257.465 81.6663)" fill="#31D67B"/>
<circle r="3.10184" transform="matrix(-1 0 0 1 257.465 94.0725)" fill="#31D67B"/>
<circle r="3.10184" transform="matrix(-1 0 0 1 269.871 94.0725)" fill="#31D67B"/>
<circle r="3.10184" transform="matrix(-1 0 0 1 282.281 94.0725)" fill="#31D67B"/>
<circle r="3.10184" transform="matrix(-1 0 0 1 294.687 94.0725)" fill="#31D67B"/>
<rect x="101.258" y="30.1133" width="5.58242" height="42.0828" transform="rotate(22.7183 101.258 30.1133)" fill="#31D67B"/>
<rect x="111.223" y="25.4258" width="5.58242" height="42.0828" transform="rotate(22.7183 111.223 25.4258)" fill="#31D67B"/>
<rect x="122.324" y="17.6191" width="5.58242" height="42.0828" transform="rotate(22.7183 122.324 17.6191)" fill="#31D67B"/>
</svg>
