<svg width="341" height="180" viewBox="0 0 341 180" fill="none" xmlns="http://www.w3.org/2000/svg">
<rect width="341" height="180" transform="translate(0.40625 -0.5)" fill="#F5F5F5"/>
<path d="M214.406 38.5V135" stroke="black"/>
<path d="M218.406 38.5V135" stroke="black"/>
<path d="M222.406 38.5V135" stroke="black"/>
<path d="M226.406 38.5V135" stroke="black"/>
<path d="M230.406 38.5V135" stroke="black"/>
<path d="M234.406 38.5V135" stroke="black"/>
<path d="M238.406 38.5V135" stroke="black"/>
<path d="M242.406 38.5V135" stroke="black"/>
<path d="M210.406 38.5V135" stroke="black"/>
<path d="M95.9062 124.5C82.4062 123.5 56.6063 112.8 55.4062 84C55.4062 48 82.9062 38.5 96.4062 38.5C115.906 38.5 196.906 38.5 242.906 38.5" stroke="black"/>
<path d="M95.7031 124.5H167.907" stroke="black"/>
<path d="M140.406 35.5C140.406 31.2565 138.773 27.1869 135.866 24.1863C132.96 21.1857 129.017 19.5 124.906 19.5C120.795 19.5 116.853 21.1857 113.946 24.1863C111.039 27.1869 109.406 31.2565 109.406 35.5L124.906 35.5H140.406Z" fill="#8052E4"/>
<path d="M158.406 35.5C158.406 32.5826 157.037 29.7847 154.599 27.7218C152.161 25.6589 148.854 24.5 145.406 24.5C141.958 24.5 138.652 25.6589 136.214 27.7218C133.776 29.7847 132.406 32.5826 132.406 35.5L145.406 35.5H158.406Z" fill="#8052E4"/>
<path d="M117.406 35.5C117.406 33.6435 116.458 31.863 114.77 30.5503C113.082 29.2375 110.793 28.5 108.406 28.5C106.019 28.5 103.73 29.2375 102.042 30.5503C100.354 31.863 99.4063 33.6435 99.4063 35.5L108.406 35.5H117.406Z" fill="#8052E4"/>
<circle cx="207.906" cy="113" r="41.5" fill="#A57CFE"/>
<path d="M200.938 126.517C215.09 126.517 222.829 114.793 222.829 104.627C222.829 104.294 222.822 103.962 222.807 103.632C224.309 102.546 225.615 101.191 226.645 99.648C225.266 100.261 223.782 100.673 222.226 100.86C223.815 99.9067 225.034 98.4 225.61 96.6039C224.123 97.4852 222.477 98.1255 220.724 98.4713C219.32 96.9759 217.321 96.0406 215.108 96.0406C210.859 96.0406 207.414 99.4861 207.414 103.733C207.414 104.337 207.481 104.924 207.613 105.488C201.219 105.166 195.548 102.105 191.754 97.4492C191.094 98.586 190.712 99.9069 190.712 101.316C190.712 103.985 192.071 106.342 194.136 107.72C192.874 107.682 191.688 107.335 190.652 106.758C190.651 106.791 190.651 106.822 190.651 106.857C190.651 110.583 193.303 113.694 196.823 114.399C196.177 114.575 195.496 114.669 194.795 114.669C194.3 114.669 193.817 114.621 193.348 114.531C194.328 117.588 197.168 119.812 200.536 119.874C197.902 121.938 194.585 123.168 190.98 123.168C190.36 123.168 189.747 123.132 189.145 123.061C192.55 125.244 196.593 126.517 200.938 126.517" fill="#F5F5F5"/>
<rect x="48.4062" y="135.5" width="245" height="24" fill="#31D67B"/>
</svg>
