<svg width="342" height="181" viewBox="0 0 342 181" fill="none" xmlns="http://www.w3.org/2000/svg">
<rect width="341" height="180" transform="translate(0.40625 0.5)" fill="#F5F5F5"/>
<path d="M257.986 124.727C275.216 123.727 308.144 113.027 309.676 84.2272C309.676 48.2272 274.578 38.7272 257.348 38.7272C232.46 38.7272 129.081 38.7272 70.3717 38.7272" stroke="black"/>
<path d="M258.246 124.727H166.093" stroke="black"/>
<path d="M181.952 81.7272L235.609 142.273H82.0747L32.136 81.7272H181.952Z" fill="#31D67B"/>
<mask id="mask0" mask-type="alpha" maskUnits="userSpaceOnUse" x="32" y="81" width="204" height="62">
<path d="M181.952 81.7272L235.609 142.273H82.0747L32.136 81.7272H181.952Z" fill="#31D67B"/>
</mask>
<g mask="url(#mask0)">
<path d="M-93.3398 83.8897C4.61374 45.0192 74.5806 45.0192 116.561 83.8897C158.541 122.76 228.508 122.76 326.461 83.8897" stroke="#4AE991" stroke-width="2"/>
<path d="M-81.0675 158.33C-5.97512 99.8603 60.3659 84.4219 117.956 112.015C175.545 139.608 241.886 124.17 316.979 65.6997" stroke="#4AE991" stroke-width="2"/>
<path d="M-89.1969 132.63C12.8518 99.2245 82.6023 103.042 120.055 144.083C157.507 185.124 227.258 188.942 329.306 155.536" stroke="#4AE991" stroke-width="2"/>
</g>
<path d="M138.371 38.7272L94.8711 87.2272" stroke="black"/>
<path d="M133.871 38.7272L90.3711 87.2272" stroke="black"/>
<path d="M128.871 38.7272L85.3711 87.2272" stroke="black"/>
<path d="M123.871 38.7272L80.3711 87.2272" stroke="black"/>
<path d="M118.871 38.7272L75.3711 87.2272" stroke="black"/>
<path d="M113.871 38.7272L70.3711 87.2272" stroke="black"/>
<path d="M155.36 87.8877V81.1077C155.36 78.9477 156.13 77.1477 157.67 75.7077C159.23 74.2677 161.17 73.5477 163.49 73.5477C165.81 73.5477 167.74 74.2677 169.28 75.7077C170.84 77.1477 171.62 78.9477 171.62 81.1077V87.8877C171.62 90.0477 170.84 91.8477 169.28 93.2877C167.74 94.7277 165.81 95.4477 163.49 95.4477C161.17 95.4477 159.23 94.7277 157.67 93.2877C156.13 91.8477 155.36 90.0477 155.36 87.8877ZM159.26 81.0477V87.9477C159.26 89.0077 159.66 89.9077 160.46 90.6477C161.28 91.3677 162.29 91.7277 163.49 91.7277C164.69 91.7277 165.7 91.3677 166.52 90.6477C167.34 89.8877 167.75 88.9877 167.75 87.9477V81.0477C167.75 79.9877 167.34 79.0977 166.52 78.3777C165.72 77.6377 164.71 77.2677 163.49 77.2677C162.27 77.2677 161.26 77.6377 160.46 78.3777C159.66 79.0977 159.26 79.9877 159.26 81.0477ZM185.478 78.7677L181.848 80.5677L180.228 77.1477L186.588 73.9977H189.378V94.9977H185.478V78.7677ZM210.47 80.1177C210.47 79.3377 210.13 78.6677 209.45 78.1077C208.81 77.5477 208.02 77.2677 207.08 77.2677C206.18 77.2677 205.37 77.5477 204.65 78.1077C203.95 78.6477 203.42 79.3877 203.06 80.3277L199.46 78.6177C200.14 77.0577 201.16 75.8277 202.52 74.9277C203.88 74.0077 205.4 73.5477 207.08 73.5477C209.18 73.5477 210.93 74.1777 212.33 75.4377C213.77 76.6977 214.49 78.2177 214.49 79.9977C214.49 81.0777 214.13 82.2077 213.41 83.3877C212.69 84.5477 211.55 85.8777 209.99 87.3777L205.88 91.2777H214.67V94.9977H199.88V92.0877L207.59 84.7377C209.51 82.8777 210.47 81.3377 210.47 80.1177ZM233.842 79.8477C233.842 79.1277 233.502 78.5177 232.822 78.0177C232.142 77.5177 231.272 77.2677 230.212 77.2677C229.352 77.2677 228.592 77.4477 227.932 77.8077C227.292 78.1477 226.822 78.5977 226.522 79.1577L222.982 77.4777C223.602 76.2777 224.562 75.3277 225.862 74.6277C227.162 73.9077 228.622 73.5477 230.242 73.5477C232.422 73.5477 234.242 74.1377 235.702 75.3177C237.142 76.4777 237.862 77.9477 237.862 79.7277C237.862 81.4677 237.112 82.9277 235.612 84.1077C237.472 85.3077 238.402 86.9377 238.402 88.9977C238.402 90.8577 237.642 92.3977 236.122 93.6177C234.602 94.8377 232.712 95.4477 230.452 95.4477C228.592 95.4477 226.962 95.0177 225.562 94.1577C224.162 93.2777 223.212 92.1377 222.712 90.7377L226.462 89.4177C226.682 90.0977 227.152 90.6577 227.872 91.0977C228.592 91.5177 229.442 91.7277 230.422 91.7277C231.542 91.7277 232.482 91.4577 233.242 90.9177C234.002 90.3577 234.382 89.6577 234.382 88.8177C234.382 88.0177 234.002 87.3577 233.242 86.8377C232.502 86.2977 231.592 86.0277 230.512 86.0277H228.922V82.5177H230.002C231.082 82.5177 231.992 82.2677 232.732 81.7677C233.472 81.2677 233.842 80.6277 233.842 79.8477ZM257.48 94.9977V90.9777H246.59V87.2577L257.66 73.9977H261.35V87.2577H264.02V90.9777H261.35V94.9977H257.48ZM257.48 79.7877L251.24 87.2577H257.48V79.7877ZM287.797 88.3077C287.797 90.3277 287.027 92.0277 285.487 93.4077C283.947 94.7677 282.037 95.4477 279.757 95.4477C277.917 95.4477 276.297 94.9677 274.897 94.0077C273.497 93.0277 272.497 91.7177 271.897 90.0777L275.767 89.0277C276.107 89.8677 276.637 90.5277 277.357 91.0077C278.077 91.4877 278.887 91.7277 279.787 91.7277C280.927 91.7277 281.867 91.3977 282.607 90.7377C283.387 90.0777 283.777 89.2677 283.777 88.3077C283.777 87.2677 283.347 86.4077 282.487 85.7277C281.667 85.0477 280.617 84.7077 279.337 84.7077H273.487L274.567 73.9977H285.997V77.5677H277.777L277.447 81.1677H279.547C281.887 81.1677 283.847 81.8477 285.427 83.2077C287.007 84.5477 287.797 86.2477 287.797 88.3077Z" fill="#AB85FF"/>
<path d="M157.67 75.7077L156.992 74.9729L156.987 74.9773L157.67 75.7077ZM169.28 75.7077L168.597 76.4381L168.602 76.4425L169.28 75.7077ZM169.28 93.2877L168.602 92.5529L168.597 92.5573L169.28 93.2877ZM157.67 93.2877L156.987 94.0181L156.992 94.0225L157.67 93.2877ZM160.46 90.6477L159.781 91.3818L159.791 91.3906L159.801 91.3991L160.46 90.6477ZM166.52 90.6477L167.18 91.3991L167.19 91.3902L167.2 91.3811L166.52 90.6477ZM166.52 78.3777L165.841 79.1118L165.851 79.1206L165.861 79.1291L166.52 78.3777ZM160.46 78.3777L161.129 79.121L161.139 79.1118L160.46 78.3777ZM156.36 87.8877V81.1077H154.36V87.8877H156.36ZM156.36 81.1077C156.36 79.2169 157.021 77.6838 158.353 76.4381L156.987 74.9773C155.24 76.6115 154.36 78.6785 154.36 81.1077H156.36ZM158.349 76.4425C159.706 75.1895 161.396 74.5477 163.49 74.5477V72.5477C160.944 72.5477 158.755 73.3459 156.992 74.9729L158.349 76.4425ZM163.49 74.5477C165.584 74.5477 167.262 75.1893 168.597 76.4381L169.963 74.9773C168.219 73.346 166.036 72.5477 163.49 72.5477V74.5477ZM168.602 76.4425C169.953 77.6895 170.62 79.2213 170.62 81.1077H172.62C172.62 78.6741 171.728 76.6059 169.959 74.9729L168.602 76.4425ZM170.62 81.1077V87.8877H172.62V81.1077H170.62ZM170.62 87.8877C170.62 89.7741 169.953 91.3059 168.602 92.5529L169.959 94.0225C171.728 92.3895 172.62 90.3213 172.62 87.8877H170.62ZM168.597 92.5573C167.262 93.806 165.584 94.4477 163.49 94.4477V96.4477C166.036 96.4477 168.219 95.6493 169.963 94.0181L168.597 92.5573ZM163.49 94.4477C161.396 94.4477 159.706 93.8059 158.349 92.5529L156.992 94.0225C158.755 95.6495 160.944 96.4477 163.49 96.4477V94.4477ZM158.353 92.5573C157.021 91.3115 156.36 89.7785 156.36 87.8877H154.36C154.36 90.3169 155.24 92.3838 156.987 94.0181L158.353 92.5573ZM158.26 81.0477V87.9477H160.26V81.0477H158.26ZM158.26 87.9477C158.26 89.2952 158.783 90.4585 159.781 91.3818L161.139 89.9136C160.537 89.3568 160.26 88.7202 160.26 87.9477H158.26ZM159.801 91.3991C160.822 92.2957 162.074 92.7277 163.49 92.7277V90.7277C162.507 90.7277 161.739 90.4396 161.12 89.8962L159.801 91.3991ZM163.49 92.7277C164.907 92.7277 166.159 92.2957 167.18 91.3991L165.861 89.8962C165.242 90.4396 164.474 90.7277 163.49 90.7277V92.7277ZM167.2 91.3811C168.207 90.4478 168.75 89.2886 168.75 87.9477H166.75C166.75 88.6867 166.474 89.3276 165.841 89.9142L167.2 91.3811ZM168.75 87.9477V81.0477H166.75V87.9477H168.75ZM168.75 81.0477C168.75 79.6904 168.209 78.5297 167.18 77.6262L165.861 79.1291C166.472 79.6657 166.75 80.285 166.75 81.0477H168.75ZM167.199 77.6436C166.192 76.7118 164.93 76.2677 163.49 76.2677V78.2677C164.491 78.2677 165.249 78.5636 165.841 79.1118L167.199 77.6436ZM163.49 76.2677C162.051 76.2677 160.789 76.7118 159.781 77.6436L161.139 79.1118C161.732 78.5636 162.49 78.2677 163.49 78.2677V76.2677ZM159.791 77.6344C158.784 78.5407 158.26 79.6993 158.26 81.0477H160.26C160.26 80.2761 160.536 79.6547 161.129 79.121L159.791 77.6344ZM185.478 78.7677H186.478V77.1556L185.034 77.8718L185.478 78.7677ZM181.848 80.5677L180.944 80.9958L181.38 81.9159L182.292 81.4636L181.848 80.5677ZM180.228 77.1477L179.784 76.2516L178.904 76.6877L179.324 77.5758L180.228 77.1477ZM186.588 73.9977V72.9977H186.354L186.144 73.1016L186.588 73.9977ZM189.378 73.9977H190.378V72.9977H189.378V73.9977ZM189.378 94.9977V95.9977H190.378V94.9977H189.378ZM185.478 94.9977H184.478V95.9977H185.478V94.9977ZM185.034 77.8718L181.404 79.6718L182.292 81.4636L185.922 79.6636L185.034 77.8718ZM182.752 80.1396L181.132 76.7196L179.324 77.5758L180.944 80.9958L182.752 80.1396ZM180.672 78.0438L187.032 74.8938L186.144 73.1016L179.784 76.2516L180.672 78.0438ZM186.588 74.9977H189.378V72.9977H186.588V74.9977ZM188.378 73.9977V94.9977H190.378V73.9977H188.378ZM189.378 93.9977H185.478V95.9977H189.378V93.9977ZM186.478 94.9977V78.7677H184.478V94.9977H186.478ZM209.45 78.1077L208.791 78.8603L208.803 78.8701L208.814 78.8796L209.45 78.1077ZM204.65 78.1077L205.261 78.8995L205.264 78.897L204.65 78.1077ZM203.06 80.3277L202.631 81.231L203.607 81.6947L203.994 80.6853L203.06 80.3277ZM199.46 78.6177L198.543 78.2181L198.156 79.1056L199.031 79.521L199.46 78.6177ZM202.52 74.9277L203.072 75.7617L203.08 75.756L202.52 74.9277ZM212.33 75.4377L211.661 76.181L211.671 76.1903L212.33 75.4377ZM213.41 83.3877L214.26 83.9151L214.263 83.9085L213.41 83.3877ZM209.99 87.3777L210.678 88.1031L210.683 88.0985L209.99 87.3777ZM205.88 91.2777L205.192 90.5523L203.373 92.2777H205.88V91.2777ZM214.67 91.2777H215.67V90.2777H214.67V91.2777ZM214.67 94.9977V95.9977H215.67V94.9977H214.67ZM199.88 94.9977H198.88V95.9977H199.88V94.9977ZM199.88 92.0877L199.19 91.3639L198.88 91.6594V92.0877H199.88ZM207.59 84.7377L208.28 85.4615L208.286 85.4559L207.59 84.7377ZM211.47 80.1177C211.47 78.9979 210.963 78.058 210.086 77.3357L208.814 78.8796C209.297 79.2773 209.47 79.6775 209.47 80.1177H211.47ZM210.108 77.3551C209.266 76.6184 208.235 76.2677 207.08 76.2677V78.2677C207.805 78.2677 208.353 78.477 208.791 78.8603L210.108 77.3551ZM207.08 76.2677C205.954 76.2677 204.929 76.6238 204.036 77.3183L205.264 78.897C205.811 78.4716 206.405 78.2677 207.08 78.2677V76.2677ZM204.039 77.3159C203.174 77.9831 202.542 78.8827 202.126 79.97L203.994 80.6853C204.297 79.8927 204.726 79.3123 205.261 78.8995L204.039 77.3159ZM203.489 79.4244L199.889 77.7144L199.031 79.521L202.631 81.231L203.489 79.4244ZM200.377 79.0173C200.983 77.6261 201.88 76.5503 203.072 75.7616L201.968 74.0937C200.44 75.1051 199.297 76.4892 198.543 78.2181L200.377 79.0173ZM203.08 75.756C204.271 74.9506 205.595 74.5477 207.08 74.5477V72.5477C205.205 72.5477 203.489 73.0648 201.96 74.0994L203.08 75.756ZM207.08 74.5477C208.963 74.5477 210.466 75.1056 211.661 76.181L212.999 74.6944C211.394 73.2497 209.396 72.5477 207.08 72.5477V74.5477ZM211.671 76.1903C212.913 77.2765 213.49 78.5296 213.49 79.9977H215.49C215.49 77.9058 214.627 76.1189 212.988 74.6851L211.671 76.1903ZM213.49 79.9977C213.49 80.8491 213.207 81.8004 212.556 82.8668L214.263 83.9085C215.053 82.6149 215.49 81.3063 215.49 79.9977H213.49ZM212.56 82.8603C211.902 83.9208 210.827 85.1852 209.297 86.6568L210.683 88.0985C212.272 86.5702 213.478 85.1745 214.259 83.915L212.56 82.8603ZM209.302 86.6523L205.192 90.5523L206.568 92.0031L210.678 88.1031L209.302 86.6523ZM205.88 92.2777H214.67V90.2777H205.88V92.2777ZM213.67 91.2777V94.9977H215.67V91.2777H213.67ZM214.67 93.9977H199.88V95.9977H214.67V93.9977ZM200.88 94.9977V92.0877H198.88V94.9977H200.88ZM200.57 92.8115L208.28 85.4615L206.9 84.0139L199.19 91.3639L200.57 92.8115ZM208.286 85.4559C209.279 84.4933 210.06 83.5799 210.598 82.7167C211.132 81.8603 211.47 80.9848 211.47 80.1177H209.47C209.47 80.4706 209.327 80.975 208.901 81.6587C208.479 82.3355 207.82 83.1221 206.894 84.0194L208.286 85.4559ZM232.822 78.0177L233.415 77.212V77.212L232.822 78.0177ZM227.932 77.8077L228.401 78.6909L228.411 78.6856L227.932 77.8077ZM226.522 79.1577L226.093 80.0611L226.954 80.4695L227.404 79.6299L226.522 79.1577ZM222.982 77.4777L222.094 77.0187L221.619 77.9376L222.553 78.3811L222.982 77.4777ZM225.862 74.6277L226.336 75.5082L226.347 75.5025L225.862 74.6277ZM235.702 75.3177L235.074 76.0954L235.075 76.0964L235.702 75.3177ZM235.612 84.1077L234.994 83.3217L233.892 84.1882L235.07 84.948L235.612 84.1077ZM236.122 93.6177L235.496 92.8378L236.122 93.6177ZM225.562 94.1577L225.03 95.0044L225.039 95.0098L225.562 94.1577ZM222.712 90.7377L222.38 89.7944L221.433 90.128L221.77 91.074L222.712 90.7377ZM226.462 89.4177L227.414 89.1099L227.098 88.1338L226.13 88.4744L226.462 89.4177ZM227.872 91.0977L227.351 91.951L227.359 91.9563L227.368 91.9615L227.872 91.0977ZM233.242 90.9177L233.821 91.7329L233.828 91.7279L233.835 91.7227L233.242 90.9177ZM233.242 86.8377L232.653 87.6455L232.665 87.6544L232.678 87.663L233.242 86.8377ZM228.922 86.0277H227.922V87.0277H228.922V86.0277ZM228.922 82.5177V81.5177H227.922V82.5177H228.922ZM234.842 79.8477C234.842 78.7521 234.301 77.8636 233.415 77.212L232.23 78.8233C232.704 79.1718 232.842 79.5033 232.842 79.8477H234.842ZM233.415 77.212C232.523 76.5566 231.43 76.2677 230.212 76.2677V78.2677C231.114 78.2677 231.761 78.4787 232.23 78.8233L233.415 77.212ZM230.212 76.2677C229.209 76.2677 228.28 76.4788 227.453 76.9298L228.411 78.6856C228.904 78.4166 229.495 78.2677 230.212 78.2677V76.2677ZM227.463 76.9246C226.673 77.3441 226.047 77.9269 225.641 78.6855L227.404 79.6299C227.597 79.2685 227.911 78.9513 228.401 78.6908L227.463 76.9246ZM226.951 78.2543L223.411 76.5743L222.553 78.3811L226.093 80.0611L226.951 78.2543ZM223.871 77.9367C224.39 76.9324 225.196 76.1219 226.336 75.5082L225.388 73.7472C223.928 74.5334 222.815 75.623 222.094 77.0187L223.871 77.9367ZM226.347 75.5025C227.485 74.8719 228.776 74.5477 230.242 74.5477V72.5477C228.468 72.5477 226.839 72.9435 225.378 73.7529L226.347 75.5025ZM230.242 74.5477C232.232 74.5477 233.819 75.0818 235.074 76.0954L236.331 74.5399C234.665 73.1936 232.612 72.5477 230.242 72.5477V74.5477ZM235.075 76.0964C236.29 77.0751 236.862 78.2636 236.862 79.7277H238.862C238.862 77.6317 237.995 75.8802 236.33 74.5389L235.075 76.0964ZM236.862 79.7277C236.862 81.1286 236.28 82.3103 234.994 83.3217L236.23 84.8936C237.945 83.5451 238.862 81.8068 238.862 79.7277H236.862ZM235.07 84.948C236.67 85.9802 237.402 87.3065 237.402 88.9977H239.402C239.402 86.5688 238.274 84.6351 236.154 83.2674L235.07 84.948ZM237.402 88.9977C237.402 90.5381 236.793 91.7971 235.496 92.8378L236.748 94.3975C238.492 92.9982 239.402 91.1773 239.402 88.9977H237.402ZM235.496 92.8378C234.181 93.8932 232.523 94.4477 230.452 94.4477V96.4477C232.902 96.4477 235.023 95.7822 236.748 94.3975L235.496 92.8378ZM230.452 94.4477C228.752 94.4477 227.308 94.0566 226.086 93.3056L225.039 95.0098C226.616 95.9788 228.432 96.4477 230.452 96.4477V94.4477ZM226.094 93.311C224.862 92.5362 224.07 91.5663 223.654 90.4013L221.77 91.074C222.354 92.709 223.463 94.0191 225.03 95.0043L226.094 93.311ZM223.044 91.6809L226.794 90.3609L226.13 88.4744L222.38 89.7944L223.044 91.6809ZM225.511 89.7255C225.817 90.6726 226.466 91.41 227.351 91.951L228.394 90.2444C227.839 89.9053 227.547 89.5227 227.414 89.1099L225.511 89.7255ZM227.368 91.9615C228.266 92.4852 229.297 92.7277 230.422 92.7277V90.7277C229.588 90.7277 228.918 90.5501 228.376 90.2339L227.368 91.9615ZM230.422 92.7277C231.707 92.7277 232.86 92.4157 233.821 91.7329L232.663 90.1025C232.104 90.4997 231.377 90.7277 230.422 90.7277V92.7277ZM233.835 91.7227C234.815 91.0011 235.382 90.0181 235.382 88.8177H233.382C233.382 89.2972 233.19 89.7142 232.649 90.1126L233.835 91.7227ZM235.382 88.8177C235.382 87.6337 234.792 86.6861 233.807 86.0124L232.678 87.663C233.213 88.0292 233.382 88.4016 233.382 88.8177H235.382ZM233.832 86.0299C232.891 85.3438 231.765 85.0277 230.512 85.0277V87.0277C231.419 87.0277 232.113 87.2516 232.653 87.6455L233.832 86.0299ZM230.512 85.0277H228.922V87.0277H230.512V85.0277ZM229.922 86.0277V82.5177H227.922V86.0277H229.922ZM228.922 83.5177H230.002V81.5177H228.922V83.5177ZM230.002 83.5177C231.239 83.5177 232.355 83.2295 233.292 82.5963L232.172 80.9391C231.63 81.3058 230.925 81.5177 230.002 81.5177V83.5177ZM233.292 82.5963C234.261 81.9417 234.842 81.0122 234.842 79.8477H232.842C232.842 80.2432 232.684 80.5937 232.172 80.9391L233.292 82.5963ZM257.48 94.9977H256.48V95.9977H257.48V94.9977ZM257.48 90.9777H258.48V89.9777H257.48V90.9777ZM246.59 90.9777H245.59V91.9777H246.59V90.9777ZM246.59 87.2577L245.823 86.6168L245.59 86.8951V87.2577H246.59ZM257.66 73.9977V72.9977H257.192L256.893 73.3568L257.66 73.9977ZM261.35 73.9977H262.35V72.9977H261.35V73.9977ZM261.35 87.2577H260.35V88.2577H261.35V87.2577ZM264.02 87.2577H265.02V86.2577H264.02V87.2577ZM264.02 90.9777V91.9777H265.02V90.9777H264.02ZM261.35 90.9777V89.9777H260.35V90.9777H261.35ZM261.35 94.9977V95.9977H262.35V94.9977H261.35ZM257.48 79.7877H258.48V77.0307L256.713 79.1466L257.48 79.7877ZM251.24 87.2577L250.473 86.6166L249.102 88.2577H251.24V87.2577ZM257.48 87.2577V88.2577H258.48V87.2577H257.48ZM258.48 94.9977V90.9777H256.48V94.9977H258.48ZM257.48 89.9777H246.59V91.9777H257.48V89.9777ZM247.59 90.9777V87.2577H245.59V90.9777H247.59ZM247.358 87.8985L258.428 74.6385L256.893 73.3568L245.823 86.6168L247.358 87.8985ZM257.66 74.9977H261.35V72.9977H257.66V74.9977ZM260.35 73.9977V87.2577H262.35V73.9977H260.35ZM261.35 88.2577H264.02V86.2577H261.35V88.2577ZM263.02 87.2577V90.9777H265.02V87.2577H263.02ZM264.02 89.9777H261.35V91.9777H264.02V89.9777ZM260.35 90.9777V94.9977H262.35V90.9777H260.35ZM261.35 93.9977H257.48V95.9977H261.35V93.9977ZM256.713 79.1466L250.473 86.6166L252.008 87.8988L258.248 80.4288L256.713 79.1466ZM251.24 88.2577H257.48V86.2577H251.24V88.2577ZM258.48 87.2577V79.7877H256.48V87.2577H258.48ZM285.487 93.4077L286.149 94.1573L286.154 94.1524L285.487 93.4077ZM274.897 94.0077L274.323 94.827L274.331 94.8324L274.897 94.0077ZM271.897 90.0777L271.635 89.1126L270.583 89.3979L270.958 90.4213L271.897 90.0777ZM275.767 89.0277L276.694 88.6525L276.361 87.8303L275.505 88.0626L275.767 89.0277ZM277.357 91.0077L276.802 91.8397L277.357 91.0077ZM282.607 90.7377L281.961 89.9743L281.951 89.9827L281.941 89.9914L282.607 90.7377ZM282.487 85.7277L281.849 86.4974L281.858 86.5049L281.867 86.5121L282.487 85.7277ZM273.487 84.7077L272.492 84.6073L272.381 85.7077H273.487V84.7077ZM274.567 73.9977V72.9977H273.663L273.572 73.8973L274.567 73.9977ZM285.997 73.9977H286.997V72.9977H285.997V73.9977ZM285.997 77.5677V78.5677H286.997V77.5677H285.997ZM277.777 77.5677V76.5677H276.864L276.781 77.4764L277.777 77.5677ZM277.447 81.1677L276.451 81.0764L276.351 82.1677H277.447V81.1677ZM285.427 83.2077L284.775 83.9656L284.78 83.9703L285.427 83.2077ZM286.797 88.3077C286.797 90.0359 286.154 91.4675 284.82 92.6629L286.154 94.1524C287.9 92.5879 288.797 90.6195 288.797 88.3077H286.797ZM284.825 92.6581C283.488 93.8387 281.822 94.4477 279.757 94.4477V96.4477C282.252 96.4477 284.406 95.6967 286.149 94.1572L284.825 92.6581ZM279.757 94.4477C278.101 94.4477 276.682 94.0191 275.462 93.183L274.331 94.8324C275.912 95.9162 277.733 96.4477 279.757 96.4477V94.4477ZM275.47 93.1884C274.242 92.3286 273.367 91.1864 272.836 89.7341L270.958 90.4213C271.627 92.249 272.752 93.7268 274.323 94.8269L275.47 93.1884ZM272.159 91.0428L276.029 89.9928L275.505 88.0626L271.635 89.1126L272.159 91.0428ZM274.84 89.4029C275.252 90.4198 275.907 91.2429 276.802 91.8397L277.912 90.1756C277.367 89.8125 276.962 89.3156 276.694 88.6525L274.84 89.4029ZM276.802 91.8397C277.693 92.4338 278.698 92.7277 279.787 92.7277V90.7277C279.076 90.7277 278.461 90.5416 277.912 90.1756L276.802 91.8397ZM279.787 92.7277C281.133 92.7277 282.322 92.3317 283.273 91.484L281.941 89.9914C281.412 90.4637 280.721 90.7277 279.787 90.7277V92.7277ZM283.253 91.5011C284.241 90.665 284.777 89.5827 284.777 88.3077H282.777C282.777 88.9526 282.533 89.4904 281.961 89.9743L283.253 91.5011ZM284.777 88.3077C284.777 86.9432 284.192 85.801 283.107 84.9433L281.867 86.5121C282.502 87.0143 282.777 87.5921 282.777 88.3077H284.777ZM283.125 84.9579C282.091 84.1006 280.801 83.7077 279.337 83.7077V85.7077C280.433 85.7077 281.242 85.9947 281.849 86.4974L283.125 84.9579ZM279.337 83.7077H273.487V85.7077H279.337V83.7077ZM274.482 84.808L275.562 74.098L273.572 73.8973L272.492 84.6073L274.482 84.808ZM274.567 74.9977H285.997V72.9977H274.567V74.9977ZM284.997 73.9977V77.5677H286.997V73.9977H284.997ZM285.997 76.5677H277.777V78.5677H285.997V76.5677ZM276.781 77.4764L276.451 81.0764L278.443 81.259L278.773 77.659L276.781 77.4764ZM277.447 82.1677H279.547V80.1677H277.447V82.1677ZM279.547 82.1677C281.679 82.1677 283.398 82.7811 284.775 83.9656L286.079 82.4498C284.295 80.9143 282.095 80.1677 279.547 80.1677V82.1677ZM284.78 83.9703C286.138 85.1216 286.797 86.5434 286.797 88.3077H288.797C288.797 85.952 287.876 83.9738 286.074 82.445L284.78 83.9703Z" fill="black"/>
</svg>
