<svg width="342" height="180" viewBox="0 0 342 180" fill="none" xmlns="http://www.w3.org/2000/svg">
<rect width="341" height="180" transform="translate(0.763672)" fill="#F5F5F5"/>
<rect width="197" height="13" transform="translate(108.264 35)" fill="#AB85FF"/>
<rect width="77" height="9" transform="translate(228.264 56)" fill="#A57CFE"/>
<rect width="197" height="12" transform="translate(37.2637 134)" fill="#8052E4"/>
<path d="M138.389 113.965L211.389 113.965M211.389 113.965L209.389 114.93M211.389 113.965L209.389 113" stroke="black"/>
<path d="M104.389 123.965L177.389 123.965M177.389 123.965L175.389 124.93M177.389 123.965L175.389 123" stroke="black"/>
<path d="M64.2637 134C64.2637 127.959 65.4535 121.978 67.7652 116.397C70.0769 110.816 73.4653 105.745 77.7368 101.473C82.0083 97.2016 87.0793 93.8133 92.6602 91.5015C98.2412 89.1898 104.223 88 110.264 88C116.304 88 122.286 89.1898 127.867 91.5015C133.448 93.8133 138.519 97.2016 142.791 101.473C147.062 105.745 150.45 110.816 152.762 116.397C155.074 121.978 156.264 127.959 156.264 134L110.264 134H64.2637Z" fill="#31D67B"/>
<path d="M194.264 84.5L211.514 94.4593V74.5407L194.264 84.5Z" fill="#20D06F"/>
<path d="M187.264 84.5L204.514 94.4593V74.5407L187.264 84.5Z" fill="#31D67B"/>
<path d="M179.264 84.5L196.514 94.4593V74.5407L179.264 84.5Z" fill="#4AE991"/>
<path d="M169.264 84.5L186.514 94.4593V74.5407L169.264 84.5Z" fill="#4BFE9B"/>
<path d="M132.514 39.5L123.014 30" stroke="black"/>
<path d="M126.014 40L116.514 30.5" stroke="black"/>
<path d="M119.514 40L110.014 30.5" stroke="black"/>
<path d="M113.014 40L103.514 30.5" stroke="black"/>
<path d="M106.514 40L97.0137 30.5" stroke="black"/>
<path d="M100.014 40L90.5137 30.5" stroke="black"/>
<path d="M93.5137 40L84.0137 30.5" stroke="black"/>
</svg>
