<svg width="228" height="83" viewBox="0 0 228 83" fill="none" xmlns="http://www.w3.org/2000/svg">
<path d="M12.8181 13.7202H75.8852V68.327H12.8181M12.8181 13.7202V68.327M12.8181 13.7202L1.25586 17.1546V64.2058L12.8181 68.327" stroke="url(#paint0_linear)"/>
<path d="M211.727 0.978516H129.817V73.3326H211.727M211.727 0.978516V73.3326M211.727 0.978516L226.744 5.52908V67.8719L211.727 73.3326" stroke="url(#paint1_linear)"/>
<path d="M98.9843 37.3831H150.515V81.9786H98.9843L89.5371 78.6129V40.1878L98.9843 37.3831Z" fill="white"/>
<path d="M98.9843 37.3831H150.515V81.9786H98.9843M98.9843 37.3831V81.9786M98.9843 37.3831L89.5371 40.1878V78.6129L98.9843 81.9786" stroke="url(#paint2_linear)"/>
<g clip-path="url(#clip0)">
<path d="M51.0278 46.584L51.0279 46.5809C51.0441 44.3638 50.1789 42.6437 48.4469 41.4167C47.0791 40.4511 45.4061 39.9386 43.6954 39.4227L43.6946 39.4225C41.9435 38.8916 40.7235 38.4629 39.949 37.9234C39.5471 37.6434 39.2439 37.3205 39.0472 36.9211C38.8519 36.5245 38.7804 36.0905 38.7804 35.6182C38.7804 34.4054 39.5874 33.6287 40.5561 33.182C41.5186 32.7382 42.7331 32.5658 43.8213 32.5658C45.242 32.5658 46.8569 32.9527 48.0299 33.571L49.6526 31.0579C48.3527 30.3239 46.6741 29.8153 45.0027 29.6455L44.5532 29.5999V29.1481V26.5234H41.5676V29.3672V29.7692L41.175 29.8555C37.7964 30.5988 35.7929 32.7576 35.7929 35.6182C35.7929 37.6655 36.6316 39.2631 38.3001 40.4052L38.3008 40.4057C39.5992 41.2978 41.1961 41.7852 42.83 42.2806C44.5458 42.7992 45.8477 43.241 46.7095 43.8515C47.1543 44.1667 47.4994 44.5376 47.7273 45.0005C47.9541 45.4612 48.0479 45.9789 48.0435 46.563L48.0436 46.5628L47.5436 46.5599L48.0435 46.5637L51.0278 46.584ZM51.0278 46.584C51.0243 49.5738 48.7582 51.7983 44.9824 52.3388L44.5532 52.4002V52.8337V55.5235H41.5675V52.7636V52.3497L41.161 52.2724C39.1407 51.8879 37.2377 50.9564 35.8524 49.655L38.0274 47.5977C39.335 48.751 41.3323 49.4811 43.1766 49.4811C44.2241 49.4811 45.3937 49.3188 46.3216 48.8995C47.2527 48.4787 48.0427 47.7406 48.0435 46.5771M51.0278 46.584L48.0435 46.5755M48.0435 46.5755H47.5435L48.0435 46.5783L48.0435 46.5771M48.0435 46.5755C48.0435 46.576 48.0435 46.5766 48.0435 46.5771M48.0435 46.5755L48.0435 46.5771" fill="url(#paint3_linear)" stroke="url(#paint4_linear)"/>
</g>
<g clip-path="url(#clip1)">
<path d="M185.583 44.8896L185.583 44.8926C185.58 47.3559 184.661 49.4539 183.031 51.0475C181.395 52.6468 179.02 53.7592 176.083 54.1887L175.656 54.2513V54.6835V59.1808H170.544V54.5735V54.1614L170.14 54.0827C166.895 53.4517 163.835 51.8919 161.653 49.7018L165.379 46.1011C167.322 47.9519 170.419 49.1477 173.278 49.1477C174.864 49.1477 176.617 48.8958 177.994 48.2599C179.377 47.6213 180.473 46.5408 180.474 44.8804C180.474 44.8799 180.474 44.8794 180.474 44.8789L180.474 44.8582C180.474 44.8581 180.474 44.8579 180.474 44.8578C180.481 43.9754 180.342 43.2118 180.018 42.5404C179.694 41.8664 179.199 41.3188 178.545 40.8455C177.265 39.919 175.313 39.2376 172.672 38.4222C170.175 37.6487 167.686 36.8748 165.655 35.4492L165.654 35.4487C163.022 33.608 161.69 31.0169 161.69 27.7124C161.69 23.0559 164.892 19.5897 170.154 18.4071L170.544 18.3193V17.9192V13.1807H175.656V17.576V18.0268L176.104 18.0733C178.806 18.3536 181.527 19.2172 183.591 20.4704L180.808 24.8738C179.041 23.8619 176.497 23.2137 174.267 23.2137C172.619 23.2137 170.797 23.4812 169.368 24.1548C167.93 24.8324 166.804 25.9722 166.804 27.7124C166.804 28.4229 166.909 29.055 167.184 29.6246C167.46 30.1976 167.889 30.6698 168.477 31.0885C169.625 31.905 171.453 32.5661 174.147 33.4005L174.148 33.4007C176.763 34.2065 179.371 35.02 181.509 36.5624C184.24 38.5387 185.609 41.3229 185.583 44.8896Z" fill="url(#paint5_linear)" stroke="url(#paint6_linear)"/>
</g>
<g clip-path="url(#clip2)">
<path d="M128.296 63.5732L128.296 63.5702C128.307 62.0551 127.746 60.8972 126.636 60.072C125.751 59.4157 124.665 59.0645 123.52 58.702L123.519 58.7017C122.356 58.3317 121.515 58.0242 120.972 57.6272C120.686 57.418 120.465 57.1726 120.322 56.8669C120.18 56.565 120.131 56.24 120.131 55.8972C120.131 54.9802 120.718 54.3917 121.403 54.0597C122.077 53.7333 122.917 53.6106 123.658 53.6106C124.574 53.6106 125.607 53.8551 126.401 54.2572L127.325 52.7555C126.501 52.2961 125.463 51.9759 124.426 51.8653L123.979 51.8177V51.3682V49.6809H122.322V51.5215V51.9192L121.935 52.0087C119.752 52.5129 118.473 53.9663 118.473 55.8972C118.473 57.2918 119.014 58.3641 120.081 59.1309L120.082 59.1315C120.921 59.7372 121.958 60.071 123.052 60.4194C124.191 60.7806 125.088 61.0976 125.689 61.545C126.004 61.7791 126.252 62.0579 126.416 62.4072C126.578 62.7535 126.643 63.137 126.64 63.5596L126.64 63.5592L126.14 63.5564L126.64 63.5601L128.296 63.5732ZM128.296 63.5732C128.295 64.6042 127.922 65.4718 127.267 66.1306C126.606 66.7944 125.633 67.2691 124.405 67.4537L123.979 67.5177V67.9481V69.681H122.322V67.899V67.489L121.92 67.4087C120.655 67.1558 119.461 66.5566 118.572 65.7214L119.802 64.4992C120.705 65.2713 122.013 65.7513 123.228 65.7513C123.942 65.7513 124.752 65.6357 125.402 65.3269C126.062 65.0137 126.64 64.4521 126.64 63.5673M128.296 63.5732L126.64 63.5673M126.64 63.5673H126.14L126.64 63.5701L126.64 63.5673Z" fill="url(#paint7_linear)" stroke="url(#paint8_linear)"/>
</g>
<defs>
<linearGradient id="paint0_linear" x1="-10.8839" y1="73.7806" x2="44.8678" y2="-24.7126" gradientUnits="userSpaceOnUse">
<stop stop-color="#AB85FF"/>
<stop offset="0.526042" stop-color="#EBA3E3"/>
<stop offset="1" stop-color="#FFDBE4"/>
</linearGradient>
<linearGradient id="paint1_linear" x1="242.511" y1="80.5585" x2="167.887" y2="-48.6662" gradientUnits="userSpaceOnUse">
<stop stop-color="#AB85FF"/>
<stop offset="0.526042" stop-color="#EBA3E3"/>
<stop offset="1" stop-color="#FFDBE4"/>
</linearGradient>
<linearGradient id="paint2_linear" x1="79.6181" y1="86.4324" x2="125.137" y2="5.97681" gradientUnits="userSpaceOnUse">
<stop stop-color="#AB85FF"/>
<stop offset="0.526042" stop-color="#EBA3E3"/>
<stop offset="1" stop-color="#FFDBE4"/>
</linearGradient>
<linearGradient id="paint3_linear" x1="32.4681" y1="59.0196" x2="66.1373" y2="35.2368" gradientUnits="userSpaceOnUse">
<stop stop-color="#AB85FF"/>
<stop offset="0.526042" stop-color="#EBA3E3"/>
<stop offset="1" stop-color="#FFDBE4"/>
</linearGradient>
<linearGradient id="paint4_linear" x1="32.4681" y1="59.0196" x2="66.1373" y2="35.2368" gradientUnits="userSpaceOnUse">
<stop stop-color="#AB85FF"/>
<stop offset="0.526042" stop-color="#EBA3E3"/>
<stop offset="1" stop-color="#FFDBE4"/>
</linearGradient>
<linearGradient id="paint5_linear" x1="156.858" y1="64.3747" x2="209.218" y2="28.1764" gradientUnits="userSpaceOnUse">
<stop stop-color="#AB85FF"/>
<stop offset="0.526042" stop-color="#EBA3E3"/>
<stop offset="1" stop-color="#FFDBE4"/>
</linearGradient>
<linearGradient id="paint6_linear" x1="156.858" y1="64.3747" x2="209.218" y2="28.1764" gradientUnits="userSpaceOnUse">
<stop stop-color="#AB85FF"/>
<stop offset="0.526042" stop-color="#EBA3E3"/>
<stop offset="1" stop-color="#FFDBE4"/>
</linearGradient>
<linearGradient id="paint7_linear" x1="116.089" y1="72.2782" x2="139.252" y2="56.6958" gradientUnits="userSpaceOnUse">
<stop stop-color="#AB85FF"/>
<stop offset="0.526042" stop-color="#EBA3E3"/>
<stop offset="1" stop-color="#FFDBE4"/>
</linearGradient>
<linearGradient id="paint8_linear" x1="116.089" y1="72.2782" x2="139.252" y2="56.6958" gradientUnits="userSpaceOnUse">
<stop stop-color="#AB85FF"/>
<stop offset="0.526042" stop-color="#EBA3E3"/>
<stop offset="1" stop-color="#FFDBE4"/>
</linearGradient>
<clipPath id="clip0">
<rect width="30" height="30" fill="white" transform="translate(28.332 26.0234)"/>
</clipPath>
<clipPath id="clip1">
<rect width="46" height="47" fill="white" transform="translate(150.516 12.6807)"/>
</clipPath>
<clipPath id="clip2">
<rect width="20" height="21" fill="white" transform="translate(113.332 49.1809)"/>
</clipPath>
</defs>
</svg>
