<svg width="341" height="181" viewBox="0 0 341 181" fill="none" xmlns="http://www.w3.org/2000/svg">
<rect width="341" height="180" transform="translate(0 0.5)" fill="#F5F5F5"/>
<rect width="34.8655" height="2.1791" transform="translate(171.137 147.93) rotate(-90)" fill="#AB85FF"/>
<rect width="34.8655" height="3.73559" transform="translate(177.984 147.93) rotate(-90)" fill="#AB85FF"/>
<rect width="34.8655" height="5.91469" transform="translate(186.078 147.93) rotate(-90)" fill="#AB85FF"/>
<rect width="34.8655" height="2.1791" transform="translate(196.906 147.93) rotate(-90)" fill="#AB85FF"/>
<rect width="34.8655" height="3.73559" transform="translate(203.754 147.93) rotate(-90)" fill="#AB85FF"/>
<rect width="34.8655" height="5.91469" transform="translate(211.848 147.93) rotate(-90)" fill="#AB85FF"/>
<rect width="34.8655" height="2.1791" transform="translate(222.676 147.93) rotate(-90)" fill="#AB85FF"/>
<rect width="34.8655" height="3.73559" transform="translate(229.523 147.93) rotate(-90)" fill="#AB85FF"/>
<rect width="34.8655" height="5.91469" transform="translate(237.617 147.93) rotate(-90)" fill="#AB85FF"/>
<path d="M243.137 147.931C256.637 146.931 282.437 136.231 283.637 107.431C283.637 71.4307 256.137 61.9307 242.637 61.9307C223.137 61.9307 142.137 61.9307 96.1367 61.9307" stroke="black"/>
<path d="M243.34 147.931H171.136" stroke="black"/>
<path d="M88.9119 29.0688L137.235 104.456H40.5889L88.9119 29.0688Z" fill="#31D67B"/>
<path d="M93.8952 91.949L93.8952 142.763M93.8952 142.763L94.4935 141.371M93.8952 142.763L93.2969 141.371" stroke="black"/>
<path d="M83.9141 91.949L83.9141 130.949M83.9141 130.949L84.4141 129.88M83.9141 130.949L83.4141 129.88" stroke="black"/>
<path d="M103.796 91.949V123.969M103.796 123.969L104.416 123.091M103.796 123.969L103.176 123.091" stroke="black"/>
<path d="M74.0341 91.949V114.92M74.0341 114.92L74.6541 114.29M74.0341 114.92L73.4141 114.29" stroke="black"/>
<path d="M307.887 99.5547L298.387 90.0547" stroke="black"/>
<path d="M301.387 100.055L291.887 90.5547" stroke="black"/>
<path d="M294.887 100.055L285.387 90.5547" stroke="black"/>
<path d="M288.387 100.055L278.887 90.5547" stroke="black"/>
<path d="M281.887 100.055L272.387 90.5547" stroke="black"/>
<path d="M275.387 100.055L265.887 90.5547" stroke="black"/>
<path d="M268.887 100.055L259.387 90.5547" stroke="black"/>
</svg>
