<svg width="341" height="181" viewBox="0 0 341 181" fill="none" xmlns="http://www.w3.org/2000/svg">
<rect width="341" height="180" transform="translate(0 0.5)" fill="#F5F5F5"/>
<circle cx="208.332" cy="90.0779" r="62.7651" fill="#A57CFE"/>
<mask id="mask0" mask-type="alpha" maskUnits="userSpaceOnUse" x="145" y="27" width="127" height="126">
<circle cx="208.332" cy="90.0779" r="62.7651" fill="#A57CFE"/>
</mask>
<g mask="url(#mask0)">
<path d="M266.691 18.4104V167.813M266.691 18.4104V167.813" stroke="#B491FF"/>
<path d="M257.324 18.4104V167.813M257.324 18.4104V167.813" stroke="#B491FF"/>
<path d="M247.957 18.4104V167.813M247.957 18.4104V167.813" stroke="#B491FF"/>
<path d="M238.586 18.4104V167.813M238.586 18.4104V167.813" stroke="#B491FF"/>
<path d="M229.219 18.4104V167.813M229.219 18.4104V167.813" stroke="#B491FF"/>
<path d="M219.852 18.4104V167.813M219.852 18.4104V167.813" stroke="#B491FF"/>
<path d="M210.207 20.1233V167.789M210.207 20.1233V167.789" stroke="#B491FF"/>
<path d="M201.777 19.2544V168.657M201.777 19.2544V168.657" stroke="#B491FF"/>
<path d="M192.406 19.2544V168.657M192.406 19.2544V168.657" stroke="#B491FF"/>
<path d="M183.039 19.2544V168.657M183.039 19.2544V168.657" stroke="#B491FF"/>
<path d="M173.672 19.2544V168.657M173.672 19.2544V168.657" stroke="#B491FF"/>
<path d="M164.301 19.2544V168.657M164.301 19.2544V168.657" stroke="#B491FF"/>
<path d="M154.934 19.2544V168.657M154.934 19.2544V168.657" stroke="#B491FF"/>
<path d="M145.566 19.2544V168.657M145.566 19.2544V168.657" stroke="#B491FF"/>
</g>
<path d="M74.6181 91.5773V84.7973C74.6181 82.6373 75.3881 80.8373 76.9281 79.3973C78.4881 77.9573 80.4281 77.2373 82.7481 77.2373C85.0681 77.2373 86.9981 77.9573 88.5381 79.3973C90.0981 80.8373 90.8781 82.6373 90.8781 84.7973V91.5773C90.8781 93.7373 90.0981 95.5373 88.5381 96.9773C86.9981 98.4173 85.0681 99.1373 82.7481 99.1373C80.4281 99.1373 78.4881 98.4173 76.9281 96.9773C75.3881 95.5373 74.6181 93.7373 74.6181 91.5773ZM78.5181 84.7373V91.6373C78.5181 92.6973 78.9181 93.5973 79.7181 94.3373C80.5381 95.0573 81.5481 95.4173 82.7481 95.4173C83.9481 95.4173 84.9581 95.0573 85.7781 94.3373C86.5981 93.5773 87.0081 92.6773 87.0081 91.6373V84.7373C87.0081 83.6773 86.5981 82.7873 85.7781 82.0673C84.9781 81.3273 83.9681 80.9573 82.7481 80.9573C81.5281 80.9573 80.5181 81.3273 79.7181 82.0673C78.9181 82.7873 78.5181 83.6773 78.5181 84.7373ZM104.736 82.4573L101.106 84.2573L99.486 80.8373L105.846 77.6873H108.636V98.6873H104.736V82.4573ZM129.728 83.8073C129.728 83.0273 129.388 82.3573 128.708 81.7973C128.068 81.2373 127.278 80.9573 126.338 80.9573C125.438 80.9573 124.628 81.2373 123.908 81.7973C123.208 82.3373 122.678 83.0773 122.318 84.0173L118.718 82.3073C119.398 80.7473 120.418 79.5173 121.778 78.6173C123.138 77.6973 124.658 77.2373 126.338 77.2373C128.438 77.2373 130.188 77.8673 131.588 79.1273C133.028 80.3873 133.748 81.9073 133.748 83.6873C133.748 84.7673 133.388 85.8973 132.668 87.0773C131.948 88.2373 130.808 89.5673 129.248 91.0673L125.138 94.9673H133.928V98.6873H119.138V95.7773L126.848 88.4273C128.768 86.5673 129.728 85.0273 129.728 83.8073ZM153.1 83.5373C153.1 82.8173 152.76 82.2073 152.08 81.7073C151.4 81.2073 150.53 80.9573 149.47 80.9573C148.61 80.9573 147.85 81.1373 147.19 81.4973C146.55 81.8373 146.08 82.2873 145.78 82.8473L142.24 81.1673C142.86 79.9673 143.82 79.0173 145.12 78.3173C146.42 77.5973 147.88 77.2373 149.5 77.2373C151.68 77.2373 153.5 77.8273 154.96 79.0073C156.4 80.1673 157.12 81.6373 157.12 83.4173C157.12 85.1573 156.37 86.6173 154.87 87.7973C156.73 88.9973 157.66 90.6273 157.66 92.6873C157.66 94.5473 156.9 96.0873 155.38 97.3073C153.86 98.5273 151.97 99.1373 149.71 99.1373C147.85 99.1373 146.22 98.7073 144.82 97.8473C143.42 96.9673 142.47 95.8273 141.97 94.4273L145.72 93.1073C145.94 93.7873 146.41 94.3473 147.13 94.7873C147.85 95.2073 148.7 95.4173 149.68 95.4173C150.8 95.4173 151.74 95.1473 152.5 94.6073C153.26 94.0473 153.64 93.3473 153.64 92.5073C153.64 91.7073 153.26 91.0473 152.5 90.5273C151.76 89.9873 150.85 89.7173 149.77 89.7173H148.18V86.2073H149.26C150.34 86.2073 151.25 85.9573 151.99 85.4573C152.73 84.9573 153.1 84.3173 153.1 83.5373ZM176.738 98.6873V94.6673H165.848V90.9473L176.918 77.6873H180.608V90.9473H183.278V94.6673H180.608V98.6873H176.738ZM176.738 83.4773L170.498 90.9473H176.738V83.4773ZM207.055 91.9973C207.055 94.0173 206.285 95.7173 204.745 97.0973C203.205 98.4573 201.295 99.1373 199.015 99.1373C197.175 99.1373 195.555 98.6573 194.155 97.6973C192.755 96.7173 191.755 95.4073 191.155 93.7673L195.025 92.7173C195.365 93.5573 195.895 94.2173 196.615 94.6973C197.335 95.1773 198.145 95.4173 199.045 95.4173C200.185 95.4173 201.125 95.0873 201.865 94.4273C202.645 93.7673 203.035 92.9573 203.035 91.9973C203.035 90.9573 202.605 90.0973 201.745 89.4173C200.925 88.7373 199.875 88.3973 198.595 88.3973H192.745L193.825 77.6873H205.255V81.2573H197.035L196.705 84.8573H198.805C201.145 84.8573 203.105 85.5373 204.685 86.8973C206.265 88.2373 207.055 89.9373 207.055 91.9973Z" fill="#31D67B"/>
<path d="M76.9281 79.3973L76.2498 78.6624L76.2451 78.6668L76.9281 79.3973ZM88.5381 79.3973L87.8551 80.1277L87.8598 80.1321L88.5381 79.3973ZM88.5381 96.9773L87.8598 96.2424L87.8551 96.2468L88.5381 96.9773ZM76.9281 96.9773L76.2451 97.7077L76.2498 97.7121L76.9281 96.9773ZM79.7181 94.3373L79.0391 95.0714L79.0486 95.0802L79.0583 95.0887L79.7181 94.3373ZM85.7781 94.3373L86.4379 95.0887L86.448 95.0798L86.4579 95.0707L85.7781 94.3373ZM85.7781 82.0673L85.0991 82.8014L85.1086 82.8101L85.1183 82.8187L85.7781 82.0673ZM79.7181 82.0673L80.3872 82.8106L80.3972 82.8014L79.7181 82.0673ZM75.6181 91.5773V84.7973H73.6181V91.5773H75.6181ZM75.6181 84.7973C75.6181 82.9064 76.2789 81.3734 77.6111 80.1277L76.2451 78.6668C74.4974 80.3011 73.6181 82.3681 73.6181 84.7973H75.6181ZM77.6064 80.1321C78.9639 78.879 80.6542 78.2373 82.7481 78.2373V76.2373C80.2021 76.2373 78.0124 77.0355 76.2498 78.6625L77.6064 80.1321ZM82.7481 78.2373C84.8422 78.2373 86.5196 78.8789 87.8551 80.1277L89.2211 78.6668C87.4766 77.0356 85.2941 76.2373 82.7481 76.2373V78.2373ZM87.8598 80.1321C89.2107 81.379 89.8781 82.9108 89.8781 84.7973H91.8781C91.8781 82.3637 90.9855 80.2955 89.2164 78.6625L87.8598 80.1321ZM89.8781 84.7973V91.5773H91.8781V84.7973H89.8781ZM89.8781 91.5773C89.8781 93.4637 89.2107 94.9955 87.8598 96.2425L89.2164 97.7121C90.9855 96.079 91.8781 94.0108 91.8781 91.5773H89.8781ZM87.8551 96.2468C86.5197 97.4956 84.8422 98.1373 82.7481 98.1373V100.137C85.2941 100.137 87.4766 99.3389 89.2211 97.7077L87.8551 96.2468ZM82.7481 98.1373C80.6542 98.1373 78.9639 97.4955 77.6064 96.2425L76.2498 97.7121C78.0124 99.339 80.2021 100.137 82.7481 100.137V98.1373ZM77.6111 96.2468C76.2789 95.0011 75.6181 93.4681 75.6181 91.5773H73.6181C73.6181 94.0064 74.4974 96.0734 76.2451 97.7077L77.6111 96.2468ZM77.5181 84.7373V91.6373H79.5181V84.7373H77.5181ZM77.5181 91.6373C77.5181 92.9847 78.041 94.1481 79.0391 95.0714L80.3972 93.6032C79.7953 93.0464 79.5181 92.4098 79.5181 91.6373H77.5181ZM79.0583 95.0887C80.0795 95.9853 81.3314 96.4173 82.7481 96.4173V94.4173C81.7649 94.4173 80.9968 94.1292 80.3779 93.5858L79.0583 95.0887ZM82.7481 96.4173C84.1649 96.4173 85.4168 95.9853 86.4379 95.0887L85.1183 93.5858C84.4995 94.1292 83.7314 94.4173 82.7481 94.4173V96.4173ZM86.4579 95.0707C87.4649 94.1373 88.0081 92.9782 88.0081 91.6373H86.0081C86.0081 92.3763 85.7313 93.0172 85.0984 93.6038L86.4579 95.0707ZM88.0081 91.6373V84.7373H86.0081V91.6373H88.0081ZM88.0081 84.7373C88.0081 83.3799 87.4669 82.2193 86.4379 81.3158L85.1183 82.8187C85.7294 83.3552 86.0081 83.9746 86.0081 84.7373H88.0081ZM86.4572 81.3332C85.4498 80.4014 84.1874 79.9573 82.7481 79.9573V81.9573C83.7489 81.9573 84.5064 82.2532 85.0991 82.8014L86.4572 81.3332ZM82.7481 79.9573C81.3089 79.9573 80.0464 80.4014 79.0391 81.3332L80.3972 82.8014C80.9898 82.2532 81.7474 81.9573 82.7481 81.9573V79.9573ZM79.0492 81.324C78.0421 82.2303 77.5181 83.3888 77.5181 84.7373H79.5181C79.5181 83.9657 79.7941 83.3442 80.3871 82.8105L79.0492 81.324ZM104.736 82.4573H105.736V80.8452L104.292 81.5614L104.736 82.4573ZM101.106 84.2573L100.202 84.6853L100.638 85.6055L101.55 85.1532L101.106 84.2573ZM99.486 80.8373L99.0422 79.9411L98.1616 80.3773L98.5823 81.2653L99.486 80.8373ZM105.846 77.6873V76.6873H105.612L105.402 76.7911L105.846 77.6873ZM108.636 77.6873H109.636V76.6873H108.636V77.6873ZM108.636 98.6873V99.6873H109.636V98.6873H108.636ZM104.736 98.6873H103.736V99.6873H104.736V98.6873ZM104.292 81.5614L100.662 83.3614L101.55 85.1532L105.18 83.3532L104.292 81.5614ZM102.01 83.8292L100.39 80.4092L98.5823 81.2653L100.202 84.6853L102.01 83.8292ZM99.9298 81.7334L106.29 78.5834L105.402 76.7911L99.0422 79.9411L99.9298 81.7334ZM105.846 78.6873H108.636V76.6873H105.846V78.6873ZM107.636 77.6873V98.6873H109.636V77.6873H107.636ZM108.636 97.6873H104.736V99.6873H108.636V97.6873ZM105.736 98.6873V82.4573H103.736V98.6873H105.736ZM128.708 81.7973L128.049 82.5498L128.06 82.5597L128.072 82.5692L128.708 81.7973ZM123.908 81.7973L124.518 82.589L124.522 82.5866L123.908 81.7973ZM122.318 84.0173L121.889 84.9205L122.865 85.3843L123.252 84.3749L122.318 84.0173ZM118.718 82.3073L117.801 81.9077L117.414 82.7952L118.289 83.2105L118.718 82.3073ZM121.778 78.6173L122.33 79.4512L122.338 79.4455L121.778 78.6173ZM131.588 79.1273L130.919 79.8706L130.929 79.8798L131.588 79.1273ZM132.668 87.0773L133.517 87.6046L133.521 87.5981L132.668 87.0773ZM129.248 91.0673L129.936 91.7927L129.941 91.7881L129.248 91.0673ZM125.138 94.9673L124.449 94.2419L122.631 95.9673H125.138V94.9673ZM133.928 94.9673H134.928V93.9673H133.928V94.9673ZM133.928 98.6873V99.6873H134.928V98.6873H133.928ZM119.138 98.6873H118.138V99.6873H119.138V98.6873ZM119.138 95.7773L118.448 95.0535L118.138 95.349V95.7773H119.138ZM126.848 88.4273L127.538 89.1511L127.543 89.1455L126.848 88.4273ZM130.728 83.8073C130.728 82.6875 130.22 81.7476 129.343 81.0253L128.072 82.5692C128.555 82.9669 128.728 83.367 128.728 83.8073H130.728ZM129.366 81.0447C128.524 80.308 127.492 79.9573 126.338 79.9573V81.9573C127.063 81.9573 127.611 82.1665 128.049 82.5498L129.366 81.0447ZM126.338 79.9573C125.212 79.9573 124.187 80.3134 123.294 81.0079L124.522 82.5866C125.069 82.1611 125.663 81.9573 126.338 81.9573V79.9573ZM123.297 81.0055C122.432 81.6726 121.8 82.5723 121.384 83.6596L123.252 84.3749C123.555 83.5822 123.983 83.0019 124.518 82.589L123.297 81.0055ZM122.747 83.114L119.147 81.404L118.289 83.2105L121.889 84.9205L122.747 83.114ZM119.634 82.7068C120.241 81.3157 121.138 80.2399 122.33 79.4512L121.226 77.7833C119.698 78.7946 118.555 80.1788 117.801 81.9077L119.634 82.7068ZM122.338 79.4455C123.529 78.6402 124.852 78.2373 126.338 78.2373V76.2373C124.463 76.2373 122.747 76.7543 121.217 77.789L122.338 79.4455ZM126.338 78.2373C128.221 78.2373 129.724 78.7952 130.919 79.8706L132.257 78.384C130.651 76.9393 128.654 76.2373 126.338 76.2373V78.2373ZM130.929 79.8798C132.171 80.966 132.748 82.2192 132.748 83.6873H134.748C134.748 81.5953 133.885 79.8085 132.246 78.3747L130.929 79.8798ZM132.748 83.6873C132.748 84.5387 132.465 85.49 131.814 86.5564L133.521 87.5981C134.311 86.3045 134.748 84.9958 134.748 83.6873H132.748ZM131.818 86.5499C131.16 87.6104 130.085 88.8747 128.555 90.3464L129.941 91.7881C131.53 90.2598 132.736 88.8641 133.517 87.6046L131.818 86.5499ZM128.559 90.3419L124.449 94.2419L125.826 95.6927L129.936 91.7927L128.559 90.3419ZM125.138 95.9673H133.928V93.9673H125.138V95.9673ZM132.928 94.9673V98.6873H134.928V94.9673H132.928ZM133.928 97.6873H119.138V99.6873H133.928V97.6873ZM120.138 98.6873V95.7773H118.138V98.6873H120.138ZM119.828 96.5011L127.538 89.1511L126.158 87.7035L118.448 95.0535L119.828 96.5011ZM127.543 89.1455C128.537 88.1829 129.318 87.2695 129.856 86.4063C130.39 85.5499 130.728 84.6743 130.728 83.8073H128.728C128.728 84.1602 128.585 84.6646 128.159 85.3482C127.737 86.025 127.078 86.8116 126.152 87.709L127.543 89.1455ZM152.08 81.7073L152.672 80.9016V80.9016L152.08 81.7073ZM147.19 81.4973L147.659 82.3804L147.669 82.3752L147.19 81.4973ZM145.78 82.8473L145.351 83.7507L146.212 84.159L146.661 83.3195L145.78 82.8473ZM142.24 81.1673L141.352 80.7082L140.877 81.6272L141.811 82.0707L142.24 81.1673ZM145.12 78.3173L145.594 79.1978L145.604 79.192L145.12 78.3173ZM154.96 79.0073L154.331 79.785L154.333 79.786L154.96 79.0073ZM154.87 87.7973L154.252 87.0113L153.15 87.8778L154.328 88.6376L154.87 87.7973ZM155.38 97.3073L154.754 96.5274L155.38 97.3073ZM144.82 97.8473L144.288 98.6939L144.297 98.6993L144.82 97.8473ZM141.97 94.4273L141.638 93.484L140.69 93.8175L141.028 94.7636L141.97 94.4273ZM145.72 93.1073L146.671 92.7994L146.356 91.8234L145.388 92.164L145.72 93.1073ZM147.13 94.7873L146.609 95.6405L146.617 95.6459L146.626 95.651L147.13 94.7873ZM152.5 94.6073L153.079 95.4224L153.086 95.4174L153.093 95.4123L152.5 94.6073ZM152.5 90.5273L151.911 91.335L151.923 91.344L151.935 91.3526L152.5 90.5273ZM148.18 89.7173H147.18V90.7173H148.18V89.7173ZM148.18 86.2073V85.2073H147.18V86.2073H148.18ZM154.1 83.5373C154.1 82.4416 153.558 81.5531 152.672 80.9016L151.488 82.5129C151.962 82.8614 152.1 83.1929 152.1 83.5373H154.1ZM152.672 80.9016C151.781 80.2462 150.688 79.9573 149.47 79.9573V81.9573C150.372 81.9573 151.019 82.1683 151.488 82.5129L152.672 80.9016ZM149.47 79.9573C148.467 79.9573 147.538 80.1683 146.711 80.6194L147.669 82.3752C148.162 82.1062 148.753 81.9573 149.47 81.9573V79.9573ZM146.721 80.6141C145.931 81.0337 145.305 81.6165 144.899 82.375L146.661 83.3195C146.855 82.9581 147.169 82.6408 147.659 82.3804L146.721 80.6141ZM146.209 81.9438L142.669 80.2638L141.811 82.0707L145.351 83.7507L146.209 81.9438ZM143.128 81.6263C143.647 80.622 144.454 79.8115 145.594 79.1977L144.646 77.4368C143.186 78.223 142.073 79.3125 141.352 80.7082L143.128 81.6263ZM145.604 79.192C146.743 78.5614 148.034 78.2373 149.5 78.2373V76.2373C147.726 76.2373 146.097 76.6331 144.635 77.4425L145.604 79.192ZM149.5 78.2373C151.49 78.2373 153.077 78.7714 154.331 79.785L155.589 78.2295C153.923 76.8831 151.87 76.2373 149.5 76.2373V78.2373ZM154.333 79.786C155.548 80.7647 156.12 81.9532 156.12 83.4173H158.12C158.12 81.3213 157.252 79.5698 155.587 78.2285L154.333 79.786ZM156.12 83.4173C156.12 84.8181 155.537 85.9999 154.252 87.0113L155.488 88.5832C157.203 87.2346 158.12 85.4964 158.12 83.4173H156.12ZM154.328 88.6376C155.928 89.6698 156.66 90.9961 156.66 92.6873H158.66C158.66 90.2584 157.532 88.3247 155.412 86.957L154.328 88.6376ZM156.66 92.6873C156.66 94.2276 156.051 95.4867 154.754 96.5274L156.006 98.0871C157.749 96.6878 158.66 94.8669 158.66 92.6873H156.66ZM154.754 96.5274C153.439 97.5828 151.78 98.1373 149.71 98.1373V100.137C152.16 100.137 154.281 99.4717 156.006 98.0871L154.754 96.5274ZM149.71 98.1373C148.01 98.1373 146.566 97.7462 145.343 96.9952L144.297 98.6993C145.874 99.6684 147.69 100.137 149.71 100.137V98.1373ZM145.352 97.0006C144.119 96.2258 143.328 95.2559 142.912 94.0909L141.028 94.7636C141.612 96.3986 142.721 97.7087 144.288 98.6939L145.352 97.0006ZM142.302 95.3705L146.052 94.0505L145.388 92.164L141.638 93.484L142.302 95.3705ZM144.769 93.4151C145.075 94.3622 145.723 95.0996 146.609 95.6405L147.651 93.934C147.097 93.5949 146.805 93.2123 146.671 92.7994L144.769 93.4151ZM146.626 95.651C147.524 96.1748 148.554 96.4173 149.68 96.4173V94.4173C148.846 94.4173 148.176 94.2397 147.634 93.9235L146.626 95.651ZM149.68 96.4173C150.965 96.4173 152.118 96.1052 153.079 95.4224L151.921 93.7921C151.362 94.1893 150.635 94.4173 149.68 94.4173V96.4173ZM153.093 95.4123C154.073 94.6907 154.64 93.7077 154.64 92.5073H152.64C152.64 92.9868 152.447 93.4038 151.907 93.8022L153.093 95.4123ZM154.64 92.5073C154.64 91.3233 154.049 90.3757 153.065 89.7019L151.935 91.3526C152.471 91.7188 152.64 92.0912 152.64 92.5073H154.64ZM153.089 89.7195C152.149 89.0333 151.023 88.7173 149.77 88.7173V90.7173C150.677 90.7173 151.371 90.9412 151.911 91.335L153.089 89.7195ZM149.77 88.7173H148.18V90.7173H149.77V88.7173ZM149.18 89.7173V86.2073H147.18V89.7173H149.18ZM148.18 87.2073H149.26V85.2073H148.18V87.2073ZM149.26 87.2073C150.497 87.2073 151.613 86.9191 152.55 86.2858L151.43 84.6287C150.887 84.9954 150.183 85.2073 149.26 85.2073V87.2073ZM152.55 86.2858C153.519 85.6312 154.1 84.7017 154.1 83.5373H152.1C152.1 83.9328 151.941 84.2833 151.43 84.6287L152.55 86.2858ZM176.738 98.6873H175.738V99.6873H176.738V98.6873ZM176.738 94.6673H177.738V93.6673H176.738V94.6673ZM165.848 94.6673H164.848V95.6673H165.848V94.6673ZM165.848 90.9473L165.08 90.3064L164.848 90.5847V90.9473H165.848ZM176.918 77.6873V76.6873H176.45L176.15 77.0464L176.918 77.6873ZM180.608 77.6873H181.608V76.6873H180.608V77.6873ZM180.608 90.9473H179.608V91.9473H180.608V90.9473ZM183.278 90.9473H184.278V89.9473H183.278V90.9473ZM183.278 94.6673V95.6673H184.278V94.6673H183.278ZM180.608 94.6673V93.6673H179.608V94.6673H180.608ZM180.608 98.6873V99.6873H181.608V98.6873H180.608ZM176.738 83.4773H177.738V80.7203L175.971 82.8362L176.738 83.4773ZM170.498 90.9473L169.731 90.3062L168.36 91.9473H170.498V90.9473ZM176.738 90.9473V91.9473H177.738V90.9473H176.738ZM177.738 98.6873V94.6673H175.738V98.6873H177.738ZM176.738 93.6673H165.848V95.6673H176.738V93.6673ZM166.848 94.6673V90.9473H164.848V94.6673H166.848ZM166.616 91.5881L177.686 78.3281L176.15 77.0464L165.08 90.3064L166.616 91.5881ZM176.918 78.6873H180.608V76.6873H176.918V78.6873ZM179.608 77.6873V90.9473H181.608V77.6873H179.608ZM180.608 91.9473H183.278V89.9473H180.608V91.9473ZM182.278 90.9473V94.6673H184.278V90.9473H182.278ZM183.278 93.6673H180.608V95.6673H183.278V93.6673ZM179.608 94.6673V98.6873H181.608V94.6673H179.608ZM180.608 97.6873H176.738V99.6873H180.608V97.6873ZM175.971 82.8362L169.731 90.3062L171.266 91.5883L177.506 84.1183L175.971 82.8362ZM170.498 91.9473H176.738V89.9473H170.498V91.9473ZM177.738 90.9473V83.4773H175.738V90.9473H177.738ZM204.745 97.0973L205.407 97.8468L205.412 97.842L204.745 97.0973ZM194.155 97.6973L193.581 98.5165L193.589 98.522L194.155 97.6973ZM191.155 93.7673L190.893 92.8021L189.841 93.0875L190.216 94.1108L191.155 93.7673ZM195.025 92.7173L195.952 92.3421L195.619 91.5199L194.763 91.7521L195.025 92.7173ZM196.615 94.6973L196.06 95.5293L196.615 94.6973ZM201.865 94.4273L201.219 93.6639L201.209 93.6723L201.199 93.681L201.865 94.4273ZM201.745 89.4173L201.106 90.187L201.115 90.1944L201.125 90.2017L201.745 89.4173ZM192.745 88.3973L191.75 88.2969L191.639 89.3973H192.745V88.3973ZM193.825 77.6873V76.6873H192.921L192.83 77.5869L193.825 77.6873ZM205.255 77.6873H206.255V76.6873H205.255V77.6873ZM205.255 81.2573V82.2573H206.255V81.2573H205.255ZM197.035 81.2573V80.2573H196.122L196.039 81.166L197.035 81.2573ZM196.705 84.8573L195.709 84.766L195.609 85.8573H196.705V84.8573ZM204.685 86.8973L204.032 87.6552L204.038 87.6599L204.685 86.8973ZM206.055 91.9973C206.055 93.7254 205.411 95.1571 204.077 96.3525L205.412 97.842C207.158 96.2774 208.055 94.3091 208.055 91.9973H206.055ZM204.083 96.3477C202.746 97.5282 201.08 98.1373 199.015 98.1373V100.137C201.51 100.137 203.663 99.3863 205.407 97.8468L204.083 96.3477ZM199.015 98.1373C197.359 98.1373 195.94 97.7087 194.72 96.8725L193.589 98.522C195.17 99.6058 196.991 100.137 199.015 100.137V98.1373ZM194.728 96.878C193.5 96.0181 192.625 94.8759 192.094 93.4237L190.216 94.1108C190.884 95.9386 192.01 97.4164 193.581 98.5165L194.728 96.878ZM191.417 94.7324L195.287 93.6824L194.763 91.7521L190.893 92.8021L191.417 94.7324ZM194.098 93.0924C194.509 94.1094 195.165 94.9324 196.06 95.5293L197.169 93.8652C196.625 93.5021 196.22 93.0051 195.952 92.3421L194.098 93.0924ZM196.06 95.5293C196.951 96.1234 197.956 96.4173 199.045 96.4173V94.4173C198.334 94.4173 197.718 94.2311 197.169 93.8652L196.06 95.5293ZM199.045 96.4173C200.391 96.4173 201.58 96.0213 202.53 95.1736L201.199 93.681C200.67 94.1532 199.978 94.4173 199.045 94.4173V96.4173ZM202.511 95.1906C203.499 94.3546 204.035 93.2723 204.035 91.9973H202.035C202.035 92.6422 201.791 93.1799 201.219 93.6639L202.511 95.1906ZM204.035 91.9973C204.035 90.6328 203.45 89.4906 202.365 88.6328L201.125 90.2017C201.76 90.7039 202.035 91.2817 202.035 91.9973H204.035ZM202.383 88.6475C201.349 87.7902 200.059 87.3973 198.595 87.3973V89.3973C199.691 89.3973 200.5 89.6843 201.106 90.187L202.383 88.6475ZM198.595 87.3973H192.745V89.3973H198.595V87.3973ZM193.74 88.4976L194.82 77.7876L192.83 77.5869L191.75 88.2969L193.74 88.4976ZM193.825 78.6873H205.255V76.6873H193.825V78.6873ZM204.255 77.6873V81.2573H206.255V77.6873H204.255ZM205.255 80.2573H197.035V82.2573H205.255V80.2573ZM196.039 81.166L195.709 84.766L197.701 84.9485L198.031 81.3485L196.039 81.166ZM196.705 85.8573H198.805V83.8573H196.705V85.8573ZM198.805 85.8573C200.937 85.8573 202.656 86.4706 204.032 87.6552L205.337 86.1394C203.553 84.6039 201.353 83.8573 198.805 83.8573V85.8573ZM204.038 87.6599C205.395 88.8112 206.055 90.2329 206.055 91.9973H208.055C208.055 89.6416 207.134 87.6634 205.332 86.1346L204.038 87.6599Z" fill="black"/>
<mask id="mask1" mask-type="alpha" maskUnits="userSpaceOnUse" x="231" y="98" width="66" height="56">
<path d="M248.969 99.6873L256.969 153.687" stroke="black"/>
<path d="M253.469 99.6873L261.469 153.687" stroke="black"/>
<path d="M258.469 99.6873L266.469 153.687" stroke="black"/>
<path d="M263.469 99.6873L271.469 153.687" stroke="black"/>
<path d="M268.469 98.6873L276.469 152.687" stroke="black"/>
<path d="M273.469 98.6873L281.469 152.687" stroke="black"/>
<path d="M278.469 98.6873L286.469 152.687" stroke="black"/>
<path d="M283.469 98.6873L291.469 152.687" stroke="black"/>
<path d="M288.469 98.6873L296.469 152.687" stroke="black"/>
<path d="M243.469 99.6873L251.469 153.687" stroke="black"/>
<path d="M237.469 99.6873L245.469 153.687" stroke="black"/>
<path d="M232.469 99.6873L240.469 153.687" stroke="black"/>
</mask>
<g mask="url(#mask1)">
<path d="M261.969 153.687L232.091 101.937H291.847L261.969 153.687Z" fill="black"/>
</g>
<circle cx="55.6949" cy="57.5235" r="10.6637" stroke="black"/>
<circle cx="76.3357" cy="46.3599" r="5.08182" stroke="black"/>
<circle cx="91.4005" cy="52.4742" r="2.71295" stroke="black"/>
</svg>
