<svg width="341" height="181" viewBox="0 0 341 181" fill="none" xmlns="http://www.w3.org/2000/svg">
<rect width="341" height="180" transform="translate(0 0.5)" fill="#F5F5F5"/>
<rect x="54.1016" y="42.6926" width="157.296" height="30.2721" fill="#4AE991"/>
<rect x="133.041" y="90.0051" width="99.9788" height="19.2412" fill="#31D67B"/>
<rect x="133.041" y="90.0051" width="99.9788" height="19.2412" fill="#31D67B"/>
<rect x="211.396" y="125.198" width="71.321" height="13.7259" fill="#31D67B"/>
<rect x="211.396" y="125.198" width="71.321" height="13.7259" fill="#2CB66A"/>
<path d="M187.723 113.746L178.223 104.246" stroke="black"/>
<path d="M181.223 114.246L171.723 104.746" stroke="black"/>
<path d="M174.723 114.246L165.223 104.746" stroke="black"/>
<path d="M168.223 114.246L158.723 104.746" stroke="black"/>
<path d="M161.723 114.246L152.223 104.746" stroke="black"/>
<path d="M155.223 114.246L145.723 104.746" stroke="black"/>
<path d="M148.723 114.246L139.223 104.746" stroke="black"/>
<path d="M279.758 108.997C279.758 105.856 278.511 102.845 276.29 100.624C274.07 98.4039 271.058 97.1565 267.918 97.1565C264.778 97.1565 261.766 98.4039 259.546 100.624C257.326 102.845 256.078 105.856 256.078 108.997L267.918 108.997H279.758Z" fill="#D4D4D4"/>
<path d="M262.28 108.997C262.28 106.903 261.478 104.895 260.05 103.415C258.623 101.935 256.687 101.103 254.668 101.103C252.649 101.103 250.713 101.935 249.286 103.415C247.859 104.895 247.057 106.903 247.057 108.997L254.668 108.997H262.28Z" fill="#D4D4D4"/>
<path d="M296.11 108.997C296.11 106.903 294.951 104.895 292.89 103.415C290.828 101.935 288.031 101.103 285.115 101.103C282.2 101.103 279.403 101.935 277.341 103.415C275.279 104.895 274.121 106.903 274.121 108.997L285.115 108.997H296.11Z" fill="#D4D4D4"/>
<path d="M102.414 135.171C102.414 128.102 99.606 121.322 94.6074 116.323C89.6087 111.325 82.829 108.516 75.7599 108.516C68.6907 108.516 61.911 111.325 56.9124 116.323C51.9137 121.322 49.1055 128.102 49.1055 135.171L75.7599 135.171H102.414Z" fill="#AB85FF"/>
<path d="M63.0668 135.171C63.0668 130.458 61.2615 125.938 58.0481 122.606C54.8347 119.273 50.4763 117.401 45.9318 117.401C41.3874 117.401 37.029 119.273 33.8156 122.606C30.6022 125.938 28.7969 130.458 28.7969 135.171L45.9318 135.171H63.0668Z" fill="#AB85FF"/>
<path d="M139.222 135.171C139.222 130.458 136.614 125.938 131.972 122.606C127.331 119.273 121.035 117.401 114.471 117.401C107.907 117.401 101.612 119.273 96.97 122.606C92.3283 125.938 89.7207 130.458 89.7207 135.171L114.471 135.171H139.222Z" fill="#AB85FF"/>
<path d="M229.871 34.4356C229.871 30.3882 228.263 26.5066 225.401 23.6447C222.539 20.7828 218.657 19.175 214.61 19.175C210.563 19.175 206.681 20.7828 203.819 23.6447C200.957 26.5066 199.35 30.3882 199.35 34.4356L214.61 34.4356H229.871Z" fill="#8052E4"/>
<path d="M207.343 34.4354C207.343 31.7372 206.31 29.1495 204.47 27.2415C202.63 25.3336 200.135 24.2617 197.533 24.2617C194.931 24.2617 192.436 25.3336 190.596 27.2415C188.756 29.1495 187.723 31.7372 187.723 34.4354L197.533 34.4354H207.343Z" fill="#8052E4"/>
<path d="M250.944 34.4354C250.944 31.7372 249.451 29.1495 246.794 27.2415C244.137 25.3336 240.532 24.2617 236.774 24.2617C233.016 24.2617 229.411 25.3336 226.754 27.2415C224.096 29.1495 222.604 31.7372 222.604 34.4354L236.774 34.4354H250.944Z" fill="#8052E4"/>
<path d="M58.209 54.1766L87.9348 54.1766M87.9348 54.1766L87.1204 53.7358M87.9348 54.1766L87.1204 54.6174" stroke="black" stroke-width="1.97979"/>
<path d="M58.209 61.5015L99.7437 61.5015M99.7437 61.5015L98.6057 61.0447M99.7437 61.5015L98.6057 61.9583" stroke="black" stroke-width="1.97979"/>
<path d="M58.209 46.884L76.9403 46.884M76.9403 46.884L76.4271 46.4272M76.9403 46.884L76.4271 47.3408" stroke="black" stroke-width="1.97979"/>
<path d="M58.209 68.8101H71.6467M71.6467 68.8101L71.2785 68.3533M71.6467 68.8101L71.2785 69.2668" stroke="black" stroke-width="1.97979"/>
<circle cx="53.0157" cy="57.8473" r="14.1272" transform="rotate(90 53.0157 57.8473)" fill="#F5F5F5" stroke="black" stroke-width="1.97979"/>
</svg>
