<svg width="341" height="181" viewBox="0 0 341 181" fill="none" xmlns="http://www.w3.org/2000/svg">
<rect width="341" height="180" transform="translate(0 0.5)" fill="#F5F5F5"/>
<path d="M127.551 77.5356L67.166 145.673H239.951L296.151 77.5356H127.551Z" fill="#4AE991"/>
<mask id="mask0" mask-type="alpha" maskUnits="userSpaceOnUse" x="67" y="77" width="230" height="69">
<path d="M127.551 77.5356L67.166 145.673H239.951L296.151 77.5356H127.551Z" fill="#4AE991"/>
</mask>
<g mask="url(#mask0)">
<path d="M437.359 79.9692C327.124 36.2251 248.385 36.2251 201.141 79.9692C153.897 123.713 75.1581 123.713 -35.0771 79.9692" stroke="#31D67B"/>
<path d="M423.547 163.743C339.04 97.9422 264.381 80.5681 199.571 111.621C134.76 142.674 60.1013 125.299 -24.4063 59.4985" stroke="#31D67B"/>
<path d="M432.696 134.821C317.853 97.2269 239.357 101.523 197.208 147.71C155.06 193.897 76.5643 198.193 -38.2795 160.599" stroke="#31D67B"/>
</g>
<path d="M202.171 35.3271H244.001V72.4511H202.171L194.502 69.6493V37.662L202.171 35.3271Z" fill="#A57CFE"/>
<path d="M202.171 35.3271V72.4511L194.502 69.6493V37.662L202.171 35.3271Z" fill="#8052E4"/>
<path d="M281.59 43.6538H249.143V72.4511H281.59L287.539 70.2777V45.465L281.59 43.6538Z" fill="#A57CFE"/>
<path d="M281.59 43.6538V72.4511L287.539 70.2777V45.465L281.59 43.6538Z" fill="#8052E4"/>
<path d="M118.589 145.672L118.589 72.659M118.589 72.659L119.794 74.6594M118.589 72.659L117.385 74.6594" stroke="black"/>
<path d="M98.5725 145.672L98.5725 43.6537M98.5725 43.6537L99.8208 46.4487M98.5725 43.6537L97.3242 46.4487" stroke="black"/>
<path d="M138.52 145.672V99.6639M138.52 99.6639L139.768 100.924M138.52 99.6639L137.271 100.924" stroke="black"/>
<path d="M78.6018 145.672V112.666M78.6018 112.666L79.8501 113.571M78.6018 112.666L77.3535 113.571" stroke="black"/>
<circle r="2.5" transform="matrix(1 0 0 -1 47.3496 82.6592)" fill="#D4D4D4"/>
<circle r="2.5" transform="matrix(1 0 0 -1 57.3496 82.6592)" fill="#D4D4D4"/>
<circle r="2.5" transform="matrix(1 0 0 -1 67.3496 82.6592)" fill="#D4D4D4"/>
<circle r="2.5" transform="matrix(1 0 0 -1 77.3496 82.6592)" fill="#D4D4D4"/>
<circle r="2.5" transform="matrix(1 0 0 -1 47.3496 72.6592)" fill="#D4D4D4"/>
<circle r="2.5" transform="matrix(1 0 0 -1 57.3496 72.6592)" fill="#D4D4D4"/>
<circle r="2.5" transform="matrix(1 0 0 -1 67.3496 72.6592)" fill="#D4D4D4"/>
<circle r="2.5" transform="matrix(1 0 0 -1 77.3496 72.6592)" fill="#D4D4D4"/>
<circle r="2.5" transform="matrix(1 0 0 -1 77.3496 62.6592)" fill="#D4D4D4"/>
<circle r="2.5" transform="matrix(1 0 0 -1 67.3496 62.6592)" fill="#D4D4D4"/>
<circle r="2.5" transform="matrix(1 0 0 -1 57.3496 62.6592)" fill="#D4D4D4"/>
<circle r="2.5" transform="matrix(1 0 0 -1 47.3496 62.6592)" fill="#D4D4D4"/>
</svg>
