<svg width="233" height="74" viewBox="0 0 233 74" fill="none" xmlns="http://www.w3.org/2000/svg">
<path d="M139.23 26.8378C115.459 -1.57221 79.9483 -12.6837 40.4269 26.8378M40.4269 26.8378C42.1705 17.5386 42.85 13.1374 42.9718 12.0992L40.4269 26.8378ZM40.4269 26.8378C42.1717 26.1246 50.6121 24.4428 56.6142 23.8766" stroke="url(#paint0_linear)"/>
<path d="M81.7266 47.1622C105.498 75.5722 141.009 86.6837 180.53 47.1622M180.53 47.1622C178.787 56.4614 178.107 60.8626 177.985 61.9008L180.53 47.1622ZM180.53 47.1622C178.785 47.8754 170.345 49.5572 164.343 50.1234" stroke="url(#paint1_linear)"/>
<path d="M20.4289 50.8047C16.878 50.8047 13.5749 52.3922 11.125 55.3031L11.125 55.3031C8.71379 58.169 7.31616 62.1258 7.18847 66.5178C8.86647 67.3899 14.0887 69.8047 20.4289 69.8047C26.2933 69.8047 31.8601 67.3682 33.6685 66.4927C33.5361 62.1105 32.1397 58.1635 29.7328 55.3031C27.2829 52.3922 23.9798 50.8047 20.4289 50.8047Z" fill="url(#paint2_linear)" stroke="url(#paint3_linear)"/>
<path d="M14.0547 42.1797C14.0547 45.7005 16.9089 48.5547 20.4297 48.5547C23.9505 48.5547 26.8047 45.7005 26.8047 42.1797C26.8047 38.6589 23.9505 35.8047 20.4297 35.8047C16.9089 35.8047 14.0547 38.6589 14.0547 42.1797Z" fill="url(#paint4_linear)" stroke="url(#paint5_linear)"/>
<rect x="-0.186871" y="0.186871" width="38.2675" height="52.988" transform="matrix(-1 0 0 1 232.2 6.62158)" fill="white"/>
<rect x="-0.186871" y="0.186871" width="29.5256" height="2.98993" transform="matrix(-1 0 0 1 228.087 13.7227)" stroke="url(#paint6_linear)" stroke-width="0.373742"/>
<rect x="-0.186871" y="0.186871" width="29.5256" height="2.98993" transform="matrix(-1 0 0 1 228.087 20.8237)" stroke="url(#paint7_linear)" stroke-width="0.373742"/>
<rect x="-0.186871" y="0.186871" width="29.5256" height="2.98993" transform="matrix(-1 0 0 1 228.087 27.9248)" stroke="url(#paint8_linear)" stroke-width="0.373742"/>
<rect x="-0.186871" y="0.186871" width="29.5256" height="2.98993" transform="matrix(-1 0 0 1 228.087 35.0259)" stroke="url(#paint9_linear)" stroke-width="0.373742"/>
<rect x="-0.186871" y="0.186871" width="29.5256" height="2.98993" transform="matrix(-1 0 0 1 228.087 42.1267)" stroke="url(#paint10_linear)" stroke-width="0.373742"/>
<rect x="-0.186871" y="0.186871" width="29.5256" height="2.98993" transform="matrix(-1 0 0 1 228.087 49.2278)" stroke="url(#paint11_linear)" stroke-width="0.373742"/>
<rect x="-0.186871" y="0.186871" width="38.2675" height="52.988" transform="matrix(-1 0 0 1 232.2 6.62158)" stroke="url(#paint12_linear)" stroke-width="0.373742"/>
<defs>
<linearGradient id="paint0_linear" x1="155.303" y1="29.3987" x2="143.517" y2="-29.305" gradientUnits="userSpaceOnUse">
<stop stop-color="#AB85FF"/>
<stop offset="0.526042" stop-color="#EBA3E3"/>
<stop offset="1" stop-color="#FFDBE4"/>
</linearGradient>
<linearGradient id="paint1_linear" x1="65.6545" y1="44.6013" x2="77.4405" y2="103.305" gradientUnits="userSpaceOnUse">
<stop stop-color="#AB85FF"/>
<stop offset="0.526042" stop-color="#EBA3E3"/>
<stop offset="1" stop-color="#FFDBE4"/>
</linearGradient>
<linearGradient id="paint2_linear" x1="38.6482" y1="72.3021" x2="18.2906" y2="36.1261" gradientUnits="userSpaceOnUse">
<stop stop-color="#AB85FF"/>
<stop offset="0.526042" stop-color="#EBA3E3"/>
<stop offset="1" stop-color="#FFDBE4"/>
</linearGradient>
<linearGradient id="paint3_linear" x1="38.6482" y1="72.3021" x2="18.2906" y2="36.1261" gradientUnits="userSpaceOnUse">
<stop stop-color="#AB85FF"/>
<stop offset="0.526042" stop-color="#EBA3E3"/>
<stop offset="1" stop-color="#FFDBE4"/>
</linearGradient>
<linearGradient id="paint4_linear" x1="29.5414" y1="50.4279" x2="13.693" y2="29.9412" gradientUnits="userSpaceOnUse">
<stop stop-color="#AB85FF"/>
<stop offset="0.526042" stop-color="#EBA3E3"/>
<stop offset="1" stop-color="#FFDBE4"/>
</linearGradient>
<linearGradient id="paint5_linear" x1="29.5414" y1="50.4279" x2="13.693" y2="29.9412" gradientUnits="userSpaceOnUse">
<stop stop-color="#AB85FF"/>
<stop offset="0.526042" stop-color="#EBA3E3"/>
<stop offset="1" stop-color="#FFDBE4"/>
</linearGradient>
<linearGradient id="paint6_linear" x1="-4.86363" y1="3.69961" x2="-4.17169" y2="-4.25108" gradientUnits="userSpaceOnUse">
<stop stop-color="#AB85FF"/>
<stop offset="0.526042" stop-color="#EBA3E3"/>
<stop offset="1" stop-color="#FFDBE4"/>
</linearGradient>
<linearGradient id="paint7_linear" x1="-4.86363" y1="3.69961" x2="-4.17169" y2="-4.25108" gradientUnits="userSpaceOnUse">
<stop stop-color="#AB85FF"/>
<stop offset="0.526042" stop-color="#EBA3E3"/>
<stop offset="1" stop-color="#FFDBE4"/>
</linearGradient>
<linearGradient id="paint8_linear" x1="-4.86363" y1="3.69961" x2="-4.17169" y2="-4.25108" gradientUnits="userSpaceOnUse">
<stop stop-color="#AB85FF"/>
<stop offset="0.526042" stop-color="#EBA3E3"/>
<stop offset="1" stop-color="#FFDBE4"/>
</linearGradient>
<linearGradient id="paint9_linear" x1="-4.86363" y1="3.69961" x2="-4.17169" y2="-4.25108" gradientUnits="userSpaceOnUse">
<stop stop-color="#AB85FF"/>
<stop offset="0.526042" stop-color="#EBA3E3"/>
<stop offset="1" stop-color="#FFDBE4"/>
</linearGradient>
<linearGradient id="paint10_linear" x1="-4.86363" y1="3.69961" x2="-4.17169" y2="-4.25108" gradientUnits="userSpaceOnUse">
<stop stop-color="#AB85FF"/>
<stop offset="0.526042" stop-color="#EBA3E3"/>
<stop offset="1" stop-color="#FFDBE4"/>
</linearGradient>
<linearGradient id="paint11_linear" x1="-4.86363" y1="3.69961" x2="-4.17169" y2="-4.25108" gradientUnits="userSpaceOnUse">
<stop stop-color="#AB85FF"/>
<stop offset="0.526042" stop-color="#EBA3E3"/>
<stop offset="1" stop-color="#FFDBE4"/>
</linearGradient>
<linearGradient id="paint12_linear" x1="-6.28565" y1="58.691" x2="57.1189" y2="-0.660004" gradientUnits="userSpaceOnUse">
<stop stop-color="#AB85FF"/>
<stop offset="0.526042" stop-color="#EBA3E3"/>
<stop offset="1" stop-color="#FFDBE4"/>
</linearGradient>
</defs>
</svg>
