<svg width="227" height="83" viewBox="0 0 227 83" fill="none" xmlns="http://www.w3.org/2000/svg">
<path d="M12.3162 13.7417H75.3832V68.3485H12.3162M12.3162 13.7417V68.3485M12.3162 13.7417L0.753906 17.1761V64.2273L12.3162 68.3485" stroke="url(#paint0_linear)"/>
<path d="M211.225 1H129.315V73.354H211.225M211.225 1V73.354M211.225 1L226.242 5.55057V67.8934L211.225 73.354" stroke="url(#paint1_linear)"/>
<path d="M98.4824 37.4045H150.013V82.0001H98.4824L89.0352 78.6344V40.2093L98.4824 37.4045Z" fill="white"/>
<path d="M98.4824 37.4045H150.013V82.0001H98.4824M98.4824 37.4045V82.0001M98.4824 37.4045L89.0352 40.2093V78.6344L98.4824 82.0001" stroke="url(#paint2_linear)"/>
<path d="M161.017 37.9486C161.017 34.802 161.95 32.202 163.817 30.1486C165.683 28.0686 168.03 27.0286 170.857 27.0286C172.99 27.0286 174.91 27.6686 176.617 28.9486V27.5486H182.577V48.3486H176.617V46.9086C174.963 48.2153 173.043 48.8686 170.857 48.8686C168.03 48.8686 165.683 47.8286 163.817 45.7486C161.95 43.642 161.017 41.042 161.017 37.9486ZM171.897 32.9486C170.59 32.9486 169.483 33.4286 168.577 34.3886C167.697 35.3486 167.257 36.522 167.257 37.9086C167.257 39.3486 167.697 40.5486 168.577 41.5086C169.483 42.4686 170.59 42.9486 171.897 42.9486C173.177 42.9486 174.27 42.4686 175.177 41.5086C176.083 40.5486 176.537 39.3486 176.537 37.9086C176.537 36.4953 176.083 35.322 175.177 34.3886C174.27 33.4286 173.177 32.9486 171.897 32.9486Z" fill="url(#paint3_linear)"/>
<path d="M35.5579 49.7256V25.951H40.3129V34.3514C41.6231 33.337 43.1341 32.8298 44.8459 32.8298C47.0648 32.8298 48.9245 33.654 50.425 35.3023C51.9254 36.9719 52.6756 39.0323 52.6756 41.4837C52.6756 43.914 51.9254 45.9745 50.425 47.6651C48.9245 49.3135 47.0648 50.1377 44.8459 50.1377C43.1764 50.1377 41.6654 49.6305 40.3129 48.6161V49.7256H35.5579ZM44.0534 37.5213C43.0179 37.5213 42.1409 37.9017 41.4223 38.6625C40.7249 39.4233 40.3763 40.3531 40.3763 41.452C40.3763 42.5932 40.7249 43.5442 41.4223 44.305C42.1409 45.0658 43.0179 45.4462 44.0534 45.4462C45.0678 45.4462 45.9237 45.0658 46.621 44.305C47.3396 43.5442 47.6988 42.5932 47.6988 41.452C47.6988 40.332 47.3396 39.4021 46.621 38.6625C45.9237 37.9017 45.0678 37.5213 44.0534 37.5213Z" fill="url(#paint4_linear)"/>
<path d="M131.25 57.7239L127.274 58.8825C127.028 58.2856 126.642 57.8117 126.116 57.4606C125.589 57.092 124.992 56.9076 124.325 56.9076C123.412 56.9076 122.649 57.2236 122.034 57.8556C121.42 58.47 121.113 59.2424 121.113 60.1727C121.113 61.1206 121.42 61.9106 122.034 62.5425C122.649 63.1745 123.412 63.4905 124.325 63.4905C124.992 63.4905 125.589 63.3149 126.116 62.9638C126.642 62.5952 127.028 62.1125 127.274 61.5156L131.25 62.6742C130.723 64.1136 129.837 65.2634 128.591 66.1236C127.344 66.9662 125.922 67.3875 124.325 67.3875C122.219 67.3875 120.472 66.7029 119.085 65.3336C117.698 63.9469 117.005 62.2353 117.005 60.1991C117.005 58.1452 117.698 56.4337 119.085 55.0645C120.472 53.6952 122.219 53.0106 124.325 53.0106C125.922 53.0106 127.344 53.4407 128.591 54.3009C129.837 55.1435 130.723 56.2845 131.25 57.7239Z" fill="url(#paint5_linear)"/>
<defs>
<linearGradient id="paint0_linear" x1="-11.3858" y1="73.8021" x2="44.3658" y2="-24.6912" gradientUnits="userSpaceOnUse">
<stop stop-color="#AB85FF"/>
<stop offset="0.526042" stop-color="#EBA3E3"/>
<stop offset="1" stop-color="#FFDBE4"/>
</linearGradient>
<linearGradient id="paint1_linear" x1="242.009" y1="80.58" x2="167.385" y2="-48.6447" gradientUnits="userSpaceOnUse">
<stop stop-color="#AB85FF"/>
<stop offset="0.526042" stop-color="#EBA3E3"/>
<stop offset="1" stop-color="#FFDBE4"/>
</linearGradient>
<linearGradient id="paint2_linear" x1="79.1161" y1="86.4539" x2="124.635" y2="5.99829" gradientUnits="userSpaceOnUse">
<stop stop-color="#AB85FF"/>
<stop offset="0.526042" stop-color="#EBA3E3"/>
<stop offset="1" stop-color="#FFDBE4"/>
</linearGradient>
<linearGradient id="paint3_linear" x1="155.91" y1="74.3408" x2="215.568" y2="42.2083" gradientUnits="userSpaceOnUse">
<stop stop-color="#AB85FF"/>
<stop offset="0.526042" stop-color="#EBA3E3"/>
<stop offset="1" stop-color="#FFDBE4"/>
</linearGradient>
<linearGradient id="paint4_linear" x1="31.0038" y1="70.0234" x2="78.282" y2="44.5589" gradientUnits="userSpaceOnUse">
<stop stop-color="#AB85FF"/>
<stop offset="0.526042" stop-color="#EBA3E3"/>
<stop offset="1" stop-color="#FFDBE4"/>
</linearGradient>
<linearGradient id="paint5_linear" x1="114.206" y1="75.3504" x2="145.219" y2="58.6467" gradientUnits="userSpaceOnUse">
<stop stop-color="#AB85FF"/>
<stop offset="0.526042" stop-color="#EBA3E3"/>
<stop offset="1" stop-color="#FFDBE4"/>
</linearGradient>
</defs>
</svg>
