<svg width="228" height="82" viewBox="0 0 228 82" fill="none" xmlns="http://www.w3.org/2000/svg">
<path d="M12.8181 13.2416H75.8852V67.8484H12.8181M12.8181 13.2416V67.8484M12.8181 13.2416L1.25586 16.676V63.7271L12.8181 67.8484" stroke="url(#paint0_linear)"/>
<path d="M98.9843 36.9045H150.515V81.5001H98.9843M98.9843 36.9045V81.5001M98.9843 36.9045L89.5371 39.7093V78.1344L98.9843 81.5001" stroke="url(#paint1_linear)"/>
<path d="M211.728 0.5H129.818V72.854H211.728M211.728 0.5V72.854M211.728 0.5L226.745 5.05057V67.3934L211.728 72.854" stroke="url(#paint2_linear)"/>
<path d="M176.975 32.1002C176.975 31.1669 176.535 30.3936 175.655 29.7802C174.801 29.1402 173.721 28.8202 172.415 28.8202C171.321 28.8202 170.361 29.0736 169.535 29.5802C168.735 30.0869 168.188 30.7536 167.895 31.5802L161.775 29.9002C162.415 27.8202 163.681 26.1536 165.575 24.9002C167.495 23.6202 169.748 22.9802 172.335 22.9802C175.375 22.9802 177.921 23.8469 179.975 25.5802C182.055 27.2869 183.095 29.4602 183.095 32.1002C183.095 33.3002 182.841 34.4202 182.335 35.4602C181.828 36.5002 181.188 37.3269 180.415 37.9402C178.788 39.1669 177.415 39.9269 176.295 40.2202L175.535 40.4202L175.255 42.3802H170.215L169.575 37.1002C170.748 36.7802 171.601 36.5269 172.135 36.3402C173.015 36.0469 173.761 35.7269 174.375 35.3802C175.095 35.0069 175.708 34.5269 176.215 33.9402C176.721 33.3269 176.975 32.7136 176.975 32.1002ZM170.135 51.2202C169.468 50.5269 169.135 49.6736 169.135 48.6602C169.135 47.6469 169.468 46.7936 170.135 46.1002C170.828 45.4069 171.681 45.0602 172.695 45.0602C173.681 45.0602 174.521 45.4069 175.215 46.1002C175.908 46.7936 176.255 47.6469 176.255 48.6602C176.255 49.6736 175.908 50.5269 175.215 51.2202C174.548 51.8869 173.708 52.2202 172.695 52.2202C171.655 52.2202 170.801 51.8869 170.135 51.2202Z" fill="url(#paint3_linear)"/>
<path d="M46.7434 36.2802C46.7434 35.5212 46.3855 34.8923 45.6699 34.3935C44.976 33.8731 44.0977 33.6129 43.0352 33.6129C42.1461 33.6129 41.3654 33.8189 40.6931 34.2309C40.0426 34.6429 39.598 35.185 39.3595 35.8573L34.3827 34.4911C34.9031 32.7997 35.9332 31.4443 37.4728 30.4251C39.0342 29.3842 40.8666 28.8638 42.9701 28.8638C45.4422 28.8638 47.5132 29.5685 49.183 30.9781C50.8744 32.3659 51.7201 34.1333 51.7201 36.2802C51.7201 37.256 51.5141 38.1668 51.1021 39.0125C50.6901 39.8582 50.1696 40.5305 49.5408 41.0293C48.218 42.0268 47.1012 42.6448 46.1904 42.8834L45.5723 43.046L45.3446 44.6399H41.2461L40.7257 40.3462C41.6798 40.0859 42.3737 39.8799 42.8075 39.7281C43.5231 39.4896 44.1303 39.2294 44.629 38.9475C45.2145 38.6439 45.7133 38.2535 46.1253 37.7764C46.5373 37.2777 46.7434 36.7789 46.7434 36.2802ZM41.1811 51.8286C40.6389 51.2648 40.3678 50.5708 40.3678 49.7468C40.3678 48.9227 40.6389 48.2288 41.1811 47.665C41.7449 47.1012 42.4388 46.8193 43.2628 46.8193C44.0652 46.8193 44.7483 47.1012 45.3121 47.665C45.8759 48.2288 46.1578 48.9227 46.1578 49.7468C46.1578 50.5708 45.8759 51.2648 45.3121 51.8286C44.77 52.3707 44.0869 52.6418 43.2628 52.6418C42.4171 52.6418 41.7232 52.3707 41.1811 51.8286Z" fill="url(#paint4_linear)"/>
<defs>
<linearGradient id="paint0_linear" x1="-10.8839" y1="73.302" x2="44.8678" y2="-25.1913" gradientUnits="userSpaceOnUse">
<stop stop-color="#AB85FF"/>
<stop offset="0.526042" stop-color="#EBA3E3"/>
<stop offset="1" stop-color="#FFDBE4"/>
</linearGradient>
<linearGradient id="paint1_linear" x1="79.6181" y1="85.9539" x2="125.137" y2="5.49829" gradientUnits="userSpaceOnUse">
<stop stop-color="#AB85FF"/>
<stop offset="0.526042" stop-color="#EBA3E3"/>
<stop offset="1" stop-color="#FFDBE4"/>
</linearGradient>
<linearGradient id="paint2_linear" x1="242.512" y1="80.08" x2="167.888" y2="-49.1447" gradientUnits="userSpaceOnUse">
<stop stop-color="#AB85FF"/>
<stop offset="0.526042" stop-color="#EBA3E3"/>
<stop offset="1" stop-color="#FFDBE4"/>
</linearGradient>
<linearGradient id="paint3_linear" x1="157.111" y1="77.4924" x2="215.41" y2="47.3477" gradientUnits="userSpaceOnUse">
<stop stop-color="#AB85FF"/>
<stop offset="0.526042" stop-color="#EBA3E3"/>
<stop offset="1" stop-color="#FFDBE4"/>
</linearGradient>
<linearGradient id="paint4_linear" x1="30.5899" y1="72.7212" x2="77.9993" y2="48.2075" gradientUnits="userSpaceOnUse">
<stop stop-color="#AB85FF"/>
<stop offset="0.526042" stop-color="#EBA3E3"/>
<stop offset="1" stop-color="#FFDBE4"/>
</linearGradient>
</defs>
</svg>
