<svg width="242" height="87" viewBox="0 0 242 87" fill="none" xmlns="http://www.w3.org/2000/svg">
<path d="M161.786 6.04492H240.559V75.6277H161.786M161.786 6.04492V75.6277M161.786 6.04492L147.344 10.4212V70.3762L161.786 75.6277" stroke="url(#paint0_linear)"/>
<path d="M137.794 43.8536C137.989 43.6583 137.989 43.3417 137.794 43.1465L134.612 39.9645C134.416 39.7692 134.1 39.7692 133.905 39.9645C133.709 40.1597 133.709 40.4763 133.905 40.6716L136.733 43.5L133.905 46.3284C133.709 46.5237 133.709 46.8403 133.905 47.0355C134.1 47.2308 134.416 47.2308 134.612 47.0355L137.794 43.8536ZM98.4897 44L137.44 44L137.44 43L98.4897 43L98.4897 44Z" fill="url(#paint1_linear)"/>
<rect x="57.6388" y="17.2589" width="40.6052" height="55.6052" fill="white"/>
<rect x="61.9811" y="24.7601" width="31.188" height="3.15828" stroke="url(#paint2_linear)" stroke-width="0.394785"/>
<rect x="61.9811" y="32.2609" width="31.188" height="3.15828" stroke="url(#paint3_linear)" stroke-width="0.394785"/>
<rect x="61.9811" y="39.7618" width="31.188" height="3.15828" stroke="url(#paint4_linear)" stroke-width="0.394785"/>
<rect x="61.9811" y="47.2626" width="31.188" height="3.15828" stroke="url(#paint5_linear)" stroke-width="0.394785"/>
<rect x="61.9811" y="54.7636" width="31.188" height="3.15828" stroke="url(#paint6_linear)" stroke-width="0.394785"/>
<rect x="61.9811" y="62.2645" width="31.188" height="3.15828" stroke="url(#paint7_linear)" stroke-width="0.394785"/>
<rect x="57.6388" y="17.2589" width="40.6052" height="55.6052" stroke="url(#paint8_linear)" stroke-width="0.394785"/>
<rect x="0.746077" y="0.304671" width="62.3907" height="86.3907" fill="white"/>
<rect x="7.44871" y="11.8821" width="48.138" height="4.87473" stroke="url(#paint9_linear)" stroke-width="0.609342"/>
<rect x="7.44871" y="23.4595" width="48.138" height="4.87473" stroke="url(#paint10_linear)" stroke-width="0.609342"/>
<rect x="7.44871" y="35.0371" width="48.138" height="4.87473" stroke="url(#paint11_linear)" stroke-width="0.609342"/>
<rect x="7.44871" y="46.6145" width="48.138" height="4.87473" stroke="url(#paint12_linear)" stroke-width="0.609342"/>
<rect x="7.44871" y="58.1916" width="48.138" height="4.87473" stroke="url(#paint13_linear)" stroke-width="0.609342"/>
<rect x="7.44871" y="69.7688" width="48.138" height="4.87473" stroke="url(#paint14_linear)" stroke-width="0.609342"/>
<rect x="0.746077" y="0.304671" width="62.3907" height="86.3907" stroke="url(#paint15_linear)" stroke-width="0.609342"/>
<path d="M189.15 27.6687L212.942 51.4604" stroke="url(#paint16_linear)" stroke-width="2" stroke-linecap="round"/>
<path d="M212.942 27.6687L189.15 51.4604" stroke="url(#paint17_linear)" stroke-width="2" stroke-linecap="round"/>
<defs>
<linearGradient id="paint0_linear" x1="132.181" y1="82.5769" x2="203.947" y2="-41.6983" gradientUnits="userSpaceOnUse">
<stop stop-color="#AB85FF"/>
<stop offset="0.526042" stop-color="#EBA3E3"/>
<stop offset="1" stop-color="#FFDBE4"/>
</linearGradient>
<linearGradient id="paint1_linear" x1="92.1538" y1="44.5999" x2="92.2011" y2="42.2192" gradientUnits="userSpaceOnUse">
<stop stop-color="#AB85FF"/>
<stop offset="0.526042" stop-color="#EBA3E3"/>
<stop offset="1" stop-color="#FFDBE4"/>
</linearGradient>
<linearGradient id="paint2_linear" x1="56.6462" y1="28.4706" x2="57.3771" y2="20.0723" gradientUnits="userSpaceOnUse">
<stop stop-color="#AB85FF"/>
<stop offset="0.526042" stop-color="#EBA3E3"/>
<stop offset="1" stop-color="#FFDBE4"/>
</linearGradient>
<linearGradient id="paint3_linear" x1="56.6462" y1="35.9714" x2="57.3771" y2="27.573" gradientUnits="userSpaceOnUse">
<stop stop-color="#AB85FF"/>
<stop offset="0.526042" stop-color="#EBA3E3"/>
<stop offset="1" stop-color="#FFDBE4"/>
</linearGradient>
<linearGradient id="paint4_linear" x1="56.6462" y1="43.4724" x2="57.3771" y2="35.074" gradientUnits="userSpaceOnUse">
<stop stop-color="#AB85FF"/>
<stop offset="0.526042" stop-color="#EBA3E3"/>
<stop offset="1" stop-color="#FFDBE4"/>
</linearGradient>
<linearGradient id="paint5_linear" x1="56.6462" y1="50.9731" x2="57.3771" y2="42.5748" gradientUnits="userSpaceOnUse">
<stop stop-color="#AB85FF"/>
<stop offset="0.526042" stop-color="#EBA3E3"/>
<stop offset="1" stop-color="#FFDBE4"/>
</linearGradient>
<linearGradient id="paint6_linear" x1="56.6462" y1="58.4741" x2="57.3771" y2="50.0757" gradientUnits="userSpaceOnUse">
<stop stop-color="#AB85FF"/>
<stop offset="0.526042" stop-color="#EBA3E3"/>
<stop offset="1" stop-color="#FFDBE4"/>
</linearGradient>
<linearGradient id="paint7_linear" x1="56.6462" y1="65.975" x2="57.3771" y2="57.5767" gradientUnits="userSpaceOnUse">
<stop stop-color="#AB85FF"/>
<stop offset="0.526042" stop-color="#EBA3E3"/>
<stop offset="1" stop-color="#FFDBE4"/>
</linearGradient>
<linearGradient id="paint8_linear" x1="50.7721" y1="78.6542" x2="117.356" y2="15.6385" gradientUnits="userSpaceOnUse">
<stop stop-color="#AB85FF"/>
<stop offset="0.526042" stop-color="#EBA3E3"/>
<stop offset="1" stop-color="#FFDBE4"/>
</linearGradient>
<linearGradient id="paint9_linear" x1="-0.785528" y1="17.6092" x2="0.342604" y2="4.64651" gradientUnits="userSpaceOnUse">
<stop stop-color="#AB85FF"/>
<stop offset="0.526042" stop-color="#EBA3E3"/>
<stop offset="1" stop-color="#FFDBE4"/>
</linearGradient>
<linearGradient id="paint10_linear" x1="-0.785528" y1="29.1866" x2="0.342604" y2="16.2239" gradientUnits="userSpaceOnUse">
<stop stop-color="#AB85FF"/>
<stop offset="0.526042" stop-color="#EBA3E3"/>
<stop offset="1" stop-color="#FFDBE4"/>
</linearGradient>
<linearGradient id="paint11_linear" x1="-0.785528" y1="40.7642" x2="0.342604" y2="27.8015" gradientUnits="userSpaceOnUse">
<stop stop-color="#AB85FF"/>
<stop offset="0.526042" stop-color="#EBA3E3"/>
<stop offset="1" stop-color="#FFDBE4"/>
</linearGradient>
<linearGradient id="paint12_linear" x1="-0.785528" y1="52.3416" x2="0.342604" y2="39.3789" gradientUnits="userSpaceOnUse">
<stop stop-color="#AB85FF"/>
<stop offset="0.526042" stop-color="#EBA3E3"/>
<stop offset="1" stop-color="#FFDBE4"/>
</linearGradient>
<linearGradient id="paint13_linear" x1="-0.785528" y1="63.9187" x2="0.342604" y2="50.9561" gradientUnits="userSpaceOnUse">
<stop stop-color="#AB85FF"/>
<stop offset="0.526042" stop-color="#EBA3E3"/>
<stop offset="1" stop-color="#FFDBE4"/>
</linearGradient>
<linearGradient id="paint14_linear" x1="-0.785528" y1="75.4959" x2="0.342604" y2="62.5332" gradientUnits="userSpaceOnUse">
<stop stop-color="#AB85FF"/>
<stop offset="0.526042" stop-color="#EBA3E3"/>
<stop offset="1" stop-color="#FFDBE4"/>
</linearGradient>
<linearGradient id="paint15_linear" x1="-9.8066" y1="95.6886" x2="93.567" y2="-1.07606" gradientUnits="userSpaceOnUse">
<stop stop-color="#AB85FF"/>
<stop offset="0.526042" stop-color="#EBA3E3"/>
<stop offset="1" stop-color="#FFDBE4"/>
</linearGradient>
<linearGradient id="paint16_linear" x1="185.28" y1="53.8365" x2="212.703" y2="18.3883" gradientUnits="userSpaceOnUse">
<stop stop-color="#AB85FF"/>
<stop offset="0.526042" stop-color="#EBA3E3"/>
<stop offset="1" stop-color="#FFDBE4"/>
</linearGradient>
<linearGradient id="paint17_linear" x1="216.812" y1="53.8365" x2="189.39" y2="18.3883" gradientUnits="userSpaceOnUse">
<stop stop-color="#AB85FF"/>
<stop offset="0.526042" stop-color="#EBA3E3"/>
<stop offset="1" stop-color="#FFDBE4"/>
</linearGradient>
</defs>
</svg>
