<svg width="243" height="94" viewBox="0 0 243 94" fill="none" xmlns="http://www.w3.org/2000/svg">
<rect x="173.25" y="19.4786" width="50" height="7" stroke="url(#paint0_linear)"/>
<rect x="173.25" y="37.4786" width="50" height="7" stroke="url(#paint1_linear)"/>
<rect x="173.25" y="55.4786" width="50" height="7" stroke="url(#paint2_linear)"/>
<rect x="166.25" y="1.47864" width="63" height="79" stroke="url(#paint3_linear)"/>
<g clip-path="url(#clip0)">
<path d="M236.081 85.7978L236.081 85.7948C236.094 83.886 235.379 82.4153 233.958 81.3684C232.831 80.5416 231.452 80.1013 230.024 79.6535L230.024 79.6533C228.567 79.194 227.535 78.8186 226.877 78.3412C226.532 78.0919 226.271 77.803 226.102 77.4458C225.935 77.0922 225.875 76.7078 225.875 76.2941C225.875 75.2175 226.566 74.5233 227.396 74.1254C228.215 73.7326 229.243 73.582 230.159 73.582C231.326 73.582 232.649 73.9032 233.634 74.4227L234.913 72.3625C233.85 71.7515 232.489 71.3272 231.133 71.1839L230.685 71.1366V70.6867V68.4786H228.364V70.8766V71.2751L227.975 71.364C225.199 71.9991 223.552 73.8405 223.552 76.2941C223.552 78.055 224.245 79.4194 225.612 80.3931L225.613 80.3936C226.682 81.1573 227.998 81.5759 229.362 82.0059C230.789 82.4546 231.889 82.8415 232.621 83.3807C233.001 83.6606 233.297 83.991 233.492 84.4029C233.685 84.8119 233.764 85.2689 233.761 85.7801C233.761 85.7802 233.761 85.7804 233.761 85.7806L233.761 85.7904L233.761 85.7932L233.261 85.7904L236.081 85.7978ZM236.081 85.7978C236.079 87.1036 235.602 88.2075 234.759 89.0462C233.911 89.8902 232.669 90.4879 231.112 90.7197L230.685 90.7832V91.2142V93.4787H228.364V91.1534V90.7427M236.081 85.7978L228.364 90.7427M228.364 90.7427L227.961 90.6629M228.364 90.7427L227.961 90.6629M227.961 90.6629C226.315 90.3372 224.764 89.5537 223.625 88.459L225.333 86.7785L227.961 90.6629Z" fill="url(#paint4_linear)" stroke="url(#paint5_linear)"/>
</g>
<rect x="8.25" y="19.4786" width="50" height="7" stroke="url(#paint6_linear)"/>
<rect x="8.25" y="37.4786" width="50" height="7" stroke="url(#paint7_linear)"/>
<rect x="8.25" y="55.4786" width="50" height="7" stroke="url(#paint8_linear)"/>
<rect x="1.25" y="1.47864" width="63" height="79" stroke="url(#paint9_linear)"/>
<g clip-path="url(#clip1)">
<path d="M71.0808 85.7978L71.0808 85.7948C71.0943 83.886 70.3787 82.4153 68.9576 81.3684C67.8314 80.5416 66.4522 80.1013 65.0244 79.6535L65.0237 79.6533C63.5669 79.194 62.5355 78.8186 61.8766 78.3412C61.5324 78.0919 61.2714 77.803 61.1022 77.4458C60.9348 77.0922 60.8746 76.7078 60.8746 76.2941C60.8746 75.2175 61.5663 74.5233 62.3959 74.1254C63.215 73.7326 64.243 73.582 65.1587 73.582C66.3262 73.582 67.6486 73.9032 68.6337 74.4227L69.9127 72.3625C68.8501 71.7515 67.4892 71.3272 66.1328 71.1839L65.6853 71.1366V70.6867V68.4786H63.364V70.8766V71.2751L62.9755 71.364C60.1994 71.9991 58.5517 73.8405 58.5517 76.2941C58.5517 78.055 59.2445 79.4194 60.6123 80.3931L60.613 80.3936C61.6818 81.1573 62.998 81.5759 64.362 82.0059C65.7892 82.4546 66.8893 82.8415 67.6212 83.3807C68.0011 83.6606 68.2968 83.991 68.4918 84.4029C68.6854 84.8119 68.7642 85.2689 68.7606 85.7801C68.7606 85.7802 68.7606 85.7804 68.7606 85.7806L68.7605 85.7904L68.7605 85.7932L68.2605 85.7904L71.0808 85.7978ZM71.0808 85.7978C71.0793 87.1036 70.6023 88.2075 69.7594 89.0462C68.9113 89.8902 67.6687 90.4879 66.1117 90.7197L65.6853 90.7832V91.2142V93.4787H63.3639V91.1534V90.7427M71.0808 85.7978L63.3639 90.7427M63.3639 90.7427L62.961 90.6629M63.3639 90.7427L62.961 90.6629M62.961 90.6629C61.3155 90.3372 59.7638 89.5537 58.6249 88.459L60.3332 86.7785L62.961 90.6629Z" fill="url(#paint10_linear)" stroke="url(#paint11_linear)"/>
</g>
<rect x="90.75" y="19.4786" width="50" height="7" stroke="url(#paint12_linear)"/>
<rect x="90.75" y="37.4786" width="50" height="7" stroke="url(#paint13_linear)"/>
<rect x="90.75" y="55.4786" width="50" height="7" stroke="url(#paint14_linear)"/>
<rect x="83.75" y="1.47864" width="63" height="79" stroke="url(#paint15_linear)"/>
<g clip-path="url(#clip2)">
<path d="M153.581 85.7978L153.581 85.7948C153.594 83.886 152.879 82.4153 151.458 81.3684C150.331 80.5416 148.952 80.1013 147.524 79.6535L147.524 79.6533C146.067 79.194 145.035 78.8186 144.377 78.3412C144.032 78.0919 143.771 77.803 143.602 77.4458C143.435 77.0922 143.375 76.7078 143.375 76.2941C143.375 75.2175 144.066 74.5233 144.896 74.1254C145.715 73.7326 146.743 73.582 147.659 73.582C148.826 73.582 150.149 73.9032 151.134 74.4227L152.413 72.3625C151.35 71.7515 149.989 71.3272 148.633 71.1839L148.185 71.1366V70.6867V68.4786H145.864V70.8766V71.2751L145.475 71.364C142.699 71.9991 141.052 73.8405 141.052 76.2941C141.052 78.055 141.745 79.4194 143.112 80.3931L143.113 80.3936C144.182 81.1573 145.498 81.5759 146.862 82.0059C148.289 82.4546 149.389 82.8415 150.121 83.3807C150.501 83.6606 150.797 83.991 150.992 84.4029C151.185 84.8119 151.264 85.2689 151.261 85.7801C151.261 85.7802 151.261 85.7804 151.261 85.7806L151.261 85.7904L151.261 85.7932L150.761 85.7904L153.581 85.7978ZM153.581 85.7978C153.579 87.1036 153.102 88.2075 152.259 89.0462C151.411 89.8902 150.169 90.4879 148.612 90.7197L148.185 90.7832V91.2142V93.4787H145.864V91.1534V90.7427M153.581 85.7978L145.864 90.7427M145.864 90.7427L145.461 90.6629M145.864 90.7427L145.461 90.6629M145.461 90.6629C143.815 90.3372 142.264 89.5537 141.125 88.459L142.833 86.7785L145.461 90.6629Z" fill="url(#paint16_linear)" stroke="url(#paint17_linear)"/>
</g>
<defs>
<linearGradient id="paint0_linear" x1="164.454" y1="27.7776" x2="166.732" y2="9.00134" gradientUnits="userSpaceOnUse">
<stop stop-color="#AB85FF"/>
<stop offset="0.526042" stop-color="#EBA3E3"/>
<stop offset="1" stop-color="#FFDBE4"/>
</linearGradient>
<linearGradient id="paint1_linear" x1="164.454" y1="45.7776" x2="166.732" y2="27.0013" gradientUnits="userSpaceOnUse">
<stop stop-color="#AB85FF"/>
<stop offset="0.526042" stop-color="#EBA3E3"/>
<stop offset="1" stop-color="#FFDBE4"/>
</linearGradient>
<linearGradient id="paint2_linear" x1="164.454" y1="63.7776" x2="166.732" y2="45.0013" gradientUnits="userSpaceOnUse">
<stop stop-color="#AB85FF"/>
<stop offset="0.526042" stop-color="#EBA3E3"/>
<stop offset="1" stop-color="#FFDBE4"/>
</linearGradient>
<linearGradient id="paint3_linear" x1="155.339" y1="88.9682" x2="250.549" y2="-9.49161" gradientUnits="userSpaceOnUse">
<stop stop-color="#AB85FF"/>
<stop offset="0.526042" stop-color="#EBA3E3"/>
<stop offset="1" stop-color="#FFDBE4"/>
</linearGradient>
<linearGradient id="paint4_linear" x1="220.698" y1="96.5753" x2="249.478" y2="77.0277" gradientUnits="userSpaceOnUse">
<stop stop-color="#AB85FF"/>
<stop offset="0.526042" stop-color="#EBA3E3"/>
<stop offset="1" stop-color="#FFDBE4"/>
</linearGradient>
<linearGradient id="paint5_linear" x1="220.698" y1="96.5753" x2="249.478" y2="77.0277" gradientUnits="userSpaceOnUse">
<stop stop-color="#AB85FF"/>
<stop offset="0.526042" stop-color="#EBA3E3"/>
<stop offset="1" stop-color="#FFDBE4"/>
</linearGradient>
<linearGradient id="paint6_linear" x1="-0.546005" y1="27.7776" x2="1.73246" y2="9.00134" gradientUnits="userSpaceOnUse">
<stop stop-color="#AB85FF"/>
<stop offset="0.526042" stop-color="#EBA3E3"/>
<stop offset="1" stop-color="#FFDBE4"/>
</linearGradient>
<linearGradient id="paint7_linear" x1="-0.546005" y1="45.7776" x2="1.73246" y2="27.0013" gradientUnits="userSpaceOnUse">
<stop stop-color="#AB85FF"/>
<stop offset="0.526042" stop-color="#EBA3E3"/>
<stop offset="1" stop-color="#FFDBE4"/>
</linearGradient>
<linearGradient id="paint8_linear" x1="-0.546005" y1="63.7776" x2="1.73246" y2="45.0013" gradientUnits="userSpaceOnUse">
<stop stop-color="#AB85FF"/>
<stop offset="0.526042" stop-color="#EBA3E3"/>
<stop offset="1" stop-color="#FFDBE4"/>
</linearGradient>
<linearGradient id="paint9_linear" x1="-9.66067" y1="88.9682" x2="85.5494" y2="-9.49161" gradientUnits="userSpaceOnUse">
<stop stop-color="#AB85FF"/>
<stop offset="0.526042" stop-color="#EBA3E3"/>
<stop offset="1" stop-color="#FFDBE4"/>
</linearGradient>
<linearGradient id="paint10_linear" x1="55.6977" y1="96.5753" x2="84.4781" y2="77.0277" gradientUnits="userSpaceOnUse">
<stop stop-color="#AB85FF"/>
<stop offset="0.526042" stop-color="#EBA3E3"/>
<stop offset="1" stop-color="#FFDBE4"/>
</linearGradient>
<linearGradient id="paint11_linear" x1="55.6977" y1="96.5753" x2="84.4781" y2="77.0277" gradientUnits="userSpaceOnUse">
<stop stop-color="#AB85FF"/>
<stop offset="0.526042" stop-color="#EBA3E3"/>
<stop offset="1" stop-color="#FFDBE4"/>
</linearGradient>
<linearGradient id="paint12_linear" x1="81.954" y1="27.7776" x2="84.2325" y2="9.00134" gradientUnits="userSpaceOnUse">
<stop stop-color="#AB85FF"/>
<stop offset="0.526042" stop-color="#EBA3E3"/>
<stop offset="1" stop-color="#FFDBE4"/>
</linearGradient>
<linearGradient id="paint13_linear" x1="81.954" y1="45.7776" x2="84.2325" y2="27.0013" gradientUnits="userSpaceOnUse">
<stop stop-color="#AB85FF"/>
<stop offset="0.526042" stop-color="#EBA3E3"/>
<stop offset="1" stop-color="#FFDBE4"/>
</linearGradient>
<linearGradient id="paint14_linear" x1="81.954" y1="63.7776" x2="84.2325" y2="45.0013" gradientUnits="userSpaceOnUse">
<stop stop-color="#AB85FF"/>
<stop offset="0.526042" stop-color="#EBA3E3"/>
<stop offset="1" stop-color="#FFDBE4"/>
</linearGradient>
<linearGradient id="paint15_linear" x1="72.8393" y1="88.9682" x2="168.049" y2="-9.49161" gradientUnits="userSpaceOnUse">
<stop stop-color="#AB85FF"/>
<stop offset="0.526042" stop-color="#EBA3E3"/>
<stop offset="1" stop-color="#FFDBE4"/>
</linearGradient>
<linearGradient id="paint16_linear" x1="138.198" y1="96.5753" x2="166.978" y2="77.0277" gradientUnits="userSpaceOnUse">
<stop stop-color="#AB85FF"/>
<stop offset="0.526042" stop-color="#EBA3E3"/>
<stop offset="1" stop-color="#FFDBE4"/>
</linearGradient>
<linearGradient id="paint17_linear" x1="138.198" y1="96.5753" x2="166.978" y2="77.0277" gradientUnits="userSpaceOnUse">
<stop stop-color="#AB85FF"/>
<stop offset="0.526042" stop-color="#EBA3E3"/>
<stop offset="1" stop-color="#FFDBE4"/>
</linearGradient>
<clipPath id="clip0">
<rect width="25" height="26" fill="white" transform="translate(217.25 67.9786)"/>
</clipPath>
<clipPath id="clip1">
<rect width="25" height="26" fill="white" transform="translate(52.25 67.9786)"/>
</clipPath>
<clipPath id="clip2">
<rect width="25" height="26" fill="white" transform="translate(134.75 67.9786)"/>
</clipPath>
</defs>
</svg>
