<svg width="342" height="181" viewBox="0 0 342 181" fill="none" xmlns="http://www.w3.org/2000/svg">
<rect width="341" height="180" transform="translate(0.96875 0.5)" fill="#F5F5F5"/>
<path d="M240.511 45.3711L298.716 135.985H182.305L240.511 45.3711Z" fill="#A57CFE"/>
<path d="M210.657 127.092L245.681 72.5674H175.633L210.657 127.092Z" fill="#8052E4"/>
<path d="M264.726 135.629V62.6289M264.726 62.6289L263.761 64.6289M264.726 62.6289L265.691 64.6289" stroke="black"/>
<path d="M280.762 135.629V33.6289M280.762 33.6289L279.762 36.4234M280.762 33.6289L281.762 36.4234" stroke="black"/>
<path d="M248.762 135.629V89.6289M248.762 89.6289L247.762 90.8892M248.762 89.6289L249.762 90.8892" stroke="black"/>
<path d="M296.762 135.629V102.629M296.762 102.629L295.762 103.533M296.762 102.629L297.762 103.533" stroke="black"/>
<circle r="38" transform="matrix(-1 0 0 1 96.0156 90.5)" fill="#AB85FF"/>
<circle r="38" transform="matrix(-1 0 0 1 96.0156 90.5)" fill="#31D67B"/>
<path d="M38.8148 84.8389L38.1365 84.1041L38.1319 84.1085L38.8148 84.8389ZM50.4248 84.8389L49.7418 85.5693L49.7466 85.5737L50.4248 84.8389ZM50.4248 102.419L49.7466 101.684L49.7419 101.688L50.4248 102.419ZM38.8148 102.419L38.1318 103.149L38.1366 103.154L38.8148 102.419ZM41.6048 99.7789L40.9258 100.513L40.9353 100.522L40.945 100.53L41.6048 99.7789ZM47.6648 99.7789L48.3246 100.53L48.3347 100.521L48.3446 100.512L47.6648 99.7789ZM47.6648 87.5089L46.9858 88.243L46.9953 88.2518L47.005 88.2603L47.6648 87.5089ZM41.6048 87.5089L42.2739 88.2523L42.2839 88.243L41.6048 87.5089ZM37.5048 97.0189V90.2389H35.5048V97.0189H37.5048ZM37.5048 90.2389C37.5048 88.3481 38.1656 86.8151 39.4978 85.5693L38.1319 84.1085C36.3841 85.7428 35.5048 87.8097 35.5048 90.2389H37.5048ZM39.4931 85.5737C40.8506 84.3207 42.5409 83.6789 44.6348 83.6789V81.6789C42.0888 81.6789 39.8991 82.4771 38.1366 84.1041L39.4931 85.5737ZM44.6348 83.6789C46.7289 83.6789 48.4064 84.3206 49.7419 85.5693L51.1078 84.1085C49.3633 82.4772 47.1808 81.6789 44.6348 81.6789V83.6789ZM49.7466 85.5737C51.0975 86.8207 51.7648 88.3525 51.7648 90.2389H53.7648C53.7648 87.8053 52.8722 85.7371 51.1031 84.1041L49.7466 85.5737ZM51.7648 90.2389V97.0189H53.7648V90.2389H51.7648ZM51.7648 97.0189C51.7648 98.9053 51.0975 100.437 49.7466 101.684L51.1031 103.154C52.8722 101.521 53.7648 99.4525 53.7648 97.0189H51.7648ZM49.7419 101.688C48.4064 102.937 46.7289 103.579 44.6348 103.579V105.579C47.1808 105.579 49.3633 104.781 51.1078 103.149L49.7419 101.688ZM44.6348 103.579C42.5409 103.579 40.8506 102.937 39.4931 101.684L38.1366 103.154C39.8991 104.781 42.0888 105.579 44.6348 105.579V103.579ZM39.4978 101.688C38.1656 100.443 37.5048 98.9097 37.5048 97.0189H35.5048C35.5048 99.4481 36.3841 101.515 38.1319 103.149L39.4978 101.688ZM39.4048 90.1789V97.0789H41.4048V90.1789H39.4048ZM39.4048 97.0789C39.4048 98.4264 39.9277 99.5898 40.9258 100.513L42.2839 99.0448C41.682 98.4881 41.4048 97.8514 41.4048 97.0789H39.4048ZM40.945 100.53C41.9662 101.427 43.2181 101.859 44.6348 101.859V99.8589C43.6516 99.8589 42.8835 99.5708 42.2646 99.0275L40.945 100.53ZM44.6348 101.859C46.0516 101.859 47.3035 101.427 48.3246 100.53L47.005 99.0275C46.3862 99.5708 45.6181 99.8589 44.6348 99.8589V101.859ZM48.3446 100.512C49.3516 99.579 49.8948 98.4199 49.8948 97.0789H47.8948C47.8948 97.818 47.618 98.4588 46.9851 99.0455L48.3446 100.512ZM49.8948 97.0789V90.1789H47.8948V97.0789H49.8948ZM49.8948 90.1789C49.8948 88.8216 49.3536 87.6609 48.3246 86.7575L47.005 88.2603C47.6161 88.7969 47.8948 89.4162 47.8948 90.1789H49.8948ZM48.3439 86.7748C47.3365 85.843 46.0741 85.3989 44.6348 85.3989V87.3989C45.6356 87.3989 46.3932 87.6948 46.9858 88.243L48.3439 86.7748ZM44.6348 85.3989C43.1956 85.3989 41.9332 85.843 40.9258 86.7748L42.2839 88.243C42.8765 87.6948 43.6341 87.3989 44.6348 87.3989V85.3989ZM40.9359 86.7656C39.9289 87.6719 39.4048 88.8305 39.4048 90.1789H41.4048C41.4048 89.4073 41.6808 88.7859 42.2738 88.2522L40.9359 86.7656ZM66.6227 87.8989H67.6227V86.2868L66.1785 87.003L66.6227 87.8989ZM62.9927 89.6989L62.089 90.127L62.5248 91.0471L63.437 90.5948L62.9927 89.6989ZM61.3727 86.2789L60.9289 85.3828L60.0483 85.8189L60.469 86.707L61.3727 86.2789ZM67.7327 83.1289V82.1289H67.4987L67.2889 82.2328L67.7327 83.1289ZM70.5227 83.1289H71.5227V82.1289H70.5227V83.1289ZM70.5227 104.129V105.129H71.5227V104.129H70.5227ZM66.6227 104.129H65.6227V105.129H66.6227V104.129ZM66.1785 87.003L62.5485 88.803L63.437 90.5948L67.067 88.7948L66.1785 87.003ZM63.8965 89.2708L62.2765 85.8508L60.469 86.707L62.089 90.127L63.8965 89.2708ZM61.8166 87.175L68.1766 84.025L67.2889 82.2328L60.9289 85.3828L61.8166 87.175ZM67.7327 84.1289H70.5227V82.1289H67.7327V84.1289ZM69.5227 83.1289V104.129H71.5227V83.1289H69.5227ZM70.5227 103.129H66.6227V105.129H70.5227V103.129ZM67.6227 104.129V87.8989H65.6227V104.129H67.6227ZM90.5944 87.2389L89.9359 87.9915L89.9471 88.0013L89.9587 88.0108L90.5944 87.2389ZM85.7944 87.2389L86.4052 88.0307L86.4083 88.0283L85.7944 87.2389ZM84.2044 89.4589L83.7753 90.3622L84.7517 90.8259L85.1382 89.8166L84.2044 89.4589ZM80.6044 87.7489L79.6877 87.3493L79.3008 88.2368L80.1753 88.6522L80.6044 87.7489ZM83.6644 84.0589L84.2163 84.8929L84.2247 84.8872L83.6644 84.0589ZM93.4744 84.5689L92.8053 85.3123L92.8159 85.3215L93.4744 84.5689ZM94.5544 92.5189L95.404 93.0463L95.408 93.0398L94.5544 92.5189ZM91.1344 96.5089L91.8227 97.2343L91.8275 97.2297L91.1344 96.5089ZM87.0244 100.409L86.336 99.6835L84.5177 101.409H87.0244V100.409ZM95.8144 100.409H96.8144V99.4089H95.8144V100.409ZM95.8144 104.129V105.129H96.8144V104.129H95.8144ZM81.0244 104.129H80.0244V105.129H81.0244V104.129ZM81.0244 101.219L80.3344 100.495L80.0244 100.791V101.219H81.0244ZM88.7344 93.8689L89.4244 94.5927L89.4302 94.5871L88.7344 93.8689ZM92.6144 89.2489C92.6144 88.1291 92.1071 87.1893 91.2301 86.467L89.9587 88.0108C90.4416 88.4086 90.6144 88.8087 90.6144 89.2489H92.6144ZM91.2529 86.4863C90.4109 85.7496 89.3792 85.3989 88.2244 85.3989V87.3989C88.9496 87.3989 89.4978 87.6082 89.9359 87.9915L91.2529 86.4863ZM88.2244 85.3989C87.0988 85.3989 86.0734 85.755 85.1804 86.4496L86.4083 88.0283C86.9553 87.6028 87.55 87.3989 88.2244 87.3989V85.3989ZM85.1836 86.4471C84.3187 87.1143 83.6869 88.0139 83.2705 89.1013L85.1382 89.8166C85.4418 89.0239 85.87 88.4435 86.4052 88.0307L85.1836 86.4471ZM84.6334 88.5556L81.0334 86.8456L80.1753 88.6522L83.7753 90.3622L84.6334 88.5556ZM81.5211 88.1485C82.1275 86.7573 83.0244 85.6815 84.2162 84.8928L83.1125 83.225C81.5843 84.2363 80.4413 85.6205 79.6877 87.3493L81.5211 88.1485ZM84.2247 84.8872C85.4152 84.0818 86.7392 83.6789 88.2244 83.6789V81.6789C86.3496 81.6789 84.6335 82.196 83.1041 83.2306L84.2247 84.8872ZM88.2244 83.6789C90.1079 83.6789 91.6106 84.2368 92.8054 85.3122L94.1433 83.8256C92.5382 82.381 90.5408 81.6789 88.2244 81.6789V83.6789ZM92.8159 85.3215C94.0572 86.4077 94.6344 87.6608 94.6344 89.1289H96.6344C96.6344 87.037 95.7715 85.2501 94.1329 83.8163L92.8159 85.3215ZM94.6344 89.1289C94.6344 89.9803 94.3514 90.9317 93.7007 91.998L95.408 93.0398C96.1973 91.7462 96.6344 90.4375 96.6344 89.1289H94.6344ZM93.7047 91.9915C93.0465 93.0521 91.9718 94.3164 90.4413 95.7881L91.8275 97.2297C93.4169 95.7014 94.6223 94.3058 95.404 93.0463L93.7047 91.9915ZM90.446 95.7835L86.336 99.6835L87.7127 101.134L91.8227 97.2343L90.446 95.7835ZM87.0244 101.409H95.8144V99.4089H87.0244V101.409ZM94.8144 100.409V104.129H96.8144V100.409H94.8144ZM95.8144 103.129H81.0244V105.129H95.8144V103.129ZM82.0244 104.129V101.219H80.0244V104.129H82.0244ZM81.7144 101.943L89.4244 94.5927L88.0444 93.1451L80.3344 100.495L81.7144 101.943ZM89.4302 94.5871C90.4239 93.6245 91.2049 92.7111 91.743 91.8479C92.2768 90.9916 92.6144 90.116 92.6144 89.2489H90.6144C90.6144 89.6018 90.4719 90.1063 90.0458 90.7899C89.6239 91.4667 88.9649 92.2533 88.0386 93.1507L89.4302 94.5871ZM113.967 87.1489L114.559 86.3433V86.3433L113.967 87.1489ZM109.077 86.9389L109.546 87.8221L109.556 87.8168L109.077 86.9389ZM107.667 88.2889L107.238 89.1923L108.098 89.6007L108.548 88.7611L107.667 88.2889ZM104.127 86.6089L103.238 86.1499L102.763 87.0688L103.698 87.5123L104.127 86.6089ZM107.007 83.7589L107.481 84.6394L107.491 84.6337L107.007 83.7589ZM116.847 84.4489L116.218 85.2266L116.219 85.2277L116.847 84.4489ZM116.757 93.2389L116.138 92.453L115.037 93.3194L116.215 94.0792L116.757 93.2389ZM117.267 102.749L116.641 101.969L117.267 102.749ZM106.707 103.289L106.175 104.136L106.183 104.141L106.707 103.289ZM103.857 99.8689L103.525 98.9256L102.577 99.2592L102.915 100.205L103.857 99.8689ZM107.607 98.5489L108.558 98.2411L108.242 97.265L107.275 97.6056L107.607 98.5489ZM109.017 100.229L108.495 101.082L108.504 101.088L108.513 101.093L109.017 100.229ZM114.387 100.049L114.966 100.864L114.973 100.859L114.98 100.854L114.387 100.049ZM114.387 95.9689L113.797 96.7767L113.81 96.7856L113.822 96.7942L114.387 95.9689ZM110.067 95.1589H109.067V96.1589H110.067V95.1589ZM110.067 91.6489V90.6489H109.067V91.6489H110.067ZM115.987 88.9789C115.987 87.8833 115.445 86.9948 114.559 86.3433L113.374 87.9546C113.848 88.303 113.987 88.6345 113.987 88.9789H115.987ZM114.559 86.3433C113.668 85.6878 112.575 85.3989 111.357 85.3989V87.3989C112.259 87.3989 112.906 87.61 113.374 87.9546L114.559 86.3433ZM111.357 85.3989C110.354 85.3989 109.425 85.61 108.598 86.061L109.556 87.8168C110.049 87.5478 110.64 87.3989 111.357 87.3989V85.3989ZM108.608 86.0558C107.818 86.4753 107.192 87.0581 106.785 87.8167L108.548 88.7611C108.742 88.3997 109.056 88.0825 109.546 87.822L108.608 86.0558ZM108.095 87.3855L104.555 85.7055L103.698 87.5123L107.238 89.1923L108.095 87.3855ZM105.015 87.0679C105.534 86.0636 106.341 85.2532 107.481 84.6394L106.533 82.8784C105.072 83.6647 103.959 84.7542 103.238 86.1499L105.015 87.0679ZM107.491 84.6337C108.63 84.0031 109.921 83.6789 111.387 83.6789V81.6789C109.613 81.6789 107.984 82.0747 106.522 82.8841L107.491 84.6337ZM111.387 83.6789C113.377 83.6789 114.964 84.213 116.218 85.2266L117.475 83.6712C115.809 82.3248 113.757 81.6789 111.387 81.6789V83.6789ZM116.219 85.2277C117.434 86.2064 118.007 87.3948 118.007 88.8589H120.007C120.007 86.763 119.139 85.0114 117.474 83.6702L116.219 85.2277ZM118.007 88.8589C118.007 90.2598 117.424 91.4415 116.138 92.453L117.375 94.0249C119.089 92.6763 120.007 90.938 120.007 88.8589H118.007ZM116.215 94.0792C117.815 95.1114 118.547 96.4378 118.547 98.1289H120.547C120.547 95.7 119.419 93.7664 117.299 92.3986L116.215 94.0792ZM118.547 98.1289C118.547 99.6693 117.937 100.928 116.641 101.969L117.893 103.529C119.636 102.129 120.547 100.309 120.547 98.1289H118.547ZM116.641 101.969C115.326 103.024 113.667 103.579 111.597 103.579V105.579C114.046 105.579 116.168 104.913 117.893 103.529L116.641 101.969ZM111.597 103.579C109.897 103.579 108.453 103.188 107.23 102.437L106.183 104.141C107.761 105.11 109.577 105.579 111.597 105.579V103.579ZM107.239 102.442C106.006 101.667 105.215 100.698 104.798 99.5326L102.915 100.205C103.499 101.84 104.607 103.15 106.175 104.136L107.239 102.442ZM104.189 100.812L107.939 99.4922L107.275 97.6056L103.525 98.9256L104.189 100.812ZM106.655 98.8567C106.962 99.8038 107.61 100.541 108.495 101.082L109.538 99.3756C108.983 99.0366 108.692 98.654 108.558 98.2411L106.655 98.8567ZM108.513 101.093C109.411 101.616 110.441 101.859 111.567 101.859V99.8589C110.732 99.8589 110.063 99.6813 109.521 99.3651L108.513 101.093ZM111.567 101.859C112.852 101.859 114.005 101.547 114.966 100.864L113.808 99.2337C113.248 99.6309 112.522 99.8589 111.567 99.8589V101.859ZM114.98 100.854C115.959 100.132 116.527 99.1494 116.527 97.9489H114.527C114.527 98.4284 114.334 98.8455 113.794 99.2439L114.98 100.854ZM116.527 97.9489C116.527 96.765 115.936 95.8174 114.951 95.1436L113.822 96.7942C114.357 97.1604 114.527 97.5328 114.527 97.9489H116.527ZM114.976 95.1611C114.036 94.475 112.91 94.1589 111.657 94.1589V96.1589C112.564 96.1589 113.257 96.3828 113.797 96.7767L114.976 95.1611ZM111.657 94.1589H110.067V96.1589H111.657V94.1589ZM111.067 95.1589V91.6489H109.067V95.1589H111.067ZM110.067 92.6489H111.147V90.6489H110.067V92.6489ZM111.147 92.6489C112.384 92.6489 113.499 92.3608 114.437 91.7275L113.317 90.0703C112.774 90.437 112.07 90.6489 111.147 90.6489V92.6489ZM114.437 91.7275C115.405 91.0729 115.987 90.1434 115.987 88.9789H113.987C113.987 89.3744 113.828 89.7249 113.317 90.0703L114.437 91.7275ZM138.625 104.129H137.625V105.129H138.625V104.129ZM138.625 100.109H139.625V99.1089H138.625V100.109ZM127.735 100.109H126.735V101.109H127.735V100.109ZM127.735 96.3889L126.967 95.748L126.735 96.0264V96.3889H127.735ZM138.805 83.1289V82.1289H138.337L138.037 82.488L138.805 83.1289ZM142.495 83.1289H143.495V82.1289H142.495V83.1289ZM142.495 96.3889H141.495V97.3889H142.495V96.3889ZM145.165 96.3889H146.165V95.3889H145.165V96.3889ZM145.165 100.109V101.109H146.165V100.109H145.165ZM142.495 100.109V99.1089H141.495V100.109H142.495ZM142.495 104.129V105.129H143.495V104.129H142.495ZM138.625 88.9189H139.625V86.162L137.857 88.2778L138.625 88.9189ZM132.385 96.3889L131.617 95.7478L130.247 97.3889H132.385V96.3889ZM138.625 96.3889V97.3889H139.625V96.3889H138.625ZM139.625 104.129V100.109H137.625V104.129H139.625ZM138.625 99.1089H127.735V101.109H138.625V99.1089ZM128.735 100.109V96.3889H126.735V100.109H128.735ZM128.502 97.0298L139.572 83.7698L138.037 82.488L126.967 95.748L128.502 97.0298ZM138.805 84.1289H142.495V82.1289H138.805V84.1289ZM141.495 83.1289V96.3889H143.495V83.1289H141.495ZM142.495 97.3889H145.165V95.3889H142.495V97.3889ZM144.165 96.3889V100.109H146.165V96.3889H144.165ZM145.165 99.1089H142.495V101.109H145.165V99.1089ZM141.495 100.109V104.129H143.495V100.109H141.495ZM142.495 103.129H138.625V105.129H142.495V103.129ZM137.857 88.2778L131.617 95.7478L133.152 97.03L139.392 89.56L137.857 88.2778ZM132.385 97.3889H138.625V95.3889H132.385V97.3889ZM139.625 96.3889V88.9189H137.625V96.3889H139.625ZM166.631 102.539L167.293 103.288L167.299 103.284L166.631 102.539ZM156.041 103.139L155.468 103.958L155.476 103.964L156.041 103.139ZM153.041 99.2089L152.78 98.2438L151.728 98.5291L152.102 99.5525L153.041 99.2089ZM156.911 98.1589L157.838 97.7837L157.506 96.9615L156.65 97.1938L156.911 98.1589ZM158.501 100.139L157.947 100.971L158.501 100.139ZM163.751 99.8689L163.106 99.1055L163.096 99.1139L163.086 99.1226L163.751 99.8689ZM163.631 94.8589L162.993 95.6287L163.002 95.6361L163.011 95.6433L163.631 94.8589ZM154.631 93.8389L153.637 93.7386L153.526 94.8389H154.631V93.8389ZM155.711 83.1289V82.1289H154.807L154.717 83.0286L155.711 83.1289ZM167.141 83.1289H168.141V82.1289H167.141V83.1289ZM167.141 86.6989V87.6989H168.141V86.6989H167.141ZM158.921 86.6989V85.6989H158.009L157.926 86.6076L158.921 86.6989ZM158.591 90.2989L157.596 90.2076L157.496 91.2989H158.591V90.2989ZM166.571 92.3389L165.919 93.0968L165.925 93.1016L166.571 92.3389ZM167.941 97.4389C167.941 99.1671 167.298 100.599 165.964 101.794L167.299 103.284C169.045 101.719 169.941 99.7507 169.941 97.4389H167.941ZM165.97 101.789C164.633 102.97 162.966 103.579 160.901 103.579V105.579C163.397 105.579 165.55 104.828 167.293 103.288L165.97 101.789ZM160.901 103.579C159.246 103.579 157.826 103.15 156.607 102.314L155.476 103.964C157.057 105.047 158.877 105.579 160.901 105.579V103.579ZM156.615 102.32C155.387 101.46 154.512 100.318 153.981 98.8653L152.102 99.5525C152.771 101.38 153.896 102.858 155.468 103.958L156.615 102.32ZM153.303 100.174L157.173 99.124L156.65 97.1938L152.78 98.2438L153.303 100.174ZM155.985 98.5341C156.396 99.551 157.051 100.374 157.947 100.971L159.056 99.3069C158.512 98.9437 158.107 98.4468 157.838 97.7837L155.985 98.5341ZM157.947 100.971C158.838 101.565 159.842 101.859 160.931 101.859V99.8589C160.221 99.8589 159.605 99.6728 159.056 99.3069L157.947 100.971ZM160.931 101.859C162.278 101.859 163.467 101.463 164.417 100.615L163.086 99.1226C162.556 99.5949 161.865 99.8589 160.931 99.8589V101.859ZM164.397 100.632C165.386 99.7962 165.921 98.714 165.921 97.4389H163.921C163.921 98.0838 163.677 98.6216 163.106 99.1055L164.397 100.632ZM165.921 97.4389C165.921 96.0745 165.337 94.9323 164.252 94.0745L163.011 95.6433C163.646 96.1456 163.921 96.7234 163.921 97.4389H165.921ZM164.27 94.0891C163.236 93.2318 161.946 92.8389 160.481 92.8389V94.8389C161.577 94.8389 162.387 95.126 162.993 95.6287L164.27 94.0891ZM160.481 92.8389H154.631V94.8389H160.481V92.8389ZM155.626 93.9392L156.706 83.2292L154.717 83.0286L153.637 93.7386L155.626 93.9392ZM155.711 84.1289H167.141V82.1289H155.711V84.1289ZM166.141 83.1289V86.6989H168.141V83.1289H166.141ZM167.141 85.6989H158.921V87.6989H167.141V85.6989ZM157.926 86.6076L157.596 90.2076L159.587 90.3902L159.917 86.7902L157.926 86.6076ZM158.591 91.2989H160.691V89.2989H158.591V91.2989ZM160.691 91.2989C162.823 91.2989 164.543 91.9123 165.919 93.0968L167.224 91.581C165.44 90.0455 163.24 89.2989 160.691 89.2989V91.2989ZM165.925 93.1016C167.282 94.2528 167.941 95.6746 167.941 97.4389H169.941C169.941 95.0832 169.021 93.105 167.218 91.5763L165.925 93.1016Z" fill="black"/>
</svg>
