<svg width="341" height="180" viewBox="0 0 341 180" fill="none" xmlns="http://www.w3.org/2000/svg">
<rect width="341" height="180" fill="#F5F5F5"/>
<path d="M61.0545 24.0154L21.0322 69.1755H135.551L172.8 24.0154H61.0545Z" fill="#31D67B"/>
<mask id="mask0" mask-type="alpha" maskUnits="userSpaceOnUse" x="21" y="24" width="152" height="46">
<path d="M61.0545 24.0154L21.0322 69.1755H135.551L172.8 24.0154H61.0545Z" fill="#31D67B"/>
</mask>
<g mask="url(#mask0)">
<path d="M266.39 25.6283C193.328 -3.36456 141.14 -3.36456 109.828 25.6283C78.5156 54.6212 26.3284 54.6212 -46.7337 25.6283" stroke="#4AE991" stroke-width="2"/>
<path d="M257.237 81.1523C201.227 37.5405 151.744 26.0252 108.789 46.6065C65.8335 67.1877 16.3507 55.6724 -39.6595 12.0606" stroke="#4AE991" stroke-width="2"/>
<path d="M263.301 61.983C187.184 37.0663 135.158 39.9138 107.223 70.5256C79.2878 101.137 27.2619 103.985 -48.8547 79.0683" stroke="#4AE991" stroke-width="2"/>
</g>
<path d="M128.626 90.7161L70.7827 155.985H236.294L290.128 90.7161H128.626Z" fill="#AB85FF"/>
<mask id="mask1" mask-type="alpha" maskUnits="userSpaceOnUse" x="70" y="90" width="221" height="66">
<path d="M128.626 90.7161L70.7827 155.985H236.294L290.128 90.7161H128.626Z" fill="#AB85FF"/>
</mask>
<g mask="url(#mask1)">
<path d="M425.39 93.0472C319.796 51.1447 244.371 51.1447 199.116 93.0472C153.862 134.95 78.4371 134.95 -27.1573 93.0472" stroke="#C9AEFF"/>
<path d="M412.162 173.294C331.212 110.263 259.696 93.6207 197.614 123.366C135.532 153.112 64.0165 136.469 -16.9334 73.4381" stroke="#C9AEFF"/>
<path d="M420.926 145.59C310.917 109.578 235.725 113.694 195.351 157.936C154.978 202.178 79.7863 206.294 -30.2227 170.282" stroke="#C9AEFF"/>
</g>
<path d="M264.795 60.6053C264.795 55.74 262.862 51.0739 259.422 47.6336C255.981 44.1933 251.315 42.2605 246.45 42.2605C241.584 42.2605 236.918 44.1933 233.478 47.6336C230.038 51.0739 228.105 55.74 228.105 60.6053L246.45 60.6053H264.795Z" fill="#8052E4"/>
<path d="M237.714 60.6053C237.714 57.3617 236.472 54.251 234.26 51.9575C232.048 49.6639 229.049 48.3754 225.921 48.3754C222.793 48.3754 219.794 49.6639 217.582 51.9575C215.37 54.251 214.128 57.3617 214.128 60.6053L225.921 60.6053H237.714Z" fill="#8052E4"/>
<path d="M290.128 60.6053C290.128 57.3617 288.333 54.251 285.139 51.9575C281.944 49.6639 277.611 48.3754 273.094 48.3754C268.576 48.3754 264.243 49.6639 261.048 51.9575C257.854 54.251 256.059 57.3617 256.059 60.6053L273.094 60.6053H290.128Z" fill="#8052E4"/>
<path d="M161.755 86.8555L156.395 88.4155C156.182 87.6689 155.649 87.0289 154.795 86.4955C153.942 85.9622 152.969 85.6955 151.875 85.6955C150.702 85.6955 149.702 85.9889 148.875 86.5755C148.049 87.1355 147.635 87.8289 147.635 88.6555C147.635 89.6955 148.489 90.5755 150.195 91.2955C150.889 91.5889 152.422 92.0822 154.795 92.7755C156.529 93.2555 157.915 93.7755 158.955 94.3355C159.782 94.7622 160.449 95.2555 160.955 95.8155C162.209 97.1222 162.835 98.8155 162.835 100.896C162.835 103.589 161.862 105.749 159.915 107.376C157.995 108.976 155.502 109.776 152.435 109.776C149.662 109.776 147.289 109.136 145.315 107.856C143.342 106.522 142.062 104.896 141.475 102.976L146.835 101.376C147.049 102.282 147.675 103.056 148.715 103.696C149.782 104.309 151.022 104.616 152.435 104.616C153.875 104.616 155.075 104.322 156.035 103.736C156.995 103.122 157.475 102.336 157.475 101.376C157.475 100.682 157.142 100.029 156.475 99.4155C156.209 99.2022 155.822 98.9755 155.315 98.7355C154.889 98.5222 154.142 98.2422 153.075 97.8955C149.742 96.9089 147.489 96.1089 146.315 95.4955C143.622 94.0555 142.275 91.9089 142.275 89.0555C142.275 86.5222 143.155 84.4822 144.915 82.9355C146.729 81.3622 149.022 80.5755 151.795 80.5755C154.249 80.5755 156.382 81.1755 158.195 82.3755C160.009 83.5489 161.195 85.0422 161.755 86.8555ZM166.728 81.1755H187.368V86.1355H172.088V92.5355H185.168V97.4955H172.088V104.216H187.568V109.176H166.728V81.1755ZM204.318 80.5755C208.532 80.5755 212.012 81.9755 214.758 84.7755C217.558 87.5222 218.958 90.9889 218.958 95.1755C218.958 99.3355 217.558 102.816 214.758 105.616C211.985 108.389 208.505 109.776 204.318 109.776C200.185 109.776 196.705 108.389 193.878 105.616C191.105 102.789 189.718 99.3089 189.718 95.1755C189.718 91.0155 191.105 87.5489 193.878 84.7755C196.678 81.9755 200.158 80.5755 204.318 80.5755ZM197.878 88.4555C196.172 90.2422 195.318 92.4822 195.318 95.1755C195.318 97.8689 196.172 100.109 197.878 101.896C199.585 103.682 201.732 104.576 204.318 104.576C206.905 104.576 209.052 103.682 210.758 101.896C212.492 100.082 213.358 97.8422 213.358 95.1755C213.358 92.5089 212.492 90.2689 210.758 88.4555C209.025 86.6422 206.878 85.7355 204.318 85.7355C201.758 85.7355 199.612 86.6422 197.878 88.4555Z" fill="#F5F5F5"/>
<path d="M161.755 86.8555L162.035 87.8157L163.011 87.5317L162.711 86.5605L161.755 86.8555ZM156.395 88.4155L155.434 88.6903L155.71 89.6565L156.675 89.3757L156.395 88.4155ZM148.875 86.5755L149.436 87.4035L149.445 87.3973L149.454 87.391L148.875 86.5755ZM150.195 91.2955L150.585 90.3746L150.584 90.3742L150.195 91.2955ZM154.795 92.7755L154.515 93.7355L154.528 93.7393L154.795 92.7755ZM158.955 94.3355L158.481 95.216L158.489 95.2201L158.497 95.2242L158.955 94.3355ZM160.955 95.8155L160.214 96.4865L160.224 96.4972L160.234 96.5078L160.955 95.8155ZM159.915 107.376L160.556 108.144L160.557 108.143L159.915 107.376ZM145.315 107.856L144.755 108.684L144.763 108.689L144.771 108.694L145.315 107.856ZM141.475 102.976L141.189 102.017L140.225 102.305L140.519 103.268L141.475 102.976ZM146.835 101.376L147.809 101.146L147.566 100.114L146.549 100.417L146.835 101.376ZM148.715 103.696L148.191 104.547L148.204 104.555L148.217 104.562L148.715 103.696ZM156.035 103.736L156.557 104.589L156.565 104.584L156.574 104.578L156.035 103.736ZM156.475 99.4155L157.152 98.6796L157.127 98.6562L157.1 98.6347L156.475 99.4155ZM155.315 98.7355L154.868 99.63L154.878 99.6347L154.887 99.6393L155.315 98.7355ZM153.075 97.8955L153.384 96.9445L153.372 96.9404L153.359 96.9367L153.075 97.8955ZM146.315 95.4955L145.844 96.3774L145.852 96.3818L146.315 95.4955ZM144.915 82.9355L144.26 82.1802L144.255 82.1844L144.915 82.9355ZM158.195 82.3755L157.643 83.2095L157.652 83.2151L158.195 82.3755ZM161.476 85.8954L156.116 87.4554L156.675 89.3757L162.035 87.8157L161.476 85.8954ZM157.357 88.1408C157.057 87.0927 156.325 86.2721 155.325 85.6475L154.265 87.3435C154.973 87.7856 155.307 88.2451 155.434 88.6903L157.357 88.1408ZM155.325 85.6475C154.299 85.0063 153.139 84.6955 151.875 84.6955V86.6955C152.798 86.6955 153.585 86.9181 154.265 87.3435L155.325 85.6475ZM151.875 84.6955C150.528 84.6955 149.318 85.0352 148.297 85.76L149.454 87.391C150.086 86.9426 150.876 86.6955 151.875 86.6955V84.6955ZM148.314 85.7476C147.278 86.4495 146.635 87.4254 146.635 88.6555H148.635C148.635 88.2323 148.819 87.8216 149.436 87.4035L148.314 85.7476ZM146.635 88.6555C146.635 90.3499 148.037 91.4704 149.807 92.2169L150.584 90.3742C148.94 89.6807 148.635 89.0411 148.635 88.6555H146.635ZM149.806 92.2165C150.563 92.5367 152.155 93.0459 154.515 93.7354L155.076 91.8157C152.689 91.1185 151.215 90.641 150.585 90.3746L149.806 92.2165ZM154.528 93.7393C156.223 94.2085 157.532 94.7047 158.481 95.216L159.429 93.4551C158.299 92.8464 156.834 92.3025 155.062 91.8118L154.528 93.7393ZM158.497 95.2242C159.241 95.6081 159.804 96.0333 160.214 96.4865L161.697 95.1446C161.093 94.4777 160.323 93.9163 159.414 93.4469L158.497 95.2242ZM160.234 96.5078C161.282 97.6004 161.835 99.0322 161.835 100.896H163.835C163.835 98.5989 163.136 96.644 161.677 95.1233L160.234 96.5078ZM161.835 100.896C161.835 103.313 160.978 105.185 159.274 106.608L160.557 108.143C162.746 106.313 163.835 103.864 163.835 100.896H161.835ZM159.275 106.607C157.573 108.026 155.323 108.776 152.435 108.776V110.776C155.681 110.776 158.418 109.925 160.556 108.144L159.275 106.607ZM152.435 108.776C149.82 108.776 147.644 108.174 145.86 107.017L144.771 108.694C146.934 110.097 149.504 110.776 152.435 110.776V108.776ZM145.875 107.027C144.055 105.797 142.94 104.345 142.432 102.683L140.519 103.268C141.184 105.446 142.629 107.248 144.755 108.684L145.875 107.027ZM141.761 103.934L147.121 102.334L146.549 100.417L141.189 102.017L141.761 103.934ZM145.862 101.605C146.153 102.844 146.998 103.813 148.191 104.547L149.239 102.844C148.353 102.298 147.944 101.721 147.809 101.146L145.862 101.605ZM148.217 104.562C149.457 105.275 150.873 105.616 152.435 105.616V103.616C151.171 103.616 150.107 103.342 149.214 102.829L148.217 104.562ZM152.435 105.616C154.009 105.616 155.401 105.295 156.557 104.589L155.514 102.882C154.749 103.35 153.742 103.616 152.435 103.616V105.616ZM156.574 104.578C157.759 103.821 158.475 102.745 158.475 101.376H156.475C156.475 101.926 156.232 102.423 155.497 102.893L156.574 104.578ZM158.475 101.376C158.475 100.323 157.958 99.4211 157.152 98.6796L155.798 100.151C156.326 100.637 156.475 101.041 156.475 101.376H158.475ZM157.1 98.6347C156.747 98.352 156.282 98.0867 155.743 97.8318L154.887 99.6393C155.362 99.8643 155.671 100.052 155.851 100.196L157.1 98.6347ZM155.763 97.8411C155.262 97.5911 154.452 97.2916 153.384 96.9445L152.766 98.8466C153.832 99.1928 154.515 99.4533 154.868 99.63L155.763 97.8411ZM153.359 96.9367C150.019 95.9481 147.854 95.1717 146.779 94.6093L145.852 96.3818C147.123 97.046 149.465 97.8697 152.791 98.8544L153.359 96.9367ZM146.787 94.6137C145.562 93.959 144.696 93.1724 144.132 92.2741C143.571 91.3795 143.275 90.3186 143.275 89.0555H141.275C141.275 90.6458 141.653 92.0849 142.438 93.337C143.221 94.5854 144.375 95.5921 145.844 96.3774L146.787 94.6137ZM143.275 89.0555C143.275 86.7835 144.051 85.0268 145.575 83.6867L144.255 82.1844C142.26 83.9376 141.275 86.2609 141.275 89.0555H143.275ZM145.571 83.6909C147.174 82.2995 149.223 81.5755 151.795 81.5755V79.5755C148.821 79.5755 146.283 80.4249 144.26 82.1802L145.571 83.6909ZM151.795 81.5755C154.078 81.5755 156.014 82.1313 157.643 83.2095L158.747 81.5416C156.75 80.2198 154.419 79.5755 151.795 79.5755V81.5755ZM157.652 83.2151C159.297 84.2796 160.319 85.5923 160.8 87.1506L162.711 86.5605C162.072 84.4921 160.72 82.8181 158.739 81.536L157.652 83.2151ZM166.728 81.1755V80.1755H165.728V81.1755H166.728ZM187.368 81.1755H188.368V80.1755H187.368V81.1755ZM187.368 86.1355V87.1355H188.368V86.1355H187.368ZM172.088 86.1355V85.1355H171.088V86.1355H172.088ZM172.088 92.5355H171.088V93.5355H172.088V92.5355ZM185.168 92.5355H186.168V91.5355H185.168V92.5355ZM185.168 97.4955V98.4955H186.168V97.4955H185.168ZM172.088 97.4955V96.4955H171.088V97.4955H172.088ZM172.088 104.216H171.088V105.216H172.088V104.216ZM187.568 104.216H188.568V103.216H187.568V104.216ZM187.568 109.176V110.176H188.568V109.176H187.568ZM166.728 109.176H165.728V110.176H166.728V109.176ZM166.728 82.1755H187.368V80.1755H166.728V82.1755ZM186.368 81.1755V86.1355H188.368V81.1755H186.368ZM187.368 85.1355H172.088V87.1355H187.368V85.1355ZM171.088 86.1355V92.5355H173.088V86.1355H171.088ZM172.088 93.5355H185.168V91.5355H172.088V93.5355ZM184.168 92.5355V97.4955H186.168V92.5355H184.168ZM185.168 96.4955H172.088V98.4955H185.168V96.4955ZM171.088 97.4955V104.216H173.088V97.4955H171.088ZM172.088 105.216H187.568V103.216H172.088V105.216ZM186.568 104.216V109.176H188.568V104.216H186.568ZM187.568 108.176H166.728V110.176H187.568V108.176ZM167.728 109.176V81.1755H165.728V109.176H167.728ZM214.758 84.7755L214.045 85.4758L214.051 85.4827L214.058 85.4894L214.758 84.7755ZM214.758 105.616L214.051 104.908L214.758 105.616ZM193.878 105.616L193.165 106.316L193.171 106.323L193.178 106.329L193.878 105.616ZM193.878 84.7755L194.586 85.4826L193.878 84.7755ZM197.878 88.4555L197.156 87.7646L197.155 87.7648L197.878 88.4555ZM197.878 101.896L198.602 101.205L197.878 101.896ZM210.758 101.896L210.036 101.205L210.035 101.205L210.758 101.896ZM210.758 88.4555L210.036 89.1465L210.758 88.4555ZM204.318 81.5755C208.285 81.5755 211.501 82.8827 214.045 85.4758L215.472 84.0753C212.523 81.0683 208.778 79.5755 204.318 79.5755V81.5755ZM214.058 85.4894C216.653 88.0344 217.958 91.2373 217.958 95.1755H219.958C219.958 90.7404 218.464 87.01 215.459 84.0617L214.058 85.4894ZM217.958 95.1755C217.958 99.0852 216.654 102.306 214.051 104.908L215.466 106.323C218.463 103.325 219.958 99.5858 219.958 95.1755H217.958ZM214.051 104.908C211.479 107.481 208.26 108.776 204.318 108.776V110.776C208.751 110.776 212.491 109.297 215.466 106.323L214.051 104.908ZM204.318 108.776C200.434 108.776 197.21 107.483 194.579 104.902L193.178 106.329C196.201 109.295 199.936 110.776 204.318 110.776V108.776ZM194.592 104.915C192.011 102.284 190.718 99.0597 190.718 95.1755H188.718C188.718 99.558 190.199 103.293 193.165 106.316L194.592 104.915ZM190.718 95.1755C190.718 91.2629 192.012 88.0562 194.586 85.4826L193.171 84.0684C190.198 87.0416 188.718 90.7682 188.718 95.1755H190.718ZM194.586 85.4826C197.188 82.8805 200.409 81.5755 204.318 81.5755V79.5755C199.908 79.5755 196.169 81.0706 193.171 84.0684L194.586 85.4826ZM197.155 87.7648C195.254 89.7551 194.318 92.2503 194.318 95.1755H196.318C196.318 92.7141 197.089 90.7293 198.602 89.1463L197.155 87.7648ZM194.318 95.1755C194.318 98.1008 195.254 100.596 197.155 102.586L198.602 101.205C197.089 99.6217 196.318 97.6369 196.318 95.1755H194.318ZM197.155 102.586C199.06 104.581 201.473 105.576 204.318 105.576V103.576C201.991 103.576 200.11 102.784 198.602 101.205L197.155 102.586ZM204.318 105.576C207.164 105.576 209.577 104.581 211.482 102.586L210.035 101.205C208.527 102.784 206.646 103.576 204.318 103.576V105.576ZM211.481 102.587C213.405 100.575 214.358 98.0817 214.358 95.1755H212.358C212.358 97.6027 211.579 99.5898 210.036 101.205L211.481 102.587ZM214.358 95.1755C214.358 92.2693 213.405 89.7765 211.481 87.7646L210.036 89.1465C211.579 90.7612 212.358 92.7484 212.358 95.1755H214.358ZM211.481 87.7646C209.555 85.7493 207.145 84.7355 204.318 84.7355V86.7355C206.612 86.7355 208.495 87.5351 210.036 89.1465L211.481 87.7646ZM204.318 84.7355C201.492 84.7355 199.082 85.7493 197.156 87.7646L198.601 89.1465C200.142 87.5351 202.025 86.7355 204.318 86.7355V84.7355Z" fill="black"/>
</svg>
