<svg width="342" height="181" viewBox="0 0 342 181" fill="none" xmlns="http://www.w3.org/2000/svg">
<rect width="341" height="180" transform="translate(0.970703 0.5)" fill="#F5F5F5"/>
<path d="M99.7749 118.5L16.9707 131.5H253.905L330.971 118.5H99.7749Z" fill="#AB85FF"/>
<path d="M154.031 86.5L99.9707 147.5H254.657L304.971 86.5H154.031Z" fill="#4AE991"/>
<g clip-path="url(#clip0)">
<path d="M55.9937 50.5C56.0898 50.5 56.1859 50.5368 56.2596 50.6102L63.0585 57.4082C63.205 57.5535 63.205 57.794 63.0585 57.9393L56.7958 64.2016L63.3328 70.7388C63.4783 70.8841 63.4783 71.1231 63.3328 71.2698L57.0947 77.5059L63.6632 84.0744C63.8096 84.2212 63.8096 84.4592 63.6632 84.6055L57.4013 90.868L63.9382 97.4049C64.0845 97.5512 64.0845 97.7897 63.9382 97.9359L57.484 104.39C57.3376 104.537 57.0991 104.537 56.953 104.39C56.8066 104.244 56.8066 104.006 56.953 103.859L63.1415 97.6708L56.6083 91.138C56.4621 90.9914 56.4621 90.7533 56.6083 90.6071C56.619 90.5963 56.6317 90.5927 56.6427 90.5843C56.6556 90.5663 56.6632 90.5461 56.679 90.5304L62.8674 84.3413L56.3344 77.8085C56.2411 77.7153 56.214 77.5869 56.2386 77.4673C56.2364 77.3684 56.2721 77.2687 56.3469 77.1937L62.5353 71.0032L56.0021 64.4721C55.8567 64.3252 55.8567 64.0862 56.0021 63.9409C56.0128 63.9292 56.0249 63.9256 56.0362 63.9189C56.0488 63.9013 56.0556 63.8808 56.0727 63.8646L62.2611 57.677L55.7289 51.1453C55.5825 50.9985 55.5825 50.7587 55.7289 50.6142C55.8004 50.5356 55.8976 50.5 55.9937 50.5Z" fill="black"/>
<path d="M66.1308 50.4996C66.2269 50.4996 66.3229 50.5365 66.3965 50.6098L73.195 57.4079C73.3402 57.5532 73.3402 57.7936 73.195 57.9389L66.9335 64.2012L73.471 70.7385C73.6155 70.8838 73.6155 71.1228 73.471 71.2694L67.2324 77.5056L73.8015 84.074C73.9474 84.2208 73.9474 84.4589 73.8015 84.6051L67.5396 90.8669L74.0769 97.4038C74.2234 97.55 74.2234 97.7885 74.0769 97.9348L67.6222 104.388C67.4761 104.535 67.2368 104.535 67.0913 104.388C66.945 104.242 66.945 104.004 67.0913 103.857L73.2794 97.6689L66.7473 91.136C66.6009 90.9894 66.6009 90.7513 66.7473 90.6051C66.7572 90.5951 66.7689 90.5915 66.7803 90.5831C66.7931 90.5651 66.7998 90.5442 66.817 90.5284L73.006 84.3392L66.4733 77.8064C66.3809 77.7139 66.3537 77.5861 66.3777 77.4667C66.3753 77.3678 66.41 77.2664 66.4858 77.1906L72.6765 71.0006L66.1397 64.4699C65.9942 64.3246 65.9942 64.0841 66.1397 63.9388C66.1504 63.9286 66.1625 63.9234 66.1729 63.9183C66.1864 63.9007 66.1933 63.8787 66.2104 63.864L72.3985 57.6746L65.8659 51.143C65.7192 50.9964 65.7192 50.758 65.8659 50.6121C65.9374 50.5353 66.0335 50.4996 66.1308 50.4996Z" fill="black"/>
<path d="M76.2685 50.5C76.3662 50.5 76.4616 50.5368 76.5343 50.6102L83.3339 57.4082C83.4804 57.5535 83.4804 57.794 83.3339 57.9393L77.0713 64.2016L83.608 70.7388C83.7546 70.8841 83.7546 71.1231 83.608 71.2698L77.3706 77.5059L83.9397 84.0744C84.0832 84.2212 84.0832 84.4592 83.9397 84.6055L77.6756 90.868L84.2128 97.4049C84.3585 97.5512 84.3585 97.7897 84.2128 97.9359L77.7575 104.39C77.6108 104.537 77.371 104.537 77.2265 104.39C77.08 104.244 77.08 104.006 77.2265 103.859L83.4134 97.6708L76.8816 91.138C76.735 90.9914 76.735 90.7533 76.8816 90.6071C76.8922 90.5963 76.9029 90.5927 76.9169 90.5843C76.9315 90.5663 76.9355 90.5461 76.9524 90.5304L83.1416 84.3413L76.6075 77.8085C76.515 77.7153 76.4901 77.5869 76.5123 77.4673C76.5106 77.3684 76.5457 77.2687 76.622 77.1937L82.8112 71.0032L76.2776 64.4721C76.1324 64.3252 76.1324 64.0862 76.2776 63.9409C76.2877 63.9292 76.2996 63.9256 76.311 63.9189C76.3246 63.9013 76.3289 63.8808 76.3477 63.8646L82.537 57.677L76.0048 51.1453C75.8578 50.9985 75.8578 50.7587 76.0048 50.6142C76.0763 50.5356 76.1718 50.5 76.2685 50.5Z" fill="black"/>
</g>
<g clip-path="url(#clip1)">
<path d="M86.9937 50.5C87.0898 50.5 87.1859 50.5368 87.2596 50.6102L94.0585 57.4082C94.205 57.5535 94.205 57.794 94.0585 57.9393L87.7958 64.2016L94.3328 70.7388C94.4783 70.8841 94.4783 71.1231 94.3328 71.2698L88.0947 77.5059L94.6632 84.0744C94.8096 84.2212 94.8096 84.4592 94.6632 84.6055L88.4013 90.868L94.9382 97.4049C95.0845 97.5512 95.0845 97.7897 94.9382 97.9359L88.484 104.39C88.3376 104.537 88.0991 104.537 87.953 104.39C87.8066 104.244 87.8066 104.006 87.953 103.859L94.1415 97.6708L87.6083 91.138C87.4621 90.9914 87.4621 90.7533 87.6083 90.6071C87.619 90.5963 87.6317 90.5927 87.6427 90.5843C87.6556 90.5663 87.6632 90.5461 87.679 90.5304L93.8674 84.3413L87.3344 77.8085C87.2411 77.7153 87.214 77.5869 87.2386 77.4673C87.2364 77.3684 87.2721 77.2687 87.3469 77.1937L93.5353 71.0032L87.0021 64.4721C86.8567 64.3252 86.8567 64.0862 87.0021 63.9409C87.0128 63.9292 87.0249 63.9256 87.0362 63.9189C87.0488 63.9013 87.0556 63.8808 87.0727 63.8646L93.2611 57.677L86.7289 51.1453C86.5825 50.9985 86.5825 50.7587 86.7289 50.6142C86.8004 50.5356 86.8976 50.5 86.9937 50.5Z" fill="black"/>
<path d="M97.1308 50.4996C97.2269 50.4996 97.3229 50.5365 97.3965 50.6098L104.195 57.4079C104.34 57.5532 104.34 57.7936 104.195 57.9389L97.9335 64.2012L104.471 70.7385C104.615 70.8838 104.615 71.1228 104.471 71.2694L98.2324 77.5056L104.802 84.074C104.947 84.2208 104.947 84.4589 104.802 84.6051L98.5396 90.8669L105.077 97.4038C105.223 97.55 105.223 97.7885 105.077 97.9348L98.6222 104.388C98.4761 104.535 98.2368 104.535 98.0913 104.388C97.945 104.242 97.945 104.004 98.0913 103.857L104.279 97.6689L97.7473 91.136C97.6009 90.9894 97.6009 90.7513 97.7473 90.6051C97.7572 90.5951 97.7689 90.5915 97.7803 90.5831C97.7931 90.5651 97.7998 90.5442 97.817 90.5284L104.006 84.3392L97.4733 77.8064C97.3809 77.7139 97.3537 77.5861 97.3777 77.4667C97.3753 77.3678 97.41 77.2664 97.4858 77.1906L103.677 71.0006L97.1397 64.4699C96.9942 64.3246 96.9942 64.0841 97.1397 63.9388C97.1504 63.9286 97.1625 63.9234 97.1729 63.9183C97.1864 63.9007 97.1933 63.8787 97.2104 63.864L103.398 57.6746L96.8659 51.143C96.7192 50.9964 96.7192 50.758 96.8659 50.6121C96.9374 50.5353 97.0335 50.4996 97.1308 50.4996Z" fill="black"/>
<path d="M107.268 50.5C107.366 50.5 107.462 50.5368 107.534 50.6102L114.334 57.4082C114.48 57.5535 114.48 57.794 114.334 57.9393L108.071 64.2016L114.608 70.7388C114.755 70.8841 114.755 71.1231 114.608 71.2698L108.371 77.5059L114.94 84.0744C115.083 84.2212 115.083 84.4592 114.94 84.6055L108.676 90.868L115.213 97.4049C115.359 97.5512 115.359 97.7897 115.213 97.9359L108.757 104.39C108.611 104.537 108.371 104.537 108.227 104.39C108.08 104.244 108.08 104.006 108.227 103.859L114.413 97.6708L107.882 91.138C107.735 90.9914 107.735 90.7533 107.882 90.6071C107.892 90.5963 107.903 90.5927 107.917 90.5843C107.931 90.5663 107.935 90.5461 107.952 90.5304L114.142 84.3413L107.607 77.8085C107.515 77.7153 107.49 77.5869 107.512 77.4673C107.511 77.3684 107.546 77.2687 107.622 77.1937L113.811 71.0032L107.278 64.4721C107.132 64.3252 107.132 64.0862 107.278 63.9409C107.288 63.9292 107.3 63.9256 107.311 63.9189C107.325 63.9013 107.329 63.8808 107.348 63.8646L113.537 57.677L107.005 51.1453C106.858 50.9985 106.858 50.7587 107.005 50.6142C107.076 50.5356 107.172 50.5 107.268 50.5Z" fill="black"/>
</g>
<path d="M188.935 147.5L188.935 74.5M188.935 74.5L187.97 76.5M188.935 74.5L189.9 76.5" stroke="black"/>
<path d="M204.971 147.5L204.971 45.5M204.971 45.5L203.971 48.2945M204.971 45.5L205.971 48.2945" stroke="black"/>
<path d="M172.971 147.5V101.5M172.971 101.5L171.971 102.76M172.971 101.5L173.971 102.76" stroke="black"/>
<path d="M220.971 147.5V114.5M220.971 114.5L219.971 115.404M220.971 114.5L221.971 115.404" stroke="black"/>
<path d="M100.971 53.5C100.971 47.9305 98.7582 42.589 94.8199 38.6508C90.8817 34.7125 85.5403 32.5 79.9707 32.5C74.4012 32.5 69.0597 34.7125 65.1215 38.6508C61.1832 42.589 58.9707 47.9305 58.9707 53.5L79.9707 53.5H100.971Z" fill="#8052E4"/>
<path d="M69.9707 53.5C69.9707 49.787 68.5484 46.226 66.0166 43.6005C63.4849 40.975 60.0511 39.5 56.4707 39.5C52.8903 39.5 49.4565 40.975 46.9248 43.6005C44.393 46.226 42.9707 49.787 42.9707 53.5L56.4707 53.5H69.9707Z" fill="#8052E4"/>
<path d="M129.971 53.5C129.971 49.787 127.916 46.226 124.259 43.6005C120.602 40.975 115.642 39.5 110.471 39.5C105.299 39.5 100.339 40.975 96.6821 43.6005C93.0252 46.226 90.9707 49.787 90.9707 53.5L110.471 53.5H129.971Z" fill="#8052E4"/>
<defs>
<clipPath id="clip0">
<rect width="54" height="54" fill="white" transform="matrix(1 0 0 -1 42.9707 104.5)"/>
</clipPath>
<clipPath id="clip1">
<rect width="54" height="54" fill="white" transform="matrix(1 0 0 -1 73.9707 104.5)"/>
</clipPath>
</defs>
</svg>
