<svg width="342" height="181" viewBox="0 0 342 181" fill="none" xmlns="http://www.w3.org/2000/svg">
<rect width="341" height="180" transform="translate(0.96875 0.5)" fill="#F5F5F5"/>
<path d="M244.609 135.502C258.109 134.502 283.909 123.802 285.109 95.002C285.109 59.002 257.609 49.502 244.109 49.502C224.609 49.502 143.609 49.502 97.6094 49.502" stroke="black"/>
<path d="M244.812 135.502H172.609" stroke="black"/>
<circle cx="85.1639" cy="49.5021" r="21.1119" transform="rotate(90 85.1639 49.5021)" fill="#F5F5F5" stroke="black" stroke-width="1.97979"/>
<circle cx="57.1406" cy="48.502" r="20" fill="#B491FF"/>
<circle cx="258.422" cy="82.8262" r="1.375" fill="#D4D4D4"/>
<circle cx="264.172" cy="82.8262" r="1.375" fill="#D4D4D4"/>
<circle cx="269.922" cy="82.8262" r="1.375" fill="#D4D4D4"/>
<circle cx="275.422" cy="82.8262" r="1.375" fill="#D4D4D4"/>
<circle cx="281.422" cy="82.8262" r="1.375" fill="#D4D4D4"/>
<circle cx="287.172" cy="82.8262" r="1.375" fill="#D4D4D4"/>
<circle cx="292.922" cy="82.8262" r="1.375" fill="#D4D4D4"/>
<circle cx="298.672" cy="82.8262" r="1.375" fill="#D4D4D4"/>
<circle cx="304.422" cy="82.8262" r="1.375" fill="#D4D4D4"/>
<circle cx="258.422" cy="88.5762" r="1.375" fill="#D4D4D4"/>
<circle cx="264.172" cy="88.5762" r="1.375" fill="#D4D4D4"/>
<circle cx="258.422" cy="94.3262" r="1.375" fill="#D4D4D4"/>
<circle cx="264.172" cy="94.3262" r="1.375" fill="#D4D4D4"/>
<circle cx="269.922" cy="94.3262" r="1.375" fill="#D4D4D4"/>
<circle cx="275.672" cy="94.3262" r="1.375" fill="#D4D4D4"/>
<circle cx="281.422" cy="94.3262" r="1.375" fill="#D4D4D4"/>
<circle cx="287.172" cy="94.3262" r="1.375" fill="#D4D4D4"/>
<circle cx="292.922" cy="94.3262" r="1.375" fill="#D4D4D4"/>
<circle cx="298.672" cy="94.3262" r="1.375" fill="#D4D4D4"/>
<circle cx="304.422" cy="94.3262" r="1.375" fill="#D4D4D4"/>
<circle cx="269.922" cy="88.5762" r="1.375" fill="#D4D4D4"/>
<circle cx="275.422" cy="88.5762" r="1.375" fill="#D4D4D4"/>
<circle cx="281.422" cy="88.5762" r="1.375" fill="#D4D4D4"/>
<circle cx="287.172" cy="88.5762" r="1.375" fill="#D4D4D4"/>
<circle cx="292.922" cy="88.5762" r="1.375" fill="#D4D4D4"/>
<circle cx="298.672" cy="88.5762" r="1.375" fill="#D4D4D4"/>
<circle cx="304.422" cy="88.5762" r="1.375" fill="#D4D4D4"/>
<path d="M172.676 122.046H134.143M134.143 122.046L135.199 122.556M134.143 122.046L135.199 121.537" stroke="black"/>
<path d="M172.676 113.583H118.836M118.836 113.583L120.311 114.11M118.836 113.583L120.311 113.055" stroke="black"/>
<path d="M172.676 130.473H148.395M148.395 130.473L149.06 131.001M148.395 130.473L149.06 129.945" stroke="black"/>
<path d="M172.676 105.137H155.257M155.257 105.137L155.734 105.665M155.257 105.137L155.734 104.609" stroke="black"/>
<path d="M178.971 93.0469L142.398 150.105H215.545L178.971 93.0469Z" fill="#31D67B"/>
<path d="M227.521 143.759L191.862 88.1277L156.203 143.759H227.521Z" stroke="black"/>
</svg>
