<svg width="342" height="181" viewBox="0 0 342 181" fill="none" xmlns="http://www.w3.org/2000/svg">
<rect width="341" height="180" transform="translate(0.970703 0.5)" fill="#F5F5F5"/>
<path d="M83.8262 125.602C70.3262 124.602 44.5262 113.902 43.3262 85.1016C43.3262 49.1016 70.8262 39.6016 84.3262 39.6016C103.826 39.6016 195.884 39.6016 241.884 39.6016" stroke="black"/>
<path d="M83.623 125.602H155.827" stroke="black"/>
<path d="M267.328 60.6016C280.828 61.6016 306.628 72.3015 307.828 101.102C307.828 137.102 280.328 146.602 266.828 146.602C247.328 146.602 166.328 146.602 120.328 146.602" stroke="black"/>
<path d="M267.531 60.6016H195.328" stroke="black"/>
<path d="M135.326 40.1016V125.102M135.326 40.1016V125.102" stroke="black"/>
<path d="M130.826 39.6016V125.602M130.826 39.6016V125.602" stroke="black"/>
<path d="M125.826 39.6016V125.602M125.826 39.6016V125.602" stroke="black"/>
<path d="M120.826 39.6016V125.602M120.826 39.6016V125.602" stroke="black"/>
<path d="M115.826 39.6016V125.602M115.826 39.6016V125.602" stroke="black"/>
<path d="M110.826 39.6016V125.602M110.826 39.6016V125.602" stroke="black"/>
<path d="M105.826 39.6016V125.602M105.826 39.6016V125.602" stroke="black"/>
<path d="M100.826 39.6016V125.602M100.826 39.6016V125.602" stroke="black"/>
<path d="M225.826 39.6016V60.6016" stroke="black"/>
<path d="M222.826 39.6016V60.6016" stroke="black"/>
<path d="M219.826 39.6016V60.6016" stroke="black"/>
<path d="M216.826 39.6016V60.6016" stroke="black"/>
<path d="M213.826 39.6016V60.6016" stroke="black"/>
<path d="M242.718 49.3555L231.344 31.6489L254.092 31.6489L242.718 49.3555Z" fill="#A57CFE"/>
<path d="M158.978 134.812L168.335 120.246H149.621L158.978 134.812Z" fill="#8052E4"/>
<circle cx="29.0215" cy="78.1133" r="1.375" fill="#D4D4D4"/>
<circle cx="34.7715" cy="78.1133" r="1.375" fill="#D4D4D4"/>
<circle cx="40.5215" cy="78.1133" r="1.375" fill="#D4D4D4"/>
<circle cx="46.0215" cy="78.1133" r="1.375" fill="#D4D4D4"/>
<circle cx="52.0215" cy="78.1133" r="1.375" fill="#D4D4D4"/>
<circle cx="57.7715" cy="78.1133" r="1.375" fill="#D4D4D4"/>
<circle cx="63.5215" cy="78.1133" r="1.375" fill="#D4D4D4"/>
<circle cx="69.2715" cy="78.1133" r="1.375" fill="#D4D4D4"/>
<circle cx="75.0215" cy="78.1133" r="1.375" fill="#D4D4D4"/>
<circle cx="29.0215" cy="83.8633" r="1.375" fill="#D4D4D4"/>
<circle cx="34.7715" cy="83.8633" r="1.375" fill="#D4D4D4"/>
<circle cx="29.0215" cy="89.6133" r="1.375" fill="#D4D4D4"/>
<circle cx="34.7715" cy="89.6133" r="1.375" fill="#D4D4D4"/>
<circle cx="40.5215" cy="89.6133" r="1.375" fill="#D4D4D4"/>
<circle cx="46.2715" cy="89.6133" r="1.375" fill="#D4D4D4"/>
<circle cx="52.0215" cy="89.6133" r="1.375" fill="#D4D4D4"/>
<circle cx="57.7715" cy="89.6133" r="1.375" fill="#D4D4D4"/>
<circle cx="63.5215" cy="89.6133" r="1.375" fill="#D4D4D4"/>
<circle cx="69.2715" cy="89.6133" r="1.375" fill="#D4D4D4"/>
<circle cx="75.0215" cy="89.6133" r="1.375" fill="#D4D4D4"/>
<circle cx="40.5215" cy="83.8633" r="1.375" fill="#D4D4D4"/>
<circle cx="46.0215" cy="83.8633" r="1.375" fill="#D4D4D4"/>
<circle cx="52.0215" cy="83.8633" r="1.375" fill="#D4D4D4"/>
<circle cx="57.7715" cy="83.8633" r="1.375" fill="#D4D4D4"/>
<circle cx="63.5215" cy="83.8633" r="1.375" fill="#D4D4D4"/>
<circle cx="69.2715" cy="83.8633" r="1.375" fill="#D4D4D4"/>
<circle cx="75.0215" cy="83.8633" r="1.375" fill="#D4D4D4"/>
<rect width="38.8608" height="34.908" transform="translate(185.262 82.6016)" fill="#31D67B"/>
<rect width="21.6724" height="34.908" transform="translate(227.111 82.6016)" fill="#31D67B"/>
<rect width="14.1992" height="34.908" transform="translate(251.773 82.6016)" fill="#31D67B"/>
<rect width="7.47324" height="34.908" transform="translate(268.961 82.6016)" fill="#31D67B"/>
<rect width="7.47324" height="34.908" transform="translate(279.426 82.6016)" fill="#31D67B"/>
<rect width="7.47324" height="34.908" transform="translate(289.887 82.6016)" fill="#31D67B"/>
<rect width="2.9893" height="34.908" transform="translate(300.348 82.6016)" fill="#31D67B"/>
<rect width="2.9893" height="34.908" transform="translate(306.328 82.6016)" fill="#31D67B"/>
<rect width="2.9893" height="34.908" transform="translate(312.309 82.6016)" fill="#31D67B"/>
</svg>
