<svg width="227" height="76" viewBox="0 0 227 76" fill="none" xmlns="http://www.w3.org/2000/svg">
<g clip-path="url(#clip0)">
<path d="M163.626 36.4174L163.626 36.4143C163.655 32.4528 162.129 29.3559 159.087 27.1586C156.708 25.4456 153.808 24.5433 150.909 23.6521L150.909 23.6519C147.92 22.7282 145.902 21.9991 144.638 21.1016C143.992 20.6425 143.523 20.1266 143.221 19.5024C142.921 18.8814 142.805 18.1905 142.805 17.4095C142.805 15.5117 144.034 14.2658 145.617 13.5213C147.192 12.7808 149.203 12.4854 151.025 12.4854C153.509 12.4854 156.344 13.2119 158.296 14.341L161.437 9.37982C159.136 7.97329 156.09 7.00491 153.068 6.69197L152.619 6.64553V6.19463V1.27856H146.844V6.57443V6.9747L146.453 7.0623C140.6 8.37502 137.027 12.2276 137.027 17.4095C137.027 21.0818 138.512 23.9651 141.445 26.0121L141.446 26.0126C143.705 27.5956 146.474 28.4541 149.241 29.3094C149.241 29.3094 149.241 29.3094 149.242 29.3095L149.094 29.7872C154.987 31.6033 157.38 32.71 157.353 36.3751L163.626 36.4174ZM163.626 36.4174C163.623 39.1566 162.598 41.4914 160.781 43.2647C158.957 45.0437 156.312 46.2785 153.047 46.755L152.619 46.8174V47.2498V52.2787H146.844V47.1281V46.7158L146.439 46.6373C142.813 45.9336 139.394 44.1888 136.964 41.7374L141.171 37.6798C143.311 39.7377 146.753 41.0719 149.929 41.0719C151.683 41.0719 153.618 40.7937 155.135 40.0947C156.657 39.3931 157.852 38.2126 157.853 36.4036C157.853 36.4031 157.853 36.4026 157.853 36.4021L157.853 36.3789C157.853 36.3787 157.853 36.3786 157.853 36.3785L163.626 36.4174Z" stroke="url(#paint0_linear)"/>
</g>
<g clip-path="url(#clip1)">
<path d="M214.626 36.4174L214.626 36.4143C214.655 32.4528 213.129 29.3559 210.087 27.1586C207.708 25.4456 204.808 24.5433 201.909 23.6521L201.909 23.6519C198.92 22.7282 196.902 21.9991 195.638 21.1016C194.992 20.6425 194.523 20.1266 194.221 19.5024C193.921 18.8814 193.805 18.1905 193.805 17.4095C193.805 15.5117 195.034 14.2658 196.617 13.5213C198.192 12.7808 200.203 12.4854 202.025 12.4854C204.509 12.4854 207.344 13.2119 209.296 14.341L212.437 9.37982C210.136 7.97329 207.09 7.00491 204.068 6.69197L203.619 6.64553V6.19463V1.27856H197.844V6.57443V6.9747L197.453 7.0623C191.6 8.37502 188.027 12.2276 188.027 17.4095C188.027 21.0818 189.512 23.9651 192.445 26.0121L192.446 26.0126C194.705 27.5956 197.474 28.4541 200.241 29.3094C200.241 29.3094 200.241 29.3094 200.242 29.3095L200.094 29.7872C205.987 31.6033 208.38 32.71 208.353 36.3751L214.626 36.4174ZM214.626 36.4174C214.623 39.1566 213.598 41.4914 211.781 43.2647C209.957 45.0437 207.312 46.2785 204.047 46.755L203.619 46.8174V47.2498V52.2787H197.844V47.1281V46.7158L197.439 46.6373C193.813 45.9336 190.394 44.1888 187.964 41.7374L192.171 37.6798C194.311 39.7377 197.753 41.0719 200.929 41.0719C202.683 41.0719 204.618 40.7937 206.135 40.0947C207.657 39.3931 208.852 38.2126 208.853 36.4036C208.853 36.4031 208.853 36.4026 208.853 36.4021L208.853 36.3789C208.853 36.3787 208.853 36.3786 208.853 36.3785L214.626 36.4174Z" stroke="url(#paint1_linear)"/>
</g>
<rect x="0.808594" y="27.2786" width="97.883" height="48.2215" stroke="url(#paint2_linear)"/>
<rect x="11.2188" y="44.5095" width="52" height="2" stroke="url(#paint3_linear)"/>
<rect x="11.2188" y="35.2444" width="52" height="2" stroke="url(#paint4_linear)"/>
<rect x="11.2188" y="55.5095" width="52" height="2" stroke="url(#paint5_linear)"/>
<rect x="11.2188" y="66.5095" width="52" height="2" stroke="url(#paint6_linear)"/>
<g clip-path="url(#clip2)">
<path d="M112.626 36.4174L112.626 36.4143C112.655 32.4528 111.129 29.3559 108.087 27.1586C105.708 25.4456 102.808 24.5433 99.9093 23.6521L99.9086 23.6519C96.9204 22.7282 94.9018 21.9991 93.6383 21.1016C92.9918 20.6425 92.5228 20.1266 92.2213 19.5024C91.9214 18.8814 91.8054 18.1905 91.8054 17.4095C91.8054 15.5117 93.0338 14.2658 94.6172 13.5213C96.1922 12.7808 98.2027 12.4854 100.025 12.4854C102.509 12.4854 105.344 13.2119 107.296 14.341L110.437 9.37982C108.136 7.97329 105.09 7.00491 102.068 6.69197L101.619 6.64553V6.19463V1.27856H95.8437V6.57443V6.9747L95.4531 7.0623C89.6005 8.37502 86.0267 12.2276 86.0267 17.4095C86.0267 21.0818 87.5119 23.9651 90.4449 26.0121L90.4456 26.0126C92.7053 27.5956 95.4744 28.4541 98.2413 29.3094C98.2414 29.3094 98.2415 29.3094 98.2415 29.3095L98.0939 29.7872C103.987 31.6033 106.38 32.71 106.353 36.3751L112.626 36.4174ZM112.626 36.4174C112.623 39.1566 111.598 41.4914 109.781 43.2647C107.957 45.0437 105.312 46.2785 102.047 46.755L101.619 46.8174V47.2498V52.2787H95.8435V47.1281V46.7158L95.4388 46.6373C91.8125 45.9336 88.394 44.1888 85.9637 41.7374L90.1709 37.6798C92.3113 39.7377 95.7535 41.0719 98.929 41.0719C100.683 41.0719 102.618 40.7937 104.135 40.0947C105.657 39.3931 106.852 38.2126 106.853 36.4036C106.853 36.4031 106.853 36.4026 106.853 36.4021L106.853 36.3789C106.853 36.3787 106.853 36.3786 106.853 36.3785L112.626 36.4174Z" fill="url(#paint7_linear)" stroke="url(#paint8_linear)"/>
</g>
<defs>
<linearGradient id="paint0_linear" x1="131.725" y1="57.9719" x2="189.697" y2="17.8095" gradientUnits="userSpaceOnUse">
<stop stop-color="#AB85FF"/>
<stop offset="0.526042" stop-color="#EBA3E3"/>
<stop offset="1" stop-color="#FFDBE4"/>
</linearGradient>
<linearGradient id="paint1_linear" x1="182.725" y1="57.9719" x2="240.697" y2="17.8095" gradientUnits="userSpaceOnUse">
<stop stop-color="#AB85FF"/>
<stop offset="0.526042" stop-color="#EBA3E3"/>
<stop offset="1" stop-color="#FFDBE4"/>
</linearGradient>
<linearGradient id="paint2_linear" x1="-15.7764" y1="80.9157" x2="23.5351" y2="-21.1718" gradientUnits="userSpaceOnUse">
<stop stop-color="#AB85FF"/>
<stop offset="0.526042" stop-color="#EBA3E3"/>
<stop offset="1" stop-color="#FFDBE4"/>
</linearGradient>
<linearGradient id="paint3_linear" x1="2.09741" y1="47.3091" x2="2.40967" y2="40.178" gradientUnits="userSpaceOnUse">
<stop stop-color="#AB85FF"/>
<stop offset="0.526042" stop-color="#EBA3E3"/>
<stop offset="1" stop-color="#FFDBE4"/>
</linearGradient>
<linearGradient id="paint4_linear" x1="2.09741" y1="38.044" x2="2.40967" y2="30.9129" gradientUnits="userSpaceOnUse">
<stop stop-color="#AB85FF"/>
<stop offset="0.526042" stop-color="#EBA3E3"/>
<stop offset="1" stop-color="#FFDBE4"/>
</linearGradient>
<linearGradient id="paint5_linear" x1="2.09741" y1="58.3091" x2="2.40967" y2="51.178" gradientUnits="userSpaceOnUse">
<stop stop-color="#AB85FF"/>
<stop offset="0.526042" stop-color="#EBA3E3"/>
<stop offset="1" stop-color="#FFDBE4"/>
</linearGradient>
<linearGradient id="paint6_linear" x1="2.09741" y1="69.3091" x2="2.40967" y2="62.178" gradientUnits="userSpaceOnUse">
<stop stop-color="#AB85FF"/>
<stop offset="0.526042" stop-color="#EBA3E3"/>
<stop offset="1" stop-color="#FFDBE4"/>
</linearGradient>
<linearGradient id="paint7_linear" x1="80.7245" y1="57.9719" x2="138.697" y2="17.8095" gradientUnits="userSpaceOnUse">
<stop stop-color="#AB85FF"/>
<stop offset="0.526042" stop-color="#EBA3E3"/>
<stop offset="1" stop-color="#FFDBE4"/>
</linearGradient>
<linearGradient id="paint8_linear" x1="80.7245" y1="57.9719" x2="138.697" y2="17.8095" gradientUnits="userSpaceOnUse">
<stop stop-color="#AB85FF"/>
<stop offset="0.526042" stop-color="#EBA3E3"/>
<stop offset="1" stop-color="#FFDBE4"/>
</linearGradient>
<clipPath id="clip0">
<rect width="51" height="52" fill="white" transform="translate(124.691 0.778564)"/>
</clipPath>
<clipPath id="clip1">
<rect width="51" height="52" fill="white" transform="translate(175.691 0.778564)"/>
</clipPath>
<clipPath id="clip2">
<rect width="51" height="52" fill="white" transform="translate(73.6914 0.778564)"/>
</clipPath>
</defs>
</svg>
