<svg width="342" height="180" viewBox="0 0 342 180" fill="none" xmlns="http://www.w3.org/2000/svg">
<rect width="341" height="180" transform="translate(0.0917969)" fill="#F5F5F5"/>
<path d="M82.9482 125.102C69.4482 124.102 43.6482 113.402 42.4482 84.6016C42.4482 48.6016 69.9482 39.1016 83.4482 39.1016C102.948 39.1016 195.006 39.1016 241.006 39.1016" stroke="black"/>
<path d="M82.7446 125.102H154.948" stroke="black"/>
<path d="M266.448 60.1016C279.948 61.1016 305.748 71.8015 306.948 100.602C306.948 136.602 279.448 146.102 265.948 146.102C246.448 146.102 165.448 146.102 119.448 146.102" stroke="black"/>
<path d="M266.652 60.1016H194.448" stroke="black"/>
<path d="M134.448 39.6016V124.602M134.448 39.6016V124.602" stroke="black"/>
<path d="M129.948 39.1016V125.102M129.948 39.1016V125.102" stroke="black"/>
<path d="M124.948 39.1016V125.102M124.948 39.1016V125.102" stroke="black"/>
<path d="M119.948 39.1016V125.102M119.948 39.1016V125.102" stroke="black"/>
<path d="M114.948 39.1016V125.102M114.948 39.1016V125.102" stroke="black"/>
<path d="M109.948 39.1016V125.102M109.948 39.1016V125.102" stroke="black"/>
<path d="M104.948 39.1016V125.102M104.948 39.1016V125.102" stroke="black"/>
<path d="M99.9482 39.1016V125.102M99.9482 39.1016V125.102" stroke="black"/>
<path d="M224.948 39.1016V60.1016" stroke="black"/>
<path d="M221.948 39.1016V60.1016" stroke="black"/>
<path d="M218.948 39.1016V60.1016" stroke="black"/>
<path d="M215.948 39.1016V60.1016" stroke="black"/>
<path d="M212.948 39.1016V60.1016" stroke="black"/>
<circle cx="28.1421" cy="77.6133" r="1.375" fill="#D4D4D4"/>
<circle cx="33.8921" cy="77.6133" r="1.375" fill="#D4D4D4"/>
<circle cx="39.6421" cy="77.6133" r="1.375" fill="#D4D4D4"/>
<circle cx="45.1421" cy="77.6133" r="1.375" fill="#D4D4D4"/>
<circle cx="51.1421" cy="77.6133" r="1.375" fill="#D4D4D4"/>
<circle cx="56.8921" cy="77.6133" r="1.375" fill="#D4D4D4"/>
<circle cx="62.6421" cy="77.6133" r="1.375" fill="#D4D4D4"/>
<circle cx="68.3921" cy="77.6133" r="1.375" fill="#D4D4D4"/>
<circle cx="74.1421" cy="77.6133" r="1.375" fill="#D4D4D4"/>
<circle cx="28.1421" cy="83.3633" r="1.375" fill="#D4D4D4"/>
<circle cx="33.8921" cy="83.3633" r="1.375" fill="#D4D4D4"/>
<circle cx="28.1421" cy="89.1133" r="1.375" fill="#D4D4D4"/>
<circle cx="33.8921" cy="89.1133" r="1.375" fill="#D4D4D4"/>
<circle cx="39.6421" cy="89.1133" r="1.375" fill="#D4D4D4"/>
<circle cx="45.3921" cy="89.1133" r="1.375" fill="#D4D4D4"/>
<circle cx="51.1421" cy="89.1133" r="1.375" fill="#D4D4D4"/>
<circle cx="56.8921" cy="89.1133" r="1.375" fill="#D4D4D4"/>
<circle cx="62.6421" cy="89.1133" r="1.375" fill="#D4D4D4"/>
<circle cx="68.3921" cy="89.1133" r="1.375" fill="#D4D4D4"/>
<circle cx="74.1421" cy="89.1133" r="1.375" fill="#D4D4D4"/>
<circle cx="39.6421" cy="83.3633" r="1.375" fill="#D4D4D4"/>
<circle cx="45.1421" cy="83.3633" r="1.375" fill="#D4D4D4"/>
<circle cx="51.1421" cy="83.3633" r="1.375" fill="#D4D4D4"/>
<circle cx="56.8921" cy="83.3633" r="1.375" fill="#D4D4D4"/>
<circle cx="62.6421" cy="83.3633" r="1.375" fill="#D4D4D4"/>
<circle cx="68.3921" cy="83.3633" r="1.375" fill="#D4D4D4"/>
<circle cx="74.1421" cy="83.3633" r="1.375" fill="#D4D4D4"/>
<path d="M241.301 33.0716V45.1016H237.581V29.5016H252.041V45.1016H248.321V33.0716H241.301ZM260.647 43.1816C260.647 42.5216 260.867 41.9716 261.307 41.5316C261.747 41.0716 262.307 40.8416 262.987 40.8416C263.667 40.8416 264.227 41.0716 264.667 41.5316C265.107 41.9716 265.327 42.5216 265.327 43.1816C265.327 43.8616 265.107 44.4316 264.667 44.8916C264.227 45.3316 263.667 45.5516 262.987 45.5516C262.307 45.5516 261.747 45.3316 261.307 44.8916C260.867 44.4316 260.647 43.8616 260.647 43.1816ZM278.906 28.8716L275.276 30.6716L273.656 27.2516L280.016 24.1016H282.806V45.1016H278.906V28.8716Z" fill="#31D67B"/>
<path d="M241.301 33.0716V32.0716H240.301V33.0716H241.301ZM241.301 45.1016V46.1016H242.301V45.1016H241.301ZM237.581 45.1016H236.581V46.1016H237.581V45.1016ZM237.581 29.5016V28.5016H236.581V29.5016H237.581ZM252.041 29.5016H253.041V28.5016H252.041V29.5016ZM252.041 45.1016V46.1016H253.041V45.1016H252.041ZM248.321 45.1016H247.321V46.1016H248.321V45.1016ZM248.321 33.0716H249.321V32.0716H248.321V33.0716ZM240.301 33.0716V45.1016H242.301V33.0716H240.301ZM241.301 44.1016H237.581V46.1016H241.301V44.1016ZM238.581 45.1016V29.5016H236.581V45.1016H238.581ZM237.581 30.5016H252.041V28.5016H237.581V30.5016ZM251.041 29.5016V45.1016H253.041V29.5016H251.041ZM252.041 44.1016H248.321V46.1016H252.041V44.1016ZM249.321 45.1016V33.0716H247.321V45.1016H249.321ZM248.321 32.0716H241.301V34.0716H248.321V32.0716ZM261.307 41.5316L262.015 42.2387L262.022 42.2308L262.03 42.2228L261.307 41.5316ZM264.667 41.5316L263.945 42.2228L263.952 42.2308L263.96 42.2387L264.667 41.5316ZM264.667 44.8916L265.375 45.5987L265.382 45.5908L265.39 45.5828L264.667 44.8916ZM261.307 44.8916L260.585 45.5828L260.592 45.5908L260.6 45.5987L261.307 44.8916ZM261.647 43.1816C261.647 42.7689 261.774 42.4789 262.015 42.2387L260.6 40.8245C259.961 41.4643 259.647 42.2742 259.647 43.1816H261.647ZM262.03 42.2228C262.268 41.9745 262.56 41.8416 262.987 41.8416V39.8416C262.055 39.8416 261.227 40.1686 260.585 40.8403L262.03 42.2228ZM262.987 41.8416C263.415 41.8416 263.707 41.9745 263.945 42.2228L265.39 40.8403C264.748 40.1686 263.92 39.8416 262.987 39.8416V41.8416ZM263.96 42.2387C264.201 42.4789 264.327 42.7689 264.327 43.1816H266.327C266.327 42.2742 266.014 41.4643 265.375 40.8245L263.96 42.2387ZM264.327 43.1816C264.327 43.6234 264.194 43.94 263.945 44.2003L265.39 45.5828C266.021 44.9232 266.327 44.0998 266.327 43.1816H264.327ZM263.96 44.1845C263.726 44.4186 263.429 44.5516 262.987 44.5516V46.5516C263.906 46.5516 264.729 46.2445 265.375 45.5987L263.96 44.1845ZM262.987 44.5516C262.546 44.5516 262.249 44.4186 262.015 44.1845L260.6 45.5987C261.246 46.2445 262.069 46.5516 262.987 46.5516V44.5516ZM262.03 44.2003C261.781 43.94 261.647 43.6234 261.647 43.1816H259.647C259.647 44.0998 259.954 44.9232 260.585 45.5828L262.03 44.2003ZM278.906 28.8716H279.906V27.2595L278.462 27.9757L278.906 28.8716ZM275.276 30.6716L274.373 31.0996L274.809 32.0198L275.721 31.5675L275.276 30.6716ZM273.656 27.2516L273.213 26.3554L272.332 26.7916L272.753 27.6796L273.656 27.2516ZM280.016 24.1016V23.1016H279.782L279.573 23.2054L280.016 24.1016ZM282.806 24.1016H283.806V23.1016H282.806V24.1016ZM282.806 45.1016V46.1016H283.806V45.1016H282.806ZM278.906 45.1016H277.906V46.1016H278.906V45.1016ZM278.462 27.9757L274.832 29.7757L275.721 31.5675L279.351 29.7675L278.462 27.9757ZM276.18 30.2435L274.56 26.8235L272.753 27.6796L274.373 31.0996L276.18 30.2435ZM274.1 28.1477L280.46 24.9977L279.573 23.2054L273.213 26.3554L274.1 28.1477ZM280.016 25.1016H282.806V23.1016H280.016V25.1016ZM281.806 24.1016V45.1016H283.806V24.1016H281.806ZM282.806 44.1016H278.906V46.1016H282.806V44.1016ZM279.906 45.1016V28.8716H277.906V45.1016H279.906Z" fill="black"/>
<path d="M154.8 117.525V129.555H151.08V113.955H165.54V129.555H161.82V117.525H154.8ZM174.147 127.635C174.147 126.975 174.367 126.425 174.807 125.985C175.247 125.525 175.807 125.295 176.487 125.295C177.167 125.295 177.727 125.525 178.167 125.985C178.607 126.425 178.827 126.975 178.827 127.635C178.827 128.315 178.607 128.885 178.167 129.345C177.727 129.785 177.167 130.005 176.487 130.005C175.807 130.005 175.247 129.785 174.807 129.345C174.367 128.885 174.147 128.315 174.147 127.635ZM197.716 114.675C197.716 113.895 197.376 113.225 196.696 112.665C196.056 112.105 195.266 111.825 194.326 111.825C193.426 111.825 192.616 112.105 191.896 112.665C191.196 113.205 190.666 113.945 190.306 114.885L186.706 113.175C187.386 111.615 188.406 110.385 189.766 109.485C191.126 108.565 192.646 108.105 194.326 108.105C196.426 108.105 198.176 108.735 199.576 109.995C201.016 111.255 201.736 112.775 201.736 114.555C201.736 115.635 201.376 116.765 200.656 117.945C199.936 119.105 198.796 120.435 197.236 121.935L193.126 125.835H201.916V129.555H187.126V126.645L194.836 119.295C196.756 117.435 197.716 115.895 197.716 114.675Z" fill="#31D67B"/>
<path d="M154.8 117.525V116.525H153.8V117.525H154.8ZM154.8 129.555V130.555H155.8V129.555H154.8ZM151.08 129.555H150.08V130.555H151.08V129.555ZM151.08 113.955V112.955H150.08V113.955H151.08ZM165.54 113.955H166.54V112.955H165.54V113.955ZM165.54 129.555V130.555H166.54V129.555H165.54ZM161.82 129.555H160.82V130.555H161.82V129.555ZM161.82 117.525H162.82V116.525H161.82V117.525ZM153.8 117.525V129.555H155.8V117.525H153.8ZM154.8 128.555H151.08V130.555H154.8V128.555ZM152.08 129.555V113.955H150.08V129.555H152.08ZM151.08 114.955H165.54V112.955H151.08V114.955ZM164.54 113.955V129.555H166.54V113.955H164.54ZM165.54 128.555H161.82V130.555H165.54V128.555ZM162.82 129.555V117.525H160.82V129.555H162.82ZM161.82 116.525H154.8V118.525H161.82V116.525ZM174.807 125.985L175.514 126.692L175.522 126.684L175.53 126.676L174.807 125.985ZM178.167 125.985L177.444 126.676L177.452 126.684L177.46 126.692L178.167 125.985ZM178.167 129.345L178.874 130.052L178.882 130.044L178.89 130.036L178.167 129.345ZM174.807 129.345L174.084 130.036L174.092 130.044L174.1 130.052L174.807 129.345ZM175.147 127.635C175.147 127.222 175.274 126.932 175.514 126.692L174.1 125.278C173.46 125.917 173.147 126.727 173.147 127.635H175.147ZM175.53 126.676C175.767 126.428 176.059 126.295 176.487 126.295V124.295C175.555 124.295 174.727 124.622 174.084 125.293L175.53 126.676ZM176.487 126.295C176.915 126.295 177.207 126.428 177.444 126.676L178.89 125.293C178.247 124.622 177.419 124.295 176.487 124.295V126.295ZM177.46 126.692C177.7 126.932 177.827 127.222 177.827 127.635H179.827C179.827 126.727 179.514 125.917 178.874 125.278L177.46 126.692ZM177.827 127.635C177.827 128.076 177.693 128.393 177.444 128.653L178.89 130.036C179.521 129.376 179.827 128.553 179.827 127.635H177.827ZM177.46 128.638C177.226 128.872 176.929 129.005 176.487 129.005V131.005C177.405 131.005 178.228 130.698 178.874 130.052L177.46 128.638ZM176.487 129.005C176.045 129.005 175.748 128.872 175.514 128.638L174.1 130.052C174.746 130.698 175.569 131.005 176.487 131.005V129.005ZM175.53 128.653C175.281 128.393 175.147 128.076 175.147 127.635H173.147C173.147 128.553 173.453 129.376 174.084 130.036L175.53 128.653ZM196.696 112.665L196.037 113.417L196.049 113.427L196.06 113.437L196.696 112.665ZM191.896 112.665L192.507 113.456L192.51 113.454L191.896 112.665ZM190.306 114.885L189.877 115.788L190.853 116.252L191.24 115.242L190.306 114.885ZM186.706 113.175L185.789 112.775L185.402 113.663L186.277 114.078L186.706 113.175ZM189.766 109.485L190.318 110.319L190.326 110.313L189.766 109.485ZM199.576 109.995L198.907 110.738L198.917 110.747L199.576 109.995ZM200.656 117.945L201.506 118.472L201.51 118.466L200.656 117.945ZM197.236 121.935L197.924 122.66L197.929 122.656L197.236 121.935ZM193.126 125.835L192.438 125.109L190.619 126.835H193.126V125.835ZM201.916 125.835H202.916V124.835H201.916V125.835ZM201.916 129.555V130.555H202.916V129.555H201.916ZM187.126 129.555H186.126V130.555H187.126V129.555ZM187.126 126.645L186.436 125.921L186.126 126.216V126.645H187.126ZM194.836 119.295L195.526 120.019L195.532 120.013L194.836 119.295ZM198.716 114.675C198.716 113.555 198.209 112.615 197.332 111.893L196.06 113.437C196.543 113.834 196.716 114.234 196.716 114.675H198.716ZM197.354 111.912C196.513 111.175 195.481 110.825 194.326 110.825V112.825C195.051 112.825 195.599 113.034 196.037 113.417L197.354 111.912ZM194.326 110.825C193.2 110.825 192.175 111.181 191.282 111.875L192.51 113.454C193.057 113.029 193.652 112.825 194.326 112.825V110.825ZM191.285 111.873C190.42 112.54 189.789 113.44 189.372 114.527L191.24 115.242C191.543 114.45 191.972 113.869 192.507 113.456L191.285 111.873ZM190.735 113.981L187.135 112.271L186.277 114.078L189.877 115.788L190.735 113.981ZM187.623 113.574C188.229 112.183 189.126 111.107 190.318 110.319L189.214 108.651C187.686 109.662 186.543 111.046 185.789 112.775L187.623 113.574ZM190.326 110.313C191.517 109.508 192.841 109.105 194.326 109.105V107.105C192.451 107.105 190.735 107.622 189.206 108.656L190.326 110.313ZM194.326 109.105C196.209 109.105 197.712 109.663 198.907 110.738L200.245 109.251C198.64 107.807 196.642 107.105 194.326 107.105V109.105ZM198.917 110.747C200.159 111.833 200.736 113.087 200.736 114.555H202.736C202.736 112.463 201.873 110.676 200.234 109.242L198.917 110.747ZM200.736 114.555C200.736 115.406 200.453 116.357 199.802 117.424L201.51 118.466C202.299 117.172 202.736 115.863 202.736 114.555H200.736ZM199.806 117.417C199.148 118.478 198.073 119.742 196.543 121.214L197.929 122.656C199.518 121.127 200.724 119.732 201.506 118.472L199.806 117.417ZM196.548 121.209L192.438 125.109L193.814 126.56L197.924 122.66L196.548 121.209ZM193.126 126.835H201.916V124.835H193.126V126.835ZM200.916 125.835V129.555H202.916V125.835H200.916ZM201.916 128.555H187.126V130.555H201.916V128.555ZM188.126 129.555V126.645H186.126V129.555H188.126ZM187.816 127.368L195.526 120.018L194.146 118.571L186.436 125.921L187.816 127.368ZM195.532 120.013C196.525 119.05 197.306 118.137 197.845 117.274C198.378 116.417 198.716 115.542 198.716 114.675H196.716C196.716 115.028 196.573 115.532 196.147 116.216C195.725 116.892 195.066 117.679 194.14 118.576L195.532 120.013Z" fill="black"/>
<circle r="31.6645" transform="matrix(-1 0 0 1 262.214 103.102)" fill="#AB85FF"/>
</svg>
