<svg width="342" height="180" viewBox="0 0 342 180" fill="none" xmlns="http://www.w3.org/2000/svg">
<rect width="341" height="180" transform="translate(0.0917969)" fill="#F5F5F5"/>
<path d="M230.715 157.5C239.58 157.5 248.357 155.754 256.546 152.362C264.736 148.97 272.177 143.998 278.445 137.73C284.713 131.462 289.685 124.021 293.077 115.831C296.469 107.642 298.215 98.8642 298.215 90C298.215 81.1358 296.469 72.3583 293.077 64.1689C289.685 55.9794 284.713 48.5382 278.445 42.2703C272.177 36.0023 264.736 31.0303 256.546 27.6381C248.357 24.2459 239.58 22.5 230.715 22.5L230.715 90V157.5Z" fill="#31D67B"/>
<circle cx="277.215" cy="42.5" r="16" transform="rotate(-90 277.215 42.5)" fill="#AB85FF"/>
<path d="M116.053 83.1141L178.633 83.1141M178.633 83.1141L176.918 82.2868M178.633 83.1141L176.918 83.9414" stroke="black"/>
<path d="M116.053 96.8615L203.493 96.8615M203.493 96.8615L201.098 96.0042M203.493 96.8615L201.098 97.7188" stroke="black"/>
<path d="M116.053 69.4279H155.487M155.487 69.4279L154.407 68.5706M155.487 69.4279L154.407 70.2852" stroke="black"/>
<path d="M116.053 110.576H144.343M144.343 110.576L143.567 109.719M144.343 110.576L143.567 111.434" stroke="black"/>
<path d="M55.1734 60.457H121.747V119.541H55.1734L42.9683 115.082V64.173L55.1734 60.457Z" fill="#A57CFE"/>
<path d="M55.1734 60.457V119.541L42.9683 115.082V64.173L55.1734 60.457Z" fill="#8052E4"/>
<path d="M75.6694 54.34C75.6694 51.1999 74.4219 48.1883 72.2015 45.9679C69.981 43.7474 66.9695 42.5 63.8293 42.5C60.6891 42.5 57.6776 43.7474 55.4571 45.9679C53.2367 48.1883 51.9893 51.1999 51.9893 54.34L63.8293 54.34H75.6694Z" fill="#D4D4D4"/>
<path d="M58.1912 54.3387C58.1912 52.2452 57.3893 50.2375 55.9618 48.7572C54.5344 47.2769 52.5984 46.4453 50.5797 46.4453C48.561 46.4453 46.625 47.2769 45.1976 48.7572C43.7702 50.2375 42.9683 52.2452 42.9683 54.3387L50.5797 54.3387H58.1912Z" fill="#D4D4D4"/>
<path d="M92.0199 54.3387C92.0199 52.2452 90.8616 50.2375 88.7997 48.7572C86.7379 47.2769 83.9415 46.4453 81.0256 46.4453C78.1097 46.4453 75.3133 47.2769 73.2514 48.7572C71.1896 50.2375 70.0313 52.2452 70.0313 54.3387L81.0256 54.3387H92.0199Z" fill="#D4D4D4"/>
<path d="M105.397 131.383C105.397 134.523 104.149 137.534 101.929 139.755C99.7083 141.975 96.6968 143.223 93.5566 143.223C90.4164 143.223 87.4049 141.975 85.1844 139.755C82.964 137.534 81.7166 134.523 81.7166 131.383L93.5566 131.383H105.397Z" fill="#D4D4D4"/>
<path d="M87.9185 131.384C87.9185 133.477 87.1166 135.485 85.6891 136.965C84.2617 138.446 82.3257 139.277 80.307 139.277C78.2883 139.277 76.3523 138.446 74.9249 136.965C73.4975 135.485 72.6956 133.477 72.6956 131.384L80.307 131.384H87.9185Z" fill="#D4D4D4"/>
<path d="M121.747 131.384C121.747 133.477 120.589 135.485 118.527 136.965C116.465 138.446 113.669 139.277 110.753 139.277C107.837 139.277 105.041 138.446 102.979 136.965C100.917 135.485 99.7585 133.477 99.7585 131.384L110.753 131.384H121.747Z" fill="#D4D4D4"/>
</svg>
