<svg width="342" height="180" viewBox="0 0 342 180" fill="none" xmlns="http://www.w3.org/2000/svg">
<rect width="341" height="180" transform="translate(0.0917969)" fill="#F5F5F5"/>
<path d="M236.838 135C250.338 134 276.138 123.3 277.338 94.5C277.338 58.5 249.838 49 236.338 49C216.838 49 135.838 49 89.8376 49" stroke="black"/>
<path d="M237.041 135H164.838" stroke="black"/>
<circle cx="250.65" cy="82.3281" r="1.375" fill="#D4D4D4"/>
<circle cx="256.4" cy="82.3281" r="1.375" fill="#D4D4D4"/>
<circle cx="262.15" cy="82.3281" r="1.375" fill="#D4D4D4"/>
<circle cx="267.65" cy="82.3281" r="1.375" fill="#D4D4D4"/>
<circle cx="273.65" cy="82.3281" r="1.375" fill="#D4D4D4"/>
<circle cx="279.4" cy="82.3281" r="1.375" fill="#D4D4D4"/>
<circle cx="285.15" cy="82.3281" r="1.375" fill="#D4D4D4"/>
<circle cx="290.9" cy="82.3281" r="1.375" fill="#D4D4D4"/>
<circle cx="296.65" cy="82.3281" r="1.375" fill="#D4D4D4"/>
<circle cx="250.65" cy="88.0781" r="1.375" fill="#D4D4D4"/>
<circle cx="256.4" cy="88.0781" r="1.375" fill="#D4D4D4"/>
<circle cx="250.65" cy="93.8281" r="1.375" fill="#D4D4D4"/>
<circle cx="256.4" cy="93.8281" r="1.375" fill="#D4D4D4"/>
<circle cx="262.15" cy="93.8281" r="1.375" fill="#D4D4D4"/>
<circle cx="267.9" cy="93.8281" r="1.375" fill="#D4D4D4"/>
<circle cx="273.65" cy="93.8281" r="1.375" fill="#D4D4D4"/>
<circle cx="279.4" cy="93.8281" r="1.375" fill="#D4D4D4"/>
<circle cx="285.15" cy="93.8281" r="1.375" fill="#D4D4D4"/>
<circle cx="290.9" cy="93.8281" r="1.375" fill="#D4D4D4"/>
<circle cx="296.65" cy="93.8281" r="1.375" fill="#D4D4D4"/>
<circle cx="262.15" cy="88.0781" r="1.375" fill="#D4D4D4"/>
<circle cx="267.65" cy="88.0781" r="1.375" fill="#D4D4D4"/>
<circle cx="273.65" cy="88.0781" r="1.375" fill="#D4D4D4"/>
<circle cx="279.4" cy="88.0781" r="1.375" fill="#D4D4D4"/>
<circle cx="285.15" cy="88.0781" r="1.375" fill="#D4D4D4"/>
<circle cx="290.9" cy="88.0781" r="1.375" fill="#D4D4D4"/>
<circle cx="296.65" cy="88.0781" r="1.375" fill="#D4D4D4"/>
<path d="M164.905 121.545H126.372M126.372 121.545L127.428 122.054M126.372 121.545L127.428 121.035" stroke="black"/>
<path d="M164.905 113.083H111.064M111.064 113.083L112.54 113.61M111.064 113.083L112.54 112.555" stroke="black"/>
<path d="M164.905 129.973H140.624M140.624 129.973L141.289 130.501M140.624 129.973L141.289 129.445" stroke="black"/>
<path d="M164.905 104.637H147.486M147.486 104.637L147.963 105.165M147.486 104.637L147.963 104.109" stroke="black"/>
<path d="M171.199 92.5469L134.626 149.605H207.773L171.199 92.5469Z" fill="#31D67B"/>
<path d="M219.752 143.261L184.093 87.6297L148.433 143.261H219.752Z" stroke="black"/>
<path d="M119.367 49.0022L90.4195 32.2891V65.7153L119.367 49.0022Z" fill="#A57CFE"/>
<path d="M101.055 49.0022L72.107 32.2891V65.7153L101.055 49.0022Z" fill="#A57CFE"/>
<path d="M81.7561 49.0022L52.8082 32.2891V65.7153L81.7561 49.0022Z" fill="#A57CFE"/>
</svg>
