<svg width="342" height="180" viewBox="0 0 342 180" fill="none" xmlns="http://www.w3.org/2000/svg">
<rect width="341" height="180" transform="translate(0.0917969)" fill="#F5F5F5"/>
<path d="M61.1463 24.0156L21.124 69.1758H135.643L172.892 24.0156H61.1463Z" fill="#31D67B"/>
<mask id="mask0" mask-type="alpha" maskUnits="userSpaceOnUse" x="21" y="24" width="152" height="46">
<path d="M61.1463 24.0156L21.124 69.1758H135.643L172.892 24.0156H61.1463Z" fill="#31D67B"/>
</mask>
<g mask="url(#mask0)">
<path d="M266.481 25.6275C193.419 -3.36541 141.232 -3.36541 109.92 25.6275C78.6074 54.6204 26.4202 54.6204 -46.6419 25.6275" stroke="#4AE991" stroke-width="2"/>
<path d="M257.329 81.153C201.319 37.5412 151.836 26.0259 108.881 46.6071C65.9253 67.1884 16.4425 55.6731 -39.5677 12.0613" stroke="#4AE991" stroke-width="2"/>
<path d="M263.392 61.9821C187.276 37.0654 135.25 39.913 107.315 70.5248C79.3796 101.137 27.3537 103.984 -48.7629 79.0674" stroke="#4AE991" stroke-width="2"/>
</g>
<path d="M128.717 90.7148L70.8745 155.983H236.386L290.22 90.7148H128.717Z" fill="#AB85FF"/>
<mask id="mask1" mask-type="alpha" maskUnits="userSpaceOnUse" x="70" y="90" width="221" height="66">
<path d="M128.717 90.7148L70.8745 155.983H236.386L290.22 90.7148H128.717Z" fill="#AB85FF"/>
</mask>
<g mask="url(#mask1)">
<path d="M425.482 93.0441C319.888 51.1416 244.463 51.1416 199.208 93.0441C153.953 134.947 78.5289 134.947 -27.0655 93.0441" stroke="#C9AEFF"/>
<path d="M412.254 173.294C331.304 110.264 259.788 93.6209 197.706 123.366C135.624 153.112 64.1083 136.469 -16.8416 73.4383" stroke="#C9AEFF"/>
<path d="M421.017 145.588C311.008 109.576 235.817 113.692 195.443 157.934C155.069 202.176 79.8781 206.292 -30.1309 170.28" stroke="#C9AEFF"/>
</g>
<path d="M264.886 60.6065C264.886 55.7412 262.954 51.0751 259.513 47.6348C256.073 44.1945 251.407 42.2617 246.542 42.2617C241.676 42.2617 237.01 44.1945 233.57 47.6348C230.13 51.0751 228.197 55.7412 228.197 60.6065L246.542 60.6065H264.886Z" fill="#8052E4"/>
<path d="M237.806 60.6049C237.806 57.3613 236.563 54.2506 234.352 51.9571C232.14 49.6635 229.141 48.375 226.013 48.375C222.885 48.375 219.885 49.6635 217.674 51.957C215.462 54.2506 214.22 57.3613 214.22 60.6049L226.013 60.6049H237.806Z" fill="#8052E4"/>
<path d="M290.22 60.6049C290.22 57.3613 288.425 54.2506 285.231 51.9571C282.036 49.6635 277.703 48.375 273.185 48.375C268.668 48.375 264.335 49.6635 261.14 51.957C257.946 54.2506 256.151 57.3613 256.151 60.6049L273.185 60.6049H290.22Z" fill="#8052E4"/>
<path d="M77.2698 123.872V114.832C77.2698 111.952 78.2965 109.552 80.3498 107.632C82.4298 105.712 85.0165 104.752 88.1098 104.752C91.2031 104.752 93.7765 105.712 95.8298 107.632C97.9098 109.552 98.9498 111.952 98.9498 114.832V123.872C98.9498 126.752 97.9098 129.152 95.8298 131.072C93.7765 132.992 91.2031 133.952 88.1098 133.952C85.0165 133.952 82.4298 132.992 80.3498 131.072C78.2965 129.152 77.2698 126.752 77.2698 123.872ZM82.4698 114.752V123.952C82.4698 125.365 83.0031 126.565 84.0698 127.552C85.1631 128.512 86.5098 128.992 88.1098 128.992C89.7098 128.992 91.0565 128.512 92.1498 127.552C93.2431 126.538 93.7898 125.338 93.7898 123.952V114.752C93.7898 113.338 93.2431 112.152 92.1498 111.192C91.0831 110.205 89.7365 109.712 88.1098 109.712C86.4831 109.712 85.1365 110.205 84.0698 111.192C83.0031 112.152 82.4698 113.338 82.4698 114.752ZM109.427 111.712L104.587 114.112L102.427 109.552L110.907 105.352H114.627V133.352H109.427V111.712ZM120.629 123.872V114.832C120.629 111.952 121.656 109.552 123.709 107.632C125.789 105.712 128.376 104.752 131.469 104.752C134.563 104.752 137.136 105.712 139.189 107.632C141.269 109.552 142.309 111.952 142.309 114.832V123.872C142.309 126.752 141.269 129.152 139.189 131.072C137.136 132.992 134.563 133.952 131.469 133.952C128.376 133.952 125.789 132.992 123.709 131.072C121.656 129.152 120.629 126.752 120.629 123.872ZM125.829 114.752V123.952C125.829 125.365 126.363 126.565 127.429 127.552C128.523 128.512 129.869 128.992 131.469 128.992C133.069 128.992 134.416 128.512 135.509 127.552C136.603 126.538 137.149 125.338 137.149 123.952V114.752C137.149 113.338 136.603 112.152 135.509 111.192C134.443 110.205 133.096 109.712 131.469 109.712C129.843 109.712 128.496 110.205 127.429 111.192C126.363 112.152 125.829 113.338 125.829 114.752ZM152.786 111.712L147.946 114.112L145.786 109.552L154.266 105.352H157.986V133.352H152.786V111.712ZM163.989 123.872V114.832C163.989 111.952 165.015 109.552 167.069 107.632C169.149 105.712 171.735 104.752 174.829 104.752C177.922 104.752 180.495 105.712 182.549 107.632C184.629 109.552 185.669 111.952 185.669 114.832V123.872C185.669 126.752 184.629 129.152 182.549 131.072C180.495 132.992 177.922 133.952 174.829 133.952C171.735 133.952 169.149 132.992 167.069 131.072C165.015 129.152 163.989 126.752 163.989 123.872ZM169.189 114.752V123.952C169.189 125.365 169.722 126.565 170.789 127.552C171.882 128.512 173.229 128.992 174.829 128.992C176.429 128.992 177.775 128.512 178.869 127.552C179.962 126.538 180.509 125.338 180.509 123.952V114.752C180.509 113.338 179.962 112.152 178.869 111.192C177.802 110.205 176.455 109.712 174.829 109.712C173.202 109.712 171.855 110.205 170.789 111.192C169.722 112.152 169.189 113.338 169.189 114.752Z" fill="#F5F5F5"/>
<path d="M80.3498 107.632L79.6715 106.897L79.6668 106.901L80.3498 107.632ZM95.8298 107.632L95.1468 108.362L95.1515 108.366L95.8298 107.632ZM95.8298 131.072L95.1515 130.337L95.1468 130.341L95.8298 131.072ZM80.3498 131.072L79.6668 131.802L79.6715 131.806L80.3498 131.072ZM84.0698 127.552L83.3908 128.286L83.4003 128.294L83.41 128.303L84.0698 127.552ZM92.1498 127.552L92.8096 128.303L92.8197 128.294L92.8296 128.285L92.1498 127.552ZM92.1498 111.192L91.4708 111.926L91.4803 111.934L91.49 111.943L92.1498 111.192ZM84.0698 111.192L84.7388 111.935L84.7488 111.926L84.0698 111.192ZM78.2698 123.872V114.832H76.2698V123.872H78.2698ZM78.2698 114.832C78.2698 112.221 79.1872 110.088 81.0328 108.362L79.6668 106.901C77.4057 109.015 76.2698 111.682 76.2698 114.832H78.2698ZM81.0281 108.366C82.9055 106.633 85.2425 105.752 88.1098 105.752V103.752C84.7904 103.752 81.9541 104.79 79.6715 106.897L81.0281 108.366ZM88.1098 105.752C90.9772 105.752 93.298 106.633 95.1468 108.362L96.5128 106.901C94.2549 104.79 91.4291 103.752 88.1098 103.752V105.752ZM95.1515 108.366C97.0224 110.093 97.9498 112.225 97.9498 114.832H99.9498C99.9498 111.678 98.7972 109.01 96.5081 106.897L95.1515 108.366ZM97.9498 114.832V123.872H99.9498V114.832H97.9498ZM97.9498 123.872C97.9498 126.478 97.0224 128.61 95.1515 130.337L96.5081 131.806C98.7972 129.693 99.9498 127.025 99.9498 123.872H97.9498ZM95.1468 130.341C93.298 132.07 90.9772 132.952 88.1098 132.952V134.952C91.4291 134.952 94.2549 133.913 96.5128 131.802L95.1468 130.341ZM88.1098 132.952C85.2425 132.952 82.9055 132.07 81.0281 130.337L79.6715 131.806C81.9541 133.913 84.7904 134.952 88.1098 134.952V132.952ZM81.0328 130.341C79.1872 128.615 78.2698 126.482 78.2698 123.872H76.2698C76.2698 127.021 77.4057 129.688 79.6668 131.802L81.0328 130.341ZM81.4698 114.752V123.952H83.4698V114.752H81.4698ZM81.4698 123.952C81.4698 125.652 82.126 127.116 83.3908 128.286L84.7488 126.817C83.8803 126.014 83.4698 125.077 83.4698 123.952H81.4698ZM83.41 128.303C84.7045 129.44 86.2931 129.992 88.1098 129.992V127.992C86.7265 127.992 85.6218 127.583 84.7296 126.8L83.41 128.303ZM88.1098 129.992C89.9265 129.992 91.5151 129.44 92.8096 128.303L91.49 126.8C90.5978 127.583 89.4931 127.992 88.1098 127.992V129.992ZM92.8296 128.285C94.1099 127.098 94.7898 125.639 94.7898 123.952H92.7898C92.7898 125.037 92.3763 125.978 91.47 126.818L92.8296 128.285ZM94.7898 123.952V114.752H92.7898V123.952H94.7898ZM94.7898 114.752C94.7898 113.041 94.1119 111.584 92.8096 110.44L91.49 111.943C92.3744 112.72 92.7898 113.636 92.7898 114.752H94.7898ZM92.8288 110.457C91.5548 109.279 89.9557 108.712 88.1098 108.712V110.712C89.5172 110.712 90.6115 111.131 91.4708 111.926L92.8288 110.457ZM88.1098 108.712C86.2639 108.712 84.6648 109.279 83.3908 110.457L84.7488 111.926C85.6082 111.131 86.7024 110.712 88.1098 110.712V108.712ZM83.4008 110.448C82.1272 111.595 81.4698 113.05 81.4698 114.752H83.4698C83.4698 113.627 83.8791 112.709 84.7388 111.935L83.4008 110.448ZM109.427 111.712H110.427V110.1L108.983 110.816L109.427 111.712ZM104.587 114.112L103.683 114.54L104.119 115.46L105.031 115.007L104.587 114.112ZM102.427 109.552L101.983 108.655L101.103 109.092L101.523 109.98L102.427 109.552ZM110.907 105.352V104.352H110.673L110.463 104.455L110.907 105.352ZM114.627 105.352H115.627V104.352H114.627V105.352ZM114.627 133.352V134.352H115.627V133.352H114.627ZM109.427 133.352H108.427V134.352H109.427V133.352ZM108.983 110.816L104.143 113.216L105.031 115.007L109.871 112.607L108.983 110.816ZM105.491 113.683L103.331 109.123L101.523 109.98L103.683 114.54L105.491 113.683ZM102.871 110.448L111.351 106.248L110.463 104.455L101.983 108.655L102.871 110.448ZM110.907 106.352H114.627V104.352H110.907V106.352ZM113.627 105.352V133.352H115.627V105.352H113.627ZM114.627 132.352H109.427V134.352H114.627V132.352ZM110.427 133.352V111.712H108.427V133.352H110.427ZM123.709 107.632L123.031 106.897L123.026 106.901L123.709 107.632ZM139.189 107.632L138.506 108.362L138.511 108.366L139.189 107.632ZM139.189 131.072L138.511 130.337L138.506 130.341L139.189 131.072ZM123.709 131.072L123.026 131.802L123.031 131.806L123.709 131.072ZM127.429 127.552L126.75 128.286L126.76 128.294L126.769 128.303L127.429 127.552ZM135.509 127.552L136.169 128.303L136.179 128.294L136.189 128.285L135.509 127.552ZM135.509 111.192L134.83 111.926L134.84 111.934L134.849 111.943L135.509 111.192ZM127.429 111.192L128.098 111.935L128.108 111.926L127.429 111.192ZM121.629 123.872V114.832H119.629V123.872H121.629ZM121.629 114.832C121.629 112.221 122.547 110.088 124.392 108.362L123.026 106.901C120.765 109.015 119.629 111.682 119.629 114.832H121.629ZM124.387 108.366C126.265 106.633 128.602 105.752 131.469 105.752V103.752C128.15 103.752 125.313 104.79 123.031 106.897L124.387 108.366ZM131.469 105.752C134.337 105.752 136.657 106.633 138.506 108.362L139.872 106.901C137.614 104.79 134.788 103.752 131.469 103.752V105.752ZM138.511 108.366C140.382 110.093 141.309 112.225 141.309 114.832H143.309C143.309 111.678 142.157 109.01 139.867 106.897L138.511 108.366ZM141.309 114.832V123.872H143.309V114.832H141.309ZM141.309 123.872C141.309 126.478 140.382 128.61 138.511 130.337L139.867 131.806C142.157 129.693 143.309 127.025 143.309 123.872H141.309ZM138.506 130.341C136.657 132.07 134.337 132.952 131.469 132.952V134.952C134.788 134.952 137.614 133.913 139.872 131.802L138.506 130.341ZM131.469 132.952C128.602 132.952 126.265 132.07 124.387 130.337L123.031 131.806C125.313 133.913 128.15 134.952 131.469 134.952V132.952ZM124.392 130.341C122.547 128.615 121.629 126.482 121.629 123.872H119.629C119.629 127.021 120.765 129.688 123.026 131.802L124.392 130.341ZM124.829 114.752V123.952H126.829V114.752H124.829ZM124.829 123.952C124.829 125.652 125.485 127.116 126.75 128.286L128.108 126.817C127.24 126.014 126.829 125.077 126.829 123.952H124.829ZM126.769 128.303C128.064 129.44 129.652 129.992 131.469 129.992V127.992C130.086 127.992 128.981 127.583 128.089 126.8L126.769 128.303ZM131.469 129.992C133.286 129.992 134.874 129.44 136.169 128.303L134.849 126.8C133.957 127.583 132.852 127.992 131.469 127.992V129.992ZM136.189 128.285C137.469 127.098 138.149 125.639 138.149 123.952H136.149C136.149 125.037 135.736 125.978 134.829 126.818L136.189 128.285ZM138.149 123.952V114.752H136.149V123.952H138.149ZM138.149 114.752C138.149 113.041 137.471 111.584 136.169 110.44L134.849 111.943C135.734 112.72 136.149 113.636 136.149 114.752H138.149ZM136.188 110.457C134.914 109.279 133.315 108.712 131.469 108.712V110.712C132.877 110.712 133.971 111.131 134.83 111.926L136.188 110.457ZM131.469 108.712C129.623 108.712 128.024 109.279 126.75 110.457L128.108 111.926C128.968 111.131 130.062 110.712 131.469 110.712V108.712ZM126.76 110.448C125.487 111.595 124.829 113.05 124.829 114.752H126.829C126.829 113.627 127.238 112.709 128.098 111.935L126.76 110.448ZM152.786 111.712H153.786V110.1L152.342 110.816L152.786 111.712ZM147.946 114.112L147.043 114.54L147.478 115.46L148.391 115.007L147.946 114.112ZM145.786 109.552L145.343 108.655L144.462 109.092L144.883 109.98L145.786 109.552ZM154.266 105.352V104.352H154.032L153.823 104.455L154.266 105.352ZM157.986 105.352H158.986V104.352H157.986V105.352ZM157.986 133.352V134.352H158.986V133.352H157.986ZM152.786 133.352H151.786V134.352H152.786V133.352ZM152.342 110.816L147.502 113.216L148.391 115.007L153.231 112.607L152.342 110.816ZM148.85 113.683L146.69 109.123L144.883 109.98L147.043 114.54L148.85 113.683ZM146.23 110.448L154.71 106.248L153.823 104.455L145.343 108.655L146.23 110.448ZM154.266 106.352H157.986V104.352H154.266V106.352ZM156.986 105.352V133.352H158.986V105.352H156.986ZM157.986 132.352H152.786V134.352H157.986V132.352ZM153.786 133.352V111.712H151.786V133.352H153.786ZM167.069 107.632L166.39 106.897L166.386 106.901L167.069 107.632ZM182.549 107.632L181.866 108.362L181.87 108.366L182.549 107.632ZM182.549 131.072L181.87 130.337L181.866 130.341L182.549 131.072ZM167.069 131.072L166.386 131.802L166.39 131.806L167.069 131.072ZM170.789 127.552L170.11 128.286L170.119 128.294L170.129 128.303L170.789 127.552ZM178.869 127.552L179.528 128.303L179.538 128.294L179.548 128.285L178.869 127.552ZM178.869 111.192L178.19 111.926L178.199 111.934L178.209 111.943L178.869 111.192ZM170.789 111.192L171.458 111.935L171.468 111.926L170.789 111.192ZM164.989 123.872V114.832H162.989V123.872H164.989ZM164.989 114.832C164.989 112.221 165.906 110.088 167.752 108.362L166.386 106.901C164.124 109.015 162.989 111.682 162.989 114.832H164.989ZM167.747 108.366C169.624 106.633 171.961 105.752 174.829 105.752V103.752C171.509 103.752 168.673 104.79 166.39 106.897L167.747 108.366ZM174.829 105.752C177.696 105.752 180.017 106.633 181.866 108.362L183.232 106.901C180.974 104.79 178.148 103.752 174.829 103.752V105.752ZM181.87 108.366C183.741 110.093 184.669 112.225 184.669 114.832H186.669C186.669 111.678 185.516 109.01 183.227 106.897L181.87 108.366ZM184.669 114.832V123.872H186.669V114.832H184.669ZM184.669 123.872C184.669 126.478 183.741 128.61 181.87 130.337L183.227 131.806C185.516 129.693 186.669 127.025 186.669 123.872H184.669ZM181.866 130.341C180.017 132.07 177.696 132.952 174.829 132.952V134.952C178.148 134.952 180.974 133.913 183.232 131.802L181.866 130.341ZM174.829 132.952C171.961 132.952 169.624 132.07 167.747 130.337L166.39 131.806C168.673 133.913 171.509 134.952 174.829 134.952V132.952ZM167.752 130.341C165.906 128.615 164.989 126.482 164.989 123.872H162.989C162.989 127.021 164.124 129.688 166.386 131.802L167.752 130.341ZM168.189 114.752V123.952H170.189V114.752H168.189ZM168.189 123.952C168.189 125.652 168.845 127.116 170.11 128.286L171.468 126.817C170.599 126.014 170.189 125.077 170.189 123.952H168.189ZM170.129 128.303C171.423 129.44 173.012 129.992 174.829 129.992V127.992C173.445 127.992 172.341 127.583 171.448 126.8L170.129 128.303ZM174.829 129.992C176.645 129.992 178.234 129.44 179.528 128.303L178.209 126.8C177.317 127.583 176.212 127.992 174.829 127.992V129.992ZM179.548 128.285C180.829 127.098 181.509 125.639 181.509 123.952H179.509C179.509 125.037 179.095 125.978 178.189 126.818L179.548 128.285ZM181.509 123.952V114.752H179.509V123.952H181.509ZM181.509 114.752C181.509 113.041 180.831 111.584 179.528 110.44L178.209 111.943C179.093 112.72 179.509 113.636 179.509 114.752H181.509ZM179.548 110.457C178.274 109.279 176.674 108.712 174.829 108.712V110.712C176.236 110.712 177.33 111.131 178.19 111.926L179.548 110.457ZM174.829 108.712C172.983 108.712 171.384 109.279 170.11 110.457L171.468 111.926C172.327 111.131 173.421 110.712 174.829 110.712V108.712ZM170.12 110.448C168.846 111.595 168.189 113.05 168.189 114.752H170.189C170.189 113.627 170.598 112.709 171.458 111.935L170.12 110.448Z" fill="black"/>
<path d="M127.264 38.5479L123.979 40.1767L122.513 37.0819L128.268 34.2315H130.793V53.2344H127.264V38.5479ZM134.866 46.8005V40.6653C134.866 38.7107 135.563 37.0819 136.957 35.7789C138.368 34.4758 140.124 33.8243 142.223 33.8243C144.323 33.8243 146.069 34.4758 147.463 35.7789C148.874 37.0819 149.58 38.7107 149.58 40.6653V46.8005C149.58 48.7551 148.874 50.3839 147.463 51.687C146.069 52.9901 144.323 53.6416 142.223 53.6416C140.124 53.6416 138.368 52.9901 136.957 51.687C135.563 50.3839 134.866 48.7551 134.866 46.8005ZM138.396 40.611V46.8548C138.396 47.814 138.757 48.6284 139.481 49.2981C140.223 49.9496 141.137 50.2754 142.223 50.2754C143.309 50.2754 144.223 49.9496 144.965 49.2981C145.707 48.6103 146.078 47.7959 146.078 46.8548V40.611C146.078 39.6518 145.707 38.8465 144.965 38.1949C144.241 37.5253 143.327 37.1905 142.223 37.1905C141.119 37.1905 140.205 37.5253 139.481 38.1949C138.757 38.8465 138.396 39.6518 138.396 40.611ZM156.691 38.5479L153.406 40.1767L151.94 37.0819L157.695 34.2315H160.22V53.2344H156.691V38.5479ZM164.293 46.8005V40.6653C164.293 38.7107 164.99 37.0819 166.384 35.7789C167.795 34.4758 169.551 33.8243 171.65 33.8243C173.75 33.8243 175.496 34.4758 176.89 35.7789C178.301 37.0819 179.007 38.7107 179.007 40.6653V46.8005C179.007 48.7551 178.301 50.3839 176.89 51.687C175.496 52.9901 173.75 53.6416 171.65 53.6416C169.551 53.6416 167.795 52.9901 166.384 51.687C164.99 50.3839 164.293 48.7551 164.293 46.8005ZM167.822 40.611V46.8548C167.822 47.814 168.184 48.6284 168.908 49.2981C169.65 49.9496 170.564 50.2754 171.65 50.2754C172.736 50.2754 173.65 49.9496 174.392 49.2981C175.134 48.6103 175.505 47.7959 175.505 46.8548V40.611C175.505 39.6518 175.134 38.8465 174.392 38.1949C173.668 37.5253 172.754 37.1905 171.65 37.1905C170.546 37.1905 169.632 37.5253 168.908 38.1949C168.184 38.8465 167.822 39.6518 167.822 40.611ZM186.118 38.5479L182.833 40.1767L181.367 37.0819L187.122 34.2315H189.647V53.2344H186.118V38.5479Z" fill="#F5F5F5"/>
<path d="M127.264 38.5479H127.942V37.4538L126.962 37.9398L127.264 38.5479ZM123.979 40.1767L123.366 40.4672L123.661 41.0917L124.281 40.7847L123.979 40.1767ZM122.513 37.0819L122.212 36.4738L121.614 36.7697L121.9 37.3725L122.513 37.0819ZM128.268 34.2315V33.5528H128.109L127.967 33.6233L128.268 34.2315ZM130.793 34.2315H131.472V33.5528H130.793V34.2315ZM130.793 53.2344V53.913H131.472V53.2344H130.793ZM127.264 53.2344H126.585V53.913H127.264V53.2344ZM126.962 37.9398L123.678 39.5687L124.281 40.7847L127.565 39.1559L126.962 37.9398ZM124.592 39.8861L123.126 36.7914L121.9 37.3725L123.366 40.4672L124.592 39.8861ZM122.814 37.6901L128.569 34.8397L127.967 33.6233L122.212 36.4738L122.814 37.6901ZM128.268 34.9102H130.793V33.5528H128.268V34.9102ZM130.114 34.2315V53.2344H131.472V34.2315H130.114ZM130.793 52.5557H127.264V53.913H130.793V52.5557ZM127.942 53.2344V38.5479H126.585V53.2344H127.942ZM136.957 35.7789L136.496 35.2802L136.493 35.2831L136.957 35.7789ZM147.463 35.7789L146.999 36.2746L147.002 36.2776L147.463 35.7789ZM147.463 51.687L147.002 51.1883L146.999 51.1913L147.463 51.687ZM136.957 51.687L136.493 52.1827L136.496 52.1857L136.957 51.687ZM139.481 49.2981L139.021 49.7963L139.027 49.8022L139.034 49.808L139.481 49.2981ZM144.965 49.2981L145.413 49.808L145.42 49.802L145.426 49.7958L144.965 49.2981ZM144.965 38.1949L144.504 38.6932L144.511 38.6991L144.517 38.7049L144.965 38.1949ZM139.481 38.1949L139.935 38.6995L139.942 38.6932L139.481 38.1949ZM135.545 46.8005V40.6653H134.188V46.8005H135.545ZM135.545 40.6653C135.545 38.8934 136.168 37.4458 137.42 36.2746L136.493 35.2831C134.959 36.7181 134.188 38.5281 134.188 40.6653H135.545ZM137.417 36.2776C138.691 35.1014 140.277 34.503 142.223 34.503V33.1456C139.97 33.1456 138.046 33.8502 136.496 35.2802L137.417 36.2776ZM142.223 34.503C144.169 34.503 145.744 35.1013 146.999 36.2746L147.926 35.2831C146.394 33.8503 144.476 33.1456 142.223 33.1456V34.503ZM147.002 36.2776C148.272 37.4496 148.901 38.8964 148.901 40.6653H150.259C150.259 38.5251 149.477 36.7142 147.923 35.2802L147.002 36.2776ZM148.901 40.6653V46.8005H150.259V40.6653H148.901ZM148.901 46.8005C148.901 48.5695 148.272 50.0162 147.002 51.1883L147.923 52.1857C149.477 50.7516 150.259 48.9408 150.259 46.8005H148.901ZM146.999 51.1913C145.744 52.3645 144.169 52.9629 142.223 52.9629V54.3203C144.476 54.3203 146.394 53.6156 147.926 52.1827L146.999 51.1913ZM142.223 52.9629C140.277 52.9629 138.691 52.3645 137.417 51.1883L136.496 52.1857C138.046 53.6156 139.97 54.3203 142.223 54.3203V52.9629ZM137.42 51.1913C136.168 50.0201 135.545 48.5724 135.545 46.8005H134.188C134.188 48.9378 134.959 50.7478 136.493 52.1827L137.42 51.1913ZM137.717 40.611V46.8548H139.074V40.611H137.717ZM137.717 46.8548C137.717 48.0091 138.162 49.0023 139.021 49.7963L139.942 48.7998C139.353 48.2546 139.074 47.6189 139.074 46.8548H137.717ZM139.034 49.808C139.912 50.5794 140.99 50.954 142.223 50.954V49.5967C141.284 49.5967 140.535 49.3197 139.929 48.7881L139.034 49.808ZM142.223 50.954C143.456 50.954 144.534 50.5794 145.413 49.808L144.517 48.7881C143.912 49.3197 143.162 49.5967 142.223 49.5967V50.954ZM145.426 49.7958C146.295 48.9905 146.757 48.0002 146.757 46.8548H145.399C145.399 47.5917 145.119 48.2302 144.504 48.8003L145.426 49.7958ZM146.757 46.8548V40.611H145.399V46.8548H146.757ZM146.757 40.611C146.757 39.4501 146.297 38.461 145.413 37.685L144.517 38.7049C145.118 39.2319 145.399 39.8536 145.399 40.611H146.757ZM145.426 37.6967C144.561 36.8969 143.476 36.5118 142.223 36.5118V37.8692C143.178 37.8692 143.921 38.1537 144.504 38.6932L145.426 37.6967ZM142.223 36.5118C140.97 36.5118 139.885 36.8969 139.021 37.6967L139.942 38.6932C140.525 38.1537 141.268 37.8692 142.223 37.8692V36.5118ZM139.027 37.6905C138.163 38.4685 137.717 39.4561 137.717 40.611H139.074C139.074 39.8476 139.352 39.2245 139.935 38.6994L139.027 37.6905ZM156.691 38.5479H157.369V37.4538L156.389 37.9398L156.691 38.5479ZM153.406 40.1767L152.793 40.4672L153.088 41.0917L153.707 40.7847L153.406 40.1767ZM151.94 37.0819L151.639 36.4738L151.041 36.7697L151.327 37.3725L151.94 37.0819ZM157.695 34.2315V33.5528H157.536L157.394 33.6233L157.695 34.2315ZM160.22 34.2315H160.898V33.5528H160.22V34.2315ZM160.22 53.2344V53.913H160.898V53.2344H160.22ZM156.691 53.2344H156.012V53.913H156.691V53.2344ZM156.389 37.9398L153.104 39.5687L153.707 40.7847L156.992 39.1559L156.389 37.9398ZM154.019 39.8861L152.553 36.7914L151.327 37.3725L152.793 40.4672L154.019 39.8861ZM152.241 37.6901L157.996 34.8397L157.394 33.6233L151.639 36.4738L152.241 37.6901ZM157.695 34.9102H160.22V33.5528H157.695V34.9102ZM159.541 34.2315V53.2344H160.898V34.2315H159.541ZM160.22 52.5557H156.691V53.913H160.22V52.5557ZM157.369 53.2344V38.5479H156.012V53.2344H157.369ZM166.384 35.7789L165.923 35.2802L165.92 35.2831L166.384 35.7789ZM176.89 35.7789L176.426 36.2746L176.429 36.2776L176.89 35.7789ZM176.89 51.687L176.429 51.1883L176.426 51.1913L176.89 51.687ZM166.384 51.687L165.92 52.1827L165.923 52.1857L166.384 51.687ZM168.908 49.2981L168.447 49.7963L168.454 49.8022L168.461 49.808L168.908 49.2981ZM174.392 49.2981L174.84 49.808L174.847 49.802L174.853 49.7958L174.392 49.2981ZM174.392 38.1949L173.931 38.6932L173.938 38.6991L173.944 38.7049L174.392 38.1949ZM168.908 38.1949L169.362 38.6995L169.369 38.6932L168.908 38.1949ZM164.972 46.8005V40.6653H163.615V46.8005H164.972ZM164.972 40.6653C164.972 38.8934 165.595 37.4458 166.847 36.2746L165.92 35.2831C164.386 36.7181 163.615 38.5281 163.615 40.6653H164.972ZM166.844 36.2776C168.118 35.1014 169.704 34.503 171.65 34.503V33.1456C169.397 33.1456 167.472 33.8502 165.923 35.2802L166.844 36.2776ZM171.65 34.503C173.596 34.503 175.171 35.1013 176.426 36.2746L177.353 35.2831C175.821 33.8503 173.903 33.1456 171.65 33.1456V34.503ZM176.429 36.2776C177.699 37.4496 178.328 38.8964 178.328 40.6653H179.686C179.686 38.5251 178.903 36.7142 177.35 35.2802L176.429 36.2776ZM178.328 40.6653V46.8005H179.686V40.6653H178.328ZM178.328 46.8005C178.328 48.5695 177.699 50.0162 176.429 51.1883L177.35 52.1857C178.903 50.7516 179.686 48.9408 179.686 46.8005H178.328ZM176.426 51.1913C175.171 52.3645 173.596 52.9629 171.65 52.9629V54.3203C173.903 54.3203 175.821 53.6156 177.353 52.1827L176.426 51.1913ZM171.65 52.9629C169.704 52.9629 168.118 52.3645 166.844 51.1883L165.923 52.1857C167.472 53.6156 169.397 54.3203 171.65 54.3203V52.9629ZM166.847 51.1913C165.595 50.0201 164.972 48.5724 164.972 46.8005H163.615C163.615 48.9378 164.386 50.7478 165.92 52.1827L166.847 51.1913ZM167.144 40.611V46.8548H168.501V40.611H167.144ZM167.144 46.8548C167.144 48.0091 167.589 49.0023 168.447 49.7963L169.369 48.7998C168.78 48.2546 168.501 47.6189 168.501 46.8548H167.144ZM168.461 49.808C169.339 50.5794 170.417 50.954 171.65 50.954V49.5967C170.711 49.5967 169.962 49.3197 169.356 48.7881L168.461 49.808ZM171.65 50.954C172.883 50.954 173.961 50.5794 174.84 49.808L173.944 48.7881C173.339 49.3197 172.589 49.5967 171.65 49.5967V50.954ZM174.853 49.7958C175.722 48.9905 176.184 48.0002 176.184 46.8548H174.826C174.826 47.5917 174.546 48.2302 173.931 48.8003L174.853 49.7958ZM176.184 46.8548V40.611H174.826V46.8548H176.184ZM176.184 40.611C176.184 39.4501 175.724 38.461 174.84 37.685L173.944 38.7049C174.544 39.2319 174.826 39.8536 174.826 40.611H176.184ZM174.853 37.6967C173.988 36.8969 172.903 36.5118 171.65 36.5118V37.8692C172.605 37.8692 173.348 38.1537 173.931 38.6932L174.853 37.6967ZM171.65 36.5118C170.397 36.5118 169.312 36.8969 168.447 37.6967L169.369 38.6932C169.952 38.1537 170.695 37.8692 171.65 37.8692V36.5118ZM168.454 37.6905C167.59 38.4685 167.144 39.4561 167.144 40.611H168.501C168.501 39.8476 168.779 39.2245 169.362 38.6994L168.454 37.6905ZM186.118 38.5479H186.796V37.4538L185.816 37.9398L186.118 38.5479ZM182.833 40.1767L182.219 40.4672L182.515 41.0917L183.134 40.7847L182.833 40.1767ZM181.367 37.0819L181.066 36.4738L180.468 36.7697L180.754 37.3725L181.367 37.0819ZM187.122 34.2315V33.5528H186.963L186.821 33.6233L187.122 34.2315ZM189.647 34.2315H190.325V33.5528H189.647V34.2315ZM189.647 53.2344V53.913H190.325V53.2344H189.647ZM186.118 53.2344H185.439V53.913H186.118V53.2344ZM185.816 37.9398L182.531 39.5687L183.134 40.7847L186.419 39.1559L185.816 37.9398ZM183.446 39.8861L181.98 36.7914L180.754 37.3725L182.219 40.4672L183.446 39.8861ZM181.668 37.6901L187.423 34.8397L186.821 33.6233L181.066 36.4738L181.668 37.6901ZM187.122 34.9102H189.647V33.5528H187.122V34.9102ZM188.968 34.2315V53.2344H190.325V34.2315H188.968ZM189.647 52.5557H186.118V53.913H189.647V52.5557ZM186.796 53.2344V38.5479H185.439V53.2344H186.796Z" fill="black"/>
<path d="M281.36 67.1096C281.36 63.9694 280.113 60.9578 277.892 58.7374C275.672 56.517 272.66 55.2695 269.52 55.2695C266.38 55.2695 263.368 56.517 261.148 58.7374C258.928 60.9578 257.68 63.9694 257.68 67.1096L269.52 67.1096H281.36Z" fill="#D4D4D4"/>
<path d="M263.882 67.1082C263.882 65.0148 263.08 63.0071 261.653 61.5268C260.225 60.0465 258.289 59.2148 256.271 59.2148C254.252 59.2148 252.316 60.0465 250.889 61.5268C249.461 63.007 248.659 65.0148 248.659 67.1082L256.271 67.1082H263.882Z" fill="#D4D4D4"/>
<path d="M297.711 67.1082C297.711 65.0148 296.552 63.0071 294.491 61.5268C292.429 60.0465 289.632 59.2148 286.716 59.2148C283.801 59.2148 281.004 60.0465 278.942 61.5268C276.88 63.007 275.722 65.0148 275.722 67.1082L286.716 67.1082H297.711Z" fill="#D4D4D4"/>
</svg>
