<svg width="342" height="180" viewBox="0 0 342 180" fill="none" xmlns="http://www.w3.org/2000/svg">
<rect width="341" height="180" transform="translate(0.0917969)" fill="#F5F5F5"/>
<circle r="1.375" transform="matrix(-1 0 0 1 289.372 93.5391)" fill="#D4D4D4"/>
<circle r="1.375" transform="matrix(-1 0 0 1 283.622 93.5391)" fill="#D4D4D4"/>
<circle r="1.375" transform="matrix(-1 0 0 1 277.872 93.5391)" fill="#D4D4D4"/>
<circle r="1.375" transform="matrix(-1 0 0 1 272.122 93.5391)" fill="#D4D4D4"/>
<circle r="1.375" transform="matrix(-1 0 0 1 266.372 93.5391)" fill="#D4D4D4"/>
<circle r="1.375" transform="matrix(-1 0 0 1 260.622 93.5391)" fill="#D4D4D4"/>
<circle r="1.375" transform="matrix(-1 0 0 1 254.872 93.5391)" fill="#D4D4D4"/>
<circle r="1.375" transform="matrix(-1 0 0 1 249.122 93.5391)" fill="#D4D4D4"/>
<circle r="1.375" transform="matrix(-1 0 0 1 243.372 93.5391)" fill="#D4D4D4"/>
<circle r="1.375" transform="matrix(-1 0 0 1 289.372 99.2891)" fill="#D4D4D4"/>
<circle r="1.375" transform="matrix(-1 0 0 1 283.622 99.2891)" fill="#D4D4D4"/>
<circle r="1.375" transform="matrix(-1 0 0 1 289.372 105.039)" fill="#D4D4D4"/>
<circle r="1.375" transform="matrix(-1 0 0 1 283.622 105.039)" fill="#D4D4D4"/>
<circle r="1.375" transform="matrix(-1 0 0 1 277.872 105.039)" fill="#D4D4D4"/>
<circle r="1.375" transform="matrix(-1 0 0 1 272.122 105.039)" fill="#D4D4D4"/>
<circle r="1.375" transform="matrix(-1 0 0 1 266.372 105.039)" fill="#D4D4D4"/>
<circle r="1.375" transform="matrix(-1 0 0 1 260.622 105.039)" fill="#D4D4D4"/>
<circle r="1.375" transform="matrix(-1 0 0 1 254.872 105.039)" fill="#D4D4D4"/>
<circle r="1.375" transform="matrix(-1 0 0 1 249.122 105.039)" fill="#D4D4D4"/>
<circle r="1.375" transform="matrix(-1 0 0 1 243.372 105.039)" fill="#D4D4D4"/>
<circle r="1.375" transform="matrix(-1 0 0 1 277.872 99.2891)" fill="#D4D4D4"/>
<circle r="1.375" transform="matrix(-1 0 0 1 272.122 99.2891)" fill="#D4D4D4"/>
<circle r="1.375" transform="matrix(-1 0 0 1 266.372 99.2891)" fill="#D4D4D4"/>
<circle r="1.375" transform="matrix(-1 0 0 1 260.622 99.2891)" fill="#D4D4D4"/>
<circle r="1.375" transform="matrix(-1 0 0 1 254.872 99.2891)" fill="#D4D4D4"/>
<circle r="1.375" transform="matrix(-1 0 0 1 249.122 99.2891)" fill="#D4D4D4"/>
<circle r="1.375" transform="matrix(-1 0 0 1 243.372 99.2891)" fill="#D4D4D4"/>
<rect width="84" height="84" transform="matrix(-1 0 0 1 128.816 65.1641)" fill="#AB85FF"/>
<path d="M118.816 85.1641L118.816 90.1641" stroke="black"/>
<rect x="-0.5" y="0.5" width="68" height="8" transform="matrix(-1 0 0 1 120.816 83.1641)" stroke="black"/>
<rect x="-0.5" y="0.5" width="68" height="8" transform="matrix(-1 0 0 1 120.816 102.164)" stroke="black"/>
<rect x="-0.5" y="0.5" width="68" height="8" transform="matrix(-1 0 0 1 120.816 121.164)" stroke="black"/>
<path d="M72.8157 51.8359C72.8157 46.2664 75.0282 40.925 78.9664 36.9867C82.9047 33.0484 88.2461 30.8359 93.8157 30.8359C99.3852 30.8359 104.727 33.0484 108.665 36.9867C112.603 40.925 114.816 46.2664 114.816 51.8359L93.8157 51.8359H72.8157Z" fill="#DBDBDB"/>
<path d="M103.816 51.8359C103.816 48.1229 105.238 44.562 107.77 41.9364C110.301 39.3109 113.735 37.8359 117.316 37.8359C120.896 37.8359 124.33 39.3109 126.862 41.9364C129.393 44.562 130.816 48.1229 130.816 51.8359L117.316 51.8359H103.816Z" fill="#DBDBDB"/>
<path d="M43.8157 51.8359C43.8157 48.1229 45.8701 44.562 49.5271 41.9364C53.184 39.3109 58.144 37.8359 63.3157 37.8359C68.4874 37.8359 73.4473 39.3109 77.1043 41.9364C80.7612 44.562 82.8157 48.1229 82.8157 51.8359L63.3157 51.8359H43.8157Z" fill="#DBDBDB"/>
<path d="M128.816 124.599H167.348M167.348 124.599L166.293 125.109M167.348 124.599L166.293 124.09" stroke="black"/>
<path d="M128.816 116.137H182.656M182.656 116.137L181.181 116.665M182.656 116.137L181.181 115.609" stroke="black"/>
<path d="M128.816 133.028H153.096M153.096 133.028L152.431 133.556M153.096 133.028L152.431 132.5" stroke="black"/>
<path d="M128.816 107.692H146.235M146.235 107.692L145.757 108.22M146.235 107.692L145.757 107.164" stroke="black"/>
<path d="M181.522 79.9341L177.892 81.7341L176.272 78.3141L182.632 75.1641H185.422V96.1641H181.522V79.9341ZM206.513 81.2841C206.513 80.5041 206.173 79.8341 205.493 79.2741C204.853 78.7141 204.063 78.4341 203.123 78.4341C202.223 78.4341 201.413 78.7141 200.693 79.2741C199.993 79.8141 199.463 80.5541 199.103 81.4941L195.503 79.7841C196.183 78.2241 197.203 76.9941 198.563 76.0941C199.923 75.1741 201.443 74.7141 203.123 74.7141C205.223 74.7141 206.973 75.3441 208.373 76.6041C209.813 77.8641 210.533 79.3841 210.533 81.1641C210.533 82.2441 210.173 83.3741 209.453 84.5541C208.733 85.7141 207.593 87.0441 206.033 88.5441L201.923 92.4441H210.713V96.1641H195.923V93.2541L203.633 85.9041C205.553 84.0441 206.513 82.5041 206.513 81.2841ZM229.886 81.0141C229.886 80.2941 229.546 79.6841 228.866 79.1841C228.186 78.6841 227.316 78.4341 226.256 78.4341C225.396 78.4341 224.636 78.6141 223.976 78.9741C223.336 79.3141 222.866 79.7641 222.566 80.3241L219.026 78.6441C219.646 77.4441 220.606 76.4941 221.906 75.7941C223.206 75.0741 224.666 74.7141 226.286 74.7141C228.466 74.7141 230.286 75.3041 231.746 76.4841C233.186 77.6441 233.906 79.1141 233.906 80.8941C233.906 82.6341 233.156 84.0941 231.656 85.2741C233.516 86.4741 234.446 88.1041 234.446 90.1641C234.446 92.0241 233.686 93.5641 232.166 94.7841C230.646 96.0041 228.756 96.6141 226.496 96.6141C224.636 96.6141 223.006 96.1841 221.606 95.3241C220.206 94.4441 219.256 93.3041 218.756 91.9041L222.506 90.5841C222.726 91.2641 223.196 91.8241 223.916 92.2641C224.636 92.6841 225.486 92.8941 226.466 92.8941C227.586 92.8941 228.526 92.6241 229.286 92.0841C230.046 91.5241 230.426 90.8241 230.426 89.9841C230.426 89.1841 230.046 88.5241 229.286 88.0041C228.546 87.4641 227.636 87.1941 226.556 87.1941H224.966V83.6841H226.046C227.126 83.6841 228.036 83.4341 228.776 82.9341C229.516 82.4341 229.886 81.7941 229.886 81.0141ZM253.524 96.1641V92.1441H242.634V88.4241L253.704 75.1641H257.394V88.4241H260.064V92.1441H257.394V96.1641H253.524ZM253.524 80.9541L247.284 88.4241H253.524V80.9541ZM283.84 89.4741C283.84 91.4941 283.07 93.1941 281.53 94.5741C279.99 95.9341 278.08 96.6141 275.8 96.6141C273.96 96.6141 272.34 96.1341 270.94 95.1741C269.54 94.1941 268.54 92.8841 267.94 91.2441L271.81 90.1941C272.15 91.0341 272.68 91.6941 273.4 92.1741C274.12 92.6541 274.93 92.8941 275.83 92.8941C276.97 92.8941 277.91 92.5641 278.65 91.9041C279.43 91.2441 279.82 90.4341 279.82 89.4741C279.82 88.4341 279.39 87.5741 278.53 86.8941C277.71 86.2141 276.66 85.8741 275.38 85.8741H269.53L270.61 75.1641H282.04V78.7341H273.82L273.49 82.3341H275.59C277.93 82.3341 279.89 83.0141 281.47 84.3741C283.05 85.7141 283.84 87.4141 283.84 89.4741Z" fill="#31D67B"/>
<path d="M181.522 79.9341H182.522V78.322L181.077 79.0382L181.522 79.9341ZM177.892 81.7341L176.988 82.1621L177.424 83.0823L178.336 82.63L177.892 81.7341ZM176.272 78.3141L175.828 77.4179L174.947 77.8541L175.368 78.7421L176.272 78.3141ZM182.632 75.1641V74.1641H182.398L182.188 74.2679L182.632 75.1641ZM185.422 75.1641H186.422V74.1641H185.422V75.1641ZM185.422 96.1641V97.1641H186.422V96.1641H185.422ZM181.522 96.1641H180.522V97.1641H181.522V96.1641ZM181.077 79.0382L177.447 80.8382L178.336 82.63L181.966 80.83L181.077 79.0382ZM178.795 81.306L177.175 77.886L175.368 78.7421L176.988 82.1621L178.795 81.306ZM176.715 79.2102L183.075 76.0602L182.188 74.2679L175.828 77.4179L176.715 79.2102ZM182.632 76.1641H185.422V74.1641H182.632V76.1641ZM184.422 75.1641V96.1641H186.422V75.1641H184.422ZM185.422 95.1641H181.522V97.1641H185.422V95.1641ZM182.522 96.1641V79.9341H180.522V96.1641H182.522ZM205.493 79.2741L204.835 80.0266L204.846 80.0365L204.858 80.046L205.493 79.2741ZM200.693 79.2741L201.304 80.0659L201.307 80.0634L200.693 79.2741ZM199.103 81.4941L198.674 82.3973L199.651 82.8611L200.037 81.8517L199.103 81.4941ZM195.503 79.7841L194.587 79.3845L194.2 80.272L195.074 80.6873L195.503 79.7841ZM198.563 76.0941L199.115 76.928L199.124 76.9223L198.563 76.0941ZM208.373 76.6041L207.704 77.3474L207.715 77.3566L208.373 76.6041ZM209.453 84.5541L210.303 85.0814L210.307 85.0749L209.453 84.5541ZM206.033 88.5441L206.722 89.2695L206.726 89.2649L206.033 88.5441ZM201.923 92.4441L201.235 91.7187L199.417 93.4441H201.923V92.4441ZM210.713 92.4441H211.713V91.4441H210.713V92.4441ZM210.713 96.1641V97.1641H211.713V96.1641H210.713ZM195.923 96.1641H194.923V97.1641H195.923V96.1641ZM195.923 93.2541L195.233 92.5303L194.923 92.8258V93.2541H195.923ZM203.633 85.9041L204.323 86.6279L204.329 86.6223L203.633 85.9041ZM207.513 81.2841C207.513 80.1643 207.006 79.2244 206.129 78.5021L204.858 80.046C205.341 80.4437 205.513 80.8438 205.513 81.2841H207.513ZM206.152 78.5215C205.31 77.7848 204.278 77.4341 203.123 77.4341V79.4341C203.849 79.4341 204.397 79.6433 204.835 80.0266L206.152 78.5215ZM203.123 77.4341C201.998 77.4341 200.972 77.7902 200.079 78.4847L201.307 80.0634C201.854 79.6379 202.449 79.4341 203.123 79.4341V77.4341ZM200.082 78.4823C199.218 79.1495 198.586 80.0491 198.169 81.1364L200.037 81.8517C200.341 81.059 200.769 80.4787 201.304 80.0658L200.082 78.4823ZM199.532 80.5908L195.932 78.8808L195.074 80.6873L198.674 82.3973L199.532 80.5908ZM196.42 80.1836C197.026 78.7925 197.923 77.7167 199.115 76.928L198.011 75.2601C196.483 76.2714 195.34 77.6556 194.587 79.3845L196.42 80.1836ZM199.124 76.9223C200.314 76.117 201.638 75.7141 203.123 75.7141V73.7141C201.248 73.7141 199.532 74.2311 198.003 75.2658L199.124 76.9223ZM203.123 75.7141C205.007 75.7141 206.509 76.272 207.704 77.3474L209.042 75.8608C207.437 74.4161 205.44 73.7141 203.123 73.7141V75.7141ZM207.715 77.3566C208.956 78.4428 209.533 79.696 209.533 81.1641H211.533C211.533 79.0721 210.67 77.2853 209.032 75.8515L207.715 77.3566ZM209.533 81.1641C209.533 82.0155 209.25 82.9668 208.6 84.0332L210.307 85.0749C211.096 83.7813 211.533 82.4727 211.533 81.1641H209.533ZM208.604 84.0267C207.945 85.0872 206.871 86.3515 205.34 87.8232L206.726 89.2649C208.316 87.7366 209.521 86.3409 210.303 85.0814L208.604 84.0267ZM205.345 87.8187L201.235 91.7187L202.612 93.1695L206.722 89.2695L205.345 87.8187ZM201.923 93.4441H210.713V91.4441H201.923V93.4441ZM209.713 92.4441V96.1641H211.713V92.4441H209.713ZM210.713 95.1641H195.923V97.1641H210.713V95.1641ZM196.923 96.1641V93.2541H194.923V96.1641H196.923ZM196.613 93.9779L204.323 86.6279L202.943 85.1803L195.233 92.5303L196.613 93.9779ZM204.329 86.6223C205.323 85.6597 206.104 84.7463 206.642 83.8831C207.176 83.0267 207.513 82.1511 207.513 81.2841H205.513C205.513 81.637 205.371 82.1414 204.945 82.8251C204.523 83.5018 203.864 84.2885 202.938 85.1858L204.329 86.6223ZM228.866 79.1841L229.458 78.3784L229.458 78.3784L228.866 79.1841ZM223.976 78.9741L224.445 79.8572L224.454 79.852L223.976 78.9741ZM222.566 80.3241L222.137 81.2275L222.997 81.6358L223.447 80.7963L222.566 80.3241ZM219.026 78.6441L218.137 78.185L217.662 79.104L218.597 79.5475L219.026 78.6441ZM221.906 75.7941L222.38 76.6746L222.39 76.6689L221.906 75.7941ZM231.746 76.4841L231.117 77.2618L231.118 77.2628L231.746 76.4841ZM231.656 85.2741L231.037 84.4881L229.936 85.3546L231.114 86.1144L231.656 85.2741ZM232.166 94.7841L231.54 94.0042L232.166 94.7841ZM221.606 95.3241L221.073 96.1707L221.082 96.1761L221.606 95.3241ZM218.756 91.9041L218.424 90.9608L217.476 91.2943L217.814 92.2404L218.756 91.9041ZM222.506 90.5841L223.457 90.2762L223.141 89.3002L222.174 89.6408L222.506 90.5841ZM223.916 92.2641L223.394 93.1173L223.403 93.1227L223.412 93.1278L223.916 92.2641ZM229.286 92.0841L229.865 92.8992L229.872 92.8942L229.879 92.8891L229.286 92.0841ZM229.286 88.0041L228.696 88.8119L228.708 88.8208L228.721 88.8294L229.286 88.0041ZM224.966 87.1941H223.966V88.1941H224.966V87.1941ZM224.966 83.6841V82.6841H223.966V83.6841H224.966ZM230.886 81.0141C230.886 79.9184 230.344 79.03 229.458 78.3784L228.273 79.9897C228.747 80.3382 228.886 80.6697 228.886 81.0141H230.886ZM229.458 78.3784C228.567 77.723 227.474 77.4341 226.256 77.4341V79.4341C227.158 79.4341 227.805 79.6451 228.273 79.9897L229.458 78.3784ZM226.256 77.4341C225.253 77.4341 224.324 77.6451 223.497 78.0962L224.454 79.852C224.948 79.583 225.539 79.4341 226.256 79.4341V77.4341ZM223.506 78.0909C222.717 78.5105 222.091 79.0933 221.684 79.8518L223.447 80.7963C223.641 80.4349 223.955 80.1176 224.445 79.8572L223.506 78.0909ZM222.994 79.4206L219.454 77.7406L218.597 79.5475L222.137 81.2275L222.994 79.4206ZM219.914 79.1031C220.433 78.0988 221.24 77.2883 222.38 76.6745L221.432 74.9136C219.971 75.6998 218.858 76.7893 218.137 78.185L219.914 79.1031ZM222.39 76.6689C223.529 76.0383 224.819 75.7141 226.286 75.7141V73.7141C224.512 73.7141 222.883 74.1099 221.421 74.9193L222.39 76.6689ZM226.286 75.7141C228.276 75.7141 229.863 76.2482 231.117 77.2618L232.374 75.7063C230.708 74.3599 228.656 73.7141 226.286 73.7141V75.7141ZM231.118 77.2628C232.333 78.2415 232.906 79.43 232.906 80.8941H234.906C234.906 78.7981 234.038 77.0466 232.373 75.7053L231.118 77.2628ZM232.906 80.8941C232.906 82.2949 232.323 83.4767 231.037 84.4881L232.274 86.06C233.988 84.7114 234.906 82.9732 234.906 80.8941H232.906ZM231.114 86.1144C232.714 87.1466 233.446 88.4729 233.446 90.1641H235.446C235.446 87.7352 234.318 85.8015 232.198 84.4338L231.114 86.1144ZM233.446 90.1641C233.446 91.7045 232.836 92.9635 231.54 94.0042L232.792 95.5639C234.535 94.1646 235.446 92.3437 235.446 90.1641H233.446ZM231.54 94.0042C230.225 95.0596 228.566 95.6141 226.496 95.6141V97.6141C228.945 97.6141 231.067 96.9485 232.792 95.5639L231.54 94.0042ZM226.496 95.6141C224.795 95.6141 223.352 95.223 222.129 94.472L221.082 96.1761C222.66 97.1452 224.476 97.6141 226.496 97.6141V95.6141ZM222.138 94.4774C220.905 93.7026 220.113 92.7327 219.697 91.5677L217.814 92.2404C218.398 93.8754 219.506 95.1855 221.073 96.1707L222.138 94.4774ZM219.088 92.8473L222.838 91.5273L222.174 89.6408L218.424 90.9608L219.088 92.8473ZM221.554 90.8919C221.861 91.839 222.509 92.5764 223.394 93.1173L224.437 91.4108C223.882 91.0717 223.591 90.6891 223.457 90.2762L221.554 90.8919ZM223.412 93.1278C224.31 93.6516 225.34 93.8941 226.466 93.8941V91.8941C225.631 91.8941 224.962 91.7165 224.42 91.4003L223.412 93.1278ZM226.466 93.8941C227.751 93.8941 228.904 93.582 229.865 92.8992L228.706 91.2689C228.147 91.6661 227.421 91.8941 226.466 91.8941V93.8941ZM229.879 92.8891C230.858 92.1675 231.426 91.1845 231.426 89.9841H229.426C229.426 90.4636 229.233 90.8806 228.692 91.279L229.879 92.8891ZM231.426 89.9841C231.426 88.8001 230.835 87.8525 229.85 87.1788L228.721 88.8294C229.256 89.1956 229.426 89.568 229.426 89.9841H231.426ZM229.875 87.1963C228.935 86.5101 227.808 86.1941 226.556 86.1941V88.1941C227.463 88.1941 228.156 88.418 228.696 88.8119L229.875 87.1963ZM226.556 86.1941H224.966V88.1941H226.556V86.1941ZM225.966 87.1941V83.6841H223.966V87.1941H225.966ZM224.966 84.6841H226.046V82.6841H224.966V84.6841ZM226.046 84.6841C227.283 84.6841 228.398 84.3959 229.336 83.7627L228.216 82.1055C227.673 82.4722 226.968 82.6841 226.046 82.6841V84.6841ZM229.336 83.7627C230.304 83.108 230.886 82.1786 230.886 81.0141H228.886C228.886 81.4096 228.727 81.7601 228.216 82.1055L229.336 83.7627ZM253.524 96.1641H252.524V97.1641H253.524V96.1641ZM253.524 92.1441H254.524V91.1441H253.524V92.1441ZM242.634 92.1441H241.634V93.1441H242.634V92.1441ZM242.634 88.4241L241.866 87.7832L241.634 88.0615V88.4241H242.634ZM253.704 75.1641V74.1641H253.236L252.936 74.5232L253.704 75.1641ZM257.394 75.1641H258.394V74.1641H257.394V75.1641ZM257.394 88.4241H256.394V89.4241H257.394V88.4241ZM260.064 88.4241H261.064V87.4241H260.064V88.4241ZM260.064 92.1441V93.1441H261.064V92.1441H260.064ZM257.394 92.1441V91.1441H256.394V92.1441H257.394ZM257.394 96.1641V97.1641H258.394V96.1641H257.394ZM253.524 80.9541H254.524V78.1971L252.756 80.313L253.524 80.9541ZM247.284 88.4241L246.516 87.783L245.145 89.4241H247.284V88.4241ZM253.524 88.4241V89.4241H254.524V88.4241H253.524ZM254.524 96.1641V92.1441H252.524V96.1641H254.524ZM253.524 91.1441H242.634V93.1441H253.524V91.1441ZM243.634 92.1441V88.4241H241.634V92.1441H243.634ZM243.401 89.0649L254.471 75.8049L252.936 74.5232L241.866 87.7832L243.401 89.0649ZM253.704 76.1641H257.394V74.1641H253.704V76.1641ZM256.394 75.1641V88.4241H258.394V75.1641H256.394ZM257.394 89.4241H260.064V87.4241H257.394V89.4241ZM259.064 88.4241V92.1441H261.064V88.4241H259.064ZM260.064 91.1441H257.394V93.1441H260.064V91.1441ZM256.394 92.1441V96.1641H258.394V92.1441H256.394ZM257.394 95.1641H253.524V97.1641H257.394V95.1641ZM252.756 80.313L246.516 87.783L248.051 89.0652L254.291 81.5952L252.756 80.313ZM247.284 89.4241H253.524V87.4241H247.284V89.4241ZM254.524 88.4241V80.9541H252.524V88.4241H254.524ZM281.53 94.5741L282.192 95.3236L282.198 95.3188L281.53 94.5741ZM270.94 95.1741L270.367 95.9933L270.375 95.9988L270.94 95.1741ZM267.94 91.2441L267.679 90.279L266.627 90.5643L267.001 91.5876L267.94 91.2441ZM271.81 90.1941L272.737 89.8189L272.405 88.9967L271.549 89.229L271.81 90.1941ZM273.4 92.1741L272.846 93.0061L273.4 92.1741ZM278.65 91.9041L278.004 91.1407L277.995 91.1491L277.985 91.1578L278.65 91.9041ZM278.53 86.8941L277.892 87.6638L277.901 87.6713L277.91 87.6785L278.53 86.8941ZM269.53 85.8741L268.535 85.7737L268.424 86.8741H269.53V85.8741ZM270.61 75.1641V74.1641H269.706L269.615 75.0637L270.61 75.1641ZM282.04 75.1641H283.04V74.1641H282.04V75.1641ZM282.04 78.7341V79.7341H283.04V78.7341H282.04ZM273.82 78.7341V77.7341H272.908L272.825 78.6428L273.82 78.7341ZM273.49 82.3341L272.495 82.2428L272.395 83.3341H273.49V82.3341ZM281.47 84.3741L280.818 85.132L280.824 85.1367L281.47 84.3741ZM282.84 89.4741C282.84 91.2022 282.197 92.6339 280.863 93.8293L282.198 95.3188C283.944 93.7542 284.84 91.7859 284.84 89.4741H282.84ZM280.868 93.8245C279.532 95.005 277.865 95.6141 275.8 95.6141V97.6141C278.295 97.6141 280.449 96.8631 282.192 95.3236L280.868 93.8245ZM275.8 95.6141C274.145 95.6141 272.725 95.1855 271.506 94.3493L270.375 95.9988C271.955 97.0826 273.776 97.6141 275.8 97.6141V95.6141ZM271.514 94.3548C270.285 93.4949 269.411 92.3527 268.88 90.9005L267.001 91.5876C267.67 93.4154 268.795 94.8932 270.367 95.9933L271.514 94.3548ZM268.202 92.2092L272.072 91.1592L271.549 89.229L267.679 90.279L268.202 92.2092ZM270.883 90.5693C271.295 91.5862 271.95 92.4092 272.846 93.0061L273.955 91.342C273.41 90.9789 273.006 90.482 272.737 89.8189L270.883 90.5693ZM272.846 93.0061C273.737 93.6002 274.741 93.8941 275.83 93.8941V91.8941C275.119 91.8941 274.504 91.708 273.955 91.342L272.846 93.0061ZM275.83 93.8941C277.177 93.8941 278.366 93.4981 279.316 92.6504L277.985 91.1578C277.455 91.63 276.764 91.8941 275.83 91.8941V93.8941ZM279.296 92.6674C280.284 91.8314 280.82 90.7491 280.82 89.4741H278.82C278.82 90.119 278.576 90.6567 278.004 91.1407L279.296 92.6674ZM280.82 89.4741C280.82 88.1096 280.235 86.9674 279.151 86.1096L277.91 87.6785C278.545 88.1807 278.82 88.7585 278.82 89.4741H280.82ZM279.169 86.1243C278.135 85.267 276.845 84.8741 275.38 84.8741V86.8741C276.476 86.8741 277.286 87.1611 277.892 87.6638L279.169 86.1243ZM275.38 84.8741H269.53V86.8741H275.38V84.8741ZM270.525 85.9744L271.605 75.2644L269.615 75.0637L268.535 85.7737L270.525 85.9744ZM270.61 76.1641H282.04V74.1641H270.61V76.1641ZM281.04 75.1641V78.7341H283.04V75.1641H281.04ZM282.04 77.7341H273.82V79.7341H282.04V77.7341ZM272.825 78.6428L272.495 82.2428L274.486 82.4253L274.816 78.8253L272.825 78.6428ZM273.49 83.3341H275.59V81.3341H273.49V83.3341ZM275.59 83.3341C277.722 83.3341 279.442 83.9474 280.818 85.132L282.123 83.6162C280.339 82.0807 278.139 81.3341 275.59 81.3341V83.3341ZM280.824 85.1367C282.181 86.288 282.84 87.7097 282.84 89.4741H284.84C284.84 87.1184 283.92 85.1402 282.117 83.6114L280.824 85.1367Z" fill="black"/>
</svg>
