<svg width="342" height="180" viewBox="0 0 342 180" fill="none" xmlns="http://www.w3.org/2000/svg">
<rect width="341" height="180" transform="translate(0.0488281)" fill="#F5F5F5"/>
<path d="M273.531 115.477C276.671 115.477 279.683 114.23 281.903 112.009C284.124 109.789 285.371 106.777 285.371 103.637C285.371 100.497 284.124 97.4852 281.903 95.2647C279.683 93.0443 276.671 91.7969 273.531 91.7969L273.531 103.637V115.477Z" fill="#D4D4D4"/>
<path d="M273.531 98.0003C275.625 98.0003 277.633 97.1983 279.113 95.7709C280.593 94.3435 281.425 92.4075 281.425 90.3888C281.425 88.3701 280.593 86.4341 279.113 85.0067C277.633 83.5793 275.625 82.7773 273.531 82.7773L273.531 90.3888V98.0003Z" fill="#D4D4D4"/>
<path d="M273.531 131.829C275.625 131.829 277.633 130.67 279.113 128.608C280.593 126.547 281.425 123.75 281.425 120.834C281.425 117.918 280.593 115.122 279.113 113.06C277.633 110.998 275.625 109.84 273.531 109.84L273.531 120.834V131.829Z" fill="#D4D4D4"/>
<path d="M206.97 105.703C214.039 105.703 220.818 102.895 225.817 97.8964C230.816 92.8978 233.624 86.1181 233.624 79.0489C233.624 71.9797 230.816 65.2001 225.817 60.2014C220.818 55.2028 214.039 52.3945 206.97 52.3945L206.97 79.0489V105.703Z" fill="#31D67B"/>
<path d="M206.97 66.3559C211.682 66.3559 216.202 64.5506 219.535 61.3372C222.867 58.1237 224.739 53.7654 224.739 49.2209C224.739 44.6764 222.867 40.3181 219.535 37.1047C216.202 33.8912 211.682 32.0859 206.97 32.0859L206.97 49.2209V66.3559Z" fill="#31D67B"/>
<path d="M206.97 142.513C211.682 142.513 216.202 139.905 219.535 135.263C222.867 130.622 224.739 124.326 224.739 117.762C224.739 111.198 222.867 104.903 219.535 100.261C216.202 95.6194 211.682 93.0117 206.97 93.0117L206.97 117.762V142.513Z" fill="#31D67B"/>
<path d="M250.377 73.9702C254.425 73.9702 258.306 72.3624 261.168 69.5005C264.03 66.6386 265.638 62.7571 265.638 58.7097C265.638 54.6624 264.03 50.7808 261.168 47.9189C258.306 45.057 254.425 43.4492 250.377 43.4492L250.377 58.7097V73.9702Z" fill="#4AE991"/>
<path d="M250.377 51.441C253.075 51.441 255.663 50.4074 257.571 48.5676C259.479 46.7278 260.551 44.2325 260.551 41.6306C260.551 39.0288 259.479 36.5335 257.571 34.6937C255.663 32.8539 253.075 31.8203 250.377 31.8203L250.377 41.6306V51.441Z" fill="#4AE991"/>
<path d="M250.377 95.0441C253.075 95.0441 255.663 93.5511 257.571 90.8936C259.479 88.2362 260.551 84.6318 260.551 80.8736C260.551 77.1154 259.479 73.511 257.571 70.8536C255.663 68.1961 253.075 66.7031 250.377 66.7031L250.377 80.8736V95.0441Z" fill="#4AE991"/>
<path d="M139.371 81.8261L229.945 81.8261M229.945 81.8261L227.463 80.6287M229.945 81.8261L227.463 83.0234" stroke="black"/>
<path d="M139.371 101.72L265.926 101.72M265.926 101.72L262.459 100.479M265.926 101.72L262.459 102.961" stroke="black"/>
<path d="M139.371 62.0171L196.445 62.0171M196.445 62.0171L194.881 60.7763M196.445 62.0171L194.881 63.2578" stroke="black"/>
<path d="M139.371 121.572H180.315M180.315 121.572L179.194 120.331M180.315 121.572L179.194 122.812" stroke="black"/>
<rect width="57" height="113" transform="matrix(-1 0 0 1 129.727 36.5)" fill="#A57CFE"/>
<rect x="-0.5" y="0.5" width="56" height="110" transform="matrix(-1 0 0 1 138.727 30.5)" stroke="black"/>
<circle r="3.10184" transform="matrix(-1 0 0 1 96.0505 77.8596)" fill="#31D67B"/>
<circle r="3.10184" transform="matrix(-1 0 0 1 83.6433 77.8596)" fill="#31D67B"/>
<circle r="3.10184" transform="matrix(-1 0 0 1 71.2361 77.8596)" fill="#31D67B"/>
<circle r="3.10184" transform="matrix(-1 0 0 1 58.8288 77.8596)" fill="#31D67B"/>
<circle r="3.10184" transform="matrix(-1 0 0 1 96.0505 90.2659)" fill="#31D67B"/>
<circle r="3.10184" transform="matrix(-1 0 0 1 83.6433 90.2659)" fill="#31D67B"/>
<circle r="3.10184" transform="matrix(-1 0 0 1 71.2361 90.2659)" fill="#31D67B"/>
<circle r="3.10184" transform="matrix(-1 0 0 1 58.8288 90.2659)" fill="#31D67B"/>
<circle r="3.10184" transform="matrix(-1 0 0 1 58.8288 102.676)" fill="#31D67B"/>
<circle r="3.10184" transform="matrix(-1 0 0 1 71.2361 102.676)" fill="#31D67B"/>
<circle r="3.10184" transform="matrix(-1 0 0 1 83.6433 102.676)" fill="#31D67B"/>
<circle r="3.10184" transform="matrix(-1 0 0 1 96.0505 102.676)" fill="#31D67B"/>
</svg>
