<svg width="342" height="180" viewBox="0 0 342 180" fill="none" xmlns="http://www.w3.org/2000/svg">
<rect width="341" height="180" transform="translate(0.0488281)" fill="#F5F5F5"/>
<path d="M249.598 27H138.049V126H249.598L270.049 118.528V33.2264L249.598 27Z" fill="#A57CFE"/>
<path d="M249.598 27V126L270.049 118.528V33.2264L249.598 27Z" fill="#8052E4"/>
<path d="M160.049 114.965L233.049 114.965M233.049 114.965L231.049 114M233.049 114.965L231.049 115.93" stroke="black"/>
<path d="M160.049 131L262.049 131M262.049 131L259.254 130M262.049 131L259.254 132" stroke="black"/>
<path d="M160.049 99L206.049 99M206.049 99L204.789 98M206.049 99L204.789 100" stroke="black"/>
<path d="M160.049 147H193.049M193.049 147L192.145 146M193.049 147L192.145 148" stroke="black"/>
<path d="M84.8892 86H160.382V153H84.8892L71.0488 147.943V90.2138L84.8892 86Z" fill="#4AE991"/>
<path d="M84.8892 86V153L71.0488 147.943V90.2138L84.8892 86Z" fill="#31D67B"/>
<circle cx="115.424" cy="43.375" r="1.375" fill="#D4D4D4"/>
<circle cx="121.174" cy="43.375" r="1.375" fill="#D4D4D4"/>
<circle cx="126.924" cy="43.375" r="1.375" fill="#D4D4D4"/>
<circle cx="132.424" cy="43.375" r="1.375" fill="#D4D4D4"/>
<circle cx="138.424" cy="43.375" r="1.375" fill="#D4D4D4"/>
<circle cx="144.174" cy="43.375" r="1.375" fill="#D4D4D4"/>
<circle cx="149.924" cy="43.375" r="1.375" fill="#D4D4D4"/>
<circle cx="155.674" cy="43.375" r="1.375" fill="#D4D4D4"/>
<circle cx="161.424" cy="43.375" r="1.375" fill="#D4D4D4"/>
<circle cx="115.424" cy="49.125" r="1.375" fill="#D4D4D4"/>
<circle cx="121.174" cy="49.125" r="1.375" fill="#D4D4D4"/>
<circle cx="115.424" cy="54.875" r="1.375" fill="#D4D4D4"/>
<circle cx="121.174" cy="54.875" r="1.375" fill="#D4D4D4"/>
<circle cx="126.924" cy="54.875" r="1.375" fill="#D4D4D4"/>
<circle cx="132.674" cy="54.875" r="1.375" fill="#D4D4D4"/>
<circle cx="138.424" cy="54.875" r="1.375" fill="#D4D4D4"/>
<circle cx="144.174" cy="54.875" r="1.375" fill="#D4D4D4"/>
<circle cx="149.924" cy="54.875" r="1.375" fill="#D4D4D4"/>
<circle cx="155.674" cy="54.875" r="1.375" fill="#D4D4D4"/>
<circle cx="161.424" cy="54.875" r="1.375" fill="#D4D4D4"/>
<circle cx="126.924" cy="49.125" r="1.375" fill="#D4D4D4"/>
<circle cx="132.424" cy="49.125" r="1.375" fill="#D4D4D4"/>
<circle cx="138.424" cy="49.125" r="1.375" fill="#D4D4D4"/>
<circle cx="144.174" cy="49.125" r="1.375" fill="#D4D4D4"/>
<circle cx="149.924" cy="49.125" r="1.375" fill="#D4D4D4"/>
<circle cx="155.674" cy="49.125" r="1.375" fill="#D4D4D4"/>
<circle cx="161.424" cy="49.125" r="1.375" fill="#D4D4D4"/>
</svg>
