<svg width="342" height="180" viewBox="0 0 342 180" fill="none" xmlns="http://www.w3.org/2000/svg">
<rect width="341" height="180" transform="translate(0.0488281)" fill="#F5F5F5"/>
<path d="M211.597 15L259.921 90.3876H163.274L211.597 15Z" fill="#31D67B"/>
<path d="M216.579 71.9727V122.786M216.579 122.786L217.177 121.394M216.579 122.786L215.98 121.394" stroke="black"/>
<path d="M206.598 71.9727V110.973M206.598 110.973L207.098 109.904M206.598 110.973L206.098 109.904" stroke="black"/>
<path d="M226.477 71.9727V103.992M226.477 103.992L227.097 103.115M226.477 103.992L225.857 103.115" stroke="black"/>
<path d="M196.718 71.9727V94.9432M196.718 94.9432L197.338 94.3139M196.718 94.9432L196.098 94.3139" stroke="black"/>
<rect width="224" height="16" transform="matrix(-1 0 0 1 282.549 132.445)" fill="#A57CFE"/>
<path d="M119.549 137.195L110.049 127.695" stroke="black"/>
<path d="M113.049 137.695L103.549 128.195" stroke="black"/>
<path d="M106.549 137.695L97.0488 128.195" stroke="black"/>
<path d="M100.049 137.695L90.5488 128.195" stroke="black"/>
<path d="M93.5488 137.695L84.0488 128.195" stroke="black"/>
<path d="M87.0488 137.695L77.5488 128.195" stroke="black"/>
<path d="M80.5488 137.695L71.0488 128.195" stroke="black"/>
<path d="M141.334 81.3203L163.221 47.2476H119.447L141.334 81.3203Z" fill="#8052E4"/>
<path d="M104.918 65.2578L120.393 89.3491H89.4428L104.918 65.2578Z" fill="#AB85FF"/>
</svg>
