<svg width="342" height="180" viewBox="0 0 342 180" fill="none" xmlns="http://www.w3.org/2000/svg">
<rect width="341" height="180" transform="translate(0.0488281)" fill="#F5F5F5"/>
<path d="M243.186 136.102C256.686 135.102 282.486 124.402 283.686 95.6016C283.686 59.6016 256.186 50.1016 242.686 50.1016C223.186 50.1016 142.186 50.1016 96.1855 50.1016" stroke="black"/>
<path d="M243.389 136.102H171.185" stroke="black"/>
<path d="M88.9608 17.2422L137.284 92.6297H40.6377L88.9608 17.2422Z" fill="#31D67B"/>
<path d="M93.9421 80.125L93.9421 130.939M93.9421 130.939L94.5404 129.547M93.9421 130.939L93.3437 129.547" stroke="black"/>
<path d="M83.9609 80.125L83.9609 119.125M83.9609 119.125L84.4609 118.057M83.9609 119.125L83.4609 118.057" stroke="black"/>
<path d="M103.841 80.125V112.145M103.841 112.145L104.461 111.267M103.841 112.145L103.221 111.267" stroke="black"/>
<path d="M74.0809 80.125V103.096M74.0809 103.096L74.7009 102.466M74.0809 103.096L73.4609 102.466" stroke="black"/>
<path d="M307.936 87.7266L298.436 78.2266" stroke="black"/>
<path d="M301.436 88.2266L291.936 78.7266" stroke="black"/>
<path d="M294.936 88.2266L285.436 78.7266" stroke="black"/>
<path d="M288.436 88.2266L278.936 78.7266" stroke="black"/>
<path d="M281.936 88.2266L272.436 78.7266" stroke="black"/>
<path d="M275.436 88.2266L265.936 78.7266" stroke="black"/>
<path d="M268.936 88.2266L259.436 78.7266" stroke="black"/>
<path d="M116.357 140.648V133.868C116.357 131.708 117.127 129.908 118.667 128.468C120.227 127.028 122.167 126.308 124.487 126.308C126.807 126.308 128.737 127.028 130.277 128.468C131.837 129.908 132.617 131.708 132.617 133.868V140.648C132.617 142.808 131.837 144.608 130.277 146.048C128.737 147.488 126.807 148.208 124.487 148.208C122.167 148.208 120.227 147.488 118.667 146.048C117.127 144.608 116.357 142.808 116.357 140.648ZM120.257 133.808V140.708C120.257 141.768 120.657 142.668 121.457 143.408C122.277 144.128 123.287 144.488 124.487 144.488C125.687 144.488 126.697 144.128 127.517 143.408C128.337 142.648 128.747 141.748 128.747 140.708V133.808C128.747 132.748 128.337 131.858 127.517 131.138C126.717 130.398 125.707 130.028 124.487 130.028C123.267 130.028 122.257 130.398 121.457 131.138C120.657 131.858 120.257 132.748 120.257 133.808ZM146.475 131.528L142.845 133.328L141.225 129.908L147.585 126.758H150.375V147.758H146.475V131.528ZM171.467 132.878C171.467 132.098 171.127 131.428 170.447 130.868C169.807 130.308 169.017 130.028 168.077 130.028C167.177 130.028 166.367 130.308 165.647 130.868C164.947 131.408 164.417 132.148 164.057 133.088L160.457 131.378C161.137 129.818 162.157 128.588 163.517 127.688C164.877 126.768 166.397 126.308 168.077 126.308C170.177 126.308 171.927 126.938 173.327 128.198C174.767 129.458 175.487 130.978 175.487 132.758C175.487 133.838 175.127 134.968 174.407 136.148C173.687 137.308 172.547 138.638 170.987 140.138L166.877 144.038H175.667V147.758H160.877V144.848L168.587 137.498C170.507 135.638 171.467 134.098 171.467 132.878ZM194.839 132.608C194.839 131.888 194.499 131.278 193.819 130.778C193.139 130.278 192.269 130.028 191.209 130.028C190.349 130.028 189.589 130.208 188.929 130.568C188.289 130.908 187.819 131.358 187.519 131.918L183.979 130.238C184.599 129.038 185.559 128.088 186.859 127.388C188.159 126.668 189.619 126.308 191.239 126.308C193.419 126.308 195.239 126.898 196.699 128.078C198.139 129.238 198.859 130.708 198.859 132.488C198.859 134.228 198.109 135.688 196.609 136.868C198.469 138.068 199.399 139.698 199.399 141.758C199.399 143.618 198.639 145.158 197.119 146.378C195.599 147.598 193.709 148.208 191.449 148.208C189.589 148.208 187.959 147.778 186.559 146.918C185.159 146.038 184.209 144.898 183.709 143.498L187.459 142.178C187.679 142.858 188.149 143.418 188.869 143.858C189.589 144.278 190.439 144.488 191.419 144.488C192.539 144.488 193.479 144.218 194.239 143.678C194.999 143.118 195.379 142.418 195.379 141.578C195.379 140.778 194.999 140.118 194.239 139.598C193.499 139.058 192.589 138.788 191.509 138.788H189.919V135.278H190.999C192.079 135.278 192.989 135.028 193.729 134.528C194.469 134.028 194.839 133.388 194.839 132.608ZM218.477 147.758V143.738H207.587V140.018L218.657 126.758H222.347V140.018H225.017V143.738H222.347V147.758H218.477ZM218.477 132.548L212.237 140.018H218.477V132.548ZM248.794 141.068C248.794 143.088 248.024 144.788 246.484 146.168C244.944 147.528 243.034 148.208 240.754 148.208C238.914 148.208 237.294 147.728 235.894 146.768C234.494 145.788 233.494 144.478 232.894 142.838L236.764 141.788C237.104 142.628 237.634 143.288 238.354 143.768C239.074 144.248 239.884 144.488 240.784 144.488C241.924 144.488 242.864 144.158 243.604 143.498C244.384 142.838 244.774 142.028 244.774 141.068C244.774 140.028 244.344 139.168 243.484 138.488C242.664 137.808 241.614 137.468 240.334 137.468H234.484L235.564 126.758H246.994V130.328H238.774L238.444 133.928H240.544C242.884 133.928 244.844 134.608 246.424 135.968C248.004 137.308 248.794 139.008 248.794 141.068Z" fill="#AB85FF"/>
<path d="M118.667 128.468L117.989 127.733L117.984 127.737L118.667 128.468ZM130.277 128.468L129.594 129.198L129.599 129.203L130.277 128.468ZM130.277 146.048L129.599 145.313L129.594 145.317L130.277 146.048ZM118.667 146.048L117.984 146.778L117.989 146.783L118.667 146.048ZM121.457 143.408L120.778 144.142L120.788 144.151L120.798 144.159L121.457 143.408ZM127.517 143.408L128.177 144.159L128.187 144.15L128.197 144.141L127.517 143.408ZM127.517 131.138L126.838 131.872L126.848 131.881L126.858 131.889L127.517 131.138ZM121.457 131.138L122.126 131.881L122.136 131.872L121.457 131.138ZM117.357 140.648V133.868H115.357V140.648H117.357ZM117.357 133.868C117.357 131.977 118.018 130.444 119.35 129.198L117.984 127.737C116.237 129.372 115.357 131.439 115.357 133.868H117.357ZM119.346 129.203C120.703 127.95 122.393 127.308 124.487 127.308V125.308C121.941 125.308 119.752 126.106 117.989 127.733L119.346 129.203ZM124.487 127.308C126.581 127.308 128.259 127.949 129.594 129.198L130.96 127.737C129.216 126.106 127.033 125.308 124.487 125.308V127.308ZM129.599 129.203C130.95 130.45 131.617 131.981 131.617 133.868H133.617C133.617 131.434 132.725 129.366 130.956 127.733L129.599 129.203ZM131.617 133.868V140.648H133.617V133.868H131.617ZM131.617 140.648C131.617 142.534 130.95 144.066 129.599 145.313L130.956 146.783C132.725 145.15 133.617 143.081 133.617 140.648H131.617ZM129.594 145.317C128.259 146.566 126.581 147.208 124.487 147.208V149.208C127.033 149.208 129.216 148.409 130.96 146.778L129.594 145.317ZM124.487 147.208C122.393 147.208 120.703 146.566 119.346 145.313L117.989 146.783C119.752 148.41 121.941 149.208 124.487 149.208V147.208ZM119.35 145.317C118.018 144.072 117.357 142.539 117.357 140.648H115.357C115.357 143.077 116.237 145.144 117.984 146.778L119.35 145.317ZM119.257 133.808V140.708H121.257V133.808H119.257ZM119.257 140.708C119.257 142.055 119.78 143.219 120.778 144.142L122.136 142.674C121.535 142.117 121.257 141.48 121.257 140.708H119.257ZM120.798 144.159C121.819 145.056 123.071 145.488 124.487 145.488V143.488C123.504 143.488 122.736 143.2 122.117 142.656L120.798 144.159ZM124.487 145.488C125.904 145.488 127.156 145.056 128.177 144.159L126.858 142.656C126.239 143.2 125.471 143.488 124.487 143.488V145.488ZM128.197 144.141C129.204 143.208 129.747 142.049 129.747 140.708H127.747C127.747 141.447 127.471 142.088 126.838 142.674L128.197 144.141ZM129.747 140.708V133.808H127.747V140.708H129.747ZM129.747 133.808C129.747 132.45 129.206 131.29 128.177 130.386L126.858 131.889C127.469 132.426 127.747 133.045 127.747 133.808H129.747ZM128.196 130.404C127.189 129.472 125.927 129.028 124.487 129.028V131.028C125.488 131.028 126.246 131.324 126.838 131.872L128.196 130.404ZM124.487 129.028C123.048 129.028 121.786 129.472 120.778 130.404L122.136 131.872C122.729 131.324 123.487 131.028 124.487 131.028V129.028ZM120.788 130.395C119.781 131.301 119.257 132.459 119.257 133.808H121.257C121.257 133.036 121.533 132.415 122.126 131.881L120.788 130.395ZM146.475 131.528H147.475V129.916L146.031 130.632L146.475 131.528ZM142.845 133.328L141.942 133.756L142.377 134.676L143.29 134.224L142.845 133.328ZM141.225 129.908L140.781 129.012L139.901 129.448L140.322 130.336L141.225 129.908ZM147.585 126.758V125.758H147.351L147.141 125.862L147.585 126.758ZM150.375 126.758H151.375V125.758H150.375V126.758ZM150.375 147.758V148.758H151.375V147.758H150.375ZM146.475 147.758H145.475V148.758H146.475V147.758ZM146.031 130.632L142.401 132.432L143.29 134.224L146.92 132.424L146.031 130.632ZM143.749 132.9L142.129 129.48L140.322 130.336L141.942 133.756L143.749 132.9ZM141.669 130.804L148.029 127.654L147.141 125.862L140.781 129.012L141.669 130.804ZM147.585 127.758H150.375V125.758H147.585V127.758ZM149.375 126.758V147.758H151.375V126.758H149.375ZM150.375 146.758H146.475V148.758H150.375V146.758ZM147.475 147.758V131.528H145.475V147.758H147.475ZM170.447 130.868L169.788 131.62L169.8 131.63L169.811 131.64L170.447 130.868ZM165.647 130.868L166.258 131.66L166.261 131.657L165.647 130.868ZM164.057 133.088L163.628 133.991L164.604 134.455L164.991 133.445L164.057 133.088ZM160.457 131.378L159.54 130.978L159.153 131.866L160.028 132.281L160.457 131.378ZM163.517 127.688L164.069 128.522L164.077 128.516L163.517 127.688ZM173.327 128.198L172.658 128.941L172.668 128.95L173.327 128.198ZM174.407 136.148L175.257 136.675L175.261 136.669L174.407 136.148ZM170.987 140.138L171.675 140.863L171.68 140.859L170.987 140.138ZM166.877 144.038L166.189 143.312L164.37 145.038H166.877V144.038ZM175.667 144.038H176.667V143.038H175.667V144.038ZM175.667 147.758V148.758H176.667V147.758H175.667ZM160.877 147.758H159.877V148.758H160.877V147.758ZM160.877 144.848L160.187 144.124L159.877 144.42V144.848H160.877ZM168.587 137.498L169.277 138.222L169.283 138.216L168.587 137.498ZM172.467 132.878C172.467 131.758 171.96 130.818 171.083 130.096L169.811 131.64C170.294 132.037 170.467 132.438 170.467 132.878H172.467ZM171.105 130.115C170.263 129.379 169.232 129.028 168.077 129.028V131.028C168.802 131.028 169.35 131.237 169.788 131.62L171.105 130.115ZM168.077 129.028C166.951 129.028 165.926 129.384 165.033 130.078L166.261 131.657C166.808 131.232 167.403 131.028 168.077 131.028V129.028ZM165.036 130.076C164.171 130.743 163.539 131.643 163.123 132.73L164.991 133.445C165.294 132.653 165.723 132.072 166.258 131.66L165.036 130.076ZM164.486 132.185L160.886 130.475L160.028 132.281L163.628 133.991L164.486 132.185ZM161.374 131.777C161.98 130.386 162.877 129.31 164.069 128.522L162.965 126.854C161.437 127.865 160.294 129.249 159.54 130.978L161.374 131.777ZM164.077 128.516C165.268 127.711 166.592 127.308 168.077 127.308V125.308C166.202 125.308 164.486 125.825 162.957 126.86L164.077 128.516ZM168.077 127.308C169.96 127.308 171.463 127.866 172.658 128.941L173.996 127.455C172.391 126.01 170.393 125.308 168.077 125.308V127.308ZM172.668 128.95C173.91 130.037 174.487 131.29 174.487 132.758H176.487C176.487 130.666 175.624 128.879 173.985 127.445L172.668 128.95ZM174.487 132.758C174.487 133.609 174.204 134.561 173.553 135.627L175.261 136.669C176.05 135.375 176.487 134.066 176.487 132.758H174.487ZM173.557 135.62C172.899 136.681 171.824 137.945 170.294 139.417L171.68 140.859C173.269 139.33 174.475 137.935 175.257 136.675L173.557 135.62ZM170.299 139.412L166.189 143.312L167.565 144.763L171.675 140.863L170.299 139.412ZM166.877 145.038H175.667V143.038H166.877V145.038ZM174.667 144.038V147.758H176.667V144.038H174.667ZM175.667 146.758H160.877V148.758H175.667V146.758ZM161.877 147.758V144.848H159.877V147.758H161.877ZM161.567 145.572L169.277 138.222L167.897 136.774L160.187 144.124L161.567 145.572ZM169.283 138.216C170.276 137.253 171.057 136.34 171.596 135.477C172.129 134.62 172.467 133.745 172.467 132.878H170.467C170.467 133.231 170.324 133.735 169.898 134.419C169.476 135.096 168.817 135.882 167.891 136.78L169.283 138.216ZM193.819 130.778L194.412 129.972V129.972L193.819 130.778ZM188.929 130.568L189.398 131.451L189.408 131.446L188.929 130.568ZM187.519 131.918L187.091 132.821L187.951 133.23L188.401 132.39L187.519 131.918ZM183.979 130.238L183.091 129.779L182.616 130.698L183.551 131.141L183.979 130.238ZM186.859 127.388L187.333 128.268L187.344 128.263L186.859 127.388ZM196.699 128.078L196.071 128.856L196.072 128.857L196.699 128.078ZM196.609 136.868L195.991 136.082L194.89 136.948L196.067 137.708L196.609 136.868ZM197.119 146.378L196.493 145.598L197.119 146.378ZM186.559 146.918L186.027 147.764L186.036 147.77L186.559 146.918ZM183.709 143.498L183.377 142.555L182.43 142.888L182.768 143.834L183.709 143.498ZM187.459 142.178L188.411 141.87L188.095 140.894L187.127 141.235L187.459 142.178ZM188.869 143.858L188.348 144.711L188.357 144.716L188.365 144.722L188.869 143.858ZM194.239 143.678L194.818 144.493L194.826 144.488L194.832 144.483L194.239 143.678ZM194.239 139.598L193.65 140.406L193.662 140.415L193.675 140.423L194.239 139.598ZM189.919 138.788H188.919V139.788H189.919V138.788ZM189.919 135.278V134.278H188.919V135.278H189.919ZM195.839 132.608C195.839 131.512 195.298 130.624 194.412 129.972L193.227 131.583C193.701 131.932 193.839 132.263 193.839 132.608H195.839ZM194.412 129.972C193.52 129.317 192.427 129.028 191.209 129.028V131.028C192.111 131.028 192.758 131.239 193.227 131.583L194.412 129.972ZM191.209 129.028C190.206 129.028 189.277 129.239 188.45 129.69L189.408 131.446C189.901 131.177 190.492 131.028 191.209 131.028V129.028ZM188.46 129.685C187.67 130.104 187.044 130.687 186.638 131.446L188.401 132.39C188.594 132.029 188.908 131.711 189.398 131.451L188.46 129.685ZM187.948 131.014L184.408 129.334L183.551 131.141L187.091 132.821L187.948 131.014ZM184.868 130.697C185.387 129.693 186.193 128.882 187.333 128.268L186.385 126.507C184.925 127.294 183.812 128.383 183.091 129.779L184.868 130.697ZM187.344 128.263C188.482 127.632 189.773 127.308 191.239 127.308V125.308C189.465 125.308 187.836 125.704 186.375 126.513L187.344 128.263ZM191.239 127.308C193.229 127.308 194.817 127.842 196.071 128.856L197.328 127.3C195.662 125.954 193.609 125.308 191.239 125.308V127.308ZM196.072 128.857C197.287 129.835 197.859 131.024 197.859 132.488H199.859C199.859 130.392 198.992 128.64 197.327 127.299L196.072 128.857ZM197.859 132.488C197.859 133.889 197.277 135.07 195.991 136.082L197.228 137.654C198.942 136.305 199.859 134.567 199.859 132.488H197.859ZM196.067 137.708C197.667 138.74 198.399 140.067 198.399 141.758H200.399C200.399 139.329 199.271 137.395 197.151 136.028L196.067 137.708ZM198.399 141.758C198.399 143.298 197.79 144.557 196.493 145.598L197.745 147.158C199.489 145.758 200.399 143.937 200.399 141.758H198.399ZM196.493 145.598C195.178 146.653 193.52 147.208 191.449 147.208V149.208C193.899 149.208 196.02 148.542 197.745 147.158L196.493 145.598ZM191.449 147.208C189.749 147.208 188.305 146.817 187.083 146.066L186.036 147.77C187.613 148.739 189.429 149.208 191.449 149.208V147.208ZM187.091 146.071C185.859 145.296 185.067 144.326 184.651 143.161L182.768 143.834C183.351 145.469 184.46 146.779 186.027 147.764L187.091 146.071ZM184.041 144.441L187.791 143.121L187.127 141.235L183.377 142.555L184.041 144.441ZM186.508 142.486C186.814 143.433 187.463 144.17 188.348 144.711L189.391 143.005C188.836 142.665 188.544 142.283 188.411 141.87L186.508 142.486ZM188.365 144.722C189.263 145.245 190.294 145.488 191.419 145.488V143.488C190.585 143.488 189.915 143.31 189.373 142.994L188.365 144.722ZM191.419 145.488C192.704 145.488 193.857 145.176 194.818 144.493L193.66 142.863C193.101 143.26 192.374 143.488 191.419 143.488V145.488ZM194.832 144.483C195.812 143.761 196.379 142.778 196.379 141.578H194.379C194.379 142.057 194.187 142.474 193.646 142.873L194.832 144.483ZM196.379 141.578C196.379 140.394 195.789 139.446 194.804 138.773L193.675 140.423C194.21 140.789 194.379 141.162 194.379 141.578H196.379ZM194.829 138.79C193.888 138.104 192.762 137.788 191.509 137.788V139.788C192.416 139.788 193.11 140.012 193.65 140.406L194.829 138.79ZM191.509 137.788H189.919V139.788H191.509V137.788ZM190.919 138.788V135.278H188.919V138.788H190.919ZM189.919 136.278H190.999V134.278H189.919V136.278ZM190.999 136.278C192.236 136.278 193.352 135.99 194.289 135.356L193.169 133.699C192.627 134.066 191.922 134.278 190.999 134.278V136.278ZM194.289 135.356C195.258 134.702 195.839 133.772 195.839 132.608H193.839C193.839 133.003 193.681 133.354 193.169 133.699L194.289 135.356ZM218.477 147.758H217.477V148.758H218.477V147.758ZM218.477 143.738H219.477V142.738H218.477V143.738ZM207.587 143.738H206.587V144.738H207.587V143.738ZM207.587 140.018L206.82 139.377L206.587 139.655V140.018H207.587ZM218.657 126.758V125.758H218.19L217.89 126.117L218.657 126.758ZM222.347 126.758H223.347V125.758H222.347V126.758ZM222.347 140.018H221.347V141.018H222.347V140.018ZM225.017 140.018H226.017V139.018H225.017V140.018ZM225.017 143.738V144.738H226.017V143.738H225.017ZM222.347 143.738V142.738H221.347V143.738H222.347ZM222.347 147.758V148.758H223.347V147.758H222.347ZM218.477 132.548H219.477V129.791L217.71 131.907L218.477 132.548ZM212.237 140.018L211.47 139.377L210.099 141.018H212.237V140.018ZM218.477 140.018V141.018H219.477V140.018H218.477ZM219.477 147.758V143.738H217.477V147.758H219.477ZM218.477 142.738H207.587V144.738H218.477V142.738ZM208.587 143.738V140.018H206.587V143.738H208.587ZM208.355 140.659L219.425 127.399L217.89 126.117L206.82 139.377L208.355 140.659ZM218.657 127.758H222.347V125.758H218.657V127.758ZM221.347 126.758V140.018H223.347V126.758H221.347ZM222.347 141.018H225.017V139.018H222.347V141.018ZM224.017 140.018V143.738H226.017V140.018H224.017ZM225.017 142.738H222.347V144.738H225.017V142.738ZM221.347 143.738V147.758H223.347V143.738H221.347ZM222.347 146.758H218.477V148.758H222.347V146.758ZM217.71 131.907L211.47 139.377L213.005 140.659L219.245 133.189L217.71 131.907ZM212.237 141.018H218.477V139.018H212.237V141.018ZM219.477 140.018V132.548H217.477V140.018H219.477ZM246.484 146.168L247.146 146.917L247.151 146.913L246.484 146.168ZM235.894 146.768L235.321 147.587L235.328 147.593L235.894 146.768ZM232.894 142.838L232.632 141.873L231.581 142.158L231.955 143.181L232.894 142.838ZM236.764 141.788L237.691 141.413L237.358 140.59L236.502 140.823L236.764 141.788ZM238.354 143.768L237.799 144.6L238.354 143.768ZM243.604 143.498L242.958 142.734L242.948 142.743L242.938 142.752L243.604 143.498ZM243.484 138.488L242.846 139.258L242.855 139.265L242.864 139.272L243.484 138.488ZM234.484 137.468L233.489 137.367L233.378 138.468H234.484V137.468ZM235.564 126.758V125.758H234.66L234.569 126.657L235.564 126.758ZM246.994 126.758H247.994V125.758H246.994V126.758ZM246.994 130.328V131.328H247.994V130.328H246.994ZM238.774 130.328V129.328H237.861L237.778 130.237L238.774 130.328ZM238.444 133.928L237.448 133.837L237.348 134.928H238.444V133.928ZM246.424 135.968L245.772 136.726L245.777 136.73L246.424 135.968ZM247.794 141.068C247.794 142.796 247.151 144.228 245.817 145.423L247.151 146.913C248.897 145.348 249.794 143.38 249.794 141.068H247.794ZM245.822 145.418C244.485 146.599 242.819 147.208 240.754 147.208V149.208C243.249 149.208 245.403 148.457 247.146 146.917L245.822 145.418ZM240.754 147.208C239.098 147.208 237.679 146.779 236.46 145.943L235.328 147.593C236.909 148.676 238.73 149.208 240.754 149.208V147.208ZM236.467 145.949C235.239 145.089 234.364 143.946 233.833 142.494L231.955 143.181C232.624 145.009 233.749 146.487 235.321 147.587L236.467 145.949ZM233.156 143.803L237.026 142.753L236.502 140.823L232.632 141.873L233.156 143.803ZM235.837 142.163C236.249 143.18 236.904 144.003 237.799 144.6L238.909 142.936C238.364 142.573 237.959 142.076 237.691 141.413L235.837 142.163ZM237.799 144.6C238.69 145.194 239.695 145.488 240.784 145.488V143.488C240.073 143.488 239.458 143.302 238.909 142.936L237.799 144.6ZM240.784 145.488C242.13 145.488 243.319 145.092 244.27 144.244L242.938 142.752C242.409 143.224 241.718 143.488 240.784 143.488V145.488ZM244.25 144.261C245.238 143.425 245.774 142.343 245.774 141.068H243.774C243.774 141.713 243.53 142.25 242.958 142.734L244.25 144.261ZM245.774 141.068C245.774 139.703 245.189 138.561 244.104 137.703L242.864 139.272C243.499 139.774 243.774 140.352 243.774 141.068H245.774ZM244.122 137.718C243.089 136.861 241.798 136.468 240.334 136.468V138.468C241.43 138.468 242.239 138.755 242.846 139.258L244.122 137.718ZM240.334 136.468H234.484V138.468H240.334V136.468ZM235.479 137.568L236.559 126.858L234.569 126.657L233.489 137.367L235.479 137.568ZM235.564 127.758H246.994V125.758H235.564V127.758ZM245.994 126.758V130.328H247.994V126.758H245.994ZM246.994 129.328H238.774V131.328H246.994V129.328ZM237.778 130.237L237.448 133.837L239.44 134.019L239.77 130.419L237.778 130.237ZM238.444 134.928H240.544V132.928H238.444V134.928ZM240.544 134.928C242.676 134.928 244.396 135.541 245.772 136.726L247.076 135.21C245.293 133.674 243.092 132.928 240.544 132.928V134.928ZM245.777 136.73C247.135 137.882 247.794 139.303 247.794 141.068H249.794C249.794 138.712 248.873 136.734 247.071 135.205L245.777 136.73Z" fill="black"/>
</svg>
