<svg width="342" height="180" viewBox="0 0 342 180" fill="none" xmlns="http://www.w3.org/2000/svg">
<g clip-path="url(#clip0)">
<rect width="341" height="180" transform="translate(0.0488281)" fill="#F5F5F5"/>
<path d="M223.549 90L256.891 32.25H190.207L223.549 90Z" fill="#A57CFE"/>
<path d="M208.549 85L231.499 45.25H185.599L208.549 85Z" fill="#8052E4"/>
<path d="M238.049 36.5L247.549 27" stroke="black"/>
<path d="M244.549 37L254.049 27.5" stroke="black"/>
<path d="M251.049 37L260.549 27.5" stroke="black"/>
<path d="M257.549 37L267.049 27.5" stroke="black"/>
<path d="M264.049 37L273.549 27.5" stroke="black"/>
<path d="M270.549 37L280.049 27.5" stroke="black"/>
<path d="M277.049 37L286.549 27.5" stroke="black"/>
<path d="M145.56 90.3748L188.408 64.8608M188.408 64.8608L187.746 66.4191M188.408 64.8608L186.723 64.7006" stroke="black"/>
<path d="M141.56 103.375L184.408 77.8608M184.408 77.8608L183.746 79.4191M184.408 77.8608L182.723 77.7006" stroke="black"/>
<circle cx="117.049" cy="97" r="50" fill="#31D67B"/>
<circle cx="86.5488" cy="82.5" r="30" stroke="black"/>
<circle cx="140.424" cy="122.375" r="1.375" fill="#D4D4D4"/>
<circle cx="146.174" cy="122.375" r="1.375" fill="#D4D4D4"/>
<circle cx="151.924" cy="122.375" r="1.375" fill="#D4D4D4"/>
<circle cx="157.674" cy="122.375" r="1.375" fill="#D4D4D4"/>
<circle cx="163.424" cy="122.375" r="1.375" fill="#D4D4D4"/>
<circle cx="169.174" cy="122.375" r="1.375" fill="#D4D4D4"/>
<circle cx="174.924" cy="122.375" r="1.375" fill="#D4D4D4"/>
<circle cx="180.674" cy="122.375" r="1.375" fill="#D4D4D4"/>
<circle cx="186.424" cy="122.375" r="1.375" fill="#D4D4D4"/>
<circle cx="140.424" cy="128.125" r="1.375" fill="#D4D4D4"/>
<circle cx="146.174" cy="128.125" r="1.375" fill="#D4D4D4"/>
<circle cx="140.424" cy="133.875" r="1.375" fill="#D4D4D4"/>
<circle cx="146.174" cy="133.875" r="1.375" fill="#D4D4D4"/>
<circle cx="151.924" cy="133.875" r="1.375" fill="#D4D4D4"/>
<circle cx="157.674" cy="133.875" r="1.375" fill="#D4D4D4"/>
<circle cx="163.424" cy="133.875" r="1.375" fill="#D4D4D4"/>
<circle cx="169.174" cy="133.875" r="1.375" fill="#D4D4D4"/>
<circle cx="174.924" cy="133.875" r="1.375" fill="#D4D4D4"/>
<circle cx="180.674" cy="133.875" r="1.375" fill="#D4D4D4"/>
<circle cx="186.424" cy="133.875" r="1.375" fill="#D4D4D4"/>
<circle cx="151.924" cy="128.125" r="1.375" fill="#D4D4D4"/>
<circle cx="157.674" cy="128.125" r="1.375" fill="#D4D4D4"/>
<circle cx="163.424" cy="128.125" r="1.375" fill="#D4D4D4"/>
<circle cx="169.174" cy="128.125" r="1.375" fill="#D4D4D4"/>
<circle cx="174.924" cy="128.125" r="1.375" fill="#D4D4D4"/>
<circle cx="180.674" cy="128.125" r="1.375" fill="#D4D4D4"/>
<circle cx="186.424" cy="128.125" r="1.375" fill="#D4D4D4"/>
</g>
<defs>
<clipPath id="clip0">
<rect width="341" height="180" fill="white" transform="translate(0.0488281)"/>
</clipPath>
</defs>
</svg>
