<svg width="342" height="180" viewBox="0 0 342 180" fill="none" xmlns="http://www.w3.org/2000/svg">
<rect width="341" height="180" transform="translate(0.0488281)" fill="#F5F5F5"/>
<path d="M98.853 118L16.0488 131H252.984L330.049 118H98.853Z" fill="#AB85FF"/>
<path d="M153.109 86L99.0488 147H253.736L304.049 86H153.109Z" fill="#4AE991"/>
<g clip-path="url(#clip0)">
<path d="M55.0728 50C55.1689 50 55.265 50.0368 55.3387 50.1102L62.1376 56.9082C62.2841 57.0535 62.2841 57.294 62.1376 57.4393L55.8749 63.7016L62.4119 70.2388C62.5574 70.3841 62.5574 70.6231 62.4119 70.7698L56.1738 77.0059L62.7423 83.5744C62.8887 83.7212 62.8887 83.9592 62.7423 84.1055L56.4804 90.368L63.0173 96.9049C63.1636 97.0512 63.1636 97.2897 63.0173 97.4359L56.5631 103.89C56.4167 104.037 56.1782 104.037 56.0321 103.89C55.8857 103.744 55.8857 103.506 56.0321 103.359L62.2206 97.1708L55.6874 90.638C55.5413 90.4914 55.5413 90.2533 55.6874 90.1071C55.6981 90.0963 55.7108 90.0927 55.7218 90.0843C55.7347 90.0663 55.7423 90.0461 55.7581 90.0304L61.9465 83.8413L55.4135 77.3085C55.3202 77.2153 55.2931 77.0869 55.3177 76.9673C55.3155 76.8684 55.3512 76.7687 55.426 76.6937L61.6144 70.5032L55.0812 63.9721C54.9358 63.8252 54.9358 63.5862 55.0812 63.4409C55.0919 63.4292 55.104 63.4256 55.1153 63.4189C55.1279 63.4013 55.1347 63.3808 55.1519 63.3646L61.3402 57.177L54.808 50.6453C54.6616 50.4985 54.6616 50.2587 54.808 50.1142C54.8795 50.0356 54.9767 50 55.0728 50Z" fill="black"/>
<path d="M65.2099 50.0015C65.306 50.0015 65.402 50.0384 65.4756 50.1117L72.2741 56.9098C72.4193 57.0551 72.4193 57.2956 72.2741 57.4409L66.0126 63.7032L72.5501 70.2404C72.6946 70.3857 72.6946 70.6247 72.5501 70.7714L66.3115 77.0075L72.8806 83.576C73.0265 83.7227 73.0265 83.9608 72.8806 84.107L66.6187 90.3688L73.156 96.9058C73.3025 97.052 73.3025 97.2905 73.156 97.4367L66.7013 103.89C66.5552 104.037 66.3159 104.037 66.1704 103.89C66.0241 103.744 66.0241 103.506 66.1704 103.359L72.3585 97.1709L65.8264 90.638C65.68 90.4913 65.68 90.2533 65.8264 90.107C65.8363 90.0971 65.848 90.0935 65.8594 90.085C65.8722 90.0671 65.8789 90.0462 65.8961 90.0303L72.0851 83.8411L65.5524 77.3083C65.46 77.2158 65.4328 77.0881 65.4568 76.9686C65.4544 76.8697 65.4891 76.7684 65.5649 76.6925L71.7556 70.5026L65.2188 63.9718C65.0733 63.8265 65.0733 63.586 65.2188 63.4407C65.2295 63.4305 65.2416 63.4253 65.252 63.4202C65.2655 63.4027 65.2724 63.3807 65.2895 63.3659L71.4776 57.1766L64.945 50.645C64.7983 50.4983 64.7983 50.26 64.945 50.114C65.0165 50.0372 65.1126 50.0015 65.2099 50.0015Z" fill="black"/>
<path d="M75.3476 50C75.4453 50 75.5407 50.0368 75.6134 50.1102L82.413 56.9082C82.5595 57.0535 82.5595 57.294 82.413 57.4393L76.1504 63.7016L82.6871 70.2388C82.8337 70.3841 82.8337 70.6231 82.6871 70.7698L76.4497 77.0059L83.0188 83.5744C83.1623 83.7212 83.1623 83.9592 83.0188 84.1055L76.7547 90.368L83.2919 96.9049C83.4376 97.0512 83.4376 97.2897 83.2919 97.4359L76.8366 103.89C76.6899 104.037 76.4501 104.037 76.3056 103.89C76.1591 103.744 76.1591 103.506 76.3056 103.359L82.4925 97.1708L75.9607 90.638C75.8141 90.4914 75.8141 90.2533 75.9607 90.1071C75.9713 90.0963 75.982 90.0927 75.996 90.0843C76.0106 90.0663 76.0146 90.0461 76.0315 90.0304L82.2207 83.8413L75.6866 77.3085C75.5941 77.2153 75.5692 77.0869 75.5914 76.9673C75.5897 76.8684 75.6248 76.7687 75.7011 76.6937L81.8903 70.5032L75.3567 63.9721C75.2115 63.8252 75.2115 63.5862 75.3567 63.4409C75.3668 63.4292 75.3787 63.4256 75.3901 63.4189C75.4037 63.4013 75.408 63.3808 75.4268 63.3646L81.6161 57.177L75.0839 50.6453C74.9369 50.4985 74.9369 50.2587 75.0839 50.1142C75.1554 50.0356 75.2509 50 75.3476 50Z" fill="black"/>
</g>
<g clip-path="url(#clip1)">
<path d="M86.0728 50C86.1689 50 86.265 50.0368 86.3387 50.1102L93.1376 56.9082C93.2841 57.0535 93.2841 57.294 93.1376 57.4393L86.8749 63.7016L93.4119 70.2388C93.5574 70.3841 93.5574 70.6231 93.4119 70.7698L87.1738 77.0059L93.7423 83.5744C93.8887 83.7212 93.8887 83.9592 93.7423 84.1055L87.4804 90.368L94.0173 96.9049C94.1636 97.0512 94.1636 97.2897 94.0173 97.4359L87.5631 103.89C87.4167 104.037 87.1782 104.037 87.0321 103.89C86.8857 103.744 86.8857 103.506 87.0321 103.359L93.2206 97.1708L86.6874 90.638C86.5413 90.4914 86.5413 90.2533 86.6874 90.1071C86.6981 90.0963 86.7108 90.0927 86.7218 90.0843C86.7347 90.0663 86.7423 90.0461 86.7581 90.0304L92.9465 83.8413L86.4135 77.3085C86.3202 77.2153 86.2931 77.0869 86.3177 76.9673C86.3155 76.8684 86.3512 76.7687 86.426 76.6937L92.6144 70.5032L86.0812 63.9721C85.9358 63.8252 85.9358 63.5862 86.0812 63.4409C86.0919 63.4292 86.104 63.4256 86.1153 63.4189C86.1279 63.4013 86.1347 63.3808 86.1519 63.3646L92.3402 57.177L85.808 50.6453C85.6616 50.4985 85.6616 50.2587 85.808 50.1142C85.8795 50.0356 85.9767 50 86.0728 50Z" fill="black"/>
<path d="M96.2099 50.0015C96.306 50.0015 96.402 50.0384 96.4756 50.1117L103.274 56.9098C103.419 57.0551 103.419 57.2956 103.274 57.4409L97.0126 63.7032L103.55 70.2404C103.695 70.3857 103.695 70.6247 103.55 70.7714L97.3115 77.0075L103.881 83.576C104.026 83.7227 104.026 83.9608 103.881 84.107L97.6187 90.3688L104.156 96.9058C104.302 97.052 104.302 97.2905 104.156 97.4367L97.7013 103.89C97.5552 104.037 97.3159 104.037 97.1704 103.89C97.0241 103.744 97.0241 103.506 97.1704 103.359L103.359 97.1709L96.8264 90.638C96.68 90.4913 96.68 90.2533 96.8264 90.107C96.8363 90.0971 96.848 90.0935 96.8594 90.085C96.8722 90.0671 96.8789 90.0462 96.8961 90.0303L103.085 83.8411L96.5524 77.3083C96.46 77.2158 96.4328 77.0881 96.4568 76.9686C96.4544 76.8697 96.4891 76.7684 96.5649 76.6925L102.756 70.5026L96.2188 63.9718C96.0733 63.8265 96.0733 63.586 96.2188 63.4407C96.2295 63.4305 96.2416 63.4253 96.252 63.4202C96.2655 63.4027 96.2724 63.3807 96.2895 63.3659L102.478 57.1766L95.945 50.645C95.7983 50.4983 95.7983 50.26 95.945 50.114C96.0165 50.0372 96.1126 50.0015 96.2099 50.0015Z" fill="black"/>
<path d="M106.348 50C106.445 50 106.541 50.0368 106.613 50.1102L113.413 56.9082C113.559 57.0535 113.559 57.294 113.413 57.4393L107.15 63.7016L113.687 70.2388C113.834 70.3841 113.834 70.6231 113.687 70.7698L107.45 77.0059L114.019 83.5744C114.162 83.7212 114.162 83.9592 114.019 84.1055L107.755 90.368L114.292 96.9049C114.438 97.0512 114.438 97.2897 114.292 97.4359L107.837 103.89C107.69 104.037 107.45 104.037 107.306 103.89C107.159 103.744 107.159 103.506 107.306 103.359L113.492 97.1708L106.961 90.638C106.814 90.4914 106.814 90.2533 106.961 90.1071C106.971 90.0963 106.982 90.0927 106.996 90.0843C107.011 90.0663 107.015 90.0461 107.031 90.0304L113.221 83.8413L106.687 77.3085C106.594 77.2153 106.569 77.0869 106.591 76.9673C106.59 76.8684 106.625 76.7687 106.701 76.6937L112.89 70.5032L106.357 63.9721C106.212 63.8252 106.212 63.5862 106.357 63.4409C106.367 63.4292 106.379 63.4256 106.39 63.4189C106.404 63.4013 106.408 63.3808 106.427 63.3646L112.616 57.177L106.084 50.6453C105.937 50.4985 105.937 50.2587 106.084 50.1142C106.155 50.0356 106.251 50 106.348 50Z" fill="black"/>
</g>
<path d="M188.013 147L188.013 74M188.013 74L187.048 76M188.013 74L188.979 76" stroke="black"/>
<path d="M204.049 147L204.049 45M204.049 45L203.049 47.7945M204.049 45L205.049 47.7945" stroke="black"/>
<path d="M172.049 147V101M172.049 101L171.049 102.26M172.049 101L173.049 102.26" stroke="black"/>
<path d="M220.049 147V114M220.049 114L219.049 114.904M220.049 114L221.049 114.904" stroke="black"/>
<path d="M100.049 53C100.049 47.4305 97.8363 42.089 93.8981 38.1508C89.9598 34.2125 84.6184 32 79.0488 32C73.4793 32 68.1379 34.2125 64.1996 38.1508C60.2613 42.089 58.0488 47.4305 58.0488 53L79.0488 53H100.049Z" fill="#8052E4"/>
<path d="M69.0488 53C69.0488 49.287 67.6265 45.726 65.0948 43.1005C62.563 40.475 59.1293 39 55.5488 39C51.9684 39 48.5346 40.475 46.0029 43.1005C43.4711 45.726 42.0488 49.287 42.0488 53L55.5488 53H69.0488Z" fill="#8052E4"/>
<path d="M129.049 53C129.049 49.287 126.994 45.726 123.337 43.1005C119.68 40.475 114.721 39 109.549 39C104.377 39 99.4172 40.475 95.7602 43.1005C92.1033 45.726 90.0488 49.287 90.0488 53L109.549 53H129.049Z" fill="#8052E4"/>
<defs>
<clipPath id="clip0">
<rect width="54" height="54" fill="white" transform="matrix(1 0 0 -1 42.0488 104)"/>
</clipPath>
<clipPath id="clip1">
<rect width="54" height="54" fill="white" transform="matrix(1 0 0 -1 73.0488 104)"/>
</clipPath>
</defs>
</svg>
