<svg width="342" height="180" viewBox="0 0 342 180" fill="none" xmlns="http://www.w3.org/2000/svg">
<rect width="341" height="180" transform="translate(0.0488281)" fill="#F5F5F5"/>
<g clip-path="url(#clip0)">
<rect x="161.049" y="30" width="119" height="119" rx="59.5" fill="#AB85FF"/>
<path d="M148.049 89.0003L148.297 90.1102L148.546 91.219L148.794 92.3259L149.042 93.4297L149.291 94.5296L149.539 95.6245L149.788 96.7134L150.036 97.7954L150.284 98.8695L150.533 99.9347L150.781 100.99L151.03 102.035L151.278 103.067L151.527 104.088L151.775 105.094L152.023 106.086L152.272 107.063L152.52 108.024L152.769 108.967L153.017 109.892L153.265 110.799L153.514 111.686L153.762 112.552L154.011 113.398L154.259 114.221L154.507 115.022L154.756 115.799L155.004 116.552L155.253 117.281L155.501 117.984L155.749 118.661L155.998 119.311L156.246 119.934L156.495 120.529L156.743 121.095L156.992 121.633L157.24 122.141L157.488 122.62L157.737 123.068L157.985 123.486L158.234 123.873L158.482 124.228L158.73 124.552L158.979 124.843L159.227 125.102L159.476 125.329L159.724 125.523L159.972 125.685L160.221 125.813L160.469 125.908L160.718 125.97L160.966 125.999L161.214 125.994L161.463 125.956L161.711 125.885L161.96 125.78L162.208 125.643L162.456 125.472L162.705 125.269L162.953 125.033L163.202 124.765L163.45 124.464L163.699 124.132L163.947 123.768L164.195 123.372L164.444 122.946L164.692 122.489L164.941 122.002L165.189 121.485L165.437 120.939L165.686 120.365L165.934 119.762L166.183 119.131L166.431 118.474L166.679 117.789L166.928 117.079L167.176 116.344L167.425 115.584L167.673 114.8L167.921 113.993L168.17 113.163L168.418 112.312L168.667 111.439L168.915 110.547L169.163 109.635L169.412 108.704L169.66 107.756L169.909 106.791L170.157 105.81L170.406 104.814L170.654 103.803L170.902 102.779L171.151 101.743L171.399 100.695L171.648 99.6371L171.896 98.5693L172.144 97.4929L172.393 96.4089L172.641 95.3182L172.89 94.2218L173.138 93.1207L173.386 92.0159L173.635 90.9084L173.883 89.7992L174.132 88.6892L174.38 87.5796L174.628 86.4712L174.877 85.3651L175.125 84.2623L175.374 83.1637L175.622 82.0704L175.87 80.9833L176.119 79.9034L176.367 78.8317L176.616 77.7692L176.864 76.7168L177.113 75.6754L177.361 74.646L177.609 73.6295L177.858 72.6269L178.106 71.639L178.355 70.6667L178.603 69.711L178.851 68.7726L179.1 67.8524L179.348 66.9512L179.597 66.0698L179.845 65.2091L180.093 64.3699L180.342 63.5527L180.59 62.7585L180.839 61.9879L181.087 61.2416L181.335 60.5203L181.584 59.8246L181.832 59.1552L182.081 58.5126L182.329 57.8975L182.577 57.3103L182.826 56.7517L183.074 56.2221L183.323 55.722L183.571 55.2519L183.82 54.8121L184.068 54.403L184.316 54.0252L184.565 53.6788L184.813 53.3641L185.062 53.0816L185.31 52.8314L185.558 52.6137L185.807 52.4288L186.055 52.2767L186.304 52.1578L186.552 52.072L186.8 52.0194L187.049 52.0001L187.297 52.0141L187.546 52.0614L187.794 52.1419L188.042 52.2556L188.291 52.4023L188.539 52.582L188.788 52.7945L189.036 53.0396L189.284 53.317L189.533 53.6265L189.781 53.9679L190.03 54.3408L190.278 54.7449L190.527 55.1798L190.775 55.6451L191.023 56.1405L191.272 56.6654L191.52 57.2194L191.769 57.8021L192.017 58.4128L192.265 59.051L192.514 59.7162L192.762 60.4078L193.011 61.125L193.259 61.8674L193.507 62.6342L193.756 63.4247L194.004 64.2382L194.253 65.074L194.501 65.9314L194.749 66.8095L194.998 67.7075L195.246 68.6248L195.495 69.5603L195.743 70.5134L195.992 71.4831L196.24 72.4686L196.488 73.4689L196.737 74.4832L196.985 75.5106L197.234 76.5501L197.482 77.6009L197.73 78.6618L197.979 79.7321L198.227 80.8108L198.476 81.8968L198.724 82.9892L198.972 84.087L199.221 85.1892L199.469 86.2949L199.718 87.4029L199.966 88.5125L200.214 89.6224L200.463 90.7318L200.711 91.8397L200.96 92.945L201.208 94.0467L201.456 95.1439L201.705 96.2356L201.953 97.3208L202.202 98.3984L202.45 99.4677L202.699 100.527L202.947 101.577L203.195 102.615L203.444 103.641L203.692 104.654L203.941 105.652L204.189 106.636L204.437 107.603L204.686 108.554L204.934 109.488L205.183 110.403L205.431 111.298L205.679 112.174L205.928 113.029L206.176 113.862L206.425 114.673L206.673 115.46L206.921 116.224L207.17 116.964L207.418 117.678L207.667 118.366L207.915 119.028L208.163 119.663L208.412 120.271L208.66 120.85L208.909 121.4L209.157 121.922L209.406 122.413L209.654 122.875L209.902 123.306L210.151 123.707L210.399 124.076L210.648 124.413L210.896 124.719L211.144 124.992L211.393 125.234L211.641 125.442L211.89 125.618L212.138 125.761L212.386 125.87L212.635 125.947L212.883 125.99L213.132 126L213.38 125.977L213.628 125.92L213.877 125.83L214.125 125.707L214.374 125.551L214.622 125.362L214.87 125.141L215.119 124.887L215.367 124.6L215.616 124.282L215.864 123.931L216.113 123.55L216.361 123.137L216.609 122.694L216.858 122.22L217.106 121.716L217.355 121.183L217.603 120.621L217.851 120.03L218.1 119.412L218.348 118.766L218.597 118.093L218.845 117.394L219.093 116.67L219.342 115.921L219.59 115.147L219.839 114.35L220.087 113.53L220.335 112.688L220.584 111.825L220.832 110.941L221.081 110.038L221.329 109.116L221.577 108.175L221.826 107.217L222.074 106.243L222.323 105.253L222.571 104.249L222.82 103.231L223.068 102.2L223.316 101.157L223.565 100.103L223.813 99.0397L224.062 97.967L224.31 96.8862L224.558 95.7983L224.807 94.7043L225.055 93.6052L225.304 92.5019L225.552 91.3955L225.8 90.2869L226.049 89.1771L226.297 88.0672L226.546 86.9581L226.794 85.8509L227.042 84.7465L227.291 83.6459L227.539 82.5502L227.788 81.4602L228.036 80.3771L228.284 79.3017L228.533 78.235L228.781 77.178L229.03 76.1317L229.278 75.0969L229.527 74.0746L229.775 73.0658L230.023 72.0713L230.272 71.0921L230.52 70.129L230.769 69.1828L231.017 68.2545L231.265 67.3449L231.514 66.4547L231.762 65.5848L232.011 64.736L232.259 63.9091L232.507 63.1047L232.756 62.3236L233.004 61.5666L233.253 60.8342L233.501 60.1272L233.749 59.4461L233.998 58.7917L234.246 58.1644L234.495 57.5649L234.743 56.9937L234.992 56.4513L235.24 55.9381L235.488 55.4548L235.737 55.0016L235.985 54.579L236.234 54.1874L236.482 53.8271L236.73 53.4985L236.979 53.2018L237.227 52.9373L237.476 52.7053L237.724 52.506L237.972 52.3395L238.221 52.206L238.469 52.1056L238.718 52.0384L238.966 52.0045L239.214 52.0038L239.463 52.0365L239.711 52.1024L239.96 52.2015L240.208 52.3338L240.456 52.499L240.705 52.6971L240.953 52.9279L241.202 53.1911L241.45 53.4865L241.699 53.8139L241.947 54.173L242.195 54.5634L242.444 54.9848L242.692 55.4369L242.941 55.9191L243.189 56.4311L243.437 56.9724L243.686 57.5425L243.934 58.141L244.183 58.7672L244.431 59.4206L244.679 60.1006L244.928 60.8067L245.176 61.5381L245.425 62.2942L245.673 63.0744L245.921 63.8779L246.17 64.704L246.418 65.5519L246.667 66.421L246.915 67.3104L247.163 68.2193L247.412 69.1469L247.66 70.0924L247.909 71.0549L248.157 72.0336L248.406 73.0275L248.654 74.0358L248.902 75.0575L249.151 76.0918L249.399 77.1377L249.648 78.1943L249.896 79.2607L250.144 80.3357L250.393 81.4186L250.641 82.5083L250.89 83.6039L251.138 84.7043L251.386 85.8085L251.635 86.9157L251.883 88.0247L252.132 89.1346L252.38 90.2444L252.628 91.353L252.877 92.4596L253.125 93.563L253.374 94.6623L253.622 95.7566L253.87 96.8447L254.119 97.9258L254.367 98.9988L254.616 100.063L254.864 101.117L255.113 102.16L255.361 103.192L255.609 104.21L255.858 105.215L256.106 106.205L256.355 107.18L256.603 108.139L256.851 109.08L257.1 110.003L257.348 110.907L257.597 111.792L257.845 112.656L258.093 113.499L258.342 114.319L258.59 115.117L258.839 115.892L259.087 116.642L259.335 117.367L259.584 118.067L259.832 118.741L260.081 119.388L260.329 120.007L260.577 120.599L260.826 121.162L261.074 121.696L261.323 122.201L261.571 122.676L261.82 123.121L262.068 123.535L262.316 123.917L262.565 124.269L262.813 124.589L263.062 124.876L263.31 125.132L263.558 125.354L263.807 125.545L264.055 125.702L264.304 125.826L264.552 125.917L264.8 125.975L265.049 126L265.297 125.991L265.546 125.949L265.794 125.874L266.042 125.765L266.291 125.624L266.539 125.449L266.788 125.242L267.036 125.002L267.284 124.73L267.533 124.426L267.781 124.089L268.03 123.721L268.278 123.322L268.527 122.892L268.775 122.432L269.023 121.941L269.272 121.421L269.52 120.871L269.769 120.293L270.017 119.687L270.265 119.053L270.514 118.392L270.762 117.705L271.011 116.992L271.259 116.253L271.507 115.49L271.756 114.703L272.004 113.894L272.253 113.061L272.501 112.207L272.749 111.332L272.998 110.437L273.246 109.523L273.495 108.591L273.743 107.64L273.992 106.673L274.24 105.69L274.488 104.692L274.737 103.68L274.985 102.654L275.234 101.617L275.482 100.568L275.73 99.5084L275.979 98.4395L276.227 97.3622L276.476 96.2773L276.724 95.1858L276.972 94.0888L277.221 92.9872L277.469 91.8821L277.718 90.7743L277.966 89.6649L278.214 88.555L278.463 87.4454L278.711 86.3372L278.96 85.2315L279.208 84.1291L279.456 83.0311L279.705 81.9385L279.953 80.8522L280.202 79.7733L280.45 78.7027L280.699 77.6413L280.947 76.5902L281.195 75.5502L281.444 74.5223L281.692 73.5075L281.941 72.5066L282.189 71.5205L282.437 70.5502L282.686 69.5965L282.934 68.6603L283.183 67.7423L283.431 66.8435L283.679 65.9646L283.928 65.1065L284.176 64.2698L284.425 63.4554L284.673 62.664L284.921 61.8963L285.17 61.153L285.418 60.4348L285.667 59.7422L285.915 59.076L286.163 58.4367L286.412 57.8249L286.66 57.2412L286.909 56.6861L287.157 56.16L287.406 55.6635L287.654 55.197L287.902 54.7609L288.151 54.3557L288.399 53.9816L288.648 53.639L288.896 53.3282L289.144 53.0496L289.393 52.8033L289.641 52.5896L289.89 52.4086L290.138 52.2606L290.386 52.1456L290.635 52.0638L290.883 52.0153L291.132 52L291.38 52.018L291.628 52.0693L291.877 52.1539L292.125 52.2716L292.374 52.4223L292.622 52.606L292.87 52.8224L293.119 53.0714L293.367 53.3527L293.616 53.6661L293.864 54.0113L294.113 54.388L294.361 54.7958L294.609 55.2345L294.858 55.7035L295.106 56.2024L295.355 56.7309L295.603 57.2884L295.851 57.8745L296.1 58.4886L296.348 59.1301L296.597 59.7985L296.845 60.4932L297.093 61.2135L297.342 61.9589L297.59 62.7286L297.839 63.5219L298.087 64.3382L298.335 65.1766L298.584 66.0365L298.832 66.9171L299.081 67.8175L299.329 68.737L299.577 69.6747L299.826 70.6298L300.074 71.6015L300.323 72.5888L300.571 73.5909L300.82 74.6068L301.068 75.6357L301.316 76.6767L301.565 77.7287L301.813 78.7909L302.062 79.8622L302.31 80.9418L302.558 82.0286L302.807 83.1217L303.055 84.2201L303.304 85.3228L303.552 86.4288L303.8 87.5371L304.049 88.6468L148.049 89.0003Z" stroke="black"/>
</g>
<g clip-path="url(#clip1)">
<rect x="72.0488" y="30" width="119" height="119" rx="59.5" fill="#31D67B"/>
<path d="M44.0488 89.0003L44.2972 90.1102L44.5456 91.219L44.7941 92.3259L45.0425 93.4297L45.2909 94.5296L45.5393 95.6245L45.7877 96.7134L46.0361 97.7954L46.2845 98.8695L46.5329 99.9347L46.7813 100.99L47.0297 102.035L47.2781 103.067L47.5265 104.088L47.7749 105.094L48.0234 106.086L48.2718 107.063L48.5202 108.024L48.7686 108.967L49.017 109.892L49.2654 110.799L49.5138 111.686L49.7622 112.552L50.0106 113.398L50.259 114.221L50.5074 115.022L50.7558 115.799L51.0042 116.552L51.2526 117.281L51.5011 117.984L51.7495 118.661L51.9979 119.311L52.2463 119.934L52.4947 120.529L52.7431 121.095L52.9915 121.633L53.2399 122.141L53.4883 122.62L53.7367 123.068L53.9851 123.486L54.2335 123.873L54.4819 124.228L54.7304 124.552L54.9788 124.843L55.2272 125.102L55.4756 125.329L55.724 125.523L55.9724 125.685L56.2208 125.813L56.4692 125.908L56.7176 125.97L56.966 125.999L57.2144 125.994L57.4628 125.956L57.7112 125.885L57.9597 125.78L58.2081 125.643L58.4565 125.472L58.7049 125.269L58.9533 125.033L59.2017 124.765L59.4501 124.464L59.6985 124.132L59.9469 123.768L60.1953 123.372L60.4437 122.946L60.6921 122.489L60.9405 122.002L61.189 121.485L61.4374 120.939L61.6858 120.365L61.9342 119.762L62.1826 119.131L62.431 118.474L62.6794 117.789L62.9278 117.079L63.1762 116.344L63.4246 115.584L63.673 114.8L63.9214 113.993L64.1698 113.163L64.4183 112.312L64.6667 111.439L64.9151 110.547L65.1635 109.635L65.4119 108.704L65.6603 107.756L65.9087 106.791L66.1571 105.81L66.4055 104.814L66.6539 103.803L66.9023 102.779L67.1507 101.743L67.3991 100.695L67.6476 99.6371L67.896 98.5693L68.1444 97.4929L68.3928 96.4089L68.6412 95.3182L68.8896 94.2218L69.138 93.1207L69.3864 92.0159L69.6348 90.9084L69.8832 89.7992L70.1316 88.6892L70.38 87.5796L70.6284 86.4712L70.8769 85.3651L71.1253 84.2623L71.3737 83.1637L71.6221 82.0704L71.8705 80.9833L72.1189 79.9034L72.3673 78.8317L72.6157 77.7692L72.8641 76.7168L73.1125 75.6754L73.3609 74.646L73.6093 73.6295L73.8577 72.6269L74.1062 71.639L74.3546 70.6667L74.603 69.711L74.8514 68.7726L75.0998 67.8524L75.3482 66.9512L75.5966 66.0698L75.845 65.2091L76.0934 64.3699L76.3418 63.5527L76.5902 62.7585L76.8386 61.9879L77.087 61.2416L77.3355 60.5203L77.5839 59.8246L77.8323 59.1552L78.0807 58.5126L78.3291 57.8975L78.5775 57.3103L78.8259 56.7517L79.0743 56.2221L79.3227 55.722L79.5711 55.2519L79.8195 54.8121L80.0679 54.403L80.3163 54.0252L80.5648 53.6788L80.8132 53.3641L81.0616 53.0816L81.31 52.8314L81.5584 52.6137L81.8068 52.4288L82.0552 52.2767L82.3036 52.1578L82.552 52.072L82.8004 52.0194L83.0488 52.0001L83.2972 52.0141L83.5456 52.0614L83.794 52.1419L84.0425 52.2556L84.2909 52.4023L84.5393 52.582L84.7877 52.7945L85.0361 53.0396L85.2845 53.317L85.5329 53.6265L85.7813 53.9679L86.0297 54.3408L86.2781 54.7449L86.5265 55.1798L86.7749 55.6451L87.0233 56.1405L87.2718 56.6654L87.5202 57.2194L87.7686 57.8021L88.017 58.4128L88.2654 59.051L88.5138 59.7162L88.7622 60.4078L89.0106 61.125L89.259 61.8674L89.5074 62.6342L89.7558 63.4247L90.0042 64.2382L90.2527 65.074L90.5011 65.9314L90.7495 66.8095L90.9979 67.7075L91.2463 68.6248L91.4947 69.5603L91.7431 70.5134L91.9915 71.4831L92.2399 72.4686L92.4883 73.4689L92.7367 74.4832L92.9851 75.5106L93.2335 76.5501L93.482 77.6009L93.7304 78.6618L93.9788 79.7321L94.2272 80.8108L94.4756 81.8968L94.724 82.9892L94.9724 84.087L95.2208 85.1892L95.4692 86.2949L95.7176 87.4029L95.966 88.5125L96.2144 89.6224L96.4628 90.7318L96.7112 91.8397L96.9597 92.945L97.2081 94.0467L97.4565 95.1439L97.7049 96.2356L97.9533 97.3208L98.2017 98.3984L98.4501 99.4677L98.6985 100.527L98.9469 101.577L99.1953 102.615L99.4437 103.641L99.6921 104.654L99.9405 105.652L100.189 106.636L100.437 107.603L100.686 108.554L100.934 109.488L101.183 110.403L101.431 111.298L101.679 112.174L101.928 113.029L102.176 113.862L102.425 114.673L102.673 115.46L102.921 116.224L103.17 116.964L103.418 117.678L103.667 118.366L103.915 119.028L104.163 119.663L104.412 120.271L104.66 120.85L104.909 121.4L105.157 121.922L105.406 122.413L105.654 122.875L105.902 123.306L106.151 123.707L106.399 124.076L106.648 124.413L106.896 124.719L107.144 124.992L107.393 125.234L107.641 125.442L107.89 125.618L108.138 125.761L108.386 125.87L108.635 125.947L108.883 125.99L109.132 126L109.38 125.977L109.628 125.92L109.877 125.83L110.125 125.707L110.374 125.551L110.622 125.362L110.87 125.141L111.119 124.887L111.367 124.6L111.616 124.282L111.864 123.931L112.113 123.55L112.361 123.137L112.609 122.694L112.858 122.22L113.106 121.716L113.355 121.183L113.603 120.621L113.851 120.03L114.1 119.412L114.348 118.766L114.597 118.093L114.845 117.394L115.093 116.67L115.342 115.921L115.59 115.147L115.839 114.35L116.087 113.53L116.335 112.688L116.584 111.825L116.832 110.941L117.081 110.038L117.329 109.116L117.577 108.175L117.826 107.217L118.074 106.243L118.323 105.253L118.571 104.249L118.82 103.231L119.068 102.2L119.316 101.157L119.565 100.103L119.813 99.0397L120.062 97.967L120.31 96.8862L120.558 95.7983L120.807 94.7043L121.055 93.6052L121.304 92.5019L121.552 91.3955L121.8 90.2869L122.049 89.1771L122.297 88.0672L122.546 86.9581L122.794 85.8509L123.042 84.7465L123.291 83.6459L123.539 82.5502L123.788 81.4602L124.036 80.3771L124.284 79.3017L124.533 78.235L124.781 77.178L125.03 76.1317L125.278 75.0969L125.527 74.0746L125.775 73.0658L126.023 72.0713L126.272 71.0921L126.52 70.129L126.769 69.1828L127.017 68.2545L127.265 67.3449L127.514 66.4547L127.762 65.5848L128.011 64.736L128.259 63.9091L128.507 63.1047L128.756 62.3236L129.004 61.5666L129.253 60.8342L129.501 60.1272L129.749 59.4461L129.998 58.7917L130.246 58.1644L130.495 57.5649L130.743 56.9937L130.992 56.4513L131.24 55.9381L131.488 55.4548L131.737 55.0016L131.985 54.579L132.234 54.1874L132.482 53.8271L132.73 53.4985L132.979 53.2018L133.227 52.9373L133.476 52.7053L133.724 52.506L133.972 52.3395L134.221 52.206L134.469 52.1056L134.718 52.0384L134.966 52.0045L135.214 52.0038L135.463 52.0365L135.711 52.1024L135.96 52.2015L136.208 52.3338L136.456 52.499L136.705 52.6971L136.953 52.9279L137.202 53.1911L137.45 53.4865L137.699 53.8139L137.947 54.173L138.195 54.5634L138.444 54.9848L138.692 55.4369L138.941 55.9191L139.189 56.4311L139.437 56.9724L139.686 57.5425L139.934 58.141L140.183 58.7672L140.431 59.4206L140.679 60.1006L140.928 60.8067L141.176 61.5381L141.425 62.2942L141.673 63.0744L141.921 63.8779L142.17 64.704L142.418 65.5519L142.667 66.421L142.915 67.3104L143.163 68.2193L143.412 69.1469L143.66 70.0924L143.909 71.0549L144.157 72.0336L144.406 73.0275L144.654 74.0358L144.902 75.0575L145.151 76.0918L145.399 77.1377L145.648 78.1943L145.896 79.2607L146.144 80.3357L146.393 81.4186L146.641 82.5083L146.89 83.6039L147.138 84.7043L147.386 85.8085L147.635 86.9157L147.883 88.0247L148.132 89.1346L148.38 90.2444L148.628 91.353L148.877 92.4596L149.125 93.563L149.374 94.6623L149.622 95.7565L149.87 96.8447L150.119 97.9258L150.367 98.9988L150.616 100.063L150.864 101.117L151.113 102.16L151.361 103.192L151.609 104.21L151.858 105.215L152.106 106.205L152.355 107.18L152.603 108.139L152.851 109.08L153.1 110.003L153.348 110.907L153.597 111.792L153.845 112.656L154.093 113.499L154.342 114.319L154.59 115.117L154.839 115.892L155.087 116.642L155.335 117.367L155.584 118.067L155.832 118.741L156.081 119.388L156.329 120.007L156.577 120.599L156.826 121.162L157.074 121.696L157.323 122.201L157.571 122.676L157.82 123.121L158.068 123.535L158.316 123.917L158.565 124.269L158.813 124.589L159.062 124.876L159.31 125.132L159.558 125.354L159.807 125.545L160.055 125.702L160.304 125.826L160.552 125.917L160.8 125.975L161.049 126L161.297 125.991L161.546 125.949L161.794 125.874L162.042 125.765L162.291 125.624L162.539 125.449L162.788 125.242L163.036 125.002L163.285 124.73L163.533 124.426L163.781 124.089L164.03 123.721L164.278 123.322L164.527 122.892L164.775 122.432L165.023 121.941L165.272 121.421L165.52 120.871L165.769 120.293L166.017 119.687L166.265 119.053L166.514 118.392L166.762 117.705L167.011 116.992L167.259 116.253L167.507 115.49L167.756 114.703L168.004 113.894L168.253 113.061L168.501 112.207L168.749 111.332L168.998 110.437L169.246 109.523L169.495 108.591L169.743 107.64L169.992 106.673L170.24 105.69L170.488 104.692L170.737 103.68L170.985 102.654L171.234 101.617L171.482 100.568L171.73 99.5084L171.979 98.4395L172.227 97.3622L172.476 96.2773L172.724 95.1858L172.972 94.0888L173.221 92.9872L173.469 91.8821L173.718 90.7743L173.966 89.6649L174.214 88.555L174.463 87.4454L174.711 86.3372L174.96 85.2315L175.208 84.1291L175.456 83.0311L175.705 81.9385L175.953 80.8522L176.202 79.7733L176.45 78.7027L176.699 77.6413L176.947 76.5902L177.195 75.5502L177.444 74.5223L177.692 73.5075L177.941 72.5066L178.189 71.5205L178.437 70.5502L178.686 69.5965L178.934 68.6602L179.183 67.7423L179.431 66.8435L179.679 65.9646L179.928 65.1065L180.176 64.2698L180.425 63.4554L180.673 62.664L180.921 61.8963L181.17 61.153L181.418 60.4348L181.667 59.7422L181.915 59.076L182.163 58.4367L182.412 57.8249L182.66 57.2412L182.909 56.6861L183.157 56.16L183.406 55.6635L183.654 55.197L183.902 54.7609L184.151 54.3557L184.399 53.9816L184.648 53.639L184.896 53.3282L185.144 53.0496L185.393 52.8033L185.641 52.5896L185.89 52.4086L186.138 52.2606L186.386 52.1456L186.635 52.0638L186.883 52.0153L187.132 52L187.38 52.018L187.628 52.0693L187.877 52.1539L188.125 52.2716L188.374 52.4223L188.622 52.606L188.87 52.8224L189.119 53.0714L189.367 53.3527L189.616 53.6661L189.864 54.0113L190.113 54.388L190.361 54.7958L190.609 55.2345L190.858 55.7035L191.106 56.2024L191.355 56.7309L191.603 57.2884L191.851 57.8745L192.1 58.4886L192.348 59.1301L192.597 59.7985L192.845 60.4932L193.093 61.2135L193.342 61.9589L193.59 62.7286L193.839 63.5219L194.087 64.3382L194.335 65.1766L194.584 66.0365L194.832 66.9171L195.081 67.8175L195.329 68.737L195.577 69.6747L195.826 70.6298L196.074 71.6015L196.323 72.5888L196.571 73.5909L196.82 74.6068L197.068 75.6357L197.316 76.6767L197.565 77.7287L197.813 78.7909L198.062 79.8622L198.31 80.9418L198.558 82.0286L198.807 83.1217L199.055 84.2201L199.304 85.3228L199.552 86.4288L199.8 87.5371L199.552 89.0003H44.0488Z" stroke="black"/>
</g>
<circle cx="241.424" cy="33.375" r="1.375" fill="#D4D4D4"/>
<circle cx="247.174" cy="33.375" r="1.375" fill="#D4D4D4"/>
<circle cx="252.924" cy="33.375" r="1.375" fill="#D4D4D4"/>
<circle cx="258.674" cy="33.375" r="1.375" fill="#D4D4D4"/>
<circle cx="264.424" cy="33.375" r="1.375" fill="#D4D4D4"/>
<circle cx="270.174" cy="33.375" r="1.375" fill="#D4D4D4"/>
<circle cx="275.924" cy="33.375" r="1.375" fill="#D4D4D4"/>
<circle cx="281.674" cy="33.375" r="1.375" fill="#D4D4D4"/>
<circle cx="287.424" cy="33.375" r="1.375" fill="#D4D4D4"/>
<circle cx="241.424" cy="39.125" r="1.375" fill="#D4D4D4"/>
<circle cx="247.174" cy="39.125" r="1.375" fill="#D4D4D4"/>
<circle cx="241.424" cy="44.875" r="1.375" fill="#D4D4D4"/>
<circle cx="247.174" cy="44.875" r="1.375" fill="#D4D4D4"/>
<circle cx="252.924" cy="44.875" r="1.375" fill="#D4D4D4"/>
<circle cx="258.674" cy="44.875" r="1.375" fill="#D4D4D4"/>
<circle cx="264.424" cy="44.875" r="1.375" fill="#D4D4D4"/>
<circle cx="270.174" cy="44.875" r="1.375" fill="#D4D4D4"/>
<circle cx="275.924" cy="44.875" r="1.375" fill="#D4D4D4"/>
<circle cx="281.674" cy="44.875" r="1.375" fill="#D4D4D4"/>
<circle cx="287.424" cy="44.875" r="1.375" fill="#D4D4D4"/>
<circle cx="252.924" cy="39.125" r="1.375" fill="#D4D4D4"/>
<circle cx="258.674" cy="39.125" r="1.375" fill="#D4D4D4"/>
<circle cx="264.424" cy="39.125" r="1.375" fill="#D4D4D4"/>
<circle cx="270.174" cy="39.125" r="1.375" fill="#D4D4D4"/>
<circle cx="275.924" cy="39.125" r="1.375" fill="#D4D4D4"/>
<circle cx="281.674" cy="39.125" r="1.375" fill="#D4D4D4"/>
<circle cx="287.424" cy="39.125" r="1.375" fill="#D4D4D4"/>
<circle cx="45.4238" cy="123.375" r="1.375" fill="#D4D4D4"/>
<circle cx="51.1738" cy="123.375" r="1.375" fill="#D4D4D4"/>
<circle cx="56.9238" cy="123.375" r="1.375" fill="#D4D4D4"/>
<circle cx="62.6738" cy="123.375" r="1.375" fill="#D4D4D4"/>
<circle cx="68.4238" cy="123.375" r="1.375" fill="#D4D4D4"/>
<circle cx="74.1738" cy="123.375" r="1.375" fill="#D4D4D4"/>
<circle cx="79.9238" cy="123.375" r="1.375" fill="#D4D4D4"/>
<circle cx="85.6738" cy="123.375" r="1.375" fill="#D4D4D4"/>
<circle cx="91.4238" cy="123.375" r="1.375" fill="#D4D4D4"/>
<circle cx="45.4238" cy="129.125" r="1.375" fill="#D4D4D4"/>
<circle cx="51.1738" cy="129.125" r="1.375" fill="#D4D4D4"/>
<circle cx="45.4238" cy="134.875" r="1.375" fill="#D4D4D4"/>
<circle cx="51.1738" cy="134.875" r="1.375" fill="#D4D4D4"/>
<circle cx="56.9238" cy="134.875" r="1.375" fill="#D4D4D4"/>
<circle cx="62.6738" cy="134.875" r="1.375" fill="#D4D4D4"/>
<circle cx="68.4238" cy="134.875" r="1.375" fill="#D4D4D4"/>
<circle cx="74.1738" cy="134.875" r="1.375" fill="#D4D4D4"/>
<circle cx="79.9238" cy="134.875" r="1.375" fill="#D4D4D4"/>
<circle cx="85.6738" cy="134.875" r="1.375" fill="#D4D4D4"/>
<circle cx="91.4238" cy="134.875" r="1.375" fill="#D4D4D4"/>
<circle cx="56.9238" cy="129.125" r="1.375" fill="#D4D4D4"/>
<circle cx="62.6738" cy="129.125" r="1.375" fill="#D4D4D4"/>
<circle cx="68.4238" cy="129.125" r="1.375" fill="#D4D4D4"/>
<circle cx="74.1738" cy="129.125" r="1.375" fill="#D4D4D4"/>
<circle cx="79.9238" cy="129.125" r="1.375" fill="#D4D4D4"/>
<circle cx="85.6738" cy="129.125" r="1.375" fill="#D4D4D4"/>
<circle cx="91.4238" cy="129.125" r="1.375" fill="#D4D4D4"/>
<defs>
<clipPath id="clip0">
<rect x="161.049" y="30" width="119" height="119" rx="59.5" fill="white"/>
</clipPath>
<clipPath id="clip1">
<rect x="72.0488" y="30" width="119" height="119" rx="59.5" fill="white"/>
</clipPath>
</defs>
</svg>
