<svg width="342" height="180" viewBox="0 0 342 180" fill="none" xmlns="http://www.w3.org/2000/svg">
<rect width="341" height="180" transform="translate(0.0488281)" fill="#F5F5F5"/>
<path d="M261.049 121C274.549 120 300.349 109.3 301.549 80.5C301.549 44.5 274.049 35 260.549 35C241.049 35 160.049 35 114.049 35" stroke="black"/>
<path d="M261.252 121H189.048" stroke="black"/>
<path d="M77.5488 56C64.0488 57 38.2488 67.7 37.0488 96.5C37.0488 132.5 64.5488 142 78.0488 142C97.5488 142 178.549 142 224.549 142" stroke="black"/>
<path d="M77.3457 56H149.549" stroke="black"/>
<path d="M209.549 35.5V120.5M209.549 35.5V120.5" stroke="black"/>
<path d="M214.049 35V121M214.049 35V121" stroke="black"/>
<path d="M219.049 35V121M219.049 35V121" stroke="black"/>
<path d="M224.049 35V121M224.049 35V121" stroke="black"/>
<path d="M229.049 35V121M229.049 35V121" stroke="black"/>
<path d="M234.049 35V121M234.049 35V121" stroke="black"/>
<path d="M239.049 35V121M239.049 35V121" stroke="black"/>
<path d="M244.049 35V121M244.049 35V121" stroke="black"/>
<circle cx="288.049" cy="44" r="17" fill="#A57CFE"/>
<circle cx="225.049" cy="142" r="11" fill="#8052E4"/>
<circle cx="82.5488" cy="98.5" r="35.5" fill="#31D67B"/>
<circle cx="96.4238" cy="93.375" r="1.375" fill="#D4D4D4"/>
<circle cx="102.174" cy="93.375" r="1.375" fill="#D4D4D4"/>
<circle cx="107.924" cy="93.375" r="1.375" fill="#D4D4D4"/>
<circle cx="113.424" cy="93.375" r="1.375" fill="#D4D4D4"/>
<circle cx="119.424" cy="93.375" r="1.375" fill="#D4D4D4"/>
<circle cx="125.174" cy="93.375" r="1.375" fill="#D4D4D4"/>
<circle cx="130.924" cy="93.375" r="1.375" fill="#D4D4D4"/>
<circle cx="136.674" cy="93.375" r="1.375" fill="#D4D4D4"/>
<circle cx="142.424" cy="93.375" r="1.375" fill="#D4D4D4"/>
<circle cx="96.4238" cy="99.125" r="1.375" fill="#D4D4D4"/>
<circle cx="102.174" cy="99.125" r="1.375" fill="#D4D4D4"/>
<circle cx="96.4238" cy="104.875" r="1.375" fill="#D4D4D4"/>
<circle cx="102.174" cy="104.875" r="1.375" fill="#D4D4D4"/>
<circle cx="107.924" cy="104.875" r="1.375" fill="#D4D4D4"/>
<circle cx="113.674" cy="104.875" r="1.375" fill="#D4D4D4"/>
<circle cx="119.424" cy="104.875" r="1.375" fill="#D4D4D4"/>
<circle cx="125.174" cy="104.875" r="1.375" fill="#D4D4D4"/>
<circle cx="130.924" cy="104.875" r="1.375" fill="#D4D4D4"/>
<circle cx="136.674" cy="104.875" r="1.375" fill="#D4D4D4"/>
<circle cx="142.424" cy="104.875" r="1.375" fill="#D4D4D4"/>
<circle cx="107.924" cy="99.125" r="1.375" fill="#D4D4D4"/>
<circle cx="113.424" cy="99.125" r="1.375" fill="#D4D4D4"/>
<circle cx="119.424" cy="99.125" r="1.375" fill="#D4D4D4"/>
<circle cx="125.174" cy="99.125" r="1.375" fill="#D4D4D4"/>
<circle cx="130.924" cy="99.125" r="1.375" fill="#D4D4D4"/>
<circle cx="136.674" cy="99.125" r="1.375" fill="#D4D4D4"/>
<circle cx="142.424" cy="99.125" r="1.375" fill="#D4D4D4"/>
<circle cx="96.4238" cy="93.375" r="1.375" fill="#D4D4D4"/>
<circle cx="102.174" cy="93.375" r="1.375" fill="#D4D4D4"/>
<circle cx="107.924" cy="93.375" r="1.375" fill="#D4D4D4"/>
<circle cx="113.424" cy="93.375" r="1.375" fill="#D4D4D4"/>
<circle cx="119.424" cy="93.375" r="1.375" fill="#D4D4D4"/>
<circle cx="125.174" cy="93.375" r="1.375" fill="#D4D4D4"/>
<circle cx="130.924" cy="93.375" r="1.375" fill="#D4D4D4"/>
<circle cx="136.674" cy="93.375" r="1.375" fill="#D4D4D4"/>
<circle cx="142.424" cy="93.375" r="1.375" fill="#D4D4D4"/>
<circle cx="96.4238" cy="99.125" r="1.375" fill="#D4D4D4"/>
<circle cx="102.174" cy="99.125" r="1.375" fill="#D4D4D4"/>
<circle cx="96.4238" cy="104.875" r="1.375" fill="#D4D4D4"/>
<circle cx="102.174" cy="104.875" r="1.375" fill="#D4D4D4"/>
<circle cx="107.924" cy="104.875" r="1.375" fill="#D4D4D4"/>
<circle cx="113.674" cy="104.875" r="1.375" fill="#D4D4D4"/>
<circle cx="119.424" cy="104.875" r="1.375" fill="#D4D4D4"/>
<circle cx="125.174" cy="104.875" r="1.375" fill="#D4D4D4"/>
<circle cx="130.924" cy="104.875" r="1.375" fill="#D4D4D4"/>
<circle cx="136.674" cy="104.875" r="1.375" fill="#D4D4D4"/>
<circle cx="142.424" cy="104.875" r="1.375" fill="#D4D4D4"/>
<circle cx="107.924" cy="99.125" r="1.375" fill="#D4D4D4"/>
<circle cx="113.424" cy="99.125" r="1.375" fill="#D4D4D4"/>
<circle cx="119.424" cy="99.125" r="1.375" fill="#D4D4D4"/>
<circle cx="125.174" cy="99.125" r="1.375" fill="#D4D4D4"/>
<circle cx="130.924" cy="99.125" r="1.375" fill="#D4D4D4"/>
<circle cx="136.674" cy="99.125" r="1.375" fill="#D4D4D4"/>
<circle cx="142.424" cy="99.125" r="1.375" fill="#D4D4D4"/>
<path d="M119.049 35V56" stroke="black"/>
<path d="M122.049 35V56" stroke="black"/>
<path d="M125.049 35V56" stroke="black"/>
<path d="M128.049 35V56" stroke="black"/>
<path d="M131.049 35V56" stroke="black"/>
</svg>
