<svg width="342" height="180" viewBox="0 0 342 180" fill="none" xmlns="http://www.w3.org/2000/svg">
<rect width="341" height="180" transform="translate(0.0488281)" fill="#F5F5F5"/>
<path d="M68.6719 43.5352C55.1719 44.5352 29.3719 55.2351 28.1719 84.0351C28.1719 120.035 55.6719 129.535 69.1719 129.535C88.6719 129.535 169.672 129.535 215.672 129.535" stroke="black"/>
<path d="M68.4688 43.5352H96.1977" stroke="black"/>
<path d="M71.7845 129.535L71.7845 78.7214M71.7845 78.7214L71.1862 80.1136M71.7845 78.7214L72.3828 80.1136" stroke="black"/>
<path d="M81.7656 129.535L81.7656 90.5352M81.7656 90.5352L81.2656 91.6037M81.7656 90.5352L82.2656 91.6037" stroke="black"/>
<path d="M61.8859 129.535L61.8859 97.5155M61.8859 97.5155L61.2659 98.3928M61.8859 97.5155L62.5059 98.3928" stroke="black"/>
<path d="M91.6456 129.535V106.565M91.6456 106.565L91.0256 107.194M91.6456 106.565L92.2656 107.194" stroke="black"/>
<path d="M161.986 83.5078L107.926 144.508H262.612L312.926 83.5078H161.986Z" fill="#A57CFE"/>
<mask id="mask0" mask-type="alpha" maskUnits="userSpaceOnUse" x="107" y="83" width="206" height="62">
<path d="M161.986 83.5078L107.926 144.508H262.612L312.926 83.5078H161.986Z" fill="#A57CFE"/>
</mask>
<g mask="url(#mask0)">
<path d="M439.342 85.688C340.653 46.5259 270.161 46.5259 227.866 85.688C185.571 124.85 115.079 124.85 16.391 85.688" stroke="#4AE991" stroke-width="2"/>
<path d="M426.979 160.685C351.323 101.777 284.485 86.2226 226.463 114.023C168.441 141.823 101.602 126.269 25.9466 67.3599" stroke="#4AE991" stroke-width="2"/>
<path d="M435.169 134.792C332.355 101.136 262.081 104.983 224.347 146.331C186.614 187.68 116.34 191.527 13.5257 157.87" stroke="#4AE991" stroke-width="2"/>
</g>
<circle r="3.10184" transform="matrix(-1 0 0 1 294.271 66.3128)" fill="#31D67B"/>
<circle r="3.10184" transform="matrix(-1 0 0 1 281.864 66.3128)" fill="#31D67B"/>
<circle r="3.10184" transform="matrix(-1 0 0 1 269.457 66.3128)" fill="#31D67B"/>
<circle r="3.10184" transform="matrix(-1 0 0 1 257.05 66.3128)" fill="#31D67B"/>
<circle r="3.10184" transform="matrix(-1 0 0 1 294.271 78.719)" fill="#31D67B"/>
<circle r="3.10184" transform="matrix(-1 0 0 1 281.864 78.719)" fill="#31D67B"/>
<circle r="3.10184" transform="matrix(-1 0 0 1 269.457 78.719)" fill="#31D67B"/>
<circle r="3.10184" transform="matrix(-1 0 0 1 257.05 78.719)" fill="#31D67B"/>
<circle r="3.10184" transform="matrix(-1 0 0 1 257.05 91.1292)" fill="#31D67B"/>
<circle r="3.10184" transform="matrix(-1 0 0 1 269.457 91.1292)" fill="#31D67B"/>
<circle r="3.10184" transform="matrix(-1 0 0 1 281.864 91.1292)" fill="#31D67B"/>
<circle r="3.10184" transform="matrix(-1 0 0 1 294.271 91.1292)" fill="#31D67B"/>
<circle cx="112.461" cy="43.5349" r="25.3201" fill="#31D67B"/>
<path d="M103.198 44.3633L104.876 37.3235L107.064 45.291L105.258 51.9306H100.171L95.1387 35.1406H100.718L103.198 44.3633ZM115.086 51.9306H109.744L105.131 35.1406H110.783L115.086 51.9306ZM115.141 35.1406H120.247L115.688 51.0574L113.409 42.1076L115.141 35.1406Z" fill="#F5F5F5"/>
<path d="M119.281 41.3437H123.62L124.696 35.1407H129.783L126.829 51.8579H116.381L117.804 47.5831H122.526L122.909 45.3457H118.57L119.281 41.3437Z" fill="#F5F5F5"/>
</svg>
