<svg width="251" height="97" viewBox="0 0 251 97" fill="none" xmlns="http://www.w3.org/2000/svg">
<rect x="0.842757" y="0.515608" width="62.3907" height="86.3907" fill="white"/>
<rect x="7.54588" y="12.0937" width="48.138" height="4.87473" stroke="url(#paint0_linear)" stroke-width="0.609342"/>
<rect x="7.54588" y="23.6719" width="48.138" height="4.87473" stroke="url(#paint1_linear)" stroke-width="0.609342"/>
<rect x="7.54588" y="35.2461" width="48.138" height="4.87473" stroke="url(#paint2_linear)" stroke-width="0.609342"/>
<rect x="7.54588" y="46.8242" width="48.138" height="4.87473" stroke="url(#paint3_linear)" stroke-width="0.609342"/>
<rect x="7.54588" y="58.4023" width="48.138" height="4.87473" stroke="url(#paint4_linear)" stroke-width="0.609342"/>
<rect x="7.54588" y="69.9805" width="48.138" height="4.87473" stroke="url(#paint5_linear)" stroke-width="0.609342"/>
<rect x="0.842757" y="0.515608" width="62.3907" height="86.3907" stroke="url(#paint6_linear)" stroke-width="0.609342"/>
<path d="M61.1364 73.4507C61.9371 72.4388 63.4724 72.4388 64.2731 73.4507L65.923 75.5357C66.304 76.0171 66.8849 76.2969 67.4989 76.2946L70.1577 76.2846C71.448 76.2797 72.4053 77.48 72.1134 78.7369L71.5119 81.3268C71.3731 81.9248 71.5166 82.5535 71.9012 83.0321L73.5667 85.1045C74.3751 86.1104 74.0335 87.6071 72.8687 88.1626L70.4689 89.3072C69.9148 89.5714 69.5127 90.0756 69.3784 90.6747L68.7965 93.269C68.5141 94.5281 67.1309 95.1943 65.9704 94.63L63.5793 93.4673C63.0272 93.1989 62.3823 93.1989 61.8302 93.4673L59.4391 94.63C58.2786 95.1943 56.8954 94.5281 56.613 93.269L56.0312 90.6747C55.8968 90.0756 55.4947 89.5714 54.9406 89.3072L52.5408 88.1626C51.376 87.6071 51.0344 86.1104 51.8428 85.1045L53.5083 83.0321C53.8929 82.5535 54.0364 81.9248 53.8976 81.3268L53.2961 78.7369C53.0043 77.48 53.9615 76.2797 55.2519 76.2846L57.9106 76.2946C58.5246 76.2969 59.1056 76.0171 59.4865 75.5357L61.1364 73.4507Z" fill="url(#paint7_linear)"/>
<rect x="88.3379" y="0.515608" width="62.3907" height="86.3907" fill="white"/>
<rect x="95.041" y="12.0937" width="48.138" height="4.87473" stroke="url(#paint8_linear)" stroke-width="0.609342"/>
<rect x="95.041" y="23.6719" width="48.138" height="4.87473" stroke="url(#paint9_linear)" stroke-width="0.609342"/>
<rect x="95.041" y="35.2461" width="48.138" height="4.87473" stroke="url(#paint10_linear)" stroke-width="0.609342"/>
<rect x="95.041" y="46.8242" width="48.138" height="4.87473" stroke="url(#paint11_linear)" stroke-width="0.609342"/>
<rect x="95.041" y="58.4023" width="48.138" height="4.87473" stroke="url(#paint12_linear)" stroke-width="0.609342"/>
<rect x="95.041" y="69.9805" width="48.138" height="4.87473" stroke="url(#paint13_linear)" stroke-width="0.609342"/>
<rect x="88.3379" y="0.515608" width="62.3907" height="86.3907" stroke="url(#paint14_linear)" stroke-width="0.609342"/>
<path d="M148.632 73.4507C149.433 72.4388 150.968 72.4388 151.769 73.4507L153.419 75.5357C153.8 76.0171 154.381 76.2969 154.995 76.2946L157.654 76.2846C158.944 76.2797 159.901 77.48 159.609 78.7369L159.008 81.3268C158.869 81.9248 159.013 82.5535 159.397 83.0321L161.063 85.1045C161.871 86.1104 161.53 87.6071 160.365 88.1626L157.965 89.3072C157.411 89.5714 157.009 90.0756 156.874 90.6747L156.293 93.269C156.01 94.5281 154.627 95.1943 153.467 94.63L151.075 93.4673C150.523 93.1989 149.878 93.1989 149.326 93.4673L146.935 94.63C145.775 95.1943 144.391 94.5281 144.109 93.269L143.527 90.6747C143.393 90.0756 142.991 89.5714 142.437 89.3072L140.037 88.1626C138.872 87.6071 138.531 86.1104 139.339 85.1045L141.004 83.0321C141.389 82.5535 141.533 81.9248 141.394 81.3268L140.792 78.7369C140.5 77.48 141.458 76.2797 142.748 76.2846L145.407 76.2946C146.021 76.2969 146.602 76.0171 146.983 75.5357L148.632 73.4507Z" fill="url(#paint15_linear)"/>
<rect x="175.834" y="0.515608" width="62.3907" height="86.3907" fill="white"/>
<rect x="182.537" y="12.0937" width="48.138" height="4.87473" stroke="url(#paint16_linear)" stroke-width="0.609342"/>
<rect x="182.537" y="23.6719" width="48.138" height="4.87473" stroke="url(#paint17_linear)" stroke-width="0.609342"/>
<rect x="182.537" y="35.2461" width="48.138" height="4.87473" stroke="url(#paint18_linear)" stroke-width="0.609342"/>
<rect x="182.537" y="46.8242" width="48.138" height="4.87473" stroke="url(#paint19_linear)" stroke-width="0.609342"/>
<rect x="182.537" y="58.4023" width="48.138" height="4.87473" stroke="url(#paint20_linear)" stroke-width="0.609342"/>
<rect x="182.537" y="69.9805" width="48.138" height="4.87473" stroke="url(#paint21_linear)" stroke-width="0.609342"/>
<rect x="175.834" y="0.515608" width="62.3907" height="86.3907" stroke="url(#paint22_linear)" stroke-width="0.609342"/>
<path d="M236.129 73.4507C236.929 72.4388 238.465 72.4388 239.265 73.4507L240.915 75.5357C241.296 76.0171 241.877 76.2969 242.491 76.2946L245.15 76.2846C246.44 76.2797 247.397 77.48 247.106 78.7369L246.504 81.3268C246.365 81.9248 246.509 82.5535 246.893 83.0321L248.559 85.1045C249.367 86.1104 249.026 87.6071 247.861 88.1626L245.461 89.3072C244.907 89.5714 244.505 90.0756 244.371 90.6747L243.789 93.269C243.506 94.5281 242.123 95.1943 240.963 94.63L238.572 93.4673C238.019 93.1989 237.375 93.1989 236.822 93.4673L234.431 94.63C233.271 95.1943 231.888 94.5281 231.605 93.269L231.023 90.6747C230.889 90.0756 230.487 89.5714 229.933 89.3072L227.533 88.1626C226.368 87.6071 226.027 86.1104 226.835 85.1045L228.501 83.0321C228.885 82.5535 229.029 81.9248 228.89 81.3268L228.288 78.7369C227.996 77.48 228.954 76.2797 230.244 76.2846L232.903 76.2946C233.517 76.2969 234.098 76.0171 234.479 75.5357L236.129 73.4507Z" fill="url(#paint23_linear)"/>
<defs>
<linearGradient id="paint0_linear" x1="-0.688361" y1="17.8208" x2="0.439772" y2="4.85818" gradientUnits="userSpaceOnUse">
<stop stop-color="#AB85FF"/>
<stop offset="0.526042" stop-color="#EBA3E3"/>
<stop offset="1" stop-color="#FFDBE4"/>
</linearGradient>
<linearGradient id="paint1_linear" x1="-0.688361" y1="29.399" x2="0.439772" y2="16.4363" gradientUnits="userSpaceOnUse">
<stop stop-color="#AB85FF"/>
<stop offset="0.526042" stop-color="#EBA3E3"/>
<stop offset="1" stop-color="#FFDBE4"/>
</linearGradient>
<linearGradient id="paint2_linear" x1="-0.688361" y1="40.9732" x2="0.439772" y2="28.0105" gradientUnits="userSpaceOnUse">
<stop stop-color="#AB85FF"/>
<stop offset="0.526042" stop-color="#EBA3E3"/>
<stop offset="1" stop-color="#FFDBE4"/>
</linearGradient>
<linearGradient id="paint3_linear" x1="-0.688361" y1="52.5513" x2="0.439772" y2="39.5886" gradientUnits="userSpaceOnUse">
<stop stop-color="#AB85FF"/>
<stop offset="0.526042" stop-color="#EBA3E3"/>
<stop offset="1" stop-color="#FFDBE4"/>
</linearGradient>
<linearGradient id="paint4_linear" x1="-0.688361" y1="64.1294" x2="0.439772" y2="51.1668" gradientUnits="userSpaceOnUse">
<stop stop-color="#AB85FF"/>
<stop offset="0.526042" stop-color="#EBA3E3"/>
<stop offset="1" stop-color="#FFDBE4"/>
</linearGradient>
<linearGradient id="paint5_linear" x1="-0.688361" y1="75.7075" x2="0.439772" y2="62.7449" gradientUnits="userSpaceOnUse">
<stop stop-color="#AB85FF"/>
<stop offset="0.526042" stop-color="#EBA3E3"/>
<stop offset="1" stop-color="#FFDBE4"/>
</linearGradient>
<linearGradient id="paint6_linear" x1="-9.70992" y1="95.8996" x2="93.6637" y2="-0.865125" gradientUnits="userSpaceOnUse">
<stop stop-color="#AB85FF"/>
<stop offset="0.526042" stop-color="#EBA3E3"/>
<stop offset="1" stop-color="#FFDBE4"/>
</linearGradient>
<linearGradient id="paint7_linear" x1="45.7865" y1="99.5491" x2="75.2133" y2="61.51" gradientUnits="userSpaceOnUse">
<stop stop-color="#AB85FF"/>
<stop offset="0.526042" stop-color="#EBA3E3"/>
<stop offset="1" stop-color="#FFDBE4"/>
</linearGradient>
<linearGradient id="paint8_linear" x1="86.8068" y1="17.8208" x2="87.9349" y2="4.85818" gradientUnits="userSpaceOnUse">
<stop stop-color="#AB85FF"/>
<stop offset="0.526042" stop-color="#EBA3E3"/>
<stop offset="1" stop-color="#FFDBE4"/>
</linearGradient>
<linearGradient id="paint9_linear" x1="86.8068" y1="29.399" x2="87.9349" y2="16.4363" gradientUnits="userSpaceOnUse">
<stop stop-color="#AB85FF"/>
<stop offset="0.526042" stop-color="#EBA3E3"/>
<stop offset="1" stop-color="#FFDBE4"/>
</linearGradient>
<linearGradient id="paint10_linear" x1="86.8068" y1="40.9732" x2="87.9349" y2="28.0105" gradientUnits="userSpaceOnUse">
<stop stop-color="#AB85FF"/>
<stop offset="0.526042" stop-color="#EBA3E3"/>
<stop offset="1" stop-color="#FFDBE4"/>
</linearGradient>
<linearGradient id="paint11_linear" x1="86.8068" y1="52.5513" x2="87.9349" y2="39.5886" gradientUnits="userSpaceOnUse">
<stop stop-color="#AB85FF"/>
<stop offset="0.526042" stop-color="#EBA3E3"/>
<stop offset="1" stop-color="#FFDBE4"/>
</linearGradient>
<linearGradient id="paint12_linear" x1="86.8068" y1="64.1294" x2="87.9349" y2="51.1668" gradientUnits="userSpaceOnUse">
<stop stop-color="#AB85FF"/>
<stop offset="0.526042" stop-color="#EBA3E3"/>
<stop offset="1" stop-color="#FFDBE4"/>
</linearGradient>
<linearGradient id="paint13_linear" x1="86.8068" y1="75.7075" x2="87.9349" y2="62.7449" gradientUnits="userSpaceOnUse">
<stop stop-color="#AB85FF"/>
<stop offset="0.526042" stop-color="#EBA3E3"/>
<stop offset="1" stop-color="#FFDBE4"/>
</linearGradient>
<linearGradient id="paint14_linear" x1="77.7852" y1="95.8996" x2="181.159" y2="-0.865125" gradientUnits="userSpaceOnUse">
<stop stop-color="#AB85FF"/>
<stop offset="0.526042" stop-color="#EBA3E3"/>
<stop offset="1" stop-color="#FFDBE4"/>
</linearGradient>
<linearGradient id="paint15_linear" x1="133.283" y1="99.5491" x2="162.709" y2="61.51" gradientUnits="userSpaceOnUse">
<stop stop-color="#AB85FF"/>
<stop offset="0.526042" stop-color="#EBA3E3"/>
<stop offset="1" stop-color="#FFDBE4"/>
</linearGradient>
<linearGradient id="paint16_linear" x1="174.303" y1="17.8208" x2="175.431" y2="4.85818" gradientUnits="userSpaceOnUse">
<stop stop-color="#AB85FF"/>
<stop offset="0.526042" stop-color="#EBA3E3"/>
<stop offset="1" stop-color="#FFDBE4"/>
</linearGradient>
<linearGradient id="paint17_linear" x1="174.303" y1="29.399" x2="175.431" y2="16.4363" gradientUnits="userSpaceOnUse">
<stop stop-color="#AB85FF"/>
<stop offset="0.526042" stop-color="#EBA3E3"/>
<stop offset="1" stop-color="#FFDBE4"/>
</linearGradient>
<linearGradient id="paint18_linear" x1="174.303" y1="40.9732" x2="175.431" y2="28.0105" gradientUnits="userSpaceOnUse">
<stop stop-color="#AB85FF"/>
<stop offset="0.526042" stop-color="#EBA3E3"/>
<stop offset="1" stop-color="#FFDBE4"/>
</linearGradient>
<linearGradient id="paint19_linear" x1="174.303" y1="52.5513" x2="175.431" y2="39.5886" gradientUnits="userSpaceOnUse">
<stop stop-color="#AB85FF"/>
<stop offset="0.526042" stop-color="#EBA3E3"/>
<stop offset="1" stop-color="#FFDBE4"/>
</linearGradient>
<linearGradient id="paint20_linear" x1="174.303" y1="64.1294" x2="175.431" y2="51.1668" gradientUnits="userSpaceOnUse">
<stop stop-color="#AB85FF"/>
<stop offset="0.526042" stop-color="#EBA3E3"/>
<stop offset="1" stop-color="#FFDBE4"/>
</linearGradient>
<linearGradient id="paint21_linear" x1="174.303" y1="75.7075" x2="175.431" y2="62.7449" gradientUnits="userSpaceOnUse">
<stop stop-color="#AB85FF"/>
<stop offset="0.526042" stop-color="#EBA3E3"/>
<stop offset="1" stop-color="#FFDBE4"/>
</linearGradient>
<linearGradient id="paint22_linear" x1="165.281" y1="95.8996" x2="268.655" y2="-0.865125" gradientUnits="userSpaceOnUse">
<stop stop-color="#AB85FF"/>
<stop offset="0.526042" stop-color="#EBA3E3"/>
<stop offset="1" stop-color="#FFDBE4"/>
</linearGradient>
<linearGradient id="paint23_linear" x1="220.779" y1="99.5491" x2="250.205" y2="61.51" gradientUnits="userSpaceOnUse">
<stop stop-color="#AB85FF"/>
<stop offset="0.526042" stop-color="#EBA3E3"/>
<stop offset="1" stop-color="#FFDBE4"/>
</linearGradient>
</defs>
</svg>
