<svg width="209" height="83" viewBox="0 0 209 83" fill="none" xmlns="http://www.w3.org/2000/svg">
<path d="M63.6516 13.7422H0.584539V68.349H63.6516M63.6516 13.7422V68.349M63.6516 13.7422L75.2139 17.1766V64.2277L63.6516 68.349" stroke="url(#paint0_linear)"/>
<path d="M125.726 1H207.636V73.354H125.726M125.726 1V73.354M125.726 1L110.709 5.55057V67.8934L125.726 73.354" stroke="url(#paint1_linear)"/>
<path d="M98.3134 37.4062H149.844V82.0018H98.3134L88.8662 78.6361V40.211L98.3134 37.4062Z" fill="white"/>
<path d="M98.3134 37.4062H149.844V82.0018H98.3134M98.3134 37.4062V82.0018M98.3134 37.4062L88.8662 40.211V78.6361L98.3134 82.0018" stroke="url(#paint2_linear)"/>
<path d="M22.1055 30.4336L43.3308 51.659" stroke="url(#paint3_linear)" stroke-width="2" stroke-linecap="round"/>
<path d="M43.3311 30.4336L22.1057 51.659" stroke="url(#paint4_linear)" stroke-width="2" stroke-linecap="round"/>
<path d="M154.292 20.457L185.491 51.6557" stroke="url(#paint5_linear)" stroke-width="2" stroke-linecap="round"/>
<path d="M185.489 20.457L154.291 51.6557" stroke="url(#paint6_linear)" stroke-width="2" stroke-linecap="round"/>
<path d="M114.255 51.6562L130.898 68.2995" stroke="url(#paint7_linear)" stroke-width="2" stroke-linecap="round"/>
<path d="M130.898 51.6562L114.255 68.2995" stroke="url(#paint8_linear)" stroke-width="2" stroke-linecap="round"/>
<defs>
<linearGradient id="paint0_linear" x1="87.3536" y1="73.8026" x2="31.6019" y2="-24.6907" gradientUnits="userSpaceOnUse">
<stop stop-color="#AB85FF"/>
<stop offset="0.526042" stop-color="#EBA3E3"/>
<stop offset="1" stop-color="#FFDBE4"/>
</linearGradient>
<linearGradient id="paint1_linear" x1="94.9422" y1="80.58" x2="169.566" y2="-48.6447" gradientUnits="userSpaceOnUse">
<stop stop-color="#AB85FF"/>
<stop offset="0.526042" stop-color="#EBA3E3"/>
<stop offset="1" stop-color="#FFDBE4"/>
</linearGradient>
<linearGradient id="paint2_linear" x1="78.9472" y1="86.4556" x2="124.466" y2="6" gradientUnits="userSpaceOnUse">
<stop stop-color="#AB85FF"/>
<stop offset="0.526042" stop-color="#EBA3E3"/>
<stop offset="1" stop-color="#FFDBE4"/>
</linearGradient>
<linearGradient id="paint3_linear" x1="18.6528" y1="53.7787" x2="43.1174" y2="22.1543" gradientUnits="userSpaceOnUse">
<stop stop-color="#AB85FF"/>
<stop offset="0.526042" stop-color="#EBA3E3"/>
<stop offset="1" stop-color="#FFDBE4"/>
</linearGradient>
<linearGradient id="paint4_linear" x1="46.7837" y1="53.7787" x2="22.3191" y2="22.1543" gradientUnits="userSpaceOnUse">
<stop stop-color="#AB85FF"/>
<stop offset="0.526042" stop-color="#EBA3E3"/>
<stop offset="1" stop-color="#FFDBE4"/>
</linearGradient>
<linearGradient id="paint5_linear" x1="149.217" y1="54.7714" x2="185.177" y2="8.28749" gradientUnits="userSpaceOnUse">
<stop stop-color="#AB85FF"/>
<stop offset="0.526042" stop-color="#EBA3E3"/>
<stop offset="1" stop-color="#FFDBE4"/>
</linearGradient>
<linearGradient id="paint6_linear" x1="190.564" y1="54.7714" x2="154.604" y2="8.28749" gradientUnits="userSpaceOnUse">
<stop stop-color="#AB85FF"/>
<stop offset="0.526042" stop-color="#EBA3E3"/>
<stop offset="1" stop-color="#FFDBE4"/>
</linearGradient>
<linearGradient id="paint7_linear" x1="111.548" y1="69.9616" x2="130.731" y2="45.1643" gradientUnits="userSpaceOnUse">
<stop stop-color="#AB85FF"/>
<stop offset="0.526042" stop-color="#EBA3E3"/>
<stop offset="1" stop-color="#FFDBE4"/>
</linearGradient>
<linearGradient id="paint8_linear" x1="133.606" y1="69.9616" x2="114.423" y2="45.1643" gradientUnits="userSpaceOnUse">
<stop stop-color="#AB85FF"/>
<stop offset="0.526042" stop-color="#EBA3E3"/>
<stop offset="1" stop-color="#FFDBE4"/>
</linearGradient>
</defs>
</svg>
