<svg width="342" height="180" fill="none" xmlns="http://www.w3.org/2000/svg">
  <circle cx="253.9" cy="44.4" r="1.4" fill="#D4D4D4"/>
  <circle cx="259.6" cy="44.4" r="1.4" fill="#D4D4D4"/>
  <circle cx="265.4" cy="44.4" r="1.4" fill="#D4D4D4"/>
  <circle cx="271.1" cy="44.4" r="1.4" fill="#D4D4D4"/>
  <circle cx="276.9" cy="44.4" r="1.4" fill="#D4D4D4"/>
  <circle cx="282.6" cy="44.4" r="1.4" fill="#D4D4D4"/>
  <circle cx="288.4" cy="44.4" r="1.4" fill="#D4D4D4"/>
  <circle cx="294.1" cy="44.4" r="1.4" fill="#D4D4D4"/>
  <circle cx="299.9" cy="44.4" r="1.4" fill="#D4D4D4"/>
  <circle cx="253.9" cy="50.1" r="1.4" fill="#D4D4D4"/>
  <circle cx="259.6" cy="50.1" r="1.4" fill="#D4D4D4"/>
  <circle cx="253.9" cy="55.9" r="1.4" fill="#D4D4D4"/>
  <circle cx="259.6" cy="55.9" r="1.4" fill="#D4D4D4"/>
  <circle cx="265.4" cy="55.9" r="1.4" fill="#D4D4D4"/>
  <circle cx="271.1" cy="55.9" r="1.4" fill="#D4D4D4"/>
  <circle cx="276.9" cy="55.9" r="1.4" fill="#D4D4D4"/>
  <circle cx="282.6" cy="55.9" r="1.4" fill="#D4D4D4"/>
  <circle cx="288.4" cy="55.9" r="1.4" fill="#D4D4D4"/>
  <circle cx="294.1" cy="55.9" r="1.4" fill="#D4D4D4"/>
  <circle cx="299.9" cy="55.9" r="1.4" fill="#D4D4D4"/>
  <circle cx="265.4" cy="50.1" r="1.4" fill="#D4D4D4"/>
  <circle cx="271.1" cy="50.1" r="1.4" fill="#D4D4D4"/>
  <circle cx="276.9" cy="50.1" r="1.4" fill="#D4D4D4"/>
  <circle cx="282.6" cy="50.1" r="1.4" fill="#D4D4D4"/>
  <circle cx="288.4" cy="50.1" r="1.4" fill="#D4D4D4"/>
  <circle cx="294.1" cy="50.1" r="1.4" fill="#D4D4D4"/>
  <circle cx="299.9" cy="50.1" r="1.4" fill="#D4D4D4"/>
  <circle cx="43.9" cy="136.4" r="1.4" fill="#D4D4D4"/>
  <circle cx="49.6" cy="136.4" r="1.4" fill="#D4D4D4"/>
  <circle cx="55.4" cy="136.4" r="1.4" fill="#D4D4D4"/>
  <circle cx="61.1" cy="136.4" r="1.4" fill="#D4D4D4"/>
  <circle cx="66.9" cy="136.4" r="1.4" fill="#D4D4D4"/>
  <circle cx="72.6" cy="136.4" r="1.4" fill="#D4D4D4"/>
  <circle cx="78.4" cy="136.4" r="1.4" fill="#D4D4D4"/>
  <circle cx="84.1" cy="136.4" r="1.4" fill="#D4D4D4"/>
  <circle cx="89.9" cy="136.4" r="1.4" fill="#D4D4D4"/>
  <circle cx="43.9" cy="142.1" r="1.4" fill="#D4D4D4"/>
  <circle cx="49.6" cy="142.1" r="1.4" fill="#D4D4D4"/>
  <circle cx="43.9" cy="147.9" r="1.4" fill="#D4D4D4"/>
  <circle cx="49.6" cy="147.9" r="1.4" fill="#D4D4D4"/>
  <circle cx="55.4" cy="147.9" r="1.4" fill="#D4D4D4"/>
  <circle cx="61.1" cy="147.9" r="1.4" fill="#D4D4D4"/>
  <circle cx="66.9" cy="147.9" r="1.4" fill="#D4D4D4"/>
  <circle cx="72.6" cy="147.9" r="1.4" fill="#D4D4D4"/>
  <circle cx="78.4" cy="147.9" r="1.4" fill="#D4D4D4"/>
  <circle cx="84.1" cy="147.9" r="1.4" fill="#D4D4D4"/>
  <circle cx="89.9" cy="147.9" r="1.4" fill="#D4D4D4"/>
  <circle cx="55.4" cy="142.1" r="1.4" fill="#D4D4D4"/>
  <circle cx="61.1" cy="142.1" r="1.4" fill="#D4D4D4"/>
  <circle cx="66.9" cy="142.1" r="1.4" fill="#D4D4D4"/>
  <circle cx="72.6" cy="142.1" r="1.4" fill="#D4D4D4"/>
  <circle cx="78.4" cy="142.1" r="1.4" fill="#D4D4D4"/>
  <circle cx="84.1" cy="142.1" r="1.4" fill="#D4D4D4"/>
  <circle cx="89.9" cy="142.1" r="1.4" fill="#D4D4D4"/>
  <g clip-path="url(#clip0)">
    <rect x="137.5" y="21" width="139" height="139" rx="69.5" fill="#AB85FF"/>
    <path d="M124.5 90l.2 1.1.3 1.1.2 1.1.3 1.1.2 1.1.3 1.1.2 1.1.3 1.1.2 1 .3 1.1.2 1 .3 1.1.2 1 .3 1 .2 1 .3 1 .2 1 .3 1 .2 1 .3.9.2.9.3.9.2.9.3.8.2.8.3.8.2.8.3.8.2.7.3.7.2.7.2.6.3.6.2.6.3.6.2.5.3.5.2.5.3.5.2.4.3.4.2.3.3.4.2.2.3.3.2.2.3.2.2.2.3.1.2.1h.3l.2.1h.5l.3-.1.2-.1.3-.2.2-.1.3-.2.2-.3.3-.2.2-.3.3-.4.2-.3.2-.4.3-.5.2-.4.3-.5.2-.5.3-.6.2-.5.3-.6.2-.7.3-.6.2-.7.3-.7.2-.8.3-.7.2-.8.3-.8.2-.8.3-.9.2-.9.3-.9.2-.9.3-.9.2-1 .3-1 .2-.9.3-1 .2-1 .3-1 .2-1 .3-1.1.2-1 .2-1.1.3-1.1.2-1 .3-1.2.2-1 .3-1.2.2-1 .3-1.2.2-1.1.3-1.1.2-1.1.3-1.1.2-1.1.3-1.1.2-1.1.3-1.1.2-1.1.3-1.1.2-1 .3-1.1.2-1 .3-1.1.2-1 .3-1 .2-1 .3-1 .2-1 .3-1 .2-1 .3-.8.2-1 .2-.8.3-.9.2-.8.3-.8.2-.8.3-.8.2-.8.3-.7.2-.7.3-.6.2-.7.3-.6.2-.6.3-.5.2-.6.3-.5.2-.4.3-.5.2-.4.3-.4.2-.3.3-.3.2-.3.3-.3.2-.2.3-.2.2-.1.3-.1.2-.1h.3l.2-.1h.5l.2.1.3.2.2.1.3.2.2.2.3.2.2.3.3.3.2.4.3.3.2.4.3.5.2.4.3.5.2.6.3.5.2.6.3.6.2.7.3.6.2.7.3.7.2.8.3.7.2.8.3.8.2.9.3.8.2 1 .2.8.3 1 .2.9.3 1 .2.9.3 1 .2 1 .3 1 .2 1 .3 1 .2 1.1.3 1 .2 1.1.3 1.1.2 1.1.3 1 .2 1.2.3 1 .2 1.2.3 1.1.2 1.1.3 1.1.2 1.1.3 1.1.2 1.1.3 1.1.2 1.1.3 1.1.2 1.1.3 1.1.2 1 .3 1.1.2 1 .2 1.1.3 1 .2 1 .3 1 .2 1 .3 1 .2 1 .3.9.2.9.3.9.2.9.3.8.2.9.3.8.2.8.3.7.2.8.3.7.2.7.3.6.2.7.3.6.2.5.3.6.2.5.3.5.2.5.3.4.2.4.3.4.2.3.2.3.3.3.2.2.3.2.2.2.3.2h.2l.3.1h.2l.3.1h.5l.2-.2h.3l.2-.2.3-.2.2-.3.3-.2.2-.3.3-.3.2-.4.3-.4.2-.4.3-.4.2-.5.3-.5.2-.5.3-.6.2-.6.3-.6.2-.6.2-.7.3-.7.2-.7.3-.8.2-.8.3-.8.2-.8.3-.8.2-.9.3-.9.2-.9.3-.9.2-1 .3-.9.2-1 .3-1 .2-1 .3-1 .2-1 .3-1 .2-1.1.3-1 .2-1.1.3-1.1.2-1.1.3-1.1.2-1 .3-1.2.2-1.1.3-1.1.2-1.1.2-1.1.3-1.1.2-1.1.3-1.2.2-1 .3-1.1.2-1.1.3-1.1.2-1.1.3-1 .2-1.1.3-1 .2-1.1.3-1 .2-1 .3-1 .2-1 .3-1 .2-1 .3-.8.2-1 .3-.8.2-1 .3-.8.2-.8.3-.8.2-.8.3-.7.2-.8.3-.7.2-.7.2-.6.3-.6.2-.6.3-.6.2-.5.3-.6.2-.4.3-.5.2-.4.3-.4.2-.4.3-.3.2-.3.3-.3.2-.2.3-.2.2-.2h.3l.2-.2h.3l.2-.1h.5l.3.1.2.1.3.1.2.2.3.2.2.2.3.3.2.3.3.3.2.4.2.4.3.4.2.4.3.5.2.5.3.6.2.5.3.6.2.7.3.6.2.7.3.7.2.7.3.8.2.8.3.8.2.8.3.9.2.8.3 1 .2.8.3 1 .2.9.3 1 .2 1 .3 1 .2 1 .3 1 .2 1 .3 1 .2 1 .2 1.2.3 1 .2 1.1.3 1.1.2 1.1.3 1.1.2 1.1.3 1.1.2 1.1.3 1.1.2 1.1.3 1.2.2 1 .3 1.2.2 1 .3 1.2.2 1 .3 1.1.2 1.1.3 1 .2 1.1.3 1 .2 1 .3 1.1.2 1 .3 1 .2 1 .3 1 .2.9.3.9.2 1 .2.8.3.9.2.8.3.8.2.8.3.8.2.7.3.8.2.7.3.6.2.7.3.6.2.6.3.6.2.5.3.5.2.5.3.4.2.4.3.4.2.4.3.3.2.3.3.2.2.3.3.1.2.2.3.1.2.1h.3l.2.1h.5l.2-.1.3-.1.2-.2.3-.2.2-.2.3-.2.2-.3.3-.3.2-.3.3-.4.2-.4.3-.4.2-.5.3-.5.2-.5.3-.5.2-.6.3-.6.2-.6.3-.7.2-.7.3-.7.2-.7.3-.8.2-.8.3-.8.2-.8.3-.9.2-.9.2-.9.3-.9.2-1 .3-.9.2-1 .3-1 .2-1 .3-1 .2-1 .3-1 .2-1 .3-1 .2-1.2.3-1 .2-1.1.3-1.1.2-1.1.3-1.1.2-1.1.3-1.1.2-1.1.3-1.1.2-1.2.3-1 .2-1.2.3-1 .2-1.2.3-1 .2-1.1.3-1.1.2-1.1.3-1 .2-1.1.2-1 .3-1 .2-1 .3-1 .2-1 .3-1 .2-1 .3-1 .2-.9.3-.9.2-.8.3-.9.2-.8.3-.8.2-.8.3-.8.2-.7.3-.8.2-.7.3-.6.2-.7.3-.6.2-.6.3-.5.2-.5.3-.5.2-.5.3-.4.2-.4.3-.4.2-.4.2-.3.3-.3.2-.2.3-.2.2-.2.3-.1.2-.2h.5l.3-.1h.5l.2.2h.3l.2.2.3.2.2.2.3.3.2.3.3.3.2.3.3.4.2.4.3.4.2.5.3.5.2.5.3.6.2.6.3.6.2.6.2.7.3.7.2.7.3.8.2.7.3.8.2.8.3.9.2.8.3 1 .2.8.3 1 .2.9.3 1 .2.9.3 1 .2 1 .3 1 .2 1 .3 1 .2 1.1.3 1 .2 1.2.3 1 .2 1.1.3 1.1.2 1.1.3 1.1.2 1.1.3 1.1.2 1.1-156 .4z" stroke="#000"/>
  </g>
  <path fill="#31D67B" d="M86.5 111h9v49h-9zM103.5 73h9v87h-9zM120.5 43h9v117h-9z"/>
  <defs>
    <clipPath id="clip0">
      <rect x="137.5" y="21" width="139" height="139" rx="69.5" fill="#fff"/>
    </clipPath>
  </defs>
</svg>