<svg width="260" height="116" fill="none" xmlns="http://www.w3.org/2000/svg"><path d="M24.5 18h90v79.5h-90m0-79.5v79.5m0-79.5L8 23v68.5l16.5 6" stroke="url(#paint0_linear)"/><path d="M162.5 18h90v79.5h-90m0-79.5v79.5m0-79.5L146 23v68.5l16.5 6" stroke="url(#paint1_linear)"/><path d="M157.35 55.35a.5.5 0 000-.7l-3.18-3.19a.5.5 0 00-.7.71l2.82 2.83-2.83 2.83a.5.5 0 00.71.7l3.18-3.18zM57 55.5h100v-1H57v1z" fill="url(#paint2_linear)"/><path d="M208 39l4.27 13.13h13.8l-11.17 8.11 4.27 13.13L208 65.26l-11.17 8.11 4.27-13.13-11.17-8.11h13.8L208 39z" fill="url(#paint3_linear)"/><defs><linearGradient id="paint0_linear" x1="-9.32" y1="105.44" x2="72.67" y2="-36.55" gradientUnits="userSpaceOnUse"><stop stop-color="#AB85FF"/><stop offset=".53" stop-color="#EBA3E3"/><stop offset="1" stop-color="#FFDBE4"/></linearGradient><linearGradient id="paint1_linear" x1="128.68" y1="105.44" x2="210.67" y2="-36.55" gradientUnits="userSpaceOnUse"><stop stop-color="#AB85FF"/><stop offset=".53" stop-color="#EBA3E3"/><stop offset="1" stop-color="#FFDBE4"/></linearGradient><linearGradient id="paint2_linear" x1="40.73" y1="56.1" x2="40.75" y2="53.72" gradientUnits="userSpaceOnUse"><stop stop-color="#AB85FF"/><stop offset=".53" stop-color="#EBA3E3"/><stop offset="1" stop-color="#FFDBE4"/></linearGradient><linearGradient id="paint3_linear" x1="182.82" y1="80.8" x2="226.62" y2="24.18" gradientUnits="userSpaceOnUse"><stop stop-color="#AB85FF"/><stop offset=".53" stop-color="#EBA3E3"/><stop offset="1" stop-color="#FFDBE4"/></linearGradient></defs></svg>