<svg width="260" height="115" fill="none" xmlns="http://www.w3.org/2000/svg">
  <path fill="#fff" d="M178.7 37.2h45.6v45.6h-45.6z"/>
  <path stroke="url(#paint0_linear)" stroke-width=".4" d="M183.6 45.7h35.3v3.6h-35.3z"/>
  <path stroke="url(#paint1_linear)" stroke-width=".4" d="M183.6 54.2h35.3v3.6h-35.3z"/>
  <path stroke="url(#paint2_linear)" stroke-width=".4" d="M183.6 62.7h35.3v3.6h-35.3z"/>
  <path stroke="url(#paint3_linear)" stroke-width=".4" d="M183.6 71.2h35.3v3.6h-35.3z"/>
  <path stroke="url(#paint4_linear)" stroke-width=".4" d="M178.7 37.2h45.6v45.6h-45.6z"/>
  <path fill="#fff" d="M122.8 24.3h70.3v70.3h-70.3z"/>
  <path stroke="url(#paint5_linear)" stroke-width=".7" d="M130.4 37.4h54.5v5.5h-54.5z"/>
  <path stroke="url(#paint6_linear)" stroke-width=".7" d="M130.4 50.5h54.5V56h-54.5z"/>
  <path stroke="url(#paint7_linear)" stroke-width=".7" d="M130.4 63.6h54.5v5.5h-54.5z"/>
  <path stroke="url(#paint8_linear)" stroke-width=".7" d="M130.4 76.7h54.5v5.5h-54.5z"/>
  <path stroke="url(#paint9_linear)" stroke-width=".7" d="M122.8 24.3h70.3v70.3h-70.3z"/>
  <path fill="#fff" d="M36 6.5h102v102H36z"/>
  <path stroke="url(#paint10_linear)" d="M47 25.5h79v8H47z"/>
  <path stroke="url(#paint11_linear)" d="M47 44.5h79v8H47z"/>
  <path stroke="url(#paint12_linear)" d="M47 63.5h79v8H47z"/>
  <path stroke="url(#paint13_linear)" d="M47 82.5h79v8H47z"/>
  <path stroke="url(#paint14_linear)" d="M36 6.5h102v102H36z"/>
  <defs>
    <linearGradient id="paint0_linear" x1="177.6" y1="49.9" x2="178.4" y2="40.4" gradientUnits="userSpaceOnUse">
      <stop stop-color="#AB85FF"/>
      <stop offset=".5" stop-color="#EBA3E3"/>
      <stop offset="1" stop-color="#FFDBE4"/>
    </linearGradient>
    <linearGradient id="paint1_linear" x1="177.6" y1="58.4" x2="178.4" y2="48.9" gradientUnits="userSpaceOnUse">
      <stop stop-color="#AB85FF"/>
      <stop offset=".5" stop-color="#EBA3E3"/>
      <stop offset="1" stop-color="#FFDBE4"/>
    </linearGradient>
    <linearGradient id="paint2_linear" x1="177.6" y1="66.9" x2="178.4" y2="57.4" gradientUnits="userSpaceOnUse">
      <stop stop-color="#AB85FF"/>
      <stop offset=".5" stop-color="#EBA3E3"/>
      <stop offset="1" stop-color="#FFDBE4"/>
    </linearGradient>
    <linearGradient id="paint3_linear" x1="177.6" y1="75.4" x2="178.4" y2="65.9" gradientUnits="userSpaceOnUse">
      <stop stop-color="#AB85FF"/>
      <stop offset=".5" stop-color="#EBA3E3"/>
      <stop offset="1" stop-color="#FFDBE4"/>
    </linearGradient>
    <linearGradient id="paint4_linear" x1="171" y1="87.6" x2="224" y2="19.1" gradientUnits="userSpaceOnUse">
      <stop stop-color="#AB85FF"/>
      <stop offset=".5" stop-color="#EBA3E3"/>
      <stop offset="1" stop-color="#FFDBE4"/>
    </linearGradient>
    <linearGradient id="paint5_linear" x1="121.1" y1="43.9" x2="122.4" y2="29.3" gradientUnits="userSpaceOnUse">
      <stop stop-color="#AB85FF"/>
      <stop offset=".5" stop-color="#EBA3E3"/>
      <stop offset="1" stop-color="#FFDBE4"/>
    </linearGradient>
    <linearGradient id="paint6_linear" x1="121.1" y1="57" x2="122.4" y2="42.4" gradientUnits="userSpaceOnUse">
      <stop stop-color="#AB85FF"/>
      <stop offset=".5" stop-color="#EBA3E3"/>
      <stop offset="1" stop-color="#FFDBE4"/>
    </linearGradient>
    <linearGradient id="paint7_linear" x1="121.1" y1="70.1" x2="122.4" y2="55.5" gradientUnits="userSpaceOnUse">
      <stop stop-color="#AB85FF"/>
      <stop offset=".5" stop-color="#EBA3E3"/>
      <stop offset="1" stop-color="#FFDBE4"/>
    </linearGradient>
    <linearGradient id="paint8_linear" x1="121.1" y1="83.2" x2="122.4" y2="68.5" gradientUnits="userSpaceOnUse">
      <stop stop-color="#AB85FF"/>
      <stop offset=".5" stop-color="#EBA3E3"/>
      <stop offset="1" stop-color="#FFDBE4"/>
    </linearGradient>
    <linearGradient id="paint9_linear" x1="111" y1="102.1" x2="192.8" y2="-3.7" gradientUnits="userSpaceOnUse">
      <stop stop-color="#AB85FF"/>
      <stop offset=".5" stop-color="#EBA3E3"/>
      <stop offset="1" stop-color="#FFDBE4"/>
    </linearGradient>
    <linearGradient id="paint10_linear" x1="33.5" y1="34.9" x2="35.3" y2="13.6" gradientUnits="userSpaceOnUse">
      <stop stop-color="#AB85FF"/>
      <stop offset=".5" stop-color="#EBA3E3"/>
      <stop offset="1" stop-color="#FFDBE4"/>
    </linearGradient>
    <linearGradient id="paint11_linear" x1="33.5" y1="53.9" x2="35.3" y2="32.6" gradientUnits="userSpaceOnUse">
      <stop stop-color="#AB85FF"/>
      <stop offset=".5" stop-color="#EBA3E3"/>
      <stop offset="1" stop-color="#FFDBE4"/>
    </linearGradient>
    <linearGradient id="paint12_linear" x1="33.5" y1="72.9" x2="35.3" y2="51.6" gradientUnits="userSpaceOnUse">
      <stop stop-color="#AB85FF"/>
      <stop offset=".5" stop-color="#EBA3E3"/>
      <stop offset="1" stop-color="#FFDBE4"/>
    </linearGradient>
    <linearGradient id="paint13_linear" x1="33.5" y1="91.9" x2="35.3" y2="70.6" gradientUnits="userSpaceOnUse">
      <stop stop-color="#AB85FF"/>
      <stop offset=".5" stop-color="#EBA3E3"/>
      <stop offset="1" stop-color="#FFDBE4"/>
    </linearGradient>
    <linearGradient id="paint14_linear" x1="18.7" y1="119.3" x2="137.5" y2="-34.2" gradientUnits="userSpaceOnUse">
      <stop stop-color="#AB85FF"/>
      <stop offset=".5" stop-color="#EBA3E3"/>
      <stop offset="1" stop-color="#FFDBE4"/>
    </linearGradient>
  </defs>
</svg>
