<svg width="341" height="180" fill="none" xmlns="http://www.w3.org/2000/svg"><path d="M261 121c13.5-1 39.3-11.7 40.5-40.5 0-36-27.5-45.5-41-45.5H114M261.2 121H189M77.5 56C64 57 38.2 67.7 37 96.5c0 36 27.5 45.5 41 45.5h146.5M77.3 56h72.2M209.5 35.5v85m0-85v85M214 35v86m0-86v86M219 35v86m0-86v86M224 35v86m0-86v86M229 35v86m0-86v86M234 35v86m0-86v86M239 35v86m0-86v86M244 35v86m0-86v86" stroke="#000"/><circle cx="288" cy="44" r="17" fill="#A57CFE"/><circle cx="225" cy="142" r="11" fill="#8052E4"/><circle cx="82.5" cy="98.5" r="35.5" fill="#31D67B"/><circle cx="96.38" cy="93.38" r="1.38" fill="#D4D4D4"/><circle cx="102.13" cy="93.38" r="1.38" fill="#D4D4D4"/><circle cx="107.88" cy="93.38" r="1.38" fill="#D4D4D4"/><circle cx="113.38" cy="93.38" r="1.38" fill="#D4D4D4"/><circle cx="119.38" cy="93.38" r="1.38" fill="#D4D4D4"/><circle cx="125.13" cy="93.38" r="1.38" fill="#D4D4D4"/><circle cx="130.88" cy="93.38" r="1.38" fill="#D4D4D4"/><circle cx="136.63" cy="93.38" r="1.38" fill="#D4D4D4"/><circle cx="142.38" cy="93.38" r="1.38" fill="#D4D4D4"/><circle cx="96.38" cy="99.13" r="1.38" fill="#D4D4D4"/><circle cx="102.13" cy="99.13" r="1.38" fill="#D4D4D4"/><circle cx="96.38" cy="104.88" r="1.38" fill="#D4D4D4"/><circle cx="102.13" cy="104.88" r="1.38" fill="#D4D4D4"/><circle cx="107.88" cy="104.88" r="1.38" fill="#D4D4D4"/><circle cx="113.63" cy="104.88" r="1.38" fill="#D4D4D4"/><circle cx="119.38" cy="104.88" r="1.38" fill="#D4D4D4"/><circle cx="125.13" cy="104.88" r="1.38" fill="#D4D4D4"/><circle cx="130.88" cy="104.88" r="1.38" fill="#D4D4D4"/><circle cx="136.63" cy="104.88" r="1.38" fill="#D4D4D4"/><circle cx="142.38" cy="104.88" r="1.38" fill="#D4D4D4"/><circle cx="107.88" cy="99.13" r="1.38" fill="#D4D4D4"/><circle cx="113.38" cy="99.13" r="1.38" fill="#D4D4D4"/><circle cx="119.38" cy="99.13" r="1.38" fill="#D4D4D4"/><circle cx="125.13" cy="99.13" r="1.38" fill="#D4D4D4"/><circle cx="130.88" cy="99.13" r="1.38" fill="#D4D4D4"/><circle cx="136.63" cy="99.13" r="1.38" fill="#D4D4D4"/><circle cx="142.38" cy="99.13" r="1.38" fill="#D4D4D4"/><path d="M119 35v21M122 35v21M125 35v21M128 35v21M131 35v21" stroke="#000"/></svg>