<svg width="341" height="180" fill="none" xmlns="http://www.w3.org/2000/svg"><path d="M152 89.5a67.5 67.5 0 00135 0H152z" fill="#AB85FF"/><circle cx="145.4" cy="119.4" r="1.4" fill="#D4D4D4"/><circle cx="151.1" cy="119.4" r="1.4" fill="#D4D4D4"/><circle cx="156.9" cy="119.4" r="1.4" fill="#D4D4D4"/><circle cx="162.4" cy="119.4" r="1.4" fill="#D4D4D4"/><circle cx="168.4" cy="119.4" r="1.4" fill="#D4D4D4"/><circle cx="174.1" cy="119.4" r="1.4" fill="#D4D4D4"/><circle cx="179.9" cy="119.4" r="1.4" fill="#D4D4D4"/><circle cx="185.6" cy="119.4" r="1.4" fill="#D4D4D4"/><circle cx="191.4" cy="119.4" r="1.4" fill="#D4D4D4"/><circle cx="145.4" cy="125.1" r="1.4" fill="#D4D4D4"/><circle cx="151.1" cy="125.1" r="1.4" fill="#D4D4D4"/><circle cx="145.4" cy="130.9" r="1.4" fill="#D4D4D4"/><circle cx="151.1" cy="130.9" r="1.4" fill="#D4D4D4"/><circle cx="156.9" cy="130.9" r="1.4" fill="#D4D4D4"/><circle cx="162.6" cy="130.9" r="1.4" fill="#D4D4D4"/><circle cx="168.4" cy="130.9" r="1.4" fill="#D4D4D4"/><circle cx="174.1" cy="130.9" r="1.4" fill="#D4D4D4"/><circle cx="179.9" cy="130.9" r="1.4" fill="#D4D4D4"/><circle cx="185.6" cy="130.9" r="1.4" fill="#D4D4D4"/><circle cx="191.4" cy="130.9" r="1.4" fill="#D4D4D4"/><circle cx="156.9" cy="125.1" r="1.4" fill="#D4D4D4"/><circle cx="162.4" cy="125.1" r="1.4" fill="#D4D4D4"/><circle cx="168.4" cy="125.1" r="1.4" fill="#D4D4D4"/><circle cx="174.1" cy="125.1" r="1.4" fill="#D4D4D4"/><circle cx="179.9" cy="125.1" r="1.4" fill="#D4D4D4"/><circle cx="185.6" cy="125.1" r="1.4" fill="#D4D4D4"/><circle cx="191.4" cy="125.1" r="1.4" fill="#D4D4D4"/><path d="M139 119.5V113h6.5M198.5 129v6.5H192" stroke="#31D67B"/><path fill="#31D67B" d="M43 33h169v27H43z"/><path stroke="#000" d="M267.5 74.5h30v30h-30z"/><circle cx="244" cy="115" r="10" fill="#B491FF"/><g clip-path="url(#clip0)" fill="#000"><path d="M71.8 51c.2 0 .3 0 .4.2l9.3 9.3c.2.2.2.5 0 .7L73 69.8l9 9c.2.1.2.5 0 .7L73.4 88l9 9c.2.2.2.5 0 .7l-8.6 8.6 9 9v.7l-9 8.8a.5.5 0 01-.6-.7l8.4-8.5-9-9a.5.5 0 010-.6h.1v-.1l8.6-8.5-9-9a.5.5 0 01-.1-.4l.1-.4 8.5-8.5-9-9a.5.5 0 010-.7h.1l8.5-8.6-9-9a.5.5 0 010-.6l.4-.2zM85.7 51c.2 0 .3 0 .4.2l9.3 9.3c.2.2.2.5 0 .7l-8.6 8.6 9 9c.2.1.2.5 0 .7L87.2 88l9 9c.3.2.3.5 0 .7l-8.5 8.6 9 9v.7l-9 8.8a.5.5 0 01-.6-.7l8.4-8.5-9-9a.5.5 0 010-.6h.1v-.1l8.6-8.5-9-9a.5.5 0 01-.1-.4l.1-.4 8.5-8.5-9-9a.5.5 0 010-.7h.1l8.5-8.6-9-9a.5.5 0 010-.6l.4-.2zM99.6 51c.2 0 .3 0 .4.2l9.3 9.3c.2.2.2.5 0 .7l-8.6 8.6 9 9c.2.1.2.5 0 .7L101 88l9 9c.2.2.2.5 0 .7l-8.5 8.6 9 9v.7l-9 8.8a.5.5 0 01-.7-.7l8.5-8.5-9-9a.5.5 0 010-.6h.1v-.1l8.5-8.5-9-9a.5.5 0 010-.4l.1-.4 8.5-8.5-9-9a.5.5 0 010-.7h.1l8.5-8.6-9-9a.5.5 0 010-.6l.4-.2z"/></g><circle cx="267" cy="136" r="16" fill="#8052E4"/><defs><clipPath id="clip0"><path fill="#fff" transform="matrix(1 0 0 -1 54 125)" d="M0 0h74v74H0z"/></clipPath></defs></svg>