<svg xmlns="http://www.w3.org/2000/svg" width="260" height="115" fill="none"><path d="M60.4 72.5c0-1.5-.3-2.8-.8-3.9-.5-1-1.4-2-2.5-2.8a37.7 37.7 0 00-10.2-4 44.7 44.7 0 01-12.5-5.3A15.7 15.7 0 0127.3 43c0-8.2 5.8-14.3 15.2-16.4h.4v-9h9.7v8.4h.5c5 .5 10 2.1 13.7 4.4l-5.3 8.2a24.5 24.5 0 00-20.1-1.4c-2.5 1.1-4.3 3-4.3 5.8a7 7 0 00.6 3.1c.4 1 1.2 1.7 2.2 2.4a38 38 0 009.8 4c4.6 1.3 9.3 2.8 13.1 5.5 5 3.4 7.4 8.4 7.3 14.6v0c0 8.6-6.6 14.9-17 16.4h-.5v8.6H43V88.8h-.4c-6-1.2-11.5-4-15.4-8l7-6.7c3.4 3.2 9 5.4 14 5.4 2.7 0 5.8-.4 8.1-1.5 2.4-1 4.2-2.9 4.2-5.5zm0 0h0" stroke="url(#paint0_linear)"/><path d="M141.4 72.5c0-1.5-.3-2.8-.8-3.9-.5-1-1.4-2-2.5-2.8a37.7 37.7 0 00-10.2-4 44.7 44.7 0 01-12.5-5.3h0a15.7 15.7 0 01-7.1-13.6c0-8.2 5.8-14.3 15.2-16.4h.4v-9h9.7v8.4h.5c5 .5 10 2.1 13.7 4.4l-5.3 8.2a24.5 24.5 0 00-20.1-1.4c-2.5 1.1-4.3 3-4.3 5.8a7 7 0 00.6 3.1c.4 1 1.2 1.7 2.2 2.4a38 38 0 009.8 4h0c4.6 1.3 9.3 2.8 13.1 5.5 5 3.4 7.4 8.4 7.3 14.6v0c0 8.6-6.6 14.9-17 16.4h-.5v8.6H124V88.8h-.4c-6-1.2-11.5-4-15.4-8l7-6.7c3.4 3.2 9 5.4 14 5.4 2.7 0 5.8-.4 8.1-1.5 2.4-1 4.2-2.9 4.2-5.5zm0 0h-.5" stroke="url(#paint1_linear)"/><path d="M222.4 72.5c0-1.5-.3-2.8-.8-3.9-.5-1-1.4-2-2.5-2.8a37.7 37.7 0 00-10.2-4 44.7 44.7 0 01-12.5-5.3h0a15.7 15.7 0 01-7.1-13.6c0-8.2 5.8-14.3 15.2-16.4h.4v-9h9.7v8.4h.5c5 .5 10 2.1 13.7 4.4l-5.3 8.2a24.5 24.5 0 00-20.1-1.4c-2.5 1.1-4.3 3-4.3 5.8a7 7 0 00.6 3.1c.4 1 1.2 1.7 2.2 2.4a38 38 0 009.8 4h0c4.6 1.3 9.3 2.8 13.1 5.5 5 3.4 7.4 8.4 7.3 14.6v0c0 8.6-6.6 14.9-17 16.4h-.5v8.6H205V88.8h-.4c-6-1.2-11.5-4-15.4-8l7-6.7c3.4 3.2 9 5.4 14 5.4 2.7 0 5.8-.4 8.1-1.5 2.4-1 4.2-2.9 4.2-5.5zm0 0h-.5m.5 0v0" stroke="url(#paint2_linear)"/><defs><linearGradient id="paint0_linear" x1="19.2" y1="106.1" x2="110.1" y2="41.9" gradientUnits="userSpaceOnUse"><stop stop-color="#AB85FF"/><stop offset=".5" stop-color="#EBA3E3"/><stop offset="1" stop-color="#FFDBE4"/></linearGradient><linearGradient id="paint1_linear" x1="100.2" y1="106.1" x2="191.1" y2="41.9" gradientUnits="userSpaceOnUse"><stop stop-color="#AB85FF"/><stop offset=".5" stop-color="#EBA3E3"/><stop offset="1" stop-color="#FFDBE4"/></linearGradient><linearGradient id="paint2_linear" x1="181.2" y1="106.1" x2="272.1" y2="41.9" gradientUnits="userSpaceOnUse"><stop stop-color="#AB85FF"/><stop offset=".5" stop-color="#EBA3E3"/><stop offset="1" stop-color="#FFDBE4"/></linearGradient></defs></svg>