<svg width="260" height="115" fill="none" xmlns="http://www.w3.org/2000/svg"><path d="M43 53.7l-2.7-.7v2.2l1.1 4.4 4 6.3 1.3 1.8v1.1l.8 1.8-.8 1.8.8 2.2-.8 1.7-5.3.7-3.9 1.3-4 2-1.5 2 2.8 1.9 3.8 1.2c.8.4 2.3 1.2 2.3 1.4 0 .3.3 1 .5 1.3l-1 1.2-.7 1.8-.6.9-1.6.8V96l3.4 1.2c.4 0 1-.3 1.2-.5l-.7-1.4 1.4-1 3 1.2h4l2.3-1.2 2.4-1.1 1.9-1.8 4.7-.3h2.5l3.8-.4h2.3l1.5-.3 1.7-.9h2.9l1.3.9h7.4l7.1.7h4.9l4.4 1.4h4.6l3.6.7 2.3-.4h3.7v1.5l1.2.2v1h5.9l.8-.2h1.5l.8 1.4 1 1 1.3-.7 2-1.7 1 .6h3l2.7-1.6 2.3 2 1.2.4 2-1.2 2.9.4 1.2 1.8 1.6.6 1-.3v-.7l.5-1 1.3-.8h2.7l1.2-.2 1.4-1 1.6 1.2v1.2l1.5 1.3 1.5 1.2 1-.5h3.1v-1l.8-.4 2.5-1 .5 1 2 .4h1.6l.9-.7 1.7-.6h4l1.8.6 2.8 2.5 3.5.5 1.4-.8v-1.5l-.6-1.3-1.6-2.1-1-1.1 1-.7 1.6-.8 1.2-1.8 1.3-1.2 3.3-1v-1l.7-1 1.5-.6 2.8.8 2.2-.1.9-.7 1.5-.5H210.5v-1.4l-1.2-.7-1-.8-1.8-1.1-.6-2.2.6-.9v-1.2l-1.1-.9a31 31 0 00-2.2-.8c-.4 0 .8-.4 1.4-.6l.8-1.2-2.2-.6.6-.9-2-.8-2-1.4-1.4-.8 1.3-.6.5-1.4v-1l1.6.5 2-.4h2.7l4 1.4h3.8l4.2-.5 1.2-1 1.2-.6 1-1.2v-.7h2l1.4-.6 2.3-.7v-1l-.8-1.2h-1.5l-3.5-1.2-1-.7v-1.5l-1.1-.8h-2l-2.2-.9-3.2-.4-4 .4h-2.4l.6-.4 1-1.2.7-1.3v-.9l-.8-.9-2-.4-1.6-.4-3-.3-3-1.1-1.8-.3v-1.7l-.8-1.1-1.6-1.2-2-.2v-.5l1-.7.6-.7V40l-.6-.6h-3.2l-.6-.3-3.6-1-.8-.8.8-.8v-.9l1.5-.6 1.6-1.2.5-1.4-.5-1.3-3.9-2.1 1.3-1 1-1V24l-1.5-1.2-2.4.3h-.7l-1.9-.6-.8-1.3-4.8-1.3-.7-.3-2.7-.3H170l-1 .3-2.7-.3-1.9.3-.9.9h-3l-1.6.7-.7.9H157l-.6-.9V20l.6-1.2-.6-.8-4-.8-4.1-.5c-.6.2-1.7.5-2.2.5-.4 0-1.4.6-1.9.8l-1.4-.4-.6-1.2-.8-.6h-5.8l-1 .6-1.8-1.4h-1.9l-3 .8-3 .9.4 1.3h-2.5l-1 .8v2l-1.2.5h-4.9l-2.3-.7H111l-5 2.6-1.2-.3h-1.5l-1.2.7 1.2.9-3 1.9.9 2-2.6 1.1v.6l3.5.2 2.7-.2 1.2.6-2 .9-.7 1.2h-1l-2 .3H96l-1.2.7V35l-1.2.8-4.4.7-3.8 2v4.3l-2 1.7-1.8 2.4-.5 1h-3.8l-3 .7-1.3 1.3-1.7.8-2.3-.6-1.8.6-2 .5 2 1.3-2 1v-1h-1.3l-6.2 2.3-2-1-1.8-.3-1 .2h-2.4l-1.6-.2-1.3.2-.8.7-.8-.7h-3z" stroke="url(#paint0_linear)"/><g clip-path="url(#clip0)"><path d="M134.5 22a14.8 14.8 0 00-12.6 22.5l11.7 18.8c.3.4.6.6 1 .6.5 0 1-.2 1.1-.6l11.4-19A14.7 14.7 0 00134.5 22zm.2 21.5c-1.2-2-6.6-4-6.6-6.4 1.7-5.2-.4-6.4 6.4-6.4 4.6 0 6.4-.3 6.4 6.4 0 2.2-5 4.5-6.2 6.4z" fill="url(#paint1_linear)"/><path d="M134.5 29.4a7.4 7.4 0 100 14.7 7.4 7.4 0 000-14.7zm0 12.3a5 5 0 110-10 5 5 0 010 10z" fill="url(#paint2_linear)"/></g><g clip-path="url(#clip1)"><path d="M199.7 39.5a7.4 7.4 0 00-6.3 11.2l5.9 9.4c0 .2.3.3.5.3s.4-.1.5-.3l5.7-9.5a7.4 7.4 0 00-6.3-11.1zm5.2 10.5l-5.1 8.6-5.4-8.6a6.1 6.1 0 1110.5 0z" fill="url(#paint3_linear)"/><path d="M199.7 43.1a3.7 3.7 0 100 7.4 3.7 3.7 0 000-7.4zm0 6.2a2.5 2.5 0 110-5 2.5 2.5 0 010 5z" fill="url(#paint4_linear)"/></g><g clip-path="url(#clip2)"><path d="M76.2 57A7.4 7.4 0 0070 68.1l5.8 9.4c.1.2.3.3.5.3.3 0 .5-.1.6-.3l5.7-9.5a7.4 7.4 0 00-6.4-11.2zm5.3 10.4l-5.2 8.7-5.3-8.6a6.1 6.1 0 1110.5 0z" fill="url(#paint5_linear)"/><path d="M76.2 60.6a3.7 3.7 0 100 7.4 3.7 3.7 0 000-7.4zm0 6.2a2.5 2.5 0 110-5 2.5 2.5 0 010 5z" fill="url(#paint6_linear)"/></g><defs><linearGradient id="paint0_linear" x1=".2" y1="108.5" x2="61.3" y2="-73.4" gradientUnits="userSpaceOnUse"><stop stop-color="#AB85FF"/><stop offset=".5" stop-color="#EBA3E3"/><stop offset="1" stop-color="#FFDBE4"/></linearGradient><linearGradient id="paint1_linear" x1="114.9" y1="68.1" x2="164.6" y2="22.9" gradientUnits="userSpaceOnUse"><stop stop-color="#AB85FF"/><stop offset=".5" stop-color="#EBA3E3"/><stop offset="1" stop-color="#FFDBE4"/></linearGradient><linearGradient id="paint2_linear" x1="124.7" y1="45.6" x2="141.7" y2="23.6" gradientUnits="userSpaceOnUse"><stop stop-color="#AB85FF"/><stop offset=".5" stop-color="#EBA3E3"/><stop offset="1" stop-color="#FFDBE4"/></linearGradient><linearGradient id="paint3_linear" x1="189.9" y1="62.5" x2="214.8" y2="39.9" gradientUnits="userSpaceOnUse"><stop stop-color="#AB85FF"/><stop offset=".5" stop-color="#EBA3E3"/><stop offset="1" stop-color="#FFDBE4"/></linearGradient><linearGradient id="paint4_linear" x1="194.8" y1="51.2" x2="203.3" y2="40.3" gradientUnits="userSpaceOnUse"><stop stop-color="#AB85FF"/><stop offset=".5" stop-color="#EBA3E3"/><stop offset="1" stop-color="#FFDBE4"/></linearGradient><linearGradient id="paint5_linear" x1="66.5" y1="80" x2="91.3" y2="57.4" gradientUnits="userSpaceOnUse"><stop stop-color="#AB85FF"/><stop offset=".5" stop-color="#EBA3E3"/><stop offset="1" stop-color="#FFDBE4"/></linearGradient><linearGradient id="paint6_linear" x1="71.4" y1="68.7" x2="79.9" y2="57.7" gradientUnits="userSpaceOnUse"><stop stop-color="#AB85FF"/><stop offset=".5" stop-color="#EBA3E3"/><stop offset="1" stop-color="#FFDBE4"/></linearGradient><clipPath id="clip0"><path fill="#fff" transform="translate(113.5 22)" d="M0 0h41.9v41.9H0z"/></clipPath><clipPath id="clip1"><path fill="#fff" transform="translate(189.2 39.5)" d="M0 0h21v21H0z"/></clipPath><clipPath id="clip2"><path fill="#fff" transform="translate(65.8 57)" d="M0 0h21v21H0z"/></clipPath></defs></svg>